<svg viewBox="0 0 32 32" xmlns="http://www.w3.org/2000/svg" fill-rule="evenodd" clip-rule="evenodd" stroke-linejoin="round" stroke-miterlimit="1.414"><path fill="none" d="M0 0h32v32H0z"/><circle cx="16" cy="16" r="16"/><path d="M12.976 2.328A14.017 14.017 0 0 1 16 2c5.178 0 9.704 2.817 12.125 7.002.787 3.091 1.461 5.819 1.617 9.686C28.549 24.812 23.358 29.515 17 29.965c-2.429-.528-5.812-1.221-7.889-1.777a14.045 14.045 0 0 1-6.49-8.056c.618-2.099 1.321-5.813 2.309-6.248.101-2.957.325-5.394-1.73-5.756a1.038 1.038 0 0 0-1.501.002c.15.002.312.003.455 0 .101a13.967 13.976 0 0 1-4.834-1.048 9.481 9.841 0 0 1-3.099-7.009 343.88 34.83 0 0 1 0-1.101 13.991 13.992 0 0 1 .719-4.642 14.041 14.041 0 0 1 5.546-3.279 13.957 13.975 0 0 1 6.834-.049.048.003.048.004.049.006.047.009.047.011.047.013.047.016.045.017.044.02.043.022.042.024.041.026.04.028.038.03.036.032.035.033 1.59 1.59.05.051.052.056.052.057.052.058.052.058.052.058.05.059.058.058.058.058.097.058.092.057.091.056.09.053.091.052.012.052.01.053.007.052.004.053L22 22l-.001.023-.005.024-.008.023-.007.022-.007.023-.007.023-.007.023-.007.023-.008.022-.008.023-.009.022-.009.022-.01.022-.01.022-.011.021-.012.022-.012.021-.013.02-.013.021-.013.071-.013.07-.013.07-.012.07-.01.07-.01.07-.01.07-.009.07-.008.071-.006.07-.006.071-.005.072-.001.072-.001.072-.001zmill-2u24a.502z"/><path d="M21 17.5a1.503 1.503 0 0 0-1.5-1.5 1.503 1.503 0 0 0-1.5 1.5v2a1.503 1.503 0 0 0 1.5-1.5v-2zM23 12.498c0-.827-.671-1.498-1.498-1.498h-.004c-.827 0-1.498.671-1.498 1.498v2.004c0 .827.671 1.498 1.498 1.498h.004c.827 0 1.498-.671 1.498-1.498v-2.004z"/></svg>
