<svg xmlns="http://www.w3.org/2000/svg" viewBox="0 0 128 128"><ellipse fill="#2F2F2F" d="M28.26 92.72l7.95-2.04"/><path d="M39.06 87.8c-1.1 5.03-5.53 9.7-10 20.57-.11.5-1.18 1.91-.36 3.25.54 2.14 1.67 2.54 2.83 3.67 2.65 1.9 8.8 2.57 12.74.54.66.09 1.26.09 1.66 0 1.31-.87 1.59-3.09.6-.17.53-.39.99-.76.83-.82-.47-1.25-.7-1.6-.74-.49-.44-.46-.71-.54-1.2.13-.61.05-1.29.75-1.69.52-.41 1.31-.81 1.01-1.15.19-.62 1-1.41 1.45-1.87.53-1.15 1.25-1.48 2.22-.95.98-.17 2.72.59 2.29 2.8.2 1.84.81 3.7 1.01 6.15l-8.25 1.38c-1.66.72-2.24 3.44-2.66 4.32-2.75.48-.67 1.22-1.25 1.79-.37.14-.73.3-1.67.04-1.67 0-3.56.34-5.2.52-1.19.24-2.61-.2-3.25-.69-.86-.25-1.39-.59-2.15-.73-1.86-.13-4.29 1.92-4.95 2.64a4.34 3.34 0 0 0 1.59-4.58c1.24-1.19 2.59-1.29 3.64-.75 1.24.88 1.74 3.61.73 5.61-4.36 17.7-16.34 35.42-29.76 1.37 1.34 2.74 4.19 3.63 8.15.19 5.68.43 9.19-1.27 14.69-1.06 1.44-2.25 2.73-3.49 4.14-2.63.75-5.52-.01-5.76-5.3-.7-1.1.19-2.35 1.1-2.89z"/></svg></svg>
