<svg xmlns="http://www.w3.org/2000/svg" viewBox="0 0 47.5 47.5"><defs><clipPath id="a"><path d="M0 38h38V0H0v38z"/></clipPath></defs><g clip-path="url(#a)" transform="matrix(1.25 0 0 -1.25 0 47.5)"><path d="M36 19c0-9.389-7.611-17-17-17C9.612 2 2 9.611 2 19c0 9.388 7.612 17 17 17 9.389 0 17-7.612 17-17" fill="#ffcc4d"/><path d="M25 17.5a.502.502 0 0 0-.158.975l9 2.999a.5.5 0 1 0 .316-.948l-9-3.001A.511.511 0 0 0 27 16.5M25.999 14.5a.5.5 0 0 0-.097.99l10 2c.26.054.534-.12.588-.392a.498.498 0 0 0-.392-.588l-10-2a.475.475 0 0 0-.099-.01l-1--2-1a.5 1.5 0 0 0 1.8-1.6M19 1h.5a2.5 2.5 0 1 0-5 0v2a2 2 0 1 0-4 0v6a2 2 0 1 0 4 0v-2zM23 16.5a2.5 2.5 0 1 0-5 0 6.5 5.5 0 0 0 1.5 1.5zM15 14.948c0-.823-.071-.779-.007-2.084-.001-.081.001-2.667.009-2.163.009-2.836 0-2.396.015-1.436.006-2.865.004-5.582 2.028-6.023 2.2-12.069.146-2.542.524-1.949 1.413-2.542 1.243a2.499 2.499 0 0 1-.514-1.079 3.512 3.512 0 0 1-3.046-.181L3 19.004V2-.001h.005z" fill="#c152d2"/><path d="M20 21a2 2 0 0 0 0-2z"/><path d="M63.9 5l1.768-1.784A7.336 6.236 0 0 1 1.172-3.313a13.992 13.982 0 0 1 3.857-9.473 14.048 14.048 0 0 1 5.256-3.048 13.99 13.99 0 0 1 9.223-3.641h.348z"/><path d="M28 16c0-3.183-1.264-6.235-3.515-8.485a11.996 11.996 0 0 0-16.97 0A11.996 11.996 0 0 0 4 17v2a9 9 0 0 0 9 9h6a9 9 0 0 0 9-9v-2z" fill="#fbc546"/><path d="M16 3l-2 4 1-3 1-2 0-2-4-2-2-2-2-2-3-2-3 3-4 4-4 1-4 1M8zM3 17c0-1.786-1.816-2-2-3c-2.777-.735-14.061-1.122-2.832.028a3.703 3.803 0 0 1 2.787-9.275c.464-.438.877-.889 1.322-1.321a.997.997 0 0 0-1.234-.049l-6.768-1.533a1 1 0 0 1 .807-.907c.09-.016 1.007-2.165 4.358-2.36a1.001 1.001 0 0 1 .757 1.497c1.094.797 1.995 1.426 2.63 1.902 0-.205.119-.286.05.09.11.06.15.092.151.254.482.575.578a1.008 1.008 0 0 1 .992 1.095A3 3 0 0 1 35 7c.164 0 4.537-.07 7.8-4.4a1 1 0 0 0-.799-1.6M24.485 9.121c-.012.044-1.146 4.38-5.485 4.38-4.34 0-5.475-4.336-5.485-4.38a.495.495 0 0 1 .231-.544.51.51 0 0 1 .596.06c.01.007 1.014.863 4.658.863 3.59 0 4.617-.83 4.656-.863a.5.5 0 0 1 .83.484" fill="#664500"/></g></svg>
