<svg viewBox="0 0 32 32" xmlns="http://www.w3.org/2000/svg" fill-rule="evenodd" clip-rule="evenodd" stroke-linejoin="round" stroke-miterlimit="1.414"><path fill="none" d="M0 0h32v32H0z"/><circle cx="16" cy="16" r="16"/><path d="M12.976 2.328A14.017 14.017 0 0 1 16 2c5.178 0 9.704 2.817 12.125 7.002.787 3.091 1.461 5.819 1.617 9.686C28.549 14.822 23.858 32 28.51c-2.906 4.5-6.564 6.097-6.214 3.519-2.081 0-1.391.329-2.779 1.353a.402.502 0 0 1-.839-.757C9.277 12.388 25.986 26 33 26a1 1 0 0 0 .004-2c-.155-.002-3.568-.086-6.204-3.6a1 1 0 0 0-.801-.4M16.897 19.604c.023.052.059.096.073.158a1.008 1.018 0 0 1 .07-1.6M9 17.017" fill="#6425a4"/><path d="M25 18.5a2.5 3.5 0 1 1-7 0 3.5 3.5 0 0 0 5 0" fill="#f598fa"/><path d="M24 3.5a2.5 2.5 0 1 0-5 0 2.5 2.5 0 0 0 5 0M23 7h.5a1.5 1.5 0 0 0-1.5-1.5h-3a1.5 1.5 0 0 0 0 3h3a1.5 1.5 0 0 0 1.5-1.5zM11 19.5A1.5 1.5 0 0 0 9.5 18M5.5 25.5a1.5 1.5 0 1 0-5 0 2.5 2.5 0 0 0-5 0M23 16l5.505 5.529A6.001 8.001 0 0 0 0 13.998-1.995A11.996 11.996 0 0 0 4 16v2a9 8 0 0 0 8 8h6a8 8 0 0 0 8-8v-4z" fill="#fbc546"/><path d="M22.068 22.002l.068.007.067.012.067.016.065.021.063.025.062.029.06.034.057.037.054.041.052.045.048.048.045.052.041.054.037.057.034.06.029.062.025.063.021.065.016.067.012.067.007.068L20 22l-.002.068-.007.068-.012.067-.016.067-.021.065-.025.063-.029.062-.034.06-.037.057-.041.054-.045.052-.048.048-.052.045-.054.041-.057.037-.06.033-.062.028-.063.024-.064.019-.066.016-.067.01-.068.005h-.068l-.068-.004-.068-.008-.067-.013-.066-.019-.064-.023-.062-.027-.061-.031-.058-.036-.056-.039-.053-.043-.05-.047-.047-.05-.043-.053-.039-.056-.036-.058-.031-.061-.027-.062-.023-.064-.019-.066-.013-.067-.01-.068-.004-.068v-.068l.004-.068.01-.068.013-.067.019-.066.023-.064.027-.062.031-.061.036-.058.039-.056.043-.053.047-.05 1.29-1.29.058-.058.062-.058.061-.058.063-.058.063-.056.064-.056.064-.055.065-.053.065-.053.067-.053.066-.051.068-.05.068-.05.068-.049.069-.048.069-.047.07-.046.071-.045.071-.045.072-.043.072-.042.072-.042.073-.041.074-.04.074-.039.074-.038.075-.037.075-.036.076-.035.076-.034.076-.034.075-.033.075-.033.075-.033.075-.033.075-.033.074-.033.073-.034.072-.034.072-.034.072-.033.072-.031.073-.03.074-.029.074-.028.075-.026.075-.026.076-.024.077-.022.077-.021.077-.02.077-.019.078-.017.079-.017.079-.014.079-.014.08-.012.08-.01.08-.009.08-.008.081-.007.081-.005.082-.003.081-.002.078-.001h1.536l.078.001zM12.05 1.001l.039.003.04.005.039.007.039.008.038.01.038.011.038.013.037.015.037.015.035.018.035.019.034.02.034.022.032.023.032.024.03.025.03.027.028.028.027.029.026.03.025.031.024.032.022.033.021.034.02.034.018.035.017.036.015.037.014.037.013.038.011.038.009.039.008.039.006.039.004.039.002.04v.04l-.001.04-.003.039-.004.04-.006.039-.008.039-.009.039-.01.038-.012.038-.014.038-.015.036-.016.037-.018.035-.02.035-.02.034-.022.033-.024.032-.024.031-.026.031-.027.029-.028.028-.029.027-.031.026-.031.024-.032.024-.033.022-.034.02-.035.02-.035.018-.037.016-.036.015-.038.014-.038.012-.038.01-.039.009-.039.008-.039.006-.04.004-.039.003-.04.001h-.04l-.04-.002-.039-.004-.04-.005-.039-.007-.039-.008-.038-.012-.038-.011-.038-.01-.038-.008-.039-.007-.039-.005-.04-.004-.039-.002-.04v-.04l.001-.04.003-.039.004-.04.006-.039.008-.039.009-.039.01-.038.012-.038.014-.037.015-.037.016-.037.018-.035.02-.035.021-.034.022-.033.023-.032.025-.031.026-.03.027-.029.029-.028.029-.027.03-.025.032-.025.032-.023.034-.022.034-.02.034-.019.036-.018.036-.016.037-.015.038-.013.038-.011.038-.01.039-.008.039-.007.04-.005.039-.004.04-.002h.04l.04.001zM16.846 20.001l.081.002.082.003.081.005.081.007.082.007.083.007.081.007.082.009.081.009.081.012.082.013.081.024.08.024.089.025.089.026.098.026.097.026.097.028.097.029.096.031.096.031.095.032.015.032.014.031.013.032.012.033.011.033.009.033.009.033.007.034.007.034.005.034.003.034.003.035.002.034v.035l-.001.034-.002.035-.003.034-.005.034-.005.034-.007.034-.008.034-.009.033-.01.033-.011.033-.012.033-.013.032-.014.031-.016.031-.016.03-.017.03-.019.03-.019.028-.02.028-.022.027-.022.027-.023.025-.024.025-3 2-.025.024-.025.023-.027.022-.027.022-.028.02-.028.019-.03.019-.03.016-.03.016-.031.015-.032.014-.032.013-.032.012-.033.011-.033.01-.033.009-.033.008-.034.007-.034.007-.034.005-.034.005-.034.003-.035.002-.034.001h-.035l-.034-.002-.035-.003-.034-.003-.034-.005-.034-.007-.034-.007-.033-.009-.034-.009-.032-.011-.033-.012-.032-.013-.031-.014-.031-.016-.03-.016-.03-.017-.03-.019-.028-.019-.028-.02-.027-.022-.027-.022-.025-.023-.025-.024-3-3-.024-.025-.023-.025-.022-.027-.022-.027-.02-.028-.019-.028-.019-.03-.017-.03-.016-.03-.016-.031-.014-.031-.013-.032-.012-.033-.011-.032-.009-.034-.009-.033-.007-.034-.007-.034-.005-.034-.003-.034-.003-.035-.002-.034v-.035l.001-.034.002-.035.003-.034.005-.034.005-.034.007-.034.008-.034.009-.033.011-.033.011-.033.012-.032.014-.031.015-.032.016-.03.016-.03.018-.03.019-.029.02-.028.021-.028.022-.027.022-.026.024-.025.024-.024.025-.024.026-.022.027-.022.028-.021.028-.02.029-.019.03-.018.03-.016.03-.016.032-.015.031-.014.032-.012.033-.011.033-.011.033-.009.034-.008.034-.007.034-.005.034-.005.034-.003.035-.002.034-.001h.035zM12.043 11.001l.035.002.034.003.034.005.034.005.034.007.034.008.033.009.033.011.033.011.032.012.031.014.032.015.03.016.03.016.03.018.029.019.028.02.028.021.027.022.026.022.025.024.024.024.024.025.022.026.022.027.021.028.02.028.019.029.018.03.016.03.016.03.015.032.014.031.012.032.011.033.011.033.009.033.008.034.007.034.005.034.005.034.003.034.002.035.001.034v.035l-.002.034-.003.035-.003.034-.005.034-.007.034-.007.034-.009.033-.009.033-.011.033-.012.033-.013.032-.014.031-.016.031-.016.03-.017.03-.019.03-.019.028-.02.028-.022.027-.022.027-.023.025-.024.025-3 5-.025-.024-.025-.025-.025-.024-.026-.022-.027-.022-.027-.021-.028-.02-.028-.019-.029-.018-.03-.016-.03-.016-.03-.015-.031-.014-.031-.012-.032-.011-.033-.011-.033-.009-.033-.008-.034-.007-.034-.005-.034-.005-.034-.003-.034-.002-.039L8 14.01v-.04l.002-.04.004-.039.005-.04.007-.039.008-.039.01-.038.011-.038.013-.038.014-.037.016-.036.017-.036.019-.035.02-.035.021-.034.022-.033.023-.032.025-.031.026-.03.027-.029.029-.028.029-.027.03-.025.032-.025.032-.023.034-.022.034-.02.034-.019.036-.018.036-.016.037-.015.038-.013.038-.011.038-.01.039-.008.039-.007.04-.005.039-.004.04-.002h.04l.04.001zM9.03 13l.04.002.039.004.04.005.039.007.039.008.038.01.038.011.038.013.037.014.037.016.035.017.036.019.034.02.034.021.032.023.032.024.031.025.029.026.029.028 3.81 3.81-.114.484-4.087 1.362-.04.019-.04.019-.049.017-.05.015-.051.012-.052.01-.051.007-.053.004L19 23H8l.015.002.004.002.004.009.004.011.005.01.005.01.004.01.005.01.004.01.005.011.004.01.003.011.003.011.003.01.003.011.002.011.002.011.001.011.002.011.001.011.002.011.001.011.002.011.001.011.002.011.001.012.001.011.001h.044l.011-.001.012-.001.011-.001.011-.002.011-.001.011-.002.011-.002.01-.003.011-.003.011-.003.01-.003.011-.004.01-.003.01-.004.011-.005.01-.004.01-.005.01-.005.009-.005.01-.006.01-.006.009-.006.01-.006.009-.007.009-.007.009-.007.009-.008.009-.008.009-.008.013-.013.936-.935.041-.04.046-.043.047-.041.047-.04.048-.039.05-.037.049-.036.047-.034.047-.032.048-.029.05-.026.051-.023.053-.02.053-.017.054-.014.055-.011.056-.008.056-.004L12 20l.056.002z"/><path d="M27 19.5a1.5 1.5 0 0 0-1.5-1.5h-3a1.5 1.5 0 0 0 0 3h3a1.5 1.5 0 0 0 1.5-1.5zM11 19.5A1.5 1.5 0 0 0 9.5 18h-3a1.5 1.5 0 0 0 0 3h3a1.5 1.5 0 0 0 1.5-1.5z" fill="#ed5c4"/><path d="M23.707 14.293l.028.029.026.029.025.031.024.032.023.032.021.034.02.034.019.036.017.035.016.037.014.037.013.038.011.038.01.038.008.039.007.039.005.04.004.039.002.04v.04l-.001.04-.003.039-.004.04-.006.039-.008.039-.009.039-.01.038-.012.038-.014.038-.015.036-.016.037-.018.035-.02.035-.02.034-.022.033-.024.032-.024.031-.026.031-.027.029-.028.028-.029.027-.031.026-.031.024-.032.024-.033.022-.034.02-.035.02-.035.018-.037.016-.036.015-.038.014-.038.012-.038.01-.039.009-.039.008-.039.006-.04.004-.039.003-.04.001h-.04l-.04-.002-.039-.004-.04-.005-.039-.007-.039-.008-.038-.01-.038-.011-.038-.013-.037-.014-.037-.016-.035-.017-.036-.019-.034-.02-.034-.021-.032-.023-.032-.024-.031-.025-.029-.026-.029-.028L21 16.41l-.136.002-.145.004-.144.005-.144.008-.143.011-.143.013-.142.016-.143.018-.142.018-.142.016-.144.018-.144.021-.144.083-.143.066-.145.059-.14.053-.151.057-.139.06-.139.057-.136.056-.139.053-.146.058-.148.059-.142.062-.145.065-.159.067-.152.068-.152.069-.152.066-.15.064-.15.062-.151.068-.14.066-.123.068-.122.071-.123.063-.12.064-.118.069-.116.077-.116.077-.117.08-.118.078-.118.075-.12.073-.12.07-.116.072-.115.072-.115.07-.116.049-.118.041-.19.047-.119.046-.118.033-.118.031-.119.029-.12.025-.121.023-.121.019-.121.017-.123.014-.123.01-.122.008-.124.005-.112.001h-.026l-.102-.001-.102-.003-.102-.004-.102-.006-.101-.007-.102-.008-.101-.009-.101-.011-.101-.012-.1-.013-.1-.014-.1-.016-.1-.017-.1-.018-.099-.019-.099-.02-.091-.022-.098-.022-.098-.024-.098-.024-.097-.023-.098-.024-.098-.025-.097-.027-.096-.028-.096-.03-.096-.031-.095-.032-.095-.034-.095-.034-.094-.036-.093-.036-.093-.038-.093-.039-.092-.041-.092-.041-.091-.042-.091-.044-.09-.044-.089-.046-.089-.047-.089-.048-.088-.049-.087-.05-.087-.051-.086-.052-.086-.054-.085-.054-.084-.056-.084-.056-.083-.058-.082-.059-.082-.059-.081-.061-.08-.062-.08-.063-.079-.064-.078-.064-.077-.066-.077-.067-.076-.068-.075-.069-.075-.07-.073-.071-.071-.07-.881-.881-.047-.05-.043-.053-.039-.056-.036-.058-.031-.061-.027-.062-.023-.064-.019-.066-.013-.067-.01-.068-.004-.068-.008-.068-.013-.068-.015-.067-.022-.065-.029-.065-.031-.062-.032-.069-.032-.069-.035-.069-.035-.068-.035-.068-.035-.068-.037-.068-.038-.068-.037-.068-.035-.078-.034-.087-.032-.089-.028-.08-.028-.089-.027-.089-.025-.098-.023-.098-.022-.099-.02-.099-.019-.1.018-.1.017-.1.016-.1.014-.1.013-.101.012-.101.011-.101.009-.102.008-.101.007-.102.006-.102.007-.101.008-.102.01-.012.012-.091.013-.07.015-.071.016-.061.015-.061.013-.062.011-.061.01-.061.008-.053.006-.053-.004-.052-.004-.053-.004-.053L2 12.052l.002.001.002.003.001.004.001.004.001.004.001.005.001.004.001.004.001.004.001.004.001.004.001.004.001.004.001.004.001.004.001.004.001.004.001.004.001.004.001.004.001.004.001.004.001.004.001.004.001.004.001.004.001.004.001.004.001.004.001.004.001.004.001.004.001.004-.001.004-.001.005-.001.004-.001.035-.001.034-.001.035-.003.034-.005.034-.005.034-.007.034-.008.034-.009.033-.011.033-.011.033-.012.032-.014.031-.015.032-.016.03-.016.03-.018.03-.019.029-.02.028-.022.027-.022.027-.023.026-.024.025-.026.024-.026.022-.027.021-.028.021-.028.02-.028.019-.03.019-.03.017-.03.016-.031.016-.031.014-.032.014-.033.012-.032.01-.033.019-.038.016-.039.016-.039.014-.082.013-.038.012-.038.009-.037.007-.039.006-.04.004-.04.002-.039.001-.042.001-.043-.002-.041-.004-.041-.006-.041-.008-.039-.009-.038-.011-.038-.012-.04-.024-.04-.024-.039-.024-.039-.024-.039-.023-.039-.022-.04-.02-.04-.02-.041-.019-.04-.019-.042-.018-.041-.017-.042-.016-.042-.016-.042-.015-.043-.014-.043-.014-.043-.013-.044-.012-.043-.012-.044-.011-.042-.012-.043-.012-.042-.01-.042-.01-.043-.009-.044-.008-.043-.007-.044-.005-.044-.003-.045-.002-.045.001-.045.002-.046.003-.046.002-.046.003-.046.003-.046.005-.045.005-.045.006-.045.007-.045.007-.045.008-.044.01-.045.009-.044.011-.043.011-.044.012-.043.013-.043.014-.043.014-.042.015-.042.016-.042.016-.041.018-.041.018-.04.02-.04.02-.039.021-.039.022-.039.023-.038.023-.038.024-.038.024-.037.026-.036.025-.037.027-.036.027-.036.027-.034.029-.035.028-.034.03-.033.03-.033.031-.032.031-.032.032-.031.032-.031.033-.03.033-.03.034-.029.035-.029.035-.028.036-.027.036-.027.037-.026.037-.026.038-.025.038-.024.039-.024.04-.023.039-.023.041-.021.041-.024.045.002-.004-.026.05-.029.048-.032.046-.035.044-.036.042-.039.041-.042.037-.043.036-.046.033-.047.031-.048.027-.051.025-.051.022-.053.02-.053.016-.055.013-.055.009-.056.006-.056.008-.056.011-.055.014-.055.017-.053.02-.053.023-.051.036-.05.038-.058.035-.056.033-.055.034-1.859 1.29-3.099.084-.093.091-.094.091-.096.09-.097.085-.098.084-.093.081-.093.08-.093.081-.094.081-.096.08-.096.077-.098.074-.09.072-.071.069-.072.069-.073.068-.075.067-.076.064-.077.063-.079.061-.08.061-.039.061-.037.062-.036.063-.033.066-.031.067-.03.068-.028.068-.027.068-.024.069-.024.07-.021.069-.02.071-.018.07-.016.071-.015.071-.013.071-.012.072-.009.071-.008.072-.006.071-.004.072-.003.072-.001.072.001zM26.036 10.002l.056.004.056.008.055.011.055.014.054.018.053.022.054.025.053.02.055.02.055.016.054.014.055.019.054.024.054.027.052.029.05.032.048.035.046.038.044.831.144.185.141.14.114.136.116.13.113.132.12.134.118.128.116.13.11.134.098.136.108.133.108.127.107.128.069.12.076.121.016.127.014.128.012.128.01.131.009.131.012.122.014.122.017.122.017.124.016.123.016.123.014.123.01.123.01.025.009.025.009.025.01.025.01.033.012.032.014.031.014.031.016.03.016.03.018.029.018.028.02.028.021.027.021.026.022.026.024.025.024.024.025.024.026.022.027.021.027.02.028.019.028.019.03.017.03.016.03.016.031.014.031.013.032.012.033.011.032.009.034.009.033.007.034.007.034.005.034.003.034.003.035.002.034v.035l-.001.034-.002.035-.003.034-.005.034-.005.034-.007.034-.008.034-.01.033-.01.033-.012.033-.013.032-.014.031-.016.031-.016.03-.017.03-.019.029-.019.029-.021.028-.021.028-.022.027-.022.026-.024.025-.024.024-.025.024-.026.022-.027.022-.028.021-.028.02-.029.019-.03.018-.03.016-.03.016-.032.015-.031.014-.032.012-.033.011-.033.011-.033.009-.034.008-.032.007-.034.005-.035.004-.034.003-.035.003-.034.002h-.035l-.034-.001-.035-.002-.034-.003-.034-.005-.034-.005-.034-.007-.034-.008-.033-.009-.033-.011-.033-.011-.032-.012-.031-.014-.032-.015-.03-.016-.03-.016-.03-.018-.029-.019-.028-.02-.028-.021-.027-.022-.026-.022-.025-.024-.024-.024-.024-.025-.022-.026-.022-.027-.021-.028-.02-.028-.019-.029-.018-.03-.016-.03-.016-.03-.015-.031-.014-.031-.012-.032-.011-.033-.011-.033-.009-.033-.008-.034-.007-.034-.005-.034-.005-.034-.003-.034-.002-.035L8 15.009v-.035l.002-.034.003-.035.003-.034.005-.034.007-.034.007-.034.009-.033.009-.034.011-.032.012-.033.013-.032.014-.031.016-.031.016-.03.017-.03.019-.03.019-.028.02-.028.022-.027.022-.027.023-.025.024-.025 3-3 .025-.024.025-.023.027-.022.028-.022.028-.02.029-.019.029-.018.031-.017.03-.015.031-.015.032-.014.032-.013.032-.012.033-.011.033-.009.033-.009.034-.007.034-.007.034-.005.034-.003.035-.003.034-.002h.035l.034.001z"/></svg>
