<svg xmlns="http://www.w3.org/2000/svg" viewBox="0 0 128 128"><path d="M64.22 9.62C1.81 9.62.34 79.58.34 93.42c0 13.86 28.29 25.08 63.08 25.08 35.26 0 63.88-11.22 63.88-25.08 0-13.84-1.47-83.8-63.88-83.8C1.5 9.56.12 79.52.12 93.32z" fill="#fcc21b"/><path d="M86.04 17.05l-9.18 2.77A2.134 2.134 0 0 0 1.8-2.22c17.19-17.16 15.27-78.34 10.72-62.69z" fill="#8b5e3c"/><path d="M31.31 57.19c-.03.33-.07.61-.04.71.02.46-.11.88.08.99.08 2.39.71 4.49 2.08 3.94 2.96z" fill="#549e7a"/><path d="M68.89 72.78c-14.13 0-22.55 4.82-21.27 10.03-.07 5.62 1.91 11.25 5.56 10.56 4.83 1.72 10.71-.07 17 3.33 2.92 21.56 1.21 33.16l-.13.23c-6.03 11.93-19.08 25.8-31.51 32.2 0 47.4 48.23 46.25 64 6.22z" fill="#2f2f2f"/></svg>
