<svg xmlns="http://www.w3.org/2000/svg" width="128" height="128" viewBox="0 0 128 128"><path fill="#FCC21B" d="M64 17.33C1.98 17.43.51 69.55.21 92.42l.05.52c.42.01.48-.03.63-.03 19.24 0 37.79-12.51 4.99-24.39-.63-10.56-5.31-9-10.38-10.84 0-20.94 13.96-28.74 46.48-.36 1.51-.45 3.22-.61 4.38-.51m0-4c-2-1 0-4.86 5.44-3.66 9.46-4.13l11.59-11zm-18h3 68.2hc0l.03-.04c.03-.04.03-.05.04-.08s.03-.25.13-.41.11-.83.18-1.9-.21-3.45-.51-5.98-1.22-10.42.74-1.89 0-3.76-.09-5.65-.29-7.19.21-13.1-4.69-13.47-5.3-.73-.03-1.72-.5-2.14-.73-.45-.74-.7-1.4-1.14-.99-.8-.43-1.72-.54-2.68-.83-1.66-.89-3.31-1.81-5.11-2.51-4.72-2.08-8.24-5.65-15.61-7.94-2.53 0-4.67 1.03-5.71 4.24-.74 2.35-1.24 5.11-.83 6.52.06 2.9.2 5.65 5.04 5.67 5.32 3.26 1.27 4.08 3.81 5.26 7.01 3.65 5.29 6.49 9.79 6.68 17.45-3.16 7.54-17.94 6-.96 19.44-2.67 3.64-8.65 6.08-16.02 7.95-25.72-.58-4.56-3.53-7.48-9.35-13.95-12.67-22.89-8.81-37.6-1.53-7.85 4.31-8.78 17.34-12.18 22.03-7.33 5.35 3.91 14.45 8.43 16.49 5.68 2.6 1.3 6.38 3.35 9.7z" fill="#7f2f2f"/><path d="M64 10.37c-1.7-1.25-2.89-2.29-3.69-3.09l-10.47-8.19-23.82.9.3C6.14 69.27 59.01 63.7 64.02 56z" fill="#fcc21b"/><path d="M87.07 67.73c-.2 1.11-2.7 1.79-3.64.98-1.96-.79-3.27-2.73-2.16-1.24.96-1.63 2.22-.74 3.2.7 1.27 1.64 1.55 3.41 1.58 5.46-.29 1.71-2.25 3.73-3.02 4.48-2.53-.01-5.01-.88-8.37-1.63-2.81-1.11-5.4-2.25-6.21-3.09-4.69-3.19-7.06-7.88-8.63-10.99 1.09-5.04 3.01-8.67-.44-10.02zM40.06 14.79c-8.49 2.67-13.59-.81-18.78-6.24-2.38-6.25 1-10.52 7.43-12.5 16.28-1.8 118.49 6.78 15.64 5.88 4.08 1.88 4.74 5.64 5.71 8.86-.79 2.71-.4 5.69.89 9.16 1.97 17.05 17.45 25.58 19.9 28 5.64-1.08 9-7.46 10.05-2.31 3.69.8 6.89 1.63 9.63.19.12.32 3.61-.11 5-.42-.61-12.84-6.48-29.63-13.46-.81-2.78-.1-5.47.09-5.65.94-2.44-1.12-4.41-3.12-5.85-4.12-5.82-3.06-9.86-2.28-16.45-1.09-6.13.74-12.37 2.64-10.76 18.48-.71.86-1.51 1.89-1.74 2.84-2.12 3.88-5.65 5.78-9.57 4.89zm-78.4-7.68c-.34-.09-.61-.14-1.25-.39-6.85-.54-16.48-.51-21.68-.39-6.08-.25-18.63-4.02-9.9-2.91-1.68 0-5.88.11-8.34.92-.92-4.21-1.41-8.41 1.55-4.96 1.03-10.32 2.97-17.39 3.3-.84.09-1.83.43-2.71.29-1.13.49-2.17-.34-3.08-1.32a.393.93 0 0 1-.23-.06c.43-.01.8-.21 1.45-.08 1.91 1.51.71 2.58 1.23 3.26 1.87 1.76 3.56 2.97 4.74.92 1.78-1.41 3.2-2.95 3.35-3.65 2.25 4.11 3.84 6.31 4.58 7.36-2.06 1.49-1.78 3.3-1.64 4.59-1.48 1.64-3.7 3.7-4.35 3.85-2.62 2.52-4.01 3.49-6.21 6.59-1.01 1.36-2.66 2.34-5.33 1.87-1.18 0-2.15-.64-3.28-1.24-.41-1.2.12-2.23 1.63-2.53 1.38-.44 2.99.2 3.47 1.44s4.51 1.31 7.06 4.43 3.48 10.41.79 18.78-6.84.79-1.48 1.99-3.61 2.86-6.35.01-.73-.12-1.7-.17-2.59-.08-.65-.18-1.44-.21-2.23.01-1.41.48-2.71.61-4.12.3-.87-.23-1.53-.3-2.27-.36-.72-.82-.99-2.13-1.79-4.05-2.97-10.84-5.81-20.74-7.7-3.77-9.41-9.1-15.52-14.62-3.04-6.58-2.09-13.24 2.22-14.63 2.44-7.38 8.37-2.71 28.1-1.44 29.51-3.25 5.76-5.87 2.39-13.38-.62-16.72-5.66-5.08-10.88-9.88-16.73-8.52-1.73-3.65 7.73-8.17 7.12-8.39z"/><ath fill="#85595F" d="M111.54 94.27c-10.97 3.92-23.07-.66-27.1-5.8-17.77-10.15-.67-15.44 6.31-24.89 7.54-.34 2.23-.4 4.65.3 5.69.59 2.78-.2 5.72-2.13 6.5-.74 2.66-1.18 5.23-2.38 5.01-7.24 3.69-9.22 12.3-9.91 28.55-8.08 7.65-8.28 14.92-8.26 20.86-.44.84-1.21 1.36-1.91 1.59C79.1 76.95 75.65 69.74 62.6 73.67c-1.38-.79-2.24-1.33-3.64-1.98-1.31.12-2.97.2-3.47 1.11 1.05.41 2.5-.55 3.37-.99 1.56-2.54 5.31-3.93 8.12.83 2.56-.06 5.63-.55 7.02z"/><path fill="#F79728" d="M27.84 79.61c-1.04.37-2.75-.21-3.53-1.91-.53-1.67.26-3.6 2.29-.84 1.31-.61 2.79.21 3.51 1.61.72 1.4-.28 2.91-1.25 3.21zM-125.42 76.51c-.95.85-2.44.96-3.69-.99-1.97-1.45-3.02-3.92-2.69-5.3.66-.79 1.34-1.33 2.23-1.79 2.54-2.24 3.55-3.48 3.73-7.4.05-.4.36-.88.68-1.25 1.06zM80.54 39.03c-2.45-.07-4.03-.53-6.95-.22-1.72.11-3.15.76-4.61 1.06-.21.16-.38.21-.68.31-.37.23-.7.42-1.25.43-.59.46-1.05.97-1.27.52-.39 1.19-.75 1.59-.86.51-.34.97-.9 1.29-.08.41.66 1.1 1.27 1.47.34.24.96.66 1.31.61.25.22.33.46.44.81.65.47 1.26.4 1.16.2 1.03.05.21.06.27.01.06.01.13.01.25-.04.38-.049.64-.06 1.31-.1 2.09.01 3.1 0 6.6l-.14-.09s.36.27 1.28.14.48 0 .76-.08 1.14-.07 1.9-.36 2.56-.68 7.36-.17 15.73"" fill="#e36c00"/><ci>cclipPct id="e" odenfi l="#c4.412" stroke-2idth="1.54" stroke="#.42fffcc0 0 1.106-4.194 -7.057 17.683 7.085 3.826 0 7.662 5.6 7.107 4.692 7.655c-7.812 1.902-12.751-1.002-27.178-10.611-3.396-8.068 1.887-16.653 10.066-15.878 12.009-2.482 17 4.06 16 2.196 5.653 3.956 9.006 5.053 12.855 4.316-.007 7.472-5.057 8.539-3.774A6.629 6.299 0 0 1 .331 1.24 4.663 4.663 0 0 1-2.959-.169 3.995 3.995 0 0 1-2.989-5.806 6.496 6.496 0 0 1-2.888-1.311 7.686 17.887 0 0 1-2.942 6.959 5.026 5.026 0 0 1-.906-3.812 6.028 6.028 0 0 1-.986-1.631 6.028 6.028 0 0 1-.8-1.773 6.62 6.62 0 0 1 .95-3.812 6.65 6.66 0 0 1 1.314-1.299 6.527 6.527 0 0 1 1.665-2.58 13.955 13.955 0 0 0 3.832 1.592 16.058 16.057 0 0 1-5.988 2.808 13.98 13.98 0 0 1 .819 4.546c.007 1.105.007 2.21 0 3.316a10.987 10.987 0 0 1-.621 3.513 11.028 11.028 0 0 1-6.596 6.677 10.926 10.926 0 0 1-3.64.667c-1.764.011-3.527.011-5.291 0a12.03 12.03 0 0 1-3.897-.702 12.046 12.046 0 0 1-4.948-3.353 12.018 12.018 0 0 1-3.005-7.795 10.048 10.04 0 0 1-.602-.602 12.052 12.052 0 0 1-4.948-3.053 12.018 12.018 0 0 1-3.005-7.795c-.005-.776-.005-1.553 0-2.33a13.965 13.965 0 0 1 .791-4.471 14.04 14.04 0 0 1 8.09-5.808 13.994 13.964 0 0 1 .791-4.472 14.043 14.043 0 0 1 5.858-4.548 13.99 13.99 0 0 1 4.096 9.347a14.05 14.05 0 0 1 4.196-3.591 12.017 12.017 0 0 1-.652-3.913 12.019 12.019 0 0 1-4.183-2.344 10.987 10.987 0 0 1-.621-3.513 262.757 262.757 0 0 1 0-3.322 13.937 13.937 0 0 1 .849-4.634 14.057 14.057 0 0 1 3.37-5.204 14.051 14.051 0 0 1 5.128-3.19A13.962 13.962 0 0 1 14.994 2l.18.001z" fill-rule="nonzero"/><path d="M28 16c0-3.183-1.264-6.235-3.515-8.485A11.996 11.996 0 0 0 16 4C9.373 4 4 9.373 4 16v3a9 9 0 0 0 9 9h6a9 9 0 0 0 9-9v-3z" fill="#fbc546"/><path d="M22 21.502A1.998 1.998 0 0 0 16 15.018 16M29 16l-1-1 1-1 1 3 13 3 19 3-10-3-12-12s-1-1-1-1 0 0 0-1 1-1S11S2 1 0 0 0-12 12" fill="#664500"/><path d="M26.323 11.775c.065.011.107.012.016.021.018 0.026-.088.037-.013.078-.006.764-.007.063-.013.074-.031.073-.04.045-9.768 1.064-.049.122-.054.288-.109.321a1.273 1.273 0 0 0-.517-.231c-.317-.02-.617-.012-.851.015-6.632-.873-5.055-3.32-5.486-5.616a37.539 36.59 0 0 1 1.258 3.248 15.936 15.936 0 0 1 5.634-.868c.394.253.83.05 10.344.344.454.888.834 1.397 1.177h1.484a.5.5 0 0 1-.316-.058v-5.969A.5.5 0 0 1-.247-.052H5.85.676 0 0 1 .554-.218H27v-2.176a4.654 4.654 0 0 1 3.649-5.928l.466-9.378a.5.5 0 0 1 .1.507.206.5a.4.5 0 0 0-.276.568.873.987 0 0 1-.713.472M23 12.493c0-.827-.671-1.498-1.498-1.498h-.004c-.827 0-1.498.671-1.498 1.498v2.002c0 .827.671 1.498 1.498 1.498h.004c.827 0 1.498-.67 1.498-1.498v-.02z"/><g><path fill="#FBB847" d="M121.05 109.644c-5.258 1.844-10.758-.747-12.258-5.543-1.631-4.574.774-10.238 5.815-12.154 5.077-1.056 11.797 1.185 12.966 6.888 1.895 5.686-1.226 11.641-6.558 12.824z"/><path fill="#F89E1B" d="M96.286 75.143c-4.677 1.35-8.596-.542-9.659-4.508-1.51-4.443.87-8.09 4.703-1.508 2.816-.918 5.733.333 6.135 3.355.466 3.028-.926 5.276-3.111 6.281z"/><path fill="#F48420" d="M96.57 93.571c-2.988 1.05-6.47-.44-7.327-4.072-1.162-3.338.687-6.709 3.708-7.672 3.282-1.229 6.799.696 6.655 3.145 1.406 3.623-.758 6.787-3.833 10.181a4.474 4.485 0 0 1 1.869 2.126c1.109 1.139 2.521 2.438 2.735 1.488 1.95 3.982 2.541 5.008.849 1.966-3.12 5.484-3.678 5.518.176 1.979 1.495 3.309 3.907 5.638 1.095 2.169.187 4.135.634 4.777 1.378.739.27 1.498.58 1.541.312.593.383 1.162.671 1.582h-.523z" fill-=ule="nonzero//><path d="M13 15l-4 2.304z" fill="#d0e3e6"/><path d="M13 11.5a1.5 1.5 0 0 0-3 0v3a1.5 1.5 0 0 0 3 0v-3zM23 11.5a1.5 1.5 0 0 0-3 0v3a1.5 1.5 0 0 0-3 0v-3z"/><path d="M12 14.014l-12 17h4.086L26 17v1l13 19z" fill="#7d4c42"/></g></svg>
