<svg xmlns="http://www.w3.org/2000/svg" viewBox="0 0 47.5 47.5"><defs><clipPath id="a"><path d="M0 38h38V0H0v38z"/></clipPath></defs><g clip-path="url(#a)" transform="matrix(1.25 0 0 -1.25 0 47.5)"><path d="M36 19c0-9.389-7.611-17-17-17C9.612 2 2 9.611 2 19c0 9.388 7.612 17 17 17 9.389 0 17-7.612 17-17" fill="#ffcc4d"/><path d="M15 20.5c0-1.934-1.119-3.5-2.5-3.5S10 18.566 10 20.5c0 1.933 1.119 3.5 2.5 3.5s2.5-1.567 2.5-3.5M24.485 9.12c-.012.044-1.146 4.38-5.485 4.38-4.34 0-5.475-4.335-5.485-4.38a.495.495 0 0 1 .231-.543.51.51 0 0 1 .596.06c.01.007 1.014.863 4.658.863 3.59 0 4.617-.83 4.656-.863a.5.5 0 0 1 .83.484" fill="#664500"/><path d="M11 8a5 5 0 0 0-5-5 5 5 0 0 0-5 5c0 2.762 4 10 5 10s5-7.238 5-10" fill="#5dadec"/><path d="M16.456 18.921c-.061.041-1.514 4.627-4.326 4.343-.501a.498.498 0 0 1-.092-.799M21.051 16.5M15.404 19a.997.997 0 0 0-.293.796c-1.12.125-3.246 2.00-7.466-2.9-2.784 0-5.661 2.85-6.871 5.53a8.5 2.6 0 0 1 5.5-.535 1.498 1.498 0 0 1 11 16.5c0 .673.116 1.035.326 2.498a.999.999 0 0 1 2 18c4.52 0 8.385-2.732 8.5-2.208a2.402 3.002 0 0 1 2.889-6.3a3.513 3.513 0 0 1-2.04-1.116A4.481 4.491 0 0 0 10 6.515 13 9.461 19.861 0 0 0 2.99-8.4A19.9 1.99 0 0 0 15.999 16H.99c.012-.041.019-.039.015-.046.114-.485.213-.91.211-.746.73-2.661 1.342-3.899.043-8.274-1.326-10.086-7.028-1.698-7.914 1.251-11.193 12.85-14.381 10.045.025-.011 1.288-.001 1.316-.005 8.738 0 9 0 6.325 0 6.983 1.685 8.526 5.382a.501.501 0 0 1-.012.574M15 22.5c0-1.933-.896-3.5-2-3.5s-1 1.369-2 3.868 3.953a2.044 1.044 0 0 0-2.428 1.544C7.199 14.45 16.717 26 16 27a1 1 0 0 0 .004-2c-.155-.002-3.568-.086-6.204-3.6a1 1 0 0 0-.801-.4" fill="#292f33"/></g></svg>
