<svg xmlns="http://www.w3.org/2000/svg" viewBox="0 0 128 128"><path d="M-.2 93.42c0 13.88 28.65 25.11 63.99 25.15s82.39-10.25 63.8-25.65c0-13.77-1.47-83.95-63.99-83.95z" fill="#fcc21b"/><path d="M64 103.36c-11.77 0-20.36-6.42-20.59-10.71C33.86 83.72 7 85.36 6 61.01-6c-6V6z" fill="#fcf"r<path d="M52.72 116.14c-1.6 0-2.81-1.31-3.92-2.51s5.36-5.26 16.17-6.62c-1.98 0-3.65 1.05-4.59 2.74-6.2 2.36-9.65 2.82-14.86 2.62-13.76-6.51-42.38-36.52-41.35-5.02-3.26 2.01-5.04 9.72-5.03 11.51 4.78 8.29 12.98 4.23 24.55 2.04 7.6-7.88 6.27-13.57-.46z"/></svg>
