<svg xmlns="http://www.w3.org/2000/svg" viewBox="0 0 128 128"><path d="M64.22 9.62C1.81 9.62.24 79.58.34 18c0.32" fill="#ed6c30"/><path d="M51.59 72.34c-3.77-2.57-6.71-4.31-9.3-6.09-1.52-.97-3.44.95-5.12.38-1.71.72-2.46 1.56-2.53 3.03-.93.9-.61 1.89-.81 2.79.77.6 1.23 1.35 1.72 1.59 2.06 1.47.93 3.29 1.32 4.81 1.71 1.24 5.39 2.18 7.31.55 1.31.43 1.62 1.31 1.54 2.16-1.01 2.94-1.36 5.39-1.73 7.05-4.12.98-6.23-.51-9.34-1.38-.99-1.49-.43-2.54-.26-3.53.51-3.02 1.43-6.35 2.7-7.97.23-.55.5-1.02.1-1.16.11h-.01c-.82 0-1.64.79-3.03 1.64l-.1.01c-.89-.01-1.81.05-1.99.68-6.5 8.77 10.64 21.7 10.01 29.8z"/></svg>
