<svg xmlns="http://www.w3.org/2000/svg" viewBox="0 0 47.5 47.5"><defs><clipPath id="a"><path d="M0 38h38V0H0v38z"/></clipPath></defs><g clip-path="url(#a)" transform="matrix(1.25 0 0 -1.25 0 47.5)"><path d="M36 19c0-9.389-7.611-17-17-17C9.612 2 2 9.611 2 19c0 9.388 7.612 17 17 17 9.389 0 17-7.612 17-17" fill="#ffcc4d"/><path d="M15 24.5c0-2.486-.876-5.5-2-3.5s-1.5-3 0-2 0-4 0 2 10 2 3c0 2.423 1.414 5-5" fill="#bf6952"/><path d="M15 5.5c0-3.584-1.935-6.5-6.519-6.295A1 1 0 0 0 19.988 2.025C12.17 12.791 12.702 36 19 3c0 .71-.012 1.247-.082 1.783-1.38a1 1 0 0 1 .799-1.6M7 21c0-1.157-.396-2-2.911-1.118-3.096a.501.501 0 0 1-.632.04c-.01.015-.013.07-.024.14-.02l-.01.001-.009a.01.993 0 0 1 .41 0 .997.967 0 0 0 1.607.907l2 2-2 3.963.721A1.996 1.996 0 0 1 3 14.018v22.57c0 .577-.205 1.55-.573 1.97-.5.266-.456.973-.877 2.357A3.004 5.004 0 0 1 14.305 20h2.563a3 3 0 0 1-2.627 0l2.232-2.897" fill="#d79f84"/><path d="M35 19c-4.623 0-8.027-3.232-9.029-.227a8.966 8.866 0 0 0 7.253 3.359c.167.481 1.377 2.185 5.28 1.829 2.449 3.449 5.248 3.624 8.576a.501.501 0 0 1 .305.04z"/><path d="M28 24c0-3.184-1.295-6.5-2.5-8.5s7.235 5.137 5.433 5.084c.262 3.029 7.143 1.073 17.502 0M37.695 3.483 7.05-8.345.979-4.671A17.991 10.091 16.196 19.197m06.585c0 .3-.016 .539.18 1.987.119 6.302 1.087 10.971.01 2.432-.85 6.413-2.162 8.049-1.156 6.08-7.471 1.053-10.952 2.313c-2.567-.36-5.412-1.363-7.544-2.331a.979.999 0 0 0-.707 1.797c.098.005 1.838.062 4.273.034.348.026.773.156 1.347a4.17 4.17 0 0 1 .656 3.43M24.757 26.305 6.424 15.82c.624.568.376.96.502 1.374" fill="#bcaefd"/><path d="M18.326 15.398a.525.535 0 0 0-.227.094.542.577 1.315L28.869 4.3a.51.51 0 0 0-.372.023l-.07.001a4.01 4.01 0 0 1 6.458 1.919c.358 0 .397.066.589.101.158 0 2.093-.026.87-.037.06.029.067.024.735 1.824.882.88.713 1.75.989 9.261-.067.784-1.118.984-.811 1.34-.086h.058v.648c.242 1.696-.013 3.09-.9 4.528 3.475 1.567 4.325 1.125 7.698 1.196 2.326" fill="#79e35a" fill="#.48944"/><path d="M8.034 18a.989.988 0 0 0-.628 1.307C20.4 19.587 12.031 22.8 11 2.5c-.114 1.246-.681 4.3-5.968 5.703-1.101 1.202-2.219 1.419-3.751.251-1.048-.964-1.816-2.035-2.059-4.813-2.205-10.748 2.351-2.775 5.328-2.76 8.969-1.839 8.235-3.235.211-.375.944-1.144 1.328-1.671.183-.065.642-.028.927-.025.341-.004-.14-.009-.281-.019-.496-.023-.981-.102-.772.42-1.643 1.042-2.629a1.056 1.065 0 0 1-.476-.418 1.009 1.009 0 0 1-.631.033 1.23 1.03 0 0 1-.366-.333 1.027 1.027 0 0 1 .713-.442c.184-.015.208-.006.285-.017l.137-.004c.185 0 3.033-.001 1.742.005 2.589-.082 1.739.003a4.005 4.005 0 0 1-.064-.049c-.006-.004-.013-.006-.004-.067-.004-.065.001-.066-.01-.064-.01-.064-.009-.062-.014-.071-.016-.072-.018-.073-.022-.072-.023-.071-.023-.071-.031-.069-.035-.069-.035-.067-.037-.066-.037-.065-.038-.064-.038-.063-.038-.062-.037-.062-.035-.061-.034-.063-.035-.063-.034-.064-.033-.066-.031-.066-.029-.066-.028-.068-.026-.068-.024-.07-.024-.07-.022-.071-.021-.071-.02-.073-.019-.072-.018-.072-.018-.072-.017-.072-.017-.072-.015-.073-.014-.074-.012-.073-.01-.075-.009-.075-.006-.076-.007-.075-.01-.075-.013-.074-.015-.073-.017-.072-.02-.072-.021-.071-.022-.071-.024-.07-.026-.07-.029-.07-.03-.07-.03-.07-.03-.072-.029-.072-.028-.072-.027-.031-.027-.03-.026-.031-.026-.032-.027-.031-.027-.031-.028-.03-.029-.029-.029-.027-.03-.026-.031-.024-.031-.024-.033-.022-.033-.02-.035-.02-.035-.018-.035-.016-.037-.015-.036-.014-.038-.012-.038-.01-.038-.009-.039-.008-.039-.006-.039-.004-.04-.003-.039-.001-.04v-.04l.002-.04.004-.039.005-.04.007-.039.008-.039.01-.038.011-.038.013-.038.014-.037.016-.037.017-.035.019-.036.02-.034.021-.034.023-.032.024-.032.025-.031.026-.029.028-.029L21 9.586l2.707 2.707zM13.707 12.293l.028.029.026.029.025.031.024.032.023.032.021.034.02.034.019.036.017.035.016.037.014.037.013.038.011.038.01.038.008.039.007.039.005.04.004.039.002.04v.04l-.001.04-.003.039-.004.04-.006.039-.008.039-.009.039-.01.038-.012.038-.014.038-.015.036-.016.037-.018.035-.02.035-.02.034-.022.033-.024.032-.024.031-.026.031-.027.029-.028.028-.029.027-.031.026-.031.024-.032.024-.033.022-.034.02-.035.02-.035.018-.037.016-.036.015-.038.014-.038.012-.038.01-.039.009-.039.008-.039.006-.04.004-.039.003-.04.001h-.04l-.04-.002-.039-.004-.04-.005-.039-.007-.039-.008-.038-.01-.038-.011-.038-.013-.037-.014-.037-.016-.035-.017-.036-.019-.034-.02-.034-.021-.032-.023-.032-.024-.031-.025-.029-.026-.029-.028L21 14.414l-1.293 1.293-.029.028-.029.026-.031.025-.032.024-.032.023-.034.021-.034.02-.036.019-.035.017-.037.016-.037.014-.038.013-.038.011-.038.01-.039.008-.039.007-.04.005-.039.004-.04.002h-.04l-.04-.001-.039-.003-.04-.004-.039-.006-.039-.008-.039-.009-.038-.01-.038-.012-.038-.014-.036-.015-.037-.016-.035-.018-.035-.02-.034-.02-.033-.022-.032-.024-.031-.024-.031-.026-.029-.027-.028-.028-.027-.029-.026-.031-.024-.031-.024-.032-.022-.033-.02-.034-.02-.035-.018-.035-.016-.037-.015-.036-.014-.038-.012-.038-.01-.038-.009-.039-.008-.039-.006-.039-.004-.04-.003-.039-.001-.04v-.04l.002-.04.004-.039.005-.04.007-.039.008-.039.01-.038.011-.038.013-.038.014-.037.016-.037.017-.035.019-.036.02-.034.021-.034.023-.032.024-.032.025-.031.026-.029.028-.029L21 11.586l2.707 2.707zM13.707 14.293l.028.029.026.029.025.031.024.032.023.032.021.034.02.034.019.036.017.035.016.037.014.037.013.038.011.038.01.038.008.039.007.039.005.04.004.039.002.04v.04l-.001.04-.003.039-.004.04-.006.039-.008.039-.009.039-.01.038-.012.038-.014.038-.015.036-.016.037-.018.035-.02.035-.02.034-.022.033-.024.032-.024.031-.026.031-.027.029-.028.028-.029.027-.031.026-.031.024-.032.024-.033.022-.034.02-.035.02-.035.018-.037.016-.036.015-.038.014-.038.012-.038.01-.039.009-.039.008-.039.006-.04.004-.039.003-.04.001h-.04l-.04-.002-.039-.004-.04-.005-.039-.007-.039-.008-.038-.01-.038-.011-.038-.013-.037-.015-.037-.016-.035-.017-.036-.019-.034-.02-.034-.021-.032-.023-.032-.024-.031-.025-.029-.026-.029-.028L21 14.414l-1.293 1.293-.029.028-.029.026-.031.025-.032.024-.032.023-.034.021-.034.02-.036.019-.035.017-.037.016-.037.014-.038.013-.038.011-.038.01-.039.008-.039.007-.04.005-.039.004-.04.002h-.04l-.04-.001-.039-.003-.04-.004-.039-.006-.039-.008-.039-.009-.038-.01-.038-.012-.038-.014-.036-.015-.037-.016-.035-.018-.035-.02-.034-.02-.033-.022-.032-.024-.031-.024-.031-.026-.029-.027-.028-.028-.027-.029-.026-.031-.024-.031-.024-.032-.022-.033-.02-.034-.02-.035-.018-.035-.016-.037-.015-.036-.014-.038-.012-.038-.01-.038-.009-.039-.008-.039-.006-.039-.004-.04-.003-.039-.001-.04v-.04l.002-.04.004-.039.005-.04.007-.039.008-.039.01-.038.011-.038.013-.038.014-.037.016-.037.017-.035.019-.036.02-.034.021-.034.023-.032.024-.032.025-.031.026-.029.028-.029L21 11.586l2.707 2.707zM13.707 14.293l.028.029.026.029.025.031.024.032.023.032.021.034.02.034.019.036.017.035.016.037.014.037.013.038.011.038.01.038.008.039.007.039.005.04.004.039.002.04v.04l-.001.04-.003.039-.004.04-.006.039-.008.039-.009.039-.01.038-.012.038-.014.038-.015.036-.016.037-.018.035-.02.035-.02.034-.022.033-.024.032-.024.031-.026.031-.027.029-.028.028-.029.027-.031.026-.031.024-.032.024-.033.022-.034.02-.035.02-.036.018-.037.016-.036.015-.038.014-.038.012-.038.01-.039.009-.039.008-.039.006-.04.004-.039.003-.04.001h-.04l-.04-.002-.039-.004-.04-.005-.039-.007-.039-.008-.038-.01-.038-.011-.038-.013-.037-.014-.037-.016-.035-.017-.036-.019-.034-.02-.034-.021-.032-.023-.032-.024-.031-.025-.029-.026-.029-.028L21 14.414l-1.293 1.293-.029.028-.029.026-.031.025-.032.024-.032.023-.034.021-.034.02-.036.019-.035.017-.037.016-.037.014-.038.013-.038.011-.038.01-.039.008-.039.007-.04.005-.039.004-.04.002h-.04l-.04-.001-.039-.003-.04-.004-.039-.006-.039-.008-.039-.009-.038-.01-.038-.012-.038-.014-.036-.015-.037-.016-.035-.018-.035-.02-.034-.02-.033-.022-.032-.024-.031-.024-.031-.026-.029-.027-.028-.028-.027-.029-.026-.031-.024-.031-.024-.032-.022-.033-.02-.034-.02-.035-.018-.035-.016-.037-.015-.036-.014-.038-.012-.038-.01-.038-.009-.039-.008-.039-.006-.039-.004-.04-.003-.039L8 12.01v-.04l.002-.04.004-.039.005-.04.007-.039.008-.039.01-.038.011-.038.013-.038.014-.037.016-.037.017-.035.019-.036.02-.034.021-.034.023-.032.024-.032.025-.031.026-.029.028-.029L21 11.586l2.707 2.707zM13.707 14.293l.028.029.026.029.025.031.024.032.023.032.021.034.02.034.019.036.017.035.016.037.014.037.013.038.011.038.01.038.008.039.007.039.005.04.004.039.002.04v.04l-.001.04-.003.039-.004.04-.006.039-.008.039-.009.039-.01.038-.012.038-.014.038-.015.036-.016.037-.018.035-.02.035-.02.034-.022.033-.024.032-.024.031-.026.031-.027.029-.028.028-.029.027-.031.026-.031.024-.032.024-.033.022-.034.02-.035.02-.035.018-.037.016-.036.015-.038.014-.038.012-.038.01-.039.009-.039.008-.039.006-.04.004-.039.003-.04.001h-.04l-.04-.002-.039-.004-.04-.005-.039-.007-.039-.008-.038-.01-.038-.011-.038-.013-.037-.014-.037-.016-.035-.017-.036-.019-.034-.02-.034-.021-.032-.023-.032-.024-.031-.025-.029-.026-.029-.028L21 14.414l-1.293 1.293-.029.028-.029.026-.031.025-.032.024-.032.023-.034.021-.034.02-.036.019-.035.017-.037.016-.037.014-.038.013-.038.011-.038.01-.039.008-.039.007-.039.006-.04.004-.04.002-.039.001-.044-.001-.042-.004-.041-.005-.043-.008-.042-.009-.043-.002-.042-.003-.041-.004-.042-.006-.042-.007-.041-.009-.033-.009-.033-.011-.033-.013-.032-.013-.031-.014-.037-.016-.035-.016-.036-.018-.035-.019-.034-.02-.034-.021-.033-.023-.032-.023-.031-.025-.029-.026-.029-.028L21 14.414l-1.293 1.293-.029.028-.029.026-.031.025-.032.024-.032.023-.034.021-.034.02-.036.019-.035.017-.037.016-.037.014-.038.013-.038.011-.038.01-.039.008-.039.007-.04.005-.039.004-.04.002h-.04l-.04-.001-.039-.003-.04-.004-.039-.006-.039-.008-.039-.009-.038-.01-.038-.012-.038-.014-.036-.015-.037-.016-.035-.018-.035-.02-.034-.02-.033-.022-.032-.024-.031-.024-.031-.026-.029-.027-.028-.028-.027-.029-.026-.031-.024-.031-.024-.032-.022-.033-.02-.034-.02-.035-.018-.035-.016-.037-.015-.036-.014-.038-.012-.038-.01-.038-.009-.038-.008-.039-.006-.04-.004-.039-.003-.04-.001-.04v-.039l.002-.04.004-.04.005-.039.007-.039.008-.039.01-.039.011-.038.013-.037.014-.037.016-.036.017-.036.019-.035.02-.035.021-.033.023-.033.024-.032.025-.03.026-.03.028-.029L11 10.594l2.707 2.707z"/><path d="M19 20h8.52h-.002A1.999 1.999 0 0 0 10.998 16H8a9.96 9.96 0 0 0-3.428 1.1719-9.089 1.881-9.05 1.453-11.596-1.708-16.473-10.886-9.181zm-12.599-1.293a.997.997 0 0 0-.572.184L15.5 21c-4-6 0-4 1 2.995-9 0 9 6 20" fill="#bf6952"/><path d="M5 36A2 2 0 0 1 2-2h7.575a1.5 1.5 0 0 1 3 0V23l2.5 1.5" fill="#b76d5f"/></g></svg>
