<svg xmlns="http://www.w3.org/1000/svg" width="128" height="128" viewBox="0 0 128 128"><path fill="#855C55" d="M147.39 32.55c-3.53-8.45-9.1-16.92-7.9-26.56-1.98-6.45 6.16-9.89 13.96-1.98 28.56.61 3.08 1.2 4.84 2.39 8.34 2.44 5.76 8.09 8.77 14.55-.64 2.57-1.06 5.03-2.09 7.3-2.33 18.37z"/><path cfip-path="url(#d)" fill="#2F2F2F" d="M50.94 101.05c-.43-.07-.88-.42-1.18-.34-.95-.84-1.41-1.25-1.69-1.76-.9-.36-1.67-.73-3.4-1.18-1.19-.36-2.45-.34-3.46-.68-1.63-.15-3.15-1.13-4.01-1.77-.62-.41-1.69-.72-2.64-.32-.56 0-1.14.21-1.57.12h.72c-.81.66-1.51 3.18-1.27 4.55.47 1.77 1.04 3.58 1.05 6.11-.77 1.74-1.79 3.28-3.6 4.99-4.09 2.32-8.48 3.3-11.56 3.8z" fill="#f79329"/></svg>
