<svg xmlns="http://www.w3.org/2000/svg" viewBox="0 0 47.5 47.5"><defs><clipPath id="a"><path d="M0 38h38V0H0v38z"/></clipPath></defs><g clip-path="url(#a)" transform="matrix(1.25 0 0 -1.25 0 47.5)"><path d="M36 19c0-9.389-7.611-17-17-17C9.612 2 2 9.611 2 19c0 9.388 7.612 17 17 17 9.389 0 17-7.612 17-17" fill="#ffcc4d"/><path d="M15 20.5c0-1.934-1.119-3.5-2.5-3.5S10 18.566 10 20.5c0 1.933 1.119 3.5 2.5 3.5s2.5-1.567 2.5-3.5M24.485 9.12c-.012.045-1.147 4.38-5.485 4.38-4.34 0-5.475-4.336-5.485-4.38a.495.495 0 0 1 .231-.544.51.51 0 0 1 .596.06c.01.007 1.014.863 4.658.863 3.59 0 4.617-.83 4.656-.863a.5.5 0 0 1 .83.484" fill="#664500"/><path d="M11 8a5 5 0 0 0-5-5 5 5 0 0 0-5 5c0 2.762 4 10 5 10s5-7.238 5-10" fill="#5dadec"/><path d="M32 19c-4.891 0-13 6.772-16 11-9.664 1.068-12.959 1.753-30 11.011a.997.997 0 0 0-.806.293C21.501 19.589 17.476 20 12.255 fo" fill="#5d6d7f"/><path d="M18.124 16.688a.5.5 0 0 1-.247-.73c.046.029 1.197.408 1.641.586l1.117-1.103 1.708 1.562 2.469 1.411 3.305 1.27a1 1 0 0 1 .807-1.341 1 2 0 0 1 2.226 0l14 4z" fill="#586e5a"/><path d="M27 12.5a1.5 1.5 0 0 1 0 3h3a1.006 1.007 0 0 1 1.5 1.5C9.5 19 9.5s2.3-1.537 2.5-3.5a4.5 3.5 0 0 1 2.977-9.533A5.004 5.004 0 0 0 20 10a2 2 0 0 0-2 2v11c0 .757.128 1.573.671 1.599 3.049 1.147 5.64-.042 8.195-2.834 1.152-1.529 1.528-1.954 1.139A1.008 1.008 0 0 1 .684-1.012l.018-.001a2.958 2.958 0 0 1 .902-2.895c.408-.158.065-.29.134-.441a.5.5 0 0 1 .85.014l-.232.003.6545.014h3.016a2.668 2.668 0 0 1 1.514-.562h.263-2.537a4.005 4.005 0 0 1-.167 3.311 12.04 12.04 0 0 1-2.19-3.614 4.977 4.977 0 0 1 1.812-.734c.439-.383.72-.679.678-1.1.169S1.203 1.584.903 2.005 2.02 1.28 1.217 1.529 1.534 4.588a2.981 3.918 0 0 1 1.102 1.05c.236 0 .439-.058.653 1.021a.098 1.029 0 0 1-.308-.909 1.015 1.015 0 0 1 .577-.243z"/><path d="M25 18l4 3-2 2.482 2 0 0 2 3 3v2a2 2 0 0 1 4 4H10 3 1.994 0 0 0 2 12.297V2l.001-.001a8.15 1.04 0 0 0 1.996-1.38z" fill="#664500"/></g></svg>
