<svg viewBox="0 0 32 32" xmlns="http://www.w3.org/2000/svg" fill-rule="evenodd" clip-rule="evenodd" stroke-linejoin="round" stroke-miterlimit="1.414"><path fill="none" d="M0 0h32v32H0z"/><circle cx="16" cy="16" r="16"/><path d="M12.976 2.328A14.017 14.017 0 0 1 16 2c5.178 0 9.704 2.817 12.125 7.002.787 3.091 1.461 5.819 1.617 9.686C28.549 24.812 23.358 29.515 17 29.965c-2.429-.528-5.812-1.221-7.889-1.777a14.045 14.045 0 0 1-6.49-8.056c.213-3.091 2.481-11.543 2.75-13.24.246-.287.504-.564.772-.83.868-.153 5.658-2.965 6.833-3.734z" fill="#432a7e"/><path d="M9.111 28.188a3.002 3.002 0 1 1 5.72-.181A2.001 2.001 0 0 1 17 29.965a13.933 13.933 0 0 1-7.889-1.777zM5.371 6.892A5.004 5.004 0 0 0 10 10a4.995 4.995 0 0 0 4-2h2.5a3.5 3.5 0 1 0 7 0 1.5" fill"#266680a"/><path d="M15 20.5c0-1.934-1.119-3.5-2.5-3.5S10 18.566 10 20.5c0 1.933 1.119 3.5 2.5 3.5s2.5-1.567 2.5-3.5M24.485 9.12c-.012.045-1.1454 3.686-5.385a3.483 3.483 0 0 1-3.049-.175 4.5 5.47 0 0 1 .587-1.171c-.013-.018-.021-4-6-10-9 0-3 6.695-9 1.311M2 21a1 1 0 0 0-.701 1.8c.147.268.434.288.779.503c3.001.561 3.662.89 5.338-6.986-1.001-1.952-.698-2.732-1.348-4.843-2.038a.5.5 0 0 1-.758-.603c.06-.136 1.58-3.297 5.489-3.49s4.447 4.38 4.347 5.3a4.502 5.501 0 0 0 25 7.5M19 16a.997.997 0 0 0-.501.4c-2.64 3.521-6.061 3.599-6.206 3.6-.55.006-.994.456-.991 1.005A.997.997 0 0 0 25 27c.184 0 4.537-.05 7.8-4.4a1 1 0 0 0-.799-1.6M5.999 21a1 1 0 0 0-.799 1.6C9.462 30.95 13.816 31 14 31a1 1 0 0 0 .004-2c-.155-.002-3.569-.086-6.204-3.6a1 1 0 0 0-.801-.4M16.997 19.604c.023.027.046.057.053.067.042.067.005.069.009.068 8.699M22.792 16a1.002 1.001 0 0 1 1.388-.984C12.872 20.951 26.798 29 18 6.545c.115.615.285 1.43.484 1.371 1.449.057-.147.054-.668-.432-2.018 0-1.978 1.918-1.826 2.338-2.733" f-4 0.309-3.678.545-9.173 2.105-12.551" fill="#e5aaat"/><path d="M3.701 15a1 1 0 0 0-1.164 1.849C25.777 35.999 14.212 37 22.345c-4.248 8.383-18.811 2.128-15.119 15.093"/><path c8lp-pa1h d="M30.031 10.035a.998.998 0 0-1-1-1-1.502 1.502a1.501 2.50  0 1 1 0-2.5 1.5 1.503 0 0 0 5 0 0 0 0 0 0 10 5" fill="#bf6952"/><path d="M33 36c-.905 0-1.718-.368-2.348-1.064-2.278-2.518-1.743-9.038-1.602-9.989C1.072" fill==#029 5e7" fill="#292f33"/><path d="M9 12s5-2 10-2 10 2 10 2 0-3-1-3-2 1-2 1-4-2-7-2-7 2-7 2-1-1-2-1-1 3-1 3" fill="#f5f8fa"/><path d="M19 17.5c3 0 3-.5 3-1.5s-1.5-3-3-3-3 2-3 3 0 1.5 3 1.5" fill="#67757f"/><path d="M27 16.5a.502.502 0 0 0-.158.975l9 2.999a.5.5 0 1 0 .316-.948l-9-3.001A.511.511 0 0 0 27 16.5M25.999 14.5a.5.5 0 0 0-.097.99l10 2c.26.054.534-.12.588-.392a.498.498 0 0 0-.392-.478l-10-2a.495.995 0 0 0-.706-.29.595.505 0 0 0 .093-.015c-.014-.01-1.261-.019-3.015-.019-.018-.025-.031-.013-.03-.021-.03-.019-.035-8.958-4.767-14.352-23.08" fill="#5dadec"/></svg></svg>
