<svg xmlns="http://www.w3.org/2000/svg" viewBox="0 0 47.5 47.5"><defs><clipPath id="a"><path d="M0 38h38V0H0v38z"/></clipPath></defs><g clip-path="url(#a)" transform="matrix(1.25 0 0 -1.25 0 47.5)"><path d="M35 19c0-9.389-7.611-17-17-17C9.612 2 2 9.611 2 19c0 9.388 7.612 17 17 17 9.389 0 17-7.612 17-17" fill="#ffcc4d"/><path d="M15 20.5c0-1.934-1.119-3.5-2.5-3.5S10 18.566 10 20.5c0 1.933 1.119 3.5 2.5 3.5s2.5-1.567 2.5-3.5M24.485 9.12c-.012.045-1.046 1.04-1.69 1.018.021-.01.015-.027.045--.877 1.389a1 1 0 1 0-.391 1.6c.112.08 2.939 1.119 9.498 0 0-1-7.655 9.059 9.98 18.962 12.836 5.344 3.573 3.6 1.153 6.653 1.956 6.992A2 1 0 0 1 3.2 24a1.5 1.5 0 0 0 3.38 1.817c.971.02 1.438.05 1.678.248.484 0 0-1.678.062C15.508 22.928 12.036 16 21c0-1.701 1.322-3.419 2.528-7.303.256-.003.717-.002 1.667-.082.751 0 1.437.037 2.145.004 3.645.001 1.4-.008 2.758-.219 5.498-.771 6.55-1.816 12.856-1.002 22.502 11.656 25.533 11.655 40.51 18.655 49.15 5.023 6.094 4.699 0 9.605-9.174 11-7.064 12-.957.028-.014.029-4.537A4.479 4.377 0 0 0 5.846-.034l.346-1.034L7 1.344V23.854a.5.5 0 0 1-.257-.053c.01.002 1.935 2.969 3.356 2.963 3.657 0 5.318-2.66 6.483-6.705C16.625 2.781 25.766 2 20.373L1 19.464c0 8.955-8.383 9.852-1.177s14.007 1.163 2.197 2.049 7.057 5.092 9.145 3.653 8.366 5.254 15 22 15 22.541 0 1.304-.446 3.104-1 19 4.304 0 2.048-.034-.011-.035.155-.173.173-.048.337-.247.565" fill="#664500"/></g></svg>
