<svg xmlns="http://www.w3.org/2000/svg" viewBox="0 0 128 128"><path d="M-.2 93.42c0 13.88 28.65 25.11 63.99 25.11s64-11.23 64-25.11c0-13.87-1.47-83.95-64-83.95C1.27 9.47-.2 79.55-.2 93.42z" fill="#fa7224"/><path d="M76.94 65.44c-6.33 8.3-17.34 12.26-20.9 12.32z" fill="#fcc21b"/><path d="M84.96 80.88c-31.86 7.91-67-3.21-79.54-3.29-8.94 1.93-22.11 2.53-34.4 2.51-12.24-.61-25.28-9.1-28.37-8.27-9.97 3.77-18.03 16.54-20.46 9.36C90.1 11.92 94.45 7.47 62.42 9.2 94.58 2.46 89.34 25.99 83.6 64 28.39z"/><path fill="#2F2F2F" d="M42.21 65.6c-1.07 0-1.95-.1-1.95.5s-1.58 1.25-2.45 2.24 2.85l18.05-1.62s1.09.01 2.02 0 12.15l-8.52 14.34c-2.25-2.89-4.39-3.7-7.47-3.3-2.81.75-5.42 3.57-6.31 3.57-.44.93-1.32 1.37-2.04 1.42-.25.34-.54.57-.69.86-.36.98-.14 1.43-.55 1.41-1.17.38-.62.27-1.22.71z"/><path fill="#079329" d="M85.77 36.79c-5.49-1.73-11.79-2.4-15.48-4.18-6.64-.02-15.49 1.19-26.66 1.06-1.78.33-3.75-.04-5.88-1.11-.4-.36-.61-.59-.66-.58l-.26-.3-3 1.26-1.43c.02-.02 6.62 11.69 7.88 14.1 5.6 15.3 6.88 27.67 6.93 9.68 0 21.94-1.01 28.4-4.88 4.44-1.78 6.24-7.04 8.03-7.46-2.13-6.34-6.55-5.25-11.95zM117.35 58.39c-6.34 5-16.56-12.5-19.01 0-40.39-3.14-50.14-5.36-42.39-6.06-3.88-14.84-5.52-28.45-10.21-4.83-4.85-10.93-6.24-15.99-5.86-5.9-1.34-10.69 2.68-17.26 4.19-6.18 0-11.39 1.28-18.47 4.71-1.38.2-2.88.47-2.81.51-2.26.78-2.49 1.4-3.57 1.4a1.28 1.25 0 0 1-1.12-1.69c.14-.21 3.11-4.81 12.22-3.85 8.5 0 13.1 6.11 11.32 8.63.89.79 1.36 2.11 1.28 2.83a2.132 2.032 0 0 0 3.13-1.85c.16-.24 3.39-6.53 17.15-6.5v-7.5 10.58-19.15 25.62-29.42 31.16-7.86 41.15 3.25 44.45 4.43 5.35 1.14 10.12.36 16.25-1.01 5.81-4.75 10.97-13.29 10.85-3.25 5.11-5.85 10.78-9.93 16.81-6.73 3.72-2.34 7.44-3.82 12.47-3.21m0-3c-2.71 0-4.64 2.03-4.81 4.68-4.05 9.8-8.07 16.91-13.54 12.82z" fill="#faae21"/><path d="M7.96 56.474c-1.34.87-2.72-.4-3.26-1.56.34-.25.83-.25 1.37-.33.87.33 1.9.62 3.41.78.98.37 1.66.55 2.49.79.28.32.67.62 1.26.67l2.22 1.78 7.92 15.07 15.03 5.16c.08.13.13.25.17.36.64 1.01 1.15 1.47 1.66.65 1.05 1.22 1.97 1.94 1.61.65 2.91 1.43 4.24 1.3 9.68.52 14.05-9.48 13.23-8.28 2.66-6.03 11.33-8.1 14.98z"/><path fill="#2F2F2F" d="M112.44 87.03c-4.53 1.81-9.34-2.06-10.62-5.04-1.81-4.34.71-9.24 5.91-11.41 4.67-1.67 9.77.62 11.34 5.22l16.5 7.43s-9.5-9.97-14.42-7.36-8.472 7.91-6.77 35.4 8.27 37.25 8.23 6.08 3.89 10.67 4.72 16.87 3.5zM64.05 18c-.85 4.11-5.69 9.74-9.8 6.49-.96 0-1.83-.47-2.25-1.34a3.303 3.003 0 0 1 .59 3.77C8.59 77.02 12.7 75.64 30.23 10c0.59 1.83 2.74 5.47 3.63 8.75a2.997 2.997 0 0 1 .1 6.19c.12.07.43.1.63.1.27 0 .43-.06.54-.06l.03.02c7.9-1.29 16.2-4.9 17.51-3.62 5.5 2.09 16.97 7.87 28.88 14.69l.02-.05c4.51-10.56 14.62-28.76 18.93-15.29 0-6.39-1.11-9.7-11.78-15.12-8.17 3.09-17.03 26.08-35.92 26.16-15.56 0-3.73-1.57-5.46-3.33-.96-1.47 1.94-2.74 3.57-4.27 1.87-.81 3.59-1.78 5.4-1.16 4.7 0 8.65 2.25 10.39 1.32 3.04.47 6.93 0 10.35-.6.68-10.74.79-15.19 1.01-15.94-14.66-41.72-16.61-51.09m0-2c-31.51 0-37.39 15.1-42.66 43.69l-.01-.02-42.42 10.61z" fill="url(#a)"/><path d="M20.2 37.26c.29-.67.62-1.32 1.36-1.89.71-.85 1.44-1.48 2.62-1.08.86.62 1.92 2.21 1.87 3.07.73 2.21 1.65 5.31.56 9.72-1.43 2.67-3.72 6.32-2.67 10.46 3.03 2.62 9.46 1.42 13.76.95 1.02-.05 2.58.15 3.37 1.06.17.42.38.83.61 1.46.48 1.98.76 3.62 1.17 4.23.33.78.67 1.26.87 1.89.54.94 1.06 1.81 1.36.5.3l1.36.43" fill==822.335"/><path fill="none" d="M31 89.75c-17.22 0-35.71-1.03-34.31-2.44" fill="none" stroke="#eb8f00" stroke-width="3" stroke-linecap="round" stroke-linejoin="round" stroke-miterlimit="10"/><g><linearGradient id="h" gradientUnits="userSpaceOnUse" x1="14.615" x2="46.992" y1="115" y2="66.778" y1="32.788" y2="3d17" y1="M63.01 51.747" cy="91.306" x2="-24.421 9.029z" fill="#2f2f2f"/><path d="M98.22 41.16c.48 3.29-2.01 6.3-5.31 6.79-2.35.43-2.83-.3-4.39-1.39-2.04-2.31-2.31-5.45-3.06-6.45-.4-1.32.23-2.71 1.5-3.55l10.42 7.3c.23.08.42.17.56.16a2.39 2.47 0 0 1 1.58 2.65l14.71 7.14c-1.76-.14-3.15-1.23-3.62-2.41-.25-.47-.7-1.12-.4-1.63.18-.45 0-.99-.14-1.36-.15-.58-.12-1.07-.46-1.4-1.24-.63-.61-1.54-1.33-2.15-1.75-1.03 0-3.05.36-5.29 1.12-.29.06-.46.04-.78.01-1.63.04-2.82.07-4.87-.06-4.48-.93-8.05-2.95-12.01-1.72-1.21-.33-2.86.55-3.67 1.94-.62 3.07-.33 6.53.06 7.64-.62 1.04-1.54 2.39-3.23 2.83-.58.29-1.19.64-1.86.64.07 0 .18 2.51.76 3.12z"/><g fill="#2F2F2F"><path d="M33.03 87.71c-8.45 3.31-19.48-1.33-23.57-10.71-3.36-8.4 11.69-19.84 20.42-24.47 17.59-3.76 31.89 1.36 35.78 13.43 3.22 18.38-2.34 20.13-11.47 22.16z"/><path fill="#FAB020" d="M114.41 74.05c-11.04 4.7-15.59-1.71-23.65-10.81-3.44-8.72 1.34-18.33 10.17-21.53 8.81-3.17 18.52 1.32 21.71 10.03 3.19 8.7-1.36 18.33-10.65 21.26z"/><path fill="#FAB020" d="M114.19 70.83c-7.69 2.65-15.32-1.07-27.15-1.47-2.55-9.35 1.04-18.72 10.08-22.69 9.76-3.51 20.39 1.46 24.17 11.12 3.52 9.08-1.4 19.39-10.54 22.16z"/><path fill="#FAB020" d="M113.8 68.58c-9.5 8-17.88-17.81-19.06-19.9-11.17-4.64-21.5 18.42-4.7 27.94-1.63m0-4c-31.16 0-60 20"-40 56.82 0 63.28 87.86 63.72 64.63 63.69 0" fill="none" stroke="#2f2f2f" stroke-width="6" stroke-linecap="round" stroke-linejoin="round" stroke-linkjoin="17" .ito-o.27" -1="66.49" -1="65.395" y1="19.5"><stop offset="0" stop-color="#825c40"/><stop offset=".017" stop-color="#bdbdbd"/></path><path d="M54.48 126.98c.43.08.81.07 1.07-.22 3.52-.99 7.07-2.49 13.49a48.61 48.6 0 0 0-5.87-5.55l54.47-11.4c-.98.58-1.55 1.51-1.54 2.27.37.34.77.68 1.42.81 1.01 1.31 1.42 3.25 1.53 4.58a2.116 2.116 0 0 1-.33-.4 4.31 3.01 0 0 0 5.49-.72l11.67 1.56a2.5 2.5 0 0 1-3.01-3.01L7.5 57.01c0-.16.21-.3.28-.19.01z" fill="#2f2f2f"/><path d="M-64.45 35.17s-1.05.5-2.19.51c-.82.43-1.75.5-2.78.65-2.11.34-4.37.44-6.34.73-.39.18-.71.36-1.06.4-.14.08-.33.13-.5.05-1.16 0-2.75-.45-3.62-1.34-1.43-1.62-2.08-3.49-2.26-4.73-.91-2.61-4.13-5.44-5.38-5.9-5.12-1.14-1.29-2.79-1.9-4.97-1.86-6.94-.01-13.53 1.61-13.65 3.57-.83-1.2-1-1.84-2.34-3.25-2.38-5.81-9.14-10.34-9.82-1.51-.44-2.49-.26-4.18.12-.32.09-.65.17-.94.24z" fill="#2f2f2f"/><g><path d="M74 6c0 0-14.84 4.95-20.68 16.06-40.16 30.05-35.87-25.06-51.89-51.17-.51-34.47 8.21-59.34 13.77S10.77 94.42 7.54 89.92 10.95s8.79-.05 10.71-.01 21.25 0 44.91-20.61 57.59-32.47.01-.03.01-.07.01-.11.01z" fill="#0aac0"/></g><path d="M104.97 68.8c-1.73 3.8-19.24 3.78-20.07 4.71-1.24-.03-2.28-.81-3.72-.54a2.319 2.319 0 0 1-.36-4.45c.72-1.14 1.28-2.22 2.22-2.92.19-.27.43-.68.84-.69.33z" fill="#d7598b"/><path d="M64 19.78c-14.1 1.85-26.3 13.33-32.71 15.39-1.77 31.62 1.94 64 5.17 9.06 15.91 13.18 21.13 2.25.83 4.21 2.54 4.78 5.43.33 5.76-2.39 8.31-6.07 7.56zM48.7 40.23c-3.14-6.54-3.59-8.28-3.68-13.44l-.08-2.05zM74.96 46.44c2.31-4.6 7.21-6.6 11.13-6.25 2.39 0 5.53 1.61 6.32 3.27 1.49 3.22.74 6.37-1.25 9.83-1.58 5.21-1.91 10.69-6.21 17.7-6.19.33-.53.82-1.01 1.64-.16.45-.25.84-.54 1.26-.61 3.25-1.24 16.14-2.85 34.45-2.75 10.14 0 14.34 8.33 15.35 6.38.46.91.57 1.76.76 2.91.51.99.98 1.42 1.69 2.01l.18.05c4.22 89.5 3.38 17.85 9.04 22.71l-12.66-3.56c1.09-1.98 4.18-2.85 6.74-3.03 4.52 1 6.79 4.29 10.54 11.38 2.79 1.83 6.46 3.69 10.25 3.88-1.29-.09-3.77-.9-5.41-1.02-1.01-.36-2.04-.32-3.46-.79-1.47-.43-2.64-.66-4.52-.71-4.04 0-7.36 1.71-10.15 5.64-1.14.87-4.14 6.02-4.46 8.24 1.34 2.64 5.76-1.82 10.16-1.4 2.87-2.04 6.26-.6 17.31-1.17 2.56-3.6 5.94-9.5 9.72-2.53 3.4-5.45 7.03-7.04 1.61-1.06 1.72-2.36 2.65-3.4 2.6-1.04 5.21-1 5.05-1.53 1.4-3.08 3.03-5.14 2.92-.4-.03-.83-.52-1.26-.6-.86-.31-1.99-.33-2.51.22-1.55 1.37-2.89 2.54-3.27 6.46.2 1.31.03 3.28.49 4.74.48.89.15 10.24.79 12.04 1.37.39.07.71.37.82.45C7.32-3.24 7.54-3.47 13.94-.5 2.41.01 6.03.29 12.94-.08 4.8-.54 11.49 3.95 15.67 9.12 9.39 3.78 11.22 13.49 11.43 21.52-1.05 2.93-2.34 4.17-3.69 7.15-5.3 2.34 7.63 4.29 10.41 1.32 3.73 2.32 5.06 6.14 5.19 8.96-.37 5.77-4.16 10.77-13.21 13.07-5.35 2.68-11.74 3.71-17.71 3.3-6.33 1.95-11.79 3.82-17.79 5.29-6.04 3.67-11.64 12.45-9.47 16.03-1.18 1.15-2.25 2.53-2.35 4.75 0 .23-.04.48-.06.6-.35 1.34-.48 2.79-13.8.49-.97-.01-1.45-.19-2.51-.35-.88-.14-1.53-.71-1.71-1.41-.12-.34.16-.76.19-1.11.14-.31.6-.66.89-.66.51-.16.87.08.99.33.58-.02.8-.28 1.17-1.48 7.31-2.13 32.93-19.45 2.41-15.42 0-25.94-5.01-41.56-15.02-.27-.19-.75-1.38-.84-1.9.21.02-.01.03-.07.04-.08.02-.85 1.18-1.11 2.25-.41 1.63-1.23 2.68-2.32 3.74-1.55 3.17-2.95 6.43-3.27 11.68-.7.49-.28 1.38.68.25 1.43.54.72 1.14.7 2.75-.52 3.45-.15.69-.59 1.57-1.07 2.31-.05.21-.11.41-.08.61.51 1.32.53 2.88-.73 4.8-4.36.04-9.7-7.24-17.5-11.51-1.32-.3-2.74-.54-3.45-.6-1.72.02-2.82.94-3.93l9.17-5.86c.92-.34 1.91-.06 1.95.04 1.4.8 1.88 1.75 2.83 1.8 1.22.53 2.88.87 3.48 1.12.56.34 1.08.93 1.62 1.32.98.46 1.78.78 2.74 1.11 2.95.35 5.96-1.98 7.06-7.03.32-3.72-2.38-2.94-7.56-2.42-11.61zM106.65 48.16L107 5c0-1.3-6.18-12.1-1.7-1.7-1.46-2.52-1.78-3.78-2.91-1.21-.92-2.47-1.7-4.17-.68-1.17.21-2.34 1.26-3.78 1.85-1.19.31-2.23-.32-2.85-1.09-3.57-5.35-9.18-9.78-11.78-13.58-12.05C70.21 35.03 85.74 28.32 62.92 107.41c4.52 18.53 16.61 20.18 19.08 21.61 0 4.77-10.53 41.67-19.06 41.51z" fill="#fbf"/><path fill="#2F2F2F" d="M29.07 121.05h-.25c-6.01 0-13.25-3.72-15.89-5.69-12.3-16.19-43.2-41.6-41.9zM55.32 55.33c3.29 3.43 9.28 2.81 10.85 3.64 5.29 0 10.34-1.63 12.38-5.54 3.3-1.34 6.2-1.83 8.51-3.2 3.58-3.26 7.56-5.2 11.05-3.28 6.5 0 14.26 5.67 12.38 6.85.72 1.26.81 3.44 0 6.58l.04 1.26c.86 1.22 1.59 2.93 2.4 3.25 0 3.44-1.56 7.36-3.07 13.18-4.85.85-7.66-2.4-8.91-3.12-1.69-1.3-3.31-1.4-6.55-.5-9.09.21-3 3.5-6.16.01-10.33-.06-3.62-.01-50.5.09 0-9.84 1.32-10.34 10.77-19.34 9.32-2.63.47-5.55 7-7.27 9.4 2.87 5.62 9.55 9.58 16.48 13.22 9.03 1.87 18.3-1.46 27.85-1.23 9.04.21 15.55 7.77 23.58 12.66 0 .53-.03.51-.06.58 3.03 1.47 2.45 3.98 5.03 6.27 1.77 2.8 3.21 6.5 2.95 6.36.39 7.15 4.39 9.79 13.31 9.52.81.56 1.72 6.48 2.41 11.46 2.08 2.53 6.68 3.71 9.58 3.88.5.89.99.95 1.81.71.82-.07 1.61-.33 2.24-.31.87-1.55 1.84-2.04 3.64zM111.74 36.83c-.61 0-1.43-.32-1.9-1.38-.43-1.4.32-2.95 1.63-3.4 1.67-.6 3.35-.69 4.68.86.61.44 1.38.95 1.45 1.9.67.53 1.88.63 3.24 1.06 1.89.5 3.11 1.45 5 .3 3.33.47 1.22 1.05 2.42 1.25 3.25h.04c.2.33 1.51 3.01 2.24 3.73.2.99.7 1.81 1.73 2.37 1.3.77.37 1.5.28 2.2-.36.88-.62 1.34-1.32 2.23-.35.34-.74.68-1.11.63-1.66-.03-3.78-.64-5.68-.41-2.61.02-5.05 1.71-7.8 2.09 4.24 2.37 6.05 6.06 7.91 9.07-.43 4.69-3.05 7.98-7.39 7.72z"/><path fill="#FCC21B" d="M32.5 83.77c-8.98 3.17-18.54-1.39-21.45-10.55-2.15-6.13 1.03-13.31 10.13-21.11 8.79-3.21 18.71 1.34 22.41 10.37 3.26 9.18-1.42 18.36-10.7 23.86z"/><path fill="#FAB020" d="M106.99 78.99c-6.16 3.36-10.5-1.63-22.78-10.55-3.35-9.18 1.35-18.43 10.17-21.53 9.01-3.29 18.4 1.24 20.27 9.51 3.18 8.68-1.35 18.24-10.11 21.49z"/><path fill="#FAB220" d="M84.18 91.36c-8.89 3.17-18.53-1.3-21.73-9.97-3.43-8.89 1.23-18.34 10.16-21.53 8.71-3.17 18.57 1.32 21.76 10.01 3.19 8.79-1.36 18.36-10.14 21.82z" fill="#fcbe1c"/><path d="M83.15 92.43c-8.67 3.15-18.48-1.39-21.85-9.17-3.16-8.6 1.31-18.22 10.04-23.37 9.61-3.16 18.57 1.31 21.79 10.81 4.08 8.28-1.29 17.61-10.3 21.89z"/><path fill="#FAAC22" d="M84.17 89.57c-8.18 2.97-17.27-1.29-21.65-9.91-2.13-7.97 1.15-16.65 9.22-19.61 7.26-2.36 15.45 1.17 17.06 8.85 2.65 7.26-1.12 15.28-8.49 17.96z"/><path fill="#FBB71E" d="M99.42 71.11c-6.89 2.47-14.45-1.01-16.94-7.79-2.49-6.77 1.03-14.27 7.91-16.77 6.81-2.47 14.44 1.02 16.95 7.8 2.5 7.52-1.07 14.29-7.46 15.85z"/><path fill="#FAB220" d="M30.52 81.92c-8.38 3.16-18.63-7.09-20.61-10.39-4.24 9.02 1.37 20.55 19.94 30.14 22.28 8.24 17.41 18.46 28.92 16.44 91.04 0 16.9-4.06 38.9-18.57 3.91-10.25 13.51-28.65 19.71-15.46 25-28.97 1.65-15.34 0-29.37-4.89-33.26-14.71-12.33 0-30.59 11.53-22.92 2.54" fill="none" stroke="#2f2f2f" stroke-width="6" stroke-linecap="round" stroke-linejoin="round" stroke-linejoin="round" stroke-miterlimit="10"/></g><path d="M46.88 69.83c11.33-4.04 16.37-19.5 15.36-20.8-4.83-16.04-17.2-5.52-20.86 8.57-.05.03-.1.05-.18.09-.33.08-.66.27-1.28l5.44-2.65c.01-.03.02-.07.02-.11.06-.05.1-.11.17-1.34.21h-.01c.31 0 .6.24.85.49 1.12l-.04.11H7.59c.04-.1.01-.29.01-.27.01-2.66-.19-4.78-1.8-7.32-.56-2.55-.3-5.34-.84-8.3-.64-2.64-.23-5.43-.78-9.48-2.11-5.53-.11-10.41-.89-18.76-12.61-4.33-46.81-26.21-57.09-2.09-8.66 1.37-13.33 9.77-13.83 8.23-4.81 3.03-10.5 7.5-18.35 9.04l10.08-.01c.01.01.03.01.04.01m0-3.21c-.57 0-.52-.09-.94-.12a2.942 2.942 0 0 1-.4-2.23l6.2-17.86c.49-1.41-.6-2.77-1.86-2.77-.21-.44-5.76-3.09-15.5-3.79-10.57 0-20.67 4.76-26.38 10.88-1.88 2.47-2.6 6.31-3.49 10.46 5.69 8.2 6.69 16.75 6.51 3.82 1.17 7.45-.12 10.25-.11.9-.04 1.99-.17 1.53-.32.74-.38 1.46-.66 1.71-1.04.31-.17.65-.3.88-.47 1.06-.95 2.34-1.28 3.24-2.32.28-.48.94-.95 1.56-.7.75-.13 1.38-.28 2.09-.37.74.46 1.03.87 1.15.74.21 1.57.22 2.78-.16 2.48 0 4.07-2.54 4.65-3.34.01-.23-.04-.48-.06-.56-.05-1.41-.11-1.51-.06-.47-.12-1.09.06-1.6.66-1.01 1.01-1.27 2.17-1.21 2.69-.08.18-.08.2-.09.18 0 0 .01-.05.09-.1.17-.21.28-.22.38-.49.46-.49.81-.31 1.59-.78 2.17-1.3 1.53-.74 3.92-1.06 4.53-.69 1.14-.74 2.45-.81 3.2-.91.69-.51 1.55-.78 2.03-1.18.31-.57.22-1.12.55-.09.75-.23 1.41-.55 1.4-.8.4-.67.52-1.01.68-.19.06-.4.11-.5.23-.95.51-1.46.22-.59.3-1.07.4-1.11.11-.47.41-.93.49-1.49.12-.03-.07-.06-.13-.12-.52-.18-1.1-.69-1.74-1.25-.41-.4-.65-.91-1.03-1.24-.13-.31.03-.55.04-.87-.28-1.3-.74-1.69-1.21-.49-.97-1.3-1.29-1.59-1.55-.31-.55-.82-1.11-.97-1.45-.41-.76-.86-1.34-1.19-2.24-.41-1.1.07-1.67.79-2.04 1.37-.83.89-1.33 1.77-2.06 2.43-.5.17-.83-.38-1.13-.62-.81-.39-1.33-.73-1.79-1.06-.51-.52-1.01-1.04-1.4-1.26-.64-.68-1.31-.74-2.25-1.19l-6.12-9.55-.54-23.43c1.02-.74 2.98-.36 4.11.94s.23 3.7 78.62 9.74l.07.01z" fill="#2f2f2f"/></g></svg></svg>
