<svg xmlns="http://www.w3.org/2000/svg" xmlns:xlink="http://www.w3.org/1999/xlink"><symbol id="h" viewBox="-64.5 -64.5 129 129"><g fill="none" stroke="#4285f4" stroke-miterlimit="10"><path d="M-64-64H64V64H-64z"/><path d="M36.95 37.82C27.32 46.32 14.2 51 0 51c-14.27 0-27.39-4.62-36.96-13.01C-47.45 28.79-53 15.65-53 0c0-15.58 5.55-28.69 16.04-37.92C-27.36-46.35-14.24-51 0-51c14.17 0 27.29 4.71 36.95 13.25C47.45-28.45 53-15.4 53 0c0 15.47-5.55 28.55-16.05 37.82z"/><path d="M0 55c-29.59 0-57-19.01-57-55 0-35.8 27.41-55 57-55S57-35.31 57 0c0 35.51-27.41 55-57 55z"/><path d="M0-43c-12.29 0-23.54 3.94-31.68 11.09C-40.39-24.25-45-13.21-45 0c0 29.7 22.6 43 45 43 21.67 0 45-13.46 45-43S21.67-43 0-43zM-.01 51V-51M-16 48.95v-97.88M15.99 48.91v-97.84M53 .08H-53"/></g></symbol><linearGradient id="a" gradientUnits="userSpaceOnUse" x1="63.996" x2="63.996" y1="19.838" y2="107.582"><stop offset="0" stop-color="#9e9e9e"/><stop offset="1" stop-color="#2d2d2f"/><stop offset=".671" stop-color="#d55c20"/><stop offset=".636" stop-color="#754f25"/><stop offset=".31" stop-color="#906746"/><stop offset=".445" stop-color="#ab797f"/><stop offset=".701" stop-color="#fac12b"/><stop offset=".27" stop-color="#fcd32f"/><stop offset=".401" stop-color="#fcd32f"/><stop offset=".797" stop-color="#fac12b"/><stop offset=".883" stop-color="#f7a924"/><stop offset=".9" stop-color="#f6a323"/></linearGradient><path d="M64 120.89C11.85 9.82 2 79.96 24 92.42s-9.81 27.63-20.8 9.42z" fill="#eb8f00"/><defs><path id="b" d="M62.67 80.42c-12.77 0-24.04-1.36-43.66-13.76-8.36-8.64 1.43-18.24 10.04-28.69 9.47 3.11 20.43 7.23 44 5.62 5.16 11.39-1.03 24.49-9.63 41.59-8.31 1.3-4.33 2.37-7.46 3.22-11.67 2.11-3.35 2.33-8.25 1.73-9.21-1.1-1.92-1.5-3.01-3.22-4.46-4.86-.54-1.37-.53-2.94-.73-4.54-.31-1.79-1.18-3.99-1.42-6.21-.11-1.55-.5-2.81.74-4.72.45-1.04 1.99-1.71 3.6-.19 1.08.54.34 1.57 1.31.32 2.01-1.58-1.88-11.28-4.45-19.76-.34-.69.16-1.39.63-2.2.6-4 1.89 24 28.51 22.94 8.47 8.93 3.77 16.07 17.16 13.21 21.73z"/><path fill="#FAB220" d="M30.98 87.19c-6.1 2.11-12.31-.84-15.45-6.75-2.12-5.77.89-12.16 6.74-14.28 5.84-2.1 12.32.88 14.45 6.65 2.11 5.77-.81 13.19-6.44 14.4z"/><path fill="#F9A723" d="M18.87 65.57c-9.31 8.16-18.55-7.04-18.93-10.38-2.31-8.76 1.39-18.19 10.44-21.31 9.89-3.46 19.64 1.38 22.95 10.52 31.16 17.64.3 15.02-2.52 28.78-20.62 30.36z" fill="#fcc71c"/><path d="M83.61 94.04c4.72 16 5.43 58.45 35.4 58.39 10.34 9.63-2.99 23.44-20.58 22.67z" fill="#fab020"/><path d="M77.61 69.83c-12.45 3.04-22.01-1.2-37.08-11.17-3.35-10.14 1.56-21.3 11.91-24.19 13.57z" fill="#fcc21b"/><path d="M84.96 100.49c-2.54 0-4.73-.55-5.75-3.06.02-10.06 9.85-11.21 15.65 0 17.74 4.15 31.28 13.84 16.73 0 22.01-2.22 32.85-2.23 3.74-.54 5.41-1.73 7.5-5.14.73-1.56 1.93-3.73 2.4-4.92l-14.31 3.3c-.82.51-1.52 1.32-1.72 3.25-.15 1.14.533 2.16 1.76 2.62l12.99-1.31c-.99-2.01-4-3.5-5-1s-6.23-10.34 3.45-12.63 18.62 1 79.34 1.11 9.64 14.25 18.49.12.01.01.03.08.01.03.01.03.01.03.01.03.01.03.01.03.01.03.01.03.01.03.01m0a2.926 2.826 0 0 1-.91-3.48c.18-.31 4.6-7.62 14.27-7.62 9.71 0 14.28 7.31 14.36 7.62.76 1.35.3 2.9-1.85 3.94-2.92 2.56-7.44-3.85-15.47-12.22-6.34-5.68-9.1-13.76-16.5-19.31z" fill="#ed6c30"/></defs></svg>
