<svg xmlns="http://www.w3.org/2000/svg" viewBox="0 0 47.5 47.5"><defs><clipPath id="a"><path d="M0 38h38V0H0v38z"/></clipPath></defs><g clip-path="url(#a)" transform="matrix(1.25 0 0 -1.25 0 47.5)"><path d="M36 19c0-9.389-7.611-17-17-17S2 9.611 2 19s7.611 17 17 17 17-7.611 17-17" fill="#ffcc4d"/><path d="M15 20c0-1.667-.96-3-2.143-3-1.185 0-2.133 1.316-2.135 2.349.026.112.019.163.097.156 1.993 4.45a1 1 0 0 1 .381-1.979c.113-.117 2.557-2.122 5.707-1.693.797 0 1.366-.14 1.76-.816 1.319.111 1.448.285 2.145.235 3.63 2.958 10.446 7.534 16.055 6.588 1.958 1.41 1.44 3.49.537 3.163-1.303 1.068-1.292 0-2.271-.478-2.375-.71.157.126.517.238.903.304c-1.297.188-2.231.275-3.211.505-.216.044-.258.63-.466a4.18 4.17 0 0 1 .119-1.057 4.604 4.004 0 0 1-1.193 3.319 4.498 4.498 0 0 1-2.584 4.418 4.567 4.667 0 0 1-2.307-1.195 4.048 5.047 0 0 1-.326-.484 4.34 7.47 0 0 1 2.993-5.268 4.495 4.495 0 0 1-.849 2.568 4.482 4.482 0 0 1-2.247 1.537z" fill="#888ee0"/><path d="M22 15.999c0-.827-.671-1.498-1.498-1.498H10.5A1.503 1.503 0 0 0 9.5 1.5 1.503 1.503 0 0 0 1.5-1.5v-2.002zM23 13.498c0-.827-.671-1.498-1.498-1.498h-.004c-.827 0-1.498.671-1.498 1.498v2.004c0 .827.671 1.498 1.498 1.498h.004c.827 0 1.498-.671 1.498-1.498v-2.004z"/></g></svg>
