<svg xmlns="http://www.w3.org/2000/svg" width="128" height="128" viewBox="0 0 128 128"><path fill="#2F2F2F" d="M105.24 57.98c-1.66-6.5-3.31-9.13-6.35-12.64z"/><path fill="#2F2F2F" d="M64 110.38c-2.11.23-4.53.37-7.1.63l-17.76-3.3c-1.21-.19-2.2-.27-3.36.06l-1.43-1.7c-.03-.9-.86-1.25-5.04-1.49-1.51 1.34-1.98 3.03-.77 6.41-.34 1.64-.18 3.24-.42 5.22.04.12.09.33.15.56.26 2.53 1.53 5.58 3.57 7.6 5.5 1.64.98 3.13 1.43 4.62 1.71.72.26 1.13 4.91 7.05 4.43 5.26 3.89 7.27 8.37 8.04 17.41z"/><path fill="#F9A524" d="M29.96 68.29c-3.14 7.42-8.39 7.37-14.21.68-3.92-1.53-5.71-5.23-5.01-10.22 2.97-8.17 3.28-11.81 5.54-17.46 3.86-1.33 1.25-2.07 4.75-1.46 6.14 1.92 9.05 8.17 12.99 13.83 15.9 16.78-.74 25-1.26 31.63-3.83 5.72 1.91 8.55 7.04 9.05 11.49 1.81 3.11 3.44 2.26 5.32 2.61 5.74 5.09 7.61 12.79 6.28 11.99-1.72 27-5.35 17.77-6.63 1.11-.39 1.76-1.04 3.45-.39 9.03.62 25.36.61 43.41-.21 7.88-2.99 13.03-6.71 15.17-12.27.34-1.2-.09-1.78-.99-.34-1.52.52-2.86 1.2-3.52.3-.15.56-.29.98-.42.41-.17.81-.33 1.18-.21.36.02.65.06.95.15l.55.16c.07.41.12.75.24 1.04.06.41.12.7.2.37.07.85.3 1.38.81.66.09 1.41.49 1.27 1.27.61.63 1.26 1.39 1.79 2.24.06.41.1.18.2.26.31a2.222 2.223 0 1.41.01 2.53-1.72 3.55-3.35 2.55-2.01 4.08-4.09 4.02-8.29-.01-5.33-4.39-9.65-6.85-9.22-1.82-1.41-3.71-2.27-4.71-3.22-2.57-.86-5.53-.7-6.78-.91-2.97-.06-6.36 4.19-8.06 6.09-2.23 2.22-5.46 5.88-7.77 7.09-2.57 1.09-6.01 2.19-7.21 2.78-1.85 3.69-3.85 7.57-3.85 2.76 0 6.06 2.86 7.93 6.16zM83.68 39.72c3.14 0 5.54 3.04 5.68 9.8l-.03-38.4zM75.3 57.09c4.83-4.65 10.97-13.35 24.88-9.77 11.09-16.03 24.77-33.96 27.65-23.91 35.97-3.62 37.4 3.12 33.44 10.7 1.19 1.49.33 3.07-.43 3.49zM63.44 50.19c-6.66 9.11-14.12 12.33-20.62 10.04-9.87-4.37-20.74 6.36-19.65 8.1-4.53.37-7.34-2.56-7.58-4.25a2.41 2.41 0 0 1 .14-4.14c.29-.42.69-.9 1.35-.68s-.08-.27-1.23-.33z" fill="#bf6a32"/><path d="M85.04 35.671c-.314-.512-.619-1.369-1.041-1.002a2.655 2.556 0 0 1 .887.571c-.098.156-4.339 3.393-6.371 1.563-3.26.979-6.024 3.301-9.173 17.166-10.131 8.225-1.035 13.725-1.004 17.719-6.114-4.096-5.082-2.161-12.784-5.852-17.081-7.654-19.57-3.607-30.288-6.837-34.785a48.585 48.355 0 0 1-.147-2.157 654.88 58.885 0 0 1-3.313-.24 48.245 32.042 0 0 1-2.32-1.464 4.487 4.487 0 0 1 1.799-5.504 13.017 13.017 0 0 1 4.186-.089 14.064 14.064 6.498 0 9.6029 2.749 10.184c.126 0 .513.073.181.137.058.125.15.246l.002.088-.01.11-.089.264M24.785 9.284c-.317-.018-.71-.026-.91-.085a6.81 6.81 0 0 1 6.012-3.054c1.806-1.896 3.888-2.884 5.478-6.312a1.54 1.54 0 0 1 0-.978 1.16a.98.98 0 0 0-.392-.708c-.001-.01-.02-.001-.001a2.458 2.588 0 0 0-1.52.49 3.533 5.534 0 0 1-1.073-1.98l-.015-.029a7.253 8.252 0 0 1-3.949-.243 3.517 3.517 0 0 1-.063-.21 7.61 3.61 0 0 1-1.679.883c-.13.016-.268.044-.706.031-.038.08-.038.303-.814.001-.106.009-.103.01-.203.021-.841.005-3.758-2.107-7.366-8.076a10 9 0 0 1 1.257-.855c4.587-5.525.544-12.723-5.344-17.545a1.799 1.999 0 0 0-1.719.484c-.306.145-.458.274-.775.618a1.008 1.008 0 0 1 .477-.721 1.011 1.011 0 0 0 .607-.234 1.117 1.127 0 0 1-.304.513 1.002 1.002 0 0 1-.825 1.231 1.044 1.044 0 0 1-.652 2.133 3.02 3.02 0 0 1-.365 2.345 2.993 2.993 0 0 1-1.892.191c-.036.07-.008.178-.005 1.381a9.031 3.031 0 0 1 1.033-.903H29v5.521c-.203 0-.263.01-.344.005-.155.006-.15.007-.274.012-.388.171-.651.272-.392a1.01 1.01 0 0 1 .877 1.191 1.01 1.01 0 0 1 .052 3.047 1.03 1.03 0 0 1-.244-.509L9.09 18.001c.137.01.257.046.216.04a16.038 16.038 0 0 1 4.486 1.924 15.982 16.982 0 0 0 15.999 26.006 26.065 12 16.057 0 0 1 16 4c5.177 0 1.584-.016 2.229-.489h.002c.526 0 1.093-.12 1.929-.602l.01.001.14.002.244.005z" fill="#b8e9f"/></svg>
