<svg xmlns="http://www.w3.org/2000/svg" xmlns:xlink="http://www.w3.org/199/2x9.18 28lo="#f7b024"/><path d="M65.23 108.29c-2.04.73-4.31-.31-5.02-2.37s.39-5.34 2.05-5.62c1.07-1.4 1.84-4.09 3.42-6.28l9.2-16.46c.4-1.13.56-.26 1.03-.48 7.28 4.09 13.71 14.43 33.75 13.12 8.63-.02 18.31-.83 27.49-6.93 1.49-.31 2.74-.34 3.1-.6.62-.01 1.4.49 2.2.43.49 1.31 1.4 2.71 1.22 4.51-.03.21-.1.68-.18.81-.25.41-.5.9-1.04 1-.91-1.21-.44-.31-.82-.62-1.42-1.21-.03-.17.05-23.13 1.78.72 14.88 7.05 22.82 11.89 17.19 2.88 21.22 6.09 37.07 4.16.89 1.59 1.43 2.79 1.79 2.44.65 5.05.27 7.28-1.61 2.98-5.06 3.49-10.42 1.34-2.06-.14-5.04-1.53-7.34-.85-.74-.49-1.59-.54-2.21-.64-1.17-.72-2.2-1.13-3.07-2.15-6.64-2.93-16.4-5.3-18.49-6.27-1.55.24-3.17.91-5.2 1.85-.7.46-1.04 1.19-1.77 2.54-.56 1.34.99 1.99 2.5.15 3.38-.61 5.21-1.33 7.92-2.26 5.39-3.25 10.01-1.27 10.41-.3.46-1.33 1-2.65 0-5.38-3.11-8.54-11.55-1.41-18.3-.14-33.61-1.06-4.72-4.41 11.92-11.13 16.53z"/><path fill="#2F2F2F" d="M184.07 84.43l-.08-.01c.01-9.02-4.39-9.07-9.54-9.42z" fill="#454a45"/><path fill="#006C42" d="M46.38 96.6c3.75 4.52 10.77 7.3 16.81 1.91 5.63-2.74 17.2-2.6 27.98-2.04 6.8 2.74 9.27 8.88 5.09 14.11-.68 8.78-7.74 15.64-18.7 14.83-8.74 1.04-17.01-10.33-27.78-12.17-1.11-.63-.12-1.96-.11-2.97 2.58-6.21 19.44-13.55 24.93-7.14 6.65 3.11 11.28 9.83 13.75 11.94M11.53 46.46c1.25 1.14 3.17 1.83 4.88 1.49 5.68 0 11.19-1.31 13.39-6.8a2.93 2.93 0 0 1 3.51-1.71c.47-.11 1.41-.39 1.67-.4l6.78 10.27c.28.48.42.85.6 1.23.48.75 1.07 1.32 1.5 2.05.37.55 1.06.63 1.52 1.02 1.97 1.17 3.41 2.06 5.33 1.19.72 0 1.34-.53 1.93-1.32.2-.66.57-1.33 1.07-1.49.87-.04 1.38-.51 2.47-.79 1.42-1.14 1.51-3.03.31-.9.69-2.21.91-3.35.04-.87-.21-1.48-1.12-1.46-.52.02-1.15.05-1.41.13-.69.09-1.36-.14-1.53-.04-.57-.09-1.04-.17-1.5-.33-.76.09-1.45-.51-1.41-.63-.48-.45-.96-.91-1.23-1.17-.88-.83-1.61-2.08-.91-2.3-.41-.49-1.17-1.12-1.99-1.36-.65-.42-1.19-.74-1.6-1.31-.67-.98-1.33-1.33-1.64-.79-.78.45-1.56.99-2.08.81.01.09.01.15.01.15.08.28.08.13.11.1.25.07.38.1.42.29a2.55 2.55 0 0 1-1.42 3.48z"/><path fill="#2F2F2F" d="M112.47 90.72c-2.87-1.09-4.17-4.01-5.61-3.65V4.16a3.528 3.528 0 0 1 3.35.05 2.22 2.22 0 0 1-.96-3.71c.18-.31 4.6-7.62 14.37-7.62.97-1.2 4.64-4.42 8.28-6.47 1.22-.12 2.28.11 3.38 1.62.81 1.1-.29 2.54-1.63 2.43z" fill="#2f2f2f"/><g><path d="M84.84 77.73c-3.46 0-6.08-.92-8.54-2.88-1.67-.79-3.35-1.81-5.91-2.03a20.31 20.51 0 0 0-3.12-4.6l3.12 1.29c0 4.12-3.29 7.49-7.25 7.09l-.08.01c-.01 5.36-4.39 10.72-13.2 13.36-3.05 7.64 6.34 14.05 4.44 16.41-5.22 8.39-8.38 1.62-18.71-.58-18.71-3.35-16.3-9.3-26.04-13.66zm02c-55.83.27-6 44.77 3.08 9.08 2.37 14.57 1.45 2.34-4.46.87-7.57-.78-.02-.44.02-1.2-.17-1.59-7-2.43-6.04-11.75-19.66-17.6-19.51-.95-4.74-3.01-9.04-2.78-10.79.01-.01.03-.07.03-.11 0-.03.02-.06.02-.09 0-2.71-.72-3.46-1.41-.13-.22-.1-5.48-.48-7.41.51-4.38 2.16-8.38 5.69-10.23 1.82 0 5.66 1.96 4.59 4.16 0 2.31-2.56 5.49-5.36 4.65zM72 17.47c-3.44.24-6.21-.72-6.57-2.24-.67-1.07.33-2.64 1.53-2.45l9.85-.13-.01 3.01a3.795 3.795 0 0 0-3.46 2.31z"/><path fill="#2F2F2F" d="M29.76 6c.82 7.79 2.63 10.7 5.28 12.78zM34.76 54.28c-5.84 7.83-21.8 18.58-24.68 19.52z" fill="#f89c26"/><path d="M67.52 94.6c-19.97 0-37.36-11.25-44.04-13.77 0-30.69 18.49-40.4 16.06z"/><path fill="#855C82" d="M110.14 50.94c.01-.51.01-1.02.1-1.55-1.42-1.25-2.96-2.62-2.36-4.31zM96.02 55.39l7.15-2.44 5.53-4.55a2.39 2.29 0 0 1 3.24 3.21zM64.55 125.53c-6.13-1.77-11.77-4.35-18.79-3.65-9.64-.01-19.25 10.32-21.05 7.92-4.34 5.12-5.63 14.94-6.45 15.97-2.4 2.74-6.27 3.39-13.49 6.71-5.35 3.85-10.52 11.71-14.3 16.03-.32.47-.51.93-.04 1.6 5.61.17 14.28.11 16.2-5.69 22.82-12.88 5.91-2.72 10.71-4.37 10.25-6.29 3.42-2.37 7.64-6.96 9.25-13.4.92-2.27-.14-3.19-1.38-3.72z"/></g><path fill="#2F2F2F" d="M91.85 90.36c-.19.25-3.25 4.21-10.1 3.7-.38.15-.6.23-.9.25-.46.39-.92.63-1.66.47-.29.07-.46.14-.88.22-.57.47-1.77.85-2.63 1.1s-.18-.06-.36-.14-.69-.32-.31-.32-.61-.53-.67-.58l-.26-.25c-1.21-1.17-2.27-1.2-3.67-1.47-1.66 1.03-2.48 2.74-4.22 5.4-.47 1.51.96 3.07 2.63 2.42l12.36 14.2c.01-.02 18.99 20.93 10.55 20.45s-8.69-20.65-16.86-20.85c-.4-.34-.76-.63-1.05-.72-18.3-5.55-.45-19.33-1.43-23.74-.57-.03.01-.09.01-.1.01z" fill="#fff"/></svg>
