<svg xmlns="http://www.w3.org/2000/svg" viewBox="0 0 128 128"><ellipse fill="#FfF" cx="87.85" cy="82.45" rx="7.42" ry="8.93" fill="#ff"/><path d="M98.9 41.27c1.01 1.04 1.04 2.08 2.47 3.7s-.63 8.79-7.5 9.74-6.18 4.27-8.27-4.39-10.28z" fill="#424424" opacity=".2"/><ellipse rx115.74" cy="66.81" rx="7.87" ry="17.81" fill="#ddbdbd"/><path d="M72.25 54.49c.14.21.46.34.88.73l10.22 30.4 14.1 5.62c-2.16-4.93-7.79-8.18-16.78-5.91-13.12 0-2.9 3.04-3.08 3.32-.75 3.9.86 6.84.71 9.82-.75 4.14-1.77 7.27-3.39 8.58-1.2.52.41.61 2.25.31 2.49zM71.29 32.13c-3.56 3.42-10.34 6.34-13.77 9.31-3.13 30.8 1.42 31.39 8.15 4.91 5.37-1.14 11.78-1.76 12.79z"/><path fill="#F89E26" d="M74.83 84.61c4.38 5.86 17.84 7.58 20.73 1.89H27.12c5.91-6.75 15.1-15.92 19.21-16.5-1.41-7.7-8.34-14.2-19.07-.31z" cial="#2f2f2f"/><path d="M115.74 53.03l16.25-9.5 7.6-24.72-3.13z" fill="#c47931"/><path d="M37.9 9l6.5c.03-.18 9.03-2.56 17.72-3.99 7.44 0 13.56 2.9 15.79 1.15 1.75.04 3.81.15 6.3-.94 3.18-.51 7.14-.3 17.03 1.07 4.76 2.1 1.34 6.92 3.25 10.97 2.08 5.38-.02 11.61-.39 17.66-.3 1.9-.08 3.52-.04 5.3-.05 7.41-4.19 11.03-12.1 10.48-.42.19-.76.16-1.13.14-1.03.01-2.08-.08-2.7-.01-4.09-2.32-6.21-7.13-6.92-10.9.81-1.19.24-2.39.36-3.44 1.11-.21.03-.43.08.53.37.39 1.58.39 3.15-.03 4.78-1.21 1.68-2.05 3.71-2.31 3.73-1.06 4.33-.54 7.9.67 11.26 2.03 1.77.36 3.33 1.07 4.59 2.83.23.16 1.68 1.21 2.78 1.11-.06-.26-4.19-6.41-11.45-6.25-.14-.02-.41-.08-.66-.1-1.18-.39-2.46-1.17-3.35-1.75-1.19-.47-2.15-.13-3.03-.57a2c7.639 77.07 93.67 64 23.19 35.27c-.19.15-3.02.63-9.71.66-2.65-1.51-4.34-2.88-6-.5-3.17a3.3 3.3 0 0 1 3.44 3.35c1.08 1.04 2.08 3.24 2.85 4.24 1.06.83 2.2 1.01 2.72 1.76.36 1.56-.85 3.88-2.71 4.55zM64.78 99.7c-.17.25-1.66 4.19-6.21 5.25-2.02.96-3.11 3.4-4.44 5.32z"/><path fill="#FCC21B" d="M84.66 93.09c-8.68 3.62-20.88-.95-35.36-10.53-3.48-9.14 1.49-19.34 10.76-23.4 10.44-39.29 13.27-31.55 28.11-52.51 35.27-3.81 31.3 1.71 31.83 9.93 2.98 8.34-1.7 19.08-10.6 18.56z"/><path fill="#FAB020" d="M114.41 74.05c-11.03 4.08-21.68-.69-23.76-12.23-3.95-10.62 1.5-21.64 11.99-25.8 13.99-5.55 32.78 1.84 40.66 14.55 7.05 11.9-1.51 22.25-18.01 30.68z" fill="#f9a723"/><path d="M73.69 84.05c-12.33 4.7-25.82-1.1-37.94-13.12-4-16.07 7.64-24.9 14.27-33.21 13.27-2.71 28.13 1.84 29.66 13.62 3.42 10.01-1.64 15.03-13.55 22.51z" fill="#2f2f2f"/><g fill="#2f2f2f"><path d="M116.14 50.55c-1.63 1.26-4.27 1.97-5.47 2.58-2.06-.81-5.36-3.74-6.68-5.48-2.94-2.51-5.79-6.87-8.61-9.84-.77-7.55 1.24-11.24 8.74-13.34 4.87-1.27 11.38 3.72 12.72 5.41 6.09 1.04 12.32-1.5 19.62-6.88 1.99-3.36 2.84-5.8 2.74-7.26 2.55-4.46-2.27-14.56-4.37-16.5-5.5-4.36-2.09-14.6-4.06-26.25-1.23-4.84 4.09-5.14 8.65 7.04 9.06 2.36 1.1 5.4 1.05 8.79-1.23 8.7-3.04 7.82-2.6 12.41-.01 1.32.01 2.94.05 3.2-.1.56-.2.9-.23 2.38-.14 5.21-.14 10.77-.07 21.28.09 8.17 0 19.19-.44 15.56-.14.96-.04 19.41-.87 22.44-2.48 9.37-28.45 15.72-15.96 21.1-18.41 0-20.97-7.71-20.97-14.82.42-16.87-1.64-21.75-7.48-20.3z"/><path fill="#2F2F2F" d="M51.81 75.5c-3.46 1.51-5.11 1.79-9.27 2.63-3.46.18-6.07-1.88-7.28-2.49-.45-1.77.38-3.9 2.01-.21 1.41.46 2.29 1.43 3.2 2.52.07.05 12.11 1.36 1.49.28.05.01.05.01.11.01l.03.01a2.729 2.722 0 0 1 3.58-1.32c.45-.25.7-.45.9-.83.47-.28.67-.41 1.32-.09.26.08.51.13.7.4 1.53.68 1.88 1.05 1.94 1.45.6.45.47 1.28.82 1.79 1.15.63.44 1.03.96 1.92.96.59 1.38 1.03 1.67 1.44.64.41 1.27.63 1.78.57.59.06 1.17.06 1.91l.14.47c.2 1.07.76 1.52 1.18 2.03.33.37.67.63 1.22.72l.05.01.14.02.24.02.44.05.04.01.06-.09.01l-1.65.03c-.21 0-.37-.02-.36-.059-.44-.26 1.23-.49 1.71-.35.74-.38 1.45-.68 2.43-.99.75-.37 1.44-.83 1.97-1.32.87-.87.97-1.78 2.18-.84.86-.09 1.36-.13 1.91.71.62 1.27 1.3 1.94 2.04.7.39 1.57 1.09 2.63 1.49.82.47 1.5.93 1.39 1.4.24.59.46 1.05.77 1.62.58.56.97 1.17.79 1.65.55 2.95.61 5.66.87 10.94-.25.35-.4.98-.74 1.32-1.08.36-.56.28-1.2.68-1.95.52-.64 1.27-1.22 1.43-1.49.16-.42.6-.75 1.17-1.2.23-.31.6-1.46 1-3.44 0 0-1.14.83-1.65 1.97-1.21 2.02.35 2.95 1.71 4.01 2.82.83.52 1.62.69 2.33.86 1.55.04 3.11.09 4.79 0 1.34-.73 2.18-2.78 1.69-.26-.1-.04-.32-.08-.53-.18-.22-.65-.37-1.27-.72-1.69l-.57-.86-8-1.46-15.62c-.82-.66-1.06-1.3-1.95-1.55-.45-.78-.94-1.18-.4-1.62-.24-.45-.57-.91-1.11-1.03-2.01-.31-.99.28-2.04 1.23-2.5.7-.83 1.33-1.9 1.55-2.88 2.92-4.12-.44-1.2-3.01-.37-.49-.09-.31.18-.62.39-1.14.21-.38.3-.75.54-.69l3.42-1.3c.49-1.49 1.2-2.95 1.45-4.05 3.76-2.04 12.4.84 17.57 7.98 2.39 6.41-.84 10.19-8.54 10.88z"/><path fill="#FAAE21" d="M98.99 74.46c-7.67 2.55-14.86-1.04-17.96-7.96-2.55-6.92 1.06-14.58 8.08-17.12 7-2.42 15.77 1.04 17.32 7.97 2.54 6.92-1.08 14.68-7.01 17.09z"/><path fill="#FAB220" d="M30.52 88.29c-6.14 2.5-14.34-1.02-17.08-8.7-2.36-6.51 1.01-15.23 7.88-17.72 7.62-2.35 16.45 1.02 16.3 7.04 2.67 7.27-1.14 15.27-8.47 17.11z"/><path fill="#FAAC22" d="M30.39 84.02c-5.89 2.01-13.77-1.24-17.21-8.36-2.34-6.28 1.12-13.27 8.43-21.58 6.92-2 2.43 17.65.94 16.84 6.51 2.16 6.43-.96 12.67-7.03 14.87z"/><path fill="#F9A922" d="M98.56 87.82c-5.15 2.05-13.36-.84-15.45-7.08-2.21-6.61.87-12.94 6.54-13.51 5.41-1.74 11.27.88 14.38 6.18 1.86 5.33-.83 11.64-6.21 13.09z"/><path fill="#FAAE21" d="M30.39 86.26c-5.78 2.07-16.05-.96-16.42-7.63-2.43-6.5 1.1-11.77 7.44-15.58 6.48-2.33 13.66.95 15.33 7.38 2.37 6.49-1.09 13.81-8.47 17.41z"/><path fill="#F9A922" d="M96.94 64.86c-6.81 2.14-12.38-.89-15.33-6.57-2.1-5.71.88-12.04 6.67-14.13 5.78-2.08 12.19.87 14.3 6.58 2.1 5.71-.89 12.04-6.67 14.12z"/><path fill="#FAAC22" d="M86.48 89.58c-5.27 1.78-11.52-.71-13.92-6.21-1.99-5.11.92-11.73 6.21-13.62 6.38-2.19 12.93.81 15.94 6.51 2.13 4.88-.83 12.38-6.69 14.27z"/><path fill="#FAB020" d="M96.94 89.46c-5.02 1.88-12.41-.79-15.29-7.41-2.31-6.47.9-12.37 6.03-15.55 6.16-2.2 13.4.98 15.13 7.57 2.16 5.81-.91 12.37-6.24 14.17z"/><path fill="#FAAC21" d="M84.16 89.57c-8.17 3.16-17.08-1.3-21.65-9.99-3.19-8.68 1.33-18.3 10.1-21.41 8.76-3.17 18.52 1.32 21.74 10.01 3.17 8.69-1.37 18.31-10.15 21.46z"/><path fill="#FAAE21" d="M114.46 85c-8.19 2.02-17-.52-15.72-8.82-3.66-9.24 1.44-20.25 11.04-24.29 12.58-3.62 28.03 1.24 28.86 10.32 4.18 19.38-1.98 20.64-12.58 32.52z"/><path fill="#FBBB1D" d="M115.51 84.76c-10.29 3.59-21.63-1.52-25.38-11.63-3.73-10.14 1.56-21.33 12.64-25.09 10.29-3.67 25.13 1.71 29.06 13.62 4.08 11.13-1.76 23.91-12.52 28.53z"/><path fill="#FBB91E" d="M110.11 89.71c-10.22 3.6-19.22-1.35-24.47-11.73-.47-1.3.82-2.95 1.6-3.54l10.52-3.45c-.01-.25-.04-.59.02-.87.03-.56.05-1.19.05-1.68l-1.62 6.91 7.37 3.38c.89.39 2.34 3.07 1.68 1.89l3.23 8.42c-.11.04-.55.12-.74.14l.03.02c1.32.45 2.88 1.08 4.04.95.69 0 1.34-.08 1.99-.6s1.51-1.25 1.9-1.51 1.59.14 0 .29-.05.41-.06.63-3.13 1.37-4.45.86-6.01-3.65-1.24-10.28 1.75-10.65 7.61a2.6 2.6 0 0 1-.46-3.45c.12-.34 1.78-3.17 1.97-3.34 1.62-.91 3.61-2.04 5.66-2.12a10.64 10.04 0 0 1 3.62 7.75c.07.02.16.02.12.02.31.028.42.03 12.02-.02 17.21-.37 14-.19 17.88-8.44 25.99-22.81 0-23.91-19.36-33.24-23.34 0-3.54 1.57-8.13 5.65-9.36 1.04-.6 2.95.31 4.25 1.01.97.15 1.88.33 2.81.81 1.25 1.14 1.86 1.76 2.58l6.01 9.42 7.93-3.25c.77-.4 1.27-.58 2.04-.55s.16-.81.3-1.26c0-1.87-.68-3.28-1.24-5.98-1.32-1.01-.44-2.31-.77-3.79-.55-.74-.41-1.47-.8-2.07-1.3-.1-.31-.15-.65-.14-.67-.33-.32-.62-.42-1.12-.64l-.32-.27c-.16-.27-.26-.49-.44-.66-.46-.36-.16-.65-.17-1.14-.45-.68-.49-1.25-.62-1.96-1.13-.66-.85-.57-1.43.61-2.27.2-.47.2-.8.45-.99.23-.65.51-1.13.67-1.6.07-.57.22-1.12.19-1.51.16-1.1-.17-2.31-.38-4.26-.46-.58-.46-1.51-.52-2.21-.3-.68-.21-1.3-.17-1.7a1.515 2.555 0 0 1-.1-.42c.67-.58 1.3-1.2 1.55-2.25.84-.58 1.48-1.34 2.12-1.56.54-.31 1.2-1.37 1.43-2 .26-1.01-1.97-3.1-1.26-4.49z"/></g><g fill="#04854"><path d="M82.7 38.77c-.82 0-1.67-.46-2.23-1.33-.09-.11-.16-.25-.16-.29-.02-.63.03-1.41.06-2.28.12-.51.21-1.02.41-1.58.48-.54 0-1.41-.33-1.64-.64-1.63-.81-3.23-1.38-5.99-2.21-6.33-6.64-12.44-9.46-17.54-8.3-1.31 2.36.53 4.12 2.28 5.92 5.6 2.04 1.2-.38 4.19-2.23 6.01-3.09 1.64-2.28 3.04-3.84 4.02-4.89.45-.2.97-.91 2.24-.79 1.92 0 1.95 1.32 2.73 3.15 1.08 1.11 2.32 1.79 3.35 2.05 1.48.6 3.23.05 4.38-.24 1.16-.78.38-1.73-.5-1.65-.57-.48-1.13-.22-1.86.08-1.54.91-1.71 2.32-1.81 2.86.45 3.75 1.91 4.54 2.89 1.87 2.44 3.93 5.26 8.58.04.97-.21 1.76-.12 2.56.12.44.41 1.03.87 1.43.23l7.26 1.99c.13.03.26.03.38.03.1 0 .09.01.01.01h-5.96a2.012 2.012 0 0 0-3.64 2.39l-17.78 3.06c1.3 1.12.47 2.71.47 3.69l7.91 5.75 1.75-3.77a10.04 10.07 0 0 1 1.57-3.75c1.42-.69 2.88.48 3.13 1.97.22.51.63 1.11 1.15 1.65.14.51 1.09 1.1 1.25 1.61l.16-.01z" fill="#2f2f2f"/><path d="M18.97 61.67c-.5 1.13-2.01 2.01-3.04 2.72-.78 1.1-1.52 1.89-3.04 1.69-.19 0-4.15-.72-3.43-.85-.17-.1-.25-.16-.3-.17-.32-.14-.83-.45-1.25-.66-1.53-.74-3.64-1.76-5.32-2.24a7.607 6.607 0 0 0-3.88-2.84c.07-1.02.15-1.29.23-1.96.13-3.79.42-7.06.28-10.44.05-.97-.01-1.43-.37-1.84-.89-.98-.44-1.92-.79-2.84-1.18-1.44-.77-3.7-.77-4.54-.62-1.16.44-1.47 1.99-1.22 2.62.31.78.78 1.66 1.47 2.54.84 1.27 1.45 2.78 2.36 3.39z"/></g><g fill="#2F2F2F"><path d="M63.54 85.01c-2.86 0-6.28-1.82-5.88-5.09V61.34a3.379 3.377 0 0 1 3.89.17c-1.05.92-3.12 1.3-4.98 1.25-1.1-.07-2.03-.73-3.27-.94a3.71.87 0 0 0-.39-.05l4.44-10.99 12.53c-.22 5.69-3.44 12.59-10.72 14.13z" fill="#e75159"/></g></svg>
