<svg xmlns="http://www.w3.org/2000/svg" viewBox="0 0 128 128"><path d="M64 47.54s7.72.19 18.71-3.94 15.6-9.79 23.1-12.25c7.5-2.46 14.55-2.57 28.07-2.22s11 1.5 5.16 17.5 5.66c2.74 1.9 5.69 5.03 7.77 6.81 1.67 1.19 3.44 2 3.88 1.89 8.35 2.97 13.76 11.29 29.48 5.53 6.28 10.67 13.54 16.73 18.05 2.21.86 8.27 2.42 18.19 6.53 7.86 13.95 18.75 23.58 18.61 8.39-.08 11.51-7.59 11.97-23.99.06-2.25.07-4.59-.03-7.07-.9-1.36.53-2.83 1.73-2.84 1.87-.11.19.05.31.14.51.13 1.21.63 1.75 1.1 1.53 1.08 3.04 2.33 3.43 5.3.51 8.29 1.99 11.78 5.73 2.32 1.94 6.01 3.21 10.91 3.67 2.34.1 5.69-1.05 8.83-2.71.76-.87 2.44-1.11 3.62-1.08 2.23 2.38 3.74 5.56 5.58 6.76.56 6.67-.49 14.26-5.11 18.66z"/><path fill="#FAAC22" d="M69.31 90.68c6.43 3.43 19.44-2.81 23.42-13.65 19.54-3.58 29.01-3.95 38.03-2.44 14.06 0 14.3 6.1 19.74 10.43.39.56.82.73 1.35.04.21-.08.43-.07.61-.09.43 0 .11.01.21.03.38 0 .75.22 1.2 3.25.6 4.88.17 11.95-1.05 23.65-2.45 5.82-2.55 13.94-2.91 25.46-1.78 37.46-1.03.46.01.95.27 1.48.38.7.28 15.54 7.81 23.68.56.94 1.04.93 2.25-.29 2.98-.51 5.2-1.25 7.87-3.06 1.87-.31 2.66-.37 4.07-.16 3.13-.91 5.86-2.71 7.08-4.32.63-1.04 1.63-2.19 2.27-3.54 8.96-2.54 7.63-10.2 8.55-10.5 4.17-8.03 11.16-10.57 14.23z"/></svg>
