<svg viewBox="0 0 32 32" xmlns="http://www.w3.org/2000/svg" fill-rule="evenodd" clip-rule="evenodd" stroke-linejoin="round" stroke-miterlimit="1.414"><path fill="none" d="M0 0h32v32H0z"/><circle cx="16" cy="16" r="16"/><path d="M12.976 2.328A14.017 14.017 0 0 1 16 2c5.178 0 9.704 2.817 12.125 7.002.787 3.091 1.461 5.819 1.617 9.686C28.549 24.812 23.358 29.515 17 29.965c-2.429-.528-5.812-1.221-7.889-1.777a14.045 14.045 0 0 1-6.49-8.056c.213-3.091 2.481-11.543 2.75-13.24.248-.287.504-.564.772-.83.868-.153 5.658-2.965 6.833-3.734z" fill="#432a7e"/><path d="M9.111 28.188a3.002 3.002 0 1 1 5.72-.181A2.001 2.001 0 0 1 17 29.965a13.933 13.933 0 0 1-7.889-1.777zM5.371 6.892A5.004 5.004 0 0 0 10 10a4.995 4.995 0 0 0 4-2h2.5a3.5 3.5 0 1 0 7 0" fill="#292f33"/><path d="M9 17.049c0-2.664-1.192-6.052-2.827-6.061A36 15 0 0 0 16.992 27H19 17 26s16 12 2" fill="#64218a"/><path d="M16.685 8.04c-.071.096-.045.216-.145.488l.041.18.046c.339.039.857.479 1.182.389.461.467.99.99.93 1.004.002.004.002.003.003.001.004.001.004.001.005.001.005.001.005.003.004.004.004.004.004.005.004.004.004.003.004.002.004.001.001.001.001.001.001.001.001v.042l.001-.04-.001-.041-.003-.04-.003-.04-.005-.039-.006-.039-.008-.039-.009-.038-.01-.038-.012-.038-.014-.036-.015-.037-.016-.035-.018-.035-.02-.034-.02-.033-.022-.032-.024-.031-.024-.031-.026-.029-.027-.028-.028-.027-.029-.026-.031-.024-.031-.024-.032-.022-.033-.02-.034-.02-.035-.018-.035-.016-.037-.015-.036-.014-.038-.012-.038-.01-.038-.009-.039-.008-.039-.006-.039-.004-.04-.003-.039-.001-.04v-.04l.002-.04.004-.039.005-.04.007-.039.008-.039.01-.038.011-.038.013-.038.014-.037.016-.037.017-.035.019-.036.02-.034.021-.034.023-.032.024-.032.025-.031.026-.029.028-.029L21 14.586l2.707 2.707zM13.707 11.292l-.036.001-.045.005-.045.005-.045.009-.045.01-.045.012-.045.013-.045.015-.043.016-.043.018-.042.019-.044.019-.044.012-.043.013-.043.014-.043.014-.042.015-.042.016-.042.016-.041.018-.041.018-.04.02-.04.02-.039.021-.039.022-.039.023-.038.023-.038.024-.038.024-.037.026-.036.025-.037.027-.035.027-.036.027-.034.029-.035.028-.034.03-.033.03-.033.031-.032.031-.032.032-.031.032-.031.033-.03.033-.03.034-.029.035-.028.035-.028.036-.027.036-.027.037-.026.037-.026.038-.025.038-.024.039-.024.04-.023.039-.023.041-.021.041-.024.045.002-.004-.006-.004-.008-.009-.008-.009-.008-.009-.008-.009-.008-.009-.008-.009-.008-.009-.008-.009-.008-.009-.008-.009-.008-.009-.008-.009-.008-.009-.008-.009-.008-.009-.008-.009-.008-.009-.008-.009-.008-.009-.008-.009-.008-.009-.008-.009-.008-.009-.008-.009-.008-.009-.008-.009-.008-.009L2 24.012l.001-.009.004-.008.008-.007.007-.009.008-.007.008-.009.009-.008.009-.008.019-.007.01-.006.009-.006.09-.007.09-.009.082-.01-.081-.011-.091-.013-.091-.015-.091-.015-.091-.015-.091-.012-.092-.01-.092-.008-.094-.006-.093-.004-.095-.004-.094.001-.095.001-.095.004-.094.006-.095.008-.093.01-.093.011-.092.01-.092.01-.092.009-.09.014-.09.014-.09.013-.091.01-.099.01-.091.008-.09.006-.09.004-.0599.002-.06.009-.069.011-.068.014-.067.019-.065.023-.063.027-.062.031-.061.034-.058.039-.056.043-.053.047-.05.83-.835.059-.049.056-.048.054-.048.052-.05.04-.051.04-.052.041-.052.041-.052.047-.054.047-.055.047-.057.049-.059.049-.069.047-.068.045-.067.045-.067.045-.067.045-.067.045-.067.047-.067.049-.064.049-.064.049-.063.049-.062.049-.06.049-.061.047-.062.046-.063.045-.064.045-.064.049-.062.04-.062.04-.062.04-.061.042-.061.044-.061.044-.061.044-.069.044-.069.044-.069.044-.069.044-.069.044-.069.044-.069.044-.069.044-.069.044-.069.044-.069.044-.069.044-.069.044-.069.044-.069.044-.069.044-.069.044-.069.044-.069.044-.069.044-.069.044-.069.044-.069.044-.069.044-.069.044-.069.044-.069.044-.069.044-.069.044-.069.044-.069.044-.069.044-.069.044-.069.044-.069.044-.069.044-.069.044-.069.044-.069.044-.069.044-.069.044-.069.044-.069.044-.069.044-.069.044-.069.044-.069.044-.069.044-.069.044-.069.044-.069.044-.069.044-.069.044-.069.044-.069.044-.069.044-.069.044-.069.044-.069.044-.069.044-.069.044-.069.044-.069.044-.069.044-.069.044-.069.044-.069.044-.069.044-.069.044-.069.044-.069.044-.069.044-.069.044-.069.044-.069.044-.069.044-.069.044-.069.044-.069.044-.069.044-.069.044-.069.044-.069.044-.069.044-.069.044-.069.044-.069.044-.069.044-.069.044-.069.044-.069.044-.069.044-.069.044-.069.044-.069.044-.069.044-.069.044-.069.044-.069.044-.069.044-.069.044-.069.044-.069.044-.069.044-.069.044-.069.044-.069.044-.069.044-.069.044-.069.044-.069.044-.069.044-.069.044-.069.044-.069.044-.069.044-.069.044-.069.044-.069.044-.069.044-.069.044-.069.044-.069.044-.069.044-.069.044-.069.044-.069.044-.069.044-.069.044-.069.044-.069.044-.069.044-.069.044-.069.044-.069.044-.069.044-.069.044-.069.044-.069.044-.069.044-.069.044-.069.044-.069.044-.069.044-.069.044-.069.044-.069.044-.069.044-.069.044-.069.044-.069.044-.069.044-.069.044-.069.044-.069.044-.069.044-.069.044-.069.044-.069.044-.069.044-.069.044-.069.044-.069.044-.069.044-.069.044-.069.044-.069.044-.069.044-.069.044-.069.044-.069.044-.069.044-.069.044-.069.044-.069.044-.069.044-.069.044-.069.044-.069.044-.069.044-.069.044-.069.044-.069.044-.069.044-.069.044-.069.044-.069.044-.069.044-.069.044-.069.044-.069.044-.069.044-.069.044-.069.044-.069.044-.069.044-.069.044-.069.044-.069.044-.069.044-.069.044-.069.044-.069.044-.069.044-.069.044-.069.044-.069.044-.069.044-.069.044-.069.044-.069.044-.069.044-.069.044-.069.044-.069.044-.069.044-.069.044-.069.044-.069.044-.069.044-.069.044-.069.044-.069.044-.069.044-.069.044-.069.044-.069.044-.069.044-.069.044-.069.044-.069.044-.069.044-.069.044-.069.044-.069.044-.069.044-.069.044-.069.044-.069.044-.069.044-.069.044-.069.044-.069.044-.069.044-.069.044-.069.044-.069.044-.069.044-.069.044-.069.044-.069.044-.069.044-.069.044-.069.044-.069.044-.069.044-.069.044-.069.044-.069.044-.069.044-.069.044-.069.044-.069.044-.069.044-.069.044-.069.044-.069.044-.069.044-.069.044-.069.044-.069.044-.069.044-.069.044-.069.044-.069.044-.069.044-.069.044-.069.044-.069.044-.069.044-.069.044-.069.044-.069.043-.069.044-.069.044-.069.045-.067.045-.067.045-.067.053-.067.051-.069.052-.069.042-.069.042-.069.044-.069.045-.067.045-.067.046-.069.048-.069.049-.061.04-.062.041-.061.043-.061.044-.06.046-.061.047-.061.049-.061.049-.062.047-.062.047-.061.047-.062.047-.062.047-.061.048-.062.047-.062.048-.062.049-.062.047-.062.048-.061.049-.062.049-.061.049-.06.047-.06.047-.05.047-.05.047-.05.047-.05.047-.051.046-.053.045-.056.045-.057.047-.058.036-.069.03-.069.038-.068.039-.068.039-.068.041-.067.042-.067.045-.065.046-.063.048-.062.049-.061.049-.061.047-.06.047-.061.047-.062.047-.062.047-.062.047-.061.047-.06.047-.061.047-.061.048-.062.049-.062.049-.062.049-.06.049-.06.047-.06.049-.061.047-.062.047-.061.046-.061.046-.061.047-.062.049-.06.049-.061.047-.062.047-.061.047-.061.047-.062.047-.061.047-.06.049-.061.047-.062.047-.061.046-.062.046-.063.047-.063.047-.062.047-.061.048-.062.049-.062.049-.062.047-.064.046-.064.046-.064.047-.063.049-.061.049-.06.05-.06.052-.061.052-.06.052-.069.047-.069.048-.069.049-.067.05-.068.051-.066.052-.067.055-.065.056-.064.056-.064.056-.064.058-.062.058-.062.058-.062.058-.052.065-.051.065-.053.065-.054.064-.055.061-.059.06-.058.062-.058.063-.058.063-.056.064-.056.064-.055.065-.054.065-.053.067-.052.066-.051.068-.051.068-.049.068-.049.069-.048.069-.047.07-.046.071-.045.071-.045.072-.043.072-.042.072-.042.073-.041.074-.04.074-.041.074-.039.075-.038.076-.037.077-.037.077-.037.077-.038.076-.038.074-.039.074-.039.074-.038.075-.038.075-.036.076-.035.076-.034.077-.034.077-.032.077-.031.078-.031.078-.03.078-.028.079-.028.079-.027.08-.025.079-.025.08-.024.081-.023.081-.022.081-.021.081-.019.082-.019.081-.018.083-.017.082-.016.082-.015.083-.014.083-.013.084-.012.083-.011.084-.01.084-.009.084-.007.084-.007.084-.005.085-.005.085-.003.085-.003.085-.001.085-.001.085-.003.085-.003.085-.004.086-.003.088-.001.088-.001h-.1l.001-.101z"/><path d="M12.767 18.001l.087.003.088.004.088.004.088.002.088.001.088.002.088v.048l.002-.088.014-.087.017-.087.027-.086.025-.087.023-.087.009-.089.006-.089.004-.081-.003-.081-.002-.079-.004-.078-.007-.077-.009-.076-.008-.076-.008-.076-.009-.076-.009-.075-.01-.074-.01-.085-.012-.084-.012-.085-.012-.063-.015-.064-.019-.062-.016-.062-.024-.06-.027-.058-.025-.058-.022-.058-.01-.059-.009-.058-.008-.059-.008-.059-.007-.059-.006-.06-.005-.059-.005-.06-.004-.06-.004-.06-.003-.06-.001-.06-.002H15.361l-.06.002-.06.001-.06.003-.06.003-.06.004-.059.005-.06.006-.059.006-.059.007-.059.008-.059.008-.059.009-.059.01-.058.011-.058.011-.059.012-.057.013-.058.013-.058.014-.057.015-.057.016-.057.016-.057.017-.056.017-.057.019-.056.018-.056.02-.055.02-.055.021-.055.022-.055.022-.054.023-.055.024-.053.025-.053.025-.053.026-.053.027-.052.028-.052.028-.052.031-.052.031-.05.03-.051.029-.051.029-.05.03-.059.033-.067.037-.065.037-.065.039-.063.042-.062.045-.062.045-.062.045-.063.043-.063.042-.063.04-.064.039-.065.037-.066.035-.066.034-.066.031-.067.031-.068.028-.068.027-.068.025-.068.025-.069.024-.069.023-.07.021-.071.021-.071.019-.071.019-.071.019-.071.019-.072.019-.074.02-.075.021-.075.022-.074.023-.074.022-.073.024-.073.024-.072.026-.071.026-.072.028-.07.027-.071.029-.07.03-.07.03-.069.031-.069.033-.069.032-.068.034-.068.035-.068.035-.068.037-.067.037-.066.037-.067.038-.066.039-.066.039-.065.04-.063.045-.063.047-.061.047-.06.047-.06.049-.061.047-.062.048-.062.047-.062.048-.061.048-.062.049-.061.048-.061.047-.062.047-.061.047-.062.049-.062.048-.062.049-.061.049-.06.047-.06.049-.059.049-.059.05-.058.05-.058.052-.057.052-.056.053-.056.054-.057.056-.865.556-.059.047-.056.047-.056.047-.056.047-.057.047-.757.047-.05.05-.05.051-.059.05-.059.052-.058.052-.058.052-.058.053-.057.052-.056.053-.056.054-.057.054-.864.078-.066.072-.069.07-.071.07-.073.071-.073.07-.073.069-.075.068-.075.065-.076.063-.078.061-.079.061-.081.061-.083.061-.083.059-.082.059-.083.058-.084.058-.084.056-.083.054-.085.053-.087.051-.087.049-.088.048-.089.047-.881.181-.05.126-.054.126-.055.136-.052.138-.051.148-.062.147-.06.149-.059.141-.056.141-.053.142-.035.141-.034.142-.034.138-.029.141.031.141.034.114.04.116.038.116.037.117.034.118.031.118.022.128.019.118.021.118.025.117.025.117.025.117.025.117.025.117.025.117.025.117.025.116.023.116.023.116.02.116.019.115.021.119.025.119.019.118.021.118.023.118.019.117.021.118.023.118.019.11.019.111.022.111.023.111.022.119.031.118.031.119.034.11.034.112.038.111.039.111.04.102.048.002.059.006h.059.007.059.008.059.009.058.011.058.011.058.014.057.015.057.016.057.017.057.019.056.021.055.021.055.022.056.023.056.024.057.023.059.02.059.016.06.019.059.02.057.015.058.014.058.014.058.014.058.014.058.014.058.014.058.014.058.014.058.014.058.014.058.014.058.014.058.014.057.015.057.015.056.019.056.02.055.02.055.02.055.021.055.022.055.022.055.022.055.022.055.021.055.021.055.021.055.021.055.021.055.021.055.024.055.023.056.022.056.023.057.022.057.021.059.02.059.016.06.01h.062.009.062.008.062.009.062.011.061.011.06.011.061.014.06.019.059.016.058.017.057.019.056.021.056.022.055.023.055.025.054.026.055.027.054.028.054.028.063.03.063.033.061.032.05.032.058.035.057.037.054.047.053.048.052.049.053.049.054.049.055.047.056.047.057.046.057.045.058.044.059.043.059.042.059.042.059.041.06.041.06.04.06.038.061.038.062.037.062.037.062.037.063.037.063.037.064.037.063.036.062.038.062.038.061.039.06.041.059.042.058.042.057.044.057.045.056.045.055.047.055.047.055.049.053.049.052.05.052.05.051.052.051.053.049.053.049.054.049.055.047.056.047.057.047.057.047.057.047.057.047.057.047.057.047.057.047.057.047.057.047.057.047.057.047.057.047.057.047.057.047.057.047.057.047.057.047.057.047.057.049.056.049.055.049.055.047.056.047.057.046.057.045.058.043.059.042.059.042.059.042.06.041.061.037.061.038.062.037.062.037.061.035.061.035.063.035.062.037.063.037.062.036.062.035.062.035.063.038.062.037.062.038.062.038.061.039.06.04.06.039.06.037.061.037.062.035.064.035.064.031.065.031.064.031.063.031.063.03.063.029.066.028.067.018.067.018.068.016.067.01.067.003h.066l.164.013.093.009.092.017.094.015.094.012.095.011.094.01.092.017.193.085.1.834.019.082.016.083.016.083.014.082.015.083.014.082.016.083.017.081.018.082.019.081.02.081.021.081.022.081.022.08.024.08.025.08.026.079.025.079.025.079.027.079.028.078.028.078.03.078.031.077.031.077.032.077.034.076.034.076.035.075.036.075.037.074.038.074.038.074.04.073.041.072.042.072.042.072.043.071.045.071.045.07.046.069.048.069.048.068.049.068.049.068.051.066.051.067.052.065.053.065.054.064.055.064.055.063.057.063.057.061.058.062.059.05.058.05.059.052.057.052.058.052.058.05.059.058.058.058.058.058.057.057.056.058.054.057.053.056.053.056.054.057.056.056.057.056.057.054.058.053.058.052.058.052.058.053.058.052.058.053.057.052.058.052.058.052.058.051.059.049.06.047.061.047.061.046.061.044.062.042.062.04.062.04.064.039.064.037.065.035.065.035.065.033.065.032.067.031.067.028.068.027.068.024.079.023.08.021.08.02.079.01.071.01.07.008.07.007.07.006.07.006.072.005.072.003.072.002.072.001.072-.001.072-.002.072-.005.072-.006.072-.007.071-.01.072-.011.071-.013.071-.015.07-.016.07-.018.07-.02.069-.021.069-.023.069-.025.067-.027.068-.028.066-.03.066-.031.066-.034.065-.035.064-.037.063-.038.063-.04.062-.042.061-.044.06-.046.06-.047.058-.049.058-.051.056-.052.061-.059 1.167-1.167.031-.039.032-.036.032-.036.033-.038.031-.04.03-.04.028-.04.027-.041.026-.042.024-.042.022-.044.021-.045.018-.045.016-.047.015-.046.012-.048.01-.047.007-.049.005-.048.003-.048.001-.048-.002-.049-.004-.047-.006-.048-.009-.047-.011-.047-.013-.045-.016-.045-.017-.044-.02-.043-.022-.042-.024-.041-.026-.04-.028-.038-.03-.036-.032-.035-.033-1.59-1.59-.035-.035-.035-.036-.033-.04-.031-.04-.038-.042-.035-.044-.032-.045-.89-1.239-.022-.039-.026-.039-.026-.04-.027-.036-.029-.035-.029-.035-.032-.034-.032-.033-.035-.032-.035-.031-.035-.03-.035-.03-.035-.029-.034-.029-.035-.028-.034-.027-.034-.027-.034-.025-.034-.024-.035-.023-.035-.022-.035-.022-.036-.022-.036-.02-.037-.018-.038-.019-.038-.019-.038-.02-.038-.022-.037-.024-.035-.025-.034-.026-.032-.028-.032-.029-.031-.03-.029-.03-.028-.03-.028-.031-.028-.03-.028-.032-.029-.03-.028-.031-.028-.032-.027-.032-.027-.033-.026-.032-.026-.034-.026-.033-.024-.034-.026-.032-.027-.032-.027-.03-.029-.03-.03-.029-.031-.028-.032-.027-.032-.027-.032-.026-.032-.026-.034-.024-.035-.023-.035-.022-.035-.021-.035-.02-.036-.018-.036-.017-.036-.016-.037-.015-.038-.014-.038-.012-.038-.01-.038-.009-.039-.008-.039-.006-.039-.004-.04-.003-.039-.001-.04v-.04l.002-.04.004-.039.005-.04.007-.039.008-.039.01-.038.011-.038.013-.038.014-.037.016-.037.017-.035.019-.036.02-.034.021-.034.023-.032.024-.032.025-.031.026-.029.028-.029L21 11.586l2.707 2.707zM13.707 14.293l.028.029.026.029.025.031.024.032.023.032.021.034.02.034.019.036.017.035.016.037.014.037.013.038.011.038.01.038.008.039.007.039.005.04.004.039.002.04v.04l-.001.04-.003.039-.004.04-.006.039-.008.039-.009.039-.01.038-.012.038-.014.038-.015.036-.016.037-.018.035-.02.035-.02.034-.022.033-.024.032-.024.031-.026.031-.027.029-.028.028-.029.027-.031.026-.031.024-.032.024-.033.022-.034.02-.035.02-.035.018-.037.016-.036.015-.038.014-.038.012-.038.01-.039.009-.039.008-.039.006-.04.004-.039.003-.04.001h-.04l-.04-.002-.039-.004-.04-.005-.039-.007-.039-.008-.038-.01-.038-.011-.038-.013-.037-.014-.037-.016-.035-.017-.036-.019-.034-.02-.034-.021-.032-.023-.032-.024-.031-.025-.029-.026-.029-.028L21 14.414l-1.293 1.293-.029.028-.029.026-.031.025-.032.024-.032.023-.034.021-.034.02-.036.019-.035.017-.037.016-.037.014-.038.013-.038.011-.038.01-.039.008-.039.007-.039.006-.04.004-.04.002-.039.001-.044.002-.04v.035l-.001.037-.002.039-.003.04-.005.039-.006.039-.008.039-.009.038-.011.038-.013.038-.014.037-.015.037-.017.036-.018.035-.02.035-.02.034-.022.033-.024.032-.024.031-.026.031-.027.029-.028.028-.029.027-.031.026-.031.024-.032.024-.033.022-.034.02-.035.02-.035.018-.037.016-.036.015-.038.014-.038.012-.038.01-.039.009-.039.008-.039.006-.04.004-.039.003-.04.001h-.04l-.04-.002-.039-.004-.04-.005-.039-.007-.039-.008-.038-.01-.038-.011-.038-.013-.037-.014-.037-.016-.035-.017-.036-.019-.034-.02-.034-.021-.032-.023-.032-.024-.031-.025-.029-.026-.029-.028L21 15.414l-1.293 1.293-.029.028-.029.026-.031.025-.032.024-.032.023-.034.021-.034.02-.036.019-.035.017-.037.016-.037.014-.038.013-.038.011-.038.01-.039.008-.039.007-.04.005-.039.004-.04.002h-.04l-.04-.001-.039-.003-.04-.004-.039-.006-.039-.008-.039-.009-.038-.01-.038-.012-.038-.014-.036-.015-.037-.016-.035-.018-.035-.02-.034-.02-.033-.022-.032-.024-.031-.024-.031-.026-.029-.027-.028-.028-.027-.029-.026-.031-.024-.031-.024-.032-.022-.033-.02-.034-.02-.035-.018-.035-.016-.037-.015-.036-.014-.038-.012-.038-.01-.038-.009-.039-.008-.039-.006-.039-.004-.04-.003-.039-.001-.04v-.04l.002-.04.004-.039.005-.04.007-.039.008-.039.01-.038.011-.038.013-.038.014-.037.016-.037.017-.035.019-.036.02-.034.021-.034.023-.032.024-.032.025-.031.026-.029.028-.029L21 11.586l2.707 2.707zM13.707 14.293l.028.029.026.029.025.031.024.032.023.032.021.034.02.034.019.036.017.035.016.037.014.037.013.038.011.038.01.038.008.039.007.039.005.04.004.039.002.04v.04l-.001.04-.003.039-.004.04-.006.039-.008.039-.009.039-.01.038-.012.038-.014.038-.015.036-.016.037-.018.035-.02.035-.02.034-.022.033-.024.032-.024.031-.026.031-.027.029-.028.028-.029.027-.031.026-.031.024-.032.024-.033.022-.034.02-.035.02-.035.018-.037.016-.036.015-.038.014-.038.012-.038.01-.039.009-.039.008-.039.006-.04.004-.039.003-.04.001h-.04l-.04-.002-.039-.004-.04-.005-.039-.007-.039-.008-.038-.01-.038-.011-.038-.013-.037-.014-.037-.016-.035-.017-.036-.019-.034-.02-.034-.021-.032-.023-.032-.024-.031-.025-.029-.026-.029-.028L21 15.414l-1.293 1.293-.029.028-.029.026-.031.025-.032.024-.032.023-.034.021-.034.02-.036.019-.035.017-.037.016-.037.014-.038.013-.038.011-.038.01-.039.008-.039.007-.04.005-.039.004-.04.002h-.04l-.04-.001-.039-.003-.04-.004-.039-.006-.039-.008-.039-.009-.038-.01-.038-.012-.038-.014-.036-.015-.037-.016-.035-.018-.035-.02-.034-.02-.033-.022-.032-.024-.031-.024-.031-.026-.029-.027-.028-.028-.027-.029-.026-.031-.024-.031-.024-.032-.022-.033-.02-.034-.02-.035-.018-.035-.016-.037-.015-.036-.014-.038-.012-.038-.01-.038-.009-.039-.008-.039-.006-.039-.004-.04-.003-.039-.001-.04v-.04l.002-.04.004-.039.005-.04.007-.039.008-.039.01-.038.011-.038.013-.038.014-.037.016-.037.017-.035.019-.036.02-.034.021-.034.023-.032.024-.032.025-.031.026-.029.028-.029L11 11.586l2.707 2.707zM13.707 14.293l.028.029.026.029.025.031.024.032.023.032.021.034.02.034.019.036.017.035.016.037.014.037.013.038.011.038.01.038.008.039.007.039.005.04.004.039.002.04v.04l-.001.04-.003.039-.004.04-.006.039-.008.039-.009.039-.01.038-.012.038-.014.038-.015.036-.016.037-.018.035-.02.035-.02.034-.022.033-.024.032-.024.031-.026.031-.027.029-.028.028-.029.027-.031.026-.031.024-.032.024-.033.022-.034.02-.035.02-.035.018-.037.016-.036.015-.038.014-.038.012-.038.01-.039.009-.039.008-.039.006-.04.004-.039.003-.04.001h-.04l-.04-.002-.039-.004-.04-.005-.039-.007-.039-.008-.038-.01-.038-.011-.038-.013-.037-.014-.037-.016-.035-.017-.036-.019-.034-.02-.034-.021-.032-.023-.032-.024-.031-.025-.029-.026-.029-.028L21 14.414l-1.293 1.293-.029.028-.029.026-.031.025-.032.024-.032.023-.034.021-.034.02-.036.019-.035.017-.037.016-.037.014-.038.013-.038.011-.038.01-.039.008-.039.007-.04.005-.039.004-.04.002h-.04l-.04-.001-.039-.003-.04-.004-.039-.006-.039-.008-.039-.009-.038-.01-.038-.012-.038-.014-.036-.015-.037-.016-.035-.018-.035-.02-.034-.02-.033-.022-.032-.024-.031-.024-.031-.026-.029-.027-.028-.028-.027-.029-.026-.031-.024-.031-.024-.032-.022-.033-.02-.034-.02-.035-.018-.035-.016-.037-.015-.036-.014-.038-.012-.038-.01-.038-.009-.039-.008-.039-.006-.039-.004-.04-.003-.039-.001-.04v-.04l.002-.04.004-.039.005-.04.007-.039.008-.039.01-.038.011-.038.013-.038.014-.037.016-.037.017-.035.019-.036.02-.034.021-.034.023-.032.024-.032.025-.031.026-.029.028-.029L21 11.586l2.707 2.707zM13.707 14.293l.028.029.026.029.025.031.024.032.023.032.021.034.02.034.019.036.017.035.016.037.014.037.013.038.011.038.01.038.008.039.007.039.005.04.004.039.002.04v.04l-.001.04-.003.039-.004.04-.006.039-.008.039-.009.039-.01.038-.012.038-.014.038-.015.036-.016.037-.018.035-.02.035-.02.034-.022.033-.024.032-.024.031-.026.031-.027.029-.028.028-.029.027-.031.026-.031.024-.032.024-.033.022-.034.02-.035.02-.035.018-.037.016-.036.015-.038.014-.038.012-.038.01-.039.009-.039.008-.039.006-.04.004-.039.003-.04.001h-.04l-.04-.002-.039-.004-.04-.005-.039-.007-.039-.008-.038-.01-.038-.011-.038-.013-.037-.014-.037-.016-.035-.017-.036-.019-.034-.02-.034-.021-.032-.023-.032-.024-.031-.025-.029-.026-.029-.028L21 14.414l-1.293 1.293-.029.028-.029.026-.031.025-.032.024-.032.023-.034.021-.034.02-.036.019-.035.017-.037.016-.037.014-.038.013-.038.011-.038.01-.039.008-.039.007-.04.005-.039.004-.04.002h-.04l-.04-.001-.039-.003-.04-.004-.04-.006-.039-.008-.039-.009-.038-.01-.038-.012-.038-.014-.036-.015-.037-.016-.035-.018-.035-.02-.034-.021-.033-.022-.032-.023-.031-.025-.03-.026-.029-.027-.027-.029-.026-.029-.025-.031-.024-.032-.023-.032-.021-.034-.02-.034-.019-.036-.017-.035-.016-.037-.014-.037-.013-.038-.011-.038-.01-.038-.008-.039-.007-.039-.005-.04-.004-.039-.002-.04v-.04l.002-.035.003-.034.004-.034.005-.034.007-.034.007-.034.009-.033.009-.034.011-.032.012-.033.013-.032.014-.031.016-.031.016-.03.017-.03.019-.03.019-.028.02-.028.022-.027.022-.027.023-.025.024-.025 3-3 .025-.024.025-.023.027-.022.027-.022.028-.02.028-.019.03-.019.03-.017.03-.016.031-.017.03-.014.032-.014.031-.012.033-.011.033-.011.033-.009.034-.008.034-.007.034-.005.034-.005.035-.004.034-.003.035-.001h.034l.035.001zM12.023 12l.034.002zM23.605 14.001l.038.003.04.004.039.006.039.008.039.009.038.01.038.012.038.014.036.015.037.016.035.018.035.02.034.02.033.022.032.024.031.024.031.026.029.027.028.028.027.029.026.031.024.031.024.032.022.033.02.034.02.035.018.035.016.037.015.036.014.038.012.038.01.038.009.039.008.039.006.039.004.04.003.039.001.04v.04l-.002.04-.004.039-.005.04-.007.039-.008.039-.01.038-.011.038-.013.038-.014.037-.016.037-.017.035-.019.036-.02.034-.021.034-.023.032-.024.032-.025.031-.026.029-.028.029L20.414 15H22l.04.001.039.002.04.004.039.006.04.007.038.008.039.01.038.012.037.013.037.015.037.016.035.018.035.019.034.02.034.022.032.023.032.024.03.025.03.027.028.028.027.029.026.03.025.031.024.032.022.033.021.034.02.034.018.036.017.036.015.036.014.037.012.038.011.038.009.039.008.039.006.039.004.039.003.04.002.04v.04l-.002.04-.004.039-.005.04-.007.039-.008.039-.01.038-.011.038-.013.038-.014.037-.016.037-.017.035-.019.036-.02.034-.021.034-.023.032-.024.032-.025.031-.026.029-.028.029-1.856 1.856 1.465.488.038.014.037.014.036.017.036.017.034.019.034.021.034.022.032.023.032.024.03.026.029.027.029.028.027.029.026.03.025.031.023.032.022.033.021.034.02.034.018.036.017.036.015.036.014.038.012.038.011.038.009.039.008.039.006.039.004.039.003.04.002.04v.039l-.002.04-.003.04-.005.039-.007.04-.008.039-.009.038-.011.038-.013.038-.014.037-.015.037-.017.036-.019.035-.02.035-.021.033-.022.033-.024.032-.025.031-.026.03-.027.029-.029.027-.03.027-.03.025-.032.024-.032.023-.034.021-.034.02-.036.019-.035.017-.037.016-.037.014-.038.013-.038.011-.038.01-.039.008-.039.007-.04.005-.039.004-.04.002h-.04l-.04-.001-.039-.003-.04-.004-.039-.006-.039-.008-.039-.009-.038-.01-.038-.012-.038-.014-.036-.015-.037-.016-.035-.018-.035-.02-.034-.02-.033-.022-.032-.024-.031-.024-.031-.026-.029-.027-.028-.028-.027-.029-.026-.031-.024-.031-.024-.032-.022-.033-.02-.034-.02-.035-.018-.035-.016-.037-.015-.036-.014-.038-.012-.038-.01-.038-.009-.039-.008-.039-.006-.039-.004-.04-.003-.039-.001-.04v-.04l.002-.04.004-.039.005-.04.007-.039.008-.039.01-.038.011-.038.013-.038.014-.037.016-.037.017-.035.019-.036.02-.034.021-.034.023-.032.024-.032.025-.031.026-.029.028-.029L21 11.586l2.707 2.707zM13.707 14.293l.028.029.026.029.025.031.024.032.023.032.021.034.02.034.019.036.017.035.016.037.014.037.013.038.011.038.01.038.008.039.007.039.005.04.004.039.002.04v.04l-.001.04-.003.039-.004.04-.006.039-.008.039-.009.039-.01.038-.012.038-.014.038-.015.036-.016.037-.018.035-.02.035-.02.034-.022.033-.024.032-.024.031-.026.031-.027.029-.028.028-.029.027-.031.026-.031.024-.032.024-.033.022-.034.02-.035.02-.035.018-.037.016-.036.015-.038.014-.038.012-.038.01-.039.009-.039.008-.039.006-.04.004-.039.003-.04.001h-.04l-.04-.002-.039-.004-.04-.005-.039-.007-.039-.008-.038-.01-.038-.011-.038-.013-.037-.014-.037-.016-.035-.017-.036-.019-.034-.02-.034-.021-.032-.023-.032-.024-.031-.025-.029-.026-.029-.028L11 15.414l-1.293 1.293-.029.028-.029.026-.031.025-.032.024-.032.023-.034.021-.034.02-.036.019-.035.017-.037.016-.037.014-.038.013-.038.011-.038.01-.039.008-.039.007-.04.005-.039.004-.04.002h-.04l-.04-.001-.039-.003-.04-.004-.039-.006-.039-.008-.039-.009-.038-.01-.038-.012-.038-.014-.036-.015-.037-.016-.035-.018-.035-.02-.034-.02-.033-.022-.032-.024-.031-.024-.031-.026-.029-.027-.028-.028-.027-.029-.026-.031-.024-.031-.024-.032-.022-.033-.02-.034-.02-.035-.018-.035-.016-.037-.015-.036-.014-.038-.012-.038-.01-.038-.009-.039-.008-.039-.006-.039-.004-.04-.003-.039-.001-.04v-.04l.002-.04.004-.039.005-.04.007-.039.008-.039.01-.038.011-.038.013-.038.014-.037.016-.037.017-.035.019-.036.02-.034.021-.034.023-.032.024-.032.025-.031.026-.029.028-.029L21 11.586l2.707 2.707zM13.707 14.293l.028.029.026.029.025.031.024.032.023.032.021.034.02.034.019.036.017.035.016.037.014.037.013.038.011.038.01.038.008.039.007.039.005.04.004.039.002.04v.04l-.001.04-.003.039-.004.04-.006.039-.008.039-.009.039-.01.038-.012.038-.014.038-.015.036-.016.037-.018.035-.02.035-.02.034-.022.033-.024.032-.024.031-.026.031-.027.029-.028.028-.029.027-.031.026-.031.024-.032.024-.033.022-.034.02-.035.02-.035.018-.037.016-.036.015-.038.014-.038.012-.038.01-.039.009-.039.008-.039.006-.04.004-.039.003-.04.001h-.04l-.04-.002-.039-.004-.04-.005-.039-.007-.039-.008-.038-.01-.038-.011-.038-.013-.037-.014-.037-.016-.035-.017-.036-.019-.034-.02-.034-.021-.032-.023-.032-.024-.031-.025-.029-.026-.029-.028L21 15.414l-1.293 1.293-.029.028-.029.026-.031.025-.032.024-.032.023-.034.021-.034.02-.036.019-.035.017-.037.016-.037.014-3-.035-.043-.032-.041-.031-.04-.03-.041-.028-.044-.025-.044-.025-.046-.025-.045-.026-.047-.027-.047-.027-.047-.027-.047-.027-.047-.025-.048-.023-.048-.021-.049-.02-.049-.027-.05-.025-.041-.023-.043-.021-.044-.019-.045-.016-.047-.015-.046-.012-.046-.01-.048-.007-.047-.005-.049-.003-.048-.001-.048.002-.048.004-.049.006-.047.009-.048.011-.047.013-.047.016-.045.017-.045.02-.044.022-.043.024-.042.026-.041.028-.04.03-.038.032-.036.033-.035 1.581-1.591.023-.024.018-.019.017-.019.016-.02.016-.02.015-.02.015-.02.014-.021.013-.02.013-.021.012-.022.011-.022.01-.022.01-.022.009-.022.009-.023.008-.022.008-.023.007-.024.007-.023.006-.023.005-.024.005-.023.004-.024.004-.024.003-.024.003-.024.002-.024.001-.024.001-.024.001-.024-.001-.024-.001-.024-.001-.024-.001-.024-.002-.024-.003-.024-.003-.024-.004-.024-.004-.024-.005-.023-.005-.024-.006-.023-.007-.022-.008-.024-.008-.022-.009-.023-.009-.022-.01-.022-.01-.022-.012-.022-.011-.022-.011-.022-.011-.022-.011-.022-.011-.022-.011-.022-.011-.022-.011-.022-.011-.022-.011-.022-.011-.022-.011-.022-.011-.022-.011-.022-.011-.022-.011-.022-.011-.022-.011-.022-.011-.022-.011-.022-.011-.022-.011-.022-.011-.022-.011-.022-.011-.022-.011-.022-.011-.022-.011-.022-.011-.022-.011-.022-.011-.022-.011-.022-.011-.022-.011-.022-.011-.022-.011-.022-.011-.022-.011-.022-.011-.022-.011-.022-.011-.022-.011-.022-.011-.022-.011-.022-.011-.022-.011-.022-.011-.022-.011-.022-.011-.022-.011-.022-.011-.022-.011-.022-.011-.022-.011-.022-.011-.022-.011-.022-.011-.022-.011-.022-.011-.022-.011-.022-.011-.022-.011-.022-.011-.022-.011-.022-.011-.022-.011-.022-.011-.022-.011-.022-.011-.022-.011-.022-.011-.022-.011-.022-.011-.022-.011-.022-.011-.022-.01-.022-.01-.022-.009-.022-.009-.023-.008-.022-.008-.023-.007-.024-.007-.023-.006-.024-.005-.023-.005-.024-.004-.024-.004-.024-.005-.024-.005-.023-.006-.024-.007-.022-.007-.022-.008-.02-.019-.019-.019-.02-.021-.021-.022-.022-.022-.022-.023-.022-.024-.021-.026-.021-.026-.02-.028-.02-.028-.019-.029-.018-.03-.016-.03-.016-.03-.015-.031-.014-.031-.012-.032-.011-.033-.011-.033-.009-.033-.008-.034-.007-.034-.005-.034-.005-.034-.003-.034-.002-.039L8 15.01v-.04l.002-.04.004-.039.005-.04.007-.039.008-.039.01-.038.011-.038.013-.038.014-.037.016-.037.017-.035.019-.036.02-.034.021-.034.023-.032.024-.032.025-.031.026-.029.028-.029L21 11.586l2.707 2.707zM13.707 14.293l.028.029.026.029.025.031.024.032.023.032.021.034.02.034.019.036.017.035.016.037.014.037.013.038.011.038.01.038.008.039.007.039.005.04.004.039.002.04v.04l-.001.04-.004.039-.005.04-.007.039-.008.039-.01.038-.011.038-.013.037-.014.037-.016.037-.017.036-.019.035-.02.034-.021.034-.023.032-.024.032-.025.031-.026.029-.028.029-1.856 1.856 1.465.488.038.014.037.014.036.017.036.017.034.019.034.021.034.022.032.023.032.024.03.026.029.027.029.028.027.029.026.03.025.031.023.032.022.033.021.034.02.034.018.036.017.036.015.036.014.038.012.038.011.038.009.039.008.039.006.039.004.039.003.04.002.04v.039l-.002.04-.003.04-.005.039-.007.04-.008.039-.01.038-.011.038-.013.038-.014.037-.016.037-.017.035-.019.036-.02.034-.021.034-.023.032-.024.032-.025.031-.026.029-.028.029-1.856 1.856 1.465.488.038.014.037.014.036.017.036.017.034.019.034.021.034.022.032.023.032.024.03.026.029.027.029.028.027.029.026.03.025.031.023.032.022.033.021.034.02.034.018.036.017.036.015.036.014.038.012.038.011.038.009.039.008.039.006.039.004.039.003.04.002.04v.049l-.002.048-.003.047-.004.04-.007.04-.008.039-.009.038-.011.038-.013.037-.014.038-.016.036-.017.036-.019.035-.02.035-.021.033-.022.033-.024.032-.025.031-.026.03-.027.029-.029.027-.03.027-.03.025-.032.024-.032.023-.034.021-.034.02-.036.019-.035.017-.037.016-.037.014-.038.013-.038.011-.038.01-.039.008-.039.007-.04.005-.039.004-.04.002h-.04l-.04-.001-.039-.003-.04-.004-.039-.006-.039-.008-.039-.009-.038-.01-.038-.012-.038-.014-.036-.015-.037-.016-.035-.018-.035-.02-.034-.02-.033-.022-.032-.024-.031-.024-.031-.026-.029-.027-.028-.028-.027-.029-.026-.031-.024-.031-.024-.032-.022-.033-.02-.034-.02-.035-.018-.035-.016-.037-.015-.036-.014-.038-.012-.038-.01-.038-.009-.039-.008-.039-.006-.039-.004-.04-.003-.039-.001-.04v-.04l.002-.04.004-.039.005-.04.007-.039.008-.039.01-.038.011-.038.013-.038.014-.037.016-.037.017-.035.019-.036.02-.034.021-.034.023-.032.024-.032.025-.031.026-.029.028-.029L21 11.586l2.707 2.707zM13.707 14.293l.028.029.026.029.025.031.024.032.023.032.021.034.02.034.019.036.017.035.016.037.014.037.013.038.011.038.01.038.008.039.007.039.005.04.004.039.002.04v.04l-.001.04-.003.039-.004.04-.006.039-.008.039-.009.039-.01.038-.012.038-.014.038-.015.036-.016.037-.018.035-.02.035-.02.034-.022.033-.024.032-.024.031-.026.031-.027.029-.028.028-.029.027-.031.026-.031.024-.032.024-.033.022-.034.02-.035.02-.035.018-.037.016-.036.015-.038.014-.038.012-.038.01-.039.009-.039.008-.039.006-.04.004-.039.003-.04.001h-.04l-.04-.002-.039-.004-.04-.005-.039-.007-.039-.008-.038-.01-.038-.011-.038-.013-.037-.014-.037-.016-.035-.017-.036-.019-.034-.02-.034-.021-.032-.023-.032-.024-.031-.025-.029-.026-.029-.028L21 15.414l-1.293 1.293-.029.028-.029.026-.031.025-.032.024-.032.023-.034.021-.034.02-.036.019-.035.017-.037.016-.037.014-.038.013-.038.011-.038.01-.039.008-.039.007-.04.005-.039.004-.04.002h-.04l-.04-.001-.039-.003-.04-.004-.039-.006-.039-.008-.039-.009-.038-.01-.038-.012-.038-.014-.036-.015-.037-.016-.035-.018-.035-.02-.034-.02-.033-.022-.032-.024-.031-.024-.031-.026-.029-.027-.028-.028-.027-.029-.026-.031-.024-.031-.024-.032-.022-.033-.02-.034-.02-.035-.018-.035-.016-.037-.015-.036-.014-.038-.012-.038-.01-.038-.009-.039-.008-.039-.006-.039-.004-.04-.003-.039-.001-.04v-.04l.002-.04.004-.039.005-.04.007-.039.008-.039.01-.038.011-.038.013-.038.014-.037.016-.037.017-.035.019-.036.02-.034.021-.034.023-.032.024-.032.025-.031.026-.029.028-.029L21 11.586l2.707 2.707zM13.707 14.293l.028.029.026.029.025.031.024.032.023.032.021.034.02.034.019.036.017.035.016.037.014.037.013.038.011.038.01.038.008.039.007.039.005.04.004.039.002.04v.04l-.001.04-.003.039-.004.04-.006.039-.008.039-.009.039-.01.038-.012.038-.014.038-.015.036-.016.037-.018.035-.02.035-.02.034-.022.033-.024.032-.024.031-.026.031-.027.029-.028.028-.029.027-.031.026-.031.024-.032.024-.033.022-.034.02-.035.02-.035.018-.037.016-.036.015-.038.014-.038.012-.038.01-.039.009-.039.008-.039.006-.04.004-.039.003-.04.001h-.04l-.04-.002-.039-.004-.04-.005-.039-.007-.039-.008-.038-.01-.038-.011-.038-.013-.037-.014-.037-.016-.035-.017-.036-.019-.034-.02-.034-.021-.032-.023-.032-.024-.031-.025-.029-.026-.029-.028L21 14.414l-1.293 1.293-.029.028-.029.026-.031.025-.032.024-.032.023-.034.021-.034.02-.036.019-.035.017-.037.016-.037.014-.038.013-.038.011-.038.01-.039.008-.039.007-.04.005-.039.004-.04.002h-.04l-.04-.001-.039-.003-.04-.004-.039-.006-.039-.008-.039-.009-.038-.01-.038-.012-.038-.014-.036-.015-.037-.016-.035-.018-.035-.02-.034-.02-.033-.022-.032-.024-.031-.024-.031-.026-.029-.027-.028-.028-.027-.029-.026-.031-.024-.031-.024-.032-.022-.033-.02-.034-.02-.035-.018-.035-.016-.037-.015-.036-.014-.038-.012-.038-.01-.038-.009-.039-.008-.039-.006-.039-.004-.04-.003-.039-.001-.04v-.04l.002-.04.004-.039.005-.04.007-.039.008-.039.01-.038.011-.038.013-.038.014-.037.016-.037.017-.035.019-.036.02-.034.021-.034.023-.032.024-.032.025-.031.026-.029.028-.029L11 11.586l2.707 2.707z"/><path d="M16.468 19.004l.084.062.018.063.019.062.012.062.011.061.011.062.009.01.004zM9 25a1.5 1.5 0 0 0-1.5-.501h-2.502A1.999 1.999 0 0 0 18 13.002V20v-1v-5v-1z" fill="#fff"/><clipPath id="b"><path d="M7 1188.081a7.08 8.08 0 0 1 6.014 3.092l.067.006z" fill-=u#48a9ed64 0 15 0 11h025l-.056-.829l-1.177-5.576c-.448-.367-1.167-.479-2.157-.669l-2.582-6.853 3.99 2.392 1 2-2h.045c.533 0 .709.194 .409.647l.8 3.878z" fill-rule="nonzero"/><path d="M23 22.913a16.023 16.023 0 0 1-3.082 2.735 11.049 11.049 0 0 1 4.291 2.938 12.046 12.046 0 0 1-4.148 3.343 13.99 13.99 0 0 1 3.977 9.602 259.76 259.76 0 0 1 0 3.303 9.967 9.967 0 0 1-2.928 6.942 9.983 9.983 0 0 1-6.942 2.928c-2.753.018-5.505.018-8.258 0a9.967 9.967 0 0 1-7.192-3.18r.948 8.938 0 0 1-1.871-7.959 10l10.801 10.908 0 0 1-7.88-2.171c-.344-.045-.778-.685-1.275-1.048a1.008 1.008 0 0 1 .647.233L21.176 2h2V10v6a1 1 0 0 1 .97.588l1.703-3.372 17 2a.999.999 0 0 0-.707 1.707C20.158 10.289 24.451 11 24.965h5.599c2.259 6.551 5.233 9.641 3.156 8.391A11.999 11.999 0 0 0 21.994 16h.045A1.002 1.002 0 0 0 1.994-1.06A13.903 13.903 0 0 1 3 15c0-6.687 7.617-12 14-12 17-11s19-10-12s-6 1 18" fill="#d79e84"/><path d="M4 29.5a.5.5 0 0 0-.277.084l-3.158 3.49a.4.5 0 0 1 .05.094M10.059 16.002l.073.003.071.004.071.006.072.008.072.009.071.01.071.01.072.01.071.01.072.01.071.009.073.008.073.007.072.006.072.004.071.003.072.001.072-.001.072-.003.072-.004.072-.006.072-.008.071-.009.072-.011.071-.013.071-.015.071-.016.07-.018.07-.02.07-.02.07-.03.07-.028.079-.027.07-.026.071-.023.071-.021.072-.012.072-.009.071-.008.072-.007.071-.006.072-.006.072-.008.071-.009.072-.011.071-.013.071-.015.07-.016.07-.018.07-.02.069-.021.069-.023.069-.025.067-.027.068-.028.066-.03.066-.031.066-.034.065-.035.064-.037.063-.038.063-.04.062-.042.061-.044.06-.046.06-.047.058-.049.058-.051.056-.052.061-.059 1.167-1.167.041-.039.043-.036.044-.034.047-.031.048-.028.05-.026.051-.023.053-.02.053-.017.054-.014.055-.011.056-.008.056-.004L20 20l.056.002z"/><path d="M21 25.014l-.001.016-.003.026-.004.024-.008.026-.009.022-.01.022-.011.021-.012.022-.012.021-.013.02-.013.021-.013.02-.015.02-.015.02-.016.02-.016.019-.017.019-.018.024-.023 1.581-1.581.035-.033.036-.032.038-.03.04-.028.041-.026.042-.024.043-.022.044-.02.045-.017.045-.016.047-.013.047-.011.048-.009.047-.006.049-.004.048-.002.048.001.048.003.049.005.047.007.048.01.046.012.046.015.046.016.044.019.044.021.043.023.041.025.04.027.039.029.037.031.036.032.034.034.032.036.031.037.029.039.027.04.025.041.023.043.021.044.019.044.016.046.015.046.012.046.01.048.007.047.005.049.003.048.001.048-.002.048-.004.049-.006.047-.009.048-.011.047-.013.047-.016.045-.017.045-.02.044-.022.043-.024.042-.026.041-.028.04-.03.038-.032.036-.033.035-1.581 1.581-.023.024-.018.019-.019.019-.017.022-.017.02-.017.022-.016.02-.014.021-.014.022-.013.022-.012.021-.011.021-.011.022-.011.022-.011.022-.01.022-.009.022-.009.023-.008.022-.008.023-.007.023-.007.024-.006.023-.005.024-.005.023-.004.023-.004.024-.003.024-.002.024-.001.024-.001.024-.001.024.001.024.001.024.001h.024l.023.001z" fill-=olo="nonz"rfisec="8.4" fill="#ffcc4d"/><path d="M20.376 20.77c-.06.084-.115.068-.219-1.297A3.493 3.903 0 0 1 32 8.022v-.001a2.45 2.45 0 0 0 .666-1.347c.189-.386.43-.658.479-1.22V7.057c0-.798-.096-1.043-1.803-1.582l-.897-1.242ac.036 1.036 0 0 1 .655 3.188 6.626 6.626 0 0 1-.23 1.672 6.621 6.622 0 0 1-3.311-.191 6.017 6.017 0 0 1-.222-1.546 5.604 6.604 0 0 1-6.994-5.177c-.013-.77-.014-1.071-.031-1.659a2.22 2.22 0 0 1-.363-.819 1.478 1.478 0 0 1-.645-.281c-.005-.776-.005-1.553 0-2.33a1.008 1.008 0 0 1 .67-.645c.06-.029.117-.049.117-.07.107-.06.128-.013.108-.015.1-.013.152.014.17.016.178.016.173.031h-.015a2.998 2.998 0 0 1 1.462.7723.288 2.821 0 0 1 1.326 0l2.768 1.757a14.062 14.062 0 0 1 2.957 5.6 13.5 13.05 0 0 1 3.729-3.547 14.036 14.036 0 0 1 8.013-3.554c.458-.045.918-.065 1.378-.068l.16.001z" fill-rule="nonzero"/><path d="M14 9V5.319a1 1 0 0 0-.596 1.6C8.462 26.05 12.081 37 15 23a1 1 0 0 0 .004-2c-.155-.002-3.568-.086-6.204-3.6a1 1 0 0 0-.801-.4" fill="#292f33"/></clipPath></svg>
