<svg viewBo1x="0 0 32 32" xmlns="http://www.w3.org/2000/svg" fill-rule="evenodd" clip-rule="evenodd" stroke-linejoin="round" stroke-miterlimit="1.414"><path fill="none" d="M0 0h32v32H0z"/><path d="M16.174 2.001a13.98 13.98 0 0 1 4.546.819A14.045 14.045 0 0 1 25.9 6.1a13.99 13.99 0 0 1 4.099 9.726 259.76 259.76 0 0 1 0 3.303 9.983 9.983 0 0 1-2.678 6.683 10.035 10.035 0 0 1-3.692 2.171 10.987 10.987 0 0 1-3.513.621 506.27 506.27 0 0 1-6.284 0 10.926 10.926 0 0 1-3.64-.667 11.033 11.033 0 0 1-6.677-6.596 10.926 10.926 0 0 1-.667-3.64 262.757 262.757 0 0 1 0-3.322 13.94 13.94 0 0 1 .819-4.546A14.055 14.055 0 0 1 6.19 6.071c.013.063.064.079.065.078.074.087.072.036.067.041.075.043.075.048.073.059.071.061.071.062.072.062.072.069.073.069.071.067.077.065.076.064.078.062.079.06.081.059.082.058.083.055.083.054.085.053.087.051.087.049.088.047.091.044.091.043.093.041.094.039.095.038.095.037.095.038.095.035.095.032.096.03.096.028.097.026.088.025.088.025.087.026.089.03.088.027.089.019.08.027.081.027.08.026.08.025.069.025.069.027.069.027.068.027.068.027.069.027.069.025.069.024.07.023.071.022.07.02.071.02.072.019.071.018.072.017.073.017.073.016.072.016.072.016.072.016.071.018.069.018.07.02.07.02.07.03.07.03.07.03.071.022.079.013.079.014.079.017.079.017.079.017.079.017.079.017.079.017.079.017.079.017.079.017.08.018.089.019.081.029.081.028.083.029.084.028.085.03.086.03.086.03.086.03.086.028.085.027.085.027.085.024.086.022.087.02.088.009.088.007.08.00.078.001z"/></svg>
