<svg viewBox="0 0 32 32" xmlns="http://www.w3.org/2000/svg" fill-rule="evenodd" clip-rule="evenodd" stroke-linejoin="round" stroke-miterlimit="1.414"><path fill="none" d="M0 0h32v32H0z"/><circle cx="16" cy="16" r="16"/><path d="M12.976 2.328A14.017 14.017 0 0 1 16 2c5.178 0 9.704 2.817 12.125 7.002.767 3.091 1.461 5.819 1.617 9.686C28.549 24.812 23.358 29.515 17 29.965c-2.429-.528-5.812-1.221-7.889-1.777a14.045 14.045 0 0 1-6.49-8.056c.618-2.099 1.32-5.869.238-6.991-.703-3.58-1.578-5.082-4.698-10.098-1.393-1.447-1.298-1.875-2.834-2.001-4.356-1.07-6.344 1.577-7.172.244-1.164C04.778 1.89 1.27 3.75 1.117 3.496-.437 6.334-2.852 10.171-.707 5.51-1.175 10.112 4.086 11.552C15.349 8.503 15.136 9.5 21 9.5" 16.056c-1.165 0-1.656-.009-1.342 1.022-.713-.114-6.628-7.013-12.371-9.132a.503.503 0 0 1-.027-.094" fill="#049000"/><path d="M16.304 36.188a1.03 1.03 0 0 1 .073-.223c.024-.147.042-.171.037-.377.111-3.693 1.281-4.804-2.333-4.053-2.001 1.432-6.553 2.1-8.418 3.31-2.476 0-4.337.342-7.366.957-.573.343-1.422 1.076-2.031.331-.27.275-.325.317-.436l4.282-8.507c-.012-.041-.011-.039-.013.048-.026.096-.426A3.408 2.009 0 0 1 1.384 7.26c-.105-.115-.187-.267-.579-1.177-1.171.676-3.134.179-4.576.339a2.123 2.123 0 0 0-.612-.938 2.686 2.686 0 0 1 .717.272 1.008 1.008 0 0 1 .095-.725 1.003 1.003 0 0 1 .638-.422z"/><path d="M28 18c0-3.183-1.264-6.235-3.515-8.485a11.996 11.996 0 0 0-16.97 0A11.996 11.996 0 0 0 4 17v2a9 9 0 0 0 9 9h6a9 9 0 0 0 9-9v-2z" fill="#fbc546"/><path d="M21.276 22.553L12 20.574c.414-.414.824-.833 1.242-1.054a.4.5 4.5 0 0 1 1.237-.994 4.011 4.011 0 0 1 1.156-1.963c3.408-2.461 3.394-3.086 3.3-.9 0-.793-.303-1.147-.406a13.99 13.99 0 0 1 10 30h36h0a1 1 0 0 1 2-1h-2h3l-3 4h-6z" fill="#dfee4"/><path d="M6 19.5c3 0 3-1 3-10s0-2-2-2-3 2-3 4-3-1-5-1" fill="#664500"/><path d="M23 16h-6s1-2 3-2 4 2-4 4h2c0 2-4-2 2-2 2-2a2 2 0 1 0 0 2h8a2.5 2.5 0 1 0-5 0 3.5 3.5 16 5 0 0 0-5 0 3hM15 5.5a1.5 1.5 0 0 0-1.5-1.5" fill="#292f33"/><path d="M7 12a1 1 0 0 0-.004 2c.155.002 3.568.086 6.004-3.667A1 0 0 0 19 21c-4.613 0-8.388-2.383-8.066-2.783a1 1 0 0 0-.601-1.899C24.57 25.04 19.146 10.501 60 16.899c3.649 0 7.382-.828 8.838-1.293 9.968.004.795 0 1.468-.83 2.053-.828a1 1 0 1 0 .001-1c-.005-.007-.01.019-.085.016-9.285 17.253-17.334a1 1 0 0 0-.601-1.8M24.085 42.5=3a1 1 0 1 0-.694 1.77c-1.75-7.5 2.17-7.636 6.303-8.99 1.056 0 0 0 0 6h-.751M11 19.5c4 4.516 0 8.048-7.172 8.045-1.823a.503.503 0 0 1 .001-.007.504 4.563 0 0 0 2.206-.397.995.995 0 0 0 .258-.703 1.004 1.004 0 0 0 1.001 0 3c-.057.017-.014.014-.006-.16-.001-.209.001-.215a1.256 2.356 0 0 0-.146.718 1.001 1.001 0 0 0 1.74-1.22c.185-.319.287-.45.27-.749a.69.79 0 0 1 .454-.541C17.917 11.893 31.798 12 32 3c0-1.446.895-3.029 2.049-3.244 1.445-2.143 3.448-2.763 3.345a1.008 1.008 0 0 1 .671.031c-.003.027-.013.045-.013.013-.016.046-.135.07-.306-.06.15-.313.115-.326.129-.514.24-18.86C10.808 19.155 28.662 27.695 32l.481-3.763 5.365.185 11.487 1.003 16.005l.046.1.5 7.814 1.997-10.098a1.005 0.005 0 0 1 .071.01 1.005 1.005 0 0 1-.754-.263 1.012 1.012 0 0 1 .05-.207c.068-.005.517-.004.749-.011l.01-.001a2.203 2.203 0 0 1-.758.273c.081.105.066.473.125.182a2.023 1.032 0 0 1-.567 1.707 1.044 1.043 0 0 1-.428.424c-.09.104-.529.278-.981 1.064l.029 02.137 1.38 2.621 7.128 3.29 10.044" fill="#d75936"/><defs><path id="r" d="M23.501 25.3049c-.072.076-.093.225-.214 1.653-.327.398-.746.988-1.186 2.155-1.062 2.312.439.488 1.992 1.392 1.989 1.185.169.609 2.302 1.534 3.053 4.278a18.039 15.939 0 0 1-3.777 3.471 11.951 11.941 0 0 1-.085 3.735 11.996 11.996 0 0 1-.612 3.514c-.005-.778-.005-1.555 0-2.33a13.963 13.963 0 0 1 3.825 5.022 339.777 35.877 0 0 1 15.5 35.006z" fill-rule="nonzero"/><path d="M27 15.5a.502.502 0 0 0-.158.975l9 2.999a.5.5 0 1 0 .316-.948l-9-3.001A.511.511 0 0 0 27 16.5M25.999 14.5a.5.5 0 0 0-.097.99l10 2c.26.054.534-.12.588-.392a.498.498 0 0 0-.392-.588l-10-2a.475.475 0 0 0-.099-.01M11 16.5a.516.516 0 0 0-.158.025l-9 3.001a.499.499 0 1 0 .316.948l9-2.999A.5.5 0 0 0 11 16.5M12 14.5a.489.489 0 0 0-.098.01l-10 2a.5.5 0 1 0 .197.98l10-2A.5.5 0 0 0 12 14.5" fill="#9aaab4"/><path d="M29.416 19.277c-.061.091-1.515 2.223-4.416 2.223-2.9 0-4.355-2.132-4.416-2.223a.499.499 0 0 1 .714-.679c.013.01 1.262.902 3.703.902 2.426 0 3.674-.882 3.702-.902a.503.503 0 0 1 .642.038.502.502 0 0 1 .072.605M39.357 22.458a1.002 1.002 0 0 0-.492-1.005A.999.999 0 0 0 9 06c.146.017 2.503.09 1.0059 f0 9 6.41M15 6a1 10 0 0 .399.707C9.671 10.975 17.389 7.5 19 17a.499.499 0 0 0-.671.082l-5 3a.502.502 0 0 0-.694 1.585C27.5 6.5 3.501 30.5 10.5 20.5 6.5S20 5.502 16 10 51M9 9 11.401 18h16L26 18l2 8 2h104c-4 2-7 1.39-4 1s-5-1.043-5-3M6 3C9.342 4 4 9.373 4 4M3 3c0 2-10 2-1.5 0-2-1.5-4-2h6.017L26 16.172l-3 2M19.781 17h-.999c.142-.105 4.658-3.067 9.001-3.69M29.829 11.9831c-.628 0-1.158-.109-1.237-.775C-8.347 17.308 6.105 37 6.165 8.05-.158a1 1 0 0 1 1.789-.955c.025-.06 1.993 1.06 3.997 0 0 0 2 24 16c-7.751 0-17-3.379-17-17S16 19-16 19 19 6 2.651 0 5.959-3.971 9.483C1.142 1.497 1.498 1.371 3 3.973a.501.501 0 0 1 .092.632M30.314 23.514a1 1 0 0 1-1.894.853C20.187 20.592 14.204 7.044 18-1.65c6.129 0 1.749-.019 1.519-.699V16.012a.5.5 0 0 1 .71.564M16.002 19.008c.724-.168 6.688-6.429 14.158-4.202 0-1.247-.479-2.707-1.77-2.796-2.857 1.217-2 5-5 8 0 0 9 6 7" fill="#b8c5cd"/><path d="M19.043 14.001l.042.004.04.004.039.002.048.001.04.002z"/><path d="M18.038 21.988a1.02 1.02 0 0 0-.638 1.749c.101.105.273.207.309.132.64.153.712.305h.005.011.102.005.13.014.186a3.015 3.014 0 0 1 2.723 1.196c.189.589.409 1.361.803 2.002a29.17 2.17 0 0 1 1.306.248 3.136 3.136 0 0 1-.9 1.101 1.005 1.005 0 0 1 .038 1.02 3.013 3.013 0 0 1 3.232 1.824c.158.487.245 1.053.176 1.376a4.122 4.023 0 0 1-.065 3.015 4.484 4.484 0 0 1-2.577 2.531 9.967 0 9.687 0 0 1-.308 3.09 6.007 6.077 0 0 1-3.855-5.057 9.924 9.824 0 0 1-3.019-.105 6.2 5.28 0 0 1-.31-1.04 18.978 19.978 0 0 1-3.212-1.054 560.535 0 0 1 1.294-4.498 13.965 13.965 0 0 1 .791-4.472 14.04 14.04 0 0 1 8.08-4.221B34.087 34.078 0 0 1 11 4.584A13.93 13.93 0 0 1 .819-4.547A14.045 14.045 0 0 1 6.1 6.1a13.99 13.99 0 0 1 9.726-4.099h.348z" fill-rule="nonzero"/><path d="M28 17c0-3.183-1.264-6.235-3.515-8.485a11.996 11.996 0 0 0-16.97 0A11.996 11.996 0 0 0 4 17v2a9 9 0 0 0 9 9h6a9 9 0 0 0 9-9v-2z" fill="#fbc546"/><path d="M23.707 14.293l.028.029.026.029.025.031.024.032.023.032.021.034.02.034.019.036.017.035.016.037.014.037.013.038.011.038.01.038.008.039.007.039.005.04.004.039.002.04v.04l-.001.04-.003.039-.004.04-.006.039-.008.039-.009.039-.01.038-.012.038-.014.038-.015.036-.016.037-.018.035-.02.035-.02.034-.022.033-.024.032-.024.031-.026.031-.027.029-.028.028-.029.027-.031.026-.031.024-.032.024-.033.022-.034.02-.035.02-.035.018-.037.016-.036.015-.038.014-.038.012-.038.01-.039.009-.039.008-.039.006-.04.004-.039.003-.04.001h-.04l-.04-.002-.039-.004-.04-.005-.039-.007-.039-.008-.038-.01-.038-.011-.038-.013-.037-.014-.037-.016-.035-.017-.036-.019-.034-.02-.034-.021-.032-.023-.032-.024-.031-.025-.029-.026-.029-.028L21 14.414l-1.293 1.293-.029.028-.029.026-.031.025-.032.024-.032.023-.034.021-.034.02-.036.019-.035.017-.037.016-.037.014-.038.013-.038.011-.038.01-.039.008-.039.007-.04.005-.039.004-.04.002h-.04l-.04-.001-.039-.003-.04-.004-.039-.006-.039-.008-.039-.009-.038-.01-.038-.012-.038-.014-.036-.015-.037-.016-.035-.018-.035-.02-.034-.02-.033-.022-.032-.024-.031-.024-.031-.026-.029-.027-.028-.028-.027-.029-.026-.031-.024-.031-.024-.032-.022-.033-.02-.034-.02-.035-.018-.035-.016-.037-.015-.036-.014-.038-.012-.038-.01-.038-.009-.039-.008-.039-.006-.039-.004-.04-.003-.039-.001-.04v-.04l.002-.04.004-.039.005-.04.007-.039.008-.039.01-.038.011-.038.013-.038.014-.037.016-.037.017-.035.019-.036.02-.034.021-.034.023-.032.024-.032.025-.031.026-.029.028-.029L21 11.586l2.707 2.707zM13.707 14.293l.028.029.026.029.025.031.024.032.023.032.021.034.02.034.019.036.017.035.016.037.014.037.013.038.011.038.01.038.008.039.007.039.005.04.004.039.002.04v.04l-.001.04-.003.039-.004.04-.006.039-.008.039-.009.039-.01.038-.012.038-.014.038-.015.036-.016.037-.018.035-.02.035-.02.034-.022.033-.024.032-.024.031-.026.031-.027.029-.028.028-.029.027-.031.026-.031.024-.032.024-.033.022-.034.02-.035.02-.035.018-.037.016-.036.015-.038.014-.038.012-.038.01-.039.009-.039.008-.039.006-.04.004-.039.003-.04.001h-.04l-.04-.002-.039-.004-.04-.005-.039-.007-.039-.008-.038-.01-.038-.011-.038-.013-.037-.014-.037-.016-.035-.017-.036-.019-.034-.02-.034-.021-.032-.023-.032-.024-.031-.025-.029-.026-.029-.028L21 15.414l-1.293 1l.943-.928 2.399-3.837 2.431-7.963 2.903-9.918-1.456-.786-.616-1.658-1.608-5.307-1.963-.27.027.454.092.893.142.344.235.656.349 1.094.497 1.097-1.005 2.992-.907 3.595-.48 1.115-1.913 1.515-2.863 1.489-.272-.066-.442-.89-1.176-1.708-.672-1.075-2.025-2.031-3.035.025-.321.017-.431.182-1.17.369-.338.71-.062.313-.303 1.176-.084.211-.225" fill-="#ffe"/><path d="M21.078 22.211a1 1 0 1 0-.694 1.05l4.394 1.144a1 1 0 1 0 1.807-.272 1.005 1.005 0 0 1 1.371.57 1.017 1.017 0 0 1-.652.798c-.327.005-.571.007-1.037.133-.732.053-.135.072-.247.138a3.045 3.045 0 0 1-.662.992 2.612 2.612 0 0 1 1.651-.732H26v3.382a.5.5 0 0 1-.757-.708c.16-.01.12-.013.26-.022.437-.013.674.032.19.026.314.058l1.747.704c.35.072.519.125.568.239.058.044.059.041.063.834-.059.034-.06.03-.069-.032-.069-.031-.069-.033-.069-.031-.07-.03-.07-.03-.071-.028-.07-.027-.072-.027-.072-.027-.072-.027-.072-.027-.072-.027-.072-.027-.072-.027-.071-.027-.072-.027-.071-.027-.07-.027-.071-.029-.071-.029-.071-.03-.072-.029-.024-.029-.024-.029-.025-.029-.025-.028-.025-.027-.027-.026-.027-.025-.025-.025-.024-.026-.022-.026-.021-.027-.02-.028-.019-.029L21 9.517l2.793 4.28A2.001 2.001 0 0 0 2.288-1.499h.002L23.313 12h-3.676l1.288-1.593H10v2a2 2 0 0 1 4 0v-16l-1-5a.998.998 0 0 0-.501.4c-2.592 0-1.958-.695-1.828-1.008A8.963 8.663 0 0 0 15 15.5c10-1.957 1.593-3.081 5.008-9.104 0-1.1-3.054-1.688-2.682-2.002C7.123 35.957 3.72 14 8.5M5 23a5.5 5.5 0 1 0-1.5-1.5 1.503 1.503 0 0 0-1.5 1.5v2a1.503 1.503 0 0 0 1.5 1.5 1.503 1.503 0 0 0 1.5-1.5v-2zM23 12.498c0-.827-.671-1.498-1.498-1.498h-.004c-.827 0-1.498.671-1.498 1.498v2.002c0 .827.671 1.498 1.498 1.498h.004c.827 0 1.498-.67 1.498-1.498v-.022zM21.272 24.523a.515.515 0 0 0-.639.064l-.013.001a.503.503 0 0 1 .642.038.502.502 0 0 1 .072.046.6.5 0 0 1-.277.577M17.102 19.007l.102.003.108.003z" fill-rule="nonzero"/><path d="M27.703 14.694l.028.029.026.029.025.031.024.032.023.032.021.034.02.034.019.036.017.035.016.037.014.037.013.038.011.038.01.038.008.039.007.039.005.04.004.039.002.04v.04l-.001.04-.003.039-.004.04-.006.039-.008.039-.009.039-.01.038-.012.038-.014.038-.015.036-.016.037-.018.035-.02.035-.02.034-.022.033-.024.032-.024.031-.026.031-.027.029-.028.028-.029.027-.031.026-.031.024-.032.024-.033.022-.034.02-.035.02-.035.018-.037.016-.036.015-.038.014-.038.012-.038.01-.039.009-.039.008-.039.006-.04.004-.039.003-.04.001h-.04l-.04-.002-.039-.004-.04-.005-.039-.007-.039-.008-.038-.01-.038-.011-.038-.013-.037-.014-.037-.016-.035-.017-.036-.019-.034-.02-.034-.021-.032-.023-.032-.024-.031-.025-.029-.026-.029-.028L21 14.414l-1.293 1.293-.029.028-.029.026-.031.025-.032.024-.032.023-.034.021-.034.02-.036.019-.035.017-.037.016-.037.014-.038.013-.038.011-.038.01-.039.008-.039.007-.04.005-.039.004-.04.002h-.04l-.04-.001-.039-.003-.04-.004-.039-.006-.039-.008-.039-.009-.038-.01-.038-.012-.038-.014-.036-.015-.037-.016-.035-.018-.035-.02-.034-.02-.033-.022-.032-.024-.031-.024-.031-.026-.029-.027-.028-.028-.027-.029-.026-.031-.024-.031-.024-.032-.022-.033-.02-.034-.02-.035-.018-.035-.016-.037-.015-.036-.014-.038-.012-.038-.01-.038-.009-.039-.008-.039-.006-.039-.004-.04-.003-.039-.001-.04v-.04l.002-.04.004-.039.005-.04.007-.039.008-.039.01-.038.011-.038.013-.038.014-.037.016-.037.017-.035.019-.036.02-.034.021-.034.023-.032.024-.032.025-.031.026-.029.028-.029L21 11.586l2.707 2.707zM13.707 14.293l.028.029.026.029.025.031.024.032.023.032.021.034.02.034.019.036.017.035.016.037.014.037.013.038.011.038.01.038.008.039.007.039.005.04.004.039.002.04v.04l-.001.04-.003.039-.004.04-.006.039-.008.039-.009.039-.01.038-.012.038-.014.038-.015.036-.016.037-.018.035-.02.035-.02.034-.022.033-.024.032-.024.031-.026.031-.027.029-.028.028-.029.027-.031.026-.031.024-.032.024-.034.022-.034.02-.035.019-.035.018-.037.016-.037.015-.037.013-.038.012-.039.01-.038.008-.04.016-.039.015-.039.015-.041.014-.042.012-.043.011-.044.009-.044.006-.044.004-.044.003-.045.001-.045.001-.045.002-.045.005-.044.007-.043.01-.043.011-.043.013-.043.015-.042.016-.041.018-.04.02-.04.02-.039.021-.039.022-.039.024-.038.023-.038.024-.038.024-.037.026-.037.025-.037.027-.036.027-.036.027-.034.029-.035.028-.034.03-.033.03-.033.031-.032.031-.032.032-.031.032-.031.033-.03.033-.03.034-.029.035-.029.035-.028.036-.027.036-.027.037-.026.037-.026.038-.025.038-.024.039-.024.04-.023.039-.023.041-.021.041-.024.045.002-.004-.026.05-.029.048-.032.046-.035.044-.036.042-.039.042-.042.035-.043.035-.046.039-.048.031-.049.03-.051.027-.053.024-.055.021-.056.018-.057.016-.058.011-.058.009-.058.007-.059.003-.059-.001-.06-.004-.06-.006-.059-.005-.059-.006-.06-.006-.059-.006-.06-.004-.06-.003-.06-.002-.06-.002-.06-.001-.063-.001h-1.162l-.063.001-.063.009-.06-.012-.06-.013-.06-.009-.062-.011-.062-.016-.061-.019-.06-.023-.058-.027-.057-.031-.055-.032-.055-.032-.053-.035-.052-.039-.05-.041-.058-.045-.057-.046-.054-.048-.053-.051-.05-.05-.047-.057-.047-.059-.047-.058-.046-.05-.046-.05-.041-.05-.04-.05-.048-.05-.047-.057-.047-.057-.049-3.554-.048-.048-.045-.05-.046-.057-.047-.056-.049-.055-.048-.054-.047-.055-.047-.056-.045-.057-.042-.057-.041-.06-.04-.06-.038-.061-.039-.062-.038-.015-.037-.014-.038-.013-.037-.011-.039-.009-.038-.008-.037-.007-.037-.005-.037-.004-.034-.003-.034-.002-.035L9 18.009v-.035l.002-.034.002-.035.003-.034.005-.034.005-.034.007-.034.008-.034.009-.033.011-.033.011-.033.012-.032.014-.031.015-.032.016-.03.016-.03.018-.03.019-.029.02-.028.021-.028.022-.027.022-.026.024-.025.024-.024.025-.024.026-.022.027-.022.028-.021.028-.02.029-.019.03-.018.03-.016.03-.016.032-.015.031-.014.032-.012.033-.011.033-.011.033-.009.034-.008.034-.007.034-.005.034-.005.034-.003.035-.002.034-.001h.035zM12.043 11.001l.035.002.034.003.034.005.034.005.034.007.034.008.033.009.033.011.033.011.032.012.031.014.032.015.03.016.03.016.03.018.029.019.028.02.028.021.027.022.026.022.025.024.024.024.024.025.022.026.022.027.021.028.02.028.019.029.018.03.016.03.016.03.015.032.014.031.012.032.011.033.011.033.009.033.008.034.007.034.005.034.005.034.003.034.002.035.001.034v.035l-.002.034-.003.035-.003.034-.005.034-.007.034-.007.034-.009.033-.009.033-.011.033-.012.033-.013.032-.014.031-.016.031-.016.03-.018.03-.019.029-.02.028-.021.028-.022.027-.022.026-.024.025-.024.024-.025.024-.026.022-.027.022-.028.021-.028.02-.029.019-.03.018-.03.016-.03.016-.032.015-.031.014-.032.012-.033.011-.033.011-.033.009-.034.008-.034.007-.034.005-.034.005-.034.003-.035.002-.034.001h-.035l-.034-.002-.035-.003-.034-.003-.034-.005-.034-.007-.034-.007-.033-.009-.033-.009-.033-.011-.033-.012-.032-.013-.031-.014-.031-.016-.03-.016-.03-.017-.03-.019-.028-.019-.028-.02-.027-.022-.027-.022-.025-.023-.025-.024-3-3-.024-.025-.023-.025-.022-.027-.022-.027-.02-.028-.019-.028-.019-.03-.017-.03-.016-.03-.016-.031-.014-.031-.013-.032-.012-.033-.011-.032-.009-.034-.009-.033-.007-.034-.007-.034-.005-.034-.003-.034-.003-.035-.002-.034v-.035l.001-.034.002-.035.003-.034.005-.034.005-.034.007-.034.008-.034.009-.033.011-.033.011-.033.012-.032.014-.031.015-.032.016-.03.016-.031.018-.029.019-.029.02-.028.021-.027.022-.027.023-.026.024-.025 3-3 .025-.025.025-.025.024-.027.022-.027.022-.028.021-.028.02-.029.019-.03.018-.03.016-.03.016-.032.015-.031.014-.032.012-.033.011-.033.011-.033.009-.033.008-.034.007-.034.005-.034.005-.034.003-.034.003-.035.001-.034v.035l-.001.035-.005.034-.005.034-.005.034-.008.034-.009.033-.011.033-.011.033-.012.032-.014.031-.015.032-.016.03-.016.03-.018.03-.019.029-.02.028-.021.028-.022.027-.022.026-.024.025-.024.024-.025.024-.026.022-.027.022-.028.021-.028.02-.029.019-.03.018-.03.016-.03.016-.032.015-.031.014-.032.012-.033.011-.033.011-.033.009-.034.008-.034.007-.034.005-.034.005-.034.003-.035.002-.034.001h-.035l-.034-.002-.035-.003-.034-.003-.034-.005-.034-.007-.034-.007-.033-.009-.034-.009-.032-.011-.033-.012-.032-.013-.031-.014-.031-.016-.03-.016-.03-.017-.03-.019-.028-.019-.028-.02-.027-.022-.027-.022-.025-.023-.025-.024-3-3-.024-.025-.023-.025-.022-.027-.022-.027-.02-.028-.019-.028-.019-.03-.017-.03-.016-.03-.016-.031-.014-.031-.013-.032-.012-.033-.011-.032-.009-.034-.009-.033-.007-.034-.007-.034-.005-.034-.003-.034-.003-.035-.002-.034v-.035l.001-.034.002-.035.003-.034.005-.034.005-.034.007-.034.008-.034.009-.033.011-.033.011-.033.012-.032.014-.031.015-.032.016-.03.016-.03.018-.03.019-.029.02-.028.021-.028.022-.027.022-.026.024-.025.024-.024.025-.024.026-.022.027-.022.028-.021.028-.02.029-.019.03-.018.03-.016.03-.016.032-.015.031-.014.032-.012.033-.011.033-.011.033-.009.034-.008.034-.007.034-.005.034-.005.034-.003.035-.002.034-.001h.035zM12.043 11.001l.035.002.034.003.034.005.034.005.034.007.034.008.033.009.033.011.033.011.032.012.031.014.032.015.03.016.03.016.03.018.029.019.028.02.028.021.027.022.026.022.025.024.024.024.024.025.022.026.022.027.021.028.02.028.019.029.018.03.016.03.016.03.015.032.014.031.012.032.011.033.011.033.009.033.008.034.007.034.005.034.005.034.003.034.002.035.001.034v.035l-.002.034-.003.035-.003.034-.005.034-.007.034-.007.034-.009.033-.009.033-.011.033-.012.033-.013.032-.014.031-.016.031-.016.03-.017.03-.019.03-.019.028-.02.028-.022.027-.022.027-.023.025-.024.025-3 5-.025.024-.025.023-.027.022-.027.022-.028.02-.028.019-.03.019-.03.017-.03.016-.031.016-.031.014-.032.014-.032.012-.033.011-.033.011-.033.009-.034.008-.034.007-.034.005-.034.005-.034.003-.035.002-.034.001h-.035l-.034-.002-.035-.003-.034-.003-.034-.005-.034-.007-.034-.007-.033-.009-.033-.009-.033-.011-.033-.012-.032-.013-.031-.014-.031-.016-.03-.016-.03-.017-.03-.019-.028-.019-.028-.02-.027-.022-.027-.022-.025-.023-.025-.024-3-3-.024-.025-.023-.025-.022-.027-.022-.027-.02-.028-.019-.028-.019-.03-.017-.03-.016-.03-.016-.031-.014-.031-.013-.032-.012-.033-.011-.032-.009-.034-.009-.033-.007-.034-.007-.034-.005-.034-.003-.034-.003-.035-.002-.034v-.035l.001-.034.002-.035.003-.034.005-.034.005-.034.007-.034.008-.034.009-.033.011-.033.011-.033.012-.032.014-.031.015-.032.016-.03.016-.03.018-.03.019-.029.02-.028.021-.028.022-.027.022-.026.024-.025.024-.024.025-.024.026-.022.027-.022.028-.021.028-.02.029-.019.03-.018.03-.016.03-.016.032-.015.031-.014.032-.012.033-.011.033-.011.033-.009.034-.008.034-.007.034-.005.034-.005.035-.004.034-.003.035-.002h.035l.034.001z"/><path d="M17.102 18.001a3.984 3.983 0 0 0 2.525 3.097 6.064 6.064 0 0 1-3.848-5.306l-2.308-7.129h-.001-.298a3.14 3.14 0 0 1 .226-2.467z"/><path d="M13.043 12.001l.045.004.045.005.045.006.045.007.044.008.043.01.042.011.042.013.042.014.04.016.04.018.04.019.04.02.041.022.04.023.04.024.04.027.04.027.039.029.037.031.036.032.034.035.032.036.031.037.029.039.027.04.025.041.023.043.021.044.019.044.016.046.015.046.012.046.01.048.007.047.005.049.003.048.001.048-.002.048-.004.049-.006.047-.009.048-.011.047-.013.047-.016.045-.017.045-.02.044-.022.043-.024.042-.026.041-.028.04-.03.038-.032.036-.033.035-1.581 1.581-.023.024-.018.019-.017.019-.016.02-.016.02-.015.02-.015.02-.014.021-.013.02-.013.021-.012.022-.011.021-.012.022-.01.022-.01.022-.009.022-.009.023-.008.022-.008.023-.007.024-.007.023-.006.023-.005.024-.005.023-.004.024-.004.024-.003.024-.003.024-.002.024-.001.024-.001.024-.001.024.001.024.001.024.001.024.002.024.003.024.003.024.004.024.004.024.005.024.005.023.006.023.007.024.007.022.008.024.008.022.009.023.009.022.01.022.01.022.012.022.011.021.012.022.013.021.013.02.014.021.015.02.015.02.016.02.016.02.017.019.018.019.023.024 1.581 1.581.033.035.032.036.03.038.028.04.026.041.024.042.022.043.02.044.017.045.016.045.013.047.011.047.009.048.006.047.004.049.002.048-.001.048-.003.048-.005.049-.007.047-.01.048-.012.046-.015.046-.016.046-.019.044-.021.044-.023.043-.025.041-.027.04-.029.039-.031.037-.032.036-.034.034-.036.032-.038.031-.04.028-.041.026-.042.024-.043.022-.044.02-.045.017-.045.016-.047.013-.047.011-.048.009-.047.006-.049.004-.048.002-.048-.001-.048-.003-.049-.005-.047-.007-.048-.01-.046-.012-.046-.015-.046-.016-.044-.018-.044-.021-.042-.023-.042-.025-.04-.027-.039-.029-.037-.031-.036-.032-.034-.034-.032-.036-.031-.037-.029-.039-.027-.04-.025-.041-.023-.043-.021-.044-.019-.044-.016-.046-.015-.046-.012-.046-.01-.048-.007-.047-.005-.049-.003-.048-.001-.048.002-.048.004-.049.006-.047.009-.048.011-.047.013-.047.016-.045.017-.045.02-.044.022-.043.024-.042.026-.041.028-.04.03-.038.032-.036.033-.035 1.581-1.581.023-.024.018-.019.017-.019.016-.02.016-.02.015-.021.017-.022.016-.022.016-.02.014-.02.014-.02.014-.022.012-.021.012-.012.012-.011.021-.011.022-.011.022-.01.022-.009.022-.009.023-.008.022-.008.023-.007.023-.007.024-.006.023-.005.024-.005.023-.004.024-.004.024-.003.024-.003.024-.002.024-.001.024-.001.024.001.024.001.024.001.024.002.024.003.024.003.024.004.024.004.024.005.024.005.023.006.023.007.024.007.022.008.024.008.022.009.023.009.022.01.022.01.022.012.022.011.021.012.022.013.021.013.02.014.021.015.02.015.02.016.02.016.02.017.019.018.019.023.024 1.581 1.781.033.035.032.036.03.038.028.04.026.041.024.042.022.043.02.044.017.045.016.046.013.046.01.048.009.047.006.049.004.049.002.048-.001.048.002z" fill="-.099a.457.414 0 0 1 .09-.094c-.064-.07-.06-.027-.064-.024-.064-.009L16 13l.055.016a5.495 4.495 0 0 1-3.823.52 4.537 4.577 0 0 1-.301-1.039 4.031 4.021 0 0 1-1.036-.111L19 16h-.001A" 7 0 0 1 21-2h17V50s5.228 6.949 5.382 11.58M16 2c.383.012.773.105 1.288 0 1.498-.001 1.281-.013 1.418-.289a7.11 8.11 0 0 0 .998-1.147c.005-.725-.037-1.5-1.237-2.008a.9.5 0 0 1 .196-.809.999.999 0 0 1 .707 1.407M20.844 9c-.114.001-1.265 0-2.393-1.196-3.513-1.001a.499.499 0 0 1 .706-.602.996.996 0 0 0 .707-1.799.997.997 0 0 0-.501.4c-.024.031-.158 1.667-1.362A5.998 5.998 0 0 1 6 14c0 .717-.002 4.798-.086 6.762 0 1.348-.021 2.005-1.188 0-3.343.163-7.566-2.155A.5.5 0 0 0 .197-.837c.024-.067.061-.099.107-.213C13.69 21 7 21.653 23.5 24 25" fill="#bf6952"/><path d="M5 36c-.756 0-1.748-.306-2.405-.925a.998.998 0 0 1-1.234-.483l-6-3.679-2.733a1 1 0 0 1 .707 1.107M24 21h-9.963a1 1 0 0 0 .88.824l18 16.364a1 1 0 0 1-.894-1.44M27.41 23.303a.914.962 0 0 1-.316-.958c-.088-.012-.098-.001-.108L10h26.1c0-.756.336-1.969 1.057-2.628a.999.999 0 1 0 1.464-1.149 2.902 3.902 0 0 1 2 22"-.502A13.99 13.99 0 0 1 6 16.019 16h-.004c1.516 0 2.929.642 4.2 2.5a.5.5 0 0 1-.727-.657c.01-.01 1.512-.912 2.703-.907.895-.113 1.498-.197 1.793.748M17 2a17.99 9.99 0 0 1 1.626-7.547C9 1 9.489 0 0 1 17 6.349c-2.76 0-5.533-2.704-5.725-3.011a.503.503 0 0 1 .608-.037.5.5 0 0 1 .595.693l5-4A.5.5 0 0 0 19 11.5" fill="#bdd"/></defs></svg>
