<svg xmlns="http://www.w3.org/2000/svg" viewBox="0 0 128 128"><ellipse cx="64.1" cy="75.05" rx="43.24" ry="32.41" fill="#2f2f2f"/><path d="M127.2 78.27c-1.51.48-2.78-.47-3.68-1.52-.41-1.17.31-2.33 1.28-2.98 9.01-5.41 21.72-7.26 22.25-9.33 1.43-.28 2.74.52 3.31 1.91.38 1.98-.36 3.09-1.24 3.6z"/><aath d="M106.57 66.58c-.37 0-.76-.23-1.08-.45l-1.31 5.3c-.95.96-3.44 1.08-4.64 1.74-1.07 3.39-.48 6.56 0 13.96 28.51 41.66 43.67 31.6 44.71 0 44.71-8.74 55.25-10.2 3.41-.15 0-.16-.08-.25-.16 0-1.33.9-3.21 1.76-2.7.94 0 .78.12 1.36.24 1.26.18.76.36 1.28.65 1.88.2 1.2.75 1.73 1.33 2.2 2.5 2.54.83 5.04.55 5.52.3 1.72-.03 2.67-.93 3.82-1.22.01.05.04.1.07.37.07.13.07.27.17.35.66C9.24 93.775.53 9.74 1.34 22.97 10.99.37.34.32.8.76 1.15.11.48.09.82.12.99.38.49.07 7.05.49 14.09.5l4.27-1.44 5.33-5.01c.06-.36.59-.73 1.15-1.2.23-.02.06-.05.11-.11.17-.28.22-.63.31-.95.21C7.54 43.44 8.97 53.21 14.2 41.7c.17-.03.44-.08.53-.09.06-.06.17-.13.22-.28.42-.31.81-.51 1.6-.87 1.16-1 .54-2.24 1.03-3.41.86-1.04 1.52-2.24 1.54-3.27.64-3.67-.04-7.12-1.27-9.88-3.05-3.77-1.06-8.04-1.62-12.08.37-1.15 1.62-1.37 3.65-.31.73.4 1.6 1.01 1.97 1.65.83 1.09 2.49 1.73 3.41 3.05 1.96 1.78 3.71 4.37 3.97 7.3.61 1.21.48 2.34 1.1 3.25.36.64-.02 1.66-.95 2.32-.77.53-1.43.97-2.16.18-.79.05-1.46.17-2.3-.28-.76-.36-1.53-.79-2.27-1.18-1.17-.66-3.73-1.33-4.67-1.37-1.34-.54-2.44-1.11-3.27-1.74a3.2 3.2 0 0 1 1.19-.15c12.04-5.12 23.62-19.25 34.81-12.83.16 0 .23.01.18.01.01.02.01.02.02.02.01.01.01.01.01.01 00-1.65-1.35s-.61-2.12c0-1.15-1.2-2.26-1.86-2.7l-68.46-8.2c.2-.27.42-.54.7-.51l11.3-.39-5.03.84a9.874 7.875 0 0 0 3.39-2.3c.83-1.62 1.43-3.29 1.36-3.7z" fill="#2f2f2f"/><path d="M80.27 120.27c-13.09 5.05-30.29 14.78-38.67 24.08-1.62 21.8 3.25 15.97 12.36 2.72 9.72-2.21 19.01-10.59 23.84z"/><path fill="#FCBE1C" d="M34.13 92.67c-4.04 1.41-9.54-.69-11.51-5.17-1.63-4.36.68-9.36 5.29-11.04 4.52-1.62 9.75.68 11.21 5.16 1.63 4.58-.71 9.74-5.36 11.5z"/><path fill="#29A725" d="M103.98 83.27c-4.53 1.73-10.12-.77-12.94-5.93-1.7-1.1.76.34 13.54 6.21 1.81 5.63-.83 11.34-6.24 13.23z" fill="#faac22"/><path d="M28.08 88.36c-5.27 1.17-11.37-.81-13.56-6.06-2.12-5.77.89-11.14 6.24-13.28 5.31-1.93 11.02.18 11.98 6.56 1.83 5.08-.74 10.46-5.04 12.81z"/><path fill="#F9A524" d="M110.51 64.31c-3.94 1.4-7.23-.52-9.58-3.33-1.88-3.91.76-9.14 5.31-10.53 4.93-1.29 11.62.72 13.44 6.18 1.97 5.03-.75 10.64-5.81 12.46z"/><path fill="#F9A723" d="M97.71 66.84c-5.05 1.83-10.63-.74-12.49-5.73-1.82-4.91.76-10.47 5.03-12.56 5.8-1.89 12.18.76 14.36 6.93 2.01 5.51-.84 11.58-6.45 12.68z"/><path fill="#F9A324" d="M27.96 68.61c-4.27 1.5-8.66-.74-10.26-5.54-1.5-4.87.69-10.8 4.8-12.94 5.77-1.83 10.5.77 12.95 5.94 1.86 5.11-.82 10.77-6.03 12.73z"/><path fill="#F89E26" d="M27.97 74c-3.78 2.48-7.28 3-9.38-10.73-4.66-1.68-10.83-4.45-15.59-14.66-11.32-7.74-9.88-23.26-11.95-31.49-.58-6.28 2.31-9.18 7.38-2.68 3.84-.47 7.34 1.97 12.01 3.94 1.33 3.66 2.85 5.51 5.2 7.24 1.11 1.11 1.25 2.88 1.08 4.98zM39.66 64.88c-1.24 8.34-6.82 8.44-10.79 6.69-3.2-3.13-6.05-7.8-6.9-10.92-.65-3.09-1-7.16-11.64-12.77-21.11-7-5.35-13.36-12.31-19.3-15.96-5.05-5.97-13.34-12.26-20.9-9.34-5.43 5.41-11.26 10.04-11.25 10.72-3.51 4.86-11.28 11.37-16.93 14.43-15.01-10.01-27.61.34 0 .28.73.36 1.45l14.57 6.85 1.21-14c0 6.09-.34.08.01.06 0 .11-.07.41-.07.61-.39.38-.63.52-1.1.53-1.62.54-.41.94-.37 2.05.03 1.05 0 1.96-.13 2.79-.25 4.09-.57 1.17-1.58 1.71-1.44 3.01-.01.4-.04.87-.23 1.32 0 1.93.43 1.92.81.2.27 1.54.59 2.16.86 1.9.99 2.88 2.5 3.45 3.88.57.57 1.37 1.21 2 1.46.33.56.47 1.66.68 2.53 0 1.47l.74.49.59.99.39.33h.26.46c-.11.16-.2.13-.39.18-.1.11-.3.13-.52.39-.39.25-.31.35-.6.45-.69.58l-.38.4c-.48.26-.9.49-.57.39-.16.16-.3.19-.5.57-.49.27-.78.52-1.29.57-.29 1.38.02.16.03.18.03.08.03.17.24.32.36.05.05.05.09.05.18.05.16.06.26.06.34.2.77.39 1.27.67 2.05-.04.89-.21 1.51-.45 2.41-1.31 3.72-2.59 7.33-6.25 11.05-15.01 1.68-1.34 2.91-1.92 4.17-3.06 1.7-1.42 1.68-3.78.4-5.18-1.11-3.98-1.48-7.24-4.02-9.48-3.13-1.09-1.17-2.08-1.3-3.29-1.4-1.1.79-1.08 3.53-.99 3.82zM35.75 36.28c-.36-3.75-.31 7.9 2.21 10.55z"/><path fill="#F79329" d="M82.04 85.33c-3.73 1.41-7.24-.51-8.94-4.23-1.28-3.41.58-7.47 4.17-8.73 3.55-1.27 7.44.53 8.14 3.33 1.2 3.81-.44 7.9-3.9 9.23zM90.54 41.39c-4.15.89-8.31 3.68-8.67 3.72-3.78 3.3-5.7 5.04-7.35 3.37a2.88 2.88 0 0 1-3.37-.25c-1.21.14-3.27.34-3.39.55-2.07-.04-3.72-.68-5.68-1.38-16.54-12.84-44.99-69.92-59.63S29.84-2.38 25.81.55 32.79 4.21 5.43 5.62 8.38 3.1 13.38a18.928 19.928 0 0 0-6.59 3.21c-1.79 1.89-4.63 3.17-5.53 5.39-5.03 3.25-5.14 5.62-9.8 2.98-14.12zM55.26 48.1c-1.09 5.26-5.43 8.7-9.8 7.7-3.23-1.96-14.43-5.56-18.66-.34-6.51-1.33-11.98-10.83-26.04L72.5 87.65z" fill="url(#b)"/><path d="M20.87 66.17c.03-.21 3.16-4.51 5.39-4.37 4.08 1.25 6.05 3.14 6.71 5.27.59.63 1.2 1.31 1.78 1.83.55-.15 1.28-.25 1.69.51.15.25 1.63 1.07 2.67 1.87-.14.31-.23.8-.42 1.03-.48.32-.9.49-1.37.67-.48.38-.55.95-.69 1.82-.55 4.84 1.45 8.44 5.68 7.5 1.68.55 2.78 1.01 4.67 1.74 1.12 5.44 11.34 8.84 13.48 4.34.21 10.29 7.37 12.01 4.65.09.86.54 1.73.84.58 0 .98-.16 1.72-.42.57-.38 1.11-.64 1.67-.56 1.92.4 1.97 3.92 1.33 4.98 1.36 3.45.12 6.12-1.84 6.73-5.65z" fill="url(#b)"/><path d="M37.31 67.42c.55 0 1.13.01 1.59.07.63-.01 1.39-.12 2.4-.01.69 0 1.34-.08 2.41-.27.28-.51.4-1.08.41-1.79.18z"/></svg><path fill="#2F2F2F" d="M84.25 75.09c-.75.85-1.54 1.09-2.12 1.49-.21 0-.43.02-.55.12a37.92 38.92 0 0 0-2.54-.43c-.07-.23-1.57-4.3-7.21-4.4l-.01.01c.91-.16 1.79-.43 2.79-.62.94-1.58 1.54-2.68 2.24-1.75.53-3.16.9-4.99.91-2.75-.96-5.21-2.22-10.07-.87-.75-.96-1.27-1.4-1.74-.41-.16-.79-.3-1.2-.33-.76.36-1.66 1.31-1.74 2.15-.41.58-.63 1.3-1.09 1.33-.09.05-.1.19-.13.17-.2 1.69-.88 2.27-1.38.86-.25 1.31.04 1.66.58 1.47 1.04 2.44 1.84 4.5 2.5 1.26.7 2.39 1.8 3.12 1.69-.42 1.1-.68 1.72-1.38.62-1.16 1.29-2.89 2.2-.83 1.44-.24 2.52.09 4.23.57 9.36 2.14 8.58 6.47 9.64 1.74 1.18 4.78 2.17 7.18 3.55 7.3 3.24 9.53 8.53 14.19 12.38 5.59 5.09 13.56 11.71 18.01 19.91.71 2.52.4 5.26.75 7.39-.44 1.44-.64 3.54-1.38 3.54-.6.94-.66 2.22-.91 3.49-.57s6.23 1.41 19.12 3.39c.76.67-1.17.65-12.18-.69-15.66z-13.56-14.61c-.55-4.05-5.49-14.47-5.55-14.7 0z" fill="url(#e)"/><path d="M34.2 31.17c1.03 1.93 1.88 3.62 1.28 4.19h5a25.788 5.588 0 0 1-4.92.62 5.71 4.71 0 0 1 .23 8.8c-7.05-10.01 4.33-10.74 2.34-7.33 2.16-11.74 3.84-16.65 7.37a2.652 2.652 0 0 1-2.51-2.46c.2-.28 4.3-7.65 14.27-8.83z" fill="#2f2f2f"/><path d="M98.9 41.54c16.03 1.56 37.36-1.27 35.1-5.6 1.09-10.52-2.1-4.96-17.18-5.96-17.43-27.04-47.32-38.21-54.33z" fill="#eb8f00"/><d"><path d="M63.99 69.85c-11.71 0-20.18-6.62-24.27-17.66V54.14-77.32L64.41 81.42z" fill="#0d6e75"/><path d="M125.78 35.48s.81.47 21.74-1.78 22.68z" fill="#fa7928"/><path d="M78.73 85.15c-31.77 1.54-30.88-.86-26.18-6.68-2.49-7.41 1.65-9.26 12.38-11.41 6.77-11.99 14.95 1.59 19.34 11.92 2.72 7.08-1.55 16.4-6.02 18.31z"/><path fill="#FBB91E" d="M85.57 93.42c-10.24 4.07-24.94-.77-29.03-9.27-8.25-8.45 1.34-22.75 19.46-21.61 11.77z" fill="#2f2f2f"/><g fill="#2f2f2f"><path d="M64 9.56C1.59.92.95.21 29.66.53 23.28A48.15 26.71 47.67 50.01 67.76 21.03 65.46 0 0 1-4.24-8.48z"/></g><clipPath id="c"><use xlink:href="#b" overflow="visible"/></clipPath><path clip-path="url(#h)" fill="#ce453e" d="M113.13 49.54h2.62v34.69h-2.62z"/><path d="M111.12 94.14a2.66 2.66 0 0 1-3.46 0L20.86 46.67a2.134 2.134 0 0 0-1.72 2.48 2.14 2.14 0 0 0 2.1 1.75c.12 0 .25-.01.38.03.06.12.17.21.31.3l.04.01z" fill="#2f2f2f"/></d"></svg>
