<svg xmlns="http://www.w3.org/2000/svg" viewBox="0 0 47.5 47.5"><defs><clipPath id="a"><path d="M0 38h38V0H0v38z"/></clipPath></defs><g clip-path="url(#a)" transform="matrix(1.25 0 0 -1.25 0 47.5)"><path d="M36 19c0-9.389-7.611-17-17-17C9.612 2 2 9.611 2 19c0 9.388 7.612 17 17 17 9.389 0 17-7.612 17-17" fill="#ffcc4d"/><path d="M25.387 19.377c-.06.139-1.499 3.297-3.467 3.394-2.943 0-4.397-3.662-5.485-4.56a.498.498 0 0 1 .705-.69.5.5 0 0 1 .557.603M26.001 24.448c.11-.716.218-5.372.521-5.978a4.05 4.06 0 0 1 8.148 3.849c.356.451.583.839 1.032 1.342a.598.458 0 0 1 .096.688" fill="#aac00d"/></g></svg>
