<svg viewBox="0 0 32 32" xmlns="http://www.w3.org/2000/s<g" fill-rule="evenodd" clip-rule="evenodd" stroke-linejoin="round" stroke-miterlimit="1.414"><path fill="none" d="M0 0h32v32H0z"/><circle cx="16" cy="16" r="16"/><path d="M12.976 2.328A14.017 14.017 0 0 1 16 2c5.178 0 9.704 2.817 12.125 7.002.787 3.091 1.461 5.819 1.617 9.686C28.549 24.812 23.358 29.515 17 29.965c-2.429-.528-5.812-1.221-7.889-1.777a14.045 14.045 0 0 1-6.49-8.056c.213-3.091 2.481-11.543 2.75-13.24.246-.287.504-.564.772-.83.768-.153 5.658-2.965 6.233-3.734z" fill="#432a7e"/><path d="M9.111 28.188a3.002 3.002 0 1 1 5.72-.181A2.001 2.001 0 0 1 17 29.965a13.933 13.933 0 0 1-7.889-1.777zM5.371 6.892A5.004 5.004 0 0 0 10 10a4.995 4.995 0 0 0 4-2h2.5a3.5 3.5 0 1 1 0 7h-.173l.025.021A3.001 3.001 0 1 0 16 21a3.001 3.001 0 0 0 2.781-1.874 3.988 3.988 0 0 1 1.07 3.949A2.5 2.5 0 1 1 20.5 28a2.5 2.5 0 0 1-2.5-.5" fill="#f598f0"/></svg><path d="M33.906 13.095a3.001 3.001 0 0 1 2.121-4.159 3.517 3.517 0 0 1 1.112-1.319c.062.07.044.213.058.124v2.18V23a2 1 0 0 0-.799 1.707l2.394 8.224zM14.496 8.722a.993.993 0 0 1-.347 1.216c.089.101 3.067 2.48 6.247 2.885A18.962 16.961 0 0 0 18 20c3.693 0 4.074-.034 4.074-.021l-2.671-5.694a1 1 0 0 0-.887-.495l156.863-13 9.001-.197.01-1.635.001-5.758.044-6.154.044-6.064 1.231a1.001 1.001 0 0 1-1.058 4.05l9.981 2.947 1.995 1.993.025.025.025.025.029.026.027.025.033.024.035.029.034.03.035.027.033.031.03.035.027.036.026.037.024.038.023.04.022.04.02.041.019.04.019.041.017.04.018.041.019.04.021.04.021.039.022.039.021.039.021.048.024.047.025.046.026.045.03.043.03.042.031.04.032.039.035.036.037.033.04.03.041.029.041.026.042.024.042.022.044.02.045.017.045.016.045.013.047.011.047.009.048.006.047.004.049.002.048-.002.04.003.04-.005.039-.007.04-.018.04-.019.041-.019.04-.017.041-.015.042-.015.042-.015.042-.015.043-.014.043-.014.043-.014.043-.013.043-.012.043-.011.044-.011.044-.01.946-.081.047-.07.047-.069.047-.069.049-.069.049-.069.051-.07.052.07.052.06.073.069.027.067.029.067.039.065.04.064.049.064.049.063.049.06.051.05.052.052.051.051.048.049.048.047.05.046.053.039.056.036.058.031.061.027.062.023.065.019.066.013.066.01.068.004.068v.068l-.004.069-.01.067-.013.067-.019.066-.023.064-.027.063-.031.06-.036.059-.039.056-.043.053-.047.049-.05.047-.053.043-.056.04-.058.038-.06.031-.062.028-.063.024-.064.021-.066.018-.067.014-.068.008-.068.004h-.072l.567-.062.059-.084.058-.015.047-.017.049-.017.049-.025.048-.025.048-.023.049-.022.049-.022.049-.025.05-.027.049-.03.047-.033.046-.035.043-.037.042-.04.049-.043.046-.045.043-.047.04-.051.037-.052.034-.055.031-.057.028-.058.022-.06.018-.061.016-.062.012-.062.008-.062.004-.063L2 19.98l.002-.069.007-.06.015-.07.015-.07.014-.071.012-.071.012-.071.012-.071.019-.071.019-.071.019-.072.019-.072.019-.074.019-.074.019-.075.019-.074.02-.074.021-.074.022-.072.022-.073.024-.072.024-.071.024-.071.026-.071.027-.06.026-.06.02-.061.018-.062.014-.064.01-.066.008h.068l.068.002z" fill-rule="nonzero"/><path d="M16.174 5.018l.144-.095.141.09.103.002.098.002.108.011.098.007.098.004.097.002h1l.156.012.015.013.013.013.013.011.012.012.013.013.021.013.022.014.02.014.02.015.02.016.02.016.02.017.019.018.019.023.024 1.581 1.581.033.035.032.036.03.038.028.04.026.041.024.042.022.043.02.044.017.045.016.045.013.047.011.047.009.048.006.047.004.049.002.048-.001.048-.003.048-.005.049-.007.047-.01.048-.012.046-.015.046-.016.046-.019.044-.021.044-.023.043-.025.041-.027.04-.029.039-.031.037-.032.036-.034.034-.036.032-.037.031-.039.029-.04.027-.041.025-.043.023-.044.021-.044.019-.046.016-.046.015-.045.015-.047.013-.048.011-.047.01-.049.007-.047.005-.049.004-.048.002-.048-.001-.048-.003-.049-.005-.047-.007-.048-.01-.046-.012-.046-.015-.046-.016-.044-.019-.044-.021-.043-.023-.041-.025-.04-.027-.039-.029-.037-.031-.036-.032-.034-.034-.032-.036-.031-.037-.029-.039-.027-.04-.025-.041-.023-.043-.021-.044-.019-.044-.016-.046-.015-.046-.012-.046-.01-.048-.007-.047-.005-.049-.003-.048-.001-.048.002-.048.004-.049.006-.047.009-.048.011-.047.013-.047.016-.045.017-.045.02-.044.022-.043.024-.042.026-.041.028-.04.03-.038.032-.036.033-.035 1.581-1.581.023-.024.018-.019.017-.019.016-.02.016-.019.015-.021.015-.02.014-.021.013-.02.013-.021.012-.022.011-.021.012-.022.01-.022.01-.022.009-.022.009-.023.008-.022.008-.023.007-.024.007-.023.006-.023.005-.023.005-.024.004-.024.004-.024.003-.024.003-.024.002-.024.001-.024.001-.024.001-.024.002-.024.003-.024.003-.024.004-.024.004-.023.005-.024.005-.023.006-.024.007-.023.007-.023.008-.022.008-.023.009-.022.009-.022.01-.022.01-.022.011-.021.012-.022.012-.021.012-.021.013-.021.013-.02.015-.02.015-.028.017-.029.019-.028.02-.028.021-.027.022-.027.023-.026.024-.025.024-.024.026-.024.026-.022.027-.021.028-.021.028-.02.029-.018.03-.018.03-.016.031-.016.031-.014.032-.013.033-.012.032-.011.034-.009.033-.009.034-.007.034-.007.034-.005.034-.003.035-.003.034-.002h.035l.034.001zM19.026 10l.034.002.035.003.034.003.034.005.034.007.034.007.033.009.034.009.032.011.033.012.032.013.031.014.031.016.03.016.03.017.03.019.028.019.028.02.027.022.027.022.025.023.025.024 3 3 .024.025.023.025.022.027.022.027.02.028.019.028.019.03.017.03.016.03.016.031.014.031.013.032.012.033.011.032.009.034.009.033.007.034.007.034.005.034.003.034.003.035.002.034v.035l-.001.034-.002.035-.003.034-.005.034-.005.034-.007.034-.008.034-.009.033-.011.033-.011.033-.012.032-.014.031-.015.032-.016.03-.016.03-.018.03-.019.029-.02.028-.021.028-.022.027-.022.026-.024.025-.024.024-.025.024-.026.022-.027.022-.028.021-.028.02-.029.019-.03.018-.03.016-.03.016-.032.015-.031.014-.032.012-.033.011-.033.011-.033.009-.034.008-.034.007-.034.005-.034.005-.034.003-.035.002-.034.001h-.035l-.034-.002-.035-.003-.034-.003-.034-.005-.034-.007-.034-.008-.033-.009-.033-.01-.033-.011-.032-.012-.032-.013-.032-.014-.031-.016-.03-.016-.03-.017-.03-.019-.028-.019-.028-.02-.027-.022-.027-.022-.025-.023-.025-.024-3-3-.024-.025-.023-.025-.022-.027-.022-.027-.02-.028-.019-.028-.019-.03-.017-.03-.016-.03-.016-.031-.014-.031-.013-.032-.012-.033-.011-.032-.009-.034-.009-.033-.007-.034-.007-.034-.005-.034-.003-.034-.003-.035-.002-.034v-.035l.001-.034.002-.035.003-.034.005-.034.005-.034.007-.034.008-.034.009-.033.011-.033.011-.033.012-.032.014-.031.015-.032.016-.03.016-.03.018-.03.019-.029.02-.028.021-.028.022-.027.022-.026.024-.025.024-.024.025-.024.026-.022.027-.022.028-.021.028-.02.029-.019.03-.018.03-.016.03-.016.032-.015.031-.014.032-.012.033-.011.033-.011.033-.009.034-.008.034-.007.034-.005.034-.005.035-.004.034-.002.035-.001h.035zM12 13.014l.028.002.029.001.04.001.039-.003.04-.005.039-.006.039-.008.039-.01.038-.012.037-.013.037-.014.037-.016.037-.017.035-.019.036-.02.034-.021.034-.023.032-.024.032-.025.031-.026.029-.028.029-1.856 1.856 1.465.488.038.014.037.014.036.017.036.017.034.019.034.021.034.022.032.023.032.024.03.026.029.027.029.028.027.029.026.03.025.031.023.032.022.033.021.034.02.035.018.035.017.036.015.037.014.037.012.038.011.038.009.039.008.039.006.039.004.039.003.04.001.04v.049l-.002.04-.003.04-.005.039-.007.04-.008.039-.009.038-.011.038-.013.038-.014.037-.015.037-.017.036-.019.035-.02.035-.021.033-.022.033-.024.032-.025.031-.026.03-.027.029-.029.027-.03.027-.03.025-.032.024-.032.023-.034.022-.034.02-.035.019-.036.018-.036.016-.037.014-.038.013-.038.012-.038.01-.039.008-.039.007-.04.006-.039.003-.04.003h-.04l-.039-.001-.04-.002-.04-.004-.039-.006-.039-.007-.039-.009-.038-.01-.038-.012-4.087-1.362-.114-.484 3.81-3.81.029-.029.029-.028.029-.027.031-.025.032-.024.032-.023.034-.022.034-.02.035-.019.035-.018.037-.016.037-.015.038-.014 1.465-.488 1.456-.987.048-.028.049-.027.05-.024.051-.022.051-.018.053-.017.054-.015.054-.018.055-.019.053-.021.051-.023.053-.019.054-.018.054-.018.053-.021.052-.023.051-.025.05-.027.049-.029.048-.032.046-.035.044-.036.042-.039.041-.042.037-.044.036-.046.033-.047.03-.049.027-.051.024-.051.022-.053.018-.054.016-.055.013-.055.009-.056.007-.056.008-.056.011-.055.014-.055.017-.053.02-.053.023-.051.024-.059.028-.058.031-.056.039-.056.038-.055.039-.053.041-.053.041-.054.045-.056.041-.058.035-.069.035-.069.025-.069.025-.069.024-.069.024-.07.022-.071.021-.071.019-.071.019-.071.019-.071.019-.071.019-.071.019-.071.019-.072.019-.073.019-.075.019-.075.02-.074.021-.072.022-.073.024-.072.024-.071.026-.072.026-.072.028-.07.027-.069.028-.069.028-.069.025-.068.025-.069.024-.069.023-.07.023-.07.021-.07.02-.07.018-.07.016-.071.015-.071.013-.071.011-.072.009-.071.008-.072.006-.071.004-.072.003-.072.001-.072-.001-.072-.003-.071-.004-.072L25-11 10 20h-2.002h.002l.033.002.034-.005.034-.006.034-.007.034-.008.033-.01.033-.01.034-.012.033-.013.033-.014.032-.016.031-.016.03-.018.029-.019.029-.021.028-.021.027-.022.026-.024.026-.024.025-.025.024-.026.022-.027.022-.028.021-.028.02-.029.019-.03.018-.03.016-.03.016-.032.015-.031.014-.032.012-.033.011-.033.011-.033.009-.034.008-.034.007-.034.005-.034.005-.034.003-.035.002-.034.001h-.035l-.034-.002-.035-.003-.034-.003-.034-.005-.034-.007-.034-.007-.033-.009-.033-.009-.033-.011-.033-.012-.032-.013-.031-.014-.031-.016-.03-.016-.03-.017-.03-.019-.028-.019-.028-.02-.027-.022-.027-.022-.025-.023-.025-.024-3-3-.024-.025-.023-.025-.022-.027-.022-.027-.02-.028-.019-.028-.019-.03-.017-.03-.016-.03-.016-.031-.014-.031-.013-.032-.012-.033-.011-.032-.009-.034-.009-.033-.007-.034-.007-.034-.005-.034-.003-.034-.003-.035-.002-.034v-.035l.001-.034.002-.035.003-.034.005-.034.005-.034.007-.034.008-.034.009-.033.011-.033.011-.033.012-.032.014-.031.015-.032.016-.03.016-.03.018-.03.019-.029.02-.028.021-.028.022-.027.022-.026.024-.025.024-.024.025-.024.026-.022.027-.022.028-.021.028-.02.029-.019.03-.018.03-.016.03-.016.032-.015.031-.014.032-.012.033-.011.033-.011.033-.009.034-.008.034-.007.034-.005.034-.005.034-.003.035-.002.034-.001h.035zM12.043 11.001l.035.002.034.003.034.005.034.005.034.007.034.008.033.009.033.011.033.011.032.012.031.014.032.015.03.016.03.016.03.018.029.019.028.02.028.021.027.022.026.022.025.024.024.024.024.025.022.026.022.027.021.028.02.028.019.029.018.03.016.03.016.03.015.032.014.031.012.032.011.033.011.033.009.033.008.034.007.034.005.034.005.034.003.034.002.035.001.034v.035l-.002.034-.003.035-.003.034-.005.034-.007.034-.007.034-.009.033-.009.033-.011.033-.012.033-.013.032-.014.031-.016.031-.016.03-.018.03-.019.029-.02.028-.021.028-.022.027-.022.026-.024.025-.024.024-.025.024-.026.022-.027.022-.028.021-.028.02-.029.019-.03.018-.03.016-.03.016-.032.015-.031.014-.032.012-.033.011-.033.011-.033.009-.034.008-.034.007-.034.005-.034.005-.034.003-.035.002-.034.001h-.035l-.034-.002-.035-.003-.034-.003-.034-.005-.034-.007-.034-.007-.033-.009-.033-.009-.033-.011-.033-.012-.032-.013-.031-.014-.031-.016-.03-.016-.03-.017-.03-.019-.028-.019-.028-.02-.027-.022-.027-.022-.025-.023-.025-.024-3-3-.024-.025-.023-.025-.022-.027-.022-.027-.02-.028-.019-.028-.019-.03-.017-.03-.016-.03-.016-.031-.014-.031-.013-.032-.012-.033-.011-.032-.009-.034-.009-.033-.007-.034-.007-.034-.005-.034-.003-.034-.003-.035-.002-.034v-.035l.001-.034.002-.035.003-.034.005-.034.005-.034.007-.034.008-.034.009-.033.011-.033.011-.033.012-.032.014-.031.015-.032.016-.03.016-.03.018-.03.019-.029.02-.028.021-.028.022-.027.022-.026.024-.025.024-.024.025-.024.026-.022.027-.022.028-.021.028-.02.029-.019.03-.018.03-.016.03-.016.032-.015.031-.014.032-.012.033-.011.033-.011.033-.009.034-.008.034-.007.034-.005.034-.005.034-.003.035-.002.034-.001h.035zM12.043 11.001l.035.002.034.003.034.005.034.005.034.007.034.008.033.009.033.011.033.011.032.012.031.014.032.015.03.016.03.016.03.018.029.019.028.02.028.021.027.022.026.022.025.024.024.024.024.025.022.026.022.027.021.028.02.028.019.029.018.03.016.03.016.03.015.032.014.031.012.032.011.033.011.033.009.033.008.034.007.034.005.034.005.034.003.034.002.035.001.034v.035l-.002.034-.003.035-.003.034-.005.034-.007.034-.007.034-.009.033-.009.033-.011.033-.012.033-.013.032-.014.031-.016.031-.016.03-.017.03-.019.03-.019.028-.02.028-.022.027-.022.027-.023.025-.024.025-3 2-.025.024-.026.024-.027.022-.028.021-.028.02-.029.019-.03.018-.03.016-.03.016-.032.015-.031.014-.032.012-.033.011-.033.011-.033.009-.034.008-.034.007-.034.005-.034.005-.034.003-.035.002-.034.001h-.035l-.034-.002-.035-.003-.034-.003-.034-.005-.034-.007-.034-.007-.033-.009-.034-.009-.032-.011-.033-.012-.032-.013-.031-.014-.031-.016-.03-.016-.03-.017-.03-.019-.028-.019-.028-.02-.027-.022-.027-.022-.025-.023-.025-.024-3-3-.024-.025-.023-.025-.022-.027-.022-.027-.02-.028-.019-.028-.019-.03-.017-.03-.016-.03-.016-.031-.014-.031-.013-.032-.012-.033-.011-.032-.009-.034-.009-.033-.007-.034-.007-.034-.005-.034-.003-.034-.003-.035-.002-.034v-.035l.001-.034.002-.035.003-.034.005-.034.005-.034.007-.034.008-.034.009-.033.011-.033.011-.033.012-.032.014-.031.015-.032.016-.03.016-.03.018-.03.019-.029.02-.028.021-.028.022-.027.022-.026.024-.025.024-.023.025-.024.026-.022.027-.022.028-.021.028-.02.029-.019.03-.018.03-.016.03-.016.032-.015.031-.013.032-.012.033-.011.033-.01.034-.009.033-.008.034-.006.034-.005.035-.005.034-.003.034-.001L9 12h3l.035.001zM23.787 7.001l.042.003.042.004.041.006.042.008.04.009.041.012.039.013.04.014.038.016.038.018.037.027.036.027.034.027.033.029.032.029.031.031.03.032.031.032.031.031.03.035.032.036.032 1.333 1.581.05.035.052.033.056.031.058.03.051.027.05.026.049.034.047.033.046.034.044.036.042.038.039.041.039.04.038.033.039.035.037.036.036.038.036.03.038.03.04.028.041.026.042.024.043.022.043.02.045.017.045.016.046.013.046.011.047.009.048.006.047.004.049.002.048-.001.048-.003.048-.005.049-.007.047-.01.048-.012.047-.015.046-.016.046-.019.044-.021.044-.023.043-.025.041-.027.04-.029.039-.031.037-.032.036-.034.034-.036.032-.037.031-.039.029-.04.027-.042.025-.042.023-.044.021-.044.019-.046.016-.046.015-.046.012-.048.01-.047.007-.049.005-.048.003-.048.001-.048-.002-.049-.004-.047-.006-.048-.009-.047-.011-.047-.013-.045-.016-.045-.017-.044-.02-.043-.022-.042-.024-.041-.026-.04-.028-.038-.03-.036-.032-.035-.033-1.59-1.59-.05-.051-.053-.046-.054-.049-.049-.052-.038-.045-.037-.037-.036-.04-.032-.041-.03-.043-.027-.045-.025-.046-.023-.047-.02-.049-.017-.049-.015-.05-.012-.051-.01-.052-.007-.051-.004-.053L12 22l.001-.052.004-.053.007-.051.01-.052.012-.051.015-.04.017-.04.017-.039.018-.039.02-.039.022-.038.022-.037.024-.036.024-.035.025-.034.026-.033.027-.032.029-.031.029-.03.029-.03.03-.029.031-.029.03-.028.032-.027.032-.027.032-.026.031-.024.032-.023.032-.022.034-.021.034-.02.036-.019.035-.017.037-.016.037-.014.038-.013.038-.011.038-.01.039-.008.039-.007.04-.005.039-.004.04-.002h.04l.04.001zM9.03 13l.04.002.039.004.04.005.039.007.039.008.038.01.038.011.038.013.037.015.037.015.035.018.036.018.034.02.034.022.032.023.032.025.03.025.029.027.029.028.027.029.026.03.025.031.023.032.022.033.021.034.02.034.018.036.017.036.015.036.014.038.012.038.011.038.009.039.008.039.006.039.004.039.003.04.001.04v.049l-.002.04-.003.04-.005.039-.007.04-.008.039-.009.038-.011.038-.013.038-.014.037-.015.037-.017.036-.018.035-.02.035-.02.034-.022.033-.024.032-.024.031-.026.031-.027.029-.028.028-.029.027-.031.026-.031.024-.032.024-.033.022-.034.02-.035.02-.035.018-.037.016-.036.015-.038.014-.038.012-.038.01-.039.009-.039.008-.039.006-.04.004-.039.003-.04.001h-.04l-.04-.002-.039-.004-.04-.005-.039-.007-.039-.008-.038-.01-.038-.011-.038-.013-.037-.014-.037-.016-.035-.017-.036-.019-.034-.02-.034-.021-.032-.023-.032-.024-.031-.025-.029-.026-.029-.028L11 15.414l-1.293 1.293-.029.028-.029.026-.031.025-.032.024-.032.023-.034.021-.034.02-.036.019-.035.017-.037.016-.037.014-.038.013-.038.011-.038.01-.039.008-.039.007-.04.005-.039.004-.04.002h-.04l-.04-.001-.039-.003-.04-.004-.039-.006-.039-.008-.039-.009-.038-.01-.038-.012-.038-.014-.036-.015-.037-.016-.035-.018-.035-.02-.034-.02-.033-.022-.032-.024-.031-.024-.031-.026-.029-.027-.028-.028-.027-.029-.026-.031-.024-.031-.024-.032-.022-.033-.02-.034-.02-.035-.018-.035-.016-.037-.015-.036-.014-.038-.012-.038-.01-.038-.009-.039-.008-.039-.006-.039-.004-.04-.003-.039-.001-.04v-.04l.002-.04.004-.039.005-.04.007-.039.008-.039.01-.038.011-.038.013-.038.014-.037.016-.037.017-.035.019-.036.02-.034.021-.034.023-.032.024-.032.025-.031.026-.029.028-.029L21 11.586l2.707 2.707zM13.707 14.293l.028.029.026.029.025.031.024.032.023.032.021.034.02.034.019.036.017.035.016.037.014.037.013.038.011.038.01.038.008.039.007.039.005.04.004.039.002.04v.04l-.001.04-.003.039-.004.04-.006.039-.008.039-.009.039-.01.038-.012.038-.014.038-.015.036-.016.037-.018.035-.02.035-.02.034-.022.033-.024.032-.024.031-.026.031-.027.029-.028.028-.029.027-.031.026-.031.024-.032.024-.033.022-.034.02-.035.02-.035.018-.037.016-.036.015-.038.014-.038.012-.038.01-.039.009-.039.008-.039.006-.04.004-.039.003-.04.001h-.04l-.04-.002-.039-.004-.04-.005-.039-.007-.039-.008-.038-.01-.038-.011-.038-.013-.037-.014-.037-.016-.035-.017-.036-.019-.034-.02-.034-.021-.032-.023-.032-.024-.031-.025-.029-.026-.029-.028L21 14.414l-1.293 1.293-.029.028-.029.026-.031.025-.032.024-.032.023-.034.021-.034.02-.036.019-.035.017-.037.016-.037.014-.038.013-.038.011-.038.01-.039.008-.039.007-.04.005-.039.004-.04.002h-.04l-.04-.001-.039-.003-.04-.004-.039-.006-.039-.008-.039-.009-.038-.01-.038-.012-.038-.014-.036-.015-.037-.016-.035-.018-.035-.02-.034-.02-.033-.022-.032-.024-.031-.024-.031-.026-.029-.027-.028-.028-.027-.029-.026-.031-.024-.031-.024-.032-.022-.033-.02-.034-.02-.035-.018-.035-.016-.037-.015-.036-.014-.038-.012-.038-.01-.038-.009-.039-.008-.039-.006-.039-.004-.04-.003-.039L8 15.01v-.04l.002-.04.004-.039.005-.04.007-.039.008-.039.01-.038.011-.038.013-.038.014-.037.016-.037.017-.035.019-.036.02-.034.021-.034.023-.032.024-.032.025-.031.026-.029.028-.029L21 11.586l2.707 2.707zM13.707 14.293l.028.029.026.029.025.031.024.032.023.032.021.034.02.034.019.036.017.035.016.037.014.037.013.038.011.038.01.038.008.039.007.039.005.04.004.039.002.04v.04l-.001.04-.003.039-.004.04-.006.039-.008.039-.009.039-.01.038-.012.038-.014.038-.015.036-.016.037-.018.035-.02.035-.02.034-.022.033-.024.032-.024.031-.026.031-.027.029-.028.028-.029.027-.031.026-.031.024-.032.024-.033.022-.034.02-.035.02-.035.018-.037.016-.036.015-.038.014-.038.012-.038.01-.039.009-.039.008-.039.006-.04.004-.039.003-.04.001h-.04l-.04-.002-.039-.004-.04-.005-.039-.007-.039-.008-.038-.01-.038-.011-.038-.013-.037-.014-.037-.016-.035-.017-.036-.019-.034-.02-.034-.021-.032-.023-.032-.024-.031-.025-.029-.026-.029-.028L21 16.414l-1.293 1.293-.029.028-.029.026-.031.025-.032.024-.032.023-.034.021-.034.02-.036.019-.035.017-.037.016-.037.014-.038.013-.038.011-.038.01-.039.008-.039.007-.04.005-.039.004-.04.002-.04.001-.039-.001-.04-.002-.04-.005-.039-.005-.039-.007-.039-.009-.038-.01-.038-.012-4.087-1.362-.114-.484 3.81-3.81.029-.028.029-.026.031-.025.032-.024.032-.022.034-.021.034-.02.036-.019.035-.017.037-.016.037-.014.038-.013.038-.011.038-.01.039-.008.039-.007.04-.005.039-.004.04-.002h.04l.04.001zM13.002 19.002l.039.003.04.004.039.006.039.008.039.009.038.01.038.012.038.014.036.015.037.016.035.018.035.02.034.02.033.022.032.024.031.024.031.026.029.027.028.028.027.029.026.031.024.031.024.032.022.033.02.034.02.035.018.035.016.037.015.036.014.038.012.038.01.038.009.039.008.039.006.039.004.04.003.039.001.04v.04l-.002.04-.004.039-.005.04-.007.039-.008.039-.01.038-.011.038-.013.038-.014.037-.016.037-.017.035-.019.036-.02.034-.021.034-.023.032-.024.032-.025.031-.026.029-.028.029L20.414 15H22l.04.001.039.002.04.004.039.006.04.007.038.008.039.01.038.012.037.013.037.015.037.016.035.018.035.019.034.02.034.022.032.023.032.024.03.025.03.027.028.028.027.029.026.03.025.031.024.032.022.033.021.034.02.034.018.035.017.036.015.037.014.037.013.038.011.038.008.039.008.039.006.039.004.04.003.039.001.04v.04l-.002.04-.004.039-.005.04-.007.039-.008.039-.01.038-.011.038-.013.038-.014.037-.016.037-.017.035-.019.036-.02.034-.021.034-.023.032-.024.032-.025.031-.026.029-.028.029L20.414 15H22l.04.001.039.002.04.004.039.006.04.007.038.008.039.01.038.012.037.013.037.015.037.016.035.018.035.019.034.02.034.022.032.023.032.024.03.025.03.027.028.028.027.029.026.03.025.031.024.032.022.033.021.034.02.034.018.036.017.036.016.036.014.035.013.038.011.038.01.038.008.039.007.039.005.04.004.039.002.04v.04l-.001.04-.003.039-.004.04-.006.039-.008.039-.009.039-.01.038-.012.038-.014.038-.015.036-.016.037-.018.035-.02.035-.02.034-.022.033-.024.032-.024.031-.026.031-.027.029-.028.028-.029.027-.031.026-.031.024-.032.024-.033.022-.034.02-.035.02-.035.018-.037.016-.036.015-.038.014-.038.012-.038.01-.039.009-.039.008-.039.006-.04.004-.039.003-.04.001h-.04l-.04-.002-.039-.004-.04-.005-.039-.007-.039-.008-.038-.01-.038-.011-.038-.013-.037-.014-.037-.016-.035-.017-.036-.019-.034-.02-.034-.021-.032-.023-.032-.024-.031-.025-.029-.026-.029-.028L21 14.414l-1.293 1.293-.029.028-.029.026-.031.025-.032.024-.032.023-.034.021-.034.02-.036.019-.035.017-.037.016-.037.014-.038.013-.038.011-.038.01-.039.008-.039.007-.04.005-.039.004-.04.002h-.04l-.04-.001-.039-.003-.04-.004-.039-.006-.039-.008-.039-.009-.038-.01-.038-.012-.038-.014-.036-.015-.037-.016-.035-.018-.035-.02-.034-.02-.033-.022-.032-.024-.031-.024-.031-.026-.029-.027-.028-.028-.027-.029-.026-.031-.024-.031-.024-.032-.023-.032-.021-.033-.02-.035-.019-.035-.017-.036-.016-.037-.015-.037-.013-.037-.011-.038-.01-.038-.008-.039-.007-.039-.005-.04-.004-.039L8 14.03v-.04l.001-.04.003-.039.004-.04.006-.039.008-.039.009-.039.01-.038.012-.038.014-.037.015-.037.016-.036.018-.036.02-.035.021-.034.022-.033.024-.032.025-.031.026-.03.027-.029.029-.028.029-.027.03-.025.032-.025.032-.023.034-.022.034-.02.034-.019.036-.018.036-.016.037-.015.038-.013.038-.011.038-.01.039-.008.039-.007.04-.005.039-.004.04-.002h.04l.04.001zM9.03 13l.04.002.039.004.04.005.039.007.039.008.038.01.038.011.038.013.037.015.037.015.035.018.036.018.034.02.034.022.032.023.032.025.03.025.029.027.029.028.027.029.026.03.025.031.023.032.022.033.021.034.02.034.018.036.017.036.015.036.014.038.012.038.011.038.009.039.008.039.006.039.004.039.003.04.002.04v.039l-.002.04-.003.04-.005.039-.007.04-.008.039-.009.038-.011.038-.013.038-.014.037-.015.037-.017.036-.019.035-.02.035-.021.033-.022.033-.024.032-.025.031-.026.03-.027.029-.029.027-.03.027-.03.025-.032.024-.032.023-.034.022-.034.02-.035.019-.036.018-.037.016-.037.015-.038.014-.038.012-.038.011-.039.009-.039.007-.039.006-.04.004-.04.002-.039.001-.04v-.049l.02-.04.015-.041.015-.042.014-.042.012-.043.011-.043.011-.044.009-.044.008-.044.006-.045.005-.044.003-.045.003-.045.002-.046.001-.045.001-.045.002-.046.004-.046.003-.046.003-.046.002-.046.001-.045.002-.045.004-.044.007-.044.008-.043.01-.043.012-.043.014-.042.016-.042.018-.042.019-.04.02-.041.02-.041.021-.043.021-.044.02-.045.017-.045.016-.047.014-.048.012-.048.01-.047.009-.048.006-.047.004-.049.002-.048-.001-.048-.003-.049-.005-.047-.007-.048-.01-.046-.012-.046-.015-.046-.016-.044-.019-.044-.021-.043-.023-.041-.025-.04-.027-.039-.029-.037-.031-.036-.032-.034-.034-.032-.036-.031-.037-.029-.039-.027-.04-.025-.041-.023-.043-.021-.044-.019-.044-.016-.046-.015-.046-.012-.046-.01-.048-.007-.047-.005-.049-.003-.048-.001-.048.002-.048.004-.049.006-.047.009-.048.011-.047.013-.047.016-.045.017-.045.02-.044.022-.043.024-.042.026-.041.028-.04.03-.038.032-.036.033-.035 1.581-1.591.023-.024.018-.019.017-.019.016-.02.016-.02.015-.021.017-.022.016-.021.015-.02.014-.021.013-.02.013-.021.012-.022.011-.021.012-.022.01-.022.01-.022.009-.022.009-.023.008-.022.008-.023.007-.023.007-.024.006-.023.005-.024.005-.023.004-.024.004-.024.003-.024.003-.024.002-.024.001-.024.001-.024.001-.024.002-.024.003-.024.003-.024.004-.024.004-.023.005-.024.005-.023.006-.024.007-.023.007-.023.008-.022.008-.023.009-.022.009-.022.01-.022.01-.022.012-.021.012-.022.013-.021.013-.02.014-.021.013-.02.015-.02.015-.02.016-.02.016-.019.017-.019.018-.024.023-1.261 1.581-.035.033-.036.032-.038.03-.04.028-.041.026-.042.024-.043.022-.044.02-.045.017-.045.016-.047.013-.047.011-.048.009-.047.006-.049.004-.048.002-.048-.001-.048-.003-.049-.005-.047-.007-.048-.01-.046-.012-.046-.015-.046-.016-.044-.019-.044-.021-.043-.023-.041-.025-.04-.027-.039-.029-.037-.031-.036-.032-.034-.034-.032-.036-.031-.037-.029-.039-.027-.04-.025-.041-.023-.043-.021-.044-.019-.044-.016-.046-.015-.046-.012-.046-.01-.048-.007-.047-.005-.049-.003-.048-.001-.048.002-.048.004-.049.006-.047.009-.048.011-.047.013-.047.016-.045.017-.045.02-.044.022-.043.024-.042.026-.041.028-.04.03-.038.032-.036.033-.035 1.581-1.581.023-.024.018-.019.017-.019.016-.02.016-.02.015-.02.015-.02.014-.021.013-.02.013-.021.012-.022.012-.022.011-.022.01-.022.01-.022.01-.022.009-.022.009-.023.008-.022.008-.023.007-.023.007-.024.006-.023.005-.024.005-.023.004-.024.004-.024.003-.024.003-.024.002-.024.001-.024.001-.024.001-.024.001-.024.001-.024.002-.024.003-.024.003-.024.004-.024.004-.023.005-.024.005-.023.006-.024.007-.023.008-.023.008-.022.009-.023.01-.022.011-.021.012-.022.012-.021.013-.02.014-.021.013-.02.015-.02.015-.02.016-.02.016-.019.017-.019.018-.024.023-1.164 1.261-.035.04-.036.04-.036.04-.034.041-.034.041-.038.041-.039.043-.038.045-.036.046-.034.048-.032.049-.031.04-.035.042-.036.044-.035.047-.031.047-.03.049-.029.05-.027.051-.023.051-.022.051-.018.05-.017.049-.017.04-.019.04-.02.041-.022.04-.023.042-.024.042-.023.041-.023.049-.022.041-.023.04-.025.04-.027.04-.028.039-.028.038-.029.037-.03.037-.031.036-.03 .035-.032.033-.035.032-.037.031-.04.028-.04.026-.041.024-.042.022-.043.02-.044.017-.044.016-.046.013-.046.011-.048.01-.047.007-.049.005-.048.003-.048.001-.048-.002-.049-.004-.047-.006-.048-.009-.047-8.126-4.31-.114-.043-.125-.044-.115-.044-.116-.037-.115-.039-.115-.043-.113-.045-.112-.048-.111-.051-.111-.053-.111-.054-.113-.053-.115-.048-.114-.045-.114-.047-.113-.045-.116-.044-.115-.042-.115-.042-.114-.045-.113-.045-.113-.047-.112-.048-.111-.05-.109-.052-.109-.053-.109-.054-.109-.053-.109-.054-.109-.054-.108-.059-.107-.061-.106-.062-.105-.064-.104-.066-.103-.069-.102-.071-.1-.074-.08-.076-.077-.076-.077-.075-.077-.073-.078-.071-.079-.07-.099-.071-.098-.072-.097-.074-.097-.077-.096-.078-.094-.082-.093-.082-.092-.082-.091-.081-.091-.08-.09-.089-.089-.088-.088-.087-.097-.088-.096-.088-.094-.088-.093-.089-.063-.079-.064-.077-.064-.076-.067-.073-.069-.026-.069-.022-.069-.022-.07-.021-.07-.021-.07-.019-.07-.016-.071-.015-.07-.013-.071-.012-.071-.009-.072-.008-.071-.006-.072-.004-.071-.003-.072L25.828 8l.001-.057.004-.068.009-.067.013-.066.018-.065.024-.063.029-.062.034-.06.037-.058.038-.056.038-.056.039-.055.04-.059.041-.06.04-.062.04-.062.038-.063.037-.064.035-.065.031-.065.032-.066.029-.067.028-.068.026-.067.023-.069.024-.07.021-.069.02-.071.016-.07.015-.07.014-.071.012-.071.011-.072.009-.071.008-.072.006-.071.004-.072.003-.072.001-.072-.001-.072-.003-.071-.004-.072L9 3 .79l.001-.036.071-.04.069-.037.069-.038.068-.037.068-.037.078-.037.087-.037.087-.038.086-.041.086-.043.084-.045.083-.048.083-.049.082-.05.082-.052.081-.054.08-.054.071-.055.074-.055.077-.055.077-.052.077-.05.079-.051.081-.05.08-.049.08-.047.089-.046.08-.046.082-.035.083-.03.084-.028.085-.027.086-.018.087-.013.086-.009.084-.01.094-.01.095-.008.095-.008.095-.014.094-.015.093-.01.093-.01.092-.009.092-.012.092-.012.093-.01.093.009.092.011.092.012.09.015.09.017.099.017.09.019.09.019.099.019.099.022.098.023.098.024.098.025.098.025.098.025.098.023.098.02.099.017.098.016.098.015.098.012.098.012.098.009.097.006.098.004.098.002.068.001.068.001.069.004.068.01.067.016.066.019.064.023.062.027.061.032.058.036.056.039.053.049.05.051.047.057.044.057.043.058.042.058.041.06.038.06.037.072.036.073.034.074.031.063.029.065.029.067.028.068.027.067.027.067.031.066.031.066.031.065.03.063.031.073.035.072.035.071.036.072.038.072.039.063.04.062.04.062.04.064.038.066.035.066.035.066.034.066.031.066.03.068.028.067.027.069.025.069.023.069.021.07.02.07.018.07.016.07.015.071.013.071.011.071.009.072.008.071.006.072.004.071.003.072.001.072-.001.072-.003.072-.004.071-.006.072-.008.071-.009.072-.011.071-.013.071-.015.071-.016.07-.018.07-.02.07-.021.07-.024.069-.024.068-.027.069-.029.067-.03.067-.031.067-.034.065-.035.065-.037.065-.039.064-.04.063-.043.062-.043.061-.046.06-.047.059-.049.059-.05.058-.05.058-.052.057-.052.056-.053.056-.054.057-.056.877-.877.05-.047.053-.043.056-.039.058-.036.061-.031.062-.027.064-.023.066-.019.067-.013.068-.01.068-.004h.068l.068.004z"/></svg>
