<svg xmlns="http://www.w3.org/2000/svg" viewBox="0 0 47.5 47.5"><defs><clipPath id="a"><path d="M0 38h38V0H0v38z"/></clipPath></defs><g clip-path="url(#a)" transform="matrix(1.25 0 0 -1.25 0 47.5)"><path d="M36 19c0-9.389-7.611-17-17-17S2 9.611 2 19s7.611 17 17 17 17-7.611 17-17" fill="#dadbca"/></g><circle cx="64.93" cy="10.14" r="3.6" fill="#406e40"/><path d="M17 19.5c13 0 1-.854-.993.995-2.999.998.995 20.431.711 30.308 5.694.815.825 1.007 1.192 1.08 2.689 0a.599.799 0 0 0 .138.906 1.498.005zM29.01 18.564c.098 1.459-.991 1.758-1.496.955.985 1.683 1.419 3.583.705 3.009.156.326.629.349.637a4.012 4.012 0 0 1-2.325 1.12 5.52 5.53 0 0 1-6.958-2.942L2 19z" fill="#cf"/><path d="M13 16.498c0-.827-.671-1.297-1.469-1.088-2.023 0-1.278 1.178-3.072 2.07-4.678 2.399-1.371 4.183-4.322 2.48-5.705.626.534 1.223.477 1.167 0 2.438-1.841 3.398-2.733 3.998a.5.5 0 0 1-.713-.658c.05-.09 1.038-.022 2.089-.637.776-.728.512-2.157.269-3.238a6.004 3.003 0 0 1-.96-3.318 8.025 7.025 0 0 1-.51-1.933 5.527 5.527 0 0 1 1.552-.565c.146-.015.207-.042.216-.073a.476.476 0 0 1-.072.601c-.371 0-1.459.009-2.23.045-1.318 0-2.43.28-5.36 0-13.546 15.851-22.565 32-.76.025 0 .015-.01.012-.019.026-.101.007-.018.015-.027.041-.085.041-.825a1.04 1.04 0 0 1-.447-.438 1.364 1.346 0 0 1 1.552-.561c.175.009.14.014.217.007 1.731.305 2.555.041 1.003.068 1.499-.007c.029-.005.147-.057.397-.503h.002L12 15.586c-2.6 0-4.455-1.103-6.766-2.623-1.018-1.418-1.813-4.068-2.483-6.274.146-1.902.953-4.73 2.241-6.767 4.317-4.826 7.777 1.054 15.758 1.995 27.999" fill="#fca640"/><path d="M9.976 11.384a.561.561 0 0 0-.1-.077.63c.141 1.394.637 3.273.348 3.176.448 1.997.679 3.588 1.211 3.403 1.173.176-.028.451-.545.694-1.126.26-.681.23-1.436.239-2.066-.108-.375-.315-.788-.523-1.17-1.018-2.177-2.311-3.371-4.278-.053-.652.041-1.073.173-1.573.212a17.92 17.92 0 0 1-1.602-3.028 340.826 36.626 0 0 1 0-6.202 16.033 16.033 0 0 1-2.973-.742 26.666 226.606 0 0 1 0-3.313 14.02 14.01 0 0 0 5.022-3.254A13.981 13.98 0 0 1 10.545-4.994h-24.566c1.104 0 2.236.373 2.753 1.985L9.456 22.884a3.315 3.115 0 0 1-.312-.332A3.403 3.503 0 0 1 f18 10.051c0 .79.016 1.277.083 2.556 0 1.358-.059 1.992-.998 1.998h-.002c-.833 0-6.802.428-6.142 2.328a1.037 1.037 0 0 0-1.01.607-.014-.038-.013-.037-.013-.175-.036-.237-.027-.081.001-5.774-1.674-9.022-.789-1.771-1.008-3.07-1.899-4.843-.271-1.631.472-3.664 2.194-3.292a16.662 16.662 0 0 1-2.122-3.051 16.028 16.028 0 0 1-4.023-2.706 12.058 12.058 0 0 1-4.48-2.363 12.049 12.049 0 0 1-2.705-4.315 c00.059-.005.054.007.045.01.052.012.053.014.053.019.074.022.086.02.087.009.077.0069.068.01.067.013.066.018.064.023.062.027.061.031.058.036.056.039.053.043.05.047.047.05.043.053.039.056.036.058.031.061.027.062.023.065.019.066.013.066.01.068.004.068v.068l-.004.069-.01.067-.013.067-.019.066-.023.064-.027.062-.031.061-.036.058-.039.056-.043.053-.047.05-.881.881-.071.07-.073.071-.075.07-.075.069-.076.068-.077.067-.077.066-.078.064-.079.064-.08.063-.08.062-.081.061-.082.059-.082.059-.083.058-.084.057-.084.056-.085.054-.086.054-.086.052-.087.051-.087.05-.088.049-.089.048-.089.047-.089.046-.09.044-.091.044-.091.042-.092.041-.092.041-.093.039-.093.038-.093.036-.094.036-.095.034-.095.033-.096.031-.096.03-.096.028-.097.028-.097.026-.098.025-.098.024-.098.023-.098.022-.099.02-.099.019-.1.018-.1.017-.1.016-.1.014-.1.013-.101.012-.101.011-.101.009-.102.008-.101.007-.102.006-.102.004-.102.003-.102.002-.1.001h-.006l-.1-.001-.102-.002-.102-.003-.102-.004-.102-.006-.101-.007-.102-.008-.101-.009-.101-.011-.101-.012-.1-.013-.1-.014-.1-.016-.1-.017-.1-.018-.099-.019-.099-.02-.098-.022-.098-.023-.098-.024-.098-.025-.097-.023-.098-.023-.098-.024-.098-.025-.098-.026-.097-.028-.096-.029-.016-.04-.015-.041-.013-.042-.011-.042-.01-.042-.008-.042-.007-.042-.005-.043-.004-.043-.003-.043-.002-.043-.002-.043-.001h-.081l-.041.001-.04-.001-.04-.002-.04-.005-.039-.003-.04-.002-.04v-.049l.002-.04.003-.04.004-.039.006-.039.008-.039.009-.039.01-.038.012-.038.014-.037.015-.036.016-.036.018-.036.02-.034.021-.034.022-.033.023-.032.025-.031.026-.03.027-.029.029-.028.029-.027.03-.025.032-.025.032-.023.034-.022.034-.02.034-.019.036-.018.036-.016.037-.015.038-.013.038-.011.038-.01.039-.008.039-.007.04-.005.039-.004.04-.002h.04l.04.001zM9.03 12l.04.002.039.004.04.005.039.007.039.008.038.01.038.011.038.013.037.015.037.016.035.018.035.019.035.02.034.021.032.023.032.024.031.025.029.026.029.028L21 14.586l1.293-1.293.029-.028.029-.026.031-.025.032-.024.032-.023.034-.021.034-.02.036-.019.035-.017.037-.016.037-.014.038-.013.038-.011.038-.01.039-.008.039-.007.04-.005.039-.004.04-.002h.04l.04.001zM12 13.5a1.503 1.503 0 0 0-1.5-1.5A1.503 1.503 0 0 0 9 13.5v2a1.503 1.503 0 0 0 1.5 1.5 1.503 1.503 0 0 0 1.5-1.5v-2zM23 12.498c0-.827-.671-1.498-1.498-1.498h-.004c-.827 0-1.498.671-1.498 1.498v2.004c0 .827.671 1.498 1.498 1.498h.004c.827 0 1.498-.671 1.498-1.498v-2.004z"/></svg>
