<svg xmlns="http://www.w3.org/2000/svg" width="128" height="128" viewBox="0 0 128 128"><path fill="#FFF" d="M50.61 20.62c2.88 3.34 4.71 6.86 5.81 6.66 3.32 2.25 4.68 3.69 5.52 9.61 5.46 6.28 2.75 14.04 3.51 21.01 3.64.86 1.32 1.81 2.84.82 3.6-1.76 3.33-3.85 7.2-5.21 5.32-2.63 10.7-4.46 15.27-6.03 3.19-.65 6.69 1.74 9.82 5.03 6.64 13.59-6.93 14.31-13.03.84-1.04 1.31-2.28.14-3.49-.1-1.46-1.21-2.22-2.49-2.26-4.05-3.32-3.88-7.26-7.86-10.36-9.3-1.95-.56-3.41-1.13-4.98-1.71-1.45-.81-2.29-1.67-3.31-2.07-.9-.2-1.88.2-2.88.81-.24 0-.44-.08-.64-.41-7.13-4.43-19.7-9.34-18.94-12.92a2.31 2.21 0 0 1-1.99-3.11c-.75-.24-1.78-.81-2.41-1.01-.61-.51-1.01-1.3-1.41-2.23-.37-.9-.75-1.44-1.72-2.18-.88-.64-1.97-1.74-4.15-2.21-1.31-.47-2.24-.16-2.91-.86-2.17-.84-4.13-2.89-5.04-5.62-1.6-2.97-9.54-5.45-18.41-5.71-30.82-5.56-.95-12.75 2.29-19.75 3.47z" fill="url(#b)"/><path d="M38.46 67.98c.04-.21.14-.36.28-.56.21-.42.65-.68 1.13-.71s1.83.9 1.88 2.13c.41.04.98.12 1.45.48.67.43 1.3.83 1.19 1.73.18.34.43.73.63 1.27.18.68.45 1.07.89 1.12.35.03.69-.12 1.04-.12 1.12-.46 1.67-1.37 1.06-2.55.31-.49.15-1.09.71-1.78.12-.65.17-1.47.33-1.66.05-.93-.17-1.87-.81-1.68-.55-.44-1.27-.62-1.69-1.16-.09-.33-.13-.62-.42-.66-.64-.32-.01.08-.04.16-.1.68-.08 2.21-.32 3.58-.48 5.18-.62.57-.38 1.01-.81 1.52-1.4.31-1.19.02-2.86-.04-4.78l-.06-.05c.22-.16.45-.19.66-.42a23.36 27.26 0 0 1-3.99-2.12c-1.01-.66-2.15-.49-3.07-.62-.96-.32-2.42-.5-3.37-.52-.98-.33-2.14-.82-3.7-1.38-1.2-1.25.66-2.87 1.2-3.42.56-.6 1.33-1.22 1.83-1.19 1.03-1.46 3.08-.89 3.88.76.15 11.89 2.8 18.65 2.55 13.54-1.52 28.68-2.98 7.8-15.65 7.82-20.26.4-.86.55-1.69-.15-2.33-.16zm57.63-36.13c-.14.27-.28.75-.52.74-.46 1.41.64 13.57 1.4 3.43 4.89 5.03 17.44.5 10.39-3.76 5.64-10.06 19.52-10.62 31.33-.43 8.9 2.19 18.73 3.98 2.63 0 6.5-2.74 6.54-4.2.5-.97 1.74-2.54 1.36-4.57 1.58-1.48 5.31-1 8.38-2.43.07.01.06.01.1.01.15-.01.01-.07-.01-.16-.04-.25-.09-.66.08-.27.16a1.666 1.666 0 0 1-.338-.735c-1.58 0-3.08.86-2.08 3.01-3.1 3.37-7.66 5.23-11.75 5.81-3.88-3.95-9.19-8.44-17.24-9.73-8.77 5.95-6.28 13.49-.9 18.49z"/></svg></clipPath></svg>
