<svg viewBox="0 0 32 32" xmlns="http://www.w3.org/2000/svg" fill-rule="evenodd" clip-rule="evenodd" stroke-linejoin="round" stroke-miterlimit="1.414"><path fill="none" d="M0 0h32v32H0z"/><circle cx="16" cy="16" r="16"/><path d="M12.976 2.328A14.017 14.017 0 0 1 16 2c5.178 0 9.704 2.817 12.125 7.002.787 3.091 1.461 5.819 1.617 9.686C28.549 24.812 23.358 29.515 17 29.965c-2.429-.528-5.812-1.221-7.889-1.777a14.045 14.045 0 0 1-6.49-8.056c.213-3.091 2.481-11.543 2.75-13.24.246-.287.504-.564.772-.83.868-.153 5.658-2.965 6.833-3.734z" fill="#432a7e"/><path d="M9.111 28.188a3.002 3.002 0 1 1 5.72-.181A2.001 2.001 0 0 1 17 29.965a13.933 13.933 0 0 1-7.889-1.777zM5.371 6.892A5.004 5.004 0 0 0 10 10a4.995 4.995 0 0 0 4-2h2.5a3.5 3.5 0 1 1 0 7h-.173l.025.021A3.001 3.001 0 1 0 16 21a3.001 3.001 0 0 0 2.781-1.874 2.998 2.998 0 0 1 1.998 1.309A15.946 13.966 0 0 0 16 10c0 3.787 2.622 5.8 2.928 8.989A18.962 16.962 0 0 1 17 20c6.577 0 12-6.372 12-12s14.957 11 9" fill="#ffcc4d"/><path d="M32.404 13.295a.498.498 0 0 1-.542.06c-.039.065-.072.147-.232.207-.271.363-.112.591-.223 1.005-.547 1.007-1.012 1.566-.456 1.959-1.106 2.045-.563a1.878 1.878 0 0 1 .912-1.054c.61-.367 1.27-.077 2.18.388.357.257.362.769.598 1.067a4.003 4.003 0 0 1-2.323 1.02 4.664 5.664 0 0 1-2.822-.584 26.165 125.615 0 0 0-8.309-3.834 15.033 15.033 0 0 1-3.992-2.762 12.04 12.04 0 0 1-.093-4.614 18.012 16.022 0 0 1 0-4.381 6.94 7.94 0 0 1-1.999-5.386 8.896 8.866 0 0 0-3.842-.914 68.046 16.045 0 0 1 3.668-2.131L26 17z" fill="#8b5e3c"/><path d="M14.65 17.09c-.07.167-1.187 2.279-1.727 2.553-2.18a.584.583 0 0 1 .601.014c-.013.019-.001 2.275-.003 3.12a3.06 3.06 0 0 1-3.087-.035 3.535 3.935 0 0 1 .653-.683c.134-.024.178-.012.374 0 .015-.017.046-.013.076-.009.147-.013.317-6.624 2.615-1.272a1.048 1.04 0 0 1 .747-.204c.669.233 1.377.479 2.134.64a1.018 1.018 0 0 1 .073-.727c.133.012.277.035.367.157.694 1.107 1.095 0 1.336-.043.821l-.001.126a3.202 3.002 0 0 1 3.032-.708c.366.02.558.076.978.201h.001z" fill-rule="nonzero"/><path d="M19 10.5c0-1.934-1.119-3.5-2.5-3.5S10 18.569 10 8h10a2 2 0 0 0-2 2v1c0 1.652-.06 3.029-.471 2.501v2.029z"/></svg>
