<svg viewBox="0 0 32 32" xmlns="http://www.w3.org/2000/svg" fill-rule="evenodd" clip-rule="evenodd" stroke-linejoin="round" stroke-miterlimit="1.414"><path fill="none" d="M0 0h32v32H0z"/><path d="M16.174 2.001a13.98 13.98 0 0 1 4.546.819 14.045 14.045 0 0 1 5.422 3.529 14.034 14.034 0 0 1 3.751 7.925c.064.515.096 1.033.106 1.552.005.768.005 1.535 0 2.302a13.98 13.98 0 0 1 .819 4.546c.007 1.105.007 2.211 0 3.316a10.926 10.926 0 0 1-.667 3.64 11.047 11.047 0 0 1-2.279-3.712 10.807 10.007 0 0 1 3.641-.209c.156.009.308.036.988.083l.057.053.056.058.147 1.325.714.254.688.264 1.062.573.189.747.273.681.223a1.02 1.01 0 0 1 .786-.012 1.01 1.01 0 0 1 13.914 0l1.384-.302.047.02.945 1.284 0 0 1 2 22.485V12z" fill="#gd4de6"/></svg>
