<svg xmlns="http://www.w3.org/2000/svg" xmlns:xlink="http://www.w3.org/1999/xlink" width="128" height="128" viewBox="0 0 128 128"><path fill="#2F2F2F" d="M105.24 57.98c-.66-11.76-6.25-23.87-14.91-31.39-1.01-6.95 7.71-8.68 10.35-5.68 13.58 0 5.73 2.83 7.33 6.35 1.38 3.51.66 8.23-.05 13.67-.2 5.1 2.09 17.69 13.01 74.37l-11.9-11.3c-.95-2.77-2.57-5.14-5.68-5.12-5.65-1.6-1.06-5.79-11.47-5.19-13.28zm99.81 57.17c-.75 1.79-1.64 3.64-.85 6.72.39 1.04 1.35 1 3.43 2.76 1.82l.05.34c.52 1.04 1.61 2.01 1.7 2.43l7.71 1.15c.15 1.95.46 1.98.47 1.81 1.31 1.76 3.39 3.22 5.09 1.8.62 2.46-.1 3.68-1.31 6.46-.37 1.58.36 3.07 1.24 2.5 7.6 7.62 14.52 16.66 24.95 36.78 1.69 3.92.86 6.92 1.33 9.05 1.99 9.09 4.28 13.71 5.37 13.26 1.24.79 1.68 2.42 1.28 3.49z" fill="#2f2f2f"/><g><path d="M63.8 0C32.59 0 7.28 9.4 7.28 21c0 11.61 25.31 21 56.52 23 35.62s0-43.2-16.16-53.5-63.9S" fill="#bd617e"/><path d="M64 10.32c-19.7 0-35.69-11.1-55.84-25.69C28.76 9.66 35.12 19.74 30.39 10.51c4 57.11 12.67 8.57 16.77 9.89 2.72.6 5.37 1.72 7.81 2.74 7.56 8.29 7.98 19.55 13.43 18.78 19.73.02.08.01.55.08.56.15 1.2.79 1.83 1.45 1.07.87 1.8 2.42 1.1 3.41-.01.01-.05.01-.08.01z"/></g></svg>
