<svg xmlns="http://www.w3.org/2000/svg" viewBox="0 0 47.5 47.5"><defs><clipPath id="a"><path d="M0 38h38V0H0v38z"/></clipPath></defs><g clip-path="url(#a)" transform="matrix(1.25 0 0 -1.25 0 47.5)"><path d="M37 17C37 7 26 15 15 6" fill="#d79e84"/><path d="M4 36c-2.507 0-5.933-.726-8.486-3.293A1.192 1.996 0 0 1 3 12.017c.18 0 .507.105.879.969 1.15a.797.497 0 0 0-.198.61.503.503 0 0 1 .231-.541.51.515 0 0 0 .596.5" fill="#292333"/><path d="M30 32c-1.556 0-2.849.324-4.796.955a.997.997 0 0 0-.592.038c-.013-.01-1.261-.902-3.702-.902s-3.691.892-3.701.9a.5.5 0 0 1-.757-.903c.059-.15 1.506-.96 1.5-.99.73-.33 1.92-.812 3.375-1.33 1.05-4.445 1.74-6.629-.177-2.16a4.654 6.656 0 0 0 2.294-.942c.319-.081.815-.066 1.377.08.505 0 1.164-.133 1.045-.089 1.318C20.846 25.328 26.794 3 27 32a1.295 1.995 0 0 0-1.484 1.42a5.5 5.5 0 1 0 16 0 18a2 1 0 0 0 1-1M8 17a1 1 0 0 0-1.96.887C13.968 14.951 2.481 18 8.967 1 19c-1.482 0-3-1.544-3-3s1.849 3 0 1 3c2.16 0 5.393-.043 6.782-3.293A1 1 0 0 0 16 17" fill="#292f33"/></g></svg>
