<svg xmlns="http://www.w3.org/2000/svg" viewBox="0 0 47.5 47.5"><defs><clipPath id="a"><path d="M0 38h38V0H0v38z"/></clipPath></defs><g clip-path="url(#a)" transform="matrix(1.25 0 0 -1.25 0 47.5)"><path d="M36 19c0-9.389-7.611-17-17-17S2 9.611 2 19s7.611 17 17 17 17-7.611 17-17" fill="#ffcc4d"/><path d="M24 10c0-3.314-2.238-6-5-6s-5 2.686-5 6c0 3.313 2.218 6 5s6 2.685 5 3 15h-18s-1 1 1 1 0 0 0-2.956.095l-6 0A9 19 0 0 0 7 9" fill="#b89a84"/><path d="M24 17h-7h6v1v4h4zM18 17h-4v4h-5z"/></g><path d="M17 10.171V11c-.417 0-.708.166-.647.258a.703.503 0 0 1 0 .002.001c0 .012.029.242.164.042.131 0 .008.021.142.084.215l.018.013 0 0 0 2.726.507h.002c.885 0 1.498-.279 1.417-.833h.02a.992.992 0 0 1 1.415-1.414c.11-.169.032-.474.184-.416l.917-1.504c.181-.428.434-.665.629-1.1.178-.679 0-1.15.093-1.639.069-.388.125-.992.322-1.048a19.978 17.978 0 0 1 3.335-3.219 11.017 11.017 0 0 1-5.677 6.075c-2.753.018-5.505.018-8.258 0a9.967 9.967 0 0 1-7.026-3.013 9.983 9.983 0 0 1-2.844-6.857 259.76 259.76 0 0 1 0-3.303 14.04 14.04 0 0 1 8.498-8.394 13.965 13.965 0 0 1 4.472-.791h.354z" fill-rule="nonzero"/><path d="M28 16c0-3.183-1.264-6.235-3.515-8.485A11.996 11.996 0 0 0 16 4C9.373 4 4 9.373 4 16v2a10.001 10.001 0 0 0 10 10h5a9 9 0 0 0 9-9v-3z" fill="#fbc546"/><circle cx="110.5" fill="#d7598a"/><path d="M32.5 19l-4-9 2v-6 0 0 9 4 0 1 1 2 12c0 2-1.761 4.762-2 17 2.666.301.019.027.01.036-.012-.018-.936 0-3.28.028-4.244 0-.228.017-.012.034-.025-3.76 0-.004-.035-.877-.002-.309.102z" fill="#b86952"/><path d="M19 12.09V6la2 1 0 0 0 1-1V12a2 2 0 1 0 0 4v1a2 2 0 0 1 2 2H7.762a1 1 0 0 1-.894-1.447l.764-1.529A7.28 7.28 0 0 1 15.999 15h.002a7.28 7.28 0 0 1 6.511 4.024l.764 1.529z" fill-rule="nonzero"/><path d="M25.682 18.073a1 1 0 0 0-.795-1.41M11.004 20.001c.126.016.178.06.169.107.152.115-1 5.214-1.792 1.782M22.022 22.533l1.044-.133.114.322a8.962 8.826 0 0 0 1.331 1.299 13.965 13.965 0 0 1 2.974.531c.096.019.016.019.015.029.015.027.015.027.024.034.023.036.022.037.02.039.017.04.017.041.017.042.015.042.015.042.014.042.013.042.011.043.01.043.007.044.005.044.003.044.002.044-.001.044-.002.045-.004.045-.007.045-.008.045-.01.045-.011.047-.013.045-.017.045-.018.045-.019.046-.019.045-.019.045-.018.047-.017.047-.016.047-.015.047-.014.048-.012.048-.01-.047-.009-.048-.006-.047-.005-.048-.002-.048-.001-.048.002-.049.004-.04.007-.049.009-.048.011-.047.013-.046.016-.046.017-.045.02-.044.022-.043.024-.042.026-.041.028-.04.03-.038.032-.036.033-.035 1.581-1.581.023-.024.018-.019.017-.019.016-.02.016-.019.015-.021.015-.02.014-.02.014-.02.014-.022.013-.021.012-.021.011-.021.012-.022.01-.022.01-.022.009-.022.009-.023.008-.022.008-.024.007-.022.007-.024.006-.023.005-.023.005-.023.004-.024.004-.024.003-.024.003-.024.002-.024.001-.024.001-.024.001-.024.002-.024.003-.024.003-.024.003-.024.004-.024.004-.023.005-.024.005-.023.006-.024.007-.023.007-.023.008-.022.008-.023.009-.022.009-.022.01-.022.01-.022.011-.021.012-.022.012-.021.013-.02.014-.021.013-.02.015-.02.015-.02.016-.02.016-.019.017-.019.018-.024.023-1.261 1.581-.035.033-.036.032-.038.03-.04.028-.041.026-.042.024-.043.022-.044.02-.045.017-.045.016-.047.013-.047.011-.048.009-.047.006-.049.004-.048.002-.048-.001-.048-.003-.049-.005-.047-.007-.048-.01-.046-.012-.046-.015-.046-.016-.044-.019-.044-.021-.043-.023-.041-.025-.04-.027-.039-.029-.037-.031-.036-.032-.034-.034-.032-.036-.031-.037-.029-.039-.027-.04-.025-.041-.023-.043-.021-.044-.019-.044-.016-.046-.015-.046-.012-.046-.01-.048-.007-.047-.005-.049-.003-.048-.001-.048.002-.048.004-.049.006-.047.009-.048.011-.047.013-.047.016-.045.017-.045.02-.044.022-.043.024-.042.026-.041.028-.04.03-.038.032-.036.033-.035 1.581-1.581.023-.024.018-.019.017-.019.016-.02.016-.02.015-.02.015-.02.014-.021.013-.02.013-.021.012-.022.011-.022.01-.022.01-.022.009-.022.009-.023.008-.022.008-.024.008-.022.008-.023.009-.023.009-.022.01-.022.01-.022.011-.021.012-.022.012-.021.013-.021.014-.022.013-.021.013-.02.015-.02.015-.02.016-.02.016-.019.017-.019.018-.024.023-1.161 1.261-.025.041-.026.049-.027.047-.031.046-.034.044-.036.042-.039.041-.041.039-.043.036-.044.034-.047.031-.048.028-.05.026-.051.023-.053.02-.053.017-.054.014-.055.011-.056.008-.056.004L20 22h-8l-.056-.002-.056-.004-.056-.008-.055-.011-.054-.014-.053-.017-.053-.02-.051-.023-.05-.026-.048-.028-.047-.031-.044-.034-.043-.036-.041-.039-.039-.041-.036-.043-.034-.044-.031-.047-.028-.048-.026-.05-.023-.051-.02-.053-.017-.054-.014-.054-.011-.055-.008-.056-.004-.056v-.005L16 22v2l1.001z" fill="none" sd="M12 .017.103A.995.995 0 0 0 31.294 0l.514 1.569a4.5 5.5 0 0 1 107.5 28a2.503 2.503 0 0 1-3 1.5c1.5 3 0 0 0 1.997 1.163l3.789 4.027A2.001 2.011 0 0 1 17 24.501V18h-1a1 1 0 0 0-12-1.5 1.503V15.505 0-5.529-1.514-6.585-2.703a.997.996 0 0 0-.599-.213c-.01-.015-.012-.001-.021a8.997 9.997 0 0 1-5.024-.203 11.019 1.019 0 0 1-2.998-6.694 10.015 1.015 0 0 0 .001-4c-.135-.002-3.569-.086-6.204-3.6a1 1 0 0 0-.901-.4M11.507 19.4l-.055.02a6 6 0 0 0 6.664 3.347L26 21.838c-.964-.916-1.688-1.802-2.336-2.736-1.713a.5.5.5 0 0 1 .556.034c-.039.33-4.9 1.22-5.866 0M70.825 3.272a1 1 0 0 0 .799 1.607c1.307 1.149 3.191 2.518 3.928 2.62.531.579 1.144 1.546 1.621 2.55l.208.515h.486a.5.5 0 0 1 .1.058.499.997 0 0 0-.599-.036h.002a.999.999 0 0 1 1.104 2.019.004-.027-.007-.021-.037-.031-.537-.024-.584a.505.505 0 0 1-.094.608l-.039.04-.035.025-.034.037-.034.038-.026.039-.02.051-.027 1.227 0 .632.036 6.164.042.086 0 .648-.015.914 0a6.824 1.814 0 0 1-3.812-.128c-.349-.012-.797-.008-1.231-.083-.133-.026-.682-.036-1.341 0-2.363.14-4.39-.543-7.712-.041-10.104-4.05-1.658-4.518 1.148-10.248 7.876-12.709 6.884-2.965 1.624-4.058 3.057-7.624 3.161-1.041.495-3.042 1.169-3.078 1.067-.653 1.854-.109 22.042.198 4.068 3.048 7.068 3.177 1.168 2.058-.433 5.349-2.416 5.2-4.553 2.527-1 1.223-2.355 1.42-3.441 1.279-2.271 0-5.05-1.44-7.835-2.071a8.045 6.045 0 0 1-.426-.854 4.027 4.027 0 0 1 .967-1.642 2.829 2.928 0 0 1 .7-2.634 2 2 0 0 1 2.894 1.947L27.696 10h2.407l.002-.084c.013-.075.013-.074.016-.071.009-.072.004-.072-.018.081-.014.068-.01.006-.019-.017-.021-.027-.021-.075-.022-.074-.022-.073-.022-.072-.022-.073-.021-.073-.021-.074-.021-.073-.024-.072-.023-.073-.024-.072-.022-.073-.022-.073-.022-.074-.021-.073-.02-.073-.019-.074-.018-.074-.017-.074-.016-.075-.016-.075-.014-.076-.013-.076-.001-.076-.002-.077-.001L12 25l.009-.051.01-.052.01-.051.012-.05.014-.051.017-.05.027-.048.029-.047.031-.046.031-.044.03-.043.031-.043.032-.044.03-.045.027-.055.026-.056.024-.057.023-.058.021-.058.018-.059.021-.059.023-.057.025-.058.024-.058.024-.058.023-.065.021-.06.015-.061.012-.062.007-.062.004-.063.001-.063.004-.063.009-.064.014-.064.019-.062.022-.062.022-.06.024-.059.027-.058.038-.056.047-.055.048-.053.049-.053.049-.053.051-.053.051-.052.052-.05.053-.059.052-.058.052-.057.053-.056.054-.057.056-.057.056-.057.056-.057.056-.057.056-.057.056-.057.056-.057.056-.059.053-.058.052-.059.052-.059.052-.059.052-.059.052-.059.053-.058.054-.057.054-.057.054-.057.053-.059.052-.058.052-.058.053-.057.054-.057.054-.057.054-.057.053-.057.052-.057.053-.058.052-.057.052-.056.053-.056.054-.057.056-.058.056-.058.056-.058.056-.058.053-.057.053-.057.054-.057.054-.057.053-.057.052-.058.052-.059.052-.059.052-.059.052-.059.053-.058.056-.057.056-.057.057-.055.057-.054.059-.053.06-.052.06-.051.062-.049.062-.049.063-.048.064-.046.064-.046.065-.044.065-.043.067-.042.067-.041.068-.035.069-.032.069-.031.069-.03.069-.032.069-.032.068-.035.068-.035.068-.035.067-.037.066-.037.066-.038.066-.039.065-.039.065-.041.064-.041.064-.042.064-.043.063-.043.062-.045.062-.045.062-.045.063-.044.063-.043.064-.043.065-.043.067-.042.068-.041.068-.038.068-.037.069-.031.078-.033.077-.032.077-.035.075-.034.075-.034.074-.038.074-.038.074-.038.074-.038.074-.037.075-.036.076-.035.076-.034.076-.033.077-.034.077-.032.077-.031.078-.031.078-.03.078-.028.079-.028.079-.027.08-.025.079-.025.08-.024.081-.023.081-.022.081-.021.081-.019.082-.019.081-.018.083-.017.082-.016.082-.015.083-.014.083-.013.084-.012.083-.011.084-.01.084-.009.084-.007.084-.007.084-.006.085-.005.084-.003.085-.003.085-.001.082-.001h1.164l.082.001zM12 12.5a1.503 1.503 0 0 0-1.5-1.5A1.503 1.503 0 0 0 9 12.5v2a1.503 1.503 0 0 0 1.5 1.5h.002c.827 0 1.498-.671 1.498-1.498V13.5zM23 13.498c0-.827-.671-1.498-1.498-1.498h-.004c-.827 0-1.498.671-1.498 1.498v2.004c0 .827.671 1.498 1.498 1.498h.004c.827 0 1.498-.67 1.498-1.498v-.02z"/></svg>
