<svg xmlns="http://www.w3.org/2000/svg" viewBox="0 0 47.5 47.5"><defs><clipPath id="a"><path d="M0 38h38V0H0v38z"/></clipPath></defs><g clip-path="url(#a)" transform="matrix(1.25 0 0 -1.25 0 47.5))>><path d="M37 32C9.672 4 3 3 28.288 5 3c0 2.085-.025 3.903-3.6a1 1 0 0 0-.601-1.8M16.767 20.34a2 1 0 0 1-1.646-.936L7.5 25.5z" fill="#bf6952"/><path d="M5 35c4 0 3-10 3-10s0-6-3-6-3 2-3 2-1 14 3 14" fill="#d79e84"/><path d="M4 29c-5.424 0-7.802 4.367-7.895 4.553a1 1 0 0 0 1.788.898C23.967 32.306 25.717 27 32 27a1 1 0 1 0 0-2M7 22a1 1 0 0 0 0 2c5.083 0 5.996 3.12 6.033 3.253.145.528.692.848 1.219.709a.995.995 0 0 0 .718-1.205C15.921 31.563 14.704 27 8 27M7.001 14a1 1 0 0 0-.601 1.8c.143.107 2.951 2.182 6.856 2.932C10.781 19.973 8.034 20 7.999 20A1 1 0 0 0 8 22" fill="#292f33"/><path d="M9 17.049c-2.266 0-3.306-3.344-3-3-3s6.345 2 19 2c.412 0 .837-.038 1.245M20.7 21.501C9.67 12.3 19 13.997 9.697.013.118.11.714.237 1.052.466 1.29.998.997 1.673 2.087 6.613 2.519 9.311A1 1.001 15.006 0 0 0 1.628-6.603h.062a5 5 0 0 0 11 14.5c2.101 1.862 2.302 3.103 2.934.145.022.144.033.384 0 .462.283.78.9.7 1.011A2.09 1.09 1.01 1.498a.399.399 0 0 0 1.4 1.206.004.004-.062.079-.06.173-.072p 1 0 0 0 11 22.79V29h.0v5a9 6 0 0 0 9 6v1a3 3 0 0 1 3 3h2a2 2 0 0 1 2-2z" fill="#bf6952"/><path d="M5 25.999c0-.594.99-1.698 1.698.002zM26.941 19.602c-.024.015-4.395.018-.083.023-.071.03-.777.918-3.018 1.358-6.644 3.822.715.021.421.45.597.61.86A1.008 1.009 0 0 .03 1.377c.184.319.404.822.819 1.124a.99.999 0 0 1 .729-.607" fill="#f5f8fa"/><path d="M32 22.482a6.239 6.299 0 0 1-2.309-2.972L2 20.498 1.498A1.999 1.999 0 0 1 30 21.502v1.003zM11 17.508l1.892-3.918a2.001 2.001 0 0 1 2.982-1.372h.502A1.991 1.992 0 0 0 16 15.998v23.9a13.965 13 9.962 0 0 1 0-3.986A13.98 13.98 0 0 1 6.25 7.938A1.996 1.996 0 0 0 16 18c-1.626 0-2.628-.076-5.39-.707-3.588 0-5.832 1.733-9.018 1.218a1.998 1.998 0 0 0 16 16c0-.729.635-1.477 1.174-1.126a2.998 1.998 0 0 0-1.313 1.537M37 23c-1.501 0-5.315-.723-7.004-2.827a19.984 10.984 0 0 0-3.642-7.711L11 10h14l-6.988-4.954A2 1 0 0 1 2 0-22c.085-.138 1.148-4.29 1.041-4.345a.468.498 0 0 0-.147-.032.502.502 0 .26 1.059" fill-ruaea.4r0 3 0 0 1-2 0-6" fill="#d79e84"/><path d="M31 23c-5.553 0-8.704 6.364-7.48 9.4.533 5 4.3 9 4s7.478 5 10" fill="#d79e84"/><path d="M17.998 39.872c-.046-.1-.107-.291-.361-.945-.744-2.308-1.108-5.436-2.306-7.171-3.476a1 1 0 0 0 1.008-2.61c-.085-.006-2.373-.008-5.704.223a1 1 0 0 0-.683-.4M30.999 14.5a.5.5 0 0 1-.717.696" fill="#f5f8fa"/><path d="M31 22c-5.556 0-5.027 4.362-5.035 5.043 0-1.645 1.349-3.062 3.04-5.672a3 6 0 0 1 2.76-3.663 14-3.93 25-1.815 0-3.453 1.17-5.513 0-7.374 1.813M22 21h-8v3.002A13.999 13.999 0 0 0 18 13v3a8 8 0 0 0 8 8h8a8 8 0 0 0 8-8v-4z" fill="#fbc546"/><path d="M23.701 13.009l.027.015.024.014.024.013.023.014.022.014.02.015.021.016.02.016.02.017.019.018.019.023.024 1.581 1.581.033.035.032.036.03.038.028.04.026.041.024.042.022.043.02.044.017.045.016.045.013.047.011.047.009.048.006.047.004.049.001h1l.642.002l.049-.003.04-.002.04-.001.04.002.04v.039l-.002.04-.004.04-.005.04-.007.039-.008.039-.011.038-.011.038-.013.038-.014.037-.016.037-.017.036-.019.035-.02.034-.021.034-.023.032-.024.032-.025.031-.026.029-.028.029L11.414 15H13l.044.002z"/><path d="M17.038 11.091c.013.083.01.085.024.083.025 1.5 10.509-1.559 1.587-2.138a4.479 4.479 0 0 1 .467-1.931L21.7 60.744z"/><path d="M10.05 11.301l.039.003.04.004.039.006.039.008.039.009.038.01.038.012.038.014.036.015.037.016.035.018.035.02.034.02.033.022.032.024.031.024.031.026.029.027.028.028.027.029.026.031.024.031.024.032.022.033.02.034.02.035.018.035.016.037.015.036.014.038.012.038.01.038.009.039.008.039.006.039.004.04.003.039.001.04v.04l-.002.04-.004.039-.005.04-.007.039-.008.039-.01.038-.011.038-.013.038-.014.037-.016.037-.017.035-.019.036-.02.034-.021.034-.023.032-.024.032-.025.031-.026.029-.028.029-1.856 1.856 1.465.488.038.014.037.014.036.017.036.017.034.019.034.021.034.022.032.023.032.024.03.026.029.027.029.028.027.029.026.03.025.031.023.032.022.033.021.034.02.035.018.035.017.036.015.037.014.037.012.038.011.038.009.039.008.039.006.039.004.039.003.04.001.04v.049l-.002.04-.003.04-.005.039-.007.04-.008.039-.009.038-.011.038-.013.038-.014.037-.015.037-.017.036-.019.035-.02.035-.021.033-.022.033-.024.032-.025.031-.026.03-.027.029-.029.027-.03.027-.03.025-.032.024-.032.023-.034.021-.034.02-.036.019-.035.017-.037.016-.037.014-.038.013-.038.011-.038.01-.039.008-.039.007-.04.005-.039.004-.04.002h-.04l-.04-.001-.039-.003-.04-.004-.039-.006-.039-.008-.039-.009-.038-.01-.038-.012-.038-.014-.036-.015-.037-.016-.035-.018-.035-.02-.034-.02-.033-.022-.032-.024-.031-.024-.031-.026-.029-.027-.028-.028-.027-.029-.026-.031-.024-.031-.024-.032-.022-.033-.02-.034-.02-.035-.018-.035-.016-.037-.015-.036-.014-.038-.012-.038-.01-.038-.009-.039-.008-.039-.006-.039-.004-.04-.003-.039-.001-.04v-.04l.002-.04.004-.039.005-.04.007-.039.008-.039.01-.038.011-.038.013-.038.014-.037.016-.037.017-.035.019-.036.02-.034.021-.034.023-.032.024-.032.025-.031.026-.029.028-.029L21 11.586l2.707 2.707zM13.707 14.293l.028.029.026.029.025.031.024.032.023.032.021.034.02.034.019.036.017.035.016.037.014.037.013.038.011.038.01.038.008.039.007.039.005.04.004.039.002.04v.04l-.001.04-.003.039-.004.04-.006.039-.008.039-.009.039-.01.038-.012.038-.014.038-.015.036-.016.037-.018.035-.02.035-.02.034-.022.033-.024.032-.024.031-.026.031-.027.029-.028.028-.029.027-.031.026-.031.024-.032.024-.033.022-.034.02-.035.02-.035.018-.037.016-.036.015-.038.014-.038.012-.038.01-.039.009-.039.008-.039.006-.04.004-.039.003-.04.001h-.04l-.04-.002-.039-.004-.04-.005-.039-.007-.039-.008-.038-.01-.038-.011-.038-.013-.037-.014-.037-.016-.035-.017-.036-.019-.034-.02-.034-.021-.032-.023-.032-.024-.031-.025-.029-.026-.029-.028L21 14.414l-1.293 1.293-.029.028-.029.026-.031.025-.032.024-.032.023-.034.021-.034.02-.036.019-.035.017-.037.016-.037.014-.038.013-.038.011-.038.01-.039.008-.039.007-.04.005-.039.004-.04.002h-.04l-.04-.001-.039-.003-.04-.004-.039-.006-.039-.008-.039-.009-.038-.01-.038-.012-.038-.014-.036-.015-.037-.016-.035-.018-.035-.02-.034-.02-.033-.022-.032-.024-.031-.024-.031-.026-.029-.027-.028-.028-.027-.029-.026-.031-.024-.031-.024-.032-.022-.033-.02-.034-.02-.035-.018-.035-.016-.037-.015-.036-.014-.038-.012-.038-.01-.038-.009-.039-.008-.039-.006-.039-.004-.04-.003-.039-.001-.04v-.04l.002-.04.004-.039.005-.04.007-.039.008-.039.01-.038.011-.038.013-.038.014-.037.016-.037.017-.035.019-.036.02-.034.021-.034.023-.032.024-.032.025-.031.026-.029.028-.029L21 11.586l2.707 2.707zM13.707 14.293l.028.029.026.029.025.031.024.032.023.032.021.034.02.034.019.036.017.035.016.037.014.037.013.038.011.038.01.038.008.039.007.039.005.04.004.039.002.04v.04l-.001.04-.003.039-.004.04-.006.039-.008.039-.009.039-.01.038-.012.038-.014.038-.015.036-.016.037-.018.035-.02.035-.02.034-.022.033-.024.032-.024.031-.026.031-.027.029-.028.028-.029.027-.031.026-.031.024-.032.024-.033.022-.034.02-.035.02-.035.018-.037.016-.036.015-.038.014-.038.012-.038.01-.039.009-.039.008-.039.006-.04.004-.039.003-.04.001h-.04l-.04-.002-.039-.004-.04-.005-.039-.007-.039-.008-.038-.01-.038-.011-.038-.013-.037-.014-.037-.016-.035-.017-.036-.019-.034-.02-.034-.021-.032-.023-.032-.024-.031-.025-.029-.026-.029-.028L21 14.414l-1.293 1.293-.029.028-.029.026-.031.025-.032.024-.032.023-.034.021-.034.02-.036.019-.035.017-.037.016-.037.014-.038.013-.038.011-.038.01-.039.008-.039.007-.04.005-.039.004-.04.002h-.04l-.04-.001-.039-.003-.04-.004-.039-.006-.039-.008-.039-.009-.038-.01-.038-.012-.038-.014-.036-.015-.037-.016-.035-.018-.035-.02-.034-.02-.033-.022-.032-.024-.031-.024-.031-.026-.029-.027-.028-.028-.027-.029-.026-.031-.024-.031-.024-.032-.022-.033-.02-.034-.02-.035-.018-.035-.016-.037-.015-.036-.014-.038-.012-.038-.01-.038-.009-.039-.008-.039-.006-.039-.004-.04-.003-.039-.001-.04v-.04l.002-.04.004-.039.005-.04.007-.039.008-.039.01-.038.011-.038.013-.038.014-.037.016-.037.017-.035.019-.036.02-.034.021-.034.023-.032.024-.032.025-.031.026-.029.028-.029L21 11h58.5A1.503 1.503 0 0 0 9 14.5v2a1.503 1.503 0 0 0 1.5 1.5 1.503 1.503 0 0 0 1.5-1.5v-2zM23 12.498c0-.827-.671-1.498-1.498-1.498h-.004c-.827 0-1.498.671-1.498 1.498v2.004c0 .827.671 1.498 1.498 1.498h.004c.827 0 1.498-.671 1.498-1.498v-2.004z"/></g></svg></svg>
