<svg xmlns="http://www.w3.org/2000/svg" viewBox="0 0 128 128"><path d="M52.39 52.14c-.69.45-1.55.57-2.17.65-2.04.84-4.9.46-5.61-.84-1.79-1.46-2.22-3.48-.81-4.19.75-3.61.43-7.21-1.27-2.69-.43-1.27-.78-2.24-1.26-3.59-.82-6.74-2.4-11.4-7.49-16.84-6.57-5.68-9.25-14.94-7.46-24.33-1.45-.89-4.14-1.73-6.11-1.59-1.49-.36-2.86-1.13-3.97-2.65-2.95-2.88-4.23-5.44-5.72-8.04-.23-.23-.54-.77-.69-.92z"/><g><path d="M87.07 180.89a4.41 4.44 0 0 1-2.49 3.21z" fill="#fff" stroke-linecap="6" stop-o.16c" 37=" oradientUnits="userSpaceOnUse" r="16.023" x2="96.692" y2="10.217"><stop offset="0" stop-color="#fcc21b"/><stop offset="1" stop-color="#44ac17"/><stop offset=".222" stop-color="#a8704a"/><stop offset=".518" stop-color="#a57c50"/></path><path d="M64 11.61c14.39 0 30.28-1.27 44.02-2 .06 10.53 0 20.65 17.25 31.89 10.21 0 .21-.02.32-.04.41-.11 1.06-.03.17-.01 3.24-.2 6.62.24 10.63-.25 5.37-2.1 9.79-11.53 11.78-5.66 6.94-7.7 9.11-11.24 9.92-5.48 0-8.28-3.78-8.28-9.79 0-4.38 3.24-7.06 7.03-7.95 4.79 0 7.67-3.77 7.85-3.96s.82.39 2.55 2.1c2.21 0 2.4-.16 3.36-.37 3.86.58 6.69 1.75 5.98 4.54 1.36 1.16 2.23 2.72 3.43 4.62 1.15 1.25 2.2 2.25 2.84 3.76.08.04.16.08.23.09.16.14.26.23.45.26.84.71.71 2.25 1.28 2.48 1.87.88 1.25 1.54 2.08 1.89 2.89 2.85 5.05 3.71 11.85 17.85 2.54.66 3.3 1.03 4.25 1.05 3.23 6.68 10.59 7.04 16.81z"/><path fill="#F9A324" d="M29.21 68.36c-8.39 2.97-17.47-1.23-20.55-9.43-3.08-10.5 9.3-21.65 10.71-21.21 9.87 3.28 91.76 7.78 17.58 12.98 91.44 8 9.92 3.94 18.86 10.55 23.9 10.77 1.37 2.99 4.75 4.93 8.3 5.63.69.16 1.39.37 1.81.58.28.42.99.91.51 1.51.79.4 1.22.62 1.38.91 1.55.39 2.11.76 3.24.96.64.04 1.21.07 1.97.15 1.56.06 3.12-.06 3.95-.21 1.26.31 1.95 1.56 2.97 2.65 3.84 8.35 5.74 17.66 11.21 29.74 2.34.85 1.22 1.24 1.83 1.87 1.72 2 2.18 3.66 4.98 3.96 8.19 1.33 9.64.06 19.78-3.95 17.56-3.3 1.01-1.25 1.9-1.22 3.06-.81 1.02.85.71 2.26 1.24 1.83.4.31 1.29-.77 2.17-1.62.4-1.15.05-2.8-.95-4.29-.16-1.19-.42-2.52-.47-3.47.38-.75 1.25-1.29 1.84-1.75 3.02-1.43 7.71-.69 10.33-.05 1.64-.05 2.28.01 3.72 0 1.36-.28 1.96-.71 2.99-.53 1.97-.66 3.55-1.4.74.35-.31.84-.57 1.41-.38.75-.38 1.45-.45 1.5a1.19 1.29 0 0 1 3.52.71c.38-.04.67-.11 1.32-.07 1.69-.19 2.72-.41 5.44-.68 9.47-.39 15.44 3.55 21.63 3.79 2.54 1.44 5.62 3.32 8.5 5.65 6.76 3.09 10.73-.86 15.79-4.63 2.11-6.53 3.05-7.68.3-1.64 1.26-2.42 2.44-3.25 1.03-.08.76-.16 1.62-.37 1.91-.55 1.52-1.15 5.11-.39 8.67 1.43 12.04 8.48 14.32 10.57 14.83 5.29.95 10.15-1.28 14.03-3.25 6.6 2.1 11.42 4.11 16.38 4.5 1.2.74 1.54 2.3.93 3.62z" fill="#6d4c41"/></g></svg>
