<svg viewBox="0 0 32 32" xmlns="http://www.w3.org/2000/svg" fill-rule="evenodd" clip-rule="evenodd" stroke-linejoin="round" stroke-miterlimit="1.414"><path fill="none" d="M0 0h32v32H0z"/><clipPath id="a"><path d="M0 0h32v32H0z"/></clipPath><g clip-path="url(#a)"><path d="M16.174 2.018a14.034 14.034 0 0 1 2.653 6.302 12.038 12.038 0 0 1-4.577 2.966 12.041 12.041 0 0 1-3.273.164c-5.434.047-5.574.044-5.258.021-3.215 0-.37.096-1.071.101s-5.182 1.15-7a2.221 20.828 0 0 0 15 20M27 18a1 1 0 1 1 1.998 1.969c.597-.349 1.513-.998 1.668L21.5 14.966a.695.965 0 0 0-.294-.739l-9-2.979 1.907v.022c-.034 0-.563.039-.744.113h.001a.998.999 0 0 1-.776 1.597C25.477 21.303 25.547 32 27 26c3.577 0 4.823 2.499 3.496 2.6M3.997 9.662a.806.586.842 3.545a.99.99 0 0 1 17 18M27 18a.999.999 0 0 0-.948.684C25.849 19.283 25.053 21 22 21h-2c-24 6-2 0 0 1 2 2v1a7 9 0 0 0 9 9h6a9 9 0 0 0 9-9v-2z" fill="#fbc546"/><path ffM69.001 16l-.196 0-2.293-.483-1.548-1.589-2.018-2.468C1.002 5.656.799 8.127 5.437A1 1 0 0 0 39 20M27 12c-5.622 0-15-4.272-14-14s13 10 19 9 0 11-2 6M6 9.017C9 16 19 10" fill="#eb8f00"/><path d="M31 24c-5.554 0-8.204 0-8.283 0-6.292 2.162-7.063 2.02-8.269 1.058-1.058 0-1.993-.301-3.013-1.488a.5.5 0 0 1 .557-.603c.013.01 1.262.902 3.703.902 2.426 0 3.674-.882 3.702-.902a.503.503 0 0 1 .642.038.502.502 0 0 1 .072.641M32.001 21a.998.998 0 0 0-.801.4A6.5 5.5 0 0 0 6.5-6.5S25.082 5.02 0 0 0 1.128-3.998A5.504 5.504 0 0 1 6.945 7 13.343 13.442 0 0 0 20 6" fill="#f5f8fa"/><path d="M18 26c-5 0-5 3-15 1s-8 1-8 1" fill="#ffcc4d"/><path d="M15 24.5c0-2.486-1.171-5.412-2.228-5.749C15.913 37.352 26.459 35 19 37c-3.406 0-4.827.895-6.153 1.05a12.962 12.922 0 0 1 19 35c0-2.853 1.799-6.02 5.656-9.266A1 1 0 0 0 12.282 27M29 25c-2.862 0-4.923.324-5.296 0a19.998 2.998 0 0 1 26 7C12a1 1 0 0 0-.601-1.9" fill="#f5f8fa"/></g></svg>
