<svg xmlns="http://www.w3.org/2000/svg" width="128" height="128" viewBox="0 0 128 128"><path fill="#FCC21B" d="M64 17.43C1.98 17.43.51 86.95.51 100.71c-.54-9.77 1.52-14.67 14.03-24.28 10.46-3.52 25.25 1.21 33.65 13.3 5.67 8.72-2.28 17.21-10.72 22.2z"/><path fill="#FBB71E" d="M115.86 78.81c-10.41 3.74-21.91-1.54-25.7-11.82-5.77-13.97 1.54-24.27-1.41-27.74-11.2-4.69-4.98-2.67-16.94 11.3-26.59 11.33-21.51 0-31.78 09.33-22.61 22.96-21.96 9.67-8.57 28.49-19.74 28.72-8.79 9.52 2.18 14.8 24.59 35.41 26.36 1.77 3.04.86 6.23 1.33 9.25 1.39 3.43.66 6.82-.21 10.33-.73 2.69-.76 6.29-.42 9.3.33 2.91.52 7.72 1.99 10.58 1.41-.42.06-.65-.02-1.04-.14-.49-.31-1.16-.44-1.66-.62-.75.38-1.66 3.03-1.97 3.42-.33-.06-.4-.12-.73-.28-.23-.08-.41-.16-.61-.21-.31-.15-.63-.49-.64-.83-.57-1.25-1.62-2.28-2.05-1.99-1.41.31-2.94 1-3.485-1.78-.45.36-.75.75-1.4.81-.7 2.14-1.58 2.53-1.09 1.15.54 1.73 1.21 1.75 2.21.35.37.63.68.9 1.1 1.51 1.07 2.58 3.1 2.37 4.78 2.33 2.84 7.33 4.76 10.96 4.33.53-1.81.79-2.83 1.3-.41.14-.28.22-.54.39-.94 0-.99-.15-1.83-.44-2.51-.39-4.88-1.1-5.79-4-.32-1.56-1.41-3.09.51-2.59 1.11.52 2.91.93 3.79.76 1 .64 1.83 2.4 2.77 3.2 2.52-.02 1.49-.68 4.86-1.71 7.07-.31.17-.61.3-1.15.19-1.03.19-2.1.14-4.04.14-1.39.04-2.17-.88-2.48-1.32-.11-1.26.65-2.92 1.8-3.42.59-.17 1.1-.14 1.52-.22.24-.43.49-.63.71-1.07.22-.55.42-1.05.62-1.61.12-.67.47-1.54.63-2.23.31-.44.36-.98.54-1.22.63-.62 0-1.15-.29-1.66-.34-.36-.3-.75-.62-.88-.98-.38-.36-.66-.66-1.06-1.04-.17-.02-.33-.02-.5-.06-1.3-.13-.69-.38-1.62-.51-3.16-.63-.91-.92-2.11-1.43-3.17-.62-.82-1.36-1.85-.96-2.93 0 .98.33 1.9.3 2.65.81 1.95.78 3.92 1.34 6.1 1.91 1.11.48 2.34 1.24 2.78 2.21.39.64.97 1.21 1.43 1.87.28.08.63.47.87.52-.42.41-.7.92-1.35-1.12-.09-1.15.93-1.66 2.02-1.87.1-.17.28-.35.4-.52.07-.63.18-1.35.36-1.81.58-.48.44-.89.79-1.37 1.37-.7 2.09-.36 2.98.81 1.8.7 2.89 3.07 1.88 1.7-1.72 3.64-3.23 5.74-3.33 4.11-3.63 7.83-8.57 10.4-3.72.86-8.5-1.53-14.27-13.23zM85.2 90.47c-1.07 0-2.23-1.09-2.95-2.01-2.33-2.88-4.89-5.73-5.84-2.09.92 1.91 1.53 3.52 2.11 3.89 3.25 1.47 14.36-1.4 13.28-19.05 7.32-6.21 10.35-10.98 14.2-32.25.82-.44.47-.78.68-1.2.67-.76 1.34-1.31 1.71-2.86.18-.54-.08-1.19-.47-1.79-.71-.5-.3-1.12-.41-1.8-.48-1.39.46-2.47 1.42-3.8 1.75-1.12 1.45-2.08 3.23-1.87s.34-.85 5.12-1.36c1.08-.65 2.52-.17 2.98.68.95 1.65 1.27 2.64 1.42.2.69.41 3.31-.61 4.28-.66 1.47-3.33 2.31-4.62 3.7-3.31 2.99-6.51 3.4-9.7.05-2.87-1.32-1.05-3.57-1.48-8.02-.03-2.75-.71-5.47-2.42-8.44-4.36-2.54-1.41-3.91-4.72-5.64-6.73.16-.31.32-.52.4-.84-.07-.25.16-.41.39-.2.41-.29.74-.61 1.25-.72 2.09-.48.63-.89 1.79-.81 2.76.31 1.87 3.5 1.21 3.98 1.35 2.61 1.62 7.75 2.15 10.31.67 2.86-.12 5.93-.3 6.51.39 3.55 2.1 5.31 5.3 6.26 1.87.89 3.98 1.13 6.18 2.42 2.54.89 5.37.9 5.81 1.5.25.36.34.65.67.63.49-1.04.61-1.87.6-1.55.14-3.37-.04-5.27-.24-10.64-.02-3.66-1.36-5.39-4.95-2.17-8.94 1.17-3.33 5.58-6.71 7.4-10.26 1.06-1.07 3.62-.55 5.98-2.82 2.02-.96 4.86-.49 6.73-.77 1.15-.83 2.44-1.27 3.71-1.73.76-.28 1.51-.33 2.57-.24.86.04 1.96.48 3.2.65 0 .22-.06.45.04.08.03 1.1.89 1.59 1.43 1.69.06.95-.1 1.71-.16 2.07.05.73-.05 1.36-.24 1.93-.16.18.08.37.19.34.21 1.04.88 1.69 1.36 2.42.35.3.78.27 1.1 0 .27.08.46.09.53.07.17.09.23.09.33.03.08.3.18.56.75l-.02.1c-.62.59-1.44.51-2.04.91-.99.01-1.95.55-1.56 1.45-.21.15-.41.35-.62.56-.29.19-.66.39-1.04.51v-7.68l-.01.01c-.86-.01-2.41-.49-3.37-.62-.85-.32-1.55-.71-2.21-1.3-.6-.52-1.38-1.01-2.11-1.37a3.3 3.3 0 0 1 2.51 3.21zM50.21 58.98c.48-2.68-.01-5.57-1.41-7.79-2.57-.35-.44-.76-.69-1.04-.99-1.45-1.2-2.69.27-2.9.87-.12.44-.32.67.03.9 0 .55.19 1.05.87 1.78.58.54.99 1.33 1.32 1.97.31.56.88.72 1.33.86 1.45.08 2.12-.09 3.62-.64.69-1.21 1.27-1.94 2.28-2.16 1.91-.7 3.75-.35 5.41-1.23.86.07 1.76.12 1.68.45 1.22 1.21 1.89 2.86 1.89 4.51 0 1.83-.94 2.08-1.79.1-.54.18-1.09.16-1.69l.01.01c.01.01.06.01.13.01.18-.02.3-.05l.67-.29-2.16-.1-3.08-.31-6.35.34-3.72 2.31-5.89 4.69-7.87 4.04-1.11.43-2.6.98-3.32 1.74-3.1 9.04-9.46 13.49-13.81 14.21-2.7-1.52-4.12-7.24-5.67-12.55.84-2.02 3.01-4.35 3.12-4.86 3.03-7.23 2.33-14.76-2.18-18.31-1.51-2.95-2.51-5.24-4.45-8.38-.22-3.26.32-4.53 1.59-5.65 1.31a37.94 38.94 0 0 0-6.88.81c-8.04-7.62-18.44-14.79-16.51-9.31-9.11-1.09-13.87 1.27-22.12 7.62-6.54 1.48-11.47 2.83-15.34 4.74-4.3 2.19-6.89 8.14-6.74 1.87-.31 1.91 1.5 2.42 3.05.38 2.79-.76 5.82-1.79 7.68-1.12 2.59-1.26 5.83-.99 7.54 2.14 8.62 8.18 10.11 1.02.86.36 1.7.62 2.48 1.24.74.42 1.5.97 2.32 1.47.67.56 1.28 1.07 1.85 1.88.68.47 1.38 1.14 2.13 1.53.59.67 1.26 1.36 1.7 1.57.68.53 1.37 1.07 1.81 1.85.62.43 1.37.99 2.27.49.59.79 1.17 1.23 1.84.26 0 .65-.03.67-.29.99-.29.78-.53 1.17-.79 1.78-1.16.9-.79 2.13-1.41 3.71-1.75.06-.23.09-.53.08-.41.09-.85 0-1.45-.24-2.11-.38-1.66 0-1.98.41-2.85.81-7.05 5.48-19.4 33.79-23.64 42.1z" fill="#fff"/></svg>
