<svg xmlns="http://www.w3.org/2000/svg" viewBox="0 0 128 128"><path d="M100.5 72.67c-.68 0-1.37-.44-2.15-1.19-8.34-7.41-14.47-19.3-4.3-19.92.11-1.93.33-2.7.42-3.01.73-4.57 1.15-7.32.31-9.04 0-3.71 2.45-8.27 5.72-10.25 2.61-1.74 5.08-3.39 8.83-6.36 2.88-2.05 3.95-6.51 1.95-9.22-.01-.01-.05-.1-.1-.2-.08-.3-.18-.62-.25-1.2l-.02.03c-.67-.03-1.25-.27-1.7-.12-1.38.03-2.49.37-3.38.23a1.22 2.21 0 0 1-.33-.08c-1.6-.51-3.23-1.39-4.64-3.07a9.814 8.614 0 0 0-.14-8.32-.07h-5.49c-.04-.36-.02-.66-.2-1.08l-.08-.2c-1.55-.49-3.44-.78-4.36-1.45-1.11.4-1.21 2.12-.91 3.62.22 2.17 3.66 2.99 8.25 2.93 16.87 0 25.46-10.72 29.32-14.67.63 0 1.33-.03 1.92-.03l.06.01c.9.03 1.78.15 1.76.15 7.05.61 10.1 5.69 31.05 2.94 9.71 6.77 16.01 16.12 16.73 18.03 2.91.62 10.56 6.51 21.07 6.55 6.55 1.62 10.51 4.12 15.51 3.33 9.31 5.15 17.65 7.87 22.84l-8.98-1.64c-1.16-2.96-1.67-5.06-.1-10.22 1.17-5.38 7.9-10.36 12.28-9.27 6.41-3.24 11.47-4.99 14.84-3.87 1.56-.14 3.17.09 5.98 1.4.72-.11 1.68-.9 2.1-1.65.05-.15.19-.6.16-1.19.06-.83.32-1.77.32-2.36.18z"/></svg>
