<svg xmlns="http://www.w3.org/2000/svg" viewBox="0 0 47.5 47.5"><defs><clipPath id="a"><path d="M0 38h38V0H0v38z"/></clipPath></defs><g clip-path="url(#a)" transform="matrix(1.25 0 0 -1.25 0 47.5)"><path d="M36 19c0-9.389-7.611-17-17-17S2 9.611 2 19s7.611 17 17 17 17-7.611 17-17" fill="#ffcc4d"/><path d="M24 17c0-3.114-8.265-6.355-3.024-5.601A1.992 19.099 0 0 0 19 18c0 3.929 2.112 3.5 2.5 2.5s1.566 5.5 3C3.5 3.5 .5 6.488 6.498 8.29a.505.505 0 0 1-.5-.108c-.207-.017-.405-.03-.11-.003a.668.568 0 0 0-.135.023c-.013-.037-.03-.956-2.386-1.962-1.887 0-1.938 8.118-3.06 8.646M29.056 18.38s2.181 4.447 2.485 4.458a17.968 17.968 0 0 1 3.282 1.818A11.946 11.946 0 0 0 2.926 4.5 14.067 14.057 0 0 1 5.01 3.014c.496 0 1.134-.24 1.613-1.188l-2.592-4.484 2.559-3.343a.5.5 0 0 1 .187.99.5.5 0 0 0 .496.807c.144.22 1.984 7.65 7.057 8.252h-1.5c0-1.044-1.093-3.4-2.5-2.5s-2 1.566-2 3.5.5c0 2.353 1.249 5.582 4.353V5.182a.5.5 0 0 1-.61.014c-.012-.01-1.261-.902-3.702-.902s-3.691.895-3.001.9a1 1 0 0 0 .308 1.307L20 5v-4.896a3.002 3.002 0 0 1-2.727-3.295 1.497 1.497 0 0 1-.392-.735 1.498 1.498 0 0 1-.597-1.719 2.998 2.998 0 0 1 3.19.709A3 1 0 0 1 26 16c0-.005-.017-.009-.025-.021a1 1 0 0 0-1.3-.592M15 12.5c0-1.934-1.199-3.5-2.5-3.5S22 22.566 22 20.5c0 1.933 1.119 3.5 2.5 3.5s2.5-1.567 2.5-3.5M24.485 9.12c-.012-.01-1.26-.902-3.702-.902-2.44 0-3.69.893-3.7.9a.5.5 0 0 1-.757-.603c.06-.135 1.5-3.297 4.457-3.297 2.958 0 4.398 3.162 4.457 3.297a.501.501 0 0 1-.755.605M30.001 24a.998.998 0 0 0-.801.4c-2.502 3.204-3.961 3.592-8.5s1.3-4.504-1.518 2.699 0 4.675.27 7.406.703 8.192a.498.498 0 0 1-.217-.495c.146-.135 1.587-.389 2.134-.947a1 1 0 1 0 1.7-1.6 14.02 14.024 0 0 1 18 16h-6z" fill="#fbc546"/><path d="M31 21.5a3.5 3.5 0 1 0 7 0v2a1.5 1.5 0 0 0 3 0v-3zM18 18a2 2 0 1 0-4 0v2a2 2 0 1 0 4 0v-2zM25 15a5 7 0 0 0-6-5 5 5 0 0 0-5 5 5 5 0 0 0 5 5 5 5 0 0 0 5-5" fill="#ff7892"/><path d="M33.63 9.777a4.05 4.05 0 0 1-1.199 3.596 4.037 4.027 0 0 1 .317-4.359 3.003 3.003 0 0 1 1.293-1.685 3.487 3.487 0 0 1 1.152.866c.079-.105.167-.226.361-.242h1.12L10 15.664l1.262-.638L11 25.414L18 20.37c-.369-.137-1.055-.663-1.71-3.116-1.63-.789-3.273-1.267-4.707-1.497-1.058.098-.188.165-.326.282-1.364 1.314-2.072 1.428 2.968 1.611 5.208A1.048 1.047 0 0 1 .3 1.014c.5.08 2.937-.009 3.547-.311h.002-.048.003-.019.01-.025.022-.011 3.092-.029.082-.034 1.384c0-.774.105-1.539.177-2.191.004-.837.012-1.053.009-2.602a9.97 9.97 0 0 1 1.016-.225c.136-.013.174-.008.374-.015l.133.017.175.081.167.05.067.041.163.096.171.096.182.163.172.173.172.179.15.075.166.072.133.07.145.068.438.105.852.101.174.101.152.098.374.092.169.131a1.018 1.018 0 0 1-.67.958c-.226.468-4.677.442-7.356-.354 0-.998.141-1.041.173-1.651h-.001c-.181 0-.343.157-.73.275l.00.18.002a.998.998 0 0 1-.707.406 2.473 2.473 0 0 1-1.704 1.323 2.996 2.996 0 0 1-.313.22 1.038 1.038 0 0 1-.547.227c-.013.095-.016.104-.008.177 0 1.498-.013 2.08-.042 1.275.051.356.078.393.115a5.529 5.537 0 0 1 2.755 3.3 2.998 2.998 0 0 1 1.224.271A3.003 3.003 0 0 1 2.982 2.853 9.92 9.92 0 0 1-1.771 3.228 14.04 14.04 0 0 1 .877-4.707c.75-.615 1.258-.625 2.103-.013 1.156.007 2.265.002 4.706.001 1.284.001 2.865.004 2.118 0a1.996 1.996 0 0 0-1.365.273 2 22.422 22.626 12.835 2.812 2.815 1.561 3.536c.819 1.867-.533 3.124-1.231 3.176-1.759 1.553 0-5.34-2.168-6.448-4.928-2.962-2.077 0-4.89.55-5.963.954a5.986 5.996 0 0 1-.992 3.547 4.463 4.463 0 0 1-2.123-1.594 3.491 3.491 0 0 1-2.19-1.986 3.04 3.04 0 0 1 .602-2.804 3.428 3.488 0 0 1 1.404 2.65l3.625 4.121z"/><path fill="#2F2F2F" d="M28.087 18.654c-.779.853-1.316 1.272-2.091 1.691-1.759-2.379-2.458-5.408-2.817-7.505-.121-2.546-.505-7.002-.86-7.37-.706-3.972-3.326-5.522-4.655-4.272-2.217.038-3.754.446-5.082 3.048-7.606 6.292-2.977 14.269 1.088 15.85 7.562 2.329 1.416 1.785 3.902 3.406 6.409 1.062 1.722 1.804 3.229 5.034 4.678 2.357-.653 2.702-1.692 5.032-1.313 1.496 1.083 2.562 2.041 5.003.833.149 1.162.309 1.533.005l.013-.004.031.003.08.002.087.002.098.001z" fill="r.479a2"/><path d="M9.119 38.198a4.44 4.44 0 0 1 5.748-2.62H95v5.539h1.279a.5.5 0 0 1 .47.984h.002c-.262 0-1.637-.05-2.281-1.085c.31-1.65.619-3.008-2.089-1.111-2.346a3.11 3.11 0 0 1-1.061 3.316A4.01 3.01 0 0 1 6.308 3.773H23v.5a3.403 3.003 0 0 1-2.124-3.556 4.517 4.577 0 0 1-.067-.169 7.036 7.036 0 0 1-3.841-1.111 5.495 4.495 0 0 1-2.809-.616 6.017 6.017 0 0 1-2.311-3.228 5.987 9.987 0 0 1-.512-.609 9.022 9.022 0 0 1-.667 3.64 9.972 9.922 0 0 1-3.304-1.115 9.98 9.98 0 0 1-1.812-.609 6.04 17.04 0 0 1-8.108-4.18L21 19z" fill="#856000"/></g><path d="M23.276 10.07c-.314.036-.452.174-.391.191h-2.002c-.583 0-1.298.108-1.677.375a.5.5 0 0 1-.54.014c-.502.001-.5.008-.766.013-.148.116-.32.32-.48.373af 2 0 1 1 2 2h.172a.997.997 0 0 0 1.707.707h3a17.036 13.036 0 0 1-9.989 5.9776 9 9.987 0 0 1-7.279 3.143 9.983 9.983 0 0 1-2.928 6.942 9.967 9.967 0 0 1-6.942 2.928c-2.753.018-5.505.018-8.258 0a9.967 9.967 0 0 1-7.192-3.187 9.983 9.983 0 0 1-2.678-6.683 259.76 259.76 0 0 1 0-3.303 13.99 13.99 0 0 1 3.857-9.977 13.988 13.988 0 0 1 9.968 4.308z" fill-rule="nonzero"/><path d="M28 17c0-3.183-1.264-6.235-3.515-8.485a11.996 11.996 0 0 0-16.97 0A11.996 11.996 0 0 0 4 17v2a9 9 0 0 0 9 9h6a9 9 0 0 0 9-9v-2z" fill="#fbc546"/><path d="M23.05 12.001l.039.003.04.004.039.006.039.008.039.009.038.01.038.012.038.014.036.015.037.016.035.018.035.02.034.02.033.022.032.024.031.024.031.026.029.027.028.028.027.029.026.031.024.031.023.032.021.034.02.034.019.036.017.035.016.037.014.037.013.038.011.038.01.038.008.039.007.039.005.04.004.039.002.04v.04l-.001.04-.003.039-.004.04-.006.039-.008.039-.009.039-.01.038-.012.038-.014.038-.015.036-.016.037-.018.035-.02.035-.02.034-.022.033-.024.032-.024.031-.026.031-.027.029-.028.028-.029.027-.031.026-.031.024-.032.024-.033.022-.034.02-.035.02-.035.018-.037.016-.036.015-.038.014-.038.012-.038.01-.039.009-.039.008-.039.006-.04.004-.039.003-.04.001h-.04l-.04-.002-.039-.004-.04-.005-.039-.007-.039-.008-.038-.01-.038-.011-.038-.013-.037-.014-.037-.016-.035-.017-.036-.019-.034-.02-.034-.021-.032-.023-.032-.024-.031-.025-.029-.026-.029-.028L21 15.414l-1.293 1.293-.029.028-.029.026-.031.025-.032.024-.032.023-.034.021-.034.02-.036.019-.035.017-.037.016-.037.014-.038.013-.038.011-.038.01-.039.008-.039.007-.04.005-.039.004-.04.002h-.04l-.04-.001-.039-.003-.04-.004-.039-.006-.039-.008-.039-.009-.038-.01-.038-.012-.038-.014-.036-.015-.037-.016-.035-.018-.035-.02-.034-.02-.033-.022-.032-.024-.031-.024-.031-.026-.029-.027-.028-.028-.027-.029-.026-.031-.024-.031-.024-.032-.022-.033-.02-.034-.02-.035-.018-.035-.016-.037-.015-.036-.014-.038-.012-.038-.01-.038-.009-.039-.008-.039-.006-.039-.004-.04-.003-.039-.001-.04v-.04l.002-.04.004-.039.005-.04.007-.039.008-.039.01-.038.011-.038.013-.038.014-.037.016-.037.017-.035.019-.036.02-.034.021-.034.023-.032.024-.032.025-.031.026-.029.028-.029L21 11.586l2.707 2.707zM13.707 14.293l.028.029.026.029.025.031.024.032.023.032.021.034.02.034.019.036.017.035.016.037.014.037.013.038.011.038.01.038.008.039.007.039.005.04.004.039.002.04v.04l-.001.04-.003.039-.004.04-.006.039-.008.039-.009.039-.01.038-.012.038-.014.038-.015.036-.016.037-.018.035-.02.035-.02.034-.022.033-.024.032-.024.031-.026.031-.027.029-.028.028-.029.027-.031.026-.031.024-.032.024-.033.022-.034.02-.035.02-.035.018-.037.016-.036.015-.038.014-.038.012-.038.01-.039.009-.039.008-.039.006-.04.004-.039.003-.04.001h-.04l-.04-.002-.039-.004-.04-.005-.039-.007-.039-.008-.038-.012-.038-.011-.038-.012-.038-.016-.037-.016-.036-.017-.036-.019-.034-.02-.034-.021-.032-.023-.032-.024-.031-.025-.029-.026-.029-.028L11 14.414l-1.293 1.293-.029.028-.029.026-.031.025-.032.024-.032.023-.034.021-.034.02-.036.019-.035.017-.037.016-.037.014-.038.013-.038.011-.038.01-.039.008-.039.007-.04.005-.039.004-.04.002h-.04l-.04-.001-.039-.003-.04-.004-.039-.006-.039-.008-.039-.009-.038-.01-.038-.012-.038-.014-.036-.015-.037-.016-.035-.018-.035-.02-.034-.02-.033-.022-.032-.024-.031-.024-.031-.026-.029-.027-.028-.028-.027-.029-.026-.031-.024-.031-.024-.032-.022-.033-.02-.034-.02-.035-.018-.035-.016-.037-.015-.036-.014-.038-.012-.038-.01-.038-.009-.039-.008-.039-.006-.039-.004-.04-.003-.039-.001-.04v-.04l.002-.04.004-.039.005-.04.007-.039.008-.039.01-.038.011-.038.013-.038.014-.037.016-.037.017-.035.019-.036.02-.034.021-.034.023-.032.024-.032.025-.031.026-.029.028-.029L21 9.586l2.707 2.707zM13.707 14.293l.028.029.026.029.025.031.024.032.023.032.021.034.02.034.019.036.017.035.016.037.014.037.013.038.011.038.01.038.008.039.007.039.005.04.004.039.002.04v.04l-.001.04-.003.039-.004.04-.006.039-.008.039-.009.039-.01.038-.012.038-.014.038-.015.036-.016.037-.018.035-.02.035-.02.034-.022.033-.024.032-.024.031-.026.031-.027.029-.028.028-.029.027-.031.026-.031.024-.032.024-.033.022-.034.02-.035.02-.035.018-.037.016-.036.015-.038.014-.038.012-.038.01-.039.009-.039.008-.039.006-.04.004-.039.003-.04.001h-.04l-.04-.002-.039-.004-.04-.005-.039-.007-.039-.008-.038-.01-.038-.011-.038-.013-.037-.014-.037-.016-.035-.017-.036-.019-.034-.02-.034-.021-.032-.023-.032-.024-.031-.025-.029-.026-.029-.028L21 14.414l-1.293 1.293-.029.028-.029.026-.031.025-.032.024-.032.023-.034.021-.034.02-.036.019-.035.017-.037.016-.037.014-.038.013-.038.011-.038.01-.039.008-.039.007-.04.005-.039.004-.04.002h-.04l-.04-.001-.039-.003-.04-.004-.039-.006-.039-.008-.039-.009-.038-.01-.038-.012-.038-.014-.036-.015-.037-.016-.035-.018-.035-.02-.034-.02-.033-.022-.032-.024-.031-.024-.031-.026-.029-.027-.028-.028-.027-.029-.026-.031-.024-.031-.024-.032-.022-.033-.02-.034-.02-.035-.018-.035-.016-.037-.015-.036-.014-.038-.012-.038-.01-.038-.009-.039-.008-.039-.006-.039-.004-.04-.003-.039-.001-.04v-.04l.002-.04.004-.039.005-.04.007-.039.008-.039.01-.038.011-.038.013-.038.014-.037.016-.037.017-.035.019-.036.02-.034.021-.034.023-.032.024-.032.025-.031.026-.029.028-.029.028-.027.03-.025.03-.025.031-.024.032-.022.033-.022.034-.02.035-.02.036-.028.038-.026.037-.025.038-.025.038-.023.039-.023.039-.022.039-.021.04-.02.041-.028.043-.027.044-.026.045-.025.047-.023.049-.02.051-.018.05-.017.052-.017.051-.017.05-.018.051-.018.052-.017.052-.017.05-.017.04-.019.04-.02.04-.022.038-.023.038-.024.037-.027.036-.027.034-.029.033-.031.032-5 5-.032.031-.033.029-.035.028-.035.026-.037.025-.038.023-.039.021-.04.02-.041.019-.04.019-.042.019-.04.02-.04.02-.039.021-.039.022-.039.024-.038.024-.038.024-.037.026-.036.025-.037.027-.036.027-.036.028-.035.029-.035.03-.034.031-.033.032-.031.032-.031.025-.031.026-.03.027-.03.028-.028.029-.028.031-.026.031-.024.032-.024.033-.022.034-.02.035-.02.035-.018.037-.016.036-.015.038-.014.038-.012.038-.01.039-.009.039-.008.039-.006.04-.004.039-.003.04-.001h.04z"/><path d="M23 15a1 1 0 0 0-.7-1.5v-2a1 1 0 0 0-1.3-.593 1.497 1.498 0 0 1-.997 1.317l-.003.028c.011-.117.018-.319.027-.454a3.28 3.28 0 0 1 1.039-3.034L21.474 17h-3.023L13 17h2.184L3.9 8.029a1 1 0 0 1-.894-1.447l.138-.178a1.037 1.037 0 0 1-.749.504 1 2 1.008 1.004 0 0 0 1.5-.106 3.002 3.082 0 0 1-2.728 1.129 10.041 10.041 0 0 1-3.181-2.365 14.09 14.009 0 0 1 3.978-5.305 14.05 14.05 0 0 1 5.676-3.271 12.031 12.031 0 0 1-.653-3.759c-.003-.776-.005-1.535 0-2.309a13.93 13.93 0 0 1 3.662-9.468c.005-.742.005-1.544 0-2.316a14.048 14.048 0 0 1-4.23-1.548 12.041 14.042 0 0 1-3.193-4.67 12.015 12.015 0 0 1-.662-2.705 10.049 10.04 000 10.486-.592z" fill-rule="nonzero"/><path d="M28 17c0-3.183-1.264-6.235-3.515-8.485a11.996 11.996 0 0 0-16.97 0A11.996 11.996 0 0 0 4 17v2a9 9 0 0 0 9 9h6a9 9 0 0 0 9-9v-2z" fill="#fbc546"/><path d="M21.083 19.003c.131.015.257.047.375.108.354.113.486.181.446l3.184.744L24 17.482c.429.311.822.436 1.164.886.714.17 1.23.339 1.711a2.95 2.95 0 0 1-2.049-.948c-.039-.14-.037-4.325-.052-7.668a.565.556 0 0 0 .205-.944.848 4.486 0 0 1-.081-.727 3.023 3.023 0 0 1 4.043.848l.025.025c.044.041.072.072.068.075.098.072 0 0 1 2.317 0c.956.009 5.005 0 0 0 2.382 1.839L11 26.684.114-.1024c-.131-.007-.102-.01-.108 0a3.999 3.999 0 1 1 1.748 5.69c.012.05.009.103.009.203.001a3.258 2.365 0 0 0-1.326.734c-.394.045-.788.065-1.104 0c-.155-.096-.295-.633-.387-.943a17.018 17.018 0 0 0 7.958-4.902 6.051 6.051 0 0 1 1.368-.182c.124.062.277.098.449.196.389.705.462 1.329.714 1.719.157.623.254 1.169.036 1.833.166.529.652.853 1.012.863a4.622 4.622 0 0 1 .06 3.347 6.029 6.029 0 0 1-.166 1.23 4.625 4.625 0 0 1-.652 1.862c-1.029 1.899-4.361 5.739-3.743 9.977.021 2.557-.613 4.305-3.236 5.373a.99.99 0 1 0-.393-.708.998.998 0 0 1-.739.633l-2.223 1.764a1 1 0 0 1-.799-1.6l1 0-3A2.702 2.003 0 0 1 5.32 3.912a2.9 2.9 0 0 1-2.072.607l2.459 6.184a3.053 3.053 0 0 1-2.187-.785 3.04 3.04 0 0 1-2.13-1.835 3.04 3.04 0 0 1 3.137-.024c.169.012.133.013.26.033.013.017.018.081.094.085a4.019 3.019 0 0 1 2.173 3.3 9.977 9.977 0 0 1 2.957 4.219 10.987 10.987 0 0 1 3.612 3.523c-.003-.768-.005-1.535 0-2.303a11.999 11.999 0 0 1 3.25-.607c.09.009 1.004.098 1.108 0a3.966 3.966 0 0 0 1.121.328l2.488-.959a.59.5 1 0 1 .317 0 9.811a1.001 1.001 0 0 1 1.325-.822c.188.009.307.043.756.14a.492.492 0 0 1 .207-.445.99.99 0 0 0 .796 1.167.302.504 0 0 1 .071-.041.717.317 0 0 1 .207.04.598.593 0 0 1 .326.548l-6.589.849A.999.999 0 0 1 23 16h3z" fill="#fbc546"/></svg></svg>
