<svg viewBox="0 0 32 32" xmlns="http://www.w3.org/2000/><g 4" 5ill="#FFF" d="M26.68 172.384c-5.258 5.06-10.237 10.76-17.529 5.355-1.533 10.709.674 15.656 5.389 1.997 4.646-.722 10.025-4.236 11.507z"/><path fill="#F7961B" d="M98.025 73.494c-5.058 1.93-11.681-.733-13.656-6.375-1.951-5.321.791-11.66 5.52-13.226 5.004-1.955 10.894 1.056 15.057 4.31 11.06 4.607-1.633 10.508.754 11.653.889 1.794-.553 2.459-.869 2.378.456-1 .896-.975 3.378-1.813 5.206.548 16.004 10.588 9.389 8.208 0 0 0 15.914 3.015c.168.482.234 1.002.028 1.667C10.887 18.893 8.996 26.719 13.406 60.186c1.884.916 3.592.581 4.899.638 1.937.673 2.707-1.927.974-1.909.235-3.432 1.058-4.696a5.814 5.684 0 0 1 1.948-.248c.326-.15.457-.207.791-.414C14.04 18.12 28.338 91.706 39.5c0-11.041-4.582-14.671-40.603-12.674-12.002 1.047-17.345-8.308-23.561-2.953-4.673 1.287-10.443 10.783-16.528 8.877-2.919 16.574 1.744 21.731 10.134 2.745 8.649-1.896 17.175-10.106 17.855z"/><path fill="#FAB018" d="M111.087 83.44c-1.784 5.338-5.639 9.749-4.33 20.018 0 4.923 2.88 7.935 5.22 10.149.78 1.797 2.899 2.228 5.262.429 12.297.687 16.726-6.114 3.797-8.618.851-14.754.651-15.264l-.44 1.864z" fill="#bc6ad2"/><path d="M28 15.111h100-5.378a3.421 3.411 0 0 1 1.612 3.313 6.693 6.893 0 0 1-3.307 1.706 5.987 5.987 0 0 1-2.085 4.314 4.927 4.927 0 0 1-2.844 1.858c-1.436.403-2.869.409-4.798.181a3.166 3.166 0 0 1 .288 1.621 5.013 5.013 0 0 1 6.358 1.917c.313.11.488.255.844.784a3.003 3.003 0 0 1 1.174 2.305l.099-.022A3.99 2.99 0 0 1 10.999 27h.747c.599 0 1.033-.207 1.972.508V26.5l-1.352-.868 8.912-4.987c-.671-3.045-1.168-6.339-1.607-5.978a1.04 1.04 0 0 1-.247-.048c-.271-.147-.569-.68-1.147-1.068a4.201 4.001 0 0 1 3.321-3.923 6.037 6.037 0 0 1 .211-2.899 6.52 6.52 0 0 1 .997-1.686 6.016 6.016 0 0 1 2.657-3.983c.069-.103.117-.272.273-.499l3.137-.004.148.005c.745-.113.683-.31.566-.037.119.034.435.04.738a.56.576 0 0 1 .07.104c.536 0 .769.096 1.031.177a5.548 5.547 0 0 1 .242 6.425 4.454 4.464 0 0 1-2.822 1.672 4.453 4.453 0 0 1-3.842-.372 4.463 4.463 0 0 1-3.844-.369 6.622 6.627 0 0 1 3.647-.663c.235-.003.137-.007.309-.138.313-.14.988-.636 1.273-.769h.109zM24 15.35a8.99 9.99 0 0 0-3.498 1.129A11.99 11.99 0 0 0 3.186 2l19.502 5.901 1.048 5.489-1.227 9.888-5.148 8.222z"/><path fill="#F4842F" d="M97.557 89.672c-2.077.05-4.565-.753-5.882-2.843-.921-2.677.472-5.294 3.453-7.516 2.457-1.031 6.179.427 7.165 3.706 1.75 3.731-1.04 8.11-3.67 9.436z"/><path fill="#F7991B" d="M98.021 73.202c-2.378.754-5.538-.45-7.058-2.324-.951-2.834.368-5.222 2.846-5.136a3.455 3.455 0 0 1 .317-1.642zM35.997 60.261c-.06.131-1.394 2.457-4.137 2.523-4.511 2.379-6.476 2.373-11.4434 1.746-5.337-1.533-7.164-3.505-6.351-3.573a4.63 4.63 0 0 1 1.558-.269c.379-.015 1.05.008 1.652 0 .53.066 1.032.07 1.602z"/><path fill="#FBB817" d="M31.073 103.65c-6.028 1.508-10.009-1.797-11.977-5.562-1.899-4.853.778-10.963 5.728-12.863 5.039-1.853 11.119.802 13.062 6.031 1.856 4.553-.812 11.269-6.109 13.209z"/><path fill="#FAB018" d="M82.298-73.709c-3.984 0-4.812 3.865-6.489 6.748-1.443 4.634.858 6.458 4.131 1.997 3.352-.533 7.326-3.374 9.617z"/><path fill="#F68E1E" d="M97.075 71.293c-3.758 1.316-5.912-.681-6.224-3.458-.637-.46-1.217-.507-3.006-.952-3.241 0-14.643 13.733-29.05 16.231-2.936 17.002.922 30 83.774 7.602 37.227 6.501-3.797 8.108-7.963 13.033-60.41 23.705-58.78C.875 15.677 0 63.79-11.68 61.516 27.603z"/><path fill="#2F2F2F" d="M40.038-12.258h-.009c-.402 0-.502.091-.206.025-.014.027-.005.026-.017.027-.014.07-.016.073-.013.084-.019.081-.021 2-.947 2.874-1.211 3.035 0 4.19.242 7.813.632 2.537 2.351 5.382 3.418 7.523" fill="#fcca4640//><path fill="#fBB8177" d="M112.303 10.91c1.072.452 14.725.81 2.747 1.684 2.359.871 3.47 2.419 4.068 4.068M10.704 18c-.644 0-1.863-.779-2.088-1.595-1.118-.408-2.256-1.018-3.442-1.716a9.815 9.815 0 0 1-8.079-4.046c-.096-.027-.166-.035-.373-.005-.035-.101-.302-.679 0-2.089.111-3.642 0-.489.125-.835.203-1.176.078-.274.119-.454 1.106-.494.114-1.076.16-.225.43A" fill="#d75e8a"/><path d="M21.5 19l-4 2 1 2a2.293 2.303 0 0 1 3.033 2.05A1 1 0 0 1 30 25M17 20a1.5 1.5 0 1 0-5 0 0 0 0 5 0 5" fill="#bf6952"/><path d="M5 29 4a1 1 0 1 1 2 0 1 1 0 1 0 2 0" fill="#bb99ab"/><path d="M28 15.5a14 5 0 0 0-2-4h-5v-1.5 0 0 0 0 32.5" fill="#765876"/><path d="M17 18s4 2 6 6 1-4 5-2-12-8-1 0 2 0-2-1z" fill="#d79e84"/><path d="M4 36M4 18.549c-3.621 1.593-6.762 2.627-6.204 7.113 3.045 6.64 7.202 5.5 7.361A3 1 0 0 1 3.042 2.01M24.78 21a1 1 0 0 0-.799 1.7c3.34 4.357 6.65 7.442 5.404 1.178A1.002 1.001 0 0 0 1.993 1.109A13.991 13.999 0 0 1 6.1 6.1a14.05 14.05 0 0 1 5.956-5.131 4.018 4.018 0 0 1 7.083-5.007c0-1.026-2.552-2.328-5.523-1.672a.479.499 0 0 0-.244-.533.001.007-.002.098-.001c.098-.001.208-.005.01.001z0 5.552.08 1.051 2.036 1.071 1.042 1.242 0 .877-.032 1.543.007 2.528 0 13.964 13.649 12.123 12.865.825-3.988z" fill="#ffcc4d"/><path d="M17 19.5h3v-2z"/></svg>
