<svg xmlns="http://www.w3.org/2000/svg" viewBox="0 0 128 128"><ellipse fill="#2F2F2F" d="M21.83 77.09c0 17.9-2.24 27.87-19.05 30.64-21.01 1.47-2.55 5.64-3.65 5.72-5.65l10.9 30.01c5.6 2.04 17.81-10.55 5.96-20.61-2.17-7.56-10.64-5.65-21.88 1.84-2.86 3.74-4.37 6.24-3.55 2.21 0 5.51-.03 6.38-.98l19.66-3.21-14.51-2.16a3.353 3.353 0 0 1 .85-4.77c1.97-1.29 3.79-.86 5.08-2.06 1.56-.98 3.15-1.87 3.41-2.74.38-.6.92-1.5 1.86-1.55 1.04.31 1.99 1.53 1.54 3.35M74.46 15.98c-.07-.01-.07-.01-.17-.03-.33-.08-.68-.49-1.14-.51-1.43-.67-2.2-.33-3.65-1.63-5.45-2.9-1.66-1.11-3.15-1.41-5.09-.4-1.19.18-2.77 1.01-3.77 1.75-4.68 2.09-8.23 2.03-14.37-.03-1.4-.22-2.87-.31-4.36-.45-3.71.86-6.45 3.61-9.13 6.72-1.12 1.79-1.26 3.93-2.13 4.92-2.65.89-3.53-.42-5.31-1.03z"/></svg></svg>
