<svg xmlns="http://www.w3.org/2000/svg" xmlns:xlink="http://www.w3.org/1999/xlink" width="128" height="128" viewBox="0 0 128 128"><path fill="#2F2F2F" d="M21.96 82.86h-.05c-6.55 0-9.78 3.38-7.06 8.79s-.01 5.59 7.04 7.06 12.17c4.42-1.17 7.48-1.89 10.76-2.08 8.7-7.64 10.94-13.3 10.43-12.68-6.52-7.1-22.78-7.88-35.18-.11-1.71 0-2.45 1.34-2.49 2.28-2.34 2.18-1.27 4.89 0 6.58 2.6 14.15 6.91 21.75.47 3.33.47 7.36 1.57 11.61 5.79 5.09 12.99 11.85 23.64l9.97 10.99 17.17-.02.01-.02.01-.02.01-.02.01.03.02.03.02.03.03.03.035.02.03c-.53.23-.84.38-1.15.68-.38.23-.7.28-1.16.29zm17.52 34.33c-1.56.85-3.68 1.42-4.23 1.85-.46.3-.75.61-1.21.61-2.25.57-3.93-.79-7 .31-3.39.01-4.13 3.63-5.54 7.76-2.74 1.26-.9 2.14-.91 3.86.39s2.32 2.36.72 3.38c3.81 6.6 7.35 9.11 12.81 7.78a2.395 2.747 0 0 1-3.88 2.42z"/><def2llipser8" d="M107.04 80.79c7.8-29.28 63.59-6.21 50.95-8.1 31.09 0 59.73-28.88 69.7-57.41 0a37.328 13.328 0 0 1-3.84-2.45c-18.74-5.02-33.54-16.56-28.4-12.27-2.84 0-4.78 1.22-5.81 1.05-13.4 1.26-24.74-.71-41.72-.55-7.41.08-12.79-3.92-23.44-19.94-.03-.25-.78-4.52-4.18-31.38z"/></svg><use xlink:href="#a" overflow="visible" fill="#FFF"/><clipPath id="b"><use xlink:href="#a" overflow="visible"/></clipPath><g clip-path="url(#b)"><path fill="#2F2F2F" d="M32.02 95.51c-1.23 0-2.24-1.04-2.24-2.33V50.44c0-1.28 1-2.32 2.24-2.32 2.86 0 1.32.98 2.7 2.2 2.3s4.05 4.14 6.26 9.42c2.37 0 4.32 2.89 4.38 6.38l-.06 11.29v10.38a6.32 6.32 0 0 1-6.29 0z" fill="#ed6c30"/></g><g><path fill="#2F2F2F" d="M68.99 68.35H98.94c1.5-1.13 3.28-1.78 5.09-1.76 1.5-.88 3.25-.45 3.81 1.52.61.72 1.38 1.13 2 .44.86.96 1.66 1.24 2.72 2.14.82 0 1.37-.06 1.73-.06.21.14.92 2.43 1.67-.04 1.38-.02 2.73-.98 3.82-1.27.09-.38.13-.72.18-1.34-.16-.61-.41-1.21-.74-1.7-.31-1.49-.66-3.15-.56-4.68-.68-7.08-2.53-9.6-7.65-2.82-16.1 1.96-25.49 4.42-40.26 3.84l-.02.01c.2.03 2.74 1.01 4.56-.24s1.83-.61 2.73-1.27c.91-.88.91-2.81.42-3.48-.29-1.3-1.33-3.07-2.19-4.72.01-.01.01-.05.01-.08 0-1.48 1.33-2.46 3.04-2.47.21-.14.59-.17.84-.44 1.12-.79 2.1-1.35 2.99-1.86 1.89-1.44 3.41-2.65 4.5-3.09.31-.17.65-.32.88-.43.15-.13.81-.33 1.15-.39.56-.23 1.03-.45 1.51l-.03.01c-.01 0-.06.01-.1.23-.34-.21-.37-.49-.71-.41-1.1l-.57-.49c-.39-.36-.59-.66-.6-1.04-.06-.4-.16-.8-.43-1.22-.52-1.58-.57-3.16-.76-3.79z"/></g></svg>
