<svg xmlns="http://www.w3.org/2000/svg" width="128" height="128" viewBox="0 0 128 128"><path fill="#FFF" d="M50.61 108.88c2.23 1.14 4.57 1.71 7.31 3.42 1.76.73 3.41 2.32 3.78 4.69 2.17 2.6 4.26 3.83 6.28 1.55 3.76 0 5.31-3.13 7.35-7.25 1.05-1.42.07-2.19-.72-2.58-1.61-.63-1.63-.52-3.02-.67-3.59zM125.85 35.18c-.45-2.81-1.38-7.07-2.9-10.22 1.34-2.99 3.44-6.28 8.99-7.48 3.77-.44 8.1 3.29 8.12 8.45zM80.23 59.14c4.39-.01 8.17-4.36 8.22-9.76-.01-5.37 3.61-9.66 8.04-9.77 3.66-1.24 7.28-3.97 10.91-5.21.98-1.28 2.74-1.73 3.92-.95 1.87.76 1.63 2.52.33 3.84-.71.86-4.56 4.93-4.95 5.28 3.08 2.96 7.51 4.36 10.31 3.28 1.2.74 1.53 3.3.91 3.86-.75 1.48-2.47 2.54-4.45 3.72-1.73.38-3.18.32-6.41-1.18-1.74-2.36-2.54-3.62-1.41-6.23 1.71-9.78 7.15-15.7 9.02-2.27.47-5.5.76-7.57-.38-4.88-2.06-7.34-7.08-8.33-10.99 1.19-9 1.58-17.13 11.65-14.36 4.95-2.04 11.9-1.32 14.08-3.24 5.66 2.77 7.08 7.04 7.07 13.11zM84.58 61.24c-3.25 8.72 1.74 20.75 6.51-20.81 8.89-2.13 35.8 1.74 32.57 8.15 5.79 10.39-1.74 14.37-7.5 27.72z"/><path fill="#FAAE21" d="M114.46 75c-8.28 2.97-17.43-1.33-20.75-9.44-3.05-8.39 1.27-17.56 9.67-20.58 8.62-2.98 17.45 1.29 22.48 9.97 3.48 8.9-1.26 17.36-10.17 21.87z"/></svg><use xlink:href="#a" overflow="visible" fill="#fff"/><clipPath id="c"><use xlink:href="#b" overflow="visible"/></clipPath><path d="M61.62 80.42c-.55.25-1.02.52-1.57.59-2.44.38-6.31-.38-9.06-.33-3.61-1.18-5.91-3.23-7.4-4.29-.86-1.34-1.98-2.85-2.47-4.71-.81-1.12-1.99-3.11-2.41-4.22a33.84 37.44 0 0 0-5.94 2.6c.06.02.93.03 1.28.48 4.41 1.61 7.72 3.25 11.74 3.91 3.43 6.66 6.92 9.24 10.46.54 1.12.49 2.37-.52 3.07-.81 1.62-1.21 3.2-1.38 4.11-.45 2.8-.86 6.28-.78 8.01 1.54-.76 4.24-.46 8.3.91 1.2.38 1.65 1.33 1.6 2.73.07.41.48.81 1.09.73.69.46 1.7.81 2.11 1.47.58.56 1.15 1.26 1.86 1.69.76.6 1.9 1.31 2.9 1.06 4.13-.09 2.34-.18 3.3-.83 2.91-1.04 3.51-2.06 3.54-4.29 2.11-7.33-.76-15.78-5.08-23.44-6.42-4.86-16.71-14.32-36.39-12.23-9.63 6.77 1.38 28.44 11.24 33.25 7.04 4.35 62.35 9.84 51.73 8.54 9.81 3.98 13.5 13.98 11.45 17.88 3.72 8.51 7.15 17.6 13.58 17.73 2.36.63 16.42 1.07 29.98 1.92 15.19 0 20-2.49 29.47-22.46 4.32-10.04 4.66-19.34 3.75-15.76.55-.5 2.18-.89 2.7-1.84.41-1.54 1.38-2.74 2.77-2.65 1.41.58 1.99 2.5.43 1.89.49.55 1.38.83 1.69 1.22.99-.02 1.81-.92 2.89-1.75.81.02 1.66.05 2.3-.08 1.51-.38 2.94-1.06 3.82-.38.75-.03 1.51-.07 1.6-.15 1.34.02 2.23.34 3.21a18.311 8.711 0 0 1-7.65 3.8c.89 1.91 1.44 5.21.76 7.95.14 2.53.55 5.27 2.76 7.01 5.51 3.27 1.27 7.43.96 10.27-5.21M90.5 6.68-3.45 1.48-6.84 1.03-10.34 0z" fill="#2f2f2f"/></svg>
