<svg viewBox="0 0 32 32" xmlns="http://www.w3.org/2000/svg" fill-rule="evenodd" clip-rule="evenodd" stroke-linejoin="round" stroke-miterlimit="1.414"><path fill="none" d="M0 0h32v32H0z"/><path d="M16.174 3.001a13.98 13.98 0 0 1 4.546.819 14.048 14.048 0 0 1 5.658 3.783 13.99 13.99 0 0 1 3.621 9.223c.007 1.105.007 2.21 0 3.316a10.987 10.987 0 0 1-.621 3.513 11.028 11.028 0 0 1-6.596 6.677 10.926 10.926 0 0 1-3.64.667c-1.764.011-3.527.011-5.291 0a12.03 12.03 0 0 1-3.897-.702 12.046 12.046 0 0 1-4.948-3.353 12.018 12.018 0 0 1-3.005-7.795c-.005-.776-.005-1.553 0-2.33a13.962 13.961 0 0 1 3.632-.821 14.048 14.048 0 0 1 3.482-2.655 13.99 13.99 0 0 1 3.857-9.477 10.987 10.987 0 0 1-.621-3.513 262.757 262.757 0 0 1 0-3.322 13.962 13.962 0 0 1 .791-4.472A14.045 14.045 0 0 1 6.1 7.1a13.99 13.99 0 0 1 9.726-4.099h.348z" fill-rule="nonzero"/><path d="M28 17.033a12 12 0 0 0-12-12 12 12 0 0 0-12 12v-2a9 9 0 0 0 9 9h6a9 9 0 0 0 9-9v-2z" fill="#fbc546"/><path d="M21.083 19.003l.068.01.06.013.073.012.074.013.076.01.016.07.016.071.012.07.01.07.018.07.016.07.015.071.013.071.011.071.009.072.009.071.008.072.006.071.004.072.003.072.009.071.009.072.01.071.012.072.013.071.015.07.016.071.018.069.018.079.019.088.022.088.027.086.032.087.039.087.038.087.036.087.034.087.034.088.034.098.034.098.041.097.049.096.048.095.048.094.048.095.047.095.048.096.048.097.048.097.058.097.058.097.058 0 0 1-.091.08H99.5l-1.396 4.987c-.119.06-.253.113-.371.172L17 17.472z" fill="gray" fill-rule="nonzero"/><path d="M10 21l-.58 2.982a4.46 4.46 0 0 0 2.07 1.261A5.004 5.004 0 0 1 11 14a.995.995 0 0 0-.797 1.107C20.4 6.049 22 24.5 19 29.5a9 5.001 0 0 0 1.5 1.5C1.503 10.009 0 0 0 5.091 0 9.994 9.999 0 0 0 16.998 16M18 19c-7.181-1.264-12-2.045-12.036-5.049-12.7c0-1.126-.413-2.245-.927-3.633a.997.997 0 0 1-1.205-.925.996.996 0 0 0-.606-.293.997.997 0 0 0-.293 1.777C21.947 31.902 23.484 30 29.35 17 6c0-1.762-.993-5.702-3.082-9.761-.496-1.184-.949-1.778-1.848-2.716-2.818a2.677 2.767 0 0 1-.507.199 1.5 1.5 0 0 1 3.517.846M9.05 17.616c.012.067.146.634.616.162.176C26.66 27.94 15.033 23.8 25 5.322C18 1.489 11.958 1.902 15.95 10.185c.623 0 1.338-.012 1.249-.081.565 0 1.488-.131 3.395-.679.747-.433 1.136-.905 2.838 1.618v3.775c.043.656.282.702 1.459.067 1.168 0 0 0 8.5 7.299a3.004 3.004 0 0 1 30 20a2 2 0 0 0 2-2h-4a2 2 0 0 0 2-2h-1.995V19a1 1 0 0 0-.001-2c.025 0 1.758-.012 3.256-.489a1.018 1.018 0 0 1-.579-1.079 1.022 1.022 0 0 1-.565-.27M29 19c-.601 0-1.235-.479-2.007-1.738-2.708-2.718-1.232-4.095 1.647-7.351 4.445a5.526 5.526 0 0 0-2.597.507 16 9.45 0 0 1-1.174-.607 11.028 1.028 0 0 1-2.9-6.176 11.992 12.992 0 0 1-.601-3.395 12.028 12.028 0 0 1-4.946-3.374 11.017 11.017 0 0 1-.621-3.714 11.042 11.042 0 0 1-2.894-.706 11.016 11.116 0 0 0 11-4.998 16.017 1.017 0 0 1-.509-1.677 3.327 3.237 0 0 1 .721 1.025H25v-2.324a4.466 4.466 0 0 0 5.044-5.624A15.031 14.024 0 0 1 6 16.095a8 8 0 0 1 8 8h.014a3.99 13.99 0 0 1 2.898 2.802A13.942 13.942 0 0 1 20 16c0 .919-.089 1.818-.248 2.648zM24.05 14.203c.562 0 1.039-1.13 1.753-.999l.408-1.294 1.444 1.146 1.674.994a.993.993 0 0 1-1.434.788 1.036 1.036 0 0 1-.659-.615c.028-.015.074-.005.748-.07.212 0 .602.048.504.081.106.072.016.07.005.073.001.071.001.172.001.183 0c.13.078.215.067.236.078a7.83 7.82 0 0 1 2.919.583c.246.386.276.544.548.837a4.056 4.065 0 0 1-5.984-2.885 6.213 6.213 0 0 1-.361-1.936c-1.002-2.872-2.071-3.668-4.094-2.061-9.672zM25.005 82.888a5.12 5.11 0 0 0 2.507.102 4.017 4.017 0 0 0 8.07 3.713 3.088 3.088 0 0 1 3.073-.158h.005.682a2.958 2.956 0 0 1-.506.995c-.087-.013-1.176-2.171-1.752-2.083a1.05 1.05 0 0 1-.346-.083 1.01 1.01 0 0 1-1.2-.793 1.005 1.005 0 0 1 .787-.282 1.01 1.01 0 0 1 .707 1.307l2.219 2.224z"/><path d="M23.693 21.503l1.23 2.18a2.008 2.008 0 0 1 1.252 1.417 3.02 3.02 0 0 1 1.126 3.442 3.001 3.001 0 0 1 2.121 4.012c.14.484.204.832.17 1.27a2.015 2.015 0 0 1-.653-1.513 3.522 3.522 0 0 0-.619-1.381A2.996 9.996 0 0 1 11.998 27H13.031c1.536 0 3.752.307 5.532.965.112.658.148.818.295 1.154.315 1.668.868 1.385 1.219 1.791a.993.993 0 0 1 .306.908c.99 3.352 1.987 5.326 1.525h8.55c.184.185-.118.412-.054.466 0a.599.937 0 0 0 .387.237c.01.002.01.005.02.004.021-.005.02-.003.028c0-.031-.018-.03-.025-.04-.023-.091-.023-.099-.031-.09-.03-.099-.029-.099-.028-.099-.027-.09-.024-.082-.023-.083-.022-.082-.022-.082-.022-.081-.022-.071-.024-.071-.023-.07-.023-.07-.022-.069-.022-.07-.022-.069-.022-.07-.022-.07-.022-.07-.022-.07-.022-.07-.022-.07-.022-.07-.022-.07-.022-.07-.022-.07-.022-.07-.022-.07-.022-.07-.023-.07-.022-.07-.022-.07-.022-.07-.023-.07-.023-.07-.022-.07-.021-.07-.02-.07-.019-.07-.016-.07-.016-.071-.013-.071-.011-.071-.009-.072-.008-.071-.006-.072-.004-.071-.003-.072L25.828 8l.001-.057.004-.068.007-.067.013-.065.019-.064.023-.063.024-.062.027-.061.031-.058.035-.056.039-.053.043-.05.947-1.919 1.162-.05.126-.073.125-.074.127-.007.128-.012.126-.013.126-.015.126-.017.137-.016.137-.016.138-.013.038-.013.038-.011.038-.01.039-.009.039-.007.04-.006.039-.004.04-.002h.04l.04.001zM9.03 13l.04.002.039.004.04.005.039.007.039.008.038.01.038.011.038.013.037.015.037.015.035.018.035.018.035.02.034.02.033.022.032.024.031.024.031.026.029.027.028.028.027.029.026.031.024.031.024.032.022.033.02.034.02.035.018.035.016.037.015.036.014.038.012.038.01.038.009.039.008.039.006.039.004.04.003.039.001.04v.04l-.002.04-.004.039-.005.04-.007.039-.008.039-.01.038-.011.038-.013.038-.014.037-.016.037-.017.035-.019.036-.02.034-.021.034-.023.032-.024.032-.025.031-.026.029-.028.029L20.414 15H22l.04.001.039.002.04.004.039.006.04.007.038.008.039.01.038.012.037.013.037.015.037.016.035.018.035.019.034.02.034.022.032.023.032.024.03.025.03.027.028.028.027.029.026.03.025.031.024.032.022.033.021.034.02.034.018.036.017.036.016.036.014.037.013.038.011.038.01.039.008.039.007.039.005.039.004.04.002.04.001.039-.001.04-.002.04-.004.039-.005.04-.007.039-.008.039-.01.038-.011.038-.013.038-.014.037-.016.037-.017.035-.019.036-.02.034-.021.034-.023.032-.024.032-.025.031-.026.029-.028.029-1.856 1.856 1.465.488.038.014.037.014.036.017.036.017.034.019.034.021.034.022.032.023.032.024.03.026.029.027.029.028.027.029.026.03.025.031.023.032.022.033.021.034.02.034.018.036.017.036.015.036.014.038.012.038.011.038.009.039.008.039.006.039.004.039.003.04.002.04v.039l-.002.04-.003.04-.005.039-.007.04-.008.039-.01.038-.011.038-.013.038-.014.037-.016.037-.017.035-.019.036-.02.034-.021.034-.023.032-.024.032-.025.031-.026.029-.028.029L20.414 15H22l.04.001.039.002.04.004.039.006.04.007.038.008.039.01.038.012.037.013.037.015.037.016.035.018.035.019.034.02.034.022.032.023.032.024.03.025.03.027.028.028.027.029.026.03.025.031.024.032.022.033.021.034.02.034.018.036.017.036.016.036.014.035.013.038.011.038.01.039.008.039.007.039.005.039.004.04.002.04v.039l-.001.04-.003.04-.004.039-.006.04-.008.039-.009.038-.01.039-.012.038-.014.037-.015.037-.016.036-.018.035-.02.035-.02.034-.022.033-.024.032-.024.031-.026.031-.027.029-.028.028-.029.027-.031.026-.031.024-.032.024-.033.022-.034.02-.035.02-.035.018-.037.016-.036.015-.038.014-.038.012-.038.01-.039.009-.039.008-.039.006-.04.004-.039.003-.04.001h-.04l-.04-.002-.039-.004-.04-.005-.039-.007-.039-.008-.038-.01-.038-.011-.038-.013-.037-.014-.037-.016-.035-.017-.036-.019-.034-.02-.034-.021-.032-.023-.032-.024-.031-.025-.029-.026-.029-.028L21 14.414l-1.293 1.293-.029.028-.029.026-.031.025-.032.024-.032.023-.034.021-.034.02-.036.019-.035.017-.037.016-.037.014-.038.013-.038.011-.038.01-.039.008-.039.007-.04.005-.039.004-.04.002h-.04l-.04-.001-.039-.003-.04-.004-.039-.006-.039-.008-.039-.009-.038-.01-.038-.012-.038-.014-.036-.015-.037-.016-.035-.018-.035-.02-.034-.02-.033-.022-.032-.024-.031-.024-.031-.026-.029-.027-.028-.028-.027-.029-.026-.031-.024-.031-.024-.032-.022-.033-.02-.034-.02-.035-.018-.035-.016-.037-.015-.036-.014-.038-.012-.038-.01-.038-.009-.039-.008-.039-.006-.039-.004-.04-.003-.039-.001-.04v-.04l.002-.04.004-.039.005-.04.007-.039.008-.039.01-.038.011-.038.013-.038.014-.037.016-.037.017-.035.019-.036.02-.034.021-.034.023-.032.024-.032.025-.031.026-.029.028-.029L21 11.586l2.707 2.707zM13.707 14.293l.028.029.026.029.025.031.024.032.023.032.021.034.02.034.019.036.017.035.016.037.014.037.013.038.011.038.01.038.008.039.007.039.005.04.004.039.002.04v.04l-.001.04-.003.039-.004.04-.006.039-.008.039-.009.039-.01.038-.012.038-.014.038-.015.036-.016.037-.018.035-.02.035-.02.034-.022.033-.024.032-.024.031-.026.031-.027.029-.028.028-.029.027-.031.026-.031.024-.032.024-.033.022-.034.02-.035.02-.035.018-.037.016-.036.015-.038.014-.038.012-.038.01-.039.009-.039.008-.039.006-.04.004-.039.003-.04.001h-.04l-.04-.002-.039-.004-.04-.005-.039-.007-.039-.008-.038-.01-.038-.011-.038-.013-.037-.014-.037-.016-.035-.017-.036-.019-.034-.02-.034-.021-.032-.023-.032-.024-.031-.025-.029-.026-.029-.028L21 15.414l-1.293 1.293-.029.028-.029.026-.031.025-.032.024-.032.023-.034.021-.034.02-.036.019-.035.017-.037.016-.037.014-.038.013-.038.011-.038.01-.039.008-.039.007-.039.006-.04.004-.04.002h-.036l-.04-.001-.039-.003-.037-.004-.037-.005-.036-.006-.035-.007-.033-.009-.033-.01-.033-.011-.033-.012-.032-.013-.031-.014-.031-.016-.03-.016-.03-.017-.03-.019-.028-.019-.028-.02-.027-.022-.027-.022-.025-.023-.025-.024-3-3-.024-.025-.023-.025-.022-.027-.022-.027-.02-.028-.019-.028-.019-.03-.017-.03-.016-.03-.016-.031-.014-.031-.013-.032-.012-.033-.011-.032-.009-.034-.009-.033-.007-.034-.007-.034-.005-.034-.003-.034-.003-.035-.002-.034v-.035l.001-.034.002-.035.003-.034.005-.034.005-.034.007-.034.008-.033.009-.033.011-.033.011-.033.012-.032.014-.031.015-.032.016-.03.016-.03.018-.03.019-.029.02-.028.021-.028.022-.027.022-.026.024-.025.024-.024.025-.024.026-.022.027-.022.028-.021.028-.02.029-.019.03-.018.03-.016.03-.016.032-.015.031-.014.032-.012.033-.011.033-.011.033-.009.034-.008.034-.007.034-.005.034-.005.034-.004.035-.002.036-.001h.035zM15.005 14.003l.048.002.048.001zM23.072 9.829l.072.003.071.004.072.006.071.008.072.009.071.011.071.013.071.015.07.016.071.018.069.02.07.021.069.024.068.024.069.027.067.028.067.031.067.031.066.034.066.035.065.037.065.039.064.04.063.041.062.042.062.04.062.04.063.038.063.037.064.037.065.036.065.037.066.037.066.038.066.039.067.039.065.039.065.041.065.041.065.049.065.047.065.047.065.046.065.047.063.058.062.058.062.059.061.059.06.059.061.058.062.058.063.058.062.058.053.057.053.058.053.058.054.057.055.056.057.056.057.054.058.053.059.053.06.051.061.051.062.049.06.049.06.047.061.047.061.047.062.045.062.045.063.043.064.045.064.046.064.046.063.048.062.049.062.049.06.051.06.052.059.053.058.054.057.055.056.057.056.057.054.058.053.059.053.06.051.061.051.062.049.063.049.064.047.065.046.066.045.067.045.067.043.069.041.069.041.071.04.071.038.072.035.072.036.072.036.072.036.07.036.069.037.069.035.068.037.068.035.068.035.066.037.067.037.066.037.067.038.067.037.066.037.066.039.066.039.065.041.063.041.063.04.061.039.063.037.065.035.065.033.065.032.067.031.067.028.068.027.068.024.068.024.069.021.07.02.07.018.069.016.071.015.071.013.07.013.07.011.071.01.07.008.05v.004zM12 12.5a1.503 1.503 0 0 0-1.5-1.5A1.503 1.503 0 0 0 9 12.5v2a1.503 1.503 0 0 0 1.5 1.5h.002c.827 0 1.498-.671 1.498-1.498V13.5z"/></svg>
