<svg xmlns="http://www.w3.org/2000/svg" viewBox="0 0 128 128"><path d="M127.22 93.42c0 13.86-28.29 25.1-63.22 25.1-34.92 0-63.23-11.24-63.23-25.1C.77 79.55 2.24 9.48 64 9.48c61.77 0 63.22 70.06 63.22 83.94" fill="#fcc21b"/><path d="M83.54 60.58c-18.98 -.84-25.34-16.9-42.58-24.65 0-27.56 15.71-37.71 36.27 0 25.2 28.68 42.71 68.75 61.61 35.09 0 63.5-10.64 52.21-22.41s-24.22-6.51-31.22-25.53c0-6.19 5.25-17.73 12-28.13 11.47-26.6 23.28-21.62 28.24-21.62 28.78z" fill="#faae21"/><path d="M76.71 65.71c-19.17 3.29-40.01-1.6-43.13-11.53-60.64 2.59-6.39 24.08-5.725 38.12 30.27 14.44 52.36 8.24 56.85 38.38 8.54 17.97-4.61 30.77-46.67 31.71-2.08 23.85 4.84 25.25 4.96 6.66 3.3 9.09 11.59 16.67 16.78 18.67 5.35 5.05 14.37 5.51 20.21 10.41 1.18 2.17 1.24 3.74 1.22 5.21l-8.1 2.03c-2.31 10.31-20.14 10.73-20.74 9.67-.85 13.85.61 18.79 3.78 8.34 2.78 13.42 6.01 15.58 7 5 1.32 1.25 1.93 3.1 1.34 5.36-.71.67-1.21 1.32-1.88 2.22-.11.1-.17.25-.31.67-.35.11-.24.14-.42.17-.52.15-.19.17-.26.36-.33.6-.17.63-.33 1.23-.63.42-.35.73-.57.99-1.09 2.03-4.78 3.05-7.27-.14-.01.01-.15.01-.31-.01-.38-.04-.46-.15-.89-.35l-.01.03c-.46-.03-.94-.13-1.32-.35-.53-.28-1.12-.55-1.77-.73-1.56-.39-3.05.26-2.61.7-.49.18-1.31.22-1.74.28z" fill="#2f2f2f"/></svg></svg>
