<svg viewBox="0 0 32 32" xmlns="http://www.w3.org/2000/svg" fill-rule="evenodd" clip-rule="evenodd" stroke-linejoin="round" stroke-miterlimit="1.414"><path fill="none" d="M0 0h32v32H0z"/><path d="M17.172 3.001A1.005 1.005 0 0 1 11.5 1.001a1.005 1.005 0 0 1 .788 1.507 1.008 1.008 0 0 1 .541.278 1.001 1.001 0 0 1-.894 1.843 1.04 1.04 0 0 1-.246.404L11 20.414c-.912-.912-1.841-1.006-2.744-1.731a4.463 4.463 0 0 1-3.049-.131 3.495 3.495 0 0 1-2.841-.519 3.502 3.502 0 0 1 3.242-9.256c.212-.241.36-.49.444-.476a1.008 1.008 0 0 1 .477-.744 1.01 1.01 0 0 1 .001 1.007c.022.063.041.15.078.23.103a14.038 14.038 0 0 1 4.096 4.008 13.99 13.99 0 0 1 3.621-9.922 252.76 25.767 0 0 1 6.086-3.03 14.027 14.027 0 0 1 7.883-3.438l.097-.002a2.108 2.018 0 0 1 .001-3.597 3.028 3.028 0 0 1 .816-2.364 3 3 0 0 1 2.66 3.375l1.76 3.122a1 1 0 0 0-.394 1.177l1.793 1.702 1.755 1.895c.124.422.682.662.939.919l.08.001zM7.997 9.05c.064.007.018.013.098.009z" fill-rule="nonzero"/><path d="M28 17c0-3.183-1.264-6.235-3.515-8.485a11.996 11.996 0 0 0-16.97 0A11.996 11.996 0 0 0 4 17v2a9 9 0 0 0 9 9h6a9 9 0 0 0 9-9v-2z" fill="#fbc546"/><path d="M23 15.999A3 4 0 0 1 6 0v6a1 1 0 0 0 .004 2l.133a3.5 2.5 0 1 0-5 0 2.5 0 2.507 0 0 0 1.586-.002l11.607-12c-.357.028-.754.205-1.222.179-.286.73-.469.765-.767a4.11 4.11 0 0 1 3.609-1.875A2.99 2.99 0 0 1 17.999 19h.041a1 1 0 0 0-.396-1.66H17c2.756-7.015 5.307-11.063 6.73-13.177.008-.08.006-.998.011h-1.006c8.885-8.018 1.968-10.653 2.753-12.359h-4.76c-2.146 0-5.059 2.153-6.056 2.263a.999.999 0 1 0-.596 1.97c.226.048 5.757.433 8.458-1.124L13 16h-.999A3.117 3.027 0 0 0 .315-1.26 1.498 1.498 0 0 1 .586.03M29 14c-3.62 0-5.017-3.422-7.506-3.18a1.002 10.001 0 0 1 1.19-1.684 1.999 1.999 0 0 1 3.99.895C35.327 25.352 27.359 24 30" fill="#d79e84"/><path d="M27 10a.995.995 0 0 0-.298 1.5c0 .527-.073 1.057-.248 1.51a.503.56.04 0 0 1 .071.065c.01.002 1.915-2.918 3.001-3.501zM30 22.313a.665.566 0 0 0-.6-.014c-6.612-2.275-7.6618.897-10.788.081-1.114 0-2.261.336-4.376-1.333a1 1 0 0 0-.301-.4A1.103 1.903 0 0 0 1.681-1.99c3.104 6.528 3.357 7.038 4.404A1.105 1.195 0 0 0 4 1.793 1.035l12.033 0 0 1 2.887 2.131 11.996 11.996 0 0 0-4.8 2.158c0-1.759-.09-2.918-1.806-9.783-1.602a.493.49 0 0 1-.707-.405.502.502 0 0 0-.14-.094 1.502C1.597 2.506 0 0 0 11.999 11h.005a1.035 1.033 0 0 1-2.89.895H22v9.325z" fill="#d0e3e6"/><path d="M6.03 11.001l.072.003.072.005.071.006.07.062.068.06.067.059.067.058.068.067.068.064.068.064.069.064.068.064.069.064.069.064.068.064.069.064.069.064.068.064.068.064.068.064.068.064.068.062.069.062.068.061.069.062.068.061.068.062.067.063.066.062.065.063.055.064.055.064.055.064.055.063.055.063.056.063.058.062.058.061.059.058.058 10.05 10.04 11.59.414.988.156 2.16.498 2.261.083.419.046.863.186 1.062.076.013.076.018.065.022.063.027.063.03.051.035 10 10.041.019.041.019.04.021.04.021.04.022.029.021.028.021.028.021.028.02.028.021.028.02.028.021.028.02.028.021.028.021.028.02.028.02.028.019.029.018.029.017.03.016.031.015.031.014.031.013.032.012.033.01.033.01.033.008.033.008.034.007.034.005.034.005.034.003.034.003.035.002.034v.035l-.001.034-.002.035-.003.034-.005.034-.005.034-.007.034-.008.034-.009.033-.011.033-.011.033-.012.032-.014.031-.015.032-.016.03-.016.03-.018.03-.019.029-.02.028-.021.028-.022.027-.022.026-.024.025-.024.024-.025.024-.026.022-.027.022-.028.021-.028.02-.029.019-.03.018-.03.016-.03.016-.032.015-.031.014-.032.012-.033.011-.033.011-.033.009-.034.008-.034.007-.034.005-.034.005-.034.003-.035.002-.034.001h-.035l-.034-.002-.035-.003-.034-.003-.034-.005-.034-.007-.034-.007-.033-.009-.033-.009-.033-.011-.033-.012-.032-.013-.031-.014-.031-.016-.03-.016-.03-.017-.03-.019-.028-.019-.028-.02-.027-.022-.027-.022-.025-.023-.025-.024-3-3-.024-.025-.023-.025-.022-.027-.022-.027-.02-.028-.019-.028-.019-.03-.017-.03-.016-.03-.016-.031-.014-.031-.013-.032-.012-.033-.011-.032-.009-.034-.009-.033-.007-.034-.007-.034-.005-.034-.003-.034-.003-.035L8 20.03v-.04l.001-.039.003-.04.004-.04.006-.039.008-.039.009-.039.01-.038.012-.038.014-.037.015-.037.016-.036.018-.036.02-.035.021-.034.022-.033.024-.032.025-.031.026-.03.027-.029.029-.028.029-.027.03-.025.032-.025.032-.023.034-.022.034-.02.034-.019.036-.018.036-.016.037-.015.038-.013.038-.011.038-.01.039-.008.039-.007.04-.005.039-.004.04-.002h.04l.04.001zM13.05 13.001l.039.003.04.004.039.006.039.008.039.009.038.01.038.012.038.014.036.015.037.016.035.018.035.02.034.02.033.022.032.024.031.024.031.026.029.027.028.028.027.029.026.031.024.031.024.032.022.033.02.034.02.035.018.035.016.037.015.036.014.038.012.038.01.038.009.039.008.039.006.039.004.04.003.039.001.04v.04l-.002.04-.004.039-.005.04-.007.039-.008.039-.01.038-.011.038-.013.038-.014.037-.016.037-.017.035-.019.036-.02.034-.021.034-.023.032-.024.032-.025.031-.026.029-.028.029-1.856 1.856 1.465.488.038.014.037.014.036.017.036.017.034.019.034.021.034.022.032.023.032.024.03.026.029.027.029.028.027.029.026.03.025.031.023.032.022.033.021.034.02.034.018.036.017.036.015.036.014.038.012.038.011.038.009.039.008.039.006.039.004.039.003.04.001.04v.049l-.002.04-.003.04-.005.039-.007.04-.008.039-.009.038-.011.038-.013.038-.014.037-.015.037-.017.036-.019.035-.02.035-.021.033-.022.033-.024.032-.025.031-.026.03-.027.029-.029.027-.03.027-.03.025-.032.024-.032.023-.034.022-.034.02-.035.019-.036.018-.036.016-.037.014-.038.013-.038.012-.038.01-.039.008-.039.007-.04.006-.039.003-.04.003h-.04l-.039-.001-.04-.002-.04-.004-.039-.006-.039-.007-.039-.009-.038-.01-.038-.012-4.087-1.362-.114-.484 3.81-3.81.029-.027.029-.026.031-.025.032-.023.032-.022.034-.02.035-.02.035-.018.037-.016.036-.015.038-.014.038-.012.038-.01.039-.009.039-.008.039-.006.04-.004.039-.003.04-.001h.04z"/></svg>
