<svg xmlns="http://www.w3.org/2000/svg" width="128" height="128" viewBox="0 0 128 128"><path fill="#FFF" d="M50.61 20.69c2.78 3.32 6.08 6.86 7.18 10.32l8.69-13.88c2.08-1.85 4.23-2.55 6.77-3.04 5.29.16 10.25 7.91 13.58 9.87 4.58 7.38 10.55 14.65 10.24 14.68-5.27 2.19-11.44 0-23.68-1.78-35.55-1.77z" fill="#ddbd73"/><g fill="#2f2f2f"><path d="M47.56 69.03c-.16.03-.31-.02-.3-.02-.72-.04-1.13-.05-1.6-.21-1.43-.23-2.63-.71-3.95-.64-.55-.52-.98-1.38-.44-1.81-.34-.46-.85-.8-1.29-1.18-.13-.18-.57-.49-.72-.58-.08-.26-.16-.49-.2-.77-.01-.6-.3-1.23-.27-1.73.18v-3.05l-.34-.09c-1.24-.04-2.77-.36-4.58-.37-.23-.12-.49-.23-.66-.41-1.32-.71-2.75-.66-4.47-.64-7.31-.43-12.31 1.25-21.49 9.42-2.81.75-7.6.22-11.44.34-16.53-3.44-37.28-6-68.95-39.15C18.08 25.03 82.62 30.6 63.44 8.39z" fill="#fff"/></g></svg>
