<svg xmlns="http://www.w3.org/2000/svg" xmlns:xlink="http://www.w3.org/1999/xlink"><symbol id="b" viewBox="-64.5 -64.5 129 129"><g fill="none" stroke="#4285f4" stroke-miterlimit="10"><path d="M-64-64H64V64H-64z"/><path d="M36.95 37.82C27.32 46.32 14.2 51 0 51c-14.27 0-27.39-4.62-36.96-13.01C-47.45 28.79-53 15.65-53 0c0-15.58 5.55-28.69 16.04-37.92C-27.36-46.35-14.24-51 0-51c14.17 0 27.29 4.71 36.95 13.25C47.45-28.45 53-15.4 53 0c0 15.47-5.55 28.55-16.05 37.82z"/><path d="M0 55c-29.59 0-57-19.01-57-55 0-35.8 27.41-55 57-55S57-35.31 57 0c0 35.51-27.41 55-57 55z"/><path d="M0-43c-12.29 0-23.54 3.94-31.68 11.09C-40.39-24.25-45-13.21-45 0c0 29.7 22.6 43 45 43 21.67 0 45-13.46 45-43S21.67-43 0-43zM-.01 51V-51M-16 48.95v-97.88M15.99 48.91v-97.84M53 .08c-5.71 0-8.52 3.3-7.01 5 0 37.33 0 50.42 4.58 73.49 0" fill="#400e8e"/><path d="M115 11.12c14.99-4.47 29.08-16.97 39.35-8.99 10.43 3.62 20.72 28.56 27.12 15.81 22l.89 8.92 31.09-5.03 24.66-10.54c-.31-13.38 11.71-24.12 15.37z" fill="#ed6c30"/><ellipse transform="rotate(-45.013 40.448 37.964 22.145 87.359 29.297 89.104 35.81)-2.19 45.541 2.134 52.28c1.291-4.691 1.093-8.739-1.67-11.671-4.191-14.601-12.551-10.753-7.181-13.585-20.971-30.618-30.355-19.55-42.321-2.951-50.8 5.417-32.957 20.345-6.713 20.745.614 31.45 40.43 17.502 20.488 2.245 1.226 4.383 3.92 8.64 5.419 14.495C18.109 9.578 2.889 10.86 1.857 17.652c-.777 1.117-1.54 2.005-2.753 1.575-1.679 1.818-3.475 1.709-3.918 5.516-.518 1.164-1.856 1.57-3.553 2.223-.311 1.403-.702 1.707-1.35 2.23 0 4.07 1.098 4.625 5.407 3.224 7.561-3.469.608-7.984 1.688-16.619 12.059-30.811-.271-7.186-7.013-10.501-12.651zM84.077 50.19c-.49-.096-1.193-.472-1.644-1.082-1.014 0-1.995.101-3.23 1.039-1.115 0-.802.068-.993.146-.984a5.563 6.653 0 0 1 2.1 3.166 1.5 1.5 0 0 1-.567-.204L15 15.5z1V21 20h6.3c5.554 0 7.785-5.043 5.956-2.922.232a1.776 1.776 0 0 1 1.068-1.18c.116-.443.037-.77.273-1.156l.038-1.68c-.201-.816-.012-.805-.01-1.001-.007-.012-.037-.03-.04-.05aC25.359 25.03 15.703 3.5 39 3.01c1.281 0 2.19.06 4.074.657a16.118 16.128 0 0 1-8.029-4.003 12.018 12.018 0 0 1-3.009 7.712 12.027 12.027 0 0 1-7.349 3.245c-1.724.009-2.869.009-4.282 0a10.978 10.978 0 0 1-3.513-.621 11.033 11.033 0 0 1-6.677-6.596 10.926 10.926 0 0 1-.667-3.64 262.757 262.757 0 0 1 0-3.322 13.937 13.937 0 0 1 .849-4.634 14.057 14.057 0 0 1 3.37-5.204 14.051 14.051 0 0 1 5.128-3.19A13.962 13.962 0 0 1 14.994 2l.18.001z" fill-rule="nonzero"/><path d="M28 16c0-3.183-1.264-6.235-3.515-8.485A11.996 11.996 0 0 0 16 4C9.373 4 4 9.373 4 16v4a8 8 0 0 0 8 8h8a8 8 0 0 0 8-8v-4z" fill="#fbc546"/><path d="M23 12l-4 4H1v1zM14 11h5.583a4.5 4.5 0 0 0 5 0 2.5 1.5 0 0 0 3 0l-2.5 18a2 2 0 0 1-2 0v-1.5zM9.001 20.001l.017.011.021.01.023.018.081.019.08.024.017.024.078.044.071.045.05.041.056.046.059.047.062.052.065.051.065.051.063.052.061.052.069.049.067.049.06.058.061.058.062.058.063.056.062.058.061.058.062.058.062.058.063.056.053.056.053.056.054.057.056.057.057.058.057.058.056.058.056.057.057.056.058.055.058.053.059.053.06.053.06.051.061.052.062.041.062.038.063.037.064.335.065.034.065.032.065.031.063.034.062.035.062.035.062.034.063.033.062.032.063.03.064.031.063.029.065.029.067.027.068.024.068.024.069.021.07.02.07.018.07.016.07.015.071.013.071.011.071.009.072.008.071.006.072.004.071.003.072.001.072-.001.072-.003.072-.004.071-.006.072-.008.071-.009.072-.011.071-.013.071-.015.071-.016.07-.018.07-.02.07-.021.07-.024.069-.024.068-.027.069-.029.067-.03.067-.031.067-.034.065-.035.065-.037.065-.039.064-.04.063-.043.062-.043.061-.046.06-.047.06-.049.058-.049.059-.05.058-.05.058-.052.057-.052.056-.053.056-.052.057-.05.058-.049.06-.047.061-.046.062-.045.063-.045.062-.043.061-.044.062-.045.062-.045.061-.044.062-.04.062-.04.062-.039.06-.039.061-.038.061-.037.062-.037.063-.035.064-.034.065-.031.067-.031.067-.028.068-.027.068-.024.069-.024.07-.021.069-.02.059-.018.069-.018.069-.023.069-.022.058-.023.057-.015.057-.016.057-.016.057-.016.058-.014.061-.018.062-.016.061-.016.062-.019.062-.019.062-.019.062-.019.062-.021.061-.023.062-.023.062-.021.063-.02.063-.02.065-.021.075-.021.073-.02.073-.019.072-.018.072-.017.072-.018.072-.019.073-.02.074-.021.073-.02.073-.019.073-.018.073-.017.074-.017.073-.018.073-.018.073-.019.073-.02.074-.021.073-.022.072-.022.073-.024.072-.024.072-.026.071-.026.072-.027.07-.027.071-.029.07-.03.07-.03.069-.031.069-.033.069-.032.068-.034.068-.035.068-.035.067-.037.066-.037.066-.038.066-.039.065-.039.065-.04.064-.042.064-.043.063-.043.062-.045.062-.045.061-.046.061-.047.06-.047.06-.049.059-.049.059-.05.058-.05.058-.052.058-.053.057-.054.057-.054.057-.054.059-.053.059-.051.06-.05.062-.049.063-.048.063-.047.064-.046.064-.045.065-.044.066-.043.067-.042.068-.041.068-.04.069-.039.069-.037.07-.036.071-.035.072-.034.072-.033.072-.031.073-.03.074-.029.074-.028.075-.026.075-.026.076-.024.077-.022.077-.021.077-.02.077-.019.078-.017.079-.017.079-.014.079-.014.08-.012.08-.01.08-.009.08-.008.081-.007.081-.005.082-.003.081-.002.078-.001h1.536l.078.001zM12 13.5a1.503 1.503 0 0 0-1.5-1.5A1.503 1.503 0 0 0 9 12.5v2a1.503 1.503 0 0 0 1.5 1.5 1.503 1.503 0 0 0 1.5-1.5v-2zM23 12.498c0-.827-.671-1.498-1.498-1.498h-.004c-.827 0-1.498.671-1.498 1.498v2.004c0 .827.671 1.498 1.498 1.498h.004c.827 0 1.498-.671 1.498-1.498v-2.004z"/></g></symbol></svg>
