<svg xmlns="http://www.w3.org/2000/svg" viewBox="0 0 47.5 47.5"><defs><clipPath id="a"><path d="M0 38h38V0H0v38z"/></clipPath></defs><g clip-path="url(#a)" transform="matrix(1.25 0 0 -1.25 0 47.5)"><path d="M37 17C37 7 26 1 1 1-1s-7.777 6-9.369" fill="#fff"/><path d="M6 11.1a1.5 1.5 0 0 0-1.5-1.5h-2.502A1.999 1.999 0 0 0 18 13.998V14l3 .013v1.593c0 .362.106.749.115 1.241l-.418 1.344c-.347.34-.762.629-.632 1.032l-.001-.001a.998.998 0 0 1-.572.183 1.01 1.01 0 0 1-1.6-.123 1.028 1.028 0 0 1-.717-1.261 1.398 1.398 0 0 0-1.098-.495l.936-.309a.933.96 0 0 0-.597-.308l-30.31-5.604a2.054 2.054 0 0 1-.206-.239 1.028 1.028 0 0 1 .651-.613z"/><path fill="#FBB817" d="M25.276 92.196c-1.71-1.006-4.119-.894-4.573-1.344.036-.225.047-.541.678-1.032 1.016-.071.273-1.171 1.848-.885 2.275-1.386 5.478-6.333 6.574-11.071 1.372C1.254 4.669 1.097 6.482 1.584c-.897.924-2.499 1.271-3.563-.161-.686-.082-1.052-.079-1.521zM57.207 11.283A6.017 6.017 0 0 1 1.377-.231h9.323z" fill-rule="nonzero"/><path d="M25.5 24.5l-.072.005-.029.064-.025.063-.029.067-.035.068-.031.069-.03.069-.028.079-.027.089-.025.089-.023.088-.022.089-.02.089-.016.08-.01.072-.003.073-.004.072-.005.071-.006.072-.008.071-.009.072-.011.071-.013.071-.015.071-.016.07-.018.07-.02.07-.021.07-.02.07-.019.072-.018.072-.017.073-.016.072-.017.072-.019.071-.02.071-.021.07-.023.07-.024.069-.025.069-.025.068-.027.068-.028.068-.038.066-.037.065-.037.065-.035.065-.037.065-.037.065-.037.065-.037.066-.037.066-.037.066-.037.066-.037.066-.037.067-.037.068-.035.068-.034.068-.032.069-.031.078-.03.078-.027.089-.027.089-.023.099-.022.199-.03.19-.037.18-.034.09-.032.091-.029.091-.028.092-.027.093-.026.092-.025.091-.027.092-.03.091-.033.09-.034.091-.038.098-.038.097-.038.087-.038.087-.039.086-.041.085-.042.083-.043.083-.043.082-.045.08-.047.089-.049.081-.05.092-.052.091-.054.083-.055.084-.058.083-.059.083-.06.082-.061.081-.06.081-.059.081-.059.083-.058.084-.056.084-.056.083-.055.084-.054.084-.056.074-.057.074-.058.074-.068.081-.067.082-.069.08-.06.078-.062.077-.062.076-.064.075-.065.073-.067.072-.069.071-.069.072-.071.071-.073.072-.073.074-.072.071-.06.071-.06.072-.07.07-.07.071-.071.072-.07.074-.07.075-.07.077-.069.078-.067.087-.066.08-.063.079-.063.08-.062.081-.06.081-.061.082-.069.081-.069.083-.068.085-.066.085-.065.085-.055.085-.053.085-.053.087-.051.086-.05.088-.059.08-.048.091-.047.093-.045.094-.043.095-.041.097-.041.069-.04.069-.039.069-.037.07-.036.071-.035.072-.034.072-.033.072-.032.073-.031.073-.031.074-.029.074-.027.075-.026.076-.026.075-.024.077-.022.077-.021.077-.02.077-.019.078-.017.079-.017.079-.014.079-.014.08-.012.08-.01.08-.009.08v-.008.089-.007.081-.005.082-.003.081-.002.078-.001h1.338l.039.002.039.005.04.005.039.007.039.008.038.01.038.011.038.013.037.015.037.015.035.018.036.018.034.02.034.022.032.023.032.025.03.025.029.027.029.028.027.029.026.03.025.031.023.032.022.033.021.034.02.034.018.036.017.036.015.036.014.038.012.038.011.038.009.039.008.039.006.039.004.039.003.04.002.04v.039l-.002.04-.003.04-.005.039-.007.04-.008.039-.009.038-.011.038-.013.038-.014.037-.015.037-.017.036-.019.035-.02.035-.021.033-.022.033-.024.032-.025.031-.026.03-.027.029-.029.027-.03.027-.03.025-.032.024-.032.023-.034.021-.034.02-.036.019-.035.017-.037.016-.037.014-.038.013-.038.011-.038.01-.039.008-.039.007-.04.005-.039.004-.04.002h-.04l-.04-.001-.039-.003-.04-.004-.039-.006-.039-.008-.039-.009-.038-.01-.038-.012-.038-.014-.036-.015-.037-.016-.035-.018-.035-.02-.034-.02-.033-.022-.032-.024-.031-.024-.031-.026-.029-.027-.028-.028-.027-.029-.026-.031-.024-.031-.024-.032-.022-.033-.02-.034-.02-.035-.018-.035-.016-.037-.015-.036-.014-.038-.012-.038-.01-.038-.009-.039-.008-.039-.006-.039-.004-.04-.003-.039-.001-.04v-.04l.002-.04.004-.039.005-.04.007-.039.008-.039.01-.038.011-.038.013-.038.014-.037.016-.037.017-.035.019-.036.02-.034.021-.034.023-.032.024-.032.025-.031.026-.029.028-.029L21 13.586l2.707 2.707zM13.707 16.293l.028.029.026.029.025.031.024.032.023.032.021.034.02.034.019.036.017.035.016.037.014.037.013.038.011.038.01.038.008.039.007.039.005.04.004.039.002.04v.04l-.001.04-.003.039-.004.04-.006.039-.008.039-.009.039-.01.038-.012.038-.014.038-.015.036-.016.037-.018.035-.02.035-.02.034-.022.033-.024.032-.024.031-.026.031-.027.029-.028.028-.029.027-.031.026-.031.024-.032.024-.033.022-.034.02-.035.02-.035.018-.037.016-.036.015-.038.014-.038.012-.038.01-.039.009-.039.008-.039.006-.04.004-.039.003-.04.001h-.04l-.04-.002-.039-.004-.04-.005-.039-.007-.039-.008-.038-.01-.038-.011-.038-.013-.037-.014-.037-.016-.035-.017-.036-.019-.034-.02-.034-.021-.032-.023-.032-.024-.031-.025-.029-.026-.029-.028L21 14.414l-1.293 1.293-.029.028-.029.026-.031.025-.032.024-.032.023-.034.021-.034.02-.036.019-.035.017-.037.016-.037.014-.038.013-.038.011-.038.01-.039.008-.039.007-.04.005-.039.004-.04.002h-.04l-.04-.001-.039-.003-.04-.004-.039-.006-.039-.008-.039-.009-.038-.01-.038-.012-.038-.014-.036-.015-.037-.016-.035-.018-.035-.02-.034-.02-.033-.022-.032-.024-.031-.024-.031-.026-.029-.027-.028-.028-.027-.029-.026-.031-.024-.031-.024-.032-.022-.033-.02-.034-.02-.035-.018-.035-.016-.037-.015-.036-.014-.038-.012-.038-.01-.038-.009-.039-.008-.039-.006-.039-.004-.04-.003-.039-.001-.04v-.04l.002-.04.004-.039.005-.04.007-.039.008-.039.01-.038.011-.038.013-.038.014-.037.016-.037.017-.035.019-.036.02-.034.021-.034.023-.032.024-.032.025-.031.026-.029.028-.029L21 11.586l2.707 2.707zM13.707 14.293l.028.029.026.029.025.031.024.032.023.032.021.034.02.034.019.036.017.035.016.037.014.037.013.038.011.038.01.038.008.039.007.039.005.04.004.039.002.04v.04l-.001.04-.003.039-.004.04-.006.039-.008.039-.009.039-.01.038-.012.038-.014.038-.015.036-.016.037-.018.035-.02.035-.02.034-.022.033-.024.032-.024.031-.026.031-.027.029-.028.028-.029.027-.031.026-.031.024-.032.024-.033.022-.034.02-.035.02-.035.018-.037.016-.036.015-.038.014-.038.012-.038.01-.039.009-.039.008-.039.006-.04.004-.039.003-.04.001h-.04l-.04-.002-.039-.004-.04-.005-.039-.007-.039-.008-.038-.01-.038-.011-.038-.013-.037-.014-.037-.016-.035-.017-.036-.019-.034-.02-.034-.021-.032-.023-.032-.024-.031-.025-.029-.026-.029-.028L21 14.414l-1.293 1.293-.029.028-.029.026-.031.025-.032.024-.032.023-.034.021-.034.02-.036.019-.035.017-.037.016-.037.014-.038.013-.038.011-.038.01-.039.008-.039.007-.04.005-.039.004-.04.002h-.04l-.04-.001-.039-.003-.04-.004-.039-.006-.039-.008-.039-.009-.038-.01-.038-.012-.038-.014-.036-.015-.037-.016-.035-.018-.035-.02-.034-.02-.033-.022-.032-.024-.031-.024-.031-.026-.029-.027-.028-.028-.027-.029-.026-.031-.024-.031-.024-.032-.022-.033-.02-.034-.02-.035-.018-.035-.016-.037-.015-.036-.014-.038-.012-.038-.01-.038-.009-.039-.008-.039-.006-.039-.004-.04-.003-.039-.001-.04v-.04l.002-.04.004-.039.005-.04.007-.039.008-.039.01-.038.011-.038.013-.038.014-.037.016-.037.017-.035.019-.036.02-.034.021-.034.023-.032.024-.032.025-.031.026-.029.028-.029L21 11.586l2.707 2.707zM13.707 14.293l.028.029.026.029.025.031.024.032.023.032.021.034.02.034.019.036.017.035.016.037.014.037.013.038.011.038.01.038.008.039.007.039.005.04.004.039.002.04v.04l-.001.04-.003.039-.004.04-.006.039-.008.039-.009.039-.01.038-.012.038-.014.038-.015.036-.016.037-.018.035-.02.035-.02.034-.022.033-.024.032-.024.031-.026.031-.027.029-.028.028-.029.027-.031.026-.031.024-.032.024-.033.022-.034.02-.035.02-.035.018-.037.016-.036.015-.038.014-.038.012-.038.01-.039.009-.039.008-.039.006-.04.004-.039.003-.04.001h-.04l-.04-.002-.039-.004-.04-.005-.039-.006-.039-.009-.038-.009-.038-.012-.038-.013-.037-.014-.037-.016-.035-.017-.036-.018-.034-.02-.034-.022-.032-.022-.032-.024-.031-.026-.029-.026-.029-.028L21 13.423l-1.293 1.292-.029.028-.029.026-.031.026-.032.024-.032.022-.034.022-.035.02-.036.018-.037.017-.036.016-.037.014-.038.013-.039.012-.038.01-.039.008-.039.007-.04.006-.039.003-.04.003h-.04l-.039-.001-.04-.002-.04-.004-.039-.006-.039-.007-.039-.009-.038-.01-.038-.012-4.087-1.362-.114-.484 3.81-3.81.029-.028.029-.026.031-.025.032-.024.032-.023.034-.021.034-.02.036-.019.035-.017.037-.016.037-.014.038-.013.038-.011.038-.01.039-.008.039-.007.04-.005.039-.004.04-.002h.04l.04.001z"/></g></svg>
