<svg xmlns="http://www.w3.org/2000/svg" viewBox="0 0 47.5 47.5"><defs><clipPath id="a"><path d="M0 38h38V0H0v38z"/></clipPath></defs><g clip-path="url(#a)" transform="matrix(1.25 0 0 -1.25 0 47.5)"><path d="M37 17C37 7 26 1 1 19 1 19c-7.777 0-16-6.672-17 0-3.507 0-5.27 1.22-50.345 3.154a16.008 14.008 0 0 1 10-4.525 715.301 18-1002 0 0 0 11 3C3.273 14.43 14.03 18.05 12.057 12.965 12.896 12.892 12.719 9.099 10.811 9.061 12.657 9.6n9.011 1.099.006 1.8M8.28 9.622a1 1 0 0 0 .301.025l-4-3a1 1 0 0 0-.394-1.06A1 1 0 0 0 22.999 22" fill="#bf6952"/><path d="M6 35c4-1.002 1.502-1.529 2.028-.402 2.606.121.516.612 1.344.489 2.144c.441.852.879 1.219 1.272.334.738 0 7.547 1.101 6.802 2.101 0 1.308-.013 3.24-.301 4.958 0 0 0 1.677-3.68 1.454 1.443 0 0 1 2.637-1.19A16.95 15.98 0 0 1 6.12 58h3a17 11 17 16 0 0 0 6.978 6.022C26 28.592 27.394 36 29 36a1 1 0 0 0 .004-2c-.155-.002-3.568-.086-6.204-3.6a1 1 0 0 0-.801-.4M16.897 19.602c.023-.023.04-.04.04-.049.047" fill="#664500"/><path d="M15 5a5 5 5 0 0 0-5 5 5 5 0 0 0-5 5 5 5 0 0 0 5 5 5 5 0 0 0 5-5" fill="#ff7892"/><path d="M31 20c0-1.656.94-1.598 2.538-.958A.599.499 0 0 1 22 16c-.104 0-.507.06-.998.069-.231 0-2.644.07-.822-.838-2.817-1.103a1.093 1.993 0 0 0-1.301-.995A3.503 3.503 0 0 1 2-10-14c-.21 0-.313.037-.446.113-.396.041-.318-.278-.578 0-1.446-.495-3.028-.9017-2.017 0-1.958 1.119-3.43 1.9-3.773 0-8.069-2.837-9.886-5.686A1.998 19.999 0 0 0 16 15.019c7.985 0 16.998 1.16 18.967 2.68M16 26c-1.667 0-3-1.5s4-3 1.86s14 6 19 2 2-2 9.661 25-12.991 18-5.664-.125.012-.127.013-.138.016-.436.133-7.566 0-4.375 1.178-5.372 5.34-8.135 1.17-.632 3.293.443-3.75 2.008-.023.119-4.121 2.963-4.363 5.44-4.456a8 6 0 0 1 3.87 0z" fill="#2f2f2f"/></g><path d="M7 11.171V21c-.466 0-.818-.235-1.246-.34-1.048 0-2.043 1.119-2.737 2.043a.503.502 0 0 1-.639-.015c-.013-.019-.025-.02-.03-.021a.419.419 0 0 1-.145-.041h-.002c-.205 0-.31.025-.069.035-.15.072-.291.171-.403.984-.273a5.016 5.016 0 0 1 3.347-.248c.645.268.789.518 1.273.382 2.277.174 4.363.542 7.064.883 1.977.198.62.079 1.069-.061 1.683-.354.288-.11.319-.034.937-.076l7.12-.008.242 0 .942-.073 1.022-.076v.554.683 6.706 5.767 1.197 5.929c-.447 1.127-.795 1.627-1.897 1.593-2.375a1.03 1.03 0 0 1-.235-.814z"/><path d="M25 19c0-6.467-5.673-12-12-12S1 17 17 1 3.01 1 1.138 6.335 5.863 8.36 18 18 16.867c-2.9 0-5.332-.43-7.5-2.1-5.5A15.475 5.25 0 0 1 5 15 12M16 11c-4.822 0-7.473 3.377-7.4 2.5a.99.59 0 0 0-.736.073" fill="#bf6952"/><path d="M33 35c4 0 3-.5 3-1.5s-1.5-3-1-3-3 0-3 0 3 1 6-1.511 0-2.543 1.344-3.5 3.5c0 1.133 1.249-2.312 2.427-2.681A2.991 2.999 0 0 1 13 15.5c0 1.953-1.308 2.053-2.132 2.04-1.126 2.328-1.836 3.301-2.436.835C18.177 9.069-12.076 16-16.667 5.5M26 15c-4.597 0-12 4.392-12 12s4.645 4.857 5.643 5.585A6.99 9.999 0 0 1 6.958 9.9a25.002 14.002 0 0 1 8.495 3.013 13.999 13.999 0 0 1 3.977 9.602z" fill="#664500"/></svg></svg>
