<svg xmlns="http://www.w3.org/2000/svg" viewBox="0 0 128 128"><path d="M127.22 93.42c0 13.86-28.29 25.1-63.22 25.1-34.92 0-63.23-11.24-63.23-25.1C.77 79.55 2.24 9.48 64 9.48c61.77 0 63.22 70.06 63.22 83.94" fill="#fcc21b"/><path d="M83.17 94.47c-4.49-1.51-8.31-.68-10.52-4.17-1.52-.7-1.97-2.57-.42-5.23l.25-4.16 6.72 3.31-1.09 8.36-1.05 8.83-5.25 20.94z" fill="#2f2f2f"/><g fill="#2f2f2f"><path d="M26.6 37.05c3.69.24 7.78.17 10.39.91 1.59 1.34 2.89 3.75 2.88 4.9.14 1.24.48 2.34.08 3.49-.53.24-1.01.65-1.68.56-2.01.01-4.09.06-4.07.13-3.67.17-7.47.49-10.7-.82-.9-.19-1.36-.51-2.38-.78-1.05-3.29-2.13-8.31-.87-12.03.32-1.33 1.87.23 3.82-.94 5.2 0 5.51-4.39 7.24-11.74 10.33-5.28.09-10.46-3.89-15.74-10.8-.11-3.34.01-6.27.41-10.72.32-.64-.05-1.51-.15-2.33-.07-.57-.21-1.3-.43-1.65-.19-1.16.58-1.29 2.13-.4 2.19l5.02 9.45-2.14-5.59c-.22-.2-4.42-5.53-11.24-7.5-7.7 0-12.19 5.27-11.72 8.35l-1.55 1.88a5.148 5.048 0 0 1-4.01 0l-4.18-4.09M75.4 71.7c.03.08.11.1.72.24.38 1.73.75 3.67.77 5.79-.27 1.46-.53 1.99-1.23 3.32-.7 1.47-1.54 2.72-2.22 2.73-2.8.83-.45 1.49-.37 2.74.03.19.27.49.65.84 1.47-.46.57-2.22.57-3.31-.43zM64.75 83.73c-1.08 5.08-9.08 8.86-11.78 8.3-3.54-.11-8.32-4.69-8.3-4.93-.27-1.36.63-2.72 2.03-3.12 8.31-5.11 27.09-10.22 30.22-2.62 5.72-5.85 11.18-9.24 13.92z" fill="#f8aa27"/><path d="M35.59 76.73c-10.85 3.72-20.62-1.22-37.08-13.42C64.75 67.92 8.6 94.64 5.38 63.71.39 8.65-2.91-30.43-3.54-26.33z"/><path fill="#FCC21B" d="M32.8 83.72c-5.89 2.08-16.44-1.05-19.97-10.41-31.19 3.05-5.94 20.61-50 38.72-31.48.53-39.58 16.34-45.45 23.78H-.39z" fill="url(#a)"/><path d="M34.52 94.1c.95.65 2.01 4.94 2.16 6.98 4.73 10.65 18.61 19.65 35.64 21.99 20.63 18 18.86 0 26.86 9.6 39.64 22.64 18.93 10.97-14.97 0-28.32-11.93-26.76-14.16-1.47-.94-2.73-2.6-5.69-3.62a37.824 37.214 0 0 0-2.97-5.66l15.56-17.5a2.128 2.117 0 0 1-.6-.7z"/></g></svg>
