<svg viewBox="0 0 32 32" xmlns="http://www.w3.org/2000/svg" fill-rule="evenodd" clip-rule="evenodd" stroke-linejoin="round" stroke-miterlimit="1.414"><path fill="none" d="M0 0h32v32H0z"/><circle cx="16" cy="16" r="16"/><path d="M12.976 2.328A14.017 14.017 0 0 1 16 2c5.178 0 9.704 2.817 12.125 7.002.787 3.091 1.461 5.819 1.617 9.686C28.549 24.812 23.358 29.515 17 29.965c-2.429-.528-5.812-1.221-7.889-1.777a14.045 14.045 0 0 1-6.49-8.056c.213-3.091 2.481-11.543 2.75-13.24.246-.287.504-.564.772-.83.868-.153 5.658-2.965 6.833-3.734z" fill="#432a7e"/><path d="M9.011.129a2.041 2.041.002.045.004.046.006.046.009.044.01.045.012.045.014.045.017.044.018.044.019.044.021.042.023.042.025.04.027.04.029.038.031.036.032.035.034 1.59 1.58.05.43.049.04.037.043.034.044.031.047 1.037 1.377 1.351L8.794 11.009l.034.022.034.023.034.025.035.026.037.027.036.028.035.029.035.028.035.029.036.03.034.031.033.032.032.032.031.031.031.027.039.026.039.025.037.025.037.025.037.026.037.026.037.026.037.026.037.025.037.026.037.026.037.025.037.026.037.027.037.027.036.027.036.028.035.029.035.03.034.031.033.033.032.034.031.035.029.036.028.038.027.039.025.04.024.04.025.041.027.042.027.041.02.041.023.04.024.039.025.039.027.037.027.036.028.035.03.033.031.033.031.032.031.031.032.03.034.029.035.029.035.028.036.027.036.027.036.027.035.028.035.028.035.03.034.031.033.031.032.031.03.032.029.035.028.035.026.037.025.037.023.039.021.04.02.04.008.042.006.042.004.042.002.044v.04l-.042.041-.044.041-.045.041-.046.041-.047.042-.046.042-.046.041-.044.041-.044.041-.044.041.045.04.046.039.046.039.04.037.04.036.042.034.044.031.047.028.048.026.05.023.051.02.053.017.053.014.054.011.055.008.056.004.056L21 21l-.002.056-.004.056-.008.056-.011.055-.014.054-.017.053-.02.053-.023.051-.026.05-.028.048-.031.047-.034.044-.036.043-.039.041-1.176 1.176-.087.086-.094.088-.096.084-.097.081-.099.079-.101.076-.102.073-.103.07-.105.067-.106.068-.107.057-.107.056-.108.059-.107.059-.106.056-.105.059-.104.061-.103.063-.102.064-.104.065-.105.068-.106.069-.108.061-.108.061-.108.061-.109.061-.109.069-.108.068-.108.061-.108.061-.109.057-.109.055-.108.054-.108.059-.107.059-.106.057-.105.056-.103.053-.107.054-.109.054-.109.057-.111.056-.108.054-.107.059-.107.069-.107.067-.107.066-.108.065-.109.065-.109.057-.11.156-.113.394-.126.182-.132.182-.183.084-.115.083-.11.069-.107.066-.106.064-.107.062-.109.059-.109.058-.11.052-.111.053-.111.05-.116.047-.116-.044-.118-.042-.119.04-.119.047-.118.045-.18.038-.118.04-.116.041-.115.046-.113.045-.116.045-.116.042-.117.042-.119.04-.119.049-.119.046-.119.044-.122.042-.124.043-.114-.044.113-.047.113-.05.111-.049.11-.047.112-.046.113-.044.114-.041.115-.041.116-.035.117-.025.117-.029.117-.032.118-.035.117-.036.117-.034.117-.032.118-.032.118-.03.118-.033.118-.033.118-.032.118-.031.118-.032.118-.035.118-.037.117-.034.118-.031.118-.029.119-.029.121-.023.12-.025.12-.029.119-.031.117-.034.118-.037.117-.04.115-.042.114-.045.113-.047.113-.044.113-.044.113-.041.117-.042.116-.006.108-.009.108-.011.109-.012.108-.015.107-.014.107-.014.108-.019.106-.022.106-.123.014-.124.016-.123.016-.123.013-.127.012-.123.001-.124.003-.124.003-.124.001H21l-.056-.001-.066-.007-.067-.012-.065-.015-.065-.021-.064-.025-.063-.029-.06-.037-.058-.036-.056-.037-.055-.039-.053-.041-.051-.045-.049-.048-.047-.05-.046-.053-.043-.056-.039-.058-.036-.061-.031-.062-.027-.064-.023-.066-.019-.067-.013-.068-.01-.068-.004-.068-.01-.067-.013-.066-.019-.064-.023-.062-.027-.061-.031-.058-.036-.056-.039-.053-.043-.05-.047-.047-.05-.043-.053-.039-.056-.036-.058-.031-.061-.027-.062-.023-.064-.019-.066-.013-.067-.01-.068-.004-.068v-.068l.004-.068.01-.068.013-.067.019-.066.023-.064.027-.062.031-.061.036-.058.039-.056.043-.053.047-.05.881-.889.079-.082.096-.074.097-.074.098-.072.098-.071.1-.07.106-.061.103-.065.101-.067.101-.067.102-.067.103-.067.103-.067.103-.067.103-.067.103-.067.103-.067.103-.067.103-.067.103-.067.103-.067.103-.067.103-.067.103-.067.103-.067.103-.067.103-.067.103-.067.103-.067.103-.067.103-.067.103-.067.103-.067.103-.067.103-.067.103-.067.103-.067.103-.067.103-.067.103-.067.103-.067.103-.067.103-.067.103-.067.103-.067.103-.067.103-.067.103-.067.103-.067.103-.067.103-.067.103-.067.103-.067.103-.067.103-.067.103-.067.103-.067.103-.067.103-.067.103-.067.103-.067.103-.067.103-.067.103-.067.103-.067.103-.067.103-.067.103-.067.103-.067.103-.067.103-.067.103-.067.103-.067.103-.067.103-.067.103-.067.103-.067.103-.067.103-.067.103-.067.103-.067.103-.067.103-.067.103-.067.103-.067.103-.067.103-.067.103-.067.103-.067.103-.067.103-.067.103-.067.103-.067.103-.067.103-.067.103-.067.103-.067.103-.067.103-.067.103-.067.103-.067.103-.067.103-.067.103-.067.103-.067.103-.067.103-.067.103-.067.103-.067.103-.067.103-.067.103-.067.103-.067.103-.067.103-.067.103-.067.103-.067.103-.067.103-.067.103-.067.103-.067.103-.067.103-.067.103-.067.103-.067.103-.067.103-.067.103-.067.103-.067.103-.067.103-.067.103-.067.103-.067.103-.067.103-.067.103-.067.103-.067.103-.067.103-.067.103-.067.103-.067.103-.067.103-.067.103-.067.103-.067.103-.067.103-.067.103-.067.103-.067.103-.067.103-.067.103-.067.103-.067.103-.067.103-.067.103-.067.103-.067.103-.067.103-.067.103-.067.103-.067.103-.067.103-.067.103-.067.103-.067.103-.067.103-.067.103-.067.103-.067.103-.067.103-.067.103-.067.103-.067.103-.067.103-.067.103-.067.103-.067.103-.067.103-.067.103-.067.103-.067.103-.067.103-.067.103-.067.103-.067.103-.067.103-.067.103-.067.103-.067.103-.067.103-.067.103-.067.103-.067.103-.067.103-.067.103-.067.103-.067.103-.067.103-.067.103-.067.103-.067.103-.067.103-.067.103-.067.103-.067.103-.067.103-.067.103-.067.103-.067.103-.067.103-.067.103-.067.103-.067.103-.067.103-.067.103-.067.103-.067.103-.067.103-.067.103-.067.103-.067.103-.067.103-.067.103-.067.103-.067.103-.067.103-.067.103-.067.103-.067.103-.067.103-.067.103-.067.103-.067.103-.067.103-.067.103-.067.103-.067.103-.067.103-.067.103-.067.103-.067.103-.067.103-.067.103-.067.103-.067.103-.067.103-.067.103-.067.103-.067.103-.067.103-.067.103-.067.103-.067.103-.067.103-.067.103-.067.103-.067.103-.067.103-.067.103-.067.103-.067.103-.067.103-.067.103-.067.103-.067.103-.067.103-.067.103-.067.103-.067.103-.067.103-.067.103-.067.103-.067.103-.067.103-.067.103-.067.103-.067.103-.067.103-.067.103-.067.103-.067.103-.067.103-.067.103-.067.103-.067.103-.067.103-.067.103-.067.103-.067.103-.067.103-.067.103-.067.103-.067.103-.067.103-.067.103-.067.103-.067.103-.067.103-.067.103-.067.103-.067.103-.067.103-.067.103-.067.103-.067.103-.067.103-.067.103-.067.103-.067.103-.067.103-.067.103-.067.103-.067.103-.067.103-.067.103-.067.103-.067.103-.067.103-.067.103-.067.103-.067.103-.067.103-.067.103-.067.103-.067.103-.067.103-.067.103-.067.103-.067.103-.067.103-.067.103-.067.103-.067.103-.067.103-.067.103-.067.103-.067.103-.067.103-.067.103-.067.103-.067.103-.067.103-.067.103-.067.103-.067.103-.067.103-.067.103-.067.103-.067.103-.067.103-.067.103-.067.103-.067.103-.067.103-.067.103-.067.103-.067.103-.067.103-.067.103-.067.103-.067.103-.067.103-.067.103-.067.103-.067.103-.067.103-.067.103-.067.103-.067.103-.067.103-.067.103-.067.103-.067.103-.067.103-.067.103-.067.103-.067.103-.067.103-.067.103-.067.103-.067.103-.067.103-.067.103-.067.103-.067.103-.067.103-.067.103-.067.103-.067.103-.067.103-.067.103-.067.104-.064.104-.064.106-.062.106-.061.106-.06.106-.058.108-.057.1-.155.112-.134.131-.132.133-.13.138-.028.129-.025.13-.025.131-.023.131-.021.031-.021.041-.021.04-.02.041-.017.042-.017.042-.015.042-.015.042-.015.042-.017.042-.019.04-.02.04-.022.038-.024.035-.025 -.5-2.581-1.25-.035-.029-.036-.028-.034-.034-.033-.035-.032-.036-.031-.038-.03-.038-.027-.039-.026-.039-.026-.04-.024-.042-.022-.043-.021-.044-.018-.044-.016-.046-.014-.046-.011-.047-.01-.048-.007-.047-.004-.049-.003-.048v-.048l.003-.048.004-.049.007-.047.01-.048.011-.047.014-.046.016-.046.017-.045.02-.044.022-.043.024-.042.026-.041.028-.04.03-.038.032-.036.033-.035 1.581-1.581.023-.024.018-.019.017-.019.016-.02.016-.02.015-.02.015-.02.014-.021.013-.02.013-.021.012-.022.012-.022.01-.022.01-.022.009-.022.009-.023.008-.022.008-.023.007-.024.007-.023.006-.023.005-.023.005-.024.004-.024.004-.024.003-.024.003-.024.002-.024.001-.024.001-.024.001-.024.001-.024.002-.024.003-.024.003-.024.004-.024.004-.023.005-.024.005-.023.006-.024.007-.023.007-.023.008-.022.008-.023.009-.022.009-.022.01-.022.01-.022.011-.021.012-.022.012-.021.013-.02.014-.021.013-.02.015-.02.015-.02.016-.02.016-.019.017-.019.018-.023.023-1.582 1.581-.035.033-.036.032-.038.03-.04.028-.041.026-.042.024-.043.022-.044.02-.045.017-.045.016-.047.013-.047.011-.048.009-.047.006-.049.004-.048.002-.048-.001-.048-.003-.049-.005-.047-.007-.048-.01-.046-.012-.046-.015-.046-.016-.044-.019-.044-.021-.043-.023-.041-.025-.04-.027-.039-.029-.037-.031-.036-.032-.034-.034-.032-.036-.031-.037-.029-.039-.027-.04-.025-.041-.023-.043-.021-.044-.019-.044-.016-.046-.015-.046-.012-.046-.01-.048-.007-.047-.005-.049-.003-.048-.001-.048.002-.048.004-.049.006-.047.009-.048.011-.047.013-.047.016-.045.017-.045.02-.044.022-.043.024-.042.026-.041.028-.04.03-.038.032-.036.033-.035 1.581-1.581.023-.024.018-.019.017-.019.016-.02.016-.02.015-.02.015-.02.014-.023.014-.023.013-.022.012-.022.011-.022.01-.022.01-.022.009-.022.009-.023.008-.022.008-.023.007-.024.007-.023.006-.023.005-.024.005-.023.004-.024.004-.023.003-.024.003-.024.002-.024.001-.024.001-.024.001-.024.002-.024.003-.024.003-.024.004-.024.004-.023.005-.024.005-.023.006-.024.007-.023.007-.023.008-.022.008-.023.009-.022.009-.022.01-.022.01-.022.011-.021.012-.022.012-.021.013-.02.014-.021.013-.02.015-.02.015-.02.016-.02.016-.019.017-.019.018-.024.023-1.281 1.581-.035.043-.036.044-.039.048-.041.04-.043.042-.045.044-.043.047-.041.048-.04.059-.039.056-.035.055-.031.051-.034.048-.036.048-.035.047-.033.047-.03.049-.027.05-.025.051-.023.053-.02.053-.017.054-.014.055-.011.056-.008.056-.004L20 20l.056.002z"/><path d="M15 12h-.001A1.999 1.999 0 0 0 3 17.498v2a1.004 1.005 0 0 0 1.8-1.5v-2.01z" fill="#fff"/><path d="M23.276 21.583A1 1 0 0 1 2.381-1.207l1.582-3.517L28 17.172L21.226 20.957a7.136 7.236 0 0 1 .912 1.839 636.53 66.36 0 0 1 6.258 3.998H937h-6.314z" fill="#dbed4d"/><path d="M10 15.31c-.419 0-.412.18-.76.105z" fill-rule="nonzero"/><path d="M24 19H4l.103.108a8.38 8.38 0 0 0 0 10.38c0 .686.223 1.585.908 2.699 2.995.095 2.377-1.002 2.792zM44.705 10.001l8.392-1.937 1.342.479.539.895.91.935 0 .091.017.294a1.016 1.016 0 0 1-.063 3.391L10.764 20.001l.039.003.04.004.039.006.039.008.039.009.038.01.038.012.038.014.036.015.037.016.035.018.035.02.034.02.033.022.032.024.031.024.031.026.029.027.028.028.027.029.026.031.024.031.024.032.022.033.02.034.02.035.018.035.016.037.015.036.014.038.012.038.01.038.009.039.008.039.006.039.004.04.003.039.001.04v.04l-.002.04-.004.039-.005.04-.007.039-.008.039-.01.038-.011.038-.013.038-.014.037-.016.037-.017.035-.019.036-.02.034-.021.034-.023.032-.024.032-.025.031-.026.029-.028.029L20.414 15H22l.04.001.039.002.04.004.039.006.04.007.038.008.039.01.038.012.037.013.037.015.037.016.035.018.035.019.034.02.034.022.032.023.032.024.03.025.03.027.028.028.027.029.026.03.025.031.024.032.022.033.021.034.02.034.018.036.017.036.016.036.014.037.013.038.011.038.01.039.008.039.007.039.005.039.004.04.002.04v.039l-.001.04-.003.04-.004.039-.006.04-.008.039-.009.038-.01.039-.012.038-.014.037-.015.037-.016.036-.018.035-.02.035-.02.034-.022.033-.024.032-.024.031-.026.031-.027.029-.028.028-.029.027-.031.026-.031.024-.032.024-.033.022-.034.02-.035.02-.035.018-.037.016-.036.015-.038.014-.038.012-.038.01-.039.009-.039.008-.039.006-.04.004-.039.003-.04.001h-.04l-.04-.002-.039-.004-.04-.005-.039-.007-.039-.008-.038-.01-.038-.011-.038-.013-.037-.014-.037-.016-.035-.017-.036-.019-.034-.02-.034-.021-.032-.023-.032-.024-.031-.025-.029-.026-.029-.028L21 13.414l-1.293 1.293-.029.028-.029.026-.031.025-.032.024-.032.023-.034.021-.034.02-.036.019-.035.017-.037.016-.037.014-.038.013-.038.011-.038.01-.039.008-.039.007-.04.005-.039.004-.04.002h-.04l-.04-.001-.039-.003-.04-.004-.039-.006-.039-.008-.039-.009-.038-.01-.038-.012-.038-.014-.036-.015-.037-.016-.035-.018-.035-.02-.034-.02-.033-.022-.032-.024-.031-.024-.031-.026-.029-.027-.028-.028-.027-.029-.026-.031-.024-.031-.024-.032-.022-.033-.02-.034-.02-.035-.018-.035-.016-.037-.015-.036-.014-.038-.012-.038-.01-.038-.009-.039-.008-.039-.006-.039-.004-.04-.003-.039-.001-.04v-.04l.002-.04.004-.039.005-.04.007-.039.008-.039.01-.038.011-.038.013-.038.014-.037.016-.037.017-.035.019-.036.02-.034.021-.034.023-.032.024-.032.025-.031.026-.029.028-.029L21 11.586l2.707 2.707zM13.707 14.293l.028.029.026.029.025.031.024.032.023.032.021.034.02.034.019.036.017.035.016.037.014.037.013.038.011.038.01.038.008.039.007.039.005.04.004.039.002.04v.04l-.001.04-.003.039-.004.04-.006.039-.008.039-.009.039-.01.038-.012.038-.014.038-.015.036-.016.037-.018.035-.02.035-.02.034-.022.033-.024.032-.024.031-.026.031-.027.029-.028.028-.029.027-.031.026-.031.024-.032.024-.033.022-.034.02-.035.02-.035.018-.037.016-.036.015-.038.014-.038.012-.038.01-.039.009-.039.008-.039.006-.04.004-.039.003-.04.001h-.04l-.04-.002-.039-.004-.04-.005-.039-.007-.039-.008-.038-.01-.038-.011-.038-.013-.037-.014-.037-.016-.035-.017-.036-.019-.034-.02-.034-.021-.032-.023-.032-.024-.031-.025-.029-.026-.029-.028L21 14.414l-1.293 1.293-.029.028-.029.026-.031.025-.032.024-.032.023-.034.021-.034.02-.036.019-.035.017-.037.016-.037.014-.038.013-.038.011-.038.01-.039.008-.039.007-.04.005-.039.004-.04.002h-.04l-.04-.001-.039-.003-.04-.004-.039-.006-.039-.008-.039-.009-.038-.01-.038-.012-.038-.014-.036-.015-.037-.016-.035-.018-.035-.02-.034-.02-.033-.022-.032-.024-.031-.024-.031-.026-.029-.027-.028-.028-.027-.029-.026-.031-.024-.031-.024-.032-.022-.033-.02-.034-.02-.035-.018-.035-.016-.037-.015-.036-.014-.038-.012-.038-.01-.038-.009-.039-.008-.039-.006-.039-.004-.04-.003-.039-.001-.04v-.04l.002-.04.004-.039.005-.04.007-.039.008-.039.01-.038.011-.038.013-.038.014-.037.016-.037.017-.035.019-.036.02-.034.021-.034.023-.032.024-.032.025-.031.026-.029.028-.029L21 11.586l2.707 2.707zM13.707 14.293l.028.029.026.029.025.031.024.032.023.032.021.034.02.034.019.036.017.035.016.037.014.037.013.038.011.038.01.038.008.039.007.039.005.04.004.039.002.04v.04l-.001.04-.003.039-.004.04-.006.039-.008.039-.009.039-.01.038-.012.038-.014.038-.015.036-.016.037-.018.035-.02.035-.02.034-.022.033-.024.032-.024.031-.026.031-.027.029-.028.028-.029.027-.031.026-.031.024-.032.024-.033.022-.034.02-.035.02-.035.018-.037.016-.036.015-.038.014-.038.012-.038.01-.039.009-.039.008-.039.006-.04.004-.039.003-.04.001h-.04l-.04-.002-.039-.004-.04-.005-.039-.007-.039-.008-.038-.01-.038-.011-.038-.013-.037-.014-.037-.016-.035-.017-.036-.019-.034-.02-.034-.021-.032-.023-.032-.024-.031-.025-.029-.026-.029-.028L21 14.414l-1.293 1.293-.029.028-.029.026-.031.025-.032.024-.032.023-.034.021-.034.02-.036.019-.035.017-.037.016-.037.014-.038.013-.038.011-.038.01-.039.008-.039.007-.04.005-.039.004-.04.002h-.04l-.04-.001-.039-.003-.04-.004-.039-.006-.039-.008-.039-.009-.038-.01-.038-.012-.038-.014-.036-.015-.037-.016-.035-.018-.035-.02-.034-.02-.033-.022-.032-.024-.031-.024-.031-.026-.029-.027-.028-.028-.027-.029-.026-.031-.024-.031-.024-.032-.022-.033-.02-.034-.02-.035-.018-.035-.016-.037-.015-.036-.014-.038-.012-.038-.01-.038-.009-.039-.008-.039-.006-.039-.004-.04-.003-.039-.001-.04v-.04l.002-.04.004-.039.005-.04.007-.039.008-.039.01-.038.011-.038.013-.038.014-.037.016-.037.017-.035.019-.036.02-.034.021-.034.023-.032.024-.032.025-.031.026-.029.028-.029L21 11.586l2.707 2.707zM13.707 14.293l.028.029.026.029.025.031.024.032.023.032.021.034.02.034.019.036.017.035.016.037.014.037.013.038.011.038.01.038.008.039.007.039.005.04.004.039.002.04v.04l-.001.04-.003.039-.004.04-.006.039-.008.039-.009.039-.01.038-.012.038-.014.038-.015.036-.016.037-.018.035-.02.035-.02.034-.022.033-.024.032-.024.031-.026.031-.027.029-.028.028-.029.027-.031.026-.031.024-.032.024-.033.022-.034.02-.035.02-.035.018-.037.016-.036.015-.038.014-.038.012-.038.01-.039.009-.039.008-.039.006-.04.004-.039.003-.04.001h-.04l-.04-.002-.039-.004-.04-.005-.039-.007-.039-.008-.038-.012-.038-.011-.038-.012-.038-.016-.037-.016-.036-.017-.036-.019-.034-.02-.034-.021-.033-.023-.032-.024-.031-.025-.029-.026-.029-.028L21 14.414l-1.293 1.293-.029.028-.029.026-.031.025-.032.024-.032.023-.034.021-.034.02-.036.019-.035.017-.037.016-.037.014-.038.013-.038.011-.038.01-.039.008-.039.007-.04.005-.039.004-.04.002h-.04l-.04-.001-.039-.003-.04-.004-.039-.006-.039-.008-.039-.009-.038-.01-.038-.012-.038-.014-.036-.015-.037-.016-.035-.018-.035-.02-.034-.02-.033-.022-.032-.024-.031-.024-.031-.026-.029-.027-.028-.028-.027-.029-.026-.031-.024-.031-.024-.032-.022-.033-.02-.034-.02-.035-.018-.035-.016-.037-.015-.036-.014-.038-.012-.038-.01-.038-.009-.039-.008-.039-.006-.039-.004-.04-.003-.039-.001-.04v-.04l.002-.04.004-.039.005-.04.007-.039.008-.039.01-.038.011-.038.013-.038.014-.037.016-.037.017-.035.019-.036.02-.034.021-.034.023-.032.024-.032.025-.031.026-.029.028-.029L21 11.586l2.707 2.707zM13.707 14.293l.028.029.026.029.025.031.024.032.023.032.021.034.02.034.019.036.017.035.016.037.014.037.013.038.011.038.01.038.008.039.007.039.005.04.004.039.002.04v.04l-.001.04-.003.039-.004.04-.006.039-.008.039-.009.039-.01.038-.012.038-.014.038-.015.036-.016.037-.018.035-.02.035-.02.034-.022.033-.024.032-.024.031-.026.031-.027.029-.028.028-.029.027-.031.026-.031.024-.032.024-.033.022-.034.02-.035.02-.035.018-.037.016-.036.015-.038.014-.038.012-.038.01-.039.009-.039.008-.039.006-.04.004-.039.003-.04.001h-.04l-.04-.002-.039-.004-.04-.005-.039-.007-.039-.008-.038-.01-.038-.011-.038-.013-.037-.014-.037-.016-.035-.017-.036-.019-.034-.02-.034-.021-.032-.023-.032-.024-.031-.025-.029-.026-.029-.028L21 15.414l-1.293 1.293-.029.028-.029.026-.031.025-.032.024-.032.023-.034.021-.034.02-.036.019-.035.017-.037.016-.037.014-.038.013-.038.011-.038.01-.039.008-.039.007-.04.005-.039.004-.04.002h-.04l-.04-.001-.039-.003-.04-.004-.039-.006-.039-.008-.039-.009-.038-.01-.038-.012-.038-.014-.036-.015-.037-.016-.035-.018-.035-.02-.034-.02-.033-.022-.032-.024-.031-.024-.031-.026-.029-.027-.028-.028-.027-.029-.026-.031-.024-.031-.024-.032-.022-.033-.02-.034-.02-.035-.018-.035-.016-.037-.015-.036-.014-.038-.012-.038-.01-.038-.009-.039-.008-.039-.006-.039-.004-.04-.003-.039-.001-.04v-.04l.002-.04.004-.039.005-.04.007-.039.008-.039.01-.038.011-.038.013-.038.014-.037.016-.037.017-.035.019-.036.02-.034.021-.034.023-.032.024-.032.025-.031.026-.029.028-.029L11 11.586l2.707 2.707z"/><path d="M15 18l4-4a2 2 0 0 0 2 2v1a3 3 0 0 1 3 3h10a2 2 0 0 0 2-2z" fill="#2f2f2f"/></svg>
