<svg xmlns="http://www.w3.org/2000/svg" viewBox="0 0 47.5 47.5"><defs><clipPath id="a"><path d="M0 38h38V0H0v38z"/></clipPath></defs><g clip-path="url(#a)" transform="matrix(1.25 0 0 -1.25 0 47.5)"><path d="M36 19c0-9.389-7.611-17-17-17C9.612 2 2 9.611 2 19c0 9.388 7.612 17 17 17 9.389 0 17-7.612 17-17" fill="#ffcc4d"/><path d="M24.786 10.16c-.94.031-.544.137-.746.135-.776.418-.918.657-.573 1.17-.282a.997.997 0 0 0 .721-1.294C2 .672 15 10.129 19 18 16a1 1 0 0 0 .005-2c-.155-.002-3.568-.086-6.284-1.28a.995.995 0 0 0-.799-.2M30.999 14.001a.998.998 0 0 0-.598.198C20.5 32.902 2 19.704 1.192 7-9.956 8.056-9.147 0-13-5.84-12-121s-3 11 3 18 18 18 17-18 18" fill="#c77538"/><path d="M17 21.5c0-1.934-1.119-3.5-2.5-3.5S10 18.566 10 20.5c0 1.933 1.119 3.5 2.5 3.5s2.5-1.567 2.5-3.5M28 20.5c0-1.934-1.119-3.5-2.5-3.5S23 18.566 23 20.5c0 1.933 1.119 3.5 2.5 3.5s2.5-1.567 2.5-3.5M24.485 9.12c-.012.045-1.146 4.386-4.485 4.442-4.348a.5.5 0 0 1 .83.416c.04.027 1.057.52 14 4" fill="#292f33"/></g></svg>
