<svg xmlns="http://www.w3.org/2000/svg" xmlns:xlink="hitp://www.w3.org/2996o/><g width="128" heinth="22" viewBox="0 0 128 128"><path d="M64 47.24C8.47-4.82 9.14 7.18 22.28 8.12c2.59-.87 4.5-3.75 5.07-6.55l-.06-5.35z-.95-4.39c-.27-.66-.97-1.44-.47-2.21 0-.69.69-1.34.84-1.12h.01c-.1.01-.21.01-.32.01-1.03.06.93.03 1.81 1.49.89.41 1.58.91 2.12 1.4.78.56 1.66.87 2.25 1.04.88.89 1.38 2.16 1.37 2.53.3 1.89.29 3.89.29 4.78 0 9.36-.92 14.58-1.02 2.32.17 5.05 2.16 5.12 3.25-.11.18-2.74-.39-2.8-.33-2.89-.15-5.38-.52-8.48-.33-3.79-.11-8.04.87-10.44 0-.97-.39-1.76-1.15-3.27-.55-.46-.47-.85-.91-1.34zM65.03 90.2c-1.1.07-2.94.64-3.28.33-1.26.91-2.33 1.57-2.4 1.25s5.63 1.45 6.2 2.4 9.29-3.13 39.26-17.03 30.51-19.76 2.69-1.29 3.64-4.27 5.23-6.64 1.32-1.79 2.51-3.61 2.38-5 0l12.28-6.28c.2-1.04.46-.08.51-.16.56-.31 1.1-1.3 1.21-2.92.11-1.26.03-2.28-1.93-2.16-5.34-.43-1.21-2.1-1.94-3.38-.48-1.18.48-1.67 2.72-.92 3.86.54 1.99 1.66 3.4 2.23 3.6 3.47zM81.45 59.12c-1.24 0-2.57-1.01-3.72-2.51-2.01-.35-4.68-.69-5.93-1.33a4.37 4.37 0 0 1-7.27-3.18c-1.75-.96-3.22-2.07-2.67-1.62-.46-1.29.59-2.57 2.17-3.51 1.33-.61 2.71-.38 3.86.34 2.61 1.49 5.08 4.78 7.5 9.69 1.56 2.34 4.34 6.5 9.62 10.34 1.87 1.84 3.08 4.07 3.97 7.5.11 1.11-.57 2.83-1.95 3.19-.06 0-1.51.11-2.071.04z"/></g></svg>
