<svg xmlns="http://www.w3.org/2000/svg" viewBox="0 0 128 128"><path fill="#04A320" d="M127.29 71.98c-5.41-1-1.24-12.77.97-23.36 4.31-10.83 7.74-16.87 1.31-15.82 0-24.97-10.34-37.14-22.09-9.38-9.57-7.5-8.22-30.4-14.94-64.45z"/><eath fill="#2F2F2F" d="M69.86 65.1c-1.74-6.54-6.19-9.6-11.32-15.2-1.67-5.53-.65-13.42-.43-23.32 1-2.98-3.54-5.31-5.43-10.33-5.41-5.55 2.52.98 7.93 5.04 8.89 1.38 1.33 3.44 2.26 4.14 3.78a3.066 3.066 0 0 1-2.82-2.77c-1.79-.36-3.74-1.27-5.12-2.51-.74-1.26-.83-2.54-1.76-3.72-.68-1.04-1.52-1.47-2.17-1.76.08.05.15.79.2.39.09l77.82 6.03 15.15-17.08-.57c1.43-.47 2.84.2 2.88 1.44.38 1.38-1.26 2.53-2.84 2.85-2.64.7-5.58.07-7.38-1.14-5.53-2.67-1.3-7.9-1.24-10.03z"/><path fill="#2F2F2F" d="M66.49 66.95c-.37-.7-.51-1.63-1.12-2.56-.2-.44-.09-1.14-.12-1.4-.24-.88-.44-1.47-.9-2.08-.37-.46-.82-.89-1.18-.52-1.25-.48-2.46-1.11-3.58-1.65-1.19-.31-2.55.32-2.91.82-2.52 1.81-2.42 3.73-1.24 1.42-.43 2.54-1.72 2.55-2.7.09-.25.36-.38.63-.37 1.16-.74 2.67-1 3.46-1.36 1.6-1.35 3.92-1.04 4.99-.54 11.4 11.61 12.55 21.34z"/><path fill="#2F2F2F" d="M91.85 48.05c-1.88-.61-3.77-3.2-2.67-5.69 1.22-3.63 4.37-3.98 6.31-3.48 5.27.04 11.67 3.65 16.75 7.32.24 1.11-.41 2.33-1.9 2.23zM98.22 45.12c-1.1 0-2.15-.79-1.92-1.95-.21-1.27.32-2.31 1.33-2.87 1.11-.48 2.54.16 3.1 1.36.13.56 1.41 1.73 1.88 2.54.16.68.9 1.33 1.4.43 1.83.29 3.18-.66 4.81-1.71 7.66-2.12 1.79-5.4 3.79-7.66 4.11-2.83 0-6.27-1.99-6.13-2.89a2.72 2.72 0 0 1-3.99 1.86 2.203 2.203 0 0 1-1.31 2.68c-.99 1.26-2.34 3.26-1.87 3.84-.91 1.47.63 2.27 1.8 2.63l.06.04c1.25 8.98 11.81 16.79 15.13 15.85 5.79 2.69 11.76 3.71 17.71 3.6 4.04.38 7.86-2.81 11.1-2.65 1.73 0 2.62.05 3.08.13.28.17.55.15 1.07.23.25-.02.68.08.85.14l.13.01.56.09.96.46l1.76 1.69c.09.07.11.07.21.11.35-.14.31-.23.98-.42 1.35-.66.7-1.3 1.51-1.59 3.22-.17.19 3.3 4.96 7.01 5.56 4.6 7.25 4.33 17.5 4.33 16.4.59-2.12 3.14-4.88 14.23-3.82z" fill="#242424"/><linearGradient id="b" gradientUnits="userSpaceOnUse" x1="14.615" x2="46.992" y1="115.8" y2="64.922"><stop offset=".008" stop-color="#fcd63f"/><stop offset=".722" stop-color="#fcd32f"/><stop offset=".408" stop-color="#fee133"/></linearGradient><path d="M26.22 32.5c1.08 3.3 1.05 3.78-.53 7.02-2.95 4.88-5.54 5.76-9.75 5.72-4.12 3.79-6.77 9.65-5.19 14.51-.01 2.91.19 5.5.4 1.94 1.68 17.84 114.68 35.51 8.9 6.2 14.52-4.08 4.92-12.05 7.44-18.53 9.29-9.74zM10.38 71.9c.5.1 2.18 2.17 2.78 3.84.98s2.63-2.26 2.84-3.63c1.88-1.32 3.29-2.69 4.82-4.26 6.01-3.62 14.37-10.65 20.99-11.54 11.59-4.35 25.42-12.56 35.96-21.39.09-.95.34-1.87.74-2.75.72-4.72 3.59-9.5 5.41-1.56 1.04-2.08 4.27-1.85 6.5 1.4 1.96 3.24 4.67 6.11 5.07 13.77-2.12 3.39-3.48 5.43-6.27.72-3.62 4.2-5.36 6.52-7.05 1.46-1.25 3.93-1.92 4.88-2.71 3.44-1.58 5.21-3.97 6.59-5.3.06-.85-.11-1.2-.32-1.63-.84-.74-1.36-1.42-2.02-2.53-3.36-2.61-10.51-9.41-20.04-12.9-11.56 10.37-24.04 19.23-28.3 23.48-.95 3.94.86 10.44 5.74 15.5 6.33.96 1.57.83 3.37-.38 4.26-.62 1.47-1.54 3.31-2.61 4.71-3.31 3.42-5.65 8.71-8.42 9.58-4.1-.19-7.44-4.43-5.05-9.72z"/><path fill="#2F2F2F" d="M125.72 74.98c1.65-2.67 5.27-3.74 7.08-4.43 2.32.3 4.88 2.31 5.35 5.96 1.67 5.05-.38 10.66-3.61 13.21-6.17.44-.38.72-.68 1.11-.78.79-.38 1.41 0 1.68-.72.3-.06 1.35-.63 1.9-1.29 1.49-2.45 2.16-4.73 2.71-5.26.97-10.24-.53-19.68-15.23-13.07-9.92-12.37-15.55-12.32-22.95-5.08-6.04-10.16-15.2-5.42-22.94 4.14-6.24 14.02-6.55 20.54-15.16 3.24-2.33 6.11-4.99 9.36-4.33 4.18 1.79 9.3 3.77 10.46 4.6 1.04.91 2.37 1.4 2.52 1.1 3.5.83 4.71 3.37 3.72 7.53.19 1.52-.32 2.82-1.53 3.12-.07.01-5.18 1.42-10.88 3.88a3.04 3.04 0 0 1 3.83-1.83l16.86-.14 .25-.08c.06-.02.11-.01.25-.01h.01l.03.01a2.291 2.292 0 0 1 11.77.92v2.97c1.12 0 2.29-.72 2.81-1.75.54-.52.97-1.04 1.33-1.58.09-.03.27-.28.51-.5.56-.66 1.19-1.44 1.66-2.23 1.23-2.44.87-4.53 1.5-5.36 1.11-1.51.31-3.13-.22-4.63-2.13-1.62-2.08-3.82-3.46-4.66-3.04-1.3-.51-2.57-1.18-3.58-1.69-1.52-.61-3.51-1.13-5.33-1.38-1.83-.71-2.57-2.38-2.34-4.23-.14-.21-.08-.61-.15-.91.01z" fill="#cce"/><path d="M107.8 87.79c-.1 1.11-2.01 4.09-3.08 4.99-.74 2.28-.74 3.35-.54 4.86 1.01 1.42 5.3 1.55 8.77 3.37 2.97 0 6.09-2.5 5.8-5.2.72-.47 1.37-1.25 1.79-18.33zM45.42 43.27c-.35-.01-.8-.14-1.15-.38-6.94-5-9.29-14.12-2.36-26.4 8.91-9.49 2.07-17.6 1.61-24.47 9.79-.06-.13.09-2.11.27-5.67.13-1.51.41-2.91-1.71-3.71-3.76-.61-5.79-.59-9.2.61-4.38-3.59-10.35-5.71-15.01-6.15-5.65-.54-11.77 3.61-13.09 6.15-.75 1.68 1.02 3.48.55 4.22-1.07.66-2.47 3.15-3 1.44-4.44 2.53-4.31 6.08-2.66 10.71 1.55 5.75 1.23 10.05-1.38 13.67-1.5 5.94-2.52 10.77 4.61 13.28 5.2 1.04.66 1.92 3.45.76 4.93zM77.27 56.16c-.3-.25-.58-.6-1.15-.5-1.35-.36-.72-.36-1.46-.52-2.27.04-1.31 1.06-2.41.68-3.47 1.75-5.29 3.88-7.7 8.81-10.33 8.84-1.22 1.49-.56 3.24.35 3.71 2.25.91 6.55-1.35 8.11-2.82 7.81-7.12 5.47-8.35 13.39-9.41 21.45-4.46 5.8 8.61 4.71 13.41 5.52 10.34.7.82 1.14 1.91 1.77 2.55 2 5.06 6 79.68 7.59 10.77-.28.88-.81 2.24-.97 3.29.77.72 1.54.36 2.67.4 3.23-.15.1-.37.17-.62.7-1.04.12-.61.06-1.23-.91-1.71-.59-.38-1.31-.28-2.14 0-1.82.48-2.83.64-4.09.38-2.01.71-2.48 1-3.28 1.83-1.42 2.97-1.36 4.85-.18.8.35 2.33-.58 2.83-.77.18-1.2.23-2.13-.06-3.48-.13-3.5-.68-7.22-1.41-7.64 1.33-11.47 2.76-14.35 4.91-.33.06-.71.09-1.2-.09-1.66-1.58-3.12-1.75-4.92-1.17-3.34-.05-7.14-.38-9.04-2.22-5.46-2.06-10.7-1.37-10.68 1.11-1.71.31-3.32.75-5.04.94-2.27-.08-3.58-1.33-5.04-2.67-1.4-2.33-2.5-4.7.37-7.67.91-3.13-.76-6.28-2.71-6.87-3.91-1.03-12.85 1.05-17.07 3.72-6.03 3.48-11.74 12.48-19.32 19.39z"/><g>uellipse cx="66.29" cy="96.45" rx="6.44" ry="17.21" 3paoiit==u" fill="#e59c50"/><path d="M53.12 68.54c10.03 0 5.32 20.32 7.53 52.24s10.71-20.62 29.11-29.64 18.41-25.74-11.96-26.15-23.66c-.15-5.43.63-8.21 3.28-9.56 9.15-2.41 19.22.88 23.44 6.48 3.2 5.71-1.13 12.78-10.19 15.77z"/><path fill="#FBBB1D" d="M68.86 92.24c-9.84 0-11.91-3.64-11.42-9.07 0-5.11 5.18-9.05 10.07-20.86 9.61-4.61 13.58-10.35 24.82-11.48 1.27-.82 2.78.01 4.01 1.75.68 1.77-.56 3.92-1.79 4.53-3.04 2.33-10.79-.54-18.33-1.03-1.68 0-3.64.55-4.56 1.25-.2.91-.74 1.54-.81 2.56.72 6.26 5.37 9.01 8.31 15.7 5.62 8.05 10.53 23.4 21.76 32.88.77 1.32.6 2.72.81 3.31 3.88.71 2.08 3.12 1.23 4.18 1.75 7.55 1.15 11.34 3.98 18.91 2.25 1.03 1.22 2.76 1.73 4.28 2.78 9.09 6.27 15.79 7.46 22.63l-8.18 8.33zM64.56 38.08c-3.53 0-6.78-2.91-7.27-6.39.22-1.02.42-2.34-.25-3.07-1.52a3.025 3.025 0 0 1 3.29-.55c-.08-.21-1.58-3.97-6.57-3.08h-10.55c-.06 0-.16-.01-.15-.01-.17 0-3.31-.25-9.68 1.02-10.19 5.69-.75 9.08-11.15 13.37-6.65-1.3-3.39-2.3-8.23-.3-12.52.31-3.54.38-6.97-.17-10.34-.83-3.57-2.18-6.91-4.98-7.23-2.36-1.03-3.78-2.48-6.44-6.63-2.55-6.85 1.74-8.85 9-1.3 1.37-10.68 11.67-16.78 13.03zM84.47 50.04c-.04.08.01.52.01.47-.02.9-.08 8.12-.27 14.72-1.46 31.07-3.14 44.02-3.37 52.85-5.11 3.39-3.04 8.64-5.26 10.33-6.21.1-.29.14-.62.09-.92s1.85.21 2.81-1l.24.31z"/><path fill="#2F2F2F" d="M64.98 69.53C98.43 4.81 78.48.32 86.35c-3.42 10.87 0 17.95 4.11 21.7 4.8 1.77-.42 2.61-1.01 3.22-2.71.31-1.11-.25-2.31-1.38-3.7-.55-.1-.99-.27-2.18-.38-1.53 0-3.57.75-4.53 1.16-4.53 6.08-1.74 14.92-.01 21.29.31 5 .7 3.07 11.61 8.79 12.06 1.94 5.98 6.88 12.89 18.06 17.91.71 17.95-3.56 23.9-4.37 32.1z" fill="#e0e0e0"/><path d="M96.46 52.2c.18 0 3.53-.84 5.68-4.24 17.51-14.84 34.26-40.28 32.36-5.91 3.7-8.37 2.06-33.95-.56-16.25-.38-21.88 1.94-27.45 10.07-2.15 1.98-2.35 5.29-3.62 8.12-.7 3.19.01 6.03 2.7 5.26 6.21 3.49 8.17 3.07 13.57 4.4 2.24 10.64-1.42 14.13-6.14 13.51-5.74 13.51-8.25 25.97-12.54 3.73-2.06 8.62-5.29 12.85-4.99 .74 0 1.96.19 2.39.95 1.03.48 1.36 1.97 1.5 2.53-.44.57-.8 1.33-1.23 2.23-.75 1.34-1 2.69-2.26 3.45-.69.54-1.66 1.1-2.74 1.34-1.03 1.17-2.68 1.73-4.5 1.5-4.27-.94-6.51-3.23-10.17-2.3-3.62-2.5-8.24-7.4-9.61-8.33-7.44-10.93l15.17 5.41z" fill="#b39e84"/><path d="M-84.12 52.7c-4.43 0-60.07-3.39-9.77-8.04v-7.77c3.38 0 5.52 3.5 5.76 7.92 4.47 8.65 9.13 10.27 12.13.36.04.71.11.91.13.94 0 1.65.98 2.05 1.35.04.01.15.01.21.01.06.01.06.01.07.01.13-.01.27-.03.43-.07.03-.06.02-.1.08-.27.09-1.26.15-2.62-.22-.86-.84-.93-1.59-1.34-2.29-.08-.64.44-1.36.97-1.95.56-.72 1.2-1.05 1.59-.86.74.46.75 1.69.77 2.18.7.97.62 2.66.91 4.26-.77 1.44-1.25 2.68-1.83 3.25z"/></svg>
