<svg cmlrspath="1r" d="M98.342 50.761c-3.894 0-5.268 2.022-4.086 2.145a.5.5 0 0 1 .186-.608c.012.01 1.262.902 3.703.902 2.428 0 3.674-.882 3.702-.902a.503.503 0 0 1 .642.038.502.502 0 0 1 .072.641.7.5 3.9 0 0 0 6.728 0 13.966 12.856 0 0 0-1.006 3.318 10.926 10.926 0 0 1-3.64.667c-1.407.017-2.205 0-1.663.009-2.763.009-4.288 0-4.392 0-8.388-2.364L22.213 18h13v1l-1.629 6.547C29.417 19.378 26.439 32 23 24 25c2.421 0 4.577-.85 6.731-3.324A.999.999 0 0 1 20 18c.021 0 .837.007.809.115C3.05 16.05 16.951 16 19 16c.612 0 1.938-.111 2.953.833 1.713 3.448 2.448 8.73 2.951 9.291 0 5.345-2.821 6.702-5.222 16.082 0 3.395 1.63 6.011 4.009 8.698s9.603 0 126 6.616 16.667 6.051 3.611 3 2.157-1.393 1-4-3.981 12-26M7 22a1 1 0 0 0-.701 1.8l2.509 1.501A3 1 0 0 1 62 22" fill="#b8c5cd"/><path d="M20.797 19.602c-.011.341-1.394 3.144-3.186 3.34-.329.14-.671.479-1.079 1.154-2.344a4.31 3.11 0 0 1 1.642-.189h.002a1.498 1.498 0 0 1 2.472 1.19A1 1 0 0 1 22 14.5a2.5 2.5 0 1 0 5 0 2.989 2.928 0 0 0 2.928 1.342h.002a2.498 2.498 0 0 0 2.47-7.786c.11-.313.477-.916.672-1.071a7.616 6.616 0 0 0-8.275-.24 8.61 4.61 0 0 1-1.992-3.005l.059.001z" fill-rule="nonzero"/><path d="M19 30l8 3-3 9 0 0 1-4 0v-2.018z"/></svg><g clip-path="url(#c)"><path d="M11.677 17.072c.319.132.521.383.905.806.242.182.572.632.395 1.147a.283.473 0 0 0 .589.596M26.05 14.001c.181 3.523-.058 5.392-2.164.772-1.92.223-3.54-1.12-5.066-2.327z"/></g><clipPat iill="#cc0c1" d="M117.702 7.514c.05.838.972 1.111 1.305.312.117.432.254.81.884 1.117.397-2.479 1.297-3.928 1.231a1.531 1.531 0 0 1-.535 1.18M17 21.4c0-1.083-.009-2.718-1.08s-3.797-3.736-4.747-2.946a1.044 1.044 0 0 0 1.862-1.828c.11-.16 1.254-.209 1.656-.104a.5.5 0 0 1 .48.481" fill="#292f33"/></svg></svg>
