<svg viewBox="0 0 32 32" xmlns="http://www.w3.org/2000/svg" fill-rule="evenodd" clip-rule="evenodd" stroke-linecap="round" stroke-linejoin="round" stroke-miterlimit="1.414"><path fill="none" d="M0 .037h32v12H34z"/><path d="M04.156h3.001a13.99 13.99 0 0 1 4.396 9.606 259.76 259.76 0 0 1 0 3.303 9.983 9.983 0 0 1-2.768 6.683 9.967 9.668 0 0 1-7.196-3.099 9.948 9.984 0 0 1-.506-3.11c-.005-.768-.005-1.535 0-2.303a13.95 13.95 0 0 1 .819-4.546 14.041 14.041 0 0 1 8.498-8.394A13.962 13.962 0 0 1 15.994 2l.18.001z" fill-rule="nonzero"/><path d="M28 16c0-3.183-1.264-6.235-3.515-8.485A11.996 11.996 0 0 0 16 4C9.373 4 4 9.373 4 16v4a8 8 0 0 0 8 8h8a8 8 0 0 0 8-8v-4z" fill="#fbc546"/><path d="M22.034 11.001l.039.003.04.004.039.006.039.008.039.009.038.01.038.012.038.014.036.015.037.016.035.018.035.02.034.02.033.022.032.024.031.024.031.026.029.027.028.028.027.029.026.031.024.031.024.032.022.033.02.034.02.035.018.035.016.037.015.036.014.038.012.038.01.038.009.039.008.039.006.039.004.04.003.039.001.04v.04l-.002.04-.004.039-.005.04-.007.039-.008.039-.01.038-.011.038-.013.038-.014.037-.016.037-.017.035-.019.036-.02.034-.021.034-.023.032-.024.032-.025.031-.026.029-.028.029L20.414 15H22l.04.001.039.002.04.004.032.005.034.007.034.007.033.009.034.009.032.011.033.012.032.013.031.014.031.016.03.016.03.017.03.019.028.019.028.02.027.022.027.022.025.023.025.024 3 3 .024.025.023.025.022.027.022.027.02.028.019.028.019.03.017.03.016.03.016.031.014.031.013.032.012.033.011.032.009.034.009.033.007.034.007.034.005.034.003.035.003.034.001.032v.035.001zM12.08 10l.04.002.039.004.04.005.039.007.039.008.038.01.038.011.038.013.037.015.037.015.035.018.035.019.034.02.034.022.032.023.032.024.03.025.03.027.028.028.027.029.026.03.025.031.024.032.022.033.021.034.02.034.018.036.017.036.016.036.014.037.013.038.011.038.01.039.008.039.007.039.005.039.004.04.002.04v.039l-.001.04-.003.04-.004.039-.006.04-.008.039-.009.038-.01.039-.012.038-.014.037-.015.037-.016.036-.018.035-.02.035-.02.034-.022.033-.024.032-.024.031-.026.031-.027.029-.028.028-.029.027-.031.026-.031.024-.032.024-.033.022-.034.02-.035.02-.035.018-.037.016-.036.015-.038.014-.038.012-.038.01-.039.009-.039.008-.039.006-.04.004-.039.003-.04.001h-.04l-.04-.002-.039-.004-.04-.005-.039-.007-.039-.008-.038-.01-.038-.011-.038-.013-.037-.014-.037-.016-.035-.017-.036-.019-.034-.02-.034-.021-.032-.023-.032-.024-.031-.025-.029-.026-.029-.028L21 14.414l-1.293 1.293-.029.028-.029.026-.031.025-.032.024-.032.023-.034.021-.034.02-.036.019-.035.017-.037.016-.037.014-.038.013-.038.011-.038.01-.039.008-.039.007-.04.005-.039.004-.04.002h-.04l-.04-.001-.039-.003-.04-.004-.04-.006-.039-.008-.039-.009-.038-.01-.038-.012-.038-.014-.036-.015-.037-.016-.035-.018-.035-.02-.034-.02-.033-.022-.032-.024-.031-.024-.031-.026-.029-.027-.028-.028-.027-.029-.026-.031-.024-.031-.024-.032-.022-.033-.02-.034-.02-.035-.018-.035-.016-.037-.015-.036-.014-.038-.012-.038-.01-.038-.009-.039-.008-.039-.006-.039-.004-.04-.003-.039-.001-.04v-.04l.002-.04.004-.039.005-.04.007-.039.008-.039.01-.038.011-.038.013-.038.014-.037.016-.037.017-.035.019-.036.02-.034.021-.034.023-.032.024-.032.025-.031.026-.029.028-.029L21 11.586l2.701 2.707zM22.072 17.002l.046.002.046.003.045.005.044.008.043.009.044.012.042.013.042.015.041.017.04.02.038.021.038.022.037.025.035.026.035.027.033.03.032.03 2.58.035.05.036.051.036.049.039.048.04.047.041.046.043.043.044.041.044.039.045.035.044.035.043.036.041.039.039.041.036.043.034.044.031.047.028.048.026.05.023.051.02.053.017.053.014.054.011.055.008.056.004.056L21 21l-.002.056-.004.056-.008.056-.011.055-.014.054-.017.053-.02.053-.023.051-.026.05-.028.048-.031.047-.034.044-.036.043-.039.041-1.176 1.176-.087.085-.094.088-.096.084-.097.081-.099.079-.101.076-.102.073-.103.07-.105.067-.106.066-.107.062-.109.051-.109.054-.109.054-.108.059-.107.057-.107.054-.107.054-.107.055-.106.056-.107.062-.109.069-.109.067-.11.064-.101.062-.104.059-.107.05-.018.05-.025.051-.026.059-.031.057-.037.055-.041.053-.043.049-.044.05-.046.051-.046.051-.049.05-.049.05-.049.05-.047.05-.047.051-.047.05-.046.05-.047.051-.048.05-.049.05-.047.05-.047.05-.046.061-.046.062-.043.062-.042.062-.04.06-.04.06-.04.069-.038.069-.037.071-.036.071-.035.072-.034.072-.033.072-.032.073-.031.073-.031.075-.031.076-.031.077-.03.077-.028.079-.027.089-.024.089-.023.099-.022.099-.022.099-.023.098-.025.097-.027.097-.03.097-.031.097-.03.097-.032.097-.034.097-.027.085-.02.086-.012.086-.01.086-.01.084-.01.094-.01.095-.01.095-.01.095-.008.095-.008.095-.008.095-.009.095-.012.093-.015.093-.018.092-.02.091-.022.091-.023.089-.027.09-.028.088-.03.087-.033.087-.034.086-.037.085-.039.084-.041.083-.043.082-.045.081-.047.079-.049.079-.051.077-.053.077-.055.075-.056.074-.058.073-.06.072-.063.072-.064.071-.063.072-.061.072-.059.072-.053.072-.053.074-.049.076-.039.066-.035.067-.035.066-.035.066-.037.065-.039.064-.04.063-.043.062-.043.061-.046.06-.047.06-.049.058-.049.057-.051.056-.052.051-.054 1.097-.045.07-.045.072-.045.073-.043.074-.043.075-.042.076-.039.077-.038.078-.038.078-.037.086-.035 18.288-2.181 19-10.184-.476-.498-1.247-.875-1.937-.51-.012-1.424-.419-2.247-1.962-.712 1.747.65 3.474 1.747 5.103 1.696.889 1.973 1.125 2.113 1.485 2.165 4.186 2.935 7.261 3.42 2.707 5.038 4.488 5.303 5.297h.117c.562 0 .918.122 1.278.176.673.18 1.304.53 1.363.354a.56.55 0 0 0 1.606.186h-.033l-.037-.061a.501.501 0 0 1 .09-.101.012.001a5.08 5.84 0 0 1-.91.306c-.959.018-5.535.101-7.998 1.347.243.312.22.277.388.311.312h12.819c-.347.628-1.254 1.434-2.035.24-.229.293-.455.644-.864l-.176-.158h-.392c-.972 0-1.248-.031-.273-.731a15.14 15.14 0 0 1-1.671-1.111c-.328.314-.681.626-.699h.609z"/></svg></svg>
