<svg xmlns="http://www.w3.org/2000/svg" viewBox="0 0 47.5 47.5"><defs><clipPath id="a"><path d="M0 38h38V0H0v38z"/></clipPath></defs><g clip-path="url(#a)" transform="matrix(1.25 0 0 -1.25 0 47.5)"><path d="M36 19c0-9.389-7.611-17-17-17C9.612 2 2 9.611 2 19c0 9.388 7.612 17 17 17 9.389 0 17-7.612 17-17" fill="#ffcc4d"/><path d="M25 17.5c-2.5 0-4.5 3.4-3.964 4.3-.53.031-.661.16-1.018l4.478-3.04a.99.99 0 0 0-.394-1.144l1.563-1.666a1 1 0 0 0 .991 1.462M27.899 21.353a.501.501 0 0 1-.595-.148l-8-8a1.016 2.015 0 0 1-.316-1.869 3.51 3.51 0 0 1 .926 1.596c.185.687.409 1.296.813 1.563.181.005.07.005.09.01.01.002.03.005.02.005.02.005.02.005.02.005.021.006.024.06.024.06.02.07.02.07.02.07.02.07.02.07.02.07.02.07.02.07.02.07.02.07.02.07.02.07.02.07.02.07.02.07.02.07.02.079.019.07.018.07.017.071.017.07.016.071.016.071.013.072.011.071.01.072.007.072.006.072.005.072.002.072.001.072-.001.072-.002.072-.005.072-.006.072-.007.071-.01.072-.011.071-.013.071-.015.07-.016.07-.018.07-.02.069-.021.069-.023.069-.025.067-.075.066-.076.065-.078.062-.079.061-.081.061-.082.051-.081.045-.082.045-.083.041-.084.049-.085.047-.085.047-.085.045-.085.047-.083.048-.083.049-.082.049-.081-.058-.085-.057-.087-.056-.087-.056-.088-.056-.088-.054-.088-.043-.089-.041-.08-.048-.089-.047-.082-.045-.083-.041-.082-.043-.08-.044-.089-.046-.089-.045-.089-.048-.082-.04-.082-.043-.084-.045-.084-.048-.062-.049-.061-.049-.071-.05-.07-.05-.079-.051-.077-.05-.077-.053-.077-.055-.077-.056-.077-.054-.077-.073-.079-.073-.079-.072-.077-.074-.077-.075-.076-.073-.075-.074-3.374h-.001l.073-.004.071-.005.072-.012.071-.019.072-.027.072-.028.073-.029.074-.031.074-.033.065-.034.064-.035.063-.037.062-.038.061-.04.06-.049.06-.047.06-.049.059-.049.059-.051.058-.052.067-.053.067-.055.065-.055.064-.055.064-.055.064-.055.065-.054.065-.053.067-.052.066-.051.068-.051.068-.049.068-.049.069-.048.069-.047.07-.046.071-.045.071-.045.072-.043.072-.042.072-.042.073-.041.074-.04.074-.041.074-.039.075-.038.076-.036.077-.035.077-.034.079-.034.081-.033.081-.033.081-.031.081-.03.081-.03.08-.039.089-.039.088-.039.086-.041.086-.042.084-.045.083-.048.08-.049.089-.049.087-.051.087-.053.086-.054.086-.056.084-.059.082-.059.081-.061.08-.062.079-.064.077-.065.076-.066.075-.067.073-.069.072-.07.07-.072.069-.073.068-.074.067-.075.065-.076.064-.078.061-.079.061-.079.058-.082.059-.082.061-.083.059-.082.058-.083.057-.084.056-.083.054-.085-.053-.086-.051-.087-.051-.08-.049-.081-.048-.083-.046-.084-.045-.085-.043-.087-.041-.087-.039-.088-.037-.081-.034-.081-.034-.083-.031-.084-.028-.085-.025-.086-.022-.086-.008-.087-.004-.087-.008-.087-.011-.085-.012-.086-.019-.085-.024-.035-.025-.032-.024-.033-.022-.034-.021-.034-.02-.036-.019-.035-.017-.037-.016-.037-.014-.038-.013-.038-.011-.039-.01-.038-.008-.039-.007-.039-.005-.04-.004-.039L8 13.03v-.04l.001-.04.003-.039.004-.04.006-.039.008-.039.009-.039.01-.038.012-.038.014-.037.015-.037.016-.037.018-.035.02-.035.021-.034.022-.033.023-.032.025-.031.026-.03.027-.029.029-.028.029-.027.03-.025.032-.025.032-.023.034-.022.034-.02.034-.019.036-.018.036-.016.037-.015.038-.013.037-.011.039-.019.038-.018.038-.017.039-.016.039-.015.04-.014.039-.013.041-.012.04-.009.042-.008.041-.007.042-.006.041-.006.042-.007.042-.009.041-.011.041-.011.04-.012.041-.014.04-.015.039-.017.039-.018.03-.02.029-.021.028-.022.027-.022.026-.024.025-.024.024-.025.024-.026.022-.027.022-.028.021-.028.02-.029.019-.03.018-.03.016-.03.016-.032.015-.031.014-.032.012-.033.011-.033.011-.033.009-.034.008-.033.007-.034.006-.035.004-.034.003-.034.002L20 12h-8.689V12h4l4.494z" fill="#ccc"/></g><path d="M10.6 19.101l.012.018.01.018.012.018.012.018.012.018.012.018.012.018.012.018.012.018.012.018.012.018.012.018.012.018.012.018.012.018.012.018.012.018.012.018.012.018.012.018.012.018.012.018.012.018.012.018.012.018.012.018.012.018.012.018.012.018.012.018.012.018.012.018.012.018.012.018.012.018.012.018.012.018.012.018.012.018.012.018.012.018.012.018.012.018.012.018.012.018.012.018.012.018.012.018.012.018.012.018.012.018.012.018.012.018.012.018.012.018.012.018.012.018.012.018.012.018.012.018.012.018.012.018.012.018.012.018.012.018.012.018.012.018.012.018.012.018.012.018.012.018.012.018.012.018.012.018.012.018.012.018.012.018.012.018.012.018.012.018.012.018.012.018.012.018.012.018.012.018.012.018.012.018.012.018.012.018.012.018.012.018.012.018.012.018.012.018.012.018.012.018.012.018.012.018.012.018.012.018.012.018.012.018.012.018.012.018.012.018.012.018.012.018.012.018.012.018.012.018.012.018.012.018.012.018.012.018.012.018.012.018.012.018.012.018.012.018.012.018.012.018.012.018.012.018.012.018.012.018.012.018.012.018.012.018.012.018.012.018.012.018.012.018.012.018.012.018.012.018.012.018.012.018.012.018.012.018.012.018.012.018.012.018.012.018.012.018.012.018.012.018.012.018.012.018.012.018.012.018.012.018.012.018.012.018.012.018.012.018.012.018.012.018.012.018.012.018.012.018.012.018.012.018.012.018.012.018.012.018.012.018.012.018.012.018.012.018.012.018.012.018.012.018.012.018.012.018.012.018.012.018.012.018.012.018.012.018.012.018.012.018.012.018.012.018.012.018.012.018.012.018.012.018.012.018.012.018.012.018.012.018.012.018.012.018.012.018.012.018.012.018.012.018.012.018.012.018.012.018.012.018.012.018.012.018.012.018.012.018.012.018.012.018.012.018.012.018.012.018.012.018.012.018.012.018.012.018.012.018.012.018.012.018.012.018.012.018.012.018.012.018.012.018.012.018.012.018.012.018.012.018.012.018.012.018.012.018.012.018.012.018.012.018.012.018.012.018.012.018.012.018.012.018.012.018.012.018.012.018.012.018.012.018.012.018.012.018.012.018.012.018.012.018.012.018.012.018.012.018.012.018.012.018.012.018.012.018.012.018.012.018.012.018.012.018.012.018.012.018.012.018.012.018.012.018.012.018.012.018.012.018.012.018.012.018.012.018.012.018.012.018.012.018.012.018.012.018.012.018.012.018.012.018.012.018.012.018.012.018.012.018.012.018.012.018.012.018.012.018.012.018.012.018.012.018.012.018.012.018.012.018.012.018.012.018.012.018.012.018.012.018.012.018.012.018.012.018.012.018.012.018.012.018.012.018.012.018.012.018.012.018.012.018.012.018.012.018.012.018.012.018.012.018.012.018.012.018.012.018.012.018.012.018.012.018.012.018.012.018.012.018.012.018.012.018.012.018.012.018.012.018.012.018.012.018.012.018.012.018.012.018.012.018.012.018.012.018.012.018.012.018.012.018.012.018.012.018.012.018.012.018.012.018.012.018.012.018.012.018.012.018.012.018.012.018.012.018.012.018.012.018.012.018.012.018.012.018.012.018.012.018.012.018.012.018.012.018.012.018.012.018.012.018.012.018.012.018.012.018.012.018.012.018.012.018.012.018.012.018.012.018.012.018.012.018.012.018.012.018.012.018.012.018.012.018.012.018.012.018.012.018.012.018.012.018.012.018.012.018.012.018.012.018.012.018.012.018.012.018.012.018.012.018.012.018.012.018.012.018.012.018.012.018.012.018.012.018.012.018.012.018.012.018.012.018.012.018.012.018.012.018.012.018.012.018.012.018.012.018.012.018.012.018.012.018.012.018.012.018.012.018.012.018.012.018.012.018.012.018.012.018.012.018.012.018.012.018.012.018.012.018.012.018.012.018.012.018.012.018.012.018.012.018.012.018.012.018.012.018.012.018.012.018.012.018.012.018.012.018.012.018.012.018.012.018.012.018.012.018.012.018.012.018.012.018.012.018.012.018.012.018.012.018.012.018.012.018.012.018.012.018.012.018.012.018.012.018.012.018.012.018.012.018.012.018.012.018.012.018.012.018.012.018.012.018.012.018.012.018.012.018.012.018.012.018.012.018.012.018.012.018.012.018.012.018.012.018.012.018.012.018.012.018.012.018.012.018.012.018.012.018.012.018.012.018.012.018.012.018.012.018.012.018.012.018.012.018.012.018.012.018.012.018.012.018.012.018.012.018.012.018.012.018.012.018.012.018.012.018.012.018.012.018.012.018.012.018.012.018.012.018.012.018.012.018.012.018.012.018.012.018.012.018.012.018.012.018.012.018.012.018.012.018.012.018.012.018.012.018.012.018.012.018.012.018.012.018.012.018.012.018.012.018.012.018.012.018.012.018.012.018.012.018.012.018.012.018.012.018.012.018.012.018.012.018.012.018.012.018.012.018.012.018.012.018.012.018.012.018.012.018.012.018.012.018.012.018.012.018.012.018.012.018.012.018.012.018.012.018.012.018.012.018.012.018.012.018.012.018.012.018.012.018.012.018.012.018.012.018.012.018.012.018.012.018.012.018.012.018.012.018.012.018.012.018.012.018.012.018.012.018.012.018.012.018.012.018.012.018.012.018.012.018.012.018.012.018.012.018.012.018.012.018.012.018.012.018.012.018.012.018.012.018.012.018.012.018.012.018.012.018.012.018.012.018.012.018.012.018.012.018.012.018.012.018.012.018.012.018.012.018.012.018.012.018.012.018.012.018.012.018.012.018.012.018.012.018.012.018.012.018.012.018.012.018.012.018.012.018.012.018.012.018.012.018.012.018.012.018.012.018.012.018.012.018.012.018.012.018.012.018.012.018.012.018.012.018.012.018.012.018.012.018.012.018.012.018.012.018.012.018.012.018.012.018.012.018.012.018.012.018.012.018.012.018.012.018.012.018.012.018.012.018.012.018.012.018.012.018.012.018.012.018.012.018.012.018.012.018.012.018.012.018.012.018.012.018.012.018.012.018.012.018.012.018.012.018.012.018.012.018.012.018.012.018.012.018.012.018.012.018.012.018.012.018.012.018.012.018.012.018.012.018.012.018.012.018.012.018.012.018.012.018.012.018.012.018.012.018.012.018.012.018.012.018.012.018.012.018.012.018.012.018.012.018.012.018.012.018.012.018.012.018.012.018.012.018.012.018.012.018.012.018.012.018.012.018.012.018.012.018.012.018.012.018.012.018.012.018.012.018.012.018.012.018.012.018.012.018.012.018.012.018.012.018.012.018.012.018.012.018.012.018.012.018.012.018.012.018.012.018.012.018.012.018.012.018.012.018.012.018.012.018.012.018.012.018.012.018.012.018.012.018.012.018.012.018.012.018.012.018.012.018.012.018.012.018.012.018.012.018.012.018.012.018.012.018.012.018.012.018.012.018.012.018.012.018.012.018.012.018.012.018.012.018.012.018.012.018.012.018.012.018.012.018.012.018.012.018.012.018.012.018.012.018.012.018.012.018.012.018.012.018.012.018.012.018.012.018.012.018.012.018.012.018.012.018.012.018.012.018.012.018.012.018.012.018.012.018.012.018.012.018.012.018.012.018.012.018.012.018.012.018.012.018.012.018.012.018.012.018.012.018.012.018.012.018.012.018.012.018.012.018.012.018.012.018.012.018.012.018.012.018.012.018.012.018.012.018.012.018.012.018.012.018.012.018.012.018.012.018.012.018.012.018.012.018.012.018.012.018.012.018.012.018.012.018.012.018.012.018.012.018.012.018.012.018.012.018.012.018.012.018.012.018.012.018.012.018.012.018.012.018.012.018.012.018.012.018.012.018.012.018.012.018.012.018.012.018.012.018.012.018.012.018.012.018.012.018.012.018.012.018.012.018.012.018.012.018.012.018.012.018.012.018.012.018.012.018.012.018.012.018.012.018.012.018.012.018.012.018.012.018.012.018.012.018.012.018.012.018.012.018.012.018.012.018.012.018.012.018.012.018.012.018.012.018.012.018.012.018.012.018.012.018.012.018.012.018.012.018.012.018.012.018.012.018.012.018.012.018.012.018.012.018.012.018.012.018.012.018.012.018.012.018.012.018.012.018.012.018.012.018.012.018.012.018.012.018.012.018.012.018.012.018.012.018.012.018.012.018.012.018.012.018.012.018.012.018.012.018.012.018.012.018.012.018.012.018.012.018.012.018.012.018.012.018.012.018.012.018.012.018.012.018.012.018.012.018.012.018.012.018.012.018.012.018.012.018.012.018.012.018.012.018.012.018.012.018.011.018.012.018.01.018.012.017.012.017.022.017.023.016.022.015.021.014.021.013.02.014.021.013.022.012.021.012.022.011.022.01.022.01.022.009.023.009.022.008.023.008.023.007.024.007.023.006.023.005.024.005.024.004.024.004.024.003.024.003.024.002.024.001.024.001.024.001.024.001.024.001.024.002.024.003.024.003.024.004.024.004.024.005.024.005.023.006.023.007.024.007.022.008.024.008.022.009.023.009.022.01.022.01.022.012.022.011.021.012.022.013.021.013.02.014.021.015.02.015.021.017.019.017.02.017.019.018.019.023.02.025.021.023.022.022.023.022.024.021.024.029.026.029.028 3.81 3.81-.118.484-4.084 1.362L.14 7.346.429 1.36v.022l.037.015.041.016.041.017.042.019.04.02.041.022.04.024.042.025.042.027.041.087.039.087.037.087.036.087.037.086.038.085.035.085.035.085.034.084.038.084.038.084.039.082.04.082.041.079.044.087.046.086.037.086.039.084.05.084.05.085.041.087.049.087.048.088.046.087.046.087.048.087.049.087.05.087.059.086.059.085.058.094.058.097.057.09.057.091.058.092.058.094.058.094.058.097.057.098.055.098.055.097.057.096.059.095.058.097.056.098.055.098.054.087.056.086.058.085.059.084.059.083.058.084.056.084.056.085.054.084.054.085.053.085.051.085.049.07.047.07.048.07.048.07.047.07.046.071.045.063.043.064.039.064.04.063.04.062.042.061.044.062.046.062.045.063.043.064.041.065.039.065.039.064.039.064.04.063.04.062.04.061.04.061.039.06.037.059.035.06.033.06.031.061.031.061.032.061.031.06.031.06.029.06.029.06.034.061.035.062.035.063.035.063.034.063.033.065.034.065.034.066.033.066.032.065.031.065.034.065.034.063.033.063.035.062.037.062.037.062.037.061.037.062.036.062.035.062.035.063.035.064.035.063.033.062.035.061.037.062.038.065.037.065.037.064.037.064.037.064.039.063.041.062.041.062.04.064.039.064.037.065.035.065.034.066.031.066.03.067.029.067.027.069.024.068.024.069.021.07.02.07.018.07.016.07.015.071.013.071.011.071.009.072.008.071.006.072.004.071.003.072.001.072-.001.072-.003.072-.004.071-.006.072-.008.071-.009.072-.011.071-.013.071-.015.071-.016.07-.018.07-.02.07-.021.07-.02.072-.02.072-.019.072-.017.074-.016.073-.016.073-.016.072-.016.072-.016.072-.016.072-.016.072-.016.071-.017.072-.019.071-.021.07-.023.07-.025.069-.026.069-.028.069-.031.067-.032.066-.035.065-.037.065-.039.064-.04.063-.043.062-.043.061-.046.06-.047.06-.049.058-.049.059-.05.058-.05.058-.052.057-.052.056-.053.056-.054.057-.056.877-.877.05-.047.053-.043.056-.039.058-.036.061-.031.062-.027.064-.023.066-.019.067-.013.068-.01.068-.004h.068z"/><path d="M10.076 18.001l.063.004.062.009.062.012.061.012.06.011.061.016.06.019.06.022.061.023.06.024.06.025.06.021.061.023.06.023.059.023.06.022.06.023.069.022.07.021.069.02.07.014.079.014.079.012.078.01.078.009.07.008.078.006.07.012.071.013.071.013.071.013.07.015.07.016.071.018.069.02.07.021.069.024.068.024.069.027.067.028.067.031.067.031.065.034.065.035.065.037.064.038.063.04.063.042.062.042.062.045.064.049.062.049.063.049.062.049.061.048.062.047.061.045.061.045.062.045.062.045.063.043.064.043.064.042.064.041.065.041.065.039.066.039.066.038.066.037.067.037.068.035.068.035.068.034.069.032.069.033.069.031.07.03.07.03.071.029.07.027.072.027.071.026.072.026.072.024.073.024.072.022.073.022.074.021.073.02.074.019.074.018.075.017.074.017.075.017.075.019.074.018.074.019.074.02.073.02.074.021.074.013.072.012.073.013.073.013.073.013.074.013.074.014.073.013.073.014.073.014.072.013.073.012.073.013.074.014.073.013.075.013.075.012.075.012.075.013.075.012.075.01.075.01.076.009.075.01.076.01.076.01.076.01.076.01.076.01.077.01.077.01.077.01.076.01.076.01.077.01.077.012.077.012.076.019.066.013.066.01.067.013.066.01.068.004.068.001.068-.004.068-.008.068-.013.067-.016.067-.029.065-.041.064-.043.064-.043.063-.043.062-.045.062-.045.061-.045.061-.045.06-.047.06-.049.058-.049.057-.051.056-.052.051-.053.045-.05.047-.049.049-.047.05-.046.061-.045.063-.042.062-.04-.064-.039-.065-.037-.067-.037-.068-.035-.068-.034-.069-.032-.069-.031-.07-.03-.07-.029-.071-.028-.072-.027-.072-.027-.072-.027-.072-.027-.072-.027-.072-.027-.073-.027-.073-.027-.073-.027-.072-.027-.071-.027-.07-.027-.071-.029-.071-.029-.071-.03-.072.031-.072.034-.072.034-.071.036-.05.038-.05.039-.05.038-.052.037-.053.036-.053.036-.054.034-.055.031-.057.029-.058.028-.06.029-.063.03-.064.037-.062.036-.063.035-.063.036-.063.037-.062.038-.062.039-.062.04-.06.041-.061.042-.059.043-.058.044-.057.046-.057.046-.054.047-.054.051-.053.05-.051.051-.053.049-.056.049-.057.049-.079.041-.08.041-.081.043-.081.045-.081.045-.083.045-.083.043-.082.041-.082.041-.083.043-.083.045-.081.047-.08.049-.08.049-.079.051-.077.053-.075.056-.075.056-.074.057-.074.075-.073.076-.072.077-.07.07-.071.07-.072.079-.071.077-.072.077-.072.077-.062.079-.061.072-.059.072-.051.072-.052.07-.053.067-.059.065.058.063.058.061.059.058.058 1.59 1.59.097.051.067.044.067.046.067.047.068.047.068.046.068.045.069.043.069.043.069.04.079.041.079.04.079.038.088.037.087.036.087.034.087.033.087.03.089.028.089.025.089.024.091.022.092.019.092.018.092.015.093.012.093.01.092.007.094.006.093.004.095.004.099.002z" fill="#d00300"/><path d="M9.011 18a1.196 1.197 0 0 1-.365.213c-.333.408-.756.749-.717 1.111a.499.499 0 0 1 .093-.422c.01-.005.013-.005.02-.007.027-.017.026-.019.025-.019.071-.09.074-.18.076-.19.069-.101.069-.102.067-.103.064-.106.061-.107.059-.108.056-.11.054-.111.052-.111.049-.111.05-.109.057-.107.059-.105.061-.104.063-.104.064-.104.065-.105.072-.107.07-.162.078-.15.076-.15.074-.151.07-.153.087-.157.095-.158.091-.159.09-.148.091-.149.093-.14.096-.143.096-.143.09-.14.099-.191.097-.12.094-.123.092-.122-.09-.124-.009-.127-.014-.127-.015-.127-.017-.127-.019-.126-.02-.126-.022-.126-.025-.125-.027-.125-.029-.124-.032-.124-.033-.123-.036-.122-.039-.122-.04-.121-.042-.119-.044-.118-.043-.119-.045-.118-.054-.116-.053-.116-.053-.115-.052-.11-.05-.112-.052-.113-.073-.113-.076-.117-.088-.118-.099-.126-.093-1.113-.023-.101-.024-.009-.024-.009-.023-.008-.022-.008-.023-.007-.022-.007-.023-.006-.024-.005-.023-.005-.024-.004-.024-.004-.024-.005-.023-.005-.024-.006-.023-.007-.022-.008-.024-.008-.022-.009-.023-.009-.022-.01-.022-.01-.022-.012-.022-.011-.021-.012-.022-.013-.021-.014-.02-.013-.021-.015-.02-.015-.02-.016-.02-.016-.02-.017-.019-.018-.019-.023-.024-1.581-1.581-.033-.035-.032-.036-.03-.038-.028-.04-.026-.041-.024-.042-.022-.043-.02-.044-.017-.045-.016-.045-.013-.047-.011-.047-.009-.048-.006-.047-.004-.049L16 5.012l.001-.048.003-.048.005-.049.007-.047.01-.048.012-.046.015-.046.016-.046.019-.044.021-.044.023-.043.025-.041.027-.04.029-.039.031-.037.032-.036.034-.034.036-.032.037-.031.039-.029.04-.027.041-.025.043-.023.044-.021.044-.019.045-.016.047-.015.046-.012.048-.01.047-.007.049-.005.048-.003.048-.001.048.002zM29.026 4.001l.048.003.049.005.047.007.048.01.046.012.046.015.046.016.044.019.044.021.043.023.041.025.04.027.039.029.037.031.036.032.034.034.032.036.031.037.029.039.027.04.025.041.023.043.021.044.019.044.016.046.015.046.012.046.01.048.007.047.005.049.003.048.001.048-.002.048-.004.049-.006.047-.009.048-.011.047-.013.047-.016.045-.017.045-.02.044-.022.043-.023.043-.025.042-.027.04-.029.039-.031.038-.032.036-.033.035-.036.033-.037.031-.038.029-.04.027-.041.026-.042.024-.042.022-.044.021-.044.019-.045.017-.046.015-.047.013-.047.01-.048.009-.047.005-.049.004L19 23h-6l-.048-.001-.049-.004-.047-.005-.048-.009-.047-.01-.047-.013-.046-.015-.045-.017-.044-.019-.044-.022-.042-.023-.041-.025-.04-.027-.039-.029-.037-.031-.036-.032-.034-.034-.032-.036-.031-.037-.029-.039-.027-.04-.025-.041-.023-.043-.021-.044-.019-.044-.016-.046-.015-.046-.012-.046-.01-.048-.007-.047-.005-.049-.003-.048-.001-.048.002-.048.004-.049.006-.047.009-.048.011-.047.013-.047.016-.045.017-.045.02-.044.022-.043.024-.042.026-.041.028-.04.03-.038.032-.036.033-.035 1.581-1.581.023-.024.018-.019.017-.019.016-.02.016-.02.015-.02.015-.02.014-.021.013-.02.013-.021.012-.022.011-.021.012-.022.01-.022.01-.022.01-.022.009-.022.009-.023.008-.022.008-.024.007-.022.007-.024.006-.023.005-.023.005-.024.004-.024.004-.024.003-.024.003-.024.002-.024.001-.024.001-.024.001-.024.002-.024.003-.024.003-.024.004-.024.004-.023.005-.024.005-.023.006-.024.007-.023.007-.023.008-.022.009-.023.009-.022.01-.022.01-.022.011-.021.012-.022.012-.021.013-.02.014-.021.013-.02.015-.02.015-.02.016-.02.016-.019.017-.019.018-.024.023-1.261 1.485-.081.048-.084.049-.087.049-.087.049-.087.049-.087.049-.087.049-.087.049-.087.049-.087.049-.087.049-.087.049-.087.049-.087.049-.087.049-.087.048-.087.049-.087.049-.087.049-.087.049-.087.049-.087.049-.087.049-.087.049-.087.049-.087.049-.087.049-.087.049-.087.049-.087.049-.087.048-.087.049-.087.049-.087.049-.087.049-.087.049-.087.049-.087.049-.087.049-.087.049-.087.05-.087.051-.086.051-.086.051-.087.051-.087.058-.088.058-.097.058-.098.058-.091.058-.092.058-.093.058-.094.057-.094.058-.094.058-.013.058-.011.06-.013.06-.013.06-.013.06-.019.057-.013.058-.014.058-.014.058-.014.058-.014.058-.014.058-.014.058-.011.058-.011.059-.009.058-.008.059-.006.058-.005.058-.0049.058-.014.058-.013.058-.011.059-.01.059-.007.059-.007.059-.007.059-.008.059-.004L20 15H10l.001-.039.003-.04.004-.039.006-.039.008-.039.009-.039.011-.038.012-.038.014-.037.015-.037.017-.035.018-.036.02-.034.021-.034.022-.033.023-.032.025-.031.026-.03.027-.029.029-.028.029-.027.03-.025.032-.025.032-.023.034-.022.034-.02.034-.019.036-.018.036-.016.037-.015.038-.013.038-.011.038-.01.039-.008.039-.007.04-.005.039-.003.04-.002.04-.001.04.002z"/></svg><path d="M22.276 20.961a1 1 0 0 1-.894 1.442H20.008a2.998 2.998 0 0 1 3.482 1.021h.002a1.001 1.001 0 0 0 1.602 1.404l2.321 2.213z" fill="#a970e0"/><path d="M27.498 11.193l.029.028.029.026.031.024.032.024.032.022.034.02.035.02.035.018.036.016.036.015.037.014.037.012.038.01.038.009.039.008.039.006.039.004.04.003.039.001.04v.04l-.002.04-.004.039-.005.04-.007.039-.008.039-.01.038-.011.038-.013.038-.014.037-.016.037-.017.035-.019.036-.02.034-.021.034-.023.032-.024.032-.025.031-.026.029-.028.029L20.414 15H22l.04.001.039.002.04.004.039.006.04.007.038.008.039.01.038.012.037.013.037.015.037.016.035.018.035.019.034.02.034.022.032.023.032.024.03.025.03.027.028.028.027.029.026.03.025.031.024.032.022.033.021.034.02.034.018.036.017.036.015.036.014.038.012.038.011.038.009.039.008.039.006.039.004.039.003.04.002.04v.039l-.002.04-.003.04-.005.039-.007.04-.008.039-.01.038-.011.038-.013.038-.014.037-.016.037-.017.035-.019.036-.02.034-.021.034-.023.032-.024.032-.025.03-.027.03-.028.029-.029.027-.029.027-.031.025-.032.024-.032.023-.034.021-.034.02-.036.019-.035.017-.037.016-.037.014-.038.013-.038.011-.038.01-.039.008-.039.007-.04.005-.039.004-.04.002h-.04l-.04-.001-.039-.003-.04-.004-.039-.006-.039-.008-.039-.009-.038-.01-.038-.012-.038-.014-.036-.015-.037-.016-.035-.018-.035-.02-.034-.02-.033-.022-.032-.024-.031-.024-.031-.026-.029-.027-.028-.028-.027-.029-.026-.031-.024-.031-.024-.032-.022-.033-.02-.034-.02-.035-.018-.035-.016-.037-.015-.036-.014-.038-.012-.038-.01-.038-.009-.039-.008-.039-.006-.039-.004-.04-.003-.039-.001-.04v-.04l.002-.04.004-.039.005-.04.007-.039.008-.039.01-.038.011-.038.013-.038.014-.037.016-.037.017-.035.019-.036.02-.034.021-.034.023-.032.024-.032.025-.031.026-.029.028-.029L21 11.586l2.707 2.707zM13.707 14.293l.028.029.026.029.025.031.024.032.023.032.021.034.02.034.019.036.017.035.016.037.014.037.013.038.011.038.01.038.008.039.007.039.005.04.004.039.002.04v.04l-.001.04-.003.039-.004.04-.006.039-.008.039-.009.039-.01.038-.012.038-.014.038-.015.036-.016.037-.018.035-.02.035-.02.034-.022.033-.024.032-.024.031-.026.031-.027.029-.028.028-.029.027-.031.026-.031.024-.032.024-.033.022-.034.02-.035.02-.035.018-.037.016-.036.015-.038.014-.038.012-.038.01-.039.009-.039.008-.039.006-.04.004-.039.003-.04.001h-.04l-.04-.002-.039-.004-.04-.005-.039-.007-.039-.008-.038-.01-.038-.011-.038-.013-.037-.014-.037-.016-.035-.017-.036-.019-.034-.02-.034-.021-.032-.023-.032-.024-.031-.025-.029-.026-.029-.028L21 14.414l-1.293 1.293-.029.028-.029.026-.031.025-.032.024-.032.023-.034.021-.034.02-.036.019-.035.017-.037.016-.037.014-.038.013-.038.011-.038.01-.039.008-.039.007-.04.005-.039.004-.04.002h-.04l-.04-.001-.039-.003-.04-.004-.039-.006-.039-.008-.039-.009-.038-.01-.038-.012-.038-.014-.036-.015-.037-.016-.035-.018-.035-.02-.034-.02-.033-.022-.032-.024-.031-.024-.031-.026-.029-.027-.028-.028-.027-.029-.026-.031-.024-.031-.024-.032-.022-.033-.02-.034-.02-.035-.018-.035-.016-.037-.015-.036-.014-.038-.012-.038-.01-.038-.009-.039-.008-.039-.006-.039-.004-.04-.003-.039-.001-.04v-.04l.002-.04.004-.039.005-.04.007-.039.008-.039.01-.038.011-.038.013-.038.014-.037.016-.037.017-.035.019-.036.02-.034.021-.034.023-.032.024-.032.025-.031.026-.029.028-.029L21 11.586l2.707 2.707zM13.707 14.293l.028.029.026.029.025.031.024.032.023.032.021.034.02.034.019.036.017.035.016.037.014.037.013.038.011.038.01.038.008.039.007.039.005.04.004.039.002.04v.04l-.001.04-.003.039-.004.04-.006.039-.008.039-.009.039-.01.038-.012.038-.014.038-.015.036-.016.037-.018.035-.02.035-.02.034-.022.033-.024.032-.024.031-.026.031-.027.029-.028.028-.029.027-.031.026-.031.024-.032.024-.033.022-.034.02-.035.02-.035.018-.037.016-.036.015-.038.014-.038.012-.038.01-.039.009-.039.008-.039.006-.04.004-.039.003-.04.001h-.04l-.04-.002-.039-.004-.04-.005-.039-.007-.039-.008-.038-.01-.038-.011-.038-.013-.037-.014-.037-.016-.035-.017-.036-.019-.034-.02-.034-.021-.032-.023-.032-.024-.031-.025-.029-.026-.029-.028L21 15.414l-1.293 1.293-.029.028-.029.026-.031.025-.032.024-.032.023-.034.021-.034.02-.036.019-.035.017-.037.016-.037.014-.038.013-.038.011-.038.01-.039.008-.039.007-.04.005-.039.004-.04.002h-.04l-.04-.001-.039-.003-.04-.004-.039-.006-.039-.008-.039-.009-.038-.01-.038-.012-.038-.014-.036-.015-.037-.016-.035-.018-.035-.02-.034-.02-.033-.022-.032-.024-.031-.024-.031-.026-.029-.027-.028-.028-.027-.029-.026-.031-.024-.031-.024-.032-.022-.033-.02-.034-.02-.035-.018-.035-.016-.037-.015-.036-.014-.038-.012-.038-.01-.038-.009-.039-.008-.039-.006-.039-.004-.04-.003-.039-.001-.04v-.04l.002-.04.004-.039.005-.04.007-.039.008-.039.01-.038.011-.038.013-.038.014-.037.016-.037.017-.035.019-.036.02-.034.021-.034.023-.032.024-.032.025-.031.026-.029.028-.029L21 11h58.995l-2.726-1.766V22L21 18.624V7h1l.058.003z"/><path d="M27 19.5a1.5 1.5 0 0 0-1.5-1.5h-3a1.5 1.5 0 0 0 0 3h3a1.5 1.5 0 0 0 1.5-1.5zM11 19.5A1.5 1.5 0 0 0 9.5 18h-3a1.5 1.5 0 0 0 0 3h3a1.5 1.5 0 0 0 1.5-1.5z" fill="#ed6b44"/><path d="M23.707 12.183l.028.082.023.081.028.08.025.08.026.089.027.089.027.089.023.089.022.089.02.089.019.09.017.041.016.04.014.041.012.043.011.044.008.043.008.044.005.045.003.044.002.045.001.045-.002.045-.003.045-.005.044-.008.043-.009.044-.011.042-.013.043-.014.042-.016.041-.018.04-.02.04-.022.038-.023.038-.024.037-.027.037-.027.035-.028.035-.029.035-.03.034-.031.033-.032.031-.034.032-.035.032-.035.03-.036.038-.038.037-.041.037-.041.037-.043.032-.044.031-.044.029-.045.027-.044.025-.043.025-.043.027-.042.027-.044.029-.045.03-.045.03-.045.031-.045.031-.045.032-.045.032-.046.031-.047.027-.048.025-.051.022-.053.02-.053.017-.054.014-.055.011-.056.008-.056.004L20 22h-8l-.056-.002-.056-.004-.056-.008-.055-.011-.054-.014-.053-.017-.053-.02-.051-.023-.05-.026-.048-.028-.047-.031-.044-.034-.043-.036-.041-.039-.04-.031-.04-.031-.041-.03-.041-.029-.042-.021-.043-.02-.044-.018-.045-.016-.046-.015-.046-.012-.047-.01-.048-.007-.047-.004-.049-.003-.048v-.048l.003-.048.004-.049.007-.047.01-.048.012-.046.015-.046.016-.046.019-.044.021-.044.023-.043.025-.041.027-.04.029-.039.031-.037.032-.036.034-.034.036-.032.037-.031.039-.029.04-.027.041-.025.043-.023.044-.021.044-.019.045-.016.047-.015.046-.012.048-.01.047-.007.049-.005.048-.003.048-.001.048.002zM29.036 4.001l.048.003.049.005.047.007.048.01.046.012.046.015.046.016.044.019.044.021.043.023.041.025.04.027.039.029.037.031.036.032.034.034.032.036.031.037.029.039.027.04.025.041.023.043.021.044.019.044.016.046.015.046.012.046.01.048.007.047.005.049.003.048.001.048-.002.048-.004.049-.006.047-.009.048-.011.047-.013.047-.016.045-.017.045-.02.044-.022.043-.023.043-.025.042-.027.04-.029.039-.031.038-.032.036-.033.035-.036.033-.037.031-.038.029-.04.027-.041.026-.042.023-.044.022-.044.019-.045.017-.046.015-.047.013-.047.01-.048.009-.047.005-.049.004L19 22h-6l-.048-.001-.049-.004-.047-.005-.048-.009-.047-.01-.047-.013-.046-.015-.045-.017-.044-.019-.044-.022-.042-.023-.041-.025-.04-.027-.039-.029-.037-.031-.036-.032-.034-.034-.032-.036-.031-.037-.029-.039-.027-.04-.025-.041-.023-.043-.021-.044-.019-.044-.016-.046-.015-.046-.012-.046-.01-.048-.007-.047-.005-.049-.003-.048-.001-.048.002-.048.004-.049.006-.047.009-.048.011-.047.013-.047.016-.045.017-.045.02-.044.022-.043.024-.042.026-.041.028-.04.03-.038.032-.036.033-.035 1.581-1.581.023-.024.018-.019.017-.019.016-.02.016-.02.015-.02.015-.02.014-.021.013-.02.013-.021.012-.022.011-.022.01-.022.01-.022.009-.022.009-.023.008-.022.008-.024.007-.023.007-.023.006-.023.005-.024.005-.023.004-.024.004-.024.003-.024.003-.024.002-.024.001-.024.001-.024.001-.024-.001-.024-.001-.024-.001-.024-.001-.024-.001-.024-.001-.024-.001-.024-.001-.024v-.042l.001-.024.001-.024.002-.023.003-.024.003-.024.004-.024.004-.023.005-.024.005-.023.006-.024.007-.023.007-.023.008-.022.008-.023.009-.022.009-.022.01-.022.01-.022.011-.021.012-.022.012-.021.013-.02.014-.021.013-.02.015-.02.015-.02.016-.02.016-.019.017-.019.018-.023.023-1.582 1.581-.035.033-.036.032-.038.04-.04.04-.039.041-.036.044-.034.045-.031.047-.028.049-.026.05-.023.051-.023.053-.018.053-.014.054-.014.055-.018.054-.017.055-.016.055-.015.058-.014.058-.012.058-.011.059-.009.058-.008.059-.006.058-.005.058-.004.059-.002h.118l.059.002.058.004.059.005.059.006.058.008.059.009.058.011.058.011.058.014.057.015.057.016.057.017.057.019.056.021.055.021.055.023.055.025.054.026.054.027.054.029.052.031.053.031.051.035.049.034.047.036.046.038.044.03.043.031.043.034.045.035.047.038.047.036.049.035.049.032.052.03.053.026.054.022.055.02.055.018.055.018.055.019.054.019.054.018.053.017.054.017.053.02.053.023.054.025.054.029.054.029.054.031.053.031.053.032.053.032.054.032.053.03.052.031.054.031.055.034.055.032.055.032.057.034.057.032.056.031.055.029.054.028.055.027.054.026.055.025.055.023.056.022.055.02.055.02.055.02.055.022.055.023.055.025.054.026.053.027.052.028.051.031.049.033.047.034.044.036.043.039.041.041.039.043.036.044.033.047.031.047.028.049.025.05.024.051.023.051.02.051.017.053.014.054.011.055.008.056.004.056L21 21l-.002.056-.004.056-.008.056-.011.055-.014.054-.017.053-.02.053-.023.051-.026.05-.028.048-.031.047-.034.044-.036.043-.039.041-1.176 1.174-.087.045-.086.048-.085.048-.085.049-.084.04-.083.041-.083.04-.082.043-.082.043-.083.04-.085.038-.086.04-.087.041-.087.04-.088.038-.089.038-.088.037-.087.037-.087.037-.087.038-.085.039-.085.041-.084.042-.083.044-.081.046-.08.047-.078.049-.076.051-.073.053-.081.051-.072.045-.064.047-.063.049-.063.048-.062.049-.061.049-.061.04-.062.041-.061.043-.06.046-.06.047-.059.049-.049.049-.047.05-.046.059-.044.059-.045.059-.045.069-.045.068-.043.069-.04.069-.038.069-.037.07-.036.071-.035.072-.034.072-.033.072-.031.073-.03.074-.029.074-.028.075-.026.075-.026.076-.024.077-.022.077-.021.077-.02.077-.019.078-.017.079-.017.079-.014.079-.014.08-.012.08-.01.08-.009.08-.008.081-.007.081-.005.082-.003.081-.002.078-.001h1.536l.078.001zM12 13.5a1.503 1.503 0 0 0-1.5-1.5A1.503 1.503 0 0 0 9 12.5v2a1.503 1.503 0 0 0 1.5 1.5 1.503 1.503 0 0 0 1.5-1.5v-2zM23 12.498c0-.827-.671-1.498-1.498-1.498h-.004c-.827 0-1.498.671-1.498 1.498v2.004c0 .827.671 1.498 1.498 1.498h.004c.827 0 1.498-.671 1.498-1.498v-2.004z"/></svg>
