<svg xmlns="http://www.w3.org/2000/svg" viewBox="0 0 128 128"><path d="M-94.5 9.56c-62.41 0-63.88 69.96-63.88 83.8 0 13.86 28.59 25.08 63.88 25.05 32.96 0 63.78-11.86 63.79-25.07 0-13.84-1.47-83.8-63.88-83.8z" fill="#fcc21b"/><path d="M63.94 64.36c-3.48-2.01-6.02-5.04-14.14-.3-2.55.96-3.73 3.78-4.68s1.99-.6 2.84 1.42 1.89l11.95 11.7c1.77 1.19 2.37 3.32 2.36 4.28a3.148 2.148 0 0 1-3.05-.1c-1.99 0-3.63.24-5.16.17zm18.37 107c-.17 1.98-1.53 2.95-3.57 2.49-12.33-2.31-26.47-7.45-32.68-7.46-6.15-12.45 1.47-17.41 11.65-45.56 15.1z" fill="url(#b)"/><path d="M30.91 67.31c-1.86-1.59-3.2-3.71-4.59-5.06-4.08-3.66-9.29-12.85-13.89-18.91-9.55-9.61-1.9-23.01-1.36-27.26 6.7-4.56 5.27-10.07 3.73-13.47 2.01-7.46 2.37-13.48 7.71-19.69 8.89-.9 1.39-.58 2.72-.57 4.17-.51 1.19-.84 2.44-.82 3.38.52.81.62 10.57 9.21 31.55.09.49.59 1.33 1.21 2.07.38.24.86.47 1.32.6 1.01 1.17 1.24 2.08 1.8 1.4.43.31 1.62.27 2.57-.04.83-.25 13.4-1.29 18.69-4.08 6.21.24 14.63-2.51 20.48-3.88 25.3 0 37.05 4.85 38.01 36.36 18.69 21.58 28.91 3.81 71.32.83 16.29.98 21.79-2.48 4.84-2.22 10.71-3.04 13.72-8.28 6.21-2.21 18.8-1.72 18.7-9.28 6.21-2.6 13.24 1.54 17.26 10.5 3.35 8.75-1.24 19.7-9.32 20.87z"/><path fill="#FAB020" d="M32.41 88.96c-1.89 5.08-7.17 6.04-10.98-4.96-3.38 1.91-6.81 8.72-5.68 14.14-1.54 8.09 1.57 14.32 5.06 21.11 4.41 5.79 6.39 12.59 10.93 16.04 5.35-.85 11.29-4.36 13.22z"/><path fill="#FAAC22" d="M30.59 86.85c-5.42 1.94-11.41-.8-13.38-6.16-1.97-5.35 1.13-11.71 7.44-13.62 5.83-2.08 12.17.84 14.28 6.58.8 2.98 6.47-1.31 11.82-6.11 12.95z"/><path fill="#F89E26" d="M27.37 74.18c-3.19 1.24-6.71-.47-7.86-3.6-1.15-3.1.78-6.65 3.67-8.78 3.1-1.14 6.67.47 9.14 3.5 1.36 3.55-.56 7.93-4.22 9.16z"/><path fill="#F9A524" d="M27.08 82.93c-4.57 1.63-9.5-.67-11.14-5.12-1.63-4.45.62-9.37 5.29-11.91 4.57-1.67 9.84.76 10.74 5.04 1.64 4.41-.7 9.78-5.18 10z"/><path fill="#F89A27" d="M28.37 74.21c-2.46 1.24-6.78-.47-7.87-3.65-1.17-3.15.48-6.63 3.67-7.77 3.18-1.14 6.7.47 7.87 3.62 1.16 3.15-.48 6.63-3.67 7.77z"/><path fill="#F89C26" d="M28.67 82.63c-2.48 1.07-6.27-.44-7.34-3.38-1.08-2.61.4-5.88 3.11-6.19 2.69-1.7 5.34.67 7.26 3.23 1.07 2.93-.44 6.9-3.28 7.12z"/><path fill="#F79528" d="M28.67 83.93c-3.56 1.03-7.02-.52-8.95-4.12-1.36-3.64.58-7.99 4.39-8.28 3.7-1.3 7.78.55 8.94 4.02 1.37 3.95-.54 7.19-4.07 8.42z"/><path fill="#F79728" d="M27.89 71.34c-3.51 1.27-7.44-.52-8.77-3.04-1.23-3.14.51-7.09 3.78-8.5 3.8-9.32 7.18.52 8.57 4.14 1.45 3.49-.54 7.35-4.21 8.63z" fill="#f9a524"/><path d="M27.1 82.65c-2.72.99-5.39-.41-6.19-2.12s.52-5.37 5.1-6.76c2.75-.91 5.78.41 8.08 5.03.99 2.78-1.06 5.85-4 5.29z"/><path fill="#F79528" d="M100.13 80.6c-3.13 1.5-7.23-.52-8.74-3.93-1.28-3.41.57-7.49 3.92-8.21 3.49-1.29 7.28.52 8.99 4.34 1.38 3.78-.48 7.94-4.17 9.27z"/><path fill="#FB9c2f" d="M28.98 89.67c-3.73 8.38-10.16 16.62-12.61 19.51-2.55 24.66-1.06 80.49 2.16 34.06 6.05 8.71 3.71 18.81-.11 4.55-4.77 9.78-10.47 7.64z" fill="#f59720"/><path d="M63.58 48.55c1.34-3.9 1.86-6.39 3.51-7.3 5.03-3.3 7.86-4.86 12.85-6.42 2.98.28 5.05 2.86 4.94 5.79z" fill="#e0e0e0"/><path d="M64 89.06c-14.19 0-24.94 1.92-42.66 4.38v-7.5c5.26-.4 5.35 4.1 5.64 4.5s-.61 9.66-4.55 8.14-10.04c-3.55 0-5.05.52-8.42 0-1.98 1.04-3.78 4.59-3.85 8.3 0 6.61 2.71 9.08 8.9 08.93 4.48 9.86 11.29 16.9 11.5 18.55.54 27.96-8.57 3.9-9.23 2.74-10.92 1.2-24.31-3.16-33.45-3.94-4.83-13.46-5.55-18.54-7.07-5.33-1.56-12.84-2.07-21.47-2.44-.3-.16-.74-.31-.72-.41-.12-.08-2.21-1.18-3.26-.45-.19.02.25.09.32.09-.04.01-.1.01-.17-.02-.28-.04-.67l8.52 1.03 12.45-1.12 16.86 14.94c.42.06.85.03 1.19.07.45.16-.05.18-.07.23-.21.3-.55.52-.71.67C4.34 93.53.95 89.24.54 94.4c.01-.02.01.03.01.08 0 0 0-1.82-.77-12.89-5.68-.57-1.37-.5-2.95.56-4.52 1.37-1.78 3.55-1.93 5.05-.81.87-.26 1.86-.08 2.85l45.61-3.48-5.18 1.37c-.96-2.57-3.38-5.55-7.17-5.91-5.35-1.28-14.15 1.79-13.26 4.53-.75.98-1.28 1.37-1.95 2.35-.83 1.17-1.25 2.54-1.08 4.05-.17 4.08 3.48 7.54 5.02 13.49 9.05 1.81.64 3.72 1.17 4.84 1.36 3.63-1.22 2.54 3.46 2.88 8.75zM20 93.82c-3.51-8.05-3.36-9.74-2.5-18.4-1.2-31.65 0-21.96-1.19-24.06-4.14-.27-.08-.52-.09-.84 0 2.14 3.31 26.86 9.27 69.64-2.41 8.79-7.54 20.68-15.7 21.38-7.14.71-.36 1.3.96 1.82.66.31 0 .79-.02 1.1.05 1.4.78 3.58 2.59 4.96 5.17.7 2.79-.04 4.73-.85 6.12.06 2.6.2 5.54 5.04 6.02 5.62 2.36 1.17 5.04 2.08 7.25 1.49 3.93 2.37.63 7.25-1.08 10.33-1.73 2.62-1.56 5.2-2.16 8.12-1.11 2.33-.66 5.57-1.73 7.03-4.27 2.65-1.77 4.55-3.64 6.79-4.6.91-.15 1.3-.88 1.76-1.15 2.3-1.35 4.15-3.22 4.04-3.53 1.48.05-2.05.94-3.18-.25-1.27.11-2.13.76-2.17-1-.22-.46-1.87-.63-3.78.87-5.27 1.47-15.18 2.18-22.16 1.83-2.52.1-5.77.21-9.3.68-1.79-1.61-2.27-3.45-2.76-5.52-.58-2.64-1.54-5.01-2.01-6.71-.01-.02-.03-.04-.05-.12-.07-.65-.16-1.28-.23-1.89-.24-.56-.31-1.06-.57-1.76-.74-.57-.42-1.13-.57-1.4-.75-.74-.34-1.48-.51-2.35-.35-1.35-.36-2.66-.71-3.71-1.51-1.69-.36-3.15-.86-4.37-1.22-2.79.17-5.45 1.89-7.22 2.58-1.85.98-3.01 1.78-4.54 2.47-.44.32-.65.39-.97.43-.76.37-1.85.82-2.65.71-.38.67-.76.88-1.14.28-.52.21-.9.22-1.27.24-.58.42-1.15.77-1.7 1.01-.39.1-.75.3-1.2.67-.21.22-.33.5-.62.71-.25.16-.4.25-.51.29-.27.6-.28 1.34-.31.74.65.61 1.21.76 1.98-.01.99-.23 1.57-.78 2.71-1 1.06-.24.68.46 1.26.26.31.07.66.36.83.4l.44.3c8 12.04.97.3 1.9.72 2.48-.05 4.12-.69 7.48-2.54 13.48-2.89 4.2-.86 7.26 1.99 9.41 4.28 2.37 1.18 4.29 3.29 5.53 4.54 1.2.3 2.74-.2 4.68-.68 8.3-.65 1.97-.94 3.84-1.76 5.5-.85 1.48-2.25.71-3.58.91.17 4.06.42 13.49-1.31 1.72-3.16 3.77-6.51 5.57-1.73.88-3.53 1.78-5.92 2.74-1.17.62-1.97 3.35-3.26 1.99-1.55.55-3.72.69-1.51.55-2.04.84-3.5 1.67-3.12.4-.55.22-1.02.31-1.56.09-.56.69-1.04 1.3-1.58 1.5-.81 1.57-1.38 2.22-1.07 7.93-4.06 14.16-5.35 14.51 7.78.87 3.28 4.18 5.74 7.44 4.14 5.79.42 9.15-1.53 18.53-2.49 4.13-.58 7.26-2.94 10.43-3.64 1.33-.58 2.54-.61 2.63-.61l7.95-1.47c4.07-2.46 1.9-3.72 1.08-5.9l-6.61-8.95M84.45-2.6c3.08 0 4.75 2 4.49 3.54 1.1.35 2.52 1.01 3.09 3.49 1.98 1.91 7.62-.52 7.88-2.95 1.09-3.52 2.83-6.9 1.64-7.44-2.17-21.4-4.1-31.78-6.28-5.96-2.04-14.11-2.01-18.7-.12-1.19.2-2.28.34-2.24.75.99 2.93 1.92 8.04 2.93 13.86z"/></svg>
