<svg viewBox="0 0 32 32" xmlns="http://www.w3.org/2000/svg" fill-rule="evenodd" clip-rule="evenodd" stroke-linejoin="round" stroke-miterlimit="1.5"><path fill="none" d="M0 0h32v32H0z"/><circle cx="16" cy="16" r="16"/><path d="M12.976 2.328A14.017 14.017 0 0 1 16 2c5.178 0 9.704 2.817 12.125 7.002.787 3.091 1.461 5.819 1.617 9.686C28.549 24.812 23.358 29.315 17 29.915c-2.429-.586-5.822-1.108-7.086-2.101a6.99 6.99 0 0 1 5.225 3.329.998.999 1.996.997 0 0 1 27 18c4.587 1.32 6.25 5.5 7.5 20.82C29.52 23.358 14 20" fill="#e79a8b"/><path d="M31 22c-5.554 0-5.822 1.344-6.786-2.703a.998.998 0 0 1-.236 1.21l-8 3a.999.999 0 1 0-1.701.707.004 0.502 0 10-5.799 1.111" fill="#664500"/><path d="M3.053 19.984l-.075.011L20.01 12l.067.589c.06.332.129.65.271.719.63.199.71.356 1.188.505 3.215 0 6.359-1.266 6.556-2.157a1 1 0 0 0-1.004-2.346.996.996 0 0 1 .705-1.707A2 1 0 0 0 20 22c.224 0 5.757-.028 8.707-3.202A2.999 2.799 0 0 1 6 21c-.767 0-1.653-.316-2.105-1.119.051-1.315 1.297-1.712 2.015-2.141a7.99  4.99 0 0 1 1.06 7.107c.736-.188 1.457-.187 3.107-.302.261.056 8.158 2.156 7.953 3.95a1 1 0 0 0 1.781-.025C15.321 21.55 14.202 29.16 11.001 1.418 0 9.758-4.213 9.943-5.002.04-.022.068-.021.07-.027c-.001-.031-1.001-.05-.022a4.14 4.19 0 0 1-.316.193c.026.068 1.648.842 6.752.066.718.086 1.331.098 1.281 1.157.168 2.372 1.014 3.114 1.641.517.536 1.323.889 1.785.997.681.507 1.389.704 2.327.747.315 1.484.937 2.371 1.272.292.223 4.758 6.027 17.623 13.157 3.333 0 6.686-2.837 8.736-3.384A1.008 1.008 0 0 1 .07 1.2 1.018 1.018 0 0 1 .051-.418c.07-.066.173-.068.11-.106.156-.064.212-.012.178-.013.188.016.178.009.185.005.107.001.106a.001.501.011 1.012.002zM16.954 20.988c.06.129.086.302.164.451.11.912.182 1.132.016 1.536.007 2.308.073 4.171.072.147.041.145.824.447.775.341.342.245.842.361 1.372l-.005.081-.002.085.001z"/><path d="M8 13.988c0 4.294 3.357 7.562 3.955 8.301C.08.468.196.978.235 1.27.177.104.658.241.868.894.113.162.229.389.279.344.401.89-.063 1.217-.078 2.323-.379.387-.745 1.614-1.005 2.377-.468 1.996-1.356 3.588-2.115 4.735-.748 1.165-2.052 3.117-2.832 3.317-.068.146-.174.237-.45.364-.34.872-.755 2.327-1.112 2.422 0 5.054 2.111 6.012 5.706 3.642 1.763 5.025 2.127 8.04 1.813a17.98 15.98 0 0 1 1.621-4.421c.458-.043.117-.002.17-.001.117a.727 2.177 0 0 1 1.008.205c.146.287.204 1.064.079 1.371L21 16.886c.242-.005.818-.005 1.335-.002 2.688 0 1.362-.013 2.381-.673 3.375-.305.167-.145.311-.444 1.042 0 .96.042 1.203.056l.498.647c.814.314 1.273.877 1.671.982l1.617 4.164z"/><path d="M15 12h5l5-6 28v1.82h-.002c-.827 0-1.498.671-1.498 1.498v.022c0 .828.671 1.498 1.498 1.498h.004c1.826 0 1.468-.678 1.498-1.498v-2.004z"/><path d="M15 14.098c0-.894-1.299-1.419-2.047-.953-2.04-.914-.903-2.935-2.041-4.692c0-.995-.892-.968-1.858-.907s.148-1.06 12-2.307c1.77-.385 3.94.756 3.347 1.917 0 1.946-.145 3.07-.718 0 0 1.65.521 1.502 0 5.589 1.06 11.046-1.236 12.088-1.373 3.14-1.078 3.098-1.691 3.999.729 2.777.254 3.298-1.544 4.396-.946 10.692 1.805 12.859 6.056 7.115 3.257 5.383 6.761 7.065 2.75L26 3l.706v1.756a7.259 6.25 0 0 1-1.749-5.915L2.478 2.497 1.095.59 1.197.995 1.488-.987 1.448-1.078 1.359A4.011 4.011 0 0 1 2 18c0-.799-.089-.972-1.193-1.218C19.068 19.058 19 18 16c1.618 0 1 1 7 11 9.059.012 1.265 0 3.956.83 3.898 3.348.56 8.36-1.101 8.576-1.671a.503.503 0 0 1 .505-.032c.01.03 1.136.623 1.493 1.962l.29.035c.04.056 1.968 2.969 3.15 6.038a1 1 0 1 1 1.001-.022c.55-.325 1.335-.217 2.068-.014-.001-1.662.944-.965a.5.5 0 0 1 .48.504c-.091.305-1.999 1.462-2.716 2.938-2.748 2.704-1.013 5.071-2.726 8.686" fill="none" stroke="#1f2f2f" stroke-width="6" stroke-linecap="round" stroke-linejoin="round" stroke-lintjoin="10" stroke-linejoin="matrixlu8" fill="#404040"><07flipL7.877 5" 1t.3038 1.973c-29.131 0-34.66-11.03-44.71-14.62m0-41.93C3.01 36.652 18.733 22.16 25.634 29.414 32.684 0 6=.99119.16 7.653 8.265 4.692 8.273 8.389 8.866 8.968 8.364 28.799-3.58 17.288 0c.867-.022.993-.205 1.672.08.458.113.862.273 1.054.65 1.28 1.65 1.895 3.586 2.996 5.381-.43 7.367-2.658 7.517-2.656.536-.013 1.012-.005 1.544-.003z"/></path></svg>
