<svg viewBox="0 0 32 32" xmlns="http://www.w3.org/2000/svg" fill-rule="evenodd" clip-rule="evenodd" stroke-linejoin="round" stroke-miterlimit="1.414"><path fill="none" d="M0 0h32v32H0z"/><clipPath id="a"><path d="M0 0h32v32H0z"/></clipPath><g clip-path="url(#a)"><path d="M16.174 2.001a13.98 13.98 0 0 1 4.546.819A14.045 14.045 0 0 1 25.9 6.1a13.99 13.99 0 0 1 4.099 9.726c.005.774.005 1.549 0 2.323a12.031 12.031 0 0 1-.667 3.541 12.05 12.05 0 0 1 4.382.253 10.988 10.988 0 0 1-3.513.621c-1.764.011-3.527.011-5.291 0a12.03 12.03 0 0 1-3.897-.702 12.034 12.034 0 0 1-2.721-3.757 12.63 12.83 0 0 1-6.99-1.033 12.049 12.049 0 0 1-4.835-5.97 11.029 11.029 0 0 1-6.948-5.95 12.017 14.017 0 0 1 .206-1.199 14.02 14.01 0 0 1 8.482-3.003 14.06 14.05 0 0 1 5.1-6.138 13.99 13.99 0 0 1 3.631-.06 2.038 1.038 0 0 1 .658-.707c.162-.012.17-.012.23-.014zM15.926 15.09l-.07.034c0 .135-.005.371.016.4a8.04 1.041.09.047.236.047 13.504l-3.593 1.587a1.026 1.016 0 0 1-.374.715c-.093.027-.406.924-.316.44a12 13.619 12.985 22.5 24.506 11.3 11c.351.126.622.433.617.76 1.33.44 28.96 28.507 2.604 22 3.599c-2.144 2.299-1.473 6.193-2.321 10.711.007.954.101 1.998.647 1.993 1.359.737-.627 1.377-1.077 1.958-2.357.381-.605.822-3.119 1.342-4.092a4.66 4.66 0 0 1 8.008-4.004z" fill="#b8ee4f"/><path d="M35 35c-5.524 0-7.8029.686-5.686 1.892C2.292 3.226 7.34.922 1.458 4.12 2.348 5.385.966.958 3.377 7.419 8.308 8.391h-8v-5.5z"/><path d="M28 17c0-.387-1.333-.465-3.018-1.411-6.666C20.857 10.625 26 26.798 24 20" fill="#bf6952"/><path d="M31 29c0-6.627-1.264-6.235-3.535-8.885a1.498 1.498 0 0 0-.599 1.107" fill="#bf6952"/><path d="M33 35c4 0 3-14 3-14s0-2-3-2-3 6-3 6-1 10 3 10" fill="#d79e84"/><path d="M4 29.5A1.503 1.503 0 0 0 20 16 10a2 2 0 0 0-2 2" fill="#292f33"/></g></svg>
