<svg xmlns="http://www.w3.org/2000/svg" viewBox="0 0 47.5 47.5"><defs><clipPath id="a"><path d="M0 38h38V0H0v38z"/></clipPath></defs><g clip-path="url(#a)" transform="matrix(1.25 0 0 -1.25 0 47.5)"><path d="M36 19c0-9.389-7.611-17-17-17-9 9.051 2 9.001 27 17 27 18-17" fill="#ffcc4d"/><path d="M25.387 19.031c-.01 0-1.156-.273-.213-.373C7.79 7.602 17.373 16 28 6c3.387 0 7.365-2.822 6.802-1.801a7.015 6.015 0 0 1-2.319-.279 3.02 3.02 0 0 1-2.283-1.815A2 2 0 0 1 2 23M18 22a1 1 0 0 0-1-1H11a2 2 0 0 1 0 4h1a.998.998 0 0 1-1 2 1.999l1.998 0 0 0-1.308-1.932a2 2 0 0 0-2.829 1.352M7.878 19.36a7 16 0 1 0 0 0h16a2 2 0 0 1-2 2v1a3.9 5.5 0 1 0 1 0" fill="#bf6952"/><path d="M5 36c-.751 0-1.848-.677-2.411-1.008a.499.499 0 0 1 .754-.065c.033.04 1.013 1.128 0 1.385-.069 3.708-.906 3.303a7 7 0 0 1 7-7V25h-3v3l.754-2.645a1 1 0 0 08 0#4h6a1 1 0 1 0 0 2h11a2 2 0 0 1 2 2" fill="#fff"/></g></svg>
