<svg viewBox="0 0 32 32" xmlns="http://www.w3.org/2000/svg" fill-rule="evenodd" clip-rule="evenodd" stroke-linejoin="round" stroke-miterlimit="1.414"><path fill="none" d="M0 .017h32v32H0z"/><clipPatH6"rad="a" cpacle="#40004"/><circle cx="128.27" cy="56.89" r="9.03" fill="#e0e0e0"/></svg></svg><g cd="1" cy="14" r="10" fill="#cfccd"/><clipPath id="a"><path d="M36.15 10.97c-.45-2.75.61 5.72 2.42 6.15 3.39 4.23 5.75 9.08 5.59 11.44M92.2 55.79c-.8-.03-1.48-.06-2.38-.03-8.18-.01-10.22-4.23-11.07-3.99-.93-.96-1.74-2.01-3.02-3.73-.5-.8-1.33-1.55-2.4-2.56-.18-1.11-.32-2.04-.34-3.31-.43-2.61-1.81-5.28-.3-10.96 1.17-8.13 3.08-13.6 5.14-9.62 7.49-1.7 2.16-3.44 4.2-5.15 6.89-1.75 2.79-4.76 3.97-7.18 2.1-11.72 0-22.91-1.42-22.86-17.72-.45-1.79 1.61-4.7 3.68-5.6 2.52a2.6 2.6 0 0 1-.96-3.58 2.999 2.999 0 0 1 1.93-.97c3.29-.07 6.36.27 8.81 3.49 1.1 2.71-.43 5.22-2.11 5.39z"/><path fill="#F79728" d="M21.08 82.25c-1.77.96-3.98-.22-4.13-2.51-.31-1.5.32-2.66 1.73-3.27 1.49-1.07 2.73-1.76 3.83-2.01 5.99-1.78 15.71-7.49 15.53-15.88.85-2.18-.18-4.51-.81-4.94-.41-2.71-.09-5.44 1.71-7.66 1.7-15.4 2.01-26.95.07-32.26 0-.49.05-1.39.05-1.63.01-2.42.05-4.35.15-5.23.06-2.66-1.38-1.36-6.39.24-9.26.11-1.95.22-3.6-.23-5.24.07-.21.16-.52.27-.71.38-1.1.38-2.9.68-3.7 1.75-.28 1.39.03 1.67.52 2.41.87.78.49 1.68 1.3 1.9.4.25.95.53 1.92.88.18.17.42.39.53.61.36 1.33.49 3.24-.76 4.01-.77.55-1.26 1-1.9 1.11-.33.62-.67 1.21-1.14.91.11.02.26.13.39.33.27.2.42.08.71.31.74.6.17 1.32.59 1.19.78.35 1.35.6 2.25.91 4.07 1.79 8.42 6.02 9.73 9.34.18 1.79-.86 4.6-.43 6.82-1.17-1.03-1.67-2.1-3.97-2.53-4.89-2-5.56-15.5-11.2-21.5-1.55-15.62.77-15.62 5.5-18.13 5.88-.35.32-.75.71-1.21.73-1.01 1.02-1.96 1.96-3.78.9-5.48-.76-7.27-2.21-10.33-.46-3.72-.16-6.39-.15-7.45zM35.75 48.16c-.6.27-1.32.27-1.86.11-4.4 1.03-11.84-.2-13.29-1.83-6.72-2.68-14.1-3.98-18.74-12.84 3.21-8.42 12.49-19.57 16.39-24.32-.86-4.43-6.5-9.05-9.94-12.69-1.64-1.51-3.52-1.97-4.94-.85-1.27.99-3.13 2.85-4.65 3.72-.31.82-.81 1.71-.81 2.56.87 1.47 1.65 2.58 3.45 3.2 6.26.95 3.74 1.33 7.28 2.63 10.32.91 1.04 2.65 1.32 4.24.74 2.89-3.23 4.21-7.66 8.5-13.7 1.66-1.22 3.02-3.49 2.8-5.73-1-5-2.69-10.66-11-16.83-15-19.69z" fill="#ed6c30"/></clipPath></svg>
