<svg xmlns="http://www.w3.org/2000/svg" viewBox="0 0 47.5 47.5"><defs><clipPath id="a"><path d="M0 38h38V0H0v38z"/></clipPath></defs><g clip-path="url(#a)" transform="matrix(1.25 0 0 -1.25 0 47.5)"><path d="M36 19c0-9.389-7.611-17-17-17C9.612 2 2 9.611 2 19c0 9.388 7.612 17 17 17 9.389 0 17-7.612 17-17" fill="#ffcc4d"/><path d="M24 10c0-3.314-2.238-6-5-6s-5 2.686-5 6c0 3.313 2.218 6 5 6s5-2.687 5-6M6.999 26a1 1 0 0 0-.799 1.6C9.462 39.95 13.816 30 14 30a1 1 0 0 0 .004-2c-.155-.002-3.568-.086-6.204-3.6a1 1 0 0 0-.801-.4" fill="#292f33"/></g></svg>
