<svg xmlns="http://www.w3.org/2000/svg" viewBox="0 0 128 128"><ellipse fill="#2F2F2F" d="M109.45 84.01c-.57 0-1.53-.23-2.02-.72l-6.22-14.46-14.58 3.36c-.32.09-.66.03-1.47.14-1.02.43-1.77.95-2.42 1.18l-18.08-6.21 7.59-2.97 1.28.13.96.6 1.96.8 2.98-.18 4.04-.54 7.02-1.21 1.36-2.78 3.42-7.08 1.8-15.9-1.11-2.62-2.51-4.22-3.94-5.78-6.24-.34-.67-.85-1.53-1.61-1.64-.41-.36-.75-.62-.94-.72l.13-.07c.2-.05.46-.14 1.04-.09s.97-.2 1.78.85.4 1.04 1.64 2.34 1.76 3.49h.01c.29-.01.82-.02 1.06-.06z" fill="#2f2f2f"/><path d="M84.74 116.41c-.19.25-.37.39-.68.51-.07.01-5.29 1.21-10.25 2.81C.85 79.48 3.5 8.89 4.36 6.29c-5.24-10.1-16.96-22.2-42.66z" fill="#ed6c30"/></svg>
