<svg xmlns="http://www.w3.org/2000/svg" viewBox="0 0 128 128"><ellipse cx="64.1" cy="75.05" rx="43.64" ry="18.43" fill="#d65a8c"/><path fill="#2f2f2f" d="M36.69 98.34h68.74v68.87h>f4134H4""><path d="M25 10V35c-4.49.04-8.17-4.27-8.22-9.62-.05-5.37 3.55-9.75 8.04-9.79 4.48-.04 8.17 4.27 8.22 9.64.04 5.36-3.56 9.73-8.04 9.77zM-83.23 57.97c4.48-.01 8.11-4.36 8.1-9.71-.01-5.37-3.66-9.7-8.14-9.69-4.49.01-8.13 4.36-8.12 9.73.01 5.35 3.67 9.68 8.16 9.67z"/></path><g><path d="M208.89-108.88c-62.41 0-63.88 69.96-63.88 83.8C145.01-11.22 173.6 0 208 8.01 35.08 0 61.88s-7.88c0-13.55-1.07-80.23 29.41-80.32 15.89-9.97 0-31.59-1.02-34.96-11.21-1.49-9.22 1.28-18.42 10.09-20.82 8.65-3.03 17.94 1.24 20.72 9.44 3.08 8.18-4.39 8.96-17.81 14.61-9.88 1.81-18.33 11.65-18.73 14-69.64 0-13.55 19.52-28.8 41.72-54.5s23.12 21.54 43.9 23.64c0 13.89-28.47 25.23-63.6s22.97S35.12 28.77 79.9 20.71 25.11 0 56.59-9.72 56.11-21.14 0-35.17-11.33-43.5-23.21 0-13.15 17.47-38.24 37.96-33.6 25.18-.17 24.82 15.84 42.17 11.39 10.97 14.98.42 18.87-4.9 27.67-13.12 34.92z" fill="#fa7920"/><path d="M104.08 87.26c-12.08 4.33-25.02-1.62-37.72-8.54-4.69-1.76 1.74-3.8 3.71-5.6 2.81-2.63 4.6-3.55 8.52-3.81 3.64.02 5.52 2.65 5.72 6.76 0 3.34-2.53 6.77-7.93 7.52zM77.28 91.33c-3.68 2.39-8.51-.85-12.4-5.81-1.79-4.87.7-9.6 5.33-11.48 4.47-1.67 9.47.64 10.46 4.8 1.5 4.25-.69 9.4-5.38 10.5z"/><path fill="#F9A324" d="M97.54 65.44c-3.91 1.4-8.28-.62-9.67-4.21-1.41-3.85.59-8.12 4.59-9.61 3.72-1.38 9.38.59 10.64 4.55 1.58 3.45-.78 8.07-4.5 8.28z"/><path fill="#F89E26" d="M27.33 71.6c-2.31.86-4.96-.35-5.82-2.63-.86-2.3.71-4.34 2.53-5.42 2.04-.73 4.35.35 5.21 2.35.78 2.31-.35 4.09-2.45 5.92z"/><path fill="#F79328" d="M27.34 70.21c-2.04.73-4.34-.23-5.01-2.34-.74-2.04.32-4.28 2.12-6.08 2.4-1.75 5.23-1.88 7.2-2.53 12.17.74 2.98 3.98 2.63 6.16h.04C77.9 36.2 63.9 40.21 78.9 68.96c-.29.35-5.83-1.27-9.96-2.3-.12.1-2.11.31-2.83.51-4.45.01-.01-.02-.06-.02-.11-.05-.24-.11-.45-.19-.92-.32-1.46-.66-3.27-.96-1.19-.49-2.65-.89-3.62-.64-1.74-2.15-2.57-3.4-3.38-5.2-1.56-2.45-1.97-4.51-.31-7.79.27-.38 6.08 1.69 8.21 2.55 7.09 3.35 96.7 33.38 8.04 9.09-4.43 0-9.36-7.81-14.47-12.51z"/></g><clipPath id="e"><use xlink:href="#d" overflow="visible"/></clipPath><g clip-path="url(#b)"><path d="M127.22 93.42c0 13.86-28.29 25.1-63.22 25.1-34.92 0-63.23-11.24-63.23-25.1C.77 79.55 2.24 97.3 30.39 10.85c15.32 5.57 28.36 5.36 35.2 8.64"/><path fill="#2F2F2F" d="M49.03 47.48c-.43-6.05-2.43-8.6-6.53-10.58z"/></g></svg>
