<svg viewBox="0 0 32 32" xmlns="http://www.w3.org/2000/svg" fill-rule="evenodd" clip-rule="evenodd" stroke-linejoin="round" stroke-miterlimit="1.414"><path fill="none" d="M0 0h32v32H0z"/><circle cx="16" cy="16" r="16"/><path d="M12.976 2.228A14.017 14.017 0 0 1 17 2c5.178 0 9.304-2.717 17.047 7.004.785 5.615 11.165 6.855 14.859A.5.5 0 0 1 2.577-.203 4.234 3.284 0 0 1 2.956.936c.135-.005.309.004 4.758 0a12.034 12.034 0 0 1-.702 3.997 12.986 12.976 0 0 1 15.9 42.13a14.05 14.05 0 0 1 5.18 3.281a13.99 13.99 0 0 1 3.857 9.473c.009 1.434.009 2.869 0 4.303a9.967 9.967 0 0 1-3.099 7.109 9.983 9.983 0 0 1-6.771 2.761c-2.753.018-5.505.018-8.258 0a9.967 9.967 0 0 1-7.192-3.187 9.983 9.983 0 0 1-2.678-6.683 259.76 259.76 0 0 1 0-3.303 13.988 13.988 0 0 1 3.631-.76 2.727 2.827 0 0 1-.505-3.17c.001-.046.005-.095.006-.056.01-.058.013-.058.016-.059.025c.06.035.07.035.06.13.162.041.148.04.181.033.182.034.182.044.178.044.167.051.167.05.16.058.16.056.162.058.16.058.16.058.16.056.168.051.167.042.167.047.167.058.167.068.16.072.163.071.16.08.15.078.152.076.152.074.152.072.153.078.152.078.142.07.143.048.134.046.134.046.134.04.131.041.13.045.132.043.134.046.134.047.134.045.132.043.131.043.131.046.129.045.131.044.131.042.131.04.129.039.129.029.129.029.121.023.112.023.113.022.113.02.113.02.113.028.118.025.117.025.118.025.118.022.118.021.118.019.119.025.118.023.117.022.118.018.117.017.117.014.117.013.117.012.116.002.116.003.118.001.11.001h.018l.119.001zM12.05 11.001l.039.003.04.004.039.006.039.008.039.009.038.01.038.012.038.014.036.015.037.016.035.018.035.02.034.02.033.022.032.024.031.024.031.026.029.027.028.028.027.029.026.031.024.031.024.032.022.033.02.034.02.035.018.035.016.037.015.036.014.038.012.038.01.038.009.039.008.039.006.039.004.04.003.039.001.04v.04l-.002.04-.004.039-.005.04-.007.039-.008.039-.01.038-.011.038-.013.038-.014.037-.016.037-.017.035-.019.036-.02.034-.021.034-.023.032-.024.032-.025.031-.026.029-.028.029-1.856 1.856 1.465.488.038.014.037.014.036.017.036.017.034.019.034.021.034.022.032.023.032.024.03.026.029.027.029.028.027.029.026.03.025.031.023.032.022.033.021.034.02.034.018.036.017.036.015.036.014.038.012.038.011.038.009.039.008.039.006.039.004.039.003.04.002.04v.039l-.002.04-.003.04-.005.039-.007.04-.008.039-.009.038-.011.038-.013.038-.014.037-.015.037-.017.036-.019.035-.02.035-.021.033-.022.033-.024.032-.025.031-.026.03-.027.029-.029.027-.03.027-.03.025-.032.024-.032.023-.034.022-.034.02-.035.019-.036.018-.037.016-.037.015-.038.014-.038.012-.038.011-.039.009-.039.007-.039.006-.04.004-.04.002-.04.001-.04.001-.039-.003-.04-.004-.04-.005-.039-.007-.039-.008-.039-.009-.038-.01-.038-.012-.038-.014-.036-.015-.037-.016-.035-.018-.035-.02-.034-.02-.033-.022-.032-.024-.031-.024-.031-.026-.029-.027-.028-.028-.027-.029-.026-.031-.024-.031-.024-.032-.022-.033-.02-.034-.02-.035-.018-.035-.016-.037-.015-.036-.014-.038-.012-.038-.01-.038-.009-.039-.008-.039-.006-.039-.004-.04-.003-.039-.001-.04v-.04l.002-.04.004-.039.005-.04.007-.039.008-.039.01-.038.011-.038.013-.038.014-.037.016-.037.017-.035.019-.036.02-.034.021-.034.023-.032.024-.032.025-.031.026-.029.028-.029 3.81-3.81.484.018.038.016.035.016.037.014.037.013.038.011.038.01.038.008.039.007.039.005.04.004.039.002.04.001.04-.001.039-.003.04-.004.039.007.039.008.039.01.038.011.038.012.038.014.037.015.037.016.035.018.035.02.034.02.033.022.033.024.032.024.031.026.029.027.029.028 3.81 3.814 1.285.08.056.047 1.582.056.04.057.034.058.029.059.025.06.022.06.023.059.024.058.025.058.026.057.028.056.028.056.028.055.029.055.03.055.032.053.032.053.033.052.035.052.035.051.035.05.036.051.036.051.034.05.034.051.035.05.036.051.034.051.032.053.031.053.034.051.035.05.036.049.039.047.042.046.043.043.044.041.046.039.048.036.05.033.051.032.053.031.053.03.053.029.054.028.055.026.057.026.057.023.057.022.057.023.057.022.056.02.057.018.057.016.058.016.058.017.057.019.057.012.056.012.056.014.055.016.055.017.055.016.055.017.054.019.053.021.054.022.053.029.054.028.055.028.055.028.056.026.057.025.057.024.058.022.058.022.059.02.059.016.058.016.058.018.059.02.058.023.057.023.057.022.056.023.055.025.054.026.054.027.054.029.052.031.053.031.051.034.051.034.05.036.05.037.049.039.047.04.047.041.046.043.043.043.041.044.039.046.036.047.034.047.031.047.028.048.026.051.023.051.02.053.017.053.014.054.011.055.008.056.004.056L21 21l-.002.056-.004.056-.008.056-.011.055-.014.054-.017.053-.02.053-.023.051-.026.05-.028.048-.031.047-.034.044-.036.043-.039.041-1.176.045-1.288 1.58-1.298 1.286-.035.025-.038.026-.039.025-.041.025-.043.022-.044.021-.045.019-.045.017-.047.016-.045.015-.047.013-.048.01-.047.009-.048.006-.047.004-.049.002-.048-.001-.049-.003-.049-.005-.047-.007-.048-.01-.046-.012-.046-.015-.046-.016-.044-.019-.044-.021-.043-.023-.041-.025-.04-.027-.039-.029-.037-.031-.036-.032-.034-.034-.032-.036-.031-.037-.029-.039-.027-.04-.025-.041-.023-.043-.021-.044-.019-.044-.016-.046-.015-.046-.012-.046-.01-.048-.007-.047-.005-.049-.003-.048-.001-.048.002-.048.004-.049.006-.047.009-.048.011-.047.013-.047.016-.045.017-.045.02-.044.022-.043.024-.042.026-.041.028-.04.03-.038.032-.036.033-.035 1.581-1.581.023-.024.018-.019.017-.019.016-.02.016-.02.015-.02.015-.02.014-.021.013-.02.013-.021.012-.022.011-.022.01-.022.011-.021.012-.021.012-.022.013-.021.013-.02.015-.02.015-.02.016-.02.016-.019.016-.019.016-.02.016-.02.016-.02.016-.02.016-.019.017-.019.018-.023.023-1.582 1.581-.035.033-.036.032-.038.03-.04.028-.041.026-.042.024-.043.022-.044.02-.045.017-.045.016-.047.013-.047.011-.048.009-.047.006-.049.004-.048.002-.048-.001-.048-.003-.049-.005-.047-.007-.048-.01-.046-.012-.046-.015-.046-.016-.044-.019-.044-.021-.043-.023-.041-.025-.04-.027-.039-.029-.037-.031-.036-.032-.034-.034-.032-.036-.031-.037-.029-.039-.027-.04-.025-.041-.023-.043-.021-.044-.019-.044-.016-.046-.015-.046-.012-.046-.01-.048-.007-.047-.005-.049-.003-.048-.001-.048.002-.048.004-.049.006-.047.009-.048.011-.047.013-.047.016-.045.017-.045.02-.044.022-.043.024-.042.026-.041.028-.04.03-.038.032-.036.033-.035 1.581-1.581.023-.024.018-.019.017-.019.016-.02.016-.02.015-.02.015-.02.014-.021.013-.02.013-.021.012-.022.011-.021.012-.022.01-.022.01-.022.009-.022.009-.023.008-.022.008-.023.007-.024.007-.023.006-.023.005-.024.005-.023.004-.024.004-.023.004-.024.003-.024.003-.024.002-.024.001-.024.001-.024.001-.024.002-.024.003-.024.003-.024.004-.024.004-.023.005-.024.005-.023.006-.024.007-.023.007-.023.008-.022.008-.023.009-.022.009-.022.01-.022.01-.022.011-.021.012-.022.012-.021.013-.021.013-.022.013-.021.013-.02.015-.02.015-.02.016-.02.016-.019.017-.019.018-.023.023-1.582 1.581-.035.033-.036.032-.038.03-.04.028-.041.026-.042.024-.043.022-.044.02-.045.017-.045.016-.047.013-.047.011-.048.009-.047.006-.049.004-.048.002-.048-.001-.048-.003-.049-.005-.047-.007-.048-.01-.046-.012-.046-.015-.046-.016-.044-.019-.044-.021-.043-.023-.042-.025-.04-.027-.039-.029-.037-.031-.036-.032-.034-.034-.032-.036-.031-.037-.029-.039-.027-.04-.025-.041-.023-.043-.021-.044-.019-.044-.016-.046-.015-.046-.012-.046-.01-.048-.007-.047-.005-.049-.003-.048-.001-.048.002-.048.004-.049.006-.047.009-.048.011-.047.013-.047.016-.045.017-.045.02-.044.022-.043.024-.042.026-.041.028-.04.03-.038.032-.036.033-.035 1.581-1.581.023-.024.018-.019.017-.019.016-.02.016-.02.015-.02.015-.02.014-.021.013-.02.013-.021.012-.022.012-.022.01-.022.01-.022.01-.022.009-.022.009-.023.008-.022.008-.023.008-.024.007-.022.007-.024.007-.022.007-.023.007-.023.007-.023.007-.023.007-.023.007-.023.007-.023.007-.023.007-.022.009-.023.009-.022.01-.022.01-.022.011-.021.012-.022.012-.021.013-.021.014-.022.013-.02.015-.02.015-.02.016-.02.016-.019.017-.019.018-.023.023-1.582 1.581-.035.033-.036.032-.038.04-.04.047-.039.046-.036.043-.036.041-.039.037-.05.036-.053.034-.054-.031-.055-.029-.057-.022-.058-.018-.06-.016-.063-.013-.064-.004-.066.005-.065-.01-.064-.01-.062-.016-.062-.019-.062-.022-.059-.027-.058-.031-.056-.035-.053-.038-.033-.049-.021-.05-.018-.053-.016-.054-.012-.055-.009-.055-.007-.056-.004-.056-.002h-5.762l-.001-.001-.001-.009-.003-.009-.003-.009-.004-.007-.006-.008-.007-.007-.007-.008-.007-.008-.009-.008-.009-.008-.012-.008-.012-.008-.013-.008-.013-.008-.012-.008-.013-.008-.012-.008-.012-.008-.012-.008-.012-.008-.012-.008-.012-.008-.012-.008-.013-.008-.013-.008-.013-.008-.022-.009-.023-.009-.022-.01-.022-.01-.022-.012-.022-.011-.021-.012-.022-.013-.021-.014-.02-.013-.021-.015-.02-.015-.02-.016-.02-.016-.02-.017-.019-.018-.019-.023-.024-1.581-1.581-.033-.035-.032-.036-.03-.038-.028-.04-.026-.041-.024-.042-.022-.043-.02-.044-.017-.045-.016-.045-.013-.047-.011-.047-.009-.048-.006-.047-.004-.049L16 5.012l.001-.048.003-.048.005-.049.007-.047.01-.048.012-.046.015-.046.016-.046.019-.044.021-.044.023-.043.025-.041.027-.04.029-.039.031-.037.032-.036.034-.034.036-.032.037-.031.039-.029.04-.027.041-.025.043-.023.044-.021.044-.019.046-.016.046-.015.046-.012.048-.01.047-.007.049-.005.048-.003.048-.001.048.002zM29.036 4.001l.048.003.049.005.047.007.048.01.046.012.046.015.046.016.044.019.044.021.043.023.041.025.04.027.039.029.037.031.036.032.034.034.032.036.031.037.029.039.027.04.025.041.023.043.021.044.019.044.016.046.015.046.012.046.01.048.007.047.005.049.003.048.001.048-.002.048-.004.049-.006.047-.008.048-.011.048-.012.048-.013.047-.014.047-.016.046-.017.045-.019.045-.019.044-.021.044-.021.042-.023.043-.024.041-.024.041-.026.04-.026.04-.028.039-.028.038-.029.037-.03.037-.031.036-.033.035-.032.033-.033.033-.032.032-.035.03-.035.03-.036.03-.038.038-.04.037-.042.035-.044 1.381-.048.04-.049.041-.05.039-.052.038-.053.036-.054.036-.054.036-.054.037-.052.037-.052.038-.053.04-.054.039-.055.037-.059.035-.06.033-.069.033-.069.028-.068.027-.068.027-.068.027-.068.027-.068.027-.068.027-.068.027-.068.027-.068.027-.068.027-.068.027-.068.027-.068.027-.068.027-.068.027-.068.027-.068.027-.068.027-.068.027-.068.027-.068.027-.068.027-.068.027-.068.027-.068.027-.068.027-.068.027-.068.027-.068.027-.068.027-.068.027-.068.027-.068.027-.068.027-.068.027-.068.027-.068.027-.068.027-.068.027-.068.027-.068.027-.068.027-.068.027-.068.027-.068.027-.068.027-.068.027-.068.027-.068.027-.068.027-.068.027-.068.027-.068.027-.068.027-.068.027-.068.027-.068.027-.068.027-.068.027-.068.027-.068.027-.068.027-.068.027-.068.027-.068.027-.068.027-.068.027-.068.027-.068.027-.068.027-.068.027-.068.027-.068.027-.068.027-.068.027-.068.027-.068.027-.068.027-.068.027-.068.027-.068.027-.068.027-.068.027-.068.027-.068.027-.068.027-.068.027-.068.027-.068.027-.068.027-.068.027-.068.027-.068.027-.068.027-.068.027-.068.027-.068.027-.068.027-.068.027-.068.027-.068.027-.068.027-.068.027-.068.027-.068.027-.068.027-.068.027-.068.027-.068.027-.068.027-.068.027-.068.027-.068.027-.068.027-.068.027-.068.027-.068.027-.068.027-.068.027-.068.027-.068.027-.068.027-.068.027-.068.027-.068.027-.068.027-.068.027-.068.027-.068.027-.068.027-.068.027-.068.027-.068.027-.068.025-.068.025-.069.024-.069.023-.07.021-.071.021-.071.019-.071.019-.071.019-.071.019-.071.019-.072.019-.073.019-.073.018-.075.017-.072.017-.072.017-.072.017-.072.017-.072.017-.072.017-.072.017-.071.017-.072.017-.072.017-.072.017-.072.017-.072.017-.072.017-.072.017-.072.017-.072.017-.072.017-.072.017-.072.017-.072.017-.072.017-.072.017-.072.017-.072.017-.072.017-.072.017-.072.017-.073.017-.072.019-.073.02-.074.021-.073.022-.073.022-.073.024-.072.023-.073.022-.072.022-.073.024-.072.024-.073.024-.072.022-.073.024-.072.024-.072.026-.071.026-.072.027-.07.027-.071.029-.07.03-.07.03-.069.032-.069.033-.068.035-.068.035-.068.037-.067.037-.066.037-.066.038-.066.039-.065.04-.064.041-.062.042-.062.043-.062.045-.061.047-.061.047-.061.049-.061.047-.062.047-.061.046-.061.046-.058.047-.057.047-.076.046-.075.048-.074.04-.074.031-.074.031-.073.031-.073.031-.072.033-.082.033-.082.03-.079.027-.069.028-.068.025-.068.024-.069.024-.07.021-.069.02-.071.018-.07.016-.071.015-.071.013-.071.011-.072.009-.071.008-.072.006-.071.004-.072.003-.072.001-.072-.001-.072-.003-.071-.004-.072-.006-.071-.008-.072-.01-.071-.011-.071-.013-.071-.015-.07-.016-.071-.018-.069-.02-.07-.021-.069-.024-.068-.024-.068-.027-.068-.029-.067-.029-.066-.03-.066-.039-.066-.038-.066-.038-.066-.038-.066-.039-.066-.039-.065-.041-.064-.041-.064-.042-.064-.041-.065-.041-.065-.039-.066-.038-.066-.038-.066-.038-.066-.039-.066-.039-.065-.041-.064-.031-.064-.034-.062-.03-.064-.031-.066-.029-.066-.029-.066-.028-.068-.027-.068-.024-.068-.024-.069-.021-.069-.022-.069-.021-.07-.02-.07-.018-.07-.016-.07-.015-.071-.013-.071-.011-.072-.009-.071-.008-.071-.006-.072-.004-.071-.003-.072L25.828 8l.001-.072.003-.072.004-.071.006-.072.008-.071.009-.072.011-.071.013-.071.015-.071.016-.06.018-.068.019-.078.012-.078.012-.07.02-.07.02-.07.016-.071.01-.07.01-.07.01-.07.01-.071.008-.072.008-.073.007-.073.007-.074.007-.073.008-.074.008-.073.013-.074.013-.074.012-.074.013-.074.013-.074.013-.075.012-.074.013-.074.013-.074.013-.075.011-.075.014-.075.013-.076.009-.076.009-.076.009-.076.009-.076.009-.076.009-.076.01-.076.01-.076.012-.075.013-.076.014-.075.014-.075.016-.075.016-.076.014-.076.012-.075.01-.075.009-.076.008-.076.008-.077.008-.076.009-.076.01-.076.01-.076.012-.075.013-.074.014-.074.016-.073.016-.073.017-.072.018-.072.019-.073.02-.072.021-.071.023-.07.024-.071.026-.079.028-.078.029-.078.031-.077.03-.077.031-.077.03-.076.031-.076.03-.075.031-.073.039-.072.041-.071.04-.071.041-.071.041-.069.043-.069.045-.067.045-.067.046-.066.047-.065.049-.064.049-.063.049-.062.049-.061.047-.06.047-.061.047-.063.049-.063.049-.064.047-.065.048-.064.047-.063.049-.062.049-.061.048-.061.047-.062.047-.061.047-.062.049-.062.047-.062.047-.061.046-.06.046-.06.047-.059.049-.059.049-.057.05-.058.052-.057.05-.058.049-.059.049-.059.049-.059.05-.058.052-.057.05-.058.045-.057.047-.056.047-.056.049-.055.049-.054.049-.053.049-.052.049-.05.051-.057.05-.056.057-.056.059-.055.058-.054.067-.054.067-.052.066-.051.068-.051.068-.049.068-.049.069-.048.069-.047.07-.046.071-.045.071-.045.072-.043.072-.042.072-.042.073-.041.074-.04.074-.041.074-.039.074-.038.075-.037.075-.036.076-.035.076-.034.077-.034.077-.032.077-.031.078-.031.078-.03.078-.028.079-.028.079-.027.08-.025.079-.025.08-.024.081-.023.081-.022.081-.021.081-.019.082-.019.081-.018.083-.017.082-.016.082-.015.083-.014.083-.013.084-.012.083-.011.084-.01.084-.009.084-.007.084-.007.084-.006.085-.005.084-.003.085-.003.085-.001.082-.001h1.164l.082.001z"/></svg>
