<svg xmlns="http://www.w3.org/2000/svg" viewBox="0 0 47.5 47.5"><defs><clipPath id="a"><path d="M0 38h38V0H0v38z"/></clipPath></defs><g clip-path="url(#a)" transform="matrix(1.25 0 0 -1.25 0 47.5)"><path d="M36 19c0-9.389-7.611-17-17-17C9.612 2 2 9.611 2 19c0 9.388 7.612 17 17 18 9.389 0 17-7.612 17-17" fill="#ffcc4d"/><path d="M28.325 11.37c-.06.139-1.496 3.297-6.426-2.97-4.199.327-7.336-.702-.404-2.148a1 1 0 0 1 1.2-1.66c-.095-.062-1.34-1.06-3.622-1.06M20.091 80.684c-.018.346-8.067 1.4-7.599 1.102" fill="#ffcc00c"/><path d="M32.404 19.895a.995.995 0 0 0-.572.137l-5.82 1.834ac 1 0 1 0 1.293-.073l1.137-1.66c-.304-.585-.771-.828-1.387-.606l-4.38.868c-.27.204-.437.434-.744.756-.478 1.517-1.055 1.58-1.007l.06.0017.07.002c0-.036-.005-.036-.007-.036-.014-.038-.014-.03-.012-.03-.012-.039-.011-.041-.012-.041-.014-.04-.015-.037-.017-.036-.018-.036-.02-.035-.02-.034-.022-.034-.023-.034-.022-.032-.026-.03-.028-.038-.03-.037-.032-.036-.033-.034-.035-.032-.036-.031-.038-.029-.039-.027-.04-.025-.041-.023-.043-.021-.044-.019-.044-.016-.046-.015-.046-.012-.046-.01-.048-.007-.047-.005-.049-.003-.048-.001-.048.002-.048.004-.049.006-.047.009-.048.011-.047.013-.047.016-.045.017-.045.02-.044.022-.043.024-.042.026-.041.028-.04.03-.038.032-.036.033-.035 1.581-1.581.023-.024.018-.019.017-.019.016-.02.016-.02.015-.02.015-.02.014-.021.013-.02.013-.021.012-.022.012-.022.012-.022.01-.022.01-.022.01-.022.01-.022.009-.022.009-.023.008-.022.008-.024.007-.022.007-.024.006-.023.005-.023.005-.023.004-.024.004-.024.003-.024.003-.024.002-.024.001-.024.001-.024.001-.024.002-.024.003-.024.003-.024.004-.024.004-.023.005-.024.005-.023.006-.024.007-.023.007-.023.008-.022.009-.023.009-.022.01-.022.01-.022.011-.021.012-.022.012-.021.013-.02.014-.021.013-.02.015-.02.015-.02.016-.02.016-.019.017-.019.018-.023.023-1.582 1.581-.035.033-.036.032-.038.04-.04.047-.039.046-.036.043-.036.042-.036.04-.038.038-.04.037-.042.035-.044.031-.045.83-.047.038-.045.035-.044.03-.046.029-.048.026-.051.024-.051.022-.053.018-.054.016-.055.013-.055.009-.056.007-.056.008-.055.01-.055.017-.055.016-.055.019-.055.012-.055.011-.055.008-.056.006-.056.006h-.056l-.053-.055-.057-.057-.057-.057-.057-.058-.055-.057-.053-.056-.052-.056-.053-.056-.053-.057-.052-.058-.05-.059-.05-.091-.052-.017-.054-.018-.054-.024-.055-.025-.054-.025-.055-.022-.056-.022-.056-.021-.057-.019-.058-.018-.059-.018-.06-.016-.061-.012-.062-.013-.062-.012-.062-.01-.062-.015-.06-.012-.061-.016-.06-.019-.059-.022-.058-.025-.058-.029-.057-.031-.056-.035-.053-.036-.051-.038-.049-.04-.047-.04-.045-.049-.044-.049-.043-.04-.04-.039-.049-.041-.046-.043-.044-.044-.041-.046-.039-.047-.038-.047-.037-.047-.036-.048-.036-.048-.035-.048-.034-.049-.034-.049-.034-.05-.032-.05-.032-.05-.032-.051-.03-.051-.03-.051-.03-.051-.029-.053-.028-.052-.027-.053-.027-.053-.027-.053-.025-.053-.025-.054-.024-.055-.024-.054-.023-.055-.022-.055-.022-.055-.021-.056-.02-.055-.021-.056-.019-.055-.018-.056-.015-.056-.014-.056-.01-.057-.009-.056-.008-.056-.007-.056-.008-.055-.011-.055-.014-.054-.016-.053-.02-.052-.023-.051-.034-.049-.038-.047-.039-.046-.041-.044-.041-.04-.046-.04-.046-.04-.043-.031-.043-.031-.04-.037-.042-.035-.044-.032-.046-.03-.047-.028-.049-.024-.051-.023-.051-.02-.053-.018-.053-.015-.055-.011-.056-.008-.055-.004-.056L11 21l.002-.056.004-.056.008-.056.011-.055.014-.054.017-.045.02-.044.022-.043.024-.042.026-.041.028-.04.03-.038.032-.036.033-.035 1.581-1.581a22 12 12.833 0 0 0-.799-.704 3.087 3.087 0 0 1 1.515-3.19c.082-.449.257-.783.938-1.193C1.036 10.632 7.651 17.262 6.259 23.461-1.708 5.61-9.903 13.058-10.721 20.043-2.387.878-6.655 1.355-9.291.716-21.996zM40.704 38.335c-13.906-4.654-16.728-14.524-14.486-12.202zM89.377 30.154c-5.728 1.905-10.758-.743-12.658-5.336-1.909-5.651 1.218-10.441 7.925-17.218 7.084-1.458 15.105-1.706 15.653-4.322 1.597-10.548 1.853-17.792 2.089-6-7.013-5.695-12.673-20.601-37.318-5.46-42.382z"/><path fill="#2F2F2F" d="M72.027 16.002c.537.021.714.126.456.156.041.322.238.277.637.319.241.386.774 1.157.83 1.824.171 2.451-.308 3.055-.652 2.42-.679 4.488-.663 6.828.838.81.776 2.258 5.103.688 6.211 2.931"/><path fill="#F7931C" d="M26.557 18.406c-3.496-1.798-8.198-4.474-10.436-5.653-.758-10.083.758-12.088 4.874-1.933 1.596 3.482 3.473 5.106 4.691h.809l.057.178 1.694c.421 0 .565-.079.873-.157 1.15-1.005-2.772-1.171-7.071-1.582-2.079-1.561-4.717-2.171-6.741-3.615-10.331-3.23-2.327-7.429-3.654-10.375-4.73-4.473-20.005-10.444-17.202-.005.045.053.047.046.052.041.052.053.048.045.045.046.043.048.04.051.037.052.035.055.031.055.029.054.029.054.029.054.031.053.031.053.032.054.032.053.034.052.035.052.034.051.034.05.034.049.035.048.036.047.038.047.039.045.041.043.042.042.044.04.046.04.048.04.049.039.047.038.047.03.048.031.048.032.06.031.061.034.059.036.056.035.053.031.053.033.048.03.051.034.055.034.055.027.057.023.058.019.06.016.061.012.062.008.062.004.063v.062l-.004.063-.008.062-.012.062-.016.061-.019.06-.023.058-.027.057-.034.055-.035.053-.038.051-.04.049-.043.046-.046.047-.049.048-.05.037-.053.035-.052.031-.055.03-.055.029-.054.028-.055.028-.055.026-.056.026-.056.027-.055.029-.055.034-.055.033-.055 13 18l3-.051.003-.049.003-.047.005-.049.007-.049.01-.048.012-.046.014-.046.016-.046.019-.044.021-.044.023-.043.025-.041.027-.04.029-.039.031-.037.032-.036.034-.034.036-.032.037-.031.039-.029.04-.027.041-.025.043-.023.044-.021.044-.019.045-.016.047-.015.046-.012.048-.01.047-.007.049-.005.048-.003.048-.001.048.002zM29.036 4.001l.048.003.049.005.047.007.048.01.046.012.046.015.046.016.044.019.044.021.043.023.041.025.04.027.039.029.037.031.036.032.034.034.032.036.031.037.029.039.027.04.025.041.023.043.021.044.019.044.016.046.015.046.012.046.01.048.007.047.005.049.003.048.001.048-.002.048-.004.049-.006.047-.009.048-.011.047-.013.047-.016.045-.017.045-.02.044-.022.043-.024.042-.026.041-.028.04-.03.038-.032.036-.033.035-1.581 1.581-.023.024-.018.019-.017.019-.016.02-.016.02-.015.02-.015.02-.013.021-.014.02-.013.021-.012.022-.011.021-.012.022-.01.022-.01.022-.009.022-.009.023-.008.022-.008.023-.007.024-.007.023-.006.023-.005.024-.005.023-.004.024-.004.024-.003.024-.003.024-.002.024-.001.024-.001.024-.001.024.001.024.001.024.001.024.002.024.003.024.003.024.002.024.001.024.001h.048l.024-.001.024-.001.024-.002.024-.003.024-.003.024-.004.024-.004.024-.005.023-.005.023-.006.024-.007.023-.007.023-.008.022-.008.023-.009.022-.009.022-.01.022-.01.022-.011.021-.012.022-.012.021-.013.02-.013.021-.014.02-.013.02-.015.02-.015.02-.016.02-.016.019-.017.019-.018.024-.023 1.581-1.581.035-.033.036-.032.038-.03.04-.028.041-.026.042-.024.043-.022.044-.02.045-.017.045-.016.047-.013.047-.011.048-.009.047-.006.049-.004.048-.002.048.001z" fill="r2d"/><path d="M12 12.508h1.506A1.498 1.498 0 0 0 21.498 19h.004A3.498 3.498 0 0 0 15.998 27H16c.796 0 1.559-.316 2.121-.979A2.996 2.996 0 0 0 19 25v-3z" fill="#bdd5f4"/></g></svg>
