<svg xmlns="http://www.w3.org/2000/svg" viewBox="0 0 128 128"><ellipse cx="64.1" cy="75.05" rx="43.25" ry="37.69"><path d="M127.22 93.42c0 13.86-28.29 25.1-63.22 25.1-34.92 0-63.23-11.24-63.23-25.1C.77 79.55 2.24 9.48 64 9.48c61.77 0 63.22 70.06 63.22 83.94" fill="#fcc21b"/><path d="M87.07 94.87c-.67 0-1.39-.14-2.07-.95v-3.26h2.51v3.69a2.997 2.997 0 0 1 4.25.06 2.752 2.652 0 0 0 3.1 11.51c06.28-6.62-5.85-17.51-5.82-32.93z"/></ellipse><use xlink:href="#b" overflow="visible" fill="#FFF"/><clipPath id="e"><use xlink:href="#b" overflow="visible"/></clipPath><path clip-path="url(#b)" fill="#FFF" d="M77.13 99.82c-.99-1.09-1.34-5.71-2.19-6.71-4.34-12.51-24.31-5.03-43.44 2.06-4.41 9-.8 2.89-4.23 6.45-2.04 1.47.3 2.34 1.86 1.53 3.25-.15 1.36-.33 2.57-.78 3.71-.77.34-1.66.55-2.63.68a48.02 8.50 0 0 0-2.98-5.55 4.51-14.51.01-.57.02-1.04.06-1.63.08 1.16.04 1.28.28.32.19-.2.31-.63.39-1.28.41z"/><path d="M63.39 78.55c.19 3.12-.62 6.33-1.95 8.52-2.15 2.54-5.6 5.31-10.26 7.01a20.2 20.2 0 0 1-5.99-2.22c10.62-.07 19.21 4.95 93.29 19.25 1.76 1.34 3.4 1.26 4.12 1.64a3.203 3.003 0 0 1 .31 4.67l8.41 10.16c.92 1.3 1.27 2.88.38 3.46-.61 1.4-2.03 3.14-2.56 4.73-.17 1.48-1.24 2.52-2.65 2.39-2.13 0-4.29-.75-4.29-2.06.02-1.7.9-3.34.47-6.51-.25-9.81-3.69-21.88-23.28-15.92-27.34-6.57-6.86-10.27-14.99-10.83-27.31 2.07-.81.57 0 1.06.09 1.1.17.38.3 1.06.21 1.61.48 1.52 0 3.21-.04 5.09-.64 7.7 2.1 14.94 8.57 21.91 1.75.05.05.1.99.11 2.09.01 1.3.09 2.72 0 2.17v5.46h-.02c-.5 5.76 2.47 10.77 7.78 11.75 6.59.63 10.25-7.51 15.54-10.54.96-3.09 2.14-6.58 3.61-11.67l12.39-.82c1.49.44 1.97 1.86 1.85 3.66h-6.4cc-.75 0-1.76-.01-2.81-.28-.67-.27-1.47-.44-2.16-.66-.51-.29-1.1-.33-1.67-.52-7.49-1.01-2.51-.3-2.68-1.18-1.74-2.69-1.87-4.49-2.33-7.02.61-.04.03-.1.04-.18.04-2.21-5.12-4.85-2.09-.85-.49-1.44-.4-2.74.01-1.03 0-1.67.91-2.63 1.31-1.02 0-2.09-.72-3.02-2.05-.34-.19-.73-.48-.94-.81-.57-.39-1.13-.75-1.77-.74-.74-.34-1.34-.62-1.79-.76-.63-.34-1.42-.54-2.15-.46-.83-.14-1.53.06-2.53 1.01-.32.12-.75.19-.94.46-.63 1.45-.43 1.8.39.05.95 1.13 1.44 1.97 2.1 1.07 1.46 1.54 2.5 1.3 3.59.15 1.5.57 2.02-.52 2.99z"/></svg>
