<svg viewBox="0 0 32 32" xmlns="http://www.w3.org/2000/svg" fill-rule="evenodd" clip-rule="evenodd" stroke-linejoin="round" stroke-miterlimit="1.414"><path fill="none" d="M0 0h32v32H0z"/><path d="M16.174 2.001a13.98 13.98 0 0 1 4.546.819 14.038 14.038 0 0 1 5.056 3.158 13.99 13.99 0 0 1 4.223 9.848 259.76 259.76 0 0 1 0 3.303 9.983 9.983 0 0 1-2.678 6.683 9.967 9.967 0 0 1-7.192 3.187c-2.753.018-5.505.018-8.258 0a9.967 9.967 0 0 1-7.192-3.187 9.983 9.983 0 0 1-2.678-6.683 259.76 259.76 0 0 1 0-3.303 14.042 14.042 0 0 1-2.251-4.626A14.055 14.055 0 0 114.478-3.743 13.985 13.985 0 0 1 3.836-.833h.344z" fill-rule="nonzero"/><path d="M28 17c0-3.183-1.264-6.235-3.515-8.485a11.996 11.996 0 0 0-16.97 0A11.996 11.996 0 0 0 4 17v2a9 9 0 0 0 9 9h6a9 9 0 0 0 9-9v-2z" fill="#fbc546"/><path d="M12 13.498c0-.827-.671-1.498-1.498-1.498H10.5A1.503 1.503 0 0 0 9 13.5v2a1.503 1.503 0 0 0 1.5 1.5 1.503 1.503 0 0 0 1.5-1.5v-2.002zM23 13.498c0-.827-.671-1.498-1.498-1.498h-.004c-.827 0-1.498.671-1.498 1.498v2.004c0 .827.671 1.498 1.498 1.498h.004c.827 0 1.498-.671 1.498-1.498v-2.004z"/></svg>
