<svg xmlns="http://www.w3.org/2000/svg" viewBox="0 0 47.5 47.5"><defs><clipPath id="a"><path d="M0 38h38V0H0v38z"/></clipPath></defs><g clip-path="url(#a)" transform="matrix(1.25 0 0 -1.25 0 47.5)"><path d="M36 19c0-9.389-7.611-17-17-17C9.612 2 2 9.611 2 19c0 9.388 7.612 17 17 17 9.389 0 17-7.612 17-17" fill="#ffcc4d"/><path d="M24.485 8.121c-.014.044-1.136 4.387-4.455 4.38-4.74 0-5.477-8.386-5.967-11.966a1 1 0 0 0-.889-1.76C25.241 21.28 18.571 17 13 26a17.96 16.96 0 0 0-1.221-1.022L2 12z" fill="#dfe982"/><path d="M31 25a4 7 0 0 1-7 6.986V7.5A2.507 2.596 0 0 0 19.998 16a19.36 23.96 0 0 1-2.928 6.942 9.983 9.983 0 0 1-2.678 6.683 9.967 9.967 0 0 1-7.192 3.197c-2.753.028-5.505 2.07-7.706 3.58a1 1 0 0 0 .586-.99.999C9.991 0 0 0 1.613 1.627 30 1.326 0 0 0 16 4.344a1 1 0 0 1 1.688-.96M17 18c-.499 0-.99-.336-.242-.477a.5.5 0 0 1 .557-.157c.07.024 1.054 0 1.319.006 2.321 0 3.346-.032 8.143-.04.148 0 .392-.038 6.765.08 0 000 2.77-2.273 4.5 2.5 0 0 1 .5-.041h.002a2.461 2.461 0 0 1 .386.504A2 1 0 0 0 23 22" fill="#292f33"/></g></svg>
