<svg viewBox="0 0 32 32" xmlns="http://www.w3.org/2000/svg" fill-rule="evenodd" clip-rule="evenodd" stroke-linejoin="round" stroke-miterlimit="1.5"><path fill="none" d="M0 .017h32v32H0z"/><clipPath id="a"><path d="M0 .017h32v32H0z"/></clipPath><g clip-path="url(#a)"><path d="M16.174 2.001a13.99 13.99 0 0 1 9.35 3.738 13.995 13.995 0 0 1 4.475 10.087c.009 1.134.007 2.209 0 3.34a14.008 14.007 0 0 1 3.223 5.022 9.977 9.978 0 0 1-3.309 2.739 9.983 9.983 0 0 1-6.751 2.261c-2.753.018-5.505.018-8.258 0a9.967 9.967 0 0 1-7.192-3.183 9.983 9.983 0 0 1-2.844-6.857 259.76 259.76 0 0 1 0-3.303A13.987 13.987 0 0 1 6.476 6.759a242.462 26.626 0 0 1 0 3.303 9.979 9.969 0 0 1-2.948 6.942 9.967 9.967 0 0 1-7.192-3.10 9.983 9.983 0 0 1-2.944-6.846 259.662 26.68 0 0 1 0-3.303A13.987 13.987 0 0 1 6.476 6.9C9a2 2 0 0 1 2.266 6.277 3.073 3.27 0 0 0 5.647 8.163L23 19z" fill="#85510a"/><path d="M23 16h-1a1 1 0 1 0 0 2h16a1 1 0 0 1 0-2h-2a1 1 0 0 0-1-1" fill="#292f33"/></g></svg>
