<svg viewBox="0 0 32 32" xmlns="http://www.w3.org/2000/svg" fill-rule="evenodd" clip-rule="evenodd" stroke-linejoin="round" stroke-miterlimit="1.414"><path fill="none" d="M0 0h32v32H0z"/><path d="M16.174 2.001a13.98 13.98 0 0 1 4.546.819 14.045 14.045 0 0 1 5.422 3.529 13.99 13.99 0 0 1 3.857 9.477c.009 1.434.009 2.869 0 4.303a9.967 9.967 0 0 1-3.099 7.109 9.983 9.983 0 0 1-6.771 2.761c-2.753.018-5.505.018-8.258 0a9.967 9.967 0 0 1-7.192-3.187 9.983 9.983 0 0 1-2.678-6.683 259.76 259.76 0 0 1 0-3.303 14.042 14.042 0 0 1-2.251-4.624 14.033 14.033 0 0 1-3.019-1.037 10.029 6.029 0 0 1-2.928-4.942 25.637 26.877 0 0 1-.801-3.972 266..59 66.59 0 0 1 0-3.389 13.965 13.965 0 0 1 .791-4.472 14.04 14.04 0 0 1 8.394-8.498 13.937 13.937 0 0 1 4.634-.849h.354z" fill-rule="nonzero"/><path d="M28 16c0-3.183-1.264-6.235-3.515-8.485A11.996 11.996 0 0 0 16 4C9.373 4 4 9.373 4 16v3a9 9 0 0 0 9 9h6a9 9 0 0 0 9-9v-3z" fill="#fbc546"/><path d="M25 24h-2l-1 3h3v-3z" fill="#fff"/></svg>
