<svg xmlns="http://www.w3.org/2000/svg" viewBox="0 0 128 128"><path d="M52.39 52.14c-.69.44-1.56.57-2.37.55-2.05-.01-5.03-.99-7.69.62-1.94 1.76-4.24 3.46-6.13 2.74-2.43 2.94-6.57 3.5-7.6 1.81-2.6-2.6-6.85-6.49-11.21-5.49-2.11 1.03-5.14 2.08-5.79 2.07-1.7-.45-2.68-1.5-3.65-3.65s.69-3.33.93-3.77zm-30.4 76.72c-1.91.48-2.77-.26-2.76-1.26-.43-1.76.39-2.94 2.2-3.21 1.15-.61 2.18-.38 3.65.8 1.86 3.58 3.48 4.41 5.71 6.68 2.61 1.11 4.09 2.12 6.33 3.28 1.67.73 3.35 1.12 5.11.25 1.76-.83 3.05-2.17 5.46-2.82 1.66-1.62 3.51-3.32 4.81-6.68 3.5-3.26.17-5.36-.75-7.28-2.67-.93-1.34-.26-3.11.38-1.99.81-2.61 2.54-2.74 6.43.97 8.17 6.05 13.07 10.24 14.74z"/><path fill="#FBB817" d="M111.31 78.88c-10.84 3.71-22.61-1.74-27.02-13.49C48.5 85.66 15.74 87.25 10 78.96c-2.48-.46-4.74 1.99-6.52 8.39-6.48 9.82 4.28 17.05 19.35 5.43 15.83 6.24 8.96 3.72 13.09 1.45 13.83-2.98 5.88-10.87 11.87-18.92 14.57z" fill="#fc9728"/><path d="M86.49 43.84s1.27.71 1.37 1.62l17.92 7.88-8.56 4.16c-.33.05-.66.07-.98.01-2.46-.19-4.77-.24-7.68-2.02-6.84-4.37-2.35-14.41 5.11-19.9 4.73z"/><path fill="#2F2F2F" d="M81.23 90.3c-11.63 0-23.5-.62-36.51-1.73-4.38 1.7-11.34 6.79-13.16 7.61-4.11 3.78-6.9 11.44-9.1 25.72-1.23 1.84 3.08.87 5.06 2.82 8.68-.33 5.67-4.23 9.94-6.24 11.95z" fill="#6546e0"/><g><path d="M118.19 57.17c-1.66-5.51-12.37-30.08-14.86-21.39 1.51-4.27 6.38-5.7 11.04-3.25 8.87 1.94 10.13 5.59 15.17 4.33 6.23-2.82 10.73-6.69 17.87-6.66a2.896 2.996 0 0 1-3.65.92c-.98-.23-2.33-.54-3.36.17s-1.79.91-3.71 1.48-7.2-1.03-14.26-4.87-21.04-10.93-.87-4.03 1.68-7.5 5.03-10.17 2.85-4.28 10.97-7.79 15.54-9.83 2.41-1.73 3.39-3.48 3.86-4.69a2.52 2.62 0 0 1 3.24.21c-.01.01-.06.01-.09.01z" fill="#2f2f2f"/><path d="M-414.74 47.64c-1.77 6.37-2.92 9.54-5.13 11.4 5.01 3.88 8.6 7.19 12.59 18.81 18.68 5.87 0 10.79 5.44 10.26 10.24.31.31.01.65.0 1.04.06.37-.02.6-.14 1.16-.15 1.51-.15 3.18-.48 4.05-.6.54-1.02.35-1.5.63-1.07 0-2.09-1.12-2.22-2.28-.12-.21-1.73-4.23-1.44-7.54-.58-.94-.96-2.44-.21-3.41.81-.13 1.8.2 3 1.88 2.98.05 11.58-1.52 17.16-11.43.07-.15.16-.32.37-.52.52-.64.32-1.21.42-1.69.12-.07.01-.05.01-.07 00-.18.01-.31.01-.67-.11-1.33-.33-1.86-.51-1.94-.76-2.2-1.11-.78-.64-1.37-1.48-2.32-2.08-.23-.49-.54-1.17-1.1-1.69-1.63-1.4-3.89.45-6.51 1.93-9.42 5.72-4.46 14.43-8.15 19.46-5.74 6.28 2.52 8.65 11.79 6.49 1.94z"/></g><g fill="#242424"><path d="M83.78 47.05c3.65 0 5.86-2.09 6.04-5.06s-.46-12.53-7.56-16.15-5.31-9.16-11.64-12.83-13.97-13.27-19.48 3.1-3.83 8.6-9.38 14.05-13.63.71-.74 1.38-1.43 1.94-2.08.4-.67.57-1.67.87-2.01.53-1.02.69-2.14 1.14-3.08 1.03-1.1 1.83-2.26 2.6-3.39 1.19-5.63 2.16-12.48-1.55-19.55-2.5-19.58 1.3-19.22 9.72-4.66 7.46-8.14 40.91-11.05 12.16-9.14 19.52-22.08 21.11-.84-2.76 3.08-4.95 3.72-9.76 1.45-.86-1.8-.46-3.03.64-3.91 2.72-6.6 9.22-7.43 17.42 1.19 9.92 8.18 10.52 15.69 5.34 25.92z"/><path fill="#FBBB1D" d="M65.16 92.18c8 6.4 9.37 14.67 10.23 15.84 11.0282.49-.61 15.77-6.79 25.27-12.85 10.47-20.89 14.53-32.87 10.01-.65 18.8-4.08 92.62.49 9.921 10.15 9.34 20.24 9.92 30.25 13.4 4.66 28.34 4.62 27.66 3.64 35.26-7.23 6.21-32 8.51z" fill="url(#a)"/><path d="M64 11.1c14.34 0 26.39 4.72 34.3 13.44 0 2.32-27.66 15.73-60.35 30.31-15.94 0-28.37-4.79-39.04-13.82C13.84 95.32 8 81.46 8 65c0-16.54 5.86-30.43 16.96-40.15C35.05 14.86 48.92 9.98 50.97 10.73 90.94.38c1-1.21 11.15 26.48 24.52 27.33 22.19 29.64-1.31 28.97-15.63 34.65-22.94 4.55-8.58 10.66-10.55 9.4-20.68z" fill="#ed6c30"/><path d="M119.31 86.55c-1.58 6.68-1.62 7.34-2.62 9.7-6.46 2.98-4.38 2.16-13.78.91-21.53-.02-.64.19-1.28.63-1.89.52-.8 1.16-1.28 2.26-.4.57.16 1.13.41 1.71.26.2.77.47 1.76.4 2.25 1.56.64 2.25.62 2.98.91.5.25.97.79 1.54.81.1.1.15.21.33.2.48.09.71.36 1.37.79 1.67.6 2.95 1.01 3.53.39.74.72.75 1.61 1.16 1.53.74-1.05 1.99-2.62 2.64-1.43 5.41.08 10.36 7.7 11.55 5.41.86 10.26-1.35 14.75-.57 1.98-.03 3.64-.26 5.68-.2 1.25.61 1.64 2.35.3 3.33-1.15 1.54-2.87 1.75-4.54.97-.34-.59-.61-1.25-.87-1.85.01-1.95.45-1.81 1.27-1.1 2.96-1 7.69 4.68 7.56 5.16 9.07-.47.38-1.29.78-1.85 1.08zM74.79 40.79c-7.29 7.95-19.88 19.34-39.45 22.747-4.82 3.91-10.2 10.28-11.23 3.31-3.75 7.85-8.34 10.66-10.21l.01-.01sm5.99-9.07 11.97-18.71c.7-1.14.38-2.31-.3-3.26-2.01-.51-4.34-.75-6.2-1.21-6.64-2.64-6.77-16.71-4.49-18.5-4.28-9.96 3.21-19.65 3.91-24.92 10.34-3.59.37-7.15-1.24-11.07-2.01-2.36-1.42-3.75-2.84-5.93-3.71-6.54-2.04-13.7-4.65-20.99-4.06-8.64-.01-17.25 2.38-26.73 7.88-6.18 3.05-14.39-1.46-20.8-.69-9.81.31-15.55.76-21.14 2.01h-.97c-6.29-.08-10.62 3.69-10.7 10.32l3.07 4.96s-.01-.06-12.094-.07-.83-.16-1.3.34-1.63 1.11-.28 2.51-.32 3.84-.3 1.22.41 1.6 2.51.33 3.73zM23.72 33.1c-.66 0-1.31-.14-1.95-.68l-4.3-9.12c-.67.43-1.42 1.28-2.67 1.39a2.132 2.133 0 0 1-1.09-2.35c1.29-.97 2.91-.71 4.6-.9l4.13-.15c.77-1.46 1.77-2.51 2.76-2.68 1.19-.3 2.99.07 4.53.18 1.95.21 3.75.86 5.98l-1.62 1.52a2.134 2.134 0 0 0-1.72 2.48 2.129 2.129 0 0 0 2.09 1.75c.13 0 .26-.01.38-.03l8.83-1.59c.66 1.97 1.51 3.88 2.58 5.71l-8.45 2.68a2.122 2.122 0 0 0-1.39 2.68c.29.91 1.13 1.49 2.03 1.49.21 0 .43-.03.64-.1l9.69-3.08c1.56 1.92 3.4 3.73 5.62 5.39 6.05 4.51 13.58 7.57 21.33 9.23 2.95.63 10.57 2.1 18.55 2.1s16.35-1.47 19.3-2.1c7.75-1.66 15.28-4.72 21.33-9.23 4.35-3.24 7.33-7.07 9.3-11.24l6.13 1.96a2.136 2.136 0 1 0 .69 2.43 2.12 2.12 0 0 1-.12-3.25c.12-.27 4.59-6.28 12.25-6.08 11.25 0 17.3 6.22 17.85 11.12 1.27.89 2.77 1.2 3.49 1.39 3.12.71 6.01 2.16 10.39 3.07 2.68.78 5.52 2.13 5.03 3.43a2.667 2.697 0 0 1 .13 3.28 28.12 22.02 0 0 0-3.46 2.41zM41.08 73.66c2.71-2.3 5.61-7.66 5.89-10.57s-3.23-4.59-3.8-5.79-5.33-3.45-8.34-3.45-12.32 2.36-.31.08-.78.08-1.14.04-.63-.23-1.42-.54-2.1-1.37-1.23-1.26-2.03-2.42-2.46-3.66-7.31-3.53-27.46-14.37-31.21-2.04-.39-.09-.96-.16-1.4-.13-.57 0-1.46.74-1.66 2.13-.11.01-.17.01-.37.03-1.5.65-3.33-1.17-5.34-2.22-1.43-2.08-3.07-4.63-4.56-6.54-.33-1.39-.59-2.78-.82-3.41-.06-.79-.15-1.33.63-1.81 1.31-.61 3.15.17 4.71.69 2.01 1.35 1.6 3.45 1.52 5.26-1.05 16.28-9.84 22.97-18.33-.25-.49-.61-1.13-.6-1.7-.31-1.18-.72-1.85-.84-2.71 1.02-3.85 5.72-2.65 8.51zM56.09 38.23c.43-.26.81-.38 1.37-.4.26 0 .59-.03 1.04-.06.6-.43 1.37-.66 1.73-.76 1.14.33 1.69 2.62 3.32 3.73 2.65 6.44 4.78 12.89 1.71 1.83 0 1.99-.15 1.95-.27.41-.3.8-.83 1.03-1.94 1.62-1.01 3.03-2.04 4.88-4.07 6.05-17.97 7.81-28.11 3.87-1.58.99-4.67 0-6.89-.01-10.54.02-2.9-.8-6.01-1.99-10.59.46-1.09 2.69.9 3.69 4.85z" fill="#242424"/></g></svg>
