<svg xmlns="http://www.w3.org/2000/svg" viewBox="0 0 128 128"><path d="M64 27.36c-19.82 0-17.68 10.5-26.75 11.89-6.01 3.69-12.77 15.44-16.7 20.52 0 13.72 27.48 24.64 63.49 24.9 25.19 0 35.23-19.66 55.2-33.22.01-10.56-14.81-27.8-16.77-36.04C74.5 34.03 55.13 15.25 50.34 10.91c4.52-7.55 5.33-18.33 3.03-35.43 10.38-39.04 13.21-63.45 23.1-63.6 25.01-25.06 0-23.51-1.89-48.3-5.51-8.95 1.47-22.07 4.03-27.96 12.44-3.46 27.56 1.4 33.64 10.36 6.51 16.73-1.72 29.33-28.19 27.78z" fill="#f9a723"/><path d="M73.69 82.38c-11.31 4-32.72 4.02-46.26 4.26-6.49-9.15-9.35-23.66-5.6-33.39h.02H35.39c-9.56-.81-21.08 1.84-26.46 17.74-.46 17.27 1.9 22.81 12.66 3.78 10.81-1.58 20.64-12.63 26.57z"/><path fill="#FBB71E" d="M31.76 86.03c-11.42 4.65-25.84-1.69-26.9-12.74-5.69-6.63 2.99-13.46 3.78-15.98 7.31-5.46 3.78-8.29 14.53-2.26 25.54 7.31 3.48 10.75 5.3 15.47 1.32 13.88 0 15.22-5.06 17.73-6.96a2.202 2.202 0 0 1-3.17-.68z" fill="#855c7c"/><g clip-path="url(#c)"><path d="M63.79 8.04C14.84 17.24 5.12 32.5 4.53 34.8c-2.85 0-6.22-2.91-9.07-4.79-1.09-.03-2.72 1.23-2.98 2.04-2.29 1.83-4.27 2.1-8.27 17.34-3.7 7-50.42 7.76-8.39 1.48-12.74 2.92-17.74 3.51-7.15.01-15.09-.94-20.49-3.68-6.7-.19-11.15-1.69-16.79-4.1-2.33-.66-4.94-.25-6.68-2.15-1.39-1.72-2.83-2.84-4.35-3.62-1.43 0-2.65.77-3.43 1.89-.27.39-.57.65-.69.86 0 .67.02 1.25.07 1.61.57 1.05 2.11 1.8 3.22 1.11 1.07 0 2.1.03 3.28-.55 3.05-1.68.35-3.31.31a68.62 68.6 0 0 1-.91-3.72c-2.11-1.17-4.05-2.88-8.02-5.57a58.78 57.57 0 0 1-2.27-2.74c-.74-1.32-.4-2.74-.68-3.77zM107.4 46.11c-.35-5.47 2.3-8.3 5.33-8.63 9.05 0 14.75 13.61 51.71 16.25 7.33 8.95 11.97 13.25 24.59 12.37 9.57.05 18.05 4.24 20.75 10.17.3 1.2.98.12 2.15.14 3.66-.04 7.44-1.26 11.84-5.58 12.28-19.99 23.13-33.21 20.41-19 3.63.97 2.63 3.21 4.99 6.09 9.69.79.33 2.35-.05 2.83-1.37.05-.48.76-1.49.99-2.17.15zM64.35 80.23c.1 3.91-.61 5.68-2.16 6.75-5.46 1.97-11.54 3.81-18.71 3.6-.65 0-1.19-.04-1.97-.19-1.35-.82-2.15-1.53-1.95-2.58-.27-.98-.55-2.42-.4-3z01.71-4.12 2.52-8.39 7.77-8.37 7.57 0 4.67 10.87 6.3 12.17-.4 4.72-2.59 7.37-6.33 8.03-.61.08-1.41-.74-1.94-1.62-.03-1.15 5.28-6.41 9.86-5.34 5.18 0 7.6 2.06 7.9 13.17" fill="#fcc21b"/><g fill="#2f2f2f"><path d="M51.46 40.34H22.95c-4.29 0-7.22 3.82-7.29 7.65v3.18c0-2.3-2.96-5.29-3.61-5.56v-.76c-.73 0-.66.24-.94 1.34l-4.41 6.69-7.21-13.49c-.58 0-1.23-.03-1.95-.07-1.53-.84-2.71-2.64-1.89-3.58.55-5.62 2.1-7.78.29-1.59.04-3.19-.42-4.25-1.31-1.73-.5-3.04.38-4.9.48-2.23 2.15-3.49 5.99-3.84 10.47 6.25-.78 4.22-1.71 10.01-6.04 14.24-.01.46-.07.61-.25.72-1.5.39-3.06-.29-5.58-1.23-1.43-.54-3.73-1.81-5.35-.48-.79-1.3-1.5-1.59-1.75-.36-.6-.73-1.48-.78-2.28-.08-.6-.63-1.45-1.3-1.24-.41-.37-.75-.62-1.43-.84a2.84 2.94 0 0 1 3.1 2.11c0 .28.11.45.3.27.56h.01l17.04 1.08c.2 1.34.54 2.96-1.97 3.16-.07.01-.1.01-.19.01-.27-.01-.7-.02-.95.02-1.57.08-3.86.09-5.08.02-.21.02-.44.02-.54.03-.65.18-1.41.58-2.74.57-5.25.95-8.75 1.47-31.49-.01-5.67-.34-10.06 4.63-13.58 7.22-2.94 12.8.88 17.84 8.61 2.98 7.78-.95 11.69-1.22 13.94-7.13 5.06-11.73 11.75-13.81 18.05-7.49.76-16.33 4.81-17.81 7.38-.76-.14-1.5-.37-2.17-.13zM11.86 21.08c-1.43 8.26-6.11 8.87-14.74 6.51-6.66-2.82-7.78-11.45-4.67-18.03 3.79-3.87 7.36-5.05 11 .08-.32.4-.24 1.09-.45 1.51-.85 5.41-2.95 10.27 6.64 14.21 10.85.24 2.39-.13 6.68-1.95 8.13-.36 1.71-.59 3.61-1.31 5.04-.41.88-.06 18.43.07 19.21 0 .4.37 4.5 1.06 7.52 5.07 1.48 1.32 3.79 3.39 6.53 4.09 1.15 1.11 1.65 2.35 2.18 3.38 2.5 7.23 6.71 17.91 14.7 1.67 1.08 7.25 1.73 10.32 1.41 2.97.34 5.45.74 7.91 3.29 1.62 3.41.44 6.53.33 9.23-1.05.53-3.13.75-4.44.38-1.29.7-1.86 1.49-2.68 1.39-.01.01-.05.01-.1.01.12-.02.06-.06.17-.07.26-.18.47-.34.8-.31 1.07-.23 2.51-.28 3.69.01 1.05.01 2.77.09 3.75.25 1.66.67 3.47 1.34 4.08 1.74 3.5 2.76 3.61 6.86 3.88 10.46-.67 1.04-1.62 2.23-1.76 3.37zM28.53 61.7c.1-.17-.27-.38-.49-.46-.56l.16-.55c.03-.34.22-.58.3-.1.01-.27.15-.52.39-.27.23-.14.46-.21.61-.42.58-.22 1.1-.24 1.5-.36 1.92-.4 3.03-.86 5.75-.94 5.26-.51 1.76-.09 3.24 0 6.63.05 1.3.65 2.21 1.08 3.28.25 1.11.64 2.25.81 3.42-.26 1.74-.74 3.35-1.28 4.02-1.17.31-.05.41-.18.61-.23.31-.18.66.17.54.46.37.18.68.37 1.05.07.41.18.86.3 1.24.04.21.05.32.1.18.07.17.2.35.2.1.17.24.34.49.8.75.54.72 1.34 18.4 5.29 37.52 2.5 4.37 0 6.86-2.4 6.2-5.24.01.02.01.07-.27.12-1.69.68-3.58 1.08-2.85.45-4.62 3.15-5.27 4.13-.2.25-.43.51-.98.52-1.65.51-.62 1.41-1.2 1.9-1.15 1.16-1.05 2.52-1.27 3.62z"/></g></g></svg>
