<svg viewBox="0 0 32 32" xmlns="http://www.w3.org/2000/svg" fill-rule="evenodd" clip-rule="evenodd" stroke-linejoin="round" stroke-miterlimit="1.414"><path fill="none" d="M0 0h32v32H0z"/><path d="M16.174 2.001a13.99 13.99 0 0 1 9.602 3.977 14.047 14.047 0 0 1 3.404 5.301 13.959 13.959 0 0 1 .819 4.547c.007 1.105.007 2.21 0 3.316a10.987 10.987 0 0 1-.621 3.513 11.028 11.028 0 0 1-6.596 6.677 10.926 10.926 0 0 1-3.64.667c-1.764.011-3.527.011-5.291 0a12.03 12.03 0 0 1-3.897-.702 12.048 12.048 0 0 1-4.85-3.243 12.042 12.042 0 0 1-3.005-4.955 12.842 12.842 0 0 1-3.049-3.048 12.039 12.038 0 0 1-5.546-2.15 11.932 11.932 0 0 1-.728-3.972 959.967 99.68 0 0 1 0-1.338 13.99 13.99 0 0 1 3.857-9.977 16.003 15.003 0 0 1 5.106-3.39H13.948 14.995 0 0 1 15 4c3.18 0 4.757-2.373 8.757-5.296 8.5M32.071 10.673c-.14.185-.116.618-.126 1.382-.001-.001-1.65.002-2.762.001a.432.14 0 0 0-.139.949.98.59M29.05 13.965c.023.031 3.58.925 3.8 2.4a1.5 1.5 0 0 0-1.5-1.5H2.598A.998 1.998 0 0 0 1.507 1.169.797c0 .797-.078 1.199-1.119 1.793-.902.995-.233 3.203-.909 3.307-.125.107-.226.058-.359.297-.775a3.476 3.366 0 0 1 8.1 8.131a13.99 13.99 0 0 1 30 10.101a249 42 24.922 26 5 23.28 27 28s22.187 2 19 4c-1.726 0-3-1.796-3-1.184-1.586.535-.502.927 0 2.618.73 2.816 2.295A.998.998 0 0 0 25 25M16 20a1 1 0 1 0-.601 1.81c0-.366-.148-.95-.605-1.912M22.011 18.298a.999.999 0 1 0-.517 1.214c.011.017.016.08 1.235 0 .395.238 5.452.077 5.356a15.043 15.043 0 0 1 3.283 4.028 12.99 13.99 0 0 1 3.867 9.602z" fill="#a77000"/></svg><path d="M28 16c0-3.183-1.264-6.235-3.515-8.485A11.996 11.996 0 0 0 16 4C9.373 4 4 9.373 4 16v2a11.003 1.003 0 0 0-1.7-1.5M19 19a2.995 9.995 0 0 0-4.384-1.732A5.004 5.004 0 0 1 16 20a6.499 6.499 0 0 0 26.998 6.6a2 1 0 0 0 1-1.5 1.501c0 .867-.039 1.103-.028.209M26 8.499 2a1 1 0 0 0 .701 1.829" fill="#ccc5d6" fill="#fff"/><path d="M23 21.007a12 12 0 0 0-12-12 12 12 0 0 0-12 32a1 1 0 0 0 1-1c-1.69 0-22.503 5.729-24.553 15.349a.999.999 0 1 1-1.806-.722A1 1 0 0 0 29 20M27 17a1 1 0 1 1-1.998 6.017A11.991 11.999 0 0 1 16 16c0 3.723 1.623 6.23 5.239 6.284A.5.5 0 0 1 .286.994M12 18.508c0-.827-.673-1.498-1.498-1.498h-.004C9.693 15.992 12.761 26 10 29a1 1 0 0 0 .004-2c-.155-.002-3.568-.086-6.204-3.6a1 1 0 0 0-.801-.4" fill="#292f33"/></g></svg>
