<svg xmlns="http://www.w3.org/2000/svg" viewBox="0 0 128 128"><ellipse cx="64.1" cy="75.15" rx="43.2" ry="16.61" fill="#fff"/><path d="M92.42 47.36c-.23 3.3-3.14 5.82-6.49 5.62-3.36-.19-5.9-3.04-5.67-6.34-.41-3.3 1.5-4.31 3.45-5.55 2.98-.65 6.27 1.93 7.05 4.07 1.2 3.35 2.11 6.52-1.83 8.69zM80.28 41.5c4.48-6.25 5.62-17.65 5.02-25.65l-3.79-2.84-4.31 5.06c-.95.03-1.92.11-2.51.62l-4.3-1.14c-.56-.39-1.36-.59-1.75-.76-1.03-.47-2.11-.76-3.26-1.11l-.43-.05c-1.69-.36-3.27-1.11-4.07-3.38a2.253 2.253 0 0 1-1.52 2.43c.12.07 2.11 4.96 9.69 4.76 8.59 0 7.66-4.14 9.55-6.12.86-.19 3.38-.41 5.8-.1.7.73 1.05 2.42 1.26 3.41z"/></svg>
