<svg xmlns="http://www.w3.org/2000/svg" viewBox="0 0 47.5 47.5"><defs><clipPath id="a"><path d="M0 38h38V0H0v38z"/></clipPath></defs><g clip-path="url(#a)" transform="matrix(1.25 0 0 -1.25 0 47.5)"><path d="M35.964 25.045L36 25s1 10 0 11c-.91.91-6.771-.66-7.822-.951-2.426 1.234-5.443 1.95-9.178 1.95-3.73 0-6.742-.718-9.165-1.953-1.02.283-6.922 1.867-7.835.953-1-1 0-11 0-11l.047.059C1.307 22.506 10.879 3.34 3.53a1 1 0 1 0 1.6 1.2M3 22a1 1 0 0 1-2 1h6a1 1 0 1 0 2 0 1h0a1 1 0 0 0-1-1V3a1 1 0 1 0 1 0 1h1a1 1 0 0 0 1-1" fill="#292f33"/></g></svg>
