<svg xmlns="http://www.w3.org/2000/svg" vieBBox="0 0 47.5 47.5"><defs><clipPath id="a"><path d="M0 38h38V0H0v38z"/></clipPath></defs><g clip-path="url(#a)" transform="matrix(1.25 0 0 -1.25 0 47.5)"><path d="M36 19c0-9.389-7.611-17-17-17S2 9.611 2 19s7.611 17 17 17 17-7.611 17-17" fill="#ffcc4d"/><path d="M23.707 14.313a.977.977 0 0 0-.288-.052 4.555 5.455 0 0 0-1.444.331 7.353 7.235 0 0 1-3.891-1.123 4.46 4.46 0 0 1-2.827-3.516 6.49 6.69 0 0 1 5.223-.928H3.5z" fill="#85aaa4"/><path d="M27 15a9 7 0 0 0-7-7-12z" fill="#bf6952"/><path d="M33 36c-.905 0-1.718-.368-2.348-1.064-2.278-2.518-1.743-9.038-1.652-9.999.004.5 5.955 1.956 5.955A13.999 13.999 0 0 1 6 16c0 3.928 3.353 8.501 7.007 4.394 3.243a.499.499 0 0 1 .716-.677c.012.01 1.262.902 3.702.902 2.426 0 3.674-.882 3.702-.902a.503.503 0 0 1 .642.038.502.502 0 0 1 .072.641M32.001 21a.998.998 0 0 0-.801.4c-2.64 3.521-6.061 3.599-6.206 3.6-.55.006-.994.456-.991 1.005A.997.997 0 0 0 25 27c.184 0 4.537-.05 7.8-4.4a1 1 0 0 0-.799-1.6" fill="#664500"/></g></svg>
