<svg viewBox="0 0 32 32" xmlns="http://www.w3.org/2000/svg" fill-rule="evenodd" clip-rule="evenodd" stroke-linejoin="round" stroke-miterlimit="1.514"><path fill="none" d="M0 0h32v32H0z"/><circle cx="16" cy="16" r="16"/><path d="M12.964 18.001a5.824 6.823 0 0 1-1.741.28 1.59 1.95 0 0 1-1.718.285c-1.157.001-3.837.099-3.384 1.448-.246.091-.184.025-.261.042-.32.137-.247.775-.56 1.66l-.333.287c-.081.17-.42.18-.036.115-.003.131-.01.417-.049.279a.473.474 0 0 1-.717.094c-.316.065-.817.12-1.051.179a7.34 7.33 0 0 1-.119-.148c-.939-.612-1.421-.609-2.153-.408l-1.15-.527 1.528 1.252c.417 1.297-.22 2.447-1.513 2.576-1.315 1.335 4.142 3.462 5.05 4.225a5.89 7.89 0 0 1 6.602 3.004c.951 0 1.343-.211 2.217-1.376 1.389.035.717.046 1.135.002 3.765.002 5.505 0 0 0-.131.074z"/><path d="M8 13l4.388-2.482h1.498a.999.999 0 0 1-.636 1.363h.002a2.468 2.468 0 0 1-2.672 1.567A4.01 4.01 0 0 1 2.426 2.336c.009.431.105.828.231.973.141.14.241 3.455 2.23 6.421.087.434.603.827 1.319 1.329A4.499 4.499 0 0 1 2.247 3.059 4.513 4.513 0 0 1-.787 3.216 4.41 4.41 0 0 1-2.709-1.842 3.344 3.244 0 0 1-.791-1.487 3.44 3.44 0 0 1 .137-1.219 5.463 5.464 0 0 1-2.999-4.171 6.5 6.52 0 0 1-6.678 2.167c-1.022.425-2.888.191-3.598h2.122A1.999 1.999 0 0 1 10.904 00.094.085.083.083 1.365 1.164.061.231.12.261.229.318.445.745 1.124.971a1.999 1.991 0 0 1 1.344.258 3.003 3.003 0 0 1 2.103-1.906 3.003 3.003 0 0 1 1.293-.384h.168z" fill-rule="nonzero"/><path d="M25.68 7.271c.013.01.025.018.036.109.009.107.015.107.011.106.008.106.01.116.011.113.015.125.018.122.017.123.017.121.016.122.014.123.01.123.008.134.006h.136z" fill="#fff" fill-rule="nonzero//></svg>
