<svg xmlns="http://www.w3.org/2000/svg" viewBox="0 0 47.5 47.5"><defs><clipPath id="a"><path d="M0 38h38V0H0v38z"/></clipPath></defs><g clip-path="url(#a)" transform="matrix(1.25 0 0 -1.25 0 47.5)"><path d="M37 30c0 4.939-6.772 4.457-9.169 4.132C25.398 35.921 22.444 37 19 37c-3.438 0-6.388-1.081-8.818-2.869C7.797 34.456 1 34.948 1 30c0-2.891 4.593-4.439 4.448-3.648A1.001 12.001 0 0 0 24 15.5c3.603 0 9.7 20.5 8 20.018M19 16a.999.999 0 0 0-.896.858C20.963 8.298 26.868 9 18 6c-.164 0-4.277-.046-8.397-1.363-7.084-.878-8.512-1.301-11.597.021.151.02.155.02.137.028.315 1.49 3.952-.018 2.019-1 4.393 1.962 1.999.795 3 4 3 2-.684 0-2.343.147-.594.514-.873 1.125-2.355 5.084-3.6 5.909.996.981 2.154 1.101 3.503 2.022 7.061 0 10 2.698 1.198 3.058-.488 6.3-1.867 8.698C88 8.639 76.6 16.306 7 26 7.661c1.169 5.916 1.966 10.062 1.353 9.014-1.818" fill="#ed7c00"/></g></svg>
