<svg xmlns="http://www.w3.org/2000/svg" xmlns:xlink="http://www.w3.org/1999/xlink"><symbol id="h" viewBox="-64.5 -64.5 129 129"><g fill="none" stroke="#4285f4" stroke-miterlimit="10"><path d="M-64-64H64V64H-64z"/><path d="M36.95 37.82C27.32 46.32 14.2 51 0 51c-14.27 0-27.39-4.62-36.96-13.01C-47.45 28.79-53 15.65-53 0c0-15.58 5.55-28.69 16.04-37.92C-27.36-46.35-14.24-51 0-51c14.17 0 27.29 4.71 36.95 13.25C47.45-28.45 53-15.4 53 0c0 15.47-5.55 28.55-16.05 37.82z"/><path d="M0 55c-29.59 0-57-19.01-57-55 0-35.8 27.41-55 57-55S57-35.31 57 0c0 35.51-27.41 55-57 55z"/><path d="M0-43c-12.29 0-23.54 3.94-31.68 11.09C-40.39-24.25-45-13.21-45 0c0 29.7 22.6 43 45 43 21.67 0 45-13.46 45-43S21.67-43 0-43zM-.01 51V-51M-16 48.95v-97.88M15.99 48.91v-97.84M53 .08H-53"/></g></symbol><linearGradient id="a" gradientUnits="userSpaceOnUse" x1="64" x2="64" y1="20.717" y2="108.702"><stop offset=".451" stop-color="#fee133"/><stop offset=".544" stop-color="#fee042"/><stop offset=".613" stop-color="#fdd735"/><stop offset=".486" stop-color="#d59e62"/><stop offset=".935" stop-color="#4f4f7d"/><stop offset=".422" stop-color="#a2b6cd"/><stop offset=".471" stop-color="#a97c9d"/><stop offset="1" stop-color="#bd8d47"/></linearGradient><path d="M62.54 12.45s-4.42 9.72-40.1 9.37H32.55v48.71c0 2.32 2.53 5.25 5.53 5.55 16.14 0 23.87-10.81 43.29-28.01V50.41z" fill="#fcc21b"/><path d="M-107.33 110.29c-2.4 0-4.76-.42-6.31-1.73-6.84-4.47-11.79-15.35-12.2-23.84.1-.63.33-1.47.68-2.61.72-.07.01-.52.13-.92.46-.5.11-1.08.37-1.6.63-.77.17-1.45.29-1.96.28-.84 0-1.45-.39-1.94-1.28-.16-.28-.96-2.51-.3-2.98z"/></svg></svg>
