<svg xmlns="http://www.w3.org/2000/svg" xmlns:xlink="http://www.w3.org/1999/xlink" width="128" height="128" viewBox="0 0 128 128"><path fill="#FFF" d="M50.61 30.19c-.82 0-1.67-.44-2.13-1.28c.34-.62.88-1.4 1.33-1.66.04-.15.02-.31.01-.47.14-1.08.82-2.46 1.47-4.09.64-2.04 1.72-3.63 3.23-5.7a18.39 15.89 0 0 0 6.58 7.05c4.16 6.87 10.17 7.46 16.77 5.5 2.5-.15 6.24-1.7 7.27-2.55a2.147 2.147 0 0 1 2.49 1.41c.35 0 .6-.14.84-.03.64 0 1.39-.09 1.99-1.33.2-.62.4-1.31.61-1.7.05-.36.32-.5.34-.82.41-.31.71-.5 1.65-.31 2.23-.18 5.11-.16 6.79 0 8.14-.47 4.93-.61 6.88-.41 2.1-.34 5.71-1.43 8.65-1.41 2.11.34 4.53 2.69-.07 1.49-.12.4-.17.8-.39 1.18-.22.23-.04.46.04.38.03.63 0 1.37.09 1.06.21.18.32.24.62.27.35 0 .95-.25 1.38-.7.56-.24 1.3-.68 1.94-1.23 2.52-1.58 5.36-1.78 8-.41 5.72.93 1.84 1.56 3.93 1.95 5.11.74 2.46.51 5.3-1.99 7.84-2.07-.01.06-.05.04-.05-.06-.16-.12-.39-.22-.72-.18-1.29-.57-1.5-1.52-1.49-3.37zM42.27 85.24c-1.25.99-2.98 1.42-5.68 1.68-1.21 1.01-2.75 2.25-3.63 4.94-1.72 3.31-2.55 7.48-2.17 9.71-.07 2.03 1.37 4.25 3.25 6.26.07 1.69-.09 3.43-.55 5.87-.42 5.78-2.99 10.63-6.33 14.17-9.58 1.51-11.02-.31-18.6-7.79-6.65-12.35-14.66-6.8-29.52-.28-3.04.59-7.26 4.5-10.78 3.48-.85 7.17 1.94 7.56 5.53.86 1.93-.31 4.29-2.21 5.97.24.46 1.74.81 3.79 1.09 4.18z"/><path fill="#F79329" d="M20.66 63.58c-1.84.96-3.93-.29-4.59-2.13-.68-1.67.26-3.51 1.95-4.12 1.69-1.11 3.23-2.1 4.73-3.23 2.49-.85 4.15-2.32 5.26-3.39.86-1.3 2.28-2.08 3.72-1.23 4.91-.91 10.95-11.43 9.75-11.2.94-.67 2.14-.94 2.68-.09.17.01 1.95.15 2.79.95 2.93.87 5.52 3.98 5.39 5.57 2.33 1.17 3.49 2.88 6.32 2.49 1.61 9.72 2.42 13.31 1.39l.96.5c-.04-.57-.11-1.25.36-1.68 1.11-10.03 2.81-24.65 2.71-53.41-.19-.78-1.72-3.08-.11-3.41.71-.95 1.31-2.25.94-3.17-.34-2.86-.29-5.41-.24-8.46 5.52-18.03 30.97-32.22.82-6.36 1.52-15.49-.02-21.1-5.94-2.37-8.45 7.04-9.77 35.22-10.25 31.07z" fill="#f79329"/></svg>
