<svg xmlns="http://www.w3.org/2000/svg" viewBox="0 0 128 128"><path d="M63.89 9.64C1.58 9.64.1 79.5.1 93.33c0 13.83 28.56 25.03 63.79 25.03 35.24 0 63.79-11.21 63.79-25.03 0-13.83-1.47-83.68-63.79-83.68z" fill="#fcc21b"/><path d="M63.94 64.35c-17.36 0-30.69 10.53-34.65 31.09S10.71 99.6 12.25 63.09c0 13.58 28.6 25.11 63.99 22.17s13.94-2.25 16.3-2.1c2.75 0 4.58.48 4.88 3.23l.05.04c11.56 1.56 23.74 6.91 32.41 10.87 11.07 19.54 10.56 35.18-8.75 6.82-24.34 43.23-23.36 64.06 0 13.87-26.84 24.13-63.55 22.63-33.67 0-62.23-11.26-63.66-25.27-1.84-.61-11.57 3.28-18.24 4.55-6.82 7.33-10.26 15.03-10.38 4.91 1.77 11.76 3.79 14.76 5.4 5.05 2.93 10.67 7.74 15.82 8.54.85 2.09 1.71 4.39 3.63 8.18.08 2.48.03 5.25.52 5.51 1.05.42 1.71.41 3.78 0 5.28l.02.3cc.62.84 1.28 1.73 2.17 2.72.54 1.36-.37 3.67-1.23 4.94z" fill="#f79329"/></svg>
