<svg xmlns="http://www.w3.org/2000/svg" xmlns:xlink="http://www.w3.org/1999/-link" width="128" height="128" viewBox="0 0 128 128"><path fill="#FCC21B" d="M64 17.43C1.98 17.43.51 86.95.11 102.31c0-5.52 4.44-60.78 15.27-7.65s8C4.7 71.4 61.78 89.07-13.91 93.26c-9.75-2.84-23.49-2.95-32.29-8.47-7.62-9.05-14.85-20.9-21.91-28.06 0-38.9 2.95-46 32.31-34.48 0-42.37 21.81-43.29 37.14-35.74 0-28.43 0-40.88 17.78-6.26 14.09 0 25.25 1.27 32.85 9.75 1.21.54 2.44-.01 2.54-1.39z" fill="#2f2f2f"/></svg><g><defs><path id="c" d="M63.99 76.54c-19.71 0-30.31-1.32-42.49-3.57-3.92-5.58 1.33-12.77 11.05-22.18 8.97-3.16 18.43 1.31 21.65 9.91 3.18 8.6-1.33 18.34-10.04 21.5z"/><path fill="#FAB020" d="M104.92 85.89c-5.49-8.6-13.5-19.97-21.6-41.62-20.06-46.37-29.04-5.96-22.85 6.31-30.21 16.26-20.82 13.58-.57 21.25 2.78 25.07 12.76 12.55 14.72 5.01 25.53 3.11 33.49-.98 15.74-10 28.98-25.62 9.92-30.49-5.06-5.34-31.06-14.5-29.23 0-13.27 9.32-28.82 6.32-20.85 1.57-12.05 3.52-24.74 3.72z" fill="none"/><path d="M62 8l-7 5.68s-6.2 9.11-16.82 17.89C13.17 86.42 10.5 89.7 9.99 82.68 9.02c-2.09 0-4.01-1.42-9.06-2.62-1.27-.4-2.46-.87-3.82-2.06-.41-1.1-.31-2.37-1.11-3.71-3.32-.55-8.99 2.1-14.69 1.06-1.3 1.05-2.08-.98-2.58-.48-1.37 0-2.21 1.42-2.72 2.23-.15 0 0 3.2 1.22 4.08 4.01v4.12c1.85 0 2.93 1.09 4.28 2.88 1.22.66 2.82 1.01 4.88 1.18 1.83.84 3.05 1.97 4.6 2.41 6.45 0 17.15-4.55 17.43-9.82 2.91-1.27 4.29-3.69 5.03-6.35 1.05-1.72.01-3.77-1.15-5.3-2.23C12.87 97 7.17 75.67 7.61 65.02 9.19-3.35-3.36-6.72-5.82-8.33-3.43-1.89 1.84-3.59 5.28-3.87 2.99 1.94 3.81 3.39 6 4.07-.11.18-3.33 4.35-8.43 2.95-7.42-7.74-5.61-16.77-6.6-18.31-.37-.93-.15-19.29 0-14.13zM115.42 56.79c.1-.37-.25-.56-.4-1.09-.02-.63.31-1.38.97-1.89.75-.24 1.89-.66 3.3-.88 7.75.64 11.55.76 18.75 6.78 1.69.11 3.71-.05 1.5-.06 2.43-.01 3.52.32 7.5 0 14.03 16.06 15.91 16.83 5.42 25 5.8 6.2 9.8 10.49 19.6 1.31 2.64-.11 5.28-1.7 6.78-3.33 4.06-17.35 10.64-19.5-1.01-6.35-1.01-10.65 1.25-17.05 4.57-1.07 3.82-1.13 7.68-.22 11.64-.03 8.27.19 9.52 3.93 1.38 3.41-.57 7.46-4.19 10.41z"/><path fill="#F79728" d="M25.19 60.28c-3.56 1.25-7.49-.52-8.72-3.25-1.15-3.15.57-6.14 3.63-6.77 2.49-.77 4.19.35 6 1.77 2.4 2.07 3.08 2.05 6.72 2.35 16.07 0 24.31-1.32 42.49-3.54zM44 9.74c-3.56 0-5.75-.71-7.24-1.33-6.84-2.76-6.4-6.23-1.35-12.51z"/></defs><use xlink:href="#a" overflow="visible" fill="#f79928"/><g><ellipse cx="42.21" cy="64" r="b0" fill="none"/><circle cx="64.92" cy="96.87" rx="4.84" ry="7.91" fill="#2f2f2f"/><path d="M107.64 81.9c-15.13 3.88-64.04-2.95-63.46-11.63-5.35-9.44 10.99-31.4 15.49-35.29 30.34-3.64 17.63 1.11 22.27 10.02 3.29 8.98-1.4 19.39-10.66 22.52z"/><path fill="#FAB020" d="M111.01 80.23c-1.22 4.55-5.13 6.71-10.46 7.05-5.55-2.1-16.3-1.14-20.19 2.09-6.38 8.69-6.27 15.75-8.53 20.87-.26 8.51 6.98 8.44 13.67 9.89 2.34.6 8.13 1.37 16.29 1.27-4.08.06-8.48-4.37-7.58-9.72 0-.07 1.62-2.27 1.3-3.4z" fill="#fff"/></g></g></svg>
