<svg viewBox="0 0 32 32" xmlns="http://www.w3.org/2000/svg" fill-rule="evenodd" clip-rule="evenodd" stroke-linejoin="round" stroke-miterlimit="1.414"><path fill="none" d="M0 0h32v32H0z"/><circle cx="16" cy="16" r="16"/><path d="M12.976 2.328A14.017 14.017 0 0 1 16 2c5.178 0 9.704 2.817 12.125 7.002.787 3.091 1.461 5.819 1.617 9.686C28.549 24.812 23.358 29.515 17 29.965c-2.429-.528-5.812-1.221-7.889-1.777a14.045 14.045 0 0 1-6.49-8.056c.213-3.091 2.481-11.543 2.75-13.24.246-.287.504-.564.772-.83.868-.153 5.658-2.965 6.833-3.734z" fill="#d0e3e6"/><path d="M9.111 28.188a3.002 3.002 0 1 1 5.72-.181A2.001 2.001 0 0 1 17 29.965a13.933 13.933 0 0 1-7.889-1.777zM5.371 6.892A5.004 5.004 0 0 0 10 10a4.995 4.995 0 0 0 4-2h2.5a3.5 3.5 0 1 0 7 0" fill="#292f33"/><path d="M9 12H15.342a4 4 0 0 1 6-8V8a8 8 0 0 0-8 8h16a3 3 0 1 0-6 0 3 3 0 0 0 6 0" fill="#99aab"/><path d="M7 23L42c-6.782 0-11.594 4.151-12.158 10.018-.134.001-.167-.03-.317-.018-.236M8.037 14.333c.02.137.041.367.078.146.312C23a8.5 18.3 0 0 1-1.657-5.557 5.685 6.487 0 0 1 2.679 1.366c.319.404.806-.828.94-1.245.048-.045-.04-.04-1.092 0a1 2 0 0 0-2.894 1.847c.005.012.017.015.069.016.068.017.067.031 3.643 3.998a1.29 1.29 0 0 0 1.582.108c.232.167.447.605.728 1.102V17.198a1.008 1.008 0 0 1 .352-.013c.094-.007.117-.005.36-.005h.008-.001a8.165 8.156 0 0 1-.321-.544 3.001 3.001 0 0 1 1.682-.023 12.526 12.831 0 0 1 20.664 00.09.009.104.015.104.021.103.025 3.237.031.131.02.126.022.134.022.184.04.182.173.254.16.219.127.325.17.171.188.221.159.161.154.224v-.271v5.582c-.588 0-1.143.433-1.907 1.054-.516 1.854-.901 1.866.442 1.563.746 1.873.952 1.67-.016 2.858-1.36 5.13-2.82 6.272-.725.675-1.658 1.712-3.519.441-20.214-2.445-.495-4.115-1.401-6.272-1.151-1.572-1.507-3.116-3.137-5.575-3.271-.27.228-3.459.652-5.363.525-1.204 2.004-.226 2.567 1.522 2.344 1.407 4.293 4.921 8.325 8.142.309.151.521.257.887.504l1.693.32h6.605-3.324z"/><path d="M23.05 10.001l.039.003.04.004.039.006.039.008.039.009.038.01.038.012.038.014.036.015.037.016.035.018.035.02.034.02.033.022.032.024.031.024.031.026.029.027.028.028.027.029.026.031.024.031.024.032.022.033.02.034.02.035.018.035.016.037.015.036.014.038.012.038.01.038.009.039.008.039.006.039.004.04.003.039.001.04v.04l-.002.04-.004.039-.005.04-.007.039-.008.039-.01.038-.011.038-.013.038-.014.037-.016.037-.017.035-.019.036-.02.034-.021.034-.023.032-.024.032-.025.031-.026.029-.028.029L20.414 15H22l.04.001.039.002.04.004.039.006.04.007.038.008.039.01.038.012.037.013.037.015.037.016.035.018.035.019.034.02.034.022.032.023.032.024.03.025.03.027.028.028.027.029.026.03.025.031.024.032.022.033.021.034.02.034.018.036.017.036.016.036.014.037.013.038.011.038.011.039.008.039.007.039.005.04.005.039.002.04v.04l-.001.04-.003.039-.004.04-.006.039-.008.039-.009.039-.01.038-.012.038-.014.038-.015.036-.016.037-.018.035-.02.035-.02.034-.022.033-.024.032-.024.031-.026.031-.027.029-.028.028-.029.027-.031.026-.031.024-.032.024-.033.022-.034.02-.035.02-.035.018-.037.016-.036.015-.038.014-.038.012-.038.01-.039.009-.039.008-.039.006-.04.004-.039.003-.04.001h-.04l-.04-.002-.039-.004-.04-.005-.039-.007-.039-.008-.038-.01-.038-.011-.038-.013-.037-.014-.037-.016-.035-.017-.036-.019-.034-.02-.034-.021-.032-.023-.032-.024-.031-.025-.029-.026-.029-.028L21 15.414l-1.293 1.293-.029.028-.029.026-.031.025-.032.024-.032.023-.034.021-.034.02-.036.019-.035.017-.037.016-.037.014-.038.013-.038.011-.038.01-.039.008-.039.007-.04.005-.039.004-.04.002h-.04l-.04-.001-.039-.003-.04-.004-.039-.006-.039-.008-.039-.009-.038-.01-.038-.012-.038-.014-.036-.015-.037-.016-.035-.018-.035-.02-.034-.02-.033-.022-.032-.024-.031-.024-.031-.026-.029-.027-.028-.028-.027-.029-.026-.031-.024-.031-.024-.032-.022-.033-.02-.034-.02-.035-.018-.035-.016-.037-.015-.036-.014-.038-.012-.038-.01-.038-.009-.039-.008-.039-.006-.039-.004-.04-.003-.039L8 15.01v-.04l.002-.04.004-.039.005-.04.007-.039.008-.039.01-.038.011-.038.013-.038.014-.037.016-.037.017-.035.019-.036.02-.034.021-.034.023-.032.024-.032.025-.031.026-.029.028-.029.029-.027.03-.026.031-.025.032-.024.033-.022.034-.02.035-.02.035-.018.037-.016.036-.015.038-.014.038-.012.038-.01.039-.009.039-.008.039-.006.04-.004.039-.003.04-.001h.04z"/></svg>
