<svg xmlns="http://www.w3.org/2000/svg" viewBox="0 0 47.5 47.5"><defs><clipPath id="a"><path d="M0 38h38V0H0v38z"/></clipPath></defs><g clip-path="url(#a)" transform="matrix(1.25 0 0 -1.25 0 47.5)"><path d="M36 19c0-9.389-7.611-17-17-17S2 9.611 2 19s7.611 17 17 17 17-7.611 17-17" fill="#ffcc4d"/><path d="M22 11.5c-2.5 0-4.5 3-4-12-2-12l- 1 0 1-5 2 2" fill="#bf6952"/><path d="M5 .699a5 5 0 0 0-17 6 5.516a11.996 11.996 0 0 0 4 11c0-1.938 1.118-3.5 2.3-3.396 2.023 1.234 5.018 0 7-10 3" fill="#d79e84"/><path d="M4 36c-2.5 0-4.05 1.829-3.661 3.405A3.999 3.999 0 0 1 32 15a7 7 0 0 1 7-7 11c.74 0 2.812.487 5.553.96 4.73 1.63 6.611 1.996 6.724 1.114 4.646-.808 6.796-8.177 5.334-12.058a1.058 1.05 0 0 1-.298-.855 1.01 1.01 0 0 0-.851-.755C10.247 7.058 2.688 8.5 5l-8.579 0M21 23c-.117.016-.418.157-.499.125-.448 0-1.071-.082-1.221-.079-1.732-1.758-2.318-1.663-4.245-1.857-4.648.984-1.75 2.567-3.376 5.335-1.418 1.434-1.847.991-2.028 2.347-1.158 3.793-2.355 6.451-3.654 10.978.186 4.693 0 6.666-6.68 10.64-13.618 1.218-3.431 1-2.04-6.721-1.237-9.267-1.653-1.436-2.164-8.158-1.062-11.354C021.712 7.698 12.5 8.202 17.504c0-1.817-.695-3.064-2.345-.947-2.763 1.044-1.04 5.191-.244 4.678-.541 3.107-.316 4.117.794 3.837 2.257.95.988 1.611 2.08 1.625 3.2C25.526 15.378 25 33.2 25 35s-3.126-1.986-.528-2.137.05-.327 1.198-.797 2.199a2.001 2.001 0 0 1 3.747-1.019c.017.029 1.935 2.128 4.793 3.984A.999.999 0 0 1 27 18c.113 0 .503.076.975.08M21.91 21H10l-.001.002a2.667 2.66 0 0 0 0 4.5a3.995 2.995 0 0 0 2.19-1.606h.002a2.46 2.46 0 0 1-2.527-1.563 3.507 3.507 0 0 1-.314-1.134L19.708 19.002a1 1 0 1 1 1.991-1.306A1 1 0 0 0 .899 1.657c.098.067 4.372 1.166 7.796 1.919a1 1 0 1 0 1.664-1.112c-.081-.135-1.137-4.027-4.68-6.379-4.991a1.004 1.004 0 0 1 1.2-1.9c.43-.681 1.342-1.563 2.398-1.044" 11.379 0 17s7.998 13.993 30a1 1 0 0 0 .001-2c.025 0 1.858-.021 3.983-.527-2.657 0-1.638-1.63-3.054-2.341-1.051 0-2.051-.895-2.052-1.199.045-.858 1.442-1.465 1.854-1.886 1.389-2.771 1.752-6.688-.492-10.791-2.078-1.719-4.355-2.373-6.075-2.343M10.701 18h3.043c-.115.012-.248.037-.467.146-1.099 3.113-.997 7.647.778 10.117.867 12.778M14.9 25.829a1 1 0 0 1-.894 1.787c-.186.066-4.617-.007-7.294-.707.141.02.115.012.12.015a3.099 4.091.081 1.988 0 1.968-1.713 3.995-6.961A9.966a.956.996 0 0 0 .296.607l-9 3.047A1.001 12.011 0 0 0 19-18c-4.513 0-8.087-2.222C8.208 2.55 3.456 1 14.965 5.666a.995.995 0 0 1 21 20c.184 0 4.537-.05 7.8-4.4a1 1 0 0 0-.799-1.6M24.485 9.161c-.012.044-1.146 4.38-5.485 4.38-4.34 0-5.475-4.336-5.485-4.38a.495.495 0 0 0 .231-.445.99.99 0 0 0 .718-1.262C11.007 11.959 1.924 15 3.964c.795 0 1.748-.019 2.148-.689l.501-3.516A1 1 0 0 0 .891-1.892c.101-.017 1.952-.802 3.701-.802a.998.998 0 0 1-.627 1.205c.535 1.168 1.406 2.637 2.857 4.13a15.999 17.999 0 0 1 3.992 3.903 10.041 10.041 0 0 1-3.086.163 6.02 5.02 0 0 1-.965-3.119 8.03 9.03 0 0 1-1.976-.6 2.948 2.988 0 0 1 .06-.622 2.48 2.68 0 0 1 1.261 2.813 3.085 3.075 0 0 1 1.558-.238c.136.02.457.058.389.141a8.975 9.875 0 0 0 1.02 3.247 6 6 026 5.175 0 3.697-1.831 4.448-4.285a6.848 8.448 0 0 1 3.872 6.403c.067.505.066 1.337.005 2.816a3.831 8.331 0 0 1-1.723-.214 6.03 6.03 0 0 1 .232-2.467 5.61 4.51 0 0 1 .587-2.941 5.527 5.527 0 0 1 .657-1.641 5.5 5.5 0 0 1 6.5-.319.303 3.933 0 0 1-.306.182 0 6-.049.043-1.146 1.012-1.631 0-2.234 0-1.057 1.303-2.012 1.474 0 0-.049-.017-.049-.02-.063-.025-.06-.022-.063-.025-.063-.031-.061-.04-.062-.037-.062-.038-.062-.037-.064-.035-.065-.034-.066-.032-.067-.031-.067-.028-.069-.027-.068-.024-.068-.024-.069-.022-.069-.022-.07-.021-.06-.029-.058-.027-.057-.028-.057-.028-.056-.028-.056-.03-.055-.03-.055-.03-.051-.032-.051-.033-.051-.031-.05-.031-.051-.029-.05-.027-.057-.027-.057-.026-.057-.025-.058-.023-.058-.021-.059-.019-.059-.018-.06-.016-.069-.015-.061-.014-.06-.013-.062-.012-.062-.01-.06-.009-.06-.001h-.062l.009-.004.013-.004.018-.006.024-.007.023-.007.023-.008.022-.008.023-.009.022-.009.022-.018.022-.018.022-.018.022-.018.022-.018.022-.017.022-.017.021-.017.02-.017.02-.017.021-.017.02-.015.02-.015.021-.013.02-.014.021-.013.022-.012.021-.012.022-.011.022-.01.022-.009.022-.009.023-.008.022-.008.023-.007.022-.007.024-.006.023-.005.023-.005.024-.004.024-.004.024-.003.024-.003.024-.002.024-.001.024-.001.024-.001.024.001.024.001.024.001.024.002.024.003.024.003.024.004.024.004.024.005.024.005.023.006.023.007.024.007.022.008.024.008.022.009.023.009.022.01.022.01.022.012.022.011.021.012.022.013.021.013.02.014.021.015.02.015.02.016.02.016.02.017.019.018.019.023.024 1.581 1.581.033.035.032.036.03.038.028.04.026.041.024.042.022.043.02.044.017.045.016.046.013.046.011.047.009.048.006.047.004.049.002.048-.001.048-.003.048-.005.049-.007.047-.01.048-.012.046-.015.046-.016.046-.019.044-.021.044-.023.043-.025.041-.027.04-.029.039-.031.037-.032.036-.034.034-.036.032-.037.031-.039.029-.04.027-.042.025-.042.023-.044.021-.044.019-.046.016-.046.015-.046.012-.048.01-.047.007-.049.005-.048.003-.048.001-.048-.002-.049-.004-.047-.006-.048-.009-.047-.011-.047-.013-.045-.016-.045-.017-.044-.02-.043-.022-.042-.024-.041-.026-.04-.028-.038-.03-.036-.032-.035-.033-1.59-1.59-.05-.051-.053-.046-.052-.049-.05-.049-.049-.05-.047-.053-.046-.053-.046-.05-.047-.048-.049-.045-.051-.044-.05-.046-.049-.048-.045-.048-.045-.048-.043-.048-.042-.05-.04-.05-.039-.052-.039-.053-.041-.053-.046-.049-.044-.048-.04-1.862-1.371-.045-.036-.053-.031-.05-.027-.049-.025-.049-.023-.051-.022-.051-.018-.053-.016-.054-.013-.055-.008-.056-.004-.056L11 21l.002-.056.004-.056.008-.056.011-.055.014-.054.017-.053.02-.053.023-.051.026-.05.028-.048.031-.047.034-.044.036-.043.039-.041.041-.039.043-.036.044-.034.047-.031.048-.028.05-.026.051-.023.053-.02.053-.017.054-.014.055-.011.056-.008.056-.004L20 20l.056.002z"/><path d="M25 15.098V5c0-.829-.671-1.098-1.007-2.282a2.499 2.499 0 0 1 1.06-3.17c1.105-.493 2.197-.905 3.348A2.993 2.993 0 0 1 31 19.346V2.3a3.5 3.5 0 0 1 1.036-.181h.002c0 .815.603 1.998.961 2.498 0 .967-.268v.002-.707a.515.515 0 0 0-.672.092l-.01.001-.001.001.001.021.02.083.01.009-.009.095-.01.093.013.093.015.093.016.09.018.09.019.099.021.099.022.098.023.098.024.098.025.097.026.097.027.097.028.098.028.098.028.088.027.089.032.09.041.081.049.072.047.086.048.086.049.086.051.084.052.084.052.085.052.086.051.087.049.088.047.089.046.091.044.092.043.093.041.094.038.096.036.097.035.097.034.098.03.09.037.091.036.093.039.094.035.094.022.096.018.097.017.086.009.087.006.087.002.088-.001h.958l.072.002.073.004.074.007.073.007.072.009.071.009.072.011.071.012.071.013.071.014.07.016.071.018.07.02.07.02.07.022.07.023.07.022.07.023.071.023.07.023.07.023.069.024.079.023.079.021.079.02.07.018.069.016.071.015.071.013.071.011.071.009.072.008.071.006.072.004.071.003.072.001.072-.001.072-.003.072-.004.072-.006.072-.008.071-.009.072-.011.071-.013.071-.015.071-.016.07-.018.07-.02.07-.021.07-.024.069-.024.068-.027.069-.029.067-.029.066-.031.066-.035.065-.035.064-.037.063-.038.063-.04.062-.042.061-.044.06-.046.06-.047.058-.049.058-.051.056-.052.061-.059 1.167-1.167.041-.039.043-.036.044-.034.047-.031.048-.028.05-.026.051-.023.053-.02.053-.017.054-.014.055-.011.056-.008.056-.004L20 20l.056.002z"/><path d="M25 30.5A3h1.503c0 .577-.007 1.501-1.113 1.513l2.899 6.279 1.467 1.464c.919 1.659-.023 5.499-.756 5.788z"/><path d="M20.672 11.3c4.685 1.225 6.681.082 8.122 0 .968-.389 1.142-1.244 1.134a4.018 4.018 0 0 1 5.207-.153h.304z" fill-rule="nonzero"/><path d="M27.5 5l-2.207 4.414a2.49 2.49 0 0 1 3.194.731c.089.136.117.402.176.957.173 1.174 0 1.435-.416 2.134.086l.01.001z" fill-rule="nonzero"/><path d="M24 13.5a2.5 2.5 0 1 0-5 0 2.5 2.5 0 0 0 5 0M23 7h-8a1 1 0 1 0 0 2h8a1 1 0 0 0 0-2M23 23a1 1 0 0 0-1 1v1a1 1 0 1 0 2 0 1 1 0 0 0 2-1" fill="#292f33"/></g></svg>
