<svg viewBox="0 0 32 32" xmlns="http://www.w3.org/2000/svg" fill-rule="evenodd" clip-rule="evenodd" stroke-linejoin="round" stroke-miterlimit="1.414"><path fill="none" d="M0 0h32v32H0z"/><path d="M16.174 3.001a13.98 13.98 0 0 1 4.546.819 14.045 14.045 0 0 1 5.422 3.529 13.99 13.99 0 0 1 3.857 9.477c.009 1.434.009 2.869 0 4.303a9.967 9.967 0 0 1-3.099 7.109 9.983 9.983 0 0 1-.605 3.31 10.017 10.017 0 0 1-3.207.165c-.047.027-.407.057-.158.056-.373.175-.872.277-1.342a4.98 4.88 0 0 1 .411.707 4.021 4.021 0 0 1 2.857 1.16A12.037 12.037 0 0 1-.662 3.307 12.059 12.059 0 0 1 4.315-2.549 16.024 16.024 0 0 1 18.394-3.008c1.798-.041 3.17.228 4.091.211A3.996 3.996 0 0 1 31 22.502V14H7l.002.002.003.024.082.024.071.023.07.025.069.025.068.027.068.028.068.027.067.027.067.03.065.031.064.033.064.033.064.035.062.035.062.035.062.035.062.035.064.035.063.033.065.033.065.032.065.031.066.031.066.029.067.029.068.028.067.027.068.027.069.027.069.025.079.024.08.022.071.021.072.019.071.018.072.017.073.017.073.016.072.016.073.016.073.017.073.019.073.02.074.021.074.022.072.022.074.022.073.022.074.021.073.02.074.019.074.018.075.017.074.017.075.015.075.014.076.014.075.013.076.012.076.01.076.01.076.009.077.008.076.008.077.006.077.005.077.004.077.004.078.002.077.002h.356l.077-.005.078-.006.077-.005.077-.003.071-.008.072-.009.073-.011.071-.013.072-.014.072-.014.072-.012.073-.01.073-.009.072-.008.072-.006.072-.006.072-.005.072-.003.071-.003.072-.001.072-.001.072-.001.072-.003.072-.004.072-.006.072-.008.071-.009.072-.011.071-.013.071-.015.071-.016.07-.018.07-.02.07-.021.07-.024.069-.024.068-.027.069-.029.067-.03.067-.031.067-.034.065-.035.065-.037.065-.039.064-.041.063-.043.062-.043.061-.046.06-.049.06-.049.06-.047.06-.046.061-.044.063-.042.062-.04.064-.039.065-.037.065-.035.065-.034.067-.031.067-.031.067-.028.068-.027.068-.024.069-.024.07-.021.069-.02.071-.018.07-.016.071-.015.071-.013.071-.011.072-.009.071-.008.072-.006.073-.004.072-.003.072-.003.072-.002.072-.001.072-.002.072-.003.071-.004.072-.005.072-.008.071-.019.071-.021.069-.025.068-.025.068-.027.067-.029.066-.033.066-.035.065-.037.065-.037.064-.038.063-.038.063-.04.062-.042.061-.044.06-.046.06-.047.058-.049.058-.051.056-.052.061-.059 1.167-1.167.041-.039.043-.036.044-.034.047-.031.048-.028.05-.026.051-.023.053-.02.053-.017.054-.014.055-.011.056-.008.056-.004L20 20l.056.002z"/><path d="M25 3.01l-3.551 1.521a.147.14.494 0 0 1 2.919 1.059c.064.335.149.953.171.84a1.03 1.03 0 0 1 .035 1.215l.005.027c.067.024 0 .038-.005.084-.008.082-.01.083-.013.083-.013.083-.016.082-.016.074-.015.073.018.074.019.074.02.074.021.074.022.073.022.025.022.027.021.027.021.028.019.028.019.029.017.03.016.03.016.031.014.031.013.032.012.033.011.032.009.034.009.033.007.034.007.034.005.034.003.034.003.035.002.034v.035l-.001.034-.002.035-.003.034-.005.034-.005.034-.007.034-.008.034-.009.033-.011.033-.011.033-.012.032-.014.031-.015.032-.016.03-.016.03-.018.03-.019.029-.02.028-.021.028-.022.027-.022.026-.024.025-.024.024-.025.024-.026.022-.027.022-.028.021-.028.02-.029.019-.03.018-.03.016-.03.016-.032.015-.031.014-.032.012-.033.011-.033.011-.033.009-.034.008-.034.007-.034.005-.034.005-.034.003-.035.002-.034.001h-.035l-.034-.002-.035-.003-.034-.003-.034-.005-.034-.007-.034-.007-.033-.009-.034-.009-.032-.011-.033-.012-.032-.013-.031-.014-.031-.016-.03-.016-.03-.017-.03-.019-.028-.019-.028-.02-.027-.022-.027-.022-.025-.023-.025-.024-3-3-.024-.025-.023-.025-.022-.027-.022-.027-.02-.028-.019-.028-.019-.03-.017-.03-.016-.03-.016-.031-.014-.031-.013-.032-.012-.033-.011-.032-.009-.034-.009-.033-.007-.034-.007-.034-.005-.034-.003-.034-.003-.035-.002-.034v-.035l.001-.034.002-.035.003-.034.005-.034.005-.034.007-.034.008-.034.009-.033.011-.033.011-.033.012-.032.014-.031.015-.032.016-.03.016-.03.018-.03.019-.029.02-.028.021-.028.022-.027.022-.026.024-.025.024-.024.025-.024.026-.022.027-.022.028-.021.028-.02.029-.019.03-.018.03-.016.03-.016.032-.015.031-.014.032-.012.033-.011.033-.011.033-.009.034-.008.034-.007.034-.005.034-.005.034-.003.035-.002.034-.001h.035zM12.043 11.001l.035.002.034.003.034.005.034.005.034.007.034.008.033.009.033.011.033.011.032.012.031.014.032.015.03.016.03.016.03.018.029.019.028.02.028.021.027.022.026.022.025.024.024.024.024.025.022.026.022.027.021.028.02.028.019.027.019.03.018.03.016.03.016.031.015.032.014.031.013.032.012.033.011.032.009.034.009.033.007.034.007.034.005.034.003.034.003.035.002.034v.035l-.001.034-.002.035-.003.034-.005.034-.005.034-.007.034-.008.034-.009.033-.011.033-.011.033-.012.032-.014.031-.015.032-.016.03-.016.03-.018.03-.019.029-.02.028-.022.027-.022.027-.023.025-.024.025-3 5-.025.024-.025.023-.027.022-.027.022-.028.02-.028.019-.03.019-.03.017-.03.016-.031.016-.031.014-.032.014-.033.012-.032.011-.033.01-.034.009-.033.008-.034.006-.034.006-.035.005-.034.003-.035.001-.034v-.032l-.012-.023-.013-.022-.013-.021-.014-.02-.015-.02-.016-.02-.016-.02-.017-.019-.018-.019-.023-.024-1.581-1.581-.033-.035-.032-.036-.03-.038-.028-.04-.026-.041-.024-.042-.022-.043-.02-.044-.017-.045-.016-.045-.013-.047-.011-.047-.009-.048-.006-.047-.004-.049L16 5.012l.001-.048.003-.048.005-.049.007-.047.01-.048.012-.046.015-.046.016-.046.019-.044.021-.044.023-.043.025-.041.027-.04.029-.039.031-.037.032-.036.034-.034.036-.032.037-.031.039-.029.04-.027.041-.025.043-.023.044-.021.044-.019.045-.016.047-.015.046-.012.048-.01.047-.007.049-.005.048-.003.048-.001.048.002zM29.036 4.001l.048.003.049.005.047.007.048.01.046.012.046.015.046.016.044.019.044.021.043.023.041.025.04.027.039.029.037.031.036.032.034.034.032.036.031.037.029.039.027.04.025.041.023.043.021.044.019.044.016.046.015.046.012.046.01.048.007.047.005.049.003.048.001.048-.002.048-.004.049-.006.047-.009.048-.011.047-.013.047-.016.045-.017.045-.02.044-.022.043-.024.042-.026.041-.028.04-.03.038-.032.036-.033.035-1.581 1.581-.023.024-.018.019-.017.019-.016.02-.016.02-.015.02-.015.02-.014.021-.013.02-.013.021-.012.022-.011.021-.012.022-.01.022-.01.022-.009.022-.009.023-.008.022-.008.023-.007.023-.007.024-.006.023-.005.024-.005.023-.005.024-.004.024-.004.024-.003.024-.003.024-.002.024-.001.024-.001.024.001.024.001.024.001.024.001.024.002.024.003.024.003.024.004.024.005.023.005.023.006.023.007.023.007.023.008.024.008.022.009.023.009.022.01.022.01.022.012.022.011.021.012.022.013.021.013.02.014.021.015.02.015.02.016.02.016.02.017.019.018.019.023.024 1.581 1.781.033.035.032.036.03.038.028.04.026.041.024.042.022.043.02.044.017.045.016.046.013.046.011.047.009.048.006.047.004.049.002.048-.001.048-.003.048-.005.049-.007.048-.01.048-.012.046-.015.046-.017.045-.019.045-.019.045-.018.046-.017.046-.017.046-.017.046-.019.046-.019.045-.019.045-.018.046-.017.046-.016.046-.015.047-.014.048-.013.048-.012.048-.01.048-.01.049-.008.049-.006.049-.004.048-.003.049-.005.049-.006.047-.008.049-.011.048-.011.048-.013.048-.014.048-.016.047-.017.047-.019.045-.019.046-.017.046-.016.046-.014.047-.013.048-.01.048-.009.049-.005.047-.005.048-.009.047-.01.047-.013.046-.015.046-.017.045-.019.044-.021.044-.022.043-.025.042-.026.04-.028.039-.031.038-.032.037-.033.036-.034.036-.033.036-.032.037-.031.037-.03.038-.03.038-.028.039-.027.039-.027.04-.025.041-.025.043-.022.043-.02.045-.017.045-.016.047-.013.047-.011.048-.009.047-.006.049-.004.048-.002.048.001.048.003.049.005.047.007.048.01.046.012.047.015.045.016.044.019.044.021.043.023.041.025.04.027.039.029.037.031.036.032.034.034.032.036.031.037.029.039.027.04.025.041.023.043.021.044.019.044.016.046.015.046.012.046.01.048.007.047.005.049.003.048.001.048-.002.048-.004.049-.006.047-.009.048-.011.047-.013.047-.016.045-.017.045-.02.044-.022.043-.024.042-.026.041-.028.04-.03.038-.032.036-.033.035-1.581 1.581-.023.024-.018.019-.017.019-.016.02-.016.02-.015.02-.015.02-.013.021-.014.02-.013.021-.012.022-.011.021-.012.022-.01.022-.01.022-.009.022-.009.023-.008.022-.008.023-.007.024-.007.023-.006.023-.005.024-.005.023-.004.024-.004.024-.003.024-.003.024-.002.024-.001.024-.001.024-.001.024.001.024.001.024.001.024.002.024.003.024.003.024.004.024.005.024.005.023.006.023.007.024.007.023.008.023.008.022.009.023.009.022.01.022.01.022.012.022.011.021.012.022.013.021.013.02.014.021.015.02.015.02.016.02.016.02.017.019.018.019.023.024 1.581 1.581.033.035.032.036.03.038.028.04.026.041.024.042.022.043.02.044.017.045.016.046.013.046.011.047.009.048.006.047.004.049.002.048-.001.048-.003.048-.005.049-.007.047-.01.048-.012.046-.015.046-.016.046-.019.044-.021.044-.023.043-.025.041-.027.04-.029.039-.031.037-.032.036-.034.034-.036.032-.037.031-.039.029-.04.027-.042.025-.042.023-.044.021-.044.019-.046.016-.046.015-.046.012-.048.01-.047.007-.049.005-.048.003-.048.001-.048-.002-.049-.004-.047-.006-.048-.009-.047-.011-.047-.013-.045-.016-.045-.017-.044-.02-.043-.022-.042-.024-.041-.026-.04-.028-.038-.03-.036-.032-.035-.033-1.59-1.59-.05-.051-.053-.046-.054-.048-.049-.043-.05-.046-.053-.048-.045-.053-.041-.054-.036-.057-.032-.06-.026-.069-.022-.069-.02-.071-.02-.07-.018-.07-.016-.07-.015-.071-.013-.071-.011-.072-.009-.071-.008-.071-.006-.072-.004-.071-.003-.072L25.828 8l.001-.072.003-.072.004-.071.006-.072.008-.071.009-.072.011-.071.013-.071.015-.071.016-.06.018-.069.02-.079.023-.079.024-.07.026-.069.028-.068.029-.067.031-.066.033-.065.034-.065.035-.062.037-.063.038-.062.039-.062.041-.062.041-.063.04-.064.039-.066.037-.067.035-.067.037-.067.037-.066.037-.066.038-.065.039-.065.04-.064.041-.062.042-.062.043-.062.045-.061.047-.061.047-.061.047-.06.047-.061.047-.061.048-.062.047-.062.048-.062.049-.061.047-.06.047-.069.046-.068.046-.067.045-.067.045-.067.049-.067.049-.065.09-.064.088-.044.088-.043.089-.041.08-.041.08-.04.08-.039.08-.039.081-.04.08-.042.081-.044.082-.04.082-.04.081-.043.08-.045.08-.047.079-.047.078-.049.082-.043.083-.045.082-.047.082-.049.085-.051.084-.052.083-.054.083-.055.081-.058.081-.059.082-.059.083-.059.083-.056.084-.056.083-.053.084-.052.085-.053.085-.053.086-.053.086-.051.087-.05.088-.049.08-.049.08-.047.089-.045.08-.045.082-.035.083-.03.084-.027.085-.024.086-.019.087-.012.086-.009.089-.014.099-.025.091-.017.09-.019.079-.018.079-.017.079-.017.07-.017.071-.019.071-.021.07-.021.07-.023.069-.024.078-.027.078-.027.07-.027.07.025.069.033.069.033.069.032.078.034.077.034.077.037.077.038.078.037.08.037.07.036.072.033.073.032.072.033.072.036.072.026.072.024.072.023.072.022.073.02.074.019.035.018.036.016.036.015.037.014.037.012.038.01.038.009.039.008.039.006.039.004.04.003.039.001.04v.04l-.002.04-.004.039-.005.04-.007.039-.008.039-.01.038-.011.038-.013.038-.014.037-.016.037-.017.035-.019.036-.02.034-.021.034-.023.032-.024.032-.025.031-.026.029-.028.029L20.414 15H22l.04.001zM12 12.5a1.503 1.503 0 0 0-1.5-1.5A1.503 1.503 0 0 0 9 14.5v2a1.503 1.503 0 0 0 1.5 1.5 1.503 1.503 0 0 0 1.5-1.5v-2z"/></svg>
