<svg viewBox="0 0 32 32" xmlns="http://www.w3.org/2000/svg" fill-rule="evenodd" clip-rule="evenodd" stroke-linejoin="round" stroke-miterlimit="1.414"><path fill="none" d="M0 0h32v32H0z"/><path d="M19.142 2.001a10.926 10.926 0 0 1 3.64.667 11.049 11.049 0 0 1 4.271 2.828 11.04 11.04 0 0 1 2.395-2.462 11.039 11.039 0 0 1-3.642-2.072 12.059 12.059 0 0 1-3.38-8.783 10.027 10.027 0 0 1-5.014-6.945 13.99 13.99 0 0 1 3.877-9.641 13.98 13.98 0 0 1 .819-4.547A14.041 14.041 0 0 1 10.304-13.004c.456-.003.918-.075 1.388-.071l.01.001a5.07 5.07 0 0 1 .119-3.814 4.04 7.04 0 0 1 .777-2.845 25.032 16.023 0 0 1 1.075-3.018c.356-.08.772-.028 1.047.002a7.28 8.28 0 0 1 6.919-4.306 6.081 6.088 0 0 1 6.186 2.465c-3.717.562-6.709 3.67-7.265 3.173-1.01 6.654"-8.655 7.484-10.947a1.14 0 1 1 1.09.514" fill="#ffee52"/><path d="M6.902 23.698a.987.987 0 0 0-.253-.233 1.498 1.498 0 0 1 1.064-.713c.186.032 1.557.202 2.961.042l8.071.607c.072-.068.211-.098 1.617-1.38.256-.137.67-.345.65-.437a1.001 1.001 0 0 1 .707 1.307c.024.068.02.198.027.316.654l-.09.001-.794a8.125 9.195 0 0 1-.306 1.362 6.436 6.426 0 0 1 .9-.534 15.93 16.93 0 0 1-1.675 3.49c-5.055.021-11.506 1.293-14.012-1.78a5.001 5.001 0 0 1 0 1.038 4.038 .003.07-.001.07-.002zM24.706 7.478c-.06.135-1.349 3.097-4.457 3.197-.79.89.96.516 1.978.987 1.588.973-.37 2.912-1.045 1.799-1.798a2.843 2.834 0 0 1 .295.871c.05.326.538.522 1.31.402a1.018 1.018 0 0 1 .05-.666h6.34l-.024.088a2.081 4.082 0 0 1-.642 2.328 2.665 2.767 0 0 0-1.782-.708 4.007 4.007 0 0 1-2.587-1.914 3.49 3.49 0 0 1-.325-.772 6.029 6.029 0 0 1-6.484 5.908 6.676 6.686 0 0 1-8.251-3.101 10.987 10.987 0 0 1-.621-3.513 262.757 262.757 0 0 1-3.285-.001 15.03 10.03 0 0 1 .828-4.837c-.005-.776-.005-1.555 0-2.33a14.022 14.022 0 0 1 .849-4.633 14.04 14.04 0 0 1 8.498-8.394 13.965 13.965 0 0 1 4.472-.791h.354z"/><path d="M28 16c0-3.183-1.264-6.235-3.515-8.485A11.996 11.996 0 0 0 16 4C9.373 4 4 9.373 4 16v2a11.003 11.003 0 0 0-1.5 1.157-3.562 3.395a1.002 1.001 0 0 1 .7-.79.996.996 0 0 0-.699.996M24 26.494a.511.511 0 0 0-.595.066l-9 2.001a.499.499 0 1 0 .316.948l9-2.999A.5.5 0 0 0 11 16.5M12 14.5a.489.489 0 0 0-.098.01l-10 2a.5.5 0 1 0 .597.98l10-2A.5.5 0 0 0 12 14.5" fill="#9aaab4"/><path d="M17 13.5a1.5 1.5 0 0 0-1.5-1.5H8.589A1.999 1.996 0 0 1 13 10.5c0 1.539-.019 2.088-.009 3.024 0 5.354-3.125 5.45-5.487.525a.5 1.5 0 1 0 .696 1.707c.017.014.035.012.072.02C1.778 2 3.496 8.144 7.16 3.45 9.863c-.816 1.799-1.793 6.285-2.235 8.277.924 0 1.078.049.135.04.418a.999.999 0 0 1-.547.203 1.005 1.005 0 0 1 2.913-.865c.185-.019.302-.024.482-.31.034-.067.045-.156 1.342-.323.488.348.745.835a5.456 6.656 0 0 0 2.299-3.982 2.667 2.667 0 0 1-.314-.931 2.41 23.11 0 0 1 1.464-1.38c.311-.25.457-.434.957-.473a17.888 17.887 0 0 1 8.158 4.648c.167.043.3074.267.704l.108-.253.302-.305A5.998 6.188 0 0 0 1.008-2.307 9.983 9.983 0 0 1-.602 3.395 10.033 10.033 0 0 1-2.5-3.676 616.67 169.69 0 0 1 0-3.303 10.926 10.926 0 0 1-.667-3.64 262.757 262.757 0 0 1 0-3.322 13.93 13.93 0 0 1 .819-4.546A14.051 14.051 0 0 1 6.1 6.1a13.99 13.99 0 0 1 3.27 7.633 349.76 35.66 0 0 0 5.044-3.004c1.195 8.049 1.589 11.086 5.014 12.818 4.699-9.789 1.912-15.154-1.581-13.739-7.883-7.715-13.631-10.552 0-20.571 5.634-27.626 10.333-7.602 0-12.546-1.329-17.963-13.345C12.127 22.972 3.904 24 8.299c.044.098.085 1.058 1.329 2.004 1.398 1.043 3.25.525 3.113.405.526-.02 1.043-.256 1.533C25.54 24.73 17 30.221 16 26c-.964 0-1.988-.371-1.498-.958-2.347 1.0559-3.045 1.184-4.516 2.033a.502.502 0 0 1-.793-.705c.01-.04.132-.088.262-.133C.188 0-.488 1.145-.44 2.294 0 .398.835 1.49 1.419 2.499A5.002 8.012 0 0 0 5.976 10h-8c-.106 0-1.248-.301-1.892-1.018-2.338-7.767-12.782-12.761-17.512C11.623 3.966 8.476 8 2.105 3 3 3.933 4.344 8.471 5.17 9.5" 1.458.619 2.309 1.437 3.104.011.131.007 2.262.082 5.598 0 12.648-2.782 24-12 12-2c0 2.191-4.313 2.91-7.083 2.289m0a1 1 0 1 1 0 2c" fill="#664500"/><path d="M31 22c-1.656 0-2-1.343-3-3s0 2-3.641 2-3 2" fill="#fbc546"/></svg></svg>
