<svg xmlns="http://www.w3.org/2000/svg" viewBox="0 0 47.5 47.5"><defs><clipPath id="a"><path d="M0 38h38V0H0v38z"/></clipPath></defs><g clip-path="url(#a)" transform="matrix(1.25 0 0 -1.25 0 47.5)"><path d="M35.964 25.045L36 25s1 10 0 11c-.91.91-6.771-.66-7.822-.951-2.426 1.234-5.443 1.95-9.178 1.95-3.73 0-6.742-.718-9.165-1.953-1.02.283-6.922 1.867-7.835.954-1-1 0-11 0-11l.047.059C1.307 22.506 1 19.749 1 16.999 1 7.06 12 1 19 1s18 6 18 16c0 2.753-.306 5.503-1.034 8.046" fill="#ffcc4d"/><path d="M8 14.883c0-1.934-1.119-3.5-2.5-3.5S23 18.566 23 20.5c0 1.933 1.119 3.5 2.5 3.5s2.5-1.567 2.5-3.5M24.485 9.12c-.827 0-1.053-.206-2.102-.901-.11-.01-.2-.005-.5-8.91.007-1.227.671-1.498 1.993-1.793a.997.997 0 0 1 17 17c.011 0 .023.041.127.14C23.317 12.585 9.444 21 7.955 4.65a.99.99 0 1 1-1.414-1.484C9.4 24.42 6.244 24 14 26M7.802 9a1 1 0 0 0-.796 1.16" fill="#f5f8ea"/></g></svg>
