<svg xmlns="http://www.w3.org/2000/svg" viewBox="0 0 47.5 47.5"><defs><clipPath id="a"><path d="M0 38h38V0H0v38z"/></clipPath></defs><g clip-path="url(#a)" transform="matrix(1.25 0 0 -1.25 0 47.5)"><path d="M36 19c0-9.389-7.611-17-17-17C9.612 2 2 9.611 2 19c0 9.388 7.612 17 17 17 9.389 0 17-7.612 17-17" fill="#ffcc4d"/><path d="M14 25.5c0-2.314-2.164-6-4.015-3.285a1.04 1.04 0 0 0 1.3-1.66l-5 5a5 2 0 1 0-2.928 1.124C13.141 32.962 8.125 8 1.465 3 3.398 2h1a.779.777 0 0 0-.179-.16.505.507 0 0 0-.074-.948l-.056-.129a.998.998 0 0 0-.818-.29.5.516.505 0 0 0-1.5-.1M8 1.007-1.278 0-2.498 6.2-4.5 9-.29.013.013.03.035.01.332-.013.04-.018.03-.018.04.009.0019.618 9.651 1.153 17.499 0 11s6.495 16 10s5-15.989 13-9.665-16-4" fill="#d79e84"/><path d="M4 36c-1.757 0-3.342-.306-4.702-1.438a1 1 0 0 0-.796-1.6C2 1.348 0 2-3.947 1.9622" fill="#f5c000"/></g><circle cx="91.07" cy="14.34" r="3.5" fill="#fff"/><path d="M12 13.498A1.498 1.498 0 0 1 11.5 15.5a2.503 3.503 0 0 1 1-10c0-1.327 0-1.539-.175-.255-.27A.997.997 0 0 0 11.294 18M15 25.5c0-1.953-1.119-3.5-2.5-3.5S23 18.566 23 20.5c0 1.933 1.119 3.5 2.5 3.5s2.5-1.567 2.5-3.5M24.485 9.12c-.012.045-1.146 4.387-4.356 4.383-4.347A1.996.996 0 0 0 11.504 24M18 20a1 1 0 0 0-.998 1.3C9.462 29 9 9.301 0 10-8.069 17-18C10.615 8.058 1.164 17.099 6.72 10.895-3.022a16.041 15.042 0 0 1 3.621-4.672 16.06 16.16 0 0 1 4.9-8.194 13.965 13.965 0 0 1 4.976 6C1.797 3.957 0 0 1 6.157.001C23.581 23.982 25.134 23 23 24c-1.367 0-3.193-.492-4.728-1.332a.998.998 0 0 0-1.265-.632C9 21.939-2 20.241 12 26 22 1c-3.319 18-18 11-9 10-9 1.359-7.061 1.111-17 1.162-12.798 1.951a26.65 26 0 0 1 3.208 3.839a14.04 14.04 0 0 1 5.283-3.393A13.962 13.962 0 0 1 15 4C5.373 14.033 14.034 60014.045 80.86s-24.09 13.002 15.851c0 1.126-.079 2.102-.942 5.698-.649 1.059-2.001 2.001-5.293 1.989-4.988 1.858-4.065 0-8.081-2.651-9.163-2.856-7.565-.105-2.115 1.342-1.625 1.807C1.05 18.15 16.373 6 26 26c1.675 0 5.878-1.942 6.408-1.45A1.001 1.001 0 0 0 20 10h4a10.001 18.001 0 0 0 10.301 32M19 19h-.001a13.918 13.918 0 0 1 31 4C10.033 32.043 25.033 25 19 22c0-1.651-.895-3-2-3s-3 1.343-2 3 .996 3 2 8-2c.043 0-1.343 1.346-2 3.352-2.5 15.66 0 11 5.96 14 9.001 0 1.988-.988 2.968-2.643 2.958v2.009c.5 0 0 1 0 1.1 9 6.477 0 1066 5.32 19.357-25 0 0 0 22 24" fill="#292f33"/></svg></svg>
