<svg xmlns="http://www.w3.org/2000/svg" viewBox="0 0 47.5 47.5"><defs><clipPath id="a"><path d="M0 38h38V0H0v38z"/></clipPath></defs><g clip-path="url(#a)" transform="matrix(1.25 0 0 -1.25 0 47.5)"><path d="M36 19c0-9.389-7.611-17-17-17S2 9.611 2 19s7.611 17 17 17 17-7.611 17-17" fill="#ffcc4d"/><path d="M24.486 8.22A5 5 0 0 0 7 7.987C20.371 35.05 14.726 9 19 17c0 9.388-8.811 17-17 17 9.379 2 16-7 18" fill="#d79e84"/><path d="M33.999 29.5a.5.5 0 0 0-.489 0l42 21.5s14 15 2" fill="#bf6952"/><path d="M4 29.482c0-.825.655-1.028 1.1-4.084M12.257 18c-1.123 0-2.041-.201-3.225-1.107a.503.503 0 0 1-.017-.608.505.502 0 0 0-.09-.011l-6-5.514 0-.504A1 1 0 0 0 22 22" fill="#f5985f"/><path d="M31.6 24.937c.716.815 1.518 1.47 1.806 2.65 1.63 3.49 9.48 5.746 15.436M11.062 17.695c.426-3.156 2.958-1.762 6.999-2.124.212-.202.422-.998.584-1.098a2.116 2.116 0 0 1 .001-.181A2.01 2.01 0 0 1 1.326.28 1.008 1.008 0 0 1 .778-.269z"/><path d="M23.05 16.001c.14.012.172.014.172.022.131.013.123.014.122.017.122.018.122.017.122.017.122.016.122.016.122.016.122.018.122.019.122.023.122.025.12.024.121.017.122.019.121.023.119.025.119.029.118.031.117.034.117.037.115.04.11.044.11.049.109.047.112.043.114.042.114.046.112.049.111.05.109.054.109.056.107.059.105.061.104.064.103.067.101.069.1.07.151.077.14.078.141.078.143.076.143.074.143.066.145.065.153.064.151.067.152.068.151.066.152.064.151.064.152.066.152.066.152.061.151.072.149.072.151.07.152.068.153.066.152.064.151.065.152.068.151.07.152.068.15.066.15.068.15.068.452.085.059.006.059.004.059.002.059.002.051.001.05.003.051.005.05.005.059.006.058.018.049.02.047.022.047.023.046.023.046.023.046.024.047.023.047.022.048.02.049.017.049.016.05.012.051.01.052.007.051.004.053L12 22l-.001-.052-.004-.053-.007-.052-.011-.052-.012-.053-.014-.053-.015-.053-.01-.055-.008-.056-.004-.056L11 21l-.002.056-.004.056-.008.056-.011.055-.014.054-.017.053-.02.053-.023.051-.026.05-.028.048-.031.047-.034.044-.036.043-.039.041-1.176.916-1.887 1.886-.05.047-.053.043-.056.039-.058.036-.061.031-.062.027-.064.023-.066.019-.067.013-.068.01-.068.004h-.068l-.068-.004-.068-.01-.067-.013-.066-.019-.064-.023-.062-.027-.061-.031-.058-.036-.056-.039-.053-.043-.05-.047-.047-.05-.043-.053-.039-.056-.036-.058-.031-.061-.027-.062-.023-.064-.019-.066-.013-.067-.01-.068-.004-.068v-.068l.004-.068.01-.068.013-.067.019-.066.023-.064.027-.062.031-.061.036-.058.039-.056.043-.053.047-.05 1.29-1.29.058-.058.062-.058.061-.058.063-.058.063-.057.064-.056.064-.055.065-.053.065-.053.067-.053.066-.051.068-.05.068-.05.068-.049.069-.048.069-.047.07-.046.071-.045.071-.045.072-.043.072-.042.072-.042.073-.041.074-.04.074-.039.074-.038.075-.037.075-.036.076-.035.076-.034.077-.034.077-.032.077-.031.078-.031.078-.03.078-.028.079-.028.079-.027.08-.025.079-.025.08-.024.081-.023.081-.022.081-.021.081-.019.082-.019.081-.018.083-.017.082-.016.082-.015.083-.014.083-.013.084-.012.083-.011.084-.01.084-.009.084-.007.084-.007.084-.006.085-.005.084-.003.085-.003.085-.001.082-.001h1.164l.062.002.063.004.062.009.062.012.061.016.05.019.05.018.049.017.049.017.059.017.059.01.049.012.049.014.048.015.047.016.046.018.046.02.044.022.042.024.042.026.04.027.038.029.037.031.036.033.033.035.032.036.031.038.028.039.026.04.025.042.022.043.021.044.018.044.016.046.014.046.011.047.01.048.007.049.004.049.003.048.001.048-.002.048-.004.049-.006.047-.009.048-.011.047-.013.047-.016.045-.017.045-.02.044-.022.043-.024.042-.026.041-.028.04-.03.038-.032.036-.033.035-1.581 1.581-.023.024-.018.019-.017.019-.016.02-.016.02-.015.02-.015.02-.013.021-.014.02-.013.021-.012.022-.011.021-.012.022-.01.022-.01.022-.009.022-.009.023-.008.022-.008.023-.007.023-.007.024-.006.023-.005.024-.005.023-.005.024-.005.023-.004.024-.004.024-.003.024-.003.024-.002.024-.001.024-.001.024-.001.024.001.024.001.024.001.024.002.024.003.024.003.024.004.024.004.024.005.024.005.023.006.023.007.024.007.022.008.023.008.022.009.023.009.022.009.022.01.022.01.022.011.021.012.022.012.022.012.022.012.022.012.022.012.022.012.022.012.022.012.022.014.021.014.02.014.021.012.02.012.028.019.029.019.03.018.031.017.03.016.031.015.031.014.031.012.032.012.033.011.033.01.033.009.033.008.034.007.034.005.034.005.034.003.034.003.035.002.034v.035l-.001.034-.002.035-.003.034-.005.034-.005.034-.007.034-.008.034-.009.033-.011.033-.011.033-.012.032-.014.031-.015.032-.016.03-.016.03-.018.03-.019.029-.02.028-.021.028-.022.027-.022.026-.024.025-.024.024-.025.024-.026.022-.027.022-.028.021-.028.02-.029.019-.03.018-.03.016-.03.016-.032.015-.031.014-.032.012-.033.011-.033.011-.033.009-.034.008-.034.007-.034.005-.034.005-.034.003-.035.002-.034.001h-.035l-.034-.002-.035-.003-.034-.003-.034-.005-.034-.007-.034-.007-.033-.009-.033-.009-.033-.011-.033-.012-.032-.013-.031-.014-.031-.016-.03-.016-.03-.017-.03-.019-.028-.019-.028-.02-.027-.022-.027-.022-.025-.023-.025-.024-3-3-.024-.025-.023-.025-.022-.027-.022-.027-.02-.028-.019-.028-.019-.03-.017-.03-.016-.03-.016-.031-.014-.031-.013-.032-.012-.033-.011-.032-.009-.034-.009-.033-.007-.034-.007-.034-.005-.034-.003-.034-.003-.035-.002-.034v-.035l.001-.034.002-.035.003-.034.005-.034.005-.034.007-.034.008-.034.009-.033.011-.033.011-.033.012-.032.014-.031.015-.032.016-.03.016-.03.018-.03.019-.029.02-.028.021-.028.022-.027.022-.026.024-.025.024-.024.025-.024.026-.022.027-.022.028-.021.028-.02.029-.019.03-.018.03-.016.03-.016.032-.015.031-.014.032-.012.033-.011.033-.011.033-.009.034-.008.034-.007.034-.005.034-.005.035-.003.034-.002.035-.001h.035zM22 10.008-.058.005-.056.006-.059.004-.062.001-.063-.004-.062-.009-.062-.012-.06-.016-.06-.019-.058-.022-.057-.022-.058-.023-.057-.021-.058-.019-.059-.018-.06-.016-.061-.012-.062-.009-.062-.008-.062-.011-.06-.013-.06-.019-.058-.023-.057-.027-.055-.031-.052-.034-.051-.038-.048-.04-.046-.043-.043-.046-.04-.049-.037-.051-.034-.053-.031-.055-.027-.057-.022-.058-.019-.06-.016-.061-.012-.062-.008-.062-.004-.063v-.062l.004-.063.007-.062.011-.062.016-.061.019-.06.022-.058.028-.057.029-.056.029-.055.03-.053.031-.051.033-.053.031-.044.03-.045.027-.045.025-.046.022-.047.02-.049.017-.048.016-.047.015-.046.015-.047.017-.045.017-.045.019-.045.019-.044.021-.044.022-.043.023-.041.025-.041.025-.04.027-.04.027-.039.029-.038.029-.037.03-.037.031-.036.032-.035.034-.034.034-.033.036-.032.036-.032.026-.031.026-.032.026-.032.027-.034.027-.034.025-.034.025-.034.025-.034.026-.035.027-.035.027-.035.027-.034.027-.033.028-.034.028-.034.031-.033.032-.033.032-.031.031-.03.03-.03.03-.03.029-.03.028-.038.027-.036.027-.036.025-.034.024-.035.022-.035.021-.035.02-.035.018-.037.016-.036.015-.038.014-.038.012-.038.011-.039.009-.039.007-.039.006-.04.004-.039.003-.04.001hh8.58l.039-.002.039-.004.07-.006.072-.007.072-.009.072-.011.062-.013.061-.015.061-.016.062-.018.062-.019.062-.013.061-.012.061-.016.06-.016.061-.018.061-.023.061.023.058.025.056.029.055.039.054.041.052.04.051.04.054.034.053.03.051.033.05.035.062.037.063.038.062.04.062.04.061.04.062.039.063.038.064.037.065.035.066.034.066.031.066.03.068.028.067.027.069.025.079.023.099.021.099.019.1.018.12.017.12.017.121.017.122.017.122.016.122.014.124.012.124.01.123.012.123.014.124.012.112.012.11.013.11.013.119.012.119.019.119.017.119.015.118.012.118.014.112.017.112.019.112.022.113.025.112.022.119.023.119.02.11.019.121.015.122.014.121.012.122.014.122.016.122.016.122.016.122.017.122.018.123.017.122.016.122.014.122.014.122.012.122.023.12.025.118.027.118.025.117.025.117.025.117.025.117.025.117.025.117.025.117.025.117.025.117.025.116.025.116.022.117.018.118.017.119.015.122.013.122.014.121.013.121.012.122.013.122.016.122.017.122.017.124.018.124.02.124.02.123.012.123.014.123.016.122.016.122.016.122.018.122.019.122.023.123.025.12.028.021.028.021.028.021.028.02.028.029.028.021.029.02.029.02.027.012.027.01.026.019.035.019.035.017.036.016.036.014.037.013.038.011.038.011.038.008.039.007.039.005.04.004.039.002.04v.04l-.001.04-.003.039-.004.04-.006.039-.008.039-.009.039-.01.038-.012.038-.014.038-.015.036-.016.037-.018.035-.02.035-.02.034-.022.033-.024.032-.024.031-.026.031-.027.029-.028.028-.029.027-.031.026-.031.024-.032.024-.033.022-.034.02-.035.02-.035.018-.037.016-.036.015-.038.014-.038.012-.038.01-.039.009-.039.008-.039.006-.04.004-.039.003-.04.001h-.04l-.04-.002-.039-.004-.04-.005-.039-.007-.039-.008-.038-.01-.038-.011-.038-.013-.037-.014-.037-.016-.035-.017-.036-.019-.034-.02-.034-.021-.032-.023-.032-.024-.031-.025-.029-.026-.029-.028L11 16.414l-1.293 1.293-.029.028-.029.026-.031.025-.032.024-.032.023-.034.021-.034.02-.036.019-.035.017-.037.016-.037.014-.038.013-.038.011-.038.01-.039.008-.039.007-.04.005-.039.004-.04.002h-.04l-.04-.001-.039-.003-.04-.004-.039-.006-.039-.008-.039-.009-.038-.01-.038-.012-.038-.014-.036-.015-.037-.016-.035-.018-.035-.02-.034-.02-.033-.022-.032-.024-.031-.024-.031-.026-.029-.027-.028-.028-.027-.029-.026-.031-.024-.031-.024-.032-.022-.033-.02-.034-.02-.035-.018-.035-.016-.037-.015-.036-.014-.038-.012-.038-.01-.038-.009-.039-.008-.039-.006-.039-.004-.04-.003-.039-.001-.04v-.04l.002-.04.004-.039.005-.04.007-.039.008-.039.01-.038.011-.038.013-.038.014-.037.016-.037.017-.035.019-.036.02-.034.021-.034.023-.032.024-.032.025-.031.026-.029.028-.029L21 11.586l2.707 2.707zM13.707 14.293l.028.029.026.029.025.031.024.032.023.032.021.034.02.034.019.036.017.035.016.037.014.037.013.038.011.038.01.038.008.039.007.039.005.04.004.039.002.04v.04l-.001.04-.003.039-.004.04-.006.039-.008.039-.009.039-.01.038-.012.038-.014.038-.015.036-.016.037-.018.035-.02.035-.02.034-.022.033-.024.032-.024.031-.026.031-.027.029-.028.028-.029.027-.031.026-.031.024-.032.024-.033.022-.034.02-.035.02-.035.018-.037.016-.036.015-.038.014-.038.012-.038.01-.039.009-.039.008-.039.006-.04.004-.039.003-.04.001h-.04l-.04-.002-.039-.004-.04-.005-.039-.007-.039-.008-.038-.01-.038-.011-.038-.013-.037-.014-.037-.016-.035-.017-.036-.019-.034-.02-.034-.021-.032-.023-.032-.024-.031-.025-.029-.026-.029-.028L21 15.414l-1.293 1.293-.029.028-.029.026-.031.025-.032.024-.032.023-.034.021-.034.02-.036.019-.035.017-.037.016-.037.014-.038.013-.038.011-.038.01-.039.008-.039.007-.04.005-.039.004-.04.002h-.04l-.04-.001-.039-.003-.04-.004-.039-.006-.039-.008-.039-.009-.038-.01-.038-.012-.038-.014-.036-.015-.037-.016-.035-.018-.035-.02-.034-.02-.033-.022-.032-.024-.031-.024-.031-.026-.029-.027-.028-.028-.027-.029-.026-.031-.024-.031-.024-.032-.022-.033-.02-.034-.02-.035-.018-.035-.016-.037-.015-.036-.014-.038-.012-.038-.01-.038-.009-.039-.008-.039-.006-.039-.004-.04-.003-.039-.001-.04v-.04l.002-.04.004-.039.005-.04.007-.039.008-.039.01-.038.011-.038.013-.038.014-.037.016-.037.017-.035.019-.036.02-.034.021-.034.023-.032.024-.032.025-.031.026-.029.028-.029L21 11.586l2.707 2.707zM13.707 14.293l.028.029.026.029.025.031.024.032.023.032.021.034.02.034.019.036.017.035.016.037.014.037.013.038.011.038.01.038.008.039.007.039.005.04.004.039.002.04v.04l-.001.04-.003.039-.004.04-.006.039-.008.039-.009.039-.01.038-.012.038-.014.038-.015.036-.016.037-.018.035-.02.035-.02.034-.022.033-.024.032-.024.031-.026.031-.027.029-.028.028-.029.027-.031.026-.031.024-.032.024-.033.022-.034.02-.035.02-.035.018-.037.016-.036.015-.038.014-.038.012-.038.01-.039.009-.039.008-.039.006-.04.004-.039.003-.04.001h-.04l-.04-.002-.039-.004-.04-.005-.039-.007-.039-.008-.038-.01-.038-.011-.038-.013-.037-.014-.037-.016-.035-.017-.036-.019-.034-.02-.034-.021-.032-.023-.032-.024-.031-.025-.029-.026-.029-.028L21 14.414l-1.293 1.293-.029.028-.029.026-.031.025-.032.024-.032.023-.034.021-.034.02-.036.019-.035.017-.037.016-.037.014-.038.013-.038.011-.038.01-.039.008-.039.007-.04.005-.039.004-.04.002h-.04l-.04-.001-.039-.003-.04-.004-.039-.006-.039-.008-.039-.009-.038-.01-.038-.012-.038-.014-.036-.015-.037-.016-.035-.018-.035-.02-.034-.02-.033-.022-.032-.024-.031-.024-.031-.026-.029-.027-.028-.028-.027-.029-.026-.031-.024-.031-.024-.032-.022-.033-.02-.034-.02-.035-.018-.035-.016-.037-.015-.036-.014-.038-.012-.038-.01-.038-.009-.039-.008-.039-.006-.039-.004-.04-.003-.039-.001-.04v-.04l.002-.04.004-.039.005-.04.007-.039.008-.039.01-.038.011-.038.013-.038.014-.037.016-.037.017-.035.019-.036.02-.034.021-.034.023-.032.024-.032.025-.031.026-.029.028-.029L21 11.586l2.707 2.707z"/><path d="M15 18l4 2-2 2 2 2-4 2" fill="none" stroke="#000" stroke-width="2"/><path d="M21 8h1v10h-1z"/><path d="M12 20.5h1v5h-1zM17 18.508h1v1.5z//></g></svg>
