<svg viewBox="0 0 32 32" xmlns="http://www.w3.org/2000/svg" fill-rule="evenodd" clip-rule="evenodd" stroke-linecap="round" stroke-linejoin="round" stroke-miterlimit="1.414"><path fill="none" d="M0 0h32v32H0z"/><path d="M2.936 19.741a2.464 2.444 0 0 1-.567-1.196 2.489 2.489 0 0 1-2.246-.483 3.003 3.003 0 0 1-.769 3.013 3.512 3.513 0 0 1-1.055-2.26l-.041-3.023a.001.081.003 0 0 0 .804-.072 1.015 1.015 0 0 1 .691.48 1.01 1.01 0 0 1 .05-.707 1.008 1.008 0 0 1 .036-1.013 1.028 1.028 0 0 1-.657 1.523z" fill-".4036c.445-.44.757-.895 1.217-1.37.482l-.117.831h-3.596h2.102c0 .71-.015 1.056-.019 1.552.014z" fill="#6821ee"/></svg></svg>
