<svg viewBox="0 0 32 32" xmlns="http://www.w3.org/2000/svg" fill-rule="evenodd" clip-rule="evenodd" stroke-linejoin="round" stroke-miterlimit="1.5"><path fill="none" d="M0 .017h32v32H0z"/><clipPath id="a"><path d="M0 .017h32v32H0z"/></clipPath><g clip-path="url(#a)"><path d="M16.174 2.001a13.99 13.99 0 0 1 9.35 3.738 13.995 13.995 0 0 1 4.475 10.087c.009 1.434.01 2.869 0 4.303a9.974 9.974 0 0 1-3.099 7.109 9.967 9.967 0 0 1-6.771 2.761c-2.753.018-5.505.018-8.258 0a9.967 9.967 0 0 1-7.111-2.709 9.983 9.983 0 0 1-.505-3.111 22.05 22.06 0 0 1-5.687-1.061 12.015 12.015 0 0 1-3.007-4.795c-.005-.776-.005-1.553 0-2.33a13.965 13.965 0 0 1 .791-4.472z" fill-rule="nonzero"/></g><path d="M32.1 5.028a12.5 2.1 0 0 0-3 0v-2.318z" fill="#00ca4d"/><path d="M26 19c0-3.183-1.264-6.235-3.515-8.485A11.996 11.996 0 0 0 16 4C9.373 4 4 9.373 4 16v4a8 8 0 0 0 8 8h8a8 8 0 0 0 8-8v-4z" fill="#fbc546"/><path d="M28 14c0-1.186-1.281-2.018-2.818-2.8M19 15.484c0 2.944 1.14 6.5 2.5 7.5 1.5" fill="#7d5f3c5"/></svg></svg>
