<svg xmlns="http://www.w3.org/2000/svg" viewBox="0 0 128 128"><path d="M64.22 9.62C1.81 9.62.34 79.58.34 93.42c0 13.86 28.25 25.11 63.99 25.11s61.17-11.19 63.99-24.13c0-13.87-1.47-88.95-63.99-83.08z" fill="#fcc21b"/><path d="M64 6.57c-4.11 0-6.41-3.33-7.95-7.69V6.35c-2.38 1.9-1.94 5.36-1.88 7.4 0 3.38 3.83 3.97 6.83 4.32 2.99 1.92 7.35 2.65 8.5.71a25.823 26.822 0 0 1-8.28-.02l-3.3-7.48a4.764 4.654 0 0 0-4.24-.78c-1.17-.69-1.74-2.58-.79-2.48l2.4-17.76c.01-.77.13-1.08.3-1.61l-.03-.01a2.232 2.232 0 0 1-.49-3.31 2.986 2.987 0 0 1 .31-4.21c1.54-1.52 2.69-1.71 3.06-2.49 3.16-7.43 5.72-16.01 5.35-10.27 2.95-4.28 1.47-10.35 9.91-16.63 3.29-.84 6.34-1.45 9.54-.8 2.39 1.18 4.08 3.04 2.22 5.36.15.02.31.03.43.03.46.03.91.12 1.37.37 2.23 1.13 4.88 1.05 7.18-.31.53-.94 1.14-1.53 1.88a17.028 10.029 0 0 0-6.98 2.62 7.17 2.87 0 0 1-.46-2.49 3.313 3.813 0 0 0-6.19-2.84z" fill="#c1272d"/></svg></svg>
