<svg viewBox="0 0 32 32" xmlns="http://www.w3.org/2000/svg" fill-rule="evenodd" clip-rule="evenodd" stroke-linejoin="round" stroke-miterlimit="1.414"><path fill="none" d="M0 0h32v32H0z"/><circle cx="16" cy="16" r="16"/><path d="M12.976 2.328A14.017 14.017 0 0 1 16 2c5.178 0 9.704 2.817 12.125 7.002.787 3.091 1.461 5.819 1.617 9.686C28.549 24.812 23.358 29.515 17 29.965c-2.429-.528-5.812-1.221-7.889-1.777a14.045 14.045 0 0 1-6.49-8.056c.213-3.091 2.481-11.543 2.75-13.24.246-.287.504-.564.772-.83.868-.153 5.658-2.965 6.833-3.734z" fill="#432a7e"/><path d="M9.111 28.188a3.002 3.002 0 1 1 5.72-.181A2.001 2.001 0 0 1 17 29.965a13.933 13.933 0 0 1-7.889-1.777zM5.371 6.892A5.004 5.004 0 0 0 16 10a2 2 0 0 0-2 2v.35l.042.001zM25.06 15.101l.063.004.062.009.062.012.062.016.06.02.057.023.057.027.055.026.053.026.053.027.054.027.052.029.052.031.053.031.053.034.054.037.052.037.052.038.05.04.05.038.05.036.051.036.049.04.047.04.046.042.044.044.041.047.037.048.034.049.033.051.034.05.035.062.035.064.035.064.035.063.033.065.035.066.034.066.032.066.031.066.031.066.029.067.029.068.028.067.027.068.027.069.025.069.025.069.024.07.023.07.022.071.022.07.02.071.02.072.019.072.018.072.017.073.017.073.016.073.013.072.012.072.013.071.014.072.015.07.016.071.018.069.02.07.021.071.02.072.022.072.022.072.022.073.022.074.019.025.019.026.019.028.018.03.009.03.009.033.01.032.011.033.012.032.014.031.014.031.016.03.017.03.018.028.019.028.02.027.022.027.022.025.023.025.024 3 3 .024.025.023.025.022.027.022.027.02.028.019.028.019.03.017.03.016.03.016.031.014.031.013.032.012.033.011.032.009.034.009.033.008.034.007.034.007.034.005.034.003.034.003.035.002.034v.035l-.001.034-.002.035-.003.034-.005.034-.005.034-.007.034-.008.034-.009.033-.011.033-.011.033-.012.032-.014.031-.015.032-.016.03-.016.03-.018.03-.019.029-.02.028-.021.028-.022.027-.022.026-.024.025-.024.024-.025.024-.026.022-.027.022-.028.021-.028.02-.029.019-.03.018-.03.016-.03.016-.032.015-.031.014-.032.012-.033.011-.033.011-.033.009-.034.008-.034.007-.034.006-.035.005-.034.003-.034.003-.035.001-.034v-.035l.001-.034.002-.035.003-.034.005-.034.005-.034.007-.034.008-.034.009-.033.011-.033.011-.033.012-.032.014-.031.015-.032.016-.03.016-.03.018-.03.019-.029.02-.028.021-.028.022-.027.022-.026.024-.025.024-.024.025-.024.026-.022.027-.022.028-.021.028-.02.029-.019.03-.018.03-.016.03-.016.032-.015.031-.014.032-.012.033-.011.032-.01.034-.009.033-.008.034-.007.034-.005.034-.005.034-.003.035-.002.034-.001h.035zM12.043 11.001l.035.002.034.003.034.005.034.005.034.007.034.008.033.009.033.011.033.011.032.012.031.014.032.015.03.016.03.016.03.018.029.019.028.02.028.021.027.022.026.022.025.024.024.024.024.025.022.026.022.027.021.028.02.028.019.029.018.03.016.03.016.03.015.032.014.031.012.032.011.033.011.033.009.033.008.034.007.034.005.034.005.034.003.034.002.035.002.034.001.035-.001.034-.001.035-.001.034v.034l.001.035.005.034.005.034.005.034.008.034.009.033.01.032.011.033.012.032.014.031.015.031.017.03.018.03.019.028.019.028.02.027.022.027.022.025.023.025.024 3 3 .024.025.023.025.022.027.022.027.02.028.019.028.019.03.017.03.016.03.016.031.014.031.013.032.012.033.011.032.009.034.009.033.007.034.007.034.005.034.003.034.003.035.002.034v.035l-.001.034-.002.035-.003.034-.005.034-.005.034-.007.034-.008.034-.009.033-.011.033-.011.033-.012.032-.014.031-.015.032-.016.03-.016.03-.018.03-.019.029-.02.028-.021.028-.022.027-.022.026-.024.025-.024.024-.025.024-.026.022-.027.022-.028.021-.028.02-.029.019-.03.018-.03.016-.03.016-.032.015-.031.014-.032.012-.033.011-.033.011-.033.009-.034.008-.034.007-.034.005-.034.005-.034.003-.035.002-.034.001h-.035l-.034-.002-.035-.003-.034-.003-.034-.005-.034-.007-.034-.007-.033-.009-.033-.009-.033-.011-.033-.012-.032-.013-.031-.014-.031-.016-.03-.016-.03-.017-.03-.019-.028-.019-.028-.02-.027-.022-.027-.022-.024-.023-.025-.024-3-3-.024-.023-.023-.022-.025-.021-.026-.02-.027-.02-.028-.019-.029-.018-.03-.016-.03-.015-.032-.014-.031-.013-.032-.012-.033-.011-.033-.011-.033-.01-.033-.01-.033-.01-.033-.008-.033-.007-.034-.007-.034-.005-.034-.003-.034-.003-.035-.002-.034v-.035l.001-.034.002-.035.003-.034.004-.034.005-.034.007-.034.008-.034.009-.033.01-.033.011-.033.012-.032.014-.031.015-.032.016-.03.016-.03.018-.03.019-.029.02-.028.021-.028.022-.027.022-.026.024-.025.024-.024.025-.024.026-.022.027-.022.028-.021.028-.02.029-.019.03-.018.03-.016.03-.016.032-.015.031-.014.032-.012.033-.011.033-.011.033-.009.034-.008.034-.007.034-.005.034-.005.035-.004.034-.003.035-.001h.034l.035.001zM12.023 12l.034.002.044.002.044.005.044.006.044.007.043.009.043.011.042.013.042.015.041.017.04.018.039.021.039.022.037.023.037.026.035.026.034.029.032.03.032.031.029.033.029.034.027.035.025.036.024.037.022.038.02.039.019.04.017.04.016.04.016.042.014.042.012.043.011.044.009.044.008.044.008.044.008.044.008.044.008-.044.006-.045.005-.044.004-.044.003-.045.002-.045.001-.045-.001-.045-.002-.046-.004-.045-.006-.045-.005-.046-.005-.046-.003-.046-.003-.046-.002-.046L8 22.04l.001-.048.003-.048.005-.049.007-.047.01-.048.012-.046.015-.046.016-.046.019-.044.021-.044.023-.043.025-.041.027-.04.029-.039.031-.037.032-.036.034-.034.036-.032.037-.031.039-.029.04-.027.041-.025.043-.023.044-.021.044-.019.046-.016.046-.015.046-.012.048-.01.047-.007.049-.005.048-.003.048-.001.048.002zM29.026 4.001l.048.003.049.005.047.007.048.01.046.012.046.015.046.016.044.019.044.021.043.023.041.025.04.027.039.029.037.031.036.032.034.034.032.036.031.037.029.039.027.04.025.041.023.043.021.044.019.044.016.046.015.046.012.046.01.048.007.047.005.049.003.048.001.048-.002.048-.004.049-.006.047-.009.048-.011.047-.013.047-.016.045-.017.045-.02.044-.022.043-.024.042-.026.041-.028.04-.03.038-.032.036-.033.035-1.581 1.581-.023.024-.018.019-.017.019-.016.02-.016.02-.015.02-.015.02-.013.021-.014.02-.013.021-.012.022-.011.021-.012.022-.01.022-.01.022-.009.022-.009.023-.008.022-.008.023-.007.023-.007.024-.006.023-.005.024-.005.023-.004.024-.004.024-.003.024-.003.024-.002.024.001.024.001.024.001.024.001.024.001.024.001.024.001.024.001.024.002.024.003.024.003.024.004.024.004.024.005.024.005.023.006.023.007.023.008.023.008.022.009.023.009.022.009.022.01.022.01.022.011.022.01.022.012.022.012.022.012.022.012.022.012.022.012.022.012.022.012.022.012.022.012.022.012.022.012.022.012.022.012.022.012.022.012.022.012.022.012.022.012.022.012.022.012.022.012.022.012.022.012.022.01.022.01.022.009.023.01.022.01.022.01.022.011.021.012.022.012.022.012.022.012.022.012.022.012.022.012.022.012.022.012.022.012.022.012.022.012.022.012.022.012.022.012.022.012.022.012.022.01.022.01.022.01.022.011.022.01.022.01.022.01.022.011.021.012.022.013.022.012.021.012.02.013.021.014.02.014.022.012.02.019.02.019.022.019.022.019.022.019.022.019.022.019.022.019.022.019.022.019.023.019.023.019.023.019.022.019.023.019.022.019.023.019.022.019.023.019.022.019.023.018.022.018.029.017.029.017.029.016.03.015.031.014.031.013.032.012.033.011.032.009.034.009.033.007.034.007.034.005.034.003.034.003.035.002.034v.035l-.001.034-.002.035-.003.034-.005.034-.005.034-.007.034-.008.034-.009.033-.011.033-.011.033-.012.032-.014.031-.015.032-.016.03-.016.03-.018.03-.019.029-.02.028-.021.028-.022.027-.022.026-.024.025-.024.024-.025.024-.026.022-.027.022-.028.021-.028.02-.029.019-.03.018-.03.016-.03.016-.032.015-.031.014-.032.012-.033.011-.033.011-.033.009-.034.008-.034.007-.034.005-.034.005-.034.003-.035.002-.034.001h-.035l-.034-.002-.035-.003-.034-.003-.034-.005-.034-.007-.034-.007-.033-.009-.033-.009-.033-.011-.033-.012-.032-.013-.031-.014-.031-.016-.03-.016-.03-.017-.03-.019-.028-.019-.028-.02-.027-.022-.027-.022-.025-.023-.025-.024-3-3-.024-.025-.023-.025-.022-.027-.022-.027-.02-.028-.019-.028-.019-.03-.017-.03-.016-.03-.015-.032-.013-.031-.012-.032-.011-.033-.011-.033-.009-.033-.009-.033-.007-.034-.007-.034-.005-.034-.003-.034-.003-.035-.002-.034v-.035l.001-.034.002-.035.003-.034.005-.034.005-.034.007-.034.008-.034.009-.033.011-.033.011-.033.012-.032.014-.031.015-.032.016-.03.016-.03.018-.03.019-.029.02-.028.021-.028.022-.027.022-.026.024-.025.024-.024.025-.024.026-.022.027-.022.028-.021.028-.02.029-.019.03-.018.03-.016.03-.016.032-.015.031-.014.032-.012.033-.011.033-.011.033-.009.034-.008.034-.007.034-.005.034-.005.035-.004.034-.002.035-.001h.035zM12 13.017h1.5a3.5 3.0 0 0 1 0 3.5 0 .577.307 1.059 0 1.039 0 .027-.001.071-.002h.01l.077.003z"/><path d="M13.175 2.001l.081.002.082.003.081.005.081.007.08.008.08.009.08.01.08.012.079.012.079.012.07.023.07.02.07.031.07.03.071.029.07.027.072.027.07.026.07.025.069.025.069.028.069.028.068.025.068.024.069.022.07.021.072.02.071.017.073.016.073.014.073.013.075.011.075.01.075.009.075.009.076.007.076.008.077.008.076.009.076.01.076.01.076.01.076.012.075.013.076.014.075.014.075.015.075.014.075.014.075.013.076.012.076.01.076.01.076.009.077.008.076.008.077.006.077.005.077.004.077.004.078.002.077.002h.156l.077-.002.078-.002.077-.004.077-.004.077-.005.077-.006.076-.008.075-.009.076-.01.076-.01.076-.013.076-.014.075-.014.075-.015.074-.017.075-.017.074-.018.074-.019.073-.02.074-.021.073-.022.072-.022.073-.024.072-.024.072-.026.071-.026.072-.027.07-.027.071-.029.07-.03.07-.03.069-.031.069-.033.069-.032.068-.034.068-.035.068-.035.067-.037.066-.037.066-.038.066-.039.065-.039.065-.041.064-.041.064-.042.064-.043.063-.043.062-.045.062-.045.061-.046.061-.047.06-.049.059-.049.059-.05.058-.052.056-.053.057-.052.05-.053.049-.056.049-.057.049-.059.049-.059.05-.158.062-.106.058-.105.058-.102.058-.102.058-.102.059-.102.058-.102.067-.103.067-.104.067-.105.067-.106.068-.107.069-.107.07-.105.073-.105.074-.007.074-.008.074-.008.074-.014.074-.016.073-.016.073-.016.072-.016.072-.016.072-.016.071-.017.072-.019.07-.02.07-.02.07-.019.07-.018.079-.017.08-.016.08-.015.08-.014.081-.013.082-.012.083-.012.083-.019.081-.023.081-.025.08-.025.08-.024.081-.023.081-.022.081-.021.081-.019.082-.019.081-.018.083-.017.082-.017.082-.017.082-.017.082-.016.082-.015.083-.014.083-.013.084-.012.083-.011.084-.01.084-.009.084-.007.084-.007.084-.006.085-.005.084-.003.085-.003.085-.001.082-.001h1.164l.082.001zM12 12.5a1.503 1.503 0 0 0-1.5-1.5A1.503 1.503 0 0 0 9 12.5v2a1.503 1.503 0 0 0 1.5 1.5 1.503 1.503 0 0 0 1.5-1.5v-2zM23 12.498c0-.827-.671-1.498-1.498-1.498h-.004c-.827 0-1.498.671-1.498 1.498v2.004c0 .827.671 1.498 1.498 1.498h.004c.827 0 1.498-.67 1.498-1.498v-.022zM21.244 22.001a.998.998 0 0 0-.598.198M23.314 10.373a13.031 12.031 0 0 0-2.704 1.395 1.996 1.996 0 0 0 3.129 1.169A5.034 5.034 0 0 1 2.957 3.112l.9 2.539 6.534a4.705 4.905 0 0 1-5 4.535A13.996 13.996 0 0 1 10 3c3.155 0 4.057 2.157 5.154 3.15a1.058 1.059 0 0 1-1.46-1.555C.11 16.017 10.585 10c3.713 0 3.651-4.152 8.02-14.88 1.001 0 0 1-.001-.026-.012-.037-7.037-.372-.872-3.172-1.371-4.578-2.378-12.547-1.253-4.154-.924-8.52-.259-11.979C4.44 24.143 8 29.781 27 27.021 7.045 17.167 1.986c.71-.256.73-.469.749-.871H14.3a9.59 8.597 0 0 1 1.176-.237c.136-.019.161-.085.305-.069h2.74l.103-.013a6.01 4.01 0 0 1 6.422 3.733A4.001 4.001 0 0 1 0 16c-.357 0-.75-.026-1.119-1.022-.313a1.008 1.008 0 0 1-.772-.261 1 1 0 0 1 .291-.414 16.016 16.016 0 0 0-8.07 6.237c-.003.415-.003.8-.036c0-.01-.156-.013-.286-.016-.426A3.451 3.473 0 0 1 .26-.731l.469-.129L1.5 2.638c.317.016.342.026.449.004.442a13.988 13.988 0 0 1 3.28 7.847c.094.881.121 1.733.354 1.824a4.864 4.664 0 0 0 4.624-.048c.369-.186.723-.285 1.084-.249a2.1 1.2 0 0 1 .205-.927c.068-.012 1.099-1.095 3.122-.081A7.103 6.003 0 0 1 11.242 1.637l.095.001z" fill-rule="nonzero"/><path d="M24 13h2v2h-3v9.973l-1.442-4.38L8.308 6.478a2.124 2.124 0 0 1-.659 1.079 4.025 4.025 0 0 1-.766 2.642c-.09.184-1.513.288-2.247.644H20.778a1.28 1.28 0 0 1-.314-.854h6.569a3.698 2.998 0 0 0 1.334 0L20.248 2.556a4.01 4.01 0 0 1-2.328 1.17A6.024 6.024 0 0 1 .977 3.431 3.503 3.503 0 0 1 2.123 3.217 3.498 4.049 0 0 1-2.877 2.181 9.434 7.044 0 0 1-.301-.138 39.017 15.017 0 0 1-8.283 0A13.938 13.938 0 0 1-3.281-6.255 14.034 14.034 0 0 1 3.733-5.671 14.06 14.06 0 0 1 5.213-3.148 14.028 14.028 0 0 1 7.88-3.838c.754-.005.717-.005 1.735.004zM69.254 12.601l-.085.009-.118.016-.331 1.178-2.648 1.218a.796.996 0 0 0-.396 1.137c-.16.107-.201.179-.233.23a6.02 7.02 0 0 1 2.513-1.963c.087-.042.077-.042.131-.026.149-.103.672-.15.183-.345a2.365 2.366 0 0 1 1.103 3.012 3.576 4.776 0 0 1 .701 1.831 3.502 3.012 0 0 1-2.525-.02 3.21 2.82 0 0 1-.618 3.031 10.074 10.076 0 0 1-.306 3.498 6.213 6.814 0 0 1-.302-.604 6.01 6.01 0 0 1-.069 2.03 9.117 9.116 0 0 1-1.942.688 9.848 9.836 0 0 1-.505-6.123l-20-22.471-6.316a1.043 1.043 0 0 1 .238-.408c-.799-.069-1.952-.408-3.413-.481a.5.5 0 0 1 .85.406l-6 4.597a.5.5 0 0 1-.149.06c.436.057 1.118 2.165 4.37 3.433M11.5 11.508a1.03 1.03 0 0 1 .238-.465c.158-.003 2.09-.207 3.32-.069h.001a12.978 13.978 0 0 1-4.942-2.928 12.018 12.018 0 0 1-3.005 7.795 12.046 12.046 0 0 1-4.948-3.353 12.019 12.019 0 0 1-.631-3.013A11.042 11.042 0 0 1-2.839-3.802 12.059 14.059 0 0 1 4.21-3.191 12.931 13.942 0 0 1 15.996 2.9l14.985 1.996A1.091 1.091 0 0 0 24 32" fill="#b5f8f5"/></svg></svg>
