<svg xmlns="http://www.w3.org/2000/svg" viewBox="0 0 47.5 47.5"><defs><clipPath id="a"><path d="M0 38h38V0H0v38z"/></clipPath></defs><g clip-path="url(#a)" transform="matrix(1.25 0 0 -1.25 0 47.5)"><path d="M19 3.5c-.581 0-1.058-.973-1.087-1.717-1.017-1.302 1-2.153 1.393a.997.997 0 0 1-1.391-.005.298M2.99 19.709L7 17.998L168 8.017c-2.397 0-1.388-1.871-2.087-1.718A2 2 0 0 1 22 12c0-3.251 0-4.632 2.224-6.045 3.358a2.999 2.999 0 0 1-3.13.705c-.304.03-4.767.042-1.152 0-.468-.006-.919-.117h-.202A1.018 1.018 0 0 1 .07 1.107C99.5 9.997 19.946 6.515 20 14a1 1 0 11 0-1.6 1.3 1.5 1.5 0 0 0-3 0v-2a1.5 1.5 0 0 0-1.5-1.5" fill="#f5f8fa"/><path d="M32 22.412a2.5 2.5 0 1 0-5 0 2.5 2.5 0 0 0 5 0" fill="#292f33"/><path d="M9 18s5-3 4.495-8.454 6.655-1.958 1.98.035 1.56 1.403.147 5.53-3.348 1.958-5.345 1.96-9.628 1.453A2.29 1.13 0 0 0 19 25M18 8.035c-6.251 0-13-5.372 17-16s-6.353-12 11-22" fill="#664500"/><path d="M13 12.101V6.018c0-3.246-3.134-6.755-3.093-5.605a1.488 1.488 0 0 1 .476.947c.013.062.08.126.168.058a16.828 16.828 0 0 1 7.207-3.403 14.04 14.04 0 0 1 8.498-8.294 13.965 13.965 0 0 1 4.472-.791h.354A1.992 1.992 0 0 1 15.998 198a1.995 1.995 0 0 0 4 11.994v2a1 1 0 0 0 17 16h-7l-1 1V2l1-4-8 3 9 0 0 1-4 0v6.016z" fill="#d0e30e"/></g></svg>
