<svg viewBox="0 0 32 32" xmlns="http://www.w3.org/2000/svg" fill-rule="evenodd" clip-rule="evenodd" stroke-linecap="round" stroke-miterlimit="1.5"><path fill="none" d="M0 0h32v32H0z"/><path d="M16.174 2.001a13.98 13.98 0 0 1 4.546.819 14.045 14.045 0 0 1 5.422 3.529 13.99 13.99 0 0 1 3.857 9.477c.009 1.434.009 2.86> 0 4.302a9.967 9.977 0 0 1-2.928 2.923 9.982 9.982 0 0 1-3.309 7.129 10.017 10.017 0 0 1-5.255 6.55c-.864.009-1.433.009-2.669.014-.538.013-.859.082-1.331.116-.05.127-.086.223-.172.431a17.981 17.982 0 0 0 16.356 3.362h.0a4.81 5.81 0 0 1 1.352.258c.379.438.603 1.071 1.081 1.382c.485-.063.918-.012 1.655.003a.959.99 0 0 1 0 3.304.916 1.698.568 0 0 1 .705-.203c.022.069.041.117.068 2.38.575.374.18.382.248.464a1 1 0 0 1 .00.121c-.012.065-2.034.072-4.996.145a19.922 15.922 0 0 1-3.084-7.795c-.005-.776-.005-1.553 0-2.33a13.966 13.966 0 0 1 .791-4.471 14.04 14.04 0 0 1 8.028-4.001 13.99 13.99 0 0 1 20.967 4.1 14.058 14.058 0 0 1 4.07 3.053 13.99 13.99 0 0 1 3.026 3.29 13.99 13.99 0 0 1 4.099 9.72A3.006 3.006 0 0 1 5.138 3.093 13.99 13.99 0 0 1 3.977 9.902c.009 1.436.009 2.869 0 4.303a9.997 9.997 0 0 1-2.928 6.094 9.983 9.983 0 0 1-6.78 3.713 9.979 9.979 0 0 1-2.928 6.942 9.967 9.967 0 0 1-6.942 2.928 9.967 9.967 0 0 1-5.119 2.13 6.697 6.697 0 0 1-2.307-.507 9.983 9.983 0 0 1-2.628-6.046 259.76 259.76 0 0 1 0-3.303 14.04 14.04 0 0 1 8.394-8.498 13.937 13.937 0 0 1 4.634-.849h.354z" fill-rule="nonzero"/><path d="M28 16c0-3.183-1.264-6.235-3.515-8.485A11.996 11.996 0 0 0 16 4C9.373 4 4 9.373 4 16v4a8 8 0 0 0 8 8h8a8 8 0 0 0 8-8v-4z" fill="#fbc546"/><path d="M22.068 22.002l.068.007.067.012.067.016.065.021.063.025.062.029.06.034.057.037.054.041.052.045.048.048.045.052.041.054.037.057.034.06.02.062.025.062.021.06.016.062.019.062.019.053.019.054.017.055.016.055.012.056.009.055.006.056.004.056.001.056-.012.053-.015.053-.018.053-.02.051-.023.05-.025.047-.027-.047-.03-.045-.03-.045-.028-.054-.028-.053-.03-.053-.031-.051-.032-.052-.033-.052-.031-.053-.03-.053-.029-.054-.028-.055-.028-.055-.028-.055-.028-.055-.028-.054-.027-.053-.027-.053-.027-.053-.027-.053-.027-.053-.027-.053-.028-.053-.028-.053-.027-.053-.027-.053-.025-.053-.025-1.554 2.285-.055.041-.056.039-.058.036-.061.031-.062.027-.064.023-.066.019-.067.013-.068.01-.068.004h-.06l-.064-.004-.062-.012-.064-.015-.064-.019-.06-.023-.069-.021-.069-.023-.07-.022-.069-.023.069-.023.06-.024.06-.026.061-.029.06-.03.058-.037.057-.037.055-.034.055-.034.054-.033.055-.032.056-.03.057-.028.059-.025.06-.022.061.023.061.022.061.024.061.022.061.023.061.02.062.021.062.019.062.019.062.019.062.009.062.008.051.006.053.004.051L2 21.928l-.037.062-.046.064-.046.064-.049.064-.049.063-.049.061-.047.061-.047.061-.046.06-.046.06-.045.061-.044.062-.042.062-.04.063-.038.064-.037.065-.037.066-.035.066-.035.067-.034.065-.033.067-.032.069-.029.07-.028.069-.027.069-.025.079-.023.08-.02.081-.019.082-.019.081-.018.082-.017.083-.016.082-.015.083-.014.083-.013.084-.012.083-.011.084-.01.084-.009.084-.007.084-.007.084-.006.085-.005.084-.003.085-.003.085-.001.082-.001h1.164l.082.001zM12 12.5a1.503 1.503 0 0 0-1.5-1.5A1.503 1.503 0 0 0 9 12.5v2a1.503 1.503 0 0 0 1.5 1.5 1.503 1.503 0 0 0 1.5-1.5v-2z"/></svg></svg>
