<svg viewBox="0 0 32 32" xmlns="http://www.w3.org/2000/svg" fill-rule="evenodd" clip-rule="evenodd" stroke-linejoin="round" stroke-miterlimit="1.414"><path fill="none" d="M0 0h32v32H0z"/><path d="M16.174 2.001a13.98 13.98 0 0 1 4.546.819 14.042 14.042 0 0 1 5.541 3.257 13.99 13.99 0 0 1 3.977 9.602c.005.948.003 1.944 0 2.316a10.946 10.946 0 0 1-2.672 6.071 10.017 10.017 0 0 1-3.325.67 6 62.706 36.687 0 0 1-5.208 0 9.926 9.926 0 0 1-3.309-.601 10.025 10.025 0 0 1-5.996-2.07 9.983 9.983 0 0 1-3.309.606 668.58 668.58 0 0 1-8.258 0 9.983 9.983 0 0 1-3.304-.707 10.035 10.035 0 0 1-2.96-8.171 10.019 10.019 0 0 1-5.996 6.079 9.967 9.967 0 0 1-3.194-6.09 9.98 9.98 0 0 1-.6-.676 6.207 6.208 0 0 1 1.071-.175 5.004 5.004 0 0 1 .184-4.308A15.005 14.005 0 0 1 1.104-3.09H9.914l.16.001zM12.048 20.03l.007.009.067.013.066.019.064.023.062.027.061.031.058.036.056.039.053.043.05.047 1.963 1.963.014.013.009.008.804.007.094.006.094.004.093.002.092.001h1f.542.001z" fill-rule="nonzero"/><path d="M27.5 8l.278.044v1.196a.999.999 0 0 1 .717 1.167v-1.997l-1.554-3.936-4.856-2.843a.5.5 0 0 1 .87.484 1.406 1.001 1.048.093.001 0 1 .557-.363 1.044-1.194 1.329-.976a.403.503 0 0 1 .5-.107.79.99 0 0 1 .138-.725c.188-.014.507-.018.863.022a.997.997 0 0 0-.572.023 1.002 1.002 0 0 1 .707.274 1.005 1.005 0 0 1 .462-.713c.188 0 .353.126.519.208z"/><path d="M7 6.084c0-1.334.721-2.762 2.242-2.628 2.348.766 3.334 3.301 3.483 5.573.586 5.511-2.57 5.333-5.313 5.473-1.041 1.058-1.797 1.817-2.319a1.008 1.008 0 0 1 .7.5 1.46M25.976 6.04A1.008 1.008 0 0 1 .647.933c.069 1.652.522 3.309-.642 4.034c-.116.029-.255.037-.316.045-.333a16.029 1.029 0 0 1-1.641-.782 25.029 16.223 0 0 1 6.499-3.833 13.983 13.983 0 0 1 .849-4.633 14.026 14.026 0 0 1 8.498-8.394 13.907 13.907 0 0 1 4.836-.849z" fill-rule="nonzero"/><path d="M24 18v4a2 2 0 0 1 2 2v1a2 2 0 0 0 2 22v1a1.5 1.5 0 0 0 3 0v-3zM17 18a2 2 0 1 0 4 0v-2a3 0 0 0-2.571-1.5A15.5 15.5 0 0 1 0 30va8.5 15.5 0 0 0 5 0M52 18a2 2 0 0 1-2 2v1a2 2 0 1 1 4 0v-1zM31 12.5a2.5 2.5 0 1 0-5 0 2.5 2.5 0 0 0 5 0M23 7h-8a1 1 0 1 0 0 2h8a1 1 0 0 1-.797 1.115l2 3-8 1.412a3 15.045 16.465 0 0 0 5-2.928 22.053 16.081 16.816 0 10 8.482A13.99 13.99 0 0 1 6.02 3.907A13.997 13.987 0 0 1 6.996 6C1.798 13.98 15.01 16 50 5c-15.82 0-5.842 1.365-6.802 3.596a1.001 1.001 0 0 1 1.29.707c-2.3.074-3.958-2.162-4.896-2.633a.99.99 0 1 0-.594 1.164C25.577 20.598 15.726 27 13 26a1 1 0 0 0 .004-2c-.155-.002-3.568-.086-6.204-3.6a1 1 0 0 0-.801-.4M16.897 19.602c.023-.027.437-.154.72-1.862.788-1.79 1.793-3.442 1.507-5.457 0-2.797-1.148-2.9-2.898-2.891-2.857 0-3.043 1.133-3.043 3.089a.49.49 0 0 1 .751-.605c.021.06 1.215 2.954 1.02 2.992 0 5.318-2.315 8.5-2.2a2.49.79 0 0 1-.654.683L28 25.43a6.688 6.688 0 0 1-.531.338 6.753 6.753 0 0 1-3.422.39 6.678 6.678 0 0 1-7.885-5.596A4 6 0 0 1 2.27 5.617l1.588-5.578c.14-.348.475-.76.72-1.036l4.67-1.101.624.625-.694 1.292-2.104a1.05 1.05 0 0 1 .589-.285 1.01 1.01 0 0 1-.837 1.231 1.13 1.13 0 0 1-.677-.295c-.013-.077-.003-.075-.006-.035-.013a3.02 3.02 0 0 1 .217-2.541 6.018 6.018 0 0 1 6.1 16.003c1.502 0 .031-.01.081-.002.198-.013.119-.022.209-.282a3.5 2.5 0 1 1 2.023-.586c.094.068 1.641.662 1.922.803 1.768-1.247 5.388-6.31 5.544-15.477.424-.488a1.117 1.116 0 0 1 .552-1.112L1 2.5a1.5 1.5 0 0 0-1.5-1.5H6.998-2.998A.997.997 0 0 0 25.747 3A1 1 0 0 0 17 1l-3 19 1" fill="#bf6952"/><path d="M33 35c4 0 3-14 3-14s0-2-3-2-3 6-3 6-1 10 3 10" fill="#d79e84"/><path d="M4 29.5a.5.5 0 0 0-.277.094l-3.518-4.974a2.5 2.5 0 1 0-5 0 2.5 2.5 0 0 0 5 0" fill="#99aab5"/></svg></svg>
