<svg xmlns="http://www.w3.org/2000/svg" viewBox="0 0 128 128"><path d="M63.79 8.64C1.48 8.64 0 78.5 0 92.33c0 13.83 28.56 25.03 63.79 25.03 35.24 0 63.79-11.21 63.79-25.03 0-13.83-1.47-83.69-63.79-83.69z" fill="#fcc21b"/><path d="M100.01 90.01l-97.58l3.58 9.82c1.2 1.14 1.55 2.71 1.8 3.41l7.72 1.36c0 3.82 1.68 5.73 2.6 5.66.04.02.13.02.26.03l17.51 2.37a1.03 1.03 0 0 0 1.3 1.65l4.31-2.15c1.65 2.3 3.32 7.32 2.67 10.36-.63 3.12-2.69 4.84-7.51 5.02-10.21.98-1.81 2.64-2.1 4.46-3.81 3.46-.01 8.14 3.91 8.66 9.6.04 9.36-7.54 9.91-11.77 10.43-1.33.38-2.83.18-3.87.11-.28.34-.52.85-.44.71.49 1.05 1.43 1.17.42.34.87.68 1.21.87.65.16 1.15.27 1.73.32.55.41 1.06 1.07 1.61.64.34.97.61 1.51.82 1.19.18.53 1.34 1.08 1.84.45.38.93.63 1.38.78.65.41 1.07.7 1.16 1.03.31.36.68.88.44 1.24.05.72.3.92.11.32 0 9.38-2.28 15.18-5.74 17.7-12.7 1.81-25.86.01-27.26-10.43-6.64-26.86 6.63-30.34 5-54.47-4.83z" fill="#482424"/><g fill="#404040"><path d="M97.67 53.64s4.31 5.46 5.28 7.76v.84a6.606 6.606 0 0 0 83.88 86c3.18 0-5.02-2.72-5.02-6.07z"/><path fill="#2F2F2F" d="M49.88 76.01c-.67.12-1.75-.14-2.15-.37-1.68 0-3.87.71-5.7 1.85-.45.16-.88.31-1.21.58-1.29.07-2.92.04-3.31.01-3.58-.01-5.56-.1-7.74.47-.56.3-1.09.61-1.45.86z"/><path fill="#ED6C30" d="M63.44 70.15c-1.77.58-3.93.47-5.28-.68M4.59-24.13c-.66 2.3-.34 5.93.51 5.95 1.37 1.63 3.78 2.41 6 4.3 8.28 1.33 1.79 3.31 3.11 4.98 3.02 5.69-.04 5.66-3.14 7.54-5.25z"/><path fill="#F79329" d="M21.01 98.31c-1.7-.51-2.65-1.11-2.53-2.61a3.003 3.003 0 0 1-2.12-4.59c-1.21-1.17-3.25-1.64-4.59-1.49-1.31-.16-2.68-1.21-4.7-1.63-1.33-.14-2.73-.36-4.37-.62-2.99.04-5.04 2.1-5.13 1.77-.27 1.5-.86 2.72-1.23 4.07-.27 1.47-.56 3.24-.78 3.59-.85 1.33-1.11 4.03-2.27 4.82-3.55 1.44-.51 3.21-.98 4.02-.77 1.5-.85 3.67-1.33 5.91-1.05 1.37-.38 2.94-.54 4.08-.38.99-.05 12.32-.69 22.04-15.03.05-.09.17-.73.2-1.1.04-.25.09-.56.03-.96.22-.47.47-.7 1.01-1.27.9-.69.17-1.51.31-1.9.16-2.25.77-4.43-.18-4.84-2.18-2.07-1.63-4.4-3.35-7.42-3.35-1.24-.91-2.69-2.23-2.43-3.24-.34-2.83.16-5.55 2.37-7.96 2.1-1.04 6.51.21 7.99 2.63 1.64 3.44-.46 7.36-2.29 10.27z"/><path fill="#775429" d="M80.74 35.11c-9.19 0-12.67-1.34-17.43-10.47-.03-.79.31-1.7.43-2.71 0-4.41-3.52-8.25-9.14-7.3-3.73-1.18-7.82-2.29-13.44-2.66-4.97-1.84-8.41-10.02-8.41-16.13.31-1.11 1.43-.98 2.7-1.25 3.36-.62 7.25-2.55 14.69-3.84 25.93-1.01 4.93-.69 9.67 1.06 18.25 5.06.9.58 1.46 1.54 2.43 2.7 2.83 6.31 6.35 12.07 13.6 10.46 1.67 1.36 3.42 2.72 4.73 4.93 2.72 8.31 4.29 15.21 5.2 10.34-2.23 3.54-5.4 2.36-7.58z"/><path fill="#FCC21B" d="M32.55 91.5C48.87 46.17 54.12 10 73.32 14.98 6.64" fill="url(#e)"/><path fill="#2f2f2f" d="M28.66 64.95c.01-1.06-.32-1.73-1.1-2.63-.39-1.09-1.14-1.69-1.89-1.66-.89-.36-1.62-.74-2.48-.97-.47-.35-.79-.42-1.25-.62-1.68-.13-1.49.13-2.9.5-4.25.17-2.43 1.23-4.79.07-7.68l8.57-16.08c.02-.28.08-.56.09-.83.18-1.09.32-2.93.57-3.71-.06-.82-.21-1.45-.44-2.23-.26-1.39-.91-2.69-1.74-4.51-1.63-1.41-3.31-1.44-6.29-.32-.2.15-1.17.09-1.88.99-9.26 11.48-36.4 15.79-53.86 1.87z"/><path fill="#2F2F2F" d="M42.21 61.6c-1.94 4.37-9.19 12.83-10.86 17.39-2.05.3-5.33-.84-8.02-3.28z"/><path fill="#2F2F2F" d="M103.11 44.28c2.88-4.53 7.1-7.92 9.03-12.81 1.48-2.25 2.8-3.74 3.5-4.37.88-1.21 2.23-3.2 2.89-2.62 2.81-4.53 5.19-4.3 9.44-.74 1.53-.09 3.66-.2 5.3-.04 4.7 0 6.77.78 10.5-.41 4.07-.77 8.33-2.94 10.88-7.74 6.62-6.76.01-10.4-.52-20.56-1.71-.96-.02-1.81-.11-2.37-.14-.01-.01-4.08-4.78-10.31-6.51-7.82-3.08-11.78-6.51-9.96-10.57-.19-1.85-.99-3.17-1.66-4.57-.18-1.19-1.45-2.37-2.03-3.03-.11-.04-.2-.04-.19-.13C-.08-.02 0-.26-.09-.12a7.397 3.796 0 0 0-2.99-2.6c-.08-.16-3.16-4.87-13.33-6.2l-7.71-3.37c1.98-.94 3.69 2.14 4.69 4.62l.16.8c1.95-1.98 2.74-2.03 4.84-1.08 2.21-2.24 4.77-3.44 6.99-2.11 3.23-4.65 4.88-7.25 1.05.72.56 1.41 1.33 1.5 2.55-.03.01-.03.01-.18.09-1.52.38-3.72.68-5.26 1.05-1.17.98-2.68 2.07-3.68 1.83-1.48 1.09-3.25 2.57-4.6 4.04-1.28 3.62-.73 5.55-.14 8.21-.37 4.87 2.5 8.95 9 9.3 14.44 11.23 16.7 15.66 15.89 15.69a32.96 23.94 0 0 1-2.69-2.12c-8.78-3.61-16.27-13.38-21.24-10.08-9.67-.02-13.51 7.8-18.57 9.72-1.1 2.04-2.3 4.27-2.64 6.68l4.26 5c.93 10.83 16.97 19.03 15.56s26.79-5.89 37.91-10.97c-.11 5.35-4.52 9.39-9.3 9.72-4.25.41-7.18-1.74-11.05-9.13-1.96-2.34 2.23-4.45 2.83-6.82.13-1.11.44-2.14.78-4.23.3-.52.42-1.08.51-1.45.21-.49.47-.99.71-1.65l11.68 3.55c1.26 2.16 1.28 6.28 1.92 7.8-1.06 1.6-2.36 2.02-3.78 1.3-4.57-.07-3.52-.82-4.88-1.06-10.33 14.73-22.16 34.75-2.62 9.61 1.34 23.71 15.87 22.56 1.37 1.27 3.38 1.63 5.51.68 2.28 1.94 4.88 4.04 5.25 1.53 9.41-1.43 9.8-1.38 1.51-4.24-.04-8.04-1.52-10.32-2.91-4.62-6.75-8.1-10.3-14.09-4.6-1.34-8.58-.8-12.54.01-2.52-.32-3.66-1.68-5.12-2.33-1.59-.51-2.23-1.61-3.35-2.11-.21-.29-.61-.44-1.21-.51-1.06-.45-1.29-.57-1.76-1.18-.88-.83-.95-2.36-.22-3.97.38-2.01 2.06-1.25 3.9-.83.35.21.75.47 1.22.29.21.15.39.05.63.07.05.14.08.23.08.04.17.06.56.06.44.07.83.29 1.61.55 3.25.97 1.6.92 3.46 2.1 3.93.68.39.07.75-.09 1.01-.02.61-.15 1.52-.45 1.43-.33.29-.6.41-1.07.41-1.5l5.06-.01c-.82 0-1.68.35-3.26.84L45.8 104 93.4l-.01.08-.04-.06c.06-.09.14-.11.16-.15.24-.18.88-.2 1.31-.15.24-.01.85.08.88.08 1.16.04 1.52.18 1.74.29 2.41 0 .93-.43 1.95-.68 2.22-1.05 3.92-2.53 3.82-3.89 5.36-.95 1.65-2.08 2.01-4.65 1.5-1.22 0-1.65-.31-1.93-1.38-.4-1.7.2-2.8 1.31-3.4 3.62-2.72 8.31-3.89 14.72-1.01 1.03-.09 2.55.16 3.31 1.2 1.07 2.58 3.1 3.37 4.24 3.73 2.99 7.8 2.3 14.05-1.12 5.21-2.1 10.28-6.31 14.07-10.27 1.46-.6 2.72.09 3.76.85 2.38 1.25 3.51 2.1 4.82 3.39 9.79.86 1.95 2.26 2.89 5.23 3.62 1.66-.09 3.25-.34 4.39-1.19.06-.4.13-.75.12-1.1.01-.31.03-.48.1-.8.14-1.51.79-3.12.58-5.2-.43zM92.74 75.11c-.61.65-1.32 1.01-1.77 1.04L7.85 33.42c.17-.63.08-1.8-.22-2.47-.64-1.07-.36-2.1-.79-3.26-1.11-1.73-.67-4.48-1.63-7.31-2.23-1.31-.36-2.24-.36-2.91-.39-2.03-.81-3.93-2.05-5.44-2.32-4.05-3.63-9.08-4.68-10.54-4.91-1.73 2.72-2.47 8.41-.81 10.79.91 3.54 3.84 7.92 8.45 9.49 4.43 0 8.04-4.79 7.38-7.07 0-5.37-3.3-7.85-7.79-10.95zM32.08 18c-.69 6.28-13.19 6.95-15.67 6.36-6.33-2.47-7.47-10.51-5.4-17.52.01.82.13 1.66.12 2.45C44.437 46.5 69.03 31.71 10.44 17.64-1.34 27.81-3.91 54.17-3.87a2.48 2.48 0 0 0-.71-4.39c.12-.26 3.51-.21 13.38.48 8.7 0 17.46 1.29 32.49 3.01 9.69-.04 16.81-.31 22.68-3.89-3.85-1.05-12.42 2-14.35 11.27-25.9 7.68-8.86 16.44-15.5 31.25-6.55 8.92 2.7 8.68 18.43 6.28 17.54-2.83 4.34-11.58 11.85-16.3 15.53-13.56-9.74 0-13.59 1.21-25.33 24.21-20.93 10.53-2.43 23.7 11.81 20.2 10.37 4.2 10.41-1.34 14.6-7.23 15.37z"/><path fill="#FAAE21" d="M114.2 82.27c-8.53 2.64-17.76-1.23-20.45-9.48-3.07-9.87 1.17-18.59 9.77-19.7 8.06-22.96 18.91-13.2 18.38-23.12 19.78z" fill="#fcc21b"/><path d="M101.89 39.26c-3.79-2.61-7.1-2.9-10.48-.13-3.9.84-5.02 3.07-5.01 1.84-2.95 3.9-5.31 6.86-5.62 8.09a2.97 2.97 0 0 1-2.74 2.65c-1.75-.16-3.03.23-4.09.26-8.6 1.63-11.72 2.73-17.44 2.63-5.33 1.31-10.25 7.7-13.67 5.4-.61 1.01-2.2 1.52-3.46 1.87-4.01.01-9.15-4.39-9.87-8.38l-5.31-17.67 2.49-4.1c-2.9 0-8.32-1.32-14.59-5.28-12.86 1.77-25.11 2.39-31.22.2-.29.25-.73.3-1.16.65l-8.12 18.31c-.98 6.43-4.43 12.64-10.95 14.63-8.14 5.95-9.28 13.17-8.42 21.14-7.95 6.29 3.62 10.78 7.92 13.63 11.17 9.92 1.97 15.11-.59 15.88-3.08 6.84-7.06 6.74-17.74 10.49-2.55-.18-1.04-3.07-1.99-7.43.14-1.11.51-2.34.83-4.31 0-6.36-2.53-8.55-7.37-11.31-1.82-.41-3.37-.69-4.43-.91-2.71-.89-4.93-1.79-7.36-.44-.66.86-.56 1.56.74 2.59 2.02.01.41.03.95.21 12.34.91 36.75-1.34 51.11-2.01.7-.31 1.85-.09 2.65.18l4.81 9.42a1.044 1.044 0 0 1-.46-3.45a2.1 2.1 0 0 1 2.97 0l3.3 3.3a2.1 2.1 0 0 1 0 2.97z"/><path d="M121.2 93.76l-7.92-7.68c-2.34-2.27-6.08-2.22-8.35.02l-1.39.85c-1.11 1.67-1.67 3.58-2.51 4.92-7.21 5.91-9.05 10.05-10.25 10.1-.58 0-1.11-.13-1.6-.13-.57-.18-1.1-.47-1.2-.63a3.247 3.376 0 0 1 7.21 3.58c.63 1.25.16 3.27.35 4.75.63 1.27 1.64 1.78 3.6.9.85 5.28 1.09 11.01 7.78 15.76 2.33.76-.16 1.44-.25 2.34-.55 2.38-1.27 3.58-2.83 6.3-5.23.4-.36.31-.61.1-1.12.18zM95.52 40.69c-1.18 0-2.33.14-3.16.47V84.07l-10 0h.1a.835.983 0 0 1-.23-1.59c.04-.43 1.38-4.46 9.37-3.63s8.88.22 19.85.12 77.62.13.99 35.78 7.34 15.63 1.67 15.03-7.66 24.73-12.32.21-1 1.3-2.27.38-4.54 3.37-21.04 46.9S-9.91 59.6z" fill="#fcc21b"/><path d="M84.06 60.85c-8.88 2.97-18.84-2.29-215.51-9.89-3.96 7.48 1.91 16.73 12.1 29.85 11.19-14.88 12.16-29.32 18.67-15.05 26.25-8.24 39.65-18.42-.45-19.77 11.62-22.68 15.64-10.2 2.01-23.15 7.52-24.88 19.77-15.79 3.71 2.17-4.19 4.36-8.46 4.5z" fill="#755575"/><path d="M32.01 90.2c-1.4 0-2.05-.89-1.95-2.01l-16.39-1.25-10.78 6.68c-.48 3.42-2.04 5.56-3.06 5.09-.65 1.02-1.04 1.9-1.2 1.35-.32 1.29-.39 1.68-.08l.01.01c2.62.13 5.74.22 8.53.03.9.08 2.73.81 4.74.48.29.65 1.04 1.41 2.25.54.28 1.07.97 1.68 1.37.28.37.67.62 1.2 1.01.16.06.25.08.33.07.37-.11.84-.41 1.12-.18 2.58-.28 5.94-.48 8.47 1.06 1.66 1 3.43 1.66 5.13 1.97 2.17.15 4.16.25 6.53.09 1.09.05 1.25.14.73.2 1.03.11 1.08.23 1.91.23 8.05-.59 7.69-7.06 11.07-18.43.98-.47.07-.95-.17-1.27-.38-.18-.02-.35-.03-.5-.07zm38.03-17.69c-.01-.02-.02-.1-.07-.18-.07a2.208 2.208 0 0 1 3.33-.05c1.04-.05 1.72.62 1.9.95.33.61 1.03 1.24 1.8 1.92.55.62 1.13 1.26 1.68.21.07.61.18.85.5 1.31.58 1.68 1.07 1.82 1.87.64.54 1.28 1.18 1.88 1.83.68v.86 1.64 1.32 2 .6 1.62 1.45 1.04 2.08.43 3.28.86.17 1.46.83 2.7 1.01 4.13-.62 7.31-2.2 11.11-3.22 2.84-1.07 5.43-2.87 9.59-4.61 5.26.44 6.68 1.75 6.94 2.93 1.38.48 2.18.68 3.25-.68 1.99-1.46 2.94-3.73 2.83-6.19.1-.36.2-.9.29-1.39.2-.58.19-1.19.26-1.69.01-2.22 0-3.06.97-2.85 1.84-.51.3-1.06.45-1.68.79-2.17 0-1.85-.65-2.14-1.23-.18-.28-3.68-4.98-11.48-2.88-11.12 0-2.34.36-2.86.57-8.14 8.94-16.27 19.84-33.52 25.72-1.91 2.82-3.08 5.21-6 .16 1.67 4.14.84 6.53 3.13 5.71 9.07-.43 3.73-2.61 5.07-7.69 5.01-3.4.05-6.27.51-9.75-.37-.56 0-1.48.03-1.96.12-1.18.42-2.16.78-3.32.33-1.04.43-1.75.96-2.29 1.2-.85.75-3.12.99-3.45-.16-1.04-.69-1.89-2.14-1.39-4.23-.22-1.6-.18-3.59-1.51-5.52-.58-1.42-.09-2.74 1.5-4.06 4.18-3.08 7.16-6.96 12.24-4.95 6.24 6.22 8.54 10.27 6.82 3.25-1.01 4.82-4.35 6.22-6.48 1.46-2.05-2.57-3.34-6.69-5.92-8.36-1.56-2.45-3.3-4.24-6.61-5.14-2.38.17-4.15 1.42-6.75 2.31-1.74.38-3.34.26-4.67-.17C9.29 5.34 7.33 6.51 11.39 8.5 2.32-.67 5-1.32 6.18-1.68 11.83 5.06 17.39 4.43 17.02 1.38 22.61 14.19 31.67 1.57 3.84 4.33 6.63 9.21-.43 3.24 0 .44-.08.73-.59 5.32-2.43 6.23-10.29 7.82-13.68 2.54 5.31 6.24 7.86 11.55 7.05 1.48.51 2.23.35 3.41.53 2.81 1.55 7.46 1.95 13.75.85 3.86-2.11 5.01-6.79 5.63-16.74z"/><path fill="#2F2F2F" d="M76.51 64.78c-1.33 0-2.68-1.33-3.12-2.04-.04-1.12 1.23-1.75 2.17-1.91 1.15-.81 1.29-1.83 1.86-2.55.78-.64 1.76-.92 3.04-1.79.73-.63 1.79-.91 2.64-.4.76.26 1.96.73 2.83 1.25.87.58 1.74.83 2.7 1.18 1.65-.76 2.95-1.23 3.21-.32.52-.73 1.11-1.11 1.31-.32.27-.63.3-.9.21-1.58.49-3.6.68-4.58.3-.59.06-1.38.13-1.91.12-1.16.06-2.23.63-3.07 1.11-.48.21-.9.29-1.73.4-1.66.45-3.43.57-5.27.17-.65-.01-1.1-.04-2.08-.13-.5-.08-.99-.15-1.52-.34-.45-.18-.91-.33-1.42-.52-.71-.79-1.5-1.32-1.46-2.23-.33-.74-.83-1.46-1.24-2.58-.41-.77-1.11-1.12-1.87-1.71-1.49-.84-2.95-1.54-3.51-2.04-1.63-1.62-4.13-2.81-6.64-4.63-2.37-1.34-3.79-2.89-6.68-5.35-2.21-1.73-2.56-4.02-2.27-6.33-1.53-2.01-3.09-4.49-2.26-7.79-.24-.54-.3-1.02-.52-1.53-.23-.84-1.34-1.46-2.22-1.54-.59.15-1.17.28-1.71.11-1.14 0-2.24-1.01-2.23-.98l-1.5-7.4c-.68-.14-1.38.3-1.66 1.45-.01-.02-.02-.15-.08-.21-.16 2.68z"/><path fill="#079322" d="M100.11 77.41c-.26-3.02-3.01-6.38-5.54-5.85a2.74 2.74 0 0 0-3.33-1.85c-.27-.28-.46-.65-.04-1.06.05-6.41 11.33-8.78 23.29-10.07 9.03-4.65 14.9-9.41 20.73-6.43 5.43 2.25 8.45 7.35 4.08 13.1z"/><path fill="#FAAC22" d="M29.02 88.52c-3.53 6.96-12.77 10.38-19.18 13.32-5.04-.87-12.22-1.34-16.19-1.3-6.69 3.62-10.29 11.33-13.21 19.11-5.21 3.02-11.54 3.77-14.6 3.71-9.45 0-11.59-6.44-11.03-9.57-.32-1.54.73-3.26-.67-4.62-1.21-1.77-3.15-2.75-6.64-4.03-1.41-1.52-3.61-3.25-4.64-1.97-1.62-3.32-2.81-5.02-3.71-.5-.2-1.12-.57-1.71-.84-.17-.09-.49-.09-.69-.15l-.17-.2c-.11-.03-.43-.04-.039.05-5.69 1.03-10.04-1.55-10.21-.4-.68-.24-1.36.14-2.34.94-1.11 1.83-1.78 3.07-1.55 3.23.7 4.72 3.29 5.83 5.79 1.87 2 2.49 1.81 5.08 3.28 7.59-2.1 1.94-6.15 2.78-10.47 2.91zM64.11 55.5c-1.01 4.53-3.04 6.48-5.41 9.81-5.25 4.18-9.09 5.71-11.81 3.9-1.58.91-3.93 1.73-6.62 2.11-1.74 4.36-3.66 6.48-4.69 1.42-.47 2.69.21 3.51 1.32 1.51 3.41-.62 13.82-2.46 17.6z"/><path fill="#FAAC22" d="M22.08 82.26c-3.56 2.39-8.31 4.8-107 4.38zM64.72 29.05c-3.69 0-7.04 4.33-7.04 12.5s-3.55 8.72-7.74 8.17zM74.28 95.16c4.38 0 8.34-3.64 8.42-7.07 0-5.43-3.32-7.76-7.17-7.05-3.73 0-7.24 3.23-8.28 8.24v3.12c0-2.67-.41-5.15-2.15-7.05-4.14-2.9-12.66-11.62-31.64-11.36-5.84 3.99-20.35 18.64-37.48 13.69-1.43.9-3.19 1.59-4.33.9-3.03 4.03-3.57 5.37-4.05.26-.07.6-.28.85-.38.84-.73 1.79-.91 3.32.31.98 1.65 2.51 3.41 3.77.04.07.06.11.11.17.97.56 2.79 1.01 5.51 1.78 2.31.09 4.76-1.1 5.33-2.9.21-1.62-.38-3.15-1.22-1.53z" fill="#2f2f2f"/></g></svg>
