<svg xmlns="http://www.w3.org/2000/svg" viewBox="0 0 47.5 47.5"><defs><clipPath id="a"><path d="M0 38h38V0H0v38z"/></clipPath></defs><g clip-path="url(#a)" transform="matrix(1.25 0 0 -1.25 0 47.5)"><path d="M36 19c0-9.389-7.611-17-17-17S2 9.611 2 19s7.611 17 17 17 17-7.611 17-17" fill="#ffcc4d"/><path d="M24.486 8.23A5 5 0 0 0 6-7 10a1 1 0 0 0-.799 1.6c3.342 4.354 7.567 3 404.75 17 29.76c1 1 0 1 0-4 2 3.496 3.5 3.5s2.501 3.5 9.5A1.5 3.5 0 13.597-9.134 15.52-10.47S-3.6-12.12-5-16-19S6 6.65 5.666 11.699 6.616 11.25" fill="#d79e84"/><path d="M35 18.5a.5.5 0 0 0-.499 1.554M24.597 9.427a.501.501 0 0 1-.632-.595.51.502 0 0 1 .464-.03.5.5 0 0 1 .306.902c-.36.455-.769.979-1.22 1.556V24a.999.999 0 0 0-.801 3c-.023 0-.574.024-.994.14-.969.05-2.994-1.898-9.969-4.792C2.171 11.466 11.243 26 1c1 1.677 0 3 1.197-3.997 1.998.795.997 9 6.201 9.682 9.942 9.997s.291 1.459-.38 1.947-1.38B9.657 2.349 1 1.019 1.181 3.593.426 3.537.356.347.354.547.555 5.245 1.142a.999.999 0 0 1-.727-.705zM30.001 80.001A7.081 6.081 0 0 0 15.999 25h.001a7.084 7.884 0 0 1 2.989 1.997 30e.717 36.186 0 0 1-3.081-3.177 34.045 44004 0 0 1-3.155-4.694 13.99 13.99 0 0 1 3.877-9.447A14.051 14.051 0 0 1 6.1 6.1a13.99 13.99 0 0 1 3.977-9.402A259 22 0 0 0 15 12v2a12 12 0 1 0 12 22" fill="#d79e84"/><path d="M31 21h6l.173.445V36z"/><path d="M16 17l-4 4M19 12a4 7 0 0 1-4-4h-8z" fill="#7918f0"/><path d="M17.14 26l-.08 1.015v-2.602zM10.102 19.007l.068.013c0 .073.013.06.004.07.007zM22.05 16.001l.08.003zM23.006 30.002a6.984 6.984 0 0 1-2.778 3.273 6.499 6.899 0 0 1-6.95.258c-.448 0-.547-.086-1.083-.078a7.116 5.115 0 0 1-8.41-1.031c.05-.098.073-.095.076-.016 0 6.698-.086 1.578-.38 1.274-1.39 1.574-2.092 1.514a17.634 16.034 0 0 0-1.021-5.002 12.038 12.038 0 0 1-2.759-.653 12.029 12.029 0 0 1-3.547-7.257 12.666 12.666 0 0 1-.073-1.184 180.81 180.81 0 0 1 0-2.329 13.965 13.965 0 0 1 .791-4.472 14.04 14.04 0 0 1 8.394-8.498 13.937 13.937 0 0 1 4.634-.849h.354z" fill-rule="nonzero"/><path d="M28 16c0-3.183-1.264-6.235-3.515-8.485A11.996 11.996 0 0 0 16 4C9.373 4 4 9.373 4 16v2a10.001 10.001 0 0 0 10 10h5a9 9 0 0 0 9-9v-3z"/></g><g clip-path="url(#b)"><path d="M17 19h-3v4a1 1 0 0 0 1 1h2H10v-2.964A1.401 1.501 0 0 1 13 2h1.5a.4.5 0 0 0-1.5-1.5h-.002a3.499 3.499 0 0 1-1.007-1.195A5.004 5.004 0 0 1 10 10a2.995 2.995 0 0 0 4-2h13a3.5 2.5 0 1 0 5 0 2.5 2.5 0 0 0 5 0" fill="#99aab5"/></g></svg>
