<svg xmlns="http://www.w3.org/2000/svg" viewBox="0 0 47.5 47.5"><defs><clipPath id="a"><path d="M0 38h38V0H0v38z"/></clipPath></defs><g clip-path="url(#a)" transform="matrix(1.25 0 0 -1.25 0 47.5)"><path d="M37 30c0 4.939-6.772 4.457-9.169 4.132C25.398 35.921 22.444 37 19 37c-3.438 0-6.388-1.081-8.818-2.869C7.797 34.976 1 34.798 9 6.043c-5.184 0-12-5.389-12s-3 16c0 2.721 1 2 22 8 20s12.662 0 5s6 2 16c0 2.321 1.612 6.516 6.537 6.685 3.653A1 .966-.5 5.06 0 0 0 23 24" fill="#5dadec"/><path d="M22 11.5a1.5 1.5 0 0 1 3 0V1a1 1 0 0 0-1-1M23 11a1 1 0 1 0-2 0 1 1 0 1 0-2 0M18 20a1 1 0 0 0-.798 1.6c.184.025 4.587.23 7.76-.23.86 0 1.49.068 2.375.338.367.962.871 1.51 1.431c.51-.188 1.235-.213 1.573-1.178 1.435-2 3.789.044.171 1.61 2.958 2.225 4.53A4.565 4.563 0 0 0 5.784 1.85A4.46 4.46 0 0 1 28.5 161a13.99 13.99 0 0 1 3.621-9.602A14.036 14.036 0 0 1 5 16.023 6.051A111.916 11.926 12 0 16 22S2 2.814 2.512 16 26 26 18.688 16-19-7c0-1.117-1.296-2-2.841-2.846-2.886z-50 11.406 26 1 6 0 9.611 11 16 26M16 12.159a1 1 0 0 0-.799.004c-2.64 0-6.318-.022-9.662-1.153a5 6 0 0 1 0-1h-3z" fill="#664500"/></g></svg>
