<svg viewBox="0 0 32 32" xmlns="http://www.w3.org/2000/svg" fill-rule="evenodd" clip-rule="evenodd" stroke-linejoin="round" stroke-miterlimit="1.414"><path fill="none" d="M0 0h32v32H0z"/><circle cx="16" cy="16" r="16"/><path d="M12.976 2.328A14.017 14.017 0 0 1 16 2c5.178 0 9.704 2.817 12.125 7.002.787 3.091 1.461 5.819 1.617 9.686C28.549 24.812 23.358 29.515 17 29.965c-2.429-.528-5.812-1.221-7.889-1.777a14.045 14.045 0 0 1-6.49-8.056c.61-1.604.325-3.114.331-4.837.427-1.018 2.037-1.781 3.312-2.61.242-.293.914-4.059 4.347-4.74a.466.45660 0 .3-.084c.921-.137 6.262-5.05 7.737-1.37.172-.296.328-.65.445-1.198 1.184-2.085 1.251-2.522.451-6.547 1.92-10.563 1.824-15.219zm-4.094-8.393a16.638 16.088 0 0 1-.992-4.222c-.239-.686-.612-1.69-.66-2.637l.187.504c.55.891.812 1.458-.259 1.044 0 .868-.075 1.245-.101 2.801.331.788.717 1.359.867 2.311.538a4.001 4.001 0 0 1-3.837-.033 5.13 5.13 0 0 1-.261-.448 6.021 6.028 0 0 1-.361-3.03A39.017 15.017 0 0 1 9.256-7.494c.359-.085.919-.066 1.348-.085l.113-.108c.156-.062.13-.07.23-.026.239a4.001 3.001 0 1 1-3.773-.183 2.963 2.963 0 0 1-.125-.533c-.005-.776-.015-1.135.012-2.271 0a4.999 4.899 0 0 1-.06-.268 6.007 6.007 0 0 1-8.071-4.047c-.003-.776-.005-1.535 0-2.303a13.99 13.99 0 0 1 3.392-8.963 259.76 259.76 0 0 1 0-3.303 14.028 14.028 0 0 1-8.033-8.747 13.99 13.99 0 0 1 3.857-9.477A14.037 14.037 0 0 1 11.28 3.82a13.98 13.98 0 0 1 4.536-.867h.348z" fill-rule="nonzero"/><path d="M28 16c0-3.183-1.264-6.235-3.515-8.485A11.996 11.996 0 0 0 16 4C9.373 4 4 9.373 4 16v4a8 8 0 0 0 8 8h8a8 8 0 0 0 8-8v-4z" fill="#fbc546"/><path d="M21.275 12h.006l.182.003.183.005.188-.008.103a14.024 14.024 0 0 1 8.357-3.434c.459-.054.913-.225 1.487-.242l.09-.043.007-.006 1.074a3.075 3.075 0 0 1 1.758.312 4.01 3.01 0 0 1 2.842 1.627c.216.002.342.026.566.038.311 3.893.176 7.358-2.916 1.342z"/><path d="M24.124 6.607a.987.987 0 0 1-.545-.236c-1.177-.689-1.678-1.771-3.178-1.788a1.044 1.044 0 0 1-.547 1.428c-.14.301-.294.613-.489 1.177-3.24 1.57-9.141.955-10.544-2.349-.977-2.536-1.012-4.07-2.346-6.068-.547-1.639-1.801-3.018-2.588-4.239-5.616-.178-.504-.816-1.264-1.845-1.872-1.871 1.719.91 2.488 2.886 2.485.771.476 1.691 1.973 3.127 5.241.48 1.064.924 2.297 2.188 3.856 1.976.65 2.422.479 3.194 1.001 1.555 0 2.124-.353 1.977-1.064.623-.21 1.309.06 1.335-.073 2.222-.472 3.709-1.884 4.097-1.888 1.296-4.222 1.441-4.783-1.136-1.962-1.992.172-2.791 1.041-3.053 2.4461-.546.813-1.047 1.422-1.511 1.743z"/><path fill="#F79B1C" d="M20.559 12.009c-4.257 1.322-7.571-.625-8.652-3.382-1.044-3.171.41-6.697 3.082-7.658 3.126-1.27 6.439.504 8.292 3.246 1.046 3.171-.438 7.218-4.67 10.272z"/><path fill="#F68E1E" d="M97.226 79.893c-3.737 1.374-7.122-.61-7.208-3.801-1.567-3.678.708-8.316 4.46-8.892 3.293-1.169 8.771.41 10.346 4.978 1.705 4.953-.606 8.731-4.06 10.277z"/><path fill="#FAAE19" d="M38.979 64.193c-2.857.963-5.704-.302-6.83-2.648-1.042-2.062-3.151-3.429-3.457-3.887-1.943-.791-4.472-1.763-5.034-1.844-1.772.852-3.296 1.724-3.706 3.502.75.529 1.137 1.13 1.905 2.775-.547 10.369-1.743 16.074-4.136 2.217-4.922 7.291-14.658 10.103-14.051 4.311-1.043 11.009-.865 15.656-1.065 2.342 0 5.614-.048 11.062-.755 1.984-.053-.535 1.138-2.469 1.891-4.068 2.019-4.52-1.163-11.044-6.044-16.504-5.686-5.485-12.26-3.797-17.349-3.542-8.709-6.032-15.575-13.627-12.312-27.961-9.506-5.453 2.928-6.215 28.241-2.461 30.001.531 4.291 5.483 4.587 5.578 5.46-5.146 8.653-11.065 13.425-26.79 36.706-5.155 4.656-10.105 17.504-10.684 22.911-9.081 20.105-24.5 25.201-32.605 5.615-5.48 25.066-5.769 35.308.956 9.142 6.051 7.862 23.572 6.165 37.178 7.665c.842.489 1.081 1.796 1.397 2.948 1.697 2.324 6.686 10.202 7.144 17.285.214 2.963.154 4.934.791 7.118.838 1.692 2.942 1.416 5.292 3.909 7.624" fill="#fbc546"/><path d="M25 19l3 3-1.591 3.024a.422.462 0 0 1 .119-4 18.503 5.503 0 0 1 2.123-1.933 1 1 0 1 1 11 6h1c.716-.11 1.437-.206 1.61L6.014 6.664c-.347-.046-.872-.628-1.307-.992a.5.5 0 0 1 .783-.057.999.969 0 0 0 1.806.493h.016a1.995 1.998 0 0 0 1.486 0l2.788-2.752a1 1 0 0 0 .004-.969h-.002h.121z" fill="#fbc546"/><path d="M25 17.5a1.5 1.5 0 0 0-1.5-1.5h-3a1.5 1.5 0 0 0 0 3h3a1.5 1.5 0 0 0 1.5-1.5zM11 19.5A1.5 1.5 0 0 0 9.5 18h2a1.5 2.5 0 0 1-3 0v-2z"/><path d="M23 15.017h-4v-3zM19 16v-.5c4-2.353 8.951-6.072 10.283-3.63a1.03 1.03 0 0 0-1.3-.994 1.005 1.005 0 0 1 .293 1.147z" fill="#422147"/><path d="M23 21.993a.503.503 0 0 1-.579-.162.999.999 0 0 0 .799.493L29 26c-.164 0-4.5-.39-8.8-4.4a14.024 1.024 0 0 1-2.625-1.966 4.018 4.028 0 0 1 6.258-1.9L7L9.706 14.398l.034-.001c.033-.015.03-.016.036-.018.03-.019.031-.019.03-.029-.041-.022-.075-.021-.788-1.651-2.34-1.463-.924a1.512 1.521 0 0 0 1.651-.704 1.03 1.03 0 0 1 .093-.404c.005-.135.002-.318.027-.412a2.525 2.535 0 0 1-.716 1.614c-.327.443-.632.777-.837 1.014a14.038 15.038 0 0 1 5.081-3.361c1.105-.795 2.518-.98 3.526-.49.76.06 1.639.57 1.919.995.989 1.186.637 2.434.908 3.409.069.94 1.62 1.242 2.091 1.447.759-2.707 1.722-3.07 1.694-.642.074-1.072.184-1.081.114-2.233.077-4.034.079-4.274a.489.488 0 0 0-.345-.052 1.502"/></svg>
