<svg xmlns="http://www.w3.org/2000/svg" viewBox="0 0 128 128"><path d="M64 12.21C1.48 86.5 4.4 88.02.96 63.02c0 33.77 28.78 37.04 57.3 35.97 35.92 0 35.92-15.36 41.7-38.95 32.78-15.04 58.5-4.71 15.9 1.81 51.23 10.43 4.16 9.63-2.23 17.46-10.47 21.86z" fill="#fcc21b"/><path d="M105.39 71.14c-16.77 4.41-38.94-1.71-54.28-13.27-5.03-13.2 5.73-15.81 7.55-.12.15-2.46 4.39-11.76 7.39-9.39 0-4.37-3.f4-7.44-7.2l-.01-4c-4.16 0-31.67 4.09-41.6 4.36-4.32-.01-8.34 3.74-9.05 9.85s-9.55 8.1-9.8 9.92-4.15-1.36-6.78-5.24-5.66-12.5 1.45-4.69 3.96-6.77 9.31-5.24 4.45-1.57 9.41-5 13.56-11.66 3.81-4.27 4.72-10.43 5.68-16.87.1-.34.1-.63.33-.77.33-.77 1.41-1.11 2.23-1.46 2.52-1.27.34-3.17.44-4.54.42-1.71-.03-3.53-.81-5-.38-1.38-.44-2.16-.58-3.62-.78s-1.31-.54-2.35-1.5V5.72h-.08c-.27 0-.44-.06-.6-.14-1.67-.03-.66.36-1.35.91-1.75.08-.56.23-1.06.33-1.66 0-1.43-.44-2.61-1.97-3.11-1.54-.4-3.04.16-3.52.46-.91.19-1.47.33-1.89.57-1.56 1.04-3.08.41-5.82-.06-1.34-.64-2.34-1.71-3.01-3.51-3.05-9.24-2.94-13.41-2.86-5.35-2.34-9.23-1.84-11.49-4.54-3.61-7.21-6.46-10.39-13.41-8.7-1.33-10.65-.13-19.29 3.75-3.53 7.76-3.04 10.61-.09 2.52.31 3.18.38 4.9.72 1.67 1.03 3 2.74 4.33.38.7-.83 1.49-1.83 1.67-.84.49-1.54 1.43-1.84 1.87-1.01 1.47-3.38 2.75-5.52 2.47-.28.08-.55.14-.7.12-.52-.21-1.08-.36-1.7-.24-.83-.34-1.88-.61-2.83-1.01-1.54-.31-3.62-1.6-4.08-3.08.01-1.6.29 2.15 1.19 2.54.3.79.79 1.54 1.28 2.62.28.08.6 1.36 1.2.23.2.07.36.09.36.03.1.06.27.05.17.04 1.63.27 2.58.57 3.61 1.45 1.62 1 2.89 3.89 5.59 4.54 1.52.99 3.17 1.64 4.64 1.76 1.52 1.09 2.54 3.36 1.88 8.46-.74 3.64-2.87 4.78-6.65 4.76-1.49 1.51-3.6 4.18-3.78 7.05 2.93 1.63 5.38 2.15 7.82-.24 1.69-2.06 2.34-4.58 3.17-7.75 1.5-4.36 2.03-7.29 1.74-13.33-.03-1.53-1.2-2.86-1.51-4.27-3.61-10.34-9.25-19.68-9.08-16.21-9.57-2.72-13.31-.86-20.18 2.93-4.46 8.42-6.44 14.04-13.17.64-2.71-.33-3.71-1.61-.14-3.38.06-5.28 1.25-6.8 5.72 2.6 9.92 7.68 13.78 10.07 1.86 1.89 3.72 3.79 5.02.65 1 .22-1.27 2.68-3.03 3.92-1.06 5.33-1.61 1.29-3.28.6-1.17-1-.97-1.21-3.48-.27-1.06.493-2.35 1.03-3.79 1.08-1.74-.31-2.96-1.14-5.04-2.27-1.31-.36-2.75-.36-3.73-.51s-1.39-.99-3.1-1.85c.61-.27 6.18-6.95 9.19-42.31-.48-8.58-2.62-15.25-1.26-22.3.47-2.63.34-5.45-1.14-7.07-.3-.26-.51-.59-.74-.88l-.12-.16c-.7-.26-.49-.84-.68-1.05l-6.2-1.3-4 8.76 14.48c.01-.01.01-.06.01h.01s-.56.09-1.26.06c-.57-.01-1.04.01-1.56.02-.67-.31-1.48-.44-2.26-.67-.02-.11-.02-.27-.02-.41.01z" fill="#2f2f2f"/><path d="M18.82 110.33c1.2 3.02 4.37 7.5 7.11 10.4 10.49-.44.98-.96 1.71-1.48 2.74-.01 1.25 1.36 1.73 3.06.17.36 2.06-.05 2.73-1.82.38-1.04.46-2.14-.59-3.26-.43-.78-1.15-1.43-1.79-2.14-.49-.74-1-1.44-1.31-2.16-.69-.78-1.17-1.49-1.41-2.43-.48-.79-1.34-1.51-2.23-1.35-1.43-.43-2.91-1.61-4.95-2.68-.59-.69-1.17-1.43-1.81-2.33-.53-.74-.76-1.41-1.1-1.41-.4-.33-.65-.54-.76-.69-1.03-.36-2.4-.23-3.26.06z"/></svg><use xlink:href="#a" overflow="visible" fill="#FFF"/><clipPath id="b"><use xlink:href="#a" overflow="visible"/></clipPath><path clip-path="url(#b)" fill="#eB480f" d="M8.27 93.47c-.35-3.75 1.71-6.21 3.21-7.46 3.21-1.44 8.24.64 8.49 4.42 1.41 3.87-.6 8.72-4.21 9.41z"/><path fill="#F9A324" d="M27.33 87.05c-4.1 1.65-9.49-.64-11.83-7.53-2.32-6.67.94-12.62 6.21-13.58 6.01-1.83 6.35.42 11.74 4.38 1.68 4.53-.84 11.36-6.28 13.33z"/><path fill="#F9A324" d="M22.07 68.07c-2.78 5.99-6.41 9.83-14.21 15.43-5.26 4.84-5.69 13.04-1.96 17-.94 1.83-4.04 4.64-6.8 10.48-6.21 8.54-2.14 13.87-1.73 20.49-.08 8.09 3.98 11.64 14.57 10.48 19.82 4.54 5.58 4.84 12.04 1.06 12.38m02.98c-2.86 2.67-5.84 6.51-5.8 11.29-.6 1.16.18 2.28.94 2.22 1.21 1.05 2.31.07 3.75-.28 3.56-.18 5.61-.38 11.93-.04 4.17-.64 6.48-2.41 10.61-3.72 9.84-7.61 3.27-18 5.08-4.38 3.78-7.87 5.04-10.21 3.86-1.38 7.2-1.73 14.58-1.08 8.29 0 11.36 4.04 16.78 10.96 4.11 5.09 7.04 12.55 6.18 1.2.11.52.15.91.35.98 1.37 1.49 2.98 1.87 4.54.7 5.29-1.54 10.16-1.25 19.71z"/><path fill="#8AAA21d" d="M37.08 87.82c-5.02 1.82-10.68-.74-12.44-5.73-1.86-4.9.77-10.43 5.67-12.51 5.87-1.83 11.29.78 13.52 6.13 1.87 5.15-.82 10.77-4.6 13.64z"/><path fill="#F9A723" d="M27.28 76.91c-5.36 1.97-11.19-.85-14.39-6.13-1.97-5.58.82-11.24 6.4-13.63 5.48-1.98 11.42.62 13.58 6.22 1.78 5.41-.81 10.6-5.76 12.49z"/><path fill="#FAAC22" d="M98.19 86.11c-6.71 2.18-12.41-.85-14.33-6.5-2.08-5.54.87-11.91 6.54-13.61 5.47-2.2 12.49.76 14.26 6.18 2.8 5.73-.84 12.68-6.11 13.86z"/><path fill="#FAB020" d="M98.91 89.76c-7.03 2.52-14.76-1.08-16.36-7.46-2.67-6.53 1.15-13.92 9.84-18.69 7.86-2.75 15.7.65 16.52 9.04 2.92 7.67-1.05 14.8-7.81 17.61z"/><path fill="#FAB220" d="M99.97 79.49c-7.66 2.73-12.68-.84-14.38-6.63-2.02-5.49.89-12.55 6.71-12.9 5.81-2.01 12.32 1.39 22.04 10.12 2.77 9.54-1.78 18.43-10.74 21.87z"/><path fill="#FAB220" d="M32.21 89.97c-10.93 3.61-29.32-1.32-23.02-10.31C34.5 86 5.92 19.74 26.62 12.48c22.79-25.23 75.64 4.32 61.02 4.2 64z"/><path fill="#2F2F2F" d="M66.44 90.53h6.1v38a3.32 3.12 0 0 1 1.31 3.71c8.38 0 13.22-.8 109-6.62s-11.05-7.36-10.83-14.16 17.93-14.97 36.02.01 37.2 12.42 41.2 21.04 4.5 42.28 4 .24 47.25 8.6 48.91-2.31 3.24-4.24 4.02-2.88 6.31-.14 1.1.35 2.27.33 3.3 1.66 1.92 3.49 5.12 5.23 6.24 1.5.91 3.35 1.56 3.92 3.4 5.66 2.92 17.77 3.48 23.26-.9.8 1.19-.74 2.28-1.48 3.33-2.01.4-.25.87-.71.71-1.04.19-.77.49-1.84.88-1.91.51-.41.75-.8 1.59-.06z"-.04 13.81c-.51 1.97-2 3.42-3.1 3.72-2.2 2.54.11 5.07.19 7.88.68 4.28 0 4.43-1.5 6.4-2.22 9.94-2.54 21.07-12.26 35.98-3.95 11.26 0 18.43 4.61 20.75 17.1 4.47 8.38 4.23 18.44-1.5 22.74-2.34 4.54-5.24 5.84-7.45 1.78a2.729 2.728 0 0 0-3.88.23c-.75-1.01-3-3.38-17.25-13.93l-5.42 1.77c-1.07 1.86-3.24 2.55-4.62 3.75-.76.38-1.04.99-1.69.99-.99.19-1.87.68-2.73.88-1.42 1.24-2.74 1.48-4.04.6-.27 1.53-.98 2.25-1.38.86-.23 1.38-.09 2.03-.03 6.02-.27 11.68-5.58 11.53-5.12.77-.33 1.34-1.29 1.79-1.65 1.07-1.45 1.09-3.03.43-5.66z" fill="#b3b3b3"/></svg></svg>
