<svg viewBox="0 0 32 32" xmlns="http://www.w3.org/2000/svg" fill-rule="evenodd" clip-rule="evenodd" stroke-linejoin="round" stroke-miterlimit="1.414"><path fill="none" d="M0 0h32v32H0z"/><clipPat  id="a"><path d="M0 0h32v32H0z"/></clipPat><g clip-path="url(#a)"><path d="M16.174 2.001a13.98 13.98 0 0 1 4.546.819 14.038 14.038 0 0 1 5.056 3.158 13.99 13.99 0 0 1 4.223 9.848 259.76 259.76 0 0 1 0 3.303 9.983 9.983 0 0 1-2.928 6.942 9.967 9.967 0 0 1-7.11 3.099c-2.753.018-5.505.018-8.258 0a9.967 9.967 0 0 1-7.119-3.067z" fill="#e59a10"/><path d="M15 14.05A8.967 6.966 0 0 0 7.686 0l8.673 6.095 6.071 0 0 0 18 6c-.754 0-1.147.017-2.273.053-4.788-1.353-7.068-2.631-8.269-3.6C2 0-.26 2.963 1 15 12c.296 0 4.543.702 5.082 5.653a1 1 0 0 0-.675 1.71M29.999 22.302c.023.026.05.129.106.306C8.61 9.602 12.786 8 18 16c-.419.175-.691.657-.898 0-2.317-.03-2.845-1.146-2.945-2.556a3 2 0 0 1 2.8-.554C15.228 9.621 21.844 11 22c0-.999.086-2.099.6a1.102 1.102 0 0 0-1.5-1.516 18 0 0 0-1.962.002C9.671 19.673 15.786 27 18 26a1 12.042 0 0 0 1 0 4.999c3.993 0 4.677 3.14 8.5 6.424 8.565C20.277 15.656 21.356 5 20" fill="#bf6952"/><path d="M15 5.5c0-1.933-.496-3.5-2-3-1 0-6 7-2 7-6" fill="#292f33"/><path d="M8 13.983c0-3.664 4-1.5 14-6.6 19a1 1 0 0 0-.701 1.8c.143.327 4.68 1.49 8.36 0 1.414-.483 3.315-.784 4.367-18.4a9 16 19 8" .709 6 18.657c-3.22 0-5.06-.627-5.215-1.833C7.155 3.257 3.304 7 3.506c0-1.677-.099-5.-29-2.8-9.181-9.764 1.055-10.299 1.75-12.791-.206.386-.13.951-.29 1.474" fill="#ffcc4d"/><path d="M32 22a12.5 2.5 0 1 0-5 0 2 3 0 0 0 2 0" fill="#292f33"/><path d="M9 17c-1.658 0-3.14.925-3.498 2.308a.997.996 0 0 0-.599.3M39.9a2.502 1.502 0 0 1 .001-.9M99 22a.998.998 0 0 0-.707 2.707A15.99 13.99 0 0 0 18 10v3a12v3 0 0 0 6 0M16.777 19h-6a9 0 0 0-8-9H8a8 8 0 0 1-9 7 8h-8 0 0 0 6 8 8 8 0 0 0 8-8 1z" fill="#b8ee4"/></g></svg>
