<svg xmlns="http://www.w3.org/2000/svg" viewBox="0 0 128 128"><path d="M63.79 8.64C1.48 8.64 0 78.5 0 92.33c0 13.83 28.56 25.03 63.79 25.03 35.24 0 63.79-11.21 63.79-25.03 0-13.83-1.47-83.69-63.79-83.69z" fill="#fcc21b"/><path d="M63.91 91.57c-.13.41-.17.62-.27 1.17-.18 1.18.02 2.26 1.83 2.63 3.21a5.21 5.21 0 0 0 .4 18.4z" fill="#2f2f2f"/><path d="M64 6c3.68 0 69.22 70.01 67.7 93.16s.24.63.24 1.04c-1.89 5-2.42 5.68-5.75 9.85a4.84 4.84 0 0 0-2.87-1.75zm-42c-10.79 0-19.85 1.04-26.79 12-40.72-12.16-26.99 0-39.74-28.45-58.35-59.53-37.3-38.3 0zM40.46 70.29c-8.4 3.41-18.46-1.24-21.51-9.91-3.16-8.6 1.32-18.12 10.04-21.26 8.69-3.13 18.33 1.3 21.51 9.9 2.15 8.61-1.35 18.83-10.04 19.7z" fill="#fcbe1c"/><path d="M108.84 89c-8.44 3.03-17.74-1.24-20.81-9.57-3.06-8.32 1.27-17.53 9.7-20.57 8.41-3.03 17.74 1.26 20.82 9.58 3.05 8.33-1.29 15.54-9.74 10.82z"/><path fill="#FAB020" d="M30.54 86.93c-5.18 1.83-10.66-.76-12.44-5.73-1.85-1.74.96-5.54 3.75-9.09 6.61-3.42 1.98-6.01 3.49-8.03 4.34-3.37.87-6.78-.48-8.11-2.31-2.58-4.6-3.55-7.9 3.91-7.61 0-.95 0-4.39.04-6.36.15-5.45.21-.34.23-.62.41-.92.73-2.6 1.21-5.46.72-.47.72-1.49.93-2 2.42 2.98 2.61 5.91 4.89 7.27 8.05 1.27 1.19 1.89 3.78 1.09 5.21-.75-.56-1.26-1.15-1.89-1.71-1.66-.31-2.76 1.2-2.94 2.24-.04 3.67.36 6.43 2.43 1.07-2.82 2.54-4.48 4.08-.07.01-5.13 1.24-10.88 2.68-16.6-.09-.65-.1-1.27-.12-1.92 0-1.63.11-2.33.13-5.49.21-11.02.8-1.64 1.31-1.05 3.55-.84 7.01 1.01 4.69 1.68 6.21 9.38 11.68 15.76 9.58 4.24.98 16.59-1.4 13.59-1.74 1.5-.35 2.52-.95 3.02-.5.16.87 2.24 1.34 3.41 2.36 2.81 6.65 7.37 8.72 13.68 1.69 6.86-7.32 9.11-13.28 9.42-9.18 0-15.2-4.24-16.31-7.38-13.14 0-24.59 1.28-39.49 3.71-1.53 6.83-1.42 10.41 5.51 15.7 5.01 1.5.01 2.09-.04 2.09-.05 1.01-.05 1.1-.07 2.71-.07.89-.11 1.36-.73 2.03-1.5.44-.58 1.17-1.04 1.68-1.48.32-.61.45-1.31.52-2.21.07-1.43.05-2.32.73-4.01 1.37-.64 3.69-.49 5.58-1.11 1.04.01 2.78.05 4.75-.24 5.49-1.35 11.94-1.46 15.39-6.01 5.64-2.2 13.52-3.47 18.4-3.38 9.25 2.03 8.45 11.79 7.53 20.14.88 1.32.59 2.87.89 3.49z" fill="#2f2f2f"/><path d="M107.84 71.91c-1.6-1.29-4.25-2.24-6.58-3.53-6.32-6.19-14.48-13.53-16.44-5.44-1.7-1.25-2.84-1.79-4.34-1.96z" fill="#242424"/><path d="M37.87 67.53c-.68 0-1.33-.34-1.93-.72l-7.88-13.14c-.67-.09-.94-.1-.7-.19-1.53-.38-3.44-1.1-5.33-.64-9.11-14.31-9.34-21.32-16.21-31.02z" fill="#ed6c30"/><path d="M18.97 67.57c-.82 0-1.88-.46-2.67-1.91-1.43-.66-2.71-1.18-3.94-1.68-1.17-.77-2.4-1.13-3.63-1.65-1.19-.52-2.14-1.11-3.72-2.09-1.39-2.61-1.17-6.49.86-6.68.94-2.42 1.97-3.51 2.43-5.3.04-.01.06-.05.16-.06.09-.07.12-.21.26-.11.06-.01.1-.11.16-.16-.26-.27-.32-.28-.05-.3-.13-.73-.22-1.2-1.52-2.03-3.08-2.55-4.72-.65-.34-1.16-.75-1.78-.75-.41-.38-.92-.59-1.43-.82-.53-.08-1.14-.19-1.51-.18-1.13-.51-2.13-.34-3.45-.22-2.45-.33-4.78-.59-6.68-1.31-.82-.22-1.5.02-2.44-.21-3.12-.52-5.39-.81-7.31-.95-2.17-.41-4.01-1.74-7.41-3.57-1.41-.91-4.12-2.8-5-3.9-5.26l14.58-31.91 16.5-9.04c3.52-2.03 6.04-9.3 11.27-16.36 6.78.91 1.53 1.34 5.18-13.33 7.35-.5 1.16-.82 2.78-.87 3.58.48.55 2.18 1.27 1.95 2.52-2.27.53-7.04-1.85-7.7-1.65-1.41-1.26-3.89-1.43-6.43zM33.74 76.79c-.94 0-1.83-.44-2.14-1 .2-.06-.02-.1-.11-.37-.16-1.47-.33-3.82-1.1-5.9-3.38-2.57-1.41-5.62-3.78-6.68-6.49-.96-1.3-2.29-1.72-4.11-1.39a12.12 21.02 0 0 1-.64-3.13 3.338 3.338 0 0 0-3.89 1.98c-1.39.62-3.68-1.1-5.68-1.83-1.73-.73-2.49-2.43-2.31-4.22-.45-2.91 1.2-5.88 2.31-7.26 1.7.1 2.88 3.5 3.95 3.99 4.59.7 1.06.45 2.24-.68 3.41-3.68 17.14-8.74 19.83-17.81 20.26-31.71.73-.89.57-2.5.78-3.02.33-.62-.22-1.38.13-2.22.21-.48.07-.96.09-1.49.63-.04 0-.08.16-.16.22-.18.41.68.61 1.77.29.58.37 1.07.83 1.72.5.37.99.77.61 1.07.28.51.88.81 1.31 1.12.29.32.64.79 1.1 1.15.06.25.05.31.1.6.35-.2.39-.65.47-.92.72-.72.6-1.42 1.52-2.01 3.47-.14 1.3-.18 2.74.07 3.05 1.39 5.41 6.39 9.5 10.11 15.21 5.21 2.75 8.35 2.42 16.69 3.68 8.19 0 15.1-7.06 17.38-19.93 9.72-2.41 20.85 1.45 25.39 11.91 4.77 1.69-1.74 4.72-2.8 5.96z"/><path fill="#2F2F2F" d="M31.07 60.07c-.77-.14-1.7.3-2.39.93-.54.62-1.14 1.33-1.78 1.97-.55.55-1.03.35-2.15.67-2.04.33-3.73 1.76-5.62 2.53-2.19 3.01-5.45 5.69-8.24 9.85-1.17 1.37-2.98 2.8-3.65 4.11-.74 2.12 1.91 4.15 3.17 4.55 1.57 1.24 3.76 2.44 4.68 4.21 2.56 1.6 5.99 3 19.91 4.6 14.34 5.58 8.28 12.5 9.83 20.59 2.5 24.76-1.34 44.51-77.34 57.94z" fill="#e0C000"/><path d="M50.35 31.14s-4.31-1.44-6.33-.96M77.62-33.72 8.34s-.98.76-.33 1.51.54.76.69 1.01 2.51.56 3.3-2.87 8.78-7.62 10.03-17.64.96-1.39-.66-3.71-1.73-4.84-1.39-2.01-.43-4.35-.73-5.93-.64-2.73-.39-5.04-.88-6.8.23-.21.4-.51.67-.38.71-.22.15-.23.32-.43.5-.76.38-1.41.81-1.76.71-1.27 0-2.4-.18-3.19-.25-1.25-.52-1.77-2.09.41-3.52.32-.43 0-.89-.13-1.23-.35-.69-.24-1.38-.43-2.28-.65-.7-.34-1.34-.71-1.79-1.08-.6-.54-1.36-1.11-2.11-1.81c.48-.17 1.51-.33 2.1-1.34 3.12-.85 4.92-3.95 6.78-4.62 2.2-1.45 4.63-3.09 5.92-4.07 1.1 1.27 1.55 3.13 1.63 4.49z"/></svg><g clip-path="url(#b)"><path fill="#2F2F2F" d="M48.38 95.51c-1.24 0-2.23-1.03-2.23-2.31V50.44c0-1.28.99-2.32 2.23-2.32 1.23 0 2.23 1.12 2.72 2.83 1.02.56-.11 1.56.8.23 2.85.29 1.2-.87 2.28-1.85 3.32z"/></g><g2clip-path="ur="#b8b342"><path d="M97.64 52.9c-10.86 0-18.68-8.38-23.16-9.86-10.07-10.95-14.46-25.89-14.8-29.93 2.95-9.53 2.9-18.97 2.68-84.75.02-.92.19-.9.29-1.63.67-.38 1.49-.63 2.27-1.78 1.99-1.45 3.84-2.85 5.44-4.63 2.16-1.47 3.89-2.49 6.43-4.5.8-.17 1.45-.1 2.74.01 3.13.38 5.86.59 9.54C4.33 5.39 9.04 9.58 9.34 6.28.99-.46 4.19-.59 6.12.49 1.4 1.45 1.69 3.41.66 4.28 0 .46-.15.69-.23.99-.17.65.18.96.51 1.68.81.58.98.68 1.31.78 1.56.58 2.4 1.01 2.49 3.44-.04.01-.04.01-.09.01z"/></g2clip-path="ur="#b8b342"><path fill="#2F2F2F" d="M29.97 67.14h6.85c1.53 0 2.79-.72 3.88-1.32l-5.5-17.14-4.02 5.3 8.64-2.1 7.95-7.45l-.02-.01c-1.01-5.21-3.06 8.61-5.38 11.45-1.83 3.92-2.3 7.69-3.87 11.78-4.58 2.87-.79 6.89 1.41 9.56 4.73 5.26 3.57 8.65-9.16 8.12-13.17.46-.48-.01-1.18-.13-1.66-.24-1.49-.03-2.59-.72-3.94-2.33-.21-1.36.33-2.09 1.04-2.21 1.71-.65 3.55.25 4.53.82 1.77.45 3.25 1.04 4.84-1.51 3.26-2.8 7.25-6.43 12.14-8.23 1.97-1.28 3.84-1.97 7.55-2.02 2.41.15 5.47 1.15 6.75 3.43-1.16 3.29-4.44 8.21-8.34 7.72z" fill="#2f2f2f"/><g><path d="M84.84 72.79c-9.48 0-12.61 4.66-21.05 4.66 1.2.2 2.73 1.52 4.45 2.43 4.9 3.17 8.61 5.17 11.71 7.05 1.49.78 2.43 1.58 3.3 1.79 2.44 2.26 6.25 3.65 9.46" 32l-.01.31-.06.68v.49M12.27 14c-4.18 5-5.52 4.1-6.6 5.38 2.65 3.88 4.88 6.74 8.73 8.09 9.02 0 11.3-2.26 13.51-11.23 16.97-7.53 1.81-17.71 11.65-28.36 1.61-5.49 3.61-10.23 7.62-13.87 2.34 2.26 4.67 3.87 6.21 2.78 3.88 1.62 5.33-2.15 8.72-6.37 8.16-1.63 3.3-1.36 4.74-.31 8.19 5.18 8.65 13.37 8.54 18.94 4.05 8.94 12.51 13.28 28.98 14.69 8.53 0 16.43-1.05 17.51-7.34a2.36 2.36 0 0 1 .1 4.01c0 .9.2 2.53-2.22 2.92-1.38.13-.02.29-.04.43-.07 0-.01.13-.05.21-.07 15.33-8.31 25.44-25.5 32.93 0 .83-.02 5.38-.01 10.65-.14 4.52-1.18 7.76-6.26 10.39-5.16.97-8.53 2.06-12.49 6.97C20.59 79.46 78.33 78.35 64.53 83.37c-.25-.42-1.25-.4-1.74-.44-.99-.39-1.58-.71-2.48-1.11-1.43-.47-3.44-.73-5.17-.91-2.18-.83-4.04-2.06-5.69-2.6-1.22-.46-4.39-.74-5.81-.91-6.35-2.42-8.75-9.31-9.75-1.34a2.72 23.72 0 0 1-.9-.72c-.21-.25-.47-.44-.31-.95-.32-.75-.91-18.39-1.3-23.4.81-1.59.99-3.17 2.01-5.82.7-1.76.71-3.67-.09-3.12z" fill="url(#a)"/><path d="M64 8.34c14.09 0 51.69-10.24 50.22-15.71 0-23.21-18.68-37.34-37.94-37.34-34.71-14.36 18.56 38.62 24.55 45.58 37.5 48.28 0 63.55-28.46 63.62-64.3C57.27 4.32-14.1 93.64-50.45 61.72c0 17.91 18.43 37.04 16.22 41.2 41.04 11.47 0 4.21-10.06 41.28-29.65.01-.03 0-.06.02-.01 5.51-.14 11.17-3.34 13.08-10.49 1.3-1.37 1.34-2.34 3.63-2.32z"/></g><path fill="#2F2F2F" d="M39.69 44.35c-.36-2.85-3.54-6.44-5.62-7.25-3.28-1.03-6.25 1.83-7.02 2.74a2.91 2.92 0 0 1 .13-4.14 2.388 2.488 0 0 1 2.56-1.67c1.07 1.3 1.98 3.3.9.37 5.29-.59 1.54-1.24 2.48-2.21 3.36-3.66 2.81-8.29 3.77-13.27 3.14-1.28.3-2.44.36-3.39.06-.21.04-.43.09-.6.52-.24.38-.51.66-.39.91-.53.21-1.29.28-1.81.11-.94 0-1.85.03-2.57.23-1.66.04-3.15.04-4.77-.01-3.53-.09-5.76-.1-10.67.64-1.32 5.23-1.62 8.43-.74 13.57-.34 4.31.31 8.42 1.92 1.6 1.36 1.44 3.11-.37 4.81z"/></svg>
