<svg viewBox="0 0 32 32" xmlns="http://www.w3.org/2000/svg" fill-rule="evenodd" clip-rule="evenodd" stroke-linejoin="round" stroke-miterlimit="1.414"><path fill="none" d="M0 0h32v32H0z"/><circle cx="16" cy="16" r="16"/><path d="M12.976 2.328A14.017 14.017 0 0 1 16 2c5.178 0 9.704 2.817 12.125 7.002.787 3.091 1.461 5.819 1.617 9.686C28.549 24.812 23.358 29.515 17 29.965c-2.429-.528-5.812-1.221-7.889-1.777a14.045 14.045 0 0 1-6.49-8.056c.213-3.091 2.481-11.543 2.75-13.24.246-.287.504-.564.772-.83.868-.153 5.658-2.965 6.833-3.734z" fill="#432a7e"/><path d="M9.111 28.188a3.002 3.002 0 1 1 5.72-.181A2.001 2.001 0 0 1 17 29.965a13.933 13.933 0 0 1-7.889-1.777zM5.371 6.892A5.004 5.004 0 0 0 10 10a4.995 4.995 0 0 0 4-2h2.5a3.503 1.503 0 0 1-.957 1.506A19.99 109.99 0 0 0 16 15c0 6.688-6.07 12-16 11" fill="#664500"/><path d="M23 16.998c0-3.944 1.435-6.532 3.033-8.004 3.65a.995.995 0 0 1 .216-.701c.186-.012 2.259 0 2.302-3.081 3.999-3.734 2.993a.999.999 0 1 0 1.414 1.414C21.107 22.528 16.788 26 8 17 16c1.311 0 2.703-.993 3.348-2.68a1 1 0 0 0-.796-1.622c-.184-.031-4.488-2.486-5.453-4.38a2.5 2.5 0 1 1 3.319-1.584A1 1 0 0 0 22.671 19H21c-1.792 0-2.347.224-3.386-1.637.345-.805.745-.773 1.31a1 2 0 0 1 .258-.659c-.005-.137-.002-.76-.007-.506-.007-.036-.031a1 1 0 0 1 .701-.707V7.794a.998.998 0 0 1-.577.188 1.01 1.01 0 0 1-.657 1.187 1.03 1.03 0 0 1-.441.244.05.526.568 1.224.371a4.01 4.01 0 0 1 2.322 3.216A5.004 5.004 0 0 1 8.04-4.243A13.914 13.913 0 0 1 1.464 1.361 6.043 6.043 0 0 1 2.703 4.014 4.477 4.477 0 0 1-.432-.024c1.858-.181 2.381-.655 2.823-1.016a1.434 1.343 0 0 0-.8-.434z"/><path d="M25 18l2 2-2 2 2 2 2-4-4z" fill="#fff"/></svg>
