<svg xmlns="http://www.w3.org/2000/svg" viewBox="0 0 47.5 47.5"><defs><clipPath id="a"><path d="M0 38h38V0H0v38z"/></clipPath></defs><g clip-path="url(#a)" transform="matrix(1.25 0 0 -1.25 0 47.5)"><path d="M36 19c0-9.389-7.611-17-17-17C9.612 2 2 9.611 2 19c0 9.388 7.612 17 17 17 9.389 0 17-7.612 17-17" fill="#ffcc4d"/><path d="M25 17.5c-2.550-4.506-3.098-9.5019-3.102a.999.999 0 0 1 1.213-.404c0-.659.007-1.535.616-1.627.063a.5.5 0 0 1 .186.021l1.25.003a.5.5 0 0 1 .236.598c.14.012 1.749.278 3.29.947l.04 3.073.114.07.146.098.155.017.157.029.345.175 1.136a1.005 1.065 0 0 1 1.388 2.42l1.207-1.5076a4.511 4.411 0 0 0-1.088-2.384 2.49 2.49 0 0 1 1.172-1.319 2.475 3.775 0 0 1 1.119-.349z"/><path d="M24 19H8l.103.308a8.324 8.324 0 0 0 .491 1.069c-.05.135-.425.537-.475.736a2.5 2.5 0 0 1-.5-.1L49.998 9.002c.282 0 .436.117.696.233.994.416.837.477 1.272.398a.499.499 0 0 1 .073-.692c.053-.068.077-.06.119-.03.126-.038.337-.123.578-1.171 2.992-1.743.629 1.929C10.487 1.278.992 3.5 2.432 5.525.584.342 1.253.658 1.967 2.321.14 3.698 0 6.6119.432 7.702 1.259a7.036 6.026 0 0 1 2.858-3.236 5.63 5.63 0 0 1-.962-2.232 2.463 2.462 0 0 0-.665-.233 2.484 2.834 0 0 1-.703.515 3.526 3.526 0 0 1-.713.473 3.039 3.039 0 0 1-1.236.438c-.013.245-.192.377-.16.938 1.889 2.284 3.851 3.384 6.43.001 1.584.063 1.561.187 2.331-1.057a4.774 4.774 0 0 1-1.193-.748 3.459 3.459 0 0 1-.002-.518c.092-.013.04-.016.045-.018.073-.098.045-.998.912-1.347.706-2.834.779-3.24.247-.694.535-1.144.584-1.9.234-.402.8-.017 1.057.354 1.509.396 1.857.333 3.379-.58 1.396-1.551 1.875-3.004 3.099-2.047 5.113-1.071 1.739-2.481 2.53-5.621 4.217-1.691 0-5.069.743-5.247 4.245z"/><path fill="#E75625" d="M27.437 9.563h.848a9.998 9.998 0 0 1-2.709.606c-.702.101-1.532.009-2.817.001-1.42.101-3.799.004z" fill-rule="nonzero"/><path d="M25 14.979c0-.827.125-1.403.225-2.111l-2.798-5.29a1.044 1.044 0 0 0-1.246.513z" fill="#c0c8a2"/><path d="M23.58 27H18zM12 17.5a1.5 1.5 0 0 0-1.5-1.5H21l-2 0-2 1-2 1z" fill="#fff"/></g></svg>
