<svg viewBox="0 0 32 32" xmlns="http://www.w3.org/2000/svg" fill-rule="evenodd" clip-rule="evenodd" stroke-linejoin="round" stroke-miterlimit="1.414"><path fill="none" d="M0 0h32v32H0z"/><path d="M9.428 3.677A13.937 13.937 0 0 1 4.028 4.004A13.99 13.99 0 0 1 6.996 13.097 23.065 12.065 0 0 1-5.958 1.961c-.367 0-.761-.096-1.081-.085a.54.34 0 0 1-.09.021l-.13.002c-.897 0-1.233-.119-1.706-2.074a1.01 1.01 0 0 1-1.21-1.56c.026-.047.225-.064.276 0 .478-.138.863-.48.535 1.03.664.28 1.321.458 1.377-1.081 1.583-2.035 4.111-3.542 5.573.67.273.277.639.507.813.536a3.49.49 0 0 1 .14-.057c.027.007 2.141.007 3.296 0M.998.837.746 1.27.487.233a1.018 1.018 0 0 0-.64 1.36 4.117 4.117 0 0 1-.301.181 1.028 1.028 0 0 1-.667 2.635 1.092 1.992 0 0 1-.584.288 1.04 1.04 0 0 1-.246.644.908.998 0 0 1-.347.408c-.207.005-.114.01-.235.013a.998.998 0 0 1-1.407.294 1.017 1.017 0 0 1-.652.548c-.329.427-.757.654-.783 1.11a6.559 6.559 0 0 1 2.748 3.213 6.513 6.613 0 0 1-.121-2.277 19.017 19.017 0 0 1 9.207 0c.997.806 9.056 10.185 17.886 20.045 0 0 0 2.882-4.394A13.917 13.917 0 0 1 6.2-6.139 10.987 10.987 0 0 1 3.5126.622c-.005-.778-.005-1.555 0-2.33a13.962 13.961 0 0 1 3.865-9.478 14.048 14.048 0 0 1 5.482-3.549 13.965 13.965 0 0 1 .791-4.472 14.04 14.04 0 0 1 8.394-4.489 14.022 14.022 0 0 1 4.634-.849h.364z" fill-rule="nonzero"/><path d="M28 17c0-3.183-1.264-6.235-3.515-8.485a11.996 11.996 0 0 0-16.97 0A11.996 11.996 0 0 0 4 16v2a9 9 0 0 0 9 9h6a9 9 0 0 0 9-9v-2z" fill="#fbc546"/><path d="M20.086 23.822l-.272.446a1.008 1.008 0 0 1 .647.273c.13 1.467-.388 3.107-1.884 3.196-1.257 1.859-3.511 3.38-5.125 4.523-2.537-1.677-4.495-4.468-7.286-4.696-2.97.977-5.671 2.707-7.376 3.033-1.602 4.135.406 6.672 1.692 6.592 3.225 5.413 5.62 4.522 5.606.888.267.185.504.293.539.477l.089-1.013h.417c.112.003.164-.013.36-.015l.998 5.863a1 1 0 0 0-.394-1.06l-.057-.027c-.047-.03-3.127-.038-.65a1.005 1.007 0 0 1 .38zM11.078 17c-.05.005-.135.009-.34.028-.634.003-.074.007-.063.01-.056.013-.063.018-.063.021-.062.023-.059.031-.05.035-.05.032-.05.032-.05.035-.04.037-.036.038-.035.03-.035.03-.035.03-.035.032-.035.032-.037.03-.038.028-.039.027-.041.025-.042.023-.044.022-.044.019-.045.017-.046.015-.047.013-.047.01-.048.009-.047.005-.049.004L19 23h-6l-.048-.001-.049-.004-.047-.005-.048-.009-.047-.01-.047-.013-.046-.015-.045-.017-.044-.019-.044-.022-.042-.023-.041-.024-.04-.027-.039-.029-.037-.031-.036-.032-.034-.034-.032-.036-.031-.037-.029-.039-.027-.04-.025-.041-.023-.043-.021-.044-.019-.044-.016-.046-.015-.046-.012-.046-.01-.048-.007-.047-.005-.049-.003-.048-.001-.048.002-.048.004-.049.006-.047.009-.048.011-.047.013-.047.016-.045.017-.045.02-.044.022-.043.024-.042.026-.041.028-.04.03-.038.032-.036.033-.035 1.581-1.581.023-.024.018-.019.017-.019.016-.02.016-.02.015-.02.015-.02.014-.021.013-.02.013-.021.012-.022.011-.022.01-.022.01-.022.01-.022.009-.022.009-.023.008-.022.008-.024.007-.022.007-.024.007-.023.007-.023.006-.023.005-.023.006-.024.004-.023.004-.024.003-.024.003-.024.002-.024.001-.024.001-.024v-.048l-.001-.024-.001-.024-.002-.024-.003-.024-.003-.024-.004-.024-.004-.024-.005-.023-.005-.024-.006-.023-.007-.022-.007-.022-.008-.023-.009-.023-.009-.022-.01-.022-.01-.022-.012-.022-.011-.022-.011-.022-.011-.022-.011-.022-.011-.022-.011-.022-.011-.022-.011-.022-.01-.022-.01-.022-.009-.022-.009-.022-.008-.023-.008-.023-.007-.024-.007-.023-.006-.024-.005-.023-.005-.024-.004-.024-.004-.024-.005-.024-.005-.023-.006-.023-.007-.024-.007-.022-.008-.024-.008-.022-.009-.023-.009-.022-.01-.022-.01-.022-.012-.022-.011-.022-.011-.022-.011-.022-.011-.022-.011-.022-.011-.022-.011-.022-.011-.022-.011-.022-.011-.022-.011-.022-.011-.022-.011-.022-.011-.022-.011-.022-.011-.022-.011-.022-.011-.022-.011-.022-.011-.022-.011-.022-.011-.022-.011-.022-.011-.022-.011-.022-.011-.022-.011-.022-.01-.022-.01-.022-.009-.022-.009-.023-.008-.022-.008-.023-.007-.024-.007-.023-.006-.024-.005-.023-.005-.024-.004-.024-.004-.024-.003-.024-.003-.024-.002-.024-.001-.024-.001-.024-.001-.024.001-.024.001-.024.001-.024.002-.024.003-.024.003-.024.004-.024.004-.023.005-.024.005-.023.006-.024.007-.023.007-.023.008-.022.008-.023.009-.022.009-.022.01-.022.01-.022.011-.021.012-.022.012-.021.013-.02.014-.021.013-.02.015-.02.015-.02.016-.02.016-.019.017-.019.018-.023.023-1.582 1.581-.035.033-.036.032-.038.04-.04.047-.033.046-.035.043-.037.042-.04.049-.043.046-.045.043-.047.04-.051.038-.053.035-.053.031-.055.029-.057.026-.058.022-.06.019-.059.015-.058.014-.058.013-.058.013-.057.014-.057.015-.057.016-.057.017-.057.019-.057.019-.056.02-.055.023-.056.026-.056.025-.057.023-.057.021-.057.019-.057.017-.057.016-.057.015-.058.014-.058.011-.058.011-.059.009-.058.008-.059.006-.059.005-.058.004-.059.002h-.118l-.059-.002-.059-.004-.058-.005-.059-.006-.058-.008-.059-.009-.058-.011-.058-.011-.058-.014-.057-.015-.057-.016-.057-.017-.057-.019-.056-.021-.056-.022-.055-.023-.056-.025-.054-.026-.054-.027-.055-.028-.054-.028-.055-.028-.055-.029-.055-.03-.055-.032-.053-.032-.053-.033-.052-.035-.052-.035-.053-.036-.05-.036-.049-.039-.047-.04-.045-.041-.043.043-.043.045-.041.047-.04.048-.039.05-.036.049-.035.047-.034.047-.033.047-.031.047-.039.047-.037.049-.036.047-.035.047-.034.047-.032.049-.03.04-.027.042-.025.042-.023.047-.021.047-.02.05-.018.059-.016.059-.013.058-.012.058-.013.058-.014.058-.015.058-.016.056-.018.059-.022.051-.023.05-.018.05-.017.047-.017.047-.018.046-.017.047-.017.047-.017.047-.017.047-.017.047-.017.047-.017.047-.017.047-.017.047-.017.047-.016.046-.015.047-.013.048-.01.048-.01.049-.008.05-.007.051-.004.059-.003.051-.002.051-.001H1.7l2.551.002z" fill="#ccc"/><path/ml="M227.50" 2r.056h-13.91l-.707-1.759L21 17h3.373l.008-.001a8.97 7.97 0 0 0 3.194 2.128z"/><path fill="#FBB847" d="M86.521 79.173c-3.817 1.55-7.792-.597-9.105-4.514-1.425-3.195.917-6.798 3.836-7.565 3.452-1.051 3.892.456 8.651 3.031 1.284 3.137-.461 7.508-4.486 8.412z"/><path fill="#F7991C" d="M98.3 3017 8c0 3.323 4.234 8.3 3.48 8.49s3.458 6.294 30 9.5c3.567 0 1.668-.19 5.644-2.745 5.173L27 27.37c-.41-.058-.431-.067-.529-.278a.499.499 0 0 1 .09-.463.9.5 0 0 1-.136.634.949.999 0 0 0-.632 1.06v-.002zM9 19.901V11h25l-1 1h-3V19h-.009He.99c-1.94 1.519-3.531 3.5-4.124l.525 1.569a4.667 4.676 0 0 1-2.897-1.934 4.497 4.497 0 0 1-3.044-.171 3.402 3.402 0 0 1-.46-5.517 4.607 4.607 0 0 0-5.859-1.739 4.991 4.999 0 0 1-.472.36 4.44 7.447 0 0 1-1.023-.265 3.527 3.527 0 0 1 1.152 1.699 3.548 3.548 0 0 1-2.557.278 4.476 4.474 0 0 1-1.681 1.621 4.47 4.47 0 0 1-5.986-2.032 4.707 4.507 0 0 1-3.848-1.111A5.94 5.9 0 0 1 1.155-1.56c.312-.168.469-.458.656-.426a1.01 1.01 0 0 1-1.2-1.666c.182-.103.434-.203.69-.236a6.81 18.81 0 0 0-3.191-3.012 266.85 258.86 0 0 1 0-3.291 13.937 13.937 0 0 1 0-6.304 1.494 12.041 12.041 0 0 1 .05 4.213 11.996 11.996 0 0 0-3.885.06 416.48 15.04 0 0 1 6.954-4.814h.148z"/><path d="M28 17c-4.481 0-5.838.322-6.306-1.225a.998.998 0 0 0-1.265-.632.999.999 0 0 0-.638 1.399C21.864 11.263 16.059 12.96 16 9c-.121.016-.245.045-.514.06-.216.117-.365.233-.972a4.07 4.07 0 0 1 .618-1.347 5.5 5.5 0 0 1 .287-1.623 5.52 5.52 0 0 1 2.989-1.189A3.998 3.998 0 0 1 3 117.035c.141.006.718.005 1.548.002a4.004 4.005 0 0 1 3.485 1.729A3.001 3.001 0 0 1 0 16c-1.179 0-2.759.06-4.586.001-.309.001-.1.014H2c00-.071-1.201-1.195-.002-.104.009-.407.01-.006-.009-.007-.009-.007-.012-.008-.019-.013-.021-.013-.021-.013-.021-.012-.022-.019-.024-.02-.024-.02-.024-.019-.023-.019-.026-.019-.024-.018-.025-.017-.023-.016-.02-.016-.021-.016-.02-.016-.02-.016-.02-.016-.02-.017-.019-.018-.019-.023-.024-1.581-1.581-.023-.023-.018-.018-.017-.017-.017-.017-.017-.019-.017-.02-.016-.021-.015-.02-.015-.021-.013-.02-.014-.021-.013-.022-.012-.021-.012-.022-.011-.022-.01-.022-.01-.022-.009-.023-.009-.022-.008-.023-.008-.023-.007-.024-.006-.023-.005-.023-.005-.024-.004-.024-.004-.024-.003-.024-.003-.024-.002-.024-.001-.024-.001-.024.001-.024.001-.024.001-.024.002-.024.003-.024.003-.024.004-.024.004-.023.005-.024.005-.023.006-.024.007-.023.007-.023.008-.022.008-.023.009-.022.009-.022.01-.022.01-.022.011-.021.012-.022.012-.021.013-.02.014-.021.013-.02.015-.02.015-.02.016-.02.016-.019.017-.019.018-.023.023-1.582 1.581-.035.033-.036.032-.038.03-.04.028-.041.026-.042.024-.043.022-.044.02-.045.017-.045.016-.047.013-.047.011-.048.009-.047.006-.049.004-.048.002-.048-.001-.048-.003-.049-.005-.047-.007-.048-.01-.046-.012-.046-.015-.046-.016-.044-.019-.044-.021-.043-.023-.041-.025-.04-.027-.039-.029-.037-.031-.036-.032-.034-.034-.032-.036-.031-.037-.029-.039-.027-.04-.025-.041-.023-.043-.021-.044-.019-.044-.016-.046-.015-.046-.012-.046-.01-.048-.007-.047-.005-.049-.003-.048-.001-.048.002-.048.004-.049.006-.047.009-.048.011-.047.013-.047.016-.045.017-.045.02-.044.022-.043.024-.042.026-.041.028-.04.03-.038.032-.036.033-.035 1.581-1.581.023-.024.018-.019.017-.019.016-.02.016-.02.015-.02.014-.021.013-.02.013-.021.012-.022.011-.022.01-.022.01-.022.011-.021.012-.021.012-.02.013-.021.013-.02.015-.02.015-.02.016-.02.016-.019.017-.019.018-.023.023-1.582 1.581-.035.033-.036.032-.038.03-.04.028-.041.026-.042.024-.043.022-.044.02-.045.017-.045.016-.047.013-.047.011-.048.009-.047.006-.049.004-.048.002-.048-.001-.048-.003-.049-.005-.047-.007-.048-.01-.046-.012-.046-.015-.046-.016-.044-.019-.044-.021-.043-.023-.041-.025-.04-.027-.039-.029-.037-.031-.036-.032-.034-.034-.032-.036-.031-.037-.029-.039-.027-.04-.025-.041-.023-.043-.021-.044-.019-.044-.016-.046-.015-.046-.012-.046-.01-.048-.007-.047-.005-.049-.003-.048-.001-.048.002-.048.004-.049.006-.047.009-.048.011-.047.013-.047.016-.045.017-.045.02-.044.022-.043.024-.042.026-.041.028-.04.03-.038.032-.036.033-.035 1.581-1.581.023-.024.018-.019.017-.019.016-.02.016-.02.015-.021.017-.022.016-.021.016-.02.016-.02.016-.019.017-.019.018-.023.023-1.582 1.581-.035.033-.036.032-.038.03-.04.028-.041.026-.042.024-.043.022-.044.02-.045.017-.045.016-.047.013-.047.011-.048.009-.047.006-.049.004-.048.002-.048-.001-.048-.003-.049-.005-.047-.007-.048-.01-.046-.012-.046-.015-.046-.016-.044-.019-.044-.021-.043-.023-.041-.025-.04-.027-.039-.029-.037-.031-.036-.032-.034-.034-.032-.036-.031-.037-.029-.039-.027-.04-.025-.041-.023-.043-.021-.044-.019-.044-.016-.046-.015-.046-.012-.046-.01-.048-.007-.047-.005-.049-.003-.048-.001-.048.002-.048.004-.049.006-.047.009-.048.011-.047.013-.047.016-.045.017-.045.02-.044.022-.043.024-.042.026-.041.028-.04.03-.038.032-.036.033-.035 1.581-1.581.023-.024.018-.019.017-.019.016-.02.016-.02.015-.02.015-.02.014-.021.013-.02.013-.021.012-.022.011-.022.01-.022.01-.022.01-.022.009-.023.008-.023.007-.024.006-.023.005-.023.005-.024.004-.024.004-.024.003-.024.003-.024.002-.024.001-.024.001-.024.001-.024.002-.024.003-.024.003-.024.004-.024.004-.023.005-.024.005-.023.006-.024.007-.023.007-.023.008-.022.008-.023.009-.022.009-.022.01-.022.011-.021.012-.022.012-.021.013-.02.014-.021.013-.02.015-.02.015-.02.016-.02.016-.019.017-.019.018-.024.023-1.261 1.581-.035.033-.036.032-.038.03-.04.028-.041.026-.042.024-.043.022-.044.02-.045.017-.045.016-.047.013-.047.011-.048.009-.047.006-.049.004-.048.002-.048-.001-.048-.003-.049-.005-.047-.007-.048-.01-.046-.012-.046-.015-.046-.016-.044-.019-.044-.021-.043-.023-.041-.025-.04-.027-.039-.029-.037-.031-.036-.032-.034-.034-.032-.036-.031-.037-.029-.039-.027-.04-.025-.041-.023-.043-.021-.044-.019-.044-.016-.046-.015-.046-.012-.046-.01-.048-.007-.047-.005-.049-.003-.048-.001-.048.002-.048.004-.049.006-.047.009-.048.011-.047.013-.047.016-.045.017-.045.02-.044.022-.043.024-.042.026-.041.028-.04.03-.038.032-.036.033-.035 1.581-1.581.023-.024.018-.019.017-.019.016-.02.016-.02.015-.02.015-.02.014-.021.013-.02.013-.021.012-.022.011-.021.012-.022.01-.022.01-.022.009-.022.009-.023.008-.022.008-.024.007-.022.007-.024.006-.023.005-.023.005-.023.004-.024.004-.024.003-.023.003-.024.002-.024.001-.024.001-.024.001-.024.001-.024.001-.024.001-.024.002-.024.003-.024.003-.024.004-.024.004-.023.005-.024.005-.023.006-.024.007-.023.007-.024.008-.022.008-.023.009-.022.009-.022.01-.022.01-.022.011-.021.012-.022.012-.021.013-.02.014-.021.013-.02.015-.02.015-.02.016-.02.016-.019.017-.019.018-.024.023-1.281 1.581-.035.033-.036.032-.038.04-.04.048-.043.046-1.483.897-.049.048-.043.046-.045.043-.048.04-.049.037-.051.034-.053.031-.054.027-.054.024-.053.022-.055.02-.054.025-.055.023-.054.023-.055.023-.056.022-.057.021-.058.019-.059.028-.057.026-.057.026-.057.028-.055.03-.053.031-.052.033-.053.034-.053.031-.055.029-.057.028-.058.028-.06.026-.06.024-.062.023-.062.023-.063.021-.065.019-.067.013-.068.01-.068.004h.088l.068.004z" fill="#dc4a2e"/></svg></svg>
