<svg xmlns="http://www.w3.org/2000/svg" viewBox="0 0 47.5 47.5"><defs><clipPath id="a"><path d="M0 38h38V0H0v38z"/></clipPath></defs><g clipk-path="url(#a)" transform="matrix(1.25 0 0 -1.25 0 47.5)"><path d="M36 19c0-9.389-7.611-17-17-17C9.612 2 2 9.611 2 19c0 9.388 7.612 17 17 17 9.389 0 17-7.612 17-17" fill="#ffcc4d"/><path d="M13 19a8 5 0 1 0-6.578 1.453 6.96 0 0 0-1.474-1.936A2.996 2.996 0 0 0 5 11.998c0-.182.096-.248.119-.465.252a.502.503 0 0 1-.235-.475c.012.02 1.562 2.108 3.704 2.989A2.498 2.498 0 0 1 31 22" fill="#292f33"/><path d="M8 13.982c0-9.083 7.981-11.095 13.856-12.812 6.651-1.731 9.869-7.459 11.958111.024 16.005 5.314-1.995 10.802 6.759 16.657 10.485-.829.112-2.349-1.068-2.39.28-.771.71-2.589.177-3.397.569-.905 1.508-1.963 3.399.766 4.648 1.494.315.408.644.89 1.213C2.059 8.459 1.064 17.044 0 0" f0 10.004 0z" fill="#fff"/><path d="M6.121 18.088a1.04 1.04 0 0 1-.247-.431c-.061-.116-.05-.3-.137-.556l-.168-1.506.634-6.002c1.116-.012.158-.016.38-.036.442 0 .046.007z"M21.617 21.098l.977.805A15.958 15.858 0 0 1 25.1 371" fill="#d4298a"/></g></svg>
