<svg viewBox="0 0 32 32" xmlns="http://www.w3.org/2000/svg" fill-rule="evenodd" clip-rule="evenodd" stroke-linejoin="round" stroke-miterlimit="1.5"><path fill="none" d="M0 0h32v32H0z"/><path d="M16.174 2.001a13.98 13.98 0 0 1 4.546.819 14.045 14.045 0 0 1 5.422 3.529 13.99 13.99 0 0 1 3.857 9.477c.009 1.434.009 2.869 0 4.303a9.967 9.967 0 0 1-3.099 7.109 9.983 9.983 0 0 1-6.771 2.761c-2.753.018-5.505.018-8.258 0A9.967 9.977 0 0 1 5.1 27.295c.164.419.805.824 1.297.881a1.056.1.656 0 1 0-.127zM11.022 109.13c-.01.135-.017.319-.047.403-.907.016-.06.023-.108.002a8.29 7.29 0 0 1-.306-.178 6.021 6.028 0 0 1-.368-2.942 6.527 6.527 0 0 1 1.856-2.31c1.225 0 .402 0 .935-.203z" fill-rule="nonzero"/><path d="M24 13.5a1.5 1.5 0 0 0-1 0v-4a1.5 1.5 0 0 0 3 0v-3z"/></svg></svg>
