<svg viewBox="0 0 32 32" xmlns="http://www.w3.org/2000/svg" fill-rule="evenodd" clip-rule="evenodd" stroke-linejoin="round" stroke-miterlimit="1.414"><path fill="none" d="M0 0h32v32H0z"/><circle cx="16" cy="16" r="16"/><path d="M12.976 2.328A14.017 14.017 0 0 1 16 2c5.178 0 9.704 2.817 12.125 7.002.787 3.091 1.461 5.819 1.617 9.686C28.549 24.812 23.358 29.515 17 29.965c-2.429-.528-5.812-1.221-7.889-1.777a14.045 14.045 0 0 1-6.49-8.056c.213-3.091 2.481-11.543 2.75-13.24.246-.287.504-.564.772-.83.868-.153 5.658-2.965 6.833-3.734z" fill="#432a7e"/><path d="M9.111 28.188a3.002 3.002 0 1 1 5.72-.181A2.001 2.001 0 0 1 17 29.965a13.933 13.933 0 0 1-7.889-1.777zM5.371 6.892A5.004 5.004 0 0 0 10 10a4.995 4.995 0 0 0 4-2h2.5a3.5 3.5 0 1 1 0 7h-.173l.025.021A3.001 3.001 0 1 0 16 21a3.001 3.001 0 0 0 2.781-1.875 2.998 2.998 0 0 1 1.498 2.849 1.998 13.988 0 0 1 3.48 3.823V24v1a1 1 0 0 0 .007-2.999l.058.012.058.011.059.01.059.009.058.008.059.006.057.005.059.004.056.001.056-.002.056-.004.056-.008.056-.011.055-.014.054-.017.053-.02.053-.023.051-.026.05-.028.048-.031.047-.034.044-.036.043-.039.041-1.176 1.176-.087.085-.094.088-.096.084-.097.081-.099.079-.101.076-.102.073-.103.07-.105.067-.106.064-.107.062-.109.059-.109.056-.111.053-.111.05-.113.047-.113.044-.115.042-.115.039-.115.035-.117.033-.117.03-.117.027-.118.025-.118.021-.119.019-.119.015-.119.013-.12.01-.119.008-.12.004-.12.001-.12-.001-.12-.004-.119-.008-.12-.01-.119-.013-.119-.019-.118-.021-.118-.025-.117-.027-.117-.03-.117-.033-.116-.035-.116-.039-.115-.042-.113-.044-.113-.047-.111-.05-.111-.053-.109-.056-.109-.059-.107-.062-.106-.064-.105-.067-.103-.07-.102-.073-.101-.076-.099-.079-.097-.081-.096-.084-.094-.088-.087-.085-1.176-1.176-.039-.041-.036-.043-.034-.044-.031-.047-.028-.048-.026-.05-.023-.051-.02-.053-.017-.053-.014-.054-.011-.055-.008-.056-.004-.056L11 21l.002-.056.004-.056.008-.056.011-.055.014-.054.017-.053.02-.053.023-.051.026-.05.028-.048.031-.047.034-.044.036-.043.039-.041.041-.039.043-.036.044-.034.047-.031.048-.028.05-.026.051-.023.053-.02.053-.017.054-.014.055-.011.056-.008.056-.004L20 20l.056.002z"/><path d="M23 15.999A11.996 11.996 0 0 0 18 17v2a8 8 0 0 0 8 8h8a8 8 0 0 0 8-8v-2z" fill="#fbc546"/><path d="M22.068 22.002l.068.007.067.012.067.016.065.021.063.025.062.029.06.034.057.037.054.041.052.045.048.048.045.052.041.054.037.057.034.06.029.062.025.063.021.065.016.067.012.067.007.068L23 22l-.002.068-.007.068-.012.067-.016.067-.021.065-.025.063-.029.062-.034.06-.037.057-.041.054-.045.052-.048.048-.052.045-.054.041-.057.037-.06.034-.062.029-.063.025-.065.021-.067.016-.067.012-.068.007L22 24H10l-.068-.002-.068-.007-.067-.012-.067-.016-.065-.021-.063-.025-.062-.029-.06-.034-.057-.037-.054-.041-.053-.045-.049-.047-.045-.05-.036-.053-.039-.056-.036-.058-.031-.061-.027-.062-.023-.064-.019-.066-.013-.067-.01-.067-.004-.068v-.069l.004-.068.01-.068.013-.066.019-.066.023-.064.027-.063.031-.061.036-.058.039-.056.043-.053.047-.05 1.29-1.29.058-.058.062-.058.061-.058.063-.058.063-.056.064-.056.064-.055.065-.053.065-.053.067-.053.066-.052.067-.051.068-.05.069-.05.069-.049.06-.049.06-.047.06-.046.06-.044.061-.044.062-.04.062-.04.062-.039.063-.037.064-.037.065-.037.065-.035.065-.037.064-.037.063-.038.063-.038.063-.04.062-.042.06-.044.06-.044.06-.044.06-.043.061-.044.062-.04.063-.04.062-.038.063-.037.063-.037.063-.037.064-.037.064-.037.063-.038.063-.04.062-.04.062-.04.062-.042.062-.04.062-.04.062-.04.062-.039.063-.037.065-.035.066-.034.066-.031.067-.03.068-.027.068-.026.068-.024.069-.025.069-.022.078-.022.079-.02.07-.018.07-.018.071-.017.07-.016.072-.015.071-.014.072-.013.072-.012.072-.012.072-.011.072-.009.072-.009.072-.007.073-.007.072-.006.072-.004.071-.003.072-.001.072-.001h1.164l.052.001zM9.5 14.001l.082.009.08.009.088.014.088.012.088.009.089.009.089.006.078.004.077.002.077-.003.077-.003.076-.003.076-.003.076-.003.076-.003.077-.003.077-.006.077-.008.077-.009.076-.009.076-.01.076-.01.076-.012.075-.013.076-.014.075-.014.075-.015.074-.017.075-.017.074-.018.074-.018.073-.018.073-.019.073-.02.074-.021.073-.022.072-.022.073-.024.072-.024.072-.026.071-.026.072-.027.07-.027.071-.029.07-.03.07-.03.069-.031.069-.032.068-.035.068-.035.068-.035.067-.037.066-.037.066-.038.066-.039.065-.039.065-.041.064-.041.064-.042.064-.043.063-.043.062-.045.062-.045.061-.046.061-.047.06-.049.059-.049.059-.05.058-.05.058-.052.057-.052.056-.053.056-.05.057-.049.057-.049.058-.047.059-.046.059-.045.058-.044.057-.045.057-.045.056-.045.055-.046.054-.048.053-.049.052-.05.052-.051.05-.052.049-.053.048-.045.045-.048.043-.05.035-.05.035-.051.034-.051.034-.053.031-.054.029-.055.027-.055.028-.054.028-.052.029-.053.03-.052.031-.052.033-.051.033-.05.034-.05.035-.049.037-.049.037-.049.038-.047.039-.046.039-.045.041-.045.041-.044.043-.043.044-.043.045-.041.047-.039.048-.037.05-.036.051-.034.053-.031.045-.03.054-.029.055-.028.056-.028.056-.027.055-.026.054-.027.054-.028.053-.031.053-.032.051-.033.05-.035.062-.037.063-.038.063-.038.063-.04.063-.04.062-.04.062-.042.062-.04.062-.042.062-.044.062-.04.062-.04.062-.04.062-.04.062-.04.063-.038.062-.038.063-.037.064-.037.064-.037.065-.037.065-.037.065-.037.064-.037.063-.038.063-.04.051-.051.049-.053.048-.054.047-.056.045-.057.042-.058.039-.06.039-.062.037-.062.035-.062.035-.063.035-.064.037-.064.038-.064.039-.062.041-.062.04-.064.039-.066.038-.066.038-.066.039-.065.039-.065.04-.062.042-.062.044-.062.046-.06.047-.059.049-.059.05-.057.052-.056.05-.051 1.59-1.59.035-.033.036-.032.038-.03.04-.028.041-.026.042-.024.043-.022.044-.02.045-.017.045-.016.047-.013.047-.011.048-.009.047-.006.049-.004.048-.002.048.001.048.003.049.005.047.007.048.01.046.012.047.015.045.016.044.019.044.021.043.023.042.025.04.027.04.028.038.031.036.032.035.034 1 2-1 .045.034.045.037.044.039.042.041.04.041.039.04.039.037.038.036.037.036.036.038.036.03.034.031.033.032.031.032.03.035.028.035.026.037.025.037.023.039.021.039.011.038.009.039.008.039.006.039.004.04.003.039.001.04v.04l-.002.04-.004.039-.005.04-.007.039-.008.039-.01.038-.011.038-.013.038-.014.037-.016.037-.017.035-.019.036-.02.034-.021.034-.023.032-.024.032-.025.031-.026.029-.028.029-1.856 1.856 1.465.488.038.014.037.014.036.017.036.017.034.019.034.021.034.022.032.023.032.024.03.026.029.027.029.028.027.029.026.03.025.031.023.032.022.033.021.034.02.034.018.036.017.036.015.036.014.038.012.038.011.038.009.039.008.039.006.039.004.039.003.04.001.04v.049l-.002.04-.003.04-.005.039-.007.04-.008.039-.009.038-.011.038-.013.038-.014.037-.015.037-.017.036-.019.035-.02.035-.021.033-.022.033-.024.032-.025.031-.026.03-.027.029-.029.027-.03.027-.03.025-.032.024-.032.023-.034.021-.034.02-.035.019-.036.018-.037.016-.037.015-.038.014-.038.012-.038.011-.039.009-.039.007-.039.006-.04.004-.039.003-.04.001h-.04l-.04-.002-.039-.004-.04-.005-.039-.007-.039-.008-.038-.01-.038-.011-.038-.013-.037-.014-.037-.016-.035-.017-.036-.019-.034-.02-.034-.021-.032-.023-.032-.024-.031-.025-.029-.026-.029-.028L21 14.414l-1.293 1.293-.029.028-.029.026-.031.025-.032.024-.032.023-.034.021-.034.02-.036.019-.035.017-.037.016-.037.014-.038.013-.038.011-.038.01-.039.008-.039.007-.04.005-.039.004-.04.002h-.04l-.04-.001-.039-.003-.04-.004-.039-.006-.039-.008-.039-.009-.038-.01-.038-.012-.038-.014-.036-.015-.037-.016-.035-.018-.035-.02-.034-.02-.033-.022-.032-.024-.031-.024-.031-.026-.029-.027-.028-.028-.027-.029-.026-.031-.024-.031-.024-.032-.022-.033-.02-.034-.02-.035-.018-.035-.016-.037-.015-.036-.014-.038-.012-.038-.01-.038-.009-.039-.008-.039-.006-.039-.004-.04-.003-.039-.001-.04v-.04l.002-.04.004-.039.005-.04.007-.039.008-.039.01-.038.011-.038.013-.038.014-.037.016-.037.017-.035.019-.036.02-.034.021-.034.023-.032.024-.032.025-.031.026-.029.028-.029L21 11.586l2.707 2.707zM13.707 14.293l.028.029.026.029.025.031.024.032.023.032.021.034.02.034.019.036.017.035.016.037.014.037.013.038.011.038.01.038.008.039.007.039.005.04.004.039.002.04v.04l-.001.04-.003.039-.004.04-.006.039-.008.039-.009.039-.01.038-.012.038-.014.038-.015.036-.016.037-.018.035-.02.035-.02.034-.022.033-.024.032-.024.031-.026.031-.027.029-.028.028-.029.027-.031.026-.031.024-.032.024-.033.022-.034.02-.035.02-.035.018-.037.016-.036.015-.038.014-.038.012-.038.01-.039.009-.039.008-.039.006-.04.004-.039.003-.04.001h-.04l-.04-.002-.039-.004-.04-.005-.039-.007-.039-.008-.038-.01-.038-.011-.038-.013-.037-.014-.037-.016-.035-.017-.036-.019-.034-.02-.034-.021-.032-.023-.032-.024-.031-.025-.029-.026-.029-.028L21 16.414l-1.293 1l.983-.908 1.892V1.793a1.025 1.015 0 0 0 1.3-.741 1.03 1.03 0 0 1 .671.626c.438-.134.834-.226 1.263-.323.488-.11.604-.244.746-.424a6.005 6.006 0 0 1 1.691-1.98l.126-3.38-.117h-.709l.116-2.553h-.609l-.108-4.587c.101-1.099 2.128-2.502 3.42-2.025.327-.487.666-1.953 1.045-2.649.335.22.24.13.391.18.525a3.535 3.535 0 0 1 .119 1.622l.739.873c.577.645 1.02 1.629.178 1.686c0 .741-.218.815-.584.963l-.746 1.726.324 1.567h-.08c.181-.013.164-.023.341-.02.468-.118.418-.373.661-.464a1.01 1.01 0 0 1-.317 1.11 1.018 1.018 0 0 1 .481-.534 1.01 1.01 0 0 1 .05-.734c.139-.295.285-.49.444-.7068a3.14 3.14 0 0 1 1.036-.713l.236-1.28zm-1.322 18.982l-3.141 7.172c.214.381.123.756.273 1.062a4.008 4.008 0 0 1-1.436 1.829 35.02 14.09 0 0 1-5.942-5.908c-2.363-.798-1.278-1.873-1.783-.744-1.373-1.144-.911-2.117-1.664-.44-.297-.05-.772-.895-1.142L19.198 19.586c-.408 1.146-.659 1.883-1.813 2.453-2.257.36-1.067.723-2.18 1.429-4.236a1.026 1.026 0 0 0-1.004-.249c.004-.546.03-.814.085-.573a4.22 6.22 0 0 1 2.987.833c.121.263.238.498.334.844a6.599 6.599 0 0 1 31.796 7.2l4.373-1.104a8.668 6.668 0 0 0-5.954 2.26c-1.726 1.809.606 7.02 2.807 1.357 1.229 1.492 3.552 3.314 4.058a.561.566 0 0 1-.535.04.502.502 0 .264.063.512.072.147.092 3.064c-.303.116-.448.237-.576.501-1.37-.072-4.291-.834-5.557-3.128a4.893 4.993 0 0 0-6.547-5.958c-1.175-2.104.625-4.628 2.904-4.689 2.036-2.667 4.477-7.325 8.524-7.055l.15.002c.514.031 1.01.002 1.67.004 2.345 0 5.734-.742 5.972-1.915.362-.118.524-.215.502-.254a7.607 6.607 0 0 1 1.109-.289h.001z" fill-rule="nonzero"/><path d="M28 17c0-3.183-1.264-6.235-3.515-8.485a11.996 11.996 0 0 0-16.97 0A11.996 11.996 0 0 0 4 17v2a9 9 0 0 0 9 9h6a9 9 0 0 0 9-9v-2z" fill="#fbc546"/><path d="M13 16.5a1.503 1.503 0 0 0-1.5-1.5 1.503 1.503 0 0 0-1.5 1.5v2.002zM9 18.502C9 19.329 9.671 9.622 9.861 9.091-8.898 9.295C9.272 10.845 8.495 9.497 6.658 8.997c0 1.043-1.083 1.304-.789 1.77C20 18.467 15.565 60 29.355 6.981A16.99 19.89 0 0 1 6.994 15h.002a7.98 7.98 0 0 1-2.928 6.902 9.967 9.967 0 0 1-6.942 2.923c-2.753.018-5.505.018-8.258 0a9.967 9.967 0 0 1-7.192-3.187 9.983 9.983 0 0 1-2.844-6.857L2 21.5a1.5 1.5 0 0 0-1.5-1.5H25l-1 1v1l1 1h.5a1.5 1.5 0 0 0 1.5-1.5zM11 19.5A1.5 1.5 0 0 0 9.5 18h-3a1.5 1.5 0 0 0 0 3h3a1.5 1.5 0 0 0 1.5-1.5z" fill="#ed6b44"/><path d="M23.707 11.293l.028.029.026.029.025.031.024.032.023.032.021.034.02.034.019.036.017.035.016.037.014.037.013.038.011.038.01.038.008.039.007.039.005.04.004.039.002.04v.04l-.001.04-.003.039-.004.04-.006.039-.008.039-.009.039-.01.038-.012.038-.014.038-.015.036-.016.037-.018.035-.02.035-.02.034-.022.033-.024.032-.024.031-.026.031-.027.029-.028.028-.029.027-.031.026-.031.024-.032.024-.033.022-.034.02-.035.02-.035.018-.037.016-.036.015-.038.014-.038.012-.038.01-.039.009-.039.008-.039.006-.04.004-.039.003-.04.001h-.04l-.04-.002-.039-.004-.04-.005-.039-.007-.039-.008-.038-.01-.038-.011-.038-.013-.037-.014-.037-.016-.035-.017-.036-.019-.034-.02-.034-.021-.032-.023-.032-.024-.031-.025-.029-.026-.029-.028L21 14.414l-1.293 1.293-.029.028-.029.026-.031.025-.032.024-.032.023-.034.021-.034.02-.036.019-.035.017-.037.016-.037.014-.038.013-.038.011-.038.01-.039.008-.039.007-.04.005-.039.004-.04.002h-.04l-.04-.001-.039-.003-.04-.004-.039-.006-.039-.008-.039-.009-.038-.01-.038-.012-.038-.014-.036-.015-.037-.016-.035-.018-.035-.02-.034-.02-.033-.022-.032-.024-.031-.024-.031-.026-.029-.027-.028-.028-.027-.029-.026-.031-.024-.031-.024-.032-.022-.033-.02-.034-.02-.035-.018-.035-.016-.037-.015-.036-.014-.038-.012-.038-.01-.038-.009-.039-.008-.039-.006-.039-.004-.04-.003-.039-.001-.04v-.04l.002-.04.004-.039.005-.04.007-.039.008-.039.01-.038.011-.038.013-.038.014-.037.016-.037.017-.035.019-.036.02-.034.021-.034.023-.032.024-.032.025-.031.026-.029.028-.029L21 11.586l2.707 2.707zM13.707 14.293l.028.029.026.029.025.031.024.032.023.032.021.034.02.034.019.036.017.035.016.037.014.037.013.038.011.038.01.038.008.039.007.039.005.04.004.039.002.04v.04l-.001.04-.003.039-.004.04-.006.039-.008.039-.009.039-.01.038-.012.038-.014.038-.015.036-.016.037-.018.035-.02.035-.02.034-.022.033-.024.032-.024.031-.026.031-.027.029-.028.028-.029.027-.031.026-.031.024-.032.024-.033.022-.034.02-.035.02-.035.018-.037.016-.036.015-.038.014-.038.012-.038.01-.039.009-.039.008-.039.006-.04.004-.039.003-.04.001h-.04l-.04-.002-.039-.004-.04-.005-.039-.007-.039-.008-.038-.01-.038-.011-.038-.013-.037-.014-.037-.016-.035-.017-.036-.019-.034-.02-.034-.021-.032-.023-.032-.024-.031-.025-.029-.026-.029-.028L21 14.414l-1.293 1.293-.029.028-.029.026-.031.025-.032.024-.032.023-.034.021-.034.02-.036.019-.035.017-.037.016-.037.014-.038.013-.038.011-.038.01-.039.008-.039.007-.04.005-.039.004-.04.002h-.04l-.04-.001-.039-.003-.04-.004-.039-.006-.039-.008-.039-.009-.038-.01-.038-.012-.038-.014-.036-.015-.037-.016-.035-.018-.035-.02-.034-.02-.033-.022-.032-.024-.031-.024-.031-.026-.029-.027-.028-.028-.027-.029-.026-.031-.024-.031-.024-.032-.022-.033-.02-.034-.02-.035-.018-.035-.016-.037-.015-.036-.014-.038-.012-.038-.01-.038-.009-.039-.008-.039-.006-.039-.004-.04-.003-.039-.001-.04v-.04l.002-.04.004-.039.005-.04.007-.039.008-.039.01-.038.011-.038.013-.038.014-.037.016-.037.017-.035.019-.036.02-.034.021-.034.023-.032.024-.032.025-.031.026-.029.028-.029L21 11.586l2.707 2.707zM13.707 14.293l.028.029.026.029.025.031.024.032.023.032.021.034.02.034.019.036.017.035.016.037.014.037.013.038.011.038.01.038.008.039.007.039.005.04.004.039.002.04v.04l-.001.04-.003.039-.004.04-.006.039-.008.039-.009.039-.01.038-.012.038-.014.038-.015.036-.016.037-.018.035-.02.035-.02.034-.022.033-.024.032-.024.031-.026.031-.027.029-.028.028-.029.027-.031.026-.031.024-.032.024-.033.022-.034.02-.035.02-.035.018-.037.016-.036.015-.038.014-.038.012-.038.01-.039.009-.039.008-.039.006-.04.004-.039.003-.04.001h-.04l-.04-.002-.039-.004-.04-.005-.039-.007-.039-.008-.038-.01-.038-.011-.038-.013-.037-.014-.037-.016-.035-.017-.036-.019-.034-.02-.034-.021-.032-.023-.032-.024-.031-.025-.029-.026-.029-.028L21 15.414l-1.293 1.293-.029.028-.029.026-.031.025-.032.024-.032.023-.034.021-.034.02-.036.019-.035.017-.037.016-.037.014-.038.013-.038.011-.038.01-.039.008-.039.007-.04.005-.039.004-.04.002h-.04l-.04-.001-.039-.003-.04-.004-.039-.006-.039-.008-.039-.009-.038-.01-.038-.012-.038-.014-.036-.015-.037-.016-.035-.018-.035-.02-.034-.02-.033-.022-.032-.024-.031-.024-.031-.026-.029-.027-.028-.028-.027-.029-.026-.031-.024-.031-.024-.032-.022-.033-.02-.034-.02-.035-.018-.035-.016-.037-.015-.036-.014-.038-.012-.038-.01-.038-.009-.039-.008-.039-.006-.039-.004-.04-.003-.039-.001-.04v-.04l.002-.04.004-.039.005-.04.007-.039.008-.039.01-.038.011-.038.013-.038.014-.037.016-.037.017-.035.019-.036.02-.034.021-.034.023-.032.024-.032.025-.031.026-.029.028-.029L21 11.586l2.707 2.707zM13.707 14.293l.028.029.026.029.025.031.024.032.023.032.021.034.02.034.019.036.017.035.016.037.014.037.013.038.011.038.01.038.008.039.007.039.005.04.004.039.002.04v.04l-.001.04-.003.039-.004.04-.006.039-.008.039-.009.039-.01.038-.012.038-.014.038-.015.036-.016.037-.018.035-.02.035-.02.034-.022.033-.024.032-.024.031-.026.031-.027.029-.028.028-.029.027-.031.026-.031.024-.032.024-.033.022-.034.02-.035.02-.035.018-.037.016-.036.015-.038.014-.038.012-.038.01-.039.009-.039.008-.039.006-.04.004-.039.003-.04.001h-.04l-.04-.002-.039-.004-.04-.005-.039-.007-.039-.008-.038-.01-.038-.011-.038-.013-.037-.014-.037-.016-.035-.017-.036-.019-.034-.02-.034-.021-.032-.023-.032-.024-.031-.025-.029-.026-.029-.028L21 14.414l-1.293 1.293-.029.028-.029.026-.031.025-.032.024-.032.023-.034.021-.034.02-.036.019-.035.017-.037.016-.037.014-.038.013-.038.011-.038.01-.039.008-.039.007-.04.005-.039.004-.04.002h-.04l-.04-.001-.039-.003-.04-.004-.039-.006-.039-.008-.039-.009-.038-.01-.038-.012-.038-.014-.036-.015-.037-.016-.035-.018-.035-.02-.034-.02-.033-.022-.032-.024-.031-.024-.031-.026-.029-.027-.028-.028-.027-.029-.026-.031-.024-.031-.024-.032-.022-.033-.02-.034-.02-.035-.018-.035-.016-.037-.015-.036-.014-.038-.012-.038-.01-.038-.009-.039-.008-.039-.006-.039-.004-.04-.003-.039-.001-.04v-.04l.002-.04.004-.039.005-.04.007-.039.008-.039.01-.038.011-.038.013-.038.014-.037.016-.037.017-.035.019-.036.02-.034.021-.034.023-.032.024-.032.025-.031.026-.029.028-.029L21 11H116.712l-2.864 3.795-1.845 1.846-.039.041-.035.043-.035.044-.038.042-.04.041-.042.041-.044.041-.045.04-.045.037-.045.038-.046.039-.046.039-.045.039-.045.04-.045.039-.044.041-.044.041-.043.042-.045.044-1.286 1.286-.05.047-.053.043-.056.039-.058.036-.061.031-.062.027-.064.023-.066.019-.067.013-.068.01-.068.004h-.068l-.068-.004-.068-.01-.067-.013-.066-.019-.064-.023-.062-.027-.061-.031-.058-.036-.056-.039-.053-.043-.05-.047-.047-.05-.043-.053-.039-.056-.036-.058-.031-.061-.027-.062-.023-.064-.019-.066-.013-.067-.01-.067-.004-.068v-.068l.004-.068.01-.068.013-.067.019-.066.023-.064.027-.062.031-.061.036-.058.039-.056.043-.053.047-.05 1.29-1.29.058-.058.062-.058.061-.058.063-.058.063-.057.063-.057.064-.055.064-.055.065-.054.065-.053.067-.052.066-.051.068-.051.068-.049.068-.049.069-.048.069-.047.07-.046.071-.045.071-.045.072-.043.072-.042.072-.042.073-.041.074-.04.074-.039.074-.038.075-.037.075-.036.076-.035.076-.034.076-.034.077-.033.077-.031.078-.031.078-.03.078-.028.079-.028.079-.027.08-.025.079-.025.08-.024.081-.023.081-.022.081-.021.081-.019.082-.019.081-.018.082-.017.083-.016.083-.015.082-.014.083-.013.084-.012.083-.011.084-.01.084-.009.084-.007.084-.007.084-.006.085-.005.084-.008.084-.009.082-.01.083-.011.084-.013.083-.014.082-.015.082-.016.083-.017.083-.018.082-.018.083-.028.083-.027.081-.036.07-.035.071-.035.071-.035.072-.035.073-.034.074-.033.065-.031.066-.031.067-.03.078-.038.088-.037.082-.036.083-.035.084-.03.084-.035.084-.035.085-.034.085-.032.087-.031.087-.03.088-.03.088-.03.088-.035.088-.035.088-.035.089-.033.09-.031.091-.027.081-.026.081-.026.081-.027.081-.028.081-.029.081-.031.081-.03.081-.03.081-.03.08-.028.089-.027.089-.026.089-.024.089-.024.089-.023.08-.022.08-.02.08-.019.08-.018.08-.016.08-.014.08-.015.08-.014.081-.012.083-.011.084-.01.084-.009.084-.007.084-.007.084-.006.085-.005.084-.003.085-.003.085-.001.082-.001h1.164l.082.001zM12 12.5a1.503 1.503 0 0 0-1.5-1.5A1.503 1.503 0 0 0 9 12.5v2a1.503 1.503 0 0 0 1.5 1.5 1.503 1.503 0 0 0 1.5-1.5v-2zM23 12.498c0-.827-.671-1.498-1.498-1.498h-.004c-.827 0-1.498.671-1.498 1.498v2.004c0 .827.671 1.498 1.498 1.498h.004c.827 0 1.498-.671 1.498-1.498v-2.004z"/></svg>
