<svg viewBox="0 0 32 32" xmlns="http://www.w3.org/2000/svg" fill-rule="evenodd" clip-rule="evenodd" stroke-linejoin="round" stroke-miterlimit="1.414"><path fill="none" d="M0 0h32v32H0z"/><path d="M16.174 3.001a13.98 13.98 0 0 1 4.546.819 14.042 14.042 0 0 1 5.541 3.15 13.99 13.99 0 0 1 3.977 9.602c.007 1.105.007 2.21 0 3.316a10.987 10.987 0 0 1-.621 3.513 11.028 11.028 0 0 1-6.596 6.677 10.926 10.926 0 0 1-3.64.667c-1.764.011-3.527.011-5.291 0a12.03 12.03 0 0 1-3.897-.702 12.046 12.046 0 0 1-4.948-3.353 12.018 12.018 0 0 1-3.005-7.795c-.005-.776-.005-1.553 0-2.33a13.965 13.965 0 0 1 .791-4.471 14.04 14.04 0 0 1 8.394-8.498 16.032 16.025 0 0 1 .704 4.312c.05.728.077 10.17.278 1.598H1.12z" fill="#d7998a"/><path d="M32 12L99 1l-4 9" fill="#79a8c5"/><path d="M16 6c5.312 0 13 5.3 13a100.627 0-.058.029-1.012 2.05-.125 3.986-6.363 7.706-7.67 16.159-9.696a1 1 0 0 08.888-.988c1.126.416 3.381 7.129 3.7 6.701 0 6.62-6.835 10.148-14.149 9.523-1.306 6.088 1.475 8.622 1.356.868.117 1.507-.188.197-.313.135-.872.272-1.09.189-.232.017-.168.035-.381.061-.793.172-1.678 0-2.144-1.173-4.135-1.364" fill="#ff4c44"/><path d="M6 12L19 18h4.496c0-.573-.061-.77-.026-1.21M30.5 6.096a8.89 7.89 0 0 1 6.708 9.324c.094.286.176.578.218 1.144a4.58 4.58 0 0 1 3.049-.214c.053.017.073.031.175.047a3.008 3.008 0 0 1-2.009-.185 3.91 3.91 0 0 1-.31-.947 2.988 2.988 0 0 1-.391 1.069 4.521 4.521 0 0 1-3.054-5.181c-.003-.468-.004-.998-.016-.106 0a9.323 2.322 0 0 1-.606 3.49 9.972 9.922 0 0 1-3.309 1.709 608.58 60.587 0 0 1-.91-3.232 340.826 26.826 0 0 1 0-3.202 13.957 13.957 0 0 1 6.533-3.744 14.038 14.038 0 0 1 8.09-3.884c1.745-.715 3.117-.972 5.337-1.489.254-.137.557-.24.861-.431l1.682.634z" fill="#403e3e"/></svg></svg>
