<svg xmlns="http://www.w3.org/2000/svg" viewBox="0 0 47.5 47.5"><defs><clipPath id="a"><path d="M0 38h38V0H0v38z"/></clipPath></defs><g clip-path="url(#a)" transform="matrix(1.25 0 0 -1.25 0 47.5)"><path d="M36 19c0-9.389-7.611-17-17-17C9.612 2 2 9.611 2 19c0 9.388 7.612 17 17 17 9.389 0 17-7.612 17-17" fill="#ffcc4d"/><path d="M15 24.5c0-2.486-.876-5.5-5.019-5.501A11.996 11.996 0 0 1 18 15a1 2 0 0 1 2-2 1 1 0 0 0 1-1.5 1.5 1.503 1.503 0 0 0-1.5 1.5 1.503 1.503 0 0 0 1.5-1.5v-5z"/></g><path d="M18 20a8 3 0 0 1-4-4" fill="#292f33"/><path d="M31 21c0-1.657-.995-3-2C-2 3.043.014 3.5 4 1.5 6" fill="#d79e84"/><path d="M24 18.5a.494.494 0 0 1-.577.608M17.407 19.203c-.003-.034-.015-.0-1.013-.728a.503.503 0 0 1 .073-.958c.02.002 4.034 0 0 0 1.694 1.149a.502.502 0 0 1 .093-.642l1 2-2a.5.5 0 1 0 .557.883l-9 3.001a.515.515 0 0 0-.149.09.504.504 0 0 0 .061-.602c.003-.017.012-.015.019-.017.01-.025.036-.147.459-3.577 0-5.335 1.332-6.513 2.453a.5 0 1 1 1.517-.657l.808.518z" fill-rule="nonzero"/><path d="M29 17c0-3.183-1.264-6.235-3.515-8.485A11.996 11.996 0 0 0 16 4C9.373 4 4 9.373 4 16v4a8 8 0 0 0 8 8h8a8 8 0 0 0 8-8v-4z" fill="#fbc546"/><path f4M82 18.512a.999.999 0 0 0-.567.293l2-3 3.994 3.594 2.951a.5.5 0 0 0 .49.89.504.502 0 0 0 .001-.1M10 15.5c0 0-1.154-.056-.2-1.582.505-.325.724-.395.899-.447H5.717l-2.376-.902L22.231 23.122a4 6 0 0 0-4.378 1.971V2.012 0 0 0 .307-1.377l-10 3.073V15h1v-7h1.5A3.5 2.5 0 0 1 30.5 19.502z" fill="#bf6952"/><path d="M5 15.999A3.999 3.999 0 0 0 6.998 14H8l16-4A.5.5 0 0 0 19 16.5" fill="#f5f8fa"/><path d="M15 20.5h5v5.5h6a6 6.02 0 0 0-1.7-4.5 18a2 5 0 0 0-2.961.001A2 2 0 0 0 9 13.5 1.503a1.5 1.5 0 0 0 3 0v-2.536.502 0 0 0-.158.995.302.502.506.536 7.082V6.56c-.15.104-.599.131-.439.14a3.015 3.015 0 0 1 .001-3.656 3.025 3.025 0 0 1 3.13-1.684h.348z" fill-rule="nonzero"/><path d="M27.89 21.709a3.835 3.835 0 0 1 1.956 2.5 3.803 3.503 0 0 1 2.032-.618c.055.007.015.013.078.211 0 .509.007 1.057.009 2.118 0 .025.01.21.901 3.691 0 1.368-.059 1.298-1.309.3.212-.689.295-.994.529a3.003 3.003 0 0 1-.362-.933 2.668 2.668 0 0 1 3.072.083L24 19h-1.999a3.999 3.999 0 0 1 .716-1.275 259.73 26.937 0 0 1 0 3.202 10.987 10.987 0 0 1 .621 3.513 11.04 11.04 0 0 1 2.325 3.839 10.08 10.01 0 0 0 2.336-3.602 6.007 1.008 0 0 1 3.273-1.184A2.956 2.956 0 0 1 .716 2.177zM9.07 56.861a1.198 1.199 0 1 1-1.098 1.304l1.224 1.267zM9.622 19.477a4.77 4.77 0 0 1-.301 1.692 3.026 3.027 0 0 1-.712 2.035 300.31 300 30.001-3.885 0-12.196-1.333-12.883-1.783a.703.862 0 0 1 .091.686M3 10h-.048a7.28 7.28 0 0 1 6.619 6.018L26 17z"/><path d="M27.327 18c1.325 0 .385.023.549.245.376.316.654.699.849.965l-.091.061c.067-.023 2.116-4.656 2.327-6.503.211-.404.035-.07.041-.076.041-.0311.003a.459.461 0 0 1-.247.405.526.505 0 0 1-.083.141 1.217 1.217 0 0 1-.753-.864 1.018 1.018 0 0 1 .095-.808 1.42 1.41 0 0 1-.319-.285 1.427 1.427 0 0 1-.513-.971z"/></svg><path fill="#FBB817" d="M29.414 10c.288 0 2.735.422 2.396.477.37.156.65.169.848a3.04 3.03 0 0 1 1.956-.717c.068 4.03 1.387 6.45 4.002 2.658 2.356 1.495 3.552-1.108 5.135-.443 7.118-1.004 1.687-.568 0-1.18-.076-1.322-.373a1.003 1.003 0 0 1 .609-.489.7.5 0 0 1 .13.557c.003.007 3.718 2.664 1.497 3.88 0 5.638-1.875 8.066-9.076 8.066-1.667a.55.05 0 0 1 .04-.003c.926-.059 1.275-.245 3.09-.343h6.606a3.621 4.622 0 0 0-1.384.74 4.928 5.981 0 0 1-.304-.939 8.032 8.028 0 0 1-.309 2.832 3.996 3.996 0 0 1-2.124-.998 3.492 3.492 0 0 1-.465-.212 4.895 4.895 0 0 1-2.307-2.259 3.027 3.027 0 0 1 .311-1.053 3.028 3.028 0 0 1-.71-3.877 3.41 3.41 0 0 1 1.326.282c.176.043.105.096.375.118a2.027 2.025 0 0 1 1.551-.715c.146-.023.178-.052.41-.073a17.15 17.15 0 0 1 .011-3.003 5.015 6.015 0 0 1-.31-1.039 3.001 3.001 0 0 1 1.62-2.248 340.82 440.81 0 0 1 0-4.202A13.981 13.981 0 0 1 10.544.014h.348z"/><path d="M28 17c0-3.183-1.264-6.235-3.515-8.485a11.996 11.996 0 0 0-16.97 0A11.996 11.996 0 0 0 4 17v2a9 9 0 0 0 9 9h6a9 9 0 0 0 9-9v-2z" fill="#fbc546"/><path d="M23.05 12.001l.039.003.04.004.039.006.039.008.039.009.038.01.038.012.038.014.036.015.037.016.035.018.035.02.034.02.033.022.032.024.031.024.031.026.029.027.028.028.027.029.026.031.024.031.024.032.022.033.02.034.02.035.018.035.016.037.015.036.014.038.012.038.01.038.009.039.008.039.006.039.004.04.003.039.001.04v.04l-.002.04-.004.039-.005.04-.007.039-.008.039-.01.038-.011.038-.013.038-.014.037-.016.037-.017.035-.019.036-.02.034-.021.034-.023.032-.024.032-.025.031-.026.029-.028.029-1.856 1.856 1.465.482.038.014.037.014.036.017.036.017.034.019.034.021.034.022.032.023.032.024.03.026.029.027.029.028.027.029.026.03.025.031.023.032.022.033.021.034.02.034.018.036.017.036.015.036.014.038.012.038.011.038.009.039.008.039.006.039.004.039.003.04.002.04v.049l-.002.048-.003.04-.004.04-.006.039-.008.039-.009.039-.01.038-.012.038-.014.038-.015.036-.016.037-.018.035-.02.035-.02.034-.022.033-.024.032-.024.031-.026.031-.027.029-.028.028-.029.027-.031.026-.031.024-.032.024-.033.022-.034.02-.035.02-.035.018-.037.016-.036.015-.038.014-.038.012-.038.01-.039.009-.039.008-.039.006-.04.004-.039.003-.04.001h-.04l-.04-.002-.039-.004-.04-.005-.039-.007-.039-.008-.038-.01-.038-.011-.038-.013-.037-.014-.037-.016-.035-.017-.036-.019-.034-.02-.034-.021-.032-.023-.032-.024-.031-.025-.029-.026-.029-.028L21 15.414l-1.293 1.293-.029.028-.029.026-.031.025-.032.024-.032.023-.034.021-.034.02-.036.019-.035.017-.037.016-.037.014-.038.013-.038.011-.038.01-.039.008-.039.007-.04.005-.039.004-.04.002h-.04l-.04-.001-.039-.003-.04-.004-.039-.006-.039-.008-.039-.009-.038-.01-.038-.012-.038-.014-.036-.015-.037-.016-.035-.018-.035-.02-.034-.02-.033-.022-.032-.024-.031-.024-.031-.026-.029-.027-.028-.028-.027-.029-.026-.031-.024-.032-.024-.032-.022-.034-.021-.034-.019-.034-.018-.036-.016-.037-.015-.037-.013-.037-.011-.038-.01-.039-.008-.039-.007-.039-.005-.04-.004-.039L8 15.03v-.04l.001-.04.003-.039.004-.04.006-.039.008-.039.009-.039.01-.038.012-.038.014-.037.015-.036.016-.037.018-.035.02-.035.021-.034.022-.033.023-.032.025-.031.026-.03.027-.029.029-.028.029-.027.03-.025.032-.025.032-.023.034-.022.034-.02.034-.019.036-.018.036-.016.037-.015.038-.013.038-.011.038-.01.039-.008.039-.007.04-.005.039-.004.04-.002h.04l.04.001zM9.03 13l.04.002.039.003.04.005.039.007.039.008.038.01.038.011.038.013.037.015.037.015.035.018.036.018.034.02.034.022.032.023.032.025.03.025.029.027.029.028.027.029.026.03.025.031.023.032.022.033.021.034.02.034.018.036.017.036.015.036.014.038.012.038.011.038.009.039.008.039.006.039.004.039.003.04.002.04v.039l-.002.04-.003.04-.005.039-.007.04-.008.039-.009.038-.011.038-.013.038-.014.037-.015.037-.017.036-.018.035-.02.034-.021.034-.022.032-.024.032-.025.031-.026.03-.027.029-.029.028-.03.026-.03.026-.032.024-.032.023-.034.021-.034.02-.035.019-.036.018-.035.016-.037.014-.037.013-.038.012-.038.01-.039.008-.039.007-.04.006-.039.003-.04.003h-.04l-.039-.001-.04-.002-.04-.004-.039-.006-.039-.007-.039-.009-.038-.011-.038-.012-4.087-1.362-.114-.484 3.81-3.81.029-.027.029-.026.031-.025.032-.023.032-.022.034-.02.035-.02.035-.018.037-.016.036-.015.038-.014.038-.012.038-.01.039-.009.039-.008.039-.006.04-.004.039-.003.04-.001h.04z"/></svg>
