<svg xmlns="http://www.w3.org/2000/svg" viewBox="0 0 128 128"><path d="M117.63 63.88s-.74-2.55-2.58-2.63-5.58 1.97-3.71 7.36-2.5 10.67 1.24 5.18 2.17 11.21 6.97 13.25 9.43.47.37.75.57 1.12.62l3.77 1.3c-.01.42-1.32.51-2.42.78-2.12 0-5.31-.78-7.38-2.18-5.41-2.74-6.78-8.19-3.37-14.78.84-4.63 7.37-7.85 10.05-9.66 9.04.34 20.34 2.55 54.91 1.77 10.07 0 13.34-.6 17.57-4.84.51-.38 1.51-.37 1.94-.43.27-.63.41-1.17.41-1.08.02-1.57-.01-3.59-.01-5.62 0-.64 0-4.76 1.13-7.89.92-.96 0-1.45.1-1.9.34-.09.01-.07.01-.09.01z"/></svg>
