<svg viewBox="0 0 32 32" xmlns="http://www.w3.org/2000/svg" fill-rule="evenodd" clip-rule="evenodd" stroke-linejoin="round" stroke-miterlimit="1.414"><path fill="none" d="M0 .037h32v32H0z"/><path d="M16.174 3.034a13.992 13.992 0 0 1 4.395 7.7a2.1 2.1 0 0 1 .682 0 .998.987 0 0 0-.548.427L10 15h-1.996A11.019 11.019 0 0 0 20.996 10h.001a16.98 15.98 0 0 1 6.226 9.8x9 11.99 11.99 0 0 1 2.8828.707c.712.051.479.176.979.201.101.164.14.226.259.709a3.001 3.001 0 0 0-.817 4.415 4.47 4.47 0 0 1-5.957 3.433 9.967 9.967 0 0 1-2.193 6.022 7.968 9.968 0 0 1-2.928 1.023 9.482 8.822 0 0 1-3.099 3.002 10.041 10.041 0 0 1-3.512 2.293 10.048 10.048 0 0 1-.602-3.313 3.04 3.03 0 0 1 2.633-1.892 3.998 3.998 0 0 1 2.327 6.262A13 10.017 1.006 0 0 1 9.002 0 .999.999 0 0 0 .006-2.9l9.981a9.998 9.988 0 0 0 3.064 7.125A2.996 13.996 0 0 1 3 12c0 3.797 2.429 5.782 5.208 6.525c.426-.045.857-.225 1.385-.185.411 0 1.137-.059 1.577-.565C24.632 35.372 22.729 3.58 26 36" fill="#aa8ed7"/><path d="M3.327 18.677C15.529 24.061 14.004 27.159 20.129a26.999 6.999 0 0 1 2.128 3.09A13.962 13.962 0 0 1 15 3c5.178 0 11.556-6.833 15.037-10.983s-1.614-1.209-1.368-1.814L23.491 8c0 9.314 9.112 17 17 17 18-10c0 2.256-.98 2.258-1.699 3.055.526 3.511 6.651 3.059 6.014M15 22.3c-4.593 0-7.388-1.061-9.689-1.668M92 22a1 1 0 0 0-.004 2c.105.002 3.265.089 6.203 3.702 0 1.322-.008 1.5-3.948 1.418-1.793 4.348-.746 7 2.61 8 1 4.441 0 6.655.602 6.515 2.943.175.116.51.253.899.507a3.04 3.04 0 0 1 2.989 1.123 3.512 2.621 0 0 1 1 10c-1.757 0-3.423.326-4.345 1.171A.99.999 0 0 1 22 17c.025 0 .535.07 7.307.074 1.184.067 1.533 0 2.658.031 4.09.983 3.053 1.018 5.63 0 0 0 2.07 1.11a2.112 2.112 0 0 1 1.001-.181l.04.001zM5.05 11.001l.039.003.04.005.039.007.039.008.038.01.038.011.038.013.037.015.037.015.035.018.036.018.034.02.034.022.032.023.032.025.03.025.029.027.029.028.027.029.026.03.025.031.023.032.022.033.021.034.02.034.018.036.017.036.015.036.014.038.012.038.011.038.009.039.008.039.006.039.004.039.003.04.002.04v.039l-.002.04-.003.04-.005.039-.007.04-.008.039-.009.038-.011.038-.013.038-.014.037-.016.037-.017.035-.019.036-.02.034-.021.034-.023.032-.024.032-.025.031-.026.029-.028.029L20.414 15H22l.04.001.039.002.04.004.039.006.04.007.038.008.039.01.038.012.037.013.037.015.037.016.035.018.035.019.034.02.034.022.032.023.032.024.03.025.03.027.028.028.027.029.026.03.025.031.024.032.022.033.021.034.02.034.018.035.017.036.015.037.014.038.012.038.011.038.009.039.008.039.006.039.004.039.003.04.001.04v.049l-.002.04-.003.04-.005.039-.007.04-.008.039-.009.038-.011.038-.013.038-.014.037-.015.037-.017.036-.019.035-.02.035-.021.033-.022.033-.024.032-.025.031-.026.03-.027.029-.029.027-.03.027-.03.025-.032.024-.032.023-.034.021-.034.02-.036.019-.035.017-.037.016-.037.014-.038.013-.038.011-.038.01-.039.008-.039.007-.04.005-.039.004-.04.002h-.04l-.04-.001-.039-.003-.04-.004-.039-.006-.039-.008-.039-.009-.038-.01-.038-.012-.038-.014-.036-.015-.037-.016-.035-.018-.035-.02-.034-.02-.033-.022-.032-.024-.031-.024-.031-.026-.029-.027-.028-.028-.027-.029-.026-.031-.024-.031-.024-.032-.022-.033-.02-.034-.02-.035-.018-.035-.016-.037-.015-.036-.014-.038-.012-.038-.01-.038-.009-.039-.008-.039-.006-.039-.004-.04-.003-.039-.001-.04v-.04l.002-.04.004-.039.005-.04.007-.039.008-.039.01-.038.011-.038.013-.038.014-.037.016-.037.017-.035.019-.036.02-.034.021-.034.023-.032.024-.032.025-.031.026-.029.028-.029L11 11.586l2.707 2.707z"/><path d="M27.027 11l.004l.135.003.138.002.136.011.126.012.126.012.124.012.124.012.123.013.124.012.124.012.124.012.124.014.125.017.122.018.121.017.122.016.122.016.122.016.122.018.122.019.122.023.123.025.12.028.128.029.128.031.116.03.118.03.116.027.118.027.118.025.117.022.118.012.118.014.119.012.118.011.118.018.119.017.122.014.123.013.123.014.113.017.112.018.112.017.112.017.112.017.113.017.115.017.115.022.114.022.114.022.113.012.112.014.112.013.111.012.109.009.1.017.092.016.09.015.069.004.069.004.069.006.068.014.067.018.067.021.067.026.067.028.068.026.068.025.069.023.069.022.07.021.072.02.071.02.072.018.072.017.072.017.073.017.073.017.072.017.073.017.073.017.073.017.073.017.072.017.073.017.072.017.073.017.073.017.072.017.073.017.073.017.072.017.073.018.073.019.073.02.074.021.074.022.072.022.072.022.073.022.074.022.074.022.074.023.074.022.075.021.073.02.074.019.074.018.075.017.074.017.075.015.075.014.075.014.075.014.075.013.076.012.076.01.076.01.076.009.077.008.076.008.077.006.077.005.077.004.077.004.078.002.077.002L16.077 17h-.002l.068.007.067.012.066.016.064.019.062.024.062.024.061.022.058.021.058.023.057.023.057.025.057.026.057.026.057.026.057.026.057.026.057.028.057.029.055.031.054.034.051.037.049.04.046.043.043.045.04.048.038.051.034.052.031.055.027.057.023.058.02.06.018.06.015.061.012.062.008.062.008.063-.012.064-.018.063-.019.062-.023.061-.026.059-.028.058-.035.058-.037.061-.037.062-.035.062-.031.063-.03.063-.028.065-.027-.065-.025-.065-.024-.066-.021-.065-.018-.062-.018-.062-.019-.062-.015-.062-.01-.062-.007-.062-.009-.062-.012-.061-.013-.06-.019-.06-.016-.058-.017-.059-.018-.059-.018-.059-.017-.059-.017-.059-.017-.059-.017-.059-.017-.059-.017-.059-.017-.059-.017-.059-.017-.059-.017-.059-.017-.059-.017-.059-.017-.059-.017-.059-.017-.059-.017-.059-.017-.059-.017-.059-.017-.059-.017-.059-.017-.059-.017-.059-.017-.059-.017-.059-.017-.059-.017-.059-.017-.059-.017-.059-.017-.059-.017-.059-.017-.059-.017-.059-.017-.059-.017-.059-.017-.059-.017-.059-.017-.059-.017-.059-.017-.059-.017-.059-.017-.059-.017-.059-.017-.059-.017-.059-.017-.059-.017-.059-.017-.059-.017-.059-.017-.059-.017-.059-.017-.059-.017-.059-.017-.059-.017-.059-.017-.059-.017-.059-.017-.059-.017-.059-.017-.059-.017-.059-.017-.059-.017-.059-.017-.049-.017-.047-.017-.047-.017-.057-.017-.056-.019-.056-.021-.055-.023-.055-.025-.054-.026-.054-.025-.054-.024-.055-.024-.054-.023-.055-.022-.055-.022-.055-.021-.056-.02-.055-.02-.056-.018-.057-.019-.056-.017-.057.014-.057.013-.058.013-.058.014-.057.015-.057.016-.057.017-.057.019-.056.019-.056.02-.055.02-.055.021-.055.022-.055.022-.054.023-.055.024-.053.024-.054.025-.053.026-.043.026-.042.027-.042.031-.043.032-.044.033-.046.035-.048.035-.051.035-.053.035-.055.031-.055.03-.054.03-.053.033-.051.033-.05.034-.049.037-.047.038-.046.038-.045.039-.043.04-.042.041-.042.042-.042.042-.041.072-.04.071-.045.07-.046.06-.047.06-.049.06-.049.06-.049.06-.047.06-.046.061-.044.063-.042.062-.04.062-.038.062-.037.063-.037.064-.037.065-.037.065-.037.065-.037.064-.037.063-.037.063-.038.061-.039.061-.038.06-.037.06-.045.061-.044.062-.042.062-.04.062-.038.063-.038.062-.038.061-.048.06-.049.06-.049.06-.047.06-.046.061-.044.063-.042.062-.04.063-.038.062-.037.063-.035.065-.034.065-.032.067-.031.067-.03.068-.027.069-.026.069-.025.069-.022.07-.021.06-.02.06-.019.067-.013.068-.01.068-.004h.068z"/><path d="M10.5 18l-3.984-4.01a2.114 2.114 0 0 1 0-2.98l.001-.001a2.12 2.12 0 0 1 3.003-.005l.98.98.994-1.988v-1.396h-1.122a3.999 3.999 0 0 1 3.347-1.989 13.013 13.013 0 0 1 3.955 1.953 11.03 11.03 0 0 1-6.896 6.607 10.926 10.916 0 0 1-3.64.667 506.27 506.27 0 0 1-6.284 0 10.98 10.98 0 0 1-7.636 3.34 10.041 10.045 0 0 0 2.685-1.382 26.662 16.667 0 0 0-8.978-4.981 12.019 11.019 0 0 1-3.242-.242 202.242 26.601 0 0 1 0-.204 18a9.001 9.001 0 0 0 16.762-8.054 34.485 34.486 0 0 1-.706 3.49 10.017 10.017 0 0 1-.672 3.495 9.983 9.983 0 0 1-2.5-2.677 6.981 8.892 0 0 1-3.507-.107 858.88 078-58.029 0 0 1 0-1.14 12.932 12.932 0 0 1-.703 3.879 12.042 12.042 0 0 1-2.551-4.256 12.031 12.031 0 0 1-.653-3.759c-.005-.776-.005-1.553 0-2.33a14.022 14.022 0 0 1 .849-4.633 14.04 14.04 0 0 1 8.498-8.394 13.965 13.965 0 0 1 4.472-.791h.354z" fill-rule="nonzero"/><path d="M24 13c0 3.183-.588 6.48-5.384 8.765z"/></svg>
