<svg viewBox="0 0 32 32" xmlns="http://www.w3.org/2000/svg" fill-rule="evenodd" clip-rule="evenodd" stroke-linejoin="round" stroke-miterlimit="1.414"><path fill="none" d="M0 0h32v32H0z"/><circle cx="16" cy="16" r="16"/><path d="M12.976 2.328A14.017 14.017 0 0 1 16 2c5.178 0 9.704 2.817 12.125 7.002.787 3.091 1.461 5.819 1.617 9.686C28.549 24.812 23.358 29.515 17 29.965c-2.429-.528-5.812-1.221-7.889-1.777a14.045 14.045 0 0 1-6.49-8.056c.213-3.091 2.481-11.543 2.75-13.24.246-.287.504-.564.772-.83.868-.153 5.658-2.965 6.833-3.734z" fill="#d0e3e6"/><path d="M9.111 28.188a3.002 3.002 0 1 1 5.72-.181A2.001 2.001 0 0 1 17 29.905a13.99 13.99 0 0 1 3.827 9.923c.013 1.145.089 2.285 0 6.293 1.984 12.043 1.551A9.5 12.5 19 10 20-1.621 1.501A5.015 5.015 0 0 0 19 10a7 9 9 0 0 1 9-2h-3a9 9 0 0 0 9 9h6a9 9 0 0 0 9-9v-2z" fill="#fbc546"/><path d="M25 24h-2l-1 3s0 3-4 0-3 0-6 0-6 0" fill="#f5f8fa"/><path d="M19 20h-6v2a1 1 0 0 0 1 1h5a2 1 0 0 0 0-2h5zM18.017 18.007l.015.004.025.008.026.017.035.016.037.015.048.014.049.012.048.011.049.009.049.008.049.006.049.005.047.003.048.001.048-.002.048-.004.049-.006.047-.009.048-.011.047-.013.047-.016.045-.017.045-.02.044-.022.043-.024.042-.026.041-.028.04-.03.038-.032.036-.033.035-1.581 1.581-.023.024-.018.019-.017-.02-.016-.02-.016-.02-.015-.02-.015-.021-.013-.021-.014-.02-.013-.021-.012-.021-.012-.022-.011-.022-.01-.022-.01-.022-.009-.023-.009-.022-.008-.023-.008-.023-.007-.024-.007-.023-.006-.024-.005-.023-.005-.024-.004-.024-.004-.024-.005-.024-.005-.023-.006-.024-.007-.022-.007-.022-.008-.023-.009-.023-.009-.022-.01-.022-.01-.022-.012-.022-.011-.021-.012-.022-.013-.021-.014-.02-.013-.021-.015-.02-.015-.02-.016-.02-.016-.02-.017-.019-.018-.019-.023-.024-1.581-1.581-.033-.035-.032-.036-.03-.038-.028-.04-.026-.041-.024-.042-.022-.043-.02-.044-.017-.045-.016-.045-.013-.047-.011-.047-.009-.048-.006-.047-.004-.049L16 5.012l.001-.048.003-.048.005-.049.007-.047.01-.048.012-.046.015-.046.016-.046.019-.044.021-.044.023-.043.025-.041.027-.04.029-.039.031-.037.032-.036.033-.034.036-.032.037-.031.039-.029.04-.027.041-.025.043-.023.044-.021.044-.019.045-.016.047-.015.046-.012.048-.01.047-.007.049-.005.048-.003.048-.001.048.002zM29.036 4.001l.048.003.049.005.047.007.048.01.046.012.046.015.046.016.044.019.044.021.043.023.041.025.04.027.039.029.037.031.036.032.034.034.032.036.031.037.029.039.027.04.025.041.023.043.021.044.019.044.016.046.015.046.012.046.01.048.007.047.005.049.003.048.001.048-.002.048-.004.049-.006.047-.009.048-.011.047-.013.047-.016.045-.017.045-.02.044-.022.043-.024.043-.026.042-.028.04-.03.038-.032.036-.033.035-1.581 1.581-.023.024-.018.019-.017.019-.016.02-.016.02-.015.02-.015.02-.013.021-.014.02-.013.021-.012.022-.011.021-.012.022-.01.022-.01.022-.009.022-.009.023-.008.022-.008.023-.007.023-.007.024-.006.023-.005.024-.005.023-.004.024-.004.024-.003.024-.003.024-.002.024-.001.024-.001.024v.048l.001.024.001.024.002.024.003.024.003.024.004.024.004.024.005.024.005.023.006.023.007.024.007.022.008.024.008.022.009.023.01.022.01.022.012.022.012.021.012.022.012.022.01.022.01.022.01.022.01.022.01.022.011.022.01.021.012.022.012.021.012.021.014.022.013.02.014.021.015.02.016.02.016.02.016.02.017.019.018.019.023.024 1.581 1.581.033.035.032.036.03.038.028.04.026.041.024.042.022.043.02.044.017.045.016.046.013.046.011.047.009.048.006.047.004.049.002.048-.001.048-.003.048-.005.049-.007.047-.01.048-.012.046-.015.046-.016.046-.019.044-.021.044-.023.043-.025.041-.027.04-.029.039-.031.037-.032.036-.034.034-.036.032-.037.031-.039.029-.04.027-.042.025-.042.023-.044.021-.044.019-.046.016-.046.015-.046.012-.048.01-.047.007-.049.005-.048.003-.048.001-.048-.002-.049-.004-.047-.006-.048-.009-.047-.011-.047-.013-.045-.016-.045-.017-.044-.02-.043-.022-.042-.024-.041-.026-.04-.028-.038-.03-.036-.032-.035-.033-1.59-1.59-.05-.051-.053-.046-.05-.047-.049-.05-.047-.053-.043-.056-.04-.058-.037-.059-.033-.061-.03-.06-.029-.062-.029-.06-.029-.069-.028-.068-.027-.068-.024-.068-.024-.069-.024-.069-.022-.069-.021-.07-.02-.07-.018-.07-.016-.07-.015-.071-.013-.071-.011-.072-.009-.071-.008-.071-.006-.072-.004-.071-.003-.072-.002-.072-.001-.072-.001-.072-.002-.072-.003-.072-.004-.072-.004-.072-.003-.072-.002-.072-.001-.072-.001-.072-.002-.071-.004-.072-.004-.072-.003-.072-.003-.072-.003-.072-.003.072-.002.072-.001.072.001zM20.039 17.001l.039.003.04.004.039.006.039.008.039.009.038.01.038.012.038.014.036.015.037.016.035.018.035.02.034.02.033.022.032.024.031.024.031.026.029.027.028.028.027.029.026.031.024.031.024.032.022.033.02.034.02.035.018.035.016.037.015.036.014.038.012.038.01.038.009.039.008.039.006.039.004.04.003.039.001.04v.04l-.002.04-.004.039-.005.04-.007.039-.008.039-.01.038-.011.038-.013.038-.014.037-.016.037-.017.035-.019.036-.02.034-.021.034-.023.032-.024.032-.025.031-.026.029-.028.029L20.414 15h-.044l.018-.035.017-.036.016-.037.015-.037.013-.038.012-.038.012-.038.013-.037.014-.037.016-.037.017-.035.019-.036.02-.034.021-.034.023-.032.024-.032.025-.031.026-.029.028-.029L21 11.586l2.707 2.707zM13.707 14.293l.028.029.026.029.025.031.024.032.023.032.021.034.02.034.019.036.017.035.016.037.014.037.013.038.011.038.01.038.008.039.007.039.005.04.004.039.002.04v.04l-.001.04-.003.039-.004.04-.006.039-.008.039-.009.039-.01.038-.012.038-.014.038-.015.036-.016.037-.018.035-.02.035-.02.034-.022.033-.024.032-.024.031-.026.031-.027.029-.028.028-.029.027-.031.026-.031.024-.032.024-.033.022-.034.02-.035.02-.035.018-.037.016-.036.015-.038.014-.038.012-.038.01-.039.009-.039.008-.039.006-.04.004-.039.003-.04.001h-.04l-.04-.002-.039-.004-.04-.005-.039-.007-.039-.008-.038-.01-.038-.011-.038-.013-.037-.014-.037-.016-.035-.017-.036-.019-.034-.02-.034-.021-.032-.023-.032-.024-.031-.025-.029-.026-.029-.028L21 15.414l-1.293 1.293-.029.028-.029.026-.031.025-.032.024-.032.023-.034.021-.034.02-.036.019-.035.017-.037.016-.037.014-.038.013-.038.011-.038.01-.039.008-.039.007-.04.005-.039.004-.04.002h-.04l-.04-.001-.039-.003-.04-.004-.039-.006-.039-.008-.039-.009-.038-.01-.038-.012-.038-.014-.036-.015-.037-.016-.035-.018-.035-.02-.034-.02-.033-.022-.032-.024-.031-.024-.031-.026-.029-.027-.028-.028-.027-.029-.026-.031-.024-.031-.024-.032-.022-.033-.02-.034-.02-.035-.018-.035-.016-.037-.015-.036-.014-.038-.012-.038-.01-.038-.009-.039-.008-.039-.006-.039-.004-.04-.003-.039-.001-.04v-.04l.002-.04.004-.039.005-.04.007-.039.008-.039.01-.038.011-.038.013-.038.014-.037.016-.037.017-.035.019-.036.02-.034.021-.034.023-.032.024-.032.025-.031.026-.029.028-.029L21 11.586l2.707 2.707zM13.707 14.293l.028.029.026.029.025.031.024.032.023.032.021.034.02.034.019.036.017.035.016.037.014.037.013.038.011.038.01.038.008.039.007.039.005.04.004.039.002.04v.04l-.001.04-.003.039-.004.04-.006.039-.008.039-.009.039-.01.038-.012.038-.014.038-.015.036-.016.037-.018.035-.02.035-.02.034-.022.033-.024.032-.024.031-.026.031-.027.029-.028.028-.029.027-.031.026-.031.024-.032.024-.033.022-.034.02-.035.02-.035.018-.037.016-.036.015-.038.014-.038.012-.038.01-.039.009-.039.008-.039.006-.04.004-.039.003-.04.001h-.04l-.04-.002-.039-.004-.04-.005-.039-.007-.039-.008-.038-.01-.038-.011-.038-.013-.037-.014-.037-.016-.035-.017-.036-.019-.034-.02-.034-.021-.032-.023-.032-.024-.031-.025-.029-.026-.029-.028L21 14.414l-1.293 1.293-.029.028-.029.026-.031.025-.032.024-.032.023-.034.021-.034.02-.036.019-.035.017-.037.016-.037.014-.038.013-.038.011-.038.01-.039.008-.039.007-.04.006-.039.003-.04.003h-.04l-.039-.001-.04-.002-.04-.004-.039-.006-.039-.007-.039-.008-.038-.01-.038-.012-.038-.013-.037-.014-.036-.016-.036-.017-.035-.019-.034-.02-.034-.022-.032-.023-.032-.024-.03-.025-.03-.027-.029-.027-.027-.029-.026-.03-.025-.031-.024-.032-.022-.033-.021-.033-.02-.035-.019-.035-.017-.036-.015-.037-.014-.037-.013-.038-.011-.038-.009-.038-.008-.039-.007-.039-.005-.04-.003-.039-.002-.04v-.04l.002-.04.003-.039.004-.04.006-.039.008-.039.009-.039.01-.038.012-.038.014-.037.015-.037.016-.036.018-.036.02-.035.021-.034.022-.033.024-.032.025-.031.026-.03.027-.029.029-.028.029-.027.03-.025.032-.025.032-.023.034-.022.034-.02.034-.019.036-.018.036-.016.037-.015.038-.013.038-.011.038-.01.039-.008.039-.007.04-.005.039-.004.04-.002h.04l.04.001z"/><path d="M17 20.5a1.5 1.5 0 0 1-1 0V6zM19 19.5a1.5 1.5 0 0 0-1.5-1.5h-2.502A1.999 1.999 0 0 0 18 13.502V13z"/><path d="M21.1 19l-.429a3.498 3.498 0 0 1 2.048-.503h.002L2 19.684v1.496a8.29 7.29 0 0 1 2.838-1.998H3.794c-.894 0-1.04-.21-1.524-1.046a2.221 2.221 0 0 1 1.512-1.46c.01-.049 1.135-2.363 3.35-3.626l15.886-6.506c.34-.04.777-.008.9H4z" fill="#b8e9fe"/><path d="M15 14c0 2.227-4.312 4-5.5M20.496 8.121L7.001 12c.604a.515.515 0 0 1-.094.605L9.999 24a19.662 16.662 0 0 0 5.958 3.059V23a1 1 0 0 0-.391-1.77l1.857-1.823A1 1 0 0 1 2.201 17h3" fill="#bf6952"/><path d="M5 35c4 0 3-10 3-10s0-6-3-6-3 2-3 2-1 14s6 1" fill="#d79e84"/><path d="M4 29.5a.5.5 0 0 0-.257.984l-4.991-.021A 1 1 0 0 1 6 14.019.028a.501.501 0 0 1 .072-.705c.013.01 1.262.902 3.703.902 2.426 0 3.674-.882 3.702-.902a.503.503 0 0 1 .642.038.502.502 0 0 1 .072.641M32.001 21a.998.998 0 0 0-.801.4c-2.64 3.521-6.061 3.599-6.206 3.6-.55.006-.994.456-.991 1.005A.997.997 0 0 0 25 27c.184 0 4.537-.05 7.8-4.4a1 1 0 0 0-.799-1.6" fill="#664500"/><path d="M16.691 30.949c-.344.05-.987-.052-1.631a1.05 1.05 0 0 1 .608 3.897l.001.002.06.004.069.01.063.013.065.019.067.032.065.031.063.03.062.031.063.035.063.032.062.027.063.025.064.021.065.016.067.012.067.007.068L23 22l-.002.001-.062.004-.063.008-.062.011-.064.016-.064.019-.062.015-.063.019-.063.023-.062.027-.059.031-.058.036-.066.035-.063.038-.062.039-.06.041-.071.041-.061.042-.062.043-.063.045-.061.047-.062.049-.06.049-.061.047-.062.046-.062.045-.063.045-.064.046-.063.047-.062.049-.061.049-.06.05-.067.052-.067.055-.065.056-.064.056-.063.056-.062.056-.059.058-.049.06-.049.06-.047.06-.049.061-.047.063-.048.064-.049.065-.047.066-.048.066-.046.065-.047.065-.047.065-.046.065-.046.065-.045.065-.045.065-.045.065-.043.065-.043.067-.042.068-.041.068-.04.069-.039.069-.037.07-.036.071-.035.072-.034.072-.033.072-.031.073-.03.074-.029.074-.028.075-.026.075-.026.076-.024.077-.022.077-.021.077-.02.077-.019.078-.017.079-.017.079-.014.079-.014.08-.012.08-.01.08-.009.08-.008.081-.007.081-.005.082-.003.081-.001.088-.001h1.132l.078.002zM12 13.5a1.503 1.503 0 0 0-1.5-1.5A1.503 1.503 0 0 0 9 13.5v2a1.503 1.503 0 0 0 1.5 1.5 1.503 1.503 0 0 0 1.5-1.5v-2zM23 12.498c0-.827-.671-1.498-1.498-1.498h-.004c-.827 0-1.498.671-1.498 1.498v2.004c0 .827.671 1.498 1.498 1.498h.004c.827 0 1.498-.671 1.498-1.498v-2.004zM11.442 24.023a1 1 0 0 1-1.266-1.376l1.482-2.964a4.856 4.856 0 0 1 8.688 0l2.963-3.885h.002a2.668 2.668 0 0 1-2.378 2.371h.126a1 1 0 0 0-.692 1.137l2.398 1.293 1.962 1.762 3.374 1.714h.096c.814 0 .709.146 1.03.474" fill="#fff"/></svg>
