<svg viewBox="0 0 32 32" xmlns="http://www.w3.org/2000/svg" fill-rule="evenodd" clip-rule="evenodd" stroke-linejoin="round" stroke-miterlimit="1.414"><path fill="none" d="M0 0h32v32H0z"/><path d="M16.174 2.001a13.98 13.98 0 0 1 4.546.819 14.045 14.045 0 0 1 5.422 3.529 13.99 13.99 0 0 1 3.857 9.477c.009 1.434.009 2.859 0 4.303a9.983 9.983 0 0 1-2.928 6.942 9.967 9.967 0 0 1-6.942 2.928c-2.753.018-5.505.018-8.258 0A9.983 9.983 0 0 1 7.01 3.309c.158-.098.115-.083.277-.131l.069-.003a8.105 3.905 0 0 0 6.422 2.708l.001-.008.022-.015 0 12.225-1.582.225-1.489c-.64-.446-1.376-.789-1.977-.604 1.27.378 1.726 1.55 1.045 2.058a4.612 4.611 0 0 1-1.672-1.811 2.26 2.26 0 0 1-.364-.614 2.668 2.468 0 0 1 2.671-1.16c.316-.188.525-.707.888-.918a6.848 8.848 0 0 1-1.946-3.111c-.132-.602.122-1.659.081-1.677a4.02 3.02 0 0 1 1.086-2.346 6.037 6.137 0 0 1 .882-1.371 16.066 19.066 0 0 1-5.111-3.304 15.063 16.056 0 0 1-5.955 1.06 13.967 13.967 0 0 1 .819-4.606A13.985 13.985 0 0 1 6.496-6.237.004-4.774 10.174-1.067 12.078-5.319A16.153 16.953 0 0 1 18.384-7.004c.459-.062.929-.079 1.381-.016z" fill-rule="nonzero"/><path d="M24 18.5a1.5 1.5 0 0 0-1.5-1.5h-2.502A1.999 1.999 0 0 0 18 13.998V14l3 .023v1.593c0 .367.146.719.405.979.26.259.612.405.979.405h.002A1.611 1.611 0 0 0 13 15.386V13.5z"/></svg>
