<svg viewBox="0 0 32 32" xmlns="http://www.w3.org/2000/svg" fill-rule="evenodd" clip-rule="evenodd" stroke-linejoin="round" stroke-miterlimit="1.414"><path fill="none" d="M0 0h32v32H0z"/><circle cx="16" cy="16" r="16"/><path d="M125.05 9.201l-.029.019-.029.019-.03.021-.035.02-.034.021-.033.023-.033.024-.032.025-.03.026-.031.027-.029.028-.028.029-.027.03-.025.032-.025.032-.023.034-.022.034-.02.034-.019.036-.018.036-.016.037-.015.038-.013.038-.011.038-.01.039-.008.039-.007.04-.005.039-.004.04-.002h.04l.04.001z"/><path d="M13 27v-5h6a5 3 0 0 1-2 3h-1l.574-3 1 3 3 2-4 1" fill="#d79e84"/><path d="M33.996 10.001l.119.016.119.025.128.015.125.021.114.022.113.023.11.031.11.038.101.037.011.038.012.038.014.037.015.037.016.035.018.035.019.034.02.034.022.032.023.032.024.03.025.03.027.028.028.027.029.026.03.025.031.024.032.022.033.021.034.02.034.018.036.017.036.015.036.014.038.012.038.011.038.009.039.008.039.006.039.004.039.003.04.001.04v.049l-.002.04-.003.04-.005.039-.007.04-.008.039-.009.038-.011.038-.013.038-.014.037-.015.037-.017.036-.019.035-.02.035-.021.033-.022.033-.024.032-.025.031-.026.03-.027.029-.029.027-.03.027-.03.025-.032.024-.032.023-.034.021-.034.02-.036.019-.035.017-.037.016-.037.014-.038.013-.038.011-.038.01-.039.008-.039.007-.04.005-.039.004-.04.002h-.04l-.04-.001-.039-.003-.04-.004-.04-.006-.039-.008-.039-.009-.038-.01-.038-.012-.038-.014-.036-.015-.037-.016-.035-.018-.035-.02-.034-.02-.033-.022-.032-.024-.031-.024-.031-.026-.029-.027-.028-.028-.027-.029-.026-.031-.024-.031-.024-.032-.022-.033-.02-.034-.02-.035-.018-.035-.016-.037-.015-.036-.014-.038-.012-.038-.01-.038-.009-.039-.008-.039-.006-.039-.004-.04-.003-.039-.001-.04v-.049l.002-.04.003-.04.004-.039.006-.039.008-.039.009-.039.011-.038.012-.038.014-.038.015-.036.017-.036.018-.035.02-.035.021-.034.022-.033.023-.032.025-.031.026-.03.027-.029.029-.028.029-.027.03-.025.032-.025.034-.023.034-.022.034-.02.034-.019.036-.018.036-.016.037-.015.038-.013 1.465-.489-1.856-1.856-.028-.028-.026-.03-.025-.031-.024-.032-.022-.033-.021-.033-.02-.035-.019-.035-.017-.036-.015-.037-.014-.037-.013-.038-.011-.038-.009-.038-.008-.039-.007-.04-.005-.039-.003-.04-.002-.04v-.039l.002-.04.003-.04.004-.039.006-.039.008-.039.009-.039.011-.038.012-.038.014-.038.015-.036.017-.036.018-.036.02-.034.021-.034.022-.033.023-.032.025-.031.026-.03.027-.029.029-.028.029-.027.03-.025.032-.025.032-.023.034-.022.034-.02.034-.019.036-.018.036-.016.037-.015.038-.013.038-.011.038-.01.039-.008.039-.007.04-.005.039-.004.04-.002h.04l.04.001zM9.03 13l.04.002.039.004.04.005.039.007.039.008.038.01.038.011.038.013.037.015.037.015.035.018.035.018.034.02.034.022.032.023.032.024.03.025.03.027.028.028.027.029.026.03.025.031.024.032.022.033.021.034.02.034.018.035.017.036.015.037.014.037.013.038.011.038.009.039.008.039.006.039.005.04.003.039.002.04v.04l-.002.04-.003.039-.005.04-.007.039-.008.039-.01.038-.011.038-.013.038-.014.037-.016.037-.017.035-.019.036-.02.034-.021.034-.023.032-.024.032-.025.031-.026.029-.028.029L20.414 15H22l.04.001.039.002.04.004.039.006.04.007.038.008.039.01.038.012.037.013.037.015.037.016.035.018.035.019.034.02.034.022.032.023.032.024.03.025.03.027.028.028.027.029.026.03.025.031.024.032.022.033.021.034.02.034.018.036.017.036.016.036.014.037.013.038.011.038.01.039.008.039.007.039.005.039.004.04.002.04v.039l-.001.04.001z" fill="#e56000"/><clipPath id="b"><path d="M27 16.5a1.5 1.5 0 0 0-1.5-1.5h-2.502A1.999 1.999 0 0 0 18 13.5zM16 19h3.464c1.844-1.499 1.589-8.169 2.111-11.186 1.115l-.798.157c-.748 0-1.043-.101-1.31-.277a.477.477 0 0 1-.391-.494 1.01 1.01 0 0 1-1.007-.298 1.05 1.05 0 0 1-.362-.223 1.003 1.003 0 0 1 .635-.683 1.001 1.001 0 0 1 .858-.607 1.001 1.001 0 0 0-.894 1.447C.592.498 0 0 1 .127 2.267l.001-.029 2.597-3.28a4.012 4.012 0 0 1 1.332-.972 3.039 3.039 0 0 0 1.887-.032c.165-.002.17-.012.24-.004a2.205 2.025 0 0 1-.613.292c.184.005.332.027.566.032l-.217.015a13.708 15.988 0 0 1 5.2338.283 13.97 13.97 0 0 1 .819-4.646 14.041 14.041 0 0 1 8.494-8.498 13.965 13.965 0 0 1 4.026-.004A13.98 13.98 0 0 1 6.547-.064h.004a2 2 0 0 1-2.628 6.047.668a2.682 2.862 0 0 1-1.708-.159c.028-.15.205-.298.317-.414h258v3.325a1.47 1.63 0 0 1 1.009-.112z"/><path fill="#FBB817" d="M48.328 76.278c-3.814 1.55-6.752-.525-8.522-3.292-1.151-3.158.48-6.679 4.008-7.652 2.128-.62 4.807.324 5.225 3.105.91 3.43-.712 5.535-2.022 6.521z"/><path fill="#F5891F" d="M96.95 63.981c-3.81 1.377-7.409-.735-9.324-4.22-1.19-3.234.468-6.7 5.481-8.081 3.536-1.553 7.302.857 10.557 3.95 1.58 4.311-.705 7.779-3.81 10.171z"/><path fill="#F7991D" d="M97.215 73.664c-3.198 1.72-6.271-.585-6.442-3.428-.957-2.225.584-4.443 3.958-4.266 2.438-.939 5.537.428 5.101 1.941.894 2.444-.419 5.743-2.376 6.941-1.556.662-2.001 2.099-3.744 3.722-.838.856-1.369 1.701-2.525 2.677-.4 2.207-1.52 3.418-2.812.6.39 1.951.713 3.376.598 5.016-.447 1.107-.895 2.161-1.092 3.292-.816.632-1.827 1.255-2.045 1.644-1.016 1.888-2.222 3.489-3.404 4.69-.659.213-1.497.653-2.009.608a3.525 3.516 0 0 1 .621.542 3.003 3.003 0 0 1-1.319 1.169 7.396 7.396 0 0 1-2.446 1.842 8.348 8.336 0 0 1-.56-5.226 2.998 2.998 0 0 1 1.671-1.408 3.086 3.086 0 0 1 1.154 1.895c.564.435 1.591.901 1.917 1.487.235ag.028 1.018 0 0 1-.612.922c-.067.015-3.035 1.383-4.064 2.01a.99.99 0 0 1 .794-.603c.015-.007.018-.013.016-.037a.4.3 4.30 0 0 1 .317.29 1.008 1.008 0 0 1 .67.518c-.31.305-.762.33-1.144.223a.492.492 0 0 1-.093-.634l-.015-.001a2.101 2.011 0 0 1 6.002-3.004A2.101 2.101 0 0 1 19 24.133V13z" fill="#f5f8fa"/></clipPath></svg>
