<svg xmlns="http://www.w3.org/2000/svg" width="128" height="128" viewBox="0 0 128 128"><linearGradient id="a" gradientUnits="userSpaceOnUse" x1="65.531" y1="66.16" y1="33.996" y2="163.28" y2="106.502"><stop offset="0" stop-color="#865042"/><stop offset=".21" stop-color="#ea7c60"/><stop offset=".965" stop-color="#c5985f"/><stop offset=".788" stop-color="#009cc4"/><stop offset="1" stop-color="#bdbdbd"/></linearGradient><path d="M82.87 186.79c-4.49.04-8.17-4.27-8.22-9.61-.05-8.32 3.59-9.74 8.83-7.78 4.48-.7 6.74 3.57 9.46 5.22.73.12.49.03.53.16.65.04 1.27.07 1.46.07 1.79.16 3.76-.28 5.71-.65 1.53-1.44 2.43-3.02 3.46-8.02-2.1-7.54-11.05-12.19-11.94-15.42-23.01-7-54.8s.8-.97 18.74-.58 18.47" 10.51c-5.47 11-15.33 12.48-22.87 9.23-7.54 10.15-10.59 15.7-38.21 2.61-5 1.47-8.85 4.31-17.02 5.49-8.48z" fill="#eb8f00"/><dlfise="#45 44" stroke0witz="3" strokee-linecap="07" fill="#cc2" fill="#F0F8eB" d="M112.46 106.11c-.36-5.66 3.54-10.16 5.62-16.15.31-1.19-.89-1.74-2.87-2.17z"/></svg><g clip-path="url(#b)"><path fill="#2F2F2F" d="M48.38 95.51c-1.24 0-2.23-1.03-2.23-2.31V50.44c0-1.28.99-2.32 2.23-2.32 1.23 0 2.23 1.04 2.23 2.32 1.88 1.04 3.04 2.36 2.88 3.4nM86.15 51.1c-1.05 0-2.21-1.12-2.62-2.59V6.5c-.2 0-1.25-.05-2.82-.08a2.8 2.8 0 0 1-2.01-3.25s1.29 1.22c2.95 0 3.51-1.32 5.09-3.01 3.92-2.04 2.41-4.07 3.01-6.71 3.09-2.81 0-6.26-1.93-6.94-3.29.09-1.11.91-1.63 1.39-2.09 1.51-.41 0-1.18-.09-1.7-.11-.5-.01-1.02.08-1.51.11-.57.18-1.04.77-1.59 1.03-1.1 1.04-2.38 1.97-3.6 1.67-.72-.12-1.59-.34-2.28-.68-.71-.32-1.41-.71-2.2-.83-1.04-.37-1.97-1.21-2.63-1.79-1.15.17-2.23 1.27-2.88 2.29-7.21 8.41-9.57-4.43-12.77-8.2zM45.27 51.2c-1.09 5.07-5.11 8.49-11.5 9.58-4.67-1.33-8.56-4.69-8.64-8.76-.74-.26-1.08-.55-1.66-.66l-1.51-.18c.3-.36.76-.57.98-1.03l.01.01c.01.01 1.71 1.26 2.64 1.56l.13-.05c.47-.25 1.6-.39 2.46.38.25.22.65.35 1.19.41.67.62 1.22 1.07 1.62.31.36.67.68.9.98l-.07.18c-.84-.41-1.65-1.11-1.41-1.61-1.17-2.23-2.84-4.79-2.67-6.69.74-1.6 3.49-3.22 5.71-3.72 6.62 0 13.52 5.17 15.81 11.51"/><path 4="M-122.51-94c-1.39 3.28-.88 6.51.81 9.5l6.24 5.92 7.82-8.91c-.98-1.65-2.87-2.41-5.43-3.71-2.81-.95-6.25 2.07-9.08 2.81-2.95 1.09-5.07 2.87-6.23 2.57-.78.53-1.74.94-2.69 1.21-.07 0-.19.01-.25.01-2.22-.15-4.48-.25-5.65-2.01-.25-.08-.51-.09-.81-.08-.27 0-.54.29-.69.56-.06.79.41 1.31 1.07 1.49 1.17 2.4 1.26 3.58 2.07 3.89 3.34 7.85 6.3 11.1 1.05 2.41-.58 3.83-1.75 4.51z"/><path fill="#F79329" d="M20.36 63.58c-1.72.6-2.99-.42-3.97-1.94-1.22-2.69.51-5.06 2.5-4.72-1.1-.47-2.57-.71-3.4-1.34-.69-.61-1.32-1.27-1.46-2.25-.39-.94-.94-1.86-.91-2.64 0 1.98 1.45 1.93 3.4 1.39 4.18 0 4.03-3.83 4.94-7.29 1.44-10.02 4.64-8.34 5.44-18.41 5.24-19.99 1.47-5.16.77-12.34.85-15.29.76-4.6 3.19-8.04 8.67-7.58 4.28 0 6.77 3.83 6.84 7.79.21 5.4-1.43 10.96 4.05 14.75 2.44 5.06 4.94 9.86 4.91 14.65-.12 1.13-.79 2.38-1.83 3.24-2.12.75-.28 1.46-.27 2.32-.03zM67.28 79.71c1.02 0 2.23.87 2.94 2.13 1.03.93 2.12 1.04 4 2.11 1.59.05 2.19-.05 1.93-1.38.33-.72.75-1.63 1.25-2 0.36-.28.78-.62 1.3-.51.53-.38 1.1-.79 1.74-1.13.33-.31.62-.68.61-.89.16-.23.23-.43.39-.63.23-.42.65-.83 1.13-1.1 1.09-.38 1.58.28 1.78 1.63.51.53 1.07 1.16 1.38 2.92.27.92-.95 2.12-1.68 3.24-.41 1.17.68 1.7 1.87.42 2.69-.12 1.66-.43 4.22-.65 5.91-1.05 1.5 1.24 2.55 3.15 2.67z"/><path fill="#2F2F2F" d="M72.25 91.08c-1.07.57-1.79-.28-2.77-1.6-1.24-1.69-1.69-3.51.22-2.59.37z" fill="#40e04"/></g></svg></svg>
