<svg xmlns="http://www.w3.org/2000/svg" viewBox="0 0 128 128"><path d="M64 9.64C1.69 9.64.21 79.5.21 93.33c0 13.83 28.56 25.03 63.79 25.03 35.24 0 63.79-11.21 63.79-25.03 0-13.83-1.47-83.68-63.79-83.68z" fill="#fcc21b"/><path d="M63.91 90.06c-24.99 0-58.8-15.31-57.71-57.5S37.57 8.27 0 0 1-.67-4.52 25.84 158.44 0 0 0-13.39 7.71c.09 1.81.46 3.77.71 5.58l-8.6 1.56a2.134 2.134 0 0 0-1.72 2.48 2.129 2.129 0 0 0 2.09 1.75c.13 0 .26-.01.38-.03l8.83-1.59c.66 1.97 1.51 3.88 2.58 5.71l-8.45 2.68a2.122 2.122 0 0 0-1.39 2.68c.29.91 1.13 1.49 2.03 1.49.21 0 .43-.03.64-.1l9.69-3.08-10.36-8.19c1.97-4.78 2.17-8.78.06-12.25-.13-3.74-2.37-6.77-3.49-10.44-2.21-6.98-6.09-16.25-13.2-26.42-6.57-3.89-11.38-6.65-18.36-6.55-9.44 2.97-11.34 18.78-13 18.89-1.18 2.76-1.53 3.68-2.61 1.92-.82 3.65-.48 4.88-1.11.74-.33 1.74-.28 2.74.03l17.81 3.36-16 9.02c.01 0 .02.01.03.01l18.72 83.44 6.24l7.67-.017.59-.13.88.03c-.97-.05-1.41-.08-2.24-.14l-7.59-6.79c-1.58-1.35-.71-4.22-.21-6.79 1.45-2.08 2.98-5.55 2.87-7.83-.17-.78-.86-1.54-1.16-2.28-.53-.74-1.17-1.43-1.78-2.08-.31-.17-.81-.32-1.24-.44-.72-.39-1.59-.81-2.27-1.3-.56-.29-1.11-.45-1.68-.62-.89-.32-1.62-.71-2.6-.83-1.56 0-3.38.71-4.4 1.87-1.12 3.32-1.47 4.84-2.39 1.15-.45 2.63-.61 3.2-1.93 3.35-2.67 6.74-9.12 10.32-12.68 5.71-1.28 10.8-1.36 17.51-3.02 4.87 0 6.39 4.29 5.03 6.9s-.27 5.04-4.06 6.56c-2.89-1.82-4.22-4.04-5.02z"/><path fill="#FCC21B" d="M84.5 68.16c-8.64 5.62-20.14 6.2-21.81 10.81-1.48 19.61-4.88 29.78-13.13 4.44-2.76 6.46-10.99 4.83-16.75.23-4.39-3.38-7.56-7.22-5.95-5.98.9-5.86-.49-8.44-.39-2.76.48-3.91 1.43-5.91 1.7-.96.5-1.76 1.04-2.77 2.01-3.34 2.32-3.35 8.54-5.26 13.37"M71.97 32.24c-.39.33-1.06.63-1.65.72-2.55.38-4.87-1.89-9.78-3.03-2.08-10.64 5.95-15.88 7.21-3.76-.46-5.94-1.76-7.12-2.75-3.05-.74-4.58-2.51-5.09-5.37-.72-1.3-1.17-2.06-3.77-2.47-.63-.41-1.01.06-2.14.14-.42.19-.92.33-1.39.34-.57 0-1.14-.23-1.57-.14l-.69-.03c.6-.52.94-1.01 1.53-.87l11.39-6.48a5.016 5.016 0 0 0-2.96-2.45c-.08-.21-4.12-4.96-9.69-4.06-5.31.62-10.66 4.83-10.74 8.98 0 4.49 3.82 8.64 8.17 9.57 4.14.81 6.97-2.41 9.55-5.17.68-.07 1.68-.25 2.44-.25.48-.1.67-.34 1.38-1.42 1.52-7.04 4.16-10.96 4.59-.62.16-1.53-.32-2.17-1.24-.73-1.66-.4-3.31-.61-4.33.1-.25.42-.52.78-.44.6l-.01.1c-.01.11-.01.21-.04.27l0-.04.01c-1.21.01-2.8.85-5.12 1.52-7.29 2.14-1.38 4.24-2.47 8.08-2.52 3.73.15 7.94 2.67 7.08 7.05a2.174 2.775 0 0 1-4.87-2.03z" fill="#2f2f2f"/><path d="M64 9.56C1.59 9.56.12 79.52.11 93.36c0 13.86 28.59 25.08 63.88 25.08 35.28 0 63.88-11.22 63.88-25.08 0-13.84-1.47-83.8-63.88-83.8C1.82 9.62.34 79.58.34 93.41z" fill="#fcc21b"/><path d="M38.51 26.5s4.91 9.62 40.69 20.41 26.45 122 45.84 128 188s-30.16 0-60.46-60-80.66-59.96S01-23.83-48.58 0-43.21-22.8z" fill="#2f2f2f"/><g fill="#2f2f2f"><path d="M42.21 65.3c-4.49.04-8.17-4.27-8.22-9.62-.05-5.37 3.55-9.75 8.04-9.79 4.48-.04 8.17 4.27 8.22 9.64.04 5.35-3.56 9.73-8.04 9.77zM234.99-33.99c4.48-.01 8.18-4.36 8.22-9.78-.01-5.37-3.66-9.7-8.14-9.69-4.49.01-8.13 4.36-8.12 9.73.01 5.35 3.67 9.68 8.16 9.67z"/></g><path d="M147.82 71.83c-21.53 5.16-42.78-14.66-59.09-24.32-1.86-10.43 3.05-21.17 31.78-25.82 22.54l-.77 3.08 4.61 13.41 5.49 16.47z"/><path fill="#FAAC22" d="M32.11 69.55c-3.46 7.41-12.91 13.14-28.72 73.84a2.782 2.782 0 0 0-3.35-.35c-1.41 0-2.65.71-4.12 1.82-.2.16-.43.18-.9.23-.08 0-2.31-.89-2.08-1.36-.46-1.23.72-2.31 1.37-3.09.01-.67.01-1.11.04-1.6-.15-.44-.22-.63-.49-.64-.79-7-.79-24.3-4.52-34.31-.87-.01-.01-.05-.1-.17-.32a2.952 2.952 0 0 0 .19-3.67c.2-.44 4.88-.68 3.7-.9m05.54-4.65c-.77 0-1.44-.01-2.31-.08-6.61-.77-8.63-2.09-10.49-2.79-.46-.37-.81-.58-1.3-.86-.46-.38-.75-.64-1.04-.51-.49-.14-.79-.23-1.2-.38-1.39.11-3.25.76-4.23 1.21-.61.71-1.74 1.51-1.47 2.21-.34.26-.73.4-1.22.49-1.02.15-2.18.08-4.73.23-4.95 1.37-8.25 1.65-12.65.23-2.6-.33-5.61-.51-7.82-.43-2.79-1.51-5.21-1.81-7.22-.01-.7-.12-1.53-.36-1.62-1.01-.02-2.64 1.21-2.74 2.74.03 1.02.81 2.14 1.66 2.33 3.88 2.33 7.23 5.62 17.76 7.28 14.09.03.61-.74.75-1.26.76-1.07 1.02-1.98 2.34-1.26 4.44 3.38 21.95.99 23.98-1.41 2.81-.75 4.95-3.06 7.38-4.17 2.35-5.56 5.21-5.94 11.57-2.14 3.68 4.4 8.64 6.73 9.88 1.21.2 2.08.38 2.08 1 05.02-.47-4.12-7.29-4.94-7.88-6.45-9.47-2.24-2.54 2.91.46 3.98 3.11A5.56 9.15 5.07 9.56 4.99 7.19.3 1.06.45 1.77.5 2.01 1.51 17 18.69 23.51 30.55 39.43 26.03 16.93 16.96 0 21.81-25.05 28.1-47.24 3.27-3.1 3.79-8.6 3.19-12.34 2.4-2.36 3.22-5.89 3.03-8.1.11-1.91 1.27-3.66.41-5.25-.37-1.31-5.48-1.73-6.44 0-.08 1.8.61 2.17 1.66.53 1.27.63 3.01 1.89 3.45.23.04.57.06.93.02.45-.01.8-.23 1.19-.07.27-.16.59-.14.62-.06.15.09.33.12.56.18 1.17.39 2.26.4 3.28.38.59.16 1.06.87 1.58 1.05 1.49 1.17 2.89 2.52 3.52 1.82.78 2.28.44 4.28-.69.89-1.33 1.33-1.96 2.03-1.36 3.61-.36 7.08.83 10.64 1.08 1.63.07 3.15-.38 4.55-1.24 1.66-.91 3.65-1.46 5.61-1.96 1.54 2.39 1.63 5.01.77 7.29-.29 5.73-4.91 10.23-10.24 12.27z" fill="#2f2f2f"/><path d="M107.84 61.9c-10.05-9.05-11.97-15.52-22.1-24.77-1.6-1.24-3.39-1.23-6.48.15-7.67 1.04-10.79 9.24-11.68 12.36.3 2.1 1.85 2.59 3.16.19 1.52 1.64 2.32 3.78.54 2.69-.92 5.4-2.15 5.51-4.13.4-.51 1.3-1.02 1.56-1.25 7.64-2.74 14.74-1.22 17.29-1.75 6.65.74 10.01 5.67 11.07 13.86 1.73 7.03.45 13.68-.52 16.03C79.4 18.03 86.49 8.03 67.09-9.34c9.07-6.03 19.14-10.55 15.4z"/><path fill="#2F2F2F" d="M122.79 27.63h-.02c.26 0 .54.26.5.54.52l1.29-7.5-1.01-15.21c-2.77 0-5.03 2.71-5.03 6.07 0 3.35 2.25 6.07 5.03 6.07 2.77 0 5.02-2.72 5.02-6.07 0-3.36-2.25-6.07-5.02-6.07z"/><path fill="#ED6C30" d="M64.47 70.16c-1.09-.32-1.59-.94-2.11-1.74l-5.3 1.37c-1.07.32-2.42.25-3.37-.64l-5.45-13.1a5.094 5.094 0 0 0-2.78-5.25c-.34-.38-.65-.7-.81-1.07-.01-.31-.03-.74-.14-1.16-.07-.336.16-.65.09-.92.61-1.01 1.31-1.48 2.02-1.97 1.15-.46 2.34-.69 3.62-.71.63.46 1.39 1.07 1.78.33.2.82.66 1.21.86 1.69 1.14 1 1.88 14.62.72 17.39z"/><path fill="#855555" d="M110.11 59.18c-.22-5.96-5.41-12.14-6.05-16.49-1.07-6.45 4.36-7.06 12.15-8.12 19.85z"/><path fill="#FAB020" d="M68.33 88.94C67.76 78.82 83.94 88.26 64 98.36c25.74 0 41.53-28.36 402-16.81A114.04 17.47 0 0 1 5.58-2.13c.3-.07.71-.38 1.12-.39a3.02 3.02 0 0 0 0 4.59l-3.06c8.71-4.3 9.6-11.04 7.95-16.6z" fill="#fff"/><path d="M80.87 67.78a5.84 58.58 0 0 1-2.79-2.42c-2.75-1.47-3.4-3.49-2.83-6.75 0-.15-.01-.39-.05l-.13-.06c-1.68-.37-2.29-2.68-1.88-3.68v-7.72c-2.07 0-6.27-.49-6.34-1.08-1.29-.71-2.43-1.71 2.83-2.72.38-.67.39-1.38.51-1.65.56-1.05 1.22-1.58 3.07-.37 1.01.94 1.27 2.53 1.26 3.54.7 1.23 1.69 2.03 1.99 2.5 1.65.63 3.6-2.32 1.37zM83.58 45.16c-.38 0-.96-.19-1.02-.38a3.46 3.46 0 0 1 .11-4.18l7.4-2.07c.94 1.29 1.49 3.62 1.34 5.56l-.089.06z" fill="#2f2f2f"/><path d="M64 9.66C1.59 9.66.12 79.52.12 93.36c0 13.86 28.59 25.08 63.88 25.08 35.28 0 63.88-11.22 63.88-25.08 0-13.84-1.47-83.8-63.88-83.8C1.6 9.56.12 79.52.12 93.36z" fill="#fcc21b"/><path d="M31.12 67.94c-12.25 0-22.61-5.12-32.53-8.41 0-13.47 0-23.55-7.72-20.87-20.65 0-3.24 3.3-5.65 5.76-5.55l40.12-30.21c1.9-1.35 4.28-2.47 6.52-3.39l31.17.31c3.35.01 5.26 2.31 6.71 3.27M91.47 52.19c1.45 1.11 2.79 1.77 3.75 3.49 2.81 1.61 5.99 3.71 7.57 4.59 9.86 21.93 28.39 22.65 21.78 21.19 15.71 22l-8.01-13.31 12.61-26.64 15.97S23.8 12.21 39.99 7.98 15.24-4.34 15.97 18.85 16.05 21.48 18.99 10.73 23.96.5 14.85-15.58.08-15.89-1.38-45.3-15.66-55.69-22.75C38.88 44.03 65.19 44.77 36.02 35.32 48.68c9.01 10.74 20.58 16.71 53.82l-24.2 7.88c-19.43 5.78-25.59 18.71-47.95 45.32 0 47.77 28.87 57.97 73.27 0 .01-3007.06-42.04 13.31-53.34 6-40.69 60.33-65.79 16.07-38.37 0-32.58 29.52-39.76 27.59-15.15 0-22.71-1.46-39.69-15.28C-.92-9.08 1.2-12.22 12.23-9.21 9.57-2.17 15.25-13.51 18.53-18.63z" fill="#ed6c30"/><g fill="#2f2f2f"><path d="M42.21 45.4c-4.49.04-8.17-4.27-8.22-9.62-.05-5.37 3.55-9.71 8.03-9.77 4.48-.04 8.13 4.26 8.22 9.64zM44.85 93.4c1.16 1.36 1.06 3.07-.54 5.61-1.7 1.36-5.18.83-7.27-1.47-1.71-2.58-4.23-3.96-7.3-.71-3.4 0-7.65 1.06-9.89 1.85-3.72 0-6.22-.43-8.23-1.18-9.43-6.94-21.73-8.6-20.8-.82-1.09.28-2.23 1-.98 1.65-.22.04-.47.06-.71.12-.77.38-1.65.9-2.971.21-.84.49-1.57.97-2.44.78-.88 0-1.44-.04-2.05-.03-.66.02-1.53.17-2.16.18-.63.89-.85 1.57-.31 2.45 0 1.37.37 3.36 1.43 4.41.56.53 1.22 1.05 1.89 1.84zM53.75 57.25c-.68 0-1.18-.03-1.91-.05-1.56-.14-3.07-.2-2.98 0-.49.03-1.09.06-1.49.11-1.1.5-2.17 1.82-1.39 2.53-1.37 3.44-2.18 5.34-6.12 5.63-10.49.71-.37 1.7-1.22 1.46-1.75-.14-.62-.9-1.2-1.5-1.46-1.54-2.23-2.55-2.1-4.77-3.51-10.31-2.51-30.38-13.03-5.64-10.94 3.04-10.7 2.94-15.67 1.82-15.26 5.02-5.81 13.38-13.62 20.13-10.82 1.9-.88 4.94.23 5.82 2.65.73 1.38-1.24 2.72-1.95 3.26-.84 1.14-10.17 7.69-14.78 5.35-5.23 1.77-15.39-2.57-17.41-6.44-2.31-1.98-4.72-3.65-5.79-3.68-1.07-.9-1.37-3.49-1.37-5.58-.32-1.11.46-1.25 1.63-.37 1.5.32 1.85 1.3 2.63l6.92 1.32c.03.02.11.02.12.01m12.9l-8.68-2.03l-.04-.02m-.08-.02c.2-.03.4-.04.63-.14 1.39-.42 2.59-.68 3.75-.4l4.19-.01c.03-.02.17-.04.28-.07-.32-.08-.56-.04-1.29-.17-.57-.09-.94-.15-1.56-.34-1.56-.79-3.67-1.74-5.81-.66-.11-1.33-.05-1.83-.52-2.53-.84-5.68-1.7-7.09-.41-.51-.3-1.06-.3-1.46-.44-.49-.27-1.36-.54-1.76-.76-.93-.34-1.62-.51-2.63-.36-1.03.89-1.3 2.02-.77 3.21.17.48.33.92.47 1.47.17.95.37 1.76.81 2.36.08.71.62.95 1.17.85 1.58 1.15 2.89 1.82 4.51 1.72 3.44.83 1.78 1.84 3.56 1.87 1.86.63 3.06 1.71 4.99 2.33.03.03.16.05.28.02.13.08.41.09.13.09.01.02.02.02.02.02.01.03-.02.02-.02.02-.03.03-.03.03-.03.02-.03.02-.08.02c-.03.03-.04.02-.03.03-.03.03-.48.02-.01.01-.06 0-.07-.01-.1-.01-.37 0-.62-.24-1.02-.55-.49-.24-.93-.43-1.4-.62-.79-.38-1.4-.68-2.1-1.34-.43-.31-.73-.65-.78-1.02l-2.47-5.29-2.59 4.06c-.16.25-.32.39-.49.51-.23.32-.39.52-.01.9.14 1.32.55 1.9.76.38.09.46 0 1 .01-.05a4.49 4.49 0 0 1-2.79-4.16 4.71 4.51 0 0 1-1.54-.77c-.74-.34-1.55-.51-2.3-1.14-.53-.62-1.33-1.32-2.43-2.23-.54-.69-1.14-1.38-1.46-2.23-1.2-1.77-2.59-3.55-2.97-5.62.55-4.47-1.54-10.58-4.42-12.68 1.04-10.02 3.05-37.17-5.09-42.64-6.49-4.36-21.95 11.83-26.94 17.63-1.15 1.34-.85 2.71-1.06 3.25-.48.75-1.36 1.37-2 1.52-.29.18-.66.39-.94.55-.46.47-.9.99-1.48 1.17-.05.41.12.92.2 1.47.31.56.19.77.26 1.11.01.21.03.57.03.45 00.83.55l1.56.41v.09.03z" fill="#d079e6"/><path d="M64 10.01c-6.96 0-16.49-3.91-20.49-10.02C00.83 48.88 8.44 54.74 38.2 48.4 48.4c23.8 28.5 53.69 9.99 30.89 20.44L64.1 57.92c-.96.66-1 12.05-1.84 1.01-1.49.06-.19.16-.3.13-.72 0-.59-.18-1.88-.47-2.61-.38-.97-.84-1.66-1.24-2.58-.51-.77-1.04-1.56-1.49-2.26-.4-.76-.86-1.41-1.08-1.71-1.41-.74-.47-1.37-.77-2.11-1.19-.13-.32-.05-.61-.25-1.04-.04-.14-.04-.37-.07-.66-.18-1.1-.22-2.36-.3-3.44-.65-1.65-.41-3.11-.36-4.68-.93-1.76.37-2.96 1.77-2.54 3.37-1.4 1.23-2.39 2.37-4 3.1-.89.45-1.55.91-2.25.39-.59.66-1.46.94-2.46 0 0-.02-.41.08-1.15.19-.6.31-1.35.62-1.85.22-.51.08-1.07.31-1.55.18-.51.66-.89.93-1.42.99-1.69-.28-4.33-.88-4.84-1.38-1.74-1.01-3.01.01-2.07 2.31-.06 1.51.11 2.06-.47 2.92-1.37.08-.54.42-1.29.67-1.55.51-1.12.55-2.24.55-3.39-.64-7.31-3.49-16.75-8.02-20.63z" fill="#ed6c30"/></g></svg>
