<svg viewBox="0 0 32 32" xmlns="http://www.w3.org/2000/svg" fill-rule="evenodd" clip-rule="evenodd" stroke-linejoin="round" stroke-miterlimit="1.414"><path fill="none" d="M0 0h32v32H0z"/><path d="M16.174 2.001a13.99 13.99 0 0 1 9.602 3.977 14.047 14.046 0 0 1 3.384 5.608 13.957 13.957 0 0 1 6.386 2.707 9.97 9.97 0 0 1-7.111 3.229c-2.794.004-5.105.019-9.158.022a16.025 16.025 0 0 1 4.281-.034h.002.126.001.174-.008.172-.012.183a2.018 2.018 0 0 1 2.007-1.319 2.028 2.02 0 0 1 .607-.614 3.498 3.498 0 0 1 2.688-9.106 6.52 6.62 0 0 1 .511-1.583 3.027 3.027 0 0 1 1.581-1.623 3.487 3.487 0 0 1 1.103-.313h.995A.998 1.998 0 0 0 11.994 17h.349L30 19h-7v-5h-1z" fill="#fff"/><clipPath id="b"><path d="M25 19.5a3.575 3.575 0 0 0-3.431 1.439l-3.5A2.903 1.593 1.091A1.091 1.491 1.498A.999.599 0 0 1 25 12.5zM24 11h-8h2.985A1.998 1.998 0 0 0 10 15.498 20.925 0 0 0 15 6.5c3 0 3.533-1.17 5.5-3.5 1.5s-.13 1.475-.816 2.385-.918s.518-1.619 1.132-2.813 2.733a1 1 0 0 1-1.291 1.362l-3.5-5A1 1 0 0 1 .793-1.775 1.004 1.004 0 0 1 .001-3c-.134 0-.381.015-.419.231.01.035.01.038.003.037.152.373 6.97 24.393 6.285 27 2.188a2.999 2.999 0 0 1-.347 1.217c.097.005 1.175.009 2.398 0l.005.007c0 .162.085.378.125.482a4.001 4.001 0 0 1 0 10c-1.654 0-3.239-.006-4.722-1.121A.993.99 0 0 1 12 12.516V16a.997.997 0 0 0-.801.4c-2.64 3.521-6.061 3.599-6.206 3.6-.55.006-.994.456-.991 1.005A.997.997 0 0 0 25 27c.184 0 4.537-.05 7.8-4.4a1 1 0 0 0-.799-1.6M5.999 21a1 1 0 0 0-.799 1.6C8.462 26.95 12.816 27 13 27a1 1 0 0 0 .004-2c-.155-.002-3.568-.086-6.204-3.6a1 1 0 0 0-.801-.4" fill="#292f33"/></clipPath></svg>
