<svg xmlns="http://www.w3.org/2000/svg" viewBox="0 0 47.5 47.5"><defs><clipPath id="a"><path d="M0 38h38V0H0v38z"/></clipPath></defs><g clip-path="url(#a)" transform="matrix(1.25 0 0 -1.25 0 47.5)"><path d="M36 19c0-9.389-7.611-17-17-17S2 9.611 2 19s7.611 17 17 17 17-7.611 17-17" fill="#ffcc4d"/><path d="M24.485 8.121c-.012.0-1.146.005-3.295.036-7.984 0-1.498-.108-2.093-.014-1.507.001-2.506.009-5.288 0a11.992 11.999 0 0 0-1.289-1.334 1.5 1.5 0 1 0 1.5-.5M9.999 2.001.996.995.995.995.197.095.303.137.469.141.746-.317 1.134-2.543 1.481 4.79 4.007 4.651a2.478 2.478 0 0 1 3.642 2.85l.055.001a2.99 13.99 0 0 0 2.992 3.5M29.707 20.107C7.34 27.927 35.484 23 34 21c-.174.028-.489.02-1.048 0-.128.016-.165.041-.105.001-.109.001-.997.001-.106.009-.104.01-.103.012-.104.001-.103.001-.902-.007-.021-.006-.021-.005-.029-.004-.03-.005-.031-.015-.03-.016-.035-.018-.031-.019-.031-.02-.03-.02-.03-.02-.029-.029-.028-.029-.027-.03-.025-.031-.024-.032-.023-.032-.021-.034-.02-.034-.019-.036-.017-.035-.016-.037-.014-.037-.013-.038-.011-.038-.01-.038-.008-.039-.007-.039-.005-.04-.004-.039L8 14.03v-.04l.001-.04.003-.039.004-.04.006-.039.008-.039.009-.039.01-.038.012-.038.014-.037.015-.037.016-.036.018-.036.02-.035.021-.034.022-.033.024-.032.025-.031.026-.03.027-.029.029-.028.029-.027.03-.025.032-.025.032-.023.034-.022.034-.02.034-.019.035-.017.036-.016.037-.015.038-.013.038-.011.038-.01.039-.008.039-.007.04-.005.039-.004.04-.002h.04l.04.001z"/><path d="M11.582 21.5l1.522 1.581A1.006 1.006 0 0 1 13 2.5a1.503 1.503 0 0 0 1.5-1.5v-2zM23 12.498c0-.827-.671-1.498-1.498-1.498h-.004c-.827 0-1.498.671-1.498 1.498v2.004c0 .827.671 1.498 1.498 1.498h.004c.827 0 1.498-.67 1.498-1.498v-.02z"/><path d="M17.104 3.018a2.001 2.001 0 0 1 2.67-.621 2.467 2.477 0 0 1 2.786.632 3.466 3.366 0 0 1 2.108 3.012H25v2.392a3.49 3.49 0 0 1 2.294 1.936c.024.452.077.679.077.978.091.085.088.086 0 0 1-.517 1.597 1.498 1.498 0 0 0 .288 1.208l1.718-1.198 1.636 4.146a1.045 1.045 0 0 0 2.391-1.583 1.422 1.222 0 0 1-.665-.241 1.009 1.0099 0 0 1-1.092-.093 3.028 3.028 0 0 1-2.813-.908 6.037 6.037 0 0 1-.811-1.022 5.5 3.5 0 0 1 .587-.034c.156.002.3072.047.558a1.009 1.091 0 0 1 1.382 1.622 3.502 3.203 0 0 1 2.303 2.707 3.508 3.508 0 0 1 2.141 4.272c.219.304.545.839.784 1.067.703 1.26 1.822 1.917 3.01 1.265h2.148v.541c1.044.014 2.125.08 4.739.067.728.067 1.005.068 1.501 0 5.414-2.544.628-4.625.505-2.057-1.302-4.207-2.402-4.058 1.681-9.148 2.058-9.775 2.803-5.735 6.075-5.753 8.573-6.164a3.487 3.487 0 0 1 1.196.739 2.666 3.666 0 0 1-2.882-1.372 3.573 4.577 0 0 1-5.347-1.994 4.694 4.49 0 0 1-5.87-.273 4.675 4.775 0 0 1-.044-1.936L31 19z" fill="#d9298a"/></g><g clip-path="url(#b)"><path d="M17 19l3 4-3 9.533 5 4 3 3" fill="#d79e84"/><path d="M22 11a1 1 0 0 0-1.8-1.5zM21.505 19h-.002A5.72 1.33 1.09 1.018 0 0 0 1.396-1.485A4.46 4.46 0 0 1 2.108-2.04A13.99 13.99 0 0 1 6.1 6.1a14.045 14.045 0 0 1 3.28 5.18 13.9 13.9 0 0 1 4.096 1.604 25.032 15.032 0 0 1 20 16c0-6.988 0-12 6.377-12 16v4a8 8 0 0 0 8-8v-4z"/></g><g clip-path="url(#b)"><path d="M17 19H7a.5.5 0 0 0-.5-.5" fill="#f5f8fa"/></g><path d="M11.58 4.52a1.04 1.04 0 0 1-.747-.478c-.46-.345-.649-.646-.873-1.071-1.049-1.798-2.213-2.511-4.03-3.176-4.06-1.652-1.061-3.079-1.644-5.086.428-3.206 4.619-4.508 5.627-4.82.272-.137.373-.297.966-.435a12.662 1.662 0 0 0 2.87-.62c.256-.638.673-.898 1.245-1.713 1.456-2.058-.426-4.434-1.165-4.795-2.343-2.318-2.678-4.727-3.552-5.277-3.692.191-.14.421-.29.661-.437.2-.134.437-.177.583-.364 1.064-.873 1.978-1.51.267 0 .758.114.813.145 1.126a4.128 4.128 0 0 1 .067-1.243 2.687 2.877 0 0 1-.587-1.194 3.09 3.04 0 0 1 1.689-2.527 3.528 3.528 0 0 1 1.199 2.834 4.471 4.471 0 0 1-2.547 1.586 9.481 8.841 0 0 1-.309 2.042 7.856 8.855 0 0 1-.748-.358c-3.358-2.024-7.416-3.392-8.52-2.553" fill="#fe9e30"/></svg>
