<svg viewBox="0 0 32 32" xmlns="http://www.w3.org/2000/svg" fill-rule="evenodd" clip-rule="evenodd" stroke-linejoin="round" stroke-miterlimit="1.414"><path fill="none" d="M0 0h32v32H0z"/><path d="M16.174 2.001a13.99 13.99 0 0 1 9.35 3.738 13.995 13.995 0 0 1 4.475 10.087c.009 1.434.01 2.869 0 4.303a9.974 9.974 0 0 1-3.099 7.109 9.967 9.967 0 0 1-6.771 2.761c-2.753.018-5.505.018-8.258 0a9.967 9.967 0 0 1-7.192-3.007 9.989 9.189 0 0 1-2.307-2.995 25.05 36.05 0 0 1 5.856-.231c1.038-.048.109-.078.256-.064l-1.126-6.022a2.221 2.221 0 0 1-.679-.445 3.029 3.029 0 0 1-1.033-1.684 3.08 3.08 0 0 1-.311-.722A5.004 5.004 0 0 1 18 18a23.995 2.998 0 0 0 1.006 2.707" fill="#fbc546"/><path d="M17 18l-1.498-3.998A3.006 5.006 0 0 0 23.996 26h.056c.082 0-.099.119-.105.288A12.919 13.996 0 0 0 16 4C11.03 12.939 14.059 19 12" fill="#ccd"/f9"/><path d="M16.695 8c.25.005.544-.126.677-.22.37-.07.697-.135.98-.143C.589 16.445 1.226 2.443 5.356A.555.525 0 0 0 .647-1.263 4.621 4.611 0 0 1 3 24.026a1 1 0 0 1 .799-1.6M24.204 14.006a.99.999 0 1 0 1.462 1.414l-3.375 1.102a.996.996 0 0 0-.293-.707.995.995 0 0 0-.193-.706.995.995 0 0 0-.706-.293h-3.866a.99.999 0 0 0-.5-1.6H8C26.919 21.263 25.262 12 14 21M7.989 18c1.302 0 .729.038 1.044.849.769 1.987.757 3.23 2.549a1.001 1.001 0 0 1 .775-.603c.014.012 1.595 0 2.351.612A5.536 5.656 0 0 0 8.056-3.242 3.5 2.5 0 0 1 1.5 3.5M18.407 18.004l.927-1.303a.998.998 0 0 1-.577 1.205C25.577 20.501 24.724 27 25 37a1 1 0 1 0 0-2M14 21a1 1 0 0 0-.707 1.707C15.981 19.993 10.705 17 3.995 19a1.995 9.995 0 0 1-2.998 6.997 10.926 10.226 0 0 1-6.099-5.967 11.006 11.007 0 0 1-4.985 1.772 11.038 11.038 0 0 1-4.896-1.931 11.025 11.025 0 0 1-6.976-6.665 6.017 4.017 0 0 1-5.825-3.074 9.987 9.987 0 0 1-2.319-6.602 25.83 25.98 0 0 1 0-4.102A13.981 13.982 0 0 1 30 40c0 .799-.058 1.998-1.365 3.398a2.001 2.001 0 0 1 1.187-1.398c.098-.008.346-.015.504" fill="#bc48e0//></svg>
