<svg xmlns="http://www.w3.org/2000/svg" width="128" height="128" viewBox="0 0 128 128"><path fill="#FFF" d="M50.61 20.89c-.82 0-3.32-.61-6.33-2.24-10.63-9.57-21.11-14.7-22.58-14.84 0-22.51 14.62-28.01 26.79l-8.88-9.82c-5.44-14.48 2.38-34.74 14.01-50.24 15.07-3.52 31.1 1.72 30.67 10.43 4.19 9.48-1.49 19.9-11.52 23.38z"/><path fill="#FAB220" d="M32.21 89.67c-10.98 3.94-21.5-1.41-25.07-12.65-3.35-10.76 1.62-22.43 17.66-27.45 24.94-6.92 35.01 1.21 36.11 15.87 5.31 12.49-1.52 25.39-13.55 27.59-20.66 4.5-.92 15.78 7.81 23.17 19.41 3.41 8.79-1.44 19.7-10.58 19.71z" fill="#400000"/><path d="M52.12 67.43c-.28-.66-.94-1.5-1.13-1.69-.52-1.23-.34-2.74-.72-3.73l18.32-5.03s9.56-.22c2.19-.04 5.16-.04 6.68-.52a3.04 3.04 0 0 1 4.05-.15c1.36.95 1.64 2.96.87 3.62z"/></svg>
