<svg xmlns="http://www.w3.org/2000/svg" viewBox="0 0 47.5 47.5"><defs><clipPath id="a"><path d="M0 38h38V0H0v38z"/></clipPath></defs><g clip-path="url(#a)" transform="matrix(1.25 0 0 -1.25 0 47.5)"><path d="M36 19c0-9.389-7.611-17-17-17C9.612 2 2 9.611 2 19c0 9.388 7.612 17 17 17 9.389 0 17-7.612 17-17" fill="#ffcc4d"/><path d="M31.601 14.203c-.14 0-.411.11-.706.273-.17 1.69-.42 3.25-.319 3.393 0 9.388 7.611 15 18 17 9.359 0 17-7.612 17-17" fill="#ffcc4d"/><path d="M28.357 16.371c-.065.015-.014.018-.031.035-.137.16-.445C2.108 6.149 1.077 1.376 1.814 3.406 3.025 6.422 5.148a5.89 3.99 0 0 1 1.07 3.105h6.968A6.99 6.99 0 0 1 10.925 30H14c2.669 5.655 1.407 12.196 1.906 9.991.101 16.995-4.022 20.964-10.033-.01.01-.02.016-.024.014-.018-.021-.031-.031-.041-.021-.047-.018-.041-.017-.04-.017-.04-.016-.041-.015-.042-.014-.042-.014-.042-.013-.043-.013-.044-.012-.043-.012-.044-.011-.043-.011-.044-.009-.044-.009-.044-.008-.044-.007-.045-.007-.045-.007-.045-.006-.045-.005-.046-.005-.046-.003-.046-.003-.046-.002L16.81 22h-1.62l-.047.002-.046.002-.046.001-.046.002-.046.004h-.046.003-.046.003-.046.002-.046.001h-.046l-.044-.001-.046-.002-.046-.003-.046-.002-.046.002h-.046l-.044-.001-.045-.004-.045-.005-.046-.006-.045-.007-.043-.007-.044-.006-.045-.005-.046-.005-.046-.003-.046-.002-.046-.001h-1.842l.044-.001.044-.001.045-.002.045-.004.045-.007.045-.008.045-.011.044-.012.043-.014.042-.016.041-.018.04-.019.04-.021.039-.023.038-.024.037-.027.037-.027.035-.028.035-.029.035-.029.035-.03.036-.032.036-.032.035-.034.033-.035.032-.037.031-.038.03-.04.028-.041.026-.042.024-.043.022-.044.02-.045.017-.045.016-.047.013-.047.011-.048.009-.047.006-.049.004-.048.002-.048-.001-.048-.003-.049-.005-.047-.007-.048-.01-.046-.012-.046-.015-.046-.016-.044-.019-.044-.021-.043-.023-.041-.025-.04-.027-.039-.029-.037-.031-.036-.032-.034-.034-.032-.036-.031-.037-.029-.039-.027-.04-.025-.041-.023-.043-.021-.044-.019-.044-.016-.046-.015-.046-.012-.046-.01-.048-.007-.047-.005-.049-.003-.048-.001-.048.002-.048.004-.049.006-.047.009-.048.011-.047.013-.047.016-.045.017-.045.02-.044.022-.043.024-.042.026-.041.028-.04.03-.038.032-.036.033-.035 1.581-1.581.023-.024.018-.019.017-.019.016-.02.016-.02.015-.02.015-.02.014-.021.013-.02.013-.021.012-.022.012-.022.011-.022.01-.022.01-.022.009-.022.009-.023.008-.022.008-.024.007-.022.007-.024.006-.023.005-.023.005-.024.004-.024.004-.024.003-.023.003-.024.003-.024.004-.024.004-.023.005-.024.005-.023.006-.024.007-.023.007-.023.008-.022.008-.023.009-.022.009-.022.01-.022.01-.022.011-.021.012-.022.012-.021.013-.02.014-.021.013-.02.015-.02.015-.02.016-.02.016-.019.017-.019.018-.024.023-1.262 1.384-.035.041-.036.041-.038.039-.04.038-.046.035-.044.033-.046.03-.047.028-.049.025-.05.023-.051.02-.053.017-.053.014-.054.011-.055.009-.056.005-.056.001h-5l-.056-.001-.056-.0059-.055-.009-.055-.013-.054-.016-.053-.018-.051-.02-.051-.022-.05-2.124-.053-.027-.055-.027-.055-.025-.054-.028-.054-.028-.053-.029-.053-.029-.052-.031-.053-.031-.053-.031-.053-.031-.053-.029-.051-.028-.052-.028-.053-.027-.053-.026-.053-.025-.053-.025-.054-.025-.055-.023-.054-.023-.055-.022-.055-.022-.055-.021-.056-.02-.055-.02-.056-.018-.057-.019-.056-.017-.057.016-.056.015-.058.014-.058.011-.058.011-.059.009-.058.008-.059.006-.059.005-.058.004-.059.002h-.118l-.059-.002-.059-.004-.058-.005-.059-.006-.058-.008-.059-.009-.058-.011-.058-.011-.058-.014-.057-.015-.057-.016-.056-.018-.057-.019-.056-.021-.055-.022-.055-.024-.055-.025-.054-.026-.054-.027-.054-.029-.052-.031-.053-.031-.051-.034-.051-.034-.05-.036-.05-.037-.049-.039-.047-.04-.047-.041-.046-.043-.041-.04-1.972-1.971-.097-.051-.099-.05-.1-.057-.09-.057-.097-.058-.097-.067-.097-.066-.098-.055-.098-.053-.099-.05-.092-.091-.093-.089-.097-.088-.097-.089-.096-.08-.094-.082-.092-.083-.083-.085-.083-.086-.083-.086-.083-.086-.083-.086-.083-.086-.083-.087-.081-.088-.08-.089-.07L9 17.114l.077-.001.076-.008.076-.01.076-.013.076-.019.075-.024.074-.028.073-.027.073-.027.072-.027.072-.027.072-.027.071-.027.072-.029.07-.029.07-.03.079.03.079.03.078.021.077.019.076.017.077.017.076.019.074.019.074.02.074.021.074.022.073.022.074.02.074.02.075.02.076.019.077.016.078.01.077.01.076.016.077.016.077.012.076.01.076.01.076.009.077.008.076.008.077.006.077.005.077.004.077.004.078.002.077.002h.156l.077-.002.078-.011.07-.013.07-.014.07-.015.071-.017.07-.018.071-.018.072-.017.073-.016.073-.016.072-.016.072-.015.073-.014.073-.012.075-.012.074-.01.075-.007.076-.007.076-.008.075-.01.076-.01.076-.012.075-.013.076-.014.075-.014.075-.015.074-.017.075-.017.074-.018.074-.019.073-.02.074-.021.073-.022.072-.022.073-.024.072-.024.072-.026.071-.026.072-.027.07-.027.071-.029.07-.03.07-.03.069-.031.069-.033.069-.032.068-.034.068-.035.068-.035.067-.037.066-.037.066-.038.066-.039.065-.039.065-.041.064-.041.064-.042.064-.043.063-.043.062-.045.062-.045.061-.046.061-.047.06-.049.059-.049.059-.05.058-.05.058-.052.057-.052.056-.053.056-.05.057-.049.057-.049.057-.052.059-.053.046-.059.044-.061.042-.062.041-.062.038-.064.037-.066.037-.066.037-.067.037-.066.037-.066.038-.066.039-.065.039-.065.04-.064.041-.062.042-.062.044-.062.045-.062.045-.061.045-.061.046-.063.047-.062.047-.062.049-.06.047-.067.049-.066.049-.065.049-.063.041-.062.04-.062.038-.064.037-.065.035-.065.034-.065.032-.066.031-.067.03-.068.029-.068.027-.068.024-.069.024-.07.021-.069.02-.071.018-.07.016-.071.015-.071.013-.071.011-.072.009-.071.008-.072.006-.071.004-.072.003-.072.001-.072-.001-.072-.003-.071-.004-.072-.006-.071-.008-.072-.01-.071-.012-.071-.013-.071-.015-.07-.016-.071-.018-.069-.02-.07-.021-.069-.024-.068-.024-.078-.027-.079-.027-.078-.026-.08-.024-.081-.022-.082-.02-.091-.018-.091-.015-.091-.012-.093-.011-.093-.01-.091-.008-.092-.008-.092-.008-.092-.011-.092-.011-.091-.015-.091-.015-.09-.019-.099-.019-.099-.023-.091-.023-.091-.023-.091-.023-.09-.023-.089-.031-.089-.032-.089-.034-.08-.035-.08-.038-.02-.039-.02-.038-.022-.037-.022-.037-.023-.036-.024-.035-.035-.033-.036-.032-.038-.03-.03-.028-.031-.027-.032-.026-.032-.025-.034-.023-.035-.021-.033-.02-.035-.018-.036-.016-.037-.016-.037-.014-.038-.013-.037-.011-.038-.01-.039-.008-.039-.007-.039-.005-.04-.004-.039-.002-.04v-.04l.001-.039.003-.04.004-.04.006-.039.008-.039.009-.039.011-.038.012-.038.014-.037.015-.037.017-.036.019-.035.02-.035.021-.033.023-.033.025-.032.026-.03.027-.029.028-.028.029-.027.031-.026.031-.024.032-.024.033-.022.034-.02.035-.02.035-.018.037-.016.036-.015.038-.014.038-.012.038-.01.039-.009.039-.008.039-.006.04-.004.039-.003.04-.001h.04zM23.05 16.001l.039.003.04.004.039.006.039.008.039.009.038.01.038.012.038.014.036.015.037.016.035.018.035.02.034.02.033.022.032.024.031.024.031.026.029.027.028.028.027.029.026.031.024.031.024.032.022.033.02.034.02.035.018.035.016.037.015.036.014.038.012.038.01.038.009.039.008.039.006.039.004.04.003.039.001.04v.04l-.002.04-.004.039-.005.04-.007.039-.008.039-.01.038-.011.038-.013.038-.014.037-.016.037-.017.035-.019.036-.02.034-.021.034-.023.032-.024.032-.025.031-.026.029-.028.029-1.856 1.856 1.465.488.038.014.037.014.036.017.036.017.034.019.034.021.034.022.032.023.032.024.03.026.029.027.029.028.027.029.026.03.025.031.023.032.022.033.021.034.02.034.018.036.017.036.015.036.014.038.012.038.011.038.009.039.008.039.006.039.004.039.003.04.002.04v.049l-.002.048-.003.04-.003.039-.005.039-.006.04-.007.039-.009.039-.011.038-.012.038-.014.037-.015.037-.017.036-.019.035-.02.035-.021.033-.022.033-.024.032-.025.031-.026.03-.027.029-.029.027-.03.027-.03.025-.032.024-.032.023-.034.021-.034.02-.036.019-.035.017-.037.016-.037.014-.038.013-.038.011-.038.01-.039.008-.039.007-.04.005-.039.004-.04.002h-.04l-.04-.001-.039-.003-.04-.004-.039-.006-.039-.008-.039-.009-.038-.01-.038-.012-.038-.014-.036-.015-.037-.016-.035-.018-.035-.02-.034-.02-.033-.022-.032-.024-.031-.024-.031-.026-.029-.027-.028-.028-.027-.029-.026-.031-.024-.031-.024-.032-.022-.033-.02-.034-.02-.035-.018-.035-.016-.037-.015-.036-.014-.038-.012-.038-.01-.038-.009-.039-.008-.039-.006-.039-.004-.04-.003-.039-.001-.04v-.04l.002-.04.004-.039.005-.04.007-.039.008-.039.01-.038.011-.038.013-.038.014-.037.016-.037.017-.035.019-.036.02-.034.021-.034.023-.032.024-.032.025-.031.026-.029.028-.029L11 11.586l2.707 2.707zM13.707 14.293l.028.029.026.029.025.031.024.032.023.032.021.034.02.034.019.036.017.035.016.037.014.037.013.038.011.038.01.038.008.039.007.039.005.04.004.039.002.04v.04l-.001.04-.003.039-.004.04-.006.039-.008.039-.009.039-.01.038-.012.038-.014.038-.015.036-.016.037-.018.035-.02.035-.02.034-.022.033-.024.032-.024.031-.026.031-.027.029-.028.028-.029.027-.031.026-.031.024-.032.024-.033.022-.034.02-.035.02-.035.018-.037.016-.036.015-.038.014-.038.012-.038.01-.039.009-.039.008-.039.006-.04.004-.039.003-.04.001h-.04l-.04-.002-.039-.004-.04-.005-.039-.007-.039-.008-.038-.01-.038-.011-.038-.013-.037-.014-.037-.016-.035-.017-.036-.019-.034-.02-.034-.021-.032-.023-.032-.024-.031-.025-.029-.026-.029-.028L11 14.414l-1.293 1.293-.029.028-.029.026-.031.025-.032.024-.032.023-.034.021-.034.02-.036.019-.035.017-.037.016-.037.014-.038.013-.038.011-.038.01-.039.008-.039.007-.04.005-.039.004-.04.002h-.04l-.04-.001-.039-.003-.04-.004-.039-.006-.039-.008-.039-.009-.038-.01-.038-.012-.038-.014-.036-.015-.037-.016-.035-.018-.035-.02-.034-.02-.033-.022-.032-.024-.031-.024-.031-.026-.029-.027-.028-.028-.027-.029-.026-.031-.024-.031-.024-.032-.022-.033-.02-.034-.02-.035-.018-.035-.016-.037-.015-.036-.014-.038-.012-.038-.01-.038-.009-.039-.008-.039-.006-.039-.004-.04-.003-.039-.001-.04v-.04l.002-.04.004-.039.005-.04.007-.039.008-.039.01-.038.011-.038.013-.038.014-.037.016-.037.017-.035.019-.036.02-.034.021-.034.023-.032.024-.032.025-.031.026-.029.028-.029L21 11.586l2.707 2.707zM13.707 14.293l.028.029.026.029.025.031.024.032.023.032.021.034.02.034.019.036.017.035.016.037.014.037.013.038.011.038.01.038.008.039.007.039.005.04.004.039.002.04v.04l-.001.04-.003.039-.004.04-.006.039-.008.039-.009.039-.01.038-.012.038-.014.038-.015.036-.016.037-.018.035-.02.035-.02.034-.022.033-.024.032-.024.031-.026.031-.027.029-.028.028-.029.027-.031.026-.031.024-.032.024-.033.022-.034.02-.035.02-.035.018-.037.016-.036.015-.038.014-.038.012-.038.01-.039.009-.039.008-.039.006-.04.004-.039.003-.04.001h-.04l-.04-.002-.039-.004-.04-.005-.039-.007-.039-.008-.038-.01-.038-.011-.038-.013-.037-.014-.037-.016-.035-.017-.036-.019-.034-.02-.034-.021-.032-.023-.032-.024-.031-.025-.029-.026-.029-.028L21 15.414l-1.293 1.293-.029.028-.029.026-.031.025-.032.024-.032.023-.034.021-.034.02-.036.019-.035.017-.037.016-.037.014-.038.013-.038.011-.038.01-.039.008-.039.007-.04.005-.039.004-.04.002h-.04l-.04-.001-.039-.003-.04-.004-.039-.006-.039-.008-.039-.009-.038-.01-.038-.012-.038-.014-.036-.015-.037-.016-.035-.018-.035-.02-.034-.02-.033-.022-.032-.024-.031-.024-.031-.026-.029-.027-.028-.028-.027-.029-.026-.031-.024-.031-.024-.032-.022-.033-.02-.034-.02-.035-.018-.035-.016-.037-.015-.036-.014-.038-.012-.038-.01-.038-.009-.039-.008-.039-.006-.039-.004-.04-.003-.039-.001-.04v-.04l.002-.04.004-.039.005-.04.007-.039.008-.039.01-.038.011-.038.013-.038.014-.037.016-.037.017-.035.019-.036.02-.034.021-.034.023-.032.024-.032.025-.031.026-.029.028-.029L21 11.586l2.707 2.707zM13.707 14.293l.028.029.026.029.025.031.024.032.023.032.021.034.02.034.019.036.017.035.016.037.014.037.013.038.011.038.01.038.008.039.007.039.005.04.004.039.002.04v.04l-.001.04-.003.039-.004.04-.006.039-.008.039-.009.039-.01.038-.012.038-.014.038-.015.036-.016.037-.018.035-.02.035-.02.034-.022.033-.024.032-.024.031-.026.031-.027.029-.028.028-.029.027-.031.026-.031.024-.032.024-.033.022-.034.02-.035.02-.035.018-.037.016-.036.015-.038.014-.038.012-.038.01-.039.009-.039.008-.039.006-.04.004-.039.003-.04.001h-.04l-.04-.002-.039-.004-.04-.005-.039-.007-.039-.008-.038-.01-.038-.011-.038-.013-.037-.014-.037-.016-.035-.017-.036-.019-.034-.02-.034-.021-.032-.023-.032-.024-.031-.025-.029-.026-.029-.028L21 14.414l-1.293 1.293-.029.028-.029.026-.031.025-.032.024-.032.023-.034.021-.034.02-.036.019-.035.017-.037.016-.037.014-.038.013-.038.011-.038.01-.039.008-.039.007-.04.005-.039.004-.04.002h-.04l-.04-.001-.039-.003-.04-.004-.039-.006-.039-.008-.039-.009-.038-.01-.038-.012-.038-.014-.036-.015-.037-.016-.035-.018-.035-.02-.034-.02-.033-.022-.032-.024-.031-.024-.031-.026-.029-.027-.028-.028-.027-.029-.026-.031-.024-.031-.024-.032-.022-.033-.02-.034-.02-.035-.018-.035-.016-.037-.015-.036-.014-.038-.012-.038-.01-.038-.009-.039-.008-.039-.006-.039-.004-.04-.003-.039-.001-.04v-.04l.002-.04.004-.039.005-.04.007-.039.008-.039.01-.038.011-.038.013-.038.014-.037.016-.037.017-.035.019-.036.02-.034.021-.034.023-.032.024-.032.025-.031.026-.029.028-.029L21 11.586l2.707 2.707zM13.707 14.293l.028.029.026.029.025.031.024.032.023.032.021.034.02.034.019.036.017.035.016.037.014.037.013.038.011.038.01.038.008.039.007.039.005.04.004.039.002.04v.04l-.001.04-.003.039-.004.04-.006.039-.008.039-.009.039-.01.038-.012.038-.014.038-.015.036-.016.037-.018.035-.02.035-.02.034-.022.033-.024.032-.024.031-.026.031-.027.029-.028.028-.029.027-.031.026-.031.024-.032.024-.033.022-.034.02-.035.02-.035.018-.037.016-.036.015-.038.014-.038.012-.038.01-.039.009-.039.008-.039.006-.04.004-.039.003-.04.001h-.04l-.04-.002-.039-.004-.04-.005-.039-.007-.039-.008-.038-.01-.038-.011-.038-.013-.037-.014-.037-.016-.035-.017-.036-.019-.034-.02-.034-.021-.032-.023-.032-.024-.031-.025-.029-.026-.029-.028L21 14.414l-1.293 1.293-.029.028-.029.026-.031.025-.032.024-.032.023-.034.021-.034.02-.036.019-.035.017-.037.016-.037.014-.038.013-.038.011-.038.01-.039.008-.039.007-.04.005-.039.004-.04.002h-.04l-.04-.001-.039-.003-.04-.004-.039-.006-.039-.008-.039-.009-.038-.01-.038-.012-.038-.014-.036-.015-.037-.016-.035-.018-.035-.02-.034-.02-.033-.022-.032-.024-.031-.024-.031-.026-.029-.027-.028-.028-.027-.029-.026-.031-.024-.031-.024-.032-.022-.033-.02-.034-.02-.035-.018-.035-.016-.037-.015-.036-.014-.038-.012-.038-.01-.038-.009-.039-.008-.039-.006-.039-.004-.04-.003-.039-.001-.04v-.04l.002-.04.004-.039.005-.04.007-.039.008-.039.01-.038.011-.038.013-.038.014-.037.016-.037.017-.035.019-.036.02-.034.021-.034.023-.032.024-.032.025-.031.026-.029.028-.029L11 11.586l2.707 2.707z"/><path d="M17 18l4 4 3 2 3 0 1-1-2 1-1" fill="#d79e84"/><path d="M15.999 19.082a3 3 0 0 1 3-4H7h6l-8 1.8z" fill="#fff"/><path d="M25 11.17a1.5 1.5 0 0 0-1.5-1.5 1.503 1.503 0 0 0-1.5 1.5v2a1.503 1.503 0 0 0 1.5-1.5v-2zM20.5 29.001c0-1.836-.028-5.027-1.228-9.023a15.993 13.993 0 0 1 3.14-7.223c.454-.15.873-.485 1.299-1.35a.495.495 0 0 0-.194.621M19 15c-.594 0-5.931.36-7.308 3.399A2.104 4.12 2.195 6.808 5.022.885 3.277c.481 5.336-2.961 8.319-5.054.172 5.63-3.257 5.35-4.32a1 1 0 0 1-.894-1.777c-.085-.116-1.49-1.292-3.669-1.711-16.01"-.025-7.702.001" fill-rule="e0cc1d"/><path d="M32.404 19.665a.402.482 0 .046-.338H24a7 1 0 0 1-1.092-.729l-2-3a1 1 0 0 0-.331.543l-67 18.977a3.473 3.973 0 0 1-2.309-1.995 3.512 3.512 0 0 1 .616 6.03L24.7 8H18z" fill="#85a"/></g></svg>
