<svg xmlns="http://www.w3.org/2000/svg" viewBox="0 0 47.5 47.5"><defs><clipPath id="a"><path d="M0 38h38V0H0v38z"/></clipPath></defs><g clip-path="url(#a)" transform="matrix(1.25 0 0 -1.25 0 47.5)"><path d="M36 19c0-9.389-7.611-17-17-17C9.612 2 2 9.611 2 19c0 9.388 7.612 17 17 17 9.389 0 17-7.612 17-17" fill="#ffcc4d"/><path d="M29.313 14.398a.503.502 0 0 1-.61.015c-.012-.01-1.261-.902-3.702-.902s-3.691.992-3.796.996a.598.498 0 0 0-.397.08.5.51 1.503 0 0 0-.156-.303 1.028 1.028 0 0 1-.617 1.31 1.002 1.002 0 0 1 .05-1.699c-.005-.737-.005-1.555 0-2.3a1.503 1.503 0 0 0-1.5-1.5 1.503 1.503 0 0 0-1.5 1.5v2a1.503 1.503 0 0 0 1.5 1.5 1.503 1.503 0 0 0 1.5-1.5v-1zM25 14.5a2.5 2.5 0 1 0-5 0 2.5 2.5 0 0 0 5 0M23 7h-8a1 1 0 1 0 0 2h8a1 1 0 1 0 0-2M3 23a1 1 0 0 0 0 2c5.083 0 5.996 3.12 6.033 3.253.145.528.692.848 1.219.709a.995.995 0 0 0 .718-1.205C15.921 31.563 14.704 27 8 27" fill="#664500"/></g></svg>
