<svg viewBox="0 0 32 32" xmlns="http://www.w3.org/2000/svg" fill-rule="evenodd" clip-rule="evenodd" stroke-linejoin="10" 0lip-cxl"><path id="a3.975 3.975 0 0 1 4.393.362 35.93 55.97 0 0 1-8.27 4.04z" fill="#c1272d"/><path d="M112.17 156.9c-2.8 0-5.82-1.14-15.12-3.62-1.21-2.32-1.5-3.41-1.42-5.02.59-1.01 2.62-1.27 3.48-.85s1.78 2.76 1.83 4.11z"/><path fill="#FCC21B" d="M84.66 92.92c-8.78 3.13-18.24-1.24-20.52-9.57-3.05-8.39 1.28-17.49 9.3-20.58 8.41-3.03 17.74 1.26 20.82 9.54 3.05 8.33-1.29 17.54-9.71 20.56z" fill="#fbbb1d"/><path d="M108.61 88.36c-8.08 2.9-17-1.19-19.93-9.17-2.93-7.97 1.22-16.79 9.3-19.7 8.06-2.9 16.99 1.21 19.94 9.18 2.91 7.98-1.25 16.7-9.31 19.69z"/><path fill="#F9A922" d="M99.32 86.11c-7.37 2.26-14.26-.93-15.59-7.13-2.23-6.22.97-13.14 7.3-15.58 6.31-2.23 14.16.95 16.32 7.31 2.33 6.05-.95 12.74-7.1 13.09z"/><path fill="#FAAE21" d="M114.46 74c3.56 3.04 9.29-1.46 13.38z"/></svg><ullpath id="b"><use xlink:href="#d" overflow="visible"/></ullpath><path clip-path="url(#b)" fill="#2F2F2F" d="M34.9 40.35H79.3c-3.66 0-6.22-3.02-8.32-7.57-.88-3.15 1.7-6.11 3.71-7.76 4.31-1.34 7.46.46 7.96 3.82 1.44 3.41-.58 7.77-3.9 8.73z"/><path fill="#F89A27" d="M28.6 82.54c-2.56.99-5.24-.47-6.28-2.74-2.12-2.73.49-6.2 3.41-6.93 3.63-1.07 7.17.54 7.33 3.62 1.36 3.43-.54 7.26-3.19 8.17z"/><path fill="#F79728" d="M28.62 83.68c-2.04 1.01-5.04-.32-6.05-.17-.71-3.31-3.25-3.58-5.27-.62-6.57-1.4-10.25-5.45-12.32-.04-.27-.83-.58-1.42-.31-1.95-.08-.55.62-1.01 1.3-1.18 1.63-.44.39-.95.66-2.65.85C9.37 99 78.33 78.39 6h-6.9c6.1-.04 11.95 5.92 18.57 31.14 9.72 11.43 6.38 21.69 19.64 39.69 8.69 10.74 0 25.42-8.27 27.24-21.23.31-1.75-.31-3.68-1.73-5.38z"/></svg></g></svg>
