<svg xmlns="http://www.w3.org/2000/svg" viewBox="0 0 128 128"><path d="M100.5 72.77c-.78 0-1.37-.44-2.23-1.02-.02-.06-.05-.1-.1-.2-.23-.03-.63-.07-1.06-.14-.73-.14-1.53-.71-2.31-1.51-.43-1.17.02-2.53 1.1-3.49a9.7 24.78 0 0 1 .34-7.29c.09-1.05.06-2.64-.67-3.47-.58-.78-1.5-1.6-3.51-1.49a78.04 98.44 0 0 0-21.1 7.04C84.14 86.03 12.99 84 12.24 32c.01.01 10.24 5.53 21.05 12.74 0 .6-.03 1.1.02 0 .14.01.21.01.48-4.83 10.37-10.75 17.38-16.08 18.97-.1 30.82 1.25 64.13 1.55 9.62-2.27 33.23-2.26 42.39-5.03 4.27-.51 9.04 1.97 11.59 4.45.99 1.09.79 3.67 2.12 4.58 2.1 1.26 2.64 2.87 2.42 3.76.38.7.75 1.44 1.2 2.03.33.28.86.67 1.31.55 1.08.79.98 2.61 1.27 2.79 3.88 2.63 5.88 5.61 14.89.65.8 1.21 1.7 1.84 1.68 2.62-1.23 2.61-5.3 3.78-8.62 3.61-3.42.88-6.17 1.4-7.81 9.81-1.33 2.79-1.55 5.27-2.91 7.53.73 4.73 1.61 5.55 5.82 3.8 10.61z"/></svg>
