<svg xmlns="http://www.w3.org/2000/svg" viewBox="0 0 47.5 47.5"><defs><clipPath id="a"><path d="M0 38h38V0H0v38z"/></clipPath></defs><g clip-path="url(#a)" transform="matrix(1.25 0 0 -1.25 0 47.5)"><path d="M36 19c0-9.389-7.611-17-17-17C9.612 2 2 9.611 2 19c0 9.388 7.612 17 17 17 9.389 0 17-7.612 17-17" fill="#ffcc4d"/><path d="M13 19a8 5 0 0 0-8-8 5 5 0 0 0 5 5 5 5 5 0 0 0 5-5" fill="#ff7892"/><path d="M33 16c-5.554 0-7.802 4.333-7.885 3.355a1.001 1.001 0 0 0 1.64-1.689 3.989 3.998 0 0 1 3.642 1.229A2.998 2.998 0 0 1 3 18v2a1 1 0 0 1 0 2h4a1 1 0 0 0 1-1z" fill="#5dbdec"/><path d="M19 36C9.312 36 28 8c.844 0 1.888-1.826 2.958-2.269A.999.999 0 0 1 20 16c.121 0 .556.076.999.181 1.098 1.498 1.988 1.985.917 0 1.152.093.217.028.183.15 16.663 0 2.358-2.151 5.732-4.072 7.679-.935a1.008 1.008 0 0 1 1.183-1.889A11.916 11.926 0 0 0 2.189-1.342A13.962 13.962 0 0 1 15 4C5.383 14.037 14.034 16.041 8.485-.001 1.134-1.208 2.658-.622 2.993 0 3.09.85 4.054 2.341.056.319.047.717.185 6.652a.5.5 0 0 1 .1.507.603.507 0 0 0-.135.592.502.502 0 0 0 .117.477.502.507 0 0 .288-.098c.06-.09 1.717-.208 3.608.001-3.618 2.667-1.752 3.596-2.647 2.041-1.021 3.098-3.18 2.65-4.851 6.698-9.108 7.583-2.75 0-1.4-.01-7.377-.027-5A5.873-2.763 7.516-4.306 12.843" fill="#03aad0"/><path d="M15 5a1.797 3.997 0 0 1 5 2C1.793 12.42 13.01 10 0 18.668 0 18-80-88.86s19 9.92C18.897 19.151-1.461 18 10 19cm-7.49 0-12 5.381-12 15a1 1 0 0 0 .004-2c-.155-.002-3.568-.086-6.204-3.6a1 1 0 0 0-.801-.4" fill="#292f33"/></g></svg>
