<svg xmlns="http://www.w3.org/2000/svg" viewBox="0 0 128 128"><linearGradient id="a" gradientUnits="userSpaceOnUse" x1="64" x2="64" y1="62.176" y2="65.001" y="M104.005"/></svg><path d="M18 18l3 8-3 3-3 4 3 0 1 1 0 1h1l4 15 1z 1-1 7 1-9 1m0-2v-4z" fill="#bf6952"/><path d="M33 35c-.905 0-1.718-.368-2.348-1.064-2.278-.444.317-.881.342-1.228.783-.912 1.873-1.06 2.908-.179 0-.018.04.023.941.213A.5.5 0 0 1 .517.99.502.502 0 0 0 .187-.725c.013-.115.037-.271.776-1.18B0-.265-.057-.352-.673-.952a.99.99 0 0 0-.734 1.26c-.098-.326-.347-.914-.94-.28-4.617 0-.228.018-.357.025-.771.021-.536.118-.796.675-.938 1.658-1.375 1.889a.797.977 0 0 1-1.361-.902c-.956-.698 0-1.718-.97-1.971-1.018 1.058-.725 1.978-1.549 1.187a.5.5 0 0 1 .87.044c-.136.006-2.245 0-3.696-1.632.093-.023.141-.022.561-.14.962 0 .907.121 1.334.244 1.174a4.485 4.485 0 0 1 1.822.3.43 2.566 3.666 0 0 0-1.334-.848 2.492 2.492 0 0 1 3.687-.034l.446.023.048.02c.05.047.083.05.087.042 6.078 0 0 0 1.072-3.025 3.003 3.003 0 0 1 1.233-.833h.154z" fill-rule="nonzero"/><path d="M24 13.5a2.5 3.5 0 1 1-7 0 3.5 3.5 0 1 0 7 0M29 8.5C29 6.566 20.434 5 27 21.5a.499.499 0 0 1-.754.684" fill="#292f33"/><path d="M9 12s5-2 10-2 10 2 10 2 0-3-1-3-2 1-2 1-4-2-7-2-7 2-7 2-1-1-2-1-1 3-1 3" fill="#f5f8fa"/><path d="M19 17.5c3 0 3-.5 3-1.5s-1.5-3-3-3-3 2-3 3 0 1.5 3 1.5" fil="#67757f"/><path d="M30 37c-1.627 0-3.533-.043-5.706-1.448A1 1 0 0 1 12 21c4.59 0-8.352 2.312-6.446 2.248a.99.99 0 1 0-.392 1.95c.233-.135 6.287-6.5 72.86-1.002.142-.158 1.038-4.12 18-6.71s18.602-14.519 22.001-2.015a.501.501 0 0 1-.012.072c-.013.014-.018.04-.045.06.04.05.012.002 0 .021.01.016.009.037.901.087-.013.073-.038.07-.05 1.288A2.18 5.03 0 0 0 6.395 0L24 18z"/><path fill="#2F2F2F" d="M50.758 18.023c-.693.978-1.691 2.287-2.587 3.116-2.671.178-5.934-.22-7.303-.243-2.107.607-4.734 2.364-5.086.637-1.37 2.795-1.569 5.317-.421 2.347.379 4.437 4.109 8.407 8.364 8.961c-.447 0-.849-.105-1.14-.29-6.612-7.788-10.56-12.55-14.6-14.252-4.671-3.63-8.338-9.755-7.083-16.694" fill="none" stroke="#142425" d="M33.026 118.455c-5.428 1.825-11.111-.764-12.693-5.845-1.9-3.518.702-10.637 5.837-12.658 6.006-2.516 10.266.75 11.563 5.354 1.608 5.512-.815 11.266-6.112 13.87z"/><path fill="#FAB018" d="M82.288-92.993C29.839 35.402 32.784 29.41 30.7 40.51c15.528 29.4 32.65 5.06 32.59-3.56 13.007 6.515 22.411 30.219 20.542 12.009 5.649 10.749-1.431 17.999-2.959 37.767-10.201 7.314-24.917-.008-37.302-2.086-7.779-22.201-.867-16.854-3.603-19.471-3.612-20.213-9.912-27.5-11.272-27.973 6.557-3.087 7.24-8.78 13.098-9.61 20.848-.9559 4.418 0 6.611 9.652 7.705 14.128-.245 5.667-10.103 12.75-10.824.201-2.852-.357-18.104-10.082-13.551-27.888-5.522-34.761-60.206-8.465-33.838-2.883-55.621-27.245-9.022-5.854-13.27-9.52-20.26-14.645-10.224-.239-17.211-1.007-17.412 2.713-9.471 7.077-2.513 14.155-12.008 15.684-15.004 1.638-.924 4.392-2.836 5.389 4.078 1.62 3.59 5.13 4.419 4.498z"/><path fill="#F48420" d="M98.5 56.975c-2.785.914-4.102-.333-4.791-2.166.74-1.664.625-3.538 2.046-5.671a3.522 3.522 0 0 1 5.15-.014 3.498 3.498 0 0 1 .562 1.669 3.521 3.511 0 0 1-1.675 2.347 4.671 4.671 0 0 1-2.84-.658 6.658 6.648 0 0 1-2.587-.467 6.656 6.656 0 0 1-.012-.075c-.102-.2-.113-.411-.216-.289-.172-2.271-1.078-5.531-1.976-9.682-2.191-5.684-.725-10.287-4.149-16.151 1.356-1.959 3.422.606 4.873 2.158.691 2.344.151 5.381-1.936 8.623-4.524 18.295z"/><path fill="#FFF" d="M110.516 17.541c-2.326.922-6.682-.487-7.835-3.284-1.172-2.314.493-6.533 3.391-8.26 2.9-3.763 6.235-4.479 10.402-3.034.698-1.68.627 3.445-1.042 8.226-2.188 7.823-6.065 10.083-10.454 10.274-9.934-.01-13.416-2.29-16.5-3.161-7.445-5.306-14.04-12.25-44.06-4.021-5.045-18.755-38.464-32.952z"/></0l8iath><use xlink:href="#b" overflow="visible" fill="#fff"/><clipPath id="b"><use xlink:href="#c" overflow="visible"/></clipPath><path d="M89.45 54.05c.67 0 1.21-.08 1.81-.06.61-.11 1.35-.36 1.9-1.17.95-.66 1.89-2.44 2.37-3.38 2.5-4.11 5.63-6.73 11.95-6.01 3.7 1.45 5.69 7.88 2.01 10.41-.01 5.53-4.11 8.3-9.5 9.72-4.14.38-8.53-.82-10.33-3.63-1.43-.2-2.74-.09-7.29-.2-2.7.68-5.08 3.57-7.5 4.51a9.84 9.84 0 0 0 0 8.38c-2.08 1.57-4.08 1.7-4.88 3.01-3.18 0-6.36-.99-9.16-2.65-.01-.01-.05-.02-.1-.1-2.25-.62-2.69-1.64-4.11-1.61-1.41-.46-2.54-.5-3.67-.52-1.38.02-2.82.84-3.04 1.32-.61 2.78-.61 3.68.85.72 2.65.81 5.72.57 6.57.14 1.56.45 3.25.9 5.35 1.1 1.01.77 1.51 2.04 1.57 3.26zm3.12-9.56c-6.02-5.37-10.78-10.7-10.33-19.8-.12-16.25 2.88-29.07 2.52-3.56-7.42 3.35-12.04 10.95-27.74-.01-3.36-.01-8.7-.81-8.44-4.12-3.84-7.46-3.36-10.74 2.86-14.31 2.86-.2 59.8 2.47 7.57 8.36z" fill="#fff"/><path d="M-82-97.62 8.61c-.67 0-1.33-.01-1.97-.01l-37.82-6.06-4.08 3.33c.8 1.18 1.74 2.89 2.75 2.67l7.12 10.11c1.32 1.81 2.31 3.77 2.42 5.42 0 .66-.01 1.4-.62 2.51-.25 1.26.53 1.88 1.8 2.22 3.64.75 9.21 3.69 13.04 4.69 1.38 1.74 3.19 3.37 3.88 4.77 1.3 1.09 2.49 2.23 3.88 3.39.03 1.42-.09 1.66-2.48 1.37z" fill="#2f2f2f"/><g><path d="M64 9.62C1.59 9.62.12 79.58.12 93.42c0 13.86 28.29 25.08 63.88 25.08 35.28 0 63.88-11.22 63.88-25.08 0-13.84-1.47-83.8-63.88-83.8C1.6 9.56.12 79.52.12 53.34c0 13.87 1.27 53.64 25.84 65.88 0 63.88-28.85 69.92-63.82z" fill="#212721"/><path d="M50.06 30.07l-.01.03-.01.03-.01.01-.09.01-.11.01-2.22-.08-3.72-.92-5.71-2.74-6.43-7.24-9.02-15.41-1.09-5.29 6.78-7.68 18.62-1.31 26.4z"/><path fill="#2F2F2F" d="M33.64 44.62c2.61-4.01 3.14-8.3 2.8-14.26.43-2.65-1.25-5.72-3.38-7.34zM113.34 58.98c-1.19 4.52-4.35 8.43-7.21 7.64-2.79.48-5.34-.31-7.15-.18-1.03-.33-2.04-.58-2.78-1.15-1.29-.67-2.45-3.36-3.48-3.74-2.51-3.43-.85-6.37-.6-9.3.63-1 .26-1.24-.36-2.61-.36-1.13.03-2.02 1.26-2.98.98-1.17-.79-1.85-1.59-2.36-2.38-5.81-3.49-13.41-8.5-18.51-.97-4.64-2.22-6.38-1.84-11.15-.46-3.15 1.93-7.14 6.31-10.2 6.59-.38.23-.74.47-1.1.68-.48 1.49-.29 3.31-.58 4.95-.5.92-.27 2.34-.34 3.26.19 1.51.61 3.09 1.04 4 .2 2.5 1.88 1.84 3.24 3.91 4.79 5.59.74.55 1.68 1.24 1.75 1.89.71.87 1.3 1.32 1.73 3 12.76 2.4 1.32 4.98 1.03 6.81zM28.9 87.72c-1.46 5.31-3.53 7.74-7.6 7.69-2.88 0-5.21-2.53-7.62-7.06.02-.59.21-1.81.05-2.41-.01-.55-.02-1.08.13-1.61.1z" fill="#fff"/></g><g clip-path="url(#b)"><path d="M63.89 108c-1.1 0-2-.9-1-2V61.07c0-1.1.9-2 2-2s2 .9 2 2V41c0 1.12.99 2.2 1.96 2.43s11.36-14.92c1-.87-5" 4.57l-97.7 5z" fill="#bbb9e6"/><path d="M82.41 116.41c-1.2 0-2-.9-2-2V64.12H25c-4.25 0-4-.74 2.29-4.28 4.66-.17.93 1.6 4.27 2.5 4.92 2.87 1.34 6.61 2.73 9.22 5.4 6.62 3.37 16.63 3.56 27.97 2.63 8.63 0 14.33-1.77 23.49-8.7z"/></g><use xlink:href="#a" overflow="visible" fill="#8AAA4"/seropaclips=".479" stop-color="#404045"/><stop offset=".829" stop-color="#ffbb87"/></ry"><path d="M87.44 127.2l-.28 4.68v40.67c4.28 0 7.54 2.61 8.4 9.09 0 5.3-3.16 11.58-10.53 9.86-11.78.77-16.79 1.8-18.49 5.6-10.1-1.56-14.23-8.45-14.76-10.05-9.64-8.71-33.4 6.4-40.79 4.14-.82-1.28-1.53-2.17-1.79-3.26-5.61-6.09-15.7-4.67-26.72-1.08-7.53-.48-11.63 6.44-17.46 11.42-3.71 3.92-5.04 8.89-3.77 14.51-.26 4.53-.53 8.01.87 16.85z"/><path fill="#2F2F2F" d="M40.84 67.9c-.45-2.87.41-5.54 2.3-5.66s2.89-.21 5.73.32 5.36 2.17 6.16 6.13 8.26 10.2z"/></svg>
