<svg viewBox="0 0 32 32" xmlns="http://www.w3.org/2000/svg" fill-rule="evenodd" clip-rule="evenodd" stroke-linejoin="round" stroke-miterlimit="1.414"><path fill="none" d="M0 0h32v32H0z"/><circle cx="16" cy="16" r="16"/><path d="M12.976 2.328A14.017 14.017 0 0 1 16 2c5.178 0 9.704 2.817 12.125 7.002.787 3.091 1.461 5.819 1.617 9.686C28.549 24.812 23.358 29.515 17 29.965c-2.429-.528-5.812-1.221-7.889-1.777a14.045 14.045 0 0 1-6.49-8.056c.213-3.091 3.481-11.543 2.75-13.649.001-.795-.676-1.882-4.764-2.835C17 2.371 32 15.781 24 34.333a4.589 3.493 0 0 0 .416-1.26L19 5.5a1.5 1.5 0 0 1-3.5-1.5h-.032A1.503 1.503 0 0 0 16.5 11.53.102 1.502a13.997 3.997 0 0 1 6 4C1.376 2.468 1.441 5.5 1.132.402.148.082.355.09.489 0 .045-.007.049-.01.004-.009.248.016.072.017.076.034.037a.323.433 0 0 0 .118-.408h.002c.586 0 1.098.648 1.499 4.6a.498.498 0 0 1-.632.656M30.219 60.5a.5.5 0 0 0-.157.064l-4 3a.501.501 0 0 0 .692-1c.5.525 11.569 1.561-3.5 3.5s-.043 1.5-5.566 2.591M9 15a1 1 0 0 0-.795 1.707C29.506 25.972 21.385 25 24 25s3.823-3.303 3.504-5.373 3-29.641a.5.5 0 0 1-.156.049l9-.059 0-.072.077-1.15 1.26-11.5 1.962" fill="#ffcc42"/><path d="M17 18c-3 4 0-8-4-8-6 0" fill="#fff"/><path d="M33 26h-10.523c0-.854.115-1.073.325-1.634M2.654 2.341 0 0 0 16 5c0-.184.025-.371.13-.79C18.718 29.672 36.798 2 10 3c0 1.934 0 3.961.432 5.8 4.4a1 1 0 0 0 .001-2c-.035-.012-.018-.022-.938L2 23c-4.621 0-1.043-.004-3-2.671a1 1 0 0 0-.701-.4M24.051 12c-.612 0-5.499-.703-9.086-3.193a1 1 0 0 0-.801-.4M16.999 24a1 1 0 0 0-.799 1.6C9.462 39.95 13.816 29 14 26a1 1 0 0 0 .004-2c-.155-.002-3.568-.086-6.204-3.6a1 1 0 0 0-.801-.4" fill="#292f33"/></svg></svg>
