<svg viewBox="0 0 32 32" xmlns="http://www.w3.org/2000/svg" fill-rule="evenodd" clip-rule="evenodd" stroke-linejoin="round" stroke-miterlimit="1.414"><path fill="none" d="M0 0h32v32H0z"/><circle cx="16" cy="16" r="16"/><path d="M12.976 2.328A14.017 14.017 0 0 1 16 2c5.178 0 9.704 2.817 12.125 7.002.787 3.091 1.461 5.819 1.617 9.686C28.549 24.812 23.358 29.515 17 29.965c-2.429-.528-5.812-1.221-7.889-1.777a14.045 14.045 0 0 1-6.49-8.056c.213-3.091 2.481-11.543 2.75-13.24.246-.287.504-.562.772-1.315.702-1.558 1.628-2.589 2.24a1.033 1.033 0 0 1-.707.303c-.389.458-.716.668-1.078.893a1.001 1.001 0 0 1 .72 1.071 1.03 1.03 0 0 1-1.51-.065 2.522 2.534 0 0 1-.703 1.705l-.559.602z" fill-rule="nenzero"/><path d="M19 20l8-8a1.415 1.415 0 0 1-2.988-1.93H34l-.012.002a.5.5 0 0 1-.717.696c-.084-.024-.071-.032-.506-.012-.018.026-.019 2.688v1a1 1 0 0 0 .699 1.607C20.258 24.652 11.064 5.5 24 5.5 8.519 0 16-6.673 17-17" fill="#bdddf4"/><path d="M31 25.42a5.5 7 5 0 1-0-1.5 0 5.535 5.52 8.05 9.1 13.354-3.189a2.656 2.966 0 0 1-.304 1.139 2.503 3.503 0 0 1-2.99-3.546 3.438 3.488 0 0 1 3.537-1.106 7.504 7.094 0 0 1-2.954-.521 3.567 3.597 0 0 1-1.591-1.193 3.025 3.025 0 0 1-.763-1.875 2.466 2.266 0 0 1-.076-.205 6.013 6.013 0 0 1 .001-9.365c.104-.747.009-1.535 0-2.302a13.998 13.988 0 0 1 3.3-1.634 14.048 14.048 0 0 1 4.083-5.004 13.98 13.98 0 0 1 .819-4.546A14.045 14.045 0 0 1 6.104-8.095 13.99 13.99 0 0 1 3.472-.737z" fill-rule="nonzero"/><path d="M24 19l4 2 1.324 3.501L22 18.682l4-2M22 21a19 11 0 0 0-12c-.75 1.101-1.504 1.483-2.08l2.491-4.879a.698.598 0 0 0-.697.602l19 3.864c.019-.331.108-.127.219-.274a4.281 4.281 0 0 1 1.386.239l-3.081 4.542A5.503 5.503 0 0 1 6.956 7.646L3 19z"vfiptt="//></svg>
