<svg xmlns="http://www.w3.org/2000/svg" viewBox="0 0 128 128"><path d="M127.22 93.42c0 13.86-28.29 25.1-63.22 25.1-34.92 0-63.23-11.24-63.23-25.1C.77 79.55 2.24 9.48 64 9.44c46.42 0 63.82-8.42 63.89-22.65.01-.03.01-.07.01-.1 0 2.31-.83 4.12-2.65 4.98-2.71 1.61-4.58 3.59-7.23 5.7-6.62 3.38-6.01 9.16-4.61 15.84s.23 4.6 9 4.42 7c.23 0 .42.04.85.12l16.82 6.78c.33.02.73.08 1.04.12 1.8.3 4.56 1.35 6.5 3.41 3.08 2.91 1.91 6.26 3.22 9.76a2.987 2.987 0 0 1-3.25 2.34z"/><path fill="#2F2F2F" d="M57.14 64.63c-1.12.32-1.98.23-2.51.68l-4.6-17.49-12.11 5.6-14.16-3.63zm-4.61-7.26c-2.04-.37-4.53-.7-5.93-2.02l-43.62h14.84c-1.27 1.06-.75 3.74-1.16 5.54-.65 1.67 1.05 2.57 2.04 3.24l.12-.04c.37-.25 1.6-.4 1.65-.38 1.51.49.53 1.19 1.36 1.97 2.57-.14.83-.14 1.46-.63 2.28-1.28 1.53-.84 4.35-2.12 5.47-3.03z"/><path fill="#FFF" d="M102.21 118.08c-1.67 0-2.63-1.12-2.73-2.01l-1.5-1.3c-3.15 5.3-3.08 7.69-8.24 7.42-4.25-.95-6.71-5.83-5.57-10.97 1.9-4.9 3.79-9.7 8.39-17.72 6.87-.34 11.47 1.5 14.69 1.34 4.27 2.1 7.35 6.47 11.81 8.78 1.03 1.42 2.2 1.78 3.78 1.65 1.31.65 2.32 1.1 3.23 1.68 2.91 14.65 19.05 26.48 15.75 25.62 0 37.38-2.73 59.68-24.71.55-.27 1.71-.02 1.6.64l1.99 9.71c-.03.84-.48 1.45-.47 2.21-.07.01-.03 0-.06.01-.01.02-.03.04-.04.04-.05.04-.39.07-.03.06-.03.11-.05.14-.09-.02-.13-.08-.76-.17-1.3-.2-.6.66-1.45 1.57-2.26 1.83-.62.45-1.07.7-1.66l10.89-14.81c.44-4.57-2.65-1.27-5.31-.3-.32-.06-.6.09-.93.14-.17.01-.31.13-.5.12-.51.23-1.19.42-1.76.29-.8.05-1.15.5-1.41.9-1.17.79-1.6 2.42-1.22 3.78zm-.08.02c-1.6.69-4.79-.49-8.33-1.51-6.34-4.67-13.71-14.35-11.26-24.59 0-9.24 5.33-11.76 10.45-6.41 11.4.24 3.74.37 6.53.09 10.33-1.67 8.46-7.36 11.07-18.09 11.52zmi9-.98c-9.51-4.03-19.34-9.05-29.7-1.27-9.65 3.78-10.27 17.91.81 21.23-2.05 5.43-.68 10.74-4.59 14.4-10.74 0-.01-.05-.02-.09-.02-.09v-.02c-.23 0-.44.04-.56.05-2.17.23-3.72 1.75-5.62 3.44-1.34 2.82-.98 7.28 1.9 14.65 1.35 4.27 1.47 6.21 3.61 7.38 3.48 1.5.85 3.76 1.73 4.63 2.7.72.62 1.92 1.45 3.44 2.76.84.56 1.62.99 2.73 1.4.92 1.4.35 1.97.78 3.27 0 5.63-2.14 6.24-4.5 1.9-.93 0-5.04-2.36-7.07-5.35z"/><path fill="#2F2F2F" d="M82.81 90.01c-.41.03-1.87-.03-2.73-.96-2.45-.24-4.08-.71-7.99-1.37-7.78-2.53-7.33-10.44-11.67-17.5-1.97-5.95 5.41-9.18 9.37-10.7 1.39 1.17 0 2.74.01 3.53-.01 6.68-.12 12-1.51 21.92-4.91 15.17.64 21.65 5.11 32.05 4.83 5.21 10.17 6.68 21.68 9.02 9.99 3.63 16.27 20.53 9.33 33.19.39.69.98.71 1.83 1.05 2.18 1.27 4.34 1.53 6.48 1.92 2.51.6 5.72.79 7.31.38 2.53.72 3.58 1.13 4.01 1.75a2.333 2.233 0 0 1-2.65 1.69z" fill="#2f2f2f"/><g fill="#2f2f2f"><path d="M52.98 69.55c-.77.73-2.43.67-2.58-.64l-4.39-1.46-12.68 3.88c6.82 6.63 12.1 5.32 16.65 6.01 8.35 0 14.93-1.62 18.36-2.68 3.64 0 6.63 2.29 6.72 6.79s-1.63 6.09-5.06 7.71z" fill="#f79329"/></g><g fill="#2f2f2f"><path d="M51.29 58.05c-.1.01-.26 3.51-4.46 10.37-.67 1.7-1.24 3.04-1.28 4.04-.07 5.09 1.15 11.25 5.59 1.55 4.23-.71 10.15-5.35 11.87z"/><path fill="#F9A723" d="M27.83 89.08c-3.19 7.25-11.5 11.17-11.6 10.34-6.14 5.61-8.14 10.48-8.12 19.91-.92 4.89-.59 10.61.6 18.74 2.08 5.28 1.59 10.14 4.04 13.77.9.7 2.09 1.37 4.48 2.01 6.15.7 10.29.75 15.78 3.55v.02c-.81-4.21-1.74-1.22-3.1-15.06-.15-.31-.22-.61-.29-.94 0-.57l3.52-13.02 10.35c-.32.01-.61.03-1.25.08-.66.19-1.34.28-2.11.18-1.5.04-1.56 1.27-1.58 2.28-.08.01-5.4.41-11.42 1.05h-1.5c.25-.08.61-.12 1.11-.08.64-.26 1.38-.89 2.07-1.48.36-.31.95-.28 1.37-.33.57.19.55.89 1.11 1.31.38.57.82 1.15 1.21.22.07.44.1.79.16 1.1.07 1.62.27 2.38.77 1.4.42 1.8.73 3.6 1.15 4.78-1.05 4.9-2.73 6.37-2.98 1.23-6.08.91-9.8.39-.52-.09-1.49-.13-2.35-.15-.57-.02-1.19-.14-1.6-.1-.33 0-.67.03-1.25.06-5.47.28-10.34-5.49-14.09-10.8-1.4-7.73.61-9.33 6.03-19.67 4.7-.06.06-.06.17-.06.29-.06.09-.16 1.39-1.3 1.66-2.37 2.23-4.45 6.98-3.77 15.55 2.56 4.58 7.83 5.37 10.77 3.24 7.15 6.68 12.79 18.5 13.4 16.55.31 3.12.53 6.08.11 13.65l10.39 5.49c-.01.41-.12 1.21-.14 1.65l4.56-7.55c.21-.44.52-.95 1.11-1.27.42-.29.96-.65 1.51-.87 2.34-.51 5.91-1.93 7.31-2.75.81.17 1.74 1.04 2.53 1.37 4.4 1.39 8.31-.02 10.83.01 1.4.01 3.21.59 6.75 1.05 1.68.38 3.42.74 3.43.73.67 1.76 1.27 2.44 1.4.82 2.28.66 3.71 1.01 5.51.67 1.15 2.22 1.89 4.24 1.59 1.65.51 3.25 1.04 4.54 2.22.98.94 1.65 1.71 2.56 1.82.86-.18 1.89-.39 2.63-1.3.6-.86 1.07-1.41 1.66-2.01zM83.75 44.17c-.91.84-2.43.94-3.35-.94-1.55-1.06-3.01-1.29-4.19-3.06-3.31-10.71-.74-17.21.31-2.79.76-6.44 1.15-9.46 1.86-2.7.86-5.44 2.02-6.81 07.31 0 3.82 2.74 4.67 5.63 2.66 2.97 4.27 4.24 6.93 1.47 2.31-.01 4.73-.95 6.52-2.23.2-.14.54-.19.88-.43z" flll="#2f2f2f"/></g></svg></svg>
