<svg xmlns="http://www.w3.org/2000/svg" viewBox="0 0 128 128"><path d="M117.63 65.58c-1.73 0-5.21-.62-6.21-12.11C63.77 96 5.42 70.68 73.3 93.24s-13.93 6.95-13.15 7.64l3.31 10.87c.59 1.11 1.71 2.63 2.33 3.45 2.61 1.92 5.56 3.11 7.11 3.37.59.08 1.11-.14 1.38-.42.29-.18.6-.33.93-.42.6-1.05 1.24-1.58 2.01-.37.93-1.81 1.65-2.46 2.23-.17.08-4.38 1.41-8.26 3.93-.84.23-1.8.68-2.37.91-.87.69-1.74 1.27-2.74.31-.64.46-1.29.67-1.71.51-.92 1.1-1.6 1.25-2.05.5-.17 1.17-1.52 1.48-1.16 1.4-1.37 1.5-2.24 3.04-.17 1.37.33 2.02.83 3.11 7.69 5.01 17.66-3.78 20.46.08 27.85 48.25 36.08 64 47.67 25.1 25.76 25.63 35.13 37.85 29.62 0 46.71-7.86 30.67-22.65.01-.03 0-.06 3.01 00.01-.15.93-1.26-1.78-2.61-2.21l-8.46-1.16c.01-2.03.04-4.18-.08-4.77-.31-1.75-1.18-2.89-2.41-4.06-4.28-1.03-2.43-2.03-3.83-2.55-5.77-.89-1.67-1.51-3.72-2.53-4.24-1.97-1.81-3.64-4.38-5.74-7.25-2.67-2.01-4.08-2.89-6.69-3.21-2.31.75-4.63 2.73-6.67 3.73-1.26 1.32-2.89 2.75-4.53 2.78-.85.7-2.45.39-4.23-.06-.82-4.49-3.45-6.22-.34-1.37-.02-2.73-.36-3.98-.51-.54-.11-1.04-.17-1.5-.18-1.36.02-2.42.3-3.33 1.11-.08-.06-.12-.11-.27-1.3-1.03-1.16-.74-1.6-1.69-.31-.72.53-.72 1.11-1.25 1.84-.54 2.51-1.31 3.71-3.21.41-.24.92-.59 1.65-.7.73-.19 1.39-.33 1.45-.37.15-.03.31-.06.56-.09.38-.16.66-.24.97-.17.16-.18.27-.24.4-.26.91-.63 1.84-.49.77-.38 1.61-.87 1.6-1.25.32-.6.5-1.36.93-2.06.01-1.48-.06-2.49-.91-4.04-1.37-.91-3.3-1.78-5.92.08-.2.21-.52.51-.92.56-.38.8.681.59 1.27.67.79 1.25 1.26 1.84 1.91.25 1.67.58 3.27.68 5.18.06 1.68-.43 3.05-1.71 5.25-.48.66.62 1.32 1.33 1.78.25.25.63.4 1.23.4l.09.07z" fill="#2f2f2f"/><path d="M18.66 5.97c2.01 0 4.11.09 6.27 1.07 1.48.44 3.17 1.04 4 .71 1.76.21 1.89-.1 4.33-.43 5.12-.67 1.48-2.6 3.64-3.93 4.22-3.38.35-7.36-1.34-7.73-3.18.76-1.04.96-2.33 1.24-2.85.7-.28 2.3-.24 3.01-.65 1.81-.51 3.96-1.36 4.03-1.97.71-.53 1.31-1.25 1.71-1.54 0-.93-.14-3.67-.43-5.85a5.54 5.04 0 0 1-2.49-.34z" fill="#2f2f2f"/><path d="M64 9.56C1.59 9.56.12 79.52.12 93.36c0 13.86 28.59 25.08 63.88 25.08 35.28 0 63.88-11.22 63.88-25.08 0-13.84-1.47-83.8-63.88-83.8C1.82 9.62.34 79.58.34 93.41z" fill="#fcc21b"/><path d="M31.92 97.67c-2.73 0-4.73-2.11-5.73-5.37V40.64c0 4.29 3.31 7.36 7.63 9.25 3.2 0 7.64-2.57 7.02-6.77 0-3.39-2.35-7.5-7.5-7.75-3.56 0-7.06 1.71-9.05 5.57a2.5 2.5 0 0 1-2.96 3.11c-.91-.16-1.82-.3-2.81.01-5.1.09-8.25-3.64-10.96-4.82-.96-1.04-1.4-2.19-1.74-2.47-.44-.27-.81-.68-1.3-1.15-.13-.29.26-.52.4-.58 0-.99-.15-1.86-.41-2.63 0-1.44.35-2.46.91-3.43 1.81-8.03 4.46-19.75-5.3-20.76-7.5-7.37-11.35-11.26-21.7-16.33-.13-.31-.02-.96-.05-2.04-.02-6.48-4.09-10.29-13.59-13.23-10.04-9.14-6.88-23.47-13.65-31.49-.75-1.39-.61-3.74-.84-4.99.29-2.83 1.84-5.44 3.01-7.48 1.09-1.4-.36-3.63-.68-4.94-1.08-4.94-1.08-12.17-.21-15.59.3-.95.72-1.72 1.64-2.78 2.77-.12.19-.34.35-.68.51-.92l.15-.12c-.66.12-16.5-9.22-8.77 7.81-.77.83-.07 1.66.12 2.48 0 .5.04 1.37.27 1.73 0 .64-.07 1.41-.17 2.22z"/></svg>
