<svg xmlns="http://www.w3.org/2000/svg" viewBox="0 0 128 128"><path d="M127.22 93.42c0 13.86-28.29 25.1-63.22 25.1-34.92 0-63.23-11.24-63.23-25.1C.77 79.55 2.24 9.48 64 9.48c61.77 0 63.22 70.06 63.22 83.94" fill="#0cc01c"/><path d="M63C9.59C64.77 9.27 9.18 4.14 9.94 3.66 62.14 0 93.63-9.76 13.87-22.34.01-7.32-1.21-13.37-11.24-25.13-3.85-13.33 3.28-18.64 15.87-38.49 19.07z"/><path fill="#2F2F2F" d="M91.89 47.7h-2.06c-2.82 0-5.82-3.42-5.72-7.36 0-3.32 2.33-7.26 3.8-7.88 2.07-3.55 4.35-7.06 5.03-9.07 1.63-1.36 4.29-2.43 6.75-4.04.22-.29.39-.65.4-.89 0-1.49-.21-3.47-.64-5.97-.47-.38-1.35-.59-2.09-.36-1.15.54-1.34 1.87.17 2.49 2.1 1.54 2.51 3.35 3.99 4.99.97.53 1.64 1.48 2.45 2.54.24.29.07.61.17.75.41.31.08.65.16 1.27.39.28.08.46.09.75.07 2.38-.18 4.7-.09 7.68-.28 7.06-2.17 7.45-6.93 1.27-1.48 5.03-.44 7.71 2.23.72.17 1.63 4.17 6.73 5.69 5.76.63 9.25-4.9 10.41-11.3zM54.22 56.69c0-2.68-1.36-4.28-3.95-4.49-2.9 0-4.84 2.49-6.68 6.37.09 3.77 2.67 5.07 5.03 7.06 2.74 0 5.04-2.8 6.3-3.93 2.09 3.08 3.04 5.98 5.26 9.93-.67 4.7-2.75 6.77-5.54 6.26l-8.71-1.47a2.668 2.668 0 0 1-3.77.62 3.845 2.845 0 0 1-3.47.92c-.98 0-1.75-.31-2.31-.83a3.013 3.013 0 0 1-2.94-2.46c-.12-.29-2.51-5.2-18.62-5.5-7.67-.15-13.42-2.3-18.67-4.04-6.68-4.66-9.2-9.21-11.52-16.25C88.58 23.89 79.74 38.42 30.8 93.6c-2.23-.01-4.75.37-7.98 2.02-1.3 2.76-4.37 3.99-6.53 2.17-4.36.06-8.35-.48-10.49-3.28-1.38-3.36.85-7.85 3.92-8.66 3.4-1.29 8.54.54 10.71 4.54 1.46 3.25-.61 8.28-4.7 9.78z" fill="#f89e26"/><path d="M105.25 80.24c-3.59 1.23-7.44-.52-8.73-4.41-1.28-3.44.54-7.26 4.03-8.72 3.98-1.25 7.34.52 8.72 3.72 1.26 3.41-.52 7.09-4.27 8.37z"/><path fill="#F89E26" d="M27.3 73.94c-1.52 1.31-6.27-.42-7.39-3.62-1.08-2.74.43-5.85 3.23-6.96 2.31-1.41 4.91-3.04 6.62-6.23.49-1.31 2.9-.31 4.51.38.25.32 3.55 3.92 8.45-2.4 2.48-2.23 7.03-2.97 10.32-.04.99-.21 1.79-.8 2.79-3.5.63-1.25.44-2.04.6-3.39z"/><g><Ler linpath="usl(##c)" d="M104.13 77.91c0 3.85-2.63 6.67-5.61 6.77z"/></g><path fill="#2F2F2F" d="M84.76 100.01 6.81 20.04c-.69-.09-1.33-.58-1.71-1.12-1.66-2.38-3.64-4.54-5.81-5.5-2.53-.65-4.68 3.09-5.64 4.14-3.83 3.89-7.96 8.12-7.54 11.47zM67.88 23.76c.13-.11.41-.23.6-.42 19.38-2.54 25.97-31.8 27.98z" fill="#fac02c"/><path d="M100.09 86.06c-6.11 1.82-10.8-.76-16.75-7.55-2.41-4.58.97-9.75 5.55-11.34 4.54-1.67 9.5.78 11.44 5.51 1.56 4.22-.67 9.47-5.11 11.54z"/><path fill="#FAAE21" d="M30.29 86.13c-4.83 1.73-9.08-.65-10.87-5.85-1.79-4.81.7-10.6 4.89-11.74 4.63-1.67 9.87.76 11.34 5.22 1.63 4.46-.77 9.42-5.21 11.07z"/><path fill="#F9A324" d="M97.52 64.81c-3.94 1.41-8.27-.58-9.7-6.44-1.43-3.58.59-7.19 4.3-9.6 3.09-1.44 6.23-3.09 8.67-3.93 1.39-3.98 2.89-7.5 4.33-1.11.4-.27.8-.64 1.34-.41 1.89.2 3.58.34 4.12 3.2.21.35.39.66.79 1.07l17.42 7.49 1.93-1.39c-2.16.38-3.31-.26-4.68-1.38-5.35-2.71-15.3-14.56-31.23-21.31-2.43-.69-4.53-.31-1.69.9-.51 2.88.21 4.86 2.15.71.63 1.62 1.95 1.64 2.45-1.46 1.74-2.89 3.74-3.46 5.11-.55 1.67 2.52 1.95 3.97 1.55 3.48-.75 7.02-4.07 9.24-2.3.08-.04.12-.16.26-.18.01-.25-.08-.26-.16-.42-.23-.69-.54-1.24-.78-1.71-.31-.46-.41-1.12-.71-1.4-.01-.67-.09-1.38-.14-1.45-.75-.55-1.34-1.11-2.37-1.84-1.69-1.72-2.87-4.3-3.25-5.8.01-.11-.01-.2-.01-.37.01-.37.03-.84.15-1.31.22-.34.07-.66.27-1.05.65-1.02 1.01-1.76 2.11-3.02 2.66-.63.31-1.25 1.11-1.77 2.01-.37.94-1.31 1.52-1.79 1.37-1.08-.06-2.25-.51-3.58-1.14-1.4-1.2-2.76-1.17-3.74-.41-1.11 1.71-.31 2.64 0 3.78s2.81 7.35 5.42 9.05c.22.08.44.1.66.16.89.3 1.81.63 3.04.98l4.47 10.04c.03.02.16.02.12.02.02.01.03.01.03.01.03.01.03.01.03.01.03.01.03.01.03.01.03.01.03.01.03.01.03.01.03.01.03.01.03.01.03.01.03.01.03.01.03.01.03.01.03.01.03.01.03.01.03.01.03.01.03.01.03.01.03.01.03.01.03.01.03.01.03.01.03.01.03.01.03.01.03.01.03.01.03.01.03.01.03.01.03.01.03.01.03.01.03.01.03.01.03.01.03.01.03.01.03.01.03.01.03.01.03.01.03.01.03.01.03.01.03.01.03.01.03.01.03.01.03.01.03.01.03.01.03.01.03.01.03.01.03.01.03.01.03.01.03.01.03.01.03.01.03.01.03.01.03.01.03.01.03.01.03.01.03.01.03.01.03.01.03.01.03.01.03.01.03.01.03.01.03.01.03.01.03.01.03.01.03.01.03.01.03.01.03.01.03.01.03.01.03.01.03.01.03.01.03.01.03.01.03.01.03.01.03.01.03.01.03.01.03.01.03.01.03.01.03.01.03.01.03.01.03.01.03.01.03.01.03.01.03.01.03.01.03.01.03.01.03.01.03.01.03.01.03.01.03.01.03.01.03.01.03.01.03.01.03.01.03.01.032.01.03.01.03.01.03.01.03.01.03.01.035.01.035.03.03.04.03.04.03.04.03.05.03.05.04.05-.04.06.03.06.03.06.03.05.05.06.05.1.07.15l2.34.31c.49.24 1.11.85-1.54.94L9.83 11.01c-.49 1.71-1.31 4.27-1.74 5.79-.47.68-1.07 1.59-1.07 2.01 5.05 1.58 10.44 7.89 16.08 7.44 5.04 10.03 10.73 16.02 14.86 6.95.09 15.96-15.35 15.27-14.34-.17-5.18-5.34-12.47-8.27-16.15-2.85-4.36-11.76-6.51-16.69-5.65-1.75 0-4.69 1.06-5.75 2.34-.7 1.4-.96 2.72-1.25 3.76-.51.72-1.22 1.28-.97 1.69-.57.93-1.2 1.37-1.97 2.16-.33.99-.73 2-.72.39-3.31.21-.4.22-.81.21-.91.51-.31.77-.5 1.45-.31 2.43-.2.77-.41 1.64-.76 2.78-.36.64.96.69 1.04.88 1.69.75 3.58.59 4.59-.1.76-.33 1.38-.24 1.93-.04.43-.18.71-.39.98-.32.99-.23 1.34-.4.94-.39.93-.33 1.41-.27.88-.15 1.38.41 1.68.75.95.52 1.53 1.04 1.94 1.88.38.25.83.45 1.37.69.26.09.38.15.52.42.49.7 1.09 1.41 1.27.42.34.88.68 1.24.88.67.27 1.4.38 2.57.29 1.87.34 3.77.53 6 .04 1.3.18.3 4.6.63 9.25.74 1.16.78 1.69 1.7 1.43 2.78-.42 4.49-2.69 10.74-6.44 13.27-.39.05-.46.09-.73.13-1.03.31-1.29.61-1.84.93-.87.87-1.63 2.09-1.87 3.11-.15.33-.4.39-.69.32-.97.3-1.66.05-2.43.58-.47.07-.95.09-1.43-.21h-.01c-.57.03-1.57.09-1.9.4 1.31-1.62 2.77-3.69 3.73-5.3.05-.1.13-.15.27-.17.34-.32.74-.41 1.17-.8.42-.65.42-1.2.63-1.95 1.14-.85.35-1.27.68-1.95.96-.91.54-1.72.62-2.66.68-.85.18-1.84-.06-2.91-.81-1.55-1.11-2.5-2.6-2.61C47.46 79.46 78.94 9.45 77.08-2.13c.78 0 1.44.1 2.35.15 6.33-2.15 14.68-2.97 18.4-3.03 8.27 1.95 18.61 8.29 23.52 11.15 4.73.44 12.04-1.27 18.4-3.67 6.3 2.9 9.69 11.79 6.94 17.48 5.48.89 10.74 6.58 18.68-5.63 5.14-2.76 18.5-1.77 18.79-2.67 2.33-.5 6.44-.98 8.85-.2 2.79-.85 4.74-1.41 6.12-3.21 1.09-.55 2.32-.78 2.76-.84 4.51-1.76 16.04-7.54 15.99-9.81 5.62-2.06 11.48-4.59 17.71-12.12 4.14-2.08 6.44-6.92 5.44-2.2.54-.72.57-1.42.63-2.2.16-5.12.06-10.5-.93-17.3-.55-3.75-2.13-7.28-6.09-12.69-1.01-1.4-.64-2.77-.66-4.57-.08-1.65.15-3.67.77-5.77 1.05-2.62.17-5.68-.14-8.97-.03-.65.34-1.31.83-1.77.52-.45 1.19-.74 1.9-.31.41.68 1.03 1.26 1.07.12.28.28.63.47 1.26.2 1.01 1.1 1.68 1.74 1.61 1.45 1.04 2.58 1.21 3.59 1.79 2.11 1.84 4.24 3.31 6.49 3.89 2.22.6 8.3 1.17 10.57.73 3.28 1.15 5.96 4.32 3.28 8.9zM78.88 111.3c-1.15 5.22-6.18 8.28-11.73 7.33-3.28.96-3.91 3.34-6.68 3.39-2.84 1.26-4.07 4.33-4.15 6.38 1.16 3.31 2.32 6.32 1.11 1.56-.51 2.92-1.35 3.16-.31.54-.72.73-1.38.63-.57.2-1.12.31-1.86.28-1.16 0-2.29-.63-3.28-1.67-.22-.28-.56-.68-.04-.98.12-.54.31-.94.68-1.36.87-.44.26-.91.37-1.39.37zM42.01 56.92c.18.27.47.52.55.11.09.02.17.05.25.09.05.03.05.03.05.03.05.03.05.03.05.03.05.03.05.03.059.031.06.03.06.03.06.03.069.03.068.033.069.031.069.031.069.032.069.031.088.03.08.038.08.04.08.041.081.04.091.038.092.08.091.079.096.087.097.085.097.074.097.075.097.074.087.072.087.079.086.08.074.08.074.079.084.078.084.077.087.076.087.074.088.074.089.082.091.082.092.081.092.081.096.084.097-.087.086-.089.088-.082.091-.083.093-.08.094-.089.096-.086.097-.085.093-.084.083-.081.081-.081.08-.076.089-.076.098-.077.098-.075.099-.074.09-.061.099-.08.101-.098.1-.096.117-.094.106-.061.106-.062.103-.064.103-.067.101-.07.013-.071.015-.07.015-.071.016-.071.018-.07.02-.07.021-.07.024-.069.024-.068.027-.068.029-.068.03-.067.031-.067.034-.066.035-.065.036-.063.038-.062.038-.062.039-.062.039-.062.041-.063.041-.062.04-.064.038-.066.038-.066.037-.067.038-.066.037-.066.037-.066.038-.066.039-.065.039-.065.04-.064.041-.062.042-.062.044-.06.046-.06.047-.057.049-.056.047-.056.048-.055.049-.054.049-.053.049-.053.049-.054.047-.054.047-.054.047-.054.049-.054.049-.053.049-.053.051-.053.05-.052.051-.052.049-.052.049-.053.048-.056.046-.057.046-.057.046-.057.047-.056.047-.055.047-.055.049-.054.049-.053.048-.053.047-.054.047-.055.047-.056.045-.057.047-.057.049-.056.049-.056.049-.055.049-.054.049-.053.051-.053.051-.052.052-.053.052-.051.05-.04.051-.034.051-.034.053-.031.054-.029.054-.029.054-.029.053-.03.052-.032.052-.032.051-.033.05-.034.05-.035.049-.036.048-.037.047-.038.046-.039.046-.039.047-.038.047-.037.049-.036.049-.035.051-.035.051-.034.052-.032.053-.031.053-.031.053-.029.054-.027 1.585-.026.041-.025.042-.023.041-.02.049-.01.04-.01.041-.017.04-.016.042-.015.042-.014.043-.013.043-.01.044-.008.044-.007.044-.005.044-.003.048-.001.048v.02l.001-.04.003-.039.004-.04.006-.039.008-.039.009-.039.01-.038.012-.038.014-.037.015-.036.016-.037.018-.035.02-.035.02-.034.022-.033.024-.032.024-.031.026-.031.027-.029.028-.028.029-.027.031-.026.031-.024.032-.024.033-.022.034-.02.035-.02.035-.018.037-.016.036-.015.038-.014.038-.012.038-.01.039-.009.039-.008.039-.006.04-.004.039-.003.04-.001h.04z"/></svg>
