<svg xmlns="http://www.w3.org/2000/svg" viewBox="0 0 47.5 47.5"><defs><clipPath id="a"><path d="M0 38h38V0H0v38z"/></clipPath></defs><g clip-path="url(#a)" transform="matrix(1.25 0 0 -1.25 0 47.5)"><path d="M36 19c0-9.389-7.611-17-17-17C9.612 2 2 9.611 2 19c0 9.388 7.612 17 17 17 9.389 0 17-7.612 17-17" fill="#ffcc4d"/><path d="M15 20.5c0-1.934-1.119-3.5-2.5-3.5S10 18.566 10 20.5c0 1.933 1.119 3.5 2.5 3.5s2.5-1.567 2.5-3.5M28 20.5c0-1.934-1.119-3.5-2.5-3.5S23 18.566 23 20.5c0 1.933 1.119 3.5 2.5 3.5s2.5-1.567 2.5-3.5M24.485 9.12c-.012.045-1.146 4.38-5.485 4.38-4.34 0-5.475-4.335-5.485-4.38a.495.495 0 0 1 .231-.543.51.51 0 0 1 .596.06c.01.007 1.014.863 4.658.863 3.59 0 4.617-.83 4.656-.863a.5.5 0 0 1 .83.484" fill="#664500"/><path d="M11 8a5 5 0 0 0-5-5 5 5 0 0 0-5 5c0 2.762 4 10 5 10s5-7.238 5-10" fill="#5dadec"/><path d="M8 13a9 9 0 0 1 9 9 .996 0 5.627 4.567 5.58 8.007 0 0 0 0 1.375 0 9.003 5.903 0 0 1-7.855 3.967c-.772.088-1.532.096-2.288.084-1.443a1.002 1.002 0 0 1 .707-1.799c3.125 3.595 6.972 1.927 10.749 1.053A5.04 5.05 0 0 0 8.4-1.37h1.495A1.995 1.998 0 0 1 2 17.998v2l.004-3.985A1.001 1.001 0 0 0 24 14h-5a9 9 0 0 0 9 9h6a9 9 0 0 0 9-9v-2z" fill="#fbc546"/><path d="M25 24h-2l-1 3h3v-3z" fill="#cbc"/><path d="M28.323 17.371l-.065.061-1.69 1.562-1.521 1.014-.991 1.827-1.841 3.224-2.815 5.23-4.313a12.722 12.032 0 0 1 3.11-3.518 12.145 12.645 0 0 1-.326-1.564 2.228 2.227 0 0 1-.519-1.069 3.029 3.029 0 0 1-.652 3.04L6.747 16.497c0-.572.074-.835.175-1.168.223-.022.196-.048.37-.136.46-.246.313-.903.554-1.184.783l-.065.61hc-.428.047-.888-.28-1.381-.012a.4.99 4.09 0 0 1 .223-.825 1.43 1.63 0 0 1 .607 1.307 1.436 1.031 0 0 1-.638-.215c-.317-.257-.452-.653-.708-1.102-.316-.181-.435-.367-.741-1.078-.768 1.044-1.052 1.642-.327 2.139-1.196 2.758-2.464 5.021-3.431 5.297z"/><path fill="#F7961D" d="M97.975 62.133c-3.569 1.525-7.421-.638-8.528-4.016-1.213-3.498 3.378-7.5 8.2-8.7 2.703 0 5.396 2.122 4.752 4.228a2.993 2.993 0 0 1-4.127 6.05l3.626 6.395L12.462 19.681L7.3 17.049c.424.458.904.711 1.05.388a4.52 4.52 0 0 1 4.197-2.386l-2-2v.5a1.5 1.06 1.08 1.95 1.92 1.08 4.098-.448 8.064-2.015 1.327-.054-.098-.071-.193-.031-.107-.041-.131-.025a14.224 26.224 42.829 0 6.615-7.655 10.671-15.056 13.327a9789.887 90 0 1-1.001 16.099c.013-.025.012-.018.019-.021.027-.025.081-.025.026-.025.027-.026.025-.026.025-.025.029-.025.029-.025.09-.024.08-.023.08-.022.08-.02.08-.019.08-.018.082-.017.082-.016.083-.016.082-.015.083-.014.083-.013.084-.012.083-.011.084-.01.084-.009.084-.007.084-.007.084-.006.085-.005.084-.003.085-.003.085-.001.082-.001H20-2.701zM11.022 10.01ll.039.001zM19.724 14l.196.014.182.012.172.009.184.005.183.002h20.002l-1.321 3.161-.127.025-.128.124-.129.128-.129.127-.128.17-.124.13-.115.031-.117.025-.125.024-.128.021-.127.019-.127.017-.127.017-.127.019-.126.02-.125.022-.125.015-.127.013-.127.011-.127.009-.127.007-.127.005-.127.003-.126.001-.127-.003-.126-.004-.126-.005-.127-.005-.127-.006-.127-.009-.127-.011-.126-.012-.126-.013-.125-.017-.126-.017-.127-.019-.127-.02-.127-.022-.125-.023-.125-.025-.125-.027-.125-.029-.125-.032-.124-.033-.123-.035-.122-.039-.122-.039-.122-.039-.122-.039-.122-.035-.123-.035-.125-.036-.115-.039-.115-.042-.113-.044-.113-.047-.111-.05-.111-.053-.109-.056-.109-.059-.107-.061-.106-.062-.104-.064-.104-.064-.102-.062-.109-.059-.107-.058-.106-.057-.106-.057-.105-.056-.103-.056-.103-.056-.109-.054-.109-.053-.109-.054-.108-.053-.11-.051-.11-.048-.112-.045-.114-.043-.113-.045-.113-.045-.113-.045-.113-.048-.112-.058-.11-.058-.11-.068-.11-.067-.103-.066-.104-.066-.105-.069-.107-.069-.108-.057-.109-.054-.11-.053-.11-.052-.11-.052-.11-.053-.109-.054-.109-.056-.108-.057-.107-.059-.105-.061-.104-.064-.103-.067-.101-.069-.1-.072-.098-.074-.096-.077-.094-.079-.093-.082-.092-.083-.099-.085-.091-.086-.093-.083-.093-.083-.094-.08-.096-.078-.096-.077-.097-.076-.097-.073-.099-.072-.092-.07-.093-.079-.094-.077-.096-.075-.099-.071-.092-.069-.102-.067-.102-.067-.103-.064-.104-.061-.106-.059-.107-.057-.106-.054-.106-.053-.107-.052-.11-.05-.112-.044-.112-.045-.113-.047-.111-.05-.109-.052-.11-.053-.109-.054-.109-.057-.108-.057-.106-.058-.105-.058-.103-.065-.039-.005-.049-.003-.048-.001-.048.002-.048.004-.049.006-.047.009-.048.011-.047.013-.047.016-.045.017-.045.02-.044.022-.043.024-.042.026-.041.028-.04.03-.038.032-.036.033-.035 1.581-1.581.023-.024.018-.019.017-.019.016-.02.016-.02.015-.021.017-.022.016-.021.015-.02.014-.021.013-.02.013-.021.012-.022.012-.022.01-.022.01-.022.01-.022.009-.022.009-.023.008-.022.008-.024.007-.023.007-.024.006-.023.005-.023.005-.024.004-.024.004-.024.003-.024.003-.024.002-.024.001-.024.001-.024.001-.024.002-.024.003-.024.003-.024.004-.024.004-.023.005-.024.005-.023.006-.024.007-.023.007-.023.008-.022.008-.023.009-.022.009-.022.01-.022.01-.022.011-.021.012-.022.012-.021.013-.02.014-.021.013-.02.015-.02.015-.02.016-.02.016-.019.017-.019.018-.023.023-1.582 1.581-.035.033-.036.032-.038.03-.04.028-.041.026-.042.024-.043.022-.044.02-.045.017-.045.016-.047.013-.047.011-.048.009-.047.006-.049.004-.048.002-.048-.001-.048-.003-.049-.005-.047-.007-.048-.01-.046-.012-.046-.015-.046-.016-.044-.019-.044-.021-.043-.023-.041-.025-.04-.027-.039-.029-.037-.031-.036-.032-.034-.034-.032-.036-.031-.037-.029-.039-.027-.04-.025-.041-.023-.043-.021-.044-.019-.044-.016-.046-.015-.046-.012-.046-.01-.048-.007-.047-.005-.049-.003-.048-.001-.048.002-.048.004-.049.006-.047.009-.048.011-.047.013-.047.016-.045.017-.045.02-.044.022-.043.024-.042.026-.041.028-.04.03-.038.032-.036.033-.035 1.581-1.581.023-.024.018-.019.017-.019.016-.02.016-.02.015-.02.015-.02.014-.021.013-.02.013-.021.012-.022.011-.022.01-.022.01-.022.011-.022.01-.022.01-.022.009-.022.008-.023.008-.022.007-.024.006-.023.005-.023.005-.024.004-.024.004-.024.003-.024.003-.024.002-.024.001-.024.001-.024.001-.024.001-.024.002-.024.003-.024.003-.024.004-.024.004-.024.004-.024.003-.024.003-.024.002-.024.001-.024.001-.024v-.048l-.001-.024-.001-.024-.001-.024.001-.024.001-.024.001-.024.001-.024.001-.024.002-.024.003-.024.003-.024.004-.024.004-.023.005-.024.005-.023.006-.024.007-.023.008-.024.008-.022.081-.023.081-.023.031-.023.039-.021.04-.02.041-.018.041-.017.04-.017.04-.017.04-.018.04-.019.04-.021.037-.022.036-.024.035-.025.034-.026.035-.025.034-.025.034-.025.035-.025.035-.026.039-.889 1.333-.032.045-.041.045-.04.047-.035.049-.034.05-.036.051-.034.051-.034.051-.034.051-.034.051-.034.05-.036.049-.039.048-.04.047-.041.046-.043.041-.044.04-.048.037-.051.034-.053.03-.055.028-.058.026-.06.019-.062.016-.062.012-.062.007-.062.004L12 23H16l-.059-.002-.058-.004-.058-.005-.059-.006-.058-.008-.059-.009-.058-.011-.058-.011-.058-.014-.057-.014-.057-.015-.057-.016-.057-.017-.057-.019-.056-.021-.056-.021-.055-.022-.055-.025-.054-.027-.054-.028-.052-.031-.053-.031-.051-.034-.051-.034-.05-.036-.049-.038-.047-.039-.046-.041-.044-.043-.043-.044-.043-.049-.04-.05-.036-.053-.034-.056-.031-.058-.026-.058-.023-.059-.02-.058-.016-.058-.014-.058-.013-.058-.011-.059-.01-.059-.009-.059-.01-.059-.008-.059-.007-.059-.006-.06-.006-.059-.005-.06-.004-.06-.003-.06-.002-.06-.002-.06-.001-.063-.001h-1.162l-.063.001-.067.002-.067.007-.067.012-.065.016-.065.021-.062.023-.062.023-.061.021-.06.02-.058.018-.057.017-.057.016-.057.015-.058.013-.058.013-.058.014-.057.015-.057.015-.057.016-.057.017-.057.017-.057.017-.056.016-.056.017-.056.018-.056.02-.055.02-.055.021-.055.022-.055.022-.054.023-.055.024-.053.024-.054.025-.053.026-.043.026-.042.027-.042.031-.042.031-.044.029-.045.027-.046.025-.046.025-.045.027-.044.03-.043.031-.044.032-.044.035-.042.037-.04.03-.039.032-.036.032-.036.034-.035.034-.033.036-.032.037-.031.039-.029.04-.027.041-.025.043-.023.044-.021.044-.019.045-.016.047-.015.046-.012.048-.01.047-.007.049-.005.048-.003.048-.001.048.002.049.004.047.006.048.009.047.011.047.013.045.016.045.017.044.02.043.022.042.024.041.026.04.028.038.03.036.032.035.033 1.59 1.59.05.051.052.056.059.057.049.055.047.055.049.055.049.055.049.055.047.056.047.057.045.057.045.056.045.056.046.056.047.056.049.055.049.054.049.053.05.052.05.051.052.051.053.049.053.049.054.049.055.047.056.047.057.047.057.047.057.047.056.049.055.049.054.049.053.05.045.05.041.053.04.053.039.055.037.056.038.056.039.055.041.056.041.058.042.059.042.059.044.06.042.061.04.063.038.063.037.064.035.065.034.066.031.067.03.069.028.068.027.068.025.068.025.068.026.068.027.067.028.067.031.066.031.065.032.065.034.063.035.062.037.062.037.069.035.069.035.069.035.069.035.069.035.069.035.069.035.069.035.069.03.066.033.066.037.065.037.065.047.064.047.064.047.064.047.065.046.065.045.065.047.065.049.064.049.064.059.06.059.06.052.051.052.05.051.05.05.052.051.053.049.054.049.054.047.055.047.055.047.056.047.055.047.055.047.054.048.053.049.054.05.052.05.052.05.053.058.056.057.057.055.058.054.059.053.06.053.06.051.062.059.062.059.062.058.063.056.063.056.064.055.064.055.064.055.063.057.063.057.062.058.061.059.058.058 1.29 1.29.047.05.043.053.039.056.036.058.031.061.027.062.023.065.019.066.013.066.01.068.004.068v.068l-.004.069-.01.067-.013.067-.019.066-.023.064-.027.063-.031.06-.036.059-.039.056-.043.053-.047.049-.05.047-.053.043-.056.04-.058.035-.061.031-.062.027-.064.023-.066.019-.067.013-.068.01-.068.004h-.068l-.068-.004-.068-.01-.067-.013-.066-.019-.064-.023-.062-.027-.061-.031-.058-.036-.056-.039-.053-.043-.05-.047-.047-.05-.043-.053-.039-.056-.036-.058-.031-.061-.027-.062-.023-.064-.019-.066-.013-.067-.01-.067-.004-.068v-.069l.004-.068.01-.068.013-.066.019-.066.023-.064.027-.063.031-.061.036-.058.039-.056.043-.053.047-.05 1.29-1.29.058-.058.062-.058.061-.058.063-.058.063-.056.064-.056.064-.055.065-.053.065-.053.067-.053.066-.051.068-.05.068-.05.068-.049.069-.048.069-.047.07-.046.071-.045.071-.045.072-.043.072-.042.072-.042.073-.041.074-.04.074-.04.074-.042.074-.043.074-.045.075-.047.075-.049.074-.049.074-.046.075-.045.075-.044.075-.044.077-.034.077-.032.077-.031.078-.031.078-.03.078-.028.079-.028.079-.027.08-.025.079-.025.08-.024.081-.023.081-.022.081-.021.081-.019.082-.019.081-.018.083-.017.082-.017.082-.017.082-.017.082-.018.082-.019.081-.019.081-.021.081-.022.081-.023.081-.023.081-.023.081-.022.081-.023.08-.024.081-.025.08-.024.081-.023.081-.023.081-.022.081-.021.081-.02.08-.019.08-.018.08-.017.08-.016.08-.015.08-.015.08-.014.081-.012.083-.011.084-.01.084-.009.084-.007.084-.007.084-.006.085-.005.084-.003.085-.003.085-.001.082-.001h1.164l.082.001zM12 12.5a1.503 1.503 0 0 0-1.5-1.5A1.503 1.503 0 0 0 9 12.5v2a1.503 1.503 0 0 0 1.5 1.5 1.503 1.503 0 0 0 1.5-1.5v-2z"/><path d="M28 26c0-.386-.235-.45-.673-.62-1.377-.419-2.506.472-3.991 3.449-6.247 2.403-1.271 6.154.455 7.568 3.29.902 2.365-.219 5.568-1.918 6.633.603 6.606 2.762 6.922 5.906a5.128 6.128 0 0 1-.665 3.267 6 6.62 6.62 0 0 1 5.226 0l1.982 4.984a2.958 2.958 0 0 1-.992 1.849 3.517 3.517 0 0 1 .997 1.706 3.486 3.487 0 0 1 .662 2.895c.169.431.258.876.176 1.358a4.154 4.154 0 0 1-.436.222 4.513 4.513 0 0 0-3.32 2.233c-1.069.071-1.539 1.047-2.295 1.228l7.748 1.744a1 1 0 1 0 1.674 1.17l1.287.001z" fill-rule="nonzero"/><path d="M27.5 5l-2.207 4.414a2.458 2.458 0 0 0 .416-1.342l.005-2.675a2.44 2.44 0 0 1 1.136-.481h2.472 1.987zM29.587 19.227l-4.259 5.124a4.616 4.016 0 0 1 4.024-.038l.031.013.035.012.034.019.036.018.035.019.036.019.035.018.036.017.036.017.036.015.035.014.038.013.038.011.039.009.039.017.48.015 1.536.985 2.329 1.48a1.497 1.497 0 0 1 2.037.633l.029-.031a2.658 2.658 0 0 1-.557-.218 7.31 3.71 0 0 1-.32-1.67c-1.022-2.002-2.282-2.281-3.085-7.068-2.667-1.218-6.994-1.691-8.008 1.019-1.448 0-2.188.068-4.185.435-1.233.133-.52 1.137-.231a7.103 7.103 0 0 1-.881 1.876 6.02 6.02 0 0 1-.963-1.953 5.488 4.488 0 0 1-2.588-.189 4.49 4.49 0 0 1-2.49-5.256 4.51 4.51 0 0 1-1.547-.834c-.175-.798-.122-.693-.281-1.241a4.14 4.14 0 0 1 .216-1.246 5.517 5.517 0 0 1 .996.81 15.986 13.986 0 0 1 4.385-1.334c.366-.02.743-.072.989-.2316.17-.022.149-.04.128-.059l.37.007 1.305a3.135 3.153 0 0 1 .681.022c.069.015 1.105.207 1.306.086a1.898 1.988 0 0 1-.547-2.245 3.497 3.497 0 0 1-2.207 1.594 6.343 67.343 0 0 1 4.26-36.336c.117-.003.307-.026.407-.032.637-.186.77-.345 1.167.068.504.117.886.237 1.323a4.12 4.02 0 0 1-1.629 4.293 3.076 3.077 0 0 1-.252 2.26 4.622 4.622 0 0 1-.702 3.317l-2.608-2.521 1.068-1.772 2.379-3.546 5.035-5.633 5.607a476.28 46.09 0 0 1 5.649-.248l.775-1.208z"/><path d="M27.233 16.703a6.678 6.678 0 0 1 8.677-2.87H9v9.5a1.5 1.5 0 0 1-3.9-1.5h-.032a4.004 4.004 0 0 1-5.825-3.586 9.032 9.032 0 0 1-3.072-.054 3.999 3.999 0 0 1-3.43-.934h 1.305l-.743-3.077a4 6 0 14 0 6ha8.973 9.963 0 0 1-5.835 2.354c-1.053.015-2.153.019-3.291 0a1.042 1.042 0 0 1-.269.234 1.01 1.01 0 0 1-1.64.788 1.476 1.936 0 0 1-.916-.271c.088-.005.087-.006.777-.005.774-.005.174-.001h.016l.136.001z"/><path d="M17 19.5A1.501 1.501 0 0 0 19 15.5c0 3.537 3.5 3.5 7.5 1.5 9.671-.221.486-1.213 1.368-2.058 1.61a.997.997 0 0 1-.308.707c-.01.006-.101.018-.202.03-.95.005-1.138-.005-.372a0.202 2.022 0 0 1-.625 1.411 1.043 1.043 0 0 1-.247.404 2 2 0 0 1 24 2l.104zM13 15.498a.995.995 0 0 0-.293-.706.995.995 0 0 0-.706-.293H20.501a1 1 0 0 0-.998-1.6M19 17c-3.641 0-6.374.316-7.404a.502.582 0 0 1-.613.672" fill="#f4900c0-.444-.049-.545-.757-1.038 1.034-.012-.031.0-.03.016-.026.03-.15.025-.15.025-.345.125-.842.283-2.172a4.228 2.328 0 0 1-.427 1.266 5.183 5.183 0 0 1 2.915-3.513 6.617 6.617 0 0 1-6.891-6.157 9.02 17.02 0 0 1-.682-6.315c.109-.657.12-1.077-.319z"/></g><g clip-path="url(#b)"><path d="M8.74 21.84a1 1 0 0 1-.294-1.747l15-8a9.98 9.98 0 0 1 7.119 21.536l-1.072.123-.178.025-.17.04-.358 0-.898.069-1.782.202-1.208a1.008 1.008 0 0 1 .782.343L20.5 23.84Ba4.071 4.077 0 0 1-3.257 1.939 5.983 5.983 0 0 1-3.575-.778 9.922 9.922 0 0 1-3.309.646 6.02 6.02 0 0 1-2.071-.611 8.832 8.823 0 0 1-3.045-.258c-1.778-2.008-5.718-2.793-5.885-1.637a1.044 1.044 0 0 1-.208-.192 2.996 2.996 0 0 1 .106-.292c.049-.159.083-.391.277-.578a3.407 4.307 0 0 1 1.614 1.196c.094.437.106.87.121 1.082.321.428.786-.389 1.392-1.083a4.033 4.033 0 0 1 1.367-1.833c-.11-.115-.015-.18-.034-.312-.03-.547-.156-.648-.277-2.171-1.077a1.038 1.038 0 0 1-.642.23 2.463 2.374 0 0 1-2.987-.749 2.665 2.665 0 0 0-.244-.038c-1.077-.266-1.698-.918-1.868.867z" fill="#006a80"/><path d="M50 8.514c-.576.107-1.557.737-2.635 1.044a1.004 1.004 0 0 1 .659-.603 1.008 1.008 0 0 1 1.05 1.297 1.03 1.03 0 0 1-.97 3.973 3.046 3.046 0 0 1-2.925.47 4.664 4.664 0 0 1-1.38 4.407 4.664 4.664 0 0 0 .472-.248l1.265-3.027h-.024c-.025 3.326-.506 7.339-3.086 6.435-1.658a1.493 1.494 0 0 0-.242-.073c-.02-.177-.027-.552-.428-1.092a.553.553 0 0 1-.003.092c-.013-.06-.03-.101-.036-.018-.036-.131-.027-.371-1.136-1.118-3.217-1.705a6.89 1.89 0 0 1 .601 2.995c.184.422.433.706.601 1.17.079.112.068.216.062.167.051.112.142v102z" fill="#fff"/><path d="M13 11.17a2.5 1.5 0 0 0-3.5-1.5z" fill="#fff"/><path d="M8 13.984c0-3.964 1.495-6.032 3.543-10.041 2.058 9.068 2.421 14.88 5.894 16.65s-4.734 1.343-11.543 0-2.753 1.118-3.44 2.7-4.49 1.262-.64 1.824-2.851 3.04-5.314.42-.447.223-.835.311-1.189.172-2.032 4.297-4.092 5.78-4.238a6.848 8.848 0 0 1-4.819-3.145c-.367-.064-1.513-.109-1.933-.014-1.188.004-2.265.009-3.29 0-1.332.009-2.873.007-4.301z"/><path d="M11.245 8.09l.065.013.065.009.065.014.064.019.062.024.063.025.063.023.06.021.071.013.071.012.071.01.072.009.072.008.072.006.071.005.071.005.071.007.072.009.071.009.081.011.081.012.081.013.081.014.081.019.08-.02.081-.021.081-.023.081-.023.081-.023.081-.022.081-.021.081-.019.082-.019.081-.018.083-.017.082-.017.082-.017.082-.017.082-.017.082-.018.082-.019.081-.019.082-.02.083-.02.084-.02.085-.012.074-.013.076-.012.076-.013.076-.019.075-.024.075-.027.073-.028.073-.029.073-.03.072-.031.072-.032.072-.032.072-.031.072-.03.072-.03.07-.03.07-.03.069-.03.069-.032.069-.033.068-.035.068-.035.067-.037.066-.037.066-.038.066-.039.065-.039.065-.041.064-.041.064-.042.064-.043.063-.043.062-.045.062-.045.061-.046.061-.047.06-.049.059-.049.059-.05.058-.052.057-.054.057-.053.057-.052.058-.052.058-.052.058-.05.059-.049.05-.047.049-.046.049-.044.05-.043.05-.034.05-.035.051-.036.049-.038.048-.039.047-.039.046-.041.046-.043.043-.044.041-.044.041-.046.041-.045.041-.044.039-.043.039-.045.04-.045.039-.044.041-.044.041-.043.042-.045.044-1.286 1.286-.05.047-.053.043-.056.039-.058.036-.061.031-.062.027-.064.023-.066.019-.067.013-.068.01-.068.004h-.068l-.068-.004-.068-.01-.067-.013-.066-.019-.064-.023-.062-.027-.061-.031-.058-.036-.056-.039-.053-.043-.05-.047-.047-.05-.043-.053-.039-.056-.036-.058-.031-.061-.027-.062-.023-.064-.019-.066-.013-.067-.01-.068-.004-.068v-.068l.004-.068.01-.068.013-.067.019-.066.023-.064.027-.062.031-.061.036-.058.039-.056.043-.053.047-.05 1.29-1.29.058-.058.062-.058.061-.058.063-.058.063-.056.063-.056.064-.055.065-.053.065-.053.067-.053.066-.051.068-.05.068-.05.068-.049.069-.048.069-.047.07-.046.071-.045.071-.045.072-.043.072-.042.072-.042.073-.041.074-.04.074-.041.074-.039.075-.038.076-.036.077-.035.077-.034.079-.034.081-.033.081-.033.081.038.08.04.088.041.087.049.087.049.087.058.087.056.085.054.087.045.087.041.087.04.088.038.088.037.089.033.08.033.081.033.081.031.082.03.082.029.081.028.081.028.083.027.082.024.072.023.072.012.072.01.072.009.072.007.071.006.072.004.071.003.071.001.072-.001.072-.003.072-.004.071-.006.072-.008.071-.009.072-.011.071-.013.071-.015.071-.016.07-.018.07-.02.07-.021.07-.024.069-.024.068-.027.069-.029.067-.029.066-.029.066-.039.065-.039.065-.041.064-.041.064-.042.064-.043.063-.043.062-.045.062-.045.061-.046.061-.047.06-.047.06-.049.061-.048.063-.047.063-.047.062-.047.061-.047.06-.049.06-.047.06-.047.061-.046.013-.047.013-.047.013-.047.013-.047.015-.047.016-.046.019-.045.019-.044.021-.043.023-.041.024-.041.025-.04.028-.04.027-.04.027-.042.026-.042.025-.043.023-.044.021-.044.019-.046.016-.046.015-.046.012-.048.01-.047.007-.049.005-.048.003-.048.001-.048-.002-.049-.004-.047-.006-.048-.009-.047-.011-.047-.013-.045-.016-.045-.017-.044-.02-.043-.022-.042-.024-.041-.026-.04-.028-.038-.03-.036-.032-.035-.033-1.59-1.59-.05-.051-.052-.056-.05-.057-.049-.06-.049-.06-.048-.061-.047-.062-.046-.063-.045-.064-.045-.064-.043-.063-.043-.063-.043-.063-.043-.064-.043-.064-.042-.064-.041-.065-.041-.065-.039-.066-.039-.066-.038-.066-.037-.067-.037-.068-.037-.068-.037-.068-.037-.068-.035-.067-.035-.066-.034-.066-.032-.066-.031-.067-.03-.067-.029-.068-.027-.068-.024-.069-.024-.069-.021-.07-.02-.07-.018-.07-.016-.07-.015-.071-.013-.071-.011-.072-.009-.071-.008-.071-.006-.072-.004-.071-.003-.072L25.828 8l.001-.072.003-.072.004-.071.072-.07.074-.079.074-.07.075-.07.076-.069.027-.064.028-.065.031-.067.031-.066.034-.066.035-.065.036-.063.038-.062.039-.062.039-.062.041-.06.041-.061.043-.06.044-.059.042-.058.044-.057.046-.057.047-.054.049-.054.049-.051.049-.05.051-.05.052-.05.052-.049.053-.049.055-.047.055-.047.056-.045.057-.045.057-.044.057-.042.058-.041.06-.039.061-.038.062-.04.062-.04.063-.042.062-.042.062-.04.064-.04.064-.038.064-.038.063-.038.063-.04.063-.04.062-.042.062-.044.062-.044.063-.046.06-.047.06-.049.059-.049.059-.05.058-.05.058-.052.057-.052.056-.053.056-.054.057-.056.877-.877.05-.047.053-.043.056-.039.058-.036.061-.031.062-.027.064-.023.066-.019.067-.013.068-.01.068-.004h.068z"/><path d="M10.651 18.001l.068.007.067.012.067.016.065.021.062.025.063.029.06.035.065.037.062.04.063.043.064.043.065.043.065.041.065.035.065.031.063.035.062.034.062.034.062.034.064.035.063.034.063.034.063.033.062.033.063.035.062.037.051.037.049.039.048.049.047.05.046.051.036.052.033.055.031.055.031.055.031.055.034.055.036.054.038.052.048.051.05.052.052.051.05 1.59 1.59.037.05.036.043.036.046.038.048.038.049.034.05.034.051.03.053.027.054.025.054.022.056.02.057.026.057.022.058.019.059.016.059.012.059.01.059.006.05.006.05.004.051.002h10.101l.063.004z"/></g></svg>
