<svg viewBox="0 0 32 32" xmlns="http://www.w3.org/2000/svg" fill-rule="evenodd" clip-rule="evenodd" fill="#2f2f2f"/><path d="M117.614 7.001a3.825 3.825 0 0 1 1.851 3.112c.148.256.204.752.211 1.223l.004-.125 2.323 4.328 2.329z" fill-rule="nonzero"/></svg><path d="M23.17 21.016l.068.018.069.016.067.018.067.022.065.026.063.03.062.035.061.035.06.036.061.033.062.03.064.03.063.029.065.029.065.031.066.031.066.034.065.037.065.037.064.037.063.038.062.039.061.041.062.04.064.038.063.037.065.037.067.037.068.035.068.035.068.035.068.035.068.035.068.035.069.035.069.035.069.035.069.034.069.033.069.032.069.031.07.03.07.028.072.027.072.027.072.027.072.026.072.026.072.026.071.027.071.027.07.027.069.027.069.029.069.031.066.031.065.034.065.035.065.037.063.039.062.04.063.042.062.044.062.046.062.047.06.049.058.05.058.052 1.562 1.561.056.05.058.036.059.032.06.031.062.03.063.029.064.029.064.029.065.031.063.031.062.03.063.03.063.027.065.025.065.018.067.012.067.009.068.01.068.01.067.012.066.019.064.022.062.028.062.031.058.035.056.039.053.048.053.049.054.049.054.047.054.048.055.045.056.046.057.046.057.045.057.044.058.043.059.042.059.042.058.041.059.04.061.038.061.037.062.035.064.034.064.033.066.031.066.03.067.029.067.027.067.026.067.026.068.028.068.027.068.027.069.027.068.025.068.024.069.023.06.021.061.023.06.024.061.024.061.021.061.023.062.021.062.019.062.019.062.019.062.018.062.017.065.016.062.012.062.016.06.01.06.024.059.025.069.027.068.027.067.028.067.031.066.032.065.034.064.035.063.037.062.038.062.037.061.035.062.035.064.035.064.031.063.034.062.033.062.035.062.035.063.035.064.033.065.031.065.03.065.029.067.028.068.028.068.026.069.024.069.023.07.021.072.02.071.017.073.016.073.014.073.013.075.011.074.011.075.01.076.009.075.009.076.008.075.007.076.006.076.005.077.005.077.003.077.003.078.001.084.001h7.988l.05.001zM19.036 10h.001l.082.002.082.003.082.005.081.007.08.008.08.009.08.01.08.012.079.014.079.014.079.017.078.017.077.019.077.02.077.021.077.022.076.024.075.026.075.026.074.028.074.029.073.03.072.031.072.033.072.034.071.035.07.036.069.037.069.039.068.04.068.041.067.032.068.033.067.034.065.035.065.037.063.039.062.04.063.042.062.044.062.046.061.047.06.049.06.049.06.047.061.047.061.046.062.045.063.045.062.043.063.041.065.039.065.039.064.04.063.041.062.04.063.038.063.04.064.044.064.042.063.041.063.045.062.047.061.047.061.048.062.049.062.049.064.049.064.051.062.052.061.051.061.04.063.038.064.047.064.046.064.046.063.049.062.049.06.051.06.052.059.053.058.053.057.053.056.054.057.054.058.053.059.053.06.051.061.051.062.049.063.049.064.047.065.046.066.045.067.045.067.043.069.041.069.041.071.04.071.038.072.035.072.036.072.036.072.036.072.036.071.037.07.038.07.037.069.037.069.035.068.043.068.043.066.043.065.043.065.044.064.045.064.046.064.046.063.049.062.049.062.049.061.047.061.046.061.044.062.042.063.04.063.039.064.037.065.035.065.034.065.031.067.03.067.029.068.027.068.024.068.024.069.021.07.02.07.018.07.016.07.015.071.013.071.011.071.009.072.008.071.006.072.004.071.003.072.001.072-.001.072-.003.072-.004.071-.006.072-.008.071-.009.072-.011.071-.013.071-.015.071-.016.07-.018.07-.02.07-.021.07-.024.069-.024.068-.027.069-.029.067-.03.067-.031.067-.034.065-.035.065-.037.065-.039.064-.04.063-.043.062-.043.061-.046.06-.047.06-.049.058-.049.057-.051.058-.052.058-.053.057-.054.056-.053.057-.052.058-.052.059-.05.059-.048.059-.049.06-.05.06-.051.06-.051.061-.05.062-.042.062-.04.063-.038.063-.04.064-.043.064-.043.062-.043.061-.044.06-.044.06-.044.06-.043.062-.04.063-.038.062-.038.063-.038.063-.038.063-.04.063-.04.062-.042.063-.044.064-.043.065-.043.067-.042.068-.041.068-.039.069-.037.08-.036.082-.03.083-.03.085-.027.085-.024.086-.019.087-.012.086-.009.086-.004.084-.008.083-.009.084-.01.083-.01.084-.01.085-.009.085-.01.085-.01.095-.01.095-.01.095-.012.095-.013.093-.014.093-.017.092-.019.092-.022.091-.024.091-.026.089-.028.089-.03.08-.031.081-.033.081-.033.081-.035.08-.035.088-.038.086-.039.084-.041.093-.043.091-.044.091.045.019.045.018.045.017.045.017.045.017.045.017.045.017.045.017.045.017.045.017.045.017.045.017.045.016.045.016.046.014.046.012.046.01.048.007.047.005.049.003.048.001.048-.002.048-.004.049-.006.047-.008.048-.011.047-.013.047-.016.046-.017.045-.02.044-.022.043-.024.042-.026.041-.028.04-.03.038-.032.036-.033.035-1.581 1.581-.023.024-.018.019-.019.019-.017.022-.016.02-.016.022-.015.02-.014.02-.013.02-.014.02-.013.021-.012.021-.012.021-.012.022-.011.022-.01.022-.009.022-.009.023-.008.022-.008.023-.007.023-.007.024-.006.023-.005.024-.005.023-.004.024-.004.024-.003.024-.003.024-.002.024-.001.024-.001.024-.001.024.001.024.001.024.001.024.002.024.003.024.003.024.004.024.004.024.005.024.005.023.006.023.007.023.007.024.007.022.009.023.009.022.01.022.01.022.012.022.011.021.012.022.013.021.013.02.014.021.015.02.015.021.017.019.017.019.018.02.027.021.027.022.026.022.025.024.024.024.024.025.022.026.022.027.021.028.02.028.019.029.018.03.016.03.016.03.015.032.014.031.012.032.011.033.011.033.009.033.008.034.007.034.005.034.005.034.003.034.002.035.001.034v.035l-.002.034-.003.035-.003.034-.005.034-.007.034-.007.034-.009.033-.009.033-.011.033-.012.033-.013.032-.014.031-.016.031-.016.03-.018.03-.019.029-.02.028-.021.028-.022.027-.022.026-.024.025-.024.024-.025.024-.026.022-.027.022-.028.021-.028.02-.029.019-.03.018-.03.016-.03.016-.032.015-.031.014-.032.012-.033.011-.033.011-.033.009-.033.008-.034.007-.034.005-.034.005-.034.003-.035.002-.034.001h-.035l-.034-.001-.035-.002-.034-.003-.034-.005-.034-.005-.034-.007-.034-.008-.033-.009-.033-.011-.033-.011-.032-.012-.031-.014-.032-.015-.03-.016-.03-.016-.03-.018-.029-.018-.028-.02-.028-.021-.027-.022-.026-.022-.025-.024-.024-.024-.024-.025-.022-.026-.022-.027-.021-.028-.02-.028-.019-.029-.018-.03-.016-.03-.016-.03-.015-.031-.014-.031-.012-.032-.011-.033-.011-.033-.009-.033-.008-.034-.007-.034-.005-.034-.005-.034-.003-.034-.002-.035L8 12.009v-.235l.003-.034.002-.035.003-.034.005-.034.055-.035.054-.037.043-.039.041-2.486 1.261-.04.026-.038.024-.038.023-.038.023-.038.023-.038.023-.038.024-.038.024-.037.026-.036.025-.036.027-.036.027-.036.027-.034.027-.033.029-.034.029-.034.031-.034.032-.033.034-.032.035-.031.036-.03.038-.029.039-.027.04-.025.041-.025.043-.023.043-.021.044-.019.045-.016.047-.015.046-.012.048-.01.047-.007.049-.005.048-.003.048-.001.048.002zM29.036 4.001l.048.003.049.005.047.007.048.01.046.012.046.015.046.016.044.019.044.021.043.023.041.025.04.027.039.029.037.031.036.032.034.034.032.036.031.037.029.039.027.04.025.041.023.043.021.044.019.044.016.046.015.046.012.046.01.048.007.047.005.049.003.048.001.048-.002.048-.004.049-.006.047-.009.048-.011.047-.013.047-.016.045-.017.045-.02.044-.022.043-.024.042-.026.041-.028.04-.03.038-.032.036-.033.035-1.581 1.581-.023.024-.018.019-.017.019-.016.02-.016.02-.015.02-.015.02-.013.021-.014.02-.013.021-.012.022-.011.021-.012.022-.01.022-.01.022-.009.022-.009.023-.008.022-.008.023-.007.024-.007.023-.006.023-.005.024-.005.023-.004.024-.004.024-.003.024-.003.024-.002.024-.001.024-.001.024v.048l.001.024.001.024.002.024.003.024.003.024.004.024.004.024.005.024.005.023.006.023.007.024.007.022.008.024.008.022.009.023.009.022.01.022.01.022.012.022.011.021.012.022.013.021.013.021.015.022.015.02.015.021.016.019.016.02.017.019.018.019.023.024 1.581 1.581.033.035.032.036.03.038.028.04.026.041.024.042.022.043.02.044.017.045.016.046.013.046.011.047.009.048.006.047.004.049.002.048-.001.048.002z" fill="r2f2620"/></svg>
