<svg viewBox="0 0 32 32" xmlns="http://www.w3.org/2000/svg" fill-rule="evenodd" clip-rule="evenodd" stroke-linejoin="round" stroke-miterlimit="1.414"><path fill="none" d="M0 .037h32v12H32z"/><path fill="none" d="M0 0h19v32H0z"/><path d="M16.174 3.034a13.992 13.992 0 0 1 4.395 7.7a2.105 1.105 0 0 1 .728 1.737 2.996 2.996 0 0 1-.312.292c.184-.002.149-.002.337-.006a2.238 1.038 0 0 1-.881.131 1.277 1.177 0 0 1-.313-.239c.009-.005.017-.013.093-3.835 2.043-7.261 3.303-1.303 6.271-.647 6.355-.301.14-.09.26-.21.26a1.005 1.007 0 0 1 .071-.253c.007.004 0 0 .165.008c.703 0 .609-.013.943 0c.14.007.113.002.146.001.106.009.107.019.107.025.115.083.114.083.113.112 1.083-.303.149.086.205.088.101 0 0 0 2.772.04l.09.001zM7.277 19.507A1.005 1.005 0 0 1 1.387-.025l.043.025 1.359 3.808 1.982 3.993a4.003 4.003 0 0 1-.963 1.922 3.502 3.502 0 0 1 3.641 3.213 3.998 3.998 0 0 1 3.347-.838c.164-.013.177-.008.386-.015l.319-6.901 1.043 1.223 0 0 1 .024-.311L23.1 14.482c-.914 1.934-.505 3.126-.977 2.637-1.075 6.885 6.705 7.744 14.257 5.204 2.629a1.236 1.236 0 0 0-.807 1.81L14.864 21.5a1.5 1.5 0 0 1-1.676-1.862 1.098 1.098 0 0 1-.612.931c-.327.01-.713.012-1.533.014-.448.043-.874.433-1.323a1.038 1.038 0 0 1 .697-1.381 1.01 1.01 0 0 1 .05-.607c.188-.019.255-.022.36-.025c.11-.034.043-.078.041-.377.874-.755.629-.944.994-1.075 2.034-.373 3.728a2.933 2.934 0 0 1-.362.572 1.003 1.003 0 0 1-.752-.488 1.01 1.01 0 0 1-1.01-.694 1.056 1.056 0 0 1-.244.458c-.648.364-1.063.92-1.379 1.342-.096.013-.017.019-.067 0.023-.069.021-.068.021-.065.021-.065.019-.064.019-.064.019-.062.022-.061.021-.069.023-.068.027-.069.028-.068.027-.068.027-.068.027-.068.027-.068.027-.068.027-.068.027-.068.027-.068.027-.068.027-.068.027-.068.027-.068.027-.068.027-.068.027-.068.027-.068.027-.068.027-.068.027-.068.027-.068.027-.068.027-.068.027-.068.027-.068.027-.068.027-.068.027-.068.027-.068.027-.068.027-.068.027-.068.027-.068.027-.068.027-.068.027-.068.027-.068.027-.068.027-.068.027-.068.027-.068.027-.068.027-.068.027-.068.027-.068.027-.068.027-.068.027-.068.027-.068.027-.068.027-.068.027-.068.027-.068.027-.068.027-.068.027-.068.027-.068.027-.068.027-.068.027-.068.027-.068.027-.068.027-.068.027-.068.027-.068.027-.068.027-.068.027-.068.027-.068.027-.068.027-.068.027-.068.027-.068.027-.068.027-.068.027-.068.027-.068.027-.068.027-.068.027-.068.027-.068.027-.068.027-.068.027-.068.027-.068.027-.068.027-.068.027-.068.027-.068.027-.068.027-.068.027-.068.027-.068.027-.068.027-.068.027-.068.027-.068.027-.068.027-.068.027-.068.027-.068.027-.068.027-.068.027-.068.027-.068.027-.068.027-.068.027-.068.027-.068.027-.068.027-.068.027-.068.027-.068.027-.068.027-.068.027-.068.027-.068.027-.068.027-.068.027-.068.027-.068.027-.068.027-.068.027-.068.027-.068.027-.068.027-.068.027-.068.027-.068.027-.068.027-.068.027-.068.027-.068.027-.068.027-.068.027-.068.027-.068.027-.068.027-.068.027-.068.027-.068.027-.068.027-.068.027-.068.027-.068.027-.068.027-.068.027-.068.027-.068.027-.068.027-.068.027-.068.027-.068.027-.068.027-.068.027-.068.027-.068.027-.068.027-.068.027-.068.027-.068.027-.068.027-.068.027-.068.027-.068.027-.068.027-.068.027-.068.027-.068.027-.068.027-.068.027-.068.027-.068.027-.068.027-.068.027-.068.027-.068.027-.068.027-.068.027-.068.027-.068.027-.068.027-.068.027-.068.027-.068.027-.068.027-.068.027-.068.027-.068.027-.068.027-.068.027-.068.027-.068.027-.068.027-.068.027-.068.027-.068.025-.068.027-.068.029-.068.027-.068.027-.068.027-.068.027-.068.027-.068.027-.068.027-.068.027-.068.027-.068.027-.068.027-.068.027-.068.027-.068.027-.068.027-.068.027-.068.027-.068.027-.068.027-.068.027-.068.027-.068.027-.068.027-.068.027-.068.027-.068.025-.068.025-.069.024-.069.023-.071.021-.071.019-.071.018-.072.017-.073.017-.072.018-.073.018-.073.018-.073.018-.073.018-.073.019-.073.02-.073.021-.072.022-.073.024-.072.024-.071.026-.072.026-.072.026-.071.026-.071.026-.071.027-.07.027-.071.029-.071.029-.072.029-.061.029-.06.03-.069.032-.069.033-.069.032-.068.029-.068.027-.068.025-.068.024-.069.024-.069.022-.07.021-.071.019-.071.017-.072.016-.073.014-.073.013-.074.011-.075.009-.075.006-.076.004-.076.004-.076.008-.076.009-.076.008-.076.008-.076.008-.076.008-.076.009-.006.009-.006.009-.007.009-.007.009-.007.009-.008.009-.008.009-.008.013-.013 1.961-1.561.053-.047.059-.035.061-.038.061-.038.062-.04.064-.037.066-.035.066-.035.065-.035.064-.037.063-.038.063-.04.062-.042.061-.044.06-.046.06-.047.058-.049.058-.051.056-.052.061-.059 1.167-1.167.041-.039.043-.036.044-.034.047-.031.048-.028.05-.026.051-.023.053-.02.053-.017.054-.014.055-.011.056-.008.056-.004L20 20a2.995 1.995 0 0 1-.043 2.002c.034.005.035.007.035.018.036.016.075.015.186.011.165.007.117.012.171.021.182.008.174.069.17.078.166.078.196.079.224.157.312.204.186.069.131.007h.029".115.001.127-.003.173-.006.17-.007.072-.01.069-.012.067-.019.067-.023.064-.026.063-.03.062-.035.063-.03.063-.035.063-.035.063-.036.063-.037.063-.038.063-.04.051-.04.051-.039.052-.039.053-.04.052-.039.053-.038.055-.038.055-.037.055-.037.055-.037.055-.038.054-.041.053-.042.045-.042.046-.042.046-.039.046-.039.048-.037.049-.036.047-.035.047-.033.047-.032.048-.03.05-.027.05-.026.051-.023.053-.02.053-.017.054-.015.055-.011.056-.008.056-.004L20 20l.056.002z"/><path d="M27 19.5a1.5 1.5 0 0 0-1.5-1.5h-3a1.5 1.5 0 0 0 0 3h3a1.5 1.5 0 0 0 1.5-1.5zM11 15.5A1.5 1.5 0 0 0 9.5 14h-3a1.5 1.5 0 0 0 0 3h3a1.5 1.5 0 0 0 1.5-1.5z" fill="#ed6b44"/></svg>
