<svg xmlns="http://www.w3.org/2000/svg" viewBox="0 0 128 128"><path d="M117.62 63.57c-.17 0-.33-.01-.6-.04-.52.78-.94 1.44-1.69 2.33-.84 1.14.94 1.67 2.4.95 3.65-.46.57-1.01.95-1.42.94-2.29 1.62-4.22 1.45-8.29.1-14.16-.53-13.73-6.68-5.96-13.47-6.09-23.64-1.49-8.33 2.17-15.74 8.74-16.67 8.05-2.39 23.88.66 15.86 6.53zM8.17 50.19c4.27 0 7.44 2.39 7.42 8.73s-8.88 6.72-7.66 7.06h-.14-3.99zM101.14 60.12a2.66 2.66 0 0 1-3.65 2.31z" fill="#fff"/><path d="M123.92 75.53c-9.15 5.18-18.64 8.29-21.59 8.97-2.75 15.73 1.17 18.83 8.97 2.8 7.71-1.38 14.5--9.27 17.19z"/><path fill="#FBBB1D" d="M116.17 90.27c-8.89 2.11-18.44-1.29-21.41-9.49-3.45-8.3 1.44-19.72 10.19-21.49 9.17-3.31 19.98 1.3 22.62 9.97 3.15 8.68-1.34 18.26-10.05 18.5z"/><path fill="#F9A922" d="M96.24 77.65c-6.63 2.32-12.72-.91-15.14-7.55-2.12-6.77.88-12.16 6.78-14.08 6.74-2.33 13.79.91 16.15 7.33 2.33 6.05-.88 12.24-6.14 13.21z"/><path fill="#F9A922" d="M98.1 8.64c-7.02 2.52-14.66-1.04-17.32-7.96-2.55-6.92 1.06-14.58 8.08-17.72 7.28-2.63 15.22 1.01 17.69 8.26 2.73 7.18-1.12 16.15-8.37 17.71z"/><path fill="#FBB71E" d="M99.71 79.16c-4.19 9.32-12.19-1.3-16.23-9.72-10.23-31.99 1.06-6.78 11.74-9.68 17.18-19.81 7.69-.73 23.4 1.04 25.21 7.65 8.7 2.17 9.31 7.15 17.55 10.94 1.08.98 2.33 1.41 3.38 1.88 2.81 0 5.61-2.74 7.35-7.35.75-3.13-3.05-6.19-5.14-5.9-3.33 1.82-5.27 3.92-5.93 4.72-2.53 0-5.03-.55-7.62-4.27-2.06-1.33-.66-3.71-.73-5.98-.51-2.67-2.51-5.2-5.07-5.77-2.67-2.07 0-5.08 1.71-7.25 2.75-4.33 1.81-7.24 3.44-13.77 7.34-.86 1.39.84 2.49 1.42 3.46.25.53.53 1.06.9 1.52.24.4.56.81.87.52 1.32.54.61 1.01 1.28 1.44 2.04.07.01.07.1.14.2l.16.05.18.21.26.31M21.85 91.57 0 .74-.14 1.38-.66 1.69-1.64 1.64 0 4.09.2 5.31.38.91.02 1.41 0 1.66-.13 1.49-.6 19.98-16.26 34.92-15.61 8.64-2.08 18.81-4.08 18.7-7.5 2.67-1.56 5.51-3.17 8.35-4.37 1.09 0 1.91.4 2.65.45 3.11.16 4.62 2.59 7.73 6.79 9.37 1.25-2.28.89-3.58 2.21-4.13 3.81-6.74 9.42-8.73 17.48-1.03 5.98-1.03 11.31 2.21 11.72 17.16 1.48 5.21-.9 5.08-2.85 4.98-7.27 1.74-2.67.5-5.54-1.13-7.38-2.96-1.41-2.52-3.07-6.24-2.87-9.93zM10.17 18.22c-.33-.07-1.01-.12-1.6-.12-.67-.11-1.31-.39-1.95-.29-.98-.56-1.87-.75-2.47-1-.21-.46-.47-.97-.79-1.34l-.56-.87c-.11-.3-1.42-.83-2.17-1.36a4.31 4.31 0 0 0-1.49-3.3c-.66-.79-1.1-1.34-1.57-2.03-.56-.79-1.56-1.56-2.64-.85-1.06.77-1.29 2.43-1.22 3.44-.48.37-.56.85-.98 1.11-.32.35-.62.62-.9 1.31l-8.23 1.38a2.134 2.134 0 0 0-1.72 2.48 2.129 2.129 0 0 0 2.09 1.75c.13 0 .26-.01.38-.03l8.83-1.59c.66 1.97 1.51 3.88 2.58 5.71l-8.45 2.68a2.122 2.122 0 0 0-1.39 2.68c1.25 1.14 1.25 2.79 1.5 4.38l-1.61 1.05c-1.25.77-1.76 2.09-1.74 3.12-.75 1.21.58 1.67 2.6.69 3.67zm-8.78-8.12c-.25.21-4.63 6.08-13.38 6.22-1.2-.15-2.35-.81-2.78-1.44-.43-1.47.89-2.51 2.2-2.85 3.23-.81 3.91-2.3 5.6-3.13 2.06-.97.5-3.33.63-4.98 1.57-.88 3.41-.43 3.78.83.25 1.36-1.01 3.2-2.11 3.37-2.91-2.91 9.07-2.99 17.4.81 1.72 1.35 2.85 3.35 3.4 5.75.05 7.19 2.81 8.27 7.34.86.39.76.79 1.57.66.38 0 .86-.43 1.38-.43.31-.37.84-.66 1.13-1.58 1.74-1.24 5.02-1.03 8.28-1.05 2.21-1.1 3.61-.37 4.78 3.08 3 1.86 6.44 3.83 9.51.03.99-.04 1.52-.33 2.27 0 1.35.04 3.77.07 5.55l-8.58-1.38c-.01-.01-.01-.02-.01-.06-.01m-.13-.02c-5.29-.57-8.34-3.12-10.99-4.29-.29-.05-.5-.1-.72-.18-1.3-.04-2.73.04-5.4-.44-8.01-1.24-8.18-8.52-10.52-11.02-6.38-13.48-13.28-23.22-23.24-10.83-21.89 2.06-33.79 2.05-7.8 2.14-8.35 7.72-14.29 9.54-10.98 2.86-4.56 5.74-9.03 9.09-8.63 17.47 0 21.38 68.54 122 10.52 9.52 21.79 16.95 19.52 14.6 6.08 4.89 23.65 1.9 29.89 0 5.31-3.54 9.39-8.3 9.29l-.01.02-.05.01-.1.01-.21 0-.21-.01-.32-.03-.26l.23-.23c.42-.06.67.08 1.03.4l.57.47c.2.5.3.48.8.7 1.2.11.2 2.01 3.04.81 4.08 0 1.39-.09 1.83-.56 2.19a1.052 1.051 0 0 1-.61-1.14c.03-.21.12-.58.3-.6.39-.29.26-.42.54-.69.56l-.02.1-.06 12.52-1.05s1.87.96 11.26 1.67 1.27.7 3.15 1.14 4.68 1.5 1.26 1.47 1.74 3.48.55 5.21-1.3 1.29-3.68 1.03-6.81 1.55-.95.5-5.17.87-10.39.83-.84-.01-1.48-.04-2.45-.26-1.68-.41-3.72-1.16-4.84-1.73-1.04-.07-2.11.71-3.25.94-1.17.47-2.44.37-3.21-.63-1.07-.31-2.05-.75-3.44-.76-1.36.81-1.95 3.12-1.76 3.64 1.96.4 1.54.81 2.08 1.43 2.2.94 1.67 1.74 3.59 2.1 5.81.59 1.92 6.21-4.95 10.39-7.05 6.86-2.82 13.5-4.95 14.85-6.03 3.14-2.59 7.68-6.43 9.81-9.27-.84-16.83-13.43-21.22-15.07-.35-.39.17-1.05.43-1.66.75-.38 1.89-.06 2.41.32.69 1.23.49 3.1-.96 3.22h.02c.86 0 1.59.14 1.66.13l.04.02c1.75-.53 3.25-1.7 3.37-2.98.28-.54 1.99-10.58 8.33-13.71 5.71-.54 11.7 5.47 15.77 9.49 1.52 1.41 2.2 3.78 3.83 5.26.96 1.62 1.24 3.65.55 5.29l-4.3 5.71c-1.76.34-3.24.43-4.21.08-2.79.08-5.49.01-8.48.04-2.4-.68-6.54-2.57-9.27-2.65-4.5-.71-8.28-2.04-8.32-3.2-2.96-8.17-7.51-11.04-17.29-13.12-13.28 0-20.36 1.01-26.65 3.28-1.28.27-2.22 1-1.68 1.39-1.54.31-3.39-.52-4.73-1.17-1.3-2.74-2.69-4.62-3.36-7.85-.11-2.95.12-5.68 1.81-7.26 1.8.1-4.13 1.3-6.54.6-10.29-1.31-3.97-3.4-1.7-7.48.48-9.52-.01-.03-.02-.06.01-.11.02-2-.5-8.89-21.35-9.18-9.57 3.39-18.64 21.7-41.41 27.19-1.38 2.71-.83 6.88-.44 10.57 1.47 17.26 1.37 22.32 7.19 43.4 1.31 4.72 5 8.3 7.71 10.79 13.13.38.25 1.12.79 1.9 1.11 1.71 0 2.45-.34 3.03-.38.85.16 1.73.79 2.8 1.11.66-.41 1.62-.78 1.9-.66.21-.59.33-1.97.47-2.91.09-5.44-.73-11.68-.62-18.2-.34-2.53-.26-5.74-.78-8.48-2.09-2.43-2.82-2.43-8.19-.4-13.75.38-3.57 3.39-6.71 7.27-8.64 1.85.7 1.97 3.13 1.97 4.92 3.79.66 8.96-2.24 18.23-2.92 20.06-2.58 5.71-8.15 11.97-12.1 14.03-1.93 8.74.49 14.35 5.42 18.48 5.04 9.09 13.46 15.62 28.57 15.03 9.64-5.37 20-13.97 21.5-30.26 2.61-10.77 0-24.58-1.89-28.55-10.51-3.57-1.43-7.46-1.42-11.24.74C18.23 77.4 75.71 62.43 26.25 38.5c-19.55 0-25.53-1.04-34.41-3.94-.02-.02.05-.09.04-.17.01-.57.13-.8.25-.9.57-1.41 1.38-2.85 2.44-.56 1.47-.02 3.04-.5 4.33-.03 6.62-4.8 19.5-15.32 15.2-33.7 13.72-23.44.01-30.41-19.42-47.6-14.71-41.07 0-14.98 15.31-23.72 15.12-.23.04-.42.08-.66.01-2.58-9.6-2.54-24.46-19.69-26.93-13.63-1.25-2.05-3.5-4.63-5.72-7.24-.73-1.29-2.2-1.37-3.94-.38a12.32 2.22 0 0 1-1.1-2.68c1.02-1.04 1.72-1.65 2.94-1.8C2.15 2.36.2 4.58-.59 6.26zM86.88 40.1c-.88 0-.73.19-1.14.44-1.53 0-3.78.71-5.51 1.21-4.4 3.74-7.65 10.68-7.21 16.09-5.65 4.85-.97 17.27 4.62 18.58 35.21.71.79 1.3 2.48 1.8 3.48z"/></svg><g fill="#2F2F2F"><path d="M63.58 11.97c-2.25 0-4.08-1.83-4.08-4.09.01-2.25 1.84-4.08 4.08-4.08l17.04-.01c.21 0 .36-.16.36-.36 0-.12-.05-.3-.1-.33a.351.341 0 0 0-.16-.15.72-1.35c.02-.44.03-.88.17-1.17.23-.42.64-.97 1.1-1.45 1.7-.37 4.05-.44 5.88l-.08.21c-.29.34-.42.64-.9.99l1.48-16.38c1.58-1.12 3.18-2.48 3.62-3.49 1.02-.04-2.05-.57-2.68-.68-.19-.16-.47-.28-.69-.41z" fill="#424242" opacity=".2"/><radialGradient id="3" cx="81.738" cy="46.319" gradientTransform="matrix(.8397 .4466 -.239 0 c-1745.071 -.345.97-4.152 14.322-9.022 17.798-1.972 0-1.204-.473-1.032-.78a.59.57 0 0 1-.013-.798.999.999 0 0 1 .838.448z" fill="#ccc5d"/><path d="M19 17.5c3 0 3.355-4 3.65-3zM8 19L4h5a1 1 0 0 0-1-1c-1.5 1 0 0-1.358-.994 1.5 1.6 0 1 1 3.5 1.5l2.589 2.591A.999.999 0 0 1-3 0 3.513 0 .035.007.045.018.045.142.85.5379.607.565 1.651.185.356.113.597.29 1.219.587a4.463 4.463 0 0 0 2.994-5.798A5.045 5.045 0 0 1 2.14-8.223A15.992 13.992 0 0 1 1 14C4 17.329 42.452 3.5 35 3s12 32 30h5s-7 21H22c0 6.925 4.057 16.539 12 13 17a1 1 0 0 0-.001-2c.023 0 1.758-.016 3.363-.531A1.997.997 0 0 0 22 18c.185 0 4.537-.07 7.4-4.5 2.76-.763.213-.918 1.658-1.058 1.058-.058.145-.176" fill="#664500"/><path d="M3 29c-1.757 0-3.747.329-4.368.442a1 1 0 0 1 .707.799l14-2H5v1.999A.997 9.997 0 0 1 3 17C21.08 17.51 13 15 5 13s4.331 13 12 11s-7.022 1.028-10.021 0-12.643 0-8.254-2.834-12.186-11.359-23-1.975.014-.11.109-2.468 1.068-1.358 1.964-3.556 5.378-10.502 6.534c-1.165-.602-2.028-.324-.721.659-6.241 2.346-2.077 3.62-4.06 3.294-6.147a.5.5 0 0 1 .78.481M26.79 19.101c.023.027.06.15.126.262a6.99 9.999 0 0 1 .706 1.995c.024.442.087.479.077 1.21 1.078 1.71 2.43 4.519 4.531 5.431.458.521 1.329.739 3.29 1.004a.567.566 0 0 0-.146.032.307.01-.007.012-.035.036-.116.015-.025.037-.358 3.343-.532.944-.053 2.098 0 4.695-1.313 6.048-.957.892-.379 2.207.857 2.639.997 1.034.759 1.44 1.229 0 1.021-.111 2.988-1.719 5.177-.355.188-.041.391-.146.262-.383 1.114-5.344-.241-1.506 0-4.39-.406-6.377-3.215a1.099 1.199 0 0 1-.214-.175 1.004 1.004 0 0 1 .652-.566 1.003 1.003 0 0 1 .607-.202 1.01 1.01 0 0 1 .1-1.009 1.097.794 1.987 11.044 7.629 1.515.652.841.18.68.23 1.042" 3.895 1.821 9.982 1.954 7.369 2.14 10.058 1.525 8.386-.702 10.11-1.056 12.107-3.309-1.031.672-1.712 3.712-1.378 6.738-.524" fill="#d0e3e6"/><path d="M98.25 111a.5.5 0 0 0 .295.5c.503 0 0 0-2.427-1.313 1.596 1.997 0 0 0-1.524 0 2.998 2.998 0 0 0 3.125 1.56c.184.039.339.18.486 2.38 3.451 7.166 3.596 8.06 4.52a.499.499 0 0 1-.094-.729" fill="#f498e6"/></g></svg>
