<svg viewBox="0 0 32 32" xmlns="http://www.w3.org/2000/svg" fill-rule="evenodd" clip-rule="evenodd" stroke-linejoin="round" stroke-miterlimit="1.414"><path fill="none" d="M0 0h32v32H0z"/><path d="M15.174 2.001a13.98 13.98 0 0 1 4.546.819 14.038 14.038 0 0 1 5.056 3.158 14.045 14.045 0 0 1 3.404 5.302 13.98 13.98 0 0 1 .819 4.546c.005.772.005 1.544 0 2.316a10.987 10.987 0 0 1-.621 3.513 11.028 11.028 0 0 1-6.596 6.677 10.926 10.926 0 0 1-3.64.667c-1.764.011-3.527.011-5.291 0a12.03 12.03 0 0 1-3.897-.702 12.027 12.027 0 0 1-4.649-3.042 11.032 11.032 0 0 1-6.596-6.677 10.987 10.987 0 0 1-.621-3.513c.005-1.188.005-2.826 0-10.375-.022-1.048-.025-.058-.023-.059-.023-.058-.023-.058-.024-.057-.029-.056-.031-.055-.034-.052-.038-.051-.04-.072-.042-.074-.041-.074-.039-.075-.037-.076-.037-.075-.038-.074-.038-.074-.03-.073-.031-.073-.034-.082-.034-.081-.034-.081-.034-.071-.035-.071-.037-.07-.039-.06-.038-.058-.039-.056-.041-.053-.04-.041-.039-.043-.04-.046-.043-.046-.043-.041-.04-1.049-2.189-.047-.05-.043-.053-.039-.056-.036-.058-.031-.061-.027-.062-.023-.064-.019-.066-.013-.067-.01-.068-.004-.068v-.068l.004-.068.01-.068.013-.067.019-.066.023-.064.027-.062.031-.061.036-.058.039-.056.043-.053.047-.05 1.29-1.29.058-.058.062-.058.061-.058.063-.058.063-.057.063-.057.064-.055.064-.055.065-.054.065-.053.067-.052.066-.051.068-.051.068-.049.068-.049.069-.048.069-.047.07-.046.071-.045.071-.045.072-.043.072-.042.072-.042.073-.041.074-.04.074-.041.074-.039.074-.038.075-.037.075-.036.076-.035.076-.034.077-.034.077-.032.077-.031.078-.031.078-.03.078-.028.079-.028.079-.027.08-.025.079-.025.08-.024.081-.023.081-.022.081-.021.081-.019.082-.019.081-.018.083-.017.082-.016.082-.015.083-.014.083-.013.084-.012.083-.011.084-.01.084-.009.084-.007.084-.007.084-.006.085-.005.084-.003.085-.003.085-.001.082-.001h1.164l-.095.001z"/></svg>
