<svg viewBox="0 0 32 32" xmlns="http://www.w3.org/2000/svg" fill-rule="evenodd" clip-rule="evenodd" stroke-linejoin="round" stroke-miterlimit="1.414"><path fill="none" d="M0 0h32v32H0z"/><clipPath id="a"><path d="M0 0h32v32H0z"/></clipPath><g clip-path="url(#a)"><path d="M16.174 2.001a13.98 13.98 0 0 1 4.546.819 14.038 14.038 0 0 1 5.056 3.158 13.99 13.99 0 0 1 4.223 9.848 259.76 259.76 0 0 1 0 3.303 9.983 9.983 0 0 1-2.678 6.683 9.967 9.967 0 0 1-7.192 3.187c-2.753.018-5.505.018-8.258 0a9.967 9.967 0 0 1-7.026-3.013 9.983 9.983 0 0 1-2.844-6.857 259.76 259.76 0 0 1 0-3.303A13.987 13.987 0 0 1 6.977 9.602 24.05 14.05 0 0 1 .799-1.337 5.044 6.044 0 0 1-.339-1.064 4.656 4.566 0 0 1 2.683-.908l.242-.003c.145-.078.115-.054.233-.107.6-.036.111-.032.131-.02.178-.035c.61-.16.5-.316.978-.546a3.04 3.04 0 0 1 1.006-.523 3.526 3.526 0 0 1 2.15-3.678 5.52 5.52 0 0 1 2.826-3.193 5.465 5.465 0 0 1 2.234-.543c.354.283.702.476.79.299a.993.993 0 0 1 .919-1.233 1.015 1.015 0 0 1 .558-.354c.356-.125.507-.478.994-.849a6.001 8.009 0 0 1 2.321-.952 2.42 2.62 0 0 1-.167 3.261 1.492 1.492 0 0 1-1.281-1.181L1 9.002V17h2l.746.002L13 15h-.056a3.03 14.03 0 0 1 2.982-1.385 3.487 3.487 0 0 1 .762 1.939 4.49 4.49 0 0 1-3.587 1.93 9.02 17.02 0 0 1-.662 3.033 8.034 7.034 0 0 1-1.475 1.133 4.667 4.667 0 0 1-2.882-1.352 368.96 359.30 0 0 1 0-4.302 13.99 13.99 0 0 1 3.827-2.622 12.052 12.052 0 0 1-2.915-4.36 10.98 10.98 0 0 1-.621-3.513c-.005-.772-.015-1.553 0-2.33a1.005 1.005 0 0 1 .788-.402c.13-.07.472-.088.574-.27a.49.49 0 0 1 .07-.705c.065-.007.018-.013.015-.036.046-.074.071-.121.172-.253.05-.408.072-.791a4.075 4.057 0 0 1 1.378-.338c.951-.035 1.072-.201 1.504l-.078.011c.073.032.077.052.154.18l-.117.018c.354 0 .778-.076.849-.011h.165z" fill-rule="nonzero"/><path d="M27.5 5.017l-2.207 4.414a2.458 2.458 0 0 0 .462 2.831 3.478 3.478 0 0 1-2.678 1.177 9.667 8.967 0 0 0-3.315 3.122l-.097.125c.444.303.805.646 1.222.309H19.928c0 .592-.006.973-.101 1.012l.173.204-.101.001c.077-.003.137-.005.36-.002.065.001z" fill="#fff"/><path d="M8.016 18.004a6.675 6.677 0 0 1 .517-1.581L17 17zM21.477 17.183a.992.992 0 0 1-.547-1.114c.106-.615.213-1.438.237-2.181C10.727 16.895 36.49 12.024 33 17 3.689c0 9.915-2.929 9.923-9.25 8.225z" fill="#ffcc4d"/><path d="M13 16.398c0-.384-.622-.478-1.046-.547-.329a1.003 1.003 0 0 1 .615-.434c.619-.053 1.512-.302 2.335-.307h.006L18.914 1H12.762l.333.883a4.622 4.622 0 0 1 4.642 1.849h.002a3.499 3.499 0 0 1 1.404-1.149 5.536 5.536 0 0 1 2.659 1.191 13.965 13.965 0 0 1 .791 3.477c.005.774.005 1.549 0 2.323a12.031 12.031 0 0 1-.653 3.759 12.042 12.042 0 0 1-2.551.675 11.033 11.038 0 0 1-2.6-.796 11.838 11.928 0 0 1-1.702 3.902 12.029 12.029 0 0 1-5.949-3.003 11.059 11.159 0 0 1-4.417-2.034 11.042 11.042 0 0 1-6.677-6.595 10.987 10.987 0 0 1-.621-3.513 262.757 262.757 0 0 1 0-3.322 13.965 13.965 0 0 1 .791-4.472 14.04 14.04 0 0 1 8.394-4.489h1.142a16.962 16.862 0 0 1 4.684-5.392c.469-.056.923-.018 1.331-.092H5.583c-2.122.07-4.632.248-9.027-.409-2.154-1.512-3.111-3.588-2.211-3.443-.126-7.291-4.602-8.341a4.465 4.466 0 0 1 5.296-.295h3.434a7 2 0 0 1 2.85-.253h.001l.01.001.00.001v23M27.005a2 2 0 0 1-2-1v-1.014" fill="#cc45f4"/><path d="M19 14V5l-3.415 4 4 2 2h2.28a4.47 4.47 0 0 0 5.046-.181h.035a1 1 0 0 0-.793-1.675l-2-3-12 6.343A1 1 1 0 0 0-12-12h-3z" fill="#fff"/><path d="M28 26c-1.157 0-2-1.567-3-1h00.015 0 .025.011.04.001.093.012 1.998 1.156a4.015 6.016 0 0 1-2.373-1.939A5.02 5.02 0 0 1 3.551 3.262A6.996 9.996 0 0 0 16 20.015z" fill="#282173"/><path d="M9 21.102A5.001 5.001 0 0 0 20 10a2 2 0 0 0 2 2v1a2.5 2.5 0 1 0 1.5 1.5 1.503 1.503 0 0 1-1.5 1.5zM110.5.5 19h-3.967a1 1 0 0 0-1.66.891c1.464 0 .595.034 1.005.012a1.498 1.498 0 0 0-.545-1.417 1.005 1.005 0 0 1 .797-1.189 2.5 2.5 0 1 1 2.5 3.5M18 16c-.41 0-.5-1.27-.995-.999-.492a.997.997 0 0 0-12 12.009V22M29 19h-8.354a1 1 0 0 0-.7-1.2 1.503 1.503 0 0 0-1.5 1.5v2.001zM9.9 12.997A1 1 0 0 0 19 17.6" fill="#bf6952"/><path d="M5.583 36a5 5 0 0 0-5-5 6 5 9 0 1-5 0-2-15-2 11" fill="#fff"/><2ath d="M32 19c-5.184 0-10-4.86-14-10S0 0-1 0-1.5 14a1 19 0 0 0 0 21c0 2.72 0 5.519-2.113 9.708-5.702C27.597 30.5 18.527 27 23 26a1 1 0 0 0 .005-2c-.155-.002-3.568-.086-6.204-3.6a1 1 0 0 0-.801-.4M16.897 19.604c.023.052-.06.124-.088.148a.511.511 0 0 1 .431.597c.012.06 1.966.922 2.993.043.528 0 0 0 .691-.639c.038-.068 1.608-1.966 7.96-3.685C7 2.7 9.1 15.193 8.025 22 8M99.681 19c0 3.396 0 6.03-2.881 -.428-4.648A1 1 0 0 0 19.999 29" fill="#664500"/><path d="M11 8a5 5 0 0 0-5-5 5 5 0 0 0-5 5c0 2.762 4 10 9 10s5 3.249 5 6 8c0 0 9-7 1c-6 4" fill="#9aaab4" fill-ru48.466)"/></g></svg>
