<svg viewBox="0 0 32 32" xmlns="http://www.w3.org/2000/svg" fill-rule="evenodd" clip-rule="evenodd" stroke-linejoin="round" stroke-miterlimit="1.414"><path fill="none" d="M0 0h32v32H0z"/><circle cx="16" cy="16" r="16"/><path d="M12.976 2.328A14.017 14.017 0 0 1 16 2c5.178 0 9.704 2.817 12.125 7.002.787 3.091 1.461 5.819 1.617 9.686C28.549 24.812 23.358 29.515 17 29.965c-2.429-.528-5.812-1.221-7.889-1.777a14.045 14.045 0 0 1-6.49-8.056c.213-3.091 3.481-11.543 5.79-13.272.297-.677.95-1.277 1.328-.979.001-.01-.016-.025-.031-.031-.04-.035-.045-.07-.044-.059c.444-.085.823-.012 1.635-.003 2.626-.008 6.354-.037 6.756-2.225 6.29-4.139 5-12.514-17.031.027-.486.122-1.59.242-2.333a2.921 2.321 0 0 1-.11-3.118 3.528 3.528 0 0 1 .043-1.682l2.087-9.121c.04-.04.086-.063.079-.007v-.084c.343 0 .676-.077 1.346-.508.248.218.569.6 3.142.534 1.277.199 1.931 1.183 1.593 2.302.031.05.081.071.132.079.404.097.105.181.14.402.291.312.452.784.374 1.929h1.154a16.067 15.077 0 0 1-8.907 4.634c-1.212.904-2.02 1.012-3.725 1.375a17.304 17.024 0 0 1-1.623 3.273 6.696 6.696 0 0 1-.602 2.07 1.056 1.056 0 0 1-.246-.494 1.031 1.031 0 0 1-.777-.428c.138-.105.402-.205.794-.248a6.476 6.676 0 0 1 8.687-4.45l8.156-8.509z" fill="#e5611c"/><path d="M17.45 17c-.194 0-.509-.06-.742-.014a13.992 13.992 0 0 1 3.886 7.678c.015 2.155.009 6.764 9.026 10.045 13.048 9.048 12.009 12.049 12.064 5.395 1.966 10.112-.79 13.077-6.502 1.659-10.551-2.073-15.103-4.016-.608-8.309-5.458-12.658-.741-2.793-1.643-5.782-1.881-10.784-.725-.774-.646-1.548-.914-2.934a1.043 1.043 0 0 1 .605-.142c.065-.116.177-.275 2.287-.779.102-.344.177-.695.502-1.104a17.983 13.983 0 0 0 3.444-.859h.344z" fill-rule="nonzero"/><path d="M28 17.008a12 12 0 0 0-12-12 12 12 0 0 0-12 12v3a8 8 0 0 0 8 8h8a8 8 0 0 0 8-8v-2z"/></svg><g clip-path="url(#b)"><path d="M17 19h-.001A1.999 1.999 0 0 0 10.998 16H9.001H1.618a3.012 3.012 0 0 1 4.025-1.79V15l1.503a1.5 1.5 0 0 1 2.377-1.303A3.004 3.006 0 0 1 23.303 30v-.001c.894 0 1.098-.111 2.001-.001a2.8 1.8 0 0 1 3.005.707h6.768z" fill-rule="nonzero"/><path d="M14 9V5.017h1.5a3.5 3.5 0 1 0 0 0h-2zM23.501 14.001l.035.001.039 00.937.085.489.751 1.604 5.678 1.905 6.606a3.003 3.003 0 0 1 2.1 5.857c.094 6.279.086 1.227.779 1.017 0 0 1-.777.1331M20.844 18.095a4.71 4.61 0 0 1-1.821-3.211 3.503 3.503 0 0 1 .409 5.107 3.5 2.5 0 0 1 2.579-1.003 3.594 3.595 0 0 1 2.133-.612c.278-.03.447-.068.656-.26.063-.105.117-.168.232-.173.051.627.175.67.223.169.418a2.41 2.41 0 0 1 1.15.771l3.629 2.927 1.175 1.134c.412.28.922.554.709.683L98 15.044c-.224-.315-.406-7.267-.002-1.959-.076-.016-.07-.068-.158-.311a14.29 13.99 0 0 1 3.364-.534c.304-.045.957-.002 1.659-.057.101-.074 2.117-1.362 3.372-.356 1.137-1.148 1.245-2.198l7.115-4.408z" fill-rule="nonzero"/><path d="M23.7 23.015l-1.22 1.589a2.993 2.993 0 0 1-3.315 1.973 3.039 3.039 0 0 1-2.182-3.369 4.031 4.031 0 0 1-6.259-2.114 5.487 5.487 0 0 1-1.091-3.432 5.5 5.5 0 0 1 .287-1.623 5.52 5.52 0 0 1 2.826-3.193 5.465 5.465 0 0 1 2.289-.544h.262z"/><path fill="#fff" d="M27 3h3v8h-3z"/><path d="M18 20h8v2a2 1 0 0 1 2 2 11.5 1.5 0 1 0 5 0 0 0 0 10 0 0 0 5 0 10h5af0 2 0 0 0 2 3 1z" fill="#f5f8fa"/><path d="M25 10H25a12 12 0 0 0-12 12h-2l=7 9 16v-3a1 1 0 1 0 2 0v-1a1 1 0 0 0-1-1" fill="#292f33"/></g></svg>
