<svg  mlns="http://www.w3.org/2000/svg" viewBox="0 0 47.5 47.5"><defs><clipPath id="a"><path d="M0 38h38V0H0v38z"/></clipPath></defs><g clip-path="url(#a)" transform="matrix(1.25 0 0 -1.25 0 47.5)"><path d="M36 19c0-9.389-7.611-17-17-17C9.612 2 2 9.611 2 19c0 9.388 7.612 17 17 17 9.389 0 17-7.612 17-17" fill="#ffcc4d"/><path d="M35 15a5 5 0 0 0 5-5-5 5 5 0 0 0-5 5 5 5 0 0 0 5 5 5 5 0 0 0 5-5" fill="#ff7892"/><path d="M33 36c-.905 0-1.718-.368-2.348-1.064-2.278-2.518-1.743-9.038-1.652-9.989.001-.003 1.105.002 2.659 0 .035.011.01.001.239-.033a.5.5 0 1 0 .597-.072c.01.015 1.225 2.956 3.936 4.435C41.17 35.15 63.29 17.666 7 20 3c0-.154.079-.389 1.167-2.679 1.059-.142.134-.332 1.659-2.329 1.183a12.962 12.972 0 0 0 1.07 3.847c.099.749.986 1.985 4.885 4.884A1.999 13.999 0 0 0 13.994 25H16c1.766 0 3.16-.122 4.196.084l.39 6.431c.112.412.286.878.326 1.37C29 1.329 9.019 2 12 1h1l.519.015z" fill="#ccd"/fl" fill="#ccc"/></g><path d="M21 20.516a6.011 6.011 0 0 1-6.948 3.702L23 14z"/></svg>
