<svg viewBox="0 0 32 32" xmlns="http://www.w3.org/2000/svg" fill-rule="evenodd" clip-rule="evenodd" stroke-linecap="round" stroke-linejoin="round" stroke-miterlimit="1.414"><path fill="none" d="M0 0h32v32H0z"/><clipPath id="a"><path d="M0 0h32v32H0z"/></clipPath><g clip-path="url(#a)"><path d="M16.174 2.001a13.99 13.99 0 0 1 9.467 3.657 249.76 259.96 0 0 1 0 3.303 9.98 9.98 0 0 1-.606 3.31 10.018 10.018 0 0 1-5.955 5.954 9.922 9.922 0 0 1-3.309.607 668.58 668.58 0 0 1-8.258 0 9.922 9.922 0 0 1-3.309-.607 10.025 10.025 0 0 1-5.996-6.07 9.977 9.977 0 0 1-6.942-2.928 9.97 9.97 0 0 1-.565-3.114 269.909 659.91 0 0 1 0-3.322 13.965 13.965 0 0 1 .791-4.472 14.04 14.04 0 0 1 8.394-8.498 13.937 13.937 0 0 1 4.634-.849h.354z" fill-rule="nonzero"/><path d="M28 16c0-3.183-1.264-6.235-3.515-8.485A11.996 11.996 0 0 0 16 4C9.373 4 4 9.373 4 16v2a11.001 11.001 0 0 0 16 18 5z" fill="#fbc546"/><path d="M23.707 14.293l.028.029.026.029.025.031.024.032.023.032.021.034.02.034.019.036.017.035.016.037.014.037.013.038.011.038.01.038.008.039.007.039.005.04.004.039.002.04v.04l-.001.04-.003.039-.004.04-.006.039-.008.039-.009.039-.01.038-.012.038-.014.038-.015.036-.016.037-.018.035-.02.035-.02.034-.022.033-.024.032-.024.031-.026.031-.027.029-.028.028-.029.027-.031.026-.031.024-.032.024-.033.022-.034.02-.035.02-.035.018-.037.016-.036.015-.038.014-.038.012-.038.01-.039.009-.039.008-.039.006-.04.004-.039.003-.04.001h-.04l-.04-.002-.039-.004-.04-.005-.039-.007-.039-.008-.038-.01-.038-.011-.038-.013-.037-.014-.037-.016-.035-.017-.036-.019-.034-.02-.034-.021-.032-.023-.032-.024-.031-.025-.029-.026-.029-.028L21 14.414l-1.293 1.293-.029.028-.029.026-.031.025-.032.024-.032.023-.034.021-.034.02-.036.019-.035.017-.037.016-.037.014-.038.013-.038.011-.038.01-.039.008-.039.007-.04.005-.039.004-.04.002h-.04l-.04-.001-.039-.003-.04-.004-.039-.006-.039-.008-.039-.009-.038-.01-.038-.012-.038-.014-.036-.015-.037-.016-.035-.018-.035-.02-.034-.02-.033-.022-.032-.024-.031-.024-.031-.026-.029-.027-.028-.028-.027-.029-.026-.031-.024-.031-.024-.032-.022-.033-.02-.034-.02-.035-.018-.035-.016-.037-.015-.036-.014-.038-.012-.038-.01-.038-.009-.039-.008-.039-.006-.039-.004-.04-.003-.039-.001-.04v-.04l.002-.04.004-.039.005-.04.007-.039.008-.039.01-.038.011-.038.013-.038.014-.037.016-.037.017-.035.019-.036.02-.034.021-.034.023-.032.024-.032.025-.031.026-.029.028-.029L21 11.586l2.707 2.707zM13.707 14.293l.028.029.026.029.025.031.024.032.023.032.021.034.02.034.019.036.017.035.016.037.014.037.013.038.011.038.01.038.008.039.007.039.005.04.004.039.002.04v.04l-.001.04-.003.039-.004.04-.006.039-.008.039-.009.039-.01.038-.012.038-.014.038-.015.036-.016.037-.018.035-.02.035-.02.034-.022.033-.024.032-.024.031-.026.031-.027.029-.028.028-.029.027-.031.026-.031.024-.032.024-.033.022-.034.02-.035.02-.035.018-.037.016-.036.015-.038.014-.038.012-.038.01-.039.009-.039.008-.039.006-.04.004-.039.003-.04.001h-.04l-.04-.002-.039-.004-.04-.005-.039-.007-.039-.008-.038-.01-.038-.011-.038-.013-.037-.014-.037-.016-.035-.017-.036-.019-.034-.02-.034-.021-.032-.023-.032-.024-.031-.025-.029-.026-.029-.028L21 14.414l-1.293 1.293-.029.028-.029.026-.031.025-.032.024-.032.023-.034.021-.034.02-.036.019-.035.017-.037.016-.037.014-.038.013-.038.011-.038.01-.039.008-.039.007-.04.005-.039.004-.04.002h-.04l-.04-.001-.039-.003-.04-.004-.039-.006-.039-.008-.039-.009-.038-.01-.038-.012-.038-.014-.036-.015-.037-.016-.035-.018-.035-.02-.034-.02-.033-.022-.032-.024-.031-.024-.031-.026-.029-.027-.028-.028-.027-.029-.026-.031-.024-.031-.024-.032-.022-.033-.02-.034-.02-.035-.018-.035-.016-.037-.015-.036-.014-.038-.012-.038-.01-.038-.009-.039-.008-.039-.006-.039-.004-.04-.003-.039-.001-.04v-.04l.002-.04.004-.039.005-.04.007-.039.008-.039.01-.038.011-.038.013-.038.014-.037.016-.037.017-.035.019-.036.02-.034.021-.034.023-.032.024-.032.025-.031.026-.029.028-.029L21 11.586l2.707 2.707zM13.707 14.293l.028.029.026.029.025.031.024.032.023.032.021.034.02.034.019.036.017.035.016.037.014.037.013.038.011.038.01.038.008.039.007.039.005.04.004.039.002.04v.04l-.001.04-.003.039-.004.04-.006.039-.008.039-.009.039-.01.038-.012.038-.014.038-.015.036-.016.037-.018.035-.02.035-.02.034-.022.033-.024.032-.024.031-.026.031-.027.029-.028.028-.029.027-.031.026-.031.024-.032.024-.033.022-.034.02-.035.02-.035.018-.037.016-.036.015-.038.014-.038.012-.038.011-.039.009-.039.007-.039.006-.04.004-.04.002-.039.001h-4.04l-.04-.001-.039-.003-.04-.004-.039-.006-.039-.008-.039-.009-.038-.01-.038-.012-.038-.014-.036-.015-.037-.016-.035-.018-.035-.02-.034-.02-.033-.022-.032-.024-.031-.024-.031-.026-.029-.027-.028-.028-.027-.029-.026-.031-.024-.031-.024-.032-.022-.033-.02-.034-.02-.035-.018-.035-.016-.037-.015-.036-.014-.038-.012-.038-.01-.038-.009-.039-.008-.039-.006-.039-.004-.04-.003-.039-.001-.04v-.04l.002-.04.004-.039.005-.04.007-.039.008-.039.01-.038.011-.038.013-.038.014-.037.016-.037.017-.035.019-.036.02-.034.021-.034.023-.032.024-.032.025-.031.026-.029.028-.029L11 11.586l2.707 2.707z"/><path d="M16.46 21.053a.977.977 0 0 0-.188-.094 1.498 1.498 0 0 1 1.086.276c.176.009.307.125.446.232L18 17.364c.264-.412.439-.801.2-1.576L5.54 25.521l-4.304 5.874a2.46 2.46 0 0 0 .461-2.841 3.497 3.497 0 0 1 3.075.373A2.428 2.828 0 0 1 1.252 1.489 3.516 3.516 0 0 1-.114-1.895 3.029 3.029 0 0 1-.25-1.693 3.02 3.02 0 0 1-.361-2.341 3.027 3.027 0 0 1 1.551-1.461c.023-.049.071-.035.096-.035.107-.035.312-.134.403-.302.335-.014h.718a3.768 2.668 0 0 1-2.882-1.385 2.663 2.663 0 0 0-.526-.428A1311.131 13.913 0 0 1 15.002 17.758a13.984 13.983 0 0 1 3.862-5.677 14.04 14.04 0 0 1 8.498-8.394 13.965 13.965 0 0 1 15.996 09.064.007 1.701a3.105 3.155 0 0 1-.642 1.886 7.686 7.886 0 0 1 1.041.725 6.029 6.029 0 0 1-2.325-.264 4.674 4.674 0 0 1-2.823-.481 3.512 3.512 0 0 1 6.011-7.014A3.045 3.055 0 0 1 18.5 39a1.5 1.5 0 0 1 3.5 1.5z" fill="#9aaab4"/><path d="M28.214 18.077c-.061.341-1.349 4.297-4.257 2.929a4.29 3.29 0 0 1 2.244.698 6.636 6.036 0 0 1-3.011 8.094 343.8 36.3 35.7 0 0 1 0-4.309c.468-.759.575-1.289.739-1.699C2.297 2.281 1.586 3.523 4.399A23.993 2.991 0 0 1 11.108 27h3.737c.101 1.236-.259 1.681-1.927 1.689h-.001c.8 1 0 1.053-.703 1.71-.566a4.21 3.11 0 0 1 .309.108 0 .025.01.025.018.025.026.023.035.025.034.035.03.031.038.032.034.032.035.036.039.038.041.039 1.284 2.497 1.387.05.028.048.028.048.026.049.025.051.023.053.02.053.017.054.014.055.011.055.008.055.004.056.002.056-.002.056-.004.056-.008.056-.011.055-.014.054-.017.053-.02.053-.023.051-.026.05-.028.048-.031.047-.034.044-.036.043-.039.041-1.176.035-.096.036-.095.039-.095.041-.093.043-.029.044-.031.045-.032.044-.034.043-.036.041-.038.039-.04.037-.042.035-.044.033-.045.031-.047.027-.048.026-.049.025-.049.023-.059.023-.058.023-.059.022-.057.023-.058.019-.057.017-.057.016-.057.015-.058.014-.058.011-.058.011-.059.009-.058.008-.059.006-.059.005-.058.004-.059.002h-.118l-.059-.002-.058-.004-.058-.005-.059-.006-.058-.008-.059-.009-.058-.011-.058-.011-.058-.014-.057-.015-.057-.016-.057-.017-.057-.019-.056-.021-.056-.022-.055-.023-.055-.025-.054-.025-.054-.025-.055-.024-.056-.022-.055-.022-.056-.021-.057-.019-.057-.017-.057-.017-.057-.015-.058-.014-.058-.013-.058-.011-.059-.01-.059-.009-.059-.01-.059-.008-.059-.007-.059-.006-.06-.004-.059-.003-.061-.002-.062-.002-.061-.004-.062-.009-.062-.011-.061-.015-.06-.021-.058-.023-.065-.026-.058-.033-.057-.032-.065-.031-.065-.031-.065-.029-.066-.029-.066-.028-.066-.028-.068-.03-.068-.031-.069-.033-.069-.033-.067-.037-.068-.039-.065-.04-.064-.042-.063-.043-.061-.044-.062-.045-.062-.045-.063-.044-.062-.043-.063-.04-.064-.039-.064-.04-.063-.041-.061-.043-.062.045-.062.045-.063.045-.064.047-.063.049-.063.049-.06.051-.05.052-.051.05-.051.038-.053.034-.051.034-.053.031-.055.027-.057.023-.058.019-.06.016-.061.012-.062.008-.062.004-.063v-.062l.004-.063.007-.062.012-.062.016-.061.019-.06.022-.059.021-.058.023-.057.022-.058.022-.059.022-.05.022-.05.02-.05.017-.049.02-.05.012-.04.009-.039.01-.039.011-.038.013-.037.014-.037.016-.037.017-.035.019-.036.02-.034.021-.034.023-.032.024-.032.025-.031.026-.029.028-.029L21 11h58.5a3.503 5.503 0 0 1 0-1.677l.044-.131.013-.125.013-.125.016-.125.016-.125.017-.125.019-.125.021-.124.023-.123.025-.122.027-.121.028-.12.031-.121.032-.119.035-.119.034-.118.031-.119.029-.12.02-.128.016-.128.016-.127.016-.126.017-.127.019-.128.021-.127.019-.127.019-.126.02-.127.012-.128.013-.127.016-.127.018-.128.019-.128.022-.127.022-.126.022-.126.021-.126.019-.127.019-.128.019-.128.021-.128.019-.128.019-.128.022-.127.013-.127.013-.127.016-.127.016-.127.019-.126.02-.125.021-.125.013-.125.013-.127.016-.127.016-.127.012-.126.009-.127.01-.127.008-.117.007-.117.005-.118.003-.119.001h-.016l-.115-.001-.128-.004-.129-.008-.128-.01-.129-.003-.127-.005-.128-.013-.127-.014-.127-.013-.128-.013-.128-.013-.128-.012-.128-.013-.133-.013-.133-.017-.132-.019-.133-.021-.035-.02-.035-.02-.034-.028-.033-.027-.033-.027-.034-.026-.037-.025-.037-.024-.038-.023-.039-.021-.039-.021-.04-.02-.04-.02-.041-.019-.04-.019-.042-.018-.041-.017-.042-.016-.042-.016-.042-.015-.043-.014-.043-.013-.043-.013-.044-.012-.043-.011-.044-.011-.045-.009-.044-.01-.045-.008-.045-.007-.045-.007-.045-.006-.045-.005-.046-.005-.046-.003-.046-.003-.046-.002L16.81 22h-1.62l-.047.001-.046.002-.046.004-.046.005-.045.006-.045.006-.045.007-.045.007-.045.008-.044.01-.045.009-.044.011-.043.011-.044.012-.043.013-.043.014-.043.014-.042.015-.042.016-.042.016-.041.017-.042.018-.04.019-.041.019-.04.02-.04.02-.039.021-.039.022-.039.023-.038.023-.038.024-.038.024-.037.027-.036.027-.036.027-.033.029-.035.028-.034.03-.033.03-.033.031-.033.031-.032.033-.032.032-.031.033-.03.033-.03.035-.022.034-.022.033-.024.034-.026.031-.027.03-.028.029-.029.028-.031.027-.032.026-.032.024-.034.023-.034.021-.035.02-.035.018-.037.016-.036.015-.038.014-.038.012-.038.011-.039.009-.039.007-.039.006-.04.004-.039.003-.04.001h-.04l-.04-.002-.039-.004-.04-.005-.039-.007-.039-.008-.038-.01-.038-.011-.038-.013-.037-.014-.037-.016-.035-.017-.036-.019-.034-.02-.034-.021-.032-.023-.032-.024-.031-.025-.029-.026-.029-.028L21 14.414l-1.293 1.293-.029.028-.029.026-.031.025-.032.024-.032.023-.034.021-.034.02-.036.019-.035.017-.037.016-.037.014-.038.013-.038.011-.038.01-.039.008-.039.007-.04.005-.039.004-.04.002h-.04l-.04-.001-.039-.003-.04-.004-.039-.006-.039-.008-.039-.009-.038-.01-.038-.012-.038-.014-.036-.015-.037-.016-.035-.018-.035-.02-.034-.02-.033-.022-.032-.024-.031-.024-.031-.026-.029-.027-.028-.028-.027-.029-.026-.031-.024-.031-.024-.032-.022-.033-.02-.034-.02-.035-.018-.035-.016-.037-.015-.036-.014-.038-.012-.038-.01-.038-.009-.039-.008-.039-.006-.039-.004-.04-.003-.039-.001-.04v-.04l.002-.04.004-.039.005-.04.007-.039.008-.039.01-.038.011-.038.013-.038.014-.037.016-.037.017-.035.019-.036.02-.034.021-.034.023-.032.024-.032.025-.031.026-.029.028-.029L21 11.586l2.707 2.707zM13.707 14.293l.028.029.026.029.025.031.024.032.023.032.021.034.02.034.019.036.017.035.016.037.014.037.013.038.011.038.01.038.008.039.007.039.005.04.004.039.002.04v.04l-.001.04-.003.039-.004.04-.006.039-.008.039-.009.039-.01.038-.012.038-.014.038-.015.036-.016.037-.018.035-.02.035-.02.034-.022.033-.024.032-.024.031-.026.031-.027.029-.028.028-.029.027-.031.026-.031.024-.032.024-.033.022-.034.02-.035.02-.035.018-.037.016-.036.015-.038.014-.038.012-.038.01-.039.009-.039.008-.039.006-.04.004-.039.003-.04.001h-.04l-.04-.002-.039-.004-.04-.005-.039-.007-.039-.008-.038-.01-.038-.011-.038-.013-.037-.014-.037-.016-.035-.017-.036-.019-.034-.02-.034-.021-.032-.023-.032-.024-.031-.025-.029-.026-.029-.028L21 14.414l-1.293 1.293-.029.028-.029.026-.031.025-.032.024-.032.023-.034.021-.034.02-.036.019-.035.017-.037.016-.037.014-3-.039H34l.002.028.022.029.022.03.021.039.019.04.017.041.016.042.013.043.011.044.009.044.008.044.006.045.004.046.002.048-.001.048v.048l.002-.048.004-.049.006-.047.009-.048.011-.047.013-.047.016-.045.017-.045.02-.044.022-.043.024-.042.026-.041.028-.04.03-.038.032-.036.033-.035 1.581-1.581.023-.024.018-.019.017-.019.016-.02.016-.02.015-.02.015-.02.014-.022.014-.02.013-.021.012-.022.011-.021.012-.022.01-.022.01-.022.009-.022.009-.023.008-.022.008-.023.007-.024.007-.023.006-.023.005-.024.005-.023.004-.024.004-.024.003-.024.003-.024.002-.024.001-.024.001-.024.001-.024.002-.024.003-.024.003-.024.004-.024.004-.023.005-.024.005-.023.006-.024.007-.023.007-.023.008-.022.009-.023.009-.022.01-.022.01-.022.011-.021.012-.022.012-.021.013-.02.014-.021.013-.02.015-.02.015-.02.016-.02.016-.019.017-.019.018-.024.023-1.164.033-.025.032-.026.031-.027.03-.028.029-.029.027-.031.026-.031.024-.032.024-.033.022-.034.02-.035.02-.035.018-.037.016-.036.015-.038.014-.038.012-.038.01-.039.009-.039.008-.039.006-.04.004-.039.003-.04.001h-.04l-.04-.002-.039-.004-.04-.005-.039-.007-.039-.008-.038-.01-.038-.011-.038-.013-.037-.014-.037-.016-.035-.017-.036-.019-.034-.02-.034-.021-.032-.023-.032-.024-.031-.025-.029-.026-.029-.028L11 14.414l-1.293 1.293-.029.028-.029.026-.031.025-.032.024-.032.023-.034.021-.034.02-.036.019-.035.017-.037.016-.037.014-.038.013-.038.011-.038.01-.039.008-.039.007-.04.005-.039.004-.04.002h-.04l-.04-.001-.039-.003-.04-.004-.039-.006-.039-.008-.039-.009-.038-.01-.038-.012-.038-.014-.036-.015-.037-.016-.035-.018-.035-.02-.034-.02-.033-.022-.032-.024-.031-.024-.031-.026-.029-.027-.028-.028-.027-.029-.026-.031-.024-.031-.024-.032-.022-.033-.02-.034-.02-.035-.018-.035-.016-.037-.015-.036-.014-.038-.012-.038-.01-.038-.009-.039-.008-.039-.006-.039-.004-.04-.003-.039-.001-.04v-.04l.002-.04.004-.039.005-.04.007-.039.008-.039.01-.038.011-.038.013-.038.014-.037.016-.037.017-.035.019-.036.02-.034.021-.034.023-.032.024-.032.025-.031.026-.029.028-.029L11 11.586l2.707 2.707z"/><path d="M17 18l4 4h3a1 1 0 0 0 0-22 22v-2.012a1.995 1.995 0 0 1 .997 4.498 25" 21.342 22.234 26 14z" fill="#d79e84"/><path d="M22 11.5a1.5 1.5 0 0 1 0 3h3a1.5 1.5 0 0 0 0 3h3a2.5 2.5 0 0 1 3 0v5a1.5 1.5 0 0 0 3 0v-3zM15 11h2.5a1.5 1.5 0 0 0 3 0v-2zM15 12.5A1.5 0 0 0 1 1.5.5 0 0 0 19.5 18.9v-4a1.5 1.5 0 0 0 1.9-2.93h.014a1.498 1.498 0 0 0 1.003.506A3.5 2.5 0 1 1 20.5 28a2.5 2.5 0 0 1-2.5-2.5v-.036a4.004 4.004 0 0 1-5.926-2.695 4.507 4.507 0 0 1-3.048-3.782L9 19l-.001.001a5.656 5.656 0 0 1-6.378 1.131A13.962 13.962 0 0 1 2 16c0-3.477 1.27-6.659 3.371-9.108zm24.371 11.796A5.002 5.002 0 0 1 23 14a5.002 5.002 0 0 1 5.125-4.998A13.914 13.914 0 0 1 30 16c0 .919-.089 1.818-.258 2.688zM12.976 2.328a4.001 4.001 0 1 1-6.833 3.734 13.977 13.977 0 0 1 6.833-3.734z" fill="#2f1f5d"/></g></svg></svg>
