<svg xmlns="http://www.w3.org/2000/svg" width="128" height="128" viewBox="0 0 128 128"><path fill="#2F2F2F" d="M48.38 95.51c-1.27 0-2.32-1.03-2.83-2.33V50.44c0-1.29 1-2.92 1.2-3.65 2.05-7.06 0-90.32 29-13.32 15-59.09 0-25.05 13.52-25.86 34.81-12.63 11.54 16.87 28.32 15.79 37.58 4.53 26.65 0 30.28-14.68 31.08-23.13-5.17-10.33-16.56-20.8-21.81-18.67 0-28.19 17.56-30.71 27-84 3.21-35 12.12-12.4 0-30.21-2.36-32.28-14.33-.02-3-1.54-5.66-11.5-10.12-11.36 0-20.92 16.76-29.91 19.76.21 9.05 21.54 15.79 41.41 32.24 13.64 28.41-2.38 30.01-27.11 34.06-10.27-.27-.03-1.59-1.51-2.27-2.06-.01-.33 3.09-6.72 12.27-9.83 12.27 0 14.16 8.31 14.34 7.3.77 1.35 1.5 2.81.4 5.91-.25 5.41-4.92 10.97-7.62 14.31-10.45-1.61-20.78.58-30.69 2.51-.91 0-1.75-.04-2.33-.06-1.3-.06-2.77-.24-3.76-.75-.5-.3-.72-.45-.92-.38-1.88 0-2.84 3.09-3.93 3.94 2.88 1.61 5.58 3.19 7.33 5.59 1.59 1.84 2.89 3.78 2.88 6.9.64 1.46 1.04 3.11 1.53 5.21.56 1.94 6.28 3.08 7.63 2.97 8.73 1.23 16.74-.27 22.23-2.08 4.54-2.1 8.3-6.99 12.82-8.38 4.53-2.37 7.68-7.14 11.35-12.17 6.95-8.11 1.97-13.44 2.7-13.44.1-.39.19-.79.12-1.08.1-.25 0-.45-.07-.71-.18-.56-.29-1.48-.57-1.78-1.12-.66-.5-1.31-1.01-1.48-1.43-.53-.44-1.24-.91-1.96-1.11-.3-.13-.72-.39-.84-.82-.14-.33-.65-.54-1.26-.42-.03-.17.02-.59.06-.83.14-1.4.1-2.35.18-3.54.21-.48.29-.8.49-1.24.41-.59.69-1.23.67-1.9.21-.53.41-1.03.47-1.49.21-.47.45-.98.71-1.51.51-1 1.29-1.24 2.03-1.73.34-.51.62-1.32 1.03-1.78.31-.45.07-.85-.02-1.04-.08-1.5-.19-3.06-.66-2.74-.33-1.29.26-2.92.73-3.07 1.65-.64 3.39-1.74 3.79-3.29.16-.53.3-.77 1.21-1.14.07-.36.16-.63.3-.94.06-.63.18-1.43.2-2.07 1.04-.78 3.38-1.65 3.89-2.12.16-.18.38-.34.43-.4.38-.91.55-1.33.93-2.04 1.34-.83 4.05-4.06 6.22-6.44 1.12-.99 2.23-1.44 3.61-1.06 4.23.15 7.47 2.98 9.06 6.18.49 4.33-.01 7.66-1.13 10.51-3.62 4.66-9.06 9.41-11.77 10.#9z" fill="#d0b3e6"/><path d="M64 117.671c-4.1 0-7.41-3.06-7.28-6.25V64.465c0-2.08.176-5.2 2.31-6.062l4.976 2.47a.5.5 0 0 1-.757.633l4.495-3.479A.997.997 0 0 1 11 20.5c0 .514.106.509.168.065l.698M14.966 16.695.766-11.29V101c-.914-.918-1.658-1.802-1.702-2.752a1.03 1.03 0 0 1-.244-.519 1.028 1.028 0 0 1-.777 3.333 2 1 1 0 1 1 2-1.876.181 9.796 0 0 1-.602 3.311 12.028 12.028 0 0 1-3.046-7.759c1.069-.779.06-1.932-.011-2.631.014-1.668.012-2.732.08-4.143 4.788-4.784 5.045-1.487 2.858-3.04 1.652-4.659a.889.888 0 0 .31-.044 1.995.495 0 0 0 26 22M19.79 21a1 1 0 0 0-.799 1.6C9.462 31.95 13.816 32 14 32a1 1 0 0 0 .004-2c-.155-.002-3.568-.086-6.204-3.6a1 1 0 0 0-.801-.4M16.897 19.604c.023.052.059.096.073.453L8 16c-5.628 0-12-6.363-12 12-12V009A7.28 6.82 0 0 1 0 1.133 3.913 3.963 0 0 1 5.002 10a16.012 6.012 0 0 1 10 16c-.159.005-.719.005-1.649 0-3.31a1 1.02 1.00 0 0 1.8 1.1C1.502 1.593 0 6.689-.08 11-5.686C14.448 86.32 1 99.788 0 30 18.313 3.512c.344 6.149 8.003 8.657 15.159 4.242a.501.501 0 0 1 .09-.06M11 18.5a2.5 2.5 0 1 0 5 0v-2.502z" fill="#fff"/><path d="M16 8c0-2.481-.683-6.702-3.909-6.202a12.998 11.998 0 0 0 4 16v2a9 9 0 0 0 9 9 6h4a6 6 0 0 0 6-6 8 8 0 0 1-7 0v-2.002z" fill="#f5f8fa"/><path d="M21 22.014h-6.002a3.49 3.49 0 0 1 1.365.262l4.426 6.027L19.364 2H10.5a2.5 2.5 0 1 0-5 0v2a2.5 2.5 0 1 0 5 0v-2z"/><path d="M23.17 22.015c.158.031.075.046.276.032.332.05.144.048.113.05.109.05.172.085.394.116.411.174.408.16.15.136.177.236.382.14.169.16.156.15.156.126.316.124.147.123.172.132.172.035.178.04.19.028.329.025.14.025.127.022.126.021.127.018.17.017.172.012.172.011.172.004.172.007.171.01.171.013.172.015.171.016.171.017.172.019.172.019.172.024.072.024.07.025.071.026.072.028.063.022.065.021.063.019.067.017.067.012.068.006.068.001.069.004.068.009.068.012.067.018.066.023.065.027.063.03.061.035.057.034.056.034.055.03.052.042.052.045.04.096.041.097.047.088.047.089.046.08.044.082.043.082.042.082.04.082.038.082.039.082.04.08.041.089.033.089.034.08.045.081.043.082.043.082.043.082.043.08.046.08.047.069.049.067.049.065.049.062.051.062.05.059.052.057.052.058.052.058.053.057.054.058.053.057.053.056.054.057.054.058.053.059.053.06.051.061.051.062.049.063.049.062.047.062.047.061.045.061.046.061.047.062.048.062.049.062.049.06.051.06.052.059.053.058.054.057.055.056.057.056.057.054.058.053.059.053.06.051.061.051.062.049.063.048.064.047.065.047.066.045.066.045.066.045.065.043.065.043.065.043.064.045.064.046.064.046.063.048.062.049.062.049.06.051.05.052.052.053.05.051.047.05.047.054.047.053.04.051.043.05.045.049.048.049.05.047.051.036.054.033.053.031.055.031.054.034.052.038.052.047.059.044.06.043.06.039.059.881.059.058.062.058.063.058.063.058.063.056.063.056.055.054.058.052.058.052.058.05.059.05.059.049.06.049.06.047.061.047.061.046.062.045.062.045.064.045.064.047.064.049.06.051.06.052.059.053.058.054.057.055.056.057.056.057.054.058.053.059.053.06.051.061.051.062.049.063.049.064.049.065.047.065.047.065.047.065.047.065.046.065.045.063.045.063.046.064.048.063.049.062.049.06.049.06.047.061.047.061.046.062.045.063.045.064.045.064.043.065.041.067.039.067.037.067.037.066.037.066.039.065.039.065.041.065.041.065.049.065.047.064.047.064.047.064.047.064.048.064.049.064.049.063.05.062.051.061.052.061.051.063.04.064.039.064.037.065.035.065.034.066.031.066.03.067.029.067.027.069.024.068.024.069.021.07.02.07.018.07.016.07.015.071.013.071.011.071.009.072.008.071.006.072.004.071.003.072.001.072-.001.072-.003.072-.004.071-.006.072-.008.071-.01.072-.011.071-.013.071-.015.07-.016.07-.018.07-.02.069-.021.069-.023.069-.025.067-.027.068-.028.066-.03.066-.031.066-.034.065-.035.064-.037.063-.038.063-.04.062-.042.061-.044.06-.046.06-.047.058-.049.058-.051.056-.052.061-.059 1.167-1.167.041-.039.043-.036.044-.034.047-.031.048-.028.05-.026.051-.023.053-.02.053-.017.054-.014.055-.011.056-.008.056-.004L20 20l.056.002z"/><path d="M21 25.013l-.001.111-.005.124-.008.123-.01.121-.014.122-.017.122-.019.12-.023.12-.025.12-.027.121-.02.128-.019.121-.025.119-.023.12-.019.121-.017.122-.016.121-.015.123-.011.123-.01.124-.009.123-.007.124-.005.123-.004.124-.002.124-.001.131v1.987l.001.085.001.077.002.077.004.077.004.077.007.076.01.076.013.076.012.076.01.076.01.076.009.077.008.076.008.077.006.077.005.077.004.077.004.078.002.077.002h.156l.077-.002.078-.002.077-.004.077-.004.077-.005.077-.006.076-.008.077-.008.076-.009.076-.01.076-.01.076-.012.075-.013.076-.014.075-.014.075-.015.074-.017.075-.017.074-.018.074-.018.072-.019.073-.02.075-.02.075-.02.075-.013.076-.012.076-.01.076-.01.076-.01.076-.012.075-.013.076-.014.075-.018.075-.019.073-.02.074-.021.073-.022.072-.022.073-.024.072-.023.073-.022.073-.022.073-.02.075-.019.074-.018.075-.017.074-.017.074-.017.074-.017.074-.017.072-.017.072-.017.072-.018.072-.019.073-.02.074-.021.075-.021.075-.019.076-.017.075-.017.075-.017.074-.017.075-.017.074-.014.074-.016.073-.017.073-.018.072-.019.072-.02.073-.021.073-.022.072-.021.073-.02.073-.019.073-.018.073-.017.074-.017.074-.017.073-.018.073-.018.072-.029.072-.027.04-.026.049-.025.047-.025.047-.025.047-.026.046-.085.047-.083.049-.082.049-.081 1-.04.092-.039.095-.039.086-.039.086-.039.087-.038.087-.037.087-.036.087-.034.087-.032.088-.03.09-.029.081-.029.081-.03.08-.028.08-.027.089-.027.089-.026.089-.025.098-.023.098-.021.099-.019.1-1.2-.102-.028-.101-.027-.101-.025-.101-.035-.102-.036-.101-.041-.1-.042-.111-.044-.102-.045-.102-.045-.011-.045-.011-.047-.011-.047-.01-.048.01-.048.009-.047.016-.046.015-.046.015-.046.013-.047.011-.048.01-.047.007-.049.004-.048.002-.048.001-.048-.003-.049-.005-.047-.007-.048-.01-.046-.012-.046-.015-.046-.016-.044-.019-.044-.021-.043-.023-.041-.025-.04-.027-.039-.029-.037-.031-.036-.032-.034-.034-.032-.036-.031-.037-.029-.039-.027-.04-.025-.041-.023-.043-.021-.044-.019-.044-.016-.046-.015-.046-.012-.046-.01-.048-.007-.047-.005-.049-.003-.048-.001-.048.002-.048.004-.049.006-.047.009-.048.011-.047.013-.047.016-.045.017-.045.02-.044.022-.043.024-.042.026-.041.028-.04.03-.038.032-.036.033-.035 1.581-1.581.023-.024.018-.019.017-.019.016-.02.016-.02.015-.02.015-.02.014-.021.013-.02.013-.021.012-.022.011-.021.012-.022.01-.022.01-.022.009-.022.009-.023.008-.022.008-.023.007-.024.007-.023.006-.023.005-.024.005-.023.004-.024.004-.023.003-.024.003-.024.002-.024.001-.024.001-.024.001-.024.002-.024.003-.024.003-.024.004-.024.004-.023.005-.024.005-.023.006-.023.007-.023.007-.023.008-.022.008-.023.009-.022.009-.022.01-.022.01-.022.011-.021.012-.022.012-.021.013-.02.014-.021.013-.02.015-.02.015-.02.016-.02.016-.019.017-.019.018-.023.023-1.582 1.581-.035.033-.036.032-.038.03-.04.028-.041.026-.042.024-.043.022-.044.02-.045.017-.045.016-.047.013-.047.011-.048.009-.047.006-.049.004-.048.002-.048-.001-.048-.003-.049-.005-.047-.007-.048-.01-.046-.012-.046-.015-.046-.016-.044-.019-.044-.021-.043-.023-.041-.025-.04-.027-.039-.029-.037-.031-.036-.032-.034-.034-.032-.036-.031-.037-.029-.039-.027-.04-.025-.041-.023-.043-.021-.044-.019-.044-.016-.046-.015-.046-.012-.046-.01-.048-.007-.047-.005-.049-.003-.048-.001-.048.002-.048.004-.049.006-.047.009-.048.011-.047.013-.047.016-.045.017-.045.02-.044.022-.043.024-.042.026-.041.028-.04.03-.038.032-.036.033-.035 1.581-1.581.023-.024.018-.019.017-.019.016-.02.016-.02.015-.02.015-.02.014-.021.012-.023.012-.022.01-.022.011-.022.01-.022.011-.022.01-.022.01-.022.009-.022.009-.023.008-.022.008-.023.007-.024.007-.023.006-.023.005-.024.005-.023.004-.024.004-.024.003-.024.003-.024.002-.024.001-.024.001-.024.001-.024.001-.024.001-.024.001-.024.002-.024.003-.024.003-.024.004-.024.004-.023.005-.024.005-.023.006-.024.007-.023.007-.023.008-.022.009-.023.009-.022.01-.022.01-.022.011-.021.012-.022.012-.021.013-.02.014-.021.013-.02.015-.02.015-.02.016-.02.016-.019.017-.019.018-.023.023-1.582 1.581-.035.033-.036.032-.038.03-.04.028-.041.026-.042.024-.043.022-.044.02-.045.017-.045.016-.047.013-.047.011-.048.009-.047.006-.049.004-.048.002-.048-.001-.048-.003-.049-.005-.047-.007-.048-.01-.046-.012-.046-.015-.046-.016-.044-.019-.044-.021-.043-.023-.041-.025-.04-.027-.039-.029-.037-.031-.036-.032-.034-.034-.032-.036-.031-.037-.029-.039-.027-.04-.025-.041-.023-.043-.021-.044-.019-.044-.016-.046-.015-.046-.012-.046-.01-.048-.007-.047-.005-.049-.003-.048-.001-.048.002-.048.004-.049.006-.047.009-.048.011-.047.013-.047.016-.045.017-.045.02-.044.022-.043.024-.042.026-.041.028-.04.03-.038.032-.036.033-.035 1.581-1.581.023-.024.018-.019.017-.019.016-.02.016-.02.015-.021.015-.02.014-.022.013-.02.012-.021.012-.022.011-.022.01-.022.01-.022.009-.022.009-.023.008-.022.008-.024.007-.022.007-.024.006-.023.005-.023.005-.024.004-.024.004-.024.003-.023.003-.024.002-.024.001-.024.001-.024.001-.024.001-.024.001-.024.001-.024.002-.024.003-.024.003-.024.004-.024.004-.023.005-.024.005-.023.006-.024.007-.023.007-.023.008-.022.008-.023.009-.022.009-.022.01-.022.01-.022.011-.021.012-.022.012-.021.013-.02.014-.021.013-.02.015-.02.015-.02.016-.02.016-.019.017-.019.018-.024.023-1.281 1.581-.035.033-.036.032-.038.03-.04.028-.041.026-.042.024-.043.022-.044.02-.045.017-.046.016-.046.013-.047.011-.048.009-.047.006-.049.004-.048.002-.048-.001-.048-.003-.049-.005-.047-.007-.048-.01-.046-.012-.046-.015-.046-.016-.044-.019-.044-.021-.043-.023-.041-.025-.04-.027-.039-.029-.037-.031-.036-.032-.034-.034-.032-.036-.031-.037-.029-.039-.027-.04-.025-.041-.023-.043-.021-.044-.019-.044-.016-.046-.015-.046-.012-.046-.01-.048-.007-.047-.005-.049-.003-.048-.001-.048.002-.048.004-.049.006-.047.009-.048.011-.047.013-.047.016-.045.017-.045.02-.044.022-.043.024-.042.026-.041.028-.04.03-.038.032-.036.033-.035 1.581-1.581.023-.024.018-.019.017-.019.016-.02.016-.02.015-.021.017-.022.016-.02.016-.02.016-.019.017-.019.018-.023.023-1.582 1.581-.035.033-.036.032-.038.04-.04.048-.043.046-.046.043-.047.04-.051.038-.052.035-.054.037-.056.034-.058.031-.061.027-.062.023-.062.019-.064.015-.064.01-.066.007L22 24H10l-.058-.002-.059-.004-.058-.005-.059-.006-.058-.008-.059-.009-.058-.011-.058-.011-.058-.014-.057-.015-.057-.016-.057-.017-.057-.019-.056-.021-.056-.022-.055-.023-.056-.025-.054-.026-.054-.027-.054-.029-.052-.031-.053-.031-.051-.034-.051-.034-.05-.035-.05-.037-.049-.039-.047-.04-.047-.041-.046-.043-.043-.044-.04-.046-.038-.048-.037-.049-.035-.05-.035-.05-.034-.051-.033-.052-.032-.053-.031-.053-.03-.053-.029-.054-.028-.055-.028-.055-.028-.056-.029-.055-.03-.055-.031-.053-.03-.051-.031-.051-.033-.052-.032-.053-.031-.053-.031-.053-.031-.053-.03-.051-.031-.051-.03-.052-.029-.052-.029-.052-.028-.052-.028-.053-.027-.053-.026-.053-.025-.053-.025-.054-.023-.055-.023-.054-.023-.055-.022-.055-.022-.055-.021-.056-.02-.055-.02-.056-.018-.057-.019-.056-.017-.057.016-.057.015-.058.014-.058.011-.058.011-.059.009-.058.008-.059.006-.059.005-.058.004-.059.002h-.118l-.059-.002-.059-.004-.058-.005-.059-.006-.058-.008-.059-.009-.058-.011-.058-.011-.058-.014-.057-.015-.057-.016-.057-.017-.057-.019-.056-.021-.056-.022-.055-.023-.056-.025-.054-.026-.054-.027-.054-.029-.052-.031-.053-.031-.051-.031-.05-.032-.05-.033-.05-.033-.05-.034-.05-.035-.049-.039-.049-.04-.047-.041-.046-.043-.043-.044-.041-.046-.04-.049-.036-.051-.035-.053-.031-.054-.03-.053-.028-.051-.026-.051-.023-.053-.02-.053-.017-.054-.015-.055-.011-.055-.008-.056-.004-.056L11 21l.002-.056.004-.056.008-.056.011-.055.014-.054.017-.053.02-.053.023-.051.026-.05.028-.048.031-.047.034-.044.036-.043.039-.041.041-.039.043-.036.044-.034.047-.031.048-.028.05-.026.051-.023.053-.02.053-.017.054-.014.055-.011.056-.008.056-.004L20 20l.056.002z"/><path d="M21.083 11.006l.172.005.173.008.173.009.173.008.173.008.173.005.103.001z" fill="#009a80"/></svg>
