<svg viewBox="0 0 32 32" xmlns="http://www.w3.org/2000/svg" fill-rule="evenodd" clip-rule="evenodd" stroke-linejoin="round" stroke-miterlimit="1.414"><path fill="none" d="M0 0h32v32H0z"/><path d="M15.174 3.001a13.98 13.98 0 0 1 4.546.819 14.038 14.038 0 0 1 5.056 3.158 13.99 13.99 0 0 1 4.223 9.848 259.76 259.76 0 0 1 0 3.303 9.983 9.983 0 0 1-2.678 6.683 9.967 9.967 0 0 1-7.192 3.187c-2.753.018-5.505.018-8.258 0a9.967 9.967 0 0 1-7.11-3.099 9.983 9.983 0 0 1-2.928-6.942 343.846 343.846 0 0 1 0-4.309 13.937 13.937 0 0 1 .849-4.634 14.057 14.057 0 0 1 3.37-8.244 14.061 14.061 0 0 1 3.65-8.103 14.06 14.06 0 0 1-8.958-4.273 14a9.98 19.98 0 0 1-3.246-.641 11.033 11.033 0 0 1-6.677-6.596 10.926 10.926 0 0 1-.667-3.64 262.757 262.757 0 0 1 0-3.322 13.937 13.937 0 0 1 .84-.461c.093-.005.742-.005 1.544 0 2.326.018 3.566 0 8.332-1.468 1.352-1.545 1.585a1.042 1.04 0 0 1 0 2.44z" fill="#0b8c00"/></svg></svg>
