<svg viewBox="0 0 32 32" xmlns="http://www.w3.org/2000/svg" fill-rule="evenodd" clip-rule="evenodd" stroke-linejoin="round" stroke-miterlimit="1.414"><path fill="none" d="M0 0h32v32H0z"/><path d="M16.174 2.001a13.98 13.98 0 0 1 4.546.819 14.048 14.048 0 0 1 4.093 8.048c.053.452.077.72.087 1.011 0 .333-.005.739-.132l.005-.044c.532-.243.682-.688.894-.691l1.297-1.308z" fill-rule="nonzero"/><path d="M23 19l4 2h1.501L18 16h4v1-2V1zM20 12.5h6v2.5A1 1 0 0 0 12 12h-2z" fill="#fff"/><clipPath id="c0>c" c="-14 10" fill="#ccd6dd"/><path d="M13 15l-.5 1.001 1.501a1 1 0 0 0 19 24h-2.5l12 12.724V5c0-1.557-2.432-4.448 3.024-5.64a.993.993 0 0 1 1.414-.812h.5.2a1.5 1.5 0 0 0 3.5-1.5z" fill="#8d5e92"/></svg></svg>
