<svg viewBox="0 0 32 32" xmlns="http://www.w3.org/2000/svg" fill-rule="evenodd" clip-rule="evenodd" stroke-linejoin="round" stroke-miterlimit="1.414"><path fill="none" d="M0 0h32v32H0z"/><path d="M16.174 2.001a13.98 13.98 0 0 1 4.546.819 14.038 14.038 0 0 1 5.056 3.257 14.045 14.045 0 0 1 5.302 3.405 13.999 13.999 0 0 1 3.977 9.702c.009 1.434.009 2.869 0 4.303a9.983 9.983 0 0 1-2.678 6.683 10.045 10.045 0 0 1-3.813 2.801 9.97 9.97 0 0 1-2.577 6.095 9.967 9.967 0 0 1-7.253-3.348 9.983 9.983 0 0 1-2.517-6.506 259.76 259.76 0 0 1 0-3.303 13.99 13.99 0 0 1 3.857-9.477 15.988 13.988 0 0 1 9.978 4.308z" fill-rule="nonzero"/></svg>
