<svg xmlns="http://www.w3.org/2000/svg" width="128" height="128" viewBox="0 0 128 128"><path fill="#FCC21B" d="M64 17.43C1.89 17.63.11 83.65.43 93.17c0 13.87 28.47 24.94 63.59 24.94 35.12 0 63.59-11.17 63.59-24.96 0-13.78-1.47-83.42-63.59-83.42z"/><path fill="#FFF" d="M105.61 77.21c-3.36 0-6.69-.45-10.54-3.41 0-2.33 1.44-4.11 4.05-3.07 1.74-.6 5.64 1.73 6.04 2.35-.34.83-.8 1.45-1.45 2.03-1.51 7.43.73 10.47 5.61 10.15 4.85.21 10.39-2.71 16.77-5.66 1.09-.35 1.98.8 1.38 1.45l7.06 1.05-.01-.08sm0a2 12.16 53.85 0 12.88 0 25.02 16.2 28.96 46.64s18.53 4.75-29.47 20.41c-2.27 0-4.07-2.03-2.05-2.34.33-3.57-2.81-2.07-6.46.01-.25.03-.48.03-.73.17-1.07.01-2.09.01-2.53-.01-9.3-.84-2.78-1.65-5.08-1.73-7.64.74-4.33 2.33-7.03 1.73-10.52-.45-3.65-1.73-7.44-6.02-10.33-2.35-2.31-5.31-3.64-5.89-5.48-2.33-.81-4.93 1.03-7.19 1.05-3.7 3.7-8.23 10.08-7.61 10.81z"/><path fill="#FAAC22" d="M30.51 88.64c-4.87 1.78-10.25-.72-12.04-5.63-1.77-4.81.71-10.03 6.54-12.76 5.8-1.83 11.4.75 12.3 6.53 1.87 5.14-.82 10.89-6.04 12.76z"/><path fill="#F9A324" d="M27.86 68.83c-5.59 1.93-11.54-.83-13.5-6.11-1.93-5.11.82-11.32 6.67-13.13 5.37-1.93 11.2.74 12.92 5.91 1.86 5.57-.81 11.2-6.2 13.13z" fill="#f99a26"/><path d="M64.42 77.78c-1.34 0-2.68-1.01-3.55-3.61a3.009 3.009 0 0 1-3.55-.05l-1.02 1.01a2.103 2.103 0 0 0-1.49-2.73l14.39-6.49c.4-1.41.53-2.77.77-3.04l7.94-1.07a2.14 2.14 0 0 0 1.28-4.09l-9.06-1.09a2.154 2.154 0 0 1 .66-2.47c1.11-.17 2.61.67 3.63 1.96.28 1.64-.56 3.22-1.97 3.16-.07.01-5.11-4.61-9.45-8.19-9.1 0-13.17 4.87-15.71 10.37-29.15 5.1-3.69 13.52 1.05 26.73 12.23 5.14 12.28-1.73 24.6-13.41 26.69z"/><path fill="#FCBE1C" d="M86.11 91.72c-7.9-2.68-16.7-5.09-18.56 7.08-2.65 4.71-11.03 17.66-10.2 21.86-.13 3.18.01 6.2 2.21 8.32 3.47 1.62 8.69-.42 13.67-1.51 9.79-5.77 4.63-18.59 9.09-24.72l-110.01-7.65c-.83.21-13.52-1.55-19.57-1.75-1.23-.42-2.72-.61-3.65-1.48-1.15-1.61-2.23-4.27-.82-6.4 1.41-8.34 2.16-9.47 2.67-.33.08-.67.2-1.25.64zm-8.48-10.63c-.09-.07-1.25-1.26-2.11-28.153.58-56.19a4.985 9.986 0 0 0-4.33-.03z" fill="#e0e0e0"/></svg>
