<svg viewBox="0 0 32 32" xmlns="http://www.w3.org/2000/svg" fill-rule="evenodd" clip-rule="evenodd" stroke-linejoin="round" stroke-miterlimit="1.414"><path fill="none" d="M0 0h32v32H0z"/><path d="M16.174 2.001a13.99 13.99 0 0 1 9.356 3.122 14.049 14.049 0 0 1 3.38-8.031 14.05 14.05 0 0 1 .679 4.343 14.048 14.048 0 0 1 8.492-8.394 13.992 13.992 0 0 1 4.382-3.658 14.04 14.04 0 0 1 8.498-8.394 13.965 13.965 0 0 1 4.472-.791h.354z" fill-rule="nonzero"/><path d="M28 16c0-3.183-1.264-6.235-3.515-8.485A11.996 11.996 0 0 0 16 4C9.373 4 4 9.373 4 16v4a8 8 0 0 0 8 8h8a8 8 0 0 0 8-8v-4z" fill="#fbc546"/><path d="M28.236 18.371a4.475 4.475 0 0 1-.06 4.017H27v.234a3.478 3.478 0 0 1-2.547 1.973 6.491 6.491 0 0 1-2.328-3.118 4.517 4.517 0 0 1 5.042 0M20.085 3.365a.501.501 0 0 1-.635.03c-.039-.03-3.922-2.9-8.7-2.9-4.766 0-8.662 2.87-8.7 2.9a.5.5 0 1 1-.729-.655c.013-.019.115-.911.262-.908a.99.99 0 0 0 .706-.207h-1.802z" fill="#b81d4e"/></svg>
