<svg xmlns="http://www.w3.org/2000/svg" viewBox="0 0 47.5 47.5"><defs><clipPath id="a"><path d="M0 38h38V0H0v38z"/></clipPath></defs><g clip-path="url(#a)" transform="matrix(1.25 0 0 -1.25 0 47.5)"><path d="M36 19c0-9.389-7.611-17-17-17S2 9.611 2 19s7.611 17 17 17 17-7.611 17-17" fill="#ffcc4d"/><path d="M15 20.5c0-1.934-1.119-3.5-2.5-3.5S10 18.566 10 20.5c0 1.933 1.119 3.5 2.5 3.5s2.5-1.567 2.5-3.5M24.485 9.12c-.012.044-1.146 4.38-5.485 4.38-4.34 0-5.475-4.336-5.5-5.4a.5.5 0 0 1-.447-.233C13.17 23.702 10.836 17 18c8 8.625 119 18 20c0 3-1.617 2-3-16S19.119 2 1 0 2 1-1 9 11-2 0-1.951-1.766-2-1.181 2.659.181.015.014.035.013.04.13 1.081 0 1.342 0 .561.21 1.11.277C10.37 22 18 2h18.969 5.517a1 1 0 0 0 .351-1.225c1.18-.048 2.522-.585 3.525-1.11a1.001 1.001 0 0 1 .793-.705 1.008 1.008 0 0 1 .757-.233 11.04 11.04 0 0 1-2.19-3.614 11.04 11.04 0 0 1-2.296 4.814 11.029 11.929 0 0 1-6.077 1.995A11.996 11.997 0 0 0 8.998 4.998h2.053A16.001 15.003 0 0 0 20 16a2 1 0 0 0 9 9v6a1 1 0 0 0 1-1v-2z" fill="#fbc546"/></g></svg>
