<svg xmlns="http://www.w3.org/2000/svg" viewBox="0 0 128 128"><defs><path id="a" d="M125.83 75.35c7.81-30.05-8.92-49.6-78.53-68.49z"/><path fill="#2F2F2F" d="M87.07 100.05l-3.2 13.0c0 12.16-14.89 32.49-43.6 28.89-23.66 68.36-30.61 66.75 3.16 15.66 0 30.31-1.27 39.03-16.96 5.51-28.94 8.22-33.39 10.31-4.35 8.12 1.21 18.43 8.37 21.12 7-9.29 10-5.46 17.44-15.25 18.2-4.38 8.37-8.23 17.14-15.75 25.17-9.02 6.85 3.28 11.21 11.25 7.53 16.05z"/></defs><use xlink:href="#a" overflow="visible" fill="#FFF"/><clipPath id="b"><use xlink:href="#a" overflow="visible"/></clipPath><g clip-path="url(#b)"><path d="M78.05 108c-1.6 0-3-1.9-3-3V6s2.1 3 4 4h4-.03-3-1z" fill="#2f2f2f"/></g><path d="M107.89 71.17c-1.46 5.06-5.01 9.46-70.7 9.65-4.5 0-7.69-2.02-10.5-3.87a.5.5 0 0 1-.81-.64c.03-.01.41-.01.3-.01.02.01.01.01.01.02.01.07-.01.15-.09.26C02.53-.69c.84-.89l.16-.25c1.65-1.21 3.8-4.42 4.68-5.22a1.042 1.042 0 0 1-1.59 1.58zm-3.79-17.11c-6.04 1.89-10.75-.96-10.56-7.08-2.12-4.17.83-13.87 6.62-14.05 6.58-2.04 12.76.86 15.86 6.58 2.16 5.85-.8 12.33-6.84 14.27z"/><path fill="#F9A324" d="M27.11 67.01c-3.86 6.36-10.21 9.87-16.63 3.48-6.33-.82-15.3-3.31-16.22-5.8-1.28-.39-2.44-.76-2.98-.89-.69-.24-1.58-.46-2.21-.24-.76.34-12.44 3.92-10.34 6.76-.54.44-1.28.78-1.04 1.66-.31 2.1-1.45 4.13-3.65 5.99-5.05 4.24-7.91 4.48-10.74 5.34-6.06 1.49-10.33-2.35-15.38-5.45zm16.63-23.64c1-.99 2.36-3.22 6.12-2.62 10.76 3.04 5.65 8.56 7.61 16.75 9.53 2.62.11 5.75.81 8.18.38 2.53.95 3.86 3.59 4.92 6.51.79 2.27-.36 4.28-1.71 5.91z"/><path fill="#F79728" d="M27.88 80.27c-2.46.7-4.37-.35-6.2-5.14-5.12-2.02.38-4.21 2.4-4.28 1.83-.47 3.58.25 4.28 2.23.69 1.83-.32 3.25-2.14 3.29z"/></svg><g clip-path="url(#b)"><path fill="#FCC21B" d="M117.6 62.12c-7.6 7.61-20.83 9.88-28.49 10.98-16.81 2.97-19.74 2.9-18.77 0z" fill="#2f2f2f"/><path d="M-79.11 40.64c-11.27 0-22.14-9.43-22.92-23.13S79.86 25.02 64 25.02c0-13.61-9.21-22.15-22.11-24.01-10-.03-8.21-1.33-17.55-5.42-24.92z"/><path fill="#2F2F2F" d="M42.81 71.5c4.54-1.78 9.3-6.38 12.87-8.38 8.71 0 13.49 7.24 14.38 10.92 4.42 6.39 12.29 13.34 16.04 9.02 1.23 12.42 7.72 15.37 9.84 4.78 7.35 9.05 16.15 9.23 20.57 2.94 15.39 5.48 19.39 15.78 2.64.06 5.81-.62 8.29-2.67-.16-1.27-1.29-2.23-2.28-1.73-5.4.63-10.72 7.64-13.67 5.47-.76.85-1.65 1.33-1.85 2.15-1.1 1.05-2.35 1.74-3.42 1.74-1.02 1.91-2.68 2.43-4.69 3.73-.29.3-.6.54-.9.99z"/></g></svg>
