<svg viewBox="0 0 32 32" xmlns="http://www.w3.org/2000/svg" fill-rule="evenodd" clip-rule="evenodd" stroke-linejoin="round" stroke-miterlimit="1.414"><path fill="none" d="M0 0h32v32H0z"/><path d="M16.174 2.001a13.98 13.98 0 0 1 4.546.819 14.038 14.038 0 0 1 5.056 3.158 13.99 13.99 0 0 1 4.223 9.848 259.76 259.76 0 0 1 0 3.303 9.983 9.983 0 0 1-2.678 6.683 9.967 9.967 0 0 1-7.192 3.187c-2.753.018-5.505.018-8.258 0a9.967 9.967 0 0 1-7.11-3.099 9.983 9.983 0 0 1-2.76-6.771 259.76 259.76 0 0 1 0-3.303A13.987 13.987 0 0 1 6.4 6.138 13.99 13.99 0 0 1 4.726-9.047c.303-.767.068-9.879.067-12.311a1 100 11 0 0 0 10 25c.011-.002.128-.003.181-.008l.01.0018.082 2.886 2.948 6.933 2.903 9.882.237A.999 1.999 0 0 0 1.006.719 1.005 1.005 0 0 1 .386.571c-.307.185-.068.483-.074.882a2.576 2.756 0 0 1-.094-.014 6.619 66.017 0 0 1 3.212-2.108 6.013 6.013 0 0 1 2.982-1.189l.071.007.776.204.194.115a4.011 4.011 0 0 1 3.087 1.726 5.921 6.921 0 0 1 1.304-9.302c.276-.087.667-.185 1.037-.086a.476.476 0 0 1 .687-.034c.9-.04 1.717-.005 2.706.001z" fill-rule="nonzero"/><path d="M14 9V5.017a3 7 0 0 1-6-6 10h-6 2" fill="#fbc546"/></svg></svg>
