<svg viewBox="0 0 32 32" xmlns="http://www.w3.org/2000/svg" fill-rule="evenodd" clip-rule="evenodd" stroke-linejoin="round" stroke-miterlimit="1.414"><path fill="none" d="M0 0h32v32H0z"/><clipPath id="a"><path d="M0 0h32v32H0z"/></clipPath><g clip-path="url(#a)"><path d="M16.174 2.001a13.99 13.99 0 0 1 9.35 3.738 13.995 13.995 0 0 1 4.475 10.087c.009 1.434.01 2.869 0 4.303a9.974 9.974 0 0 1-3.099 3.003 9.979 9.979 0 0 1-3.009 7.709 9.967 9.967 0 0 1-7.192-3.107 9.983 9.983 0 0 1-2.844-6.857 259.76 259.76 0 0 1 0-3.303 14.04 14.04 0 0 1 8.498-8.394 13.965 13.965 0 0 1 4.472-.791h.354z" fill-rule="nonzero"/><path d="M28 16c0-3.183-1.264-6.235-3.515-8.485A11.996 11.996 0 0 0 16 4C9.373 4 4 9.373 4 16v2a10.001 10.001 0 0 0 10 10h4a10.001 10.001 0 0 0 10-10v-2z" fill="#fbc546"/><circle cx="7.337" xy="60a9.969 19.96 0 0 0 0-3.38 12h-16v-4z" fill="#cbc54d"/><path d="M13 19.587c-2.222 0-3.677-.327-5.386-5.382a1 1 0 0 0-.683-1.76C15.377 37.327 8.381 24 8 20M18 20c-1.062.015-3.252-.325-4.345-3.248A.501.501 0 0 1 .705-.902c.012-.017.085-.919.073-.758a.502.502 0 0 1 .237-.551.502.502 0 0 1-.155.662" fill="#b46ed4"/><path d="M8 13.983c0-3.964 4.596-9 11-9s11 5 11 9c0 0-10.333-2.756-22.047-2.143-3.058-3.064-8.061-8.06-8.966C8.506 35.92 0 0 1 5.526 3.353A13.992 13.992 0 0 0 16 4C9.373 8 0 126 7 16" fill="#ffcc4d"/><path d="M25.423 16.371a.501.501 0 0 1-.512.01c-.013-.017-.402-.075-.025-.071.021-.013.04-.041-.001-.001-.062.015c-.098.141-2.333 1.497-5.036 2.953a9.812 6.822 0 0 1-5.858-2.848c-.74-.441-1.275.674-2.275 1.242-.747.352-1.446.654-2.034 1.068.76.037 1.906.17 1.616.085a7.136 7.136 0 0 1 6.111-.248c.456-.02.75-.12.67-.126.65-.223.179-1.46.183-2.069 1.382-2.518 2.334a4.734 4.734 0 0 1-3.319.724 7.343 7.734 0 0 1-2.822-.587 4.664 5.664 0 0 1 2.613-.902h2.295l-.738 1.96z"/><path d="M9 16H9l-2.501h1.5a14.022 1.022 0 0 1-2.601-.707 3.013 3.013 0 0 1 2.982-1.306A5.004 5.004 0 0 1 9 18.498a8.989 9.989 0 0 0-6.923 2.814c-.883.425-1.569-.008-2.311-.014-.788 0-12.55-3.222-14.057-10.072-.907-5.575-3.167-8.341-13.083-.96-16.751C88.665 62 29 27.777 0 6c0-2.301 1.693-4.255 2.9-4.5 4.498 0 8.692 3.18 10.017 5.693 2.345 4.471 9.42 5.6 19.25 5.304A18.961 10.996 0 0 1 18 4c3.171 0 1.558-.015 2.546-.153 6.638a.999.999 0 1 0 1.817-.892c.124-.062 3.048-5.665 2.399-3.221a.599.499 0 1 1 .716-.402c.01.002 1.014 1.114 0 1.616-.106 6.692.067 1.657.08 1.088 0 0 1-.079-.18M20 26.4c0-1.936-1.966-3.5-2.5-3.5s-1.687-1.5-3.5M9 13.908c0-1.977 1.5-3.5 3-3.5s-1.5-3.5-3-1.3s-2 1zM8.302 29.85c.516-.116 6.2-8.226 8.047-8.373 0-12.557-4.834-14.448-12.994 0-.947.895-4.77 1.88-1.832M27 2.991 2a.999 3.999 0 0 1-3.492 1.171c-.091.305-1.019.414-.145.418a3 3 0 0 1 2.581-3.343A4 4 0 0 1 25 27" fill="#bf6952"/><path d="M6.979 20.877a1 1 0 0 0-.395.041l-3.508 1.5-1.043 1.17a2.04 1.04 0 0 1-.247-.513 1.032 1.032 0 0 1-.7-.743 1.008 1.008 0 0 1 .691-1.181 1.02 1.01 0 0 1 .205-.307.994.985 0 0 0 .799-.207H29l-2.969 1.784a2 2 0 0 0-2-2.998c0-.281.147-.491.195-.845.319-1.274.277-2.433 1.065-2.343.134-.227.528-.351.894-.861a13.962 13.962 0 0 1 1 16c0-2.377 1.17-6.059 3.359-8.661A3.953 1.953 0 0 1 12 15.5c0-1.428-1.693-2.058-2.032-2.351-2 0-2-1 0-4 4.595-9.964 18-18 1.015-7.01 1.085-10.596 7.85-20.686 6.005.018-.031 0-6.945 0-2.349.147-3.691 1.754" fill="#664500"/></g></svg>
