<svg xmlns="http://www.w3.org/2000/svg" viewBox="0 0 47.5 47.5"><defs><clipPath id="a"><path d="M0 38h38V0H0v38z"/></clipPath></defs><g clip-path="url(#a)" transform="matrix(1.25 0 0 -1.25 0 47.5)"><path d="M36 19c0-9.389-7.611-17-17-17C9.612 2 2 9.611 2 19c0 9.388 7.612 17 17 17 9.389 0 17-7.612 17-17" fill="#ffcc4d"/><path d="M15 20.5c0-1.934-1.119-3.5-2.5-3.5S10 18.566 10 20.5c0 1.933 1.119 3.5 2.5 3.5s2.5-1.567 2.5-3.5M28 20.5c0-1.934-1.119-3.5-2.5-3.5S23 18.566 23 20.5c0 1.933 1.119 3.5 2.5 3.5s2.5-1.567 2.5-3.5M24.485 9.12c-.012.045-1.146 4.38-5.485 4.38-4.34 0-5.475-4.335-5.485-4.38a.495.495 0 0 1 .231-.543.51.51 0 0 1 .596.06c.01.007 1.014.863 4.658.863 3.59 0 4.617-.83 4.656-.863a.5.5 0 0 1 .83.484" fill="#664500"/><path d="M11 8a5 5 0 0 0-5-5 5 5 0 0 0-5 5c0 2.762 4 10 5 10s5-7.238 5-10" fill="#5dadec"/><path d="M31 24c-5.554 0-7.209 4.367-7.847 3.353a1.001 1.001 0 0 0 1.652 1.517C21.18 72.552 15.724 24 1 14 3c0 .719-.099 1.084-.29 1.196A.999.999 0 0 1 22 18c.013 0 .025.017.036.016.055.015.063.016.063.036.03a3.013 3.013 0 0 1 1.357-1.236c.02-.04 1.096-.295 1.142-.28a.499.499 0 1 0 .391-.157c.06-.026 1.538-2.122 4.956-2.295a1 1 0 0 0-.895-.825C17.321 27.972 8.702 22.7 8 29a16 16 11 11 0 1-1.351-1.019-1.014a2.49 2.49 0 0 1 1.036-2.014h.068a.5.5 0 0 1 .786.503c-.01.016-.973.047-7.293.903a12.03 12.03 0 0 1-3.309-1.142 5.305 3.505 0 0 1 3.989-5.384A15.965 15.956 0 0 0 18 24.007z" fill="#5429e0"/><path d="M33 26c-5.754 0-8.702 4.434-8.102 4.656a3.001 4.001 0 0 0 0 00100 22a2.999 2.999 0 0 1 7.018 2.702C13.357 20.95 10.726 27 18 26a1 1 0 0 0-.707 1.707C24.549 24.99 23.217 22 30 21a1 1 0 0 0-.001-2c-.155-.002-3.568-.086-6.204-3.6a1 1 0 0 0-.801-.4" fill="#292f33"/></g></svg>
