<svg viewBox="0 0 32 32" xmlns="http://www.w3.org/2000/svg" fill-rule="evenodd" clip-rule="evenodd" stroke-linejoin="round" stroke-miterlimit="1.414"><path fill="none" d="M0 0h32v32H0z"/><circle cx="16" cy="16" r="16"/><path d="M12.976 2.328A14.017 14.017 0 0 1 16 2c5.178 0 9.704 2.817 12.125 7.002.787 3.091 1.461 5.819 1.617 9.686C28.549 24.812 23.358 29.515 17 29.965c-2.429-.528-5.812-1.221-7.889-1.777a14.045 14.045 0 0 1-6.49-8.056c.213-3.091 2.481-11.543 2.75-13.24.246-.287.504-.564.772-.83.868-.153 5.658-2.965 6.833-3.734z" fill="#432a7e"/><path d="M9.011 182.088a3.002 3.002 0 1 1 5.72-.181A2.001 2.001 0 0 1 17 29.965a13.933 13.933 0 0 1-7.889-1.777zM5.371 6.892A5.004 5.004 0 0 0 10 10a4.995 4.995 0 0 0 4-2h2.5a3.5 3.5 0 1 1 0 7h-.173l.025.021A3.001 3.001 0 1 0 16 21a3.001 3.001 0 0 0 2.781-1.874 2.998 2.998 0 0 1 1.972 1.839.398.303a12.018 12.018 0 0 0-3.657 1.238A11.03 11.03 0 0 0 12.996 1.967A11.998 11.998 0 0 0 11 24c0 .793.115 2.058.287 3.2 3.43a7 1 0 0 1 3.004-2.369h.002a1 1 0 0 0-.695-1.29C9.282 8 0 18 15.501 16h-36.046c-6.211 0-8.388-2.302-8.462-2.958-2.33-2.347-7.369-2.768-12.694-2.449a1 1 0 0 1 0 2 8 18a1 1 0 0 0 .004 2l-1.691 1.003a.99.99 0 0 1 2.113 1 2 .587.597 0 0 1-1.45.596C29.358 19.183 19.586 26 18 26c3.877 0 4.602 3.339 4.446 3.495a.501.501 0 0 1 .06.019.5.5 0 0 0 .596.8M39.667 5.5S5.595 9.505 16.05 16.05s23.999-1.401 f3577-8.765c.514-.842.722-1.114 1.288-1.317l.077-1.163c-.00-.712-.086-.91-.895-1.192M22.89 16.11c-.194.034-.651 1.18-1.237 1.185-2.331 1.033-3.991 1.74-5.268 1.412-3.537 0-6.006-7.607-5.697-9.658C.55 2.334 6.613 3.5 8.04 2.6a.402.493 0 .71 0 1.135.003a1.502.502 0 0 1 .44-.166c.062.029 1.524 2.158 6.338 3.995.745 1.049 1.978 2.783 3.538 2.05l.409.102z" fill="#664500"/><path d="M17 18.5c4 0 3-.5 3-4.6s1-.047-.127-.91-.389C20.117 31.671 25 22.06 26a1 1 0 0 0-.701 1.5c.134.387 4.966 7.605 7.055 8.292C38.588 1.91 19.326 9 18 8c-18.005-1.986-18.933-2.382-22.652.028a6.653 6.963 0 0 0 5.949-.394A3.013 3.013 0 0 1 18 1c0.297.015 3.9.701 5.493 0 9.635-2.14 12.047 0 0 3-6.942 12.737" fill="#d69e84"/><path d="M25 35a4 7 0 0 1-2-4V5a1 1 0 0 0-1 1h-6a2 1 0 0 1 0-2z" fill="#9268ca"/><path d="M25 15a1 1 0 0 0-.558 1.227l2.072 6.171" fill="#d7598a"/><path d="M35.93 6.737A2.998 2.998 0 0 1 32 15.381M13 9c0-.158-.04-.794-.978-1.368-.97C.504.158.417.397 1.207c.414 0 .775-.076 1.004-.154C18.688 12.115 62 15 26 25 27 2m-4c-5.485-8.3-14-8s-18 1 8 1 9 1" fill="57c8a5"/><path d="M3.05 16.001l.073.003.071.005.072.006.071.008.07.009.079.01.071.013.071.015.071.016.071.018.071.019.071.019.072.019.071.019.071.019.072.019.074.019.074.018.085.019.085.019.074.02.074.021.035.022.034.023.034.025.031.025.03.026.031.028.03.029.03.029.031.03.034.03.034.03.035.027.035.026.034.027.033.028.03.03.03.03.032.029.035.029.035.028.036.026.037.025.037.024.039.023.04.02.041.01.042.009.043.008.043.005.044.003.044.002.044-.001.045-.002.045-.004.045-.007.045-.008.045-.01.044-.012.043-.013.043-.015.044-.016.046-.019.044-.021.045-.023.044-.025.043-.027.041-.039.042-.042.034-.043.034-.046.029-1.456 1.886-1.259 1.188-.029.028-.029.026-.031.025-.032.024-.032.023-.034.021-.034.02-.036.019-.035.017-.037.016-.037.014-.038.013-.038.011-.038.01-.039.008-.039.007-.04.005-.039.004-.04.002h-.04l-.04-.001-.039-.003-.04-.004-.04-.006-.039-.008-.039-.009-.038-.01-.038-.012-.038-.014-.036-.015-.037-.016-.035-.018-.035-.02-.034-.02-.033-.022-.032-.024-.031-.024-.031-.026-.029-.027-.028-.028-.027-.029-.026-.031-.024-.031-.024-.032-.022-.033-.02-.034-.02-.035-.018-.035-.016-.037-.015-.036-.014-.038-.012-.038-.01-.038-.009-.039-.008-.039-.006-.039-.004-.04-.003-.039L8 23.01v-.04l.002-.04.004-.039.005-.04.007-.039.008-.039.01-.038.011-.038.013-.038.014-.037.016-.037.017-.035.019-.036.02-.034.021-.034.023-.032.024-.032.025-.031.026-.029.028-.029L21 11.586l2.707 2.707zM13.707 14.293l.028.029.026.029.025.031.024.032.023.032.021.034.02.034.019.036.017.035.016.037.014.037.013.038.011.038.01.038.008.039.007.039.005.04.004.039.002.04v.04l-.001.04-.003.039-.004.04-.006.039-.008.039-.009.039-.01.038-.012.038-.014.038-.015.036-.016.037-.018.035-.02.035-.02.034-.022.033-.024.032-.024.031-.026.031-.027.029-.028.028-.029.027-.031.026-.031.024-.032.024-.033.022-.034.02-.035.02-.035.018-.037.016-.036.015-.038.014-.038.012-.038.01-.039.009-.039.008-.039.006-.04.004-.039.003-.04.001h-.04l-.04-.002-.039-.004-.04-.005-.039-.007-.039-.008-.038-.01-.038-.011-.038-.013-.037-.014-.037-.016-.035-.017-.036-.019-.034-.02-.034-.021-.032-.023-.032-.024-.031-.025-.029-.026-.029-.028L21 14.414l-1.293 1.293-.029.028-.029.026-.031.025-.032.024-.032.023-.034.021-.034.02-.036.019-.035.017-.037.016-.037.014-.038.013-.038.011-.038.01-.039.008-.039.007-.04.005-.039.004-.04.002h-.04l-.04-.001-.039-.003-.04-.004-.039-.006-.039-.008-.039-.009-.038-.01-.038-.012-.038-.014-.036-.015-.037-.016-.035-.018-.035-.02-.034-.02-.033-.022-.032-.024-.031-.024-.031-.026-.029-.027-.028-.028-.027-.029-.026-.031-.024-.031-.024-.032-.022-.033-.02-.034-.02-.035-.018-.035-.016-.037-.015-.036-.014-.038-.012-.038-.01-.038-.009-.039-.008-.039-.006-.039-.004-.04-.003-.039-.001L13.998l-.038-.001-.039-.003-.04-.004-.039-.006-.039-.008-.039-.009-.038-.01-.038-.012-.038-.014-.036-.015-.037-.016-.035-.018-.035-.02-.034-.02-.033-.022-.032-.024-.031-.024-.031-.026-.029-.027-.028-.028-.027-.029-.026-.031-.024-.031-.024-.032-.022-.033-.02-.034-.02-.035-.018-.035-.016-.037-.015-.036-.014-.038-.012-.038-.01-.038-.009-.039-.008-.039-.006-.039-.004-.04-.003-.039-.001-.04v-.04l.002-.04.004-.039.005-.04.007-.039.008-.039.01-.038.011-.038.013-.038.014-.037.016-.037.017-.035.019-.036.02-.034.021-.034.023-.032.024-.032.025-.031.026-.029.028-.029L21 11.586l2.707 2.707zM13.707 14.293l.028.029.026.029.025.031.024.032.023.032.021.034.02.034.019.036.017.035.016.037.014.037.013.038.011.038.01.038.008.039.007.039.005.04.004.039.002.04v.04l-.001.04-.003.039-.004.04-.006.039-.008.039-.009.039-.01.038-.012.038-.014.038-.015.036-.016.037-.018.035-.02.035-.02.034-.022.033-.024.032-.024.031-.026.031-.027.029-.028.028-.029.027-.031.026-.031.024-.032.024-.033.022-.034.02-.035.02-.035.018-.037.016-.036.015-.038.014-.038.012-.038.01-.039.009-.039.008-.039.006-.04.004-.039.003-.04.001h-.04l-.04-.002-.039-.004-.04-.005-.039-.007-.039-.008-.038-.01-.038-.011-.038-.013-.037-.014-.037-.016-.035-.017-.036-.019-.034-.02-.034-.021-.032-.023-.032-.024-.031-.025-.029-.026-.029-.028L21 14.414l-1.293 1.293-.029.028-.029.026-.031.025-.032.024-.032.023-.034.021-.034.02-.036.019-.035.017-.037.016-.037.014-.038.013-.038.011-.038.01-.039.008-.039.007-.04.005-.039.004-.04.002h-.04l-.04-.001-.039-.003-.04-.004-.039-.006-.039-.008-.039-.009-.038-.01-.038-.012-.038-.014-.036-.015-.037-.016-.035-.018-.035-.02-.034-.02-.033-.022-.032-.024-.031-.024-.031-.026-.029-.027-.028-.028-.027-.029-.026-.031-.024-.031-.024-.032-.022-.033-.02-.034-.02-.035-.018-.035-.016-.037-.015-.036-.014-.038-.012-.038-.01-.038-.009-.039-.008-.039-.007-.039-.005-.04-.004-.039-.002-.04v-.04l.001-.039.003-.04.004-.04.006-.039.008-.039.009-.039.01-.038.012-.038.014-.037.015-.037.016-.036.018-.036.02-.035.02-.033.022-.034.024-.032.024-.032.025-.031.026-.03.027-.029.028-.028.029-.027.031-.026.031-.024.032-.024.033-.022.034-.02.035-.02.035-.018.037-.016.036-.015.038-.014.038-.012.038-.01.039-.009.039-.008.039-.006.04-.004.039-.003.04-.001h.04z"/></svg>
