<svg xmlns="http://www.w3.org/2000/svg" viewBox="0 0 47.5 47.5"><defs><clipPath id="a"><path d="M0 38h38V0H0v38z"/></clipPath></defs><g clip-path="url(#a)" transform="matrix(1.25 0 0 -1.25 0 47.5)"><path d="M37 30c0 4.939-6.772 4.457-9.169 4.132C25.398 35.921 22.444 37 19 37c-3.438 0-6.388-1.081-8.818-2.869C7.797 34.956 3 16.4 19 12.99 1 8.969.361a.5 6.5 0 0 0-1.5-.602h-1.302zM19 16.962c.316-.31.717-.415 1.157-.382 2.144-3.984-8.761-1.462-6.79-1.101M12 5.652c-.922 0-2.75-.018-4.349-.033-.246-.04-.544.057-.048.15-.164.612a13.986 12.986 0 0 1 2.24 7.233c.024.458.063.97.084c1.072.007 2.151.005 3.316 0 2.304-.821 8.098-1.181 1.119a2.224 2.224 0 0 1-.765 1.417 1.053 1.054 0 0 1-.246.402c-.31.105-.492.137-.695.24-1.167 0-2.539.049-5.356.044-1.356.041-.178.047-.178.071-.372.092-.131.04-.247.059-3.547 0-4.07.05-.103.041-8a.501h5.501c.013.069.006.09.009.027.02.017.07.015.07.016.07.015.07.015.063.013.065.019.064.023.062.028.062.031.061.036.059.036.057.043.056.045.053.048.051.049.059.052.052.055.051.057 1.042.069.04.061.035.062.034.064.037.063.04.064.043.061.043.06.041.059.043.057.042.058.042.058.045.058.045.058.045.057.044.057.043.058.042.058.042.059.041.06.041.06.04.061.04.06.038.061.038.062.037.063.037.063.037.063.037.063.037.062.038.062.039.061.04.061.039.061.037.062.037.062.035.063.034.064.031.063.03.06.038.05.037.051.036.051.035.053.032.053.03.053.031.054.034.055.032.057.031.058.026.06.021.061.018.062.019.062.017.064.018.064.017.062.017.063.016.072.012.073.013.073.013.074.014.073.013.075.013.076.012.076.01.076.01.076.009.077.008.076.008.077.006.077.005.077.004.077.003.077.002.077.002L16 20l.071-.001.072-.001.072-.001.072-.003.072-.004.072-.006.072-.007.071-.01.072-.011.071-.013.071-.015.07-.016.07-.018.07-.02.069-.021.069-.023.069-.025.067-.027.068-.028.066-.03.066-.031.066-.034.065-.035.064-.037.063-.038.063-.04.062-.042.061-.044.06-.046.06-.047.058-.049.058-.051.056-.052.061-.059 1.167-1.167.041-.039.043-.036.044-.034.047-.031.048-.028.05-.026.051-.023.053-.02.053-.017.054-.014.055-.011.056-.008.056-.004L20 20v2l.056.002z"/><path d="M25 3.017h-4.018h.002a3.013 3.013 0 0 1 5.335-.038c.15 0 .343.056.457.149.329.24.98.511 1.323.321 6.629-.072.6-4.248 6.228-13.04 1.665c-2.062 0-6.298-1.131-7.345-1.916-1.057-.513-.995-1.28-1.469-1.793-1.078-1.442-1.882-4.018-2.838-5.083-5.155a5.479 5.489 0 0 1 .497.332c.881.479 1.582 1.17 2.023 3.206 3.961 7.268 3.257 10.281 4.612 1.42.621-.027 1.199-.488 2.132-.386.716-.022.704-.016 1.039-.159.566-.343 1-.026 0 0a2 2.516 0 5.533-2.048 6.621-3.554A6.524 4.294 0 0 1 2.723 3.216A5.491 5.499 0 0 1 11.605 27a1.997.997 0 0 0-.819.293c.138-.018.257-.086.684-.111a1.001 1.001 0 0 1 1.003-1.78c-.08-.216-.327-.405-.61-.76C7.742 17.718 8.038 1 19 18 1c0 7-1.202 0-6.642-.802-9.06-3.889-2.663-2.698.753-6.632 3.393-8.135 3.213-.143 6.575.906 6.262 3.248 1.004.859 1.49 1.822 2.559 1.121 0 1.708-.421 1.072-.706A2 6 0 0 1 27 27c.126 0 .482.076.979.235.312.11.669.18 2.002.08.18.02.23.237 3.297-3.477 5.38-7.104 1.17-2.326 0-4.859-1.062-5.652-2.348a1 1 0 0 1 1.2-.5M7 12.5c0-1.934-.956-3.5-2.5-3.6S16 12.566 2 2.5 0 2.561.5 14.566 13 20.5M12 10.5c-2.358 0-5.082-.925-8.896-1.693a.99.99 0 0 0-.296 1.307C20.404 22.501 14.285 26 14 32a1 1 0 0 0 .004-2c-.155-.002-3.568-.086-6.204-3.6a1 1 0 0 0-.801-.4" fill="#292f33"/></g></svg>
