<svg xmlns="http://www.w3.org/2000/svg" viewBox="0 0 47.5 47.5"><defs><clipPath id="a"><path d="M0 38h38V0H0v38z"/></clipPath></defs><g clip-path="url(#a)" transform="matrix(1.25 0 0 -1.25 0 47.5)"><path d="M36 19c0-9.389-7.611-17-17-17C9.612 2 2 9.611 2 19c0 9.388 7.612 17 17 17 9.389 0 17-7.612 17-17" fill="#ffcc4d"/><path d="M24 10c0-3.314-2.238-6-5-6s-5 2.686-5 6c0 3.311 2.311 6 5 6s5.618 5 6 6.005 3.363 7.662 3.622z" fill="#fff"/><path d="M36 26c-5.421 0-8.284 4.37-8.18 9.4C1.258 8.485 0 13.757 1.811 15 13.144M17 21a1 1 0 0 0-.094-1.8C9.462 9 .968 3 1 16.063 11 9c0 .032.0019.04.02.021-.023.02-.025.024-.025 3.721 0 5.655-2.966 6.023-5.666-5.16-2.062-.668-5.753-1.16-7.253-5.38a.502.502 0 0 1 .397-.05.5.5 0 0 1 .446.633c-.085 0-.11-.116-.317-.279l-.51-.86-4.121-4.094c0-.927-.278-.912-.86-.851-1.34.257-.276 4.519-1.046 5.034-.741 1.824-2.055 3.531-4.026 3.304-.01-.017-.022-.031-.026a.502.502 0 0 1-.013-.414"/>filclr#9 0c2m4284 128.324c-2.5 0-4.055-.038-5.761-2.633a1.001 1.001 0 0 1 1.347-.139c.059.015.024.018.027.017.025.028.024.035.028.04.089.038.8 1.374 1.327 1.115 1.812 1.935.722.21 1.024 0 1.639.068 1.67.074 1.562.08 1.158-.098 2.318-.64.302-.272.124-.441.179-.835a2.201 2.001 0 0 1 5.38 1.221a1.04 1.04 0 0 1-.246.479.706.276.06 1.266 0 .338c0 .826-.072 1.087-.079.151 0 .095.07.1.45.068l.138.017c.181.062.243.068.486.115.682.25 1.622.713 2.817.535 3.114.568v3.294 1.145 3.142 1.221.42.325.722.325 1.112.572a1.528 2.127 0 0 1 1.003-.865 3.403 3.003 0 0 1 2.182 2.085c.005.432.047.893.135 1.26.085.615.246 1.224.793 1.317.756-.485 1.236-.809 1.822-1.018v-.728z"/><path d="M17 19l-1-4h-3v4a1 1 0 0 0 1-1v-2h-2z" fill="#ddb44f"/><path d="M21.083 19.075c.161.014.313.02.447.136.334.218.274.393.679.535a1.012 1.012 0 0 0 .291-.404c0-.798-.395-1.373-.902-1.402a14.05 14.05 0 0 1 4.4-1.091 fi4lnn04z"/></g></svg>
