<svg xmlns="http://www.w3.org/2000/svg" xmlns:xlink="http://www.w3.org/1999/xlink" width="128" height="128" viewBox="0 0 128 128"><defs><path id="a" d="M15.87 32.75C35.15 3.87 67.36-9.3 101.5 8.06c22.84 11.63 30.78 39.21 20.86 71.65-3.6 13.3 6.17 15.56 11.16 2.91 10.29-2.21 23.93-18.25 30.32z" fill="#fcbe1c"/><path d="M83.85 83.84c-14.78 0-27.04-12.3-35.51-21.16-10.05-16.59-24.14-6.56-51.39 2.37-10.29 3.06-13.67 7.34-2.91 13.34 2.19 22.03 10.37 3.28 9.08-1.41 18.09-10.76 22.15z"/><path fill="#FCC21C" d="M87.5 92.97c-17.62 0-30.09-10.53-34.16-11.02-8.84-9.14-9.11-21.14-8.5-28.17s3.39-17.94 15.34-64.43 15.97 1.24 2.41 2.68 3.22 4 .85 5.64 6.05 13.35 6.43 26.63 10.23 8.59 0 16.19-1.3 15.79-2.8a2.032 2.032 0 0 1-.69-3.48 2.989 2.989 0 0 1 3.84-2.37h2.56v5.98h-3.54z" fill="#424242" opacity=".2"/><path d="M20.22 126.4c-4.43 0-6.87-3.01-8.28-6.79-7.39-1.76-12.4-4-15.61-7.46-22.63C78.46 19.93 48.69 9.45 65.75-8.06c5.55-2.74 10.39-4.66 17.46-2.53.98.08 1.83.96 2.37 1.4.25.2.63.31.88.42 1.32.31 1.6.62 3.26.93 4.88-.52 5.71-1.84 10.06.62.83 1.37 1.74 2.59 2.38 1.7.61 3.05-.26 4.53-1.17.69-.5 1.37-1.01 1.53-1.55.27-.55.43-1.2.68-1.7.21-.56.49-1.07.39-1.07zM117.76 66.72c-.04.18-.09.3-.14.41-.2.67-.18 1.03.01.02.01.03-.01.08-.1.12-1.21 2.58-1.4 4.43-.94 1.11.29 1.74 1.51 1.43 2.73.24.93.53 1.86 1.13 2.27.39.87.79 1.52 1.37 1.92 2.06 1.87 5.24 3.32 7.48 3.33 3.35 1.68.63 4.65 1.31 6.21 1.81m0-2.38c-.94 0-1.85.99-2.5 1.49-.22.14-.58.18-.83.21-.18.26-.43.43-.68.81-.37.33-.7.48-1.2.67-.41.29-.96.38-1.37.42-.78.01-1.55.15-2.51.12z"/></defs></svg>
