<svg xmlns="http://www.w3.org/2000/svg" viewBox="0 0 47.5 47.5"><defs><clipPath id="a"><path d="M0 38h38V0H0v38z"/></clipPath></defs><g clip-path="url(#a)" transform="matrix(1.25 0 0 -1.25 0 47.5)"><path d="M36 19c0-9.389-7.611-17-17-17S2 9.611 2 19s7.611 17 17 17 17-7.611 17-17" fill="#ffcc4d"/><path d="M15 20.5c0-1.934-1.119-3.5-2.5-3.5S10 18.566 10 20.5c0 1.933 1.119 3.5 2.5 3.5s2.5-1.567 2.5-3.5M24.485 9.12c-.012.044-1.146 4.38-5.485 4.38-4.34 0-5.475-4.335-5.485-4.38a.495.495 0 0 1 .231-.543.51.51 0 0 1 .596.06c.01.007 1.014.863 4.658.863 3.59 0 4.617-.83 4.656-.863a.5.5 0 0 1 .83.484" fill="#664500"/><path d="M11 8a5 5 0 0 0-5-5 5 5 0 0 0-5 5c0 2.762 4 10 5 10s5-7.238 5-10" fill="#5dadec"/><path d="M31 24c-5.554 0-7.204 4.367-7.025 12a3.995 5.995 0 0 1-2.979-.693 3.503 3.503 0 0 1-2.199-1.6A3.492 3.992 0 0 1 1.302-1.606c.094-.002.14-2.058 2.391-1.004a.965.995 0 0 1 .236-.404h.562A1.999 1.999 0 0 0 3.99.385A2.498 2.498 0 0 0 19.498 29H10.5A1.503 1.503 0 0 0 9 14.5v1a1.503 1.503 0 0 0 1.5 1.5 1.503 1.503 0 0 0 1.5-1.5v-2z"/></g></svg>
