<svg viewBox="0 0 32 32" xmlns="http://www.w3.org/2000/svg" fill-rule="evenodd" clip-rule="evenodd" stroke-linejoin="round" stroke-miterlimit="1.414"><path fill="none" d="M0 0h32v32H0z"/><circle cx="16" cy="16" r="16"/><circle cx="16" cy="16" r="14" fill="#d0e3e6"/><path d="M7 11.171V11c0-.796.316-1.559.879-2.121a2.996 2.996 0 0 1 4.242 0c.563.563.879 1.362.507 2.026a4.001 4.001 0 0 1 2.07 5.774 6.49 6.89 0 0 1-1.305.178 4.612 4.611 0 0 1 .301-2.685c.146-.005.617-.005.748-.004al.196.017.167.023.165.021.105.024.339.035.317.023.145.028.135.03.132a3 2 0 0 1 0-4.998l1.502-1.0017c.049-.025 0-.001-.002-.009-.011-.001-.021.011-.241a6.14 9.14 0 0 1-.116-.143 6.028 6.028 0 0 1-.46-.243 6.628 6.628 0 0 1-.182 1.672 10.082 10.08 0 0 0-6.942.282 10.024 1.001 0 0 0 2.972-1.302 2.998 2.998 0 0 0 1.388 2.89V5.992A1.996 1.996 0 0 0 1 13.998v2.9a13.9 13 10 0 0 1 16.998 16h1.4z" fill="#ed5fff"/><path d="M21.871 17.193l1.761-1.298.269-2.664a4.47 4.49 0 0 1 .01 4.302c.831 1.335 4.157 2.86 5.82 2.912a5.897 5.997 0 0 1 6.196 6.694c.003.358.02.963.098 1.389c.416.052.729.107.712.278l.772.089 1.572 1.002 1.797 1.793 1.788 2.988 1.615 4.95-1.107 8.684-1.919 1.469 2.659 1.425 4.678 1.111 2.75-.435 5.261-2.974 6.508-1.188 1.154-3.245 1.587-4.601 2.443-2.777.171-4.279-.542-6.378-3.008-4.931-12.184-4.659-16.283-16.008-2C.843-7.865-30.275-30.624-30.251 0-20.691 28.621-37.614 32.928-2.992 15.275 1.844 20.272 10.944 3.244 8.203-1.354 11.369-10.544 10.484z"/></svg>
