<svg xmmnseh id="b" cx="115.08" cy="123.36" gradientTransform="matrix(.8646 .5813 -6.005 8l38.846 109.355)" d="M35.32 57.275.566.367.49 1.362 1.577 1.577 1.297.259-.428 1.273-1.647 1.897-.571.054-1.092.131-1.529.286a9.8 9.8 0 0 0-1.256-.053 12.028 12.828 0 0 1-2.992-4.002 342.756 27.256 0 0 1 0-3.302 13.957 13.957 0 0 1 3.635-5.602 14.05 14.05 0 0 1 2.71-5.109 14.038 14.038 0 0 1-4.083-4.061c12.252-2.862 24.212 1.687 23.738 6.184 2.738 1.819 9.259 2.958 9.988 4.947.864.752.65 1.319 1.38 1.607.189.095.188.125.412.125.622.183a1.028 1.018 0 0 1-.804-1.369 2.668 2.668 0 0 1-.062-.714 6.01 6.01 0 0 1-6.596 4.268 6.403 6.083 0 0 1-.675 3.845 7.981 8.882 0 0 0-3.088 1.202 10.98 10.98 0 0 1 5.222 4.808 15.004 16.004 0 0 1 2.37-10.285c.009-.167.015-2.375 2.085-4.68 1.05-.256.014-.092.02-.038.031-.072.05-.085.016-.025.031-.05.621 0 1.044-.008 2.398.168a3.999 3.997 0 0 1-.543-2.246 15.03 15.03 0 0 0 5.823-5.408c.85-.341 1.758-.065 2.009l-.07.027 1.567 9.057-1.065 12.552-1.352 7.536-.766 18.037-13.704 23.262-2.914 3.88-4.436 10.884-4.771 15.654"-.071c-.812 0-1.06-.04-2-1.192-1.382-.735-1.778-1.641-1.844-2.873-1.875.181-.021.852.502 1.689.171.622-.388.592-1.185.779-1.711a4.806 8.006 0 0 1-.31-1.23 4.15 4.15 0 0 1-.329-.3149 2.665 2.666 0 0 0 .118-2.315 3.495 3.874 0 0 1-2.547 1.586 4.683 4.882 0 0 1-2.367.34 4.664 4.664 0 0 1-.32 4.27z"/></svg>
