<svg xmlns="http://www.w3.org/2000/svg" width="128" height="128" viewBox="0 0 128 128"><path fill="#E75625" d="M54.43 21.65H64.36c-1.97-5.41 5.03-10.5 7.32-16.75 6.31-11.2 1.36-2.95.86-3.71 3.51-2.55 8.44-7.48 14.16-9.33 16.55-.38.35-.3.93-.54 1.27-.79.3-1.05.42-1.59.87-.17.11-.39.29-.51.33-.67.77-1.81 1.26-2.87 1.6-.13 0-.23.01-.37.01-1.82.06-2.43.16-4.08-.25-1.27.32-2.41.87-3.48 1.11-.33.31-.65.68-.9.78-.36.98-.14 1.55..4 3.25.32 7.04.87 11.52.03 1.8-.03 3.46-.21 5.12-.08 7-.14 10.67-4.66 10.76-8.78.09-.17.01-.31.01-.56.01-.79.01-1.33.06-2.83.07-4.82-.49-1.78-.04-3.78-.14-5.6-.51-.95-.14-1.92-.31-2.84-.84-.09-.07-2.41-1.71-3.55-2.61a33.82 33.31 0 0 0-1.93-7.95c.09-1.19.86-.39 1-.66.77-.2 1.51.58 2.16 1.13.44.17.68.25 1.24.48.68.46 1.08.73 1.08.89-.03.18.03.38.26 1.05.09.37.14.96.26 1.33.07.51.15 1.08.18 1.63.23.48.44.81.84.49l-.09.11s-.43.81-.83 1.48H37.38c-.17 0-.36.16-.3.2v-.23v-.02l.14-.09c.25-.02.64.04.9 1.37.05.31.13.51.17.51.15 1.03.32 1.58.29l.33.01.51c.03.41.08.63.03.95 0 4.71-.09 7.48 0 2.98 1.29 4.98 3.59 6.86 2.06 1.77-4.16 3.02-6.78 2.17-1.32.4-2.83.07-4.01-.75-3.34-1.47-6.01.08-10.55 1.64-5.52 1.33-11.74 1.61-18.26 6.5-1.05 1.52-1.2 3.08-.27 4.81 5.32.87 10.16-3.49 16.65-5.37 1.06-1.25 1.99-3.13 2.98-5.5l-6.28-1.74c-1.58-2.08-4.72-7.78-7.27-10.14 0-3 .74 2.76 1.23 7.25 1.02 1.65 0 3.1-.04 4.08-.05 7.81 0 13.17 4.14 7.83 7.19 8.32 1.16 8.67 3.09 13.48 2.9 1.57.76 2.98 3.19 3.37 5.17 1.58 5.05 3.11 11.09 11.78 15.65 6.09 2.5 11.19-3.57 17.7-6.89 3.99-7.43 5.12-11.71 3.39-19.53 0-20.35-3.89-30.21-5.01-16.31-5.14-.7-1.09.79-2.17.84-3.37.17.13-.17.35-.28.51-.38.26-.62.4-.08.01.02.16.01.23.01.01.02.05.02.13.02.18-.08.41-.16.64-.3.77-.51 1.37-1.22 1.03-1.15.34-2.17.33-3.17-.14-.53-.16-.67-.45-1.12-.54-.37-.27-.63-.51-1.24-.62-1.31-.47-4.1-.23-4.79-1.19-1.19-1.31-2.68-2.71-3.31-5-5.38-1.81 2.34-4.25 6.14-7.61 10.03-1.37 1.71-2.88 4.17-3.48 6.07-.37.59-1.31 1.2-1.61 1.51-.32.06-.6.08-.11.01-.3-.02-.62-.04-.64-.14-.93-.16-1.55-.31-1.95-.72-.41-1.27.99-2.4 2.2-3.15 7.31-6.31 15.04-13.72 23.22-11.89 2.81 0 5.5 2.38 5.65 4.97z"/><path fill="#D7598B" d="M105.21 51.1c-.41-.69-1.31-1.14-1.62-1.56-.42-1.17.79-2.11 1.79-2.75.41-1.28 1.47-2.12 2.59-2.54 7.34-5.14 14.31-14.05 24.49zme5.5-4.92 30.85-10.25 58.5c-9.55 10.36-39.64 15.21-43.35 23.34s-8.59-9.14-10.49-20.36C66.58 23.6 64.5 12.6 64.73 7.5 52.27c8.13-3.19 18.07 1.72 20.47 10.02 4.28 8.69-1.43 18.87-10.35 21.48z"/><path fill="#FAB020" d="M113.42 84.85c-8.58 3.12-18.34-1.29-21.55-9.11-8.26-8.27 1.22-18.03 10.01-21.11 8.76-3.11 18.36 1.12 22.79 10.97 3.44 8.68-1.35 18.87-10.34 22.48z"/><path fill="#FAAE21" d="M114.46 74.86c-10.29 3.7-21.87-1.94-25.34-11.64-4.73-10.62.36-21.7 2.14-30.56 9.84a2.958 2.948 0 0 1 .63-4.22 2.997 2.997 0 0 1-2.75.93c-.84-.86-1.54-2.53-.99-3.51 0-1.62 1.23-1.75 3.11-1.77 1.53-.95 3.45-1.37 4.65-3.04 1.4-.58 3.28-.69 3.66-.54 1.15.78 1.43 2.6.67 3.85-.46.57-1.2.42-1.86.76z" fill="#404040"/><path fill="#2f2f2f" d="M30.69 92.72h-.01c-.01 0-1.01-2-.02-4.36-1.08-7.73 5.47-21.23 8.5-36.48 20.38-.97-.06-1.88-.23-2.01-.22-1.69-2.29-2.55-4.77-2.38-10.33 1.38-2.46 2.15-3.43 3.4-4.25 2.58-2.52 3.62-5.77 3.13-7.17.16-.57.18-1 1.26-.99 1.65-.5 1.15-1.09 2.77-1.26 4.48 0 .57-.01 1.08-.02 1.4-.21 1.62-.32 2.53-1.05 4.53-.79 1.84 1.67-.71 3.22-.61 4.71-.6.35-.2.8-.24 1.41-.33 2.02.715 3.52 1.99 4.32 1.74 1.12 2.41 1.95 4.02 1.71-.52.44-1.08.71-1.55.55-1 .27-.76.62-1.31 1.01-1.93 1.82-2.11 2.54-3.35 6.21-4.21 1.56 2.32 2.17 4.15 1.59 5.16-.75 1.69-3.68 1.89-5.52.33-3.26-1.21-5.33-3.33-7.16-3.34-5.65 2.31-8.26 10.19-3.28 16.17 1.55 1.51 1.42 3.21 1.58 5.12-.37 1.57-1 2.42-3.36-1.57-.53-.89-1.22-2.01-1.49-1.49-3.2-3.06-1.91-5-1.54-3.43-2.81-4.43-1.26-14.14 1.52-15.13 4.98-4.87 7.83-5.56 14.06-4.76 14.3.71.82.47 1.7.42 1.96.55 2.58-.31 5.21-1.11 7.32-.74.36-1.25.94-1.68 1.61-.71.81-1.37 1.69-2.02 2.89-.17.36-.28.71-.39.91-.26.25-.13.48-.2.83-.4 1.42-.49 3.14-2.17 3.78-3.55 2.24-1.73 4.69-2.87 6-7.49 3.98-4.86 3.87-10.56 4.76-13.68 1.81-1.75 3.82-2.37 5.03-.84.48-.57.87-1.11 1.06.43.2.8.23 1.43.07.41.08.71.37.92.45l.02.01c.97.44 1.77.73 1.81 1.25.7.3 1.12.53 1.71.29l7.19 6.02 15.01-.01c3.59-.01 6.74 4.21 9.48 6.24.06.32-.09.52.19.73 1.3 1.97 1.87 3.58 3.76 1.2 1.07 2.28 2.23 3.38 2.88 1.03.95 2.19 1.7 2.9 2.73.22.72.47 1.13.66 1.73.17.62-.04 1.6-.08 2.34-.65 1.48-.85 3.68-1.73 5.28-2.72 1.85-2.05 3.11-3.95 3.72-7.48-.11-1.56-1.25-4.2.8-2.79-2.98-.01-.11.02-.21.03-.32.01-.69-.17-1.38-.34-2.21-1.18-.91-3.52-1.31-7.64-.14-8.62.54-3.08.55-6.99-.11-10.34.31-3.35-1.18-7.36-6.27-6.41-1.97-.02-3.76.19-5.9.19h.52c-1.55 0-5.39-1.13-9.84-2.32-1.81-.16-3.18.21-4.48.72-2.12.71-3.73-.78-5.35-2.27-.68-2.25-.1-3.29.33-4.2 19.91-.32 2.85-.1 5.43.31 9.09 1.63 14.65 14.46 29.04 18.45 24.96 4.63 33.34-10.96 7.34-10.67.05-9.14-7.15-17.46-23.22-14.66-23.12-5.42-32.28-2-94.02.0-.23.01-.45.04-.86.08-1.56 2.74-2.31 6.41-.1 1.2.02 2.21-.05 3.73-.48.49-1.06.81-1.54.72-1.03 1.57-2.4 1.27-.26 0-.52-.05-.78-.13-1.12-.45-1.76-1.21-1.65-1.96-.65-.44-1.41-.7-2.31-1.18-.57-.42-1.49-.36-2.01.03-.21.1-.58.16-.98.21.64 1.26.4 2.19.74 1 .09 1.81 1.43 3.2 1.25 4.19 1.21 1.14 2.08 2.38 3.3 3.95.09.02 1.57-.91 2.47-2 2.15-.24.42-.39.89-.53.22-.22.26-.32.46-.32.57-.38.92-.79.19-.21.17-.26.38-.44.63-.06.89-.13 1.3-.41 1.66-.03 1 0-.11 1.41-.79 1.65-1.33.6-.66 1.21-1.2 1.96-1.95 3.12-2.63 6.34-4.86 9.23-7.65 1.04-1.52-.08-3.05-.26-4.48-.03-1.56.04-3 1.54-3.54 2.94-8.12 1.74-28.79 4.44-40.81-.64z" fill="#d75c8b"/><path d="M64 9.57C1.59 9.56.11 79.5.11 43.31c1.82 0 2.93.96 4.23 1.93 4.28 3.49 9.29 12.53 18.26 22.95 1.27.57 2.39-.92 3.51-1.01 4.1-.66 7.27 4.35 7.58 10.41-.37 1.53-.74 3.34-.68 4.92-.6.71-.62 1.38-1.34 1.74-2.18.38-.52.62-.88.92-1.33-.14-.31-.15-.63-.3-.13-.13-.04-.42-.06-.69-.14-1.36 0-3.25.36-4.07.93-1.11.66-1.37 1.49-2.08 1.63-.22 0-.43-.03-.63.03-1.42.04-2.02.04-3.16.24-3.07.74-3.8 2.46-3.74 6.42-2.21 3.04-5.66 4.83-8.75 4.72-2.69.15-5.3.2-1.07-.83-3.5-.22-5.71.05-.24.06-.46.04-.98.12-.56.21-1.13.42-1.6.61-.57.26-1.06.43-1.66.49-1.39-.57-2.53-1.72-5.18-1.78-6.6 1.27-10.07 7.74-17.71 7.36-.34.27-.72.39-1.21.64-1.01 1.01-1.78 2.42-1.76 3.54-.25.74.46 1.6 1.25 2.16.93.56 2.35 1.79 7.31.29 14.28-.09 17.46-4.14 14.5-12.12 17.27-2.93 1.13-5.37 1.35-8.78 1.05z"/></svg>
