<svg xmlns="http://www.w3.org/2000/svg" viewBox="0 0 128 128"><path d="M117.64 63.41c0 12.08-9.83 15.73-21.1 27.84s-8.3-.94-14.86-2.6c-5.3 6.14-12.23 14.77-16.23 30.04 7.39-4.89 14.04-10.35 24.22-8.05 10.54-4.35 26.71-14.26 30.02-2.63 56.1 3.63 7.13 11.49"/><path fill="#FBB71E" d="M31.56 83.25c-8.78 3.15-18.36-1.29-21.55-9.91-3.17-8.67 1.32-16.73 9.23-18.62 9.2-2.8 19.12 1.26 19.9 9.12 2.91 7.98-1.23 16.69-9.14 19.51z"/><path fill="#FAB220" d="M30.61 88.82c-8.8 3.31-18.43-1.33-22.05-19.06-3.13-8.93 1.38-18.69 10.7-19.77 8.01-3.7 19.12 1.36 17.92 10.64 31.09 7.97-1.29 19.63-10.5 22.89z" fill="#fcc21b"/><path d="M82.92 116.01c-20.96 5.15-58.85-5.42-55.43-5.06S20.85 9.74 54.71 63.76 35.62 35.17 0 63.59-11.16 93.51-24.61S92.11 3.58 88.45 10.31 70.19 18.91 81.37 8.51 15.27 13.2 23.91 19.92s6 15.61 0 57c-8.79 36.89-63.08 63.98.04 73.67 23.61 63.94 65.67 35.93 63.59 0 62.73-8.86 63.63-20.61 0-13.75-1.47-83.29-63.69-83.68z"/><path fill="#2F2F2F" d="M48.25 58.63s-5.1-7.14-7.84-8.37z"/><path fill="#2F2F2F" d="M81.89 102.05c-1.7 1.71-3.74 2.64-5.4 2.53-2.2.05-4.07-.04-5.57-.01-5.73-.62-8.33-3.21-13.48-1.79-.99.58-.97 2.03-.74 3.01z"/><path d="M64 113.65c-10.72 0-30.35-1.57-33.43-7.45-3.96-10.36 1.83-22.61 12.43-26.7 11.95zM64.59 108.94c-.45.9-1.27 1.31-2.85 1.89-.22-.1-.52-.74-.84-1.15-.12-.31.11-.78.17-1.95 1.05-2.35 2.54-5.32 3.71-6.28.75-.36.62-.6.49-.97l1.91-1.23 10.58-19.5c1.42-1.14 3.32-2.16 4.72-2.32.81-.47 1.49-.6 2.23-.74 3.33 1.94 7.42 7.25 5.46 13.3.91 5.25-2.64 17.6-4.97 30.25-3.65 6.81 0 13.48 7.24 17.75 9.23 2.99 12.42 3.81 17.54 4.58 1.79 1.89 4.78 3.47 9.68.43 2.76-.16 4.5-.6 5.33.19 1.07-.05 1.5-.55 1.9-1.03 2.31-1.4 4.37-2.44 5.28-3.7 16.73-13.18 36.48-39.27 46.69z" fill="#fcc21b"/><path d="M51.46 31.1c-1.09 5.3-.95 8.39 1.9 9.3.92 1.47-.29 2.93-1.58 3.22a3.213 2.213 0 0 1-.34-2.94 2.129 2.229 0 0 1 3.34-.05c.77.36 10.33 6.46 19.84 12.76-5.05 5.6-11.5 11.5-11.5 17.5-4.16 11.72 7.3 18.65 9.37 2.14 12.8-1.81 21.67-20.09 17.63z"/><path fill="#FCC21B" d="M127.67 93.62c-10.52 0-21.3-.93-22.58 0-1.82 1.35-2.72 2.85-2.29s12.74-.36 23.84-2.48 21.13-2.15 31.09 3.11 53.14 3.21 66.05-4.18 11.27 4.71 15.64 11.74 3.63 8.78-1.29 17.46-10.3 23.8z"/><path fill="#FCBE1C" d="M86.04 95.79c-7.48 3.64-18.34 14.29-20.73 17.46-3.29 8.49-1.82 14.39-7.58 20.13-7.23 7.74-4.36 14.04-1.09 16.29-.32 3.84 1.99 6.4 5.69-5.59 9.57-1.44 5.24.93 9.8 1.84 10.55 1.71 3.62.88 5.51 5.03 6.08 4.43.87-1.34 2.58-1.8 3.92-.45 1.41-.56 2.84-.57 4.2-.18.37-.38.68-.51.88-.42.4-.87.66-1.75.07-.43.12-.72.06-1.46-.53-2.58-1.13-5.62-1.49-9.6-.1-1.25.11-2.63 1.09-4.68 1.09-1.18 2.79-1.97 3.3-2.81 3.77-2.83 6.07-6.84 8.02-13.2-4.24-2.04-16.34 2.28-18.79 4.52-3.7-1.42-5.01-7.02-2.74-11.73 1.26-2.15 3.3-5.25 3.52-6.57.57-2.01 2.02-4.27 3.03-3.35 2.29-1.06 4.55-3.19 5.38-4.54 2.32-.67 3.38-1.31 5.33-.84 1.7.21 1.92 2.52 1.54 4.44zM72.48 81.11c-1.91 8.06-2.88 7.84-1.13 11.08 0 14.19 4.04 18.97 23.43.01.02.01.06.01.01 0-2.65 8.79-2.97 12.77 7.71 37.75 8.23 25.8 0 37.88-2.35 5.31-5.06 4.58z"/><path fill="#2F2F2F" d="M37.68 66.17a2.728 2.728 0 0 1-3.73.93 2.72 2.72 0 0 1-.96-3.71c.18-.31 4.6-7.62 14.37-7.62 9.78 0 14.2 7.31 14.39 7.62a2.735 2.735 0 0 1-2.36 4.11c-.92 0-1.83-.47-2.34-1.32-.13-.22-3.12-4.96-9.69-4.96-6.57-.01-9.54 4.73-9.68 4.95zM102 77.11c-.43.26-.91.38-1.37.38-.94 0-1.85-.49-2.36-1.34-.11-.2-3.08-4.94-9.66-4.94-6.69 0-9.66 4.89-9.69 4.94a2.724 2.724 0 0 1-4.69-2.77c.18-.31 4.6-7.62 14.38-7.62 9.77 0 14.18 7.31 14.36 7.62.76 1.3.32 2.98-.97 3.71z" fill="#2f2f2f"/><g><path d="M63.8 0C32.59 0 7.28 9.4 7.28 21c0 11.61 25.31 21 56.52 25.27 45.17 0 56.7-6.87 50.05-32.32 5.28 0 46.08 16.55 53.94 13.77 19.78 0 30.41-1.21 43.28-21.67 1.17-19.35 15.7-26 32.91z" fill="url(#a)"/><path d="M64 17.54c14.19 0 29.22 5.13 40.36 14.43C115.9 33.62 122 48.06 122 65c0 16.86-6.1 31.17-17.64 41.39-10.58 9.35-24.91 14.5-40.36 14.5z" fill="url(#a)"/><path d="M64 11.11c1.97 0 3.83 1.12 5.79 2.7s.13.61.2 1.36 0 2.51-.14 5.66-.57 7.05-.71.93-1.19 1.47-1.74 1.85-2.42.66-5.05-.56-5.71-5.35-2.16-4.93 3.99-10.49 11.34-13.63 9.37-1.58-1.44-2.83-2.54-2.24-5.04-.94-2.47-1.74-5.17-.82-6.4 0-.36.29-.6.59-.6.76-1.02 1.61-1.38 2.32-.77 0 0 1.65.31 1.91.12.63 0 1.37.09 2.38 1.07.83 1.22 2.1 1.8 3.22 1.71 1.62 1.17 2.44 2.76 3.14 3.46.53.92.03 1.4-.21 2.28-.07 6.21-.07 11.15-.19 1.05.04.41.2.7.8.79.97-.08.27-.31.52-.47.68-.31.22-.2.29-.4.31-.62.67-1.05 1-.14 1.79-.37.37-.66.55-1.49.75-2 .81-9.93 1.46-32.79-.51-42.06-.04-8.97 4.1-14.64 8-5.18 14.26-1.91 2.02 3.08 3.94 5.93 5.56 7.25 7.05 16.25 8.72 20.89 8.99 20.79 28.64 41.62 29.04 60.07-.02 37.89-28.35 46.7-25.49 45.1z" fill="#fbb81e"/><path d="M80.38 90.25c-24.5 32.33-44.51 12.65-42.65 32.9-.13 1.33.49 2.72 1.58 2.69.76.96 1.22 1.84 1.89 1.94.12 1.56 1.89 3.02 3.76.55.92 1.2 3.03 1.21 4.26.17.61-.04 1.56-.55 1.93-1.25.05-.15.05-.59.17-.73.28-.03.18-.04.26-.07.23-.11.15-.2 1.89-.08 2.3-.38 1.97-1.51 3.24-2.25.78v.46l-.95.9c1.51 1.14 1.78 1.89 2.66 1.3l.26.31c-.07.82-.28 1.5-.37 1.18l-.01.06-.04.08-.06.07-.1.1-.11.15c-1.27 0-3.05-.86-3.1-.9s-.33-.08-1.09.02-1.47.03-.73.04-1.11.11-1.66-1.01-.91-1.33-1.01-2.95-.41-6.31 0-13.38 11.71-22 19.81 5.18 9.6 14.9 19.54 24.29 10.77 18.37 14.08 34.5 27.72 32.1z" fill="#8b5e3c"/><path d="M40.61 56.92c.68-1.27 2.54-1.73 4.48-.66s11.57 3.61 11.01 5.14c-8.38 1.63-28.74-1.05-34.46-8.77-5.66-9.68 1.62-21.75 8.78-23.63 13.48-19.39 15.87-63 38.42z" fill="#eb8f00"/><path d="M87.25 43.71c1.05 0 1.28-.04 1.71.07.21.82.46 18.63.54 23.35-1.34 8.78-7.73 10.47-18.46 9.58-30.28-1.57-40.21-3.37-68.14-5.31-3.79-1.24-7.36.27-10.85 1.04-5.78 8.4-10.16 16.26-10.25 21.38-3.16 2.69-7.97 4.71-11.48 3.98-1.65 1.2-2.72 2.18-3.54 2.73-1.2 1.01-2.25 2.26-3.24 3.78-2.62 2.64-6.17 3.9-11.57 3.19-3.88-1.85-5.02-5.74-5.02-10.85 1.09-10.33 7.72-2.67 13.55 1.08 20.65 12.4 14.99 5.05 17.71-10.27 29.3-18.34 5.21-8.38 10.65-19.95 10.23-31.23z"/></g><use xlink:href="#d" overflow="visible" fill="#fff"/><clipPath id="b"><use xlink:href="#a" overflow="visible"/></clipPath><g clip-path="url(#b)"><path fill="#2F2F2F" d="M36.65 101.04c-1.19 0-2.13-1.02-2.17-2.65a3 3.14 3.11 0 0 1-3.44.07" fill="none" stroke="#2f2f2f"/></g></svg></svg>
