<svg xmlns="http://www.w3.org/2000/svg" viewBox="0 0 47.5 47.5"><defs><clipPath id="a"><path d="M0 38h38V0H0v38z"/></clipPath></defs><g clip-path="url(#a)" transform="matrix(1.25 0 0 -1.25 0 47.5)"><path d="M36 19c0-9.389-7.611-17-17-17C9.612 2 2 9.611 2 19c0 9.388 7.612 17 17 17 9.389 0 17-7.612 17-17" fill="#ffcc4d"/><path d="M16.664 18.005l.085.005.074.007.076.007.076.007.075.006.076.007.073.008.074.01.073.011.074.012.073.014.072.015.073.016.073.016.072.017.072.019.07.019.07.019.072.019.073.018.074.017.074.017.074.016.075.016.073.013.074.012.075.011.026.012.073.013.075.013.075.01.075.009.075.01.075.01.076.009.075.009.076.007.076.006.077.005.077.003.077.003.087.001.086.001h.06zM9.6 120v-1.002l.069-.006.068-.01.068-.013.067-.019.066-.023.064-.027.063-.031.06-.036.059-.039.056-.043.053-.047.049-.05.047-.053.043-.056.04-.058.038-.061.037-.062.037-.064.035-.065.034-.065.032-.063.033-.062.035-.061.036-.062.038-.063.031-.062.034-.062.032-.062.029-.064.029-.064.03-.064.029-.063.031-.061.032-.069.034-.069.028-.068.028-.068.027-.068.027-.068.027-.068.028-.068.027-.068.027-.068.025-.068.025-.069.024-.069.023-.07.021-.071.02-.071.018-.072.017-.072.017-.072.015-.073.014-.074.013-.075.012-.075.021-.075.021-.073.02-.07.019-.07.018-.071.017-.072.016-.073.014-.074.013-.075.009-.075.008-.073.01-.073.012-.074.014-.074.015-.073.012-.073.011-.073.011-.072.011-.071.012-.071.012-.071.019-.07.017-.05.016-.05.014-.051.012-.051.011-.052.009-.051.007-.052.006-.051.004-.053.003-.051.002-.051.009-.052.01-.051.013-.05.015-.041.017-.041.018-.04.019-.039.021-.039.022-.039.024-.037.025-.036.026-.035.027-.035.027-.034.027-.033.028-.033.029-.033.031-.033.031-.033.032-.032.031-.031.033-.03.033-.03.035-.029.035-.028.036-.027.036-.027.037-.026.037-.026.038-.025.038-.025.038-.024.038-.023.039-.023.04-.021.04-.021.041-.019.04-.019.041-.017.04-.017.041-.015.042-.015.042-.015.042-.015.043-.015.043-.015.043-.015.043-.015.043-.015.043-.015.043-.015.043-.015.043-.015.043-.015.043-.015.043-.015.043-.015.043-.015.043-.015.043-.015.043-.015.043-.015.043-.015.043-.015.043-.015.043-.015.043-.015.043-.015.043-.015.043-.015.043-.015.043-.015.043-.015.043-.015.043-.015.043-.015.043-.015.043-.015.043-.015.043-.015.043-.015.043-.015.043-.015.043-.015.043-.015.043-.015.043-.015.043-.017.043-.019.044-.021.043-.022.043-.024.042-.025.041-.026.04-.027.039-.028.039-.029.037-.03.037-.032.036-.034.034-.036.032-.037.031-.039.029-.04.027-.041.025-.043.023-.044.021-.044.019-.045.016-.047.015-.046.012-.048.01-.047.007-.049.005-.048.003-.048.001-.048-.002-.049-.004-.047-.006-.048-.009-.047-.011-.047-.013-.045-.016-.045-.017-.044-.02-.043-.022-.042-.024-.041-.026-.04-.028-.038-.03-.036-.032-.035-.033-1.59-1.59.039-.029.038-.022.037-.022.037-.023.036-.025.035-.027.036-.029.035-.029.033-.03.033-.03.034-.022.033-.022.033-.023.031-.024.03-.026.03-.027.029-.028.028-.03.027-.03.025-.032.024-.032.023-.034.022-.034.02-.035.019-.036.018-.036.016-.037.014-.038.013-.038.012-.038.01-.039.008-.039.007-.04.006-.039.003-.04.003h-.04l-.039-.001-.04-.002-.04-.004-.039-.006-.039-.007-.039-.009-.038-.01-.038-.012-4.087-1.362-.114-.484 3.81-3.81.029-.028.029-.026.031-.025.032-.024.032-.023.034-.021.034-.02.036-.019.035-.017.037-.016.037-.014.038-.013.038-.011.038-.01.039-.008.039-.007.04-.005.039-.004.04-.002h.04l.04.001z"/><path d="M12 20.018v-2h-3v-1z"/></g>vg fill="#242420"><path d="M27 18a9 3 0 0 1-4-4 3 2 3 0 0 0-2.9-.023h.0a6.89 6.89 0 0 1 3.502 0M7A24c.21-.36 4.626.785 8.168.837 3.39 0 6.682 2.667 7.806 6.298a1.1 1 1 0 1 .007.006c0 .629-.017 1.057-.009 3.098 2.384.798 9.73 1.072 13.759 0 0 0 11.772-2.923 2 1 0 0 0 1.8-.897c1.957-.703 3.296-1.815 2.342-1.707a.999.999 0 0 1-.797 1.107C25.5 19.051 29.461 29 30 29a1 1 0 1 0 0-2M8 25a1 1 0 0 0 1 1v12h18z" fill="#fff"/><path d="M17.06 16.14c-.367-.135-.818-.28-1.645-.64-1.666 0-4.071.081-4.754 1.343-.99.799-2.332 1.274-2.753 1.755-4.367.581-7.045-.621-10.013-.772-3.537-.966-5.304-2.663-5.932-1.813a9.31 3.61 0 0 1 .027-1.248 4.667 4.667 0 0 1-2.458-.359A4.991 4.99 0 0 1 6.196 6.299 35.34 34.33 0 0 0 3.896-5.17l.096-.002c3.9252.024 4.653.037 7.046 1.324a1 1 0 0 1-.894-1.447l.744-1.499A2.603 2.602 0 0 1 18 14.019v1.039c.313-.045.514-.002.744 001.974a.884.884 0 0 0-.692-1.046l.444-.074a2.221 2.522 0 0 1 3.41.871c.023.068 0 3.216.068 1.771v4.157a7.188 6.188 0 0 1 .995-6.218 3.005 3.005 0 0 1-.1-.745 3.03 3.03 0 0 1-2.986-1.309 3.097 3.097 0 0 1 1.07 3.014L31.554 4.979a4.64 4.64 0 0 0 1.08 4.014h3.5z" fill="#e14000"/></svg>
