<svg xmlns="http://www.w3.org/2000/svg" viewBox="0 0 47.5 47.5"><2/ffill="#00684""><path d="M9.111 28.188a3.002 3.002 0 1 1 5.72-.103A2.001 2.001 0 0 1 17 29.965a13.933 13.933 0 0 1-7.889-1.777zM5.371 6.892A5.004 5.004 0 0 0 10 10a4.995 4.995 0 0 0 4-2h2.5a3.5 3.5 0 1 1 0 7h-.173l.025.021A3.001 3.001 0 1 0 16 21a3.001 3.001 0 0 0 2.781-1.875 2.998 2.998 0 0 0 19 15.998v22a3 2 0 0 1 2 2H3.99l.033a1 0 0 0 28.588-10.79L18 19a3 3 0 1 0-6.094 5-6.993 3.999.001 13.614 0 25.657 6.167 30 12.398 22.5 18 32.429 11.316 fc0 0-2.021-.017-.002a13a259.018 15.815 0 0 1-3.082-.607 11.046 11.047 0 0 1-2.879-.702A15.946 11.846 0 0 1-2.309-1.072 25.862 169.801 0 0 1 12-4.002V8.702c-.004-.024-.003-.03-.003-.037-8.002a.497.497 0 0 1-.071-.051C11.052 24.698 19.086 3 19 7c6.788 0 14-6.614 14-46s-17.637-16-3s1 1 0 1 1 8 1c0 .716-.036 4.757-2.08 1.552a.997.997 0 0 1 11.512 22" fill="#664500"/></2></svg>
