<svg xmlns="http://www.w3.org/2000/svg" viewBox="0 0 128 128"><path d="M-.2 93.42c0 13.88 28.65 25.11 63.99 25.11s64-11.23 64-25.11c0-13.87-1.47-83.95-64-83.95C1.27 9.47-.2 79.55-.2 93.42z" fill="#fcc21b"/><path d="M64 6.57c-.1 0-.36.16-.3.22 0 .12.01.32.03.31.03 1.71 0 1.62-.35 1.99-.87v.03zM44.01 58.22c0 2.28-2.26 2.29-4.22 2.62s-5.3-3.14-8.37-4.39-2.05.77-4.24 2.3-5.18 3.38-6.01 3.2 13.45 7.58 10.59 7.34 4.35 8.3 12.39 17.23 16.7 28.78.54 1.69 2.11 5.59 2.43 7.88-1.13 5.29-2.75 10.98-4.32 14.05-5.37-.61-.41-1.36-.53-1.96-.82-.86 0-1.64.94-2.04 1.94-5.25 1.33-10.43-2.96-10.31-5.85zm25.59 4.22c.21.04.46.08.66.08 1.16.47 2.21 1.04 3.48 1.27 3.09 1.19 6.79 2.84 9.91 5.47 5 7.08 4.75 1.3 1.3 3.88 6.31 5.37 10.31 3.33 2.47 8.23 4.29 12.06 4.68 1.64 0 4.15-.24 8.3-1.26 1.69-1.44 3.15-2.85 2.85-4.57 1.81-1.74 3.89-2.45 5.48-4.6C.14 21.73.3 27.48.69 7 4.18 3.95 5.74 7.37 5.74 14.07 1.86 4.93 4.22 10.21 7.95 10.27.92.4 1.91.49 2.72.89 1.83 3.44 16.51 8.57 22.83 8.08 9.61 3.98 19.09 9.73 19.84 10.21 1.31 2.74 3.15 6.53 2.6 10.46l-12.33 14.91c-.99 6.28-1.09 12.41.61 18.75 3.17 6.61 0 13.82-2.29 17.01-2.62-4.97-2.01-84.62-23.09-8.6-26.02-8.86-38.27-7.26-54.9 3.06-.01.06-.09.06.02-.06 1.63-1.26 2.99-3.25 2.55-.58.24-1.18.41-1.66.72a44.07 44.03 0 0 1 3.29-6.1c6.06-1.62 8.45-2.32 13.41-2.82C9.7 21.34.81 68.55-.31 29.8c-1.23 2.72-1.64 6.59-3.57 10.39-5.08 3.29-7.04 12.19-4.72 18.31 0 14.19 2.6 28.88 4.88 4.08 6.37 8.35 8.72 13.37 9.88 10.64 0 30.69-10.13 32.28-23.04.01-.04.01-.03.01-.01 0-2.21 0-20.17-4.12-24.46-2.38-.26-.08-.4-.16-.65-.12-.56 0-.26.23-.61.36l-.33.46c-.26.25-.62.47-.9.49l-1.69 3.84-6.98 1.32a2.032 2.032 0 0 1-1.92 3.63l6.2 16.24a2.998 2.999 0 0 1 1.83 3.78 2.78 7.27 0 0 1-2.64 1.81c-.51-.17-1.66-.3-2.6-.29-5.14-.42-9.82-2.85-13.16-2.61-.76-.03-1.53-.3-2.07-.62-.72-1.29-.45-3.05.55-4.92 1.32-10.4 2.73-17.57 4.74-1.33 1.22-2.75 2.74-3.62 4.3-1.37 2.19-2.48 3.49-4.26 2.5-.73 0-1.49-.04-2.84-.44-4.02-1.01-6.55-3.44-6.67-9.62 1.97-1.63 3.34-2.23 5.03-1.37 2.61.86 3.92 3.11 4.74 6.91.79 3.25-1.31 6.74-3.79 7.86-2.36 1.54-5.58 2.8-7.27 1.5z"/><path fill="#2F2F2F" d="M51.86 61.06c-.77 0-1.23-.33-1.84-.89-.85-.34-1.85-.66-2.44-1.48l-4.5-17.17-16.08 1.04c-.93.64-1.78 1.27-2.73 1.38-.12-.31-.03-.76-.06-1.06-.05-.93-.21-1.86-.64-2.67-.84-1.27-.41-2.68-.54-4.47-1.14-7.24-2.55-8.91-7.98-9.35-8.94-.67-.88.59-2.9.43-3.9.89-1.63 1.3-2.94 1.85-4.5 3.88.07 7.33 2.11 7.38 4.27 1.25 1.74 3.35 3.29 5.2 3.52 1.66.98 3.16 1.71 5.31 1.71 2.52 1 3.47 2.69 5.23 3.43 3.66 2.74 5.51 3.79 7.48 4.39 10.41 1.34 2.08.44 6.33-.42 9.23-1.48 1.67-3.78 2.34-5.52 2.31z"/><g fill="#2F2F2F"><path d="M101.58 72.27c-2.48-1.11-4.08-3.19-3.81-7.06.02-.68.18-1.31.6-1.61 1.71-.51 3.88.21 4.52 2.23.63 1-.08 2.23 2.23 2.42.96.08 1.5-.11 2.26-.17.41-.14.84-.42 1.24-.33 1.07-.47 1.58-1.29 1.36a2.221 2.22 0 0 0-.65-3.35zM31.74 75.13c0 1.04-1.81.17-2.77.23-3.99-.12-3.79-.2-5.45-.24-8.6.67-.36 1.31-.42 1.91-.5 1.52.91 1.95 2.25.32 4.6-.44 1.83-.76 3.09-1.46 4.99-1.19 1.27-3.16 2.68-6.22 2.97-.28.07-.57.17-.7.18zM55.55 40.97c-1.48-1.25-1.69-2.53.32-3.48.17-.26.33-.45.64-.68.31-.17.17-.37.45-.69.71-.37.29-.7.42-.9.54-.39.25-.77.32-1.26.44-1.21.72-2.37-.37-3.58-.77-.45-.15-1.29-.35-1.66-.84-1.45-.49-3.45-1.87-2.45-2.21.17-.58 1.42-.72 2.28-.37.79-.53 1.68-.86 2.47-.62 1.09-1.34 2.09-3.08 1.19-1.37.09-.63.3-1.23.6-1.17.52-2.23.6-3.26-.54zm-42.63-30.45c-.39.33-.9.43-1.3.39-.29.35-.53.59-.77.57-.42.15-.79.4-1.16 1.06-.55.42-1.28.71-1.95.76-.45 1.19-.77 1.7-1.01 1.09-.48 2.51-.49 3.62-.97.79.15 1.76.97 2.72 1.31.09.21.12.35.16.51.06.15.09.23.02-.22.03-.18.05-.34.05-.05.06-.07.12-.07.23-.14 1.03-.19 1.51-1.23 3.3-2.04 6.49-3.87 10.83-3.74.06-.08.11-.1.23-.19.06-.63.13-.9.24-1.04.34-1.71 1.17-2.45 1.84-.1.09-.09.17-.11.15-.09.27-.28.41-.21.59-.18 1.1-.45 1.51-.8.73-.53 1.49-.86 2.27-1.32.86-.81 1.49-18.41.9-2.45zM41.74 53.67c.69-.01 1.65-.41 2.1-1.24.26-.43.31-.68.31-.92.21-.35.29-.54.34-.92.57-1.26.65-2.24.66-1.01-.52-1.64-1.27-1.68-1.69-.76-.44-1.74-.66-2.54-.39-1.74-.34-2.85-.94-4.31-1.07-.29-.15-.57-.27-.74-.41-1.36-.68-3.02-1.13-5.37-1.48z"-fil-9a.94 9.96 0 0 1-.67-3.19c-7.78-7.73-14.3-14.94-5.52-22.56 4.1-3.15 13.76.71 17.56 11.12 3.63 7.35-1.25 15.78-10.25 21.54-2.32-.03-4.59-1.09-5.03-4.09.07-2.11 1.2-4.08 4.05-3.04 2.05.8 3.92 3.89 2.95 5.92zM210.43 49.78c-1.45 8.34-6.08 12.22-13.28 13.05-6.33 0-6.89-2.38-9.04-5.79-1.09-9.16 1.9-13.28 7.82-16.68 2.64-2.22 9.48-4.89 8.88-2.28 2.81 1.85 7.05 3.86 9.58 3.48 2.93 6.25 2.82 10.85 3.3 5.29 0 10.38-.82 12.7-5.16.11-1.11.45-2.47.79-3.17 1.11-1.11 1.96-2.35 2.2-3.36 3.73-1.18 2.01-1.76 4.16-.85 6.39.74 1.68 1.26 3.44 2.37 4.23 2.21 7.71 4.48 10.37 13.43 12.7 9.54.58 17.28-2.88 27.49-2.88 11.31zM84 18c-9 27.11-10.31 9.38-18.44 20.98-18.48l-8.02-20.73s-28.6-34.25c-.64-4.9 6.42-9.23 5.86-6.76 1.76-1.01 3.69-3.2 2.34-6.21l-8.78-1.24c-1.36-.77-2.92-1.1-5.62-1.24-7.65.25-1.39 3.45-8.17 9.32-8.46 5.66 0 10.79 2.27 15.79 5.78.45.81.95 1.31 1.47 2.54.73.62 1.27 1.09 1.63 1.42.31.06.63.1.78.15.78.43 1.26.83 1.88 1.12 1.81 2.74 3.51 5.49 3.03 7.01 3.39-.01 10.43-.21 15.55-.24 5.76 0 13.35 9.27 12.73 10.5.03.76.41 1.06.7 1.45.9.03.02.15.06.23.06.37a3.44 3.34 0 0 1-3.73-2.33H38.7l-.26 1.52s-.08-.2-.76c0 3.72-2.62 5.67-5.71 5.76l4.47-14.76c2.95-2.93 2.49-7.53 3.3-17.67 2.53a20.332 22.332 0 0 1-5.68 3.31c-2.79-.39-5.68-.78-8.24-.83-2.53-1.58-7.51-3.28-13.49-5.4-3.79-1.81-8.1-5.38-10.24-12.12 6.93.13 17.65 22.53 33.41 32.4 6.49 1.61 18.42-.71 26.41-2.2z"/><path fill="#FCC21B" d="M87.13 42.37c-.98-9.77-1.84-15.55-8.4-18.98-8.02-7.73-16.24-9.08-18.58-7.2-4.33-8.74-9.81-14.46-10.89-25.97l10.59-6.88a41.82 18.82 0 0 0-5.98-2.01c-2.59 0-4.97 2.34-4.87 6.38 0 .46-.08.99-.25 1.65.54.72 1.22 1.64 2.04 1.36.38.37.62.78.9.7 1.25.46 3.89-.76 5.55-1.27.315-.53.68-1.45.96-2.49.11-1.16-1.23-2.13-1.44-2.46-1.31-1.71-2.55-3.45-2.84-4.73-5.01-3.46-11.78-6.45-19.44-6.9a.985.995 0 0 1-.83 1.45v5.47c0 .28.12.68.37.9 1.37.49.59.82 1.21 1.15 1.66.38 1.32.66 3.36 1.37 4.98 1.77 1.78 4.78 2.18 7.73 3.43 1.56.35 3.11.73 4.48 1.01 1.81.71 3.14 1.32 4.79 1.72 1.61 1.07 2.74 1.71 4.68 1.91a1.021 1.021 0 0 0-2.09 1.71c-.09 0-1.11-.2-1.73-.68-1.64-1.3-3.24-2.13-4.72-3.3-.25-.49-.63-19.46-.76-21.09z" fill="#2f2f2f"/></g></svg></svg>
