<svg xmlns="http://www.w3.org/2000/svg" viewBox="0 0 128 128"><path d="M64.21 9.44C1.48 9.64.21 79.5.12 93.33c0 13.83 28.56 25.03 63.79 25.03 35.24 0 63.79-11.21 63.79-25.03 0-13.83-1.47-83.68-63.79-83.68z" fill="#fcc21b"/><path d="M63.94 63.05c-1.33 0-2.28.94-3.98 1.73-.55 1.39-.6 2.79-.65 3.45.11 1.51 0 3.11-.46 4.28-.41.69-1.44 1-3.48 1.65-2.42 0-5.04-1.79-7.06-4.33l17.36-8.24z" fill="#aa82c2"/><path d="M49.34 91.29c-7.08 2.81-17.31-1.15-19.76-8.56-2.78-7.55 1.16-15.92 8.81-18.67 7.64-2.74 16.1 1.14 18.97 8.12-2.85 7.82-2.28 14.4-7.21 15.76z" fill="#fcbe1c"/><path d="M30.84 89c-8.44 3.03-17.74-1.24-20.81-9.57-3.06-8.32 1.27-17.53 9.7-20.57 8.41-3.03 17.74 1.26 20.82 9.58 3.05 8.33-1.29 17.54-9.71 20.56z" fill="#fbbb1d"/><path d="M30.61 88.36c-8.08 2.96-17.22-1.04-20.71-5.54-2.55-4.87 1.05-12.77 1.95-14.16 6.68-2.11 13.22 1.49 25.73 6.28 2.43 6.39-1.07 12.31-7.09 16.94z"/><path fill="#FAB020" d="M97.78 91.86c-6.2 2.15-13.37-.94-16.25-7.42-2.47-6.43 1.15-12.27 7.08-14.82 6.58-2.03 12.51.75 14.36 5.16 2.22 5.08-.94 12.78-7.05 14.88z"/><path fill="#FAB020" d="M114.11 78.81c-7.19 2.52-14.31-.78-17.43-7.66-2.61-6.47 1.01-13.94 7.71-16.86 6.79-2.15 13.33.9 15.35 6.56 2.15 6.78-.97 12.17-6.2 15.31z"/><path fill="#FAAE21" d="M98.58 91.52c-9.13 2.97-18.58-1.05-21.65-7.57-2.86-5.95 1.66-16.26 9.5-21.86 8.39-2.96 15.4 1.25 19.32 8.5 2.77 7.5 1.19 16.72 13.32 10.53 5.76.97 10.26-2.38 15.67-5.3 16.5-4.66 25.29-7.24 35.95-3.27 3.32 1.52 7.05 5.52 9.47 4.87 2.98 2.19 5.24 3.71 7.49 3.69 2.17-.09 4.58-2.87 4.48-5.71.01-.83-.11-1.78-.17-2.96-.04-6.56-9.15-13.65-5.72-15.88-.77-4.17 4.13-6.26 9.54-10.65 3.86 0 7.02 3.72 7.37 8.05v-.17.48-1.51 1.04-1.95 2.32h-.01c.7.01 1.3 1.25 2.73 1.96 2.4 2.26 4.43 6.56 3.53 9.65 0 5.21-4.14 13.58-7.37 16.5-4.16 2.02-10.79 4.02-17.65 3.88z" fill="#d0e3e0"/><path d="M64 99.5c-6.97 0-11.91-3.37-16.03-9.91-2.03-.47-4.58-2.12-5.6-5.06-2.1-2.83-4.23-2.83-7.04-2.37-5.48 1.41-9.26 7.04-14.63 2.83-.4 19.66 11.38 16.78 9.25 3.88 7.91 11.97 16.75 8.83 23.16-1.37 3.54-2.23 6.21-1.2 10.95.84 4.65 1.76 5.91 7.21 5.06 2.21 0 1.75-.99 2.46-2.23 3.76-2.05 6.49-5.15 12.29-10.59 17-69.05 7.64-2.6 16.4-4.67 21.92-3 2.55-.8 1.46-1.39 1.89-1.94 1.01-.74 2.51-1.01 3.24-1.41a78.3 18.4 0 0 0 0-3.08-5.94l-9.46-1.16c.97-.33 1.99-.05 2.69l-.07.31v.06c.02 12.87 14.87 25.72 15.86 26.32 11.49-1.46 18.7-26.49 15.37-43.47 1.15zm47-4.65 5.48-5.74 6.2 6.18 9.04-13.07 13.43c13.72-2.15 25.44 1.74 31.73 1.05 5.34-.32 11.31-1.02 23.45-1.05 8.42-4.75 14.07-12.12 10.93-15.83 1.31-1.72 3.32-3.65 4.47-4.9.71-.03 1.78-.12 2.56-.22 4.02-.68 6.51-2.94 7.59-5.37 2.18-4.38 3.88-6.31 9.8-6.61 9.19-1.19 8.53-6.06 11.9-10.59.06-.16.16-.34.23-.51.32-.52.2-1.07.4-1.56l-.03-.25c-.4-.39-.39-.62-.39-.98-.02-.11-.04-.37-.05-.54-.06-.67-.89-.87-1.51-.53-1.55-.74-2.45-1.58-3.75-.45-1.27-.94-2.84-.71-5.94.67-1.2 2.72-1.33 4.88-1.88 2.11.98 1.89 2.5.32 3.68-1.42 1.74-3.58 2.01-5.72-.43-1.74-1.54-4.06-2.87-6.31-3.91-2.14-1.43-4.23-2.81-5.08-4.51-6.94-6.96-14.8-15.2-16.23-18.03-.52-1.1-.77-2.41-.38-3.94.35-2.81 1.11-4.41 1.36-5.85 9.72-4.25 1.81 4.91 5.53 5.13 8.56z"/><path fill="#2F2F2F" d="M30.46 64.71c-3.86 0-6.36-.67-9.05-4.09-1.74-2.25-2.28-3.9-2.88-5.54 2.38-5.37 6-6.47 6-.82-1.23-2.02-3.26-3.39-4.42-3.31-.84-.19-1.69-.39-2.11-.64-1.33 0-2.44.34-3.12.88v-4.1 2.11c-.93.35-1.92.71-2.82.22-.58.33-1.04.91-1.51.52-.04.01-.09.07-.18.12-18.46 0-24.96-28.14-30.25-14.21 0-22.52 9.02-26.26 24.13-1.25-1.29-1.82-3.4-2.48-4.52-.52-1.48-.58-2.91-1.76-4.24-.07-.31-.18-.65-.29-.27-.24-.01-.03-.01-.09-.01-.18 0-1.12-.77-1.7-1.74-.49-.66-1.11-2.08-.02-2.91 1.58.7 3.92 6.29 3.04 12.55 0 2.85-1.01 4.13-3.21 6.09-7.49 2.67-13.4 9.82-16.84 9.82-2.52 0-5.4-2.71-10.32-17.28-.03-1.55 1.22-2.55 2.8-2.86 3.41-.75 9.41 1.9 9.8 1.4 3.3.74 7.67-1.43 7.58-2.5.2-.83.54-1.75 1.42-1.51 2.28-.01-.02-.01-.09-.01-.29"/></svg>
