<svg xmlns="http://www.w3.org/2000/svg" viewBox="0 0 47.5 47.5"><defs><clipPath id="a"><path d="M0 38h38V0H0v38z"/></clipPath></defs><g clip-path="url(#a)" transform="matrix(1.25 0 0 -1.25 0 47.5)"><path d="M36 19c0-9.389-7.611-17-17-17C9.612 2 2 9.611 2 19c0 9.388 7.612 17 17 17 9.389 0 17-7.612 17-17" fill="#ffcc4d"/><path d="M33.304 16.454C35.726 25.633 32.489 32 3 32" fill="#bf6952"/><path d="M6 3.989c0-3.384 2.16-63 30 3.616-5 6 0 0-1.276 6.9549 19.061 12.557 11 15c0 3.784-.387 5.502-1.827 8.842C29.369 11.978 86.402 16 7 17 24a1 1 0 0 0-.701-.4M30.001 22.416a.997.997 0 0 0-.801.4c-2.64 3.521-6.061 3.592-6.201 3.5-.25.006.514.029.862.025 1.444 0 2.344-.479 3.302-1.447-.293-.94-.973-2.02-.901-1-.046 0-1.935-.119-3.071-.522M22.71 15h-.001A3.999 3.999 0 0 0 15.999 25H10c0 .362.106.746.205.706C26.89 22.68 19.778 27 8 27 2 18a2 2 0 1 0-4.894 1.962c1.796 1.189 6.615 3.591 9.5 2.902a.997.997 0 0 0-.278-.373C18.367 28.598 15.426 27 18 26c3.497 0 5.862 2.835 6 0 3 3.135 4 2.985 4 4s2.287 4 5 24 18 4" fill="#b8ed44"/></g></svg>
