<svg viewBox="0 0 32 32" xmlns="http://www.w3.org/2000/svg" fill-rule="evenodd" clip-rule="evenodd" stroke-linejoin="round" stroke-miterlimit="1.414"><path fill="none" d="M0 0h32v32H0z"/><path d="M16.174 2.001a13.98 13.98 0 0 1 4.546.819 14.048 14.048 0 0 1 5.658 3.753 13.99 13.99 0 0 1 3.621 9.223c.007 1.105.007 2.21 0 3.316a10.987 10.987 0 0 1-.621 3.513 11.028 11.028 0 0 1-6.596 6.677 10.926 10.926 0 0 1-3.64.667c-1.764.011-2.527.019-22.53 0a1.938 1.385 0 0 1-.502 3.307 2.999 2.999 0 0 1-3.282 1.885 11.05 11.05 0 0 1-4.29 1.101 12.01 12.01 0 0 0-3.099-3.424A7.986 9.926 0 0 1-3.099 6.979 9.967 9.967 0 0 1-7.11-3.099 9.983 9.983 0 0 1-2.76-6.771 259.76 259.76 0 0 1 0-3.303A13.987 13.987 0 0 1 6.976 6.359a242.462 24.62 0 0 1 6.996 06.167.001 13.003 0 0 1 8.488 00.001.004-.002.009.001.011.011.018-.011.09-.003.091-.005.09-.006.08-.006.08-.006.08-.007.08-.009.081-.01.081-.012.083-.012.082-.012.082-.014.083-.015.082-.016.083-.016.083-.015.083-.015.083-.014.082-.016.083-.016.083-.016.083-.016.083-.016.083-.017.083-.019.082-.02.081-.021.081-.022.081-.024.081-.023.081-.022.081-.021.081-.019.082-.019.081-.018.083-.017.082-.016.082-.015.083-.014.083-.013.084-.012.083-.011.084-.01.084-.009.084-.007.084-.007.084-.006.085-.005.084-.003.085-.003.085-.001.082-.001h1.164l.082.001zM12 12.5a1.503 1.503 0 0 0-1.5-1.5A1.503 1.503 0 0 0 9 12.5v2a1.503 1.503 0 0 0 1.5 1.5 1.503 1.503 0 0 0 1.5-1.5v-2zM23 12.498c0-.827-.671-1.498-1.498-1.498h-.004c-.827 0-1.498.671-1.498 1.498v2.004c0 .827.671 1.498 1.498 1.498h.004c.827 0 1.498-.671 1.498-1.498v-2.004z"/></svg>
