<svg viewBox="0 0 32 32" xmlns="http://www.w3.org/2000/svg" fill-rule="evenodd" clip-rule="evenodd" stroke-linejoin="round" stroke-miterlimit="1.414"><path fill="none" d="M0 0h32v32H0z"/><circle cx="16" cy="16" r="16"/><path d="M12.976 2.328A14.017 14.017 0 0 1 16 2c5.178 0 9.704 2.817 12.125 7.002.787 3.091 1.461 5.819 1.617 9.686C28.549 24.812 23.358 29.515 17 29.965c-2.429-.528-5.812-1.221-7.889-1.777a14.045 14.045 0 0 1-6.49-8.056c.213-3.091 2.481-11.543 2.75-13.24.246-.287.504-.564.772-.83.868-.153 5.658-2.965 6.233-3.734z" fill="#d0e3e6"/><path d="M9.111 28.188a3.002 3.002 0 1 1 5.72-.181A2.001 2.001 0 0 1 17 29.965a13.933 13.933 0 0 1-7.889-1.777zM5.371 6.892A5.004 5.004 0 0 0 16 10a2 2 0 0 0-2 2v1c0 1.326-.28 3.582-2.884 4.08a2.004 2.206 0 0 1-2.007.103 3.828 3.288 0 0 1-2.542-1.758L23 20.963v5.54A1.105 1.595 0 0 0 20.494 16h-17l.001-.001a2.123 1.122 0 0 1 3.383-.073h.001l.017.001z" fill="#c5a4e3"/><path d="M21 20H8l.103.001zM19 26.998A11.996 11.996 0 0 0-16 4C9.673 15 9 10 15-9.009 12-19-16" fill="#664500"/></svg></svg>
