<svg xmlns="http://www.w3.org/2000/svg" viewBox="0 0 128 128"><path d="M63.79 8.64C1.48 8.64 0 78.5 0 92.33c0 13.83 28.56 25.03 63.79 25.03 35.24 0 63.79-11.21 63.79-25.03 0-13.83-1.47-83.69-63.79-83.69z" fill="#fcc21b"/><path d="M109.54 90.9c-9.5 3.41-19.98-1.4-23.44-10.78-3.44-9.37 1.43-19.74 10.93-23.17 9.47-3.41 19.98 1.42 23.45 10.79 3.44 9.39-1.46 19.76-10.94 23.16z" fill="#fcc21b"/><path d="M31.31 64.2c-5.48.04-10.49 1.47-20.41 9.48-8.29 14.04-12.3 12.76-25.13 12.69-15.37 0-28.96-16.6-27.66-19.86-3.94-10.88 1.86-22.79 12.4-26.73 12.19-13.89 22.12-12.98 35.96-8.18 3.77-21.32 3-2z" fill="#bdbfff"/></svg><g><defs><path id="c" d="M63.99 76.54c-9.23 0-17.8-.77-24.96-2.1-1.77 0-2.64 3.43-3.35 3.8.14 0 3.54-.54 6.72-2.34.76-.86 1.46-1.62 1.81-2.48.04-.16.09-.39.13-.52.29-.27.5-.47.91-.65.51-.16.09-.2.35-.26l.29-.09c.94-.28 1.28-.47 1.68-.65.33-.63.59-.97 1.15-1.25.48-.56.92-1.43.63-1.92.16-.77.4-1.39 1.45-2.46 1.3-.11-.4-.16-.83-.35-1.21-.34-.53-.66-.82-1.19-1.06-3.04-.22-6.69.87-10.16.67.75 1.62 1.04 1.1 1.17.63 1.25 1.9.54 3.12-1.02.83-.43 1.76.86 3.26 1.37.39.37.95.52 1.48.56 1.01.59 2.08.53 2.71 1.27.54.42.95 1.11.87 1.73.55.59 1.13 1.01 1.71 1.41.75.44 1.05.73 1.52 1.08.36.34.66.63.92.85 1.38.64 1.9 2.01 1.33 3.45z"/></defs><path d="M42.25 82.94h7.62v3.66h-6.2zM60.33 92.13c-.12.07-.27.13-.55.12-.04.2-3.04 3.38-9.49 4.45zM28.03 81.9c.84.47 1.97 2.17 1.32 3.48l-7.2-1.1c.72-1.88 1.79-3.37 2.88-5.72l.15-1.25a3.107 3.017 0 0 1 4.25.03c.93.46 1.73 1.04 1.94 1.55.64-.52 1.38-1.07 1.57-2 .55-.14 1.78-.33 2.68 0 14.46 0 20.01-10.22 21.3-68.92z" fill="#fff"/><path d="M95.8 40.26c.38 1.71 1.7 2.86 2.2 2.92.21.56.57 1.16.7 1.15 1.51 1.05 2.88 3.49 3.38 4.18 1.37 1.24 3.74 2.3 4.38 1.98 1.16.71 2.28 1.8 2.9 2.25.21.69-.08 1.29-.12 2.46-.51 1.44-.75 3.59-.55 4.04-.9.33-.1.72-.3 1.49-.19 2.26-.18 4.19-.18 6.2-.66 10.46.03 1.18.07 2.79-.04 3.48z"/></g><g fill="#242424"><path d="M83.76 38.05c3.69 0 7.04 4.33 7.04 11.5s-3.35 11.5-7.04 11.5-7.04-4.33-7.04-11.5 3.36-11.5 7.04-11.5zM44.22 38.05c-3.69 0-7.04 4.33-7.04 11.5s3.35 11.5 7.04 11.5 7.04-4.33 7.04-11.5-3.35-11.5-7.04-11.5z"/></g></svg>
