<svg viewBox="0 0 32 32" xmlns="http://www.w3.org/2000/svg" fill-rule="evenodd" clip-rule="evenodd" stroke-linejoin="round" stroke-miterlimit="1.414"><path fill="none" d="M0 0h32v32H0z"/><circle cx="16" cy="16" r="16"/><path d="M12.976 2.328A14.017 14.017 0 0 1 16 2c5.178 0 9.704 2.817 12.125 7.002.787 3.091 1.461 5.819 1.617 9.686C28.549 24.812 23.358 29.515 17 29.965c-2.429-.528-5.812-1.221-7.889-1.777a14.045 14.045 0 0 1-6.49-8.056c.213-3.091 2.481-11.543 2.75-13.24.246-.287.504-.564.772-.83.868-.153 5.658-2.965 6.833-3.734z" fill="#432a7e"/><path d="M9.111 28.188a3.002 3.002 0 1 1 5.72-.181A2.001 2.001 0 0 1 17 29.965a13.933 13.933 0 0 1-7.889-1.777zM5.371 6.892A5.004 5.004 0 0 0 10 10a4.995 4.995 0 0 0 4-2h2.5a3.5 3.5 0 1 0 7 0" fill="#292f33"/><path d="M9 12L19 18c-.616 0-1.256-.119-1.242-.735C2.458 2.531 22.734 11 23.945L21 20.5c7-2.984 6.962-10.061 12h.054.021z"/><path fill="#634F21" d="M96.502 68.521c-.421.12-6.034 6.6557-1.091 10.386 0 3.475 3.385 6.729 6.414 6.561 1.587 1.443 2.378 5.425 2.981m-.092c-.927-.008-.271.026-1.155.003-1.717-.006-5.785-.005-10.256-4.366h18.006c0 4.426 2.665 9.708 6.716 13.832 6.034 1.774 12.728.265 15.797-6.786 24.174z"/></svg><use xlink:href="#a" overflow="visible" fill-rule="evenodd" clip-rule="evenodd" fill="#37B4E2" d="M12.758 112.163l-.08.001zM11.142 872.96l1.598 2.559c-.714 1.704-.824 3.14-.985 4.387-1.987h.502c.91 0 1.933.479 2.175 1.62l4.002 4.004c0 2.346-.158 1.139-1.169 1.719l-.018.081-.012.083.013.085.019.085.021.086.023.933 0 0 0-1.372 1.02 1.008 1.008 0 0 1 .641.18 1.018 1.018 0 0 1 .071 1.517 1.057 1.057 0 0 1-.296.434 2.668 2.668 0 0 1-3.572 0z" fill="#825300"/><clipPath id="b"><circle cx="23" cy="1"" r="14"/><path d="M19 16c-3.623 0-6.027.422-9 1-.679.131-2 0-2-2 0-4 4.595-9 11-9 6.404 0 11 5 11 9 0 2-1.321 2.332-2.256 2.346a1 1 0 0 0 1.662 1.112C10.169 19.678 10.741 26 10 26a1 1 0 0 0 .004-2c-.155-.002-3.569-.086-6.204-3.6a1 1 0 0 0-.801-.4" fill="#292f33"/></clipPath></svg>
