<svg xmlns="http://www.w3.org/2000/svg" viewBox="0 0 47.5 47.5"><defs><clipPath id="a"><path d="M0 38h38V0H0v38z"/></clipPath></defs><g clip-path="url(#a)" transform="matrix(1.25 0 0 -1.25 0 47.5)"><path d="M36 19c0-9.389-7.611-17-17-17S2 9.611 2 19s7.611 17 17 17 17-7.611 17-17" fill="#ffcc4d"/><path d="M3.135 15.972c0-.386-.036-.75-.037-1.144.248H19h-7v-1.994L2 12c-4 1 0-1.559-1.103-2.043-2.349-2.343a1 1 0 0 0 1.8-1.66c-.08-.175-.297-.399-.947-.445-1.126 0-2-1.315-3.74-1.838-4.008-.402-8.936-2.102-2.462-2.137-.934-4.246 1.941-5.277 5.59a.503.5 0 0 1 .71.018c-.013-.01-1.261-.902-3.702-.902s-3.691.892-3.701.9a.5.5 0 0 1-.096-.608" fill="#292f33"/><path d="M9 12s5-2 10-2 10 2 10 2 0-3-1-3-2 1-2 1-4-2-7-2-7 2-7 2-1-1-2-1-1 3-1 3" fill="#f5f8fa"/><path d="M19 17.5c3 0 3-.5 3-4.5s-1.5-6-1-11S5 1 0 0 10 32c0 3.797 4 1.5 10 5s3 3 19 1 1-5-1-1-1-1-1 0-11c0-7 2-1 9-1" fill="#99188c" fill-rule="nonzeroraserod="ef" stroke-linecap="round" stroke-linejoin="round" stroke-linecap="round" stroke-miterlimit="10"/></g></svg>
