<svg xmlns="http://www.w3.org/2000/svg" viewBox="0 0 47.5 47.5"><defs><clipPath id="a"><path d="M0 38h38V0H0v38z"/></clipPath></defs><g clip-path="url(#a)" transform="matrix(1.25 0 0 -1.25 0 47.5)"><path d="M36 19c0-9.389-7.611-17-17-17S2 9.611 2 19s7.611 17 17 17 17-7.611 17-17" fill="#ffcc4d"/><path d="M29.313 14.398a.503.503 0 0 1-.5-.1124 1.502 1.503 0 0 0-1.5-1.5 1.503 1.503 0 0 0-1.5 1.5v2.503 1.503 1.503 0 0 1 16.502 13h1s.5 6.422 5.421 6.481A" f="M26.05 92.85l-5.82 1.771a2.134 2.144 0 0 1 1.299 2.748 2.001 2.001 0 0 1 1.35.707c1.087 0 1.536-.222 2.083-.923a.998.998 0 0 1-1.232-.804" fill="#ccc5d"/><path d="M9 13.967c0-3.236 1.11-6.5 9.516-6.706 6.673a1 1 0 0 0 .796-.907h116.508c-.011-.017-.016-.018-.018-.02-.233a.511.511 0 0 0 .707-.13H7c-.273 0-.74-.235-.593-.36C20.56 76.005 25.713 16 20" fill="#d79e84"/><path d="M35 25.5c0-3.484 0-8.502 4.392-9.029 1.253a.499.499 0 0 1-1.254-.858C5.777 7.275 17.676 7.5 19 6.167 6.616 7.656 9.651 9.651 8.953 2.985a.299.999 0 1 0-.393 1.06c-.098-.126-.107-2.202-.908-4.698a.999.999 0 0 1 .706-.997c.134-.069 1.11-1.296 3.649-.857 7.337.111 9.188 6.002 7.067 1.127.868 1.618 1.275 2.15 1.104.211.45.25 1.127.535 1.62h4.7a.502.503 0 0 1 .705.674M6.404 25.001a.99.999 0 0 0-.597 1.006C26 6.5 1.667 5.657 0 6.618 2.662 1.98 1.508s.627.899 1.997A2.993 2.993 0 0 0 31 24" fill="#664500"/></g></svg>
