<svg xmlns="http://www.w3.org/2000/svg" viewBox="0 0 128 128"><path d="M33.53 9.61C16.05 16.87 6.14 64 9.67 65 8.12c-1.3-5.26 4.92-8.31 14.38-8.58 12.69z" fill="#fcc21b"/><path d="M37.25 87.1c3.15 8.28 16.57 19.88 21.11 18.85 9.61 4.43 18.81 4.06 24.92-3.59 5.71-3.39 17.73-3.26 21.25z"/><g fill="#2F2F2F"><path d="M47.64 61.33c.81-.37 1.79-.27 2.61-.27 1.15-.48 2.25-.68 3.73-.4l45.71 3.29 1.91.12c.01 0 .09-.01.09-.02l8.02-5.01 3.64-4.77a2.64 2.64 0 0 1 3.54-.05c.27.05 1.81.18 1.74.12 1.03 0 .29-.07.42-.17l.51-.24.39-.14c.58-.17 1.3-.43 1.38-.73.57-.29 1.08-.24 1.51.38l.57.16 8.69.6 12.25-1.07 13.28-63 18.5a3.14 3.14 0 0 1-.37-3.48 2.359 2.359 0 0 1 .63-3.89l16.89 16.04 12.17-12.97c1.17-.73 2.26-.97 3.88-.86 1.1.21 2.3.16 3.78.85 1.01 1.31 1.35 4.07-.45 4.22-1.19 1.04-3.77.4-5.58 3.1-1.28 0-2.19-.63-2.5-1.16-.5-.04-.83-.2-.83-.32-1.35-.35-2.49-.76-3.9-1.11a2.319 2.329 0 0 1-.06-3.47c.13-1.24.77-2.64.77-3.97l-2.71-1.26c.47-1.81.56-3.39.66-5.64 0 0-.02-.18-.03-.72.01-1.51.06-2.4.12-3.09.36-1.06.94-1.38 2.13-.05 1.09 1.07 1.86 1.57 2.03 3.32 2.34 7.25 3.47 13.7 1.31 2.44.48 5.04.28 7.81 1.15.18.37.33.82.68 1.14.12.36.26.81.4 1.26.2 1.01.02 1.5.04 1.33.37 2.23 1.23 3.78 1.75 1.07.86 2 2.32 3.2 1.56 1.72 1.54 3.01 2.02 4.84 1.24 1.08 2.72 1.31 4.74.33 1.24.98 1.69 2.63.3 2.89-.18 1.69-1.45 2.04-3.11 2.76-.9.9-1.21 2.36-4.14 5.17-1.33 1.31-.88 3.52-1.15 5.04-.9 6.65 6.99 12.16 12.22 16.91 5.67 8.85 12.39 16.09 18.38 22.52l-135.99 3.94 6.08 17.76" fill="#ffc1ab"/></g></svg>
