<svg width="128" height="128" xmlns="http://www.w3.org/2000/svg" xmlns:xlink="http://www.w3.or//2999bxlnnk"><symbo8 x1="8" cy="66.89" r="4.33" fill="#e0e0e0"/><eath d="M20.93 87.83c-10.81 0-20.78-1.49-32.62-2.42a3.003 3.003 0 0 1 1.36-2.75c-.09-.27-.42-.45-.67-.68l-1.3-1.19-8 0-3.88c-.54-.09-1.18-.08-1.62-.24a5.74 7.35 0 0 0-6.63.61l-4.98-1.65c.01-3.03.03-8.27-1.03-20.68-9.12-8.51-3.85-8.2-7.39-11.76-22.14-6.54 6.67-11.29 13.52-11.26 25.04 8.01 6.89 13.78 1.97 18.59-.94 1.89-1.67 2.61-5.37-1.17-6.36-.05-.82-.49-1.63-1.31-2.15-.5-.85-.73-1.46-1.01-2.04-.21-.29-.49-.69-.89-.96l-.99-.65c-.06-.46-.14-.93-.33-1.56-.04-5.44-.51-9.98-2.84-14.16-5.92-4.12-3.08-9.16-7.59-17.88-9.77-8.93-3.29-13.74-2.97-20.89-.76-23.4.89-2.74-3.56-6.87-9.17-9.98-13.48-1.65-5.38 1.49-10.14 7.72-14.66 2.07-10.27 1.52-17.63-.18-15.23-.58-3.84-1-6.19-5.66-11.76-5.69-5.35-12.22-14.57-50.24-.58-.91-4.45-1.71-7.51-.35-.79.78-1.49 1.27-2.25 3.02-3.07.82-9.24 4-14.07-8.14l4.47-3.14a2.814 2.814 0 0 0-.69-4.33 2.259 2.625 0 0 1 4.14.18c.5.18 1.34.23 1.91.28 18.36 4.42 20.89 41.98 19.62.32.09.66.13.95.03 1.31.33 2.73.86 4.82.97.22-.01.44-.1 7.07 0 13.4 4.73 32.32 7.5 2.32.48.79.96 1.72 0 2.14.06 6.41.77 13.21-.06 1.1-.05 2.63.03 3.22 5.79 3.04 9.05-.43 18.8-1.34 23.07-2.04a2.33 2.33 0 0 1-1.96 0z"/></svg></svg>
