<svg viewBox="0 0 32 32" xmlns="http://www.w3.org/2000/svg" fill-rule="evenodd" clip-rule="evenodd" stroke-linejoin="round" stroke-miterlimit="1.414"><path fill="none" d="M0 0h32v32H0z"/><circle cx="16" cy="16" r="16"/><path d="M12.976 2.328A14.017 14.017 0 0 1 16 2c5.178 0 9.704 2.817 12.125 7.002.787 3.091 1.461 5.819 1.617 9.686C28.549 24.812 23.358 29.515 17 29.965c-2.429-.528-5.812-1.221-7.889-1.777a14.045 14.045 0 0 1-6.49-8.056c.213-3.091 2.481-11.583 2.752-14.644M10.05 12.608-1.789c.04-.086-.019-.085-.024-.071-.03-.056-.028-.063-.031-.062-.043-.062-.045-.063-.043-.063-.044-.063-.043-.064-.043-.064-.043-.064-.042-.064-.041-.065-.041-.065-.039-.065-.039-.065-.039-.065-.04-.065-.031-.065-.029-.065-.029-.066-.029-.066-.031-.066-.034-.065-.035-.065-.037-.064-.039-.063-.04-.063-.041-.061-.047-.06-.047-.06-.046-.061-.042-.062-.04-.062-.039-.063-.037-.065-.035-.065-.034-.066-.031-.066-.03-.067-.028-.068-.027-.068-.024-.068-.024-.069-.022-.069-.022-.07-.021-.07-.02-.07-.019-.07-.016-.071-.015-.071-.013-.072-.011-.071-.01-.072-.009-.072-.008-.071-.006-.072-.004-.071-.003-.072L25.828 8l.001-.072.003-.072.004-.071.006-.072.008-.071.009-.072.011-.071.013-.071.015-.071.016-.06.018-.06.019-.059.02-.061.02-.06.023-.062.024-.062.023-.063.023-.065.021-.067.019-.068.012-.068.008-.068.004h.068l.068.014.067.019.066.023.064.027.062.03.061.035.058.035.056.037.055.031.052.034.051.035.048.038.048.045.049.045.05.043.052.034.054.029.056.028.057.022.058.019.06.016.061.012.062.008.062.004.063v.062l-.004.062-.008.062-.012.062-.016.061-.02.061-.023.061-.023.061-.023.061-.023.06-.023.06-.023.06-.023.06-.023.06-.023.06-.023.069-.025.069-.025.078-.027.086-.026.086-.027.085-.029.086-.023.085-.022.085-.02.086-.01.086-.009.078-.007.077-.006.077-.005.077-.005.077-.005.077-.006.076-.008.077-.008.076-.009.076-.01.076-.01.076-.012.075-.013.076-.014.075-.014.075-.015.074-.017.075-.017.074-.018.074-.018.072-.019.073-.02.074-.02.073-.019.072-.022.072-.024.072-.023.073-.022.073-.022.074-.02.073-.019.072-.018.072-.017.072-.016.073-.016.072-.016.072-.016.071-.017.072-.019.071-.02.07-.021.07-.023.069-.024.069-.025.069-.025.068-.027.068-.028.068-.031.066-.031.065-.034.065-.035.065-.037.065-.038.064-.04.063-.042.062-.044.061-.046.06-.047.059-.049.058-.05.057-.052.056-.05.051-1.59 1.59-.035.033-.036.032-.038.03-.04.028-.041.026-.042.024-.043.022-.044.02-.045.017-.045.016-.047.013-.047.011-.048.009-.047.006-.049.004-.048.002-.048-.001-.048-.003-.049-.005-.047-.007-.048-.01-.046-.012-.046-.015-.046-.016-.044-.019-.044-.021-.043-.023-.041-.025-.04-.027-.039-.029-.037-.031-.036-.032-.034-.034-.032-.036-.031-.037-.029-.039-.027-.04-.025-.041-.023-.043-.021-.044-.019-.044-.016-.046-.015-.046-.012-.046-.01-.048-.007-.047-.005-.049-.003-.048-.001-.048.002-.048.004-.049.006-.047.009-.048.011-.047.013-.047.016-.045.017-.045.02-.044.022-.043.024-.042.026-.041.028-.04.03-.038.032-.036.033-.035 1.581-1.581.023-.024.018-.019.017-.019.016-.02.016-.02.015-.02.015-.02.014-.021.013-.02.013-.021.012-.022.012-.022.01-.022.01-.022.009-.022.009-.023.008-.022.008-.023.007-.024.007-.023.006-.023.005-.023.005-.024.004-.024.003-.024.003-.024.002-.024.001-.024.001-.024.001-.024.002-.024.003-.024.003-.024.004-.024.004-.023.005-.024.005-.023.006-.024.007-.023.007-.023.008-.022.008-.023.009-.022.009-.022.01-.022.01-.022.011-.021.012-.022.012-.021.013-.02.014-.021.013-.02.015-.02.015-.02.016-.02.016-.019.017-.019.018-.023.023-1.582 1.581-.035.033-.036.032-.038.03-.04.028-.041.026-.042.024-.043.022-.044.02-.045.017-.045.016-.047.013-.047.011-.048.009-.047.006-.049.004-.048.002-.048.001-.048-.003-.049-.005-.047-.007-.048-.01-.046-.012-.046-.015-.046-.016-.044-.019-.044-.021-.043-.023-.041-.025-.04-.027-.039-.029-.037-.031-.036-.032-.034-.034-.032-.036-.031-.037-.029-.039-.027-.04-.025-.041-.023-.043-.021-.044-.019-.044-.016-.046-.015-.046-.012-.046-.01-.048-.007-.047-.005-.049-.003-.048-.001-.048.002-.048.004-.049.006-.047.009-.048.011-.047.013-.047.016-.045.017-.045.02-.044.022-.043.024-.042.026-.041.028-.04.03-.038.032-.036.033-.035 1.581-1.581.023-.024.018-.019.017-.019.016-.02.016-.02.015-.02.015-.02.014-.021.013-.02.013-.021.012-.022.011-.021.012-.022.01-.022.01-.022.01-.022.009-.022.009-.023.008-.022.008-.023.007-.024.007-.023.006-.023.005-.024.005-.023.004-.024.004-.024.003-.024.003-.024.002-.024.001-.024.001-.024.001-.024.002-.024.003-.024.003-.024.004-.024.004-.023.005-.024.005-.023.006-.024.007-.023.007-.023.008-.022.008-.023.009-.022.009-.022.01-.022.01-.022.011-.021.012-.022.012-.021.013-.02.014-.021.013-.02.015-.02.015-.02.016-.02.016-.019.017-.019.018-.021.023-.02.024-.021.023-.022.023-.022.024-.023.024-.024.025-.026.023-.026.022-.027.021-.028.021-.028.02-.028.019-.03.019-.03.017-.03.016-.031.015-.032.014-.032.013-.032.011-.033.011-.033.009-.034.008-.033.007-.034.006-.035.004-.034.003-.035.001-.034-.001-.035-.001-.034-.001-.035-.001-.034-.001-.035-.001-.034-.001-.035-.001-.034-.001-.035-.001-.034-.001-.035-.001-.034-.001-.035-.001-.034-.001-.035-.001-.034-.001-.035-.001-.034-.001-.035-.001-.034-.001-.035-.001-.034-.001-.035-.001-.034-.001-.035-.001-.034-.001-.035-.001-.034-.001-.035-.001-.034-.001-.035-.001-.034-.001-.035-.001-.034-.001-.035-.001-.034-.001-.034-.003-.035-.005-.034-.005-.034-.006-.033-.008-.034-.009-.033-.01-.032-.011-.031-.012-.032-.013-.032-.014-.031-.015-.03-.016-.03-.017-.03-.019-.028-.019-.028-.02-.027-.022-.027-.022-.025-.023-.025-.024-3-3-.024-.025-.023-.025-.022-.027-.022-.027-.02-.028-.019-.028-.019-.03-.017-3.082-.017-.02-.016-.02-.016-.02-.016-.02-.016-.021-.016-.02-.016-.02-.017-.02-.019-.02-.019-.018-.02-.018-.021-.017-.022-.017-.021-.015-.02-.015-.022-.013-.021-.013-.021-.013-.022-.013-.021-.013-.022-.014-.02-.013-.02-.015-.02-.016-.02-.016-.02-.017-.019-.018-.019-.023-.024-1.581-1.581-.033-.035-.032-.036-.03-.038-.028-.04-.026-.041-.024-.042-.022-.043-.02-.044-.017-.045-.016-.045-.013-.047-.011-.047-.009-.048-.006-.047-.004-.049L16 5.012l.001-.048.003-.048.005-.049.007-.047.01-.048.012-.046.015-.046.016-.046.019-.044.021-.044.023-.043.025-.041.027-.04.029-.039.031-.037.032-.036.034-.034.036-.032.037-.031.039-.029.04-.027.041-.025.043-.023.044-.021.044-.019.046-.016.046-.015.046-.012.048-.01.048-.007.049-.005.048-.003.048-.001.048.002zM25.826 4.002l.048.003.049.005.047.007.048.008.047.01.047.013.046.015.046.016.046.019.044.021.043.023.042.025.041.027.04.028.039.031.037.033.036.035.034.035.032.037.031.038.029.04.027.041.026.041.023.043.021.044.019.044.016.046.015.046.012.046.01.048.007.047.005.049.003.048.001.048-.002.048-.004.049-.006.047-.008.048-.011.048-.012.048-.013.047-.014.046-.017.045-.019.044-.021.044-.031.043-.032.041-.034.04-.036.038-.038.036-.04.034-.041.034-.042.031-.044.02-.045.017-.045.016-.045.013-.047.011-.048.009-.047.006-.049.004-.048.002-.048-.001-.048-.003-.049-.005-.047-.007-.048-.01-.046-.012-.046-.015-.046-.016-.044-.019-.044-.021-.043-.023-.041-.025-.04-.027-.039-.029-.037-.031-.036-.032-.034-.034-.032-.036-.031-.037-.029-.039-.027-.04-.025-.041-.023-.043-.021-.044-.019-.044-.016-.046-.015-.046-.012-.046-.01-.048-.007-.047-.005-.049-.003-.048-.001-.048.002-.048.004-.049.006-.047.009-.048.011-.047.013-.047.016-.045.017-.045.02-.044.022-.043.024-.042.026-.041.028-.04.03-.038.032-.036.033-.035 1.581-1.581.023-.024.018-.019.017-.019.016-.02.016-.02.015-.02.015-.02.014-.021.013-.02.013-.021.012-.022.011-.022.01-.022.01-.022.009-.022.009-.023.008-.022.008-.024.007-.022.007-.024.006-.023.005-.023.005-.024.004-.024.004-.024.003-.024.003-.024.002-.024.001-.024.001-.024v-.048l-.011-.002-.002-.002-.009-.003-.021-.002-.02-.004-.021-.004-.02-.004-.02-.004-.02-.004-.02-.003-.021-.004-.022-.003-.022-.004-.024-.004-.024-.004-.024-.005-.024-.005-.023-.006-.023-.007-.022-.007-.022-.008-.024-.008-.022-.009-.023-.009-.022-.01-.022-.01-.022-.012-.022-.011-.021-.012-.022-.013-.021-.014-.02-.013-.021-.015-.02-.015-.02-.016-.02-.016-.02-.017-.019-.018-.019-.023-.024-1.581-1.581-.033-.035-.032-.036-.03-.038-.028-.04-.026-.041-.024-.042-.022-.043-.02-.044-.017-.045-.016-.045-.013-.047-.011-.047-.009-.048-.006-.047-.004-.049L16 5.012l.001-.048.003-.048.005-.049.007-.047.01-.048.012-.046.015-.046.016-.046.019-.044.021-.044.023-.043.025-.041.027-.04.029-.039.031-.037.032-.036.034-.034.036-.032.037-.031.039-.029.04-.027.041-.025.043-.023.044-.021.044-.019.046-.016.046-.015.046-.012.048-.01.047-.007.049-.005.048-.003.048-.001.048.002zM29.036 4.001l.048.003.049.005.047.007.048.01.046.012.046.015.046.016.044.019.044.021.043.023.041.025.04.027.039.029.037.031.036.032.034.034.032.036.031.037.029.039.027.04.025.041.023.043.021.044.019.044.016.046.015.046.012.046.01.048.007.047.005.049.003.048.001.048-.002.048-.004.049-.006.047-.009.048-.011.047-.013.047-.016.045-.017.045-.02.044-.022.043-.024.042-.026.041-.028.04-.03.038-.032.036-.033.035-1.581 1.581-.023.024-.018.019-.017.019-.016.02-.016.02-.015.02-.015.02-.014.021-.013.02-.013.021-.012.022-.011.021-.012.022-.01.022-.01.022-.009.022-.009.023-.008.022-.008.023-.007.024-.007.023-.006.023-.005.024-.005.023-.004.024-.004.024-.003.024-.003.024-.002.024-.001.024-.001.024-.001.024.001.024.001.024.001.024.002.024.003.024.003.024.004.024.004.024.005.024.005.023.006.023.007.024.007.022.008.024.008.022.009.023.009.022.01.022.01.022.012.022.011.021.012.022.013.021.013.02.014.021.015.02.015.021.017.019.017.02.017.019.018.02.027.021.027.022.026.022.026.024.024.026.024.025.023.026.022.027.021.027.02.028.019.028.019.03.019.03.019.033.019.033.021.034.021.033.022.032.024.031.024.031.026.029.027.028.028.027.029.026.031.024.031.024.032.022.033.02.034.02.035.018.035.016.037.015.036.014.038.012.038.01.038.009.039.008.039.006.039.004.04.003.039.001.04v.04l-.002.04-.004.039-.005.04-.007.039-.008.039-.01.038-.011.038-.013.038-.014.037-.016.037-.017.035-.019.036-.02.034-.021.034-.023.032-.024.032-.025.031-.026.029-.028.029L11 18.414l-2.707-2.707-.028-.029-.026-.029-.025-.031-.024-.032-.023-.032-.021-.034-.02-.034-.019-.036-.017-.035-.016-.037-.014-.037-.013-.038-.011-.038-.01-.038-.008-.039-.007-.039-.005-.04-.004-.039L8 14.03v-.04l.001-.04.003-.039.004-.04.006-.039.008-.039.009-.039.01-.038.012-.038.014-.037.015-.037.016-.036.018-.036.02-.035.02-.033.022-.034.024-.032.024-.032.025-.031.026-.03.028-.029.028-.027.029-.027.03-.025.03-.025.032-.023.033-.022.034-.02.035-.019.035-.018.037-.016.036-.015.038-.014.038-.012.038-.01.039-.009.039-.008.039-.006.04-.004.039-.003.04-.001h.04z"/></svg>
