<svg xmlns="http://www.w3.org/2000/svg" viewBox="0 0 128 128"><path d="M127.22 93.42c0 13.86-28.29 25.1-63.22 25.1-34.92 0-63.23-11.24-63.23-25.1C.77 79.55 2.24 9.48 64 9.48c61.77 0 63.22 70.06 63.22 85.92"/><path d="M117.99 58.66c-.41 0-.77-.04-1.14-.08-4.64-.49-7.32-2.95-9.54-4.22-.92-1.48 1.7-2.74 3.02-3.42 5.32-6.01 10.17-10.29 13.78-8.3.92-12.6-5.22-15.71-3.94-17.32.21-.34.03-.76-.02-.72L18.09 30.07c.32 0 1.6-.12 2.39-.17 1.01.32.25 1.96.52 2.48z" fill="#2f2f2f"/><path d="M84.06 19.06c-5.19.04-11.53-3.32-18.93-9.71-9.32-14.65-9.19-26.56-9.96-21.32-8.99-4.2-20.19 6.94-26.24 9.02-9.18 3.87-11.75 3.83-18.29 3.4-.04 0-.19.01-.29.01-2.25-.66-5.08-1.9-10.38 0-3.55 2.45-8.27 4.16-13.51 7.38-.53 0-.81.04-1.31.07-.32.05-.76.07-1.1-.01-.6-.02-1.13.03-1.51 0-1.25-.49-1.65-1.75-.58-.78-1.11-1.3-1.41-1.91-.38-.45-.73-.87-.94-1.27-.26-.69-.59-1.14-.62-1.69l-2.39-9.51a2.99 2.99 0 0 0 2.39-2.88c.2-.51.47-.98.99-1.25.24-.52.39-.88.71-1.29.59-.42 1.19-.53 1.42-.83.29-.04.56-.15.59-.26.56.48.89.74.49.48.7.3 1.31-.11.24-.16.47-.39.8-.67.87-1.2 3.44-.84 4.82.88.73 2.51 4.11 8.05 2.92 7.05-.01 5.58-4.15 9.53-7.27 9.27-2.15.47-4.61-1.55-6.2-3.23-2.53 1.91-5.07 4.32-7.5 4.5zM87.57 47.12c-6.49.65-9.29 4.09-9.69 4.89.07.71.27 1.89 1.2 2.22 1.51 2.64-2.26 6.75-7.18 8.05-14.2 1.83-11.21 1.32-18.69 2.15-4.56 2.16-6.78 9.21-5.91 15.65.99 4.14 4.92 7.45 9.03 9.92 4.94 2.72 9.25 3.47 11.37 4.51 1.21-.12 2.59-3.24 2.85-3.49.15-.14.38-.37.48-.58.72-.43 1.17-.87 1.7-1.26.17-.63 1.37-1.29 1.54-1.16.31-.79.32-1.39.37-1.65 1.01-1.92 0-3.78-.18-6.69-.51-4.76-1.51-11.44-2.49-18.7-3.38-6.57-.19-16.04 2-20.83-6.86-2.53-.58-4.51-1.09-7.18-1.38z" fill="#835c52"/><path d="M43.74 72.6c.06-.01.07-.07.16-.07.06-.06.09-.1 0-1.12-1.08s-.06-.64-.09-.91.12c-.44.45-.86.68-1.01.873-1.32.31-1.72.49-3.19.6l-.99.01-1.74-.46-2.33-1.49.06-.11-.19-.18-.28.06-.15.1-.15.15-.12.17-.23.48-.44.8-.35.28-.28.59-.56.84-.83 1.12 1.15 1.97 1.57 2.59.67.92 1.5 1.06 2.15 1.21 1.81 2.04 2.33 3.27 3.49 8.29 8.94 7.71 13.96 6.13 1.8n.73 3.25 1.1 4.26 3.53 6.08 12.53 5.42 25.61 5.26 23.48 2.9 11.59 0 24.2-7.39 27.75-17.76a2.765 2.765 0 0 1-.63 3.29c-1.74 1.06-3.48 1.89-3.53 2.91-4.09 3.84-10.74 7.84-13.7 10.21-.4 5.37.76 9.43 5.11 15.42 7.06 2.38 1.74 4.58 3.22 6.41 4.53 1.71-1.06 2.74-3.6 2.8-5.42-1.38-3-2.44-5.46-2.65-9.64-.14-3.1.81-6.31 7.21-8.44 3.23-.9 9.31 5.27 14.72 5.22 2.81.11 5.2 2.05 6.35 5.47.83 1.28 2.57-.58 3.08-.97.19-1.89-.2-3.14-1.13z"/></svg>
