<svg xmlns="http://www.w3.org/2000/svg" viewBox="0 0 47.5 47.5"><defs><clipPath id="a"><path d="M0 38h38V0H0v38z"/></clipPath></defs><g clip-path="url(#a)" transform="matrix(1.25 0 0 -1.25 0 47.5)"><path d="M36 19c0-9.389-7.611-17-17-17C9.612 2 2 9.611 2 19c0 9.388 7.612 17 17 17 9.389 0 17-7.612 17-17" fill="#ffcc4d"/><path d="M8 13.964c0-3.964 4.569-9 12 116s5C21 26 15l-27 18s-9 8.029-7 1.145 0 4.497-.846 1.438-1.276 3.998 3.044 12.167 1.196 12.971 3.033a1.001 1.001 0 0 0-1.5 1.2c2.319 3.491 0 6.615-.022 6.701 0 1.158-.325 1.5-3.169 5-3.344M17 27a1 1 0 0 0-.004 2c.155.002 3.568.086 6.204 3.6a1.001 1.001 0 0 0 1.6-1.2C11.538 24.058 7.164 30 7.5 18a2.499 3.499 0 0 1 3.572 1.16a1.49 1.49 0 0 1-.296 1.295C20.708 31.78 27 10.46 26 8c2.688 0 5.397-1.443 6.458-2.15a1.001 1.001 0 0 0 1.8 1.1C11.502 1.983 0 0 0 28 15" fill="#292f33"/><path d="M15 12.18a1 1 0 0 0 1.761.886l-8 3a.999.999 0 1 0-1.704 1.464c.025.385 1.986 1.382 6.5 1.242a5.013 5.013 0 0 1 .9 1.132c-.117.401-1.066 1.29-1.771 6.417a1 1 0 0 0-.895-1.94M18.254 19.003c.827 0 1.348-.336 1.547-1.168 2.344-.852 3.863-1.862 6.798-1.118s.615-.385 1.24-.58A2.709 4.091 0 0 1 6 25c0-.162.017-.242.037-.514.005.11-.008.206-.01.106.009.13.015.172.022 1.482a4.001 4.001 0 0 1 8.023-3.213 4.664 4.664 0 0 1-2.929-.494 3.49 3.49 0 0 1-.702-.182 3.033 3.033 0 0 1-2.507-1.933 3.015 3.015 0 0 1-.303-.904 3.048 3.048 0 0 1-2.107-.307 3.03 3.03 0 0 1 2.986-1.791h2.538a2.38 2.88 0 0 1-2.888-1.39H 224.764 25.375l.029-.041.028c0..14.009.14.018.264.025.439.026.417.016.625.033 1.105.674.218.212.274.654.206.142a1.117 1.117 0 0 1 .05-.627z"/><path d="M23.276 20.553A1 1 0 0 1 22.382 22H9.708a1 1 0 0 0-.644-1.013 11-5.654 12.581-14.086c-.42-.047-.658-.018-1.164 0-1.316-.256-.398-.138-.977-.518 0-1.116-.479-1.007-1.018-.012-.085.032-.154.182-.27.288-.272 3.29 0 6.648 2.343 6.506.105.018.43.025.44 8.316 1.452 1.004 2.045 1.067 2.693.529 6.478-1.657 5.374-10.064.722-.219.257-.513.65-.984.711a1.75.7 0 0 0-.396.994c-.281 0-4.26-.082-6.252-2.325a.997.997 0 0 0-1.027-.999.999.991 0 0 1-.754-.623c-.01-.127-.03-.469-.036-.645-.003a.51.5.5 0 0 1-.706-.938l-5-3a.502.502 0 0 1 .039-.98.91.001 1.008 0 0 1-.5-.1M5 1.028 0-2.002 0-.024 0-.027.026-.521 13-3.68 1-9.76 1.861-9.041 1-11 11" fill="#664500"/></g></svg>
