<svg xmlns="http://www.w3.org/2000/svg" viewBox="0 0 128 128"><path d="M100.5 72.61c-.92 0-1.81-.49-2.3-1.19a2.363 2.36 0 0 1-.46-4.09c.41-1.24 1.27-2.91 2.4-2.95l12.86-11.3c-.98 1.62-2.48 1.7-3.55 2.7l-6.11 7.75s-6.42 6.76-7.44 2.87c-.21.01-1.81-.47-2.85-.68-5.78-.45-11.15 1.77-13.38 2.45-7.7 7.42-18.17 10.41-19.6 10.44zM64.22 55.19c-.89.17-1.52.06-2.04.08-1.99.12-3.76-.06-5.08-.8-7.39-2.53-9.87-7.02-10.02-1.3a8.36 3.96 0 0 1-4.4-1.3c-.94-.34-1.67.94-2.3 1.75l-7.82 6.13-9.62-8.32c-1.52.59-1.27 2.52-1.17 3.53 3.32l-3.31 12.86c-.82 1.62-.74 3.13-.68 3.71l.16.5c.5 1.03.43 1.87 1.48l.46.42c.21.14.48.37.84.6 1.33.44 1.97 2.65.32 3.97-.99.9-1.81 1.79-3.76 1.95-1.42-.38-1.56-1.01-2.17-1.4-1.69-1.17-2.38-2.81-3.02-4.7-3.17-1.7-3.98-5.69-6.69-7.28-6.87-1.4-.45-4.04.87-6.59 1.33-10.55-11.05-15.62-11.61-21.89-2.74-8.52-13.64-9.54-20.99-1.64-7.94 4.45-9.24 10.99-8.34 2.52-1.42 5.35-3.25 7.47-6.42 1.66-1.09 3.15-1.58 3.78-1.84 3.41.67 11.74 1.63 18.26 2.03 9.02 0 10.43-2.24 17.78-2.3 7.85 0 11.39 5.2 13.38 9.42 9.62 4.48 9.38 6.18 12.77 10.13 8.05 10.53 24.96 19.99 31.69 0 16.5-7.03 21.71-17.46 6.31-.05.05-.14.14-.14.12-1.69 1.47-3.85.51-5.32-1.38-1.45-2.43-2.54-4.67-3.62-5.71-3.33-6.73-11.14-9.17-13.32-7-5.49-.25-9.05-2.15-15.5-1.7-23.24 1.45-23.11 7.61-33.49 4.05-23.92.5-4.87-2.02-13.28-3.32-18.32 1.74C92.89 24.83 31.21 22.29 32.5c-6.15-5.66-20.23-36.36-50.03-34.95-1.46-17.21 1.96-27.66 7.64-27.96.47-9.58-2.13-17.78-9.71-15.71-7.64-5.14-3.37-7.04-9.77-7.32-14.14zm-18.63-3.21c-.93.19-1.75.18-1.69.71h-7.58c.24-1.66-.11-4.18-1.62-5.37-1.07-2.62-1.54-4.98-.68-5.68-.62-2.04-2.17-3.88-3.45-4.44l10.63 1.21c-.87 1.29-1.52 1.63-2.86 1.39-2.82-.03-4.78-1.23-6.94-2.27-1.44-2.34-2.84-4.45-4.25-6.72.23-.56.42-1.2.63-1.95 1.16-3.47 3.4-5.35 10.39-7.47 5.5 2.04 8.36 7.33 7.43 14.81-.49 5.77-2.2 9.89-6.26 12.72-5.57 3.84 1.43 5.29 7.79 5.97 10.67z"/></svg>
