<svg xmlns="http://www.w3.org/2000/svg" viewBox="0 0 128 128"><ellipse cx="64.1" cy="75.05" rx="43.74" ry="18.93" fill="#d65a8a"/><path d="M27.46 18.77c-.31 0-.32-.03-.59-.05l-7.6-.13c.24-.1.74-.18 1.11-.19 1.4-.41 1.87-2.48.17-3.12 7.51-6.43 15.94-10.72 22.19-8.05 8.3 2.18 11.04 12.09 10.37 19.81z" fill="#ffc1ad"/><path d="M107.89 61.69c-.3-.01-.43-.04-.63-.06-.09-.06-.17 0-.21.09-.17.1l-.36-1.25 16.24-5.36 153.99c.48.33 1.31-.63 1.85-1.09 2.27-4.6 3.85-7.4 3.53-11.53.05-2.03.36-4.08-.55L79.02 40-.01.01-.25c.01-5.24 5.64-9.63 3.39-13.84a2.985 2.985 0 0 1-3.45-.33c-.28-.01-.45-.04-.7-.09-1.5-.13-2.76-.51-4.46-1.5-7.6-4.33-7.56-14.46-5.94-20.68zm55.7-10.06c-.12.07-.26.18-.39.12-1.06.32-2.1-.14-3.16-.55-1.68-.44-2.75-1.67-3.95-2.61-.16-.67-.41-1.1-.62-1.66-.41-.7-1.25-1.58-2.31-2.19-1.61-.67-3.53-1.13-5.31-1.38-1.07 3.69-3.32 5.83-6.61 6.41-.53 4.06.21 6.69 2.22 5.08 4.41A1.39 1.34 0 2.46 1.71 3.35c-.69 0-1.35-.43-1.95-1.19-1.03-1.34-3.05-2.81-3.84-4.5-1.18-1.12-.66-3.53.27-4.93.43-2.71 1.12-5.48 1.85-8.78 2.91-4.5-3.59-8.69-9.17-8.31z" fill="#f89c26"/><path d="M64.52 65.6c-15.12 4.47-25.74-1.74-30.95-13.24-4.95-10.89 1.63-24.74 13.2-23.16 10.88-3.7 23.7 1.52 26.7 12.25 4.77 9.44-2.51 17.47-11.7 20.95z"/><path fill="#FBB71F" d="M32.25 89.67c-4.44 8.72-15.95 11.74-23.7 10.91-1.87-1.48-5.1-1.25-8.75 3.9l-7.27 5.4-.02.03c14.54 8.56 16.82 19.9 26.74.11 17.15-2.25 21.71-9.93 28.52-8.97 6.85-10.05 19.36-10.75 21.68-9.14 8.55-.55 13.28 1.55 18.79 11.14 1.72 3.4 1.36 7.26-1.25 10.33-3.45 1.77-9.49.02-15.4-1.01-20.67-.37-4.29-5.35-12.21-14.71-19.84-16.92-3.51-9.12-11.15-8.22-18.18zm55.56.01c0-.52.03-.54.03l-6.62 1.38c-1.16-1.67-1.24-3.25-1.84-5.93-.41-1.21-.58-2.37-.81-3.71-.62-.67-1.54-1.41-3.17-.61-1.67.78-3.24 1.62-3.42 1.64-.03 3.2.65 5.72.39 1.2.3 1.62 1.52 1.54 2.5-.01.05-.14.07-.28.17-1.68.42-2.72-.23-3.45-.28-1.4-.43-3.45-.84-5.88-.95-7.15-2.68-14.84-4.41-11.89-6.09a2.66 2.66 0 0 1 1.34-3.68c.94-1.33 2.9-2.41 4.35-2.92z" fill="#2f2f2f"/><path d="M92.14 41.3c.19-1.89.18-4.37.21-5.84.05-2.05.16-1.25.32-1.83.01-2.43.25-5.04.7-7.65.75-4.19 2.65-8.43 3.37-9.46 0-2.59-.55-4.31-.81-6.17.1-.77.23-1.84-.3-2.23-.76-.81-.89-1.41-2.07-1.58-2.25-.27-.57.46-1.01.97-1.42.56-.58 1.18-1.04 1.63-1.43 5.49-.95 13.37 6.57 13.03 13.18 0 2.86-1 3.09-3.08 2.01-2.5.05-4.08-1.03-5.08-.52a.47 4.95 0 0 0-2.54-2.46c-.09-.23-.46-.31-.69-.42 2.27.31 3.82 1.53 6.71 2.45 4.44 2.34 5.74 3.01 7.15 2.38 1.47.04 3.78.04 7.26-.25 5.57-1.16 10.77-6.44 13.72-9.48.63-1.04.75-2.09.71-3.18zM35.24 39.33c-5.43-1.4-10-.94-.02-.98-.01-4.28-.96-9.01 4.62-31.09 4.81-4.65 11.84-10.59 29.5-12.29.96-.83 1.42-1.85 1.63-3.4.81-.66 1.72-2.33 2.09-3.34.29-.68.79-2.21.91-3.18.12-.65.05-1.2-.06-1.89-.06-.53-.1-.82-.41-1.2-.54-1.56-.54-3.64-.27-4.53.67-1.09 3.43-1.28 4.09-.36.9.39 2.53.89 3.49.98.79 2.21 1.13 3.48 1.68 2.03 1.26 2.08 2.03 1.3 3.67-.55 5.08-2.75 5.03-5.72.62-.39.12-.74.16-1.23.1-2.15.15-3.05.23-3.98.31-4.67.22-7.48-1.58-10.51-1.85-3.41-1.08-7.02-.82-9.62-.23-.86-.15-1.35-.16-2.27-.13-.67-.85-.57-1.73-.81-1.69.08-.95.29-.95.49-1.44 1.25-1.91 2.32-1.38 2.87.97 3.52 3.61 5.21 8.88.15.25.34.44.81.41.7.08 1.17.17 2.01-.25.11-.31 1.63-.66 1.23-1.97.3-.56.8-1.12 1.26-1.89 1.02.03 0 .22.01.3 1.01.03.01.03.01.03.01.03.01.03.02.02.01.02.02.02.01.01zM17.22 81.78c-1.45 0-2-.12-1.83-2.93-2.85-2.75-2.65-9.25-10.68-20.06-9.76-1.43-.2-2.79.51-4.06.97-1.07 1.24-2.31 2.3-4.38 1.18-5.43-5.19-10.21-10.6-8.3-16.12-.32-.67.08-1.33.43-1.66 1.41-2.22 3.44-4.88 6.42-6.26.72-1.01 1.33-1.66 2.72-1.43 3.32-1.18 5.39-.64 7.62-2.22 7.86-4.93 12.04-10.55 9.45-10.78zm127 68.09c-.54.23-1.23.38-1.88.68-2.11 1.24-4.18 2.78-6.22 2.7-.93 0-.93.4-1.35.33-.72.45-1.15.91-1.61.81-.74 0-1.46-.34-2.03-1.94-.13-.39-.55-1.13-.6-1.7-.31-1.59-.19-3.61-.23-1.1 0-2.25.04-3.44.55-8.03 1.62-10.37 9.84-19.7 10.45-.49 1.51.78 12.01 1.84 18.65z"/><path fill="#2F2F2F" d="M47.86 65.69c-.14.15-3.25 6.03-11.64 6.25-1.98.11-3.6.6-4.42 1.54-.54.66-1.43 1.23-1.76 1.33-5.01 1.05-9.28.01-10.55-.01-.03-.01-.07-.02-.1-.15 0-.22-.02-.25.03z" fill="#2f2f2f"/><g><path d="M84.84 78.19c-9.4 3.31-18.78-1.3-23.58-9.57-3.46-8.32 1.42-14.67 9.9-19.2 6.96-2.92 14.82 1.21 19.99 8.07 2.63 7.18-1.12 15.04-8.39 17.71z"/><path fill="#FAB020" d="M103.97 85.53c-7.73 2.78-16.25-1.14-19.06-8.76-2.8-7.62 1.17-16.05 8.89-18 4.67-2.52 14.76 1.05 17.25 7.97 2.5 6.52-1.09 16.77-8.22 18.7z"/><path fill="#FBB71E" d="M99.42 71.11c-6.81 2.47-14.35-1.11-16.76-8.41-2.31-6.43.98-11.71 7.02-13.37 6.01-2.92 12.89.76 13.92 5.51 2.88 5.72-.81 10.84-5.68 12.3sz"/><path fill="#F9A723" d="M23.11 68.2c-4.25 6.82-15.29 5.44-15.39 4.21-4.82-2.18-5.61-10.42-.45-16.24z"/></g></svg>
