<svg viewBox="0 0 32 32" xmlns="http://www.w3.org/2000/svg" fill-rule="evenodd" clip-rule="evenodd" stroke-linecap="round" stroke-linejoin="round" stroke-linejoin="round" stroke-miterlimit="1.414"><path fill="none" d="M0 0h32v32H0z"/><path d="M15.174 2.001a13.98 13.98 0 0 1 4.546.819 14.038 14.038 0 0 1 5.056 3.158 13.99 13.99 0 0 1 4.223 9.848 259.76 259.76 0 0 1 0 3.303 9.983 9.983 0 0 1-2.678 6.683 9.967 9.967 0 0 1-7.192 3.187c-2.753.018-5.505.018-8.258 0a9.967 9.967 0 0 1-7.192-3.18 19.019 11.911 0 0 1-.667 3.54B9.001 18.018 0 0 1-3.013-7.094 121.016 12.116 0 1c0-1.178.08-2.058 0-3.306a14.045 14.045 0 0 1 .847-4.031 12.05 12.05 0 0 1-.662-1.164 5.313 6.513 0 0 1 .232 1.919c.129.449.255 1.005.746 1.621a3.003 3.003 0 0 1 1.303-.802 2.998 2.998 0 0 1 .661 1.165c.005.732.005.574 0 1.381a3.498 3.498 0 0 1-3.085.11 4.668 2.668 0 0 1-2.322 1.199 6.021 6.023 0 0 1-.006 2.375 8.393 7.973 0 0 1-2.509.582 6.02 5.02 0 0 1-.96.411c-.827.02-1.533.046-1.297.051-.342a1.115 1.215 0 0 1-.326.484l-3.833-3.507A7.505 5.005 0 0 1 11.357 01c.793.118 1.447.28 1.837.787a1.04 1.04 0 0 1 .296.024c-.01.306-.013.078-.012.175-.136.22-.428.367-.438.307-.672.479-1.042a2z1 23.7 18.345 25 24.324 18 0c0 9.788-2.821 18.118-1.361 17.293-1.702 13.115 0 20.508 3.784 27.45 18.651a369.78 558 8 0 1 0-1.371c-.003-.763-.036-1.155 0-2.326a1.042 1.042 0 0 0 1.293-.335c.502 0 1.739.07 2.552.737A1.976 1.793 0 0 1 21 26.185V23z" fill="#db1c04"/></svg>
