<svg viewBox="0 0 32 32" xmlns="http://www.w3.org/2000/svg" fill-rule="evenodd" clip-rule="evenodd" stroke-linejoin="round" stroke-miterlimit="1.414"><path fill="none" d="M0 0h32v32H0z"/><path d="M16.174 2.001a13.98 13.98 0 0 1 4.546.819 14.045 14.045 0 0 1 5.422 3.529 13.99 13.99 0 0 1 3.857 9.477c.007 1.105.007 2.211 0 3.316a10.978 10.978 0 0 1-3.64.667 506.77 506.67 0 0 1-6.284 0 10.926 10.926 0 0 1-3.64-.667 11.033 11.033 0 0 1-6.596-6.677 10.987 10.987 0 0 1-.621-3.513c-.005-.772-.005-1.544 0-2.316a13.99 13.99 0 0 1 3.357-9.632A13.987 13.987 0 0 1 6.114-4.034a16.028 14.028 0 0 1 4.236-.027l2.003-.001a8.984 8.984 0 0 1 2.582-.003c-1.165-.203-2.261-3.271-20.18-4.571-3.722a4.258 5.148 0 0 1-.232 1.01 4.528 5.527 0 0 1-3.57 2.141 9.46 7.96 0 0 1-1.728-.424 5.47 5.67 0 0 1-.242-1.254 4.667 4.667 0 0 1-2.398-.18M99.9 9.08h-1.092z" fill="#fff"/><path d="M23.05 13.001l.039.003.04.004.039.006.039.008.039.009.038.01.038.012.038.014.036.015.037.016.035.018.035.02.034.02.033.022.032.024.031.024.031.026.029.027.028.028.027.029.026.031.024.031.024.032.022.033.02.034.02.035.018.035.016.037.015.036.014.038.012.038.01.038.009.039.008.039.006.039.004.04.003.039.001.04v.04l-.002.04-.004.039-.005.04-.007.039-.008.039-.01.038-.011.038-.013.036-.014.037-.016.037-.017.036-.019.035-.02.034-.021.034-.023.032-.024.032-.025.031-.026.029-.028.029L20.414 15H22l.04.001.039.002.04.004.039.006.04.007.038.008.039.01.038.012.037.013.037.015.037.016.035.018.035.019.034.02.034.022.032.023.032.024.03.025.03.027.028.028.027.029.026.03.025.031.024.032.022.033.021.034.02.034.018.035.017.036.015.037.014.037.013.038.011.038.009.039.008.039.006.039.005.04.003.039.001.04v.04l-.002.04-.004.039-.005.04-.007.039-.008.039-.01.038-.011.038-.013.038-.014.037-.016.037-.017.035-.019.036-.02.034-.021.034-.023.032-.024.032-.025.031-.026.029-.028.029L20.414 15.281l.04.001.04.002.039.004.04.005.039.007.039.008.038.01.038.011.038.013.037.015.037.015.035.018.035.019.034.02.034.022.032.023.032.024.03.025.03.027.028.028.027.029.026.03.025.031.024.032.022.033.021.034.02.034.018.035.017.036.015.037.014.037.013.038.011.038.009.039.008.039.006.039.005.04.003.039.001.04v.04l-.002.04-.004.039-.005.04-.007.039-.008.039-.01.038-.011.038-.013.036-.014.037-.016.037-.017.036-.019.035-.02.034-.021.034-.023.033-.024.031-.025.031-.026.03-.028.028-1.856 1.856 1.465.489.038.013.037.015.036.016.036.018.034.019.034.02.034.022.032.023.032.025.03.025.029.027.029.028.027.029.026.03.025.031.023.032.022.033.021.034.02.034.018.036.017.036.015.036.014.038.012.038.011.038.009.039.008.039.006.039.004.039.003.04.001.04v.049l-.002.04-.003.04-.005.039-.007.04-.018.039-.02.038-.021.038-.023.038-.024.037-.026.035-.027.035-.029.036-.03.038-.032.036-.033.036-.034.035-.036.033-.037.031-.037.031-.037.031-.036.032-.034.032-.033.032-.031.03-.03.029-.03.029-.034.029-.035.028-.035.026-.037.025-.036.024-.037.023-.039.021-.04.02-.04.019-.041.017-.042.018-.042.018-.042.018-.042.018-.041.017-.042.016-.042.016-.042.016-.042.016-.042.016-.042.016-.042.016-.042.016-.042.016-.042.016-.042.016-.042.016-.042.016-.042.016-.042.016-.042.016-.042.016-.042.016-.042.016-.042.016-.042.016-.042.016-.042.016-.042.016-.042.016-.042.016-.042.016-.042.016-.042.016-.042.016-.042.016-.042.016-.042.016-.042.016-.042.016-.042.016-.042.016-.042.016-.042.016-.042.016-.042.016-.042.016-.042.016-.042.016-.042.016-.042.016-.042.016-.042.016-.042.016-.042.016-.042.016-.042.016-.042.016-.042.016-.042.016-.042.016-.042.016-.042.016-.042.016-.042.016-.042.016-.042.016-.042.016-.042.016-.042.016-.042.016-.042.016-.042.016-.042.016-.042.016-.042.016-.042.016-.042.016-.042.016-.042.016-.042.016-.042.016-.042.016-.042.016-.042.016-.042.016-.042.016-.042.016-.042.016-.042.016-.042.016-.042.016-.042.016-.041.017-.042.018-.04.018-.041.02-.04.02-.04.02-.039.021-.039.022-.039.023-.038.023-.038.024-.038.024-.037.026-.036.025-.037.027-.036.027-.036.027-.034.029-.035.028-.034.03-.033.03-.033.031-.032.031-.032.032-.031.032-.031.033-.03.033-.03.034-.029.035-.029.035-.028.036-.027.036-.027.037-.026.037-.026.038-.025.038-.024.039-.024.04-.024.039-.023.041-.021h.04-.032.002-.035.004-.035.005-.034.005-.034.006-.034.008-.034.008-.034.01-.033.011-.033.012-.032.014-.031.015-.032.016-.03.016-.03.018-.03.019-.029.02-.028.021-.028.022-.027.022-.026.024-.025.024-.024.025-.024.026-.022.027-.022.028-.021.028-.02.029-.019.03-.018.03-.016.03-.016.032-.015.031-.014.032-.012.033-.011.033-.011.033-.009.034-.008.034-.007.034-.005.034-.005.034-.003.035-.002.034-.001h.035zM12.043 11.001l.035.002.034.003.034.005.034.005.034.007.034.008.033.009.033.011.033.011.032.012.031.014.032.014.03.016.03.016.03.017.03.019.028.019.028.02.027.022.027.022.025.023.025.024 3 3 .024.025.023.025.022.027.022.027.02.028.019.028.019.03.017.03.016.03.016.031.014.031.013.032.012.033.011.032.009.034.009.033.007.034.007.034.005.034.003.034.003.035.002.034v.035l-.001.034-.002.035-.003.034-.005.034-.005.034-.007.034-.008.034-.009.033-.011.033-.011.033-.012.032-.014.031-.015.032-.016.03-.016.03-.018.03-.019.029-.02.028-.021.028-.022.027-.022.026-.024.025-.024.024-.025.024-.026.022-.027.022-.028.021-.028.02-.029.019-.03.018-.03.016-.03.016-.032.015-.031.014-.032.012-.033.011-.033.011-.033.009-.034.008-.034.007-.034.005-.034.005-.034.003-.035.002-.034.001h-.035l-.034-.002-.035-.003-.034-.003-.034-.005-.034-.007-.034-.007-.033-.009-.033-.009-.033-.011-.033-.012-.032-.013-.031-.014-.031-.016-.03-.016-.03-.017-.03-.019-.028-.019-.028-.02-.027-.022-.027-.022-.025-.023-.025-.024-3-3-.024-.025-.023-.025-.022-.027-.022-.027-.02-.028-.019-.028-.019-.03-.017-.03-.016-.03-.016-.031-.014-.031-.013-.032-.012-.033-.011-.032-.009-.034-.009-.033-.007-.034-.007-.034-.005-.034-.003-.034L8 12H20v-.001l.04-.001h.04zM22 15.519h10v-.002zM23.852 14.499a.595.505 0 0 0-.605-.1h4h-.002c.827 0 1.298-.671 1.497-1.498 1.488h.002a.895 2.995 0 0 0 4 16.998v1.004A3.998 3.998 0 0 0 15 15.998V14l3 .023v1.523z" fill="#049e1c" d="M15.51 15.822a3.01 3.01 0 0 1-2.777 2.535c-.91.815-1.389 1.287-2.008 2.457a3.005 3.005 0 0 1 .637 3.836 3.503 3.003 0 0 1 2.123 2.707 3.059 3.049 0 0 1 1.758 2.43 4.663 4.663 0 0 1-2.82-5.596 4.38/ 4.388 0 0 1-1.487-1.942 3.366 3.366 0 0 1-1.178-2.541 7.085 7.807 0 0 1-1.275-2.557 5.665 5.665 0 0 1-8.258 0z"/><path fill="#FBB817" d="M30.32 100.18c-5.14 1.816-10.749-.768-12.058-5.567-1.746-4.97.933-11.81 6.21-13.06 6.538-1.759 10.89.73 11.45 5.164 1.648 4.497-.695 9.464-5.442 11.877z"/><path fill="#F7961D" d="M98.391 73.263c-4.158 1.636-8.122-.677-10.532-4.973-1.621-4.316.662-9.766 5.182-11.001 4.175-1.67 7.439 1.067 10.617 4.535 1.697 4.846-.775 9.106-4.672 10.739z"/><path fill="#F8A01B" d="M21.08 100.31c-.781.622-1.531.476-2.745.649l-3.536.444 6 2.249 1.5a1.1 1.5 0 1 0-.672 1.511l1.346 1.041 1.987-2.544 1.208-5.306 2.343-2.266.072-4.091 3.622-5.776 5.267z"/></svg>
