<svg xmlns="http://www.w3.org/2000/svg" viewBox="0 0 47.5 47.5"><defs><clipPath id="a"><path d="M0 38h38V0H0v38z"/></clipPath></defs><g clip-path="url(#a)" transform="matrix(1.25 0 0 -1.25 0 47.5)"><path d="M36 19c0-9.389-7.611-17-17-17C9.612 2 2 9.611 2 19c0 9.388 7.612 17 17 17 9.389 0 17-7.612 17-17" fill="#ffcc4d"/><path d="M15 20.5c0-1.934-1.119-3.5-2.5-3.5S10 18.566 10 20.5c0 1.933 1.119 3.5 2.5 3.5s2.5-1.567 2.5-3.5M24.485 9.12c-.012.045-1.046 4.657-4.385 5.983-3.778a.498.498 0 0 1 .715-.606c.012.01 1.262.902 3.702.902 2.426 0 3.674-.882 3.702-.902a.503.503 0 0 1 .642.038.502.502 0 0 1 .072.615M32.011 21a.997.997 0 0 0-.701.4c-2.64 3.521-6.061 3.599-6.206 3.6-.55.006-.994.456-.991 1.005A.997.997 0 0 0 25 27c.184 0 4.537-.05 7.8-4.4a1 1 0 0 0-.799-1.6M5.999 21a1 1 0 0 0-.799 1.6C8.462 26.95 13.816 30 13 30a1 1 0 0 0 .004-2c-.155-.002-3.568-.086-6.204-3.6a1 1 0 0 0-.801-.4" fill="#292f33"/></g></svg>
