<svg viewBox="0 0 32 32" xmlns="http://www.w3.org/2000/svg" fill-rule="evenodd" clip-rule="evenodd" stroke-linejoin="round" stroke-miterlimit="1.414"><path fill="none" d="M0 0h32v32H0z"/><circle cx="16" cy="16" r="16"/><path d="M12.976 2.328A14.017 14.017 0 0 1 16 2c5.178 0 9.704 2.817 12.125 7.002.787 3.091 1.461 5.819 1.617 9.686C28.549 24.812 23.358 29.515 17 29.965c-2.429-.528-5.812-1.221-7.889-1.777a14.045 14.045 0 0 1-6.49-8.056c.213-3.091 2.481-11.543 2.75-13.24.246-.287.504-.564.772-.83.868-.153 5.658-2.965 6.833-3.734z" fill="#432a7e"/><path d="M9.111 28.188a3.002 3.002 0 1 1 5.72-.181A2.001 2.001 0 0 1 17 29.965a13.933 13.933 0 0 1-7.889-1.777zM5.371 6.892A5.004 5.004 0 0 0 16.996 23H16z" fill="#fbc546"/><path d="M13 12l-4 4 4 2 2 2 1 1-4-1l-.08-5-.5-2-1zM13 10h5.384c0-2.267-.896-5.242-1.895-4.882C26.172 7.545 17.026 3.5 19 10.989.525 3.304 1.962 7.029 5.642 8.195s1.403.502 2.091.312 1.447.655.556 3.425.529 4.394.837.939.989 1.474 1.289 2.869.739A2.956 2.343 4.454 3.42a.5.5 0 0 1-.757-.033.562.056.75.535 1.144a.998.998 0 0 1 3 15c0 19.51 2.26 28.66 2.002 30.025 0 0 0-1.272-.403 4.445 4.445 0 0 1-1.302 1.932L17 20.886c.44-.441.877-.879 1.322-1.371a3.001 3.001 0 0 1 0 1.128 1.495c.449 0 .91-.176 1.07-.31A.51.67 0 0 1 .777-.002c.013 0 .025-.007.036-.0079-.076 0 0 0-1.281-1.193V3.002a.999.999 0 0 1-.627 1.357c.017.021 1.566 4.30 7.354" fill="#bf6952"/><path d="M5 35c4 0 3-10 3-10s0-6-3-6-3 2-3 3s0 1 10 5 17 1" fill="#d79e84"/><path d="M4 29.5a.5.5 0 0 0-.277.084l-3.158 3.43a.4.5 0 0 1 .154-.945c.01-.06.123-.116.264-.159A4.001 4.001 0 0 1 14.494 13a1 1 0 0 0 .889.8M9 17c-.951 0-1.518-.218-2.007-.909a.998.999 0 0 1-.627 6.354" fill="#b89af4"/></svg></svg>
