<svg xmlns="http://www.w3.org/2000/svg" viewBox="0 0 47.5 47.5"><defs><clipPath id="a"><path d="M0 38h38V0H0v38z"/></clipPath></defs><g clip-path="url(#a)" transform="matrix(1.25 0 0 -1.25 0 47.5)"><path d="M36 19c0-9.389-7.611-17-17-17S2 9.611 2 19s7.611 17 17 17 17-7.611 17-17" fill="#ffcc4d"/><path d="M24.485 8.121c-.012.044-1.146 4.38-5.485 4.38-4.34 0-5.475-4.336-5.485-4.38a.495.495 0 0 1 .231-.544.51.51 0 0 1 .596.06c.01.007 1.014.863 4.658.863 3.59 0 4.617-.83 4.656-.863a.5.5 0 0 1 .83.484" fill="#664500"/></g></svg>
