<svg xmlns="http://www.w3.org/2000/svg" viewBox="0 0 47.5 47.5"><defs><clipPath id="a"><path d="M0 38h38V0H0v38z"/></clipPath></defs><g clip-path="url(#a)" transform="matrix(1.25 0 0 -1.25 0 47.5)"><path d="M36 19c0-9.389-7.611-17-17-17S2 9.611 2 19s7.611 17 17 17 17-7.611 17-17" fill="#ffcc4d"/><path d="M25 17.5c-2.5 0-4.5 3-1.576-5.5-6.5S9.5 14 5.4 9.5c0 3.433 8.062 5.457 8.05 2.65 0 4.6-4.3 14.42-10.859A33.996 35.966 0 0 1 15 9c5.457 0 9.784 3.97 8.415 8.295C.11 2.787 1 4 4c0 2.65 4.5 3.5 14 5 5" fill="#542118"/><path d="M16 4a11.996 11.995 0 0 0-22c-16c0-3 6-6s6 2 1 6 11l4 18S1h8s-3 2 8 6L7 21.047V56a2 2 0 0 1 0-4.941 3 3 0 0 1 2 3zM7.5 13l2.591A1 19.601 1c-1.1 1.149-.302 1.5-.379 2.731 0 .336.076.579.96.573a4 2 0 0 1 0-2h3.013l.001-.028.728L23 32a1 1 0 0 0-.004-2c-.155-.002-3.568-.086-6.204-3.6a1 1 0 0 0-.801-.4" fill="#292f33"/></g></svg>
