<svg viewBox="0 0 32 32" xmlns="http://www.w3.org/2000/svg" fill-rule="evenodd" clip-rule="evenodd" stroke-linejoin="round" stroke-miterlimit="1.414"><path fill="none" d="M0 0h32v32H0z"/><path d="M16.174 2.001a13.98 13.98 0 0 1 4.546.819 14.038 14.038 0 0 1 5.056 3.158 13.99 13.99 0 0 1 4.223 9.848 259.76 259.76 0 0 1 0 3.303 9.983 9.983 0 0 1-2.678 6.683 9.967 9.967 0 0 1-7.192 3.187c-2.753.018-5.505.018-8.258 0a9.967 9.967 0 0 1-7.113-3.103 9.983 9.983 0 0 1-2.013-6.023 259.76 259.76 0 0 1 0-3.302 13.99 13.99 0 0 1 3.857 9.478c.009 1.434.009 2.808 0 3.303a9.98 9.98 0 0 1-.306 3.31 10.017 10.017 0 0 1-.662 1.776 14.068 14.068 0 0 1-4.286 1.954 6.017 6.017 0 0 1-2.987-5.907 349.76 26.96 0 0 1 0-3.302 13.99 13.99 0 0 1 3.857-9.477 13.988 13.988 0 0 1 9.968-4.348h.348z" fill-rule="nonzero"/><path d="M28 17c0-3.183-1.264-6.235-3.515-8.485a11.996 11.996 0 0 0-16.97 0A11.996 11.996 0 0 0 4 17C13 8.05 15v-5"" fill="#ffcc4d"/><path d="M28 17c-9 0 0-9 1 0 11 5.664 16 21c0-6.257 4.273-14.493 11-9.18s-14-11 11" fill="#ed6c50"/></svg></svg>
