<svg viewBox="0 0 32 32" xmlns="http://www.w3.org/2000/svg" fill-rule="evenodd" clip-rule="evenodd" stroke-linejoin="round" stroke-miterlimit="1.5"><path fill="none" d="M0 0h32v32H0z"/><circle cx="16" cy="16" r="16"/><path d="M12.976 2.328A14.017 14.017 0 0 1 16 2c5.178 0 9.704 2.817 12.125 7.002.787 3.091 1.461 5.819 1.617 9.686C28.549 24.812 23.358 29.515 17 29.965c-2.429-.528-5.812-1.221-7.889-1.777a14.045 14.045 0 0 1-6.49-8.056c.213-3.091 2.481-11.543 2.75-13.24.246-.287.504-.564.772-.83.868-.153 5.658-2.965 6.833-3.734z" fill="#432a7e"/><path d="M9.011.211h1.012l.002.027.004.072.005.072.007.072.008.071.019.07.019.071.019.072.018.072.017.073.017.073.015.073.015.072.012.073.013.073.013.073.013.073.013.074.013.074.013.076.012.076.009.077.008.076.008.077.006.077.005.077.004.077.004.078.002.077.002h.156l.077-.002.078-.002.077-.004.077-.004.077-.005.077-.006.076-.008.077-.008.076-.009.076-.01.076-.01.076-.012.075-.013.076-.014.075-.014.075-.015.074-.017.075-.017.074-.018.074-.018.073-.018.072-.024.072-.024.072-.022.073-.022.073-.021.073-.02.073-.019.074-.018.074-.017.073-.018.073-.02.071-.021.073-.021.072-.021.072-.022.071-.024.071-.024.07-.026.07-.028.07-.029.07-.03.07-.03.071-.03.069.024.069.024.069.024.069.025.068.027.068.028.066.03.066.031.066.032.065.031.063.033.062.032.061.035.06.035.062.037.062.037.06.037.061.038.062.037.063.037.063.037.063.037.064.037.063.038.062.04.06.041.061.042.062.04.064.039.064.037.064.035.065.033.066.032.066.029.067.028.068.026.067.021.068.026.069.028.068.028.068.029.068.026.068.025.068.025.068.027.068.027.067.027.067.026.067.025.068.025.068.026.069.025.069.028.069.028.068.027.066.027.068.026.067.027.067.03.066.031.066.034.065.035.065.037.065.039.064.04.063.041.061.042.062.045.064.046.064.046.064.046.063.048.062.049.062.049.06.051.06.052.067.052.066.053.065.054.064.055.064.055.063.057.063.057.061.058.062.059.05.059.05.059.049.06.139.06.138.062.126.072.124.069.127.07.127.078.127.085.127.083.12.081.111.082.111.07.102.067.102.066.101.067.10.069.059.074.058.073.058.083.058.083.056.084.056.084.054.085.054.086.052.086.051.087.058.098.057.091.057.091.055.092.054.093.052.094.05.095.047.095.046.095.048.096.048.097.048.097.049.097.058.097.056.091.054.09.052.072.051.073.05.07.052.071.051.072.049.074.047.076.046.077.044.079.041.079.041.079.042.079.044.079.044.07.043.071.042.072.04.072.049.073.047.079.045.071.043.072.042.072.04.072.039.073.037.077.035.077.037.076.038.074.039.074.04.073.041.072.042.072.042.072.043.071.045.071.045.07.046.069.047.069.048.068.049.068.049.068.051.066.051.067.052.065.053.065.054.064.055.064.055.063.057.063.057.061.058.062.058.061.058.062.058.062.058.061.058.062.058.062.058.062.058.053.057.053.058.053.059.053.06.051.061.051.062.049.062.049.063.049.062.047.061.047.061.046.062.045.062.045.063.043.064.043.064.042.064.041.065.041.065.039.066.039.066.038.066.039.067.037.067.037.068.035.068.035.068.035.067.037.067.037.066.037.066.038.066.039.066.039.065.041.063.041.063.04.064.038.064.037.065.035.066.034.066.031.066.03.068.028.067.026.068.024.069.023.069.022.07.02.07.018.07.016.071.015.071.013.072.011.071.01.072.007.072.006.072.005.072.002.072.001.072-.001.072-.002.072-.005.072-.006.072-.007.071-.01.072-.011.071-.013.071-.015.07-.016.07-.018.07-.02.069-.021.069-.023.069-.025.067-.027.068-.028.066-.03.066-.031.066-.034.065-.035.064-.037.063-.038.063-.04.062-.042.061-.044.06-.046.06-.047.058-.049.058-.051.056-.052.061-.059 1.167-1.167.041-.037.043-.036.044-.034.047-.031.048-.028.05-.026.051-.023.053-.02.053-.017.054-.014.055-.011.056-.008.056-.004L20 20l.056.002z"/><path d="M21 22.016a3.498 3.498 0 0 1-2.587-1.996 4.476 4.476 0 0 1 .478-1.931L16.48 11h2.001l-.01.001-.02.005-.22.005-.126.01-.233.031-.129.041-.263L13.276 20.551a1 2 0 0 1-.676 1.167l-.016-.002.115-.005.127-.008.127-.013.127-.014.317-.016.172-.019.161-.021.169-.023.162-.022.183-.015.14-.016.139-.016.138-.012.138-.011.139-.01.13-.01.1-.011.009-.004.009-.004.009-.006.01-.006.009-.006.009-.007.009-.007.009-.007.009-.007.009-.008.009-.008.009-.007-.009-.008-.009-.008-.009-.008-.009-.008-.009-.008-.009-.008-.009-.008-.009-.008-.009-.008-.009-.008-.009-.008-.009-.008-.009-.008-.009-.008-.009-.008-.009-.008-.009-.008-.009-.008-.009-.008-.009-.008-.009-.008-.009-.008-.009-.008-.009-.008-.009-.008-.009-.008-.009-.008-.009-.008-.009-.008-.009-.008-.009-.008-.009-.008-.009-.008-.009-.008-.009-.008-.009-.008-.009-.008-.009-.008-.009-.008-.009-.008-.009-.008-.009-.008-.009-.008-.009-.008-.009-.008-.009-.008-.009-.008-.009-.008-.009-.008-.009-.008-.009-.008-.009-.008-.009-.008-.009-.008-.009-.008-.009-.008-.009-.008-.009-.008-.009-.008-.009-.008-.009-.008-.009-.008-.009-.008-.009-.008-.009-.008-.009-.008-.009-.008-.009-.008-.009-.008-.009-.008-.009-.008-.009-.008-.009-.008-.009-.008-.009-.008-.009-.008-.009-.008-.009-.008-.009-.008-.009-.008-.009-.008-.009-.008-.009-.008-.009-.008-.009-.008-.009-.008-.009-.008-.009-.008-.009-.008-.009-.008-.009-.008-.009-.008-.009-.008-.009-.008-.009-.008-.009-.008-.009-.008-.009-.008-.009-.008-.009-.008-.009-.008-.009-.008-.009-.008-.009-.008-.009-.008-.009-.008-.009-.008-.009-.008-.009-.008-.009-.008-.009-.008-.009-.008-.009-.008-.009v-.008-.009-.007-.009-.008-.014-.008-.012-.008-.012-.008-.012-.008-.013-.008-.022-.009-.023-.009-.022-.01-.022-.01-.022-.012-.022-.011-.021-.012-.022-.013-.021-.013-.02-.014-.021-.015-.02-.015-.02-.016-.02-.016-.02-.017-.019-.018-.019-.023-.024-1.581-1.581-.033-.035-.032-.036-.03-.038-.028-.04-.026-.041-.024-.042-.022-.043-.02-.044-.017-.045-.016-.045-.013-.047-.011-.047-.009-.048-.006-.047-.004-.049L16 5.012l.001-.048.003-.048.005-.049.007-.047.01-.048.012-.046.015-.046.016-.046.019-.044.021-.044.023-.043.025-.041.027-.04.029-.039.031-.037.032-.036.034-.034.036-.032.037-.031.039-.029.04-.027.041-.025.043-.023.044-.021.044-.019.046-.016.046-.015.046-.012.048-.01.047-.007.049-.005.048-.003.048-.001.048.002zM29.036 4.001l.048.003.049.005.047.007.048.01.046.012.047.015.045.016.044.019.044.021.043.023.042.025.04.027.04.028.039.029.037.031.036.032.034.034.032.036.031.037.029.039.027.04.025.041.023.043.021.044.019.044.016.046.015.046.012.046.01.048.007.047.005.049.003.048.001.048-.002.048-.004.049-.006.047-.009.048-.011.047-.013.047-.016.045-.017.045-.02.044-.022.043-.024.042-.026.041-.028.04-.03.038-.032.036-.033.035-1.581 1.581-.023.024-.018.019-.017-.02-.016-.02-.016-.02-.015-.02-.015-.021-.013-.021-.014-.02-.013-.022-.012-.022-.011-.022-.01-.024-.011-.022-.009-.023-.008-.022-.008-.023-.007-.024-.007-.023-.006-.024-.005-.023-.005-.024-.004-.024-.004-.024-.003-.024-.003-.024-.002-.024-.001-.024-.001-.024-.001-.024.001-.024.001-.024.001-.024.002-.024.003-.024.003-.024.004-.024.004-.023.005-.024.005-.023.006-.024.007-.023.007-.023.008-.022.008-.023.009-.022.009-.022.01-.022.01-.022.011-.021.012-.022.012-.022.012-.021.012-.021.013-.021.013-.02.015-.021.015-.02.016-.02.016-.019.017-.019.018-.023 11-5-4.502.048-.025.049-.025.049-.023.049-.022.049-.023.05-.021.05-.02.053-.018.054-.014.054-.011.055-.008.055-.004L20 20z" fill="#9268ad"/><path d="M27 19.5a1.5 1.5 0 0 0-1.5-1.5h-3a1.5 1.5 0 0 0 0 3h3a1.5 1.5 0 0 0 1.5-1.5zM11 19.5A1.5 1.5 0 0 0 9.5 18h-3a1.5 1.5 0 0 0 0 3h3a1.5 1.5 0 0 0 1.5-1.5z" fill="#ed6b44"/><path d="M23.707 11.293l.028.029.026.029.025.031.024.032.023.032.021.034.02.034.019.036.017.035.016.037.014.037.013.038.011.038.01.038.008.039.007.039.005.04.004.039.002.04v.04l-.001.04-.003.039-.004.04-.006.039-.008.039-.009.039-.01.038-.012.038-.014.038-.015.036-.016.037-.018.035-.02.035-.02.034-.022.033-.024.032-.024.031-.026.031-.027.029-.028.028-.029.027-.031.026-.031.024-.032.024-.033.022-.034.02-.035.02-.035.018-.037.016-.036.015-.038.014-.038.012-.038.01-.039.009-.039.008-.039.006-.04.004-.039.003-.04.001h-.04l-.04-.002-.039-.004-.04-.005-.039-.007-.039-.008-.038-.01-.038-.011-.038-.013-.037-.014-.037-.016-.035-.017-.036-.019-.034-.02-.034-.021-.032-.023-.032-.024-.031-.025-.029-.026-.029-.028L21 14.414l-1.293 1.293-.029.028-.029.026-.031.025-.032.024-.032.023-.034.021-.034.02-.036.019-.035.017-.037.016-.037.014-.038.013-.038.011-.038.01-.039.008-.039.007-.04.005-.039.004-.04.002h-.04l-.04-.001-.039-.003-.04-.004-.039-.006-.039-.008-.039-.009-.038-.01-.038-.012-.038-.014-.036-.015-.037-.016-.035-.018-.035-.02-.034-.02-.033-.022-.032-.024-.031-.024-.031-.026-.029-.027-.028-.028-.027-.029-.026-.031-.024-.031-.024-.032-.022-.033-.02-.034-.02-.035-.018-.035-.016-.037-.015-.036-.014-.038-.012-.038-.01-.038-.009-.039-.008-.039-.006-.039-.004-.04-.003-.039-.001-.04v-.04l.002-.04.004-.039.005-.04.007-.039.008-.039.01-.038.011-.038.013-.038.014-.037.016-.037.017-.035.019-.036.02-.034.021-.034.023-.032.024-.032.025-.031.026-.029.028-.029L21 11.586l2.707 2.707zM13.707 14.293l.028.029.026.029.025.031.024.032.023.032.021.034.02.034.019.036.017.035.016.037.014.037.013.038.011.038.01.038.008.039.007.039.005.04.004.039.002.04v.04l-.001.04-.003.039-.004.04-.006.039-.008.039-.009.039-.01.038-.012.038-.014.038-.015.036-.016.037-.018.035-.02.035-.02.034-.022.033-.024.032-.024.031-.026.031-.027.029-.028.028-.029.027-.031.026-.031.024-.032.024-.033.022-.034.02-.035.02-.035.018-.037.016-.036.015-.038.014-.038.012-.038.01-.039.009-.039.008-.039.006-.04.004-.039.003-.04.001h-.04l-.04-.002-.039-.004-.04-.005-.039-.007-.039-.008-.038-.01-.038-.011-.038-.013-.037-.014-.037-.016-.035-.017-.036-.019-.034-.02-.034-.021-.032-.023-.032-.024-.031-.025-.029-.026-.029-.028L21 14.414l-1.293 1.293-.029.028-.029.026-.031.025-.032.024-.032.023-.034.021-.034.02-.036.019-.035.017-.037.016-.037.014-.038.013-.038.011-.038.01-.039.008-.039.007-.04.005-.039.004-.04.002h-.04l-.04-.001-.039-.003-.04-.004-.039-.006-.039-.008-.039-.009-.038-.01-.038-.012-.038-.014-.036-.015-.037-.016-.035-.018-.035-.02-.034-.02-.033-.022-.032-.024-.031-.024-.031-.026-.029-.027-.028-.028-.027-.029-.026-.031-.024-.031-.024-.032-.022-.033-.02-.034-.02-.035-.018-.035-.016-.037-.015-.036-.014-.038-.012-.038-.01-.038-.009-.039-.008-.039-.006-.039-.004-.04-.003-.039-.001-.04v-.04l.002-.04.004-.039.005-.04.007-.039.008-.039.01-.038.011-.038.013-.038.014-.037.016-.037.017-.035.019-.036.02-.034.021-.034.023-.032.024-.032.025-.031.026-.029.028-.029L21 11.586l2.707 2.707zM13.707 14.293l.028.029.026.029.025.031.024.032.023.032.021.034.02.034.019.036.017.035.016.037.014.037.013.038.011.038.01.038.008.039.007.039.005.04.004.039.002.04v.04l-.001.04-.003.039-.004.04-.006.039-.008.039-.009.039-.01.038-.012.038-.014.038-.015.036-.016.037-.018.035-.02.035-.02.034-.022.033-.024.032-.024.031-.026.031-.027.029-.028.028-.029.027-.031.026-.031.024-.032.024-.033.022-.034.02-.035.02-.035.018-.037.016-.036.015-.038.014-.038.012-.038.01-.039.009-.039.008-.039.006-.04.004-.039.003-.04.001h-.04l-.04-.002-.039-.004-.04-.005-.039-.007-.039-.008-.038-.01-.038-.011-.038-.013-.037-.014-.037-.016-.035-.017-.036-.019-.034-.02-.034-.021-.032-.023-.032-.024-.031-.025-.029-.026-.029-.028L21 14.414l-1.293 1.293-.029.028-.029.026-.031.025-.032.024-.032.023-.034.021-.034.02-.036.019-.035.017-.037.016-.037.014-.038.013-.038.011-.038.01-.039.008-.039.007-.04.005-.039.004-.04.002h-.04l-.04-.001-.039-.003-.04-.004-.039-.006-.039-.008-.039-.009-.038-.01-.038-.012-.038-.014-.036-.015-.037-.016-.035-.018-.035-.02-.034-.02-.033-.022-.032-.024-.031-.024-.031-.026-.029-.027-.028-.028-.027-.029-.026-.031-.024-.031-.024-.032-.022-.033-.02-.034-.02-.035-.018-.035-.016-.037-.015-.036-.014-.038-.012-.038-.01-.038-.009-.039-.008-.039-.006-.039-.004-.04-.003-.039-.001-.04v-.04l.002-.04.004-.039.005-.04.007-.039.008-.039.01-.038.011-.038.013-.038.014-.037.016-.037.017-.035.019-.036.02-.034.021-.034.023-.032.024-.032.025-.031.026-.029.028-.029L21 11.586l2.707 2.707zM13.707 14.293l.028.029.026.029.025.031.024.032.023.032.021.034.02.034.019.036.017.035.016.037.014.037.013.038.011.038.01.038.008.039.007.039.005.04.004.039.002.04v.04l-.001.04-.003.039-.004.04-.006.039-.008.039-.009.039-.01.038-.012.038-.014.038-.015.036-.016.037-.018.035-.02.035-.02.034-.022.033-.024.032-.024.031-.026.031-.027.029-.028.028-.029.027-.031.026-.031.024-.032.024-.033.022-.034.02-.035.02-.035.018-.037.016-.036.015-.038.014-.038.012-.038.01-.039.009-.039.008-.039.006-.04.004-.039.003-.04.001h-.04l-.04-.002-.039-.004-.04-.005-.039-.007-.039-.008-.038-.01-.038-.011-.038-.013-.037-.014-.037-.016-.035-.017-.036-.019-.034-.02-.034-.021-.032-.023-.032-.024-.031-.025-.029-.026-.029-.028L21 14.414l-1.293 1.293-.029.028-.029.026-.031.025-.032.024-.032.023-.034.021-.034.02-.036.019-.035.017-.037.016-.037.014-.038.013-.038.011-.038.01-.039.008-.039.007-.04.005-.039.004-.04.002h-.04l-.04-.001-.039-.003-.04-.004-.039-.006-.039-.008-.039-.009-.038-.01-.038-.012-.038-.014-.036-.015-.037-.016-.035-.018-.035-.02-.034-.02-.033-.022-.032-.024-.031-.024-.031-.026-.029-.027-.028-.028-.027-.029-.026-.031-.024-.031-.024-.032-.022-.033-.02-.034-.02-.035-.018-.035-.016-.037-.015-.036-.014-.038-.012-.038-.01-.038-.009-.039-.008-.039-.006-.039-.004-.04-.003-.039-.001-.04v-.04l.002-.04.004-.039.005-.04.007-.039.008-.039.01-.038.011-.038.013-.038.014-.037.016-.037.017-.035.019-.036.02-.034.021-.034.023-.032.024-.032.025-.031.026-.029.028-.029L21 11.586l2.707 2.707zM13.707 14.293l.028.029.026.029.025.031.024.032.023.032.021.034.02.034.019.036.017.035.016.037.014.037.013.038.011.038.01.038.008.039.007.039.005.04.004.039.002.04v.04l-.001.04-.003.039-.004.04-.006.039-.008.039-.009.039-.01.038-.012.038-.014.038-.015.036-.016.037-.018.035-.02.035-.02.034-.022.033-.024.032-.024.031-.026.031-.027.029-.028.028-.029.027-.031.026-.031.024-.032.024-.033.022-.034.02-.035.02-.035.018-.037.016-.036.015-.038.014-.038.012-.038.01-.039.009-.039.008-.039.006-.04.004-.039.003-.04.001h-.04l-.04-.002-.039-.004-.04-.005-.039-.007-.039-.008-.038-.01-.038-.011-.038-.013-.037-.014-.037-.016-.035-.017-.036-.019-.034-.02-.034-.021-.032-.023-.032-.024-.031-.025-.029-.026-.029-.028L21 16.414l-1.293 1.293-.029.028-.029.026-.031.025-.032.024-.032.023-.034.021-.034.02-.036.019-.035.017-.037.016-.037.014-.038.013-.038.011-.038.01-.039.008-.039.007-.04.005-.039.004-.04.002h-.04l-.04-.001-.039-.003-.04-.004-.039-.006-.039-.008-.039-.009-.038-.01-.038-.012-.038-.014-.036-.015-.037-.016-.035-.018-.035-.02-.034-.02-.033-.022-.032-.024-.031-.024-.031-.026-.029-.027-.028-.028-.027-.029-.026-.031-.024-.031-.024-.032-.022-.033-.02-.034-.02-.035-.018-.035-.016-.037-.015-.036-.014-.038-.012-.038-.01-.038-.009-.039-.008-.039-.006-.039-.004-.04-.003-.039-.001-.04v-.04l.002-.04.004-.039.005-.04.007-.039.008-.039.01-.038.011-.038.013-.038.014-.037.016-.037.017-.035.019-.036.02-.034.021-.034.023-.032.024-.032.025-.031.026-.029.028-.029L21 11.586l2.707 2.707zM13.707 14.293l.028.029.026.029.025.031.024.032.023.032.021.034.02.034.019.036.017.035.016.037.014.037.013.038.011.038.01.038.008.039.007.039.005.04.004.039.002.04v.04l-.001.04-.003.039-.004.04-.006.039-.008.039-.009.039-.01.038-.012.038-.014.038-.015.036-.016.037-.018.035-.02.035-.02.034-.022.033-.024.032-.024.031-.026.031-.027.029-.028.028-.029.027-.031.026-.031.024-.032.024-.033.022-.034.02-.035.02-.035.018-.037.016-.036.015-.038.014-.038.012-.038.01-.039.009-.039.008-.039.006-.04.004-.039.003-.04.001h-.04l-.04-.002-.039-.004-.04-.005-.039-.007-.039-.008-.038-.01-.038-.011-.038-.013-.037-.014-.037-.016-.035-.017-.036-.019-.034-.02-.034-.021-.032-.023-.032-.024-.031-.025-.029-.026-.029-.028L21 15.414l-1.293 1.293-.029.028-.029.026-.031.025-.032.024-.032.023-.034.021-.034.02-.036.019-.035.017-.037.016-.037.014-.038.013-.038.011-.038.01-.039.008-.039.007-.04.005-.039.004-.04.002h-.04l-.04-.001-.039-.003-.04-.004-.039-.006-.039-.008-.039-.009-.038-.01-.038-.012-.038-.014-.036-.015-.037-.016-.035-.018-.035-.02-.034-.02-.033-.022-.032-.024-.031-.024-.031-.026-.029-.027-.028-.028-.027-.029-.026-.031-.024-.031-.024-.032-.022-.033-.02-.034-.02-.035-.018-.035-.016-.037-.015-.036-.014-.038-.012-.038-.01-.038-.009-.039-.008-.039-.006-.039-.004-.04-.003-.039-.001-.04v-.04l.002-.04.004-.039.005-.04.007-.039.008-.039.01-.038.011-.038.013-.038.014-.037.016-.037.017-.035.019-.036.02-.034.021-.034.023-.032.024-.032.025-.031.026-.029.028-.029L21 11.586l2.707 2.707z"/><path d="M16.468 17.082a4.87 4.88 0 0 1-6.571-2.941 4.676 4.677 0 0 1-.005-7.404A6.004 6.004 0 0 1 1.219-.506c.182.002.344.034.566.049a4.001 4.001 0 0 1-2.729 1.129 4.468 4.468 0 0 1-2.883-4.253 3.5 2.5 0 0 1 .05-1.991A2.502 3.503 0 0 1 23 3.029 2.586 1.039 1.039 0 0 1-2.577-3.067 2.099 2.099 0 0 1-.464 1.322 3.563 3.563 0 0 1-.756 2.346 2.499 2.499 0 0 1-2.833.673 3.486 3.486 0 0 1 2.281 2.91V9.5a2.5 2.5 0 0 1-2.093-.907l.004-.049a1.009 1.009 0 0 1 .647 1.04 1.003 1.003 0 0 1 .603-1.304 1.001 1.001 0 0 1 .05-.167H7.308H2.309a1 1 0 0 1-.894-1.447l.118-.236a6 6 0 0 1 5.366-3.317 1.043 0 5.545-.067.737 3.375.703.126.793.212.999.635a14.06 14.066 0 0 0-8.958 4.057z" fill-rule="nonzero"/><path d="M23.572 21.503a1 1 0 0 0 1.664-1.31l-5-5a12 12 9 0 0 1 1 11 27" fill="#bf6952"/><path d="M5 15v2a3 3 0 0 1 0-3 1 3 0 0 0 0 3"Mf01.001a8 4 0 0 0 6.726 0l6.373-3.677a2.46 2.66 0 0 1 2.908 18H17a5 2 0 0 0 2-2l22 15" fill="#76687f"/><path d="M25 3l5-5-1 2-2 0 0-1-2 2-2 1.5-3 1.5 1.561 0 2.589-2 5.005 5.914-3.514 8.925-3.362a.5.5 0 0 1-.147-.03c.003-.024.031-.018.045-.845 1.966-2.341 1.448-5.533-.651-7.622a.5.5a4.503 0 0 1 .637.707" fill="#ea1e3"/><path d="M8.04 32.025a.997.997 0 0 1-1.207.707.996.996 0 0 1-.748.233c.023.068.031.119.056.128.154a3.503 3.503 0 0 1 1.122 2.386 3.491 3.491 0 0 1-2.228 3.893 4.991 4.999 0 0 1-6.245 2.958c-.784 0-.519-.277-.697-.666a3.04 3.03 0 0 1-2.919-1.165 3.501 3.502 0 0 1 .996 2.495 3.516 3.516 0 0 1 .587.27 15.93 15.93 0 0 1-.304 3.398 12.04 22.04 0 0 1-2.036 2.874 2.927 2.927 0 0 1-.912-.715 3.013 3.013 0 0 1-2.324.38 2.28 2.28 0 0 1-.366-.129 2.501 2.501 0 0 1 .977-9.448c.185-.014.317-.006.476-.006l.186 0c.602-.042.773-.002 1.645a.498.498 0 0 1-.557.024c-.062.015-.117.012-.29.035a4.475 4.475 0 0 1-.049 1.027"/><path fill="#FBB817" d="M39.546 10.376c-5.311 2.007-17.506-1.541-17.257-9.425-2.167-9.473 1.479-15.175 7.454-15.694 6.422-2.319 13.796 1.131 17.326 7.845 2.083 6.008-1.595 13.307-7.305 14.204-10.032-17.111-24.505-17.271-78.505-30.725C78.88 15.11 36.008 19.338 66 10.888 22.701z" fill="#fff"/><path d="M81.47 104.01c-.27 0-2.35-1.04-2.18-.92a3.29 3.29 0 0 1-6.28-.32l-18.03-6.06-.01-.01v.07zM12 90.64c-2.88 0-5.08-1.88-5.04-5.37s1.39-1.56 3.3-.93 3.1l2.98 3.59c-2.55 0-4.08-2.72-3.98-2.39.01-1.7.47-2.7 2.2-2.74l8.92 1.75c-.79 1.78-1.63 3.39-1.83 4.19-.77 1.68-2.28 1.24-3.24 3.49-.77 2.12-.7 4.88-.88 5.58.38 2.86 3.79 5.73 6.08 5.46 2.92 1.24 5.2 2.81 5.3 4.79.45.72.91 1.37 1.33 2.04.53.74.9 1.37 1.17 2.04.33.36.66.66.94.87l.01.03c-.43 1.55-.77 3.17-1.24 4.89-1.11 5.21-5.75 9.7-8.33 9.92zm21c.17-3.68 4.29-7.15 4.02-14.25 1.46H21.83 2.16 5.51 5.77 7.63z"/><e fill="#2F2F2F"><path d="M33.06 89.31c-8.18 3.08-16.47-1.29-21.45-9.87-2.77-7.28 1.11-15.28 8.81-18.67 7.64-2.75 16.01 1.14 18.91 8.7 2.77 7.56-1.18 15.92-8.82 18.66z" fill="#fab020"/><path d="M103.97 80.98c-6.21 2.21-12.92-1.11-15.82-8.27-2.23-6.34.8-13.33 6.58-14.15 6.81-2.11 12.76.92 13.22 6.18 1.29 6.41-.84 10.76-8.49 12.73z"/><path fill="#FAB020" d="M98.16 92.86c-7.36 2.84-16.25-1.14-18.91-8.25-2.78-7.55 1.16-15.92 8.81-18.68 7.64-2.75 16.11 1.15 18.91 8.7 2.77 7.56-1.18 15.92-8.82 18.76z"/><path fill="#FCBE1C" d="M84.68 92.56c-7.38 2.67-15.33-1.07-17.64-8.21-2.41-7.45.99-12.78 7.02-14.88 6.08-2.28 13.43.91 15.03 7.16 2.22 6.03-.94 12.79-7.03 14.97z"/><path fill="#FAAE21" d="M98.78 91.78c-6.8 2.08-12.19-.85-14.3-6.58-2.1-5.71.88-12.04 6.67-14.13 5.78-2.08 12.19.87 14.3 6.58 2.1 5.71-.89 12.07-6.67 14.13z"/><path fill="#FAAC22" d="M98.15 69.81c-5.49 1.93-11.34-.81-13.54-6.32-1.99-5.45.78-11.5 1.42-13.05 1.86-10.85-7.76-21.5-14.5-28.3-14.05-19.5-.28-27.25 4.04-37.49 10.88-3.83 3.84-2.31 8.31-.62 12.71-.01 1.38 1.2 5.42 5.32 7.56 2.94 1.22 5.06 1.73 7.21 2.27 1.45.88 1.63 1.59 3.35 2.6 2.3 1.44-.62 3.25-1.33 3.49-3.58 1.05-12.35.02-22.07-4.58-23.33-8.14-3.67-13.38-5.45-20.69-12.13-2.94-4.82-3.08-7.55-.14-1.66 0-3.29 1.01-4.095 3.41-.83.42-1.74 1.19-2.45 1.97-.02.45.1 1.09.15 1.49.26.49.37 1.05.77 1.42.59.73.62 1.1 1.95 1.64 2.05.54.72 1.16 1.25 1.97 1.97.64.64 1.26 1.25 1.91 1.84.66.54 1.26 1.14 1.78 1.63.62.41 1.32.61 1.71.78.55.16 1.06.27 1.63.24.76.4 1.31 1.17 1.42 1.9.62.69 1.25 1.26 2 2.45 2.06 1.46.56 3.22 1.07 4.62 1.71.36.1.69.07.85-.05.52.00 1.05.09 1.9.01 1.3.01 2.09-.08 3.75-.12 5.6-.18 11.68-.06 15.25 1.09 5.14 1.78 10.62-.07 17.21-.24 4.89-.61 6.4 3.29 9.98 4.96 2 3.62 7 1.41 4 3.39 3.03 9.94-3.2 2.81-7.66.52-10.24-.43 4.12-2.34 6.56-5.05 6.07-1.46.57-3.13 1.38-4.68 3.78-2.74 1.94-4.08 4.12-6.85 6.62-1.69.74-3.76.28-5.41-.96-.82-1.71-.53-2.95-1.66-3.82-5.65-1.9-1.07-2.63-2.08-3.03-3.31h-.05c.84 0 1.53.49 1.67 1.37.09.41.17.8.7.29 1.49.21.46.41 1.01.17 1.73.17.16.07.24.16.31.09.16.14.26.21.15-.01.17-.06.27-.07l-.54.12c-.04.22-.12.38-.17.41-.27 1.13-.49 1.76-.86 1.38-.48 2.74-.71 3.61-1.01 1.73-.75 3.72-1.73 4.95-2.29.6-.17 1.43-.39 2.04-.28 1.16-.39 1.65-1.01 1.95-1.45 1.62-1.49 3.15-2.83 3.45-3.04 2.33.11 5.95 1.11 7.83 3.67 1.27 1.14 2.53 2.87 2.82 2.8.74.86 2.23 1.58 2.73 2.52.55.95 1.11 1.87 1.6 1.64.74.53 1.37.94 2.72 1.01 1.4.03 2.38.2 4.18-.05.9-.21 1.31-.17 1.62-.15.57-.11 1.07-.25 1.42.05z"/></e><circle cx="112.17" cy="67.87" r="1.81" fill="#fff"/><path fill="#2F2F2F" d="M51.02 11.04c3.67-.92-8.24-2.54-9.24-3.19-1.02-.91-2.24-3.13-3.27-3.45s2.48-.42 3.1-.91c.77 0 1.44.1 1.99.11 4.09 0 4.67-1.59 10.28-3.9 1.28-1.18 3.32-1.17 4.5-1.24 3.43.8 1.86 1.78 3.59 2.02 4.81 1.15.95 2.14 1.33 2.68 1.8l1.96 1.8c1.66 2.3 3.57 3.93 4.68 2.91 1.53 5.88 2.71 7.38 3.29 2.12.8 4.62 1.38 6.31 1.33.86-.18 1.75-.48 2.23-1.88 7.33-6.61 18.02-10.28 23.33-10.33 9.63-2.82 17.44 1.44 20.85 11.34 3.63 11.4-7.73 25.29-12.87 29.08z"/><path fill="#FBBB1D" d="M115.51 84.76c-10.29 3.79-23.73-1.2-27.04-12.24-3.97-10.73 1.64-22.4 11.4-27.3 12.84-3.38 25.03 1.71 29.06 10.62 3.4 9.42-1.45 20.45-12.28 20.83z"/><path fill="#FBBB1D" d="M110.51 84.76c-8.84 3.51-18.68-1.12-21.65-9.37-3.67-9.25 1.42-19.69 10.96-23.3 8.75-3.15 18.48 1.31 21.69 9.98 3.19 8.67-1.34 18.27-10.14 21.52z"/><path fill="#FBBB1D" d="M38.27 90.86c-6.81 2.95-14.16-1.07-18.12-8.51-2.75-7.5 1.15-15.87 8.73-17.72 7.68-2.63 16.22 1.08 19.68 9.06 2.82 7.98-1.25 16.8-9.01 19.65z"/><path fill="#FBB71E" d="M31.21 83.68c-8.8 3.31-17.04-1.2-21.558-9.62-3.18-8.68 1.31-18.22 10.14-21.43 8.78-3.16 18.54 1.32 21.76 10.42 3.39 8.78-1.37 18.34-10.04 21.86z"/><path fill="#FAB220" d="M30.58 81.25c-8.32 2.98-17.49-1.23-20.52-9.44-3.05-8.39 1.27-17.56 9.77-20.49 8.42-3.03 17.74 1.26 20.82 9.58 3.04 8.33-1.29 17.58-9.73 20.65z"/><path fill="#FBB91E" d="M116.12 79.54c-10.97 3.91-23.94-1.1-22.9-10.44-3.32-8.77 1.34-22.9 2.9-32.4 2.62z" fill="url(#b)"/><path d="M51.08 87.75c-1.78 1.89-3.78 2.51-5.28 3.13-2.45.2-3.31-.36-5.37-.93-1.75-1.11-3.28-2.33-4.44-3.35-1.31-.39-2.54-.34-3.43-1.14-7.81-3.73-16.5-10.45-22.39-22.24-1.4-3.93-4.45-7.28-6.77-9.32-.26-.16-.54-.29-.77-.53-.46-.74-.5-1.66-.1-2.42l2.94-5.41 2.59-4.17a2.522 2.522 0 0 0-1.99-3.4z"/><path fill="#2F2F2F" d="M37.22 60.92c-1.56 0-3.01-1.33-3.01-3.01 0a1.6 1.85 0 0 1-.73 1.48c-1.01.45-1.29 1.1-1.95 1.05-.54.32-.95.65-2.62.68l-.8.21c-.94 1.62-2.04 1.27-3.09 1.03s-.63-.11-1.04-.14-.49-.18-.92-.33-1.34-.06-.58-.09-1.18-.14-1.69-.16-.53-.07-1.04-.18-1.5-.1-.53 0-1.05.03-1.61.18-1.18.83-2.42 1.46-2.53 1.76-.23 1.49.6 2.2 1.24a2.95 2.95 0 0 1 3.45.73l17.89 1.95 16.1-9.97c6.05-.04 11.39-1.3 18.51-2.04.38-.08.95-.39 1.15-.33.92-.12 1.43.45 2.36 1.61 1.62 1.17 2.75 1.72 4.02 1.77.73.27 1.45.53 2.16.84.29.04.47.06.85.03 1.38 0 4.45-.86 6.2-4.6.01.03.04.05.57.12.32.13.55.1 1.25.1 1.91.28.48.8.79 1.34 1.34.58.65.92 1.27 1.8 1.34.64.34 1.31.63 1.71.98.59.15 1.03.27 1.7.72.52.6 1.13 1.28 1.7 1.84.29.44.56.88.73.83.16.05.17.07.37.07l.77.11c-.04.38-.18.65-.19 1.1-1.24 2.58-3.82 2.74-7.62 3.49-.07.01-5.29-.11-10.32-.43-.96-.46-1.44-.8-2.09-.36-.5-.08-.83-.43-1.21-.58-1.31-.41-2.69-1.14-2.79-2.24-.69-1-.87-1.64-3.01-2.49-3.06a2.99 2.99 0 0 1 3.19 3.21zM34.6 39.08c-3.43 0-6.71-.93-8.1-2.39c-1.35-.37-2.68.35-2.43 1.79.03 1.37 2.28 8.29 6.08 9.69 4.9 0 7.62-3.97 7.95-8.19s-3.5-4.08-7.57-4.09zM47.1 65.29c-.53.43-1.35.52-1.66.94-2.46-.82-4.13-2.73-5.91-6.64-.33-.62-5.85 1.04-7.45 4.47-4.63 2.28.76 8.42 5.41 9.48-4.53 6.66-6.83 9.09-8.34 17.92.4 1.87 2.5.96 5.37 1.93 7.93-1.57 5.47-6.76 6.75-10.42 3.8z"/></svg>
