<svg xmlns="http://www.w3.org/2000/svg" width="128" height="128" viewBox="0 0 128 128"><path fill="#F7952" d="M125.44 55.55c9.22-3.36 18.34-10.95 35.69-8.06 11.14 2.34 22.32 9.41 32.08 5.89 13.91-2.8 28.9-19.74 37.22-8.87 10.28-20.61 21.21-39.61 23.21-2.81 25.73 1.01 31.65 31.96 2.65 7.43-1.97 14.7-7.88 17.71z"/><path fill="#FAB220" d="M30.68 88.25c-6.73 2.38-14.15-.9-10.59-6.64-2.59-6.51 1.01-14.68 7.84-16.87 6.28-2.33 14.16.96 16.04 7.31 2.36 6.44-1.03 13.91-7.05 14.52z"/><path fill="#FBB51F" d="M39.11 89.75C86.23 86.31 82.2 48.22 64 42.23c-19.19-13.82-25.14-52.9-31.63-52.4 0-28.58 14.72-57.41 36.79 0 30.67 28.68 67.99 63.5 65.02z" fill="#fcc21b"/><path d="M64 6.37c-4.79-.92-8.94 6.77-9.9 9.92.09 5.16 4.68 9.08 9.96 9.67 4.16 0 7.59 4.3 9.71 4.67h.11zM9.96 81.14c-1.6 1-3.38-1.86-4.36-2.65-1.35-.94-2.94 2.06-3.42 4.01 2.32 2.28 1.74 7.45-.52 9.65-1.4 1.54-2.78 3.1-5.45 2.52-7.04 0-7.57-3.83-7.5-9.15-5.33-3.47 1.91-6.83 4.12-9.14 6.62-1.61 1.18-3.38 2.54-5.42 3.71-4.48 2.43-10.34-4.05-14.36-10.04.37-.52.15-1.41.33-1.88.56-.7 1.35-.43 2.88.4 1.28 1.45 1.53 3.4.73 4.69z"/></svg>
