<svg viewBox="0 0 32 32" xmlns="http://www.w3.org/2000/svg" fill-rule="evenodd" clip-rule="evenodd" stroke-linejoin="round" stroke-miterlimit="1.414"><path fill="none" d="M0 0h32v32H0z"/><circle cx="16" cy="16" r="16"/><path d="M12.976 2.328A14.017 14.017 0 0 1 16 2c5.178 0 9.704 2.817 12.125 7.002.787 3.091 1.461 5.819 1.617 9.686C28.549 24.812 23.358 29.515 17 29.965c-2.429-.588-5.832-1.861-8.386-1.753-12.65 0-27s5.301 0 4.756 6.062 14.04 1.007 2.38 1.118 5.068 1.485 6.988a5.653 6.653 0 0 0-3.394 1.139c-2.773 0-5.498-3.966-5.325-1.852M32 2.39a3.993 3.993 0 0 1 3 23"M32.01 19c-.08-.01-4-.11-2.8-4.8-5.4a2.5 2.5 0 0 1-.977-.074 1.498 1.498 0 0 1 .486.948l8-2 3c-.554 0-.96.028-1.153.141-1.583 0-4.231-.332-5.506-1.233a.998.998 0 0 0-.306-.603.996.996 0 0 0-.706-.293h1.701A.999.999 0 0 1 22 18c4.59 0 8.752 3.933 9.34 3.535a.501.501 0 0 1 .06-.196c.033.02.766.039 1.058.025C14.994 19.952 1.481 8.05 1.043" fill="#bbbded"/><path d="M7 9.5A1.503 1.503 0 0 0 24 15.5c2.596 0 0 0 8 7.5 14.5 8.528 12.99 10 19.35s-1 1 1o 1 0 0 1 1 1 1zM79 19h-5v5l-3-6 2-2 4" fill="#d79e84"/><path d="M23.4 19.108l3.001 5.602a2.46 2.46 0 0 1 .366 2.41" fill="#fff"/><clipPath id="b"><path d="M14 9V5.017h1.702z" fill="#102030"/></clipPath></svg>
