<svg width="128" height="128" xmlns="http://www.w3.org/2000/svg" xmlns:xlink="h0seS3e1clie-ouec-2.46-.47-6.037-.75-8.15-.23-2.83 0-4.36 2.36-4.48 5.06-.75 2.83.4 5.09 7.14 5.98 7.39-.96 13.39-1.99 22.44 2.54s1.53 2.35-.83 3.88z" fill="url(#c)"/><path d="M63.71 10.49c-2.3 0-4.72-.42-5.71-2.03 6.8 6.75 26.23 15.73 42.41 36.44l-.03-.01s-11.69-16.8-12.28-26.3C63.99 35.2 46 75.17 87.45 10c0.31-10.53 27.54-37.5 15.1z" fill="#8b5e3c"/><path d="M30.67 83.43c-.72 0-1.63-.45-2.05-1.02-.16-.21-.21-.26-.31-.55l-10.32-8.26c.2-.44.44-.78.71-1.25.58-.44.96-.81 1.97-.88.99.31 1.52.71 2.48.66.77.45 1.5.69 2.52 1.16.67.5 1.27 1.25 1.85 1.94.2.92.41 1.96.74 2.69.89 1.21.64 2.01 1.37 2.83 2.72.07.63-.05 1.66-.55 2.9-1.2 6.73-.75 1.56.76 2.26 1.7 2.62 1.87 14.09 6.76 30.22 14.79 41.38.92 4.29 3.18 7.73 7.63 9.08 1.42 0 1.94-.13 2.34-.26 1.3-.61 2.67-1.73 4.17-1.74 1.47-2.16 3.71-3.65 3.82-2.83 1.65-4.88-.38-6.66-2.21-6.41-4.66-12-11.87-13.51-13.82-3.65-9.64-2.05-18.71 3.69-.83.41-1.08.71-1.51.75-.49.15-.89.3-1.23.32-1.12.45-2.17-.31-3.07-1.62-.41-1.13-.75-1.61-1.45-2.23-.07-.21-.18-.36-.18-.37-.32-.25-.62-.42-1.12-.44-1.86-.04-.77-.29-1.45-1.13-2.13-1.93-1.02-4.27.53-6.21 1.55.71.33 1.92.65 1.81.94.5.1.69.25 1.18.27 1.86-.53.28-1.88.23-1.76.74-7.57 1.54-17.3-.82-20.65-1.37-1.4-3.72-1.34-9.2-.231.12 6.91 9.87 12.83 9.34 2.33.6 9.3 7.28 15.23 17.06 2.34 8.05-4.67 9.08-9.86.99-3.92-1.73-7.25-6.17-9.51-1.09-1.11-1.69-3.39-.42-4.9.8-1.66 2.56-3.18 3.87-4.06 3.09-.95 7.59-2.47 12.47-3.28.85-.14 1.44-.18 2.27-.33.87-.73 1.49-1.31 1.97-2.54 2.05-1.29 3.45-2.87 4.73-3.26.01.11.33.81.48 1.1.78.18 1.88.16 3.42-.41 5.11-1.6 1.33-4.05 1.78-7.28 2.15-.58.67-1.05 1.29-1.54 1.85-.71.83-.36 1.75.34 2.66 1.56 1.51 3.41 1.58 7.51.39 7.08 2.04 18.06 7.8 23.76 1.92.24.33.48.65.85 1.07-.02.97-.11 1.65-.65 2.64-1 .5-.66 6-2.74 5.34-7.46 4.7-.32.21-.77.4-1.58.66-2.44.77-5.68 1.84-7.2 8.51M84.25 35.93l-3.33-5.36-3.78a5.81 3.81 0 0 1 1.99.55c.03.15 1.1.45 3.17.66 1.81 3.87 9.39 12.59 11.78 29.86 2.62 8.51 0 17.04-4.66 14.36-7.37.68-1.01 1.63-2.38 2.5-3.68 2.47-2.01 3.01-5.75 2.87-9.57-.23-2.63-1.58-5.93-2.38-7.31-.61-.02-1.23-.03-1.71-.22-2.43 0-4.59 1.74-4.84 3.13-.95.92-1.81 1.63-2.46 2.24-1.23 1.04-2.32 2.38-3.44 3.48-2.04 2.8-4.37 3.5-9.23.32h-.55-.78-.84-1.33c-.83-.48-1.54-.73-2.03-.73-1.04-.37-1.59-.86-1.94-2.37-.22-.74-.5-1.62-.72-3.01.01-.23.03-.46.04-.81-.22-.54-.46-.97-.94-.96-.35-.31-.61-.58-.76-.88l-.12-.01c-.2-.01-.81.01-1.53.04-5.48.12-9.15.32-17.25.02-1.55-.03-3.49-.22-5.2.8-1.54 1.42-2.88 1.76-4.48.61-1.25.79-2.49.77-3.09 0-1.56-.56-2.21-1.75-2.89-1.34-.44-2.48-.68-4.71-.3-1.17-.37-2.17-.79-3.66-1.45-4.92-1.7-1.27-3.51-1.04-7.49-.24-7.77.39-16.58 1.2-26.75 10.45-.46 0-.75.17-1 0-1.34-1.06-.92-1.44-1.62-2.61-2.24-.45-.87-1.34-1.33-2.07-.34-.42-.75-.7-1.29-1.06-.73-.76-7.36-1.43-11.12-2.89-4.54.59-8.32 6.03-9.63 6.79-.7.98-2.14 1.64-2.41 1.87-.81.8-1.51 3.43-1.24 4.88 1.3 2.45 8.25-2.42 16.76-10.19 1.93 1.44 3.25 3.25 5.33 4.93 5.61 6.3 5.64 12.74 4.95 12.23.21.21.62.41 1.03.07.13 0 .35-.06.68-.14-1.23-.56-2.15-1.14-3.67-1.69-6.39-.09-12.52 1.07-17.37 11.44-1.41 3.8-.74 7.29.69 11.68.31 2.15 1.5 3.92 2.39-.4.24-.76.31-1.28.32zM118.74 25.63c-.66 0-1.35-.24-1.91-.65-6.36-4.83-14.34-7.6-18.61-11.68z" fill="url(#b)"/><path d="M103.01 94.38c-.35.34-.98.72-1.41 1.34-.31 0-.82-.02-.71-.09-7.67-4.41-15.57-8.36-20.92-7.4-3.73 0-7.87 3.68-7.76 7.76 0 3.2 2.53 6.77 5.63 6.07 6.67 0 9.51-3.77 9.19-8.35v.01zM74.95 14.97c4.49.04 8.16-4.26 8.32-8.36-.01-5.31-3.31-9.08-8.44-9.29s4.41.82 5.06 4.12c0-.67-.09-1.43-.3-2.01-1.01-.71-1.32-1.24-1.49-2.25-.19-.72-.96-1.34-.9-2.24-.08-1.09.3-2.36 1.45-3.04.1-.18.27-.32.41-.42.86-.81 1.62-1.41 2.26-.34.67-.71 1.52-.81 2.69-.06.21-.05.41-.07.6-.85 1.21-.42 3.09-.24 3.18.84s2.54 3.31 4.45 4.18 9.49-.62 1.49-3.63 1.23-5.31.3-.29-.08-.55-.39-.87-.4-1.12-.79-2.03-1.38-2.94-.94-1.17-.44-2.37-.66-3.72.54-2.72 1.21-4.68 3.32-6.21 3.6-1.38.4-2.72.09-3.59-.29-.2-.29-.4-.47-.44-.62-.02-.11-.4-.56-.84-.82-1.3-1.46-3.09-1.47-6.89.08-10.01 1.64-1.53 1.94-3.08.31-3.91zM111.54 90c.34-.96.73-1.31 1.25-2.16 1.73-1.18 5.03-.44 5.91 2.52 9.51 5.62 7.05 8.68 13.59 8.38 23.92L11.17 47.48z" fill="#88abf4"/><path d="M32.72 11.19c-3.67 1-3.38 2.39-5.53 4.96-2.72 2.54-4.77 3.27-10.49 3.65h.77V37.8l.23-7.499.27C9.57 10.54 88.5.74 66.08 9.9c-1.3 3.2-5.43 4.66-7.57 6.5-4.12-3.39-6.69-10.42-5.59-15.86l.01-3.48-4.73-5.71-8.17-7.08c-4.88 0-5.88 7.78-7.37 9.53 2.14 9.56 7.49 16.72 10.25 19.98z"/><path fill="#F9A723" d="M29.36 88.25c-3.18 7.22-11.07 10.04-17.04 10.46-5.15.57-11.31-2.05-16.11-12.35-9.17.02-11.56 3.72-10.05 1.36.79 1.59 2.13 1.37 3.25-.1 1.15-.78 2.71-.78 3.71l7.28 4.13c-.01.41-.19.62-.29 1.06-.24 1.2-.45 1.67-.61 3.52-.55 1.21.98 1.99 3.12.33 4.66 0 .16 0 .16-.01.32-.07.48-.11.88-.42 1.25-.1.06-.05.1-.13.1-.19.06-.33.13-.58.12-.84.28-.97.57-1.46 1.17-1.9 1.54-.5.65-1.25.63-2.04.21-1.1.42-2.04.31-3.28.33-.54.46-1.07.95-1.6.92-.04-.17.05-.32.13-.52.19-.27.2-.65.46-.98.71-.57.2-1.1.21-1.54.16-.53.08-.91.09-1.49.12-.54.32-1.09.63-1.65.56-.79.97-1.31 1.62-1.59 1.05.53 2.19 1.01 4.04-.17.53-.11 1.27-.17 1.48.01.41.02.95.14 1.62.29.36.09.56.16.66.16.1.05.11.07.23.07.08.07.15.34-.22.39-.16.67.06.85.33 1.02.72.25 1.09-.04 1.68-.33.51-.38 1.17-.79 1.77-1.05 1.09.3 1.95 1.16 2.97 1.89 3.45 3.6 6.42 9.38 10.42 12.86.77.31 1.08.23 1.66.08.4.36-.7.76-1.31-1.33-.11-.31-.18-.72-.14-1.2.07-.31.18-.6.19-1.04 2.33-.85 4.89-2.55 7.32-4.1-1.03-.74-2.69-1.13-3.54-1.48-1.31-.57-2.51-.72-3.85-1.11-.27-.6-.42-1.19-.7-1.67-.42-.66-1.51-1.41-3.15-1.41-1.73 0-3.71.31-5.52.7-4.53-2.54-6.18-6.41-10.21-5.61-3.67 0 6.99 2.74 4.97 4.17z"/></svg>
