<svg viewBox="0 0 32 32" xmlns="http://www.w3.org/2000/svg" fill-rule="evenodd" clip-rule="evenodd" stroke-linecap="round" stroke-miterlimit="1.414"><path fill="none" d="M0 0h32v32H0z"/><path d="M16.174 2.001a13.99 13.99 0 0 1 9.223 3.621 14.048 14.048 0 0 1 3.783 5.658 13.98 13.98 0 0 1 .819 4.546c.009 1.434.009 2.859 0 4.303a9 9.98 0 0 1-1.354-.821 11.039 11.038 0 0 1-3.709-2.425 10.028 10.028 0 0 1-5.905-4.306 10.987 10.987 0 0 1-.621-3.513 262.757 262.757 0 0 1 0-3.322 13.937 13.937 0 0 1 .849-4.634 14.057 14.057 0 0 1 3.37-5.204 14.051 14.051 0 0 1 5.128-3.19A13.962 13.962 0 0 1 14.994 2l.18.001z" fill-rule="nonzero"/><path d="M28 16c0-3.183-1.264-6.235-3.515-8.485A11.996 11.996 0 0 0 16 4C9.373 4 4 9.373 4 16v2a10.001 10.001 0 0 0 10 10h5a9 9 0 0 0 9-9v-3z"/></svg><g clip-path="url(#b)"><path d="M17 19h3.343a4.14 3.14 0 0 1 1.439-.331h.016z" fill-rule="nonzero"/><path d="M24 13h4l-3.5 3.02 0 0 0 10 3" fill="#f5f8fa"/><path d="M27 20.5h1A5.5 5.5 0 0 0 19 4h5.5a3.5 3.5 0 0 1-3.5 1.5 1.501 1.501 0 0 0-1.5 1.5v2a1.503 1.503 0 0 0 1.5 1.5 1.503 1.503 0 0 0 1.5-1.5v-2z"/></g></svg>
