<svg viewBox="0 0 32 32" xmlns="http://www.w3.org/2000/svg" fill-rule="evenodd" clip-rule="evenodd" stroke-linejoin="round" stroke-miterlimit="1.414"><path fill="none" d="M0 0h32v32H0z"/><path d="M16.174 2.001a13.98 13.98 0 0 1 4.546.819 14.045 14.045 0 0 1 5.422 3.529 13.99 13.99 0 0 1 3.857 9.477c.009 1.434.009 2.869 0 4.303a9.967 9.967 0 0 1-3.099 7.109 9.983 9.983 0 0 1-6.771 2.761c-2.753.018-5.505.018-8.258 0a9.967 9.967 0 0 1-7.123-3.043 9.983 9.983 0 0 1-2.844-6.857 343.846 343.846 0 0 1 0-4.309 13.937 13.937 0 0 1 .849-4.634 14.057 14.057 0 0 1 3.37-5.248 13.965 13.965 0 0 1 .791-4.472A14.05 14.05 0 0 1 6.1 6.1a13.99 13.99 0 0 1 9.223-3.448h.004z" fill-rule="nonzero"/><path d="M28 16c0-3.183-1.264-6.235-3.515-8.485A11.996 11.996 0 0 0 16 4C9.373 4 4 9.373 4 16v4a8 8 0 0 0 8 8h8a8 8 0 0 0 8-8v-4z" fill="#fbc546"/><path d="M23.024 17c.344 0 .872-.079 1.249-.159.498-.376 1.005-.552.19-.735a5.133 5.133 0 0 1 .267 3.267 6.521 6.512 0 0 1 .306 1.905c.715 2.098 1.421 4.065 2.685 8.636v3.748l1.317-6.157h2.96c-.17.005-.331.03-.36.034-1.158.007-2.795-.078-5.701-3.001-1.502a1.25 1.25 0 0 0-.647-.338c-.367-.012-.751-.03-1.035 0-.225.117-.478.227-.939.622a12.232 22.032 0 0 1-.663-3.311 18.022 10.022 0 0 1-3.642-2.064 11.032 11.032 0 0 1-2.6-4.122 10.996 10.996 0 0 1-.621-3.514 262.757 262.757 0 0 1 0-3.322 13.937 13.937 0 0 1 .849-4.634 14.057 14.057 0 0 1 3.37-5.204 14.051 14.051 0 0 1 5.128-3.19A13.962 13.962 0 0 1 15.994 2l.18.001z"/><path d="M28 16c0-3.183-1.264-6.235-3.515-8.485a11.996 11.996 0 0 0-16.97 0A11.996 11.996 0 0 0 4 17v2a9 9 0 0 0 9 9h6a9 9 0 0 0 9-9v-2z" fill="#fbc546"/><path d="M15 18l4 2-2 2 2 2-4 2" fill="none" stroke="#000" stroke-width="2"/><path d="M10 8h1v4v-5zM14 18h3.548c0 .827-.671118.999-1.199 16.566.966V15.706V26h18v106c1.134 0 2.21-.316 3.523-.97l.01.002.13.002.435 0 .036a1 2 0 0 1-1.304 0a2.916 2.916 0 0 1-.005-.275 3.003 3.004 0 0 1 2.199-2.897 3.987 3.987 0 0 1 .702.435l-3.568 2.081z"/><path d="M11.242 20.903a1 1 0 0 0-.394-1.447l1.25-.622a7 7 0 0 1-1.5-.511 1.5 1.5 0 0 0 3 0" 2.5 2.5 0 1 0 5 0v-5zM23 15.5a1.503 1.503 0 0 0-1.5-1.5 1.503 1.503 0 0 0-1.5 1.5v1.102 1.502 0 0 0 9 7.1M15 12a.999.999 0 0 0-.898 1.3l2.501 3.573 3.354-.061a.501.501 0 0 1-.555.632.505.502 0 0 0 .381.575l14 3a.5.5 0 1 0 .317-.902h.002z" fill="#fff"/><path d="M11 13.498c.419 0 .705-.226 1.089-.479.997-.379 1.958-.906 2.333.148.705.518 1.763.587 2.37.989.586 2.051-.201 2.806z"/></svg>
