<svg viewBox="0 0 32 32" xmlns="http://www.w3.org/2000/svg" fill-rule="evenodd" clip-rule="evenodd" stroke-linejoin="round" stroke-miterlimit="1.414"><path fill="none" d="M0 0h32v32H0z"/><circle cx="16" cy="16" r="16"/><path d="M12.976 2.328A14.017 14.017 0 0 1 16 2c5.178 0 9.704 2.817 12.125 7.002.787 3.091 1.461 5.819 1.617 9.686C28.549 24.812 23.358 29.515 17 29.965c-2.429-.528-5.812-1.221-7.889-1.777a14.045 14.045 0 0 1-6.49-8.056c.213-3.091 2.481-11.543 2.75-13.24.246-.287.504-.564.772-.83.868-.153 5.658-2.965 6.833-3.734z" fill="#432a7e"/><path d="M9.111 28.188a3.002 3.002 0 1 1 5.72-.181A2.001 2.001 0 0 1 17 29.965a13.933 13.933 0 0 1-7.889-1.777zM5.371 6.892A5.004 5.004 0 0 0 10 10a4.995 4.995 0 0 0 4-2h2.5a3.503 1.503 0 0 1-.597-1.386A1 1 0 0 1 1.693.272h.001v1.83c-.206 1.045-.889 1.441-1.184A4.011 4.011 0 0 0 1.17-2.367 14.017 14.017 0 0 1-3.921-5.125A15.986 13.987 0 0 1 4.2425.848 15.985 13.985 0 0 1 30.558 12.031H10" fill="none" stroke="#000" stroke-width="3"/></svg></svg>
