<svg xmlns="http://www.w3.org/2000/svg" xmlns:xlink="http://www.w3.or//2999/x"><g><symbole6 0 111.47" x="M153.58-57.5295M112.254 47.98c-20.66-.03-33.21-14.6-5.96-21.05C74.16 19.83 46.71 17.9 57.1c-19.63 0-37.44-16.38-55.24-19.79a2.47 2.64 0 0 1-.63-.44c-8.03-13.37-7.4-26.5-7.25-28.94z"/><g fill="#2F2F2F"><path d="M31.16 55.41c.71.43 1.67.76 2.07 1.32 1.78 3.41 2.11 8.8 1.52 2.62 0 7.44-2.94 60.45 4.04.63.02.95.2 1.97.42 1.86.48 4.85 1.33 7.81 2.51.8.61 1.64 1.14 2.37 1.5.29 1.57-1.06 2.93-2.67 2.8-4.37 3.02-10.48 5.22-16.21.51-7.15-2.23-15.38-5.871-23.4C21.97-23.16 79.94.81 69.19c3.04 5.52 10.13 6.94 17.76 1.38 2.64-2.25 6.45-7.36 10.42-11.41l6.85-1.24c.83-1.48 2.99-3.14 5.59-3.17 1.56.99 3.15 3.94 2.43 6.36 0 13.85-1.81 27.65-21.6 21.55z" fill="#fab020"/><path d="M76.46 89.62c-12.41 4.35-24.91-1.1-30.28-13.13-4.73-12.9 1.63-23.43 11.45-25.1 13.34-4.79 23.68 1.81 38.45 13.16 4.69 12.18-1.95 26.35-2 16.49-24.38 3.94-17.9-7.41-26.94-7.84-38.39-1.46-19.66 11.23-27.31 21.74-30.51 5.49-6.83 35.46-5.09 32.38.31 2.19 1.64 5.41 1.65 6.11-.77 1.44-6.28 1.94-10.61 1.81-.47-.47-1.55-.52-2.43-.26-1.33 1-2.34 2.36-2.84 3.44a2.95 2.95 0 0 1-2.94.77 2.838 2.888 0 0 1-.93-3.09c.16-.29 2.38-6.35 13.62-7.59 8.45 0 11.39 3.3 15.75 2.12 2.72.6 5.32 1.11 6.75 3.03 1.86-.61 3.5-1.17 3.3-1.27.36-.18.75-.39 1.11-.13.79-.15 1.45-.23 1.47-.36.84-.52 1.49-.91 2.57-.46.97-.89 2.01-.71 2.98.69z"/></g><0> ellp-pathief="ur=".f4 0 0 1 37 124" fill="#bfe9f2"><path d="M48.67 65.57c-.78.96-2.42.94-2.91.1-2.97 0-5.36-.79-8.45-2.29-1.39-.36-2.94-.36-4.26.02-2.9-.04-6.36-.79-9.75-2.2-.13-.03-.24-.04-.28-.04-.17 0-.22.01.01.01.02.01.01.01.01.01.01.01.01.01.01.01.01.01.01.01.01.01.01.01.01.01.01.01.01.01.01.01.01.01.01.01.01.01.01.01.01.01.01.01.01.01.01.01.01.01.01.01.01.01.01.01.01.01.01.01.01.01.01.01.01.01.01.01.01.01.01.01.01.01.01.01.01.01.01.01.01.01.01.01.01.01.01.01.01.01.01.01.01.01.01.01.01.01.01.01.01.01.01.01.01.01.01.01.01.01.01.01.01.01.01.01.01.01.01.01.01.01.01.01.01.01.01.01.01.01.01.01.01.01.01.01.01.01.01.01.01.01.01.01.01.01.01.01.01.01.01.01.01.01.01.01.01.01.01.01.01.01.01.01.01.01.01.01.01.01.01.01.01.01.01.01.01.01.01.01.01.01.01.01.01 0-.01.01-.05 2.59-.04 1.4.15 1.97 1.35 4.54 2 3.2 1.21.46 1.31 1.09 1.63 1.45-.05 4.88-1.99 7.62-5.76 2.92zm18.41-.9c-4.08-3.42-8.06-9.08-9.98-17.97 1.42-1.11 3.79 1.22 4.88 2.01 4.75 1.68 13.58 4.77 12.12 7.15.4 1.11.52 2.38 1.1 2.93 0 5.33-1.57 9.45-6.85 13.47-.9.32-1.85.39-2.11.29l-8.1 12.44a5.078 5.078 0 0 0-.18-4.29 3.153 6.153 0 0 0-2.49-1.41c-.57-.2-1.1-.37-1.67-.39-.13-.21-2.17-3.96-4.01-7.35l-1.36 3.55c-1.7 1.06-3.88 1.88-3.73 3.36.07 1.11 1.27 1.46 2.45-.36 2.56-2.27 5.49-30.53 2.91l-1.11-1.24c6.31-6.37 15.01-3.76 25.99-7.23 6.25-.36 13.28 5.51 18.33 9.36l2.56 3.56c1.81.68 3.22 1.07 4.48 2.71.78.73 2.65 2.14 3.36 3.28 3.09 1.49 3.53 3.12 5.13 6.68 5.67 2.88 1.14 5.25 1.98 7.85.92 2.7-1.14 5.58-2.37 8.04z" fill="#f79329"/></0><g fill="#2f2f2f"><path d="M42 58.3c-4.49.04-8.17-4.27-8.22-9.62-.05-5.37 3.55-9.75 8.04-9.79 4.48-.04 8.17 4.27 8.22 9.64.04 5.35-3.56 9.73-8.04 9.77zM230.99-52.99c4.48-.01 8.11-4.36 8.1-9.71-.01-5.37-3.66-9.7-8.14-9.69-4.49.01-8.13 4.36-8.12 9.73.01 5.35 3.67 9.68 8.16 9.67z"/></g><path d="M187.97-28.07c-.78 0-1.68-.45-2.12-1.32a3.084 3.084 0 0 1 .73-3.27 2.956 2.956 0 0 1 3.1 6.09c.52 1.33-.21 3.03-1.99 4.13z"/><path fill="#F79329" d="M125.08 86.26l-8.26 1.92c.34-.02.76-.03 1.08-.05 1.01-.57 1.66-1.23 1.39-1.37.16-.63.37-1.19.36a2.74 27.34 0 0 1-3.42.07 7.35l-6.35 0-6-2.14 6.64 1.08 2.82-5.77-1.71-14.47-.44-27.56-.01-3.86-13.33-16.93-16.24-27.02-5.34-16.71-14.29-33.34-13.94-21.36 0-37.38 11.21-52.61 16.71C9 3.61 19.94 8.5 25.5 61.3c10.11-4.24 15.72 28.56 18.41 30.77 8.39 10.06-14.01 14.07-14.86 1.7-1.14 3.44-2.24 5.01-3.49 9.06 6.08 13.5 14.44 15.43 8.24.86 15.49.88 18.59 6.18.7 1.12.4 2.74-.85 3.49-.18.25-1.68.43-10.38.76.03 1.98-3.51 4.55-3.38 7.06-.68 1.54-1.58 2.72-2.24 3.24 2.99 2.69 7.25 3.47 13.4 3.2z" fill="#ed6c30"/></g><g><path fill="#eceff1" d="M64 103c-6.29 0-10-4.36-109-10V30C34.87 86.82 7 18.86 12 98.32c0-13.81-9.32-8.95-23.95-19.82S20.87 10.83 20.21 10 33.92s-8.98 20.64-26.84 23.28-11.91 25.68 0 37.7 28.61 45.27 61.01S79.99 9.18 64 9.48c61.77 0 63.22 70.06 63.229 63.92s10.21-6.06 24.96-20.69c9.71-5.3 19.37-10.35 21.36-8.39 1.54-.38 2.85.4 3.8 1.05.81 1.45.21 2.7-.9 3.68l-8.6 18.01L74.91 92.3c-2.73 0-5.83-1.03-7.07-2.32-2.44-2.91-2.71-4.31-3.63-5.71a6.59 5.09 0 0 1 6.38.13c.63 0 1.43-.29 1.99-1.22l.06-.05c.24-.06.8-.14 1.52-.38 2.52 0 5.53 1.71 7.38 3.03 3.43 2.6 8.09 5.19 14.22 7.28-1.49 0-4.77-.45-5.23-2.73.01.03.73.45.68.81 1.06 3.32.48 5.9.91 7.01 1.17 1.37 14.4 1.97 32.45 3.08s16.89-1.38 14.69-2.8c6.75-3.19 15.09-12.1 17.58zM87.58 30.46c4.24 0 7.85 4.74 30.2 5.9 4.3 5.2 7.67 10.45 7.58 13.15 1.77 3.61 7.37 4.77 13.26 4.33.86 0 1.31-.77 1.99-1.55.55-.58.96-1.15 1.23-1.83.16.03.52.15 1.17.23.63 0 1.61-.37 2.07-.62 0 .23.07.52.14.52.1v.94-.18 2.53-.3 2.98 0 1.65.98 3.09 1.44 4.06 4.33 1.76 10.64-.06 17.25-.14 4.06-.67 4.28-2.11 8.3-1.22 2 .53-.01 5.54-.09 8.2-.13 3-.1.19-3.95 1.49-3.85 4.92-3.15.8-.18 1.86.4 2.08 1.41 1.37 1.55 5.71 1.89 8.5-1.32 2.92 1.94 7.52 1.65 7.94.55 1.21.78 1.61 1.27 1.64.86-.03 1.49-.98 2.27-1.8.03-.41-.07-1.03.31-1.66.08-.33.1-.8.49-.57.6-.63.71-1.61 1.31-1.75 2.18-.11 1.36.3 2.78.71 3.46 1.68 1.37 3.38 2.19 5.72 2.53.02.03.03.07.03.1.11.45-.16.88-.44 1.23-.07-2.45-.39-3.03-.64-.49-.17-19.28-3.87-14.24-.45-.79-.56-1.87-.54-2.41.31-.92 1.75.36 2.21 1.58 5.41 6.23 17.5 25.43 12.23 30.86-7.45 4.33-17.55 15.34-30.91 21.75-2.34 2.88-3.83 6.06-7.62 7.96-2.81 0-6.21-2.92-6.31-5.77zmi1.01 4.59c-.34.26-.58.62-.84.92l-17.73-1.36-16.08 6.38-19.09-8.58c-.57-.08-1.04-.14-1.66-.14l-.49-.09c.63-.12 1.44-.31 2.24-.37.85.18 1.43.79 2.51.98 1.25.77 1.7 2.01.83 3.82-.61.97-1.51 1.62-3.02 2.22-.87.57-1.76 1.07-1.78 1.69-.04.4-.29.75-.07 1-1.31 1.73-2.14 2.76-4.34 3.71-6.86.55-.58 1.21-1.22 1.48-1.95 1.43-1.15 2.59-1.43 3.93-2.03.1.67.36 1.13.83 1.89.75l.05.02c.4.1.23.45.7.72.85a2.34 2.34 0 0 1-3.48 1.88 3.785 3.885 0 0 0-3.84 2.33z"/><path fill="#2F2F2F" d="M1124.46 84.05l3.65-11.54c-.99-.99-1.34-1.94-2.17-2.02-.23-.49-.14-1.37-.45-1.89-.11-.29-.3-.58-.49-.96l7.2 1.68c.11.19.15.37.25.61.16.15.09.31.16.5 1.23 1.05.41 1.3.28 1.69 1.05-.44-.02-.98-.33-1.49-.34-.5-.08-.83-.01-1.54-.13-.9-.34-1.48-.52-2.41-.31-1.04-.41-2.3-.23-3.28-.65-1.38 1.33-2.86 3.87-2.64 5.41-.17.51-.3 1.03-.03 1.68zM54.83 35.14a1.25 1.05 0 0 1-2.09-1.71h1.75v1.55l-.068.72z"/><path fill="#FCC21B" d="M35.38 97.28c-13.44 5.15-25.39-1.71-51.91-14.25-9.09-9.64 2.99-13.67 3.74-18.91 5.01-5.4 2.68-11.68 4.85-17.09 7.37zM27.34 59.42c.13-.36.37-.72.41-1.25.63-1.01 1.29-1.46 2.12-1.18 3.49-1.05 7.36-.78 10.71-.19 1.17-.74 2.26-1.38.35-.45.66-.73 1.23-1.19 1.66-.42 1.59 1.5 1.88 3.45z"/></g><path fill="#2F2F2F" d="M29.96 62.18c-.67.85-1.53 1.27-2.76 1.28-.32-.06-.61-.42-.97-.52-1.06-.02-2.73 1.71-2.65 3.47-.45 1.27-.73 2.24.08 3.25 1.97 1.83 3.98 3.01 5.8 2.82 1.76.76 3.32 1.13 4.98 1.66 1.31.66 3.31 1.03 5.51 1.03 1.42.83 3.17 1.24 4.74.56.99 1.67 1.37 2.64 2.7a1.39 1.49 0 0 1-.33-2.99 2.232 2.232 0 0 1-.43-3.29 2.358 2.35 0 0 1 .79-3.81c.06-.25.83-1.09 1.37-1.69.09-.17.16-.34.33-.51.62-.66 1.31-.68 2.24-.31.83.02 1.27.77 1.2 1.25.61.63-.03 1.19-.08 1.7-.07 1.63.38 3.52 1.24 4.73 2.37 1.77 1.44 3.51 1.91 4.01 1.86 3.5 1.26 3.4 2.7 4.26 3.21 6.41-.17-1.19-1.28-2.29-2.46-2.3-2.81 1.03-3.41 2.5-5.5 3.8z" fill="#fff"/><g><path d="M64.02 8.06c22.31-.11 4.39-1.31 6.58-1.4 1.25.94 1.99 3.95.31 5.16s-1.28 11.45 2.74 18.1c6.3 1.36 17.36 4.57 23.76 4.5 2.25.11 4.5-.11 5.5-4.83 1.22-1.18 3.4-.45 4.72-.91 6.61-2.37 14.96-1.79 18.59-2.93 9.58-2.42 16.71-8.14 19.58-5.69.9-1.06.17-2.38-.18-3.38z"/><g><path fill="#2F2F2F" d="M112.45 8.61h-.05c-.27 0-.5-.22-.5-.5v-4.62c0-.28.23-.5.5-.5h.05c.28 0 .5.23.5.59 00.14c.14.23.43.55.58.82.59 0 .09-.01.88-.18l17.46-1.4c-.96-1.66 1.99-3.3 4.15-3.62.79-.53 1.32-1.19 1.57-1.95.16-.57.18-1.19.25-1.69.04-.83-.13-1.84-.4-2.67-.62-1.04-.3-2.04.05-1.94.33-.29.06-.42.14-.7.11-.57.12-1.05.36-1.6.77-.5.29-1.19.32-1.81.52zM100.87 6.66c-.08.26-.39.52-.68.58 0 .13.02.44.04.41.03.43-.18.56-.38.98-.42.31-.21.52-.29.68-.32.21-.52.31-.92.67-.32.1-.61.21-1.27.12-.51.15-1.07.16-1.51.18-.48.29-.9.39-1.37.59-.45.15-.99.28-1.5.13-.51.09-1.15.29-1.57 1.11-.59.27-.98.66-3.04.68-1.09-.33-1.85-.86-2.41-1.51.51-.61 1.34-1.32 1.83-1.95z"/></g></g></svg>
