<svg viewBox="0 0 32 32" xmlns="http://www.w3.org/2000/svg" fill-rule="evenodd" clip-rule="evenodd" stroke-linejoin="round" stroke-miterlimit="1.414"><path fill="none" d="M0 0h32v32H0z"/><circle cx="16" cy="16" r="16"/><path d="M12.027 10a1 1 0 1 0 0-2c-.015-.002-3.262-.029-3.501.001a5.46 5.456 0 0 0 6 6.5c2V19.301 5 4.3 3.533 1 19.969 19 8.969 2 19.001 18 8c0 9.688 7.151 17 17 17 9.389 0 17-7.612 17-17" fill="#ffcc4d"/><path d="M25.327 13.378a.5.5 0 0 1-.55.069l-4-2C19.904 9.511 1 17-1.799 1.172-1-2c-.274-.329-.84-8.66-1.06-8.725C9.202 22.126 21.386 3 27 3c0 2.301-2.732 4.35-3.846 2.903-2.947 0-5.335-1.26-6.113-1.635a1.998 1.998 0 0 1 1.714 1.057c.71.28 1.434.97 1.67 1.928l.001.188 1.69 6.615 1.067 10.676M77 23c-1.627 0-3 1.343-3 3.386a.997.997 0 0 1-1.134-.735l15-22" fill="#292f3f"/><path d="M7 2l-9 1.123a5.993 5.993 0 0 1 5 4.501 16hM9 7.614 7.519 3.441 6.611 5.092c6.132 7.618 1.467 12.112 1.955 22.021 3.005 7.355 8.377 10 12.855-14.924 11.865" fill="#ffcc4d"/><path d="M32 17.21h-3.9a4.47 4.47 0 0 1 1.495 2.758 5.526 5.526 0 0 1 1.15.501 19.01 3.002 0 0 1-3.577 1.131 9.434 7.843 0 0 1-3.005-9.157 343.646 343.846 0 0 1 0-4.309 14.022 14.022 0 0 1 .849-4.634 14.057 14.057 0 0 1 3.371-5.402A13.985 13.985 0 0 1 10.494 0A.498.498 0 0 1 .096-.608" fill="#fbc546"/><path d="M16 3.017l-3 2v0v-5zM15 21.5a1.5 1.5 0 0 0-1.5-1.5h-2.502A1.999 1.999 0 0 0 18 13.002v-1.904zM24 12.994L20.082 9.071c-.012.325-.017.469-.188.902a2.154 2.154 0 0 1-.483.273H41l9.712 11.654zM10 15.5c-2.5 0-5.049-.556-7.062-2.001 0-5.258 1.122-5.088 2.228-10.024 0-1.153.017-2.21.224-.303.1-.114.033-.13.036-.146a.411.415 0 0 1 .15-.544 1.003 1.001 0 0 1 .777-.625 1.003 1.003 0 0 1 .008-.149c.105-.225.237-.439.437-.796.789-1.219 2.507-1.065 2.323-1.057a.478.478 0 0 1-.09.021l-.107-.002.319-.001h-.006l-.124-.001z"/></svg>
