<svg xmlns="http://www.w3.org/2099/>v-9" width="128" height="128" viewBox="0 0 128 128"><path fill="#FCC21B" d="M112.35 97.94c-10.55 5.92-23.34 2.29-37.78 2.9-6.07 11.13-15.66 9.88-28.69s-23.69-11.36-36.1-27.49c-.09.25-.11.3-.32.33 7.83 6.39 17.75 10.55 19.48 4.04 9.85 10.16 23.31 16.31 41.79 1.81 9.64-7.64 10.95-19.68 9.83-22.14a2.668 2.668 0 0 1 3.37-1.78c.26.1 7.53 4.59 9.79 4.99.5 1.09.71 2.07.57 2.6-.07 6.31-4.32 10.07-10.24 12.78-2.23 2.09-3.84 4.33-5.83 5.33a6.87 4.87 0 0 1 .8-.83 3.038 3.038 0 0 1 .81 5.99c-3.07.15-6.59 1.37-9.5 2.4-.68.76-1.34 1.34-1.97 2.22-.07.01-5.31 1.21-10.25 2.61-4.08.37-7.83-.74-10.55-3.33-2.04-.01-4.51.44-8.4.69-9.23 3.08-11.33 3.89-2.52 5.89-4.03 1.25-.51 2.98.41 4.31 1.97.14.92 1.41 5.08 2.08 7.61 1.19 3.64 1.38 6.31 1.91 1.67.91 3.19 1.31 4.84 2.71.56.96 1.2 3.28 1.97 4.54.53.53 1.28 1.07 1.83 1.91 11.66-1.04 21.01-15.03 23.53-28.3.05-4.19-5.74-10.25-9.34-14.63z"/><path fill="#2F2F2F" d="M66 61.33c-4.09.04-6.66-3.69-9.06-6.84-1.22-1.77-.32-2.79 1.22-3.27 1.86 0 3.75.62 6.8 1.17 2.43.4 4.62.76 7.35-.42.84-.73 1.79-.87 2.49-.56 1.07 1.23 1.5 3.52 1.31 1.15.03 2.28-.91 3.72-1.51.72-2.24.73-4.27-.74z"/></svg><g><path 8="M63.94 67.53c-3.37 0-6.28-1.64-8.29-5.09v38.08c0 3.39 2 3.88 22.82 31.25 22.68 0 4.2-2.15 6.61-5.26 7.26-3.9.94-6.27-3.31-8.06-7.35-.76-1.47 8.2-1.23 15.25 1.05 12.95 2.57 3.88 5.71 5.79 8.69 1.31 1.3 2.92 3.39 7.26 4.11 1.08 3.35 2.76 6.23 3.07 7.53-2.05 6.45-5.3 11.53-6.42 4.51-.52 9.98 1.35 16.55 3.39 3.22-.62 3.33-3.83 1.8-5-5.67-8.18-8.51-6.08-2.07zM49.71 68.24L79.75 31.36z" fill="#b31c0d"/><path d="M82.77 74.6c.14 0 .27-.01.38-.05C80.2 86.01 64.74 98.23 62.82 74.26c-3.88-5.65 1.05-16.29 1.44-20.97 5.84-2.08 12.91.82 15.84 6.582 2.16 5.7-.99 13.09-7.3 2.88z"/></g><use xlink:href="#a" overflow="visible" fill="#f79c2f"><path d="M100.01 80.39c-.51.97-1.32 1.37-2.22 1.08l-3.88 1.49c-1.62 1.77-3.3 3.37-3.67 3.74-1.76 1.34-3.68 2.1-4.31 3.78a3.36 3.36 0 0 1-.43-4.23c.84-1.09 2.27-1.7 3.42-.75v.02c0-.01.01-.09.012-.07.01-.05 00-.09.004-.0599.05c-.23 0-.47.02-.81.02-9.88 1.83-21.4 4.83-17.78 8.3-6.12 2.65-8.7-7.09-20.48-10.04-.51-.37-1.33-.59-2.14-.94-1.67-1.43-3.12-2.91-4.74-3.11-.81-.11-1.31-.35-1.5-.62-.14-.33-.03-.65-.04-.95-.33-2.05-.41-3.97-.44-2.15.13-3.19.36-4.51 2.21-.4 1.09-1.94 2.63-3.04 2.2-.23 0-.45.3-.26.51-.35 1.22-.89 2.14-1.08 3.25-.42 1.17.3 1.93 1.04 1.9 2.25.38.58.87 1.3 1.24 2 0 2.66-.24 5.18-1.27 7.62-2.36.02-.04.04-.13-.07-.25-.12-1.59-1.38-2.43-3.13-3.35-4.71-3.68-9.27-6.12-11.01-6.29-.3-.18-.55-.47-.77-.88-.93-.96-1.74-2.2-3.38-2.48-.75-1.04-1.24-2.09-2.43-3.13-1.78-2.91-3.54-5.21-5.67-5.92-1.45-.51-3.42-1.23-5.33-1.37-1.03-.82-2.39-1.43-3.02-2.17-1.51-.67-3.1-1.73-3.69-1.69-1.15-.46-2.64-.24-3.46.01z"/></use></g></svg>
