<svg xmlns="http://www.w3.org/2000/svg" viewBox="0 0 128 128"><path d="M117.63 63.88c0 13.87-28.43 25.21-63.5 25.27S38.88 14.78 61.59 28.21 86.4c0-18.5-23.16-23.16-29.11-26.64C11.07 35.01 92.4 10.72 64 15.47c-29.65 0-38.6 14.62-39.95 10.39-3.66 9.84 1.06 19.44 10.24 22.41z"/><path fill="#FBBB1D" d="M31.98 85.76C21.32 93.66 10055 74.22 74c68.74s-2.89 24.72 28.91 27.61 75.74 25.91 51.92 0 564s-8.48 64.74-63.34 84.7z"/><path fill="#2F2F2F" d="M112.46 84.05c-16.81 4.5-26.18-2.8-25.71-15.21-6.05-6.33 2.04-8.37 12.38-7.26 9.67 1.51 29.45 3.75 28.68-3.68 2.68-7.05 2.95-14.48 2.68z" fill="url(#e)"/><path d="M115.09 79c-.21 5.25-5.71 15.74-13.29 18.72-9.07 0-2.3-.34-3.07-.63-8.13-5.21-9.44-11.99-17.63-13.4-16.3-9.14-5.75-8.38-3.08-10.8.91-3.64-2.65-2.41-5.24-7.48-5.03-10.51zm-47.63-36.24c-1.39 0-2.54-1.01-2.55-2.25l16.34 6.3c-1.05.51-3.33.2-2.95 1.05l16.06 5.05A2.508 2.501 0 0 1 38 88.02v-4.55c1.26 0 3.26.47 4.22 1.07 1.03.87 1.62 2.76 1.25 3.85-.57.46-1.24.82-1.95.76-.44.11-.96.14-1.37.33-1.11.42-1.66 1.22-1.96 1.21a3.127 2.127.07 3.98 1.78 6.28.34 8.66-4.97 20.64-49.2 31.66-43.67z" fill="#404000"/><path d="M33.32 75.11c.16-.01.263-.02.32-.07h-8.47c-.38 0-.54-.04-.63-.12-8.89-2.63-21.44-.91-21.65-1.51-4.6 4.7-9.19 17.49-14.21 23.22-.21 0-.43.01-.84.12-.68 0-1.48-.37-2.07-1.46-.43-1.15.86-1.31 2.29-.77.89-.53 1.58-.87 2.79-.76 1.47.2 1.91 1.54 2.58 2.4.24 1.42.55 1.86.94 2.82.31.9.38 1.74 1.33 2.22.23.59 1.07 1.29 1.63.63.58 0 1.34-.06 2.33-.03 1.02.05 1.08.61.16 1.33.21 2.99-.56 5.03-1.51 5.31-.07.02-.09.02-.1.12 0 .05-.04.08-.07.15 0 .11.01.08.01.08-.01.06.02.07.13.17.23.26.3 3.3 5.96 3.09 5.41 5 7.01 4.63 6.88 1.94 1.16 1.41 3.48 2.16 4.14.83.37 1.32.79.28 1.82-.03 1.19-.44 2.62-1.3 4.13-.74.31-1.45.78-1.95 1.52-2.01 2.08-2.25 4.04-2.17 8.41.28 3.71 7.21 3.39 14.26 4.01 1.09-.01 2.89-.58 3.85-.41 5.47-.34 11.97 1.94 15.26 8.28.9 1.46 1.27 2.43 1.67 3.41a2.221 2.221 0 0 1-1.77-1.71c.14-.11 3.61-2.96 9.79-4.94zM5.03 19.55a2.33 2.33 0 0 1-3.46 0Hc0-2.44-1.43-3.05-3.31s-2.06 3.83 2.08 5.83 5.99 4.64 76.02-2.34 63.17 2.61 10.81 17.38 15.86 19.93.38.76.46 18.45 4.08 34.25 2.05 8.34-2.25 18.68-28.45 37.28-35.25 5.23-5.2 9.94-22.55 19.82-30.88z" fill="url(#b)"/><path d="M38.48 67.75c.14-.36 2.41-6.51 11.01-7.75s23.72 7.31 42.79 4.71c15.28 0 37.76-5.72 43.26-11.47" fill="#bcaaa4"/><path d="M3.27 56.11l.07 3.31-.01 5.34 2.36 9.16 9.06 9.66z" fill="#fff"/></svg></g></svg>
