<svg xmlns="http://www.w3.org/2000/svg" viewBox="0 0 47.5 47.5"><defs><clipPath id="a"><path d="M0 38h38V0H0v38z"/></clipPath></defs><g clip-path="url(#a)" transform="matrix(1.25 0 0 -1.25 0 47.5)"><path d="M35 19c0-9.38-8.611-17-17-17S9 9.611 2 19s7.611 17 17 17 17-7.611 17-17" fill="#ffcc4d"/><path d="M31.801 8.038a.501.501 0 0 1-.61.014c-.013-.01-1.261-.902-3.702-.902s-3.691.892-3.701.9a.5.5 0 0 1-.757-.603c.06-.136 1.5-3.297 4.457-3.297 2.958 0 4.398 3.162 4.447 3.297a.501.501 0 0 1-.757.605M18.002 19.007c.142.096 2.061 4.192 7.5 6.428 0 1.434-1.248 4.395-.837 5.855.451.5512.826 1.228 1.309 1.129.129.601 1.788 2.999 4.798 6.298a.501.501 0 0 1 .396.948" fill="#664500"/></g></svg>
