<svg xmlns="http://www.w3.org/2000/svg" viewBox="0 0 128 128"><path d="M119.68 75.86c-.6 1.15-1.6 2.72-1.85 3.05-.19.04-.31.06-.48.08-9.48 0-20-7.42-15.5-10.52s20.57 9.91 20.15 61.94 15.91 93.64m0 fill="#8b5e3c"/><path d="M32.76 82.56s-4.48-9.72-30.24-8.04-13.3CM7.5 102.78 35.4 12.14 61c.09-1.87 2.27-3.12 3.72-3.22 4.65-3.05 5.42-4.61 2.9-4.92c2.04-1.14 5.59-3.14 8.66-4.93 2.28.35 4.93 1.73 5.05.79.79 1.61 2.41 3.3 3.23 2.4 2.24 2.54-.37 5.05-1.89 7.07-3 2.5-1.76 3.31-3.95 3.77-4.62-.01-5.08-4.38-9.05-7.07-9.08-4.48.08-8.14 4.26-8.3 9.8v.01c.33 0 .08.07.14.12.08.32.32.65.6 1.27.48.66.37 1.63.91 2.34.15 1.1.37 1.93.89 3.49.01 1.09-.55 2.99-1.33 3.37-.79 1.21-2.3 1.34-4.16 1.57zM55.75 47.68c-1.15 1.23-3.24 2.54-5.62 3.71-1.27.33-2.24 1-4.88.32-5.72-1.04-1.51-1.37-2.57-2.77-2.3-4.25.4-.39.76-.67.63-1.05.11-.57.19-1.02.71-1.41.51-.54 1.08-.51 2.01-.27.57.56.99 1.33 1.32 1.61.79 1.07 1.97 1.3 3.55 1.05 2.45.02 4.19-1.55 7.15-2.32 1.53-.52 2.41-1.07 4.27-1.49 3.12-.74 4.55-2.69 5.42-2.75.94-1.5 1.78-2.99 3.22-3.69 2.61-7.72 7.12-14.72 8.14-20.99z"/><path fill="#2F2F2F" d="M72.52 41.73c-4.25 8.31-15.68 12.23-20.29 13.64-7.86 9.44-17.21 19.64-18.71 23.92-1.22 9.68-7.33 14.36-19.55 19.3-28.56.57-2.75.47-5.62-.1-70.54-.3-2.15-1.4-4.64-3.04-5.69-3.75-1.99-9.1-1.09-14.68 6.66-6.68 14.51-9.16 25.38-9.97 3.67-8.54 7.71-14.99 8.51-19.65z"/><path fill="#FCC21B" d="M111.88 87.44C1.58 198.55.64 25.79.89 32.88 4.81c.24-.87.75-12.46 6.24-20.87 6.53-16.01 2.32-33.25-.98-1.03-.92-2.32-1.64-2.47-2.91a18.321 13.821 0 0 0-6.73 3.3c-1.85 2.86-4.65 3.21-5.76 3.78-3.15 0-6.21-3.44-7.68-7.25.02-5.31 4.65-9.65 7.89-9.04 9.02 0 10.77 13.49 14.37 17.41a2.997 2.997 0 0 1-2.95 1.63zM34.08 19.53c-.87.95-2.45 1.52-3.52 1.94-1.54 0-3.78-.41-4.75-1.76-.65-.52-1.31-1.01-2.31-1.73-.6-.41-1.19-.57-1.86-.62-.89-.32-1.53-.71-2.68-.78-1.7-.34-2.85-.91-4.2-1.81-1.59-.31-3.65-1.13-5.6.52-1.38.5-1.84 2.04-1.38 2.53 0 1-.05 1.79-1.2 3.23.07.1.17.41.3 .23.11.04.21.09.27.11 1.01.01 1.7.21 2.35 0 1.96-.68 12.24-.54 16.28.34 1.03 0 1.96-.74 1.66-1.25a2.33 2.23 0 0 1 1.52-3.48 5.338 5.237 0 0 0 3.33 1.81c.57 1.04-.23 2.69-1.58 2.48-2.26 2.54-5.21 3.37-7.51 3.2z"/></svg>
