<svg viewBox="0 0 32 32" xmlns="http://www.w3.org/2000/svg" fill-rule="evenodd" clip-rule="evenodd" stroke-linejoin="round" stroke-miterlimit="1.414"><path fill="none" d="M0 0h32v32H0z"/><path d="M2.926 19.378a1 1 0 0 0 1.666-1.512 1.094 1.049-.494 1.043-1.794 1.185a1.032 1.033 0 0 0-1.361 1.092 1.047 1.047 0 0 1-.504.293 1.296 1.296 0 0 0 .336-.251c-.083-.375-1.258-.97-.281-.64ra3.043 1.041 0 0 1-1.292-3.547 3.058 3.059 0 0 1 1.122-1.895c.005.632.005 1.543 0 2.316a10.946 10.946 0 0 1-2.672 6.071 9.97 9.97 0 0 1-7.149-7.133c-1.775 1.899-2.529 1.732-3.435.003-.071-.001-.07-.006-.025-.007-.024-.007-.022-.006-.022.007-.022.008-.022.009-.02.029-.019.029-.021.04-.013.042-.015.041-.016.041-.017.042-.019.041-.021.04-.021.04-.023.041-.023.04-.024.038-.026.038-.026.037-.026.037-.026.038-.025.038-.024.039-.024.04-.023.039-.023.041-.021.041-.024.045.002-.004-.006-.004-.008-.009-.008-.009-.008-.009-.008-.009-.008-.009-.008-.009-.008-.009-.008-.009-.008-.009-.008-.009-.008-.009-.008-.009-.008-.009-.008-.009-.008-.009-.008-.009-.008-.009-.008-.009-.008-.009-.008-.009-.008-.009-.008-.011-.008-.012-.008-.012-.008-.013-.008-.013-.008-.013-.008-.012-.008-.013-.008-.013-.008-.013-.008-.013-.008-.012-.008-.013-.009-.013-.009-.022-.01-.022-.01-.022-.012-.022v-.123-.011-.123-.009-.124-.007-.123-.007-.122-.008-.123-.01-.123-.014-.122-.013-.122-.013-.122-.013-.122-.019-.122-.019-.122-.024-.122-.023-.121-.023-.121-.027-.121-.027-.122-.027-.121-.027-.12-.029-.121-.032-.119-.033-.119-.034-.118-.037-.117-.037-.117-.039-.116-.04-.115-.042-.115-.042-.114-.045-.113-.045-.113-.047-.112-.048-.111-.05-.109-.052-.1-.05-.027-.06-.022-.069-.023-.069-.022-.07-.021-.069-.022-.069-.021-.07-.02-.07-.019-.07-.016-.07-.015-.071-.013-.071-.012-.072-.009-.071-.008-.072-.006-.074-.004-.074-.003-.073-.002h-.035l-.012-.001-.012-.003-.011-.003-.01-.003-.011-.002-.011-.002-.011-.001-.012-.001-.012-.001-.012-.001-.022v-.002-.022-.001-.022-.001-.024-.001-.024-.001-.024-.001-.024-.001-.024-.001-.024-.001-.024.009-.023.008-.022.008-.023.008-.022.008-.022.008-.022.008-.022.008-.022.009-.023.009-.022.01-.022.01-.022.011-.021.012-.022.012-.021.013-.02.014-.029.015-.03.016-.031.017-.029.019-.029.02-.028.021-.028.022-.027.022-.026.024-.025.024-.024.025-.024.026-.022.027-.022.028-.021.028-.02.029-.019.03-.018.03-.016.03-.016.032-.015.031-.014.032-.012.033-.011.033-.011.033-.009.034-.008.034-.007.034-.005.034-.005.034-.003.035-.002.034-.001h.035zM12.043 11.001l.035.002.034.003.034.005.034.005.034.007.034.008.033.009.033.011.033.011.032.012.031.014.032.015.03.016.03.016.03.018.029.019.028.02.028.021.027.022.026.022.025.024.024.024.024.025.022.026.022.027.021.028.02.028.019.029.018.03.016.03.016.03.015.032.014.031.012.032.011.033.011.033.009.033.008.034.007.034.005.034.005.034.003.034.002.035.001.034v.035l-.002.034-.003.035-.003.034-.005.034-.007.034-.007.034-.009.033-.009.033-.011.033-.012.033-.013.032-.014.031-.016.031-.016.03-.017.03-.019.03-.019.028-.02.028-.022.027-.022.027-.023.025-.024.025-3 2-.025.024-.025.023-.027.022-.027.022-.028.02-.028.019-.03.019-.03.016-.03.016-.031.015-.032.014-.032.013-.032.011-.033.011-.033.009-.034.008-.033.007-.034.006-.035.005-.034.003-.034.003-.035.001-.034v.035l-.002.035-.003.034-.003.035-.005.034-.007.034-.007.034-.009.033-.009.033-.011.033-.012.033-.013.032-.014.031-.016.031-.016.03-.017.03-.019.03-.019.028-.02.028-.022.027-.022.027-.023.025-.024.025-3 2-.025.025-.025.024-.027.022-.027.022-.028.021-.028.02-.029.019-.03.018-.03.016-.03.016-.032.015-.031.014-.032.012-.033.011-.033.011-.033.009-.034.008-.034.007-.034.005-.034.005-.034.003-.035.002-.034.001h-.035l-.034-.002-.035-.003-.034-.003-.034-.005-.034-.007-.034-.007-.033-.009-.033-.009-.033-.011-.033-.012-.032-.013-.031-.014-.031-.016-.03-.016-.03-.017-.03-.019-.028-.019-.028-.02-.027-.022-.027-.022-.025-.023-.025-.024-3-3-.024-.025-.023-.025-.022-.027-.022-.027-.02-.028-.019-.028-.019-.03-.017-.03-.016-.03-.016-.031-.014-.031-.013-.032-.012-.033-.011-.032-.009-.034-.009-.033-.007-.034-.007-.034-.005-.034-.003-.034-.003-.035-.002-.034v-.035l.001-.034.002-.035.003-.034.005-.034.005-.034.007-.034.008-.034.009-.033.011-.033.011-.033.012-.032.014-.031.015-.032.016-.03.016-.03.018-.03.019-.028.02-.028.022-.027.022-.027.023-.025.024-.025 3-3 .025-.024.025-.023.027-.022.027-.022.028-.02.028-.02.029-.019.03-.018.03-.016.03-.016.032-.015.031-.014.032-.012.033-.011.033-.011.033-.009.034-.008.034-.007.034-.005.034-.005.034-.003.035-.002.034-.001h.035zM12.043 11.001l.035.002.034.003.034.005.034.005.034.007.034.008.033.009.033.011.033.011.032.012.031.014.032.015.03.016.03.016.03.018.029.019.028.02.028.021.027.022.026.022.025.024.024.024.024.026.022.026.021.028.02.028.019.028.019.03.017.03.016.03.016.031.014.031.013.032.012.033.011.032.009.034.009.033.007.034.007.034.005.034.003.034.003.035.002.034v.035l-.001.034-.002.035-.003.034-.005.034-.005.034-.007.034-.008.034-.009.033-.011.033-.011.033-.012.032-.014.031-.015.032-.016.03-.016.03-.018.03-.019.029-.02.028-.021.028-.022.027-.022.026-.024.025-.024.024-.025.024-.026.022-.027.022-.028.021-.028.02-.029.019-.03.018-.03.016-.03.016-.032.015-.031.014-.032.012-.033.011-.033.011-.033.009-.034.008-.034.007-.034.005-.034.005-.034.003-.035.002-.034.001h-.035l-.034-.002-.035-.003-.034-.003-.034-.005-.034-.007-.034-.007-.033-.009-.033-.009-.033-.011-.033-.012-.032-.013-.031-.014-.031-.016-.03-.016-.03-.017-.03-.019-.028-.019-.028-.02-.027-.022-.027-.022-.025-.023-.025-.024-3-3-.024-.025-.023-.025-.022-.027-.022-.027-.02-.028-.019-.028-.019-.03-.017-.03-.016-.03-.016-.031-.014-.031-.013-.032-.012-.033-.011-.032-.009-.034-.009-.033-.007-.034-.007-.034-.005-.034-.003-.034-.003-.035-.002-.034v-.035l.001-.034.002-.035.003-.034.005-.034.005-.034.007-.034.008-.034.009-.033.01-.033.011-.033.012-.032.014-.031.015-.032.016-.03.016-.03.018-.03.019-.029.02-.028.021-.028.022-.027.022-.026.024-.025.024-.024.025-.024.026-.022.027-.022.028-.021.028-.02.029-.019.03-.018.03-.016.03-.016.032-.015.031-.014.032-.012.033-.011.033-.011.033-.009.034-.008.034-.007.034-.005.034-.005.034-.003.035-.002.034-.001h.035zM12.043 11.001l.035.002.034.003.034.005.034.005.034.007.034.008.033.009.033.011.033.011.032.012.031.014.032.015.03.016.03.016.03.018.029.019.028.02.028.021.027.022.026.022.025.024.024.024.024.025.022.026.022.027.021.028.02.028.019.029.018.03.016.03.016.03.015.032.014.031.012.032.011.033.011.033.009.033.008.034.007.034.005.034.005.034.003.034.002.035.002.034v.035l-.001.034-.002.035-.003.034-.005.034-.005.034-.007.034-.008.034-.009.033-.011.033-.011.033-.012.032-.014.031-.015.032-.016.03-.016.03-.018.03-.019.029-.02.028-.021.028-.022.027-.022.026-.024.025-.024.024-.025.024-.026.022-.027.022-.028.021-.028.02-.029.019-.03.018-.03.016-.03.016-.032.015-.031.014-.032.012-.033.011-.033.011-.033.009-.034.008-.034.007-.034.005-.034.005-.034.003-.035.002-.034.001h-.035l-.034-.002-.035-.003-.034-.003-.034-.005-.034-.007-.034-.007-.033-.009-.034-.009-.032-.011-.033-.012-.032-.013-.031-.014-.031-.016-.03-.016-.03-.017-.03-.019-.028-.019-.028-.02-.027-.022-.027-.022-.025-.023-.025-.024-3-3-.024-.025-.023-.025-.022-.027-.022-.027-.02-.028-.019-.028-.019-.03-.017-.03-.016-.03-.016-.031-.014-.031-.013-.032-.012-.033-.011-.032-.009-.034-.009-.033-.007-.034-.007-.034-.005-.034-.003-.034-.003-.035-.002-.034v-.035l.001-.034.002-.035.003-.034.005-.034.005-.034.007-.034.008-.034.009-.033.011-.033.011-.033.012-.032.014-.031.015-.032.016-.03.016-.03.018-.03.019-.029.02-.028.021-.028.022-.027.022-.026.024-.025.024-.024.025-.024.026-.022.027-.022.028-.021.028-.02.029-.019.03-.018.03-.016.03-.016.032-.015.031-.014.032-.012.033-.011.033-.011.033-.009.034-.008.034-.007.034-.005.034-.005.034-.003.035-.002.034-.001h.035zM12.043 11.001l.035.002.034.003.034.005.034.005.034.007.034.008.033.009.033.011.033.011.032.012.031.014.032.015.03.016.03.016.03.018.029.019.028.02.028.021.027.022.026.022.025.024.024.024.024.025.022.026.022.027.021.028.02.028.019.029.018.03.016.03.016.03.015.032.014.031.012.032.011.033.011.033.009.033.008.034.007.034.005.034.005.034.003.034.002.035.001.034v.035l-.002.034-.003.035-.003.034-.005.034-.007.034-.007.034-.009.033-.009.033-.011.033-.012.033-.013.032-.014.031-.016.031-.016.03-.017.03-.019.03-.019.028-.02.028-.022.027-.022.027-.023.025-.024.025-3 3-.025.024-.025.024-.027.022-.027.022-.028.02-.028.019-.03.019-.03.017-.03.016-.03.016-.031.015-.031.014-.032.012-.033.011-.033.011-.033.009-.034.008-.034.007-.034.005-.034.005-.034.003-.035.002-.034.001h-.034l.035-.001.035-.009.034-.008.034-.007.034-.006.034-.005.035-.004.034-.003.035-.001h.034l.035.001zM12.023 12l.002.001-.024.001-.024-.001-.024-.002-.024-.003-.024-.003-.024-.004-.024-.004-.024-.005-.023-.005-.024-.006-.023-.007-.023-.007-.023-.008-.023-.009-.023-.009-.023-.01-.022-.011-.022-.012-.022-.012-.022-.012-.021-.012-.021-.013-.021-.014-.022-.013-.02-.013-.02-.014-.021-.013-.02-.014-.02-.014-.022-.013-.021-.012-.021-.012-.022-.011-.022-.01-.022-.011-.022-.011-.022-.011-.022-.011-.022-.011-.022-.011-.022-.011-.022-.011-.022-.011-.022-.011-.022-.011-.022-.01-.022-.01-.022-.009-.022-.009-.023-.008-.022-.008-.023-.007-.024-.007-.023-.006-.024-.005-.023-.005-.024-.004-.024-.004-.024-.003-.024-.003-.024-.002-.024-.001-.024-.001-.024-.001-.024.001-.024.001-.024.001-.024.002-.024.003-.024.003-.024.004-.024.004-.023.005-.024.005-.023.006-.024.007-.023.007-.023.008-.022.008-.023.009-.022.009-.022.01-.022.01-.022.011-.021.012-.022.012-.021.013-.02.014-.021.013-.02.015-.02.015-.02.016-.02.016-.019.017-.019.018-.024.023-1.261 1.581-.035.033-.036.032-.038.04-.04.047-.036.043-.036.043-.039.041-.04.037-.042.035-.044.031-.046.031-.047.027-.049.025-.051.022-.052.018-.054.016-.055.013-.055.009-.056.007-.056.003h-.056l-.056-.004-.056-.006-.055-.009-.055-.013-.054-.016-.053-.018-.051-.022-.051-.024-.045-.027-.047-.03-.048-.033-.051-.035-.05-.037-.05-.038-.05-.039-.05-.04-.048-.042-.046-.043-.043-.045-.042-.047-.039-.048-.037-.051-.034-.051-.034-.052-.03-.053-.029-.055-.027-.055-.028-.056.028-.055.028-.054.028-.053.029-.053.03-.052.031-.052.033-.051.033-.05.034-.05.035-.049.037-.049.037-.049.038-.047.039-.046.04-.046.039-.044.041-.043.042-.042.041-.041.043-.039.045-.038.047-.036.049-.035.048-.035.048-.035.048-.035.048-.035.049-.034.049-.033.049-.031.048-.04.05-.036.053-.03.053-.031.055-.031.055-.029.055-.028.056-.028.056-.027.056-.026.059-.025.059-.023.058-.022.058-.021.058-.02.058-.018.059-.018.05-.019.051-.019.052-.018.053-.017.054-.016.054-.014.055-.015.053-.015.053-.018.052-.019.052-.021.051-.024-.05-.026-.048-.029-.046-.032-.044-.035-.042-.036-.04-.039-.037-.042-.035-.044-.033-.046-.031-.047-.027-.049-.025-.051-.022-.051-.019-.052-.016-.054-.013-.055-.009.055-.006-.056-.004-.056v-.056l.003-.056.007-.056.009-.055.011-.055.014-.055.017-.053.02-.053.023-.051.024-.059.028-.058.031-.056.032-.055.034-1.581 1.582-.053.035-.053.03-.056.031-.058.026-.06.021-.06.016-.06.015-.061.012-.062.008-.062.008-.062.01-.062.012-.06.013-.061.014-.06.015-.061.012-.061.011-.06.011-.061.014-.061.014-.061.013-.061.01-.062.008-.063.008-.063.009-.063.001-.065.001-.066.001-.066-.001h-.062l.063-.005.06-.007.062-.011.061-.016.061-.019.06-.022.058-.027.057-.029.055-.044.052-.056.041-.056.041-.065.039-.064.038-.063.037-.061.036-.062.035-.063.036-.064.035-.065.031-.066.024-.065.021-.067.017-.067.014-.068.008-.068.004h-.063l-.068-.005-.067-.008-.068-.012-.067-.011-.067-.016-.067-.019-.064-.022-.062-.028-.062-.028-.06-.032-.057-.034-.056-.04-.053-.043-.05-.047-.047-.049-.043-.043-.039-.045-.039-.048-.038-.048-.037-.049-.036-.049-.036-.048-.036-.048-.035-.048-.034-.049-.034-.049-.034-.05-.032-.05-.032-.05-.032-.051-.03-.051-.03-.051-.03-.051-.029-.053-.028-.052-.027-.053-.027-.053-.027-.053-.025-.053-.025-.054-.024-.055-.024-.054-.023-.055-.022-.055-.022-.055-.021-.056-.02-.055-.02-.055-.021-.055-.02-.056-.019-.057-.018-.056-.018-.057-.016-.057-.017-.057-.015-.057-.015-.058-.014-.057-.013-.058-.013-.059-.012-.058-.011-.058-.011-.059-.009-.059-.01-.059-.008-.059-.007-.059-.006-.06-.006-.059-.005-.06-.004-.06-.003-.06-.003-.06-.001-.06-.002H15.361l-.06.002-.06.001-.06.003-.06.003-.06.004-.059.005-.06.006-.059.006-.059.007-.059.008-.059.008-.059.01-.059.009-.058.011-.058.011-.059.012-.058.013-.057.013-.058.014-.057.015-.057.016-.057.016-.057.017-.056.017-.057.019-.056.018-.056.02-.055.02-.055.021-.055.022-.055.022-.054.023-.055.024-.053.025-.053.025-.053.026-.053.027-.052.028-.052.028-.052.029-.052.029-.052.029-.05.03-.051.031-.05.031-.05.032-.05.033-.049.033-.049.034-.048.035-.048.035-.048.035-.047.037-.047.037-.046.037-.046.038-.046.039-.045.04-.045.039-.044.041-.044.041-.043.042-.045.044-1.286 1.286-.05.047-.053.043-.056.039-.058.036-.061.031-.062.027-.064.023-.066.019-.067.013-.068.01-.068.004h-.068l-.068-.004-.068-.01-.067-.013-.066-.019-.064-.023-.062-.027-.061-.031-.058-.036-.056-.039-.053-.043-.05-.047-.047-.05-.043-.053-.039-.056-.036-.058-.031-.061-.027-.062-.023-.064-.019-.066-.013-.067-.01-.068-.004-.068v-.068l.004-.068.01-.068.013-.067.019-.066.023-.064.027-.062.031-.061.036-.058.039-.056.043-.053.047-.05 1.29-1.29.058-.058.062-.058.061-.058.063-.058.063-.056.063-.056.064-.055.065-.053.065-.053.066-.053.066-.052.068-.052.068-.051.068-.049.068-.049.069-.048.069-.047.07-.046.071-.045.071-.045.072-.043.072-.042.072-.042.073-.041.074-.04.074-.041.074-.039.074-.038.075-.037.075-.036.076-.035.076-.034.077-.034.077-.032.077-.031.078-.031.078-.03.078-.028.079-.028.079-.027.08-.025.079-.025.08-.024.081-.023.081-.022.081-.021.081-.019.082-.019.081-.018.082-.017.083-.016.082-.015.083-.014.083-.013.084-.012.083-.011.084-.01.084-.009.084-.007.084-.007.084-.006.085-.005.084-.003.085-.003.085-.001.082-.001h1.164l.082.001zM12 12.5a1.503 1.503 0 0 0-1.5-1.5A1.503 1.503 0 0 0 9 12.5v2a1.503 1.503 0 0 0 1.5 1.5 1.503 1.503 0 0 0 1.5-1.5v-2z"/></svg>
