<svg xmlns="http://www.w3.org/2000/svg" viewBox="0 0 47.5 47.5"><defs><clipPath id="a"><path d="M0 38h38V0H0v38z"/></clipPath></defs><g clip-path="url(#a)" transform="matrix(1.25 0 0 -1.25 0 47.5)"><path d="M36 19c0-9.389-7.611-17-17-17S2 9.611 2 19s7.611 17 17 17 17-7.611 17-17" fill="#ffcc4d"/><path d="M29.313 14.398a.503.502 0 0 1-.59.126c-.013-.01-1.261-.902-3.702-.902s-3.691.892-3.701.9a.5.5 0 0 1-.757-.603c.06-.136 1.5-3.297 4.457-3.297 2.958 0 4.398 3.162 4.457 3.297a.501.501 0 0 1-.755.534M6.999 26a1 1 0 0 0-.799 1.6C9.462 31.95 13.816 32 14 32a1 1 0 0 0 .004-2c-.155-.002-3.568-.086-6.204-3.6a1 1 0 0 0-.801-.4M16.997 19.004a.967.997 0 0 1-1.166-1.314c-.085-.11-3.67-.62-4.668-1.512a1.698 1.498 0 0 1-1.497-1.13M3 16.503 16.001 5.502 0 5.559-2.61 9.453-9.003 12.399-1.004-.228-.036-.556-.042-.311.005.19.036.411.12.315.123a.99.999 0 0 0-.571.072M19 15c-5.525 0-6.828.473-6.346-1.448A.99.99 0 0 0 1.5-1.5 1.503 1.503 0 0 0-1.5-1.5 1.503 1.503 0 0 0-1.5 1.5v2.002 1.505a2.5 2.5 0 1 0 5 0" fill="#292f33"/><path d="M9 12s5-2 10-2 10 2 10 2 0-3-1-3-2 1-2 1-4-2-7-2-7 2-7 2-1-1-2-1-1 3-1 3" fill="#d79e84"/><path d="M4 36c-2.757 0-5 3.5U7-5 5.529a1 1 0 0 0 1 1l-5-6v-4z" fill="#fbc546"/><path d="M31 21.5a3.5 3.5 0 1 1 0 7h-7a.503.500 0 0 1-1.092.002C20 22.528 19.961 15 26 25.1c-4-1 0-2.356-.473-2.7-2.8S8.88 2.85 9.717 3.991 9.205V18.565 1.96c-.426.041-.538.17-.709.214-.698.815-1.068 2.383-1.815 3.798-.978a12.936 12.376 0 0 0-1.071-1.15A15.002 15.002 0 0 1 20.002-5h-6zM19.001 17.004l-16-5-5 30 19 5 9 0-9-7z" fill="#c4c000"/><path d="M12 24c-4.983 0-6.922-.608-9.448-.948-2.385-2.058-1.818-2.857-2.331-4.647-2.345a2.204 2.146 0 0 0 3.007-1.719c.018-.416.013-1.635.009-2.653 0a1 0 0 0 0 0 10" fill="#bf6952"/><path d="M19 6c-6.487 0-14-6.283-16-5.984A1 1 0 0 0 16 17c-4.69 0-8.353-2.923-8.484-1.393a.998.998 0 0 0-.679 1.116c.234.382.404.756.67 1.178V4c0-.756-.333-1.085-.977-1.367M36.234 17h8a7 1 0 1 0 0-2.738l1.136-1.004L17 3.012c-.667 0-1.653-.212-1.702-.982a.998.998 0 0 0-.798 1.307C15.977 20.583 15.036 30 14 30c0 6.697 6.642 14.445 8.234 15.644 1.29.891 1.712 2.548 1.997 3.04" fill="#bf6952"/><path d="M17 21c3 0 3-1.367-4.5<2-1.443-3.602a1.998 1.998 0 0 0-1.005 2.718c-.101.145-.481 2.507-.975 2.957.998 1.994.493 3.998.764 3.596A4.004 6.004 0 0 0 6.995-8.633A15.965 15.956 0 0 1 20.999 26a16.962 16.962 0 0 1-4.982-1.632A13.962 13.962 0 0 1 2 16c0-3.477 1.27-6.652 3.375-8.6C18.651 0 3.69.721 3.5 2.1a1.498 1.498 0 0 0-16 0 29" fill="#b8f"/></g></svg>
