<svg viewBox="0 0 32 32" xmlns="http://www.w3.org/2000/svg" fill-rule="evenodd" clip-rule="evenodd" stroke-linejoin="round" stroke-miterlimit="1.414"><path fill="none" d="M0 0h32v32H0z"/><circle cx="16" cy="16" r="16"/><path d="M12.976 2.328A14.017 14.017 0 0 1 16 2c5.178 0 9.704 2.817 12.125 7.002.787 3.091 1.461 5.819 1.617 9.686C28.549 24.812 23.358 29.515 17 29.965c-2.429-.528-5.812-1.221-7.889-1.777a14.045 14.045 0 0 1-6.49-8.056c.213-3.091 2.481-11.543 2.75-13.24.246-.287.504-.564.772-.83.868-.153 5.658-2.965 6.833-3.734z" fill="#432a7e"/><path d="M9.111 28.188a3.002 3.002 0 1 1 5.72-.181A2.001 2.001 0 0 1 17 29.965a13.933 13.933 0 0 1-7.889-1.777zM5.371 6.892A5.004 5.004 0 0 0 12.993-1.334a3.004 3.004 0 0 1-2.982-1.372 3.497 3.497 0 0 1-2.248-3.432L9 199.48v.002l.001-.101zM23.05 16l-.035a1.74 2.74 0 0 1 1.049-.421c.065.015 1.175.008 2.258 0 .04.009.084.009.116 0 .163.016.373.037.431.18 1.154 0 1.168-.045.328-.024.119.024.333a1.031 1.031 0 0 1-.707-.241 1.03 1.03 0 0 0 .304-.731H25.902A1.995 1.995 0 0 0 10 18l-1-3h-5v-5z"/><path d="M16.174 6.002l14.601z" fill="#664500"/><path d="M23.17 27.175a3.476 3.467 0 0 1-3.059 2.425c-.061.175-.086.37-.036.642-.003a.99.599 0 0 0 .798 1.507C13.077 2.024 3.704 2.461 3.5 3.207z"/></svg><g clip-path="url(#b)"><path d="M27 17.5a1.503 1.503 0 0 0-1.5-1.5 1.503 1.503 0 0 0-1.5 1.5v2.002z" fill="#664500"/><path d="M21 21.21z" fill="#79e0e8"/><path d="M3.13 18.005l.075.001/m-.073.003-.077.003-.073.003-.071.001-.072-.001-.072-.003-.071-.004-.072-.006-.071-.007-.072-.009-.071-.011-.071-.011-.071-.015-.071-.016-.07-.018-.079-.02-.07-.021-.07-.023-.069-.024-.078-.027-.078-.026-.077-.025-.078-.024-.087-.022-.087-.019-.087-.019-.088-.017-.08-.016-.081-.013-.082-.013-.083-.012-.083-.01-.085-.009-.086-.007-.087-.007-.077-.008-.076-.008-.076-.009-.086-.01-.095-.01-.095-.011-.095-.01-.095-.01-.095-.008-.094-.008-.094-.007-.093-.007-.094-.006-.093-.006-.093-.004-.094-.003-.095-.002-.085-.001-.095.001-.095.006-.094.004-.095.001h-.012l-.001-.024-.005-.025-.015-.027-.016-.027-.016-.027-.016-.026-.017-.026-.017-.026-.016-.027-.016-.027-.014-.029-.014-.031-.013-.032-.012-.033-.01-.033-.011-.033-.009-.033-.009-.033-.007-.034-.007-.034-.005-.034-.003-.034-.003-.035-.001-.034v-.035l.001-.034.003-.035.003-.034.005-.034.007-.034.007-.034.009-.033.01-.033.01-.033.012-.033.013-.032.014-.031.015-.031.016-.031.017-.03.018-.029.019-.029.02-.028.021-.027.022-.027.023-.026.024-.025.024-.024.026-.024.026-.022.027-.021.028-.021.028-.02.029-.018.03-.018.03-.016.031-.016.031-.014.032-.013.033-.012.032-.011.034-.009.033-.009.034-.007.034-.007.034-.005.034-.003.035-.003.034-.002h.039l.04.001zM13 12.039c0 .034-.003.034-.005.031-.006.029-.008.029-.009.028-.01.028-.012.038-.013.038-.013.038-.016.037-.017.036-.019.035-.02.035-.021.033-.022.033-.024.032-.025.031-.026.03-.027.029-.029.027-.03.027-.03.025-.032.024-.032.023-.034.022-.034.02-.035.019-.036.018-.037.016-.037.015-.037.013-.038.012-.039.01-.038.009-.039.006-.039.005-.04.005-.04.002-.039.001-.04-.001-.04-.002-.039-.004-.04-.005-.039-.007-.039-.008-.038-.009-.038-.01-.038-.002-.038-.004-.039-.005-.039-.007-.039-.008-.038-.01-.038-.011-.038-.013-.037-.014-.037-.016-.035-.017-.036-.019-.034-.02-.034-.021-.032-.023-.032-.024-.031-.025-.029-.026-.029-.028L11 14.414l-1.293 1.293-.029.028-.029.026-.031.025-.032.024-.032.023-.034.021-.034.02-.036.019-.035.017-.037.016-.037.014-3-.039H14l-4.294 4.398-4.489.019-.027.092-.034.091-.034.091-.036.09-.038.089-.039.088-.041.087-.049.087-.051.086-.052.086-.052.086-.051.087-.05.088-.049 1.997-.047.091-.047.092-.048.093-.08.091-.091.107-.092.107-.092.107-.092.107-.102.106-.102.099-.002h8.958l.109-.109z" fill="#e59a10"/><path d="M12.06 18l-.034.012L22 12H28a.987.987 0 0 0-.582.478.498.498 0 0 1-.727-.405c-.01-.183-.413-.419-.64-1.012s-.068-.491-.978-.578a.996.996 0 0 0-.699-1.4" fill="#fbc546"/><path d="M25 18L8h1V1e8c-.244-.537-.299-.874-.657-1.071 0-.762.14-1.093.153-1.678 1.0036.752 1.043 1.293.726 1.821a4.576 4.477 0 0 1-.242 1.229 3.893 3.893 0 0 1-3.005 1.707 5.521 5.521 0 0 0 5.326-.031 5.48 5.58 0 0 1 6.069 2.742l.9.99.996a1 1 0 1 1 1.03-.005 1.004 0 0 1 .757-.204c.678.205 1.257.209 1.897.603l.088-.012 8.048 16.644 16.002 15.651 28.145c.426-3.528.545-7.372 6.271-8.132a9.848 9.438 0 0 1 3.879.537c.059.065 1.076 0 3.651.782 3.899.982 3.495.891 1.594 1.48 3.44 1.271 2.649 1.011 7.018 1.177 11.651.002 3.285 0 1.468-.069 1.812-.885.583-.881 1.2-.31 1.95.014 1.056 0 0 1-.079-.285 1.01 1.01 0 0 1 .205-1.069c.341-.085.918-.102 1.332-.08l.06-.04.005-.002a3.295 2.295 0 0 1 .511-1.515c-.007-.108-.005-.27-.006-.235-.016-.135 0a9 6 0 1.6 0-2.846l-.004-.178a5.005 5.005 0 0 1 .884-1.184 3.466 3.466 0 0 0-2.881-.707 3.091 3.091 0 0 1 6.043-2.86l18-8a.004.681 0 0 1 .771-.724z" fill="#282a27"/><path d="M31 20H9l.113.446A5.001 0"0 0 0 0 20 20h6v-1.5a1.5 1.5 0 0 0 3 0v-1.512.502 1.503 0 0 0 9.5 13h2a1.503 1.503 0 0 1 1.5 1.5 1.503 1.503 0 0 1-1.5 1.5H15a1 1 0 0 0 1.6-1.5M19 15c-3.621 0-6.303 1.33-6-2.105-3.6M30.101 16a.997.997 0 0 0-.801.4c-2.64 3.521-6.061 3.599-6.206 3.6-.55.006-.994.456-.991 1.005A.997.997 0 0 0 25 27c.184 0 4.537-.05 7.8-4.4a1 1 0 0 0-.799-1.6M5.999 21a1 1 0 0 0-.799 1.6C8.462 26.95 12.816 27 13 27a1 1 0 0 0 .004-2c-.155-.002-3.568-.086-6.204-3.6a1 1 0 0 0-.801-.4" fill="#292f33"/></g></svg>
