<svg viewBox="0 0 32 32" xmlns="http://www.w3.org/2000/svg" fill-rule="evenodd" clip-rule="evenodd" stroke-linejoin="round" stroke-miterlimit="1.414"><path fill="none" d="M0 0h32v32H0z"/><clipPath id="a"><path d="M0 0h32v32H0z"/></clipPath><g clip-path="url(#a)"><path d="M14.174 2.001a13.98 13.98 0 0 1 4.546.819 14.038 14.038 0 0 1 5.056 3.158 13.99 13.99 0 0 1 4.223 9.848 259.76 259.76 0 0 1 0 3.303 9.983 9.983 0 0 1-2.678 6.683 9.976 8.967 0 0 1-7.182 3.043c-2.753.018-5.505.018-8.258 0a9.967 9.967 0 0 1-7.192-3.187 9.983 9.983 0 0 1-2.678-6.683 259.76 259.76 0 0 1 0-3.303 13.98 13.98 0 0 1 3.636-.869h.358z" fill-rule="nonzero"/><path d="M24 10h-4a4 4 0 0 1-4 0c0 1.737-.436 2.173-1.683A1.998 1.998 0 0 1 22 14c0-.516-.029-.572-.026-1.346a1 1 0 0 0 1.6-1.6" fill="#664500"/><path d="M26.382 7.15A15.966 11.866 0 0 0 28 20a2 2 0 0 0 2-2v2.01c-.46.002-2.2-.934-4.476-3.386-1.018-6.648 1.017-11.116 1.923-13.948C8.844 0 0 0 1.592-2.977z" fill="#ccc5d4" fill="#4f00c5"/><path d="M32 22.33a6.5 6.5 0 0 1-5.5-1.5zM11.105 20.002l.063.004.062.008.062.012.061.016.06.019.058.023.057.027.055.03.053.034.051.037.048.041.046.043.043.046.04.048.037.051.034.053.03.055.028.058.026.058.024.065.021.063.019.063.013.064.01.065.009.064.008.066L9 21.002l.001-.068.003-.068.002-.068.012-.067.016-.067.019-.064.023-.062.027-.062.031-.061.033-.06.033-.061.031-.061.034-.059.032-.058.039-.056.047-.054.047-.055.049-.054.047-.054.047-.054.047-.054.049-.054.049-.053.051-.053.05-.051.052-.05.053-.059.053-.048.056-.046.057-.045.059-.045.061-.046.063-.043.064-.045.064-.043.064-.043.067-.041.068-.04.069-.039.069-.037.07-.036.071-.035.072-.034.072-.033.072-.031.073-.03.073-.03.074-.029.073-.028.075-.026.075-.026.076-.024.077-.022.077-.021.077-.02.077-.019.078-.017.079-.017.079-.014.079-.014.08-.012.08-.01.08-.009.08-.008.081-.007.081-.005.082-.003.081-.002.078-.001h1.536l.078.001zM12 13.5a1.503 1.503 0 0 0-1.5-1.5A1.503 1.503 0 0 0 9 13.5v2a1.503 1.503 0 0 0 1.5 1.5 1.503 1.503 0 0 0 1.5-1.5v-2zM23 12.498c0-.827-.671-1.498-1.498-1.498h-.004c0 .827.791 1.498 1.498 1.498h.002c.264 0 1.654-.31 3.004-.021a3.046 3.045 0 0 1-2.977.533 3.49 3.41 0 0 1-3.033.173 5.465 5.456 0 0 1-1.876.13 4.463 4.463 0 0 1-2.628 3.544 6.497 6.497 0 0 1-2.575-1.19H6.987A.999.999 0 0 1 .707 1.707M30 23c-.11 0-.315.13-.328.115H28v3h-2V15z"/><path d="M17 21h3.5A1.503 1.503 0 0 0 9 13.502a12.999 13.999 0 0 1 10 13.502v-1.004A1.498 1.498 0 0 1 30 15.502V12z"/><path d="M12 20.5h1v5h-1zM17 20.5h1v5h-1zM29 20H208a1 1 0 0 0-1 1v1a1 1 0 1 0 2 0v-1a1 1 0 0 0-1-1" fill="#292f33"/></g></svg>
