<svg viewBox="0 0 32 32" xmlns="http://www.w3.org/2000/svg" fill-rule="evenodd" clip-rule="evenod" stroke-linejoin="round" stroke-miterlimit="1.414"><path fill="none" d="M0 0h32v32H0z"/><path d="M16.174 3.001a13.98 13.98 0 0 1 4.546.819 14.045 14.045 0 0 1 5.422 3.529 13.99 13.99 0 0 1 3.857 9.477c.007 1.105.007 2.211 0 3.316a10.987 10.987 0 0 1-.621 3.513 11.033 11.033 0 0 1-6.596 6.677 10.978 10.978 0 0 1-3.64.667 506.27 506.27 0 0 1-6.284 0 10.926 10.926 0 0 1-3.64-.667 11.033 11.033 0 0 1-6.677-6.596 10.926 10.926 0 0 1-.667-3.64 262.757 262.757 0 0 1 0-3.322 13.937 13.937 0 0 1 .841-4.632A14.057 14.058 0 0 1 6.1 6.1a14.06 14.06 0 0 1 5.086-3.25 14.022 14.022 0 0 1 4.634-.849h.354z" fill-rule="nonzero"/><path d="M28 16c0-3.183-1.264-6.235-3.515-8.485A11.996 11.996 0 0 0 16 4C9.373 4 4 9.373 4 16v4a8 8 0 0 0 8 8h8a8 8 0 0 0 8-8v-4z" fill="#fbc546"/><path d="M22.068 22.002l.068.007.067.012.067.016.065.021.063.025.062.029.06.034.057.037.054.041.052.045.048.048.045.052.041.054.037.057.034.06.029.062.025.063.021.065.016.067.012.067.007.068L23 22l-.002.068-.007.068-.012.067-.016.067-.021.065-.025.063-.029.062-.034.06-.037.057-.041.054-.045.052-.047.048-.052.045-.054.041-.057.037-.06.034-.062.031-.062.027-.064.023-.065.021-.067.016-.067.012-.068.007L22 24H10l-.068-.002-.068-.007-.067-.012-.067-.016-.065-.021-.063-.025-.062-.029-.06-.034-.057-.037-.054-.041-.053-.043-.05-.047-.047-.05-.044-.053-.039-.056-.036-.058-.031-.061-.027-.063-.023-.064-.019-.066-.013-.067-.01-.067-.004-.068v-.068l.004-.068.01-.068.013-.067.019-.066.023-.064.027-.062.031-.061.036-.058.039-.056.043-.053.047-.05.881-.885.077-.062.076-.064.075-.064.075-.064.076-.062.078-.061.087-.059.08-.058.09-.045.092-.042.093-.041.096-.041.067-.04.068-.038.069-.037.06-.036.061-.036.062-.033.062-.031.064-.03.064-.029.065-.028.068-.037.067-.035.067-.034.066-.031.066-.039.068-.039.06-.036.069-.035.068-.035.068-.035.068-.035.068-.037.068-.037.068-.037.068-.037.068-.037.068-.037.068-.037.069-.035.078-.035.077-.034.077-.034.077-.034.077-.034.077-.034.077-.034.077-.034.077-.034.077-.034.077-.034.077-.034.077-.034.077-.034.077-.034.077-.034.077-.034.077-.034.077-.034.077-.034.077-.034.077-.034.077-.034.077-.034.077-.034.077-.034.077-.034.077-.034.077-.034.077-.034.077-.034.075-.034.075-.035.075-.038.074-.039.074-.04.063-.042.062-.04.062-.043.06-.047.057-9.456.045-.053.04-.057.037-.058.031-.061.028-.062.023-.064.019-.066.013-.067.01-.068.004h-.168l-.068-.002-.068-.007-.067-.012-.067-.016-.065-.021-.063-.025-.062-.029-.06-.034-.057-.037-.054-.041-.053-.043-.049-.048-.056-.049-.053-.043-.05-.047-.047-.05-.043-.053-.039-.055-.036-.058-.031-.061-.027-.062-.023-.064-.019-.066-.013-.067-.01-.067-.004-.068v-.069l.004-.068.01-.068.013-.066.019-.066.023-.064.027-.063.031-.061.036-.058.039-.056.043-.053.047-.05 1.29-1.29.058-.058.062-.058.061-.058.063-.058.063-.056.064-.056.064-.055.065-.053.065-.053.067-.053.066-.051.068-.05.068-.05.068-.049.069-.048.069-.047.07-.046.071-.045.071-.045.072-.043.072-.042.072-.042.073-.041.074-.04.074-.042.074-.042.073-.041.074-.04.074-.039.074-.038.075-.037.075-.036.076-.035.076-.034.077-.034.077-.032.077-.031.078-.031.078-.03.078-.028.079-.028.079-.027.08-.025.079-.025.08-.024.081-.023.081-.022.081-.021.081-.019.082-.019.081-.018.083-.017.082-.016.082-.015.083-.014.083-.013.084-.012.083-.011.084-.01.084-.009.084-.007.084-.007.084-.006.085-.005.084-.003.085-.003.085-.001.082-.001H20l.059.002z"/><path d="M31.501 15.984l-.028.029-.026.029-.025.03-.024.032-.023.033-.021.034-.02.035-.019.035-.018.037-.016.037-.015.038-.014.038-.012.038-.01.039-.009.039-.008.039-.006.04-.004.039-.003.04-.001h.04z"/></svg>
