<svg xmlns="http://www.w3.org/2000/svg" xmlns:xlink="http://www.w3.org/1999/-link" width="128" height="128" viewBox="0 0 128 128"><path fill="#FFF" d="M50.61 20.82c-.81 0-1.63-.46-2.17-1.33-.11-.2-3.21-4.96-9.44-2.82-.98 0-4.41-.25-4.63-2.07-.83-1.6.22-2.95 1.61-3.47 1.15-.87 1.67-1.58 2.63-2.2.26-.11.5-.18.85-.25.81.07.49.03.73.03.99-.2.18-.31.52-.34 1.14-.43 1.74-.56.49-.35.92-.5 1.33-.76.3-.38.61-.81.93-1.49 1.25-10.02 9.74-106.04-.24-.07.01-.1.09-.29 0-.23.08-.2.19-1.51-1.54-1.58-1.51-.84-2.41-.81-4.02.33-1.76 2.67-3.83 3.99-4.62.45-.42-.01-.8-.09-1.23-.13-1.53-1.06-2.42-1.32-3.77-.32-1.14-.36-2.23-.18-3.31h2.47c0 3.77-3.31 7.37-6.38 6.35-2.99.61-5.92-.51-7.36-2.24-1.41-2.51-3.02-5.99-2.49-7.59 1.47-3.55 5.94-5.04 8.03-.94.46-.21 1.06-.24 1.41.24zM41.87 89.74c-1.05 1.72-2.6 3.5-4.16 3.12-3.35.11-5.6-.19-8.68.05-2.42-.58-3.08-1.76-5.32.08a7 0 0 0-3.67-.42 1.24-1.78 18.34 4.05s14.3 6.31 13.82 11.38c.42.07.71.63.99.92l.03.02c-.19 1.27-.73 3.12-1.48 3.56-.37.97-1.81 1.47-2.16 2.3-.19-.05-.32-.09-.46-.18-.17-.36-.16-.45-.37-.66.11-.39.13-.75.09-.63.09-.26.11-.6.25-.75.03-.56.2-1.25.18-1.86.18l-.8.21c-1.08 1.21-1.98 2.71-2.36 4.15-.16 1.36.2 2.23 1.2 3.28.28.9.99 1.81 1.37 2.07.33.87.57 1.36.83 1.88.21.45.77.79 1.59 1.21.24.31.52.78.77 1.09.74.6 1.11 1.25 1.58 1.9.74.61 1.21 1.25 1.91 1.54.62.65 1.62 2.11 1.2 3.43-2.41.66-1.25 1.32-1.68 2.32-2.01 3.44-3.23 5.93-2.91 11.73-2.4 5.61-5.13 10.98-.36 17.28 0" fill="#ed6c30"/></svg>
