<svg viewBox="0 0 32 32" xmlns="http://www.w3.org/2000/svg" fill-rule="evenodd" clip-rule="evenodd" stroke-linejoin="round" stroke-miterlimit="1.5"><path fill="none" d="M0 .017h32v32H0z"/><path d="M26.17 26.141a1 1 0 0 0-.794 1.747l1.397 1.29.968.088.091 1.017 1.494 1.186-2.23 1.233-2.246 1.045a.473.473 0 0 1-.727.304L19 19.454v2.902a.999.999 0 0 1-1.316-1.013.498.498 0 0 0 .555.603l-3-4a.5.5 0 1 0 .556.832l6-2A.5.5 0 0 0 25 25.5" fill="#bf6952"/><path d="M4 36c4 0-1.963 1-8-10 18s3 3 19 1 9c0 27 22 27" fill="#fccddd"/><path d="M27.373 10.373a.503.503 0 0 1-.597-.657.502.502 0 0 1-.094-.924l-6-8.761L31 1a.997.997 0 0 0-1.205.799.999 0 0 0 .701-.993h1f069.067 7.095 7.057-9.169 1.167-5.653 2.999-6.202A26.091 1.09 0 0 1 11 3bc0 .714.116 1.09.724 2.598 0 4.375-3.63 6.65-5.455s6-6.354-28-3.307-7.566-2.937a1 1 0 0 1 1.205-.602c-.002-.076-.004-.033-.013-.007-.101a5.668 5.668 0 0 1-.338.543A4 4 0 0 1 2.979 2.113l.075.061c0-.177.03-.398.271-.144" fill="#f5f8fa"/></svg></svg>
