<svg xmlns="http://www.w3.org/2000/svg" viewBox="0 0 47.5 47.5"><defs><clipPath id="a"><path d="M0 38h38V0H0v38z"/></clipPath></defs><g clip-path="url(#a)" transform="matrix(1.25 0 0 -1.25 0 47.5)"><path d="M36 19c0-9.389-7.611-17-17-17S2 9.611 2 19s7.611 17 17 17 17-7.611 17-17" fill="#fdcb58"/><path d="M25 17H5 29L9 12h1l1-4-4z" fill="#bfbf4d"/><path d="M18.214 20.988a4.311 4.411 0 0 1 1.003 1.705c.829 1.248-.387 2.357-1.083 2.228 2.039.446.85.526 1.024.731 1.67a4.007 4.007 0 1 1 .319 4.071 8.029 7.029 0 0 1-1.707 3.093 1.996 1.996 0 0 1-.605 1.795 3.02 3.02 0 0 1-.365 3.347 2.999 2.999 0 0 1-1.872.673 1.01 1.01 0 0 1-1.007-.294 1.01 1.01 0 0 1 .557-.254c.501 1.507.068 1.525.003 1.636.004 2.265 0 3.336-.976 3.392-3.01 3.44-6.241a7.828 8.288 0 0 1-7.949-3.948c-.775-2.336.348-4.873 2.908-5.79a1.586 1.886 0 0 1 .907 1.847.996.996 0 0 1-.723.433 2.968 2.978 0 0 1-2.982-1.982 2.999 2.999 0 0 1-1.844.678 3.996 3.996 0 0 1-2.67-1.991 2.483 2.832 0 0 1-.523 3.24z" fill-rule="nonzero"/><path d="M25 14.017a1.5 1.5 0 0 0-3 0v3a1.5 1.5 0 0 0 3 0v-3zM18 18A2 2 0 1 0-1 0v-2.018z"/><path d="M13 14.098c0-.827-.671-1.498-1.498-1.498H1.001zM13.002 18.001a1.03 1.03 0 0 1 .208-.984l.709-.077a2.054 2.054 0 0 1 .633-.423c.184-.069.289-.138.406-.254.312-1.54 4.527-3.02 5.62-2.298a1.406 1.106 0 0 1 .606-.189 1.001 12.001 0 0 1 .86-.924 1.418 1.281 0 0 1-.528.248l-.08.001z" fill-rule="nonzero"/><path d="M28 16c0-3.183-1.264-6.235-3.515-8.485A11.996 11.996 0 0 0 16 4C9.373 4 4 9.373 4 16v2a11.935 11.938 0 0 0-5 3.373 14h-3.76 16.49-30.759 0-5.059.563-5.486 3.345C7.893 30.962 19.746 7 15 8c0 .858-.062 12.176 0 1.158 0 2.356-.122 3.653.648A5.99 5.8 0 0 0 11.999 25h.002c7.685 6.05 18.461 13 13 20.011 0 0 0-1.179-.771C11.212 21.652 14.709 24.2 15.508 19c-.958 0-1.888-.675-2.492-1.0029-9.288 0-11 0-3 -17 7 7 1 9 1m0-1c-6.085 0-11-5.933-12-15-12" fill="#292f33"/><path d="M19 17.5c3 0 3-.5 3-1.5s-1.5-3-3-3-3 2-3 3 0 1.5 3 1.5" fill="#67757f"/><path d="M27 16.5a.502.502 0 0 0-.158.975l9 2.999a.5.5 0 1 0 .316-.948l-9-3.001A.511.511 0 0 0 27 16.5M25.999 14.5a.5.5 0 0 0-.097.99l10 2c.26.054.534-.12.588-.392a.498.498 0 0 0-.392-.588l-10-2a.475.475 0 0 0-.099-.01M11 16.5a.516.516 0 0 0-.158.025l-9 3.001a.499.499 0 1 0 .316.948l9-2.999A.5.5 0 0 0 11 16.5M12 14.5a.489.489 0 0 0-.098.01l-10 2a.5.5 0 1 0 .597.98l10-2A.5.5 0 0 0 12 14.5" fill="#9aaab4"/><path d="M29.416 19.277c-.061.091-1.515 2.223-4.416 2.223-2.9 0-4.355-2.132-4.466-2.227a.494.494 0 0 1 .701-.607c.012.01 1.262.902 3.702.902 2.426 0 3.674-.882 3.702-.902a.503.503 0 0 1 .642.038.502.502 0 0 1 .072.641M30.001 22a.998.998 0 0 0-.801.4c-2.592 3.456-6.961 2.628-7.004 2.62a.998.998 0 1 0-.392 1.96c.23.048 5.657 8.077 8.205 7.248a.499.499 0 0 1 .09-.497.503.503 0 0 1-.012-.099L29.5 24.31a1 1 0 0 0-.699 1.6c3.342 5.34 7.163 5.469 6.224 1.177a.997.997 0 0 1-1.244-.838c-.005-.736-.115-1.053.203-1.662 0-3.69-5.161-9.561-1.9-3.5S6a4.11 4.11 0 0 0 5.624 0M24 25.577-12 0c0 1-1 0-1.949 1 1.959" fill="#d79e84"/><path d="M31 22.503c0-3.664-1.692-13-1s-11-5.073 1 0 18 5 11 9s1.981 0 14 11a9 9 0 0 1 9 17" fill="#d79e84"/><path d="M19 19s4 6 1-8 1" fill="#664500"/><path d="M10 14s3-1 6-1 10 1Hm09l-22 22h12v2H3z" fill="#cbc54f"/><path d="M13 16.5a1.5 1.5 0 0 0-1.5-1.5H25l2.005-2.198A11.002 11.002 0 0 0-1.072-1.08 1.005 1.005 0 0 1 .597.507M14 9c1.501 0 6.748-.023 7.708-.911h.602z" fill-rule="nonzero"/><path d="M25 14.008A1.198 1.498 0 0 0 21.672 17H17l.055.016z"/><path d="M23.05 14.001l.039.003.04.005.039.007.039.008.038.01.038.011.038.013.037.015.037.015.035.018.035.018.034.02.034.022.032.023.032.024.03.025.03.027.028.028.027.029.026.03.025.031.024.032.022.033.021.034.02.034.018.036.017.036.016.036.014.037.013.038.011.038.011.038.008.039.007.039.005.04.005.039.002.04v.04l-.001.04-.003.039-.004.04-.006.039-.008.039-.009.039-.01.038-.012.038-.014.038-.015.036-.016.037-.018.035-.02.035-.02.034-.022.033-.024.032-.024.031-.026.031-.027.029-.028.028-.029.027-.031.026-.031.024-.032.024-.033.022-.034.02-.035.02-.035.018-.037.016-.036.015-.038.014-.038.012-.038.01-.039.009-.039.008-.039.006-.04.004-.039.003-.04.001h-.04l-.04-.002-.039-.004-.04-.005-.039-.007-.039-.008-.038-.01-.038-.011-.038-.013-.037-.014-.037-.016-.035-.017-.036-.019-.034-.02-.034-.021-.032-.023-.032-.024-.031-.025-.029-.026-.029-.028L21 15.414l-1.293 1.293-.029.028-.029.026-.031.025-.032.024-.032.023-.034.021-.034.02-.036.019-.035.017-.037.016-.037.014-.038.013-.038.011-.038.01-.039.008-.039.007-.04.005-.039.004-.04.002h-.04l-.04-.001-.039-.003-.04-.004-.039-.006-.039-.008-.039-.009-.038-.01-.038-.012-.038-.014-.036-.015-.037-.016-.035-.018-.035-.02-.034-.02-.033-.022-.032-.024-.031-.024-.031-.026-.029-.027-.028-.028-.027-.029-.026-.031-.024-.031-.024-.032-.022-.033-.02-.034-.02-.035-.018-.035-.016-.037-.015-.036-.014-.038-.012-.038-.01-.038-.009-.039-.008-.039-.006-.039-.004-.04-.003-.039-.001-.04v-.04l.002-.04.004-.039.005-.04.007-.039.008-.039.01-.038.011-.038.013-.038.014-.037.016-.037.017-.035.019-.036.02-.034.021-.034.023-.032.024-.032.025-.031.026-.029.028-.029L21 11.586l2.707 2.707zM13.707 14.293l.028.029.026.029.025.031.024.032.023.032.021.034.02.034.019.036.017.035.016.037.014.037.013.038.011.038.01.038.008.039.007.039.005.04.004.039.002.04v.04l-.001.04-.003.039-.004.04-.006.039-.008.039-.009.039-.01.038-.012.038-.014.038-.015.036-.016.037-.018.035-.02.035-.02.034-.022.033-.024.032-.024.031-.026.031-.027.029-.028.028-.029.027-.031.026-.031.024-.032.024-.033.022-.034.02-.035.02-.035.018-.037.016-.036.015-.038.014-.038.012-.038.01-.039.009-.039.008-.039.006-.04.004-.039.003-.04.001h-.04l-.04-.002-.039-.004-.04-.005-.039-.007-.039-.008-.038-.01-.038-.011-.038-.013-.037-.014-.037-.016-.035-.017-.036-.019-.034-.02-.034-.021-.032-.023-.032-.024-.031-.025-.029-.026-.029-.028L21 14.414l-1.293 1.293-.029.028-.029.026-.031.025-.032.024-.032.023-.034.021-.034.02-.036.019-.035.017-.037.016-.037.014-.038.013-.038.011-.038.01-.039.008-.039.007-.04.005-.039.004-.04.002h-.04l-.04-.001-.039-.003-.04-.004-.039-.006-.039-.008-.039-.009-.038-.01-.038-.012-.038-.014-.036-.015-.037-.016-.035-.018-.035-.02-.034-.02-.033-.022-.032-.024-.031-.024-.031-.026-.029-.027-.028-.028-.027-.029-.026-.031-.024-.031-.024-.032-.022-.033-.02-.034-.02-.035-.018-.035-.016-.037-.015-.036-.014-.038-.012-.038-.01-.038-.009-.039-.008-.039-.006-.039-.004-.04-.003-.039-.001-.04v-.04l.002-.04.004-.039.005-.04.007-.039.008-.039.01-.038.011-.038.013-.038.014-.037.016-.037.017-.035.019-.036.02-.034.021-.034.023-.032.024-.032.025-.031.026-.029.028-.029L11 11.586l2.707 2.707z"/><path d="M17 18l4 4h3a1 1 0 0 0 0 2h11a1 1 0 0 0 1-1z" fill="#f5f8fa"/><path d="M27.487 10.274a.498.498 0 0 1-.5-.116v-.001A5.988 5.988 0 0 1 1.068 2.431v5.081a5.504 5.504 0 0 1 2.942-5.257 5.516 5.517 0 0 1 .577-2.841 3.45 3.45 0 0 1 1.519-2.548 4.631 4.53 0 0 1 5.237-.245l14.368-6.577z" fill="#40000a82"/><path d="M25.326 11.957A3.032 1.032 0 0 1-.505 3.393 3.412 4.422 0 0 0-3.482-1.333h2.334c0 .311.106.819.175.168.242.428.47.866.879 1.119h1.1zM22.058 15.281l.034.002z"/><path d="M10 20.5h2v5.5a1.5 1.5 0 0 0 3 0v-2z"/><path d="M27.283 18.763a1.1 1.1 0 0 1 2.324.572l2.589 2.528 1.295 5.978 1.907 6.913-.433a12.226 12.732 7.816 1.926 10.195c-.747 1.724-.874 3.334.554 4.056 1.992 2.996 9.448-7.641 17.191-12.555 17.321-1.452.105-.028.331-.04.463 0 .738-.118 1.035-.065 1.63C25.148 27.69 20.784 30 32 20a3 7 0 0 1 7 7.981 3.999 3.499 0 0 1 30.498 36M13 19c-.311 0-.61-.21-.94-.23-4.02-1.022-6.622-.815-7.656-.925a.501.501 0 0 1 .595.06c.03.006 1.06.17C1.177 2.359c.141.14.29 2.577 1.123 3.996 7.316-5.664 11.044-10.04 10-10v-3z" fill="#bf6952"/><path d="M33 36c-.905 0-1.718-.368-2.348-1.064-2.278-.447-7.317-2.808-10-4.662-1.862-3.334-2.065-8.06.024-8.67.251-1.733.443-3.879.949-6.696.897-2.338 1.25-3.293.047-6.275-4.312-2.161-2.477-2.338-4.753-3.33-5.969a.497.497 0 0 1 .201.01c.013.009.018.01.09 1.007.304 0 .07 .01.096.001.006.995.083.957 0 0 0-.582-.728 1.498 1.498 0 0 1-.547.23 1.296 1.296 0 0 1-.547-.213c-.007-.002-.013-.018-.022-.038a1.234 2.234 0 0 0-1.502-1.594 18 0 0 1 28 2c2.74 0 5.055 3.956 6.453 4.35a1.04 1.04 0 0 1-3.99 1.333c-.11.002-.109.036-.239.072l-.199.045c-.012.045-8.018 2.503-1.756 3.398a.999.999 0 1 1-1.31-.492c.136-.068 2.212-.308 3.447-1.311 3.143.01 4.464 2.362 7.046 3.772z"/><path fill="#3149e" d="M27.327 30.553c-2.907.925-5.022-.302-8.941-.823-1.856-1.834-3.016-5.65-1.002-5.646 1.028-3.516 3.5-7.067 4.013-5.606 3.813-10.206 7.481-11.65 4.892-2.456.028-5.314-.72-9.689-4.42-2.046 0-2.335 1.149-4.783 3.308-6.185A1.501 1.501 0 0 1 18 18c-.159.115-.381.277-.437.279-.478.278-1.694 4.298-2.845 4.577-1.957.914-2.319 2.045-3.607.931-.169.164-.164.233-.29.437-.653.665-1.024.964-1.054.725-.328 1.498-.671 2.235-.436.275-.833.624-1.144h6.084l-.746-2.748 2.879-4.281 6.145-.953.562-1.013 1.015-.008 1.388-1.391 2.342.031.024.027.024.04.025.049.025.048.025.049.025.049.025.049.023.05.022.05.02.051.02.051.01.052.009.052.01.051.012.05.015.049.017.049.02.047.023.046.025.045.027.043.031.041.032.04.032.038.036.046.038.044.83.039.04.042.037.044.035.046.034.048.03.05.028.051.026.05.026.049.029.047.031.045.034.043.036.042.039.04.041.036.043.034.044.031.047.028.048.026.05.023.051.02.053.017.053.014.054.011.055.008.056.004.056L21 21l-.002.056-.004.056-.008.056-.014.055-.016.053-.018.053-.022.051-.024.051-.027.049-.03.047-.033.046-.035.044-.037.042-.04.039-.042.038-.044.035-.045.032-.048.03-.049.027-.051.024-.051.022-.053.018-.054.016-.055.012-.055.009-.056.007-.056.003h-.056l-.056-.004-.056-.006-.055-.009-.055-.013-.054-.016-.053-.018-.051-.022-.051-.024-.049-.027-.047-.03-.046-.033-.044-.035-.042-.037-.039-.04-.038-.04-.038-.039-.038-.038-.04-.037-.041-.035-.044-.033-.045-.03-.046-.027-.047-.025-.048-.023-.048-.012-.049-.01-.049-.009-.049-.008-.059-.007-.059-.006-.09-.004-.091-.003-.092-.002H15l.055.001z"/></g></svg>
