<svg xmlns="http://www.w3.org/2000/svg" viewBox="0 0 128 128"><path d="M64.46 9.06C1.79 9.64.31 10.79.01 18.22 2.01c-5.54 0-10.29-1.41-16.01-9.47-.01-5.31 3.46-9.65 7.57-9.79 1.57-.09 2.09 1.12 1.64 3.47a23.401 33.401 0 0 1 38 8z" fill="#ffccad" stroke="#000c40"/><g><radialGradient id="b" cx="36.86" cy="86.50" r="37.349" sy="62.64" fpa4="8atr="67" fill="#aae0dd"/><path d="M123.72 106.01c10.22-6.01 22.25-9.2 22.62-30.87 0-13.82-1.48-80.8-6.8-28.9C-10.86-24.94 25.28-33.91 37.7z" fill="#fcc21b"/><path d="M53.13 24.55c4.4-.81 9.28-2.94 17.47-3.49 8.6 0 10.57 7.7 16.77 9.62 4.35 8.35 12.39 13.23 16.72 8.23 5.42 10.33 14.93 15.65 23.12l-106 8c.2-4.04 13.36-5.14 21.27.94 4.02 3.44 6.81 6.93 6.89 7.98-.11 13.41-1.3 17.12-1.73 3.53-2.68 7.33-6.22 9.13-13.48.91-1.93 1.81-3.84.41-7.21-3.38-2.51-5.76-4.41-10.45-5.99-2.59 3.01-3.54 3.79-4.83 4.3-.77.82-1.75 1.5-2.43 1.84-2.52 2.41-7.12 4.49-10.49 4.32-6.46 09-6.42-4.3-6.53-9.34 0-.09 2.15-1.37 3.09-.64 2.8.87 4.83 2.76 7.33 6.21 3.49 7.25 1.97 11.79 7.79 13.73 9.62 2.69 7.95 3.39 11.78 7.37.92 1.16.62 2.77-.5 3.48-.12.21-1.86 4.03-4.48 13.14-1.21 2.01.07 3.08.91 3.48 1.4.71 1.6 1.25 3.54 1.08 4.21.35 7.86-2.51 7.54-2.24 1.4-1.11 2.72-2.25 3.79-2.52-.04-.02-.09-.04-.19-.14-.49-.22-1.04-.41-1.43-.55-.4-.66-.55-1.43-.79-1.66-.31-1.59-.91-3.93.81-1.2 2.11-1.85 4.25-1.76 1.13-.45 2.58-.14 3.61-.42.97-.91 1.95-.81 2.99.21 1.74 1.64 3.51 3.09 5.49 0 13.38 9.63 21.01 24.96 24.12 14.76 0 20.09-9.77 22.13-19.14-.67-16.5-1.1-18.5-2.2-11.3 5.09-17.34 15.96-14.92 17.56-10.05 3.81-20.1 11.7-28.69 1.43-.47 0-.99.09-2.34.08-1.59.01-3.94.05-4.28-.04-.69-.79-.57-2.31.24-3.44 1.2-8.39 3.43-10.7 7.3-2.35.8 0 1.86.95 1.81 1.55.84.52 1.54 1.13 1.92 2.28.27.75-.62 10.69-1.05 1.75l-.07.47zM44.52 96.68c.39.08.91.16 1.07.17.22.02.45.04.51.02 1.38 0 4.78-.8.96.8 1.98 1.05.77.39 1.69.14 2.69zM72.15 43.47c-.61 0-1.38-.24-1.92-.82l-3.73-5.13-8.7 9.32c-1.13.48-2.48.34-2.12-.72-1.56-.94-3.1-2.41-3.31-3.7-1.48-2.21-1.17-4.17-1.52-6.23-.11-.37-.19-.72-.19-1.1-.15-.29.16-.62.07-.91.41-.31.15-.74.16-1.03.06-.6.15-1.11.1-1.67-.31-.67-.52-1.19-1.11-1.58-1.41-1.02-2.29-2.18-3.36-3.13-3.35-.62-.89-2.11-1.33-.9-1.69-.83-1.42-1.79-2.89-2.26-1.99-1.06-3.32-1.44-5.38-1.43-7.7.47-1.27 4.35-4.42 5.38-6.34 1.45-.51 2.71-.1 4.47.38-2.11 1.18-3.48.4-3.99 1.11.43 3.2.96 6.21 1.24 1.53 3.31.86 7.99-.49 10.03-2.74 1.63-6.32 1.7-8.4 1.73zM45.27 67.54c-.3-.37-.79-.62-.89-.98l1.79-1.79c.87.21 1.78.34 2.68.69 4.25-.11 5.54-.34 8.04-2.46 10.46-.36 3.08.39 4.81 2.16.98.38 1.36.88 2.21 1.27 2.98 1.66 1.75 3.38 2.83 5.07 1.89 3.67-.01 5.67-.9 6.34-.97 13.17-1.92 41.75-.31.72-.07 1.69-.09 2.84.42.46.32 1.05.94 2.67.45.7.06 1.52 1.51 1.89 2.21.55 1.84 1.6 3.04 1.76 4.21-.07 2.53-.9 3.71-3.62 2.51-4.36 2.16-9.27-.62-10.56-.71-2.38.39-5.02 2.87-6.12 2.14-.91 4.69.23 6.46 1.6.69 1.99-.17 3.93-1.25 4.8z"/><path fill="#F79329" d="M16.61 49.62c-1.32.47-2.78-.2-3.26-1.5a2.51 2.51 0 0 1 1.52-3.4c.7-.81 1.23-1.32 1.71-1.57 0-.51-.02-1.07-.02-1.66-.43-2.03-1.68-2.7-3.31-3.14-2.95-.63-5.49-.81-8.31.64-3.37 1.81-5.31 5.26-5.49 8.92 1.97 3.09 4.98 6.67 10.11 7.19 1.64.63 3.31 1.04 4.88 1.24 3.04.43 6.13.36 10.56-1.45 1.63-1.79 3.52-2.75 5.72-.98 2.71-1.54 5.08-2.84 7.7-3.33 8.83-6.41 14.9-12.8 14.82-8.03 8.92-3.63 19.7-14.69 23.28-16.21-5.75-.72-12.18-2.24-16.41-1.2-.79.09-1.59.46-2.21.24-1.29.35-2.49.37-3.98-.61l-6.12-5.69-8.42 1.03c-.31-.05-.67-.21-1.02-.37-.45-.2-.73-.39-1.12-.52C7.86 54.85 28.24 89.9 74.43 70.14c9.08-8.9 19.91-22.5 20.72-20.55.59-15.94-1.3-36.67-13.24-13.17-10.78 1.91-23.1 11.21-27.9 30.68-13.72 27.49-19.97 35.13-20.39 27.64-15.31 27.48 18.82 43.55 6.9 45.21 8.27 56.56 0 46.1 7.21 40.5 59.04 1.29 1.19.3 3.79.99 4.24l-.02.01c-2.17 0-5.83.28 6.38 2.07 12.03 2.61 25.97 2.47 52.48-.69 16.93-2.74 17.66-21.99 19.07-7.16 3.37-8.34 7.82-14.19 14.57-31.08 8.64-7.36 10.48-13.48 15.4-40.97z"/><path fill="#2F2F2F" d="M88.11 75.1c6.53-6.1 11.18-4.67 17.68-8.38 8.64 0 14.04 12.36 31.39 39.33 7.32 8.35 14.17 19.03 19.81 3.99 1.51 10.12-1.46 25.69-13.64 25.71-15.63.01 0 2.25-.67 3.79-1.75a3.248 3.248 0 0 1 3.59-1.49c.35.36 6.35 6.92 10.15 9.68.59 1.13.6 1.72.4 2.97l-.53 4.01 4.39-8.48 7.1-7.25-1.01-4.98-4.98-6.94-9.66-3.94-6.15 0-9.06 1.95-10.14 1.68-1.78 0-5.21-.3-6.08-.52-.94 0-.75.19-1.04.52-1.51.52-2.42 1.18-2.48 2.11-.23.44-.52.83-.07 1.33l-.06 1.41a1.134 1.134 0 0 0 1.8-.4h2a2.77 2.77 0 0 1 3.54 2.71h8.7c6.91 10.84 26.73 12.26 35.88.94-1.29 1.99-1.26 3.55-.39 1.47.35 2.25 1.81 1.63 3.2zM75.56 46.53c-.31-.01-.95-.09-1.48-.14-6.43-5.42-16.7-13.72-14.7-28.04-.83-2.43-2.54-5.03-2.6-7.72-5.63-8.44-10.02-12.67-13.74-5.05 4.19-5.66 8.68-10.22 13.64-5.48 2.14-10.28 7.75-18.75 3.7-.75.01-1.72-.11-2.37-.75-.41-7.67 1.62-21.7 20.04-16.06 11.17 0 17.2 6.12 17.87 6.92.06.05.13.1.27.11C25.81 8.76-28.17-31.22-43.72-53.73.55v-.13.91-1.83 1.33-1.65 1.37s14.88 1.81 43.78 27.05c-1.16-.75-2.15-3.33-1.98-4.97.34-3.71 7.63-6.78 14.53-8.81z" fill="#242424"/><g fill="#ed6c30"><path d="M52.55 61.6c0 4.29 3.24 7.96 7.03 9.76 3.84 0 8.24-3.95 7.32-6.53 0-7.37-3.77-7.47-7.27-6.97-.18-.06.25-.1.27-.15 2.6-1.25 4.75-4.88 5.62-6.56 2.45-1.42-.6-3.32-1.63-4.92z"/><path d="M63.64 78.75c-1.7.5-4.25-.78-4.58-2.3.09-.53.29-.96 4.11-3.62 4.82-7.08.42-1.05.79-1.04 1.11-.48 1.51-.44 3.04.75 4.12 1.97 1.48 7.64-.17 12.04-1.62 3.82-2.98 7.71-6.88 12.88-7.48 5.33-2.54 7.44-9.15 5.48-15.55l-.12.3c-.23-.08-.41-.18-.59-.24-.13-.03-.43-.06-.6-.13-.12.02-.24.05-.37.16-.42.39-.038.58-.42.66-.31.52-.78.31-1.06.12-1.11.41-3.02.38-6.62.19-1.1-.04-2.25-.33-3.28-.63-.27-.44-.55-.85-.81-1.07-.23-.51-.44-1.09-.85-1.42-.06-.89-.13-1.53-.37-2.23-.33-.73-.5-1.64-.4-2.64 0 .98.43 1.76.73 2.53 1.05.63 2.45-.38 2.94-1.66.38-.31.64-.48 1.1-.07.22.22.54.49.93.74.41 1.09.91 3.14 1.33 4.18-.42.54-1.23 1.11-1.78 1.01-1.52-.41-2.85-1.11-4.19-2.36a2.61 2.62 0 0 0-.6-.67c-.39-.99-.98-1.77-.89-2.15l17.27-6.8" fiil="#464e40"/><path d="M63.94 11.6c-14.94 0-22.38-6.4-21.17-20.34-.05-1.54 1.81-1.57 2.75-1.31 3.86 0 0 1.65 3.31.15 4.63-.52.82-2.42 3.66-2.19 3.32 3.24 11.81 13.91 19.75 21.71.89 17.94-5.46 21.7-41.2 21.61z" fill="#ffc18b"/><path d="M64 103.36c-12.95 0-30.26-1.04-35.94-1.97a3.72 3.72 0 0 0 3.23.5c.06.12 2.69 4.3 9.24 4.71 9.31 0 16.43-6.89 17.84-10.52-3.51-11.14-10.2-11.51-21.58 0-37.56 29.11-36.69 21.27h-.01h.01z" fill="#2f2f2f"/></g><path d="M106.88 8.64c-1.84-1.82-3.89-2.98-5.04-4.33-1.91-8.63 1.74-13.29 7.72-16.17 6.5-.61 11.27 1.25 22.42 8.84 30.02 10.25 0 21.31-2.05 35.52-2.95a3.36 3.36 0 0 1 .72 3.78 2.999 2.999 0 0 1 1.99-3.73 3.088 3.088 0 0 0-.12 4.17 3.95 7.837 0 0 1-2.49 1.89z" fill="#e6e6e6"/><path d="M17.88 47.46c.68 0 .9.07 1.91.55 4.28.88 6.88 1.85 6.89 0 6.64s-8.1 9.09-62.49 9.92-1.13.12-3.04.42-6.27 3.17-2.14 6.55-4.54 14.27-3.31 5.5 2.51 9.58 3.81 16.16 3.28 7.54 0 13.63-1.42 23.46-2.89-1.56-1.33-3.17-2.59-4.94-3.67-.64-1.27-.63-3.04.18-3.39.7-.85 1.45-3.29 3.6-3.35 2.33 1.11 3.25 2.28 3.62 2 1 3.69 2 16.7-1.42 31.28-8.08.9-.67 1.78-2.13 2.27-3.08z"/></g></svg>
