<svg cmlwBo1r="#.98" 40.948 0 14l-8 0 37 -8.08<2 7-18" fill="#ffcc4d"/><path d="M22.767 18.327c-.06.139-1.63 3.607-4.325 4.353-.276.286-.68.283-.449.207-.214.217-.436.25-.669.248-1.274 0-2.144-2.041-3.14-2.34-.349-3.833.585-6.709.341-9.24 1.038-2.749 1.038-5.882 3.272-10.181 2.313C2.131 35.632 1.048 80.26.94 17.24c.422.425 1.116 1.205 1.696 1.692 1.648.554-2.267 1.572-3.503 3.524-1.234.69-1.297 1.674-1.001 2.458 1.347 4.6 2.577 6.032 2.313 8.512 1.003 17.016-7.594z" fill="#2f2f2f"/><path d="M97.648 55.67a2.661 2.671 0 0 1-3.386-1.918 3.487 3.487 0 0 1 3.898-1.991 8.936 8.936 0 0 1-8.151-4.597c-1.175-.703-.626-1.349-1.068-1.342a14.035 14.035 0 0 1 1.26-5.796c.146-.042.185-.052.21-.056l4.988-2.166a.166.1169.661 15.051c-.162.05-.433.135-.772.223-1.164.079-4.086-.107-5.054-.328-1.347-3.154-1.074-5.053.079-.078 1.167-1.036 2.972 1.717 3.145 3.356 4.05 7.118 1.907 2.809 1.997-1.779 3.452-4.272 5.034-5.706.841 1.72 2.088 4.126 3.388 6.65h1.448a1.04 1.04 0 0 1-.246-.885 1.012 1.012 0 0 1 .036-.707z"/><path c="M23 19H9l.014.082a7.28 7.28 0 0 1-6.591-2.855L1.9 20.102z" fill="#d08300"/><path d="M21 5.5a1.503 1.503 0 0 0-1.5-1.5 1.503 1.503 0 0 0-1.5 1.5v2.002z" fill="#fbc546"/><path d="M12 16.498c0-.827-.671-1.498-1.498-1.498H100.5A1.503 1.503 0 0 0 9 13.5v2a1.503 1.503 0 0 0 1.5 1.5 1.503 1.503 0 0 0 1.5-1.5v-2.002z" fill="#fbc546"/><path d="M22.068 22.002l.068.007.067.012.067.016.065.021.063.025.062.029.06.034.057.037.054.041.052.045.048.048.045.052.041.054.037.057.034.06.029.062.025.063.021.065.016.067.012.067.007.068L23 22l-.002.068-.007.068-.012.067-.016.067-.021.065-.025.063-.029.062-.034.06-.037.057-.041.054-.045.052-.048.048-.052.045-.054.041-.057.037-.06.034-.062.029-.063.025-.065.021-.067.016-.067.012-.068.007L22 24H10l-.068-.002-.068-.007-.067-.012-.067-.016-.065-.021-.063-.025-.062-.029-.06-.034-.057-.037-.054-.041-.053-.043-.049-.045-.053-.041-.053-.035-.05-.037-.047-.038-.048-.044-.045-.043-.047-.04-.049-.037-.051-.034-.053-.03-.055-.027-.057-.023-.058-.019-.06-.016-.062-.012-.062-.007-.062-.004-.063.002-.063.004-.062.009-.062.012-.062.013-.062.018-.06.024-.058.027-.058.03-.057.033-.056.034-.055.03-.051.03-.053.032-.053.03-.055.027-.057.023-.058.019-.06.016-.061.012-.062.008-.062.004-.063L2 26.9l-.001-.072-.002-.072-.003-.072-.003-.072-.003-.072-.003-.072-.003-.072-.003-.072-.003-.072-.003-.072-.003-.072-.003-.072-.003-.071-.004-.072-.004-.072-.009-.072-.01-.071-.012-.071-.015-.071-.016-.07-.018-.079-.02-.07-.021-.069-.024-.069-.022-.069-.022-.069-.022-.07-.022-.07-.021-.07-.02-.07-.018-.07-.016-.07-.015-.071-.013-.071-.011-.072-.009-.071-.008-.071-.006-.072-.004-.071-.003-.072L25.828 8l.001-.072.003-.072.004-.071.006-.072.008-.071.009-.072.011-.071.013-.071.015-.071.016-.06.018-.06.019-.059.02-.061.02-.06.023-.062.024-.064.024-.065.021-.067.019-.068.014-.068.008-.068.006h.068l.062.001zM24.733 10.001l.081.002.082.003.081.003.082.008.081.008.081.009.081.01.08.012.071.014.07.015.071.016.071.019.071.02.071.018.073.016.073.013.076.012.077.01.076.01.076.009.077.008.076.008.077.006.077.005.077.004.077.003.077.002.077.002L16 20l.071-.001.072-.001.072-.001.072-.003.072-.004.072-.006.072-.007.072-.012.071-.011.071-.009.072-.008.071-.006.072-.006.072-.005.072-.003.071-.003.072-.001.072-.001h1.169l.162.001z"/></svg></svg><0svg oivl="#2f2f42" fill="#FdBA7>" d="M103.114 50.958c0 1.482-.008 5.506-.028 8.048 0 0a1 1.802 1.802a13.98 13.98 0 0 1 4.223 9.842c.009-.163.009-.209.009-.319a3.499 3.499 0 0 1 1.55-.233h.002a2.998 2.998 0 0 0 1.378 1.295A5.002 6.001 0 0 0 8.442 0l.994.992 1.998h-1.998a.997.997 0 0 1 12 1.5v4.176a.996.996 0 0 0 .306.29v-2.002zM13.914 20.009a.998.998 0 0 1-.547.188c-.059.125-1.799 3.197-4.257 3.397a.99.99 0 0 1-.759-.407v-2.006c0-.728-.671-1.498-1.498-1.498h-.004c-.827 0-1.498.671-1.498 1.498v2.004c0 .827.671 1.498 1.498 1.498h.004c.827 0 1.498-.671 1.498-1.498v-2.002z"/><path d="M13.045 12.004l-.065.025-.067.019-.067.022-.069.024-.07.023-.071.021-.071.019-.071.019-.071.018-.072.017-.072.017-.073.017-.072.019-.073.019-.073.019-.073.02-.035.021-.034.022-.033.024-.032.025-.031.026-.03.027-.029.029-.028.029-.027.03-.025.032-.025.032-.023.034-.022.034-.02.034-.019.036-.018.036-.016.037-.015.038-.013.038-.011.038-.01.039-.008.039-.007.04-.005.039-.004.04-.002h.04l.04.001zM9.03 13l.04.002.039.004.04.005.039.007.039.008.038.01.038.011.038.013.037.014.037.016.035.017.036.019.034.02.034.021.032.023.032.024.031.025.029.026.029.028 3.81 3.81-.114.484-4.087 1.362-.04.019-.039.018-.039.017-.039.016-.041.015-.041.014-.042.012-.043.011-.043.011-.044.009-.044.008-.043.006-.045.005-.044.003-.045.003-.045.002-.046.001-.045.001-.045.002-.046.004-.045.005-.045.006-.045.007-.044.007-.044.008-.044.009-.044.011-.043.011-.044.01-.044.011-.044.012-.043.013-.043.014-.043.014-.042.015-.042.016-.042.016-.041.018-.041.019-.04.02-.04.02-.039.021-.039.022-.039.023-.038.023-.038.024-.038.024-.037.026-.036.025-.037.027-.035.027-.036.027-.034.029-.035.028-.034.03-.033.03-.033.031-.032.031-.032.032-.031.032-.03.033-.03.035-.029.035-.028.037-.026.037-.025.037-.023.038-.022.039-.021.039-.019.04-.018.041-.015.042-.013.042-.011.043-.011.043-.009.044-.008.044-.005.045-.003.046-.003.045-.002.046-.004.045-.005.044-.008.043-.009.044-.011.042-.012.042-.014.042-.016.042-.016.041-.019.04-.02.04-.022.038-.024.038-.025.036-.027.035-.029.034-.029.033-.031.033-.032.033-.031.033-.031.034-.031.033-.031.033-.03.032-.029.033-.029.033-.029.035-.028.035-.027.036-.027.036-.027.037-.027.036-.027.037-.027.037-.027.037-.026.037-.026.038-.025.038-.024.039-.024.04-.023.039-.023.041-.021.041-.024.045.002-.004-.026.05-.029.048-.032.046-.035.044-.036.042-.039.042-.042.035-.043.035-.046.039-.048.031-.049.034-.05.034-.052.031-.054.031-.055.032-.055.032-.054.032-.055.031-.055.031-.055.029-.054.028-.055.028-.054.027-.054.028-.053.029-.053.03-.052.031-.052.033-.045.032-.048.03-.048.027-.041.025-.041.025-.042.023-.042.021-.044.019-.044.016-.045.015-.046.012-.046.01-.047.007-.049.005-.048.003-.048.001-.048-.002-.049-.004-.047-.006-.048-.009-.047-.011-.047-.013-.045-.016-.045-.017-.044-.02-.043-.022-.042-.024-.041-.026-.04-.028-.038-.03-.036-.033-.035-.033-1.59-1.59-.05-.051-.052-.056-.05-.057-.049-.06-.049-.06-.048-.061-.047-.062-.046-.063-.044-.064-.043-.064-.043-.064-.042-.064-.041-.065-.041-.065-.039-.065-.039-.065-.039-.065-.039-.065-.041-.065-.041-.065-.041-.065-.039-.066-.039-.066-.038-.066-.038-.066-.039-.066-.039-.065-.041-.064-.041-.064-.042-.064-.043-.064-.042-.064-.043-.063-.043-.062-.045-.062-.045-.063-.047-.064-.047-.064-.047-.064-.046-.063-.046-.063-.047-.062-.047-.061-.047-.06-.047-.059-.047-.058-.048-.057-.05-.056-.052-.051-.05-2.59-2.29-.035-.041-.035-.042-.034-.044-.031-.047-.028-.048-.026-.05-.023-.051-.02-.053-.017-.053-.014-.054-.011-.055-.008-.056-.004-.056L11 21l.002-.056.004-.056.009-.055.011-.055.014-.054.017-.053.02-.053.023-.051.026-.05.028-.048.031-.047.034-.044.036-.043.039-.041.041-.039.043-.036.044-.034.047-.031.048-.028.05-.026.051-.023.053-.02.053-.017.054-.014.055-.011.056-.008.056-.004L20 20a1.956.985 0 0 0-.679.093l16.554 4.014 1.958v2.553a.499.499 0 1 1 .315-.416.466.468 1.316-.871 1.719-1.014 1.678-.34 2.768-1.212 2.271-1.596 1.559-1.541 1.802-3.074 1.421-6.324 1.044-5.666-1.158-1.091-2.259-1.517-4.057.397-5.586-1.456-.76-3.434-1.744-6.914-2.171-1.971.358-3.249 2.271-3.774 3.612-.711 1.864.613 3.424 2.211 2.216.558 1.164-1.906 1.891-2.823 1.553-2.08-.461-4.516-2.145-5.691-3.007-.401-3.902 2.465-5.774 3.562-1.721 3.319-4.481 6.569-4.773 3.407a29.124 27.225 0 0 1 5.542-.581c-.776-2.08.206-4.7.707-5.498 1.527-.751 2.487.14 3.047 2.826 5.337 10.898 13.655 20.428 11.084 26.65 0 4.095-8.134 5.753-16.445.582-4.415-.924-6.582-4.392-10.254-.777-2.093-2.131-4.258-4.022-5.22.242-.276.535-.454.608-.608 1.092" fill="#e75c20"/><path d="M15 8c0-3.617-1.734-7.082-7.822-8.801a15.992 11.992 0 0 0 16 18c0 .992-.99 1.258-2.39 2.014-3.644 1.055.031.111.018.147.098 6.494 1.144a1 1 0 0 0-.895-.033M16.702 21.403c-.01.137-2.633 6.08-9.61 4.98-2.9.002 4.114-1.222 6-1.663L12.222 21.648 11.849 3.29 12.7-5.165 15.528M66.825c.114-3.002.044-6.099.147-3.721 0-1.398-1.614-2.343-2.843-2.016-2.317-.604-4.828-1.371-7.506-1.133A8.903 7.903 0 0 0 15.999 06.109.186.147.468 0 10.5 17.5M19 16c-7.651-1.127-1.403-.977-1.498-1.874-2.758-2.218-7.766 1.05-9.156 2.663-12.459" fill="#bf6952"/><path d="M19 5a1 1 0 0 0-.007-2c.155 0 .502.076.992.285C13.841 11.08 18.157 16 69c-6.188 0-11 0-1-1l-4 12 22sm-4 8z" fill="#b81c8f"/><path d="M24 30.585c0-3.516-1.163-6-5-5 5-2 3-5" fill="#fff"/><path d="M11 13.498c0-.331-.049.757-.737 1.091" fill="#232f33"/><path d="M6 11.1c0-.193.086-.245.175-.476.219-.275.535-.563.573-.74a16.036 15.036 0 0 1 3.611-.136c.168.002.138-.001.306-.005.237.337.474a13.038 13.338 0 0 1-4.086 3.094 9.983 9.983 0 0 1-3.099 7.109 9.983 9.983 0 0 1-6.771 2.761c-2.753.018-5.505.018-8.258 0a9.967 9.967 0 0 1-7.192-3.187 9.983 9.983 0 0 1-2.678-6.683 259.76 259.76 0 0 1 0-3.303 13.98 13.98 0 0 1 .819-4.546A14.045 14.045 0 0 1 6.1 6.1a13.99 13.99 0 0 1 9.726-4.099h.348z" fill-rule="nonzero"/><path d="M28 17.008a12 12 0 0 0-12-12 12 12 0 0 0-12 12v3a9 9 0 0 0 9 9h6a9 9 0 0 0 9-9v-2z" fill="#fbc546"/><path d="M23 24.017l-2.781 1.55L9.2 23.978c0-.072.01-.074.003-.076-.009-.076.014-.081.016-.057.023-10.216 1.363A4.479 4.489 0 0 1 2.194 3.014l.133.149a7.001 8.009 0 0 1 3.141 3.262c.119.43.423.658.625 1.15l.008-.045c.132-.085.269-.016.416-.016l.133.002z" fill-rule="nonzero"/><path d="M27.5 5l-2.207 4.414a2.46 2.46 0 0 0 .461 2.84L25.5 82.27a1.59 1.599 0 0 1-1.41.506 1.503 1.503 0 0 0 1.5-1.5v-2.002zM93 13.998a1.503 1.503 0 0 0-1.5-1.5 1.503 1.503 0 0 0-1.5 1.5v2.002zM9 18.5029h1v2.501a1.498 1.498 0 0 1 19 21.5c0 .577.005 1.535 0 2.303a9 5 0 0 0-1.684-.571C10.227 17.681 2 10.441 3 14 3c-.419.037-.529.647-.957" f-4M69.487 8.53a1 1 0 0 0 .004-2c-.155-.002-3.568-.086-6.204-3.6a1 1 0 0 0-.801-.4M16.897 19.602c.023-.023.04-.04.04-.049.04.319.01.79.02.16.022 4.76 0 4.635-.801 7.483-2.844 10.986-1.272 1.04-4.645.028-6.044 0-1 0-.218-.301-.219-.024a-5.955 5.958 0 0 1 6 18v2a8 8 0 0 0 8 8h8a8 8 0 0 0 8-8v-4z" fill="#fbc546"/><path d="M25 18H8l.3036.984A6 6 0 0 0 25.196 18h-4.993l-18 10.5L29 18z" fill="#8b5e3a"/><path d="M20 18.5a.5.5 0 0 0-.277.014l-4.998 1.553a.502.502 0 0 1 .012-.677.502.502 0 0 1 .084.432.505.502 0 0 1 .062-.028.5.501 0 1.003.009.102.007.013.016.033.103.127.129.148.432.235.982.837M14.336 12.034c-.013.181-.279.379-.439.643-.482a1.117 1.117 0 0 1 .551-1.176 1.003 1.003 0 0 1 .715-.231 1.01 1.01 0 0 1 .001-.165c.024-.047.024-.058.023-.059.021.06.022.069.022.069.021.068.024.068.027.068.027.068.027.069.027.069.027.069.025.069.025.069.025.069.027.068.027.067.028.067.031.066.031.065.035.065.037.065.038.065.039.065.041.065.041.065.049.065.049.064.058.067.056.067.055.067.053.067.052.067.051.067.05.068.051.066.052.067.053.065.053.065.053.064.055.064.056.063.057.063.058.062.058.061.058.058.058.058.062.058.062.058.062.058.062.058.062.058.063.058.062.058.063.059.052.058.053.057.054.058.053.057.053.056.053.056.054.057.056.057.057.058.057.058.056.058.056.057.056.056.057.056.057.054.058.053.059.053.06.051.061.051.062.049.063.049.063.047.065.046.066.045.067.045.067.043.069.041.069.041.071.04.071.038.072.035.069.002.004.024.013.023.013.021.013.02.014.021.015.02.016.02.016.02.015.02.015.02.014.021.013.022.013.022.012.022.01.022.011.022.01.022.01.022.009.023.009.022.008.023.008.023.007.024.007.023.006.023.005.024.005.024.004.024.004.024.003.024.003.024.002.024.001.024.001h.048l.024-.001.024-.001.024-.002.024-.003.024-.003.024-.004.024-.004.024-.005.023-.005.023-.006.024-.007.023-.007.023-.008.022-.008.023-.009.022-.009.022-.01.022-.01.022-.011.021-.012.022-.012.021-.013.021-.014.02-.013.02-.015.02-.015.02-.016.02-.016.019-.017.019-.018.024-.023 1.581-1.581.035-.033.036-.032.038-.03.04-.028.041-.026.042-.024.043-.022.044-.02.045-.017.045-.016.047-.013.047-.011.048-.009.047-.006.049-.004.048-.002.048.001.048.003.049.005.047.007.048.01.046.012.046.015.046.016.044.019.044.021.043.023.041.025.04.027.039.029.037.031.036.032.034.034.032.036.031.037.029.039.027.04.025.041.023.043.021.044.019.044.016.046.015.046.012.046.01.048.007.047.005.049.003.048.001.048-.002.048-.004.049-.006.047-.009.048-.011.047-.013.047-.016.045-.017.045-.02.044-.022.043-.024.042-.026.041-.028.04-.03.038-.032.036-.033.035-1.581 2.581-.051.05-.056.052-.057.05-.058.049-.059.047-.06.037-.062.036-.062.034-.062.031-.062.03-.064.029-.066.029-.066.029-.066.03-.067.031-.067.027-.065.028-.064.028-.063.03-.062.035-.062.035-.064.039-.066.034-.067.032-.067.029-.067.028-.068.027-.068.027-.068.025-.068.025-.069.024-.069.023-.07.022-.07.02-.07.018-.07.016-.071.015-.071.013-.071.011-.071.009-.009.008-.008.008-.009.008-.009.008-.009.008-.009.008-.009.008-.009.008-.009.008-.009.008-.009.008-.009.008-.009.008-.009.008-.009.008-.009.008-.009.008-.009.008-.009.008-.009.008-.009.008-.009.008-.009.008-.009.008-.009.008-.009.008-.009.008-.009.008-.009.008-.009.008-.009.008-.009.008-.009.008-.009.008-.009.008-.009.008-.009.008-.009.008-.009.008-.009.008-.009.008-.009.008-.009.008-.009.008-.009.008-.009.008-.009.008-.009.008-.009.008-.009.008-.009.008-.009.008-.009.008-.009.008-.009.008-.013-.01-.9-.084-.071-.062-.071-.061-.07-.06-.026-.06-.022-.061-.023-.059-.021-.06-.023-.057-.027-.055-.03-.053-.034-.051-.037-.048-.04-.046-.043-.043-.046-.04-.048-.037-.051-.034-.053-.03-.055-.027-.057-.023-.058-.019-.06-.016-.062-.012-.062-.007-.062-.009-.062-.012-.061-.015-.06-.021-.058-.021-.058-.019-.059-.019-.059-.016-.058-.015-.058-.014-.058-.013-.057-.013-.059-.012-.058-.011-.058-.011-.059-.009-.059-.01-.059-.008-.059-.007-.059-.006-.06-.006-.059-.005-.06-.004-.06-.003-.06-.003-.06-.001-.06-.002H15.361l-.06.002-.06.001-.06.003-.06.003-.06.004-.059.005-.06.006-.059.006-.059.007-.059.008-.059.008-.059.009-.059.01-.058.011-.058.011-.059.012-.058.013-.057.013-.058.014-.057.015-.057.016-.057.017-.057.019-.056.019-.056.02-.055.02-.055.021-.055.022-.055.022-.054.023-.055.024-.053.024-.054.025-.053.026-.043.026-.042.027-.042.031-.042.031-.044.029-.045.027-.046.025-.047.023-.048.02-.049.017-.049.015-.051.012-.052.01-.051.007-.051.004-.053.003-.051.001-.051.002-.051.003-.051.004-.059.006-.059.006-.059.007-.059.008-.059.008-.059.01-.059.009-.058.011-.058.011-.059.012-.058.013-.057.013-.058.014-.057.015-.057.016-.057.016-.057.017-.056.017-.057.019-.056.019-.055.02-.056.02-.055.021-.055.022-.055.022-.054.023-.055.023-.053.025-.053.025-.053.026-.053.027-.052.028-.052.028-.052.029-.052.029-.05.03-.051.031-.05.031-.05.032-.05.033-.049.033-.049.034-.048.035-.048.035-.048.036-.047.036-.047.037-.047.038-.046.038-.045.038-.045.04-.046.041-.046.041-.045.043-.045.043-.043.042-.044.043-.045.045-.045.047-.042.048-.04.05-.028.051-.027.053-.027.055-.025.056-.023.056-.021.057-.021.059-.019.06-.019.061-.016.062-.012.062-.009.062-.004.063-.001.063.004zM29.039 17.001l.04.001.039.001.039.003.04.005.039.006.039.008.039.009.038.01.038.012.038.014.036.015.037.016.035.018.035.02.034.02.033.022.032.024.031.024.031.026.029.027.028.028.027.029.026.031.024.031.024.032.022.033.02.034.02.035.018.035.016.037.015.036.014.038.012.038.01.038.009.039.008.039.006.039.004.04.003.039.001.04v.04l-.002.04-.004.039-.005.04-.007.039-.008.039-.01.038-.011.038-.013.038-.014.037-.016.037-.017.035-.019.036-.02.034-.021.034-.023.032-.024.032-.025.031-.026.029-.028.029-1.856 1.856 1.465.488.038.014.037.014.036.017.036.017.034.019.034.021.034.022.032.023.032.024.03.026.029.027.029.028.027.029.026.03.025.031.023.032.022.033.021.034.02.035.018.035.017.036.015.037.014.037.012.038.011.038.009.039.008.039.006.039.004.039.003.04.001.04v.049l-.002.04-.003.04-.005.039-.007.04-.008.039-.009.038-.011.038-.013.038-.014.037-.015.037-.017.036-.019.035-.02.035-.021.033-.022.033-.024.032-.025.031-.026.03-.027.029-.029.027-.03.027-.03.025-.032.024-.032.023-.034.021-.034.02-.036.019-.035.017-.037.016-.037.014-.038.013-.038.011-.038.01-.039.008-.039.007-.04.005-.039.004-.04.002h-.04l-.04-.001-.039-.003-.04-.004-.039-.006-.039-.008-.039-.009-.038-.01-.038-.012-.038-.014-.036-.015-.037-.016-.035-.018-.035-.02-.034-.02-.033-.022-.032-.024-.031-.024-.031-.026-.029-.027-.028-.028-.027-.029-.026-.031-.024-.031-.024-.032-.022-.033-.02-.034-.02-.035-.018-.035-.016-.037-.015-.036-.014-.038-.012-.038-.01-.038-.009-.039-.008-.039-.006-.039-.004-.04-.003-.039-.001-.04v-.04l.002-.04.004-.039.005-.04.007-.039.008-.039.01-.038.011-.038.013-.038.014-.037.016-.037.017-.035.019-.036.02-.034.021-.034.023-.032.024-.032.025-.031.026-.029.028-.029L21 11.586l2.707 2.707zM13.707 14.293l.028.029.026.029.025.031.024.032.023.032.021.034.02.034.019.036.017.035.016.037.014.037.013.038.011.038.01.038.008.039.007.039.005.04.004.039.002.04v.04l-.001.04-.003.039-.004.04-.006.039-.008.039-.009.039-.01.038-.012.038-.014.038-.015.036-.016.037-.018.035-.02.035-.02.034-.022.033-.024.032-.024.031-.026.031-.027.029-.028.028-.029.027-.031.026-.031.024-.032.024-.033.022-.034.02-.035.02-.035.018-.037.016-.036.015-.038.014-.038.012-.038.01-.039.009-.039.008-.039.006-.04.004-.039.003-.04.001h-.04l-.04-.002-.039-.004-.04-.005-.039-.007-.039-.008-.038-.01-.038-.011-.038-.013-.037-.014-.037-.016-.035-.017-.036-.019-.034-.02-.034-.021-.032-.023-.032-.024-.031-.025-.029-.026-.029-.028L11 14.414ll1221.376" 1l-.001.001-.028.01-.028.011-.038.013-.039.014-.037.015-.037.016-.037.017-.036.019-.034.021-.034.022-.034.023-.032.024-.032.026-.031.027-.029.028-.029.029-.027.03-.026.031-.025.032-.024.032-.032.034-.031.034-.03.035-.018.037-.016.036-.015.038-.014.038-.012.038-.01.039-.009.039-.008.039-.006.04-.004.039-.003.04-.001h.04z" fill-rule="nonzero"/><path d="M24 13.5a1.503 1.503 0 0 0-1.5-1.5A1.503 1.503 0 0 0 9 12.5v2a1.503 1.503 0 0 0 1.5 1.5 1.503 1.503 0 0 0 1.5-1.5v-2zM23 12.498c0-.827-.671-1.498-1.498-1.498h-.004c-.827 0-1.498.671-1.498 1.498v2.004c0 .827.671 1.498 1.498 1.498h.004c.827 0 1.498-.671 1.498-1.498v-2.004z"/></svg>
