<svg xmlns="http://www.w3.org/2000/svg" viewBox="0 0 128 128"><ellipse fill="#2F2F2F" d="M21.87 67.72c.71 0 1.62-.24 2.01-.67.11-.25.23-.39.38-.5.22-.5.22-.96.45-1.26.49H-.29l.13-.09c-.03-.08-.02-.16-.08-.25-.17-1.23-.57-2.46-1.26-3.46.06l-.1.01c-.82-.01-1.29-.51-1.94-1.38-.18-.31-.37-.75-.3-1.21-.18-.57-.82-1.44-1.04-2.27.31-.72 1.14-1 1.64-1.26.28-.77.57-1.21.83-1.72 1.01-1.52 3.78-2.04 5.79-3.32 3.14-2.04 6.03-3.9 9.2-5.32.88 0 1.27.08 1.83.23.72 1.25 1.21 2.16 1.71 2.96 1.84 4.74.55 9.92 1.98 1.67.11 3.07-.54 5.23-1.97 1.87-2.42 2.26-3.6-3.4z"/></svg></svg>
