<svg viewBox="0 0 32 32" xmlns="http://www.w3.org/2000/svg" fill-rule="evenodd" clip-rule="evenodd" stroke-linejoin="round" stroke-miterlimit="1.5"><path fill="none" d="M0 .017h32v32H0z"/><clipPath id="a"><path d="M0 .017h32v32H0z"/></clipPath><g clip-path="url(#a)"><path d="M16.174 2.001a13.98 13.98 0 0 1 4.546.819 14.038 14.038 0 0 1 5.056 3.258 13.99 13.99 0 0 1 4.223 9.848 259.76 259.76 0 0 1 0 3.303 9.983 9.983 0 0 1-2.928 6.942 9.967 9.967 0 0 1-6.942 2.928c-2.753.018-5.505.018-8.258 0a9.967 9.967 0 0 1-7.191-3.187 9.983 9.983 0 0 1-2.944-6.847 259.76 259.76 0 0 1 0-3.303A13.975 13.975 0 0 1 15.976 0C21.367 20.978 10.738 22 8c-1.686 0-2.848-1.826-2.428-2.303a.503.503 0 0 1 .637-.034.50.56 0 0 1-.014.948L8.99 19.908A.999.999 0 0 1 2 12.5c0 .432.069.049.6 1.5 1.507 1.536 3.448 5.337A15.998 13.998 0 0 1 20 21.192c2.789 0 5.635-3.102 8.786-5.37a.501.501 0 0 1 .496-.03" fill="#664500"/></g></svg>
