<svg xmlns="http://www.w3.org/2000/svg" viewBox="0 0 128 128"><path d="M63.89 9.64C1.58 9.64.1 79.5.1 93.33c0 13.83 28.56 25.03 63.79 25.03 35.24 0 63.79-11.21 63.79-25.03 0-13.83-1.47-83.69-63.79-83.69z" fill="#fcc21b"/><path d="M63.99 64.85c-14.13 0-22.5-3.64-26.25-14.19 0-20.92 12.72-24.7 23.04-8.36 1.34 2.65 2.62 4.75 2.02 8.11-.14 5.61-4.3 9.8-9.39 9.42z"/><path fill="#FCC21B" d="M121.12 83.64c-17.98 3.64-32.05-1.48-35.4-10.42-5.52-8.97 1.34-20.35 12.73-22.81 9.77-3.58 20.39 1.43 23.71 10.83 3.45 9.4-1.46 19.99-10.96 23.42z"/><path fill="#FAB220" d="M30.58 81.21c-10.67 4.71-15.69-1.33-21.73-10.68-3.45-9.14 1.94-19.81 15.09-9.78 18.34-5.57 17.65 1.94 25.74 11.4 3.73 10.42-1.56 21.48-11.59 29.86z"/><path fill="#FBB71E" d="M31.23 83c-9.3 3.34-19.56-1.38-22.55-10.57-3.36-9.47 1.43-19.34 10.79-22.48 9.17-3.31 19.68 1.32 22.75 10.02 3.39 8.98-1.4 18.91-10.47 22.46z"/><path fill="#FCC01C" d="M83.18 91.34c-3.74 2.31-8.27 10.08-7.28 12.67-.73 2.33-1.84 4.58-3.61 7.69-2.65 2.84-4.9 3.75-7.21 4.37-2.55.34-6.16-1.41-7.07-1.38-.37-.66-.36-1.37-.32-2.01 0-.67.69-1.26 1.33-1.78 1.83-.62 0-.93.01-1.09.01z" fill="#8b5e3c"/><g><path fill="#2F2F2F" d="M28.26 91.72c-1.76-.36-3.95-1.13-3.98-2.68a3.34 3.34 0 0 1-2.59-1.5A2.1 2.1 0 0 1 0 0 20.58 13.01l13.49 8.2A3.94 2.94 0 0 1 21.85 14.73c.11 1.25 1.07 2.39 1.43 3.75.06.41-.01.8-.03.4-.04 1.38-.21 3.66-.43 4.98 0 13.06 1.41 18.65 6.59 2.98 1.94 3.49 5.3 2.33 7.34.17 1.42.78 3.06-.01 4.18-.62 9.44-5.24 14.16-13.84 9.82z"/><path fill="#F79329" d="M125.08 86.16l-8.26-1.88c-1.16-2.57-1.67-8.08-2.48-9.71 4.38-4.77 12.48-4.09 15.07 4.36 4.28 7.67 5.57 10.95 3.72 1.98-.61 3.2-2.85 2.34-5.36.41-2.86-.52-5.2-1.34-6.53-.73-1.67-1.51-2.25-2.59-2.69-.27-.04-.57-.06-.84-.11-.04-.07-.01-.71.01-1.3.04-2.4.14-3.76.44-7.25 1.75-1.54 5.21-1.73 7-3.52 5.33-.83.81-1.61-1.54-1.74-2.33-.16-.87-.94-1.52-1.33-1.64-.88 0-1.16.04-2.24.17-3.19.15-.59.4-1.05.43-1.68.24-.33.69-.76 1.01-1.27.54-.25 1.07-.41 1.46-.76.94-.32 1.75-.51 2.4-.81.54-1.16.86-1.64.74z" fill="#f79329"/></g></svg></svg>
