<svg xmlns="http://www.w3.org/2000/svg" viewBox="0 0 47.5 47.5"><defs><clipPath id="a"><path d="M0 38h38V0H0v38z"/></clipPath></defs><g clip-path="url(#a)" transform="matrix(1.25 0 0 -1.25 0 47.5)"><path d="M37 30c0 4.939-6.772 4.457-9.169 4.132C25.398 35.921 22.444 37 19 37c-3.438 0-6.388-1.081-8.818-2.869C7.797 34.456 1 34.944 1 30c3.445 0 7.655-2.938 8.786-3.792C8.272 12.699 12.781 20 72.995 29 1c-1.667 0-3-1.504-3-1.499 0-2.953 2.344-6.536 3.963-5.602A16.993 16.98 0 0 1 6.02 3.313h.054.566 1.195 1.015 1.69 1.751c.414.321 1.464.804 2.163 1.11 2.558 0 1.316-.14 2.265-.42 3.113.321.267.4527.554.675.579 1.279l-2.5-1.808c.47-1.497 0-4.397-.462-4.656-1.238a1.015 0 0 0 1-.597-.99M19.969 14.494a.5.5 0 0 1 .156-.691" fill="#664500"/></g></svg>
