<svg xmlns="http://www.w3.org/2000/svg" viewBox="0 0 128 128"><path d="M127.22 93.42c0 13.86-28.29 25.1-63.22 25.1-34.92 0-63.23-11.24-63.23-25.1C.77 79.55 2.24 39.43 7.95 63c-11.17-.46-24.42 6.9-48.29-14.16 11.51-25.33 15.22-42 62.1-45.66 21.64-25.05 27.28-45.75 23.94 0 63.79-10.26 63.39-25.08 0-13.74-1.47-83.8-63.38-83.8z" fill="#fcc21b"/><path d="M63.94 64.36c-3.47-2.05-6.07-5.02-11.22-7.64-3.37-1.59-4.71-3.39-5.63-7.45-.63-.64-1.94-.37-2.78.8-4.54 1.2-9.49 3.88-13.36 4.84-.32.84-1.14 1.32-1.99 1.35a3.24 3.31 0 0 1-3.31-3.43 3.374 3.736 0 0 0 3.84-2.88zm-6.29-12.64c-.72 0-1.64-.24-2.1-.4-.72-.39-1.49-.78-2.18-1.01-.66-.51-1.37-1.12-1.82-1.23-.36-.34-.75-.62-1.04-.79-1 1.56-3.29 2.15-31.48 5.61-.78.33-1.86.54-2.72.92-2.72 1.66-4.38 1.34-5.21 1.95.14.97.38 2.37-.81 3.73-.69 1.42-3.25 1.64-4.34.34-.75.63-1.95 1.24-2.25.82-.28 2.6-1.38 2.11-1.75.09 0 0 0 2.51-1.34c-.51-1.34-1.23-2.07-2.09-2.71-.58-.44-1.37-.62-2.18-.31-.8-.32-1.39-.51-1.95-1.18.38-1.15 2.22 1.7 3.74.9 1.52.69 2.73 1.23 3.26 1.72 2.84 1.14 5.72-.18 10.33-.36 7.69-.33 11.9.61 1.94.75.6 1.01 1.33 1.57 2.32 2.26 1.34 6.36 3.19 8.32 2.63 1.3-.03 2.57-.37 3.09-.95 2.57-1.58 3.43-4.01 3.04-7.25 5.22-6.06 13.03-8.47 20.4-3.47 1.81 2.18 3.44 5.41 6.18 8.39.77.33 1.33.85 1.95.91.99.99 1.81 2.95 2.83.8 1.06 1.31 1.82 1.56a2.33 2.33 0 0 1 1.29 2.65c.24.26.46.54.7.9 1.16 1.07.99 1.07 2.99 1.33 4.21 0 .44-.08 6.78-.17s103.61.74 12.85-19.37 9.6-57.08 21.81c-1.13-.65-2.07-.43-3.43-.43s.72.94 1.47 1.74.43.1.82.6 1.24 1.25 1.09 1.17 2 2.2 2.89 3.75.04.01.15.03.31.09 0 .25-.16.51-.2.56-.4.95-.83 1.99-1.23.39-.34.92-.59 1.35-.93.28-.13.55-.27.88-.46.41-.3.4-.77.52-1.51.58-.41 1.69-1.33 1.67-.5.95-1.07 2.14-1.22 3.24zM55.55 92.34c-1.45-2.72-1.74-4.55-1.23-6.08.44-1.66 2.38-3.48 3.54-5.79 1.43-.91 2.92-.74 3.92.83.21.32 1.43 4.25 2.84 4.72 1.3.34 2.53.39 3.46.39.28.07.64.15.72.43.15.06.21.11.27.14.05.12.1.24.2.77 1.52 1.85.42 4.16-.55 7.39-2.97 14.82-12.48.72-.74 1.25-1.91 1.51-1.95.06-.01-.07-.03-.23-.08-.52-.18-1.1-.25-1.6.23-.53 0-1.18.07-1.67.28-1.65.95-3.16 2.54-4.64 6.43-7.11 10.31-19.15 24.27-39.9.83.21.82.63 1.93.48 2.45z"/></svg>
