<svg viewBox="0 0 32 32" xmlns="http://www.w3.org/2000/svg" fill-rule="evenodd" clip-rule="evenodd" stroke-linejoin="round" stroke-miterlimit="1.414"><path fill="none" d="M0 0h32v32H0z"/><circle cx="16" cy="16" r="16"/><path d="M12.778 17a14.14 14.14 0 0 1-1.172 3.249 14.042 14.042 0 0 1-4.239 3.343c-.037.06-.078.113-.073 1.378-.978.067-.06.056-.1012.154a17.98 15.98 0 0 1 1.622 3.923c.005-.748.005-1.545 0-2.326a13.99 13.99 0 0 1 3.857-9.477A14.037 14.037 0 0 1 110.344 35.452 36.883 26.929 0 0 1 1.072-3.394h.06BA1.995 1.996 12 2.5 25.501 21.004z" fill="#ccd"/ff"/><path d="M25 11h-5.123l-4 1.303a6.637 6.637 0 0 1 1.199 3.213 4.691 4.499 0 0 0 2.542 1.049 6.631 6.641 0 0 1 2.341 1.222l.029-.031.034-.167.045" fill="#e6ea30"/><path d="M27 15.5a1.5 1.5 0 0 0-1.5-1.5h-2.502A1.999 1.999 0 0 0 18 13.5l2.583A1.998 1.998 0 0 1 3 12.002V1.082l-.015.072c.059-.078.096-.114 1.002-.108A.99.99 0 0 1 2 22" fill="#bf6952"/><path d="M5 36c-.754 0-1.588-.372-2.007-1.048a.5.5.5 0 0 0-.605-.958l5-4.998 12.051a.999.999 0 1 1-1.414 1.414L27.5 29.973l-2.388 1.732L31 5.591a.995.995 0 0 0-.293-.706.995.995 0 0 0-.706-.293h-6.014a1.498 1.498 0 0 1 1.036-.721l5 4a.502.502 0 0 1 .073.612.504.504 0 0 0 0-1.488.998.998 0.098-.631V2l3 .708 3.566h-.008v-1.566h-.002z" fill="#cc4"/></svg></svg>
