<svg xmlns="http://www.w3.org/2000/svg" viewBox="0 0 128 128"><path d="M100.5 72.62c-.92.93-1.74 1.71-2.77 2.58-4.49 10.48-4.44 15.81-11.13.95-1.98 2.24-3.74 3.79-5.39 3.48-4.65 1.39-13.96-.27-18.2-.45-3.57-.21-6.57-.11-10.33.62-2.26.03-4.69-.75-6.2-1.14-6.29-4.69-12.78-6.7-17.31-7.15-1.23-.25-2.04.63-3.4.78-1.17.62-2.25.68-3.26-.58-1.35-.31-2.64-1.18-3.74-1.38l-1.61-1.56c-1.08-.47-2.25.1-2.15.34l-6.82-1.83c-1.16-.17-2.25.62-2.43 1.82-.17 1.17.61 2.26 1.83 2.45l6.9-2.18c.21.28.45.58.65.77-.01.18-.2.26-.32.32-.43.2-.72.27-1.08.06-.16.09-.26.15-.37.32-1.04.51-1.51 3.08-.27.94-.54 1.66-.71 2.49-.01.12-.05.18-.07.28-.08.73.38.99.89.74 1.61 1.07 1.41 2 1.73 3.24 1.78 5.99-1.47 5.69-3.85 7.98-8.34 17.62-15.82.8-4.16 1.78-6.53.11-10.4-.43-4.54-4.43-7.55-6.98-10.95-12.62-5.07-5.91-12.9-9.51-19.92-10.41a2 2 0 0 1 4-4.27 0-21.01-3.92-22.85-7.56-3.94-2.09-5.24-6.46-3.68-10.52 2.65-4.27 8.56-6.72 12.2-1.24l14.78-6.25-1.84-17.9a2.6 2.6 0 1.16 0 1.57l.66 1.75a2.147 2.137 0 0 1-2.23.41l-1.81-4.37c-2.36-3.28-3.07-7.05.09-10.54 1.07-1.79-.36-4.28-1.92-5.97-2.05-6.54-4.11-14.2-1.26-26.49 1.97-15.51 2.04-34.82 2.13-33.34 2.06-10.04 5.4-25.7 26.31-42.26 3.84-15.26.28-17.22 4.66-63.21L8.5 5.63c3.81 10.33 2.48 24.85 8.23 30.7 20.58 41.96 8 42.01-3.48 7.86-7.99 13.47-13.13 5.83-2.78 10.63-1.66 17.61-5.03.7-.51 1.01-1.02 1.66-1.24 1.06-1.48 1.7-2.45 1.5-4.27-.08-.64-8.63-13.36-9.3-1.41-1.41-2.72-2.41-4.35-3.65-2.33-.81-4.98-1.03-7.84-.25-4.04 0-7.35 2.23-8.31 3.28-.4.16-.78.21-1.15.45-.9.21-1.81.28-2.76.68-1.81 0-3.59-.23-5.61-.24-1.39-.52-2.44-1.38-3.12-2.55-1.11-.99-2.17-1.31-3.44-1.97-1.15-.44-2.06-.89-3.98-.51-2.47.31-5.02 2.49-4.84 2.17-.61 4.39.31 6.13 2.14.71 2.48-.27 5.23-2.15 6.51-2.54 2.34-5.21 3.67-7.68 2.55-2.71-1.67-5.31-4.06-6.78-6.57-.76-1.37-.42-2.91.31-4.37.55-2.32.84-3.08 1.25-4.5 1.94-.43 4.59-2.13 6.65-3.23.41-.11.66-.31 1.03-.23 1.06-.21 1.5-.31 1.85-.38.75-.81 1.48-1.29 2.37-2.05 1.44-1.31 3.13-2.15 4.72-3.7 1.86-2.01 3.74-4.13 5.23-6 .48 3.26.48 3.83 3.63 4.74 6.61z"/><path fill="#2F2F2F" d="M72.72 92.92c-.67-.03-1.18-.55-1.49-1.12-.02-.26-.04-.55.12-.94.13l-.2.01c-.2.01-.25.03-.48.01-.97.11-1.7.23-1.71 1.05-2.52 1.14-5.18 1.53-7.21-.39-1.03-.72-2.4-.33-3.67.04l-47.31-7.58-7.83 8.3c-1.21.49-2.47-.34-3.08-1.45-.43-1.16.07-2.33 1.18-2.98 1.21-.74 2.58.31 2.55 1.22.12 1.06-.25 2.08-1.45.2-.04.18-.08.37-.12 1.03-.25 1.69-.58 2.42-1.37.15-.49.65-.95.94-1.26.43-1.17.96-2.32 1.48-2.5.72-.65 1.75-.96 2.79-.84 1.5.89 1.18 3.51.42 4.9z"/></svg>
