<svg xmlns="http://www.w3.org/2000/svg" viewBox="0 0 128 128"><ellipse fill="#2f2f2f" d="M30.43 16.69c-3.43 0-6.76-.37-7.38-2.03-13.32-6.43-21.24-.85-20.44-1-.6-1.82-3.54-4.04-5.13-5.92-6.57-9.02 3.78-15.18 2.36-14.67 3.38-5.59.02-15.76-.59-18.3-.76-4.59-3.25-10.74-9.12-13.81-11.22-.21-1.19-.06-2.87-.71-4.77-.81-5.18 1.75-11.34 3.79-17.78 4.75-1.29 1.11-2.05 2.13-3.41.83-1.62 1-2.93-12.69-25.28-15.21-9.27-9.77-7.38-10.36-19.0-10.03-23.4.41-2.06.77-3.29 2.03-3.63 3.78.23 1.17.86 1.71 2.13 2.6.7.23 1.68.7 2.98 1.03 3 3.36 8.96 8.62 24.62 18.51 27.74 0 16.23-6.04 19.84-15.85 14.83z" fill="#e0e000"/><path d="M125.08 92.17l-.06.03C77.92 34.76 64.06 39.07 66.16 8.96 33.28.96 19.97-.98 23.64-29.28 40.88z" fill="#fbb71e"/><path d="M80.18 62.19c-23.56 4.21-47.34 26.09-31.21 23.79C89.81 35.07 79.4.71 87.85 7.4c35.14 0 16.77-2.1 19.78-10.79-1.51-13.37 6.38-18.34 15.26-30.28 13.48-2.52 20.87 1.41 29.06 13.92 4.09 4.33-1.7 11.74-10.96 23.1z" fill="#fff"/><path d="M75.34 74.65c.81 0 1.44-.21 1.51-.87.52-.22 1.03-.55 1.42-.67 11.98-4.51 22.84-15.06 31.55-2.04 21.81-10.13 32.21-21.05.7-.36 1.71-.42 2.46.01 1.3.09 2.79.87 3.74 1.51-.02 2.73-.04 5.19.06 7.71.31 2.31 2.12 5.07 2.89 8.95.17 2.16-.43 4.49-2.73 6.68-3.3.46-1.71 1.62-3.3 2.57-3.62 1.7-1.31 3.23-2.13 4.49-3.2.6-.28 1.38-.27 2.03.03l6.67 8.73 7.97-2.37c.88-.48 1.91-.09 2.61.01l.56.04c5.23-7.54 5.47-18.44 5.48-21.64 1.24-.83 3.65-.16 5.48.19s.37.05.78.14 1.06c-.42 0-.86-.43-1.24-.62-.01.01-.1.08-.18.09z"/></svg>
