<svg xmlns="http://www.w3.org/2000/svg" viewBox="0 0 128 128"><ellipse cx="64.1" cy="75.05" rx="43.24" ry="32.41" fill="#2f2f2f"/><path d="M125.09 79.15l-9.96-7.27c-1.36-.47-3.62-1.67-4.68-5.32v4.32c0-2.7 1.16-5.22 2.31-6.28l8.12 2.04c2.21-.04 4.22-.53 6.37-1.43 12.49-4.23 15.01-12.34 3.74-20.62z"/></svg><use xlink:href="#e" overflow="visible" fill="#f57c00"/><clipPath id="b"><use xlink:href="#a" overflow="visible"/></clipPath><g clip-path="url(#b)"><path fill="#2F2F2F" d="M32.02 95.51c-1.23 0-2.24-1.04-2.24-2.33s-.23-2.44-1.5-2.85-1.47-.27-.44-.48-.87-.2-1.2.13-.18.45-.18.51-.43.28-.18.38-.44.93-.48.36-.17.59-.28.99-.43.64-.31 1.36-.18 1.51-.33.23-.03.44-.06.6-.04.15-.01.63.01.48 0-.01.01-5.54-4.19-9.61-4.39-2.52 4.48-5.89 6.73-9.25 10.86-1.62m0-4.02-3.02-5.23-4.75-4.82-1.55-1.41-2.02-3.08-2.46-3.24 0-1.46.33-2.62.71-3.71 1.11-.97 2.75-.38 3.65.1 1.14.61 2.25 1.8 2.22 1.8s.46-.41.99.6.2 1.87.39 2.13-.01 4.56-.19 7.74-.08.7-4.18 3.45-7.14 2.52-1.11.64-2.35 1.3-3.43 1.38-7.04-.53-15.68-5.51-15.7-4.39-.95-.11-2.04-.32-3.01.07-1.53 1.21-3.72 2.6-4.71.67-.75 1.57-1 2.43-.7.27-.44.64-.85 1.41-1.25.09-.08.16-.19.23-.21.18-.6.31-1.24.27-.54.26-1.12.46-1.76.94-.04-.06-.06-.17-.11-.27-.27-.21-.26-.18-.49-.25-.59-.24-.23-.08-.47-.16-.61-.32-.17-.16-.42-.25-.59-.42-.26-.66-.27-1.46-.14-.69.09-1 5.24-13.61-.47-.79-.02-1.33-.11-1.93-.14-.51-.09-.83-.12-1.24-.34-.53-.68-1.11-1.01-1.41-1.69-1.01-.56-2.33-.44-3.63-.42-2.01-.45-2.49-.11-3.16.62h.45c.32 0 .71-.02 1.25-.19 15.35-2.53 41.68-13.54 38.61-5.15 8.14 4.36 18.9 14.2 20.23 12.46 2.71 3.41 5.04 6.63 5.5 1.44.21 2.79-1.5 4.32-2.51.86-1.25 1.58-2.43 2.39-4.02z" fill="#e39581"/></g></svg>
