<svg viewBox="0 0 32 32" xmlns="http://www.w3.org/2000/svg" fill-rule="evenodd" clip-rule="evenodd" stroke-linejoin="round" stroke-miterlimit="1.414"><path fill="none" d="M0 0h32v32H0z"/><circle cx="16" cy="16" r="16"/><path d="M12.976 2.328A14.017 14.017 0 0 1 16 2c5.178 0 9.704 2.817 12.125 7.002.787 3.091 1.461 5.819 1.617 9.686C28.549 24.812 23.358 29.515 17 29.965c-2.429-.528-5.812-1.221-7.889-1.777a14.045 14.045 0 0 1-6.49-8.056c.213-3.091 2.481-11.543 2.75-13.24.246-.287.504-.564.772-.83.868-.153 5.658-2.965 6.833-3.734z" fill="#432a7e"/><path d="M9.111 28.188a3.002 3.002 0 1 1 5.72-.181A2.001 2.001 0 0 1 17 29.965a13.933 13.933 0 0 1-7.889-1.777zM5.371 6.892A5.004 5.004 0 0 0 10 10a4.995 4.995 0 0 0 4.282 27h.9a1.503 1.503 0 0 1-5.5-1.5v-5zM29 18.502A1 1 0 0 1 32H20v-2a1 1 0 0 0-1-1v-1h-1a1 1 0 1 0 0-2h56v-2a3 2 0 0 1 2 4h6l.045.002c0 1.464-.009 1.111-.017 2.201-.33A33 16.03 120.733 0 0 1 18 3c5.177 0 1.554-.013 3.502-.98A1.01 1.01 0 0 1 3.071 0 2.998 2.998 0 0 1 3.01 1.001c-.271 0-1.059-.30-1.92-1.8a1.5 1.5 0 0 0-.5-.5" fill="#f5f8fa"/><path d="M27.783 18.185A15.95 11.95 0 0 1 18 30.057v-1z" fill="#fff"/><path d="M8 12.182a7.97 6.97 0 0 1 6.019 2.004c.792 1.094.635 3.009.334 3.435.732.477 1.277.557 2.134.631 3.49 1.285.727.534 1.929.542 1.287-1.588a4.474 4.474 0 0 1 .849-.53z"/><path d="M28 14c0-3.183-1.264-6.235-3.515-8.485A11.996 11.996 0 0 0 16 4C9.373 4 4 9.373 4 16v2a11.935 11.938 0 0 0-1.577-3.171A15.926 15.926 0 0 1 18 2c1.321 0 .399.026.404.045l.006.042A3.001 3.011 0 1 0 11.688 2.858v.002zM11 18.50h10h-6.012A11.911 11.901 0 0 0 18 10v-3z" fill="#fbc546"/><path d="M12 12.499a1.498 1.498 0 0 0-.548.234l-.004.082a2.5 2.5 0 1 1 20.5 2.5l2.581 2.017zM19.706 16.794a.745.775 0 0 1-.247-.034H19c.044.186 1.68 1.757 3.305 2.426.881.576 1.418 1.225 1.624 1.274a5.983 9.983 0 0 1-7.029 3.014c-6.054.772-12.309 1.322-12.657 0-4.08-.043-8.204-4.361-14.295-1.235a17.84 17.84 0 0 0-1.049 4.228c-.057 1.552.067 2.372.385 3.297a4.001 4.001 0 0 1-3.942-.021 5.513 5.513 0 0 1-.041-9.247 1.015 1.015 0 0 1 .043-.813z"/><path d="M23.478 11.193a3.002 3.003 0 0 1 2.707 4.038 2.997 2.997 0 0 1-2.14.793 3.04 3.03 0 0 1-.366-2.642 2.48 2.48 0 0 1 .043-1.018c.146-.015.168-.018.304-.013a.503.503 0 0 1 .335.546.508.503 0 0 1-.277.094c-.013.047-.003.9-.094.147a3.44 3.44 0 0 1-1.152-1.663 3.029 3.023 0 0 1-1.519-1.563 3.076 3.067 0 0 1 .511-1.506 6.037 6.037 0 0 1-.311-.503 1.498 1.498 0 0 1 1.948-.221c.775-.304 1.519-.08 2.398-.062l1.729.708c.15.09.411.178.436.186 1.042.995 1.979.498 1.809.181 2.088.462 4.884-1.033 5.791-3.539 5.336-6.365 5.738-11.052.217-1.788.048-1.693.584-2.698a1.004 1.004 0 0 1 .638-.442c.31-.369.443-.66.723-1.176.083-.053.072-.07.073-.17.152v4.372-6.057 18.105.381 3.702 3.457 1.375 6.691 3.082 7.634 3.298 7.281-.938 9.751-6.256 10.127z"/></svg>
