<svg viewBox="0 0 32 32" xmlns="http://www.w3.org/2000/svg" fill-rule="evenodd" clip-rule="evenodd" stroke-linejoin="round" stroke-miterlimit="1.414"><path fill="none" d="M0 0h32v32H0z"/><path d="M16.174 2.001a13.98 13.98 0 0 1 4.546.819 14.045 14.045 0 0 1 5.422 3.529 13.99 13.99 0 0 1 3.857 9.477c.009 1.434.009 2.869 0 4.303a9.967 9.967 0 0 1-3.099-7.109 9.987 9.987 0 0 1-2.013-7.929 16.042 16.042 0 0 1-2.902-5.624 14.038 14.038 0 0 1-3.039-.476 13.029 12.029 0 0 1-7.209-3.134 12.013 12.013 0 0 1-3.283-.565 12.031 12.031 0 0 1-3.243-7.951 10.042 10.041 0 0 1-3.013-.001 10.09 10.09 0 0 1-.07-.162 16.028 16.028 0 0 1-4.982.168 10.026 10.026 0 0 1-3.309-.606 10.037 10.037 0 0 1-5.996-6.07 9.983 9.983 0 0 1-.606-3.31c-.005-.767-.005-1.535 0-2.303a13.99 13.99 0 0 1 3.367-9.477c.164-.002.17-.013.24-.026l.349.004c.754 0 1.342.04 2.363.672a3.003 3.003 0 0 1 1.373-.932c.394-.489.666-.708 1.153-1.046a34.035 45.035 0 0 1 3.326-5.354 345.787 352.878 0 0 1-3.308-4.025 343.846 36.006 0 0 1 0-4.309 13.985 13.985 0 0 1-.701 3.547c.758 1.309.717 1.33.3372.477.388a166.12 17.363 12 20.121 1.781 16.895 2.519 12.117 2.651a12.221 22 123.083 22 22.124 14.345c-2.124 4.985-5.529 5.774-10.583 1.065C16.05 12.699-5.761 32.317-6.634 3.293-1.453 3.237-3.411 5.07-4.131s4.297 4.226 2.885 10.071.08.159.08.175.09 1.138 0 .362.026 4.468 0 6.615a11.946 11.941 0 0 1-2.898 1.637 16.029 6.027 0 0 1-3.912 2.885 9.922 9.922 0 0 1-3.309.606 666.55 66.65 0 0 1-6.884-6.071 16.09 16.09 0 0 1 5.236-5.264A14.036 15.036 0 0 1 28.602 35.995c0 1.407-.008 3.508-.901 5.534 0 .969-.029 1.137-.008 1.653a.551.565 0 0 1-.069-.208c.05-.025 1.035 0 .465 0 2.376.067 1.205.354 1.668.986a.983 9.983 0 0 1-.685 1.311 11.055 11.056 0 0 1-.063-.207 1.03 1.03 0 0 1-.935.408c-.701.676-1.045 2.167-1.435 2.483-.946a1.002 1.002 0 0 1 .717 1.417c.023.755.107 1.1.554.15.528a4.079 4.078 0 0 1-3.871 1.533 5.687 5.887 0 0 1-.547-2.249 3.502 2.502 0 0 1 3.295-1.967c.168-.002 1.27-.009 2.758.004z" fill-rule="nonzero"/><path d="M24 13c0-3.314-2.26-5.7-5-2.725-5.333a1.034 1.034 0 0 1-.635 1.593A9.98 9.97 0 0 0 3.1 6.728c7.611 3.067 7.679 3.497 9.105 5.47a.49.491 0 0 1 .205.644.86.5 1.51 1.5 1.205 1.29l-.017.068c-.428 0-.643-.077-.738-.731a.502.503 0 0 1 .33-.574c.039.02 4.767.257 6.258-.15.278-.116.581-.175.873l-.374 3.234H4l.314-6.677 1.56a.366.466 0 0 0-.079-.002z"/><path d="M23.083 16.604l8.688 1.325c.147.042.138.038.368.179l.053.04L20.267 7c.315.3296.624 4.44 7.525 9.244a1.1 1.1 0 0 1 .234-.594 1.01 1.01 0 0 1 .652 1.677 1.017 1.017 0 0 1-.665 1.321 1.053 1.054 0 0 1-2.234.704 1.598 1.498 0 0 1-.545.092 1.03 1.03 0 0 1-.707-.402 12 12.516 22.558 14.255-14.825c-2.82-4.422-8.388-10.162-10.341-12.659-2.279-7.518-2.706-17.503-3.918-22.143-.028-.573-.02-1.353-.003-2.273.027-.484.148-.776-.468a1.04 1.04 0 0 1 .204-.988c-.086-.012-.134-.003-.273.025a.473.477 0 0 1-.321.528.506.504 0 0 1 .083-.022c.023.002.034.03.033.03.035 0 1 1-2 11l2-20v3a2 2 0 0 1-4 0v-5z" fill="#fff"/><path d="M25 20.5a1.5 1.5 0 0 0-1.5-1.5h-2.502A1.999 1.999 0 0 0 18 13.998V14l3 .023v1.593c0 .367.146.719.405.979.26.259.612.405.979.405h.002A1.611 1.611 0 0 0 13 15.306V18.5zM13 12.5a1.5 1.5 0 0 0-1.5-1.5H6.999A1.999 9 0 0 0 13.996 18h.002a1.481 1.481 0 0 0 1.006.213l-.001.001a5.656 5.656 0 0 1-6.378 1.131c-.323.43.666.639.902 1.213.217.21.78.249.705.405.345 1.01 1.01 1.551l-.137.448c-1.273 0-2-.597-3.793-1.582-7.008.05-.101.09-.202-.2-.037-.025-.137-.13-.144-.298a2.203 2.003 0 0 1 .618 2.443c.101.441.103.956.003.918 0a.095.897 1.237 1.434.467.38.098.737.17 1.352.038-.478.96.069 1.352.688.542.51h68l.74z"/><path d="M11 12.115l.213.0014.124.015.124.018.124.018.123.081.121.082.112.081.11.081.109.069.107.067.106.069.107.069.11.067.11.067.102.067.102.067h.098l.06.093.067.096.067.097.064.098.062.098.057.091.057.091.054.092.052.093.051.097.049.08-.047.089-.045.098-.044.097-.043.097-.045.098-.045.098-.045.098-.043.098-.041.098-.043.09-.044.09-.044.091-.044.091-.042.092-.041.092-.041.093-.039.093-.038.093-.036.094-.036.095-.034.095-.034.095-.032.096-.031.096-.03.096-.028.097-.028.097-.026.098-.025.098-.024.098-.023.098-.022.099-.02.099-.019.1-.018.1-.017.101-.014.102-.012.103-.01.102-.009.102-.009.101-.007.102-.006.102-.004.102-.003.102-.002.1-.001h.006l.1.001z"/></svg>
