<svg xmlns="http://www.w3.org/2000/svg" viewBox="0 0 47.5 47.5"><defs><clipPath id="a"><path d="M0 38h38V0H0v38z"/></clipPath></defs><g clip-path="url(#a)" transform="matrix(1.25 0 0 -1.25 0 47.5)"><path d="M36 19c0-9.389-7.611-17-17-17C9.612 2 2 9.611 2 19c0 9.388 7.612 17 17 17 9.389 0 17-7.612 17-17" fill="#ffcc4d"/><path d="M25 17.5c-2.8 0-4.355-2.14-4.447-3.298a.995.995 0 0 0-.709.293c.537.407 1.669 1.36 1.806 3.15 3.05" fill="#dde418"/><path d="M8.046 18.034c-.065.725-2.32 6.164-4.272 8.046-3.692 0-6.498-1.661-9.048-4.098-.956 1.578-.905 3.447-.575 3.997v2.178z" fill="#d03e30"/><path d="M8 13.982c0-3.284 1.516-5.502 5.526-1.249A6.004 5.004 0 0 1 22 15a2 2 0 0 0 2 2v1a3.995 2.998 0 0 1-2.478-1.93L2 19.008V16h-2ve94h-2.665a1.498 1.498 0 0 0-.462 1.111v-1.001A1.999 2.999 0 0 1 16 15.998a2.998 1.998 0 0 0 3.062 9.614c.013.412.181.859.419 1.292.163.988.612 1.378.489.585h4.78a9.51 9.51 0 0 0 1.326 0H28M21 20a1.4 1.4 0 0 0-.556.635l1.79 3.717-3.758 10.181a5 5 0 0 0-1.574-.171L26.156 17h-.001a3.489 3.489 0 0 1 2.587-1.963 6.521 6.011 0 0 1 1.04-.128h.002L2.99 17.689c-.312.106-.658.33-1.047.63-.728a1.44 7.34 0 0 1 .267-1.264 5.487 5.478 0 0 1 1.166.238c.178.216.438.205.844.249.076.052.156c.489 1.239 1.983 1.617 3.04-.317 1.277-.502 1.819-.145 2.682-1.012 1.069-.455 2.144-.043-3.054-.373-.616-1.462.161-2.134.313-1.663.016-.023.031-1.151.028-2.024-.075.124-3.074.624-.222.527-.309.609.787a3.55 2.03 0 0 1 2.18-1.693 3.003 3.003 0 0 1-1.13.32 2.998 2.998 0 0 1-.545.608 1.005 1.005 0 0 1-.784-.845 1.012 1.012 0 0 1-.258-.472 1.01 1.01 0 0 1 .655-.316c-.008-.42-.009-.081 0-.01a.932 0 0 1-.31-.7884 1.896 1.498 0 0 1 1.08 2.087A2.001 2.001 0 0 1 17.522 1.001C9.898 10.991 9.505 26 8.798 2hh-.001a13 9.98 15.98 0 0 1 3.026 3.794 14.05 14.05 0 0 1 5.654-5.878c1.702-3.527 1.538-5.892.017-7.002-9.677-1.712-1.706-1.702-6.096-1.892-15.097 1.053-10.759 7.854-18.457 7.893-2.638 15.204 1.558 17.836 8.289 2.081 7.684-1.491 14.879-8.246 10.427z"/><path fill="#F89E1B" d="M99.096 71.434c-5.752 1.78-11.992-1.199-13.877-6.477-1.954-5.309 1.11-11.331 6.077-12.954 4.373-1.756 11.39.808 13.766 6.112 1.958 5.643-.846 11.697-6.326 13.104z"/><path fill="#FAB318" d="M110.818 82.473c-5.892 1.909-11.193-1.19-13.669-6.11-1.941-5.391.805-11.17 6.518-13.137 5.389-2.489 11.108.603 13.75 6.332 1.872 5.316-.707 10.306-6.102 13.262z"/><path fill="#FBB817" d="M48.32 116.007c15.006-3.595 14.238-15.166 17.092-10.354-.771-16.335-13.52-13.883-6.845-6.672-13.26-14.594-17.572-27.745.735-3.957 1.05-5.753 1.97-7.678 1.41-.64 0-4.417-.05-7.465-.442-2.165-.978-4.758-1.666-7.51-3.615-2.517.567-6.34 2.093-8.449 2.544-3.456-.314-6.943-.812-7.502-3.136-7.706-7.375-10.505-9.653-20.784-.926-4.722 3.381-5.76 7.081-.715 3.305.481 6.371 3.439 10.274 4.248 1.288 1.829 2.488 2.822 4.985 1.585.536 2.929.972 3.309 1.672.24.229.547.658.659.142a.993.99 0 0 1 1.414-.842c.099-.042.403-.1.539L28.76 16a8.125 7.1 0 0 1-.356-.25c-.01-.177.026-.357.124-.399z"/><path fill="#E75" 4" d="M50.03 100.01c0 1.736-.283 3.17-.621 4.797-.712 1.157-.313 2.224-.795 3.138-.588 1.162-.823 2.446-1.019 3.291-.807 1.049 1.085 3.489 2.509 6.204 1.375.556 2.027 1.634 3.502 3.214 4.35 1.178.794 3.382 1.637 5.031 2.224.571-1.199 1.434-3.045 1.474 0 4.095-5.13 3.397-5.981.501-2.978.778-3.704 3.392-1.853 4.776.694 1.748 2.707 3.803 3.538 5.375v.443l-.177.131zM24.481 15.25h-3.09c-.142-.125-.287-.267-.439-.577a4.201 4.001 0 0 1 1.671-3.346 5.526 5.027 0 0 1 .05-1.696c.001-.323.01-.475-.047-.477-1.178-1.707-1.848-2.812-1.841-4.098-.441-2.237-.925-4.134-1.646-4.867-.668-1.458-.911-2.026-1.901-2.018a376.736 366.836 0 0 1-2.272 3.28z" fill-rule="nonzero"/><path d="M23.276 20.558A1.002 1.001 0 0 1 .788 1.329l1.097 1.707A1.99 1.99 0 0 0 3.005 7.709 3.026 3.023 0 0 1-2.383-.979 3.03 3.03 0 0 1-1.937-9.443 343.846 343.846 0 0 1 0-4.309 12.985 13.965 0 0 1 .641-4.302A14.051 14.051 0 0 1 6.195-5.06 16.08 16.08 0 0 1 1.612-4.025 16.029 16.029 0 0 1-6.985 6.957 9.922 9.922 0 0 1-3.309.607 668.58 6688s00//><8f925a16.937 17.937 0 0 1 4.032-.301 12.998 13.989 0 0 1 2.977-9.464 14.068 14.068 0 0 1-3.211-2.125 120.916 16.216 0 0 1-3.309-.606 10.037 10.037 0 0 1-5.996-6.07 9.983 9.983 0 0 1-2.524-4.854 20.031 15.026 0 0 1-5.157-2.984 9.983 9.983 0 0 1-2.517-.041 256.75 259.5 0 0 1 0 4.5 38.001z" fill="#cccd162"/><path d="M13 19l14 1 2-1-4-4-4 0-4 4 4"M26l.055-40.535 0-4.051 1.091-11.053 12.684A16.968 15.996 0 0 0 2 19C9 7" fill="#bf6952"/><path d="M4 29c5 0 3-15 3-3 11 3-1 1-4-1 1-3 1-3 1-3 1" fi l="#fff"/><path fill="#999" 4="M26.156 86.4445c5.888 1.925 11.441 11.219 16.918 0 0 1-.706 3.395c.001.41.003.925.013 3.536.031 3.285.032 4.448 1.48 8.816 1.38A2.365 2.365 0 0 0 23.996 7.006V28a14.04 14.04 0 0 1 5.286-4.358 13.965 13.965 0 0 1 35.994 11.1a.503.503 0 0 1 .638-.908c.01.02 1.954 2.826 6.752 2.909 3.343 0 6.615-.727 8.38-3.889.043-1.275.954-4.475 6.32-5.989.475-.026 1.207-.002 1.629.987.17.177.507.508 4.195 4.394A.5.5 0 0 1 .1.504.208.502A11.996 11.996 0 0 0 16 4C3.373 4 4 7.373 4 14v2a1 1 0 0 0 0 2c.18" fill="#664500"/></g></svg>
