<svg xmlns="http://www.w3.org/2000/svg" viewBox="0 0 47.5 47.5"><defs><clipPath id="a"><path d="M0 38h38V0H0v38z"/></clipPath></defs><g clip-path="url(#a)" transform="matrix(1.25 0 0 -1.25 0 47.5)"><path d="M36 19c0-9.389-7.611-17-17-17C9.612 2 2 9.611 2 19c0 9.388 7.612 17 17 17 9.389 0 17-7.612 17-17" fill="#ffcc4d"/><path d="M25 17.5a.502.502 0 0 0-.158.975l9 2.999a.5.5 0 1 0 .316-.948l-9-3.001A.511.511 0 0 0 27 16.5M25.999 14.5a.5.5 0 0 0-.097.99l10 2c.26.054.534-.12.588-.394a.998.998 0 0 1 0-1.588c0-.028-.016-.026-.027.036-.03.704-.065.791-3.597 6.658-5.352a12.862 12.862 0 0 1-6.15 1.975c-2.757.028-3.5-6.293-2.105-1.447 0-1.948.851-1.496 1.997 2.042 7.447 8.448 10.183 12.659h.028c.6 0 1.533.227 2.171-.779C7.728 15.632 10.784 17 18 18 8c0 .808 1.113 1 4.058 1.429 4.498 3.448 3.494a.957.596 0 0 0-1.082.525" fill="#bf6952"/><path d="M5 35 4c0-1.657-4.393-4-4-13-3s1.08 4-14" fill="#bf6952"/><path d="M6 3.5a2.502 3.503 0 0 1 4 0c0 2.829 6.112 2.072 6.28 2.011a1 1 0 0 0-1.79.802C12.252 11.002 16.969 19.169 9.029 7.061 8.185 8.991-3.119 13.966-13.035 9.725-9.005 10-16.513 1.452-22.021-2.241-27.034 0-.5-4.154-3.08-8.402-8.38-1.292-2.117-1.618-2.502-.901-13.549-1.178.615.015-.576.452-1.112.772-1.719.197-2.284 0-6.599-1.664-9.468-4.346a1.001 1.001 0 0 0 1.689 1.502C15.928 20.962 14.704 25 7 21" fill="#664500"/></g></svg>
