<svg xmlns="http://www.w3.org/2000/svg" viewBox="0 0 47.5 47.5"><defs><clipPath id="a"><path d="M0 38h38V0H0v38z"/></clipPath></defs><g clip-path="url(#a)" transform="matrix(1.25 0 0 -1.25 0 47.5)"><path d="M37 30c0 4.939-6.772 4.457-9.169 4.132C25.398 35.921 22.444 37 19 37c-3.438 0-6.388-1.081-8.818-2.869C7.797 34.456 1 34.948 1 30c0-2.891 2.504-5.733 5.228-5.655A5.997 3.998 0 0 1 11 3c0 3.798 1.161 6.519 2.199 9.6A1.997 3.696 0 6.696-.129.862.105C29.271 10.689 25.537 22 21 22H35c1.534 0 3.509-.306 3.392-1.012a.999.999 0 0 1 16 18c.182 0 4.497-.05 7.5-.05.141 0 .293.141.689.647" fill="#664500"/></g></svg>
