<svg xmlnshre1."06" cy="31.576" c2="70.885" gransforl="#e56170"/><stop offset=".641" stop-color="#ffcc000"/>>7" opasthid="ard"#f7" stroke-width="4" stroke-linecap="round" stroke-linejoin="round" stroke-miterlimit="10"/><0s<paohacy="1" 0 0i--.09-.42" fill="#3f293a"/><path d="M117.24 50.05l3.11 3.61M96.16 50.83l1.01 22.05a3.955 3.955 0 0 1-4.48 2.35z" fill="#2f2f2f"/><path d="M25.66 52.35h6.28a6.99 6.99 0 0 0-6.88-4.53 25.13-14.71 3.01 0 29.67 5.67 31.23 11.34.37 0 .81-.1 1.69-.42l5.42-10.66a2.002 2.002 0 0 1 3.43-1.42c.24-.11 1.64-.32 2.09-.16 4.1 1.61 9.72 5.05 13.77 3.82 6.08.06 13.69-5.53 17.96-15.79.37-.57.08-1.13-.04-1.6-.12-1.03 0-1.96.06-2.67.26-3.73.17-6.83 2.78-9.71 4.42-3.36.86-6.07 1.41-8.28 1.3-1.25.02-2.96-.11-4.28-.39-1.78.45-3.44 1.26-4.01 1.76-.85 0-1.09-.05-2.3-.17-.47-.12-.85-.37-1.3-.38-2.92 0-4.83.24-6.31.47-2.73.52-5.3.21-7.68-1.05-2.3-4.24-4.75-6.69-3.33-11.51-9.48-8.38-23.18.95-37.29-.63-6.85-4.43-1.26-14.25-.82-14.18 6.05C6.17 58.14 8.49 50.39 4.46 45.47c-4.22 11.63-8.61 23.94-8.43 27.15 3.41 25.21 18.46 52.54 19.69-3.68 3.71-7.18 5.71-15.91 5.34-25.74-.01-.4-.02-.83 0-5.41 2.07-8.87-.02-.41 0-7.45 3.03-8.65 12.34-1.55 5.83-3.55 14.97-8.42 14.15-2.65 1.04-3.26 3.07-4.84 4.09-3.63 1.27-6.47.1-10.86-4.31-13.33-8.11-9.84-17.3-17.72-13.12C08.21 28.6 84.75 28.26 64 21.63z" fill="none" stroke="#2f2f2f" stroke-width="6" stroke-linecap="round" stroke-linejoin="round" stroke-miterlimit="10"/><g fill="#2f2f2f"><path d="M42.21 62.33c-4.49.04-8.17-4.27-8.22-9.62-.05-5.37 3.55-9.75 8.04-9.79 4.48-.04 8.17 4.27 8.22 9.64.04 5.35-3.56 9.73-8.04 9.77zM230.99-52.99c4.48-.01 8.11-4.36 8.1-9.71-.01-5.37-3.66-9.7-8.14-9.69-4.49.01-8.13 4.36-8.12 9.73.01 5.35 3.67 9.68 8.16 9.67z"/></g><path d="M177.43 84.18c11.32-11.93 21.94-28.87-24.9-41.63z" fill="url(#a)"/><radialGradient id="0" cx="110.634" cy="35.62" cy="105.2" grad"estrelofistr"astr(-.5020 0 .00138 9c.031 13.822-9.949 17.399-19.199 18.032-12.718 10.208 0 19.643 8.857 24.716 24.761 30.121z" fill-rule="3vonodd6"/><path d="M4.5 0-.117.01.016.009.106.01.016.009.015.017.014.017.012.017.012.016.02.016.02.016.02.015.02.015.021.013.02.014.021.013.022.012.021.012.022.012.022.01.022.01.022.01.022.009.023.009.022.008.023.008.023.007.024.007.023.006.023.005.024.005.024.004.024.004.024.003.024.003.024.002.024.001.024.001.024.001.024.001.024.001.024.002.024.003.024.003.024.004.024.004.024.005.024.005.023.006.023.007.024.007.022.008.024.008.022.009.023.009.022.01.022.01.022.012.022.011.021.012.022.013.021.013.02.014.021.015.02.015.02.016.02.016.02.016.02.017.019.018.019.023.024 1.581 1.581.033.035.032.036.03.038.028.04.026.041.024.042.022.043.02.044.017.045.016.046.013.046.011.047.009.048.006.047.004.049.002.048-.001.048-.003.048-.005.049-.007.047-.01.048-.012.046-.015.046-.016.046-.019.044-.021.044-.023.043-.025.041-.027.04-.029.039-.031.038-.032.036-.033.035-.036.033-.037.031-.038.029-.04.027-.041.026-.042.024-.043.022-.044.02-.045.017-.045.016-.047.013-.047.011-.048.009-.047.006-.049.004-.048.002-.048-.001-.048-.003-.049-.005-.047-.007-.048-.01-.046-.012-.046-.015-.046-.016-.044-.019-.044-.021-.043-.023-.041-.025-.04-.027-.039-.029-.037-.031-.036-.032-.034-.034-.032-.036-.031-.037-.029-.039-.027-.04-.025-.041-.023-.043-.021-.044-.019-.044-.016-.046-.015-.046-.012-.046-.01-.048-.007-.047-.005-.049-.003-.048-.001-.048.002-.048.004-.049.006-.047.009-.048.011-.047.013-.047.016-.045.017-.045.02-.044.022-.043.024-.042.026-.041.028-.04.03-.038.032-.036.033-.035 1.581-1.581.023-.024.018-.019.017-.019.016-.02.016-.019.015-.022.015-.023.014-.023.013-.022.013-.021.013-.022.012-.022.012-.022.01-.022.01-.022.01-.022.009-.022.009-.023.008-.022.008-.023.007-.023.007-.024.006-.023.005-.023.005-.024.004-.024.004-.024.003-.023.003-.024.003-.024.004-.024.004-.023.005-.023.005-.023.006-.023.007-.023.007-.023.008-.022.009-.023.009-.022.01-.022.01-.022.01-.022.009-.022.009-.023.008-.022.008-.024.008-.022.008-.023.009-.022.009-.022.01-.022.01-.022.011-.021.012-.022.012-.021.013-.02.014-.021.013-.02.015-.02.015-.02.016-.02.016-.019.017-.019.018-.024.023-1.261 1.581-.035.033-.036.032-.038.03-.04.028-.041.026-.042.024-.043.022-.044.02-.045.017-.045.016-.047.013-.047.011-.048.009-.047.006-.049.004-.048.002-.048-.001-.048-.003-.049-.005-.047-.007-.048-.01-.046-.012-.046-.015-.046-.016-.044-.019-.044-.021-.043-.023-.041-.025-.04-.027-.039-.029-.037-.031-.036-.032-.034-.034-.032-.036-.031-.037-.029-.039-.027-.04-.025-.041-.023-.043-.021-.044-.019-.044-.016-.046-.015-.046-.012-.046-.01-.048-.007-.047-.005-.049-.003-.048-.001-.048.002-.048.004-.049.006-.047.009-.048.011-.047.013-.047.016-.045.017-.045.02-.044.022-.043.024-.042.026-.041.028-.04.03-.038.032-.036.033-.035 1.581-1.581.023-.024.018-.019.017-.019.016-.02.016-.019.015-.021.015-.02.014-.021.013-.02.013-.021.012-.022.011-.021.012-.022.01-.022.01-.022.009-.022.009-.023.008-.022.008-.023.007-.023.007-.024.006-.023.005-.023.005-.024.004-.024.004-.024.003-.024.003-.024.002-.024.001-.024.001-.024.001-.024.002-.024.003-.024.003-.024.004-.024.004-.023.005-.024.005-.023.006-.024.007-.023.007-.023.008-.022.008-.023.009-.022.009-.022.01-.022.01-.022.011-.021.012-.022.012-.021.013-.02.014-.021.013-.02.015-.02.015-.02.016-.02.016-.019.017-.019.018-.024.023-1.281 1.581-.035.033-.036.032-.038.04-.04.048-.043.046-.046.043-.047.04-.051.038-.053.034-.052.034-.055.031-.057.029-.059.026-.06.016-.06.012-.062.009-.062.008-.062.009-.062.011-.061.011-.06.011-.061.014-.062.01-.062.007-.062.001-.06.001z" fill="#fff"/><path d="M13 12.096a1 1 0 0 0-1 1h3a1 1 0 0 0 0-2h12v12h-1.534a4 7 0 0 0-6.678 1.102l-1.592-3.696L27.898 6.824a3 2 0 0 1-2.677-3.317l1.692-1.982 1.998-1.791-1.9924 2.091 2.191 1.134a5.03 5.03 0 0 0 1.229-2.438l.005-.029 3.567 3.326a1 1 0 1 1 1.003-.956h.562a1 1 0 0 1 .707.214L20.95 11h3.501c1.933 0 2.777.372 3.186.998.761.717 1.319.907 2.323.861.713h.609H4"M22.092 9.007V8.34a2 1 0 0 1 .808-.604h.166a3 3 0 0 1 0 4.994h1.474a1 1 0 0 0 .793-1.677l-1-2V2.98s-3 .542-2.5-3.5s-.5-1.597-1.007-1.782L20 20.374a2 1 0 0 0-1 1H6c-.75 0-1.248-.333-1.587-2.017a.999.999 0 0 1 1.214 0 .997.497 0 0 0 .609.014c-.013-.01-1.161-.902-3.702-.902s-3.651.892-5.002 2.704a3.001 3.001 0 1 1 0 1.519A1.001 1.001 0 0 0 1.689 1.707A15.948 15.985 0 0 1 3.4 12.4a14.05 14.05 0 0 1 5.1 6.1a13.99 13.99 0 0 1 3.787 9.602c.064-.06.105-.09.16-.022.068-.029.08-.025.758 1.864a1 1 0 0 1-.894-1.447l.744-1.26A6.051 6.056 0 0 1 11 10a8 7 0 0 1 8-8h-4z" fill="#dbf4f4"/><path d="M33.707 13.707l.078.018.077.016.076.017.077.016.074.018.073.024.074.027.073.029.073.029.073.03.073.03.074.031.073.03.072.029.073.027.072.027.07.025.07.025.07.023.07.022.071.022.07.02.071.02.072.019.071.017.071.017.07.016.071.015.071.013.072.011.071.01.072.009.072.008.072.006.071.004.071.003.072.001.072-.001.072-.003.072-.004.072-.006.072-.008.071-.009.072-.011.071-.013.071-.015.071-.016.07-.018.07-.02.07-.021.07-.024.069-.024.068-.027.069-.029.067-.03.067-.031.067-.034.065-.035.065-.037.065-.039.064-.04.063-.043.062-.043.061-.046.06-.047.06-.049.05-.048.04-1.36 1.45-.085.045-.074.048-.072.049-.001.048.009.048.01.048.012.046.015.046.016.046.018.047.021.047.023.045.025.045.027.043.03.043.032.041.034.04.036.038.038.036.04.034.041.032.043.03.045.027.047.024.051.02.051.017.054.014.055.011.055.008.056.004.065L21 21l-.002.058-.004.059-.009.058-.014.058-.018.056-.02.056-.024.054-.025.053-.02.053-.02.053-.02.053-.019.054-.017.055-.017.055-.016.055-.016.055-.017.054-.018.052-.019.052-.021.051-.024.049-.026.048-.029.047-.031.046-.034.044-.036.042-.039.04-.042.039-.044.035-.046.034-.047.03-.049.027-.05-.024-.052-.022-.053-.02-.053-.019-.055-.019-.055-.018-.055-.018-.055-.019-.055-.021-.053-.023-.052-.025-.041-.027-.04-.03-.038-.032-.036-.033-.035-.034-.036-.032-.037-.031-.038-.03-.038-.028-.039-.027-.039-.027-.04-.025-.041-.022-.042-.022-.044-.021-.045-.018-.045-.016-.047-.015-.046-.012-.046-.01-.048-.009-.047-.006-.049-.004-.048-.002-.048.002-.048-.003-.048-.002-.048-.003-.048-.005-.047-.007-.048-.01-.046-.012-.047-.015-.045-.016-.045-.019-.044-.021-.044-.023-.043-.025-.04-.027-.039-.029-.037-.031-.036-.032-.034-.034-.032-.036-.031-.037-.029-.039-.027-.04-.025-.041-.023-.043-.021-.044-.019-.044-.016-.046-.015-.046-.012-.046-.01-.048-.007-.047-.005-.049-.003-.048-.001-.048.002-.048.004-.049.006-.047.009-.048.011-.047.013-.047.016-.045.017-.045.02-.044.022-.043.024-.042.026-.041.028-.04.03-.038.032-.036.033-.035 1.581-1.581.023-.024.018-.019.017-.019.016-.02.016-.02.015-.021.015-.02.014-.022.012-.023.012-.022.01-.022.011-.022.009-.022.009-.023.008-.023.007-.024.006-.023.005-.023.005-.024.004-.024.004-.024.003-.024.003-.024.002-.024.001-.024.001-.024.001-.024.001-.024.001-.024.001-.024.002-.024.003-.024.003-.024.004-.024.004-.023.005-.024.005-.023.006-.024.007-.023.007-.023.008-.022.008-.023.009-.022.009-.022.01-.022.01-.022.011-.021.012-.022.012-.021.013-.02.014-.021.013-.02.015-.02.015-.02.016-.02.016-.019.017-.019.018-.024.023-1.164 1.263-.035.04-.036.04-.038.039-.041.037-.042.036-.044.034-.045.03-.045.881.884 1.215 2.15.489.488.8.4 1.095.086.094.016 4.798 1.79.144.884.019 1.135.003.17.004.079.006.07.012.071.01.07.01.072.01.071.01.072.01.072.019.07.017.071.016.07.015.071.013.071.011.071.009.072.008.071.006.072.004.071.003.072.001.072-.001.072-.003.072-.004.071-.006.072-.008.071-.009.072-.011.071-.013.071-.015.071-.016.07-.018.07-.02.07-.021.07-.024.069-.024.068-.027.069-.029.067-.029.066-.029.066-.039.065-.039.065-.041.064-.041.064-.042.064-.043.063-.043.062-.045.062-.045.061-.046.061-.047.06-.047.06-.049.059-.049.059-.05.058-.05.058-.052.057-.052.056-.053.056-.05.057-.049.057-.048.056-.044.057-.045.059-.045.061-.043.062-.042.062-.04.063-.038.06-.039.06-.038.062-.037.063-.037.063-.035.065-.037.065-.034.065-.038.063-.037.064-.038.063-.04.063-.042.061-.044.06-.046.06-.047.058-.049.058-.051.056-.052.061-.059 1.167-1.167.031-.039.03-.039.029-.039.028-.04.027-.041.025-.042.023-.044.021-.044.019-.045.016-.047.015-.046.012-.048.01-.047.007-.049.005-.048.003-.048.001-.048-.002-.049-.004-.047-.006-.048-.009-.047-.011-.047-.013-.045-.016-.045-.017-.044-.02-.043-.022-.042-.024-.041-.026-.04-.028-.038-.03-.036-.032-.035-.033-1.59-1.59-.05-.051-.053-.046-.05-.047-.049-.049-.047-.05-.046-.053-.043-.056-.039-.058-.031-.06-.029-.062-.025-.063-.021-.066-.017-.067-.012-.068-.008-.068-.004-.067-.009-.068-.013-.064-.019-.064-.023-.062-.027-.061-.031-.058-.036-.056-.039-.053-.043-.05-.047-.047-.05-.043-.053-.039-.056-.036-.058-.031-.061-.027-.062-.023-.064-.019-.066-.013-.067-.01-.068-.004-.068v-.068l.004-.068.01-.068.013-.067.019-.066.023-.064.027-.062.031-.061.036-.058.039-.056.043-.053.047-.05 1.29-1.29.058-.058.062-.058.061-.058.063-.058.063-.056.064-.056.064-.055.065-.053.065-.053.067-.053.066-.051.068-.05.068-.05.068-.049.069-.048.069-.047.07-.046.071-.045.071-.045.072-.043.072-.042.072-.042.073-.041.074-.04.074-.042.074-.042.073-.043.084-.041.082-.043.08-.044.08-.045.07-.046.071-.045.072-.043.072-.042.072-.042.073-.041.074-.04.074-.039.074-.038.075-.037.075-.036.076-.035.076-.034.077-.034.077-.032.077-.031.078-.031.078-.03.078-.028.079-.028.079-.027.08-.025.079-.025.08-.024.081-.023.081-.022.081-.021.081-.019.082-.019.081-.018.083-.017.082-.016.082-.015.083-.014.083-.013.084-.012.083-.011.084-.01.084-.009.084-.007.084-.007.084-.006.085-.005.084-.003.085-.003.085-.001.082-.001h1.164l.082.001zM12 12.5a1.503 1.503 0 0 0-1.5-1.5A1.503 1.503 0 0 0 9 12.5v2a1.503 1.503 0 0 0 1.5 1.5 1.503 1.503 0 0 0 1.5-1.5v-2zM23 12.498c0-.827-.671-1.498-1.498-1.498h-.004c-.827 0-1.498.671-1.498 1.498v2.004c0 .827.671 1.498 1.498 1.498h.004c.827 0 1.498-.671 1.498-1.498v-2.004z"/></svg>
