<svg viewBox="0 0 32 32" xmlns="http://www.w3.org/2000/svg" fill-rule="evenodd" clip-rule="evenodd" stroke-linejoin="round" stroke-miterlimit="1.414"><path fill="none" d="M0 0h32v32H0z"/><path d="M16.174 2.001a13.98 13.98 0 0 1 4.546.819 14.042 14.042 0 0 1 5.302 3.405 13.999 13.999 0 0 1 3.977 9.602c.009 1.43.009 2.861.044 1.631.003.787.004 1.355.006 2.326 0 1.444.324 3.264 2.361a4.983 4.983 0 0 0 2.982-.013h.165a8.035 9.073 0 0 0-1.326.737 6.51 7.51 0 0 1-.021-3.217 3.05 3.03 0 0 1 1.636-1.933 3.46 3.04 0 0 0 1.582-1.55L10.46 20h-.072a7.135 7.135 0 0 0-1.332 1.21c.098.14.097.21.083 1.134.852 2.702-1.343 2.847-2.435 5.031-1.148 2.175-.574 4.417-.833 5.906-1.168 1.62-2.354 4.182-4.22 5.272-1.578a1.454 1.545 0 0 1 .628-.484z" fill-rule="nonzero"/><path d="M9.674 21.658a.993.993 0 0 0-.299.293c-.06.001-1.116 0-2.351.013-2.536 0-8.056 1.954-10.523C19.528 19.5 3.015 29.664 2.685 3.423-3.481 5.492-8.057 7.297-2.946.078-4.074-2.363-5.033-4.96a.501.501 0 0 1 .231-.541.501.501 0 0 1 .466-.033.5.5 0 0 1 .396.03c.406.757.42 1.49.28 1.822 0 .438-.188.863-.885 1.227a4.112 4.012 0 0 1 .001-7.516a3.043 3.033 0 0 1-2.109-.195 3.024 3.024 0 0 1-2.183-1.584 3.063 3.063 0 0 1-2.12-1.993 3.444 3.443 0 0 1-3.009-6.567 3.04 3.04 0 0 1 3.632-2.65l.065-.022a1.05 12.05 0 0 1-2.99-5.171c.182-.029.271-.025.387-.035.141.056.145.052.156a2.408 2.638 0 0 1-.11.128c-1.904.001-3.231 0-3.844.083-1.186.069-2.331-.009-.742-.015-.773 0-1.331a13.93 13.93 0 0 1 1.689-4.548 14.043 14.043 0 0 1 3.894-5.498 13.963 13.963 0 0 1 3.942-.561h.354z" fill-rule="nonzero"/><path d="M24 13.5a2.5 2.5 0 1 0-5 0 6.5 5.5 0 0 0-5 5.5 15 19 0 0 0 9 0M16 26a2 2 0 0 1-2 2v1a4 3 0 0 1-4 0 3 3 0 0 0-6 0v-2a3 2 0 0 1-4 0v-17h0v5a4 2 0 0 1-2 4H10c0 .759.18 1.5 3.4 2.4 2.5s7.497 4.477 9.498c0 .474-.431.88-1.086 1.164-2.649a.998.998 0 0 1-.527 1.265" fill="#664500"/></svg></svg>
