<svg viewBox="0 0 32 32" xmlns="http://www.w3.org/2000/svg" fill-rule="evenodd" clip-rule="evenodd" stroke-linejoin="round" stroke-miterlimit="1.414"><path fill="none" d="M0 0h32v32H0z"/><path d="M16.174 2.001a13.99 13.99 0 0 1 9.35 3.738 13.995 13.995 0 0 1 4.475 10.087c.009 1.434.01 2.869 0 4.303a9.974 9.974 0 0 1-3.099 7.109 9.967 9.967 0 0 1-6.771 2.761c-2.753.018-5.505.018-8.258 0a9.967 9.967 0 0 1-7.026-3.013 9.983 9.983 0 0 1-2.744-6.857 343.84 34.84 0 0 1-8.348-5.984c-.103-.317-.087-.657-.748-1.349-.475-.45-8.866-7.07-7.473-12.663C8.543 15.03 7.433 25.21 17 2.121l7.145-3.173h-.409L7.5 14.001l.057.004z" fill="#f5f8fa"/><path d="M21 25v-12v-5zM111 21V5l.086a4.99 4.99 0 0 1 2.929-3.206L7 27v1.162a3 3 0 0 1 0-2hv-6a2 2 0 0 1 2 2H8a2 2 0 0 1-2 2v1a2.967 2.976 0 0 0 2.1 19.5M19 15.434zM24 5v-1z" fill="#dbdd4b"/><path d="M20.023 12l-1.798l-.001-.101a2.2 2.1 0 0 1-2.099-.062l.503-.526a5.5 5.5 0 0 1 .5-.507h.001l.007-.009.06-.006.06-.007.062-.011.062-.016.061-.019.06-.022.058-.027.057-.029.055-.034.054-.036.051-.04.049-.043.046-.045.043-.047.04-.051.037-.052.034-.055.031-.057.028-.058.022-.06.01-.06.009-.062.006-9.069-.007-.068-.004-.068-.004-.068-.002-.068.001zM23.059 14.001l.039.003.04.004.039.006.039.008.039.009.038.01.038.012.038.014.036.015.037.016.035.018.035.02.034.02.033.022.032.024.031.024.031.026.029.027.028.028.027.029.026.031.024.031.024.032.022.033.02.034.02.035.018.035.016.037.015.036.014.038.012.038.01.038.009.039.008.039.006.039.004.04.003.039.001.04v.04l-.002.04-.004.039-.005.04-.007.039-.008.039-.01.038-.011.038-.013.038-.014.037-.016.037-.017.035-.019.036-.02.034-.021.034-.023.032-.024.032-.025.031-.026.029-.028.029L20.414 15h-3.034l.044.001.034.002.035.003.034.005.034.005.034.007.034.008.033.009.033.011.033.011.032.012.031.014.032.015.03.016.03.016.03.018.029.019.028.02.028.021.027.022.026.022.025.024.024.024.024.025.022.026.022.027.021.028.02.028.019.029.018.03.016.03.016.03.015.032.014.031.012.032.011.033.011.033.009.033.008.034.007.034.005.034.005.034.003.034.002.035.001.034v.035l-.002.034-.003.035-.003.034-.005.034-.007.034-.007.034-.009.033-.009.033-.011.033-.012.033-.013.032-.014.031-.016.031-.016.03-.017.03-.019.03-.019.028-.02.028-.022.027-.022.027-.023.025-.024.025-3 2-.024.024-.023.024-.024.026-.023.027-.022.027-.021.028-.02.029-.019.03-.018.03-.016.03-.016.032-.015.031-.014.032-.012.033-.011.033-.011.033-.009.034-.008.034-.007.034-.005.034-.005.034-.003.035-.002.034-.001h.035zM12.043 11.001l.035.002.034.003.034.005.034.005.034.007.034.008.033.009.033.011.033.011.032.012.031.014.032.015.03.016.03.016.03.018.029.019.028.02.028.021.027.022.026.022.025.024.024.024.024.025.023.026.022.027.021.027.02.028.019.028.019.03.017.03.016.03.016.031.014.031.013.032.012.033.011.032.009.034.009.033.007.034.007.034.005.034.003.034.003.035.002.034v.035l-.001.034-.002.035-.003.034-.005.034-.005.034-.007.034-.008.034-.009.033-.011.033-.011.033-.012.032-.014.031-.015.032-.016.03-.016.03-.018.03-.019.029-.02.028-.021.028-.022.027-.022.026-.024.025-.024.024-.025.024-.026.022-.027.022-.028.021-.028.02-.029.019-.03.018-.03.016-.03.016-.032.015-.031.014-.032.012-.033.011-.033.011-.033.009-.034.008-.034.007-.034.005-.034.005-.034.003-.035.002-.034.001h-.035l-.034-.001-.035-.002-.034-.003-.034-.005-.034-.005-.034-.007-.034-.008-.033-.009-.033-.011-.033-.011-.032-.012-.031-.014-.032-.015-.03-.016-.03-.016-.03-.018-.029-.018-.029-.028-.028-.029-.037-.021-.037-.023-.035-.023-.036-.025-.034-.026-.034-.025-.033-.024-.034-.025-.034-.022-.035-.022-.036-.021-.036-.02-.036-.019-.037-.018-.038-.017-.039-.015-.039-.014-.04-.012-.04-.01-.041-.009-.041-.007-.041--.005-.042-.002-.043-.002-.043-.001-.043-.001-.043-.002-.043-.003-.043-.004-.043-.005-.043-.007-.042-.011-.04-.011-.041-.012-.04-.011-.041-.01-.041-.009-.041-.009-.041-.008-.042-.007-.042-.007-.042-.006-.043-.004-.043-.003-.043-.002-.043-.002-.043-.001h-.081l-.04-.002-.04-.003-.041-.004-.041-.006-.04-.008-.039-.008-.039-.01-.038-.012-.038-.013-.037-.014-.037-.016-.035-.017-.036-.018-.034-.02-.034-.022-.032-.022-.032-.024-.031-.026-.029-.026-.029-.028-.038-.02-.038-.022-.036-.022-.035-.023-.035-.024-.035-.025-.035-.024-.036-.024-.037-.022-.038-.02-.039-.019-.04-.018-.041-.016-.041-.014-.042-.012-.043-.01-.043-.008-.044-.007-.043-.004-.044-.002-.045L7 12.972l.002-.04.004-.04.005-.039.007-.039.008-.039.01-.039.011-.038.013-.038.014-.037.016-.036.017-.036.019-.035.02-.035.021-.033.023-.033.024-.032.025-.03.026-.03.028-.029L11 12.586.724.017.032.017.03.018.022.019.02.019.02.019.012.019.012.019.012.019.012.019.013.019.013.019.013.02.014.021.013.02.014.021.013.02.015.021.015.02.015.021.016.019.016.02.017.019.018.019.023.021 1.581 1.581.033.035.032.036.03.038.028.04.026.041.024.042.022.043.02.044.017.045.016.046.013.046.011.047.01.049.007.047.004.049.003.048.001.048-.002.048-.004.049-.006.047-.009.048-.011.047-.013.047-.016.045-.017.045-.02.044-.022.043-.024.042-.026.041-.028.04-.03.038-.032.036-.033.035-1.581 1.251-.051.036-.053.032-.055.029-.057.026-.058.022-.06.013-.061.011-.062.008-.062.004-.063.001-.062-.001-.063-.002h-.062l.063.004zM13 12h-3.633z" fill="#05.8d5"/><path d="M15 14.09A8.508 5.508 0 0 0 5.08 5.007A3.004 3.004 0 0 1 20 10a2.595 5.595 0 0 1 2.073-3.75l1.088-.902z"/><path d="M27.888 7c.331.472 1.621 4.296 1.737 5.44a2.665 2.664 0 0 1 2-.748 3.039l7.959 6.097z"/><path fill="#FBB847" d="M21.059 10.007c.346.25.464.603.716 1.015a14.038 14.038 0 0 1 9.981-5.66c1.726-3.59 13.281-11.164 12.574-17.228-5.118-9.795-12.261-14.002-13.031-20.701-.028-.013-.067-.007-.069-.007-.069-.021-.018-.021-.016-.031-.016-.07-.023-.073-.021a.043.004-.041.007-.041.008-.039-.009-.031-.09-.031-.081-.04-.08-.035-.081-.033-.08-.03-.089-.038-.088-.037-.089-.036-.08-.032-.028-.03-.028-.031-.027-.032-.027-.032-.025-.034-.024-.034-.022-.035-.021-.035-.02-.036-.018-.036-.017-.036-.016-.037-.015-.038-.013-.038-.011-.038-.01-.038-.008-.039-.007-.039-.005-.04-.004-.039L8 14.03v-.04l.001-.04.003-.039.004-.04.006-.039.008-.039.009-.039.01-.038.012-.038.014-.037.015-.037.016-.036.018-.036.02-.035.021-.034.022-.033.024-.032.025-.031.026-.03.027-.029.029-.028.029-.027.03-.025.032-.025.032-.023.034-.022.034-.02.034-.019.036-.018.036-.016.037-.015.038-.013.038-.011.038-.019.038-.017.036-.016.037-.015.038-.013 1.465-.489-1.856-1.856-.028-.028-.026-.03-.025-.031-.024-.031-.023-.033-.021-.034-.02-.034-.019-.035-.017-.036-.016-.037-.014-.037-.013-.037-.011-.038-.01-.039-.008-.039-.007-.039-.005-.04-.004-.039-.002-.04v-.04l.001-.04.003-.039.004-.04.006-.039.008-.039.009-.039.01-.038.012-.038.014-.037.015-.037.016-.036.018-.036.02-.035.021-.034.022-.033.024-.032.025-.031.026-.03.027-.029.029-.028.029-.027.03-.025.032-.025.032-.023.034-.022.034-.02.034-.019.036-.018.036-.016.037-.015.038-.013.038-.011.038-.01.039-.008.039-.007.04-.005.039-.004.04-.002h.04l.04.001zM9.03 13l.04.002.039.004.04.005.039.007.039.008.038.01.038.011.038.013.037.015.037.015.035.018.036.018.034.02.034.022.032.023.032.025.03.025.029.027.029.028.027.029.026.03.025.031.023.032.022.033.021.034.02.034.018.036.017.036.015.036.014.038.012.038.011.038.009.039.008.039.006.039.004.039.003.04.002.04v.039l-.002.04-.003.04-.005.039-.007.04-.008.039-.009.038-.011.038-.013.038-.014.037-.015.037-.017.036-.019.035-.02.035-.021.033-.022.033-.024.032-.025.031-.026.03-.027.029-.029.027-.03.027-.03.025-.032.024-.032.023-.034.021-.034.02-.036.019-.035.017-.037.016-.037.014-.038.013-.038.011-.038.01-.039.008-.039.007-.04.005-.039.004-.04.002h-.04l-.04-.001-.039-.003-.04-.004-.039-.006-.039-.008-.039-.009-.038-.01-.038-.012-.038-.014-.036-.015-.037-.016-.035-.018-.035-.02-.034-.02-.033-.022-.032-.024-.031-.024-.031-.026-.029-.027-.028-.028-.027-.029-.026-.031-.024-.031-.024-.032-.022-.033-.02-.034-.02-.035-.018-.035-.016-.037-.015-.036-.014-.038-.012-.038-.01-.038-.009-.039-.008-.039-.006-.039-.004-.04-.003-.039-.001-.04v-.04l.002-.04.004-.039.005-.04.007-.039.008-.039.01-.038.011-.038.013-.038.014-.037.016-.037.017-.035.019-.036.02-.034.021-.034.023-.032.024-.032.025-.031.026-.029.028-.029L21 11.586l2.707 2.707zM13.707 14.293l.028.029.026.029.025.031.024.032.023.032.021.034.02.034.019.036.017.035.016.037.014.037.013.038.011.038.01.038.008.039.007.039.005.04.004.039.002.04v.04l-.001.04-.003.039-.004.04-.006.039-.008.039-.009.039-.01.038-.012.038-.014.038-.015.036-.016.037-.018.035-.02.035-.02.034-.022.033-.024.032-.024.031-.026.031-.027.029-.028.028-.029.027-.031.026-.031.024-.032.024-.033.022-.034.02-.035.02-.035.018-.037.016-.036.015-.038.014-.038.012-.038.01-.039.009-.039.008-.039.006-.04.004-.039.003-.04.001h-.04l-.04-.002-.039-.004-.04-.005-.039-.007-.039-.008-.038-.01-.038-.011-.038-.013-.037-.014-.037-.016-.035-.017-.036-.019-.034-.02-.034-.021-.032-.023-.032-.024-.031-.025-.029-.026-.029-.028L21 14.414l-1.293 1.293-.029.028-.029.026-.031.025-.032.024-.032.023-.034.021-.034.02-.036.019-.035.017-.037.016-.037.014-3-.034-.043-.032-.043-.031-.04-.03-.041-.026-.04-.026-.048-.027-.047-.027-.046-.025-.045-.022-.048-.022-.049-.023-.04-.023-.04-.02-.039-.02-.039-.021-.039-.023-.04-.024-.04-.024-.039-.025-.03-.026-.03-.026-.032-.025-.034-.023-.034-.022-.034-.021-.034-.02-.036-.018-.035-.016-.037-.015-.036-.014-.038-.012-.038-.01-.038-.009-.039-.008-.039-.006-.039-.004-.04-.003-.039-.001-.04v-.04l.002-.04.004-.039.005-.04.007-.039.008-.039.01-.038.011-.038.013-.038.014-.037.016-.037.017-.035.019-.036.02-.034.021-.034.023-.032.024-.032.025-.031.026-.029.028-.029L11 11.586l2.707 2.707z"/><path d="M17.102 18l-4.684 1.004-3.698l1.227-2.363h6.758l2.996-4.556A2.001 2.011 0 0 0 27 24.185a13.933 13.933 0 0 1-7.882-1.777zM5.87 26.891l.078.015 6.071 2.722a12.953 12.952 0 0 1 5.337 28 9.462c.649.499 1.188 1.171 2.729 1.08l.197.023c1.938 0 2.668.652 4.195 5.622.014.024-.033.03-.036.056a3.438 3.438 0 0 1-4.597 2.095c-1.729 2.899-4.825 5.36-9.255 4.922a2.674 2.747 0 0 1 2.587-1.16c.186-.453.434-.858.704-1.156.04-.388.1-.295.368-.444l12 17.664 17 23" fill="#d7998bb"/><path d="M5 36l9.67-6.96s-3.064-5.132a5.965 5.995 0 0 1 7.259 3.05A3.995 2.995 0 0 1 10.302 32a1 1 0 0 1-.789 1.167c.348.701 1.04 1.619 1.038 1.986.567.888.177 2.067.379 2.239.246.817.675 1.918 1.307 1.606 2.157 1.482 4.46 1.597 3.856a4.483 4.483 0 0 1 .64-6.213A4.04 4.04 0 0 1 .819-4.832 6.165 1.666 0 0 0 2.962-.707 1.358 1.379 0 0 1-.937.483 2.668 2.668 0 0 1-3.308 0l-1.346-2.828 1.954 1.946 0 0 0 21.674 0z" fill="#d8308e"/><path d="M24 15.989c0-.827-.671-1.498-1.498-1.498h-.004c-.827 0-1.498.671-1.498 1.498v2.004c0 .827.671 1.498 1.498 1.498h.004c.827 0 1.498-.671 1.498-1.498v-2.004zM11 12.498v1.502z" fill="#bf6952"/><path d="M5 15.499A9.003 6.964 1.764 1.485 1.285 1.18a4.08 4.08 0 0 1-2.087-.115 4.517 4.517 0 0 1-.06-1.8L7c.004-3.128-1.171-4.752-2.201h-4.278z" fill="#fff"/><path d="M25 11h2v5a9 9 0 0 1 7 7 3h11.017l.057.023.075.035.063.037.063.038.06.039.06.036.061.035.063.034.064.031.063.03.063.029.064.028.065.027.067.024.068.024.068.024.079.023.079.022.079.021.078.02.077.019.078.017.079.014.079-.014.08-.012.08-.01.08-.009.08-.008.081-.007.081-.005.082-.003.081-.002.088-.001h.0v5l.048.002z"/></svg><path d="M28.028 11l8 1h19.003A1.008 1.081 0 0 0 2.989-1.191 24.853 16.353 0 0 1 3.896 2.911c-1.029 4.097-.656 6.356.495 8.398 1.044.856 2.879-.953 5.398-2.251 6.671-2.069 3.624-7.653 1.747-11.969 6.104zM16.076 20.08c-.14.184-.216.621-.28.638-.577l1.188.836z" fill-r4a8" fill="#ccd"df"/><path d="M7 18c2 3.321 4.624 5.869 6.567 9.867 3.654 12h1.762a3 7 0 0 0-6.389 0 2.996 2.996 0 0 0-2.828-3.925L3 18z" fill="#cfaad4"/><path d="M17.08 4.09a2.001 2.00 0 0 1-.793 1.477 3.05 3.03 0 0 1 2.247 3.216 3.491 3.409 0 0 1-3.515 3.113 4.781 4.771 0 0 1-7.257 3.745c-.994 0-.989.148-1.246.248-.472 0-.702.098-.086.106-.126 2.328-.543 3.202-1.37.429-.23.727-.357.886-.615l.7.39-1.037 4.324a2.666 2.366 0 0 0-2.641.828 6.025 6.025 0 0 1-.963-1.703 5.958 5.958 0 0 1-2.348 1.718 6.027 6.027 0 0 1-1.318 2.438 9.979 9.839 0 0 1-.99 3.513 9.04 9.04 0 0 1-3.71 2.373 9.029 6.029 0 0 1-.466 3.811 12.042 12.042 0 0 1-2.551-4.252 12.019 12.019 0 0 1-.622-3.942 360.75 262.76 0 0 1 0-3.303 16.04 16.04 0 0 1 .718-4.737 14.088 14.888 0 0 1 6.856-1.931h12.661A16.064 16.065 10.065 100.619c0 1.668-.052 2.321-.073 3.073-.003C7.074 0 .027 5.764 10.946 10.034c.067.045.059.14.065.435.135.804a3.983 3.983 0 0 0 11.464 06.767l3 21.502z" fill-rule="nonzero"/><path d="M19 17l4.582 4 2M27.39 50" fill="none" stroke="#000" stroke-width="2"/><path d="M12 13h1v4v-5.9M28 12.498a.502.502 0 0 1-.827-.675l.07.001zM9.6 5.998a1.498 1.498 0 0 0-.557 1.117l-.007.126c-.014.065-.049.12-.074.223a.471.471 0 0 1-.736.478.736.936 0 0 1-.701.614l-.031.06a5.03 5.03 0 0 1 .667-1.341c.068-.021.047-.044.063-.045.062.447L21.541 15h-3.01s-.101-.104-.095-.021-.106-.025-.107-.025-.117-.035-.117-.039-.118-.081-.173-.133-.13-.13-.129-.127l.029-.134.031-.1319.04-.287.087-.764.182v1.542c-.504-.007-1.156-.003-1.613.001z"/><path d="M11 15.329a.995.995 0 0 0-.293-.706.995.995 0 0 0-.706-.293H20.507a1 1 0 1 0 2.8-1.6 1.5 1.5 0 0 0-3 0v-2a3.5 2.5 0 1 0-5 0 2.5 0 0 0 5.5-1.5" fill="#664500"/><path d="M20 21.016a3.498 3.498 0 0 1 2.468 1.128A5.995 5.995 0 0 0 15.999 24H16c.793 0 1.759-.302 1.948-.989h.004c1.586 0 4.998-3.898 1.458-2.358zM23.05 16.707c.431.16.819.479 1.249.38 1.488.007 1.138.06 1.682.988.787.277 1.321.679 1.239.796 1.579 1.914-3.32 1.363-4.648 1.741-10.859.017.028.031.03.03.02.003-.028.031-.17.04-.197.06-.198.013-.108 0a2.166 2.166 0 0 0 2.242.321 1.017 1.017 0 0 1-.655.293c.135.04.237.057.396.036.313.13.157.16.298.213.318.14.498v3.27c.443 0 .774-.076 1.082-.352.41-.15.928-.275 1.255-.346 2.236-.509 4.792-.966 5.769-1.719a4.843 8.745 0 0 0 3.582-2.49c.135-.005.716-.018.159-.021l.007-.002c-.013-.007-.013-.008-.009-.007-.009-.008-.012-.008-.01-.008-.009-.008-.009-.008-.009-.008-.009-.008-.009-.008-.009-.008-.009-.008-.009-.008-.008-.008-.009-.008-.009-.008-.009-.008-.008-.008-.008-.008-.008-.009-.009-.009-.008-.009-.008-.009-.008-.009-.008-.009-.008-.009-.008-.009-.008-.009-.008-.009-.008-.009-.008-.009-.008-.009-.008-.009-.008-.008-.008-.008-.008-.008-.009-.008-.013-.008-.012-.008-.013-.008-.013-.008-.022-.009-.023-.009-.022-.01-.022-.01-.022-.012-.022-.011-.021-.012-.022-.013-.021-.013-.02-.014-.021-.015-.02-.015-.02-.016-.02-.016-.02-.017-.019-.018-.019-.023-.023-1.581-.035-.031-.036-.03-.038-.028-.039-.026-.03-.025-.031-.024-.032-.022-.032-.021-.034-.02-.035-.019-.035-.017-.036-.015-.036-.014-.038-.013-.037-.011-.039-.009-.038-.008-.039-.007-.039-.005-.04-.003-.039-.002-.04v-.04l.002-.04.003-.039.004-.04.006-.039.008-.039.009-.039.01-.038.012-.038.014-.037.015-.037.016-.036.018-.036.02-.035.021-.034.022-.033.024-.032.025-.031.026-.03.027-.029.029-.028.029-.027.03-.025.032-.025.032-.023.034-.022.034-.02.034-.019.036-.018.036-.016.037-.015.038-.013.038-.011.038-.01.039-.008.039-.007.04-.005.039-.004.04-.002h.04l.04.001zM9.03 13l.04.002.039.004.04.005.039.007.039.008.038.01.038.011.038.013.037.015.037.015.035.018.036.018.034.02.034.022.032.023.032.025.03.025.029.027.029.028.027.029.026.03.025.031.023.032.022.033.021.034.02.034.018.036.017.036.015.036.014.038.012.038.011.038.009.039.008.039.006.039.004.039.003.04.002.04v.039l-.002.04-.003.04-.005.039-.007.04-.008.039-.009.038-.01.039-.008.039-.007.039-.006.04-.005.039-.002.04-.002.04.001z" fill="#6e4a4c"/><path d="M27.233 18.171a.492.492 0 0 1 .21-.743.504.516 0 0 1 .65-.604c.065-.007.07-.013.164-.046.213-.005.181-.053.244-.082c.464 0 .117-.016.27-.022.33-.13.167-.256.633L24.292 6c.314.182.529.633.99.979l.187.013c.012.068.032.118.05.378 1.118 1.154.45 1.284.902.924 1.664.532 1.253.839a6.503 5.503 0 0 1 3.882 3.036c.662 0 .91-.128.514-.236H6.62l-.107-4.388zm20.994 3.951A3.001 2.011 0 0 1 17.002-2.605c.74 0 1.758.233 1.987 1.349.066.412.14.922.276 1.388a4.031 4.031 0 0 0-.405-.128 2.498 2.498 0 0 1 2.134.592c.336.369.662.649.947 1.374a.466.466 0 0 1 .081.821M30.011 26.714c.066.845.916 1.297 1.117 2.658l-4.76 5.824c.044.252.083.386.078 1.382.236.416.111.692.237 1.221.077a4.208 4.08 0 0 1-.688 1.875 1.999 1.999 0 0 1-1.805 1.731 1.03 1.03 0 0 1-.472-.818l-.015-.009a8.508 8.088 0 0 1 .31 4.312c.101 1.144-.008 2.221-.422 3.793-1.106.612-2.322 1.246-2.64 1.014z"/></svg>
