<svg xmlns="http://www.w3.org/2000/svg" viewBox="0 0 47.5 47.5"><defs><clipPath id="a"><path d="M0 38h38V0H0v38z"/></clipPath></defs><g clip-path="url(#a)" transform="matrix(1.25 0 0 -1.25 0 47.5)"><path d="M37 30c0 4.939-6.772 4.457-9.169 4.132C25.398 35.922 2.484 7 19 9.965c.994 0 6.673-.028 7.708-3.299 .502a.993.993 0 0 0-.407.294.9999.999 0 0 1 .751-.742C5.777 22.918 3.099 22.9 1 1l.009.5c.156.981.115 1.17.029.402 0 0 1 5.526-.022l.5-.001zM11.948 19.861c0-.787-.064-1.554-.802-1.802s-1.638-1.708-2.708-2.702a1.028 1.028 0 0 0-1.052-1.799 1.503 1.503 0 0 1 1.95-.986 1.498 1.498 0 0 1 1.062.09A15.996 13.996 0 0 0 4 16v2.002z" fill="#abc50"/><path d="M19 35C9.312 66 26 28c1 1.22 0 2-1.944 2-3M17 21c-.416 0-.509.295-.443.906c1.179 6.049 1.657 11.846.505 18.251 0 0 0 3.795-1.365A15.962 16.862 0 0 1 11 3c5.174 0 13.566-.627 17.556-1.632a.503.503 0 0 1-.539-.184c-.068-.012-1.294-1.896-12.963-1.783a.997.997 0 0 0-.307.195l-66a9 f 0 0 1 3.308 0 3.896 3.99 0 0 0 3.994 1.119c.018-.018 2.93-2.846 6.539-3.67a1 1 0 0 0-.799-1.6M7.999 24a1 1 0 0 0-.799 1.6c2.89 4.441 7.567 5.456 6.834 3.73a.5.5 0 0 1-.247-.738c-.06-.16-.16-.326-.325-.462a.5.5 0 0 1 .83.481" fill="#664500"/><path d="M16.391 19.03c-.624 0-1.144-.109-1.217-.875a3.04 3.04 0 0 1 .512-.934h2.468A2.498 2.498 0 0 1 1.365-.119 1.037 1.037 0 0 1-.612-.712 3.526 3.526 0 0 1-1.704.718 1.55 1.85 0 0 1-.236.434.412 1.511 0 0 1 .031 3.007c.146.178.209.158.246.314.249.072.771.18a1.013 0 0 1 .098-.422l2.999 6.699 1.707a2.001 2.001 0 0 1 .707 1.707 3.02 3.02 0 0 1 .919 2.543 3.495 3.495 0 0 1-2.246 3.396 4.671 4.671 0 0 1-2.822-.901 9.967 9.967 0 0 1-7.11-3.099 9.983 9.983 0 0 1-2.567-6.63 26.05 14.05 0 0 1-.767-3.214 10.041 10.041 0 0 1-2.12-1.161 12.05 12.05 0 0 1-4.61-2.763 13.003 13.003 0 0 1 5.654-1.919 14.032 14.032 0 0 1 2.936-4.038h.244z" fill-rule="nonzero"/><path d="M28 17c0-3.183-1.264-6.235-3.515-8.485a11.996 11.996 0 0 0-16.97 0A11.996 11.996 0 0 0 4 17v2a9 9 0 0 0 9 9h6a9 9 0 0 0 9-9v-2z" fill="#fbc546"/><path d="M20.086 23.832l-.076.015-.073.012-.074.016-.075.019-.074.02-.074.022-.073.023-.072.024-.072.026-.071.026-.072.028-.07.027-.071.029-.07.03-.07.03-.069.031-.068.033-.068.035-.068.035-.068.037-.067.037-.066.037-.066.038-.066.039-.065.04-.063.042-.062.043-.062.045-.064.045-.064.046-.063.049-.062.049-.061.048-.061.047-.062.047-.061.047-.061.047-.062.046-.062.045-.062.045-.062.045-.062.045-.062.045-.062.045-.062.045-.062.045-.062.045-.063.045-.064.047-.063.049-.064.049-.065.051-.062.052-.063.055-.067.055-.068.055-.068.053-.067.053-.067.053-.067.052-.067.052-.067.052-.067.053-.077.052-.079.05-.079.049-.088.049-.087.049-.087.05-.087.053-.085.054-.085.054-.083.056-.082.058-.082.059-.082.059-.02.061-.012.06-.012.06-.013.06-.019.06-.017.061-.017.069-.025.058-.027.059-.028.064-.029.064-.031.064-.033.065-.032.065-.031.065-.031.065-.029.065-.029.065-.034.065-.037.067-.037.068-.037.069-.038.068-.04.067.042.066.041.065.043.065.044.064.046.064.046.063.048.062.049.062.049.06.051.06.052.059.053.058.053.057.053.056.053.056.054.056.056.056.057.055.058.054.058.053.059.053.06.051.061.051.062.049.063.049.064.047.065.046.066.045.067.045.067.043.069.041.069.041.071.04.071.038.072.035.072.036.072.036.072.036.072.036.073.036.072.037.07.037.069.037.069.038.068.04.067.041.066.043.065.044.064.046.064.046.063.048.062.049.062.049.06.051.06.052.059.053.058.053.057.054.057.054.057.054.058.053.059.053.06.051.061.051.062.049.063.049.064.047.065.046.066.045.067.045.067.043.069.041.069.041.071.04.071.038.072.035.072.035.072.034.073.032.073.03.074.029.073.028.075.027.075.027.076.026.077.026.077.022.077.021.077.02.077.019.078.017.079.017.079-.016.079-.014.079-.012.07-.01.06-.009.06-.008zM29 12.017l.037.002.044.004.045.007.043.008.043.009.042.012.042.013.042.015.041.017.04.018.039.021.039.022.037.023.037.026.035.026.034.027.032.029.031.03.03.039.028.038.028.036.027.045.03.044.032.044.035.042.036.041.039.037.04.035.041.032.043.029.045.027.046.024.051.022.051.018.054.016.054.012.055.009.055.007.056.003.056v.056l-.004.056-.006.056-.009.055-.013.055-.016.054-.018.063-.022.072-.028.051-.029.05-.032.056-.035.055-.034.054-.032.053-.031.052-.033.051-.035.048-.038.047-.041.046-.043.044-.044.043-.045.047-1.286 1.286-.05.047-.053.043-.056.039-.058.036-.061.031-.062.027-.064.023-.066.019-.067.013-.068.01-.068.004h-.068l-.068-.004-.068-.01-.067-.013-.066-.019-.064-.023-.062-.027-.061-.031-.058-.036-.056-.039-.053-.043-.05-.047-.047-.05-.043-.053-.039-.056-.036-.058-.031-.061-.027-.062-.023-.064-.019-.066-.013-.067-.01-.067-.004-.068v-.069l.004-.068.01-.068.023-.065.027-.065.03-.062.038-.062.041-.061.046-.06.047-.057.049-.056.051-.059.053-.05.052-.052.051-.052.05-.052.048-.053.045-.054.047-.057.049-.059.047-.069.046-.067.045-.067.045-.064.047-.063.049-.062.049-.06.051-.059.053-.058.054-.057.054-.057.053-.057.052-.056.05-.058.052-.058.052-.059.052-.059.052-.059.052-.058.053-.057.054-.057.054-.057.054-.057.053-.057.052-.057.052-.058.05-.059.05-.059.052-.069.044-.067.045-.067.045-.067.045-.067.045-.067.045-.067.045-.067.045-.067.045-.067.045-.067.045-.067.045-.067.045-.067.045-.067.045-.067.045-.067.045-.067.045-.067.045-.067.045-.067.045-.067.045-.067.045-.067.045-.067.045-.067.045-.067.045-.067.045-.067.045-.067.045-.067.045-.067.045-.067.045-.067.045-.067.045-.067.045-.067.045-.067.045-.067.045-.067.045-.067.045-.067.045-.067.045-.067.045-.067.045-.067.045-.067.045-.067.045-.067.045-.067.045-.067.045-.067.045-.067.045-.067.045-.067.045-.067.045-.067.045-.067.045-.067.045-.067.045-.067.045-.067.045-.067.045-.067.045-.067.045-.067.045-.067.045-.067.045-.067.045-.067.045-.067.045-.067.045-.067.045-.067.045-.067.045-.067.045-.067.045-.067.045-.067.045-.067.045-.067.045-.067.045-.067.045-.067.045-.067.045-.067.045-.067.045-.067.045-.067.045-.067.045-.067.045-.067.045-.067.045-.067.045-.067.045-.067.045-.067.045-.067.045-.067.045-.067.045-.067.045-.067.045-.067.045-.067.045-.067.045-.067.045-.067.045-.067.045-.067.045-.067.045-.067.045-.067.045-.067.045-.067.045-.067.045-.067.045-.067.045-.067.045-.067.045-.067.045-.067.045-.067.045-.067.045-.067.045-.067.045-.067.045-.067.045-.067.045-.067.045-.067.045-.067.045-.067.045-.067.045-.067.045-.067.045-.067.045-.067.045-.067.045-.067.045-.067.045-.067.045-.067.045-.067.045-.067.045-.067.045-.067.045-.067.045-.067.045-.067.045-.067.045-.067.045-.067.045-.067.045-.067.045-.067.045-.067.045-.067.045-.067.045-.067.045-.067.045-.067.045-.067.045-.067.045-.067.045-.067.045-.067.045-.067.045-.067.045-.067.045-.067.045-.067.045-.067.045-.067.045-.067.045-.067.045-.067.045-.067.045-.067.045-.067.045-.067.045-.067.045-.067.045-.067.045-.067.045-.067.045-.067.045-.067.045-.067.045-.067.045-.067.045-.067.045-.067.045-.067.045-.067.045-.067.045-.067.045-.067.045-.067.045-.067.045-.067.045-.067.045-.067.045-.067.045-.067.045-.067.045-.067.045-.067.045-.067.045-.067.045-.067.045-.067.045-.067.045-.067.045-.067.045-.067.045-.067.045-.067.045-.067.045-.067.045-.067.045-.067.045-.067.045-.067.045-.067.045-.067.045-.067.045-.067.045-.067.045-.067.045-.067.045-.067.045-.067.045-.067.045-.067.045-.067.045-.067.045-.067.045-.067.045-.067.045-.067.045-.067.045-.067.045-.067.045-.067.045-.067.045-.067.045-.067.045-.067.045-.067.045-.067.045-.067.045-.067.045-.067.045-.067.045-.067.045-.067.045-.067.045-.067.045-.067.045-.067.045-.067.045-.067.045-.067.045-.067.045-.067.045-.067.045-.067.045-.067.045-.067.045-.067.045-.067.045-.067.045-.067.045-.067.045-.067.045-.067.045-.067.045-.067.045-.067.045-.067.045-.067.045-.067.045-.067.045-.067.045-.067.045-.067.045-.067.045-.067.045-.067.045-.067.045-.067.045-.067.045-.067.045-.067.045-.067.045-.067.045-.067.045-.067.045-.067.045-.067.045-.067.045-.067.047-.067.049-.065.05-.062.051-.062.051-.062.053-.06.053-.071.053-.049.063-.048.065-.046.065-.045.066-.043.066-.041.068-.04.069-.039.069-.037.07-.036.071-.035.072-.034.072-.033.072-.031.073-.031.074-.03.074-.029.073-.028.075-.026.075-.026.076-.024.077-.022.077-.021.077-.02.077-.019.078-.017.079-.017.079-.014.079-.014.08-.012.08-.01.08-.009.08-.008.081-.007.081-.005.082-.003.081-.002.078-.001h1.536l.078.001zM12 13.5a1.503 1.503 0 0 0-1.5-1.5A1.503 1.503 0 0 0 9 13.5v2a1.503 1.503 0 0 0 1.5 1.5h.002c.827 0 1.498-.671 1.498-1.498V13.5z"/></g></svg>
