<svg width="128" height="128" xmlns="http://www.w3.org/2000/svg" xmlns:xlink="http://www.w3.org/1999/xlink"><symbol id="b" viewBox="-64.5 -64.5 129 129"><g fill="none" stroke="#4285f4" stroke-miterlimit="10"><path d="M-64-64H64V64H-64z"/><path d="M36.95 37.82C27.32 46.32 14.2 51 0 51c-14.27 0-27.39-4.62-36.96-13.01C-47.45 28.79-53 15.65-53 0c0-15.58 5.55-28.69 16.04-37.92C-27.36-46.35-14.24-51 0-51c14.17 0 27.29 4.71 36.95 13.25C47.45-28.45 53-15.4 53 0c0 15.47-5.55 28.55-16.05 37.82z"/><path d="M0 55c-29.59 0-57-19.01-57-55 0-35.8 27.41-55 57-55S57-35.31 57 0c0 35.51-27.41 55-57 55z"/><path d="M0-43c-12.29 0-23.54 3.94-31.68 11.09C-40.39-24.25-45-13.21-45 0c0 29.7 22.6 43 45 43 21.67 0 45-13.46 45-43S21.67-43 0-43zM-.01 51V-51M-16 48.95v-97.88M15.99 48.91v-97.84M53 .08H-53"/></g></symbol><path d="M23.7 83.71c.19.06 6.61-.14 7.74-.27 1.56.91 3.1 2.59 2.68 3.74a2.2 2.2 0 0 1-2.93 1.01z" fill="#2f2f2f"/><g fill="#2f2f2f"><path d="M26.67 22.55c4.7-.01 8.57-4.81 8.5-9.25l-1.3 5.4c-.9 1.64-1.67 3.3-1.89 4.54-.48 1.2-1.78 1.77-3.57 1.01s-1.29-1.01-1.83-1.85c.3-1.12.4-2.37.48-2.14 1.08-.75 3.69-2.27 3.8-3.9.18-1.25.11-2.35-.18-4.08-.64-1.07-2.02-1.12-3.09-.89-3.38l2.41-13.65c.8-.43 1.7.76 1.41 1.32.25-.01.01-.05.07-.06 1.4-.39.98-1.51 1.99-1.25.92-.28 2.13-.38 2.25-.67 1.8-.34 2.49-.88 4.08-.17 7.02 1.55 8.55 7.48 5.04 14.08z"/></g></svg>
