<svg xmlns="http://www.w3.org/2000/svg" viewBox="0 0 47.5 47.5"><defs><clipPath id="a"><path d="M0 38h38V0H0v38z"/></clipPath></defs><g clip-path="url(#a)" transform="matrix(1.25 0 0 -1.25 0 47.5)"><path d="M36 19c0-9.389-7.611-17-17-17C9.612 2 2 9.611 2 19c0 9.388 7.612 17 17 17 9.389 0 17-7.612 17-17" fill="#ffcc4d"/><path d="M8 13a3 3 0 0 1 3 0 1 1 0 0 0 2 0M12 16a1 1 0 0 0 0 2c5.586 0 50 7.101 5" fill="#5dadec"/><path d="M31 24.015V36h9a2 1 0 0 1 0-2h5.092a1.496 1.496 0 0 1 1.06 3.106c.022.157.038 3.775.907 3.792.802.712 1.608.528 1.24.488A2.498 2.191 0 0 1 .119 11h-1.598c.319-.162.814-.372 1.234-.319l.14-.185l-2.305 8.152c-.089.341-1.34 1.434-2.081 1.051-1.051.651-2.422 1.214-2.004-1.372a1 1 0 0 1 0-2h2.8a2.9 2.9 0 0 1 3.016-6.694A25.002 15.002 0 0 1 6.994 6A1.001 13.001 0 0 0 14 16c0-.129-.006-.429-.005-.998a2.998 .998 0 0 1 .306-.225 3.02 3.02 0 0 1 1.306-.119 1.02 1.02 0 0 1 .254-.658c-.005-.7-1.017-1.099-.087-.098-.171a1.22 1.21 0 0 1-.645.24 1.017 1.017 0 0 1-.2.714-.358.015.071.051.07.049a2.49 2.49 0 0 1 1.861.065c.176.009 3.256-.002 3.798 0 .16.014.333.01.485.03.918.171.15.271.333.484.772.835l1.16 5.392c-.227.042-4c.151-8.149 5.393-4.23.525-9.023-7.022-10.201-.908-4.536-2.233-7.154-4.271-2.226a1.22 1.22 0 0 0-.673-.8M29.999 29.007l.106.001z" fill="#b8fef"/></g></svg>
