<svg viewBox="0 0 32 32" xmlns="http://www.w3.org/2000/svg" fill-rule="evenodd" clip-rule="evenodd" stroke-linejoin="round" stroke-miterlimit="1.414"><path fill="none" d="M0 0h32v32H0z"/><path d="M16.174 2.001a13.98 13.98 0 0 1 4.546.819 14.038 14.038 0 0 1 5.056 3.158 13.99 13.99 0 0 1 4.223 9.848 259.76 259.76 0 0 1 0 3.303 9.983 9.983 0 0 1-2.76 6.771 9.967 9.967 0 0 1-7.11 3.099c-2.753.018-5.505.018-8.258 0a9.967 9.967 0 0 1-7.11-3.099 9.983 9.983 0 0 1-2.76-6.771 259.76 259.76 0 0 1 0-3.303 14.04 14.04 0 0 1 8.394 2.402 13.99 13.99 0 0 1 3.626-9.043A14.051 14.051 0 0 1 8.1 6.138a13.98 13.98 0 0 1 .819-4.547A14.041 14.041 0 0 1 16.994 4.094z"/><path d="M28 18.008a12 12 0 0 0-12-12 12 12 0 0 0-12 12v3a8 8 0 0 0 8 8h8a8 8 0 0 0 8-8v-2z" fill="#fbc546"/><path d="M23.05 14.001l.039.003.04.004.039.006.039.008.039.009.038.01.038.012.038.014.036.015.037.016.035.018.035.02.034.02.033.022.032.024.031.024.031.026.029.027.028.028.027.029.026.031.024.031.024.032.022.033.02.034.02.035.018.035.016.037.015.036.014.038.012.038.01.038.009.039.008.039.006.039.004.04.003.039.001.04v.04l-.002.04-.004.039-.005.04-.007.039-.008.039-.01.038-.011.038-.013.038-.014.037-.016.037-.017.035-.019.036-.02.034-.021.034-.023.032-.024.032-.025.031-.026.029-.028.029-1.856 1.856 1.465.488.038.014.037.014.036.017.036.017.034.019.034.021.034.022.032.023.032.024.03.026.029.027.029.028 3.81 3.81-.117.043-.025.044-.022.044-.02.045-.017.045-.016.047-.013.047-.011.048-.009.047-.006.049-.004.048-.002.048.001.048.003.049.005.047.007.048.01.046.012.046.015.046.016.044.019.044.021.043.023.041.025.04.027.039.029.037.031.036.032.034.034.032.036.031.037.029.039.027.04.025.041.023.043.021.044.019.044.016.046.015.046.012.046.01.048.007.047.005.049.003.048.001.048-.002.048-.004.049-.006.047-.009.048-.011.047-.013.047-.016.045-.017.045-.02.044-.022.043-.024.042-.026.041-.028.04-.03.038-.032.036-.033.035-1.581 1.581-.023.024-.018.019-.019.019-.017.022-.016.02-.016.021-.015.02-.014.011-.013.01-.012.01-.012.012-.021.011-.021.012-.022.012-.021.013-.02.014-.021.013-.02.015-.02.015-.02.016-.02.016-.019.017-.019.018-.024.023-1.281 1.581-.035.033-.036.032-.038.03-.04.028-.041.026-.042.024-.043.022-.044.02-.045.017-.045.016-.047.013-.047.011-.048.009-.047.006-.049.004-.048.002-.048-.001-.048-.003-.049-.005-.047-.007-.048-.01-.046-.012-.046-.015-.046-.016-.044-.019-.044-.021-.043-.023-.041-.025-.04-.027-.039-.029-.037-.031-.036-.032-.034-.034-.032-.036-.031-.037-.029-.039-.027-.04-.025-.041-.023-.043-.021-.044-.019-.044-.016-.046-.015-.046-.012-.046-.01-.048-.007-.047-.005-.049-.003-.048-.001-.048.002-.048.004-.049.006-.047.009-.048.011-.047.013-.047.016-.045.017-.045.02-.044.022-.043.024-.042.026-.041.028-.04.03-.038.032-.036.033-.035 1.581-1.581.023-.024.018-.019.017-.019.016-.02.016-.02.016-.02.015-.02.016-.02.016-.02.016-.019.017-.019.018-.023.025-1.581 1.586-.055.036-.054.031-.057.037-.058.034-.062.029-.062.024-.063.022-.065.019-.067.014-.068.01-.068.004h-.068l-.068-.004-.068-.01-.067-.013-.066-.019-.064-.023-.062-.027-.061-.031-.058-.036-.056-.039-.053-.043-.05-.047-.047-.05-.043-.053-.039-.056-.036-.058-.031-.061-.027-.062-.023-.064-.019-.066-.013-.067-.01-.068-.004-.068v-.068l.004-.068.01-.068.013-.067.019-.066.023-.064.027-.062.032-.061.036-.058.039-.056.043-.053.047-.05 1.29-1.29.058-.058.062-.058.061-.058.063-.058.063-.056.064-.056.064-.055.065-.053.065-.053.067-.053.066-.051.068-.05.068-.05.068-.049.069-.048.069-.047.07-.046.071-.045.071-.045.072-.043.072-.042.072-.042.073-.041.074-.04.074-.041.074-.039.074-.038.075-8.38 1.372-.05.045-.053.043-.056.039-.058.036-.061.031-.062.027-.064.023-.066.019-.067.013-.068.01-.068.004h-.068l-.068-.004-.068-.01-.067-.013-.066-.019-.064-.023-.062-.027-.061-.031-.058-.036-.056-.039-.053-.043-.05-.047-.047-.05-.043-.053-.039-.056-.036-.058-.031-.061-.027-.062-.023-.064-.019-.066-.013-.067-.01-.068-.004-.068v-.068l.004-.068.01-.068.013-.067.019-.066.023-.064.027-.062.031-.061.036-.058.039-.056.043-.053.047-.05.881-.889.079-.072.076-.074.067-.075.065-.077.064-.078.061-.079.061-.079.061-.078.062-.077.063-.076.065-.075.063-.073.063-.073.065-.073.066-.072.068-.072.078-.072.079-.07.07-.079.072-.078.074-.077.076-.076.077-.065.079-.064.07-.063.07-.062.071-.061.072-.068.024-.069.021-.06.023-.06.023-.069.023-.07.023-.07.022-.071.021-.072.019-.072.019-.072.018-.072.017-.074.016-.063.013-.065.009-.062.012-.062.015-.063.01-.062.006-.062.004-.063.001-.062.004-.063.009-.062.012-.062.016-.06.018-.061.018-.069.02-.078.023-.077.027-.076.036-.074.037-.074.038-.072.039-.06.041-.061.04-.062.042-.062.044-.062.046-.062.047-.061.047-.061.049-.06.049-.06.05-.058.052-1.55 1.59-1.59.983-1.788 3.299-3.18.494-2.164.089-4.296 2.634-5.866.029-.093.046-.09.048-.099.057-.097.057-.106.072-.106.073-.005.074-.006.074-.008.074-.009.075-.01.075-.01.095-.012.095-.013.093-.015.093-.015.093-.019.082-.019.072-.019.071-.018.072-.017.072-.016.072-.016.071-.017.072-.019.071-.019.072-.019.071-.018.073-.017.074-.016.075-.016.075-.014.076-.014.075-.013.076-.012.077-.01.076-.01.076-.009.776-.014.075-.018.076-.02.075-.02.075-.019.072-.024.072-.026.072-.026.073-.026.074-.027.074-.028.074-.029.073-.03.072-.031.072-.031.071-.032.062-.031.063-.029.065-.029.066-.038.066-.039.066-.037.065-.037.065-.037.065-.037.065-.037.066-.037.068-.035.068-.035.068-.032.069-.031.069-.032.069-.031.068-.038.068-.037.069-.035.068-.035.068-.032.069-.03.07-.03.07-.029.072-.028.072-.027.072-.026.072-.026.072-.026.073-.027.074-.027.074-.028.074-.024.075-.022.075-.021.075-.019.076-.017.075-.017.075-.017.074-.017.074-.018.073-.02.074-.021.073-.022.072-.022.073-.023.072-.022.073.024.072.024.072.026.072.026.072.028.072.029.07.03.07.03.07.03.071.029.07.027.072.027.071.026.072.026.072.024.073.024.072.022.073.022.074.021.073.02.074.019.074.018.075.017.074.017.075.015.075.014.076.014.075.013.076.012.076.01.076.01.076.009.077.008.076.008.077.006.077.005.077.004.077.004.078.002.077.002h.156l.077-.002.078-.002.077-.004.077-.004.077-.005.077-.006.076-.008.077-.008.076-.009.076-.01.076-.01.076-.012.075-.013.076-.014.075-.014.075-.015.074-.017.075-.017.074-.018.074-.019.073-.02.074-.021.073-.022.072-.022.073-.024.072-.024.072-.026.071-.026.072-.027.07-.027.071-.029.07-.03.07-.03.069-.031.069-.033.069-.032.068-.034.068-.035.068-.035.067-.037.066-.037.066-.038.066-.039.065-.039.065-.041.064-.041.064-.042.064-.043.063-.043.062-.045.062-.045.061-.046.061-.047.06-.049.059-.049.059-.05.058-.05.059-.052.052-.052.051-.053.048-.056.045-.056.043-.058.032-.058.029-.064.028-.064.028-.063.03-.064.038-.063.042-.062.044-.062.045-.061.047-.061.047-.06.049-.059.049-.059.05-.058.05-.058.052-.057.052-.056.053-.056.054-.057.056-.877.877-.05.047-.053.043-.056.039-.058.036-.061.031-.062.027-.064.023-.066.019-.067.013-.068.01-.068.004h-.068l-.068-.004-.068-.01-.067-.013-.066-.019-.064-.023-.062-.027-.061-.031-.058-.036-.056-.039-.053-.043-.05-.047-.047-.05-.043-.053-.039-.056-.036-.058-.031-.061-.027-.062-.023-.064-.019-.066-.013-.067-.01-.068-.004-.068v-.068l.004-.068.01-.068.013-.067.019-.066.023-.064.027-.062.031-.061.036-.058.039-.056.043-.053.047-.05.881-.887.049-.088.047-.087.049-.087.059-.085.051-.084.053-.085.054-.085.054-.086.053-.086.051-.087.049-.088.048-.089.047-.089.046-.09.044-.091.044-.091.042-.012.042-.011.042-.01.041-.008.041-.007.041-.005.041-.003.042L24 12H20l.046.001z"/><path d="M17 19.5a1.5 1.5 0 0 0-1.5-1.5h-2.502A1.999 1.999 0 0 0 18 13.998V14l3 .023v1.593c0 .367.146.719.405.979.26.259.612.405.978.405h.002A1.611 1.611 0 0 0 13 15.386V13.5z"/></svg>
