<svg viewBox="0 0 32 32" xmlns="http://www.w3.org/2000/svg" fill-rule="evenodd" clip-rule="evenodd" stroke-linejoin="round" stroke-miterlimit="1.414"><path fill="none" d="M0 0h32v32H0z"/><circle cx="16" cy="16" r="16"/><circle cx="16" cy="16" r="14" fill="#dfffff"/><circle cx="10.5" cy="14.633" gradientTransform="matrix(.859 0 .0751 4.0338 .965-9.054 47-115.622" .2167 .1477 .136-.403 17.233.562 21.676 -.084 1.291 2.162 3.087 2.834 3.645 1.147.659-1.492 1.048-2.649.571-1.244.444-2.144.644-2.253 1.116a43.334 37.333 7 1.385a4.848 8.482 0 0 1-.334 1.222 1.496 1.496 0 0 1 2.207-.702H79v4.52v-.979a.999.999 0 0 1-.576-.401c-.005-.745-.036-1.055.023-2.529 0-5.335-1.665-14.464-3.315-12.626 5.045-.795 11.766-5.555 14.653-9.163.241-1.297.557-2.434 1.944-1.063 1.419-4.085 2.18-6.64 2.513-3.706.321-7.23-1.297-9.883a1.023 1.024 0 0 1-.707-.495c-.333-.146-.005-.059-.075-.693-.131a12.14 12.14 0 0 1 4.24.833 15.999 13.999 0 0 1 18.398 40.98c1.166.668 1.519 1.307 2.629 1.007l.109.001z" fill-rule="nonzero"/><path d="M22 15l2 3 3 3 0 0 1-4 3c0 2.262 4 2 2-19 1" fill="#f5f8fa"/><path d="M17 15.5c-9.733 0-10-7.384-17-10-16s-1 1-3 0-18-8-119-29" fill="#d79e84"/><path d="M4 26.5a.503.505 0 0 0-.548-.158l-16-2A.5.5 0 0 0 14 4" fill="#292f33"/></svg></svg>
