<svg xmlns="http://www.w3.org/2000/svg" viewBox="0 0 128 128"><path d="M84.85 7.66c-.28 6.68-2.01 8.62-5.04 5.67 4.23 5.26 8.54 8.43 10.6 1.83 8.04-10.05 19.3-19.21 1.31-5.28 2.8-8.48 3.3-13.24 2.36-4.35 2.34-8.21 6.83-14.61 1.45-.77 3.53-.78 5.38-.17m13.02 7.98c-.03 11.58 1.08 29.62 12.84 42.77 9.04 10.54 24.3 8.96 29.44 20.64 12.97 23.68 19.92 23.94 23.92 21.62 0 35.41-15.66 41.23-24.93 0-2.39-2.49-5.45-5.44-4.85z"/><path fill="#ED6C30" d="M42.15 71.61c-8.69 2.85-20.91-.91-26.75-2.2-4.77-1.43-1.65-4.07-2.87-6.78.94-2.03 3.82-2.55 4.72-3.3.72-.3 2.82-1.42 4.17-2.32.86.02 1.5.25 2.22.56.86.46 1.51.71 2.1 1.53.69.6 1.12.63 1.72.78.95.66 1.31 1.09 1.73 1.55.31.53.68 1.17 1.24 1.41.7.21 1.77.23 1.9-.03.19.06.62.12.15.27.64.72.87 1.31 1.26 2.97 2.14.46.08.9.39 1.05.89 1.38.07.36.18.54.16.94l.33.26s.21.38.26.55.08.68.33 1.38.53 1.87.39.52.12 1.1-.31 1.6-.4.35-.21.67-.37.99-.39.6-.38 1.31-.69 1.79-.95.54-.38 1.2-.43 1.54-.77.4-.34.77-.57.92-1.18.38-.52.67-.7 1.17-.41.35-.22.69-.24 1.32-.23.39-.38.66-.39.69l-.13.1c-.2.07-.44.11-.6.1-.3-.25-.45-.48-.61-.48-.16-.4-.26-.69-.42-.94-.39-.34-.36-.58-.58-.89-.38-.62-.66-.44-1.34-.62-1.44-.35-.95-.37-1.66-.5-2.24zM42.78 44.1c.01.01.01.01.01.01.01.01.01.01.01.01.01.01.01.01.01.01.01.01.01.01.01.01.01.01.01.01.01.01.01.01.01.01.01.01.01.01.01.01.01.01.01.01.01.01.01.01.01.01.01.01.01.01.01.01.01.01.01.01.01.01.01.01.01.01.01.01.01.01.01.01.01.01.01.01.01.01.01.01.01.01.01.01.01.01.01.01.01.01.01.01.01.01.01.01.01.01.01.01.01.01.01.01.01.01.01.01.01.01.01.01.01.01.01.01.01.01.01.01.01.01.01.01.01.01.01.01.01.01.01.01.01.01.01.01.01.01.01.01.01.01.01.01.01.01.01.01.01.01.01.01.01.01.01.01.01.01.01.01.01.01.01.01.01.01.01.01.01.01.01.01.01.01.01.01.01.01.01.01.01.01.01.01.01.01.01.01.01.01.01.01.01.01.01.01.01.01.01.01.01.01.01.01.01.01.01.01.01.01.01.01.01.01.01.01.01.01.01.01.01.01.01.01.01.01.01.01.01.01.01.01.01.01 0 0 0 2 3 29.62 21.09 0 25.56-1.55c12.25-5.35 25.62-13.65 51.64 0 23.6 28.64 28.59 41.65 25.09 18.71 0 41.74-7.47 55.95-15.17.91 0 2.29-.82 3.22-1.3l4.4-1.14 5.31-8.96 4.03-8.04 4.02-5.27 6-8.32 9.56-10.58 10.11-.51 11.69 1.98 19.66 4.61 8.39 5.07 17.55 10.85 19.88 1.49 5.35-.72 10.06-7.79 13.68-8.23 2.91-1.74 4.88-3.69 6.83-4.31m0-3c-2.89 0-4.65 1.73-4.78 3.06v-3.1c-8.16 0-13.15 1.36-21.27 3.23-.25.09-.38.41-.57.58-.38.73-1.49 1.49-2.61 1.72-.18-.01-.25-.04-.33-.15-.3-.08-.13-.13-.23-.19-.3-.33-.65-.38-.66-.49-.38-.73-.69-1.35-.99-.79-.49-1.39-.71-2.07-.72-.9-.39-1.97-.86-2.7-1.37-1.1-.67-1.81-1.9-2.1-1.85-.13-.51.04-1.22.77-1.74.48-1.16 1.24-1.91 2.62-1.18 1.1.34 1.97 1.53 2.53 2.03 3.82.64 7.27.94 10.34.65 3.35-.93 5.81-2.81 7.91-2.17 2.54-5.06 4.03-7.11 5.3z"/><path fill="#2F2F2F" d="M112465-4.792c-4.32-2.073-6.822-4.871-11.982-5.152a2.669 2.669 0 0 1 .71-6.221l2.583-.749 1.003-2.546 1.285c-.998 2.078-1.647 3.408-2.831 3.04-.503.953-.533 6.06-.224 11.969" fill="#5dadec"/></svg></svg>
