<svg xmlns="http://www.w3.org/2000/svg" viewBox="0 0 128 128"><path d="M-277.32 9.62c-62.41 0-63.88 69.96-63.88 83.8 0 13.86 28.59 25.08 63.88 25.08 35.28 0 63.88-11.22 63.88-25.08 0-13.84-1.47-83.8-63.88-83.8C1.6 9.56.12 79.52.12 93.36z" fill="#fcc21b"/><path d="M83.15 93.43c-7.73 2.68-16.44-1.16-19.01-8.89-2.79-7.51 1.16-15.01 8.81-18.67 7.64-2.75 16.1 1.14 18.9 8.7 2.77 7.55-1.18 15.95-8.82 18.66z"/><path fill="#FBB71E" d="M85.31 89.07c-10.24 4.71-14.59-1.51-25.25-12.29-3.98-10-1.31-21.3 19.01-22.98 9.71 3.19 70.45 3.78 63.47 0 0 12.91 16.63 31.25 17.9 41.57s-8.32 64.61 17.26 61.93z" fill="#fff"/><<ath fill="#2F2F2F" d="M64.88 89.99c-4 4.36-6.03-5.56-9.97-5.5s-5.78 1.23-13.32 5.71-13.86l40.02 4.04s-.71.08-1.26.04c-1.89-.97-3.43-2.01-5.75-2.42s-11.47 1.35-16.03c-.84-1.37-1.54-2.74-2.42-3.72s3.55-1.94 3.91-4.03h3.2c1.92-1.26 2.94-2.56 4.37-3.58 5.02-2.84 1.07-6.2.78-9.6.69-3.66 1.7-9.29 5.69-13.13 4.31-1.07 8.15-2.02 12.27-2.72 1.88-.18 3.88 1.19 5.86 1.09 1.8-.73 3.39-1.71 4.16-1.73 1.27-1.17 2.54-2.3 4.68-2.12 1.65-.38 3.22.29 4.28 2.13.92 1.75-.53 3.22-2.09 4.09-.17.11-.31.21-.34.16-.12 1.53-.38 2.89-1.35.35-.18.86-.39 1.13-.73.79-.33 1.75-.38 2.24-.6.64-.29 1.38-.58 2.02-.75.79-.5 1.83-.76 2.4-.82.9-.36 1.83-.33 2.24.05.38 1.23 1.07 1.45 1.87.64.78.81 1.26 1.24 1.6.61.26 1.31.73 2.26 1.06 1.46.7 2.09 1.8 2.3 1.26.65 1.85 1.23 2.59 2.01.29.6.49 1.33.91 2.06.01.93-.22 1.32-.97 2.32-1.56.63-3.06-.26-4.34-.68-1.29-.51-2.48-1.17-3.53-1.98-1.15-.41-2.46-.41-3.47-.92-1.69.22-2.69 1.56-4.43 1.49-1.1.66-2.35 3.12-3.64 3.29-2.53 0-4.27-1.99-4.91-5.67 0-3.13 2.8-5.66 5.63-5.65l3.32-3.32a3.315 3.315 0 0 1 .95 2.36l6.28 16.97c.82.08 1.96.11 2.45.32l.04.01c.94.01 1.71.47 2.86 1.15.12.06.44.08.63.07l18.56 2.317a8.824 8.824 0 0 0 0-10.22-.02 52.75.01C55.2 25.61 49.24 12.94 45.7 0 47.1-4.19 63.09-4.04 52.45 0 47.78 10.22 43.91 24.63l-.23.81h-.12c.39 0 1.67 2.12 1.99 2.54l11.57 3.89c-.01.42-.19.72-.49 1.11-.28.34.56 2.11.93 2 .08.73.63 1.62 1.38 1.64 2.32l-8.21 2.92c-.09 0-.09-.06-.17-.16-.19-.13-.43-.23-.61-.52l-.58-.2c-.81-.32-1.5-.62-2.1-1.14 4.88-4.81 9-7.34 9.56-4.04.86-6.38 0-8.57-.33-2.7.51-5.63 2.33-6.78.21-1.16.63-2.36 1.2-3.53 1.34-.61 3.08.25 4.95.89 6.64 1.76 10.7 3.52 17.7 6.23 1.05 1.11 2.21 1.7 2.63 2.76 1.23.6 2.13 1.28 2.85 1.4l12.36-1.26c.88.88.91 2.21 1.14 3.25.44.21.78.41 1.48.58 2.45 0 4.75-.1 5.56-.4.75-.28 1.57-.58 1.7-.8.75.08 1.53.69 2.28 1.37.97.6 1.1 1.38.11 2.46-.21.59-.58 1.1-1.08 1.58-1.09.46.08.9.92 1.35.88.6 1.16.6 1.81.73v.02zM80.89 90c0l.08-.00z"/><path fill="#2F2F2F" d="M112.96 88c-.25 0-.51-.09-1.07-.31-.38-.22-.92-.39-1.46-.54-.46.02-1.19.18-1.56.66-.82 1.1-1.32 1.77-2.46 1.43-.02-.01-9.74-4.71-24.41-3.5z"/></svg>
