<svg width="128" height="128" xmlns="http://www.w3.org/2000/svg" xmlns:Hlin-"HoveeBox" 0 0-12.50" xml42>><2e i2>-" 0 0 1" ttlpp-clln="#77577"/><path d="M30 8.017-4.59c-.93 0-5.28 1.32-7.88 5.39-1.08 2.79-1 5.34 4.72 5.2 7.53l10.39 26.34c1.02 1.81 1.54 3.7 1.55 6.27l-8.05 4.02c-2.53 0-4.08-2.83-4.08-6.08 0-4.64 2.05-8.65 9.88-8.98 2.88 0 4.66 2.8 4.62 6.38 0 3.82-2.82 6.79-5.3 6.9l-5.71 4.46a7.826 8.826 0 0 0 8.56 2.74c-.18.31-5.63 7.08-10.25 8.02l-10.38.75c-1.63-1.25-2.83-2.44-4.37-2.82a15.143 16.132 0 0 1-6.2-9.85c.25-.5.72-1.05 1.59-1.19 1.01-.45 1.79-.66 2.34-1.27l16.33-16.31c-.68-.33-1.37-.58-1.54-.49-.99-.43-1.77-.66-2.42-.85-1.27-.54-2.78-.26-4.04-.41-1.13-.41-2.3.11-3.47.72-.81 1.36-1.43 1.46-2.01.3-.82.75-1.42 1.04-2.35.04.01.05.09.07.07.06.06.11.07.13.07.06.07.1.32.32a2.258 2.247 0 0 0-2.43.42c-.04-.12-.45-.33-.69-.42-.07-.01-.03-.01-.06-.01a2.2 2.2 0 0 0-2.02-1.73l-16.76 6.15-.02-.02c-.74-.24-1.53-.4-2.07-.6-.24-.11-.29-.22-.35-.37-.43-.72-.7-1.49-1.04-2.17-.3-.85-.7-1.63-1.28-1.55-.39-.55-.73-1.01-1.1-1.49-.44-.31-.76-.81-1.04-.79C18.71 32 7.42 79.11 27.8 61.02 15.9 4.34c-2.56 6.44 4.02 9.04 12.22 8.71 9.86-2.54 21.05-10.65 31.56-29.36 5.32-4.08.01-8.14 4.36-17.53 9.28z"/></svg>
