<svg xmlns="http://www.w3.org/2000/svg" viewBox="0 0 47.5 47.5"><defs><clipPath id="a"><path d="M0 38h38V0H0v38z"/></clipPath></defs><g clip-path="url(#a)" transform="matrix(1.25 0 0 -1.25 0 47.5)"><path d="M36 19c0-9.389-7.611-17-17-17C9.612 2 2 9.611 2 19c0 9.388 7.612 17 17 17 9.389 0 17-7.612 17-17" fill="#ffcc4d"/><path d="M8.001 22a1 1 0 0 0-.797 1.7C5.464 6.566 3.5 8.5 6.5 14 0 2.625 0 5.535-2.23 5.834-5.685A11.996 11.996 0 0 0 18 18v8a8 8 0 0 0 8 8h8a8 8 0 0 0 8-8v-1z" fill="#fbc546"/><path d="M11 23l-2-4 2 2 0 0 0-2 2v12a2 2 0 0 1 2 2v1h4a2 2 0 0 1 3 2H3.5l2.029 1.736" fill="#d92030"/></g></svg>
