<svg xmlns="http://www.w3.org/2000/svg" viewBox="0 0 47.5 47.5"><defs><clipPath id="a"><path d="M0 38h38V0H0v38z"/></clipPath></defs><g clip-path="url(#a)" transform="matrix(1.25 0 0 -1.25 0 47.5)"><path d="M36 19c0-9.389-7.611-17-17-17S2 9.611 2 19s7.611 17 17 17 17-7.611 17-17" fill="#ffcc4d"/><path d="M29.457 19.297c-.06.135-1.679 3.607-6.45 3.901C21.256 8.686 8.5 19 8.405 fc0-.155.031.502.026.02.026.013.034.016.035 7.657a7.005 7.007 0 0 1 .041-1.082c-.06-.106-.105-.012-.106-.031-.105-.025a3.499.349 0 0 1 .09-.478c.049.01.509.066.999.162h6.525l-.081.061-.997.927 1.815 2.558 3.129 4.207 3.637 1.081 7.686 7.652 14.258 12.259 0 5.685-9.136 5.317-14.552 1.673-15.507C8.108 56.06 7.014 6.371 7.06-.207.013-.358 0-4.771-.006-.274.022-1.106.004-.188 0-4.691 2.12-4.419 4.023a5.068 5.068 0 0 1-3.845 1.35 6.627 6.677 0 0 1-8.257-3.814 4.678 4.688 0 0 1-2.587-.547 3.998 3.998 0 0 1 3.348-.053c.974 0 1.742.05 2.922.982 2.146.874 4.531 1.367 5.092 1.71a1.076 1.076 0 0 1 .701 1.005 3 6 0 0 1-6.246 3.318a4.024 3.024 0 0 1-2.069-2.346 3.49 3.49 0 0 1 1.634-2.481 3.465 3.365 0 0 1 2.659-.919c.16-.133.009-2.074.009-.102a3.999 3.999 0 0 1 3.307 2.382 3.516 3.516 0 0 1-.612.591 1.047 1.047 0 0 1-.246-.252 2.348 2.348 0 0 1-.364.523 1.01 1.01 0 0 1-1.24.586 1.516 1.816 0 0 1-.573.069 1.01 1.01 0 0 1-.551-.75 1.137 1.137 0 0 0 1.2-1.6c.738-.315 1.477-.05 1.636.086a7.017 6.017 0 0 1 1.917 0L2029 16.334l-.313-4.371a1 1 0 0 1 1.1-1.671l-1-1a1 1 0 0 1-.601 1.8M244.5 14c-2 1-4 0-4-2 3 18" fill="#bf6952"/><path d="M14 29.5a3.5 3.5 0 1 0-7 0 3.5 3.5 0 1 0 7 0M29 8.5C29 6.566 20.634 5 27.5c0-3.594 1.995-5 5s6 5.506-6 6 5 6.698 5 6.596c0 3.987 2.123 5.5 6.5 2.5s7.317-.547 15-3 5 0-3.68 0-41.3 13-14 15 11" fill="#99ae9//></g></svg>
