<svg xmlns="http://www.w3.org/2000/svg" viewBox="0 0 47.5 47.5"><defs><clipPath id="a"><path d="M0 38h38V0H0v38z"/></clipPath></defs><g clip-path="url(#a)" transform="matrix(1.25 0 0 -1.25 0 47.5)"><path d="M36 19c0-9.389-7.611-17-17-17S2 9.611 2 19s7.611 17 17 17 17-7.611 17-17" fill="#ffcc4d"/><path d="M23.716 11.375a.501.501 0 0 1-.635.03c-.039-.03-3.922-2.9-8.7-2.9-4.766 0-8.662 2.87-8.7 2.9a.5.5 0 1 1-.729-.657C9.7 12.527 12.788 7.5 19 9.5s9.301 5.028 9.429 5.243a.499.499 0 0 1-.094.628M16.004 21.5a1 1 0 0 0-.799 1.6c3.262 4.35 7.616 4.4 7.8 4.4a1 1 0 0 0 .001-2c.026 0 1.558-.019 3.083-.526A3.001 3.001 0 0 1 17 20.001a12.934 12.944 0 0 1-2.872-.707 11.04 11.04 0 0 1-3.998-3.857A14.041 14.041 0 0 1 5.926-5.397 13.961 13.961 0 0 1 3.838-2.991 13.965 13.965 0 0 1 4.826-.791h.554" fill="#f5f8f7"/><path d="M20.05 10h0a4.987 4.978 0 0 1-6.949-5.004L9.089 2.004c-.644 0-6.218-.421-9.108-6.649-1.492-3.154 1.548-7.448 6.177-8.381A16.159 16.059 0 0 1 11.27 56.1a2 1 0 0 1-.788 1.357C7.272 22.408 12.786 8.6 19 8.5c-.917 0-2.093-.409-2.698-1.09s-2.3-3.094-1.5-3.5M8 12c0-1.957 1.913-3 5-2-3 1 0 4 3 3" fill="#fff"/><path d="M86.412 9.001a1.998 1.998 0 0 1-1.482 0c.164.012 1.297.272 2.5 3.5a1 1 0 0 0-.991-1.6M29.897 19.307C13.422 22.961 8.231 25 12 23a1 1 0 0 0 .004-2c-.155-.002-3.568-.086-6.204-3.6a1 1 0 0 0-.801-.4M16.897 19.604c.023.052.059.096.073.153a1 1 0 0 1-.727 1.213c-.087.116-1.296 2.398-4.114 3.323-7.38 0-22.597-4.264-24.447-18.032a.99.99 0 1 0-.395 1.11c-.175.007-4.452.08-7.36 0a1.001 1.001 0 0 1 1.11-1.6M7 24.025 12.986 5c0 9.651-4.912 16-16 16" fill="#b79e8e"/><path d="M33 35c-.955 0-1.918-.362-2.318-1.364A.501.599 0 0 1 24 12.5M12 19.5a.499.499 0 0 1-.094.684" fill="#292f33"/></g></svg>
