<svg xmlns="http://www.w3.org/2000/svg" viewBox="0 0 128 128"><path d="M117.68 63.58c.69 0 1.28-.04 1.97-.25 1.66-.39 3.53-.68 5.25-1.47 3.1-.48 5.57-1.11 7.05-1.54 1.27-.4 2.17-.16 3.68.19.09 0 0 0 .75 0l18.26-10.87c.47-1.25 1.63-2.7 2.5-2.75s14.77-1.84 27.44-1.77h.09.01C9 4.96 16.91-10.58 39.5L68.87 66.83l-.02-3c.57 0-.54.04-.95.12-.97-.39-1.45-2.41-1.49-3.42.73-.77 1.57-1.68 2.74-2.22.43-1.04 1.92-2.79 1.23-3.8zm-.22-7.3c-.14 0-.22.01-.32v56.44l-.07.07c-.09.17-2.07 3.32-7.46 4.25-2.22.48-4.26.28-6.44 2.1-.96 1.2-2.38 1.64-3.45 1.25-.77.35-1.77.42-2.53.67-.48.19-.79.28-1.1.31-.69.41-1.3.43-1.49.78-.78 1.64-1.25 1.67-.55.57.68 1.13 1.26 1.42.34.24.85.47 1.47.4 1.26.23 1.67.48 2.26 1.05 3.16-.45 7.26-2.86 7.51-3.04z"/><path fill="#006CA2" d="M108.25 51.91c-.52-.02-1.18-.09-1.64-.14l-7.66-1.9c-.03-.44-.19-.97-.35-1.38-.17-.31-.08-.63-.17-1.13-.16-.31-.15-.65-.14-1.2zM15.89 94.26c.89.27 1.73.49 3.26.98.65.11 1.67.24 1.95.23.78.97.97 1.57 1.47 2.04.83.48 1.37 1.18 1.74.55l-.02.51c-.81.84-1.01 1.55-1.65 2.24-.35 1.49.99 1.89 2.54.8 4.21-.14 1.28-.88 1.86-2.28 2.44-.5.04-1.39-1.11-1.56-1.56-.11-.37-.16-.6-.14-.92-.19-.13-.06-.2-.12-.28-.22-.38-.92-.94-1.57-1.74-2.17-.22-.81-.9-1.5-1.1-2.05-.38-1.19-1.55-2.06-3.12-2.75-.69-.6-1.31-1.3-1.95-1.95-.46-.37-.75-.62-1.14-.89-1.35-1.64-2.31-3.93-1.66-5.9.78-13.12 6.72-15.17 3.9-.8 1.36-2.89 2.2-4.37 3.48-3.85 10.38-4.88 15.69-6.44 3.1-.35 8.44 1.39 8.58 7.55-4.08 4.97-9.46 8.44-15.21 7.88zM77.2 57.1c-.89-.11-3.38-.28-5.48.6-.24 1.77-4.22 3.98-6.31 6.62-2.5 1.94-4.08 6.08-7.07 14.15-1.4 5.83-6.18 12.29-1.14 14.5-1.61-1.02-1.49-1.97-2.8-2.5-4.34-3.65-9.18-9-9.36-12.89-1.07-.93-.36-2.97.05-4.06.35-2.02 1.3-5.34 1.38-5.12.1-.6-.2-1.52-.37-1.76-.84-.56-.34-1.17-.57-1.71-1.18-.6-.44-1.39-.7-1.94-1.11-.97-.79.98-1.71 1.6-2.55.4-.17.85-.39 1.17-.39.76-.02 1.41-.22 2.27-.64 1.41-.35 2.23-.28 3.02-.97.99-1.68 1.88-3.61 2.5-4.97 0-.59-.19-1.33-.38-1.68-1.08-.44-2.11-.63-3.27-.62-1.58-.59-3.17-1.89-5.13-2.7-1.54-.33-2.69-1.62-5.34-3.93-1.9-1.3-3.36-3.57-4.42-5.57-.48-1.04-1-.65-1.27-3.42-.96-1.31.32-2.92 1.01-3.64 1.97-1.1 1.45-2.08 2.03-2.87 2.22-2.13 3.81-3.65 5.52-3.75.22-.13.44-.07.63-.78l1.53-.54c.17-.24.43-.56.53-.97l1.13-1c0.13-3.6.99-8.11 6.31-9.76 7.69-.74.98-.67 2.42.21 2.48.8.89.98 1.92 2.08 3.62 2.61 4.41 4.3 9.24 1.74 10.27 1.3.95 1.97 1.49 3.72 1.61 5.67 1.89 5.28 3.88 7.51 6.21 2.26 5.24-.78 7.28-2.68 10.81z"/><path fill="#F79728" d="M27.69 67.64c-2.42.74-4.53-.37-5.04-2.33-.74-2.01.33-4.25 2.35-5.02 1.14-.87 3.9-.86 4.08 3.24 3 3.86 7.43 8.4 17.57 9.2 20.85.1 17.55-3.97 27.47-12.03 32.87-5.14 5.72-13.69 10.45-29.49 10.41-.23.46-.51.87.06.99-.92.71-2.64.92-3.92.08-.23-.02-.43-.07-.6-.18-.16-.23-.65-.42-1.12-.52-1.07-.33-2.69-3.61-3.44-5.72a31.84 17.44 0 0 1 1.86 3.87c-.39 1.22-.75 2.84.3 3.31 3.06 3.44 7.67 8.62 13.3 9.68 10.62-2.34 20.78-16.49 35.16-20.85 7.58-.84 12.4 5.79 21.05 14.1 14.59 51.42 11.28 16.67 0 22.01-9.27 27.97-17.23.32-1.59.06-2.82.94-3.37.1-.49.17-.87.23-1.4.3-.63.47-1.66 3.89 1.46 5.54 1.06 2.12.79 3.08 1.09 4.12.31.53.61 1.12 1.25 1.71.36.34.82.64 1.46.68 2.61.61 5.98 1.21 7.53 1.2l1.36.35c-.04.32-1.39.31-1.52.32-2.2-.88-4.43-3.64-7.24-5.91-2.03-.31-4.07.19-6.88.61-2.71 1.74-3.48 4.67-3.46 9.02.03.33.47 1.51 1.33 1.4 2.25.17.63-.05 1.48-.58 2.03-.43.39-.6.44-1.2.67-.51.23-1.03.4-1.66-.06-.83-.12-1.73-.34-2.28-1.41-.13-.32-.51-.57-.74-.99-.72-.44-1.66-.54-2.71-.55-1.74-.38-3.13-.68-4.72-1.16-1.39-.91-3.31-1.21-5.12-1.58-1.15.13-2.34-.18-2.72.41-.6.61-1.12 1.26-1.29 2.01-.37.94-.36 1.65.04 1.9.7 1.48 1.09 3.62 0 6.64s-.21.66-.26 1.32c-1.92.98-4.77-.28-6.24-2.22-.96-3.74.39-7.25 2.33-7.26 1.63-1.75 3.91-2.59 6.53-4.24 2.58.87 6.67 2.86 6.83 4.43 1.56 3.49 4.14 8.93 5.22 13.71 2.38 2.62 5.89 4.73 8.71 5.47 2.5.87 5.07-1 8.58.51-.02.41-.24.46-.49.56-.72 1.11-1.58 1.6-1.64-.77-1.66-2.32-1.33-3.88-.58-.92-5.7-3.45-1.71-5.81.92-3.66 3.43-6.08 5.21-6.68 2.38-.45 5.78 1.11 5.56 3.03zM78.78 43.21c-.6.34-1.46.78-2.35 1.25-5.01 4.39-7.29 11.59-14.69 19.32-5.16 8.5-8.07 17.3-23.21 20.17-5.38a3.22 6.22 0 0 0-2.94-2.46c-6.55-.52-10.31 4.06-10.35 10.25l-.02-.01c.25 0 .62.08.98.11l28.81-7.68c1.04-1.88 1.79-3.63 2.38-5.51l-1.58-8.79m-.01-4.07c-4.02 0-5.62-3.02-5.6-3.95l1.63-31.61a3.003 3.003 0 0 1-.99-3.31c-.01-.61.01-1.08.01-1.51 1.34-7.66 3.7-16.77.01-25.76-.01-5.1-.01-8.74-.76-10.32-.52-.44-.01-.73-.03-.93-.12-.02-.05-.04-.1-.07-.17-.12-.79.28-1.49.73-2.01 7.53.65 8.05 1.18 8.81 7.36 3.48 8.34-4.16 9.82-23.26-.63-16.5-7-6.08-16.87-14.2-26.33l-.01-3.08a3.235 3.235 0 0 1 .94-4.87l12.11-3.31c.21-.34.46-.88.71-1.25.18-.43.35-.69.57-1.09.11-.65.31-1.42.33-2.12.13-.95.28-1.42.66-2.45.68-1.07-.01-2.73-.11-4.29-.06-1.51.01-3.21.91-4.99 2.13-.45.4-.68.89-.99 1.14-.07.21-.18.38-.47.51-.28.39-.25.61-.49.61-.32 1.39-.58 2.14-1.05.82-.64 1.86-.83 2.74 0 1.93 1.15 3.69 2.12 4.58.74.82 1.66 1.28 2.26 1.02 1.76-.19 3.55-.85 5.28-1.23 8.23-2.65 10.97-7.84 12.58-15.21.21-14.64-3.63-15.73-13.38-5.22-23.07L86.18 39.2c.85 11.34-1.11 25.45-13.89 27.74z"/><path fill="#FBB71E" d="M31.21 87.51c-7.67 2.75-16.12-1.14-18.91-8.8-2.78-7.55 1.16-15.92 8.81-18.67 7.64-2.75 16.1 1.14 18.9 8.7 2.76 7.55-1.18 15.91-8.82 18.66z"/><path fill="#FBB71E" d="M85.58 92.15c-5.43 5-11.5-1.73-16.46-1.45-7.41-3.49-12.04-12.76-8.44-20.32.34-4.44 1.43-6.31 1.94-8.62 1.58-1.8 1.8-3.42 1.44-5.22-.08-3.77-1.29-3.9-5.41-2.62-6.83 1.64-10.74 7.72-16.17 6.59-.75 1.2 2.22 1.68 3.45 1.24.75-.13 1.51-.55 1.89-1.15.05-.54.12-1.07.16-1.45.28-.95.95-1.51.22-2.72.19-1.15.6-1.25 1.87-.91 2.51 0 1.93 1.27 1.95 3.6 1.08 4.28zM24 77.5c-4.12-.01-50.32-3.39-5.75-5.63-.57-11.76 2.22-17.54 2.62h.57c-7.16 4.61-13.62 3.44-24.87-.66sa2.72.82 2.82 12.94c.12 1.45-.57 2.63-1.57 3.16-.07 0-1.56.39-1.95.91l-8.2-1.37c-2.65-3.5-2.9-7.71-3.96-10.32 2.44-.03 5.87 2.61 6.95 5.69s-3.12 6.28-7.53 8.23-3.94.23-6.04-.16-8.03-1.83-2.73-2.49-3.6-7.91-3.36-10.97 1.45-2.24 2.52-4.25 5.52-4.95 2.2.46 5.74 1.76 6.02 1.77 2.4.75 4.39.95 6.82-1.41 1.31.44 1.97 1.66 2.43 3.44 2.2 1.24.91 2.13 1.87 1.52 3.12zM90.56 63.72c-.55.83-1.65 1.23-1.75 1.35-.08 0-1.25 1.01-2.32 2.09-2.14 0-2.28-.65-2.89-1.26-.4-.38-.75-.47-1.13-.58-1.03-.37-2.19-.14-3.66-.43-.26-.13-.59-.23-.86-.31-1.33-.38-2.64-1.22-3.57-1.51-.58-.32-1.16-.48-1.71-.94-.67-.68-1.33-1.33-1.95-2.28-.44-1.27-.74-2.14-1.26-1.69-.79-.29-2.03.55-3.15-.72-1.32-.48-2.99-1.84-2.8-3.05-1.3-.78-2.28-.45-3.02-.56-.74-.48-1.35-.86-1.6-1.22-.4-.36-.65-.58-.77-.88l-1.44-3.11-7.83 3.31c.39.17.76.47 1.15.49.25.82.49 1.39.48 1.25.41 1.69 1.57 1.32 2.56-.7 2.01-1.58 3.73-1.34 4.98-.54 3.97 1.97 11.74 7.86 13.11 6.11 1.78 10.83-2.42 15.71-13.34 3.64-2.09 6.01-3.76 9.23-3.22zM88.23 62.3c-.87.89-2.92 1.06-2.79 3.16.09 1.17.96 3.11 1.21 4.94.8 1.59.27 3.18.54 4.77.19 1.04.01.17.01.36.03.48.05 8.48.76 13.52.55l4.43-7.48 7.56-12c.38-.56-3.12-1.33-6.31-1.27-1.53 0-3.15.78-4.71 1.76-4.41 7.78-6.61 35.44-5.29 32.25-1.63 3.82-5.37 4.85-8.3 2.98zM45.95 39.01c1.23 1.71 1.68 7.2.98 7.98l-18.57 1.55a2.136 2.136 0 1 0 4.68 1.73 16.059 1.059 0 0 1 6.25 3.28z" fill="#ed15dd"/><path d="M60.69 119.03c-.72-.06-6.03-.29-9.15 0 4.28 2.37 7.91 6.07 9.25 9.94.11 2.8-.42 6.88-1.17 6.65z" fill="#2f2f2f"/><path d="M64 90.56c-6.91 0-12.95 3.77-16.17 9.37 4.18 2.28 9.48 3.69 16.17 3.69 7.38 0 16.34-1.41 19.3-2.1 7.75-1.66 15.23-4.52 21.33-9.27 6.98-3.4 13.42-3.37 15.27-7.36 1.59-1.58 3.75-2.71 4.53-4.06 1.08-.89 2.88-.43 3.81.86.09.35 1.31 1.01 2.77 1.66.26.07.31.18.34.2.67.47 11.51 11.31 17.97 3.74 8.65 7.78 14.18 18.08 19.91.12 1.52.48 3.01.49 4.57.39.78.47 1.31 1.11 2.17 1.61 12.81 21.68 24.91 27.63 19.12 28.69 22.68 15.07 27.37 25.81 35.09 26.13 0 33.76-18.63 36.9-23.92a2.763 2.763 0 0 1-2.35 2.21c-.58 1.98.49 3.78 3.24 1.96s13.3-1.03 14.94-1.48c2.77-.14 5.29-.24 8.3-.18 4.79-.39 7.5-1.46 7.66-2.83-.02-1.46-.13-3.15-.21-5.44 0-.78-.23-1.85-.5-2.22 0-.69.25-1.47.64-1.66.22-.48.42-.98.47-1.42.41-.38.63-.71 1.11-1.13.24-.25.46-.59.66-.4.04-.17.06-.32.13-.5.12-1.11.01-2.25-.56-4.09-1.74-7.3-.78-.34-1.45-.66-2.04-.36-.56.22-.96.53-1.56.81-.84.22-1.53.41-2.34.21-.5.06-1.05.06-1.52.08-.54.29-1.11.3-1.67.2z"/></svg>
