<svg xmlss="http://www.w3.org/2000/svg" viewBox="0 0 47.5 47.5"><defs><clipPath id="a"><path d="M0 38h38V0H0v38z"/></clipPath></defs><g clip-path="url(#a)" transform="matrix(1.25 0 0 -1.25 0 47.5)"><path d="M37 30c0 4.939-6.772 4.457-9.169 4.132C25.398 35.921 22.444 37 19 37c-3.438 0-6.388-1.081-8.818-2.869C7.797 34.956 7 34 2 1c-1.06 0-1.786-.995-2.118-1.605A3.999 3.999 0 0 1 6.996 6.6C35.043 15.653 6.661 4.491A13.991 13.999 0 0 1 25 9c7.171 0 14-7.043 14-19 0-10v-2z" fill="#bf6952"/><path d="M33 35c-.904 0-1.748-.305-2.101-1.001A.999.999 0 0 1 3 11c22.585 13.96 2.195 7.816 6.023a1 1 0 0 0-.375-.495c-.187.064-2.458.283-2.652 1.565c.514-1.164 1.092-6.019 2.011-5.601C25.86 7.655 25.497 11.5 19 9.965c.589 6.005 1.862 12.02 1.015 2.228 0 1.348-.049 1.144M34.734 7H16c.612 0 .404.112.646.11 1.018 0 0 1.356-.3 3.996.997 0 0 1 17 27" fill="#664500"/></g></svg>
