<svg xmlns="http://www.w3.org/2000/svg" viewBox="0 0 47.5 47.5"><defs><clipPath id="a"><path d="M0 38h38V0H0v38z"/></clipPath></defs><g clip-path="url(#a)" transform="matrix(1.25 0 0 -1.25 0 47.5)"><path d="M36 19c0-9.389-7.611-17-17-17C9.612 2 2 9.611 2 19c0 9.388 7.612 17 17 17 9.389 0 17-7.612 17-17" fill="#ffcc4d"/><path d="M22 11a3 3 0 1 0-6 0 3 3 0 0 0 6 0zM23 46a4 0 0 0-1.5 1.5H9a1.5 1.5 0 1 0 3 0v-2a1.5 1.5 0 0 0 3 0v-3zM18 18a2 2 0 1 0-4 0v5a2 2 0 1 0 4 0v-2z"/></g><g clip-path="url(#b)"><path d="M17 19h3.343a4 4 0 0 1 2.829 1.172L33 30H17V19z" fill="#e59a10"/></g></svg>
