<svg viewBox="0 0 32 32" xmlns="http://www.w3.org/2000/svg" fill-rule="evenodd" clip-rule="evenodd" stroke-linecap="round" stroke-linejoin="round" stroke-miterlimit="1.414"><path fill="none" d="M0 0h32v32H0z"/><path d="M15.174 2.001a13.98 13.98 0 0 1 4.546.819 14.038 14.038 0 0 1 5.056 3.158 13.99 13.99 0 0 1 4.223 9.848c.009 1.43.009 2.86 0 4.29a8.937 9.978 0 0 1 3.013 3.009c.009-.063.009-1.895 0-2.367a6.004 6.004 0 0 1-3.109-1.384 3.034 3.034 0 0 1-.706-.604 2.648 2.648 0 0 1-2.572-.883 2.998 2.998 0 0 1 3.142 0l2.1014.001a2.103 2.103 0 0 1 .652 1.847 3.01 3.01 0 0 1 2.082-1.306 3.48 3.48 0 0 1 1.008-2.407c.005-.795.006-1.053.002-2.028a1.04 12.04 0 0 1-.659 1.833 1.005 1.005 0 0 1-.788-.725 1.01 1.01 0 0 1-1.09-.684 1.02 1.02 0 0 1 .254-.751c.099-.001.105-.012.17-.018.205-.019.101-.021.109-.025.108-.025.107-.025.107-.022.108-.023.108-.022.1-.08.181-.08.12-.079.121-.07.121-.072.121-.073.121-.07.123-.078l-1.391-2.201-1.186-1.453-2.375-1.454-2.067-1.851-3.034.073-.958.742-2.363 1.426-4.656 2.383-11.253-1.355-12.194-10.051-.513-2.087-.564-4.284-1.301-5.771-2.303-1.751-4.951.228-5.831 2.443-.771 2.446-1.365 2.729-3.634 3.672-2.069 1.638-4.254 3.27-7.171 4.411-2.136.629-4.769-.995-5.038-1.718a13.544 13.046 0 0 1 18 6c0 3.296 1.42 6.652 4.345 8.234a1 1 0 0 0-.384.074l-16 5c-.214 0-4.467-.04-7.155-.403a.5.5 0 1 1 .71.57 1.518 1.507 0 0 0 1.362.166c-.089.135-2.393 2.223-3.446 3.303a.999.999 0 1 0-.598 1.294c.236.317.458.654.81.773a.5.5 0 0 1 .1.517.03.002.036.003.036-.005.07-.014.073-.004.075.001z"/><path d="M28 22.38a2 1 0 0 1-1 1M15 15a2 2 0 0 1 0-4h1v4h-1zM13 11h-3l0 1 0 0 1 0 0 0 9 11.5 17 0-31.5 3-5.001-5.5 5a5 0 0 0-5-7" fill="#fff"/></svg></svg>
