<svg xmlns="http://www.w3.org/2000/svg" viewBox="0 0 47.5 47.5"><defs><clipPath id="a"><path d="M0 38h38V0H0v38z"/></clipPath></defs><g clip-path="url(#a)" transform="matrix(1.25 0 0 -1.25 0 47.5)"><path d="M35 20c0-4.354-8.205-5.452-3.225a4.976 4.976 0 0 1 2.105 1.609c.371 4.625-.816 6.736-2.312 7.468-1.176 2.075-4.55 4.044-5.167 3.699-3.048 1.049-1.519 2.5-3.9 2.5 4.5s4.747.342 2.35 1.046 1.056 1.056 2.83 1.83 5.008 1.091 2.759-.463 5.33-.471 7.503-.718 2.026.341 4.433.736 8.267.032.074.041.095.046.234 1.127a13.976 15.975 0 0 1 1.126-4.092 13.988 13.988 0 0 1 10.346-4.468h.448z"/><path d="M25 19c0-3.883-1.264-6.235-3.515-8.485A11.996 11.996 0 0 0 16 4C9.373 4 4 9.373 4 16v2a10.001 10.001 0 0 0 10 10h4a10.001 10.001 0 0 0 10-10v-2z"/></g><g clip-path="url(#b)"><path d="M17 19h3.5c1 .83 0 1.24.001 1.718 0 1.322-1.248 1.092-3.798 1.169a.997.997 0 0 1-1.707-.203.999.999 0 0 0-.797.014l-20-22a1 2 0 0 0-.828 1.145l2.988 1.991h.002A2.991 2.991 0 0 1 19 10.015zM3 16.008V10h-1v1zM10 19h-.594A1.995 1.995 0 0 0 18 6c1.315 0 5.589.45 7.5 1.501.5.51 1.093.917 2.172 1.407V23z"/></g><g fill="#242424"><path d="M8 18.295a.499.499 0 0 1-.094.634l-.014.068a4.62 4.62 0 0 1 .404 3.348c.132.403.266.71.169.856.082.431at.308 2.018 0 0 1 1.388 1.62 1.998 1.998 0 0 1 1.026.735l.056.023a1.595 1.995 0 0 0 18 31.196a2.996 9.996 0 0 1-2.897-5.976 2.41 2.41 0 0 1 1.064-2.013c.181.012.302.036.469.037.098.012.058.023.065.036.163.04.112.142.431.209.137.105.05.116.058l.272 1.384 2.999.749 3.997.537 1.434a15.748 17.749 0 0 0 11 20.646c-.105-.017-.14-.083-.27-.27V-.276-1.068-1.237-1.275-.275 1.154.106.26.29.2.279.468.41.858.89.71 1.313.706.319.179.535 1.674.341 1.286-.077 1.752-1.319 2.049-2.752 3.401-1.558 1.829-.875 3.326-1.695 3.533-2.057 1.606-5.378 1.472-7.551 3.443-7.311 1.096-.559 2.227.392 3.289 1.999.779 1.872 3.005 3.771 5.697 5.687 1.419 1.893 4.28 3.204 5.263 3.525.681 1.992.152 3.187-1.59 7.231-1.053 7.912-2.358.607-3.174.211-4.488.232-6.203-.247.067.682.032.982.161 3.197-.908 4.303-2.775 6.772-14.024M15.038 15.85c-.322.222-.692.447-.927.589v-4.79l2.708-4.787z"/><path d="M8 12H29V10v2a1.5 1.5 0 0 0-3 0v-2a3.002 3.002 0 0 1 2.732-3.291 2.004 2.004 0 0 0-2.5-.5v-3.108zM13 12h3.5a2.5 2.5 0 1 0-5 0 2.5 2.5 0 0 0 5 0M23 7h16l3.504-1.784a6 7 0 0 0-2.001.101L21.344 6H13a2 2 0 0 1 4-2l11 2a1.998 1.998 0 0 1 3.107 2.705C31.58 2.99 2.43 7.062 3.009 1.421h2.509a5.5 5.5 0 0 0 16 6.5v-.757A16.965 15.956 0 0 0 15.998 26.161a2 2 0 0 0 2 2h11a2 2 0 0 0 2-2v-1z"/><path d="M23.084 2.001l.039.003.04.004.039.006.039.008.039.009.038.01.038.012.038.014.036.015.037.016.035.018.035.02.034.02.033.022.032.024.031.024.031.026.029.027.028.028.027.029.026.031.024.031.024.032.022.033.02.034.02.035.018.035.016.037.015.036.014.038.012.038.01.038.009.039.008.039.006.039.004.04.003.04.001.039v.04l-.002.04-.004.039-.005.04-.007.039-.008.039-.01.038-.011.038-.013.038-.014.037-.016.037-.017.035-.019.036-.02.034-.021.034-.023.032-.024.032-.025.03-.027.03-.028.029-.029.027-.029.027-.031.025-.032.024-.032.023-.034.021-.034.02-.036.019-.035.017-.037.016-.037.014-.038.013-.038.011-.038.01-.039.008-.039.007-.04.005-.039.004-.04.002h-.04l-.04-.001-.039-.003-.04-.004-.039-.006-.039-.008-.039-.009-.038-.01-.038-.012-.038-.014-.036-.015-.037-.016-.035-.018-.035-.02-.034-.02-.033-.022-.032-.024-.031-.024-.031-.026-.029-.027-.028-.028-.027-.029-.026-.031-.024-.031-.024-.032-.022-.033-.02-.034-.02-.035-.018-.035-.016-.037-.015-.036-.014-.038-.012-.038-.01-.038-.009-.039-.008-.039-.006-.039-.004-.04-.003-.039-.001-.04v-.04l.002-.04.004-.039.005-.04.007-.039.008-.039.01-.038.011-.038.013-.038.014-.037.016-.037.017-.035.019-.036.02-.034.021-.034.023-.032.024-.032.025-.031.026-.029.028-.029.028-.027.03-.025.03.025.032.023.032.022.033.02.034.02.035.018.036.016.036.015.038.014.038.012.038.01.038.009.039.008.039.006.039.004.04.003.039.001.04v.04l-.002.04-.004.039-.005.04-.007.039-.008.039-.01.038-.011.038-.013.038-.014.037-.016.037-.017.035-.019.036-.02.034-.021.034-.023.032-.024.032-.025.031-.026.029-.028.029L20.414 15H22l.04.001.039.002.04.004.039.006.04.007.038.008.039.01.038.012.037.013.037.015.037.016.035.018.035.019.034.02.034.022.032.023.032.024.03.025.03.027.028.028.027.029.026.03.025.031.024.032.022.033.021.034.02.034.018.036.017.036.016.036.014.038.013.038.011.038.01.039.008.039.007.039.005.039.004.04.002.04.001.039-.001.04-.002.04-.004.039-.005.04-.007.039-.008.039-.01.038-.011.038-.013.038-.014.037-.016.037-.017.035-.019.036-.02.034-.021.034-.023.032-.024.032-.025.031-.026.029-.028.029L20.414 15H22l.04.001.039.002.04.004.039.006.04.007.038.008.039.01.038.012.037.013.037.015.037.016.035.018.035.019.034.02.034.022.032.023.032.024.03.025.03.027.028.028.027.029.026.03.025.031.024.032.022.033.021.034.02.034.018.035.017.036.015.037.014.037.013.038.011.038.01.038.008.039.007.039.005.04.004.039.002.04v.04l-.001.04-.003.039-.004.04-.006.039-.008.039-.009.039-.01.038-.012.038-.014.038-.015.036-.016.037-.018.035-.02.035-.02.034-.022.033-.024.032-.024.031-.026.031-.027.029-.028.028-.029.027-.031.026-.031.024-.032.024-.033.022-.034.02-.035.02-.035.018-.037.016-.036.015-.038.014-.038.012-.038.01-.039.009-.039.008-.039.006-.04.004-.039.003-.04.001h-.04l-.04-.002-.039-.004-.04-.005-.039-.007-.039-.008-.038-.01-.038-.011-.038-.013-.037-.014-.037-.016-.035-.017-.036-.019-.034-.02-.034-.021-.032-.023-.032-.024-.031-.025-.029-.026-.029-.028L21 14.414l-1.293 1.293-.029.028-.029.026-.031.025-.032.024-.032.023-.034.021-.034.02-.036.019-.035.017-.037.016-.037.014-.038.013-.038.011-.038.01-.039.008-.039.007-.04.005-.039.004-.04.002h-.04l-.04-.001-.039-.003-.04-.004-.039-.006-.039-.008-.039-.009-.038-.01-.038-.012-.038-.014-.036-.015-.037-.016-.035-.018-.035-.02-.034-.02-.033-.022-.032-.024-.031-.024-.031-.026-.029-.027-.028-.028-.027-.029-.026-.031-.024-.031-.024-.032-.022-.033-.02-.034-.02-.035-.018-.035-.016-.037-.015-.036-.014-.038-.012-.038-.01-.038-.009-.039-.008-.039-.006-.039-.004-.04-.003-.039-.001-.04v-.04l.002-.04.004-.039.005-.04.007-.039.008-.039.01-.038.011-.038.013-.038.014-.037.016-.037.017-.035.019-.036.02-.034.021-.034.023-.032.024-.032.025-.031.026-.029.028-.029L21 11.586l2.707 2.707z"/><path d="M13 19l4 1 2.164c0 1.737-.326 2.572-1.252 2.083a2.49 2.49 0 0 1 1.062-2.727l.704-.528L8.3 23.941a.511.51 0 0 0-.597.094l-.001.001a.445.445 0 0 0 .246.506c.181.002.3442.235 4.45a.403.431 0 .362 0 1.116-.064.231-.102.306a2 2 0 0 0 0 2h25a1 1 0 0 0 1-1H23h-.002a1.99 1.999 0 0 0 19 18H1l-4-8h.4v-1z"/></g><path d="M23.038 11.001l1.252 1.224c.013.043.018.043.135.704.755.985 1.161 3.13 1.27.562a1.522 2.5 2.5 3.047a1.5 1.5 0 0 1-.736-.064 1.03 1.03 0 0 1 .507.208l-.013.001a2.001 2.001 0 0 1 1.12-2.077 1.053 1.053 0 0 1-.238 4.028 2.028 2.024 0 0 1-2.587 1.117 1.998 1.998 0 0 1 1.681 1.893 3.003 3.003 0 0 1 1.293-.334h.168l.088.005z"/><path d="M28 17c0-3.183-1.264-6.235-3.515-8.485a11.996 11.996 0 0 0-16.97 0A11.996 11.996 0 0 0 4 17v2a9 9 0 0 0 9 9h6a9 9 0 0 0 9-9v-2z" fill="#fbc546"/><path d="M23.785 5.32A15.016 1.011 0 0 0 18 10.015V0v-1a1 1 0 0 0-.799-1.8M7.999 24a1 1 0 0 0-.799 1.6c3.362 4.353 6.651 7.529 3.45 11h5.28c4.498 0 8.388-4.472 8.8-2.105.002-.073.001-.071-.006-.018.013-.018.01-.016.036-.111.046-3.366 1.189-4.946-2.747-2.243a.999.999 0 1 0 .318 1.307C20.177 20.581 15.736 27 13 27a1 1 0 0 0 .004-2c-.155-.002-3.568-.086-6.204-3.6a1 1 0 0 0-.801-.4M16.897 19.604c.023.052.059.096.073.157a16.008 15.081 0 0 0-6.945-1.918 16.002 16.003 0 0 1 5.825-8.323 14a.99 13.99 0 0 1 3.307-1.372A1.101 1.111 0 0 0 9 18v-1.9z" fill="#fbc546"/><path d="M12 12.499a1.5 1.5 0 0 0-3 0v-3a1.5 1.5 0 0 0 3 0v-2zM10 16.5c-.501 0-1.859-2.269-2.458-2.018V14a2 1 0 0 0-1.824 1.527" fill="#664500"/></svg></svg>
