<svg xmlns="http://www.w3.org/2000/svg" viewBox="0 0 128 128"><path d="M63.89 9.64C1.58 9.64.1 79.5.1 93.33c0 13.83 28.56 25.03 63.79 25.03 35.24 0 63.79-11.21 63.79-25.03 0-13.83-1.47-83.68-63.79-83.68z" fill="#fcc21b"/><path d="M63.94 94.57c-.18.27-4.32 6.53-13.26 6.55-9.71-.63-12.58 1.06-14.25-1.37-6.54-.52-10.01-4.83-10.95-9.39 0-4.76 4.73-10.75 11.12-16.04 16.83-1.77 2.24-3.74 4.73-7.67 5.14-3.65 0-6.58-1.13-9.41-3.12-1.55-1.04-3.07-2.8-3.51-5.28-.68-2.01-.36-4.83-.81-6.64-.42-1.62-.29-3.03-.82-4.96-1.07-1.38.18-3.17.77-5.62 1.91-9.52 7.79-16.29 15.1-14.41 17.85-1.23 1.05-3.22.78-4.62-.65 2.54-.91 5.69-1 8.49-2.65 1.48 5.91 6.49 12.83 12.82 4.56 8.35 5.7 14.25 5.34 21.38z"/><path fill="#FAB020" d="M30.51 88.92c-8.8 3.31-17.47-1.23-20.55-9.46-3.08-9.36 1.28-17.56 9.52-20.48 8.41-3.03 17.78 1.27 20.87 10.12 3.58 9.7-14.23 19.58-20.61 20.68z" fill="#f9a324"/><path d="M72.74 71.34c-13.37 4.1-28.94-1.01-34.48-8.12-5.49-9.65 1.89-15.08 9.8-29.78 8.05-4.09 14.28 1.05 17.91 10.19 2.95 7.43-10.05 8.26-14.37 10.07-16.05 9.39-20.81 14.46-2.49 27.71 1.46 31.27 10.81 4.39 8.7-3.98 17.73-10.38 21.86z" fill="#f9a524"/><path d="M73.05 38.74c-13.75 5.42-28.6-1.64-37.32-14.79-8.8-18.46-14.66-31.01-24.04-22.94-16.97 0-30.36 15.91-43.49 16.37-2.54 0-12.09 1.07-17.27 1.35-6.31-3.13-8.81-.94-10.71.32-1.21.03-2.82-1.08-2.78-2.01-.41-1.07-.02-2.74 1.2-3.53 1.17-.84 2.68-.33 3.02.63l2.43 5.19-.01 6c-1.15 0-3.35-1.35-3.93-3.03l-4.3-12.36c-.95-.93-.96-1.24-1.74-1.89-.92-.16-.73-.42-1.1-.66-.6-.29-1.1-.43-1.63-.42-2.01-.3-2.94-.98-3.71-1.75l-1.59-11.59a2.564 2.64 0 0 1-.8 0 2.737 4.285 0 0 1-2.64 2.37z"/><path fill="#2F2F2F" d="M65.46 69.02c-2.79-2.5-6.63 4.79-9.9 3.98-1.97 0-3.65.34-5.26.92l-1.51 1.59A6.006 5.006 0 0 1 6.5-.25c-.07.01-5.35 3.24-7.36.72-3.35 1.25-5 1.72-7.35.27-1.07.06-2.29-.05-3.76-1.12-.47-2.69-.16-3.71.72-2.27.93-3.76 1.73-5 .3 1.31-1.24 2.71-1.78 3.64-1.24 1.45.34 1.97 1.61 1.83 3.29.77.82 1.32 1.77 1.77 2.14.55 5.27-1.25 11.11-1.05 17.01 3.73.9 1.24 1.64 2.4 2.22 3.25z"/></svg>
