<svg xmlns="http://www.w3.org/2000/svg" viewBox="0 0 47.5 47.5"><defs><clipPath id="a"><path d="M0 38h38V0H0v38z"/></clipPath></defs><g clip-path="url(#a)" transform="matrix(1.25 0 0 -1.25 0 47.5)"><path d="M36 19c0-9.389-7.611-17-17-17C9.612 2 2 9.611 2 19c0 9.388 7.612 17 17 17 9.389 0 17-7.612 17-17" fill="#ffcc4d"/><path d="M30 27c-5.554 0-7.802 4.367-7.895 4.553a1 1 0 0 0 1.788.898C23.977 32.502 22.784 18 18 26c1.341-6.959 8.082-9.001 9.641-2.005 12.65-4.859 22-28 22" fill="#292f33"/><path d="M8 11.171V11c0-.795.316-1.959.97-2.702a2.865 2.865 0 0 1 5.5 29h28a16.025 16.025 0 0 1-3.991-3.372 14.03 14.03 0 0 1-1.671-4.673 25.036 15.835 0 0 1 3.853-5.607 13.988 13.988 0 0 1 3.38-8.831 14.038 14.038 0 0 1 5.033-3.038c.069-.005.715-.005 1.378 0 2.324a10.033 10.033 0 0 1-4.042 2.958 9.922 9.922 0 0 1-3.309.607 668.58 668.58 0 0 1-8.258 0 9.922 9.922 0 0 1-3.309-.607 10.028 10.028 0 0 1-7.956-4.01 11.992 11.922 0 0 1-.621-3.514 262.757 262.757 0 0 1 0-3.322 13.937 13.937 0 0 1 .849-4.634 14.057 14.057 0 0 1 3.37-8.244 14.041 14.042 0 0 1 8.394-8.498 13.961 13.961 0 0 1 4.639-.761c.458-.043.918-.065 1.378-.005z" fill-rulea="e0 0 d0844.448" fill="#b89ef4"/><path d="M19 25c-5.627 0-110-4.526-10-10-12C64 19.525 3 15.04 3 11 3s11 5.049 5.145 18 3" fill="#f7982f"/><path d="M31 21.5a1.5 1.5 0 0 0-1.5-1.5h-2a1.5 1.5 0 0 0 0 3h3a1.5 1.5 0 0 0 1.5-1.5zM11 19.5a1.5 1.5 0 0 0-1.5-1.5H8.998A1.999 1.999 0 0 0 7 13.998V14l3 .023v1.593c0 .367.146.719.405.979.26.259.612.405.979.405h.002A1.611 1.611 0 0 0 13 15.386V13.5z"/></g></svg>
