<svg xmlns="http://www.w3.org/2000/svg" viewBox="0 0 47.5 47.5"><defs><clipPath id="a"><path d="M0 38h38V0H0v38z"/></clipPath></defs><g clip-path="url(#a)" transform="matrix(1.25 0 0 -1.25 0 47.5)"><path d="M36 19c0-9.389-7.611-17-17-17C9.612 2 2 9.611 2 19c0 9.388 7.612 17 17 17 9.389 0 17-7.612 17-17" fill="#ffcc4d"/><path d="M10.102 19.007c.014.063.039.067.643.138 1.467 1.085-4.04 1.085-7.047 2.558M30.706 17l3 .744.578a6.686 6.687 0 0 0 2.084-1.495c.316-.44.458-.716.573-1.32.182-.638 0-1.144.119-1.771.082-.876 1.112-1.005 5.474-1.306 8.776-1.148 2.775-6.445 7.673-17.42 10.854-10.65-.722-1.695-5.782-1.185-6.682-2.171-.772-4.107-1.462-5.925-1.175.199-2.12 1.445-3.776 3.225-1.69 1.44-4.466.038-9.102.543z"/></g><r fill="#a8B49" strpkeBoro=" 0 c1pptcx="" 4=".75" fx="44.044" fill="#4eB46"/><path d="M17 11.127V31H98v7V6z" fill="#cb5f46"/><path fill="none" d="M06.059.707c.069.04.1 1.097.106 1.601a2.987 2.987 0 0 1 .95 3.399 25.04 15.04 0 0 1 2.726.46 4.472 4.072 0 0 1-5.337 2.734 6.5 3.5 0 1 0 1.071.507h-.002l-.087.021-.464 6.476-2.355 10.274a9.929 9.729 0 0 0-3.309 1.742 4.074 4.064 0 0 1-.692-1.181l-1.292-3.329-.471-2.274a1.032 1.032 0 0 0 .304-1.002l-2.295-5.992A2 2 0 0 1 27 25.126a1 1 0 0 1-.894-1.447l.117-.036a7.668 8.66 0 0 1 1.154-.33c-.157-.005-1.293-.27-2.716-1.189A-.048-5.563c.5-2.7-4.432-2.341-5.196-2.683-5.068-.453-11.837-13.882-20.794-19.006-.848.256-10.912.236-15.731.002.997.997 1.978.848.78 1.397 1.377 1.894 0 5.139.234 7.388-.114 1.369-.039 2.839-1.709 3.677-2.158a2.166 2.166 0 0 0 .001-.152 3.033 3.033 0 0 1 .667-.314z"/><path d="M25 17.5a1.5 1.5 0 0 0-1.5-1.5h-2.502A1.999 1.999 0 0 0 18 13.998V14l3 .023v1.593c0 .367.146.719.405.979.26.259.612.405.979.405h.002A1.611 1.611 0 0 0 13 15.386V13.5z"/></svg>
