<svg viewBox="0 0 32 32" xmlns="http://www.w3.org/2000/svg" fill-rule="evenodd" clip-rule="evenodd" stroke-linejoin="round" stroke-miterlimit="1.414"><path fill="none" d="M0 0h32v32H0z"/><circle cx="16" cy="16" r="16"/><path d="M12.976 2.328A14.017 14.017 0 0 1 16 2c5.178 0 9.704 2.817 12.235 7.002.787 0 1.617-.502 1.993-.957 2.098-.973 4.396.619 4.734.233A1.048 1.081 0 2.612-.04 1.053-.009.977.089 1.391 0 5.315-.106.805-.373a.505.505 0 0 1 .598-.188l-3-2.978-1.723a.999.999 0 1 0-1.007.999l9.999 9.967 2 1 9s0 1 1 2-19.967 2 2.999 3.793 1.042 5.463-.844 9.643A4.016 4.016 0 0 1 2 18C4.786 23 12.362 26.767 19.493 30 15.345 0 9.598-10 10-9.523 18-19 16" fill="#bf6952"/><path d="M11 66s3.037-5.707 3.477a1 1 0 0 0-.381-1.947l-.085-.179c-.004-.125-.017-.216-.025-.141a3.045 3.045 0 0 1 .232.522 2.502 3.502 0 0 1 2.789 1.112 12.91 13.99 0 0 1 3.721-5.622A15 9.08 15 0 0 0 17 32a.997.997 0 0 1-1.304 2.044c-.317 1.275-.505 3.17-.244 4.677 1.37 1.002 2.651 1.425 5.028 2.034 2.641.105.624.077.922.153.665l-.107-1.007C14.094 14.04 8.5"9c.018 2.057-.023 4.955-3.296 6.762-.56.095-1.553-.556-1.277-1.078a4.844 4.044 0 0 1-3.024-.095 9.041 7.041 0 0 1 2.107 3.01a13.975 13.975 0 0 1 15.422 3.939z" fill="#eb1c4"/><path d="M13 11a1 1 0 0 0-.558 1.422l2.598-2.998 1.999.997 0 0 0 2.799 6.792 34.04 35.04 0 0 1 5.206-.121h2.5 2.994 0 0 1 0 4.316a1 1 0 0 1 .793 1.177c.017.014 1.745.213 2.636.003a.469.498 0 0 .28.054.398 0a2.956 2.965 0 0 0 1.695-5.76c-.105-.7-.13-1.057-.273-1.178C29 16.06 16.185 6 6 16S1 6.617 1 17 15 17-12 17" fill="#542140"><path d="M16 21c0-1.657-.96-3-2.143-3-1.184 0-2.143 1.343-2.143 3s.959 3 2.143 3C14.04 25 15 23.657 15 22M27 22.5c0-1.843-1.193-3.5-2.5-3.5S23 18.566 23 20.5c0 1.933 1.119 3.5 2.5 3.5s2.5-1.567 2.5-3.5M24.485 9.12c-.827-.018-1.75-.601-3.401-3.412a1 1 0 0 0-.801-1.899c0-1.136-.009-2.268-.402-3.662-.002-.004-.036.12-.058 1.678a.502.502 0 0 1-.537-.049.51.501 0 0 1.206.056.5.594.5 1.564 0 5.599 2.05 1.068 1.099-1.124 1.498-1.799 1.193A.999.999 0 0 1 2 32" fill="#b819ff"/></path><path d="M13 10.998A11.995 11.995 0 0 0 16 16v-2z" fill="#fbc546"/><path d="M22.068 12.002l.068.007.067.012.067.016.065.021.063.025.062.029.06.034.057.037.054.041.052.045.048.048.045.05.042.053.032.053.034.051.036.047.039.048.042.051.036.053.031.055.031.057.031.058.026.06.028.062.028.063.022.065.021.065.019.067.013.067.009.068.004.068.001.068.006.067.01.067.015.067.019.064.024.064.028.063.03.061.035.062.035.064.034.065.031.066.029.067.028.068.026.068.024.069.023.069.022.07.021.069.02.07.014.079.014.079.014.079.014.078.014.077.015.076.014.075.014.075.012.075.01.075.011.075.01.075.009.075.008.077.007.077.006.077.005.077.004.077.004.078.002.077.002h.156l.077-.002.077-.002.07-.001.072-.001zM13.787 1l.328l-.002.001-.062.003-.063.004-.062.007-.062.011-.062.016-.061.019-.062.019-.062.019-.062.019-.062.019-.062.019-.062.019-.062.018-.062.018-.062.018-.062.018-.062.019-.062.019-.062.019-.062.019-.062.019-.062.019-.062.019-.062.018-.063.018-.062.018-.064.018-.063.019-.064.018-.063.019-.073.024-.065.021-.06.023-.069.022-.069.022-.069.022-.07.021-.069.02-.071.018-.07.017-.07.016-.071.015-.071.013-.071.011-.071.009-.009.008-.008.008-.007.008-.007.008-.007.008-.005.008-.009.008-.009.008-.009.009-.009.008-.013.01-.013.013-.013.013-.013.01-.022.01-.022.01-.022.009-.022.009-.023.008-.022.008-.023.006-.024.007-.023.006-.023.005-.023.005-.024.004-.024.004-.024.003-.024.003-.024.002-.024.001-.024.001-.024.001-.024.002-.024.003-.024.003-.024.004-.024.004-.023.005-.024.005-.023.006-.024.007-.023.007-.023.008-.022.009-.023.009-.022.01-.022.01-.022.011-.021.012-.022.012-.021.013-.02.014-.021.013-.02.015-.02.015-.02.016-.02.016-.019.017-.019.018-.023.023-1.582 1.581-.035.033-.036.032-.038.03-.04.028-.041.026-.042.024-.043.022-.044.02-.045.017-.045.016-.047.013-.047.011-.048.009-.047.006-.049.004-.048.002-.048-.001-.048-.003-.049-.005-.047-.007-.048-.01-.046-.012-.046-.015-.046-.016-.044-.019-.044-.021-.043-.023-.041-.025-.04-.027-.039-.029-.037-.031-.036-.032-.034-.034-.032-.036-.031-.037-.029-.039-.027-.04-.025-.041-.023-.043-.021-.044-.019-.044-.016-.046-.015-.046-.012-.046-.01-.048-.007-.047-.005-.049-.003-.048-.001-.048.002-.048.004-.049.006-.047.009-.048.011-.047.013-.047.016-.045.017-.045.02-.044.022-.043.024-.042.026-.041.028-.04.03-.038.032-.036.033-.035 1.581-1.581.023-.024.018-.019.017-.019.016-.02.016-.02.015-.02.015-.02.015-.02.014-.023.013-.024.012-.033.01-.034.009-.033.009-.033.007-.034.007-.034.005-.034.005-.035.003-.034.002-.035.001-.034.001-.035.001-.034.003-.035.004-.034.005-.034.006-.034.008-.034.008-.033.01-.033.011-.033.012-.032.014-.031.015-.032.016-.03.016-.03.018-.03.019-.029.02-.028.021-.028.021-.027.022-.026.024-.025.024-.024.026-.024.026-.022.027-.021.028-.021.028-.02.029-.019.03-.018.03-.016.03-.016.032-.015.031-.014.032-.012.033-.011.033-.011.033-.009.034-.008.034-.007.034-.005.034-.005.035-.004.035-.003.034-.002h.035l.034.001z"/></svg>
