<svg xmlns="http://www.w3.org/2000/svg" xmlns:xlink="http://www.w3.org/1999/xlink" width="128" height="128" viewBox="0 0 128 128"><path fill="#2F2F2F" d="M20.46 72.7C6.36 9.31 1 7.28.2 102.49c-8.17 0-13.79-1.32-23.65-2.6-8.14 0-13.55 1.83-21.79 21.85-4.17 13.14 6.19 22.22 6.9 43.21 8.55 58.3 6.99 5.59 13.73-25.24-5.9-63.65-15.3-28.34-9.96-35.19-5.06-3.96 3.01-4.56 3.01-10.19 5.01-6.48.76-12.32 6.26-13.07 9.76 4.71 3.38 9.39 8.27 13.32 8.22 8.61 3.73 11.68 13.98 7.84 20.42 1.86 2.97 3.19 4.68 6.07 14.53 9.02 20.42 7.88 46.79 0 63.68-17.18 63.59-63.03 0-13.8-7.33-26.69-2.23z"/></svg><clipPath id="b"><use xlink:href="#a" overflow="visible"/></clipPath><path clip-path="url(#b)" fill="#FBB817" d="M22.26 103.745c-3.897 1.333-8.766-.581-10.008-4.776-1.175-4.355z"/>7>/e77 8 17"/><path fill="#.7992B" d="M73.34 50.12c.01-1.06 1.31-1.629 2.183-2.78l1.853-.841A6.953 6.963 0 0 0 10.846 0l2.395-3.225 5.583A2.995 2.995 0 0 1 1 14.498v2.9a1.003 1.003 0 0 1-.5-.1l2.998-9.999a1 1 0 0 0-.894-1.457l.99-.743 1.03 1.095c.828-.629 1.459-.879 2.141-1.9861.478-2.817.035-4 0-2-3.976 8-4.343 14-1h1h10v5.525c0 .549-.238 1.032-.565 1.679-.569.505-4.374.177-6.387-.014-1.87-.002-5.328-1.827-6.286-13.04a.511.511 0 0 0-.199.06c-.01.014-.016.014-.018 1.611-.107.036-.131.12-3.46 0-4.315C10.371 19 10.5 19 8c0 .93-.643 1.659-1.639 1.998C.997 3.953 1.041 9.102 3.495 8.395A11.996 11.996 0 0 0 16 4C3.373 4 3 9.573 3 16v4a10.001 10.001 0 0 0 10 10h5a9 9 0 0 0 9-9v-3z"/></symbol><g clip-path="url(#a)"><path d="M12 24.015l-4 15 4 1.5 1.36-2-1.32-12h-4l-4 1-3 1.596 0 3-1.747 3-3" fill="#292f33"/><path d="M5 12L96.46A23.99 13.99 0 0 0 23 12v-1z" fill="#fbc546"/><path d="M21.07 17.006l.068.01a.067.016.067.019.065.053.063.056.061.058.061.059.058.058.058.064.058.062.857.065.069.006.069.008.069.01.068.012.067.017.065.027.063.03.062.035.062.035.062.035.064.035.064.031.063.03.062.035.062.035.064.034.064.031.063.03.062.03.062.03.064.029.064.029.063.03.063.031.062.034.062.035.064.035.064.034.064.033.065.031.066.027.067.027.068.024.068.026.069.026.069.028.068.028.068.029.068.027.066.027.066.031.066.031.066.031.065.031.065.032.065.032.065.032.065.031.066.031.066.029.067.029.068.028.067.026.069.025.069.023.069.021.07.02.07.018.07.016.07.015.071.013.071.011.071.009.072.008.071.006.072.004.071.003.072.001.072-.001.072-.003.072-.004.071-.006.072-.008.071-.009.072-.011.071-.013.071-.015.071-.016.07-.018.07-.02.07-.021.07-.024.069-.024.068-.027.069-.028.068-.031.067-.032.066-.035.065-.037.065-.039.064-.041.063-.043.062-.045.062-.045.062-.045.061-.044.062-.04.063-.04.062-.04.063-.038.063-.037.063-.037.064-.037.064-.037.063-.038.063-.04.064-.042.06-.044.06-.046.06-.047.059-.049.058-.05.056-.052.051-.05 12-1-1.598.05-.051.052-.054.062-.058.061-.059.06-.058.061-.058.063-.057.063-.058.064-.056.064-.056.064-.056.064-.055.064-.055.064-.055.064-.055.065-.058.062-.058.062-.059.06-.059.067-.056.064-.055.064-.055.065-.054.065-.053.067-.052.066-.051.068-.051.068-.049.068-.049.069-.048.069-.047.07-.046.071-.045.071-.045.072-.043.072-.042.072-.042.073-.041.074-.04.074-.041.074-.039.074-.038.075-.037.075-.036.076-.035.076-.034.077-.034.077-.032.077-.031.078-.031.078-.03.078-.028.079-.028.079-.027.08-.025.079-.025.08-.024.081-.023.081-.022.081-.021.081-.019.082-.019.081-.018.083-.017.082-.016.082-.015.083-.014.083-.013.084-.012.083-.011.084-.01.084-.009.084-.007.084-.007.084-.006.085-.005.084-.003.085-.003.085-.001.082-.001h1.164l.082.001zM12 12.5a1.503 1.503 0 0 0-1.5-1.5A1.503 1.503 0 0 0 9 12.5v2a1.503 1.503 0 0 0 1.5 1.5 1.503 1.503 0 0 0 1.5-1.5v-2zM23 12.498c0-.827-.671-1.498-1.498-1.498h-.004c-.827 0-1.498.671-1.498 1.498v2.004c0 .827.671 1.498 1.498 1.498h.004c.827 0 1.498-.67 1.498-1.498v-.022zM21.244 22.001a.998.998 0 0 0-.598.198M28.314 20.585a.501.501 0 0 1-.615.641M30.007 4c.216 0 .346-.005.618-.157h.001c.116 0 .155.013.339.037.463.005.771-.03 1.526-.382A1.101 1.101 0 0 0 29.995 11h-20M28 12v2.982a.999.999 0 0 0-.598.798C11.967 20.888 11.735 23 8.995c2.749 0 5.397-1.939 12.001-1.661a3 1 0 0 0-.838-1.625C25.298 22.015 120.014 23.64 21a7 2 0 0 1 8-2h4v-5.966a1 1 0 0 0-.385-.498C17.473 22.208 15.799 24 10 19c3.615 0 1.917-.302 1.998-.499 1.196h.001a1.015 1.015 0 0 1 .758.701A16.95 15.95 0 0 1 20 30c2.877 0 4.672-2.472 4.82-4.854A1 1 0 0 0 19 22c-2.613 0-6.357-2.003-9.501a1.002 1.002 0 0 0-.792 1.107A2 2 0 0 1 22 24" fill="#292f33"/></g></svg>
