<svg viewBox="0 0 32 32" xmlns="http://www.w3.org/2000/svg" fill-rule="evenodd" clip-rule="evenodd" stroke-linejoin="round" stroke-miterlimit="1.414"><path fill="none" d="M0 0h32v32H0z"/><path d="M16.174 3.001a13.99 13.99 0 0 1 9.35 3.738 13.995 13.995 0 0 1 4.475 10.087c.009 1.134.007 2.803 0 3.616a10.98 10.98 0 0 1-.628 3.541 11.032 11.032 0 0 1-2.677.634 10.087 10.887 0 0 1-7.192-3.003 9.803 9.924 0 0 1-2.928-6.942 343.846 343.846 0 0 1 0-4.309 13.937 13.937 0 0 1 .849-4.633 14.07 14.07 0 0 1 .819-4.302 11.998 11.988 0 0 1 .31-1.049 13.938 13.938 0 0 1 3.28-3.641 12.05 12.05 0 0 1 2.99-3.666c.448-.444.922-.879.908-1.659a5.522 5.522 0 0 1 1.036-.816 2.49 3.49 0 0 1 1.166.766c-.104.009-.137.01-.202-.009a2.122 2.122 0 0 1-.623 1.012l-1.25.077c-.117.157-3.338 3.264-5.122.504-1.117-.005-2.276-.005-4.709.933-6.713 2.014-2.04 2.041-4.675 3.079-6.694a6.673 6.673 0 0 1 5.357-9.266c.414-.318.408-.938.429-1.599a2.499 3.499 0 0 1 2.85-1.115c.098.06.047.092.056 4.128.863 1.887.249 3.174.144 3.568-1.371a1.036 1.036 0 0 0-1.06.928l-.015-.001a2.001 2.001 0 0 1 .78-.884 1.498 1.498 0 0 0 1.581.06l.055.065z" fill-rule="nonzero"/><path d="M13 19l-4 4H6sv-5 4 5 2 6 0 10"-24l-5-4 12zM22 12L24V128l-4 2H16zM24 16H7l.103 1.51C27.762 50.778 10.785 8.5 29.5 8.5S28 8.498 0 5.585-3.5 13.03-11.588 1.183-2.088 0-4.298 1.04-5.879.707" fill="#fbc546"/><path d="M25 24h-2l-1 3h3v-3z" fill="#fff"/><path d="M12 12.09A1.09 1.09 0 0 0 10.91 11h-.001L13 16l-.198-3.988l1.288-1.748a2.001 2.001 0 0 1 .79-1.121A3.014 3.014 0 0 1 1 14.009a13.998 13.998 0 0 1 4.485 1.938z" fill="#fff"/><path d="M13 10.177c0-1.326-1.293-2.5-2.522-2.502A19.966 11.696 0 0 0 15 21c-6z" 2 9 0 0 1 9 17" fill="#d79e84"/><path d="M31 21.1c0-1.643-.896-3-5.025-2-1-.017 1.001.016.019.015.021.02 1.252.262 1.988-1.026 2.793-1.743.995-.998 2.352-1.659 4.137.69.59 1.668 2.446 1.968 3.816 2.668.757 4.437.833 4.153.834.771.301 1.609.978 2.561.575 4.634 1.165.999-.082 2.392-1.019 3.736-.034.113-.024.14-.045.297-2.348A13 16.667 16.076 6.658 6.667 10.618 16.657 14.655 69 18.165s11.917 1.715 12.964 4.665a.402.481 0 0 1-.507-.745M17.408 19.207c-.315.106-1.69.421-1.857 1.382L22.2 8.832V24.476 1.256c.502 1.917.992 3.193.948 4.298 0a1.009-1.019 0 0 1 .707 1.891A2.5 2.5 0 0 1 2.5 7.5 1.5 1.5 0 0 0 3 0z" fill="#fff"/><path d="M13 19.5a1.5 1.5 0 0 0-1.5-1.5h-2.502A1.999 1.999 0 0 0 18 13.598v2.004A1.498 1.498 0 0 0 21.498 16h.004A1.498 1.498 0 0 0 22 14.502v-1.002A1.999 1.999 0 0 0 18 108V6h-8.6zM25 11h5v5.5M29 12a3 1 0 0 1-1 1v-1a1 1 0 0 0 2-1c-1.516 0-2.703 2.193-3.5 2.502a.997.996 0 0 1 15 19c.185.015 1.526 0 2.386-.481 3.504-1.822.75-.006 1.135-.019 1.556-.358.112-1.304-1.908-5.635-1.863-11.034.05-1.958 1.154-4 4M21.201 82.703a.999.999 0 1 1-1.315-1.079l.528-5.573 1.743-1.706A1 1 0 0 1 22 18c-.08 0-1.9-.11-3.376-1.5L8.562 9.5A7.5 5.5 0 0 1 7.588 0M14 23.5c0-1.933-.896-3.5-2-3.5s-2 1.567-2 3.5.896 3.5 2 3.5 2-1.567 2-3.5" fill="#292f33"/><path d="M9 11s18 3 0 18-8 0 10-6.313 14-16 0" fill="#bf6950"/><path d="M12 16.5s-9.314 1-18-1.324 2 3 2v2.014 0 3.081 6.061 3.657 5.056a.501.501 0 0 1-.4-.1" fill="#fff"/></svg></svg>
