<svg viewBox="0 0 32 32" xmlns="http://www.w3.org/2000/svg" fill-rule="evenodd" clip-rule="evenodd" stroke-linejoin="round" stroke-miterlimit="1.414"><path fill="none" d="M0 0h32v32H0z"/><path d="M16.174 2.001a13.98 13.98 0 0 1 4.546.819 14.042 14.042 0 0 1 5.541 3.656 13.99 13.99 0 0 1 3.538 9.35 259.76 259.76 0 0 1 0 3.203C9.977 10.987 0 14.046 3.141 24.547 14.261a14.028 14.028 0 0 1 4.044-2.018 1.098 1.098 0 0 1-.628 3.493 4.987 4.987 0 0 1 2.455-.836c.009-.106.007-.201.002-.218 0-1.468.013-2.125 0-3.307.018-.124.023-3.218 1.385-2.959 1.152.091.051.611.231.72.669.098.953.413 1.39.09.182.081.433.176.778.233 1.013.135.11.127.434.243.378.604.246v13.02h-1.002c-.698 0-1.948-.671-2.338-.873-3.078"/><path fill="#FBB817" d="M39.416 72.818c.512 1.834-.37 3.08-2.084 4.098-1.332 2.878-4.233 4.278-7 4.226-6.287 0-2.333 2.195-4.462 2.972-6.622-3.105 0-4.071 2.37-6.676 2.373C29.272 35.931 22.784 37 25 37" fill="#bf6952"/><path d="M5 35c4 0 3-10 3-10s0-6-3-6-3 2-3 2-1 14 3 14" fill="#d79e84"/><path d="M4 29.5a.5.5 0 0 0-.557.195l6.849 3.994a.9.5 0 0 0 .557.807l2.45 3.224a.5.2 0 1 0 .307.128l-3.585-3.502M21.79 27.133a.996.996 0 0 0-.836-1.064H21c-6.29-1.127-3.642-3.756-3.825-13.009C16.62 7.651 3 14.3 11 5 16c-1.422 0-3.819.835-4.266 2.341a.998.998 0 0 0-1.566.536M26.001 21.654c.094.011 3.462.067 5.498 1.004 3.659.018 6.005-2.12 8.001-5.658A1 1 0 0 0 22.988 29h2a1 1 0 0 1-1-1l-1-6 13 1 0 1 0 2 0v-2a1 1 0 0 1-1-1l1-1h5l-1 1-4 1-4-4z" fill="#292f33"/></svg></svg>
