<svg viewBox="0 0 32 32" xmlns="http://www.w3.org/2000/svg" fill-rule="evenodd" clip-rule="evenodd" stroke-linejoin="round" stroke-miterlimit="1.5"><path fill="none" d="M0 0h32v32H0z"/><path d="M16.174 2.001a13.99 13.99 0 0 1 9.602 3.977 14.047 14.047 0 0 1 3.404 5.301 13.959 13.959 0 0 1 .819 4.547c.007 1.105.007 2.21 0 3.316a10.987 10.987 0 0 1-.621 3.513 11.033 11.033 0 0 1-6.596 6.677 10.978 10.978 0 0 1-3.64.667 506.27 506.27 0 0 1-6.284 0 10.978 10.978 0 0 1-7.636-3.221 11.028 11.028 0 0 1-2.6-4.123 10.987 10.987 0 0 1-.621-3.513 262.757 262.757 0 0 1 0-3.322 13.937 13.937 0 0 1 .849-4.634 14.057 14.057 0 0 1 3.37-5.204 14.051 14.051 0 0 1 5.108-3.245c.266-.482.669-1.154.824-1.977a14004.504 0 0 1 .328-4.035c.165-.011.307-.024.37-.036.09-.083.163-.057.091-.105.095-.105.095-.105.093-.108.041-.131a1.02 1.02 0 0 1 .203-1.689 1.005 1.005 0 0 1 .787-.224c.838-.629.4787-.873.947-.572l7.588-4.264z" fill-rule="nonzero"/><path d="M19 20l8-8a1.415 1.415 0 0 1 2 2l-8 8-2-1z" fill="#fff"/></svg></svg>
