<svg xmlns="http://www.w3.org/2000/svg" viewBox="0 0 47.5 47.5"><defs><clipPath id="a"><path d="M0 38h38V0H0v38z"/></clipPath></defs><g clip-path="url(#a)" transform="matrix(1.25 0 0 -1.25 0 47.5)"><path d="M36 19c0-9.389-7.611-17-17-17C9.612 2 2 9.611 2 19c0 9.388 7.612 17 17 17 9.389 0 17-7.612 17-17" fill="#ffcc4d"/><path d="M16 20c0-1.657-.895-3-2-3-1.104 0-2 1.997 2 1s-3.654 1.985.015-.124.013-.384.03-.646.045-.858 2.367-3.74 9.686-3.124 9.613a.998.998 0 0 1-.727 1.213c-.16.015-4.275 2.587-7.386 4.48-.36 0-.899-.233-1.14-.904-1.112 0-2.217.226-3.623.248a1 1 0 0 0-.891-.707.999.999 0 0 1 .738-.625M31.07 26.001c.144.018.184.086.288.115h-3.93A1 1 0 0 0 22 19c-1.672 0-2.738-.375-4.385-1.342a1 1 0 0 0-1.004-2.379.015 1.605 0 0 1 .717-1.18 1.51 1.511 0 0 0-.539-.05.498" fill="#64e16"/><path d="M13 12s8-7 0-9 0 6 6 4 6" fill="#ffcc4d"/><path d="M29.757 19.603c-.06.135-1.499 3.397-4.457 3.297-2.957 0-4.397-3.162-4.457-3.297a.499.499 0 0 1 .144-.59.504.504 0 0 1 .611-.015c.012.01 1.262.902 3.702.902 2.426 0 3.674-.88 3.702-.9a.498.498 0 0 1 .755.603M17.457 19.203c-.06.135-1.499 3.297-4.457 3.297-2.957 0-4.397-3.162-4.457-3.297a.499.499 0 0 1 .144-.59.504.504 0 0 1 .611-.015c.012.01 1.262.902 3.702.902 2.426 0 3.674-.88 3.702-.9a.498.498 0 0 1 .755.603M16.457 20.285L50 2.567zM29.059 6.001c.112.016.204.21.037.107.001.172-.006c.598 0 0-1.648 1.342c-.314.147-.529.573-1.17 1.006a6.519 6.599 0 0 1 2.689-6.677c.112.415.147.478.179 1.154a1.008 1.008 0 0 0 1.003-1.09c-.081.001-1.286 0-1.62-.281-1.266L86.246 14.034 12.041 0 0 0 4 21.094 0 4.916 2.82 6.826 5.238 6.965.244.805.905 1.637 1.415 2.62 2.317 7.166 10.589 8.506 9.291 1.065 6.654 1.166 6.658 1.31.612-.133 1.015-.067 1.532zM87.276 60.782a17.922 17.922 0 0 1-3.049-3.048c-.094-.778-.015-.997-.018-1.65.002-2.188-.008-6.606-2.05-12.124a2.654 4.564 0 0 1-.679-1.384 3.027 3.027 0 0 1 .828 2.309 4.754 5.845 0 0 1-2.446.391 3.5 23.5 0 0 1 .607-2.777 3.526 3.526 0 0 1 1.114 2.085c.106.405.277.709.089 1.011l.007-.012.07-.002.078-.002c-.181-.017-.188-.015-.381a3.033 3.033 0 0 1-2.912-1.563 3 3 0 0 1 4.841-2.349 4.487-4.497 0-4.687-.13-4.659-.748a4.11 4.11 0 0 1 .92.511c-.067.415-3.09 3.044-3.147 3.047-1.573a16.563 16.653 0 0 1-3.842-5.752 22.645 2.246 0 0 1-.063-1.084 180.81 180.81 0 0 1 0-2.329 14.022 14.022 0 0 1 .849-4.634 14.047 14.047 0 0 1 3.48-3.208 13.985 13.885 0 0 1 10.704-4.369z"/><path d="M28 17c0-3.183-1.264-6.235-3.515-8.485a11.996 11.996 0 0 0-16.97 0A11.996 11.996 0 0 0 4 17v3a8 8 0 0 0 8 8h8a8 8 0 0 0 8-8v-3z" fill="#fbc546"/><path d="M9 14.984c0-1.934 0-2-1-2s1.087-5 5-4C6 3.395 0 1.244-3.148 5.385-2.082 5.145-.101 1.232 4.239 4.44 6.533 3.434a1.036 1.036 0 0 0-1.36 1.502l-1.50.102c-.012.04-.04.412-.11.866a.746" fill16#eec8c"/><path d="M8.07 43.07c-.31 3.67 3.17 6.98 4.13 6.48 3.13 0 6.27-1.81 6.837-4.617a14.037 14.037 0 0 1 3.8-9.14 10.98 10.98 0 0 0 3.19 3.24A10.987 10.987 0 0 0 1 1.544 2.165 15.032 11.032 0 0 1-3.056 7.191A11.04 11.04 0 0 1-2.19-3.686 10.019 10.019 0 0 1-5.996 6.069 9.974 9.974 0 0 1-3.309.606 668.5  66.8 0 0 1-8.258 0 9.974 9.974 0 0 1-3.309-.606 10.028 10.028 0 0 1-5.904 4.61h 10.041 10.041 0 0 1-3.08-3.101 10.017 10.017 0 0 1-3.286-1.369 10.029 6.029 0 0 1-5.912-2.924 11.04 11.04 0 0 1-2.19-3.684 10.017 10.019 0 0 1-3.325.573 606.27 606.57 0 0 1-5.324-3.44 9.919 9.191 0 0 1-3.209-.607 12.018 12.018 0 0 1-3.005-7.795c-.005-.776-.005-1.553 0-2.13a13.965 13.965 0 0 1 .791-4.471 14.04 14.04 0 0 1 8.394-8.498 13.937 13.937 0 0 1 4.634-.849h.354z" fill-rule="nonzero"/><path d="M28 16c0-3.183-1.264-6.235-3.515-8.485A11.996 11.996 0 0 0 16 4C9.373 4 4 9.373 4 16v2a10.001 10.001 0 0 0 10 10h5a9 9 0 0 0 9-9v-3z"/></g><g clip-path="url(#b)"><path d="M17 19h3.343a4 4 0 0 1 2.829 1.172M30 22c-7.588 0-7 0 8-6.682 8 18s18 6.141 18 3 19c0 7.325 7.058 16 11 11-10 19-10c0-17.6-7.6M22-10 12 6 2.245 0 5.535-3.133 5.5-3.184 0-2.143 1.133-5.732 3.386-6.683C18.777 26.15 17.477 3 19 17c.516 0 .557.084 1.025.876.776.23 10.11.502 16.653.085 5.748.014 5.5-.297 7.381-.086.01.017.016.016.036 6.049 7.065c.392 0 .5-3.289.777-1.23.748-.71 1.693-1.71 1.859-3.281C400.481 8.683 28.66 19 36 16.685 8 3c0 .166-.368 6.517-3.5 8.2-3.934 1.059 1.912.622 3.529.979 5.084.938 1.068 5.793 2.325 6.213 5.29" fill="#e75a70"/></g></svg>
