<svg xmlns="http://www.w3.org/2000/svg" viewBox="0 0 128 128"><path d="M63.79 8.64C1.48 8.64 0 78.5 0 92.33c0 13.83 28.56 25.03 63.79 25.03 35.24 0 63.79-11.21 63.79-25.03 0-13.83-1.47-83.68-63.79-83.68C1.68 9.64.21 79.5.21 93.33c0 13.83 28.56 25.03 63.79 25.03 35.24 0 63.79-11.21 63.79-25.03 0-13.83-1.47-83.69-63.79-83.69z" fill="#fcc21b"/><defs><path id="a" d="M63.89 129.06c-27.92 0-58.68-25.68-55.08-55.35S10.84 8.88 18.97 20.43S104.32 27.52 25.73 42.2 18.94 32H-19.73c-12.62 0-22.14-8.93-22.23-35.13S80.81 80.88 64.88 83.62 64-17.14c11.09-10.3 9.12-25.25 14.26-35.49.01-23.1-29.96-26.25-53.36S09.035 10.83 23.94 30.13 37.14 3 3z" fill="#242424"/><path d="M97.64 33.91C75.39 16.93 87.3 10.34 64 9.36z" fill="url(#a)"/><path d="M34.64 21.1C21.05 127.78 8.88 82 6.26c-8.74-7.06-10.37-15.4-10.9-21.94 5.71-8.59 10.63-10.65 20.85-9.61 8.15-3.57 18.61-1.17 31.78.56 2.13 1.6 4.18 3.65 6.72 2l.49 16.16c.62 1.22 1.12 2.23 1.75 3.35h-2.29c1.16-.29 2.29.17 2.63 1.76.2 1.34-.26 2.74-3.25 3.64z"/><path fill="#F79329" d="M20.71 63.01c-2.37.87-4.93-.37-5.92-2.64-.73-2.43.33-5.21 2.83-4.89 2.31-.41 5.3 3.21 6.95 5.37.69 2.26-.31 4.3-2.78 5.7zM46.74 77.18c-1.46 0-3.31-1.3-4.95-3.31 0-3.35 2.35-2.75 7.35-4.07 12.17 1.26 22.01 8.81 4.49 7.28-1.22 14.49-10.04 19.48z"/><path fill="#F9A324" d="M29.86 88.26c-5.4 1.95-10.5-.87-14.44-6.64-1.7-1.95.79-13.59 7.84-15.04 6.51-2.05 12.36.86 15.84 6.38 2.09 5.64-.88 11.58-6.44 13.68z"/><path fill="#FAB020" d="M114.83 78c3.69 3.58 9.33 5.2 14.57 9.02 4.75.85 9.1 2.92 14.71 7.31.01 1.39-.97 1.79-2.66.83-3.77-1.59-1.01-1.95-3.24-2.21-1.31-1.71-4.22-3.09-7.43-3.71-3.96.17-6.74 1.73-9.23 3.43-1.08 8.14.59 9.72 3.69 1.49 3.98-.45 7.42-4.17 8.72z"/><path fill="#F9A324" d="M30.54 84.09c-3.81 1.11-8.79-.63-10.33-4.84-1.24-6.23.66-10.02 5.03-11.81 4.84-1.53 11.2.75 13.07 5.51 1.75 5.02-.77 10.04-5.78 12.4z"/><path fill="#F89E26" d="M29.31 83.4c-4.29 1.38-8.78-.58-10.44-4.7-1.53-4.17.64-8.69 4.87-10.12 4.22-1.52 8.69.63 10.24 4.72 1.53 4.18-.65 8.79-4.81 10.31z"/><path fill="#F9A324" d="M29.06 82.93c-3.93 1.41-8.27-.58-9.7-4.46-1.43-3.88.59-8.17 4.52-9.59 3.92-1.41 8.27.58 9.71 4.47 1.43 3.88-.6 8.17-4.53 9.58z"/><path fill="#F8A025" d="M28.98 82.97c-3.56 1.27-7.49-.53-8.7-4.04-1.21-3.56.54-7.99 4.18-8.68 3.68-1.29 7.38.54 8.7 4.13 1.31 3.51-.58 7.9-4.47 10.49z"/><path fill="#FAAC22" d="M97.59 162.83c-4.65 1.75-9.49-.64-11.51-5.3-1.75-4.37.7-9.72 5.38-11.51 4.67-1.74 9.08.63 10.64 4.81 1.42 4.08-.64 8.45-4.25 9.23z"/><path fill="#F9A524" d="M36.08 82.6c-4.54 1.62-9.36-.64-11.67-5.54-1.62-4.87.69-10.49 5.61-12.34 5-.88 10.58-7.05 12.21-10.59.53-2.78-.36-5.05-2.38-.96-2.65.36-5.58 2.1-5.16 2.79-.85 5.05.37 5.92 2.78.85 2.36-.38 4.99-2.7 5.93z"/><path fill="#F79728" d="M27.71 67.04c-2.41 1.2-6.64.67-7.28 3.39-1.15 3.83.45 7.46 4.6 1.23 3.45-.54 7.35-4.07 8.63z"/><path fill="#F89E26" d="M97.03 64.21c-3.41 1.24-8.74-.54-9.68-4.31-1.38-3.64.58-7.89 4.36-9.26 3.79-1.36 7.98.58 9.39 4.54 1.33 3.85-.61 7.74-4.37 9.38z"/><path fill="#F89E26" d="M37.27 83.25c-3.17 1.14-6.66-.47-7.82-3.92-1.17-3.44.54-6.89 4.16-8.72 3.69-1.24 7.38.54 8.94 4.62 1.38 3.87-.48 8.15-4.19 9.44z"/><path fill="#F89C26" d="M27.91 78.55c-3.95 1.27-7.49-.53-8.88-4.01-1.21-3.56.53-7.59 4.05-8.78 3.1-1.14 6.78.43 7.87 3.62 1.15 3.12-.49 6.65-3.65 7.47z"/><path fill="#F79528" d="M23.48 65.6c-2.83 0-6.05-.57-8.12-3.75-1.39-2.54.43-5.05 3.94-7.07 2.98-1.05 6.17.44 7.26 3.63 1.08 2.9-.44 6.1-3.37 7.16z"/><path fill="#F89C26" d="M21.09 65.66c-3.05 1.36-6.78-.48-9.13-4.16-1.18-3.51.58-8.05 4.5-8.78 3.38-1.2 7.68.43 8.17 3.73 1.38 3.91-.54 7.9-4.17 10.49z"/><path fill="#F9A922" d="M96.24 81.9c-3.18 6.27-10.87 6.07-17.04 5.78-2.6 20.86.66 15.67 5.86 2.91 5.12-.81 10.63-5.14 12.37z"/><path fill="#F9A723" d="M111.31 68.92c-4.85 1.73-10.26-.73-12.02-5.53-1.76-4.8.74-10.12 5.6-11.87 4.86-1.75 10.24.73 12.02 5.53 1.7 4.85-.77 10.8-6.78 12.81z"/><path fill="#F89E26" d="M27.33 72.05c-3.1 1.05-9.09-.54-10.6-4.06-1.5-3.14.79-6.39 3.67-8.03 3.65-1.27 7.48.54 8.94 4.14 1.38 3.77-.58 7.93-4.37 9.1z"/><path fill="#F89A27" d="M28.08 80.27c-2.44.87-5.14-.36-6.03-2.77-.89-2.41.37-5.08 2.81-5.96 2.84-.88 5.13.37 6.03 2.78.88 2.41-.37 5.28-2.89 6.12z"/><path fill="#F79A28" d="M28.07 63.58c-2.36 1.07-6.17-.41-7.34-3.33-1.04-2.84.46-6.4 3.31-7.17 3.34-1.07 8.14.58 9.68 4.44 1.41 3.85-.6 8.12-4.5 9.53z"/><path fill="#F8A025" d="M97.28 65.18c-5.25 1.87-10.22-.72-12.45-5.73-1.83-4.91.79-10.49 5.81-12.31 5.04-1.81 10.62.76 12.64 5.74 1.83 4.99-.77 10.51-5.81 12.31z"/><path fill="#F9A723" d="M97.05 69.21c-3.04 7.66-11.93 11.09-15.98 1.44-6.96-4.64-19.9-13.72-15.3-3.64zM64.57 174.62c-19.78 0-37.36-11.5-36.76-15.87C-.18.85-.18 11.74 1.31 20.74-1.03 8.03-4.95 10.94-12.32 17.32-15.87 6.5-.61 10.79-.52 17.46-1.2 1.27-.35 2.84-.56 4.55-.09l17.86 1.36c1.06 1.98 1.23 3.78.75 5.66-.75 1.46-1.24 3.03-2.12 4.48-2.03.02-.01.01-.07.02-.11.12-1.21.58-2.83.89-3.38.3-.84 1.25-2.48 3.1-4.09 3.02-1.57-.03-3.18-.7-4.32-1.06-.63-.44-1.42-.66-2.25-.46-1.67 0-3.78.76-4.57 6.21-6.46 10.03-17.15 23.23-19.41 32.39-3.87 2.31-1.89 5.45-3.38 8.73-1.33 2.81-.44 5.51-1.55 7.89-2.05 2.26 1.45 3.13 3.35 3.92 5.66z" fill="#fff"/><path d="M80.72 41.19c4.07 0 7.55 3.24 7.44 9.54 0 0 0-2.44 1.41 6.4 3.41 10.41-.17.38-.43.85-.67 1.31-.19.3-.18.75-.24 1.26-.27.38-.62.68-.64 1.36z"/><path d="M121.7 93.76c.7 1.27 1.51 2.68 2.32 3.88.54.66 1.21 1.29 1.73 1.53.31.84.89 1.31 1.26 1.63.63 2 1.5 2.3 2.01.41.77.47 1.56.78 2.38.11.62.41 1.01.41 1.43.28.54.46 1.18.7 1.17 1.52.29.51.63 1.01 1.07 1.47.28.29.63.49.93.6 1.05.16 2.03.37 3.19.33 18.35 5.68 24.89 7.91 32.8 10.54 3.45 16.24-1.57 27.71-13.71 30.27z"/><path fill="#FBB71E" d="M31.63 83c-9.3 3.34-19.56-1.38-22.94-10.55-3.37-9.17 1.41-19.33 10.7-22.68 9.27-3.33 19.56 1.39 22.95 10.57C45.3 69.52 46.59 79.34 30.38 82.34-5.42 60.64.54 67.62 68.07 102.95 30.21c-1.51 3.21-6.18 1.81-10.47 1.4-16.9-4.67-24.23-14.46-35.69-12.02-21.86-19.62-33.2-14.2-38.9C13.61 35.76 8.8 42.32 8.24 65.02c-1.1-6.52 2.17-7.67 6.32-7.84 1.41-1.04 6.71.46 7.33 1.92 9.16 4.91 3.14 12.55 8.32 18.23 8.05 8.85 7.78 12.65 13.52 18.56 24.92z"/><path fill="#FFF" d="M109.26 85.9c-.1-.51-3.23-1.34-1.69-1.75-.35-.72-1.14-1.5-1.69-1.99a2.62 2.62 0 0 1-.76-3.48c.34-1.12-.57-2.23-1.72-2.47zM71.78 75.01c-.6.12-1.7.27-2.36.91-2.42.52-5.25 1.78-8.22 2.68a7.87 7.67 0 0 1-6.57-2.44z" fill="#2f2f2f"/><path d="M64 6c0-8.32-6.09-17.41-16.4-27.54-17.67z" fill="#ed6c00"/></defs><path d="M37.18 67.77c-.07.21-3.34 6.65-13.76 7.59-9.3.32-1.66.21-3.31-.51-5.29-1.11-1.74-1.41-3.94-2.27-4.74-3.25-1.99-1.72-2.81-4.45-3.45-7.21-.45-2.25-.56-4.33-.71-4.99-.31-1.65-.31-3.92-.81-4.93-2.16-6.81-6.57-14.8-9.25-16.8-3.38-12.32 0-20.36 8.32-20.21 17.26a.55.5 0 0 1-.65-.69c-.01-.01-.04-.04-.07-.04-5.51-7.41-20.34-9.57-31.04-8.76-3.38-9.15-1.96-18.22-4.95-3.24-1.89-6.84-2.23-10.41-1.21-3.7.18-8 1.08-12.23 6.96-6.64 1.28-14.43 1.1-17.46-.05-.11-.15-.25-.32-.35-.18-.12-.45-.16-.79-.23-1.11-.23-.81-.6-1.5-1.28-2.77-.74-.48-1.05-1.13-1.69-1.39-.33-.21-.65-.39-.97-.51-1.14-.59-3.15-.72-4.36-1.36-10.64-13.64-13.91-28.47-14.81-41.21-.87-.34-1.38-.61-2.42-.61-1.19-.13-2.97-.91-3.62-4.46-.64-1.07-1-1.26 2.79-2.75.82 0 1.94.09 3.33.14 6.11 1 9.08 7.61 24.58 9.52 10.42 0 25.76-9.77 27.26-19.33.01-.03 00.07.01l-10.51 0z" fill="url(#c)"/><path d="M64 8c30.88 0 56 25.12 56 56s-25.12 56-56 56S8 94.88 8 64 33.12 8 64 8m0-4C30.87 4 4 30.86 4 64s18.86 63 63.89 63.68 65.89 60.69 65.89 0 63-78.04 30.63z" fill="#eb8f00"/><path d="M63.34 94.12c15.32 0 20.18 4.71 24.35 10.11S11.59 24.15 21.65 21.64 11.69 32.19 3.55 7.33-4.1 17.56-10.54 19.51-21.28 0-20.96-10.03-31.07-10.51-9.84-9.18-10.16-20.3-19.21-31.84 1.2-.89 4.84-.49 6.38-.08 12.48.31 2.02 1.37 2.53 2.45 6.6a2.99 2.99 0 0 0 2.78-2.88c.2-.24 2.98-3.01 7.39-3.64 2.09-.55 4.54.67 6.96 2.16 1.09 3.44-.53 6.26-3.93 8.32z"/><path fill="#F79728" d="M27.24 67.99c-2.17.76-4.51-.35-5.11-2.35-.33-1.72.23-3.18 2.16-4.21 1.81-.61 4.53.29 5.33 2.52.81 1.7-.71 3.79-2.25 4.68z"/></svg>
