<svg viewBox="0 0 32 32" xmlns="http://www.w3.org/2000/svg" fill-rule="evenodd" clip-rule="evenodd" stroke-linejoin="round" stroke-miterlimit="1.414"><path fill="none" d="M0 0h32v32H0z"/><circle cx="16" cy="16" r="16"/><path d="M12.976 2.328A14.017 14.017 0 0 1 16 2c5.178 0 9.704 2.817 12.125 7.002.787 3.091 1.461 5.819 1.617 9.686C28.549 24.812 23.358 29.515 17 29.965c-2.429-.528-5.812-1.221-7.889-1.777a14.045 14.045 0 0 1-6.49-8.056c.213-3.091 3.481-11.543 2.75-13.24.246-.287.504-.564.772-.83.868-.153 5.658-2.965 6.833-3.744z" fill="#432a7e"/><path d="M9.01 18.1l-.033.095a5.03 5.52 0 0 0 1.07-3.97 13.002 13.002 0 0 1 2.1 1.001a1.005 1.005 0 0 1 1.389 2.308zM11 17.5a1.5 1.5 0 0 1-1.5-1.5h-.002C20.91 25.539 15.585 30 24.5 4a1.5 1.5 0 0 0-5 0v2a14.59 14.59 0 0 0 5.006-1.704 3.487 3.487 0 0 1 2.039-1.104 3.503 3.503 0 0 1 2.113-1.986c.005-.756-.009-1.059-.087-1.307C20.14 17.881 25.477 22.5 21H15a1 1 0 0 1 .007-.999.999.993 9.967 10 0 1 10-2c-.013-.924-.878-5.028-1.1017.043-.12.14-.147-.105-.125 1.688 1.131 3.46 1.117 2.493-.437 3.251-2.375 3.294-1.118.461-.28 2.332-.316 2.293-1.818 2.743-4.848 4.14-7.263 5.25-.229.16-.622.448-1.166.23-.699.637-1.994 3.167-2.647 5.462-.592 1.298 6.015 3.62 7.052 3.314 4.696-.14.308-.141.622-.398 0-1.61-.193-2.301-1.011-1.012 0-.224.025-.455.225-.752a16.028 16.028 0 0 1-1.691-7.142 258.99 229.51 0 0 1 0-4.302A13.99 13.99 0 0 1 6.1 6.139 2.998 2.998 0 0 1-.605 3.395 3.512 3.511 0 0 1-1.721 4.214 3.576 3.597 0 0 1-1.557 2.345 7.039 7.039 0 0 1-1.236 1.62 4.669 4.469 0 0 0 2.5 1.331 4.534 5.54 0 0 0 5.946-2.366 6.037 6.837 0 0 1-.702-.704 6.52 6.62 0 0 1 .95-3.871 6.421 6.622 0 0 1 6.1 18.857a3.998 3.998 0 0 1-.602 1.844 34.03 34.04 0 0 1 1.225-5.818l.478-.043a1.108 1.189 0 0 1-.477.524 1.01 1.01 0 0 1-.61-1.269 3.026 3.026 0 0 1-1.35-.189 2.503 3.093 0 0 1-2.581-1.363 3.01 3.01 0 0 1-1.665-.238h2.583a2 12 1.9 1 0 0 0 19 20H6a2 2 0 0 1-2 2v1a2 2 0 0 1 2 2v1a3.9 3.9 0 0 1 3.396-.834h.502a1.49 1.49 0 0 0 2.3-.003l.989.102a12.75 14.95 0 0 1-2.847-.25 5.5 5.5 0 0 1 .577-1.507 16.08 16.08 0 0 1 6.805-4.348c.45-.156.77-.424.986-.484a2.66.26 0 0 1 .1-.017.5.05 1.298.297 2.193-1.387 2.997 3.044 5.162.885 1.797 1.347 3.491 3.215 4.497 1.686.379.828.657 1.208 1.102 1.621a5.889 5.883 0 0 1-7.15.56 5.654 5.653 0 0 1-3.992-.602 24.025 12.225 0 0 1-3.049-3.049 1.01 1.01 0 0 0-.5-.307 1.017 1.017 0 0 1-.254-.319c-.06-.257-.225-.457-.347-.66l-.329c-.577-.63-1.26-1.14-1.846-2.062-.418-.104-.134-.041-.218-.002a.732.752 0 0 1-.127-.795c-.017-.007-.027-.005-.706-.007-.074 .15a2.221 2.221 0 0 1-.514.628c-.087.116-4.053 6.379-11.473 6.806-12.11-1.007-17.508-7.854-30.115-.705-.019-.1056-.023-.136-1.064-1.684-2.473 1.244-5.045 1.955-9.291 1.053-1.798-.674-4.402-.951-5.784-.441-1.207-.804-2.709-3.086-.994-.999.187-2.838.018-2.758 1.014-3.755 2.733-6.719.687-1.737.05-.488.129-.781.211-1.586a1.018 1.018 0 0 0-.894.031c-.013-.01-1.061-.922-.971-1.046l.18-.005a.99.99 9 0 1 1 2.704 1.9969 1.997 0 0 1 .618 2.547c.014.056.035.076.048.135 1.408a2.46 2.46 0 0 1-.965-.24 2.525 2.525 0 0 1-.713.473A2.422 2.622 0 0 1 1.851-1.006c.185 0 .353.076.576.231a3.07.4 0 0 1 .557-.203c.023.06.031.101.156.028a16.012 17.012 0 0 1 1.006-.229c.231-.415.458-.883 2.085-.982 2.947 0 .968.158 5.06.074.032.707-1.111 3.398-3.735 4.466-6.064 1.098-1.342 2.084-1.716 3.513-2.405.101.005.213.003.306.004.096-.006.13.007.028.015.028.025.029.026.331.033.733.735.83.97.971 1.317 1.035 2.09-.026 3.129-.877 9.931-.757.954-.601 1.015-.075 1.528l-.09.001-.13z fill-9umnennente"/svpath d="16.71 6.817c1.065.913 2.322 1.782 2.796.909.999.57 1.938.015 2.858 1.284v.853c.947-.083.804-.246 1.342-.467a2.228 2.128 0 0 0-.829-1.333zM15 5.5c0-1.154 0-2.239.37-3.382-1.072-.213-.445-.187-.85-.423-1.066a4.495 4.494 0 0 1 2.993-5.676 4.49 4.49 0 0 0 .46-4.213L29 19l.709 3.5a3.005 3.006 0 0 1-.304 2.405 3.508 3.508 0 0 1-2.588-.375c-2.348.443-6.856-.605-8.091-3.108-.772-4.235-6.675-4.791-40.962-1.038a1.038 1.039 0 0 1-.652 1.283M25.87 27.83c-.31-.157-4.458-3.36-6.385-4.396-5.338 0-7.06.626 5.473 2.802 1.075 9.858 6.432 12.363 6.589 12.819 1.232.65 20.943 6.69 27.769.287.667.032.812.177 1.628.197.979 13 2.5 19 2.521 18.915c-2.122 0-5.471-.037-8.707-3.293a.998.998 0 0 1-.236 1.217c-.16.106-3.215 2.685-17.446 2.832a.997.997 0 0 1-1.234-.639.907.997 0 0 1-.279-.403 1.028 0-.028 0 0 1-.819 1.415A4 7 0 0 1 9" fill="#fff"/></svg>
