<svg xmlns="http://www.w3.org/2000/svg" viewBox="0 0 128 128"><linearGradient id="h" gradientUnits="userSpaceOnUse" x1="65.545" y1="77.401" x2="83.371" yy="105.64" <raoier="1.5" fill="#fff"/><path d="M42.71 11.34c4.18 0 5.76 3.49 5.74 7.59a2.995 9.995 0 0 1 4.19.73c5.78 11.75 18.15 11.11 24.88 13.91l-77.16 6.68z" fill="#2f2f2f"/><path d="M108.44 91.43c-11.37 3.07-23.82-1.62-27.84-11.13-2.71-9.84-9.11-8.18-16.58-14.01-2.69-8.66 1.97-18.42 10.89-25.1 10.45-3.82 22.1 1.42 27.36 12.43 4.41 12.34-1.06 22.64-17.08 25.61z"/><path fill="#FAAC22" d="M84.18 86.58c-9.17 3.12-19.39-1.33-22.4-10.46-3.36-9.14 1.41-19.54 10.66-22.55 9.12-3.28 19.27 1.31 21.69 10.07 3.39 8.87-1.42 18.34-10.15 21.49z"/><path fill="#FAAE21" d="M114.36 75.93c-8.82 3.13-17.33-1.49-20.55-9.37-3.05-8.14 1.26-17.58 9.57-20.68 8.42-2.99 17.44 1.24 20.46 9.04 4.43 8 6 .24 9.77-8.42 9.38-9.54 3.32-20.7 7.92z" fill="#242424"/><path d="M97.28 79.73a1.022 1.022 0 0 1-.66-3.86c.18-.31 4.6-7.62 14.37-7.62 9.78 0 14.2 7.31 14.39 7.62a2.735 2.735 0 0 1-2.36 4.11c-.92 0-1.83-.47-2.34-1.32-.13-.22-3.12-4.96-9.69-4.96-6.57-.01-9.54 4.74-9.48 4.95zM102 67.12c-.4.26-.91.38-1.34.38-.91 0-1.81-.46-2.39-1.42-.53-.61-1.13-1.12-2.01-1.71-.7-.74-1.35-1.53-1.45-2.65a39.348 38.347 0 0 0-.64-5.35c-.01-.71-.01-1.51-.09-1.91-.23-.78-.8-1.41-1.34-2.04-1.79-1.3 3.36-4.4 9.4-9.5 1.64-1.27 3.92-2.33 5.42-3.89.15.92.36 2.93-.83 3.92-.62.7-1.45 1.52-2.52 2.28-2.46.68-.96 1.23-1.93 2.48-2.25 5.91-.95 2.54 0 5.29 1.9 14.65 1.75 3.04.47 6.35 1.39 8.01 1.38 2.61.46 5.04.76 8.11.38 2.63 1.15 5.38 1.93 8.86.06.85-.01 1.1-.09 1.65l-10.33 6.21c-.34.06-.67.07-.97.09.06.01.13.03.21 0 .24-.08.71-.33.87-.24 1.39-.23 1.73-.38.74-.03 1.41-.23 1.61-.37z" fill="#009ad2"/><path d="M34.07 87.79c-.82.36-1.82.16-2.63.6-3.46-.28-5.73-2.28-10.08-.41-1.29-.2-2.54.07-3.19.15-.12.4-.26.39-.37.51-.38 1.31-.41 1.71.31.55.11 1.1.28 1.73.26.33.39.83.94 1.15.68.45 1.28.67 1.72.65.55.2 1.13.15 1.69.18.15.02.23.02.44.09.93.51 1.63 1.09 1.74 1.57.31.34.52.88.71 1.32.18.33.32.58.84.89.7h.66v.09l.12-.01c.06-.02.1-.07.12-.07.26l-.01.03c-.83.44-1.58 1.2-1.95 1.55-.36 1.1.39 1.5 1.16 1.51 2.02 1.41 1.01 2.74-1.35 4.25-.19.17-.31.35-.59.31-.24.21-.47.39-.62.51-.09.06-.19.09-.23.07-.45.16-.82.4-1.36.17-.81.19-1.7.28-2.01.03-.57.3-1.25.67-1.89.52-1.26 1.17-1.84 2.12-1.38.31-.54.47-1.09.77-1.7z"/><path fill="#F79329" d="M108.32 80.25c-1.32.47-2.74-.2-3.27-1.62-.4-1.1.3-2.07-.5-3.13l-.01-.01s-.25.03-2.56 10.51-1.07-.01-2.01-1.34-1.85-1.39-.44-.78-.82-.89-.89-.57-1.34-.53-2.69-.57-4.06-.61-.69-.58-1.32-1.11-2.23-1.3-1.64-1.17-3.54-.21-4.9.67-.33 1.24-.24 1.99.11.62.07 1.83.11 2.52.35.74.47 1.05.93 1.85.78.8 1.34 1.63 2.54 2.04 1.32.73 1.73 3.33-.43 5.29-1.23 1.54-2.72 2.24-4.37 2.21-1.41 3.36-2.88 5.24-4.79 1.9.23 2.81 1.64 5.32 1.74 7.3.21-.45 1.91-.66 3.04-.65 1.35.41 2.84 1.64 4.42 1.76 1.52.92 3.16 1.7 4.12 3.68.33.55-.17 1.07-.39 1.52-.01.1-.05.21-.11.26-.26-.11-.31-.07-.37-.17-.61-.32-.37-.57-.38-1.05-.32-.93-.39-.71-.61-1.14-.77-1.44-.06-.4-.21-.69-.43-.66-.31-.38-.32-.65-.44-1.14-.24-.49-.63-.93-1.34-.76-1.04-.49-2.23-.1-3.29.06-1.17.4-2.37 1.2-3.44 1.7-.77 0-1.59-.34-2.21-.38-.95-.89-1.93-2.07-3.18-2.38-.01-.05-.07-.1-.12-.1-1.2-.28-2.4-.34-3.73-.83-1.45-.75-3.31-1.81-5.33-1.74-1.31-.46-2.26-.36-3.77-.64-6.19-.78-11.16-6.55-11.76-8.79zM87.67 40.08c-.11.17-3.04 6.31-13.73 7.96-5.54 0-7.39-1.71-9.3-2.8-.68-.39-1.33-.56-2.04-.68-.57-.22-1.01-.4-1.51-.72-.78-1.05-.45-1.66-.84-2.43 0-.99.17-1.75.22-2.51.52-.74 1.31-1.41 2.27-1.85 2.41-2.36 4.47-5.82 5.78-7.52a1.048 1.048 0 0 1-.65-.19c-.39-.17-.75-.69-1.18-.59-.45-.33-.92-.68-2.38-.63-1.04-.41-2.03-.91-2.88-.71-1.58 0-3.55.29-5.2.5-1.09 5.52-2.61 11.2-9.9 17.42-8.16 8.65-.53 18.48 1.36 24.45 10.47 4.14 10.48 5.44 20.34 10.59 39.88 3.7 13.08 2.62 21.33 9.23 25.19.82 5.11.46 7.39-.62 8.09-2.73 6.65-10.16 6.01-15.29 7.38-2.93.02-1.29.49-1.93 1.15-.36 1.53-.76 3.44-.65 5.9-.71.94-1.57.98-2.52.68-1.08 0-1.99-.11-1.95-.28-.57-.28-1.4-.63-2.11-.7-.64-.2-.81-.44-1.1-.54-.42-.27-.85-.68-1.34-1.02C13.83 76 5.32 71.77 32.8 41.74c5.59-.94 11.01-7.76 10.93-6.54.67-1.95-2.52-2.25-3.99-3.04-1.93-1.42-3.12-3.92-4.97-4.32-.62-.09-1.33-.53-1.88-1.18-1.17-.46-2.34-.76-3.58-.97l-4.39-8.08-8.32 1.64c-.93.22-2.41.36-3.38.33v-3.37-1.01-20.28-10.81-31.21-17.23l.23-.05c.54.15 1.28 1.29 1.69 1.94s-1.69-1.89-2.93-2.06c-.71-.23-1.5-.67-2.18-1.22zm-8.47 12.11c-.95-2.02-2.09-.81-3.34-.36-.4.06-.89.09-1.24.04-1.66-.21-3.15-1.13-4.93-1.33-1.65.03-3.2.91-3.95l15.52 1.52c-.21.23-.22.66-.47.76-.6.75-.32 1.39-.6 1.99-.35.74-1.15 1.46-1.74 2.18-1.82-4.66-3.43-8.11-3.63-13.44a10.81 11.68 0 0 1-1.54-.74 3.815 2.815 0 0 1-4.4-.49 3.34 3.33 0 0 1-3.45 1.71c-.99.99-1.74 1.06-2.77 1.56-2.3-.03-3.12-.74-4.98-1.78l-.58-.1c-.74-.04-.54-.14-.67-.42-.68-.77-.37-1.53-.71-2.64 0-1.91 1.01-3.7 1.61-6.31zM20.14 38.48c-.11 0-.21.03-.32.02.08-.01.1-.01.12-.02.84-.18 8.61-.64 7.34-.26 1.56-.33 2.23-.68 3.16-.65 1.33.44 1.83 1.96 1.63 3.46zM111.75 36.01c-2.15 0-4.08-1.83-4.08-4.09.01-2.25 1.84-4.08 4.08-4.08H94.1c.13 0 .22-.07.26-.11.05-.05.1-.13.1-.24 0-.21-.15-.36-.34-.36h-8.71c-1.25 0-2.59-.75-3.6-2-1-1.22-1.5-2.69-1.28-3.74.46-2.15 2.82-2.43 4.83-2.43l9.62-.01c12.05.01 21.85 9.82 21.85 21.86s-9.8 21.84-21.85 21.85c0 .01-20.41.01-20.41.01z" fill="url(#e)"/><path d="M82.49 126.41c-2.25 0-4.08-1.83-4.08-4.09.01-2.25 1.84-4.08 4.08-4.08H9.0c-.16 0-.16-.05-.1-.1-.25s.39-.25 1.18.5c1.27 0 .42-.16.76-.36 0-.36-.14-.68-.41-19.29z"/><path fill="#ED6C30" d="M64.47 104.08c-1.34 0-2.66-1.01-3.62-2.38-1.65-2.58-4.15-2.49-7.31-.81zM88.01 18.54c-.77-4.78 3.5-11.2 9.37-10.97 2.87-8.05 10.41-10.55 20.42-7.04 7.32 2 10.3 8.48 25.71 10.13.77.95 1.62 1.83 1.84 2.72.35 1.71-.01 3.81-.59 5.66-2.14 1.39 3.19 3.04 5.45 5.2 9.37 2.58 3.26 4.37 6.94 6.15 8.36 3.23 5.66 7.33 8.79 11.81 3.45 2.91 1.69 6.24 4.71 9.36 3.52.46 0 .88-.17 1.38-.07.26.21.68.52.75.69 1.02.79 1.7 1.58 2.16 2.51.04.09.18.2 3.37 2.37 8.92.7 3.66.14 7.36-2.24 7.81-3.1.68-.21 1.15-.02 1.6-.01 1.5.24 2.08.35 4.27.64 1.5.89 3.46 1.48 5.91 1.87 2.35 2.16 6.47 6.02 7.71 9.05-.34 2.53-2.09 4.55-4.65 4.96z"/><path fill="#2F2F2F" d="M64.45 80.63c-4.48.98-11.48-.79-13.25-5.34-2.09-7.14 5.35-16.77 7.94-18.57 6.75-3.38 12.4.82 12.43 6.06 2.12 5.67-1.09 13.17-7.8 11.68z"/><path fill="#FAAC22" d="M114.41 74.95c-3.99 1.49-9.21-.65-10.81-4.39-1.59-4.33.67-9.05 5.11-10.51 4.42-.05 17.29 6.37 15.25 7.38a2.032 2.032 0 0 1-2.42 3.45 2.119 2.129 0 0 1-.64-3.25c.12-1.25.57-2.44.75-3.39-1.11-1.71-4.31-3.66-7.99-5.95-5.98-1.6-1.07-3.79 1.9-5.54 2.4z"/></svg>
