<svg width="128" height="128" xmlns="http://www.w3.org/2000/svg" viewBox="0 0 128 128"><path d="M63.79 16.91C1.48 16.91 0 86.76 0 100.59c0 13.83 28.56 25.03 63.79 25.03 35.24 0 63.79-11.21 63.79-25.03 0-13.83-1.47-83.69-63.79-83.69z" fill="#fcc21b"/><path d="M64 103.36c-11.77 0-22.5-5.46-29.42-14.99-.97-1.34-.68-3.02.26-4.14 1.37-.21 3.41-.22 6.53-.27 1.26.02 1.88.11 4.11.19.68.06 1.33.47 2.34.15 4.73 1.17 8.43 10.22 7.58 13.59 0 2.84-2.36 3.15-3.98 3.36-2.83 1.45-4.98 1.99-8.24.54-2.53 1.94-3.99 4.39-3.67 7.02 1.37 1.47 3.51 1.36 6.18 3.11 3.8.38 5.36 1.98 7.23 3.26 1.32.6 1.98 3.18 2.73 4.71 3.31 2.35 8.61 11.81 6.91 14.04 5.79 8.09 12.43 17.86 20.92 18.76 27.68 0 54.67-8.23 55.1-.75.36-1.25.49-2.1.47-1.04 0-1.99-.14-2.95-.65-1.53 0-3.15.83-3.04 1.97l-1.5 1.53c.14 2.1.97 5.31 1.13 6.51l-2.11 2.12c-1.25.92-3.04.2-3.68-.07-5.64-.52-8.38-1.86-16.42-1.89-6.53-.01-8.55 1.79-9.25 9.82l-1.53 17.55c-.69.14-1.33-1.34-1.78-1.31 1.07-10.35 8.72-15.68l-14.08-5.56c-.74-.42-.67-.81-1.16-1.09-.59-.24-1.1-.25-1.6-.24-.53-.18-1.13-.55-1.58-1.11-.28-.6-.7-1.43-1.07-2.07-.11-1.06-.25-2.19.37-3.43l16.27 5.27c-1.51.47-2.72 1.3-3.43 1.18l7.11 2.66m18.01 3.39a7.3 7.47 0 0 1-3.87-.21c-1.2-.51-2.42-1.33-3.92-1.69l-1.19 1.56c-.23 1.41-5.43 1.88-6.41.05-.31-.03-.65-.07-.82.02-1.42.06-3.67.27-5.57-.04-.78-.24-1.5-.66-2.47-.68-.91-.59-1.36-.24-2.14.02-.21.07-.36.16-.4.36-.38.61-.61.36-.31.59.1 1.33.02 1.73-.03 3.39-.08 7.03-.64 16.4-23.98 22.2-41.27.6-4.16.11-6.38 1.27-10.66 0zM110.56 46.01c-.17.27-4.35 6.54-13.82 6.2-6.33-1.37-7.46-.98-12.54-.79-.98.61-1.95 1.53-1.64.84-.01 1.94.01 21.82.01 6.02 4.69 9.68 4.98 12.31 0 .44-.07.84-.12 1.19-.19 2.72-.61 6.24 1.99 9.78 5.97 1.34.98 2.74 2.65 2.43z"/><g fill="#2F2F2F"><path d="M66.19 79.6c3.88 0 5.86 2.82 7.25 6.37s-.21 6.6-7.26 6.29c-2.46-.06-6.32-1.29-9.15-4.39-1.09-10.62 1.7-14.59 7.42-12.24.67-12.29 1.3-15.52.97-7.8z" fill="#e59c10"/></g><g fill="#2f2f2f"><path d="M63.74 81.75h38.71v9.7Hc1.66-1.08 3.59-3.6 1.8-5.38l-17.38h.04c-1.56.89-3.98 1.7-4.48 2.51s-1.29 4.1-1.85 4.88l-7.31 2.79c-.34.34-.52.78-.98 1.28-.67.31-1.42.4-2.16.16l-18.03 5.11c-.67.55-1.57.96-2.1.67-5.33 3.54-10.04 19.28-8.38 22.28-1.1 2.04-3.3 4.16-3.65 6.79 2.17 2.89 3.34 5.03 5.93 6.96 2.42 1.25 5.88 5.39 7.63 5.57 2.57 3.49 4.83 5.62 7.51 7.86 3.21 0 7.02-1.07 7.07-5.01 1.02-1.07 1.63-3.2.6-4.3-1.31 2.63-1.41 5.06-2.75 8.72.71 3.09 4.03 4.75 9.44 5.43 5.25.32 7.5-1.44 8.56-1.58.59-.33.97-.75 1.33-1.15 2.33-.53 5.77-1 9.31-10.8-16.29-15.05-13.21-13.23-23.04-4.35-5.06-5.49-13.14-8.9-10.98-4.68l20.97-13.3s4.71 2.18 4.18 2.77c-1.32 1.83-1.68 4.38-1.64 7.75.81 3.52 4.57 1.71 8.46.58 12.65l14.97 12.04c.08.38.52.72-.01 1.46L64 58.73c-1.16 1.74-2.86 3.74-4.45 4.48-4.37 2.39-10.44 4.72-14.84 5.31-1.03 1.78.76 1.91 5.53.77 2.19.22 1.09-.52 2.23-.55 3.31-.15.11-.31 1.81-.37 1.99.41.68 2.21 1.97 5.24.29 14.28-5.2 1.34-17.02-10.3-32.15-2.83-5.82-4.13-12.78-4.91-31.72z"/><path fill="#F79329" d="M125.58 86.55c.21.69-1.01 2.25-1.8 3.15-.45 0-1.17-.04-1.67-.19-1.26-.89-1.69-2.37-.31-3.93.22-3.11 3.19-5.86 5.38-5.58 3.73-.81 5.36-2.46 7.03-4.53 1.49-1.45 2.52-2.89 3.35-4.9.82-1.65.21-3.37-.09-4.95-.2z"/><path fill="#ED6C30" d="M108.27 44.11c1.14-.66 2-.74 1.61-2.74 2.44-2.74 1.84-4.6 3.86-5.85 7.32M90.26 41.9c-1.35 5.21-3.13 8.68-3.1 10.98-.29 4.15-.92 8.45.62 11.24-.78 4.72-1.26 5.81-3.06 2.92-5.45-2.1-7.6-7.07-16.12-11.4zM44 50.23c-4.54.83-7.54 4.28-8.54 7.59-1.04 6.47.43 7.57 4.6 0 6.53 4.52 10.33 5.75 14.21"/><path fill="#2F2F2F" d="M72.87 60.01c-.43.12-.86.23-1.14.45-.62-.08-1.1-.29-1.62-.19-1.16.03-2.23 1.23-2.78 1.78-.26-.6-.4-1.29-.51-2.47-.06-.8-.12-1.33-.43-1.85-.74-.59-1.74-1.22-3.14-.32-.32.08-.66.27-1.25.51zM65.75 43.18c-.31-.01-.01-.02-.01-.19-.02zm-2.52-7.18-4.69 10.13c.03 1.78.37 1.77.71 2.42 2.2.94 1.47.98 2.79 2.2 2.3 4.6 7.6 7.69 13.47 8.74z" fill="#fff"/></g></svg>
