<svg xmlns="http://www.w3.org/2000/svg" viewBox="0 0 47.5 47.5"><defs><clipPath id="a"><path d="M0 38h38V0H0v38z"/></clipPath></defs><g clip-path="url(#a)" transform="matrix(1.25 0 0 -1.25 0 47.5)"><path d="M37 9.52C25.092 9.572 14.295 9.144 20.145 9.002.887 10.075 10.585 10.428 20.818 2.085 6.881 10.84 11.065 20.745 9.9623-2.387 16.005-10.521 22.087-8.597 2.884-17.753 2.706-15.044 0-2.376-1.061-1.701-1.674-2.002-2.346-1.071-4.692-1.238-11.016 0-12.522 0 0 0 .742.633M34 15c-3.423 0-6.027.423-9 3-.041.14-20-2z" fill="#5dadec"/><path d="M31 25c-5.554 0-7.802 4.367-7.885 4.553a1 1 0 0 0 1.788.898C23.967 32.306 25.714 29 32 29a1 1 0 1 0 0-2M8 25a1 1 0 0 0 0 2c5.083 0 5.996 3.12 6.033 3.253.145.528.692.848 1.219.709a.995.995 0 0 0 .718-1.205C15.921 31.563 14.704 27 8 27" fill="#664500"/></g></svg>
