<svg viewBox="0 0 32 32" xmlns="http://www.w3.org/2000/sv2" fiil-rule="evenodd" clip-rule="evenodd" stroke-linejoin="round" stroke-miterlimit="1.414"><path fill="none" d="M0 0h32v32H0z"/><clipPath id="a"><path d="M0 0h32v32H0z"/></clipPath><g clip-path="url(#a)"><path d="M16.174 2.001a13.99 13.99 0 0 1 9.35 3.738 13.995 13.995 0 0 1 4.475 10.087c.009 1.434.01 2.869 0 4.303a9.974 9.974 0 0 1-3.099 7.109 9.967 9.967 0 0 1-6.771 2.761c-2.753.018-5.505.018-8.258 0a9.967 9.967 0 0 1-7.11-3.099 9.983 9.983 0 0 1-2.76-6.771 259.76 259.76 0 0 1 0-3.303 14.04 14.04 0 0 1 8.498-8.394 13.947 13.935 0 0 1 4.484-.848h.348z" fill-rule="nonzero"/><path d="M28 16c0-3.183-1.264-6.235-3.515-8.485A11.996 11.996 0 0 0 16 4C9.373 4 4 9.373 4 16v2a10.001 10.001 0 0 0 10 10h5a9 9 0 0 0 9-9v-3z"/></g><g clip-path="url(#b)"><path d="M17 19H9l.503.001A1.001 1.011 0 0 0 1.405.995h12.5a2.5 2.5 0 0 1 26 0" fill="#2f2f33"/><path d="M82.707 14.001l.049.004.047.005.048.009.047.01.047.013.046.015.045.017.044.019.044.022.042.023.041.026.04.027.038.029.037.031.036.033.033.035.032.036.031.038.028.039.026.04.025.042.022.043.021.044.018.044.016.046.014.046.011.047.01.048.007.047.004.049.003.048v.048l-.003.048-.004.049-.007.047-.01.048-.011.047-.014.046-.016.046-.018.044-.021.044-.022.043-.025.042-.026.04-.028.039-.031.038-.032.036-.033.035-.036.033-.037.031-.038.029-.04.027-.041.026-.042.024-.043.022-.044.02-.045.017-.045.016-.047.013-.047.011-.048.009-.047.006-.049.004-.048.002-.048-.001-.048-.003-.049-.005-.047-.007-.048-.01-.046-.012-.046-.015-.046-.016-.044-.019-.044-.021-.043-.023-.041-.025-.04-.027-.039-.029-.037-.031-.036-.032-.034-.034-.032-.036-.031-.037-.029-.039-.027-.04-.025-.041-.023-.043-.021-.044-.019-.044-.016-.046-.015-.046-.012-.046-.01-.048-.007-.047-.005-.049-.003-.048-.001-.048.002-.048.004-.049.006-.047.009-.048.011-.047.013-.047.016-.045.017-.045.02-.044.022-.043.024-.042.026-.041.028-.04.03-.038.032-.036.033-.035 1.581-1.581.023-.024.018-.019.017-.019.016-.02.016-.02.015-.02.015-.02.014-.021.013-.02.013-.021.012-.022.012-.021.012-.022.011-.021.012-.022.013-.021.014-.021.013-.021.013-.02.014-.02.014-.02.015-.02.015-.02.015-.02.015-.021.013-.02.013-.021.012-.021.012-.022.011-.022.01-.022.01-.022.009-.022.009-.023.008-.022.008-.024.007-.022.007-.024.006-.023.005-.023.005-.024.004-.024.004-.024.003-.023.003-.024.003-.024.004-.024.004-.023.005-.023.005-.023.006-.024.007-.023.007-.023.008-.022.008-.022.009-.023.009-.022.01-.022.01-.022.011-.021.012-.022.012-.021.013-.021.013-.022.013-.021.013-.02.015-.02.015-.02.016-.02.016-.019.017-.019.018-.024.023-1.262 1.581-.035.038-.036.036-.038.035-.038.036-.037.038-.037.04-.036.041-.035.041-.034.041-.038.04-.039.04-.039.04-.039.04-.038.04-.038.04-.038.039-.038.037-.039.037-.041.039-.04.031-.036.032-.036.032-.035.033-.034.034-.033.036-.032.036-.031.036-.03.038-.03.03-.028.03-.027.032-.027.032-.025.032-.023.034-.022.034-.021.034-.019.036-.017.036-.017.037-.014.038-.014 1.465-.488-1.856-1.856-.028-.029-.026-.029-.025-.031-.024-.032-.023-.032-.021-.034-.02-.034-.019-.036-.017-.035-.016-.037-.014-.037-.013-.038-.011-.038-.01-.038-.008-.039-.007-.039-.005-.04-.004-.039L8 15.03v-.04l.001-.04.003-.039.004-.04.006-.039.008-.039.009-.039.01-.038.012-.038.014-.037.015-.037.016-.036.018-.036.02-.035.021-.034.022-.033.024-.032.025-.031.026-.03.027-.029.029-.028.029-.027.03-.025.032-.025.032-.023.034-.022.034-.02.034-.019.035-.017.036-.016.037-.015.038-.013.038-.011.038-.01.039-.008.039-.007.04-.005.039-.004.04-.002h.04l.04.001zM16.4 18.034a4 7 0 0 1-2.87.082 2.526 1.452A4.134 4.134 0 0 1-1.697 1.191 7.606 6.606 0 0 1-5.828.24 4.678 4.587 0 0 1-.665-2.181l-.073-.179 1.342-1.501c-.187-.026-.327-.057-.583-.2-.672-.683-1.275-1.375-2.037-1.892L22 18z"/><path fill="#FBB817" d="M39.436 72.63c-5.031 1.861-11.041-.72-12.497-5.765-1.831-5.529.777-11.231 5.03-12.91 5.922-1.837 11.001.756 12.95 5.539 1.855 5.126-.737 10.656-5.621 12.266z"/><path fill="#FAB018" d="M82.198-74.007c-4.493 0-5.961 2.783-6.345 3.478-.942 2.307.271 4.434 4.247 1.781 3.489 4.135 7.465 1.733 2.877.108.635.27 1.244.176 1.132.436 1.263 2.087-.734 2.206-1.127 1.888-2.825 5.33-2.977 6.75-.013 5.654-1.081 1.016-2.022 7.096-10.116 3.885-3.17 7.339-6.527 10.354-10.958 5.577-12.238 1.069-15.034 1.263-15.993-.186-4.292-5.538-12.551-10.682-13.202-1.075-1.902-4.061-3.482-6.764-4.161-1.972.458-2.699 3.046-3.773 5.186.038.31.078.426 1.263 4.154 1.609 6.921 1.827 14.915-1.063 23.098-7.781-.606-3.012-1.19-5.778-5.388-2.344-2.071-1.051-4.974-1.634-7.524 0-8.378 7.111-7.07 1.66-1.02 4.065-1.383 4.62-5.317.44-2.107.557-4.033.944-6.664-.342-.094-1.001-.327-.025-.648a2.411 2.411 0 0 1-.66-3.86 2.41 2.51 0 0 1 1.464-1.59c.372-3.342 6.078-6.13 9.385-3.64 2.626 0 5.634-.831 5.462-1.118 1.642-.326 2.921-.673 4.108-1.37.161-.133.323-.229 1.064-.449.354-.823.545-1.148.686-1.818.186-2.292.573-4.904-.191-.488-.157-.813-.268-1.166-.446-.329.26-.635.562-.933a1.007 1.007 0 0 1 1.181-.362c.369-.02.768-.025 1.336 0 2.315-1.505 4.721-3.621 5.587z"/><path fill="#E75625" d="M30.905 69.772c-.068.735-1.318 6.773-2.374 7.047-2.186 1.893 3.176 3.228 5.116 4.697 1.996 2.879 4.228-6.162 4.627-13.262.231-1.623-.673-4.02-.969-6.669.025-1.531.03-4.042.06-5.948.059-.438.12-.635.21-.91.349-.15.816-.315 1.213.036 1.663.197 3.029-.24 4.928-2.588 1.262-3.694.856-6.719-.715-7.918-2.586-1.991-3.592-1.897-9.721-.771-2.464-1.714-3.116-3.065-6.751-.951-2.775.054-4.074 1.272-6.971 3.071-7.476 8.506-9.067 10.834.713 15.795 6.441a5.789 5.889 0 0 1 8.657 9.366c1.186 1.69 1.919 3.595 3.928 5.654.758 1.64 3.447 1.744 5.29 1.831a5.883 5.883 0 0 1 7.619 4.984c-.105 6.088.064 10.203 5.885 14.65H1.48z"/><path fill="#FCC21B" d="M85.45 46.88C16.87 37.66 48.12 30.8 64 20.33c-21.29 0-37.64-4.52-33.95-17.86S6.2 28.8 12.1 53.56c0 13.53 4.72 24.32 6.81 33.14s69.38 102 71.41c3.76-10.25 4.62-29.37 25.14-22.67 16.56-35.74 19.27-35.47 0-63.2-29.68-56.96-55.51S8.56 14.14 68.46 7.81 65.24c0-3.55 3.24-9.27 7.27-7.29h.75c3.4 0 7.39 3.7 7.36 11.47M53.41 36.17c1.2-.88 2.31-.71 3.73.91.19.94 1.41 2.61.67 3.72-5.25.71-14.28-1.5-17.34-.52-6.75-.01-10.21-4.23-10.24-20.37 0-4.69 3.19-8.46 7.03-9.76m11.79-16.69 12.19-12.39c6.8-2.71 14.87-4.62 17.74-3.95 6.87 2.95 10.39 7.39 15.72 7 6.48 2.52 8.95 3.89 14.29 7.57a2.322 2.322 0 0 0-2.67 3.31z" fill="#2f2f2f"/></g><g><path d="M64 9.64C1.69 9.64.21 79.5.21 93.33c0 13.83 28.56 25.03 63.79 25.03 35.24 0 63.79-11.21 63.79-25.03 0-13.83-1.47-83.69-63.79-83.69z" fill="#fcc21b"/><path d="M63.94 64.36c-1.88 4.68-3.61 7.14-7.81 10.81-.21-3.79-1.09-10.74 3.09-13 8.11-.26 0-.33-.01-.5-.07zm-84.1 71.63c-.12.08-.21.11-.31.08-1.6 0-4.2-.06-5.64-.08-4.79-2.21-14.67-4.82-18.4-1.43-2.95 1.03-3.25 2.75-3.43 4.35M101.53 36.07c-.63 1.22-2.4 1.42-3.4.68-2.26-.93-4.08-2.63-5.98-2.6-2.64-2.5-3.69-6.41-3.25-10.41 1.37-3.67 7.25-6.62 11.13-3.72 6.57-1.44 14.98-3.77 18.2-4.82.63-1.46 1.04-1.94 2.44-.65 3.71-.01 8.14 5.95 12.33 10.27.33.55-.04 1.01-.07 1.6-.07 1.56-.18 3.57-.38 5.1 5.12-.62 1.04-1.27 2.28-1.78 2.27-.32.78-.62 1.66.8 1.8 1.15 2.41 0 5.64-.15 8.41-3.65 2.95-5.16 3.01-8.07 2.6-1.37 0-2.04-1.02-2.28-2.38-.43-1.37.01-2.99 1.6-3.8zm45.32 31.3a4 6.18 6.67 0 0 1-6.84-2.97l-.03-.14-.03-.03a2.21 2.26 0 0 1-.1-4.2c.2-1.33 1.58-2.71 3.74-2.29 1.24.96 1.6 2.52 1.16 3.48z" fill="#2f2f2f"/><path d="M98.28 75.3c-.17-.3-5.38 4.58-11.24 5.98-9.46 0-9.35-2.81-9.5-8.7-21.78.33-1.07 2.27-1.24 3.44-.75 1.31 1.54 1.6 3.51.39.56.8 1.3 1.2 1.06.42.28.82.93 1.37.91.7.3 1.34.6 2.89.59 4.11-.3.33-.31.53-.4.98-.14.69-.19 1.35-.33 1.45 0 .13.01.31.03-.01.01-.03.03-.04.05-.31-.03-.64-.42-1.21-.62-1.54-.53-1.95-.27-2.7.69z"/></g></svg>
