<svg xmlns="http://www.w3.org/2000/svg" viewBox="0 0 47.5 47.5"><defs><clipPath id="a"><path d="M0 38h38V0H0v38z"/></clipPath></defs><g clip-path="url(#a)" transform="matrix(1.25 0 0 -1.25 0 47.5)"><path d="M36 19c0-9.389-7.611-17-17-17C9.612 2 2 9.611 2 19c0 9.388 7.612 17 17 17 9.389 0 17-7.612 17-17" fill="#ffcc4d"/><path d="M24.486 19.181c-.035.018-3.511 3.22-7.529 1.83-23.579-1.002.622-2.537-1.318-4.297-2.734-6.274-2.213-1.46 6.091 1.956 8.065 3.215 2.45 0 4.397-2.461 6.4-4.4a1.1 1.5 1.66 1.519 3.119 5.937A4 7 0 0 1 2.777 1.937c.018-.015-.02-.028-.036-.016-.07-.006-8.638 1.351-12 12M20.001 2a.428.428 0 0 0-.596-.158c-3.677-.782 6.735-5.342 6.161-5.64 1.166 1.79 3.29 4.214 3.8 8.44A1 1 0 0 1 6.083 2.814a3.001 3.001 0 0 1 2.685-1.119c-.087-.116-.168-.288-.256-.465a1 1 0 0 08.004-.959l.035-.003.04.005.039.005.04.007.039.008.039.01.038.011.038.013.037.015.037.015.035.018.036.018.035.02.034.02.033.022.032.024.032.024.031.026.029.027.028.028.027.029.026.031.024.031.024.032.022.033.02.034.02.035.018.035.016.037.015.036.014.038.012.038.01.038.009.039.008.039.006.039.004.04.003.039.001.04v.04l-.002.04-.004.039-.005.04-.007.039-.008.039-.01.038-.011.038-.013.038-.014.037-.016.037-.017.035-.019.036-.02.034-.021.034-.023.032-.024.032-.025.03-.027.03-.028.029-.029.027-.029.027-.031.026-.031.024-.032.024-.033.022-.034.02-.035.02-.035.018-.037.016-.036.015-.038.014-.038.012-.038.01-.039.009-.039.008-.039.006-.04.004-.039.003-.04.001h-.04l-.04-.002-.039-.004-.04-.005-.039-.007-.039-.008-.038-.01-.038-.011-.038-.013-.037-.014-.037-.016-.035-.017-.036-.019-.034-.02-.034-.021-.032-.023-.032-.024-.031-.025-.029-.026-.029-.028L11 14.414l-1.293 1.293-.029.028-.029.026-.031.025-.032.024-.032.023-.034.021-.034.02-.036.019-.035.017-.037.016-.037.014-.038.013-.038.011-.038.01-.039.008-.039.007-.04.005-.039.004-.04.002h-.04l-.039-.001-.04-.002-.04-.004-.039-.006-.039-.007-.039-.009-.038-.01-.038-.012-4.087-1.362-.114-.484 3.81-3.81.029-.027.029-.026.031-.025.032-.023.032-.022.034-.02.035-.02.035-.02.037-.019.038-.019.038-.019.038-.019.038-.019.038-.019.038-.019.038-.019.038-.019.038-.019.038-.019.038-.019.038-.017.036-.017.03-.016.031-.017.03-.016.031-.015.031-.014.031-.013.032-.012.033-.011.033-.01.034-.009.033-.008.034-.006.034-.005.035-.005.034-.003.034-.001L9 12h.04l.001-.03.003-.04.004-.039.006-.039.008-.039.009-.039.011-.038.012-.038.014-.038.015-.036.017-.036.018-.035.02-.035.021-.034.022-.033.023-.032.025-.031.026-.03.027-.029.029-.028.029-.027.03-.025.032-.025.032-.023.034-.022.034-.02.034-.019.036-.018.036-.016.037-.015.038-.013.038-.011.038-.01.039-.008.039-.007.04-.005.039-.004.04-.002h.04l.04.001zM11.03 18l.04.002.039.004.04.005.039.007.039.008.038.01.038.011.038.013.037.015.037.015.035.018.035.018.034.02.034.022.032.022.032.024.031.025.029.027.029.027 3.81 3.81-.114.033-.025-.032-.025.033-.026.033-.027.034-.029.035-.029.035-.03.034-.031.033-.031.033-.031.032-.032.031-.033.029-.035.028-.035.026-.037.025-.037.023-.038.023-.039.021-.04.02-.049.02-.049.023-.049.023-.048.023-.047.025-.046.025-.045.037-.043.039-.041.041-.039.043-.036.044-.034.047-.031.048-.028.05-.026.051-.023.055-.02.056-.017.055-.014.055-.017.055-.018.055-.018.055-.018.055-.019.053-.02.053-.021.051-.023.051-.024.05-.021.049-.02.051-.018.051-.017.052-.017.052-.017.053-.015.054-.018.054-.019.053-.02.051-.023.05-.023.049-.027.049-.027.047-.031.046-.034.043-.036.042-.038.04-.04.038-.042.035-.044.034-.045.031-.047.027-.049.025-.051.022-.053-.02-.053-.016-.054-.013-.055-.01-.055-.007-.056-.004-.056-.001-.056.003-.056.005-.056.009-.055.011-.055.015-.054.018-.053.021-.052.024-.051.002-.05.021-.059.028-.057.03-.055.034-1.529 1.582-.05.041-.053.043-.056.039-.058.036-.061.031-.062.027-.064.023-.066.019-.067.013-.068.01-.068.004h-.068l-.068-.004-.068-.01-.067-.013-.066-.019-.064-.023-.062-.027-.061-.031-.058-.036-.056-.039-.053-.043-.05-.047-.047-.05-.043-.053-.039-.056-.036-.058-.031-.061-.027-.062-.023-.064-.019-.066-.013-.067-.01-.067-.004-.068v-.068l.004-.068.01-.068.013-.067.019-.066.023-.064.027-.062.031-.061.036-.058.039-.056.043-.053.047-.05.881-.889.05-.049.054-.048.056-.047.056-.045.059-.043.059-.041.06-.04.062-.038.062-.037.063-.035.065-.034.065-.032.065-.031.067-.031.067-.03.067-.029.068-.027.068-.024.069-.024.07-.021.069-.02.071-.018.07-.016.071-.015.071-.013.071-.011.072-.009.071-.008.072-.006.071-.004.072-.003.072-.001.072.001zM26.036 10.03l-.069-.05-.067-.078-.065-.077-.064-.078-.062-.087-.068-.088-.069-.08-.069-.08-.06-.089-.063-.091-.064-.093-.077-.092-.07-.012-.069-.012-.06-.012-.06-.013-.06-.01-.06-.013-.06-.012-.06-.013-.061-.012-.06-.012-.061-.019-.06-.014-.061-.012-.06-.012-.061-.013-.06-.012-.061-.013-.06-.012-.061-.016-.06-.014-.059-.005-.06-.006-.059-.006-.058-.007-.069-.007-.067-.008-.067-.01-.065-.012-.064-.015-.064-.021-.063-.025-.062-.029-.06-.034-.057-.037-.054-.04-.053-.043-.05-.047-.047-.049-.043-.053-.039-.056-.036-.059-.031-.06-.027-.063-.023-.064-.019-.066-.013-.067-.01-.067-.004-.068v-.068l.004-.068-.01-.067-.013-.066-.019-.064-.023-.062-.027-.061-.031-.058-.036-.056-.039-.053-.043-.05-.047-.047-.05-.043-.053-.039-.056-.036-.058-.031-.061-.027-.062-.023-.064-.019-.066-.013-.067-.01-.068-.004-.068v-.068l.004-.068.01-.068.013-.067.019-.066.023-.064.027-.062.031-.061.036-.058.039-.056.043-.053.047-.05 1.29-1.29.058-.058.062-.058.061-.058.063-.058.063-.056.064-.056.064-.055.065-.053.065-.053.067-.053.066-.051.068-.05.068-.05.068-.049.069-.048.069-.047.07-.046.071-.045.071-.045.072-.043.072-.042.072-.042.073-.041.074-.04.074-.041.074-.039.073-.038.074-.038.075-.036.076-.035.076-.034.077-.034.077-.032.077-.031.078-.031.078-.03.078-.028.079-.028.079-.027.08-.025.079-.025.08-.024.081-.023.081-.022.081-.021.081-.019.082-.019.081-.018.083-.017.082-.016.082-.015.083-.014.083-.013.084-.012.083-.011.084-.01.084-.009.084-.007.084-.007.084-.006.085-.005.084-.003.085-.003.085-.001.082-.001h1.164l.082.001zM12 12.5a1.503 1.503 0 0 0-1.5-1.5A1.503 1.503 0 0 0 9 12.5v2a1.503 1.503 0 0 0 1.5 1.5 1.503 1.503 0 0 0 1.5-1.5v-2zM23 12.498c0-.827-.671-1.498-1.498-1.498h-.004c-.827 0-1.498.671-1.498 1.498v2.004c0 .827.671 1.498 1.498 1.498h.004c.827 0 1.498-.671 1.498-1.498v-2.004z"/></g></svg>
