<svg xmlns="http://www.w3.org/2000/svg" viewBox="0 0 128 128"><path d="M63.89 9.64C1.58 9.64.1 79.5.1 93.33c0 13.83 28.56 25.03 63.79 25.03 35.24 0 63.79-11.21 63.79-25.03 0-13.83-1.47-83.68-63.79-83.68z" fill="#fcc21b"/><path d="M63.94 64.06c-14.02 0-27.3-3.13-44.22-13.32 9.31-14.09 17.56-24.45 35.6-43.42l11.65-4.8z" fill="#442428"/><path d="M106.48 71.68c-1.44.91-2.93 1.31-4.99 1.72s-1.33 1.29-2.85 1.25c-1.25.89-2.68 1.81-3.72 1.9-5.32-.64-1.72-2.08-.81-3.3.12-2.62.37-3.64.07z" fill="#2f2f2f"/><g><path d="M64 7.5c14.09 0 0 1 4.27 0 5.15 22.07 5.28 5.58 7.07 9.67-3.46-10.92-20.62-13.36-14.54 0-21.08-11.38-27.76-14.66-3.92-10.77 1.22-21.65 10.75-25.13 10.27-4.82 28.16 1.48 33.45 11.33 3.53 11.41-1.54 23.25-12.98 26.78z"/><path fill="#FAB220" d="M109.32 83.59c-6.91 2.48-14.45-1.02-17.05-7.84-2.61-5.7 1.1-15.07 8.81-17.67 7.62-2.74 16.11 1.19 18.97 9.17 20.16 7.23z" fill="#fcc21b"/><path d="M83.96 88.75H32.64h1.64v31.9h-.16H87.09z" fill="#ce231/"/></g></svg>
