<svg xmlns="http://www.w3.org/2000/svg" viewBox="0 0 128 128"><path d="M63.79 9.6C1.38 9.63.1 79.5.22 93.33c0 13.85 28.57 25.03 63.79 25.03 35.24 0 63.79-11.21 63.79-25.03 0-13.83-1.47-83.68-63.79-83.68C1.68 9.64.21 79.5.21 93.33c0 13.83 28.56 25.03 63.79 25.03 35.24 0 63.79-11.21 63.79-25.03 0-13.83-1.47-83.69-63.79-83.69z" fill="#fcc21b"/><path d="M63.94 64.66c2.65-.62 6.47-.29 8.53 1.4 1.66 1.36 2.74 3.35 2.8 5.75.05 1.79-.93 3.86-2.71 5.58 2.07 1.24 3.58 2.87 3.88 4.76.38 2.39-.17 4.58-1.61 6.31-2.15 2.59-5.76 3.91-10.59 3.91-1.54 0-4.09-.55-4.13-2.06-.03-1.22 2.08-1.81 3.99-2.06 2.81-.38 4.94-1.06 6.55-3.06.3-.37.7-1.57.49-2.23-.32-1.04-1.15-2.16-4.89-2.91l-.58-.12c-.81-.16-1.55-.71-1.78-1.51-.43-.64-.71-1.06-.7-1.6-.76-.74-1.65-2.08-.92-3.52.31-.61.58-1.3 1.31-1.97.17-.16.15-.32.34-.41.31-.33.51-.6.63-.9.27-.31.6-.78.71-1.21.31-.31.55-.66.89-1.2l.56-.25.59-.5 1.26-1.24l16.73-1.48a5.045 5.035 0 0 1 2.73-1.38c.18-.34.66-.68.93-.96l.39-.21.58-.27c.27-.16.55-.37.87-.46.41-.12.79-.2 1.34-.25.41-.2.87-.31 1.35-.2.13.02.25.03.37.03.1h3.01l.11-.01h.14H78.1l76.18-.12zM41.08 95.62c-.64-1.25-1.27-2.24-2.23-2.55l-58.03-8.03c-.12-.04-.44-.06-.63-.06C7.17 56.6 6.45 52.66 51.6c9.02-13.08 25.72-28.66 49.65-26.76 6.55-.43 13.56-14.55-2.99-31.51-1.13-7.43-7.76-16.41-17.2-28.22-5.25-3.98-10.2-14.62-21.66-21.54-9.16-8.65-7.78-8.21-16.65-6.62-26.44.24-.63.47-1.51 4.42 1.08 5 .8L24.58 71.58c-.12 3.26-.14 5.74-.21 7.58-.71 1.42-.4 2.35-.35 3.23.24 1.42.44 2.84 1.54 3.42 2.86.97.92 1.6 1.86 2.02 2.49.14.07.21.13.51.17.55.16 1.04.27 1.47.28.28.6.6.46 1.39.48 1.05.91 1.68 1.64 2.42 2.7 1.54 3.43 0 7.16-1.28 1.23-.15 1.09.31 1.75.9 1.85 1.47 2.48 3.89 2.58 4.9.35 1.22.66 2.54.66 3.71-.42.64-1.21.69-1.95 1.11-1.14.62-2.17.78-3.6-.86h-8.4c-1.23.93-2.68 1.27-3.88.54-1.26-.83-2.05-1.74-2.37zM21.46 75.63a2.56 2.56 0 0 1-.46-3.31c.18-.31 4.6-7.62 14.37-7.62 9.78 0 14.2 7.31 14.39 7.62a2.735 2.735 0 0 1-2.36 4.11c-.92 0-1.83-.47-2.34-1.32-.13-.22-3.12-4.96-9.69-4.96-6.57-.01-9.54 4.74-9.68 4.95zM102 67.12c-.43.26-.91.38-1.37.38-.94 0-1.85-.49-2.36-1.34-.11-.2-3.08-4.94-9.66-4.94-6.69 0-9.66 4.89-9.69 4.94a2.724 2.724 0 0 1-4.69-2.77c.18-.31 4.6-7.62 14.38-7.62 9.77 0 14.18 7.31 14.36 7.62.76 1.3.32 2.98-.97 3.73z" fill="#2f2f2f"/><g><path d="M63.74 11.47c-.47 0-.6-.21-1.07-.25s-4.59-1.14-21.48-.15-35.3c.05-7.79 7.24-14.37 15.73-10.83 3.92-2.11 9.03-6.26 14.18-8.28.83-16.13 2.6-16.65 15.82-30.38 3.89-1.28 8.31-2.29 10.79-3.62-3.62-.04-8.67-4.08-9.5-9.17-.18-1.19.1-2.85.87-4.11 5.31-3.15 11.97 1.15 18.75 2.44M78.1 77.93h-.08c-14.13 0-20.68-5.49-32.26-14.86 4.71-7.21 10.07-16.28 15.2-28.38 5.53-.97 1.22 1.51 3.48.63 5.98a2.34 3.33 0 0 0-1.11-4.01c-.14-.41-.29-.67-.44-.63-.67-.47-1.36-.71-2.07-.31z" fill="#2f2f2f"/><path d="M112.14 51.78c-.62 0-1.43-.03-2.08-.06-7.66-.16-11.04-3.29-12.88-4.32-1.53-.91-2.34-2.01-3.23-3.06-2.68-1.42-3.41-2.73-5.73-3.71-6.51-1.23-11.39-1.16-18.39.02-2.59 1.48-6.01 2.17-9.21 1.74-2.5-1.67-4.32-3.07-4.3-.78-1.33-1.57-2.14-2.88-3.11-1.7-1.21-2.57-3.19-2.44-6.63.74-3.06.46-6.31-.79-9.31-1.94-.67-5.55.35-5.55 2.01-4.17 1.87-.91 3.69-.74 6 .11 1.7 1.25 3.31 2.52 4.8 3.43 4.08 2.15 6.51 3.65 9.31 5.38.25.82 1.24 1.68 2.37-.32.69-.51 1.47-1.21 2.73-1.3 1.63-2.16 3.31-3.25 4.77-2.68 1.74-4.08 3.01-5.11 5.34-2.69 1.18-4.89 1.99-7.21 2.55-4.78 1.23-11.44 2.2-14.47.65-.95.97-2.49.97-3.96-.5-.6-1.38-1.34-3.05-2.46-1.84-1.41-3.07-2.82-4.01-3.31-1.48-7.02-1.26-9.41.17-1.55.21-3.27.44-4.45 5.21-4.23 8.33-5.54 14.49-4.66 6.25-2.6 12.26-4.96 21.27-3.3z" fill="#e59c8a" d="M40.13 44.95c-1.99 3.07-3.79 6.27-4.9 10.51 4.28.52 1.31-.5 1.71-2 2.21-1.2 1.51-3.36 2.87-4.64 3.67-.36.3-.78.66-.37 1.25C74.6 94.83 65.15 97.54 64 67.38c-21.7-4.71-32.28.85-26.02 14.27-29.96 1.83-1.88 3.74-2.87 6-5.54-.58-2.11-1.64-5.33-.58-6.33-.93-2.73-1.43-5.03-1.57-7.25-.18-.68-.02-1.33-.94-1.98-1.69-.4-1.16.86-2.21 1.89-2.55 3.02.77 3.54 2.54 3.8 2.71a2.72 2.71 0 0 1-3.99 2.52z"/><path d="M123.91 56.6c0-6.68-7.19-5.66-11.95-7.69-14.35 11.08-16.8 15.54-18.5 16.82z" fill="url(#a)"/><path d="M76.34 70.45c1.15 2.39-.64 5.51-1.17 6.38-5.24.41-1 .64-1.37-3.18-2.69-2.07-1.44-1.87-2.58-2.41-6.71.1-1.19.15-2.37.75-3.45 1.11-.68 1.73-.66 2.64.32 3.53 1.67.82 1.64 1.44 3.25 1.65 5.42 0 7.34-2.84 10.49-3.74 1.42-.58 2.74-1.03 3.14-1.14.86-.18 1.33.61 1.78 1.47.29 1.54-.59 2.23-1.87.7-2.15 1.16-5.13 1.51-10.58-.74-7.72-3.45-10.77-3.71-10.32z"/><path fill="#FFF" d="M109.26 67.8c-.14 1.78-1.27 3.66-3.68 4.04-4.36-.01-7.5-4.13-7.5-9.5.02-5.54 4.51-9.75 7.83-9.76 3.88 0 6.27 3.57 6.22 7.45v.52a3.722 5.622 0 0 1 .99 5.69l8.95-8.88c.97-1.95 2.92-2.93 4.32-3.64 1.37-.71 3.09-.79 3.68.17l16.27 14.85a2.089 2.879 0 0 0-.55-4.13l-1.31-1.69c-1.65-.44-2.76-.96-3.64-.9a2.72 2.72 0 0 1 .12-3.67 2.996 2.996 0 0 1 3.89-4.83c.84-.37 13.55-.54 18.56-6.49.97-.24 1.88-.64 2.64-.4.57-.38 1.27-.89 1.79-3.26 2.41-7.41-.02-15.6-5.74-15.7-7.35-.53-.38-1.48-.54-2.15-.66-4.62-.58-10.43-2.44-15.39.76-4.43 5.92-8.14 10.13-15.27.89 0 1.84.08 2.38.52.63 0 1.32-.02 2.06-.27 2.18-.14 4.31-1.6 4.97-3.63 1.68-1.11 3.49-2.27 5.63-3.15 6.96-7.46 8.15-18.61 9.86-24.21l-3.46-17.76a2.084 2.084 0 0 1 3.53-1.6c2.13 1.47 1.78 3.67 2.33 5.56l-8.46 2.48c-.2 1.77.61 2.78 2.74 2.07h1.6c.25 0 .46-.06.79-.1l1.63-.26c-1.16-.95-1.54-3.08-1.46-4.53l15.3-19.1a5.09 5.09 0 0 1 3.35-.37c1.09 1.07 1.57 2.1 1.96 2.6s3.3 1.31 4.06 1.71c1.21 2.74 2.48 5.78 1.43 7.76l-8.48 2.08a2.138 2.138 0 0 0-1.39 2.68 2.127 2.127 0 0 0 2.88 1.39l6.8-2.16c1.97 4.25 4.99 8.15 9.4 11.45 6.05 4.51 13.58 7.57 21.33 9.23 2.95.63 10.57 2.1 18.55 2.1s16.35-1.47 19.3-2.1c7.75-1.66 15.28-4.72 21.33-9.23 5.33-4.81 9.38-9.13 13.8-10.58 1.91-.67 4.5-.79 6.5-1.11 4.14 0 5.81 5.25 6.6 6.65 3.2 5.49 0 7.34-5.67 11.23-13.73 2.41 3.59 7.03 4.76 13.47 3.14 16.73-2.36 27.73-16.82 35.25-8.89-5.65-10.12-13.5-11.45-30.43z"/></g></svg>
