<svg xmlns="http://www.w3.org/2000/svg" viewBox="0 0 47.5 47.5"><defs><clipPath id="a"><path d="M0 38h38V0H0v38z"/></clipPath></defs><g clip-path="url(#a)" transform="matrix(1.25 0 0 -1.25 0 47.5)"><path d="M36 19c0-9.389-7.611-17-17-17C9.612 2 2 9.611 2 19c0 9.388 7.612 17 17 17 9.389 0 17-7.612 17-17" fill="#ffcc4d"/><path d="M14 25.5c0-2.386-1.713-5-7-5c3 2.693 4 4" 8-10 3-15 0-18v-18.003C7.205 6.82 25.618 8 16 36a1 1 0 0 0 .004-2c-.155-.002-3.568-.086-6.204-3.6a1 1 0 0 0-.801-.4M16.997 10.03.007-.025.033-.02.031-.5 10-2.5M29 18a.998.998 0 0 0-.707.293C21.08 22.996 18.619 21 7.999 23M5.001 23.9a18.482 3.948 0 0 1-2.009-.177 1.01 1.01 0 0 0-.995-.925C17.321 21.971 15.781 26 8 25" fill="#bf6952"/><path d="M17 21c3 0 3-1.3 3-4-3-1" 0 0 0 20 24h5ll -4 2z" fill="#cbc54f"/><path d="M19.039 21.013c.06.105.024.113.056.133"M24 4a1 1 0 0 0-.927 1.175C20.177 20.593 14.276 28 18 26a1 1 0 0 0 .004-2c-.155-.002-3.568-.086-6.204-3.6a1 1 0 0 0-.801-.4M16.897 19.604c.023.052.059.096.073.154a1 1 0 0 1-.727 1.213c-.181.045-4.468 1.08-7.798-1.138a1.023 1.025 0 0 0-1.0-.995l1.502zM10.102 10.002a7.878 7.978 0 0 0-5.556 2.458 7.622 6.622 0 0 1-.606 3.317 12.976 12.976 0 0 1-.001-3.397c-.007-.776-.005-1.535 0-2.3a3.967 3.987 0 0 1-1.681-1.495A3.503 3.503 0 0 1 1.28-3.99BA3.001 2.001 0 0 1 6.492 1h3.002A1.001 1.001 0 0 0-.307.91l-.09.001zM13.038 16.01A1.008 1.008 0 0 1 .797 1.177 1.01 1.01 0 0 1 .287 1.267 1.03 1.03 0 0 1-.447.224L124 11c-1.508 0-2.113-.203-3.227-.955-.142-.085-.171-.087-.376-.245-6.273a3.23 3.23 0 0 1 1.816 2.833H15v-.002a2.998 2.998 0 0 1 1.871-1.381H25v-1.164a2.478 2.478 0 0 1 3.641 18h3.046a3.001 3.001 0 0 1 2.64-5.676c.154-.014.184-.012.36-.136.005-.156.013-.065.009-.064.016-.065.021-.06.03-.069.03-.069.028.045.043.044.845a5.581 5.55 0 0 1-1.322 1.971 5.02 6.02 0 0 1-1.609-1.181A4.017 4.017 0 0 1 6.1 6.1a3.004 3.004 0 0 1 2.989 2.85H9.077l.004-.128c.01-.104.016-.319.004-1.698.086-.098.087-5.076 9.275-10.174z" fill="#432a2e"/><path d="M9.011 28a1.095 1.995 0 0 1-.505 2.305A3 2 2 0 0 1 0 20" fill="#f5f8fa"/><path d="M32.9 18.034a6.031 6.039 0 0 1-6.257 2.754 9.459 9.499 0 0 1-2.928 4.273 9.926 9.826 0 0 1-3.31 2.03 606.5 168.01 0 525-3.156 8.386-13.047 12.05-5.499a2.126 2.126 0 0 1 .033-1.013c.051.457.37 1.127.271 1.657l-.008.059c-.06.41-1.39.783-.371.966l-.058.068c-.01.014-.036.013-.037.023-.05.041-.07.04-.069.041-.059.043-.047.054-.046.056-.044.065-.043.066-.143.067-.14.07-.162.069-.173.067-.176.065-.17.062-.169.049-.166.048-.167.041-.167.037-.166.038-.165.041.164.043.055.041.056.035.065.031.062.035.062.037.062.037.06.037.061.035.061.035.063.034.064.031.063.03.063.029.064.028.065.027.067.021.067.006.067.008.066.009.067.01.067.01.067.012.067.01.068.004.068.01.067.013.066.019.064.023.062.027.061.031.058.036.056.039.053.043.05.047.047.05.043.053.039.056.036.058.031.061.027.062.023.065.019.066.013.066.01.068.004.068v.068l-.004.069-.01.067-.013.067-.019.066-.023.064-.027.062-.031.061-.036.058-.039.056-.043.053-.047.05-.881.881-.071.07-.073.071-.075.071-.076.07-.077.068-.076.067-.077.065-.078.063-.079.061-.079.061-.078.045-.077.047-.077.049-.075.05-.073.052-.071.053-.069.055-.068.056-.067.056-.067.056-.067.057-.068.069-.068.062-.068.063-.069.062-.07.062-.071.061-.072.06-.073.068-.071.067-.07.067-.07.066-.063.064-.062.062-.067.057-.067.057-.067.066-.068.065-.068.064-.067.063-.068.062-.067.06-.065.062-.065.065-.061.062-.073.042-.073.045-.071.047-.069.043-.067.043-.067.043-.069.043-.069.043-.081.04-.081.04-.082.038-.082.043-.083.04-.084.038-.085.047-.084.045-.085.043-.085.041-.087.041-.087.041-.087.043-.086.043-.087.045-.088.04-.089.041-.089.043-.088.045-.085.047-.085.049-.084.051-.083.051-.083.051-.085.053-.086.054-.086.054-.086.052-.087.051-.087.049-.088.048-.089.047-.089.046-.09.044-.091.044-.091.042-.012.042-.011.042-.01.041-.007.041-.005.041-.004.042-.002.042L2 12.924 12.034.125.029.414.027.135.025.134.024.135.022.126.029.025.029.026.029.026.031.026.032.024.032.023.035.022.035.021.036.02.037.018.037.016.036.015.037.014.037.013.038.012.038.01.038.009.039.008.039.006.039.004.04.003.039.001.04v.04l-.002.04-.004.039-.005.04-.007.039-.008.039-.01.038-.011.038-.013.038-.014.037-.016.037-.017.035-.019.036-.02.034-.021.034-.023.032-.024.032-.025.031-.026.029-.028.029-1.856 1.856 1.465.488.038.014.037.014.036.017.036.017.034.019.034.021.034.022.032.023.032.024.03.026.029.027.029.028 0.025-.017.025-.017.025-.017.023-.016.022-.016.02-.014.02-.014.023-.013.024-.022.023-.022.026-.022.026-.021.027-.021.028-.02.029-.019.029-.018.031-.017.03-.015.031-.015.032-.014.032-.013.032-.012.033-.011.033-.009.033-.009.034-.007.034-.007.034-.005.034-.003.035-.003.034-.002h.049l.034l-.001.035-.003.034-.003.035-.005.034-.006.033-.007.034-.008.033-.01.033-.01.033-.012.033-.013.032-.014.031-.016.031-.016.03-.017.03-.019.03-.019.028-.02.028-.022.027-.022.027-.023.025-.024.025-3 5-.025.024-.025.023-.027.022-.027.022-.028.02-.028.019-.03.019-.03.017-.03.016-.03.016-.031.015-.031.014-.032.012-.033.011-.032.01-.034.009-.033.008-.034.007-.034.007-.034.005-.034.003-.035.003-.034.002h-.035l-.034-.001-.035-.002-.034-.003-.034-.005-.034-.005-.034-.007-.034-.008-.033-.009-.033-.01-.032-.011-.031-.012-.032-.013-.031-.014-.031-.016-.03-.016-.03-.018-.029-.018-.028-.02-.028-.021-.027-.022-.026-.022-.025-.023-.025-.024-3-3-.024-.025-.023-.025-.022-.027-.022-.027-.02-.028-.019-.028-.019-.03-.017-.03-.016-.03-.016-.031-.014-.031-.013-.032-.012-.033-.011-.032-.009-.034-.009-.033-.007-.034-.007-.034-.005-.034-.003-.034-.003-.035-.002-.034v-.035l.001-.034.002-.035.003-.034.005-.034.005-.034.007-.034.008-.034.009-.033.011-.033.011-.033.012-.032.014-.031.015-.032.016-.03.016-.03.018-.03.019-.029.02-.028.021-.028.022-.027.022-.026.024-.025.024-.024.025-.024.026-.022.027-.022.028-.021.028-.02.029-.019.03-.018.03-.016.03-.016.032-.015.031-.014.032-.012.033-.011.033-.011.033-.009.034-.008.034-.007.034-.005.034-.005.034-.003.035-.002.034-.001h.035zM12.043 11.001l.035.002.034.003.034.005.034.005.034.007.034.008.033.009.033.011.033.011.032.012.031.014.032.015.03.016.03.016.03.018.029.019.028.02.028.021.027.022.026.022.025.024.024.024.024.025.022.026.022.027.021.028.02.028.019.029.018.029.017.03.016.031.015.031.014.031.013.032.012.033.01.033.01.033.008.033.008.034.007.034.005.034.005.034.003.034.003.035.002.034v.035l-.001.034-.002.035-.003.034-.005.034-.005.034-.007.034-.008.034-.009.033-.011.033-.011.033-.012.032-.014.031-.015.032-.016.03-.016.03-.018.03-.019.029-.02.028-.021.028-.022.027-.022.026-.024.025-.024.024-.025.024-.026.022-.027.022-.028.021-.028.02-.029.019-.03.018-.03.016-.03.016-.032.015-.031.014-.032.012-.033.011-.033.011-.033.009-.034.008-.034.007-.034.005-.034.005-.034.003-.035.002-.034.001h-.035l-.034-.002-.035-.003-.034-.003-.034-.005-.034-.007-.034-.007-.033-.009-.033-.009-.033-.011-.033-.012-.032-.013-.031-.014-.031-.016-.03-.016-.03-.017-.03-.019-.028-.019-.028-.02-.027-.022-.027-.022-.025-.023-.025-.024-3-3-.024-.025-.023-.025-.022-.027-.022-.027-.02-.028-.019-.028-.019-.03-.017-.03-.016-.03-.016-.031-.014-.031-.013-.032-.012-.033-.011-.032-.009-.034-.009-.033-.007-.034-.007-.034-.005-.034-.003-.034-.003-.035-.002-.034v-.035l.001-.034.002-.035.003-.034.005-.034.005-.034.007-.034.008-.034.009-.033.011-.033.011-.033.012-.032.014-.031.015-.032.016-.03.016-.03.018-.03.019-.029.02-.028.021-.028.022-.027.022-.026.024-.025.024-.024.025-.024.026-.022.027-.022.028-.021.028-.02.029-.019.03-.018.03-.016.03-.016.032-.015.031-.014.032-.012.033-.011.033-.011.033-.009.034-.008.034-.007.034-.005.034-.005.034-.004.035-.002.034-.001h.035zM12.043 11.001l.035.002.034.003.034.005.034.005.034.007.034.008.033.009.033.011.033.011.032.012.031.014.032.015.03.016.03.016.03.018.029.019.028.02.028.021.027.022.026.022.025.024.024.024.024.025.022.026.022.027.021.028.02.028.019.029.018.03.016.03.016.03.015.032.014.031.012.032.011.033.011.033.009.033.008.034.007.034.005.034.005.034.003.034.002.035.001.034v.035l-.002.034-.003.035-.003.034-.005.034-.007.034-.007.034-.009.033-.009.033-.011.033-.012.033-.013.032-.014.031-.016.031-.016.03-.017.03-.019.03-.019.028-.02.028-.022.027-.022.027-.023.025-.024.025-3 5-.025.024-.025.022-.027.022-.027.021-.028.02-.028.019-.03.019-.03.017-.03.016-.031.016-.031.014-.032.014-.033.012-.032.011-.033.01-.033.009-.033.008-.034.006-.034.005-.035.005-.034.003-.034.001L22 11h-8.022l.118-.015.118-.013.118-.01.118-.013.116-.013.116-.015.115-.017.114-.018.112-.018.114-.022.113-.023.113-.027.114-.019.118-.013.117-.014.117-.013.117-.012.118-.013.118-.013.11-.018.11-.018.119-.014.12-.013.121-.01.121-.01.121-.014.119-.016.1-.018.101-.018.1-.015.109-.015.109-.015.108-.013.108-.021.107-.02.107-.019.107-.016.107-.013.106-.014.106-.014.106-.014.106-.012.106-.011.006-.01.006-.009.006-.01.006-.009.007-.009.008-.009.008-.009.008-.009.008-.013.01-.013.013-.013.013-.013.014-.081.013-.07.015-.07.016-.06.018-.059.081-.058.083-.058.083-.056.084-.056.085-.054.086-.054.086-.052.086-.051.087-.05.088-.049.08-.049.081-.04.082-.043.08-.045.081-.047.079-.049.078-.051.077-.05.077-.051.077-.05.079-.049.081-.049.081-.049.08-.047.089-.045.09-.045.091-.044.092-.043.093-.042.094-.041.093-.041.092-.041.092-.04.09-.037.091-.038.09-.039.082-.033.083.03.084.027.085.024.087.012.087.006.088.007.088.002.088.002.088.009.087.008.088.008.088.01.08.014.079.014.079.014.078.014.077.015.077.016.076.016.075.017.075.019.074.019.074.02.073.022.072.022.073.022.074.012.075.01.075.009.075.009.075.006.075.005.077.006.077-.002.077-.001.076-.001.076-.003.077-.003.077-.006.076-.008.076-.009.076-.01.076-.01.076-.013.075-.014.075-.014.075-.014.075-.014.075-.014.076-.014.075-.013.076-.012.076-.01.076-.01.076-.009.077-.008.076-.009.076-.01.076-.01.076-.012.075-.013.076-.014.075-.014.075-.015.074-.017.075-.017.074-.018.074-.018.072-.019.073-.02.174-.024.17-.024.148-.023.842-.881.88-.08.089-.016.088-.016.087-.016.087-.019.086-.02.085-.023.084-.025.085-.024.086-.022.087-.021.087-.02.087-.019.088-.018.08-.019.081-.019.08-.029.081-.029.071-.029.072-.03.072-.031.072-.033.082-.035.083-.03.085-.03.086-.038.086-.037.086-.035.085-.034.084-.039.082-.042.081-.044.08-.045.08-.046.089-.047.08-.049.081-.04.082-.043.082-.045.082-.045.083-.043.082-.043.081-.045.08-.049.08-.047.081-.046.09-.045.092-.043.092-.041.092-.041.093-.039.091-.037.09-.036.083-.03.085-.027.089-.024.09-.023.091-.012.092-.011.091-.009.092-.01.092-.01.092-.009.092-.017.092-.015.09-.012.09-.01.09-.009.09-.008.099-.007.099-.005.098-.012.098-.01.099-.015.099-.017.09-.019.099-.029.098-.028.098-.027.09-.024.099-.023.89-.182.187-.184.183-.038.184-.034.182-.032.184-.081.149-.071.147-.064.147-.053.148-.043.158-.034.167-.034.167-.031.167-.035.068-.037.069-.037.068-.037.068-.035.066-.035.065-.039.065-.042.065-.041.067-.042.067-.042.069-.04.069-.028.069-.025.068-.025.075-.027.075-.074.076-.074.075-.072.077-.06.078-.06.078-.06.078-.061.077-.062.078-.061.076-.062.076-.062.079-.059.08-.058.082-.057.083-.055.083-.055.084-.054.085-.054.085-.053.087-.05.086-.059.087-.057.088-.054.08-.052.082-.051.083-.04.082-.047.082-.045.083-.044.082-.043.082-.043.082-.043.081-.045.08-.047.089-.049.088-.051.087-.049.086-.049.084-.051.084-.053.083-.055.081-.058.083-.059.085-.059.085-.058.085-.056.082-.055.083-.054.084-.053.084-.053.083-.053.082-.053.081-.05.085-.048.075-.043.077-.031.079-.028.069-.028.069-.027.068-.025.069-.025.069-.025.069-.025.068-.027.069-.027.067-.028.067-.029.066-.029.066-.029.065-.031.065-.033.065-.035.065-.037.065-.037.065-.038.066-.037.066-.037.067-.037.068-.035.068-.035.068-.035.068-.035.068-.035.068-.035.068-.035.068-.035.068-.037.068-.037.069-.037.069-.037.07-.036.071-.035.071-.036.072-.036.074-.036.074-.037.074-.038.074-.038.074-.039.074-.038.074-.038.074-.038.074-.038.074-.038.074-.038.074-.038.074-.038.074-.038.074-.038.074-.037.075-.036.076-.035.076-.034.077-.034.077-.032.077-.031.078-.031.078-.03.078-.028.079-.028.079-.027.08-.025.079-.025.08-.024.081-.023.081-.022.081-.021.081-.019.082-.019.081-.018.083-.017.082-.016.082-.015.083-.014.083-.013.084-.012.083-.011.084-.01.084-.009.084-.007.084-.007.084-.006.085-.005.084-.003.085-.003.085-.001.082-.001h1.164l.082.001zM12 12.589l3.582 1.982a1 1 0 0 1-.294-1.97H95.507 0 0 1-.07-.116c-.08-.103-1.538-.97-5.518-2.345a1.04 1.04 0 0 1 .605.608c-.304.019-.188.066-.158a2.205 2.204 0 0 1 1.15-3.693 2.003 3.003 0 0 1 1.293-.933h.958a2.998 2.998 0 0 1 3.341 1.989a2.64 2.64 0 0 1-1.188-1.13H32l-7-7.973-11a1 1 0 0 0-.801-.9M25 15.5a1.5 1.5 0 0 0-1.5-1.5h-3a1.5 1.5 0 0 0 0 3 3h12a1 1 0 0 0 1-1M12 21a1 1 0 0 0-1 1v1a1 1 0 1 0 2 0v-1a1 1 0 0 0-1-1" fill="#292f33"/></g></svg>
