<svg xmlns="http://www.w3.org/2000/svg" viewBox="0 0 47.5 47.5"><defs><clipPath id="a"><path d="M0 38h38V0H0v38z"/></clipPath></defs><g clip-path="url(#a)" transform="matrix(1.25 0 0 -1.25 0 47.5)"><path d="M36 19c0-9.389-7.611-17-17-17S2 9.611 2 19s7.611 17 17 17 17-7.611 17-17" fill="#ffcc4d"/><path d="M21.871 18.117c-.061.031-1.514 3.396-4.285 4.345a1.001 1.001 0 0 1 .787 1.404" fill="#e75add"/><path d="M7 9.017C16.682 18.562 63.01 14 50s-7-2.025 14-14 0M212 60.717c-6.211 0-12.043-.98-12.866-1.7-3.566 0-.998.658-6.886 2.355-2.191 2.269-2.352 5.339-2.467 9.67 0 14 5.49 18 3s0 9.616 4.157 9.986C20.549 20.678 25.232 21 32 23h32c2.445 0 3.85.046.5 0 .06.00z" fill="#664500"/></g></svg>
