<svg xmlns="http://www.w3.org/2000/svg" viewBox="0 0 128 128"><ellipse fill="#2F2F2F" d="M29.35 49.07hc-1.31-.07-3.28.32-4.77.9a.89.59 0 0 1 .75-.24.58.56 0 0 1-.55-1.71c-.26-.01-.43 0-.84-.07l-.64-.06-4.08-4.54c-.37-.13-.69-.27-.93-.06-.62-.19-1.45-.34-1.9-.34-2.73-.81-4.91-1.88-6.01-3.31-1.72-1.01-2.69-2.98-3.24-4.36-1.31-2.93-3.62-5.85-5.72-8.91-5.38-2.08-8.76-2.26-11.34-.45-1.2.56-1.56 1.31-1.57 2.02-.37.93-.54 2.03.61 3.29l8.12 3.96c-.92.42-1.72-.68-2.4-.83-1.04-.47-2.45-.67-3.4-.41h3.07c3.81 2.11 13.85 4.47 15.7 9.8z"/></svg><use xlink:href="#a" overflow="visible" fill="#FFF"/><clipPath id="b"><use xlink:href="#a" overflow="visible"/></clipPath><path clip-path="url(#b)" fill="#FFF" d="M77.15 99.78c-1.36.4-2.99-.37-3.81-1.36-1.05-1.74-2.63-4.83-2.37-6.68.94-2.72 4.54-2.62 7.31-.65 1.43-.21 2.76-.38 3.74-.3 6.73-1.77 14.43-4.42 15.2-4.31 5.82.9 1.8 1.14 5.31.67 13.3-.41 2.07-1 .44-2.36-2.64-3.21-1.33-.21-2.06-.26-3.1-.42-3.52.81-6.61 3.88-9.41 6.62-1.45 3.29.66 6.73 2.67 1.02 2.99.83 4.8-.83 5.51v52.24c0 3.27 1.94 4.65 4.05 4.08z"/><path fill="#2F2F2F" d="M75.53 64.63c.01-.01.01-.07.01-.07.01.07.02.23.14 3.06 2.5 1.9 1.52 1.83 3.46 2.1 5.26 2.12 10.44 6.78 17.81 10.12.31.32.52.52 .83.61.09.21.13.37.24.52.1.17.22.32.27.49.07.91.29 1.7.48 1.37 1.04.88 1.67 1.43 3.06 1.61 1.76-.1 3.48-.48 5.05-1.06 1.7-1.06 3.11-1.64 4.18-.45 1.21-.95 3.14-1.23 4.28-1.18.71-.67 1.72-.93 2.64-.7.68-.21 1.3-.62 1.74-1.08.36-.56.87-1.29.71-1.77.15-.56.66-1.33.93-1.96.01-.57-.02-1.12-.25-1.59-1.4-1.12-1.99-3.1-1.16-4.59.7-.25 1.33-.52 1.99-15.45.38-2.19.17-4.63.01-7.36.01-6.43 1.41-8.31 5.79-9.34 3.27-.43 6.33 1.93 7.06 4.12 1.09 4.86-.53 9.03-5.37 10.42z"/><path fill="#F9A324" d="M97.51 65.55c-3.62 1.4-7.63-.53-8.93-4.11-1.38-3.54.56-7.99 4.15-8.59 3.68-1.29 7.78.52 8.93 4.11 1.31 3.57-.58 7.95-4.07 9.2zz"/><path fill="#F89E26" d="M97.03 64.59c-3.19 1.12-6.71-.47-7.86-3.62-1.16-3.15.48-6.63 3.67-7.77 3.18-1.14 6.7.47 7.82 3.99 1.15 3.15-.49 6.67-3.69 7.77z"/><path fill="#F89A27" d="M20.85 65c-2.88 1.04-6.07-.42-8.12-3.21-1.19-3.49.54-7.36 4.28-9.31 3.58-1.34 8.64.59 8.77 3.64 1.18 3.22-.5 7.4-2.95 8.12z"/><path fill="#F79728" d="M28.76 82.63c-2.4.86-5.04-.35-5.91-2.72-.87-2.33.36-4.98 2.71-5.8 2.04 5.09 1.93 6.91 3.09 5.96 4.73.23 1.7.63 3.51 2.11 4.74 2.31 4.36 2.87 6.01 3.71 9.25 4.58a2.313 2.313 0 0 1 .19 3.67c-.37.57-6.96-1.73-8.25-1.72z" fill="#43998e"/><path d="M47.07 69.48c-.38-.16-.74-.09-1.25-.49l-7.38-6.71-8.48 1.32c-.24.44-.38.71-.51 1.11-.21.37.26.83.47 1.3.23.49.26.9.25 1.32-.52.5-1.18.61-2.3.43-.57.22-1.13.47-1.66.56-1.04 1.02-1.38 2.11-1.78 2.31-1.05.31-.54.2-1.1.18zM18.83 4.99s-6.45-2.35-9.78-7.38c-.21-.15-.46-4.32 1.31-5.94 1.37-1.77.52-3.53.35-5.47.25-7.05-.83-16.78-7.51-15.99-5.29-1.7-1.48-2.65-3.35-2.84-6.3 2.52-8.57 7.31-9.9 9.89-2.63 4.88 0 7.27 2.77 7.27 5.57 1.04 9.08-2.83 17.4-10.52 20.15-1.37 1.11-3.78 11.32-5.62 1.64-1.72-.69-3.13-2.88-1.84-5.72.53-1.72 2.7-4.37 3.84-5.69 1.32-1.73 2.71-3.4 2.42-6.51.13-1.15.1-2.25-1.16-2.07-2.63 0-5.64 2.01-6.51 1.07-2.71 0-6.22-2.92-6.23-5.37.02-.58.15-1.05.3-1.65 0-1.15-.29-1.98-1.56-1.07-2.63-2.04-4.88-3.61-6.74-.74-.49-1.35-1.13-2.01-2.01-.7-.11-.81-.33-1.16-.69-.7-1.51-1.51-4.16-1.42-7.32 1.54-9.16 11.19-17.28 12.72C98.87 44.16 44.99 48.52 36.53 41c-15.77 0-35.39-1.33-45.92-2.94z"/></svg></svg>
