<svg viewBox="0 0 32 32" xmlns="http://www.w3.org/2000/svg" fill-rule="evenodd" clip-rule="evenodd" stroke-linejoin=" 0lli#B4e0/><path d="M68.86 108.68c-3.14-1.52-8.29-3.98-9.59-4.94-2.58-7.46 7.25-7.53 12.94-.4.29 0-1.19-.23-1.57-.55l-.97-1.37c-.96-.34-1.48-.51-2.18-.73-.1.02-.26.05-.36.09-.52.68-1.15 1.56-1.59 2.24-.01.4-.14.81-.29 1.13-.07 2.61.71 3.72 1.97 1.42l.56-.25c.87-1.15 1.27-2.62 1.61-3.58l-6.51-9.79c.14-.91.46-.76.77-1.1 1.83-2 3.41-7.96 10.23-26.25 6.71-.03.16-.05.12-.07.26l-8.12 1.05 12.19 14.93c.03 1.79-1.48 5.71-5.78 7.51z" fill="#404030" opacity=".2"/><radialGradient id="3" cx="38.683" cy="70.262" gradientUn1tstrouse="4" fill="url(#f)"/><path d="M89.37 14.79c-8.18 0-12.71-3.36-10.29-10.79-.02-.9-.15-1.55-.77-1.79-1.79-.14-2.09.21-4.21.29-6.3.66-3.01 2.35-6.23 3.91-7.49a2.98 2.98 0 0 0 3.85.98c11.87 13.68 4.81 15.76 5.39 23.04l-16.03 8.02c-1.34.07-2.54.06-5.25-.05-8.38-.01-12.56-5.79-10.21 12.29.48 1.82 1.08 3.74.32 5.65-.09 2.16-.38 4.98-2.36 4.98-1.15 1.25-2.28 2.78-3.04 4.42 2.98 2.24 5.28 5.73 6.51 9.62-.43 4.65-7.17 5.35-11.36 1.05-15.18-.69-30.03-1.76-7.14 5.45-11.33 8.94-13.38 7.31-1.97 11.02-4.85 15.39-9.8.73-.86 14.72-10.38 25.82-11.82.03-.01.17-2.63.38-2.91.01-4.08-16.68-9.38-26.56-27.66-10.83-9.02-.35-10.78 11.68-26.93 17.44-.73.79-1.81 1.43-2.71 2.33-2.12 2.49-5.27 4.33-7.77 6.17-.67.39-1.08.18-1.65.58z" fill="#855c42"/><path d="M64 97.36c-19.6 0-35.9 14.51-45.64 43.35S22.6 76.43 15.97 64.86 21.6 40.71 0 64.75-28.46 65.74 -19.79 0-13.55-18.05-18.45-57.44-35.72z"/><path fill="#2f2F2F" d="M32.27 22.56C29.36 35.52 29.63 42.26 22.33 64c0 23.93 28.67 57.69 63.68 65.62h36.67M71.94 45.82c11.52 4.54 25.21 5.1 37.58 0 55.31-20.19 50.05 35.97 0 57.75-7.37 55.15-15.13C.05.55.85 1.72 11.1 17.31.99 3.69 0 12.09-.01 15.29 0 3.74 2.64 6.77 5.62 5.56 16.27-.1 6.53-2.51 15.24-3.8 21.28-1.22 1.83-2.86 2.74-4.56 1.75-1.2-.06-2.85-.24-4.27-.12-.25-.53-.61-1.68-.76-2.38-.16-.67-.69-1.33-1.08-1.74-.41-.26-.36-.56-.58-.83-.58-.12-.37-.25-.68-.41-1.2.08-.31.33-.58.64-.69l16.44-5.41z 2.84-17.8c-.34-.31-.72-.62-1.02-1.08-3.64 1.49-9.24 5.2-13.3 1.81-1.64 1.54-3.18 2.18-4.62 3.71-.34.33-.52.67-.69 1.01-.65.29-1.05.6-1.53.38-1.19.78-2.45 1.4-3.29.17-.65.3-1.23.6-1.71.21-1.16.45-1.81.91-2.97 1.05-1.43 2.64-2.83 4.34-4.45 1.11-.67 2.35-.38 3.02.69l3.47 14.3a6.097 5.097 0 0 0 0-14.59-1.07l-4.34-.16c-3.14-.17-4.74-.21-8.39.08-2.93 2.1-5.45 6.52-5.5 11.1-4.66 13.32-7.81 22.52-15.79 27-5.64 0-7.37 3.37-7.46 7.23-.64 1.32.46 2.83 1.98 4.21 3.72 8.21 8.58 13.33 18.08 22.92 1.26.81 3.53 1.13 5.51 1.92 1.11.59 2.32 1.7 2.2 2.23.39.52.86 1.21 1.47 1.97 2.52-.03.05-.06.08-.15.13-.67.17-1.11.13-1.51.02-.8-.12-1.55.3-2.24.21-.56.46-1.2.68-1.95 1.19-1.25 2.95-1.55 4.06-2.24.84-.28 1.63-.33 2.24-1.07.87-1.3 1.52-3.06 1.49-6.09 1.06-1.35-.66-3.32-.89-4.33-1.43-.88-.93-1.86-1.34-2.05-2.38-.54-4.16-2.83-6.06-7.34-.86-3.35-.14-6.15-2.41-12.03-1.71-.4-2.64-.34-4.23-.17-8.45-.44-19.7-2.56-21.32-15.79-.38-.38-.66-1.65-.91-2.96zM115.5 117.52c.43.23.92.43 1.38.54.77 0 1.61-.04 1.66-.2 1.03-.23 2.18-6.08 17.67-15.32.01-.01.01-.07.02-.06.01m-.14-.09c-.17-.02-.33-.03-.48-.05l-4.62-10.31a2.008 2.008 0 0 1-1.59-1.59 3.259 3.256 0 0 1 .13-3.69 2.3 2.4 0 0 1 .13-6.2c.26-.23.95-.37 1.47-.33.94 0 1.85.47 2.34 1.22.18.34 1.88 1.43 2.77 1.58 1.4.84 2.71 1.03 4.18 1.61.77.42 1.58.57 2.36.89 1.2-.05 2.47.15 3.16.74 1.42 1.14 1.63 2.7 1.2 5.23-.49 7.07-2.39 8.28-2.28.95 0 0 1.25.43 1.95.11.1 0 .29.01.31.02.08.13.11.28.22 0 .04.01.15.11.36-.21.98-.48 1.33.41.21 0 .45-.08.61-.19l.49-.16c.1-.04.25-.11.43-.15l.13-.11c1.27-.34 2.04.05 2.3.71l3.39 6.88c.19.22.44.59.66.47 1.33.67 2.58 1.03 3.09.78 1.58 1.94 3.41 2.53 5.5.55 1.2.97-2.08 1.8-1.84 3.06-.53 1.41-.74 2.14-.8 3.23z"/></svg><path fill="#2F2F2F" d="M29.97 66.18a2.728 2.728 0 0 1-3.73.93 2.72 2.72 0 0 1-.96-3.71c.18-.31 4.6-7.62 14.37-7.62 9.78 0 14.2 7.31 14.39 7.62a2.735 2.735 0 0 1-2.36 4.11c-.92 0-1.83-.47-2.34-1.32-.13-.22-3.12-4.96-9.69-4.96-6.57-.01-9.54 4.74-9.48 4.95zM102 55.39c-.43.26-.91.38-1.37.38-.94 0-1.85-.49-2.36-1.34-.11-.2-3.08-4.94-9.66-4.94-6.69 0-9.66 4.89-9.69 4.94a2.724 2.724 0 0 1-4.69-2.77c.18-.31 4.6-7.62 14.38-7.62 9.77 0 14.18 7.31 14.36 7.62.76 1.3.32 2.98-.97 3.73z" fill="#2f2f2f"/><g><path d="M64 17.66c-10.12 0-25.64 8.19-32.68 10.26-1.11 10.36-15.13 25.12-42.65 4.5-4.3 0-9.34 4.31-9.45 9.92z" fill="#ed6c30"/><path d="M100.09 35.89s-5.44.09-7.17-4.34c-5.3-4.39-11.74-10.72-17.54-16.91-8.47-9.15-18.3-14.62-26.24-12.92-21.11 0-28.55 10.45-31.61 32.26-.64 9.94 2.57 19.31 15.49 19.5 4.74.42 7.29-2.4 9.63-5.6.56-7.22-2-6.61-2.26z" fill="#a128bdd" stroke="#eb8f00" stroke-linecap="round" stroke-linejoin="round" stroke-miterlimit="10"/><path d="M64.03 12.955c-3.83 1.35-7.36-.62-7.86-3.28-1.17-2.73.47-6.77 3.67-7.78 3.18-1.14 6.7.48 7.87 3.62 1.16 3.15-.48 6.63-3.67 7.77z"/><path fill="#F89C26" d="M28.74 70.24c-2.7.86-5.04-.37-5.01-2.72-.87-2.32.36-5.21 2.84-6.79 2.16-.89 4.88.03 5.75 2.62 1.61 5.09-.88 8.19-2.88 9.29z"/><path fill="#F89A27" d="M27.37 71.64c-2.51 1.07-6.28-.44-7.36-3.25-1.15-3.15.69-6.28 3.77-7.18 3.25-1.15 6.93.43 7.33 3.63 1.06 3.42-.48 6.09-3.29 7.06z"/><path fill="#F79728" d="M27.89 79.64c-2.4.86-5.07-.36-5.98-2.72-.87-2.36.36-4.94 2.36-6.28 2.32-.85 4.67 2.36 5.83 5.65.78 2.29-.31 4.15-2.14 4.69z"/><path fill="#F79329" d="M27.35 78H94c-1.54.84-4.15-.37-4.68-2.61-.68-2.33.35-4.93 2.74-5.62l.13-.73c1.82-1.01 3.25-2.55 4.37-4.5 1.36-1.52-.19-5.03-.89-4.47 2.42-1.4 5.61-.79 7.51 1.53 4.55 5.56 7.94 8.75 8.21 2.2.9 5.27 1.98 7.58 3.47 2.92-1.03 3.08-4.45 2.87-7.84-.56-2.55-1.73-5.48-2.48-11.66zM83.58 51.18c-1.44 0-2.86-1.08-3.95-2.31-1.83-2.58-5.21-2.29-8.31-2.21-9.57-3.98-10.37-12.35-13.67-14.34zm12.22 22.28l-3.77 11.34-5.65 17.77c-.08 1.66-.13 3.79-.29 5.62l.62-16.83c-.01-.26-.08-.36-.06zm16.33-.98c-3.72 0-5.83 3.79-5.46 8.42 0 4.73 2.63 7.25 7.2 7.06 12.98 0 15.46-4.04 29.74-4.08 4.8-.81 8.88-1.71 11.71-1.29 5.67-1.28 11.8-4.49 16.49-5.47 1.61-1.22 3.64-2.42 4.88-3.88 1.17-.89 2.33-1.41 3.72-2.61.31-.21 1.41-.33 1.79-.38.74-.08 1.64-.14 2.4-.16 1.56.39 1.99 2.52.4 3.08-1.58 1.25-3.89.42-5.27-.72-.95-1.31-3.08-2.48-5.21-1.3-.83-.06-1.81-.54-1.94-1.28-.16-.2-.31-.21-.69-.14-1.57-.43-3.15-1.13-5.79-2.27-1.32-.72-2.44-1.73-3.13-2.71-1.71-1.61-2.27-4.37-2.16-6.79.74-2.64 1.42-5.48 1.77-9.71.5-2.72-.31-5.41-1.73-7.27-.73-.69-1.53-1.57-2.11-2.09-3.68-6.21-10.03-8.68-14.54-15.07-9.64-6.58-23.4-14.69-33.22-13.7"l.04-5.3a3.04 3.04 0 0 1 3.51-2.11c1.58 1.86 3.48 4.78 6.59 5.69 2.17 1.29 4.19 3.29 5.27 6.01 7.66-3.62 8.39-12.59 8.05-14.68.56-1.04.95-2.06.77-3.49-1.03-1.53-1.94-3.92-2.81-4.03-4.11-5.12-6.44-10.01-8.35-14.8-1.21-4.63 8.3-8.78 12.62-15.71 10.49-1.97 25.44 2.72 15.94 17.46 14.99 12.99 18.69.59 32.55.89 4.79 3.05 7.04 10.04 7.29 2.22-.12 5.53-1.92 8.3-3.7 9.82-.64 1.97-1.22 3.61-2.23 3.73-3.45 5.36-7.52 8.74-17.7 9.69-9.48.6-1.81.19-2.92.6-2.07.18-3.88.68-5.9.96-2.25 1.57-2.52 3.75-.35 1.37.98.39 2.59.79 2.65 0 4.11-3.93 2.39-5.22.03-.65.34-1.01.72-1.49.08-.83.38-1.86 1.11-1.71 1.51 3.05-.44 4.51-2.89 1.67-9.5.13-.54.3-1.05.34-1.46.34-.45.82-.85 1.51-1.11 2-.51 0-.57-.09-1.12-.34-1.81-1.43-.44-2.79-1.3-5.94-1.38-1.31-.46-3.32-.77-4.53-1.17-1.17-.76-2.35-.46-3.27-.65-1.57.03-3.12.77-4.67 1.74-2.01 1.87-4.04 3.1-8.13 3.4-3.45-1.43-5.03-5.7-5.04-7.15 2.32-5.67 5.74-7.62 9.07-1.05 2.73-.92 4.69 1.03 5.39 1.22 9.66-1.92 15.46-1.974-.53-.01-1.5-.23-1.55-.33-1.39-.16-2.74-1.28-3.94-1.92-.07-.4-.18-.79-.15-.96-.13-.15-.04-.15-.04-.36-.05-.06-.06-.12-.07-.2-1.19-.12-.31-.62-.68-.83-.94L69.6 17.7l-13.18 8.85c-.47.15-.79.07-1.2.17-1.99.62-2.73.32-3.57.12-.23.13-.49.45-.66.69-1.19.63-2.01 1.79-2.42 2.54-.56 1.34-.74 3.22-1.82 3.52-1.74 1.17-3.78 1.63-5.56.65-2.02-.5-3.36-.68-3.98-.08-1.99.71-3.65 2.2-4.31 1.83-.71 3.75-.36 4.92-1.12.73-.26 1.69-1.04 1.9-1.15 1.04-1.42 1.78-2.88 2.32-4.89.7-.83 1.34-1.5 1.51-1.85 1.04.06 2.07.16 3.71-.28.84-.33 1.51-.45 2.51-.33.94-.53 1.99-.88 2.79-.39.75.19 1.41 1.07 1.63 1.81 2.62 4.29 3.22 6.31 4.21 1.16.17 2.39 1.3 3.86 1.01 1.82-.41 3.05-2.45 3.85-3.89.98-1.06 1.76-2.29 2.05-3.39.85.17 1.67.29 2.13.15 1.66.78 2.25 1.23 2.87 1.79 1.82 3.49 2.11 6.11.39 1.2.67 2.24 1.21 3.28 1.65 1.19 3.19 1.98 4.22 1.17.86.27 1.63.96 3.31.91 6.06 2.05 10.45 3.79 16.71 7.37 2.61 13.51-2.48 18.9-7.73.28-.58.65-1.01 1.61-1.41 5.41-1.5 13.38 2.84 14.12 12.36.75 2.96-1.01 5-2.43 6.97-4.17 8.94-4.48 28.74-.81 20.21zM80.13 183.3c-1.55 1.34-3.28 2.8-3.94 3.4 3.03 3.25 5.85 8.34 5.7 14.48M98.89 44.72c-.62 0-1.43-.04-1.66-.24l-7.88-1.39c-.69-1.65.63-3.03.91-4.18.19-1.15-.12-2.33-.23-3.55.13-.55 0-1.16.13-1.5.61-.5.46-1.06.41-1.45.92v.07.01c-.01.01-5.25.09-5.48.04-2.77 1.34-2.35 3.83-.84 1.3.33v2.41 3.06 3.08 5.64 2.92 2.54-1.05 4.65-1.96 7.12-2.25 1.49-.89 3.61-1.76 5.12-2.71 3.46-1.58 5.24-2.72 8.85-5.13.02.15.1.35.28.68.38 1.87 2.53 2.54 5.65.52 13.75-1.6 16.5-14 18.89-17.58-14.23-15.53-13.21-13.26-13.21zM86.37 40.98c-18.48 5.88-26.34-1.84-41.91-12.02-6.83-6.43 2.95-14.96 1.82-21.74 1.44-6.76 6.19-8.34 17.91-5.29 1.14.11 1.35.13 2.14 1.69l6.53 18.55c-8.17 1.37-8.77.23-11.74-.34-2.63-.28-5.78-.27-7.79-.01-.78-.11-1.35-.44-1.69-.91-1.41-3.08-1.41-6.2-1.27-5.94-.01-10.63-4.32-10.78-10.04 0-.9.58-.5 1.11-1.11 1.41-.23.93-.25 1.27-.41 2.28-1.08 3.83-1.94 7.37-2.93 12.88-2.46 3.21-1.14 5.29-3.94 5.42-6.64.77-3.73-.14-6.34-1.22-7.78-.51-2.65-.27-5.51.09-16.38-.01-.69 0-1.44.44-1.63.75-.97 1.22-1.11 2.62-1.38 3.41-1.17 1.44-3.08 2.88-4.21 3.34-.26.08-.55.16-.78.16zM115.45 99.11c-1.16 0-2.12-1.12-2.12-2.55v.12c0-2.38 1.12-5.61 2.22-5.76 5.32-8.23 12.17-16.35 13.17-9.52.34-3.66.52-7.39-1.14-10.13-2.61-2.72-6.22-4.39-9.78-3.11-5.51 0-9.23 1.06-10.29 2.01 4.15 1.71 8.28 2.44 11.76 3.09 1.04-.07 2.29-.08 3.48l-.01.01c-2.01.31-2.36-.07-2.83-.88-.95-.84-1.44-2.07-1.84-2.98-.58-1.66.05-2.99.79-4.68l9.87 1.64 2.15 14.16c.59 1.75-.96 4.23-1.85 5.91-2.7.67-1.56-1.25-3.28-2.79-2.1-1.61 1.01-2.74 3.2-4.39 3.22-3.45.89-6.14-.42-10.32-1.31-2.61-2.63-5.09-5.74-5.49h-.01l.03-.01c-1.09 0-3.75 1.59-3.84 3.13l.47-1.2c-.66 1.62-1.21 3.32-1.38 4.91l-7.77 1.35a2.134 2.134 0 0 0-1.72 2.48 2.129 2.129 0 0 0 2.09 1.75c.13 0 .26-.01.38-.03l8.83-1.59c.66 1.97 1.51 3.88 2.68 5.71.78 2.29 2.17 5.04 4.12 5.43 5.21 1.51 8.63 2.49 12.48 2.88 7.73 0 12.43-4.22 13.24-9.28 0-7.39-5.1-16.45-11.46-8.7-18.5-4.54-3.98-14.63-5.67-24.49.76-1.91 1.34-3.78 2.84-5.72 2.53-1.34 5.33-1 8.38-5.14 1.32-.33 2.53-.01 4.33-.01.6-.11 1.71-.62 1.78-1.39.06-.16.16-.52.35-.79.56-.07.01-5.46 10.96-7.99 11.67z"/></g></svg></svg>
