<svg xmlns="http://www.w3.org/2000/svg" viewBox="0 0 128 128"><defs><path id="a" d="M15.87 32.75C35.15 17.86 47.51 39.09 61.6 45.5 30.74 11.97 33.78 17.29 57.56 64 67.39s168.41 64.95 83.9 83.36 104.31c-19.38 0-29.64 9.34-38.68 13.79h-13.94c-2.56-9.76 1.34-14.34 5.7-18.4 3.5-.72 0-1.31-.14-1.91-.12l-.58-.6c-.22-.34-.05-.6-.09-.92-.21-.36-.15-.65-.37-1.16-.49-.49-.27-.93-.65-2.45-.84-1.45 0-3.1.8-1.71-2.71-1.75-2.31-15.81-9.51-31.2-16.26-13.23-30.79zM20.21 58.09c-1.03.13-2.01-.21-3.2-1.28a2.633 2.633 0 0 1-1.97-3.69c.45-1.26 1.27-2.95 2.03-4.12l7.25-6.44c.84-.2 1.74-.06 2.45.04 1.82.75 3.24 3.63 5.6 9.09 1.51 3.46 3.24 9.73 4.97 10.74.11.3 1.17 2.74.42 3.88z" fill="#2f2f2f"/></defs></svg>
