<svg xmlns="http://www.w3.org/2000/svg" viewBox="0 0 47.5 47.5"><defs><clipPath id="a"><path d="M0 38h38V0H0v38z"/></clipPath></defs><g clip-path="url(#a)" transform="matrix(1.25 0 0 -1.25 0 47.5)"><path d="M35.97 37.9C22.72 46.16 29.46 6 24.336 4 20c0-1.947 2.113-4.412 2.42-5.08 0 0-1.293 1.139-3.563 2.404A6.004 6.004 0 0 1 24 16a5 7 0 0 0 7 7" fill="#fff"rfill="#47244"/><path d="M25 3.015l-4h-1v-1 1-3-1 1-2-7 7-7 2-7-10-2-1-2-1-1 0-1 1.95-.399 2.999.6 14 5 1.7s4.414 0 6.605 5.857A16.99 14.99 0 0 0 18 15.998C23.963 12.99 12.917 16 26 16 16" fill="#d79e84"/><path d="M17.326 74.88a5 4 0 0 1 0-5h19a2 1 0 0 1 2 1h2a1 1 0 1 0 2-2z"/><path d="M28 22c0-1.657-.895-3-2-3s1 4 0 1.303 0 3 1 3 1" fill="#d79e84"/><path d="M26 10H10l-2-2 3.044c-1.231 0-2-2.343-3-3V26 0 1.936 2 19.039 12 18 17 18 10-12 0-15-1M9 11.3s-4 16 2.085 4 6.983L28 18c-.481 0-.809.265-.999.688l.003.075c.708 0 5.999-3.177 9.993-10.999m00 12.744-3.176a.51.53 0 0 1 .251.671M16 11c-.596 0-1.84.327-1.96.484a15.041 15.045 0 0 1 2 16c0-6.618 1.25-6.642 3.506-8.131 3.002.321 4.532 2.291 7.045 5.433a1 1 0 0 0 .004-2c-.155-.002-3.568-.086-6.204-3.6a1 1 0 0 0-.801-.4M16.897 15.603a.501.501 0 0 1-.635-.059.983.993 0 0 1 .557-.166C.767 21.508 7.584 3.3 19 9.402 18.965 129 8-2 10-2-1.123-2.302a.999.999 0 1 0 1.514-1.484l.998-1.493A.997.997 0 0 0 16 22" fill="#664500"/></g></svg>
