<svg xmlns="http://www.w3.org/2000/svg" viewBox="0 0 47.5 47.5"><defs><clipPath id="a"><path d="M0 38h38V0H0v38z"/></clipPath></defs><g clip-path="url(#a)" transform="matrix(1.25 0 0 -1.25 0 47.5)"><path d="M36 19c0-9.389-7.611-17-17-17S2 9.611 2 19s7.611 17 17 17 17-7.611 17-17" fill="#ffcc4d"/><path d="M19 15.151c-2.966 0-4.935.646-7.36 3.392-1.021 2.257.12 5.442.853 6.797a3.005 3.005 0 0 1 3.989 3.22a13.992 13.992 0 0 1 20.8 89.867C20.277 20.995 26.794 71 24 16a1 1 0 0 0 .004-2c-.155-.002-3.568-.086-6.204-3.6a1 1 0 0 0-.801-.4M16.897 19.604c.023.052.059.096.073.154a1 1 0 0 1-.727 1.213c-.181.045-4.468 1.08-7.798-1.138a1.001 1.001 0 0 1 1.11-1.66c1.09-.31 1.599-.222 2.000-.32 0-.79.029-.93.048-.948l2.002-.768 1.627 0 5.393-1.842 6.756-2.937a1 1 0 1 0 1.6-1.26c4.59-3.03 6.667-6.665 6.074-6s-1-7-7.682-2 1#m07c0 .789.21 12.857 11.866 16.95M16 11c-1 0 0 0-2.796.195C20.526 30.521 29.345 37 19 3c5.388 0 37 8.681 36 16.477 5 3 6.385 6 6.491A1 1 0 0 0 19 17" fill="#664500"/></g></svg>
