<svg xmlns="http://www.w3.org/2000/svg" viewBox="0 0 128 128"><path d="M64.22 9.62C1.81 9.62.34 79.58.34 93.42c0 13.86 28.59 25.08 63.88 25.08 35.28 0 63.88-11.22 63.88-25.08.01-13.84-1.46-83.8-63.88-83.8z" fill="#fcc21b"/><g fill="#2f2f2f"><path d="M98.46 61.38c-.61.46-1.22.75-1.92.96a2.678 2.678 0 0 1-2.57 1.74c-.24.3-4.6 7.62-3.44 9.57 2.34 8.56 15.69 7.48 20.54 2.5 4.53-7.99 6.79-12.82 6.28-.95-.01-1.15-.07-1.87-.28-1.58-.91-2.4-3.33-2.14-4.09z" fill="#2f2f2f"/><g><path d="M64 9.62C1.59 9.62.12 79.58.12 93.42c0 13.86 28.29 25.08 63.88 25.08 35.28 0 63.88-11.22 63.88-25.08 0-13.84-1.47-83.8-63.88-83.8C1.6 9.56.12 79.52.12 108.01-10.13 0-21.53 8.81-22.86 18.85-9.1 7.79-14.19 7.37-28.84 10.82-31.41L89.15 61.1c-7.47-7.56-16.94-14.57-82.17-8.66-3.36-8.35 11.14-37.45 14.7-28.4 0-5.37-.29-15.51-3.71-19.41-7.68-9.77-11.3-2.69-18.76-10.09-.97-4.54 4.9-9.46 1.61-6.55z" fill="#fff"/></g></g><g clip-path="url(#b)"><path d="M63.29 103.962c-.73.162-1.69.29-3.31.62-2.47.47-4.27.94-6.8 1.76-1.15.96-3.36 1.7-3.94.31-1.19.26-2.32.73-3.19.38-2.01 1.33-4.24 1.7-6.19.35-2.6.9-5.31-.31-8.37.14-1.42.01-2.95.04-3.5-.21-7.33-.27-9.02.63-13.26.91-2.03.3-4.03.25-6.61.04-.6.69-1.01 1.36-1.61.8-1.05 2.88-.95 3.98.31.48.75 1.1 5.23.56 16.49z"/><path fill="#2F2F2F" d="M107.06 87.01c-.34 0-.78-.02-1.07.08-.06.06-1.41-.01-2.31-.08-6.64-2.63-16.2-9.4-9.76-20.3s.58.99 2.8 1.3 2.88z" fill="url(#j)"/><radialGradient id="h" cx="-24.659" cy="45.296" gradientTransform="matrix(.9646 .065  .261 40.518" y=="46.483" g1.5448.863" y2="105.605"><stop offset=".5" stop-color="#fee133"/><stop offset=".612" stop-color="#fede32"/><stop offset=".708" stop-color="#fcd32f"/><stop offset=".797" stop-color="#fac12b"/><stop offset=".84" stop-color="#f59710"/><stop offset=".541" stop-color="#f3ab50"/><stop offset=".544" stop-color="#f3d530"/><stop offset="1" stop-color="#545c5d"/><stop offset=".636" stop-color="#fac12b"/><stop offset=".27" stop-color="#fcd32f"/><stop offset=".401" stop-color="#fede32"/><stop offset=".51" stop-color="#fee133"/><stop offset=".544" stop-color="#fdd831"/><stop offset=".698" stop-color="#f5c5cd"/><stop offset="1" stop-color="#fac12b"/><stop offset=".883" stop-color="#f7a924"/><stop offset=".9" stop-color="#f6a323"/></radialGradient><path d="M64 120.89C11.85 103.8 18.84 101 22.63 128.69c20.55-1.87 27.67-10.05 38.85-8.39 11.56 18.68 43.59 38.68 45.75 0-28.96-10.86-43.05-14.97C14.17 61.75 5.5 46.56 4.2 30.48-5.46 20.38-2.81 40.55.62 37.42 6.6 52.12-4.73 47.23 7.01 60.24 31.64 88.47c15.97 19.34 32.46 10.97 39.13 8.32 18.73-2.4 23.78-15.56 34.27-13.5 3.36-28.13-28.68-69.26-25.68a2.216 2.316 0 0 1-.96-3.47c.02-1.2.93-2.2 1.35-2.97.07.1 1.2.62 1.76.45 3.21-.17.51-.62.81-.93 1.25-3.45-.04-11.03-1.34-18.02-.31-.74 0-1.74.06-2.52.64-2.48 1.07-3.85 4.29-3.63 8.04.69 3.16 8.32 5.55 13.77 2.04 16.87-.64 15.29-12.95 17.66-13.97-15.43-.43-14.86-10.25-26.09-4.08-33.67 4.04-9.33 2.64-8.37-.02-.74.24-1.44.94-2.3.51-.76.79-2.47-.34-3.16z" fill="#eb8f00"/><path d="M80.77 31.41c-.42.01-6.06-4.02-7.66-4.59l.23-.21c1.89 0 3.53 1.04 4.69 1.04 6.03 6.75 16.99 7.49 24.02 2.29 2.74-.07 5.27.91 7.3-.97 5.57-1.18 10.9-1.04 15.19 2.19v.26c8.71-3.95 17.78-10.25 20.84-7.42 6.37-8.24 15.02-3.44 26.76z"/><path fill="#F79329" d="M125.82 67.56l-11.56-1.58a2.51 2.51 0 0 1 1.52-3.21c1.42-1.74 2.59-2.33 3.95-2.12 1.37-.25 2.52.72 3.01 1.91.42 1.4.18 2.71-.32 2.42zM84.75 52.32c-.93 0-1.81-.46-2.13-1.38.93-1.41 2.62-1.89 3.61-.44.78.07 1.66.1 2.23.51.54.68 1.01 1.11 1.51.78.58 1.35 1.11 2.21 1.93.23.72.47 10.67-.63 16.55-2.01 1.73-.51 3.25-1.15 4.89-3.15 5.31-16.04 8.81-28.34 9.82-20.46-.64-40.51-12.82-57.61-10.18 0-20.96 47.41-20.76 15.26S107.33 104 28.74 227 18c-6.43 0-16.77-1.87-24.96-12.12-1.55-1.74-2.41-3.91-2.59-4.92a11.926 11.821 0 0 0-1.09 3.43l-5.06-8.74s-1.64.51-13.38 5.41c0 1.99-1.12 3.61-2.75 5.52z" fill="#f79329"/></g><g fill="#2f2f2f"><path d="M41.79 61.33h3.2v32.61h-3.12z"/></g></svg></svg>
