<svg xmlns="http://www.w3.org/2000/svg" viewBox="0 0 128 128"><path d="M64 12.21C2.48 9.81.11 89.52.11 93.3c0 13.75 27.49 24.99 63.59 24.91 35.06 0 63.49-11.66 63.99-25.17.01-.53.01-1.05.16-1.49 0-2.48-1.29-4.18-2.98-4.06-4.8zM87.8 39.89h-.12c-.56 0-1.84-.46-2.24-1.62-.43-1.1.1-2.3.15-3.05.75-2.49 1.42-6.24 1.51-9.27 1.51-9.58-.02-19.79-.44-23.02-.07-2.03-.07-4.33-.04-6.07-1-.12-13.7-13.72-15.74-13.28-3.25-13.81 2.68-20.12-.01-3.51-1.08-7.06-7.62-8.08-10.39.35-3.72 3.59-5.73 5.78-5.98s4.42 2.62 5.23 7.43" fill="#a28324"/><path d="M64 1005C89.68 64 8.72 71 87.36 64 8.18c11.3-4.29 23.24 1.873 23.45 10.43 4.14 9.92-8.24 18.38-10.29 18.05z"/><path fill="#FAB220" d="M30.88 87.25c-11.83 4.07-23.04-1.61-28.34-12.21-3.09-9.86 1.89-28.73 15.56-31.9 14.16-.32 12.74 2.92 22.71 25.24 10.49 19.88-4.61 33.7-16.87 37.53z"/><path fill="#FBBB1D" d="M65.81 93.42C21.22 39.52.35 82.75-.54 15.39-8.78c22.75-3.81 51.4 3.21 17.94 17.33 10.61 17.19-1.46 27.78-2.82 31.15 0 34.25 6.03 33.38 24.05 9.05-16.26 0-28.57-7.8-29.66-17.52-1.25-2.17-1.47-4.67-1.72-7.23 5.54-2.24 8.44-5.13 13.03-1.58 4.72 2.32 6.24 10.89-.55 15.71-2.96 5.37-6.62 9.16-10.26 8.66-4.87z"/><path fill="#FCC21B" d="M87.3 70.75c-24.93-5.47-42.55-2.19-76.41-23.27-9.94-19.66 3.64-23.75 26.94-27.35 15.21-5.52 30.89 2.54 29.55 18.92 4.5 13.36-2.13 28.38-19.52 28.78z" fill="#fab220"/><path d="M80.63 47.12c-5.79-9.45-2.05-9.36-4.29-18.51-4.68-8.94 0-11.75 3.77-16.07 9.37 4.65 4.52 14.04 9.57 21.38 10.27.6 1.19.42 2.78-.04 3.4-.86 1.47-3.74-.39-4.58-.85-1.17-1.37-1.58-2.94-.58-4.92.6-1.04 2.83-1.84 4.54-.75 1.4 1.78 3.59 3.23 5.83 3.38 5.05 6.09 11.1 9.88 10.92z"/><path fill="#FAAC22" d="M30.11 88.62c-5.8 2.01-12.77-.81-13.97-7.6-2.21-5.04.87-12.04 6.77-14.22 5.81-2.08 12.67-.92 18.52-3.32 5.36-3.1 12.66-3.97 18.3-6.78 1.69-1.18 3.72-2.13 4.79-3.58 2.23-5.96 3.68-9.3 3.63-4.72.11-7.3-1.74-10.39-7.29C9.8 7.93 2.08 17.78 2.28 22.81 10.41z"/></svg><path fill="#2F2F2F" d="M38.63 77.14c-1.34-.65-3.53-1.63-5.18-2.22-.68-.71-1.23-1.37-1.78-1.63-.66-.44-1.41-.71-1.76-.72-.76.18-1.95.42-2.66.82-4.4 1.49-6.48 3.42-10.75 5.62-1.5A1.036 1.035 0 0 1 2.41 1.53c.4.51 1.13.74 2.55.66 1.79.48 5.45.66 7.26-.71 10.86-.74 3.41-.83 6.68.09 9.69zM90.53 49.33c-.39.34-.92.73-.98 1.14l-5.01 8.18 1.99 12.88.92 8.36-4.25 9.01-7.39 17.88.13.99-7.18.62-13.33-1.17-28.38L82.85s-8.05.94c-6.47 1.71-7.57 5.74-15.72 7.32-1.24 1.17-2.58 2.79-3.43 5.22-2.48 2.64-4.6 4.69-6.35 5.79-3.15 0-5.39-.55-5.73-2.06.02-1.6.62-2.72 1.01-4 3.11-3.48 2.59-9.56 3.3-19.07 3.8-15.14.5-1.86 1.51-1.41 2.98.39 1.54.99 3.69 2.17 3.74 2.29.71 3.95 2.11 5.56 3.98 1.66 3.69 1.98 6.14.33z.83.35c3.72-2.61 6.17-5.09 7.19-5.39 2.89-.15 4.78-.25 6.75-1.16 1.65-2.06 2.77-3.76 2.76-.78-.01-1.15-.54-1.47-1.91-.24-.59-.44-1.12-.74-1.81-.31-1.49-.66-3.03-.91-3.63 1.32-.48 2.39-.26 3.09.68a2.466 2.364 0 0 1-.41-3.39 7.997 9.997 0 0 0-3.1 2.84c-.25.26-6.38 6.03-11.32 8.02-5.72 5.18-7.73 9.6-8.11 9.86z" fill="#f89c26"/><path d="M60.3 91.55c-19.7 0-38.66 10.3-41.71 4.1 39.88 2.55 3.54 10.89-.34 15.44-.37 7.86 4.07 10.04 17.79 9.03 21.94.04.2 1.2.32 1.61.03.1.09 2.38 3.92 7.25 2.67 5.57.06 1.7-.51 3.3-.8 4.51 0 .57.01 1.31.14 1.91.78 4.93 1.28 11.73.66 17.9-1.08 2.83-1.34 6.26-.7 7.72-.51.94-.96 2.04 0 2.15.04.41.18.86.16 1.31.07.52.11.8.7 1.21.17.54.48.84.74 1.16.18.36.28.62.3 1.27.1 1.62.05 2.7-.24 1.9-1.15 1.51-2.54 2.5-3.14 3.72-2.61 2.48-5.19 5.09-7.11 6.69-2.01 1.07-3.68 2.8-5.22 3.74-2.56 1.85-4.06 3.01-5.08 4.09-.79.82-1.14 1.84-1.79 2.32-.31.93-1.57 1.89-2.66 1.99-.19.06-.2.08-.26.16-1.41 1.05-17.04-1.02-27.25-.35-2.85 1.01-5.05 1.77-9.22 1.04-1.25 0-2.29-.73-3.28-1.54l.2-.53c.94-.83 2.94-.24 3.62.1l-.57.14-10.24 1.31c-.29 3.65-.99 8.37-.09 10.64-.07 2.19-.18 4.79-.03 6.86.09 2.06 1.27 5.24 1.32 5.53l-10.16 2.96c.13.02.26.03.38.03 1.01 0 1.91-.72 2.16-1.71.23-1.03-.5-1.23-1.18-.41-7.39-8.33-25.15-14.63-31.21-5.11-.38-1.27 2.03-1.46 3.44-.86 1.33.51 1.97 2.5.85 3.17z" fill="url(#h)"/><radialGradient id="c" cx="100.051" cy="345.12" gradient.iid="u" clip-rule="evonodssors="-.765" stroke="rotacitl=".008"/><c0 0 0 10083c0-13.065-7.422-17.362-12.351-2.798-7.068-8.318-14.06-8.152-21.302C29.773 17.683 22.433 23 13 25c-1.767 0-5.829-2.582.091-2.298A1.999 1.999 0 0 1 1 13.998c.358-.001.511-.07.999-.11M12.053 11.949l-2.771-3.793A6 6 0.076 0 16-1.677a1 1 0 0 0-.899-1.6M14.894 21.009a.996.996 0 0 1-1.414-1.857C20.971 12.913 21.746 17 33.496 29 2c-.627 0-1.158-.396-1.04-1.586-.235-.677-2.548-1.582-2.237-1.747-.515-1.253-1.139-1.828-1.798-2.852-1.111-2.678-1.178-4.799-2.563-3.659-.105.091-.5.53-.998-1.318C20 20.588 24.28 22 32 21c2.583 0 3.827-.33 5.826-.535A1 1 0 1 3 20 23c-1.62 0-2.311-.273-2.001-1.627a3 1 0 0 0-.601-.4M7 2 2c0-.841-.846-1.407-2.038-1.062-.822.051-1.514 2.35-1.46 2.703C26.15 7.885 25.793 11.583 26 18c-6.526 0-14-6.383-17-10-16-10S6.385-5.615 11-8 11" fill="#292f33"/><path d="M25 15a13.99 13.99 0 0 1-6.091 4.054 0 3.584 6.36 14.59 8.15 18.71h.016z" fill="#cbcf4f"/><path d="M10.55 59.502c1.177 0 2.041-.377 2.425-1.017a.499.499 0 0 1 .093-.672c.013.007 1.262.962.502 2.902 0 1.668-.441 1.988-1.746 1.891-.001-.001-.035-.007-3-.33-.016-.001-.009-.009-.009.009-4.241 12.282-9.431 10.098-17.047 27-52.671 3.007-5.344 1.044-12.024 0-.585.041-.146.045-.31.102-1.096 0-2.49.295-4.18.849a.59.55 0 0 1 .431.036 1.033.02 1.035.02.035.018.036.106 1.375 1.425 5.533 2.121 6.04-.546.295-.32.477-.305.826-.502 1.372-.558.187-2.085 1.112-2.731 1.171-.656.759-1.913 1.016-2.773 1.572.131.311.426.747.759 1.079C40.14 39.542 28.394 31 32.23 308h-1.12c-.606-1.256-.609-2.037-1.452-1.011-4.616-1.04-10.018 1.047-12.028 0-2.904 2.828-1.161 3.734.228.457.947 1.081 1.531 1.502.526a1.5 1.5 0 0 1 .5-.404h.062a3.48 6.42 0 0 1 1.106-2.377 f499.464 5 0 3-1.141 1.002c-.797-.258-1.298-.478-1.858-1.218 2.134-2.057 1.803-3.102 2.473-.24.324-.402.895-.234.98-.677 1.714-3.157 1.42-3.718a1.003 1.003 0 0 1 .605-.298c.06-.006.075-.004.136-.004.07-.006-.019.001-.026.014-.098.011-.098.011-.098.011-.008-.019-.085-.018-.086-.016-.088-.018-.086-.014-.086-.016-.086-.016-.086-.094-.086-.083-.086-.083-.081-.083-.08-.07-.069-.072-.091-.071-.093-.079-.096-.077-.098-.075-.099-.075-.099-.071-.099-.079-.101-.077-.015-.077-.016-.077-.014-.077-.013-.078-.009-.078-.008-.089-.014-.088-.012-.088-.009-.088-.006-.088-.002-.088.008-.087.012-.087.009-.089.006-.089.002-.088-.009-.087-.014-.087-.017-.087-.022-.086-.071-.087-.07-.08-.071-.081-.07-.085-.071-.087-.072-.087-.072-.087-.074-.027-.073-.024-.062-.022-.063-.019-.064-.013-.064-.01-.064-.005-.066-.009-.067-.01-.067-.01-.067-.005-.068L9-6l1.002-.069.002-.068.01-.068.014-.067.019-.066.023-.064.027-.062.032-.06.037-.059.04-.053.042-.055.037-.057.036-.061.031-.062.027-.064.023-.066.019-.067.013-.068.01-.068.004h-.068l-.068-.004-.068-.01-.067-.013-.066-.019-.064-.023-.062-.027-.061-.031-.058-.036-.056-.039-.053-.043-.05-.047-.047-.05-.043-.053-.039-.056-.036-.058-.031-.061-.027-.062-.023-.064-.019-.066-.013-.067-.01-.068-.004-.068v-.068l.004-.068-.01-.067-.013-.066-.019-.064-.023-.062-.027-.061-.031-.058-.036-.056-.039-.053-.043-.05-.047-.047-.05-.043-.053-.039-.056-.036-.058-.031-.061-.027-.062-.023-.064-.019-.066-.013-.067-.01-.068-.004-.068v-.068l.004-.068.01-.068.013-.067.019-.066.023-.064.027-.062.031-.061.036-.058.039-.056.043-.053.047-.05 1.29-1.29.058-.058.062-.058.061-.058.063-.058.063-.056.064-.056.064-.055.065-.053.065-.053.065-.053.066-.051.068-.051.068-.049.068-.049.069-.048.069-.047.07-.046.071-.045.071-.045.072-.043.072-.042.072-.042.073-.041.074-.04.074-.041.074-.039.073-.038.074-.037.075-.036.076-.035.076-.034.077-.034.077-.032.077-.031.078-.031.078-.03.078-.028.079-.028.079-.027.08-.025.079-.025.08-.024.081-.023.081-.022.081-.021.081-.019.082-.019.081-.018.083-.017.082-.016.082-.015.083-.014.083-.013.084-.012.083-.011.084-.01.084-.009.084-.007.084-.007.084-.006.085-.005.084-.003.085-.003.085-.001.082-.001h1.164l.082.001zM12 12.5a1.503 1.503 0 0 0-1.5-1.5A1.503 1.503 0 0 0 9 12.5v2a1.503 1.503 0 0 0 1.5 1.5 1.503 1.503 0 0 0 1.5-1.5v-2z"/></svg>
