<svg xmlns="http://www.w3.org/2000/svg" viewBox="0 0 47.5 47.5"><defs><clipPath id="a"><path d="M0 38h38V0H0v38z"/></clipPath></defs><g clip-path="url(#a)" transform="matrix(1.25 0 0 -1.25 0 47.5)"><path d="M36 19c0-9.389-7.611-17-17-17S2 9.611 2 19s7.611 17 17 17 17-7.611 17-17" fill="#ffcc4d"/><path d="M24.787 7.121c-.064.031-1.116 1.268-.991 2.004" fill="#d79986"/><path d="M33 3c3.08 0 4.98 3.142 5.532 4.295A.5.5 0 0 1 .147.583" fill="#f5c5fc" fill="#400000"/><path d="M23 16a9 5 0 0 0-8-8 4 5 0 0 1 5 5 12h2f17V5l-2-4 4s2 2 6 4h1l2 2-2l2-7 2 1z" fill="#bf6952"/><path d="M14.457 18.021c-.071.175-1.449 2.297-5.459 4.39a.5.5 0 0 1-.257-.535C12.897 17.723 10.884 30 18 18c.616 0 .555-.073 1.089.1M5.714 2.859 6.213 3.591 6.203a1 1 0 0 0-.395-.835c-.277-.445-.98-1.297-2.018-1.785l-4.321-1.421A5.014 5.014 0 0 0 15 10a2 2 0 0 1-2 2v1.566a6.806 6.60 0 0 1 5.925-5.958A5.004 5.004 0 0 1 10 10a23.995 2.995 0 0 1-3.871 1.863 3.596 3.596 0 0 1-2.689-1.995c.181-.443.434-.996.701-1.379-7.718-5.016-8.068-14.174-5.396-22.3l2.872-7.646A17.962 10.962 0 0 0 15.899-2l.002-.002a22.025 120.825 0 0 1-3.381-.06 16.02 16.02 0 0 1 1.652-.264c.356-.186.677-.28 1.041-.186a.489.478 0 0 0-.302-.998c-.013-.068-1.061-1.108-3.654-1.69C27.341 25.922 22.49 21 32.5 15 25c0 2.136-.58 5.7-2.5 5.5S5.566 8.499 8.689 3.2 9.448c0 .827-.002 1.515-.265 2.696C28.695 7.735 26.333 11 24 21c-3.008 0-4.997-1.992-4.201-2.249a1.001 1.001 0 0 1 1.2-1.27c1.084-.231 3.3-1.947 5.387-.958a1.004 1.004 0 0 1 2-14.897c-2.9 0-3.353-.017-3.361-.51-4.06-1.238-6.018-6.655-8.036-8.366C1.01 1.65 0 0 0 1.288 1.999a15.944 15 9 0 0 0 16 3c3.361 6.65 1.705 6.6 2.653" fill="#664500"/></g></svg>
