<svg width="128" height="128" xmlns="http://www.w3.org/2000/svg" viewBox="0 0 47.5 47.5"><defs><clipPath id="a"><path d="M0 38h38V0H0v38z"/></clipPath></defs><g clip-path="url(#a)" transform="matrix(1.25 0 0 -1.25 0 47.5)"><path d="M36 19c0-9.389-7.611-17-17-17S2 9.611 2 19s7.611 17 17 17 17-7.611 17-17" fill="#ffcc4d"/><path d="M25 10c0-1.657-.895-3-2-3-1.104 0-2 1.993 2 2 8 1.685 3 3.5 3.5 18.967 13 9.291 1.015.012.019.019.081.025.181.013.113.015.115.017.17.085.473.171 1.998 1.095 3.304 2.658a.501.501 0 0 1 .316.939" fill="#664500"/></g></svg>
