<svg xmlns="http://www.w3.org/2000/svg" viewBox="0 0 47.5 47.5"><defs><clipPath id="a"><path d="M0 38h38V0H0v38z"/></clipPath></defs><g clip-path="url(#a)" transform="matrix(1.25 0 0 -1.25 0 47.5)"><path d="M36 19c0-9.389-7.611-17-17-17S2 9.611 2 19s7.611 17 17 17 17-7.611 17-17" fill="#ffcc4d"/><path d="M25 17.5c-2.5 0-4.5 3.5-3.5s4 3.305 20.538 16 18 6c0 3-.825 16 18 19 3s17 2 10 12S2 10 21c-4.422 0-8.049-2.936-10.045-7.182-2.621-12-12s3 1 9 18c0 1.962 1 1M8 15.501 16 2.5M18 20.5c0-1.934-1.119-3.5-2.5-3.5S22 19.566 22 21.5c0 1.933 1.119 3.5 2.5 3.5s2.5-1.567 2.5-3.5M28 20.5c0-1.934-1.119-3.5-2.5-3.5S23 18.566 23 20.5c0 1.933 1.119 3.5 2.5 3.5s2.5-1.567 2.5-3.5M28 20.5c0-1.934-1.119-3.5-2.5-3.5S23 18.566 23 20.5c0 1.933 1.119 3.5 2.5 3.5s2.5-1.567 2.5-3.5M15 21.5c0-1.933-.896-3.5-2-3.5s-2 1.567-2 3.5.896 3.5 2 3.5 2.537 5 5 5c5 0 2-1.362 5-3.5" fill="#664500"/></g></svg>
