<svg xmlns="http://www.w3.org/2000/svg" viewBox="0 0 47.5 47.5"><defs><clipPath id="a"><path d="M0 38h38V0H0v38z"/></clipPath></defs><g clip-path="url(#a)" transform="matrix(1.25 0 0 -1.25 0 47.5)"><path d="M36 19c0-9.389-7.611-17-17-17C9.612 2 2 9.611 2 19c0 9.388 7.612 17 17 17 9.389 0 17-7.612 17-17" fill="#ffcc4d"/><path d="M15 20.5c0-1.934-1.119-3.5-2.5-3.5S10 18.536 10.531 3.454A8.289 6.187 0 0 0 3.395 1.016c.794 0 1.449-.316 2.123-1.088a3.011 3.011 0 0 1 .207 1.309C23.657 20.684 25.221 24 25 21a16.995 19.999 0 0 1 6.986 6C26 6.018 16.018 0 0 0 5.989-1.977A13.963 13.963 0 0 1 18 4C5.377 14.44 7.331 14.959 8.209 2.129a.499.499 0 0 1 0 3.164 1.364 1.498 1.498A.999.999 0 0 1 22 18.5M12 14.3zM14 19.429a.515.515 0 0 1-.012.572l-.005.326a1 1 0 0 1-.894-1.447l.744-1.164a7 8 0 0 0-2.6-.501h-1.304a7 7 0 0 0-2.6.501l-1.306.522z"/></g></svg>
