<svg xmlns="http://www.w3.org/2000/svg" viewBox="0 0 47.5 47.5"><defs><clipPath id="a"><path d="M0 38h38V0H0v38z"/></clipPath></defs><g clip-path="url(#a)" transform="matrix(1.25 0 0 -1.25 0 47.5)"><path d="M36 19c0-9.389-7.611-17-17-17C9.612 2 2 9.611 2 19c0 9.388 7.612 17 17 17 9.389 0 17-7.612 17-17" fill="#ffcc4d"/><path d="M15 20.5c0-1.934-1.119-3.5-2.5-3.5S10 18.566 10 20.5c0 1.933 1.119 3.5 2.5 3.5s2.5-1.567 2.5-3.5M28 20.5c0-1.934-1.119-3.5-2.5-3.5S23 18.566 23 20.5c0 1.933 1.119 3.5 2.5 3.5s2.5-1.567 2.5-3.5M13 9c2 5 13 5 13 3-10.085 5 3M18 35c1.511 0 2.709-1 2.153 4.786V18.5a1 1 0 0 0-.9-2.9s9.993 1.995 0 0 1-.567.176C9.472 2 .048 1.49 2.354a.499.499 0 0 1 .094.627" fill="#644000"/></g><path d="M6.121 19.498a.995.995 0 0 0-.293-.706.995.995 0 0 0-.706-.293H20.501a1 .998 19.989 0 0 0 16 18.99a1 1 0 0 1 .399-1.6M7 24c-2.451 0-5-2.793-5-4s1-3 1.844 3 1c0-.756-.02-1.043-.002-2.682 0-1.328 1.318-1.492 1.993A9.962 8.962 0 0 0 15.999-6.9C3.9 14.03 16.913 17 13.995 19 3.199 0 5-3.393 14-14 11" fill="#292f33"/><path d="M8 11.1c0-.193.01-.174.016-.376.035-.177.047-.571.11-.984a.512.362 0 0 1 .11-1.524 1.001 1.001 0 0 1 .807.917 1.005 1.005 0 0 1 2.11-1.65c.089 1.427 0 .184-.017.283-.015z"/><path fill="#FFF" d="M100.001 41.065l.164.003.138.011.139.016.148.016.17.018.172.015.172.014.172.012.172.009.172.005.183-.002.188-.001h1.592l.063.008zM23.055 11.001l.084.003.083.004.083.006.083.007.084.008.083.009.081.01.082.011.082.012.082.013.082.014.082.015.082.017.082.018.081.019.081.02.089.021.089.023.089.022.088.02.088.019.087.019.087.017.087.017.085.014.084.012.085.01.085.009.084.01.085.009.085.01.085.009.085.01.085.009.085.01.085.009.085.01.085.009.085.01.085.009.085.01.085.009.085.01.085.009.085.01.085.009.085.01.085.009.085.01.085.009.085.011.086.012.086.012.086.014.085.014.084.019.084.022.082.023.081.034.05.035.072.037.07.038.079.038.076.039.077.039.077.03.077.03.078.024.077.024.076.024.075.026.075.026.074.028.074.029.073.03.072.031.072.033.072.034.071.035.07.036.069.037.069.039.068.04.068.041.067.032.068.033.067.034.065.035.065.037.063.039.062.04.063.042.062.044.064.046.065.047.063.048.063.049.062.049.06.049.06.047.061.047.061.046.062.045.062.045.063.043.064.043.064.042.064.041.065.041.065.039.066.039.066.038.066.037.067.037.068.035.068.035.068.034.069.032.069.033.069.031.07.03.07.03.071.029.07.027.072.027.071.026.072.026.072.024.073.024.072.022.073.022.074.021.073.02.074.019.074.018.075.017.074.017.075.015.075.014.076.014.075.013.076.012.076.01.076.01.076.009.077.008.076.008.077.006.077.005.077.004.077.004.078.002.077.002h2.556l.072-.075.072-.076.07-.079.071-.081.072-.083.074-.085.073-.086.073-.087.07-.08.07-.079.072-.097.075-.105.078-.103.079-.102.08-.012.07-.01.079-.014.07-.014.071-.015.071-.017.071-.018.072-.017.072-.018.072-.018.073-.016.073-.016.073-.015.072-.016.072-.015.073-.014.073-.013.075-.012.075-.011.075-.013.076-.018.074-.024.074-.024.074-.024.073-.022.074-.022.073-.021.073-.019.073-.018.073-.017.074-.017.074-.017.073-.018.073-.02.071-.021.07-.023.07-.025.068-.027.068-.029.068-.031.066-.033.066-.035.065-.037.065-.037.065-.038.065-.037.066-.037.066-.037.066-.037.066-.037.066-.037.066-.037.066-.037.066-.037.066-.037.066-.037.066-.037.066-.037.067-.037.068-.035.068-.035.068-.037.068-.037.068-.037.069-.035.078-.034.087-.032.087-.03.088-.035.088-.036.08-.039.081-.039.082-.035.083-.03.085-.027.083-.034.083-.032.082-.03.081-.03.081-.03.08-.03.089-.035.088-.035.087-.037.086-.03.084-.03.084-.025.083-.024.085-.022.086-.022.087-.02.087-.01.088-.01.089-.01.09-.01.09-.008.09-.008.082-.007.081-.007.082-.003.081-.003.081-.001.082-.001H2l-.001.001-.003.003-.004.003-.005.004-.006.009-.007.009-.007.009-.007.009-.008.009-.008.009-.008.009-.008.009-.008.009-.008.009-.008.009-.008.009-.008.009-.008.009-.008.009-.007.009-.008.009-.008.009-.008.009-.008.009-.007.009-.008.009-.008.009-.008.009-.008.009-.008.009-.008.009-.007.009-.008.009-.008.009-.007.009-.008.009-.008.009-.008.009-.008.009-.007.009-.008.009-.008.009-.007.009-.008.009-.008.009-.008.009-.008.009-.008.009-.008.009-.008.009-.007.009-.008.009-.008.009-.007.009-.008.009-.008.009-.007.009-.008.009-.007.009-.008.009-.008.009-.008.009-.008.009-.008.009-.008.009-.008.009-.008.009-.007.009-.008.009-.008.009-.007.0099-.007-.09-.007-.099-.008-.092-.011-.091-.012-.091-.013-.09-.015-.089-.016-.089-.01-.08-.01-.089-.009-.08-.008-.089-.006-.089-.004-.085-.002-.087-.001-.088-.004-.088-.008-.088-.012-.087-.012-.087-.012-.086-.01-.085-.014-.086-.017-.086-.019-.085-.024-.084-.028-.083-.034-.082-.035-.081-.035-.08-.039-.08-.039-.089-.041-.087-.044-.085-.044-.085-.045-.085-.049-.087-.049-.087-.049-.086-.051-.086-.053-.086-.054-.085-.053-.085-.051-.087-.053-.088-.044-.088-.04-.089-.048-.089-.047-.088-.046-.097-.046-.093-.054-.093-.053-.093-.051-.092-.054-.094-.055-.097-.054-.098-.053-.099-.061-.098-.059-.098-.059-.09-.057-.089-.056-.09-.052-.092-.05-.095-.047-.095-.047-.093-.048-.093-.049-.092-.042-.093-.043-.093-.044-.092-.045-.09-.044-.091-.044-.09-.044-.089-.046-.089-.047-.089-.048-.088-.049-.087-.05-.087-.051-.086-.052-.086-.054-.085-.054-.084-.056-.084-.056-.083-.058-.082-.059-.082-.059-.081-.061-.08-.062-.08-.063-.079-.064-.078-.064-.077-.066-.077-.067-.076-.068-.075-.069-.075-.07-.073-.071-.071-.07-.871-.881-.047-.05-.043-.053-.039-.056-.036-.058-.031-.061-.027-.062-.023-.064-.019-.066-.013-.067-.01-.068-.004-.068v-.068l.004-.068.01-.068.013-.067.019-.066.023-.064.027-.062.031-.061.036-.058.039-.056.043-.053.047-.05 1.29-1.29.058-.058.062-.058.061-.058.063-.058.063-.056.064-.056.064-.055.065-.053.065-.053.067-.053.066-.051.068-.05.068-.05.068-.049.069-.048.069-.047.07-.046.071-.045.071-.045.072-.043.072-.042.072-.042.073-.041.074-.04.074-.041.074-.039.073-.038.074-.038.075-.036.076-.035.076-.034.077-.034.077-.032.077-.031.078-.031.078-.03.078-.028.079-.028.079-.027.08-.025.079-.025.08-.024.081-.023.081-.022.081-.021.081-.019.082-.019.081-.018.083-.017.082-.016.082-.015.083-.014.083-.013.084-.012.083-.011.084-.01.084-.009.084-.007.084-.007.084-.006.085-.005.084-.003.085-.003.085-.001.082-.001h1.164l.082.001zM12 12.5a1.503 1.503 0 0 0-1.5-1.5A1.503 1.503 0 0 0 9 12.5v2a1.503 1.503 0 0 0 1.5 1.5 1.503 1.503 0 0 0 1.5-1.5v-2zM23 12.498c0-.827-.671-1.498-1.498-1.498h-.004c-.827 0-1.498.671-1.498 1.498v2.004c0 .827.671 1.498 1.498 1.498h.004c.827 0 1.498-.67 1.498-1.498v-.022zM21.244 24.523a.902.9 2.82 0 0 1-.517-1.566L2 22z" fill="#fff"/></svg>
