<svg xmlns="http://www.w3.org/2000/svg" viewBox="0 0 128 128"><path d="M63.89 9.64C1.58 9.64.1 79.5.1 93.33c0 13.83 28.56 25.03 63.79 25.03 35.24 0 63.79-11.21 63.79-25.03 0-13.83-1.47-83.68-63.79-83.68z" fill="#fcc21b"/><path d="M63.91 95.02c10 22.68 0 4-.25s-2.71 2.64-3.65 2.66H74.75c-6.12 0-8.51 3.76-7.22 9.06.02 5.26 3.73 9.07 8.06 9.66 5.06 1.65 9.69 2.9 17.41.11 1.11-.15 2.25-.17 3.28l-7.28-16.8c-1.22-2.1-2.97-4.59-2.46-6.73.94-2.72 3.11-4.74 6.43-4.72 1.15 1.83 1.23 3.98.75 5.9-.39.37-1.39.41-1.52 0a5.565 5.555 0 0 0-1.38 4.29H45.46c0-.16-.04-.39-.03-.48l.02-2c-4.21-5.6-.62-11.74 3.56-14.64 8.43-.56.07-1.42.68-1.89.5l-1.39 1.78c-1.68 9-2.44 10.47 1.87 15.72 1.06 4.15-1.01 7.88-6.49 7.17-4.1 1.47-7.88 2.33-10.47 2.34a2.36 2.36 0 0 1-3 3.19c0 .94-.27 1.75-.63 2.72 0 5.61-.15 8.61-.84 12.54-1.6 4.23-5.74 6.78-10.49 5.68h-6.58zM64.22 55.19c-1.8 3.58-5.87 7.11-9.8 6.42l-1.31.33-5.2a4.47 4.66h.04c.95 0 1.73-.03 2.09-.25 0-.63-.05-.88-.09-1.51-.32zm-5.08-16.95c-4.07 0-6.26-2.87-7.27-5.7-.17-.03-.31-.06.26-.14s-1.59-.15-2.03-.8c-1.03-.35-2.17-.95-3.07-1.75-5.31-1.81-11.12-6.49-12.74-9.47-.84-1.32-.52-2.74.36-3.71v3.09c0 1.7.98 2.44 2.45 4.06 1.89 1.28.66 3.72 1.01 5.79 1.08 2.02 1.27 3.28 2.26 4.14 1.76.36 1.77.32 3.18-.19 4.86-.91 5.71-1.78 7.83-4.37 1.25 2.28 3.11 5.67 2.98 8.71-.5 7.62-6.73 12.14-10.12 17.78z"/></svg>
