<svg xmlns="http://www.w3.org/2000/svg" viewBox="0 0 128 128"><ellipse cx="64.1" cy="75.05" rx="43.74" ry="18.93" fill="#d65a8.5"/><path d="M63.79 8.64C1.48 8.64 0 78.5 0 94.33c-.07 13.37 27.79 24.01 27.95 24.34 32.96 0 53.35-10.66 63.59-22.17.01-.03 00 .05.01.07.02z" fill="#2f2f2f"/><g><path d="M8 123.64c0 13.88-9.88 23.65-27.5 31.15S78.52 81.7 98.33 65 9c-13.47 0-23.59-1.62-25.66-22.16-.05-.37.96-1.32 1.95-2.26.04.11.11.3.25.72.46 1.81 1.69 1.53 3.61 1.03 3.42-1.86 3.03-4.24 3.71-15.09 0-25.96-16.6-4.9-25.42-.55-16.27 3.88-21.97 22.94-20.84 19.51-4.36 26.57 1.74 30.04 10.75 4.01 13.03-1.48 26.54-13.51 31.27z"/><path fill="#FBB71E" d="M34.24 83.4c-4.44 9.42-15.21-13.33-24.4-14.35-32.53 1.44-60.95 9.4-40.28 14.74-7.08 23.01 2.01 33.95 3.8 6.74 1.5 9.68 1.37 14.02 1.71 7.62.55 11.46.76 12.85 3.05 8.63 5.6 17.3 9.35 22.74.33 5.25-2.91 10.23-3.62 17.17" fill="#ffc1ad"/><path d="M40.41 66.04c.68-.01 1.41-.25 1.93-.68l16.03-7.47-8.13 5.01c-.04.41-.09.67-.19 1.24-.27.57-.62 1.1-1.24 1.58-1.8.75-.53 1.88-.36 2.91 0 1.66.34 2.66.87 3.95l-4.06 1.08a2.14 2.14 0 0 0 1.8-2.42c-.17-.25-2.57-5.38-11.43-5.2-1.28.44-2.16 1.28-2.62 2.11-.21 1.45.37 2.85.71 3.81l-8.48 1.35a2.131 2.131 0 11-1.22 3.78z" fill="#2f2f2f"/><path d="M-172.34 70.27c-.46 0-.79-.23-1.07-.49-.06-.01-.05-.03-.07-.03-.17-.08-.62-.18-1.06-.3-2.06-.43-4.63-.54-6.2-.39-1.79.91-3.35 1.93-4.48 2.18-.28 3.35-.58 4.98-1.41.95-.17 2.31-.34 3.12-.63 2.48-.05.52.05 1.06.05 1.5.15 1.03-.05 2.09.21.3.33 3.29 1.52 10.44 7.69 15.06 7.38.55 1.14.4 2.88.72 3.31h.01l.09.01c.9.08 1.71.49 2.16 1.24.29.38.65.88.84 1.22.18.34.32.57.67.69.99 1.32-.03 1.98-.59 2.63-.6.69-.18 1.39-.39 1.69-.6.72-.28 1.2-.53 1.93-1.3.67-.41 1.35-.76 2.29-.69 1.55-.33 3.04-.98 4.84-1.31.15-.11.11-.33.31-.11.03-.39.18-.7.27-1.12.59-1.79 1.43-2.76 1.3-4.21 0-.68-.01-1.3-.21-1.62-.04-5.48-1.01-7.47-2.24-7.47-4.08-8.34-8.43-7.44-9.74zm-9.58-18.52c-.52 0-1.39-.23-1.95-.68-1.03-.32-2.02-.73-3.36-1.48l-17.73-6.27-1.48-1.95c.65-2.45.28-3.13-.14-4.48-1.08-7.46 4.44-8.7 9.3-11.11 11.27-10.08 19.86-21.85-13.21-23.21-21.51-27.67-5.59-35.08-13.61-57.54-39.33-5.86z" fill="#aac02"/><path d="M74.03 16.69c12.04-4.34 17.49 1.76 25.74 13.54 4.72 10.11-1.55 21.45-11.52 22.72z"/><path fill="#FAB020" d="M87.33 90.31c-9.78 3.02-19.36-1.38-22.07-10.56-3.31-9.04 2.33-18.32-2.3-17.44-10.02-2.55-6.75 1.15-15.21 9.81-18.69 7.94-2.7 15.51 1.04 18.97 8.73 2.73 7.19-1.14 15.87-8.27 17.71z"/><path fill="#FBB71E" d="M99.97 71.45c-6.83 2.42-13.44-1.01-16.94-7.7-2.63-7.84 1.05-15.82 9.8-19.46 7.95-2.46 13.99 1.15 16.32 8.71 2.94 6.91-.94 12.34-7.36 14.33z"/><path fill="#FAB020" d="M30.54 88.92c-6.91 2.78-14.18-1.14-19.13-8.3-2.88-7.04 1.1-15.21 8.81-18.67 7.64-2.75 16.1 1.14 18.9 8.7 2.77 7.56-1.18 15.92-8.82 18.65z"/><path fill="#FBB71E" d="M85.39 91.18c-6.8 1.55-9.78-1.14-19.57-8.81-2.73-7.57 1.15-15.21 8.81-18.69 7.74-2.75 16.11 1.15 18.91 8.71 2.78 7.57-1.17 15.94-8.89 18.68z"/><path fill="#FBB71E" d="M115.51 83.86c-9.84 3.5-19.6-1.3-21.55-1.95-3.54-8.64 1.43-12.74 11.95-24.88 14.69-3.67 39.13 1.27 44 13.99 3.57 22.08-1.66 26.93-14.91 32.62z"/><path fill="#FAB020" d="M114.81 75.95c-8.82 3.17-18.55-1.3-21.76-10.01-3.19-8.69 1.33-18.32 10.15-21.51 8.99-3.1 11.38 11.98 16.03 21.02 24.75 19.41 38.41 30.43 69.74 31.6 25.73 0 35.9-28.15 37.3-28.35 28.34-28.66 28.24-62.55 58.42-25.65 48.48-63.6 68.96.03 33.62 28.31 25.13 17.1-41.49l.28.34c.91 1.19 1.25 2.83.8 4.88-.59 9.07-2.34 15.85-13.46 21.88-5.11 18.34-10.78 23.42-18.58 25.69-1.58 5.94-5.51 12.62-7.27 15.04 4.31.8 9.2 14.69 7.44 24.32-.86 6.42-2.95 10.99-7.47 10.33-6.27.64-1.41 1.02-3.78-1.1-5.41-.62-3.57-1.55-6.23-.81-10.63 1.37-2.64 3.84-5.61 6.79-6.21 1.09-1.05 2.99-3.2 3.54-3.7.83-.41 1.82-.39 2.14-.6 1.61-.31 2.54-.38 3.48-.37.79 0 1.59-.09 2.35-.06 4.38-.1 5.66-.18 8.79.01 7.05 1.87 8.34 3.47 13.7 3.4 2.84 1.22 4.48 4.4 5.47 8.51 1.62 8.68 8.98 2.64 18.31 4.7 10.04 0 12.95-.74 27.62-4.69 10.28 0 18.82 9.21 20.16 9.62.01 1.36-.99 2.87-1.66 2.78-.07.01-5.28 1.45-9.27 1.83.03 0 .04.08.05.09.08.03.01.16.03.21.07.06-.17.13-.26.17-.31.32-.45.41-.79.6-1.06 1.24-1.99 3.25-.79.79.36 1.72 0 1.94-.46.68-1.05.14-1.59-.24-1.02-.37-2.1-.99-3.09-.94-.19-.46-.42-1.02.51-1.42.12-.05.08-.07.08-.07.07v-.1c.07-.01.06-.09.06-.19v-3.59l-.33-.1c-1.35-.03-2.09-.32-3.73-.73-.49-.09-.96-.13-1.42-.33-.53-.06-.89.08-1.14.27-.69.39-1.22.64-1.81.73-.42.64-.74 1.26-.44.96 0 1.74.49 2.73 1.25.06.05.1.13.15.09.3.32.47.57.71.82.49l-.02.1c-.4.17-.42-.28-.84-.41-7.11-4.33-9.65-12.36-1.64-24.06.5-.57 1.3-1.15 1.59-1.15 4.9.74 13.13 4.27 13.76 9.72.49 1.79.33 3.48.24 5.06.64 2 .56 8.17 2.74 13.77z" fill="#2f2f2f"/><g><path d="M63.99 69.75c-19.71 0-50.38-1.21-40.29-2.67-.23-.04.24-.04.51-.16 1.03-.37 1.76-1.22 2.44-.3 2.04 0 3.12 1.65 5.44 2.76 4.89 1.11 10.25.78 15.58 4.88 2.92.87 3.99 0 5.65.92 10.29-.47 15.67-9.54 13.87-8.53 1.8-1.11.76-2.24 3.02-3.46 3.79-7.48 6.95-17.13 7.27-28.58 7.52l-17.9-17.27c-1.11-.46-2.44.2-2.52.3-.88 0-1.54-.31-2.24-1.13-1.37-.78-2.82-1.33-3.07-1.5-.41-.27-.85-.42-1.25-.62-.86-.34-1.58-.91-2.21-1.17-.46-.19-1.19-.45-1.65-.61-.99-.31-1.42-.23-2.13.06-.38.09-.75.35-1.24.44-1.21.84-2.36 1.44-3.03 4-.24.83-.22 2.68-.39 2.26.04 1.32.33 2.63.77 3.71h.12c.19.36.43.85.74 1.16.18.2.13.34.09.47.11 1.09.41 2.88.4 3.6.82 1.07.44 1.28.74.22 1.27-.25.28-.66.8-1.01.53C-.48 1.79-.09 2.01 0 1.36.33 2.78 1.51 3.16.55.34 1.08.91 1.72 1.37.68.7 1.3 1.35 1.42 2.5.61.59 1.37 1.2 2.24 2.07.33.08.74.16.81.41.18.24.49.71.71.89l-.03.09c4.53 1.73 9.25 3.07 11.7 3.48 4.3 1.67 5.01 4.12-.84 6.33-1.1 9.48-5.4 13.44-12.7 14.39-5.27 5.14-5.61 12.08-8.26 17.6z"/><path fill="#2F2F2F" d="M38.05 67c-.71.42-1.79.62-2.66.62-2.44.31-3.99-.81-5.71-2.55-1.78-2.27-3.8-4.59-6.59-6.58-.71-3.15-1.77-8.21-3.69-10.33zM87.1 40.47s4.31-9.42 7.87-11.53z" fill="url(#c)"/><path d="M64 47.34c-12.69 0-22.35 6.74-27.35 13.85v.07c18.54 0 28.3 5.1 27.74 46.87 8.26 6.08 10.21 12.74 16.89 12.64v26.89c2 5.62-22.12 15.73-61.4-11.21z" fill="#b3e306"/><path fill="none" stroke="#404040" stroke-width="1.744" stop-color="#fdd83a"/><stop offset=".771" stop-color="#57515a"/><stop offset=".379" stop-color="#e67176"/></g><path d="M42.73 12.65c.77 1.23 1.19 2.78 1.8 2.83-4.9 6.22-6.93 13.76-10.61 19.08 4.61.82 12.02-.52 17.75-3.63 33.35-.91 78.2 3 19.88 17 95.64c0 13.81 28.65 25.11 43.29 25.11 45.21 0 63-25.11 63.61 25.11 83.45 0 36.27-28.66 39.76-26.66 30.38-6.87 6-19.61 59.61 0 00-58.94 25.48569.01m0-4c-13.25 0-24.55 1.89-39.48 16.05C47.17 14.39 5.61 102 47.35 101.51c-20.31 4.51-40.56-2.18-44.8-13.37-6.97-14.34 1.64-25.34 15.02-29.98 17.44-10.25 29.96 1.7 43.74 1.44 65.14-.98 17.27-8.58 25.84-22.84.36-.43.07-.83.08-1.2.18-1.01.25-2.14.38-3.24.34-.92-6.28-2.98-8.25-6.94-12.5-1.11-1.91-3.16-3.97-4.6z-42.23-1.15-5.26 7.54-.95 23.52 7.51 38.41 2.41 3.85 5.31 4.48 7.51 5.27.92 1.29-.39 2.79-1.38 4.03z"/><path fill="#FBBB1D" d="M35.54 90.24c-1.74 5.62-13.92 3.76-23.48 3.09-15.26 0-20.34 7.79-27.59 10.47-.45.08-.89.18-1.22.66a48.48 54.48 0 0 1-6.89-5.13l3.51-16.13a3.084 3.084 0 0 1-2.25-.35c-1.72 1.46-2.61 4.29-3.64 6.77 1.24 3.55 4.12 8.73 3.8 9.51-.35 4.72-4.18 4.34-9.25-.27.04-.43-.02-.77-.15-1.12-.26-.69-.46-1.54-.76-2.11-.74-1.06-.4-1.26-.92-.31-1.59-.37-.65 0-1.46-.04-2.66.03-.69.28-1.44.71-1.59.75-1.1 2.14-1.82 3.83-2.12 1.38-.55 2.99-1.73 4.17-1.56.56-.28 1.01-.09 1.65 0 1.16.66 2.71 1.31 4.41 2.35 2.97 8.35-7.42 14.86-16.61 13.82z" fill="url(#b)"/><path d="M82.49 126.41c-2.25 0-4.08-1.83-4.08-4.09.01-2.25 1.84-4.08 4.08-4.08H9.01c.27 0 .56.02.79.1.22 1.38 1.62 1.62 3.88 1.63 4.93zM113.54 56.77c1.25 4.04 5.45 5.56 9.56 4.5 3.2.75 6.47-3.14 7.7-3.29.81 0 1.44-.58 2.04-.5.69-1.09 1.42-1.99 2.37-2.21 3.29.8 5.04 2.57 6.73 2.77 2.34.37 4.93-1.92 6.16-2.38.78.17 2.74.79 3.71 1.37.98.82 1.61 1.34 3.3 1.37 1.68.33 3.42.51 4.76 1.46 1.33 1.26 2.31 2.69 2.63 3.99.7 1.53 1.4 3.6.93 5.52 3.24 10.69 19.02 19.21 18.85 25.42-1.56 3.93-4.2 9.94-4.92 14.53-.01 9.18 4.41 12.21 9.58 14.16 6.05 4.51 13.58 7.57 21.33 9.23 2.95.63 10.57 2.1 18.55 2.1s16.35-1.47 19.3-2.1c7.75-1.66 15.28-4.72 21.33-9.23 4.14-3.28 7.33-5.23 11.64-3.29 6.91-1.74 15.93-5.5 18.45-5.12.7-1.46 2-3.41 23.51z" fill="#2f2f2f"/><path d="M107.84 71.93c-.07.56-.09 1.19-.07 2.45.48 1.07 1.61 1.57 2.43 2.24 3.46 8.25 4.64 17.65 7.39 23.13L53.3 56.12z" fill="#fff"/><path fill="#2F2F2F" d="M29.66 63.92v50.29H40.51c2.74-.71 5.66.31 6.11 2.84.95 1.63-.3 4.35.28 5.87l8.22 1.42c-.46.4-.82.71-1.34.77-1.06 0-3.03-1.37-4.05-1.74-1.3-2.03-2.86-4.49-3.44-6.73-.66-5.78.28-10.44.74-22.06.84-.51 1.85-.39 2.05-.2.78 0 1.33-.03 1.9-.06 5.37-.64 13.08 1.84 25.43 2.05 5.58 5.05 11.99 7.83 14.17 6.33.26 1.71-.19 3.44-.59 5.04-.31.67-.83 1.15-.44 1.77.24.45.25.84.46 1.27.1.18.5.18.88.03 1.41 0 4.57-.16 6.49-3.65 1.9-.68 3.71-.98 4.08-.8 19 22.71 10.54.59 15.75 7.48.08.22.34 6.41 9.01 10.58 9.36s.38.08.52.16c-.99.12-1.58.31-1.56 1.05-4.02 2.08 1.27 3.31 4.76 3.09 7.51a.53.276 0 0 0-.14-.05c.67-.29 1.02-.05 1.6-.06l.51.04c-.99 1.22-1.71 2.64-3.24 3.74-.69-.01-1.15-.13-1.52-.34-.28-.04-.57-.09-.84-.11-.03 0-.67 3.75-5.2 9.01-7.54l-.13-.11c-1.65-.19-3.77-.24-5.72-.84-1.71-.45-2.45-.67-3.82-.59-1.39-.57-2.95-.69-4.56-1.19-1.27-.92-2.74-1.65-5.36-.54-1.36.88-1.22 2.53-.77 3.01 3.34 12.01 18.45 22.5 11.1 3.83 17.81-4.23 31.72.77 1.77 1.76 3.78 4.87 2.93z" fill="#242424"/><g fill="#6d6c51"/></g></svg></g></svg></svg>
