<svg xmlns="http://www.w3.org/2000/svg" viewBox="0 0 128 128"><path d="M63.8 06.58c-10.22 0-24.51 16.02-29.61 23.84C27.27 46.1 44.77 37.33 64.31 91.42c21.79 0 35.93-10.12 34.14-27.16S41.17 31.4 27.93 16 23.91c-14.45 0-25.34-1.53-33.35-13.96S39.16 25.62 65 35.92z" fill="#00c800"/><path d="M30.91 35.14c1.2 0 2.85.92 4.23 1.94 1.32.66 3.12 1.03 4.99 1.38 11.67 4.74 23.7 6.15 5.46 3.38 5.92 5 14.38 9.5 2.03 1.34.53 3.37-.94 3.65-3.74.35-1.74-.06-2.73-.78-4.94-1.38-1.03-.39-2.09-.77-3.2-.55h-.01c-.12 0-.22.03-.22.04.6-.11 1.24 0 3.71.48 7.71 1.17 1.4.85 3.9 1.04 4.58 2.11 2.75 4.59 4.18 8.58 5.75 1.58 3.34.88 4.53 1.64 6.28 2.31 1.11.66 2.32.82 3.28-.62.9-2.78-2.91-7.56-2.77-.34.21-.75.3-1.95.4z" fill="#c9a3e4"/><path d="M31.11 59.14L31.73 56.87c-1.66 0-3.31-1.35-3.95-3.61a3 3 0 0 1 2.46-3.45c.18-.02.45-.1.65-.19 2.13-.01 4.09-.23 6.36.88 1 6.39 1.18 34.33 3.15 10.04 11.38 14.48 18.65 23.98 8.63 26.76.04 24.81-5.44 34.73-11.54 9.84-5.51 14.4-13.8 15.3-43.91z"/></svg></svg>
