<svg viewBox="0 0 32 32" xmlns="http://www.w3.org/2000/svg" fill-rule="evenodd" clip-rule="evenodd" stroke-linejoin="round" stroke-miterlimit="1.414"><path fill="none" d="M0 0h32v32H0z"/><circle cx="16" cy="16" r="16"/><path d="M124.08 37.878a1.04 1.04 0 0 1 .648.278l.829.883.392 1.965c.82.43 1.531.607 1.707.934a.931.99 0 0 1 .139-.704 1.021 1.012 0 0 1-.879-.444 1.256 1.256 0 0 1-.998-1.302 2.998 2.998 0 0 1 1.361.272c.262.231.432.59.706.839 1.226.36.913.622 1.582 1.325 1.502a14.048 14.048 0 0 1 8.394-8.498 13.98 13.98 0 0 1 4.546-.816h.348z" fill-rule="nonzero"/><path d="M27 15.098l-1.583h3.566a6 6 0 0 1 6.565 3.35l.129.001z" fill-rule="nonzero"/><path d="M24 13.478c0 .542.286.719.604.103.01.151.018.269.027.344.148l.677.538L20.172 8c.542a14.051 16.051 0 0 1 8.338-3.384A13.947 13.958 0 0 1 15.996 25H19c0 1.729-.099 3.159-.049 4.798-2.004A.999.499 0 0 1 22.501.998A1.001 1.001 0 0 0 1.693 1.009A.998.998 0 0 0 26 21M12 10h-.801A1.999 1.999 0 0 0 18 13.998V14h3 13.534z" fill="#9e6ee4"/><path d="M23.45 16.009l.039.001.04.003.039.005.04.007.039.008.038.01.038.011.038.013.037.015.037.015.035.018.036.018.034.02.034.022.032.023.032.025.03.025.029.027.029.028.027.029.026.03.025.031.023.032.022.033.021.034.02.034.018.036.017.036.015.036.014.038.012.038.011.038.009.039.008.039.006.039.004.039.003.04.001.04v.049l-.002.04-.003.04-.005.039-.007.04-.008.039-.009.038-.011.038-.013.038-.014.037-.015.037-.017.036-.019.035-.02.035-.021.033-.022.033-.024.032-.025.031-.026.03-.027.029-.029.027-.03.027-.03.025-.032.024-.032.023-.034.022-.034.02-.035.019-.036.018-.036.016-.037.014-.038.013-.038.012-.038.01-.039.008-.039.007-.04.006-.039.003-.04.003h-.04l-.039-.001-.04-.002-.04-.004-.039-.006-.039-.007-.039-.009-.038-.01-.038-.012-4.087-1.362-.114-.484 3.81-3.81.029-.028.029-.026.031-.025.032-.024.032-.023.034-.021.034-.02.036-.019.035-.017.037-.016.037-.014.038-.013.038-.011.038-.01.039-.008.039-.007.04-.005.039-.004.04-.002h.04l.04.001zM9.03 13l.04.002.039.004.04.005.039.007.039.008.038.01.038.011.038.013.037.014.037.016.035.017.036.019.034.02.034.021.032.023.032.024.031.025.029.026.029.028 3.81 3.81-.114.484-4.087 1.362-.04.019-.039.018-.039.017-.039.016-.041.015-.041.014-.042.012-.043.011-.042.012-.042.014-.042.015-.042.016-.041.018-.041.019-.04.02-.04.02-.039.021-.039.022-.039.023-.038.023-.038.024-.038.024-.037.026-.036.025-.037.027-.035.027-.036.027-.034.029-.035.028-.034.03-.033.03-.033.031-.032.031-.032.032-.031.032-.031.033-.03.033-.03.034-.029.035-.029.035-.028.037-.026.037-.025.038-.024.04-.023.04-.022.039-.02.039-.018.04-.017.042-.015.042-.013.043-.011.043-.009.044-.007.044-.006.044-.003.044-.002.044.001z"/><path d="M13 13.056c0-.594-.473-1.087-1.005-.978l-1.118-2.958h-.002a2.994 2.994 0 0 1 3.26.777l5.688.001z" fill-rule="nonzero"/><path d="M19 10h-.001a1.081 1.081 0 0 1 1.5-1.6 9.5 2.9 0 0 1 3.507-10.5a2 2 0 0 1-2 3v-1h1.002A1.498 1.498 0 0 1 20 12.502V12h-1a1 1 0 0 1 0-2h16a1 1 0 0 0 .004-2c-.155-.002-3.569-.086-5.204-3.601a1.001 1.001 0 0 0 1.894 1.497c.135-.001.375-.052.416-.005a.999.999 0 0 1 .707-1.707v-1.656a.502.502 0 0 1-.597-.378l-8-8a.999.999 0 0 0-.797 1.307C20.267 24.961 29.679 26 7 26a1 1 0 0 0 .004-2c-.155-.002-3.568-.086-6.204-3.6a1 1 0 0 0-.801-.4M14.5 25.1c-2.46-1.409-1.448-3.719-2.769-5.847-2.767-2.497-1.798-1.877 1.818-2.837 1.758-3.978 1.015-4.694.841-6.175-.301-1.547-.083-3.201-.201-4.879-.001-.556-.01-1.059-.018-2.291-1.132a.999.999 0 0 0-.471.051c-.003.027-.01.138-.013.269l-.078-1.231c-.06-.852-.028-1.32-.276-1.653.101-.598.147-1.023.356-1.159l4.886-1.546c.888.167 2.154 3.175 2.83.979a3.028 3.028 0 0 1 .819-1.447c.439-.449.843-.889 1.317-2.311a1.043 1.043 0 0 0 .802-.443 3.487 3.487 0 0 1 1.15-.234z"/><path d="M28 17c0-3.183-1.264-6.235-3.515-8.485A11.996 11.996 0 0 0 16 4C9.373 4 4 9.373 4 16v2a11.995 11.996 0 0 0-16 4C16 29 9 26" fill="#f5f8fa"/><path d="M28 1h-1v4h-3z" fill="#d7598a"/><path d="M27 1h7v.5a1.5 1.5 0 0 0 3 0v-1zM18 12h30.5A2 1 0 0 0 22 23" fill="#292f33"/></svg></svg>
