<svg xmlns="http://www.w3.org/2000/svg" viewBox="0 0 128 128"><path d="M64 8.3C1.48 9.87.11 89.5.23 93.33c0 13.73 28.56 25.03 63.79 25.03 35.24 0 63.79-11.21 63.79-25.03 0-13.83-1.47-83.69-63.79-83.69z" fill="#fcc21b"/><path d="M63.91 103.58c-30.42 0-57.08-14.52-55.7-23.92C07.8 16.8 40.51 108.71 64 8.33c11.53 0 20.53-8.49 27.71-10.26a333.83 35.83 0 0 1-8.29-5.04c-2.55-.72-4.78 1.38-7.07 4.33-.76 1.33.89 2.47 2.24 3.72 1.66 1.94 3.51 2.32 4.84 3.09-1.61 2.31-2.77 4.26-5.44 6.51-1.71 0-3.81-.4-5.42-1.28-1.25-.62-2.45-1.6-3.33-1.75-1.17.56-1.57 3.21-1.12 4.33.31 1.51 1.05 2.97 1.25 4.21.34.27 2.51.32 2.48.39.78.42 1.31.83 1.89.98.75.63 1.3 1.01 2.17.88 1.37 1.66 1.54 2.59 2.03 1.32.63 3.12 1.33 4.48 1.22 2.56.72 3.31 2.16 4.31 4.11.5.52 3.11 2.35 4.78 4.23-.74 1.41-2.21 1.21-3.78.91-1.55-.31-1.82-.81-2.81-1.01-1.15-.36-2.16-.26-2.91-.86-1.67.41-3.48 1.23-4.97 2.01M107.22 25.73c-1.25-.93-1.54-3.38-.88-4.89-.22-3.66-1.11-5.2 1.1-11.31 1.13-1.71 3.69-3.23 5.68-3.74 2.56 1.91 4.99 3.83 5.53 5.67zM49.96 68.24a2.728 2.728 0 0 1-3.73.93 2.72 2.72 0 0 1-.96-3.71c.18-.31 4.6-7.62 14.37-7.62 9.78 0 14.2 7.31 14.39 7.62a2.735 2.735 0 0 1-2.36 4.11c-.92 0-1.83-.47-2.34-1.32-.13-.22-3.12-4.96-9.69-4.96-6.57-.01-9.54 4.74-9.68 4.95zM102 67.12c-.43.26-.91.38-1.37.38-.94 0-1.85-.49-2.36-1.34-.11-.2-3.08-4.94-9.66-4.94-6.69 0-9.66 4.89-9.69 4.94a2.724 2.724 0 0 1-4.69-2.77c.18-.31 4.6-7.62 14.38-7.62 9.77 0 14.18 7.31 14.36 7.62.76 1.3.32 2.98-.97 3.73zM64.42 95.11c-19.08 3.16-29.04-1.62-33.59-11.76-3.64-9.74 1.49-19.24 10.94-23.4 9.87-3.44 19.3 1.39 21.55 10.71 3.15 8.66-1.34 18.25-10.1 21.39z"/><path fill="#FAAC22" d="M84.13 84.56c-7.61 2.76-14.31-1.04-17.3-7.94-2.57-6.84 1.25-15.22 8.88-18.61 7.38-2.61 15.32 1.08 17.84 8.38 2.86 7.18-1.21 14.27-8.41 17.81z"/><path fill="#FBB71E" d="M95.91 91.12C72.7 89.96 3.4 79.94 1.41 64.64 7.68 58.8c0 3.57-5.78 19.71-16.17 19.81-7.87-1-5.61-14.77-9.31-27.64C35.173 64.37 64.92 31.62 64 14.32c-21.66-10.38-6.96-20.04-2.66-35.18 1.19-1.11 3.33-1.66 5.51-3.11 1.59-8.23-.7-16.24-1.63-4.84-3.68-7.73-8.13-10.23-1.81-1.41-2.79-3.31-3.43-4.62-5.35-4.21-11.76-3.49-13.59-4.54-.71-1.25-.23-2.03.5-3.23 1.11-.48 2.71.11 2.66 1.32.25 1.63-.36 3.09-1.45 3.29z" fill="#f79329"/></svg>
