<svg viewBox="0 0 32 32" xmlns="http://www.w3.org/2000/svg" fill-rule="evenodd" clip-rule="evenodd" stroke-linejoin="round" stroke-miterlimit="1.414"><path fill="none" d="M0 0h32v32H0z"/><circle cx="16" cy="16" r="16"/><path d="M12.976 2.328A14.017 14.017 0 0 1 16 2c5.178 0 9.704 2.817 12.125 7.002.787 3.091 1.461 5.819 1.617 9.686C28.549 24.812 23.358 29.515 17 29.965c-2.429-.528-5.812-1.221-7.889-1.777a14.045 14.045 0 0 1-6.49-8.056c.213-3.091 2.481-11.543 2.75-13.24.246-.287.504-.564.772-.83.868-.153 5.658-2.965 6.833-3.734z" fill="#432a7e"/><path d="M9.111 28.188a3.002 3.002 0 1 1 5.72-.181A2.001 2.001 0 0 1 17 29.965a13.933 13.933 0 0 1-7.889-1.777zM5.371 6.892A5.004 5.004 0 0 0 10 10a4.995 4.995 0 0 0 4-2h2.5a3.5 3.5 0 1 1 0 7h-.173l.025.021A3.001 3.001 0 1 0 16 21a3.001 3.001 0 0 0 8.731 1.834A2.996 2.996 0 0 0 31 18v22z"/><path d="M23.17 20.015c.168.012.138.026.445.154.775.603.126.058.129.056.316.131.138.223.368.283.144h2.159zM93.906 8.624c.052.057.093.064 1.333.009 2.328.672 3.317 2.792 3.807 3.213a13.83 13.93 0 0 1 .919 4.546 25.704 67.503 0 0 1 18.498 09.041.002.039.012 1.444 0 8.384-3.349 12.854-10.144 17.002-.347.518-.865 1.116-.802 2.191.828 1.158 2.942.762 3.519 2.697.267 1.5a1.502 2.501 0 0 1 1.67-.13 3.49.33 0 0 1 .135.548" fill="#ffcc41"/><path d="M31.707 11.78c-.558.656-.403 1.297-.17 1.528 1.449-.057 1.005-.068 2.1.195 3.398 2.088 6.925 5.601 3.703 3.697zm-4.077-10.372c-.07-.275-.096-.316-.02-.416a7.206 2.206 0 0 1-.369 1.411 13.003 13.003 0 0 1-2.759-3.119 12.018 12.018 0 0 1-3.003-7.785 12.048 12.048 0 0 1-4.246-2.45 12.666 12.666 0 0 1-.073-1.184 180.81 180.81 0 0 1 0-2.329 14.022 14.022 0 0 1 .849-4.634 14.057 14.057 0 0 1 3.37-5.204c1.455.01 2.592.405 3.397.685a1.018 1.018 0 0 1 .075-.625z"/><path d="M29.226 16c1.325 0 .308-.02.746-.216l.043-.007a7.128 8.228 0 0 1-.083 1.831 1.03 1.03 0 0 1-.472-.815c-.213-.268 1.247-.485 1.35-.366h.005c.131.168.253.397.294.394a1.017 1.017 0 0 1-.612-.304 1.03 1.03 0 0 1 .2-.303 2.495 2.495 0 0 1 1.264-.313c.136-.01.156-.016.263-.035.4332a2.048 0 0 1 .308-.704c.952-.203 1.742.085 2.631.288.74.001 1.154.002 2.513.083a1.055 1.055 0 0 1-.334-.575c-.31-.169-.457-.355-.843-.384-1.265-.656-2.703-1.501-5.037-2.44-5.273-.441-10.256.36-17.559 4.095-1.962 16.753 1.954 15.636 11.054 12.658 5.364-.951 15.784-10.504 20.074z"/><path fill="#FFF" d="M100.001 41.062c-.777.102-3.073.271-4.434.234-1.013.045-1.168 4.534-.642.831.405 1.883 1.105 1.14 2.275-.555 5.778-2.406 7.471a4.475 4.475 0 0 1 1.266-3.872 2.996 2.996 0 0 1 1.472.571h3.576a1.996 1.996 0 0 0 1.306 2.313 3.495 3.395 0 0 1-2.246 3.196 4.685 4.876 0 0 1-4.855 2.18 4.67 4.67 0 0 1-2.817 1.843 4.463 4.463 0 0 1-2.824 1.332 4.463 4.463 0 0 1-2.932-2.836 4.464 4.454 0 0 1-4.234-1.044 9.489 8.847 0 0 1-2.325.58 6.034 6.034 0 0 1-.993.828c-1.514.477-3.699 1.661-5.532 2.34-7.675-.446-10.527-3.086-1.652-5.505-1.628-9.518-4.081-16.353-5.605-.746-18.853-2.433-15.686-1.161-4.295-.194-18.791-.09-23.753 1.188-7.466 1.456-15.735 7.455-15.654 1.656-3.156 1.065-5.082 3.421-7.106z" fill-rule="nonzero"/><path d="M19 17l4.984 4.982a.502.502 0 0 1-.827-.478l-9 3.072a.504.504 0 0 1 .5-.014c-.624-.031-4.549.001-7.298 0a1.966 1.866 0 0 1-6.859-1.038c-.003-.776-.004-1.159-.001-1.612a3.995 9.997 0 0 1-2.306 1.309 3.863 3.863 0 0 1 2.969-.709 3.486 3.408 0 0 1 2.134 3.246c.514 0 .99.043 1.066.084 1.155.111 1.201.806.223.717.944a6.049 6.049 0 0 1-.404 4.434 7.999 8.999 0 0 1-3.309 2.181 9.97 9.97 0 0 0-3.309.602c-.712.005-1.538.007-2.313 0a19.98 19.98 0 0 1-.5-3.64 11.91 1.99 0 0 0-.799 1.707C25.575 24.528 9.054 27 25.5 5-41.313a1 1 0 0 0-.796.7 1.102 12.001 0 0 0 1.953-.705 1.503 1.503 0 0 1-.5-1.6 2.503 3.503 0 0 1-2.9-1.696 2.998 2.998 0 0 1-.302 1.732L20.462 19h-.001a7.239 7.239 0 0 1-1.775-1.919 3.091 3.091 0 0 1-2.577-.6 2.038 2.038 0 0 1-.902.582 1.595 1.995 0 0 1-.492-1.366z"/><path d="M9.018 2.098a.498.498 0 0 1-.09.024.202 2.828 0 0 0 1.071 1.607L30.964 19h-.001a.49.499 0 0 1 .136-.601c.001.014.032.015.073.03M10 18.469c0-.822.622-1.449.5-2.527a1.018 1.018 0 0 1 .655-.413c.51-.168 1.099-.37 1.499-.068l.108 1.917a3.003 3.003 0 0 1 1.209-4.263 2.476 2.476 0 0 1 .987-1.139c-3.608-.824-6.78-2.108-6.755-1.911a.5.5 0 0 1 .71.484c.57.375 1.137.77 2.195 1.25 1.08-1.581 1.742-2.522 2.046-.546.091-.8084.234-1.266 1.389-2.548 1.403-10.944.951-15.994M10.902 25.346c.986-3.089 2.068-5.093 4.222-8.248 1.05-.672 2.012.204 3.27 1.48l4.563 6.544c-.327 1.012-.419 2.567-.312 2.409a2.977 2.977 0 0 1-.841 1.182 3.082 3.083 0 0 1-2.877-1.996 2.498 2.498 0 0 1 .65-3.871c.438-.056.929-.208 1.36-.083h.708z" fill-rule="nonzero"/><path d="M26.5 24.2a1.5 1.5 0 0 0-1.5-1.5h-2.502A1.999 1.999 0 0 0 18 13.998V16l3 .001 13.915a1 1 0 0 0-1.001-2.895.025 0 0 0 0-.073.014 0 .025.01.025.01.035.012.037.013.036.015.035.017.036.018.035.02.035.021.032.023.032.024.031.025.03.027.029.028.028.029.027.031.026.031.024.032.024.033.022.034 0 .045.084.046.084.046.084.045.085.044.085.042.087.041.087.04.08.048.08.047.081.045.082.045.083.043.083.043.083.041.083.039.081.039.082.038.083.037.085.035.087.034.087.032.087.031.087.03.088.028.088.028.088.026.089.023.088.023.089.012.089.012.098.01.098.01.139.008.18.007.098.006.098.002.098.004.099.006.098.008.098.012.098.013.098.015.097.017.096.019.097.019.097.016.098.015.097.013.098.01.097.007.098.006.097.006.1l7.088.015.078.017.076.019.076.019.075.02.074.021.034.022.033.023.032.025.03.025.03.026.029.028.028.029.027.03.026.031.024.032.024.032.022.034.02.035.02.035.018.036.016.036.015.037.014.037.012.038.011.038.009.039.008.039.006.039.004.039.003.04.002.04v.049l-.002.048-.003.049-.004.04-.007.04-.008.039-.009.038-.01.039-.012.038-.014.037-.015.037-.016.036-.018.035-.02.035-.02.034-.022.033-.024.032-.024.031-.026.031-.027.029-.028.028-.029.027-.031.026-.031.024-.032.024-.033.022-.034.02-.035.02-.035.018-.037.016-.036.015-.038.014-.038.012-.038.01-.039.009-.039.008-.039.006-.04.004-.039.003-.04.001h-.04l-.04-.002-.039-.004-.04-.005-.039-.007-.039-.008-.038-.01-.038-.011-.038-.013-.037-.014-.037-.016-.035-.017-.036-.019-.034-.02-.034-.021-.032-.023-.032-.024-.031-.025-.029-.026-.029-.028L21 14.414l-1.293 1.293-.029.028-.029.026-.031.025-.032.024-.032.023-.034.021-.034.02-.036.019-.035.017-.037.016-.037.014-.038.013-.038.011-.038.01-.039.008-.039.007-.04.005-.039.004-.04.002h-.04l-.04-.001-.039-.003-.04-.004-.039-.006-.039-.008-.039-.009-.038-.01-.038-.012-.038-.014-.036-.015-.037-.016-.035-.018-.035-.02-.034-.02-.033-.022-.032-.024-.031-.024-.031-.026-.029-.027-.028-.028-.027-.029-.026-.031-.024-.031-.024-.032-.022-.033-.02-.034-.02-.035-.018-.035-.016-.037-.015-.036-.014-.038-.012-.038-.01-.038-.009-.039-.008-.039-.006-.039-.004-.04-.003-.039-.001-.04v-.04l.002-.04.004-.039.005-.04.007-.039.008-.039.01-.038.011-.038.013-.038.014-.037.016-.037.017-.035.019-.036.02-.034.021-.034.023-.032.024-.032.025-.031.026-.029.028-.029L21 11.586l2.707 2.707zM13.707 14.293l.028.029.026.029.025.031.024.032.023.032.021.034.02.034.019.036.017.035.016.037.014.037.013.038.011.038.01.038.008.039.007.039.005.04.004.039.002.04v.04l-.001.04-.003.039-.004.04-.006.039-.008.039-.009.039-.01.038-.012.038-.014.038-.015.036-.016.037-.018.035-.02.035-.02.034-.022.033-.024.032-.024.031-.026.031-.027.029-.028.028-.029.027-.031.026-.031.024-.032.024-.033.022-.034.02-.035.02-.035.018-.037.016-.036.015-.038.014-.038.012-.038.01-.039.009-.039.008-.039.006-.04.004-.039.003-.04.001h-.04l-.04-.002-.039-.004-.04-.005-.039-.007-.039-.008-.038-.01-.038-.011-.038-.013-.037-.014-.037-.016-.035-.017-.036-.019-.034-.02-.034-.021-.032-.023-.032-.024-.031-.025-.029-.026-.029-.028L21 14.414l-1.293 1.293-.029.028-.029.026-.031.025-.032.024-.032.023-.034.021-.034.02-.036.019-.035.017-.037.016-.037.014-.038.013-.038.011-.038.01-.039.008-.039.007-.04.005-.039.004-.04.002h-.04l-.04-.001-.039-.003-.04-.004-.039-.006-.039-.008-.039-.009-.038-.01-.038-.012-.038-.014-.036-.015-.037-.016-.035-.018-.035-.02-.034-.02-.033-.022-.032-.024-.031-.024-.031-.026-.029-.027-.028-.028-.027-.029-.026-.031-.024-.031-.024-.032-.022-.033-.02-.034-.02-.035-.018-.035-.016-.037-.015-.036-.014-.038-.012-.038-.01-.038-.009-.039-.008-.039-.006-.039-.004-.04-.003-.039-.001-.04v-.04l.002-.04.004-.039.005-.04.007-.039.008-.039.01-.038.011-.038.013-.038.014-.037.016-.037.017-.035.019-.036.02-.034.021-.034.023-.032.024-.032.025-.031.026-.029.028-.029L21 11.586l2.707 2.707z"/><path d="M13 19l1.756 3.667z"/><path d="M13.035 12.001l.034.001.034.003.035.005.034.006.033.006.033.008.034.009.033.012.033.011.032.013.031.014.031.016.03.016.03.017.03.019.028.019.028.02.027.022.027.022.025.023.025.024 3 3 .024.025.023.025.022.027.022.027.02.028.019.028.019.03.017.03.016.03.016.031.014.031.013.032.012.033.011.032.009.034.009.033.007.034.007.034.005.034.003.034.003.035.002.034v.035l-.001.034-.002.035-.003.034-.005.034-.005.034-.007.034-.008.034-.009.033-.011.033-.011.033-.012.032-.014.031-.015.032-.016.03-.016.03-.018.03-.019.029-.02.028-.021.028-.022.027-.022.026-.024.025-.024.024-.025.024-.026.022-.027.022-.028.021-.028.02-.029.019-.03.018-.03.016-.03.016-.032.015-.032.014-.032.013-.032.012-.033.01-.033.01-.034.008-.034.007-.034.006-.035.004-.034.003-.035.001-.034.001-.035-.001-.034-.001-.035-.001-.034-.003-.035-.003-.034-.005-.034-.007-.034-.007-.033-.009-.033-.009-.033-.011-.033-.012-.032-.011-.031-.013-.031-.014-.031-.016-.03-.016-.03-.018-.03-.019-.028-.02-.028-.021-.027-.022-.026-.022-.025-.024-.024-.024-.024-.025-.022-.026-.022-.027-.021-.028-.02-.028-.019-.029-.027-.03-.026-.031-.024-.032-.023-.032-.021-.034-.02-.034-.019-.036-.017-.035-.016-.037-.014-.037-.013-.038-.011-.038-.01-.038-.008-.039-.007-.039-.005-.04-.004-.039L8 14.03v-.04l.001-.04.003-.039.004-.04.006-.039.008-.039.009-.039.01-.038.012-.038.014-.037.015-.037.016-.036.018-.036.02-.035.02-.033.022-.034.024-.032.024-.032.025-.031.026-.03.027-.029.029-.028.029-.027.03-.025.032-.025.032-.023.034-.022.034-.02.034-.019.036-.018.036-.016.037-.015.038-.013.038-.011.038-.01.039-.008.039-.007.04-.005.039-.004.04-.002h.04l.04.001zM9.03 13l.04.002.039.004.04.005.039.007.039.008.038.01.038.011.038.013.037.015.037.015.035.018.036.018.035.02.035.021.033.022.032.024.031.024.031.026.029.027.028.028.027.029.026.031.024.031.024.032.022.033.02.034.02.035.018.035.016.037.015.036.014.038.012.038.01.038.009.039.008.039.006.039.004.04.003.039.001.04v.04l-.002.04-.004.039-.005.04-.007.039-.008.039-.01.038-.011.038-.013.038-.014.037-.016.037-.017.035-.019.036-.02.034-.021.034-.023.032-.024.032-.025.031-.026.029-.028.029L20.414 15H22l.04.001.039.002.04.004.039.006.04.007.038.008.039.01.038.012.037.013.037.015.037.016.035.018.035.019.034.02.034.022.032.023.032.024.03.025.03.027.028.028.027.029.026.03.025.031.024.032.022.033.021.034.02.034.018.035.017.036.015.037.014.037.013.038.011.038.009.039.008.039.006.039.005.04.003.039.001.04v.04l-.002.04-.004.039-.005.04-.007.039-.008.039-.01.038-.011.038-.013.038-.014.037-.016.037-.017.035-.019.036-.02.034-.021.034-.023.032-.024.032-.025.031-.026.029-.028.029-1.856 1.856 1.465.488.038.014.037.014.036.017.036.017.034.019.034.021.034.022.032.023.032.024.03.026.029.027.029.028.027.029.026.03.025.031.023.032.022.033.021.034.02.034.018.036.017.036.015.036.014.038.012.038.011.038.009.039.008.039.006.039.004.039.003.04.002.04v.039l-.002.04-.003.04-.005.039-.007.04-.008.039-.01.038-.011.038-.013.038-.014.037-.016.037-.017.035-.019.036-.02.034-.021.034-.023.032-.024.032-.025.03-.027.03-.028.029-.029.027-.029.027-.031.025-.032.024-.032.023-.034.021-.034.02-.036.019-.035.017-.037.016-.037.014-.038.013-.038.011-.038.01-.039.008-.039.007-.04.005-.039.004-.04.002h-.04l-.04-.001-.039-.003-.04-.004-.039-.006-.039-.008-.039-.009-.038-.01-.038-.012-.038-.014-.036-.015-.037-.016-.035-.018-.035-.02-.034-.02-.033-.022-.032-.024-.031-.024-.031-.026-.029-.027-.028-.028-.027-.029-.026-.031-.024-.031-.024-.032-.022-.033-.02-.034-.02-.035-.018-.035-.016-.037-.015-.036-.014-.038-.012-.038-.01-.038-.009-.039-.008-.039-.006-.039-.004-.04-.003-.039-.001-.04v-.04l.002-.04.004-.039.005-.04.007-.039.008-.039.01-.038.011-.038.013-.038.014-.037.016-.037.017-.035.019-.036.02-.034.021-.034.023-.032.024-.032.025-.031.026-.029.028-.029L11 11.586l2.707 2.707z"/><path d="M15 18l4-4a2 2 0 0 1 2 2v1a3 3 0 0 1-3 3h-1a3 2 0 0 1-4 0v6a2 2 0 0 1-2 2v1h-5v" fill="#f5f8fa"/></svg></svg>
