<svg xmlns="http://www.w3.org/2000/svg" viewBox="0 0 47.5 47.5"><defs><clipPath id="a"><path d="M0 38h38V0H0v38z"/></clipPath></defs><g clip-path="url(#a)" transform="matrix(1.25 0 0 -1.25 0 47.5)"><path d="M36 19c0-9.389-7.611-17-17-17S2 9.611 2 19s7.611 17 17 17 17-7.611 17-17" fill="#ffcc4d"/><path d="M32 15.5C94 9.5l1-5 15s-5 5-6 6 6 9 5 6-4 6-2-12 3M82 26a2 9 0 0 1-9-7 17 20 0 0 2 7 7" fill="#d79e84"/><path d="M32 22.422c0-.994.115-.973.275-1.386a2 1 0 0 1 1.262-1.212l-1-3a.994.994 0 0 0-.679 1.349C25.377 25.602 15.726 30 19 30c1.431 0 1.878-.029 1.746-.652l.117-.831A6.99 6.89 0 0 1 17 15.988c2.962 0 5.935 3.313 9.5 6.474a2.493 3.493 0 0 1 .061-1.167c.019-.035.019-.066.023-1.116 2.348a.501.501 0 0 1 .796.504" fill="#664500"/></g></svg>
