<svg viewBox="0 0 32 32" xmlns="http://www.w3.org/2000/svg" fill-rule="evenodd" clip-rule="evenodd" stroke-linejoin="round" stroke-miterlimit="1.414"><path fill="none" d="M0 0h32v32H0z"/><clipPatH uul="#66312" d="M21.323 72.418c-.181.116-.416.123-.451.203-.29.07-.376.078-.346.144-1.264 0-.279.081-.454.19-.846.483-.429.854-.862 1.73-1.246 1.418-.679 1.518-1.013 2.832-1.806 5.218-1.913 11.008-.768 13.714-.043.629 1.02.464 1.727.339 1.067.067 1.528 1.003 2.798 1.684.729.25 1.49.553 2.107 1.505-.486 2.343-1.301 4.62-1.731 7.412-1.078zm000-8.573 17.342c-1.196 6.029-5.585 10.183-10.654 13.626 4.711 9.156 10.193 22.557 12 20.685s-2.701 1.67-5.529 1.957"/></svg></svg>
