<svg xmlns="http://www.w3.org/2000/svg" viewBox="0 0 128 128"><path d="M63.89 9.64C1.58 9.64.1 79.5.1 93.33c0 13.83 28.56 25.03 63.79 25.03 35.24 0 63.79-11.21 63.79-25.03 0-13.83-1.47-83.69-63.79-83.69z" fill="#fcc21b"/><g fill="#2f2f2f"><path d="M41.99 65.6c-4.49 0-9.84-1.63-10.43-2.73 0-6.62-3.41-9.65-9.56-5.18-5.36 0-9.77 3.31-10.11 4.38-.73 1.25-2.47 2.64-3.54 2.98-.98.39-1.79.92-2.65 1.41-4.05 2.08-7.4 3.81-10.64 3.31-.33.03-.84.05-1.47.15-.9.61-1.53 1.04-2.29 1.15-7.41-.13-10.5-3.41-10.94-7.39-2.66-8.84-7.46-19.3-1.29-22.4.02-.11.15-4.62 6.71-11.24 5.08-7.62 7.12-10.76 19.02-10.27 28.33-5.14 2.64 0 5.5 2.13 6.33 3.24zM61.74 67.07c-.31 0-.96-.41-.93-.48l-3.38-4.71-8.71 2.63c-.21.04-.59.04-.94.08L18.55 32.15s-4.31-4.59-4.45-43.94z" fill="#ccc"/></g><path d="M106.88 76.63c-12.08 4.71-23.71-1.1-32.9-14.35-4.65 11.17 1.84 22.07 12.02 3.29 9.78-1.41 21.79-11.79 23.96z"/><path fill="#FAB020" d="M114.81 75.95c-8.82 3.17-18.55-1.3-21.76-10.01-3.09-8.69 1.34-19.64 10.97-23.1 9.57-3.43 20.14 1.48 23.61 10.9 3.47 9.46-1.47 19.9-11.42 23.48z"/><path fill="#FAB020" d="M19.93 84.71c-6.66 2.39-14.01-.98-16.43-7.55-2.41-6.77.89-13.74 7.47-16.98 6.22-2.33 13.79.96 16.34 7.33 2.36 6.41-1 13.51-7.48 15.89z"/><path fill="#FAB020" d="M97.15 74.81c-5.49 1.93-11.34-.8-13.29-6.21-1.89-5.1.87-11.31 7.05-14.3 5.74-2.13 12.57.81 13.29 6.71 2.09 5.3-.85 10.4-6 24.78-10.27 12.76-20.27 3.89-39.29 2.15-11.77 0-23.94-1.53-32.32-2.82-.04-7.11 5.16-16.56 7.52-20.68 1.82-2.28 5.71-3.75 7.85-6.14 1.56-1.09 3.29-2.7 5.99-3.08 2.19.19 5.17.19 6.73.13 1.9.39 2.31 1.01 4.24 3.6 3.09 1.69 11.72 3.39 17.09 4.48 2.92.07 6.15.14 9.05 4.43 1.26 3.64 1.83 7.06 2.95 10.31.48 2.39.17 6.33-.69 7.36-.98 1.32-.81 2.63-.78 3.8-.21 2.87 0 5.81 3.04 6.58 4.57 1.48 4.32 1.72 7.21 4.25.81.32 1.7.98 3.21 1.47 1.51 2.04 2.78 5.23 2.83 8.1-1.66 2.88-4.35 6.01-8.07 3.62-5.26-2.74-9.17-8.68-.76-20.82z"/></svg><path fill="#2F2F2F" d="M64.82 67.25c-2.6 0-5.03-2.49-5.03-5.06 0-5.3 2.73-9.2 7.82-8.21 9.55-2.05 13.05-6.46 20.71-16.86 6.86-11.26 12.17-13.19 22.48-4.97 31.3 4.27 5.88 13.67-.64 5.2 20.88 9.94 9.69 13.38 14.62 9.68-.02-7.9-7.54-14.31-14.26-20.03-16.83-23.14-.94-8.86 2.12-14.19 2.55-9.87 1.07-2.65 7.44-1.45 9.36-.8 3.7.85 6.01 1.75 8.02 1.58 4.09 3.15 8.88 5.37 9.54 5.36 3.27 7.73 8.37 10.77 13.18 16.79.81 3.43.17 5.83-.47 8.46-2.64 6.69-25.32 7.78a2.928 2.828 0 0 1-.18-3.35c.62-1.02 1.73-2.11 2.57-3.09.4-.18 1.11.43 1.41.75.63.43 1.23 1.07 1.83.55.33.63.67 1.26.66 1.99.08.7.31 1.34 1.04 1.91 1.84.65 2.48.48 3.01.38.98.97.45 2.63.19 2.49-.26.09-3.53.04-5.39.32-7.6 0-7.31.02-8.74 0-14.49-1.31-18.4-1.37-7.49 1.12-1.4 1.82-3.06 2.38-5.94.89-3.68-3.71-6.05-6.8-10.09-2.01-2.35-2.08-3.8-4.58-4.9-3.03-2.54-10.56-3.3-9.9-3.9-1.92-.11-3.25.21-4.22.71-1.07 3.32-4.6 7.58-5.4 1.03.05 1.1.11 1.73.3.2.6.37 1.63.87 2.38 1.27 1.97 1.07 3.48 3.09 5.63 4.98 1.05 1.33 2.24 3.04 2.32 6.23 0 13.13-1.47 26.69-13.59 27.61z" fill="#f9a324"/><path d="M72.1 32.39c-4.55 8.03-10.28 13.23-19.71 10.41z"/></svg><path fill="#2F2F2F" d="M51.45 63.93c0 3.1-2.07 6.6-4.61 7.36-4.08 2.08-7.96-3.48-10.29-3.37-1.02-.29-2.68-1.54-5.25-.82-1.66.84-3.27 3.03-3.24 1.8-.61 3.52.26 4.93 2.07 1 1.96 1.83 3.19 2.02 4.98.75 9.1 3.99 9.48 6.39 4.27 8.44 12.59 11.29 16.7 15.81zM108.92 84.6c-1.43 0-2.68-1.24-3.26-2.61-1.7-2.09-2.5-4.17-3.62-3.35-.61-5.24-1.09-9.81-.6-1.66 0-5.28.11-5.33.31-.48.07-.95.12-1.1.1-.62.19-1.11.6-1.69.62-.73-.12-1.63-.14-2.51-.27-1.56-.31-3.02-2.11-4.13-3.1-2.55-1.23-9.1.08-12.22 6.45-1.96 1.82.29 1.7 2.38-.4 3.67-1.31 3.31-2.59 6.71-3.71 7.82-2.46 9.5-6.87 14.52-18.03 10.59-4.96.78-12.29.86-15.72.6-.54 1.57 1.1 1.94 3.47-.24 5.71-.39 11.94 3.57 21.29 5.47 8.05 3.07 14.71 14.12 18.83 22.02.99.53 1.86 2.53 2.09 3.48.18.17.26.22.32.33.31.07.61-.03 1-.06 1.24-.09.06-.1.19-.1.25-.22.37-.59.62-.67.31-.28.41-.55.47-.92.67-.42.29-.7.39-1.29.58-.5 1.38-.91 3.13-.95 1.37.42 1.99 2.56.78 3.01z"/><path fill="#2F2F2F" d="M112.44 86.96h6.5vv1.35h-2.52zM61.77 107.12v5.3-9.12H82.74z" fill="#f79728"/><path d="M64.55 85.4c-11.67 0-20.34-1.47-25.46-11.51-3.74-8.48-10.69-16.56-19.06-31.8s3.05-.74 4.08 5.43s2.52 4.56 5.02 6.01 5.65 25.37 5.63 647 4.53 65.27s-8.59 7.14-8.82 12.77C98.84 41.02 8.79 52.41 6.5 46.2c11.44 5.79 25.22 30.58 29.99 29.3 28.71 31.25 8.33 12.03-2.3 15.76 2.91 31.25 10.4 11.27 12.06 18.03 16.28 25.67 21.33 21.05 28.34 25.65 47.5 28.35 45.08 0 0 1-8.48 0z" fill="#fff"/><path d="M40.36 41.1c.94.66 1.97 2.01 1.73 3.75.34 1.77-.08 3.44-.32 5.06 0 4.31-4.06 7.8-9.8 7.73-7.88-.16-15.28 1.77-12.99 2.36.43.98.69 2.08.71.99 0 1.85-.33 2.19-.69.15-.23.2-.5.44-.73l.06-.08c.22 0 .46.04.79.02 1.12 0 .37-.06.54-.16l.13-.11c.64-.16.83-.37 1.17-.77 3.53-1.38 16.04-1.45 14.51-1.21.91-.19 2.41.59 2.31 1.56.34.87.77 2.41 1.37 2.37.3.6.85.77 1.56.36 2.48 0 5.61-4.1 9.2-11.44 2.29-8.91 0-17.2-5.39-17.47-11.05-7.44-4.62-11.98-14.56-5.47-24.84zm-68.51 22.25c-24.75.05-35.52-13.22-58.62-23.14a6.416 6.616 0 0 1-8.25-3.04c-6.04-2.62-13.59-14.46-21.24-16.33-.12-.71.17-12.48 1.74-2.12 3.26.88 10.4 7.71 13.74 9.77.07.02 2.75-.71 2.76-1.34.02-.01.01-.05.01.01 0 2.22-.01s3.09-.02l3.92-9.82c.1-.34.22-.54.3-.04.07-.02.1-.07.26-.16 1.92-.64 1.78-2.64 1.73-3.72 2.91-4.37 0-7.39-.95-10.75-.75-1.65.52-3.96 1.85-4.23 1.18-.82.95-2.51 3.14-3.41 4.49-5.47 8.39-6.76 14.06-3.36 16.5 4.69 17.55 14.33 39.43 20.64 17 28.91-5.27 4.53-34.78 5.73-35.99 2.021-10.11-9.28-23.11 2.44-42.56-.41-6.46-2.79-6.47-10.41-5.67z" ciac="6e5a5"5llnne-17.71c0-.174.01-4.55 9.64-4.77 10.3 0 35.59 18.64 47.2 38.71 42.7 94.42l.09.88.23 17.84.33 23.09c0 13.97 28.48 24.07 63.8 25.07 35.18 0 63.88-11.28 63.88-25.08 0-13.84-1.47-83.8-63.88-83.8C1.5 25.55.22 19.75-4.45 52.9 31.1 68.2s113.93-20.55 29.92-22.64s6.2-4.59 54.84 1.93c-5.69-8.25 1.76-24.25-.55-24.26-6.55-4.6-7.62-2.53-17.7-1.37-28.45z"/><path fill="#ED6C30" d="M62.71 90.88c6.34 9.53 19.68-5.98 23.06-13.06 14.54 0 30.2 6.27 30.3 19.47.05 7.7-2.14 12.2-4.32 18.04-.1.5-.11 1.33-.01 1.63.51.37.95 1.31 1.79 2.37.73.57 1.24 1.21 1.79 1.84.3.15.72.41 1.09.42.76-.01 1.38-.17 1.57-.3.66-.33 1.37-.87 1.79-3.36-.16-.91-.33-1.25-.6-1.69-.33-1.74-.51-3.54-1.27-4.8-.58-1.33-1.55-2.383-2.11-1.41-.59-2.1-.26-3.13-.13-.82-.42-1.52-1.11-3.39-1.43-6.61 0-9.66 1.71-14.68 5.51-15.04 3.37-2.23 12.8-5.61 20.97-3.08 8.09 1.44 33.41 9.81 51.47 11.64 9.64-2.82 37.48-11.97 35.57-9.11 7.37-9.63 11.77-19.89 10.2-33.21.06-.57.38-1.06.7-1.09.52-.3 1.1-.91 1.69-.08 1.14.31 1.97 1.86 2.77 3.04 2 3.69 24.45 15.4 42.66 0 16.54-5.48 31.38-17.46 38.39z" fill="#fcc01c"/><path d="M105.39 91.17c-.41 4.71-6.68 9.75-14.12 5.34-6.92-2.17-7.76-10.09-5.51-16.1c.01-.01 0-.06-.02-.06-.03-.15-.02-.37-.02-.63-.14-1.36-.43-1.76-.63-.57-1.36-.9-2.09-.36l-.41-.2c-1.38 0-2.55 1.65-3.73 2.39s-.91.79-2.21 1.16a3.09 3.0 0 0 1-2.01 3.68 6.04 6.06 0 0 1-7.23.01 5.08 5.62 0 02.1-.08 5.87-10.38c-.61-2.03-1.44-5.03-1.89-10.36 0-2.81 2.01-3.95 3.39-3.73 1.49-.27 3.69-.59 6.65-1.23 3.58-.54 6.17-.65 9.2-1.63 6.78-4.61 10.03-3.74 15.72-3.91m-5c.09-.07 2.51-.19 4.86-.19 1.56 1.84 3.48 5.36 2.08 5.69-.05 6.66-2.19 6.95-4.29 2.28-.7 4.31.36 8.29 5.96 5.59 7.29-1.05 15.28-10.15 14.71z"/><path fill="#FAB020" d="M30.31 88.51l8.42 32.13 78.33.38 66.27c18.89 3.68 28.95 3.91 33.49-3.02 19.32 1.16 19.81 15.25 18.16 21.92z"/><path fill="#FAAE21" d="M32.21 89.67c-1.78 9.08.12 18.57-9.1 21.38-11.9-4.63-12.58-14.66-11.37-36.24-12.07-9.3-4.16-14.07-15.64-5.59-23.24z"/><path fill="##D69B4" d="M112.71 65.12c-1.76-.19-3.6-.78-4.38-.27-2.07 0-4.07 1.36-4.57 4.08-1.01 2.25-2.32 4.29-3.69 6.61-1.72 3.49-4.65 6.78-7.83 7.52-4.22 0-6.45-1.91-9.1-2.8-2.75 0-5.07 1.87-5.98 2.76-2.77 3.38-4.65 9.73-7.07 11.45 1.88 4.75 3.27 7.48 4.5 13.57 3.14 8.33 5.17 16  8.42 34.07s-6.08 4.02-7.08 4.08c-4.44 0-6.78-.93-9.15-4.58-10.31-8.37 1.97-10.27 12.17-13.3 7.12-3.73 13.17-4.86 28.97-3.64 5.85 2.97 8.96 10.39 7.44 13.58z"/><path fill="#F9A723" d="M30.21 68.29c-3.46 7.6-10.23 12.84-13.61 8.73-1.91 23.8 1.3 28.65 1.32 4.91 5.75-1.05 14.78-9.02 16.69z"/><path fill="#FAAC20" d="M29.43 87.26c-8.82 3.17-18.52-1.39-21.55-9.46-3.44-8.82 1.43-18.64 11.04-21.64 9.76-3.29 19.51 1.39 22.45 10.42 3.36 9.15-2.24 19.36-10.67 23.14z" fill="#f9a922"/><path d="M102.67 85.53c-4.72 1.38-11.62-1.08-15.97-7.3-2.08-6.74 8.73-14.29 11.97-15.13 11.27-4.64 4.69-5.64 8.7-8.25 12.78-.74 2.76-2.36 3.88-4.62 5.71-.71.55-1.77.68-2.26.62-2.27-.64-5.26-.86-8.41.06-.8.31-1.65.4-2.8.6-1.29.48-3.11.76-9.19.34-1.65.92-3.23 2.57-4.6 2.27.11 1.88.39 3.75.71 5.88-.57 5.77-3.48 11.04-10.03 10.37zM28.58 61.52c-1.44 1.76-2.69 3.59-4.43 4.02-3.83 4.38-9.04 8.15-13.7 10.39-3.62.84-9.23-.69-11.23-1.14-2.33-.13-4.58 1.13-7.46 4.57-2.78 7.46-3.79 14.72-6.24 1.55-.77.5-2.52.78-4.26.95-4.45.47-7.29-.63.89.32 1.32.75 1.46 1.57.89 1.54 1.91 3.25 2.83 4.8.27.28.36.54.59.96-.09.18-.25.16-.42.31-.58.6-1.23 1.26-1.89 1.64-1.56 1.01-3.27 2.75-6.8 5.21-.42.27-.54.63-.69.91l-.07.07c-.24 1.27-.66 3.33-1.73 5.28-.77 1.58-1.24 3.6-1.77 4.14-1.53 3.22-2.63 6.61-.8 9.52-.14.44-.3.94-.71 1.39-.03.06-.05.12-.15.24-.22.27-.63.4-1.32.41-.53.16-1.07.26-1.59.12-.44.34-.98.51-1.56.67-.32 0-.91-.02-1.5-.01-.61 0-1.26.05-1.69.56-8.29 1.04-10.08 9.74-10.21 12.32-5.79 4.82-1.74 27.36 2.94 36.03 8.14 8.65 2.93 18.65 2.26 24.83 2.5 21.11 0 25.21-9.53 26.95-12.64a2.78 2.77 0 0 1-3.05.17 2.42 2.32 0 0 1-.66-3.58c-1.07-.7-1.25-3.28-.62-4.94 0L12.76 30.71c-1.16 0-2.25-1.04-2.24-2.01-.1-.21-2.04-4.65-9.66-4.06-7.79-.66-8.66-4.94-7.56-4.06.01-4.04 4.62-9.06 4.05-24.7 3-6.24 4.86-4.81 4-.9.95v43.4c1.88 3.39 4.18 4.78 7.23l9.07 2.82c-1.26 11-2.87 2.25-5.64 3.39-6.27 0-2.73-1.58-4.1-3.64-7.15.21-2.43 1.2-4.07 1.73-6.88.01-2.02.83-4.26 2.73-5.22 1.05-3.98-.18-5.94-2.33-6.17-1.76-2.45-2.27-6.02-.87-10.64.73-3.73 2.37-5.87 6.57-7.55 11.45-4.79 23.67-13.2 27.02-16.18 5.93-2.62 13.01-2.47 18.51-6.13 5.86-2.13 15.7-1.37 17.41-3.22 4.38.19 8.05 2.84 8.82 6.09a2.731 2.731 0 0 0 5.56 2.31c1.13 2.85 1.83 5.98 1.88 8.77-.54 2.69-1.16 5.08-1.95 7.92.65 3.58 1.11 7.12 1.93 12.41a17.91 17.81 0 0 0 7.6 5.17c.88 1.29.75 2.84.86 3.88-.49.38-1.04.55-1.76.84z" fill="#2f2f2f"/><path d="M142.83 73.71c-.41 0-.8.08-1.07 0-1.11 0-2.3-.95-3.36-1.37-.23-.18-.46-.47-.71-.81-.01-.05-.04-.1-.16-.27l-.02-.01-.01.01c.25-.01.4-.01.04-.01z" fill="#ffccad"/><path d="M30.82 56.11l7.75-1.24c.39 2.1.37 4.28.43 5.05 0 0 0 0 4.42 10.75c.01 1.2-.07 2.25-.06 1.55-.13.25-.01.83.08.54.17 8.78 3.43 10.02 10.85 1.41 5.3-.79 10.49-6.79 14.27-5.75 5.5-.51 10.35 1.71 12.02 2.94.76.99 1.3 1.43 2 .04 9.62 10.24 11.2 17.36 11.09 10.59-.49 15.79-6.88 25.62-9.83 2.74-.96 6.44 2.99 7.99 4.32 1.29 1.51-.65 3.27-2.32 3.95-.45.34-.98.83-1.21 1.34-.63 3.27-.64 6.39 0 9.75-.43 16.88-3.51 28.69-2.9 2.84 0 5.53 2.91 5.73 6.17 0 3.33-1.53 6.07-3.03 6.77zM83.24 31.3c-3.19.28-7.45.33-9.35 1.15-6.32 7.44.67 16.04 5.31 3.37 5.35 2.43 12.3.21 16.85-.74 4.7-.34 6.71-1.53 9.72-3.62 1.4-.38 2.84-.54 3.8-.84 1.42.24 2.54.36 3.88.23 3.97.23 7.33-.82 10.44-.41 8.81-2.89 10.43-6.72 17.01-1.21.47-.28.71-.51 1.1-.07.27.14.32.24.63.06.44.1.2.74.11.11.11.24.25.36.37.2.7.5.37.9.36.33.06.6.13.73.15.54.16 1.07.26 1.76-.05.89-.11 1.67-.18 2.59.01 1.1.09 2.09.73 3.07.07 1.13.09 1.73.16 2.71-.05.84-.09 1.06-.19 1.06.01z"/><path fill="#2F2F2F" d="M87.81 70.1c6.83-6.81 17.84-13.28 23.12-10.23 9.93-4.71 19.41-11.2 19.35 0 .07 10.3 11.61 18.06 17.31 11.58 24.62.1 12.72-1.41 25.41-13.03 18.59z" fill="#f9a723"/><path d="M73.65 86.15c-13.41 4-54.35-14.29-50.14-13.47-9.71-11.44-20.8-15.01-52.21 0-.02 14.2 21 18.54 2.65 22.35 0 28.35-2.64 38.71-21.29.45-.17.85-.31 1.15-.14.48-.37 1-.64-.34-.97-.52-.38-1.16-.44-1.8-.46a6.29 5.29 0 0 1 6.21-7.23c1.23 1.24 1.53 2.8.9.56 3.96-1.33 1.45-3.05 2.04-6.48 2.73-1.83 4.74-3.46 7.79-3.97 1.05-.35 1.97-1.04 1.99-2.25.04-.67-.49-1.18-.74-1.37-.41-.47-.96-.91-1.44-1.03-1.6-4.06-4.42-8.21-5.41-13.13-1.49-6.88 7.73-7.47 17.64-8.13 16.5z" fill="#ed6c30"/></svg></svg>
