<svg xmlns="http://www.w3.org/2000/svg" viewBox="0 0 47.5 47.5"><defs><clipPath id="a"><path d="M0 38h38V0H0v38z"/></clipPath></defs><g clip-path="url(#a)" transform="matrix(1.25 0 0 -1.25 0 47.5)"><path d="M36 19c0-9.389-7.611-17-17-17C9.612 2 2 9.611 2 19c0 9.388 7.612 17 17 17 9.389 0 17-7.612 17-17" fill="#ffcc4d"/><path d="M15 20.5c0-1.934-1.119-3.5-2.5-3.5S10 18.566 10 20.5c0 1.933 1.119 3.5 2.5 3.5s2.5-1.567 2.5-3.5M28 20.5c0-1.934-1.119-3.5-2.5-3.5S23 18.566 23 20.5c0 1.933 1.119 3.5 2.5 3.5s2.5-1.567 2.5-3.5M24.485 9.12c-.012.0-1.166.025-2.296.023-3.746 0-8.364-1.232-8.106-2.247a.999.999 0 0 1-.707-.405c.023-.047.05-.099.997 1.369.346a.498.498 0 0 0-.392-.588l-10-2a.475.475 0 0 0-.099-.01M11 16.5a.516.516 0 0 0-.158.025l-9 3.001a.499.499 0 1 0 .316.948l9-2.999A.5.5 0 0 0 11 16.5M12 14.5a.489.489 0 0 0-.098.01l-10 2a.5.5 0 1 0 .597.98l10-2A.5.5 0 0 0 12 14.5" fill="#9aaab4"/><path d="M29.416 19.277c-.061.091-1.515 2.223-4.416 2.223-2.9 0-4.355-2.132-4.416-2.223a.499.499 0 0 1 .714-.679c.012.01 1.262.902 3.702.902 2.426 0 3.674-.882 3.702-.902a.503.503 0 0 1 .642.038.502.502 0 0 1 .072.645M3.001 22a.998.998 0 0 0-.718.293.498.498 0 0 0 .585.013c-.013-.017-.022-.018-.011-.019.011-.019.011-.138 0 9.519-.8711.042-.881C1.707 2.352 1.219 9.699L10.856 20.5c4.34 0 9.365-2.172 14-1 1" fill="#bf69520"/><path d="M16 5c0 1.694-1.892 3-3.5 2-3.5S19 6.467 10 6c0 1.167.106 2.269 1.01 3.628 0 2.348-1.622 3.358-1.282 2.703-2.358.313-4.433.42-6.909-.743A1 1 0 0 1 9 0 2 10-1 1 1-2 0-1-2-2-17 3-2 19" fill="#e75a70"/></g></svg>
