<svg viewBox="0 0 32 32" xmlns="http://www.w3.org/2000/svg" fill-rule="evenodd" clip-rule="evenodd" stroke-linejoin="round" stroke-miterlimit="1.414"><path fill="none" d="M0 .017h32v32H0z"/><clipPath id="a"><path d="M0 .017h32v32H0z"/></clipPath><g clip-path="url(#a)"><path d="M16.174 4.001a13.98 13.98 0 0 1 4.546.819 14.038 14.038 0 0 1 5.056 3.158 13.99 13.99 0 0 1 4.223 9.848 259.76 259.76 0 0 1 0 3.303 9.983 9.983 0 0 1-2.678 6.683 9.967 9.967 0 0 1-7.192 3.187c-2.753.018-5.505.018-8.258 0a9.967 9.967 0 0 1-7.192-3.187 9.983 9.983 0 0 1-6.942-2.928h.045.185 0 0 1-.097-.064H25v-2.272a6.121 6.111 0 0 1 1.006-.238A2.436 2.326 0 0 1 .05-1.367H25" fill="#d79e84"/><path d="M17.969 16.23c-.303 0-1.247.007-2.231.004-.224.013-.345.015-.486.111-.994.249-2.183.574-3.39-1.012-.235-.672-.627-1.359-1.054-1.045-1.694-1.065-.892-.287-2.138-.35-.752 1.11-1.006 5.213-.14.22=2.311 4.07-.144 8.164z"/><path fill="#17B7e8" d="M38.633 78.715c1.014.416 2.084 1.677 4.68 1.71.618 1.224.594 2.124-.575 2.893-2.927 1.718-5.561-1.072-7.277-1.018-1.064-2.796-.519-4.917-1.891-11.013-.873-1.274 0-1.958 1.313-2.119 2.092a.993.993 0 0 1-.727 1.515c-.135.186-.498 6.296-5.008 5.855-2.138a1.03 1.03 0 0 0-.736.873c-.309.167-.612.27-1.071.191a.99.99 0 0 1 1.096-.025l.344 1.277h-.002a.769.469 0 0 1 .185.448" fill="#292f33"/></g></svg>
