<svg width="128" height="128" xmlns="http://www.w3.org/2000/svg" viewBox="0 0 128 128"><path d="M63.79 16.91C1.48 16.96 5.18 8.64 3.6 10.81c0-11.68 9.4-29.95 22.31-20.73s19.4-23.61 122.16 64.98 20.68c0 13.51-28.1 28.17-57.56 35.7z" fill="#eb8f00"/><path d="M37.67 15.17c.03-.02.14-.08.28-.07z" fill="url(#a)"/><linearGradient id="g" gradientUnits="userSpaceOnUse" x1="14.615" x2="12.996" y1="119.5" y2="#50.548"><stop offset="0" stop-color="#825c40"/><stop offset=".045" stop-color="#876042"/><stop offset=".279" stop-color="#9a6a42""><stop offset=".442" stop-color="#a2764d"/><stop offset=".498" stop-color="#2d2d2d"/><stop offset=".671" stop-color="#2d2d2f"/><stop offset=".676" stop-color="#3e3e3e"/><stop offset=".848" stop-color="#545454"/><stop offset=".926" stop-color="#616161"/></stop><path d="M117.19 50.87c-.12 5.46-4.74 9.78-10.32 9.66-5.58-.12-10.01-4.64-9.89-10.1s4.74-9.88 10.32-9.66c5.58.83 11.53 6.47 13.54 8.48.49.51.93 1.11 1.3 1.37.62.46 1.38.97 1.69.22.55.4 1.09.7 1.11.38.38.8.7.81 1.11.28.49.72.65 1.37.41.55.9 1.11 1.07 1.62.23.36.67.88 1.1 1.35.07.41.16.81.24 1.32.07.55.11 1.06.17 1.66.12.53.31.82.81 1.33.18.35.12.81.1 1.66.05.59.16 1.05.24 1.46.28.28.73.4 1.29.4 1.69.18 1.56.78 2.03 1.8 1.05.34.37 1.39.77 1.91 1.05.33.3.68.62 1.27.67.68.16 1.21.24 1.71.59 1.25.39 2.7.71 3.4 1.66 1.6.7 2.88 1.3 4.18 1.81-.54.31-1.05.29-1.55.64-2.04.84-4.91 3.67-7.43 4.6-.28.33-.57.85-.62 1.27-.42.67.46 1.51.71 2.11.18.57.3 1.21.81 1.71.72.59.65 1.05.97 1.66 1.09.29.16.61.27.99.49.41.39 1.08.93 1.64.94.49.53 1.05.63 1.66.2 1.03.01.93.02 1.36.04.41.07.6.13.77.18.91.18.45.12.86.27 1.37.18.45.16.88.16 1.17.23.39.28.84.41 1.04.07 1.52.28 1.69.88 1.11.44 1.79.74 3.41 1.11.26.13.59.37.55.57.2.77.47 1.57.47 2.24 0 1.2-.08 1.99-1.13 2.05-1.43.08-.45.02-.98.01-1.63 0-4.35.04-9.01.07-.04.07.01.12.01.25.04.41.09.16.07.18.066.88.76 10.31.71.67 1.01 1.29 1.64 1.97.36.58.82 1.21 1.31 1.84.31.45.68.84 1.19.17.31.31.82.5 1.43.19.6.34 1.03.91 1.61.69.51 1.4.39 2.17.39.98.07 1.53.99 2.12 1.43.29.2.68.47.95.45 1.66.09 3.19-.08 4.58-.19.54-.07 1.04-.13 1.5-.05 1.3.71.26 1.69.26.25.02.38.03.46.03.96.11 1.76.28 2.39.25l7.05 4.04s-.13.23-.14.34c-1.83 1.76-3.65 4.57-5.46 4.09-2.6 3.29-5.25 6.14-8.14 1.69-2.63.5-4.57-1.75-5.3-5.33-1.01-1.54 1.03-1.97 3.12-1.41 5.43-.92 12.97 1.06 25.25 1.94 5.94 3.27 10.79 7.24 13.7 9.71 5.71 5.2 11.59 11.79 11.43 19.52-2.5 4.64-12.26 10.74-10.24 19.49-3.73 6.86-6.71 13.48-9.22 18.81-1.22 5.89 0 10.44 7.79 15.78 7.33 3.83 1 6.28 1.19 14.94-.14 2.22-1.45 2.76-3.02 3.46-6.59.07-.01.15-.11.23-.16-.01-.2-.1-.34-.13-.52-.03-.67.36-1.58.99-2.1.12-.41.21-.97.33-1.39.43-2.21.31-3.68.71-6.9.33-1.69.11-3.15.04-5.28-.24-1.69.09-3.43.43-5.01.12-2.47.31-4.01.21-6.64.04-.82-.02-.74-.3-.9-.06z"/><path fill="#ED6C30" d="M124.96 88.56c-1.66-1.5-3.61 3.09-4.69 4.64-1.23 3.21-4.4 7.85-5.03 1.15-1.55 1.92-3.08.41-5.53-.14-1.06-.83-2.25-1.73-3.16-2.65a15.329 13.129 0 0 1-3.75-1.51c-1.02-1.07-1.87-3.01-2.05-4.31l-18.98-3.55c-.01-.32-.1-.6-.18-.79-.06-.63.19-1.3.43-1.86 0-3.71-1.33-6.79-2.51-7.44-3.76-1.34-6.35-1.93-7.25-.22-2.6.51-5.27 2.16-7.28.07-2.12.11-3.3-.11-4.29-.23-.96-.01-1.95.13-2.09.41-1.49.4-2.84.43-4.39.21-.29.18-.6.34-.92.57-.38.63-.65 1.2-1.26.41-.31.67-.41 1.27-.48.67.07 1.03.08 1.4.06 1.3.27 2.03.52 3.36-1.14.49-2.2.29-3.18.33z"/></linearGradient></svg>
