<svg xmlns="http://www.w3.org/2000/svg" viewBox="0 0 128 128"><path d="M64 47.54s7.72.19 18.71-3.94 15.6-9.79 23.1-12.25c7.5-2.46 14.55-2.56 24.02-3.86 16.5 1.94 31.67 11.64 35.59 11.18 25.79 0 46.71-7.86 35.27-18.33 0-.37-.04-.74.12-1.04.19-.17.5-.11.88-.24 1.16-.15.02.01.03.03.02.03.02.03.2.03.3a2.91 2.62 0 12.05-1.58c.95-.88l16.08-.02c.51.01 1.54.14 1.66.08.26.03.56.03.85.02.5.3 1.11.8 1.12 1.8.34 2.96.77 4.81 1.5.75.91 2.3 1.54 2.73 2.16.07.02 1.51.15 1.61.35.76.46 1.08.83 1.08 1.5.03.41.06.8.73.97.42 1.43.59 2.58 1.03 3.12 1.87.54.52 1.17 1.28 1.82 1.9.68.8.9 1.3 1.31 2.36.77.77 1.54.39 2.53.66.56.1 1.16.1 1.89.18.19 0 .13-.02.22-.04.38-.21.65-.38.88-.14.67-.19 1.35-.6 1.6-.65 2.9-1.28 3.72-1.74.08-.05 2.22.31 3.99.66 1.6.5 2.88 1.68 4.06 1.82 3.61 1.23 7.73-1.86 10.72-3.71 7.87-7.72 10.09-12.62 11.43-15.5 4.71-8.24 1.87-10.44-7.27-23.72-12.07-2.55-2.14-3.34-4.09-3.68-6.68 1.45-10.4 22.69-43.4 2.91-9.98 1.42-25.82-.53z" fill="#e06055"/><path d="M53.99 36.07c-.31.34-5.53 6.69-7.9 13.33-6.48 10.11 1.71 22.31 11.9 17.16 17.13-5.14 4.72-14.39 7.3-17.67 7.55-3.86-1.88-5-4.47-6.52-2.17-2.45.73-3.33 2.98-4.13 1.7-.4 2.98.4 3.75 2.46.43 1.29-.27 2.74-.84 3.27-.21.38-.63.87-.68 1.31l-16.63-3.36 1.7 3.34c.29.39.48.83.7 1.18 0 .49.62.72.74-.26 1.16-.94 1.74-3.05.22-.44.07-.66.16-1.02.31-.18.15-.31.31-.46.41-.26.34-.46.63-.46.31-.17.57-.32.59-.42.54-.32.97-.61 1.42-.98.4-.25.93-.54 1.65-.82.79-.18 1.34-.44 1.59-.36.64-.38 1.31-.65 1.79-.39.25 0 .57-.07 1.06.01 1.03.03 1.28.1 2.05.16 1.63.4 3.68.71 4.51 1.01 1.22 1.2 1.98 3.07 1.79 5.65 1.08 1.83 1.08 3.25 1.11 5.51.55 4.11.76 7.31.77 15.53.17 1.04-.72 2.22-.57 3.21 1.92 2.83 6.05 3.81 9.16 3.38.35.01.66.06.98.12zM12.72 11c.04.07.8.42.55.75.92-1.01.1-.31.16-.61.27-1.04.2-.58.2-1.14.13-1.2.24-1.12.76-2.25 1.2-3.57.31-.49.07-1.39-1.44-1.66-.93-.33-1.52-.74-2.15-.87-1.65-.47-3.67-1.04-5.35-2.27z"/><path fill="#2F2F2F" d="M75.56 44.53c.27-.83.46-1.47.6-1.95 1.15-1.15 1.01-1.25 2.65-.37 1.13.49 13.64 1.61 5.49 2.1 1.64 1.93 3.41 3.19 5.2 2.67 1.38 14.25 2.58 5.68 1.12-.42 2.24-.32 3.24-.78 1.85-.58 3.64-1.58 5.11-1.05.56-.01 1.22-.03 1.71-.05.83-.01 1.39-.62 2.49C44.9 36.67 39.28 28.55 61.75 77.68c-.37 3.32-2.51 5.09-5.98 4.95z"/><path fill="#FCC21B" d="M85.5 48.58c-.87-.03-1.3-.23-1.61-.34-.19-.34-.42-.63-.44-1.08-.04-.4-.03-.79.4-1.05.18zM83.28 35.01c.74.21 10.3 3.25 21.76 8.25 9.54 8.75 27.36 11.39 33.45 0 4.1-3.36 8.43-5.76 8.38z" fill="#f79329"/></svg>
