<svg xmlns="http://www.w3.org/2000/svg" viewBox="0 0 47.5 47.5"><defs><clipPath id="a"><path d="M0 38h38V0H0v38z"/></clipPath></defs><g clip-path="url(#a)" transform="matrix(1.25 0 0 -1.25 0 47.5)"><path d="M36 19c0-9.389-7.611-17-17-17C9.612 2 2 9.611 2 19c0 9.388 7.612 17 17 17 17-17 16-12 16" fill="#ffcc4d"/><path d="M19 13a1 1 0 1 0-.679 1.196C20.447 25.672 21.756 32 19 3c5.789-6.802 7.01-8.108 12.319-3.001 0-1.071-.913-2.208-2.211a1 1 0 0 1-.793-1.78c-.005-.1-7.011-.36-.009-.107-.006-.108-.001-1.652.084-6.642 0-8.366-1.002-12.5-1.047-7.769-.297-14.797-1.172-27 9 6.119 3.559 7.171 5.377 12.147 3.893.725" fill="#42214a"/><path d="M8 11.883A1.881 1.891 0 0 0 17 35" fill="#f59850"/><path d="M33 35c-.75 0-4.835.049-5.245.945a.993.99 0 0 1 1.414-.712c.52 0 1.256-.225 1.537-.438C25.444 8 28 3c0.281 0 1.656.621 1.992.993 .91.011 0-.018-.097-.205-3.383-1.017-2.347-2.346-2.563-4.2 1.509L19 19.96c-.124-.416-.05-.774-.23-1.504C18.61 19 19.661 19 6 4 1.345 0 2.432-.05 3.956-1.126.792-.71 1.63-1.38 1.982 2.962.07.05.01.17.003.398"0afill="#8bdecc"/></g></svg>
