<svg xmlns="http://www.w3.org/2000/svg" width="128" height="128" viewBox="0 0 128 128"><path fill="#FFF" d="M50.61 20.69c2.88 0 5.13-2.74 5.23-6.37 0-3.39-2.25-6.05-5.04-6.05s4.2 3.56 5.36 4.57zM47.8 57.19c-3.18 0-6.08-1.87-8.28-2.75-4.3-.81-8.33 1.94-10.88 5.42-5.46 8.38 1.24 28.96 9.2 20.8 2.64 7.95 4.49 12.06 8.33.13.09.26.05.39.09 2.38-.06 4.27.24 6.04.04 1.08-.29 1.61-.32 2.92-.77 1.41-3.18 1.65-4.45 3.44-1.14 1.04-1.98 3.21-1.51 4.65-1.21 2.09-2.35 4.15-3.18 7.05-4.37 2.88-9.8 7.68-15.25 11.07-1.88 8.02.72 12.55 10.54 17.4 11.7 18.78 5.34 24 54.85 21.32 9.82 6.99 10.45 11.31 11.49 15.99.7.1 1.12.24 1.81 1.03 2.72 0 .68-.01 1.4-.11 2.36.11 1.87 0 3.15-.04 6.65l.04-.01c.1.01.25.01.38.03.08.11.17.25.29.21 1.01 1.17.16 2.35.67 3.31 1.29 1.69 2.66 2.83 5.01 3.71 10.34.11 1.19.18 2.63.07 3.42.11 1.01.01 2.7.09 3.7-.01 2.83-.38 4.94-2.48 6.11-2.25.72-.32 1.42-.43 1.69-1.32.36-.16.65-.34.88-.44.41-.3.87-.57 1.31-.89 1.02.31 1.99 1.83 2.95 3.15 1.25 1.25 2.78 1.88 4.04.93 1.47 1.41 2.09 2.11 3.89h.05c.1.06 1.3.11 2.16.47.21.05.28.08.33.07.01.17.03.31.02.14-.01.83-.03 1.09.02.64 0 9.93 4.46 14.27 9.94.18.22.42.28.62.09.09.01.02.01.02.01.03.01.03.01.03.02.01.41 0 9.28-.57-11.59-7.43-10.58-3.68a4.496 4.466 0 0 0-4.28-.45H39.3c-.13.16-.25.38-.37.5-.78 0-1.35-.33-1.85-.62-7.58-3.39-9.86-11.73-8.12-18.32 0-15.2 5.43-15.63 10.33-2.32 5.74.4 8.6 7.25 3.98 8.95-2.58 9.71-9.37 7.52z"/><path fill="#FBBB1D" d="M31.51 89.77c-9.89 3.11-18.68-1.3-21.43-9.91-2.73-8.57 1.22-16.26 9.56-21.81 8.28-2.97 18.47 1.31 21.45 9.42 3.12 8.6-1.35 18.33-10.05 21.29z"/><path fill="#FAAC22" d="M84.18 88.56c-5.08 1.82-10.6-.75-12.44-5.77 1.82-6.94.75-12.94 4.07-13.56 7.34-2.29 14.04.91 16.3 7.34 2.33 6.05-.95 12.69-7.1 13.96z" fill="#faac22"/><path d="M29.8 84.93c-5.05 1.81-10.62-.75-12.46-5.73-1.83-4.98.76-10.49 5.81-12.32 5.05-1.81 9.55.97 12.42 5.08 1.89 4.98-.74 10.49-5.01 12.31z"/><path fill="#F9A723" d="M27.51 68.04c-4.65 1.68-9.74-.69-11.44-5.37-1.63-4.68.72-9.85 5.36-11.36 4.64-1.24 10.69.79 13.37 5.71 1.88 5.16-.83 10.77-6.04 12.64z"/><path fill="#FAAC22" d="M88.18 97.13c-4.41 1.4-8.39-.61-10.04-4.78-1.51-4.35.65-9.95 4.16-10.36 4.68-1.59 9.84.93 11.44 4.32 1.66 6.51-.86 10.8-4.83 12.33z"/><path fill="#F9A723" d="M97.21 66.42c-4.58 1.63-9.54-.69-11.82-5.14-1.63-4.45.68-9.39 5.11-11.08 4.5-1.63 9.5.68 11.44 5.12 1.69 4.59-.72 9.64-5.34 11.53z"/><path fill="#F9A524" d="M97.76 66.54c-3.98 1.31-7.77-.54-8.39-3.04-1.39-3.61.59-7.79 4.17-8.71 3.62-1.47 7.42.63 8.72 4.02 1.26 3.41-.56 7.2-4.17 8.17z"/><path fill="#F9A324" d="M31.11 88.92c-4.57 1.63-9.5-.67-10.23-5.74-1.51-4.01.61-8.67 4.6-10.17 4.16-1.5 8.77.63 10.3 4.74 1.51 4.11-.64 8.67-4.81 10.17z" fill="#f8a025"/><path d="M27.8 80.75c-3.82 1.37-8.03-.56-9.42-4.33-1.38-3.76.58-7.93 4.39-9.31 3.81-1.37 8.03.57 9.42 4.34 1.39 3.76-.58 7.93-4.39 9.3z" fill="#f89e26"/><path d="M27.57 80.12c-3.46 1.24-7.28-.51-8.54-3.93-1.25-3.41.52-7.19 3.98-8.44 3.45-1.24 7.28.52 8.54 3.93 1.25 3.41-.54 7.29-3.98 8.44z"/><path fill="#F79728" d="M27.74 79.41c-2.41.81-5.12-.36-6-2.76-1.73-2.37-.94-.54-3.33.68-3.63 2.51-.74 2.42.37 4.47 2.37 5.2 1.12 1.72 2 2.2 2.35 2.62 3.46.21.74.39 1.15.51 1.78.48.02.09 0 .56.24l10.64-13.23 1.43-1.21 2.09-1.7 3.32-1.11m0-3.07c-2.15.18-6.02 1.8-7.25 2.67l-13.36 14.3c-1.65-.91-4.25-1.76-6.52-2.3-.53-.41-1.41-.75-1.74-.86-.73-.34-1.34-.71-2.15-1.16-.63-.62-1.32-1.46-1.59-2.68-.21-.78-.94-1.53-2.07-1.7-1.4-.27-.58-.37-1.08-.52-1.89-.02-.64-.81-1.26-1.3-1.28-.72-.42-1.1-.95-1.73-1.37-.46-.17-1.19-.45-1.69-.2-2.13-.03-2.78 1.01-3.82.76-1.27.81-2.95.9-3.11-1.38-1.51-.79-3.53.34-4.42.4-.25.09-.65.39-.94.43V44.86c-.11.89-.66 1.28-.77 2.29-.17.15-.31.38-.53.3-.82 0-1.25-.53-1.99-1.38-.43-1.2-.58-2.37-.64-3.47-.61-.74-1.01-1.51-1.49-2.28-.71-1.71-1.46-3.84-2.31-4.82-.18-.76-.43-1.53-.56-1.89-.08-.51-.2-1.02-.4-1.43-.65-.57-1.54-1.11-1.81-1.37-1.33-.46-2.76-1.14-3.62-1.75-1.14-.39-2.14-1.11-3.14-1.97-1.02-.42-2.05-.76-3.98-.74-1.31-.49-2.45-.73-3.53-.56-1.31 0-2.28 1.1-3.42 1.35-7.03-1.37-7.01-.13-10.52.43-.96-.05-1.41-.11-2.03-.31-.9-.33-1.75-.63-2.11-.88-1.27-.43-2.66-.8-3.7-.11-4.22.31-.38.65-.52 1.29-.79 1.09-.37.04-.57.05-.73.18-1.49.1-1.95.21-1.92.22-.54.2-1.05.16-1.51.14-.53 0-1.05.06-1.51.18-.03.03-.05.02-.09.02-.23.08-.45.12-.7.31-.7.36-1.16.57-1.66.75-.26.01-.31.02-.46.16-1.11.22-1.97.11-1.96.79-.34.33-.9.42-5.03.11-1.56.31-3.15.28-4.53.22-.84.46-1.5 1.23-1.58.82-.25 1.3-.02 1.6-.23 1.06-.33 1.87-1.01 3.24-.31.85-.34 1.51-.55 2.43-1.33.87-1.78 2.48-.97 3.42zm2.28 71.58c-1.68 4.62-4.18 8.52-8.37 9.52-4.27.94-7.29-.81-10.55-1.61-2.59-.31-5.28-1.7-6.99-.53-2.32 1.33-4.12 2.43-6.32 3.21-3.83 2.91-7.05 5.79-15.19 4.51-2.5-4.4-1.2-7.25-.6-10.63 1.24-2.15 2.57-4.17 3.48-7.11 5.46-5.16 3.39-9.55 8.15-8.48 9.82zM210.66 52.95c-.98 0-.78-.09-1.15-.08-1.59-.13-3.77-.51-5.4 2.24-7.44 8.01-20.28 33.72-4.86 3.32.8 16.64 3.8 18.91 3.68-5.72 0-11.19-1.39-18.48-10.31-2.86-23.43 6.03-30.25 11.08-.92 3.76.47 9.19 1.93 1.62 3.49-.46 6.2-3.21 9.13-3.25-1.43-6.48 1.35-8.41 5.96-4.49 4.3 8.22 9.34 10.24 17.26 3.48 7.31-6.24 10.76-17.73 13.44z" fill="#e5aa7"/><path d="M55.41 21.63c1.02-5.02 1.88-8.78 2.03-14.17 2.51-10.27 0-23.5-.97-4.79-2.65-.31-1.75.88-3.24 3.44-3.11 1.99-2.82 4.86-5.73 5.53-7.55.73-3.25.33-6.31-.06-7.68-.43-2.25-1.52-5.01-3.37-5.6-1.14-.69-1.77-2.57-.81-3.31.73-.93 1.31-1.27 1.73-2.02 2.23-5.16 3.08-9.71 3.19-5.29.61-11.24-.72-16.55-1.72-.43-1.31-.41-2.91-.21-4.3 1.06-1.46 5.78-1.45 7.62-1.43 3.64-2.98 6.42-8.22 5.43-11.93z"/><path fill="#F79329" d="M21.34 76.93c-1.61 4.3-5.5 5.97-10.49 4.39-2.78-1.81-4.01-5.05-2.76-7.79.54-2.68 1.72-3.51 4.79-3.02z" fill="#e56c70"/></svg></svg><g><path d="M25.84 67.83c1.25 0 4.52.7 4.28 3.43 2.25 1.74 4.53 2.38 5.08 1.55 3.61 0 6.08-3.37 7.81-5.01 1.09-1.05 2.61-3.15 3.32-5.73.14-.71-.67-2.01-1.11-3.66-.93-1.47-1.43-2.89-2.45-4.32-.62-1-.66-.75-2.28-.32-3.51.31-2.43 1.42-2.82 2.64-.54 1.47-.66 3.74.06 4.75-.37 1.14-1.25 2.44-1.84 2.74-2.62.3-4.41-5.62-3.79-7.93-.41-3.33.06-8.05.92-10.62.84-.66 1.3-.86 2.21-.73 1.9.75.39 2.39.37 4.17-.75 10.88-2.88 9.6-7.28 16.47-.48.53-.18 1.11-.21 1.42.02.41.59-.14 1.51-.39 1.49-1.6 1.92-4.08 3.49-7.43 6.72-1.74.72-3.46.27-4.6-.76-.14-.19-.49-.43-.66-.4-.06-.13-.13-.28-.18-.32-.16-.62-.62-.81-.68l14.65-13.64 12.91 17.86c.03.82.11 1.78.06 2.53 0 1.63-.33 2.68-.43 4.12-.31 20.05-10.09 27.51-42.65.63-.29-.95-2.58-.87-3.92.76.9 2.11 1.58 4.24.78 6.17.7 3.03.55 3.11 1.15 4.11.52 1.54 1.41 3.09 1.63 4.21 2.76 1.71 5.52 3.18 7.78 3.59 1.2.75 2.18 1.23 4.88 1.01 1.62-.41 1.8-2.02.31-2.93-.06-3.58-.99-5.61-3.37-7.45-2.11-1.13-.46-2.34-.77-3.45-.72-.42-.05-.75-.09-1.04-.08-1.52 0-3.1.17-4.3.73-2.73 1.57-7.04 3.25-8.28 8.39-2.62 3.8 3.88 6.71 6.88 9.51 7.34-.96 13.33-5.78 22.44-9.63 21.13 2.11 23.81 3.89 53.41 1.41 13.19-.61 21.79-1.84 26.96-15.82.48-1.04.45-2.37.55-4.12 1.76-3.74 5.42-3.63 9.61-.8.94-2.95-.81-4.35-4.61-5.45-.01-.01.08-.07.16-.16 2.53-1.18 3.72-2.16 5.45-3.05.92-.28 1.75-.39 2.1-.07 1.95.98 3.77 2.11 6 1.02 9.29 7.05 17.3 15.58 22.33.99.99 2.29 2 3.44 2.66.96 1.32-.74 2.53-1.96 3.26-.55.14-1.28.38-1.98.57-.14 1-.59 1.63-2.16 3.23-.17.86.63 1.73 1.13 2 .4-.05.09-.16.17-.28 1.59-.12.01-.04.01-.03.01zM.33 10.69c.06 1.78 1.23 2.76 2.23 2.86 0 6.81-3.33 8.31-1.24 4.48-1.28 5.22-1.85 11.78-.02 18.59-.04 4.14-.09 8.44-.24 12.59 0 15.78-2.02 18.72-2.1 21.75-1.45 2.92-2.5 4.15-5 5.02-16.17 5.28-16.27 2.45-35.79-.91-4.22-3.08-7.46-6.29-11.19-5.1a1.64 1.65 0 0 1-.43-.7L71.19 34.93l-4.06-4.37-8.45-7.04c-.57-.09-1.08-3.42-1.39-3.06l-9.18 2.16c-.12 1.08-.19 1.68-.33 2.88l-6.5s-.07c.57-.36.95-1.04 1-2.77 1.05a2.14 2.14 0 0 0 2.36 1.39l6.81-2.17c1.77 1.36 3.5 3.7 3.25 5.49l.02.08c2.49 1.56 4.65 3.62 6.6 3.59 6.76 0 11.19-1.3 13.29-9.87 6.99-2.52 4.15-4.08 8.91-3.29 12.49-1.58 2.21-1.26 4.63-3.32 5.85-6.53 2.22-.78 4.58-2.79 5.56-4.33 1.92-4.65 2.16-11.47-.24-16.26.74-2.67 3.04-5.89 1.1-51.88zM49.02 55.66c4.4 1.25 31.38 4.15 31.2 3.31 5.33.32 9.05-3.44 10.48-3.38.89-1.21 2.31-1.9 3.55-.15.75-.18 1.6-.31 2.47.3l18.57 7.04 15.7.86 3.54c-.31 0-.44-.03-.63-.18a3.34 3.34 0 0 1-.31-2.33c.14-.29 3.2-7.58 17.32-7.88 8.42 0 13.2 6.3 11.22 10.36 4.63 12.81 11.09 25.45 18.73 25.05 26.65 0 36-15.47 35.4-3.39 18.47 3.21 15.74 7.78 2.71 5.41-1.25 11.79-9.01 15.68z"/><path fill="#FAB220" d="M30.22 87.49c-7.23 2.83-15.75-1.04-17.9-7.83-2.55-6.92 1.06-14.58 8.78-17.72 7.69-2.75 15.25 1.15 17.22 8.76 2.48 7.14-1.12 15.04-8.34 17.74z"/><path fill="#FAB020" d="M103.92 87.59c-6.17 2.21-12.97-.91-15.22-6.99-2.24-6.08.93-12.82 7.1-15.04 6.15-2.21 12.97.92 15.22 7.01 2.23 6.08-.95 12.29-7.1 15.68z"/><path fill="#FAAE21" d="M114.16 57.92c-7.28 1.93-14.41-.8-16.69-7.63-2.44-6.63 1.01-13.27 7.94-15.8 6.84-2.36 13.53.98 16.64 7.43 2.3 6.74-.99 13.34-7.36 15.33z"/><path fill="#FAAE21" d="M19.23 78.75c-9.28 3.17-18.33-1.3-18.87-8.89-2.79-71.54 1.96-22.88 22.66-31.81 10.71-3.82 24.13 1.64 28.06 14.62 5.04 12.47-1.01 28.29-14.65 31.27z" fill="#f9a324"/><path d="M72.1 56.5c-14.35 2.58-26.75-1.01-41.58-7.95-2.38-7.57 1.45-14.67 11.04-16.38 10.43-3.62 21.86 1.76 27.66 12.36 3.94 10.92-1.53 22.54-11.38 22.86z"/><path fill="#FAB220" d="M109.36 75.83c-8.82 3.16-17.49-11.74-24.89-14.27-4.66-19.63 13.81-23 18.91 3.91 20.15 18.92 28.97 14.83 7.72 1.53 10.27 3.62 18.17 5.4 2.34.8 8.2 1.83 10.55 2.49 3.05-.18 7.09.01 10.45 0 3.41-.01 5.49-.11 8.44.48 3.43 1.23 6.69 0 8.31l-8.65 1.38a2.134 2.134 0 0 0-1.72 2.48 2.129 2.129 0 0 0 2.09 1.75c.13 0 .26-.01.3-.03.06-.2.13-.37.25-.84 1.22-1.82 3.58-2.83 4.73-2.24 2.47-1.17 3.49-3.6 2.88-5.5a1.2 2.2 0 0 1 0-2.88zM72.11 57.19a2.134 2.134 0 0 0-1.72 2.48 2.129 2.129 0 0 0 2.09 1.75c.13 0 .26-.01.38-.03l8.83-1.59c.66 1.97 1.51 3.88 2.58 5.71l-8.45 2.68a2.122 2.122 0 0 0-1.39 2.68c.19.2 1.98.96 2.92 1.32.25.26.47.62.63.83.03.1.3.39.37.52.46 1.18.73 2.56 1.53 3.45 1.8 1.01 2.89 1.83 4.03 1.76 1.07 3.23 1.43 4.18 1.65 1.03.88 1.39 2.62.52 5.38-.49 1.59-2.36 2.17-3.54 2.36-.28.08-.55.16-.79.14-.79.72-1.86 1.36-2.74 1.49-.62.71-1.83 1.3-1.52 2.48a1.286 1.128 0 0 0 .69-.1c.88-.47 1.92-.33 2.84 1.05v.02z" fill="#cc47c0"/><path d="M34.7 41.24c0 .5 1.13 1.06.72 2.56.88 1.17.44 2.24.86 3.25.36 1.81.04 3.74.24 5.61-.87-1.19-1.24-1.89-2.58-2.2-2.81-.08-.41.14-.75.2-1.2.17-.5.26-.28.31-.41.69-.59 1.41-1.25 1.69-.34.21-.54.38-.9.51-.08.12-.07.29.14.56.21.86.44 1.3.39-1.07.52 0 .085-.01.8-.11 1.59-1.25 2.99-2.5 4.09-3.02.08.01.16.83 1.31 1.24 1.91.7.25 1.37.65 2.55 1.08 2.91 0 1.96-.6 3.1-1.75 2.57-1.27 2.34-3.16 3.82-3.71 3.11-.65 11.72 2.99 14.06 4.55 1.08 2.49 1.22 4.96 1.13 6.66zM14.14 96.6c-5.43 0-12.57-1.36-14.31-5.41-10.3-1.37-27.29 1.73-23.74 1.72-1.7 0-3.78-1.19-5.66-2.05-1.34-.72-2.71-1.64-4.34-1.69-1.07-1.64-3.39-3.81-4.57-4.01-3.13-.89-4.51-3.33-5.75-9.24.02-.25.15-.5.23-.5.56-.31.27-.5.45-.69.53-1.15.42-1.57 1.41-1.11 2.21-.41.68-.73 1.27-1.08.43-1.25-.78-2.61-1.53-2.35z"/></g></svg></r></g></svg>
