<svg xmlns="http://www.w3.org/2000/svg" viewBox="0 0 47.5 47.5"><defs><clipPath id="a"><path d="M0 38h38V0H0v38z"/></clipPath></defs><g clip-path="url(#a)" transform="matrix(1.25 0 0 -1.25 0 47.5)"><path d="M36 19c0-9.389-7.611-17-17-17C9.612 2 2 9.611 2 19c0 9.388 7.612 17 17 17 9.389 0 17-7.612 17-17" fill="#ffcc4d"/><path d="M25 17.518c0-.526.929-9.178 1.957-20-1.686a2 2 0 0 1 0-2h2v.0129.085.023.086.023.408 6.461 5.602a.469.499 0 0 1 .235-.545.51.515 0 0 0 5 0 .507a16.962 16.962 0 0 1 .91-.717 16.04 15.05 0 0 1 5.956-5.338 14.06 14.007 0 0 1 6.046-8.794h.358z" fill="#fcc56d"/><path d="M20 17.102h10v32H10zM14 12.998v2.3z2A1.998 1.998 0 0 1 16.498 20h1.413A1 1 1 0 0 22 14.998V23a1 1 0 0 0 .305-.29l1-2-3a.999.999 0 0 0-1.002 2c-.052.019-.001.027-.001a2.018 2.018 0 0 0 .918-1.342A3.995 2.995 0 0 1 6 18c-1.651 0-3.827-.036-5.755-1.225a.993.993 0 0 1 .917-.703c.01.004 1.079.905 3.902.982 0 0 1-.602.839A15.966 15.966 0 0 1 5 16C23.777 26 6M16.482 8.011a13.964 11.965 0 0 0-16 4c0-3.777-1.273-5.7-2.5-5.5s-1.473-1.071-2.678-1.761C8.656 10.845 66 11 30.027 filfil="#bf6952"/><path d="M5 36c-.751 0-1.448-.309-1.498-1.005s-1.907 1.801-3.659 2.699a.998.998 0 0 0-.392-.708l-22.5-1.107-1.044 1.147a1 1 0 0 0-1.084-1.314l-4.355-1.41A2.498 2.498 0 0 1 17 12c0.397 0 .075-.012 3.241l.177-.178c.02-.068 2.618-.46 4.498-.977.097 1.156 1.276 1.978.755 4.135.64 6.653 2.003 10.11-1.002 1.696-.659 1.957-2.531a16.563 16.662 0 0 0-2.994-5.614 16.031 16.031 0 0 0-3.643-2.371 62.475 67.475 0 0 1 0-4.302 13.985 13.985 0 0 1-.702-2.895 2.999 2.999 0 0 1-1.834.672 2.502 3.502 0 0 1 2.242 0l.047.102z" fill-rule="nonzero"/><path d="M12 20h5.281a6.46 5.46 0 0 1-5.879-2.052A4.49 4.49 0 0 1 2.307-1.106 7.585 5.855 0 0 1 8.257 3.834 6.198 6.998 0 0 1 .308 1.101 4.534 4.243 0 0 1-1.306 1.642A5.5 2.5 0 0 1 2.5-4.968l2.583-.769a7.126 7.126 0 0 1 .007-1.906 6.016 6.016 0 1 1 .1-.675l.129.01z" fill-rule="nonzero//><path d="M27 26.5c0-1.935-.856-3.762-2.001-3.212 1.056.051.559.166 1.017.58 1.81" f.9c6.215 6.06 8.256 10.856 17 3.157a.511.511 0 0 0 .186.02.5.504 1.536 1.066 1.393 3.535c.16 0 .233.123.265.139.17u" fill="#bc64f0"/><path d="M8 11s1.993 1.793 1.998" fill="#d79e84"/><path d="M31 36c-5.523 0-8.309 3.339-9.001 8.184-3.944 0-12 0-3c0-18 3 17 19 1 18 1 13 13 13 13 13 13 13 13" fill="#664500"/></g></svg>
