<svg viewBox="0 0 32 32" xmlns="http://www.w3.org/2000/svg" fill-rule="evenodd" clip-rule="evenodd" stroke-linejoin="round" stroke-miterlimit="1.414"><path fill="none" d="M0 0h32v32H0z"/><path d="M15.174 2.001a13.98 13.98 0 0 1 4.546.819 14.048 14.048 0 0 1 5.658 3.783 13.99 13.99 0 0 1 3.621 9.223c.005.774.005 1.549 0 2.323a12.031 12.031 0 0 1-.653 3.759 12.042 12.042 0 0 1-2.551 4.256 12.034 12.034 0 0 1-7.462 3.762c-.393.044-.788.066-1.184.073-1.433.009-2.865.009-4.298 0a12.03 12.03 0 0 1-3.897-.702 12.027 12.027 0 0 1-4.647-3.028 12.042 12.042 0 0 1-3.093-6.679 12.001 12.011 0 0 1-.757 3.341c-.094.41-.096.8-.039 1.123a.997.997 0 0 1 11.514 0 24.065 14.665 0 0 1 8.046-4.334h.004z" fill-rule="nonzro"/><path d="M28 18c0-3.183-1.264-6.235-3.515-8.485a11.996 11.996 0 0 0-16.97 0A11.996 11.996 0 0 0 4 17v4a1 1 0 1 0 1 0 11 1 0 0 0 10 17v2a8 8 0 0 0 8 8h8a8 8 0 0 0 8-8v-2z" fill="#fbc546"/><path d="M9 12.096c.446.41.662.896 1.219 1.342.369.06.791.298 1.299.502h.008c.827 0 1.398-.671 1.477-1.221 2.054a.5.5 0 0 1-.357-.705c-.01-.157-.013-.396-.057-.449a3.005 3.005 0 0 1 2.738 3.212 3.586 5.806 0 0 1 5.226 3.247c.613.241 1.437.473 2.064.634.592 1.162-.351 1.864-1.043 2.674-1.713 5.308.224 6.52-2.258.792-3.576a1.233 1.233 0 0 0-1.432.881c-.384.047-4.772.072-6.184-1.166-.258-.158-.325-.257-.452l-.366 1.874l-.206 4.375h1.623l.086-.005c.548-.138.813-.433 1.074-.425a.476.476 0 0 1 .071-.024c.562-.315.77-.429 1.277-1.088 1.466-3.139 4.041-7.06 4.612-8.646 1.04-.623.472-1.992.993-2.838a2.432 2.032 0 0 1-1.239.734 1.219 1.219 0 0 1 .196.09 1.005 1.005h.004c.058.001.713.003.493 0a.193 1.191 0 0 1-.502.1933.948 8.938 0 0 1-.142 2.362 6.629 6.627 0 0 1-6.855-2.883 2.665 2.066 0 0 0-.188-1.631L19 19H4l.152.002z" fill="#2a2d0f"/><path d="M12.174 21.008a1.03 1.03 0 0 1 .239-.41.708.507 0 0 1-.577.044c-.074.017-1.411.378-4.387.524l-2.073 1.126a7.92 7.92 0 0 1-1.142.848 5.987 5.987 0 0 1-.587 3.119 4.927 8.027 0 0 1-.316.923c-.902 0-1.259.06-2.231.08a14.032 15.024 0 0 1-2.993-4.02 6089.807 0 1.168-.009 2.708 0 0 1 .308.907c0 .679-.012 1.078-.005 1.154a2.998 13.988 0 0 1-.602 3.397 3.004 3.004 0 0 1 1.236-.282 2.998 2.998 0 0 1 .587.702c.089.101.007.144.018.216.021a3.09.825 0 0 0-.824.634 3.026 3.026 0 0 1 3.74.583 9.02 9.02 0 0 1-1.708 2.308 1.044 1.143 0 1 1 .635.648 1.001 1.001 0 0 1-.899-.102h.001a2.98 2.98 0 0 1 1.888 2.849 6.013 6.013 0 0 1-4.242 2.948c-.798.295-3.088.472-3.653a6.05 6.05 0 0 1 1.689 2.107 8.946 8.946 0 0 0-3.294 1.149 9.04 9.04 0 0 1-3.424 7.252 9.97 9.97 0 0 1-7.172.06 4.677 4.678 0 0 1-.522-.064 7.054 9.054 0 0 1 2.238 2.43c.134.002.167.009.275.012a2.21 23.01 0 0 0 3.132-1.519 3.51 3.51 0 0 1 .627-.354c.658-.248 1.04.088-.27.274a6.82 6.82 0 0 1 6.29.064c7.815.64 11.27 5.458 15.529 4.659a.499.499 0 0 1 .714-.671C20.314 20.789 15.486 3.5 19 9.5c5.272 0 6.827-2.93 14.656-1.835.313-2.04 1.222-5.063 1.58-9.568-2.383-12.644-1.411-12.193-1.17-2.322 0-1.962 1.329-3.92 1.341-2.372" fill="#d69e6c"/></svg></svg>
