<svg xmlns="http://www.w3.org/2000/svg" viewBox="0 0 47.5 47.5"><defs><clipPath id="a"><path d="M0 38h38V0H0v38z"/></clipPath></defs><g clip-path="url(#a)" transform="matrix(1.25 0 0 -1.25 0 47.5)"><path d="M36 19c0-9.389-7.611-17-17-17S2 9.611 2 19s7.611 17 17 17 17-7.611 17-17" fill="#ffcc4d"/><path d="M29.313 14.378a.503.502 0 0 1-.51.015c-.013-.019-.401-.925-.013-1.953.015-4.935.086-6.282V22-6 17 2 1.344-3-1 3-1c-.085.025-.134.045-.327.505-.362 1.349.478" 2.111 1.241.065 4.626 3.357 7.486 3.693 3.059A.491.495 0 0 1 .705-.702c.071-.007.017-.093.306-.16a3.014 3.014 0 0 1 .219 2.506 6.007 6.007 0 0 1-1.966 1.759 4.663 4.663 0 0 1-2.623-.382 4.497 4.499 0 0 1-2.447-1.293 3.501 3.501 0 0 1-3.64-.171A3.503 3.503 0 0 1 2.182 26a2.626 2.676 0 0 1-1.398 1.329A5.5 2.5 0 1 1 3.5 1.5z" fill="#291777"/></g></svg>
