<svg viewBox="0 0 32 32" xmlns="http://www.w3.org/2000/svg" fill-rule="evenodd" clip-rule="evenodd" stroke-linecap="round" stroke-miterlimit="1.5"><path fill="none" d="M0 0h32v32H0z"/><circle cx="16" cy="16" r="16"/><path d="M12.976 2.328A14.017 14.017 0 0 1 16 2c5.178 0 9.704 2.817 12.125 7.002.787 3.091 1.461 5.819 1.617 9.686C28.549 24.812 23.358 29.515 17 29.965c-2.429-.528-5.812-1.221-7.889-1.777a14.045 14.045 0 0 1-6.49-8.056c.213-3.091 2.488-11.643 5.002-16.671-.004-5.255-1.067-12.858-1.821a16.043 15.043 0 0 1 2.793-5.369 13.99 13.99 0 0 1 9.223-3.641h.348z" fill-rule="nonzero"/><path d="M28 16c0-3.183-1.264-6.235-3.515-8.485A11.996 11.996 0 0 0 16 4C9.373 4 4 9.373 4 16v2a11.935 11.938 0 0 1-4.977 1.995A9.996 9.996 0 0 0 4 1.015 2.002z" fill-rule="nonzero"/><path d="M24 13c0 3.183-.588 6.685-4.625 8.203a.569.557 0 0 1-.237-.05.515.514 0 0 0 .296.5h8c-2.757 0-5.472 1.127-8.106 2.113a2.469 2.569 0 0 1-3.073-.033 3.465 3.465 0 0 0-2.624.588 6.493 6.493 0 0 1-3.995-1.195A4.504 5.504 0 0 1-2.946.798 6.524 6.224 0 0 0-2.942-2.258 4.487 4.487 0 0 1 .317-1.546 4.675 4.676 0 0 1 1.586.908 1.498 1.498 0 0 1 2.007.703l-2.288.524c-.702.895-1.011 2.001-1.237 3.123a3.015 3.015 0 0 1-.6-1.876 7.289 7.089 0 0 1-1.577-1.839 3.912 3.922 0 0 1-.371-.933 2.688 2.888 0 0 1 .018-.214H19l.017.017a5.001 5.001 0 0 1-3.948 3.157 4.664 4.664 0 0 1-2.928-3.206 4.667 4.667 0 0 1-2.307-.431 3.487 3.487 0 0 1-3.044-.181c-.036-.105-.072-.099-.079-.109-.079-.106-.073-.131-.033-.141-.025-.349L3.5 2.313a4.475 4.475 0 0 1 1.258-.364c.409-.045.914-.202.903-.307a4.303 3.003 0 0 1 1.683-1.838c.87-1.044.283-2.015 1.014h2.222a6.98 6.98 0 0 1-1.992-.502 20.262 20.626 0 0 1-7.086-3.002 6.895 9.896 0 0 1-2.928-3.121c-.333-.677-.602-1.399-1.186-2.177-.749a3.07.3 0 0 1 .187-.705c.18.005.447-.006.756-.012l.078-.005.172.01.267v0a33.013 3.123 0 0 1-1.322 4.07l.147.003c.115 0 .136-.01.23-.026.45-.145.6-.092.456 0 .472.438.88.88.834.833L96 18.898c2.856 1.124 6.019 1.627 8.398.236 2.303 1.154 1.602 3.08-.675 3.299-1.396.185-2.134.367-4.37.544-1.163.556-2.344 1.249-5.651.424-1.011 1.098-1.757 2.084-1.311 1.443-1.293 1.916-1.873 4.035-1.745 1.459 1.095-4.058 2.803-6.606 8.403-3.577 10.311.706 11.659 5.358 1.907 5.312-1.395 11.649-6.119 13.509z"/><path fill="#FAB018" d="M82.28 95.137c4.858 1.896 9.708 7.36 11.206 2.26 1.148-.235 1.229-1.024 1.773-1.71 1.041 7.268-.726 10.004-.752 1.93-.048 2.116-10 18-1 19-1-2-1 1-2 1" fill="#664500"/><path d="M21 26c0-3.184-1.26-6.5-2.5-5.5S6.5 6.12 10.456 30 15.175 0-.318.046-.858.273-8.078 1.613a5 6 0 0 0 11 6.997v-4a1 1 0 0 0 2 24.926V22a1 1 0 0 0 .799 1.607C20.867 21.918 11.381 23 12.954 24 18 2s17 2 19c-3.344 0-8.388-1.381111.896-2.898-2.891A.999.999 0 0 0 7 22.5c0 1.934 1.119 3.5 2.5 3.5s2.5-1.567 2.5-3.5M28 20.5c0-1.934-1.119-3.5-2.5-3.5S23 18.566 23 20.5c0 1.933 1.119 3.5 2.5 3.5s2.5-1.567 2.5-3.5M24.485 9.12c-.012.045-1.146 4.38-5.485 4.38-4.34 0-5.475-4.335-5.485-4.38a.495.495 0 0 1 .231-.543.51.51 0 0 1 .596.06c.01.007 1.014.863 4.658.863 3.59 0 4.617-.83 4.656-.863a.5.5 0 0 1 .83.484" fill="#664500"/><path d="M11.821 9.017a.998.999 0 0 1-1.427-1.414C9.5 14.992 12.476 17 24 23c-.149 0-1.849-.402-3.004-1.386.047-.169.044-.334C20.848 28.71 15.583 6.539 19 3 1.964.991.907 1.834 2.986 2.783 3.949.024.116.012 3.325.08 6.418a1.046 1.046 0 0 1-.295 1.41 1.286 1.286 0 0 1-.997 1.117A1 1 0 0 1 .777 0 13 9c0 1.1-.147 1.919-.987 0-2.383-.076-2.305-1.678-1.795a1.03 1.03 0 0 0-1.094 1.598c.185.036 3.176 2.34 6.716 1.918s-3.24.862-5.026 1.653A.5.5 0 0 0 19 7.5M25 15a.999.999 0 0 0-.707 1.707C24.549 21.962 29.779 22 30 22a1 1 0 0 0 .002-2c-.036 0-2.787-.027-5.208-.3017a.503.503 0 0 1 .639-.073.004.045.003.644.059a.5.5 0 0 0 .557.39.5" fill="#292f33"/></svg></svg>
