<svg xmlns="http://www.w3.org/2000/svg" viewBox="0 0 47.5 47.5"><defs><clipPath id="a"><path d="M0 38h38V0H0v38z"/></clipPath></defs><g clip-path="url(#a)" transform="matrix(1.25 0 0 -1.25 0 47.5)"><path d="M36 19c0-9.389-7.611-17-17-17S2 9.611 2 19s7.611 17 17 17 17-7.611 17-17" fill="#ffcc4d"/><path d="M28 17.5c-2.6 0-5.355-2.36-6.421-5.465A.502.502 0 0 1 .23-.773c.007-.002 1.513-2.852 6.4-6.364 2.959-2.046 1.238-4.653 2.448-9.236.241-2.777 0-6.398-1.669-7.303-1.806a.995.995 0 0 0-.707 1.707M24.717 29H10l.001-3.652c-.942-.858-1.64-1.802-2.733-2.735C2.79 2.75 12.472 2.5 26 2.5M25 20a2.499 2.999 0 0 1-.447-1.413 1.004 1.004 0 0 1 .61.936c.089.535 1.17 1.409 1.038 1.61a.402.402 0 0 1 .587-.727c.012.067.098.725 1.156.706 3.512.072 7.921-.027 8.225-.006.094.013.482.156.567a3.003 3.003 0 0 1-.304 1.734 3.502 3.502 0 0 1 1.175 3.415 3.436 3.436 0 0 1 2.855 1.166c.311.188.716.406 1.168.777l.709 1.824 1.994 1.095 1.692 1.966a4.11 4.11 0 0 1 .309.181 13h.76l33.476 0 0 1 2.207 3.305 149.99 15.99 0 0 1 4.246.899 15.04 14.04 0 0 1 5.906-4.394A13.942 13.942 0 0 1 6 4C9.773 8 0 0 1 18 11v2a2 1 0 0 1 2 0v-1a1 1 0 0 0-1-1h-2a2 1 0 0 0 1-2v-1z" fill="#bf6952"/><path d="M5 35c4 0 3-10 3-10s0-6-3-6-3 2-3 2-1 14 3 14 14 5 13 24-1 1-2 0-1-9 1-3 19 1 9 1-9 1-9-9-9-9-3-9-5" fill="#fff"/><path d="M3 11.086V6.642c0 1.727-.329 2.959-.997 3.958.001a1.498 1.498 0 0 0 16 15.5c1.5 3.42 6.581 3.967 8.295A16.999 13.999 0 0 1 6.1 6.1a14.06 14.06 0 0 0 5.086 3.005A13.99 13.99 0 0 1 6.02 3.907 33.98 3.98 0 0 1-3.099 4.102 8.98 8.98 0 0 1-2.729 6.14B9.997 9.997 0 0 1-2.818 6.014A13.99 13.99 0 0 1 6.09 1.967A15.004 14.004 0 0 1 20 16a2 2 0 0 1-2 2z" fill="#292f33"/><path d="M9 14.049c-2.164 0-2.089 1.182-2.221 2.501C30.518 25.521 33 29 26a1 1 0 0 0 .004-2c-.155-.002-3.568-.086-6.204-3.6a1 1 0 0 0-.801-.4" fill="#292f33"/><path d="M9 12s5-2 10-2 10 2 10 2 0-3-1-3-2 1-2 1-4-2-7-2-7 2-7 2-1-1-2-1-1 3-1 3" fill="#f5f8fa"/><path d="M19 17.5c3 0 3-.5 3-1.5s-1.5-3-3-3-3 2-3 3 0 1.5 3 1.5" fill="#67757f"/><path d="M27 16.5a.502.502 0 0 0-.158.975l9 2.999a.5.5 0 1 0 .316-.948l-9-3.001A.511.511 0 0 0 27 16.5M25.999 14.5a.5.5 0 0 0-.097.99l10 2c.26.054.534-.12.588-.392a.498.498 0 0 0-.392-.588l-10-2a.475.475 0 0 0-.099-.01M11 16.5a.516.516 0 0 0-.158.025l-9 3.001a.499.499 0 1 0 .316.948l9-2.999A.5.5 0 0 0 11 16.5M12 14.5a.489.489 0 0 0-.098.01l-10 2a.5.5 0 1 0 .597.98l10-6A.5A.505.502 0.502.067.098.077 0 0 0-1.269.935L27.8 22.152a.998.998 0 0 0-1.027-.179.998.998 0 0 0-.633 1.244C10.177 19.693 11.753 25 14 25c2.645 0 3.823-3.307 3.949-3.684A.999.999 0 0 0 17 15" fill="#664500"/></g></svg>
