<svg width="128" height="128" xmlns="http://www.w3.org/2000/svg" xmlns:xlink="http://www.w3.or//o999Cxlink" xlink:-r128" cx="44.01" cy="55.01" rx="46" fill="#fff"/><clipPath id="c"><use xlink:href="#b" overflow="visible"/></clipPath><path d="M51.76 71.35c-3.76 6.49-5.13 12.24-9.02 16.29-9.46 2.53-.71 5.61-.39 6.38-1.22 5.33-2.67 9.68-7.34 12.62-9.73 1.7-.92 3.58-.76 6.12.17 12.15-.67 3.54-1.36 6.24-1.01 1.4.73 1.98 3.9.93 5.37-.21.5-.48.61-.75 1.21-.63.9-.18 1.87-.33 2.19zm-3.68-5-.57 1.06-10.03l-.02-.06c.02-.05 1.61-.03 2.72-.37.59-.01 1.34-.49 1.63-.5.52-.24 1.38-.64 1.72-1.18 1.54-2.05 3.52-2.35 3.73-.9.43-1.67.27-2.9.28-5.2 13.28-49.74 5.72-35.04 12.21-5.84 19.4-.81 29.48 1.94 42.55 1.34 9.62 1.89 13.48.64 7.66-2.13 43.94-10.46 42.21-10.01 3.84-2.7 8.31-3.27 10.15-5.2 1.86-.64 4.58-.45 5.79.98.92 2.45-.36 5.25-2.8 5.21z"/><path fill="#F79329" d="M27.35 78.28c-1.32.47-2.79-.2-3.27-1.51-.48-1.3.2-2.76 1.53-3.23 1.32-.47 2.79.19 3.27 1.5s-.21 2.7-.9 3.87z"/></svg></svg>
