<svg xmlns="http://www.w3.org/2000/svg" viewBox="0 0 128 128"><ellipse fill="#FBB817" d="M26.22 23.24c-.59-.92-1.03-1.45-1.43-2.03-.16-.87-1.83-1.48-2.37-1.89-1.18-.41-2.31-.82-2.84-1.11-.27-.26-.33-.45-.42-.58l.53-.6c.4-.35.93-.76 1.38-1.21.36-.32.65-.24.98-.31.15-.01.21-.03.43-.02.04-.04.09-.04.11-.02 1.79-.28 2.06-.4.42-.7-.46-.92-.89-1.34-1.44-.46-3.71-.13-5.44-.33-1.04.32-2.05.84-3.42.1-.18.06-.41.14-.65.32-1.07.81-2.45 1.5-3.54.9-.29 2.63-.23 2.58.01.41.01 1.21.07 1.61.01 5.51 1.92 9.39 8.34 9.17 13.31z" fill="#2f2f2f"/><g><path d="M84.84 72.79c-9.48 0-12.61 4.66-21.05 4.66s1.93 21.65 2.13 33.16l.99 1.99c-.07.01-2.01.11-2.59.57a3.073 3.07 0 0 1-2.59-1.79H34.74c0-2.35-1.5-3.6-3.81-4.07-4.86v3.03c-2.55 7.4-2.47 11.3.21 11.34 7.76 3.69 10.7 3.88 19.15 1.27 2.33 1.14 5.18 1.82 7.81 2.73 8.76 13.3 11.68 26.98 1.91.17 8.63-3.21 17.67-13.42 5.33.29 13.88 5.55 19.04 10.49 5.29 4.53 10.7 9.33 16.72 9.23 2.82.62 5.77 1.61 7.01 4.36 7.22 3.34 8.61 7.35-2.39 13.15-7.04 4.36-5.04 6.76-9.46 8.78-14.18z"/><path fill="#FCC21B" d="M90.47 75.05c-14.63 2.78-27.34-1.1-50.82-12.89-4.09-11.13 1.76-24.49-13.45-32.21-8.54-6.17 3.02-13.54 15.3-29.49 10.65-5.44 8.04-11.08 15.62-11.83 31.85-5.09 5.79-6.71 14.03-1.1 2.99.98 1.81 3.29 3.11 5.89 3.92z"/><path fill="#2F2F2F" d="M52.43 77.06c.43-.12.87-.37 1.27-.48.95-.33 1.75-.31 2.35-.6 2.01-1.6 1.99-3.83 2.1-5.26-.08-.63-.62-1.71-2.25-1.49-.56-.34-1.44-.7-2.41-1.14-.16-.35-1.52-.55-2.34-1.18-1.65-.33-3.19.58-4.52.93-4.12 2.38-6.4 5.79-9.14 9.45-7.05.28-10.18 0-14.23.61-1.91.31-1.96 3.92-1.27 6.06.53 1.11.82 1.7 1.28 2.42.39.57.77 2.57 1.21 2.27.04.09.08.27.12.26.05.45.1.84.1 1.26 0 1.44-.28 3.1-.45 4.02-.76.27-3 .31-3.08.06z"/></g></svg>
