<svg xmlns="http://www.w3.org/2000/svg" viewBox="0 0 47.5 47.5"><defs><clipPath id="a"><path d="M0 38h38V0H0v38z"/></clipPath></defs><g clip-path="url(#a)" transform="matrix(1.25 0 0 -1.25 0 47.5)"><path d="M35.964 25.045L36 25s1 10 0 11c-.91.91-6.771-.66-7.822-.951-2.426 0-4.695.785-4.643 3.058a3.993 3.993 0 0 1 4.399 7.193c.015.411.087 1.077.37 1.532a3.503 3.503 0 0 1 2.122 6.01c.012.126.016.214.016 2.65.105.117.012.158.021.317.021.069.029.07.027.768 11.85c-.124.047-.146.044-.354 1.047-.494 1.099-1.001 0-1.942-1-3-1" fill="#292f30"/></g></svg>
