<svg viewBox="0 0 32 32" xmlns="http://www.w3.org/2000/svg" fill-rule="evenodd" clip-rule="evenodd" stroke-linejoin="round" stroke-miterlimit="1.414"><path fill="none" d="M0 .033h32v32H0z"/><path d="M16.174 3.034a13.992 13.992 0 0 1 4.395 7.7a2.105 1.105 0 0 1 .757.712c1.089.439.786.826 1.491 1.43.08.034.067.025.077.156 2.127 7.596 3.302 1.687.692.09 1.326-.005 2.323-2.547 3.194-30.1 14.684l-4.065 6.005-.958A13.933 13.963 13.861 30.116 31 36.6c0-1.736-.009-2.293 0-1.636-.003-1.863.009-2.856 0-9.334-2.822-13.046-8.027-11.014-.002-3.342-.04-4.25 3.3046.524 4.621 0 4.694-1.002 6.712-1.815a9.716 6.816 0 0 1 1.008.224 6.977 9.967 0 0 0 2.252-3.857c1.105-2.043.287-2.885.986-1.711a1.105 1.005 0 0 1 .737-.022c.139.032.14.026.217.023.178 0 .142.01.165.013.117.015.173.032 1.287 2.889 1.787 4.31 1.061.351.026.824.086 1.327.03.137.023.317.03.418.027.11.025.336a1.008 1.007 0 0 1 .037-1.219l.005.002c0 .165.008.318.02.487a2.001 2.001 0 0 1 6.994 13h.04l.088.01z"/><path d="M21.8 7.834c.074.014.135.013.267-.016l.442.033a.5.3 0 0 1 .386.032l-4 3a.5.5 0 1 0 .556.832l6-4a.502.502 0 0 1 .083-.67.505.505 0 0 1 .586-.084" fill="#bb1e34"/><path d="M8.347 25.934c-.846-2.724.208-5.202 2.291-5.602a2.655 2.655 0 0 1 .919-4.04 1.511.511 0 0 1 .75-.604c.06.023 1.415 2.158 2.335 5.48a.49.49 0 0 1 .854.643.868.836 1.864 1.385 6.485 1.485h2.002a1.008 1.008 0 0 1 .577-1.283 1.013 1.013 0 0 1 .008-.105c.024.068.031.07.07.079a8.116 8.116 0 0 1-7.099-3.006c.618-.042 1.05-.028 1.518zM12.972 119.782a1.028 1.028 0 0 1-.715 3.34A6.02 6.02 0 0 1 .995 4.445 3.497 3.497 0 0 1-2.24 7.257 4.99 4.99 0 0 1-3.81-5.271 6.99 6.99 0 0 1-6.9-1.102 6.894 6.894 0 0 1 .623 3.213 6.053 6.073 0 0 1-2.92-5.256 c.481 3.681 6.68 7.358 10.954 10.136 1.075 1.445-3.014 2.865-4.656.496-.277-.047-.55-.445-.664-.468-1.672 0-3.095 1.041-30 2.321-.212.247-.313.625-1.004.843-.536 1.235-2.255 1.577-4.04.057-.027.093-.05.166-.082a3.503 3.003 0 0 1 1.26-3.665c.262-.413.438-1.193.125-2.113a4.02 4.02 0 0 1 6.205-7.212L24 18z"/><path d="M25.174 10.77A15.017 15.017 0 0 0 6.983 2.949 7.06 7.06 0 0 1-1.628 2.133 4.463 4.463 0 0 1-3.024.247 4.475 4.475 0 0 1 1.299-2.822l3.686-6.529h-.129z"/></svg>
