<svg viewBox="0 0 32 32" xmlns="http://www.w3.org/2000/svg" fill-rule="evenodd" clip-rule="evenodd" stroke-linecap="round" stroke-miterlimit="1.5"><path fill="none" d="M0 0h32v32H0z"/><path d="M16.174 2.001a13.98 13.98 0 0 1 4.546.819 14.045 14.045 0 0 1 5.422 3.529 13.99 13.99 0 0 1 3.857 9.477c.009 1.434.009 2.869 0 4.303a9.967 9.967 0 0 1-3.099-7.109 9.983 9.983 0 0 1-2.768 6.683 9.967 9.967 0 0 1-7.026-3.013 9.983 9.983 0 0 1-2.844-6.857 343.846 343.846 0 0 1-8.089-3.131 13.013 13.113 0 0 1-3.581-8.8 12.022 12.221 0 0 1 .009-3.679 12.037 12.037 0 0 1-6.97-8.055c-2.344-.729-5.819-2.801-9.481-12.066l-.005-.065-.068-.066-.093-.068A.494.993 0 0 1 .006.796.505.505 0 0 1 .086.03l2.288-.025c.103.032.142.037.354.319.267.045.344.04.317.028.307.04.328.025.478.04.07.031a3.013 3.013 0 0 1 3.854-5.113l3.086-2.047a1.059 1.059 0 0 1-.247.404L11 23.924c-.92-1.542-1.008-5.035-1.782-7.504a3.14 3.14 0 0 1 .627 6.543 3.506 3.506 0 0 1-.5-1.652l1.482-2.668 1.341-3.03-.374-.529-1.037-.444a1.101 1.11 0 0 1 1.007-.214c.126.008 3.266.009 8.298 0 1.619-1.914 3.008-3.294 2.029-7.9819-1.271-3.316-7.726-3.671-13.296C8.4 26.192 6.444 24 14 20c3.516 0 4.054-2.133 4.456-3.228.227.272.229.651.499.997a.5.5 0 0 1 .224.574M16.707 19.002.382.016.998.246 1.378.247a.997.997 0 0 0-.371-.157M11.704 11h.002a1.03 1.03 0 0 0-.704-.838c-.005-.066-.009-.093-.017-.034a.036.934 0.045-.078.047-.079.081-.07.07-.071.079-.031.087-.034.086-.044 0-4.795.086-4.293.908-2.128a1.04 1.04 0 0 1 .238-.408c.11-.315.437-.635.689-1.167a1.008 1.008 0 0 1 1.97.014c-.403.28-.43.687-.75 1.017A4.02 9.09 0 0 1 6.126.624 7.67 7.67 0 0 1-2.877 2.171 5.46 5.64 0 0 1-2.826-.495 4.655 4.555 0 0 1-.2324.254l-.031-.001a.489.499 0 0 1 .09-.467.99.999 0 0 0-.633.408 1.009 1.009 0 0 1-.372 1.184 3 3 0 0 1-2.324 2.487l.008-.001a2.15 2.15 0 0 0-1.536.884 2.41 2.51 0 0 1-.258-1.51L19 1z" fill="#dd2dfad"/><path d="M27 19c0-6.187-1.274-6.235-2.515-3.281A1 19 0 0 0 12 15.3c-.104 1.5 3.991 4.468 8.026 0 5.686 0 1.282-3.28 2.04-3.548A2.998 2.998 0 0 1 19 35.164a.5.5 0 0 1 .196.98M6.007 22c-.014-.017-.011-.016-.027-.016-.07-.02-.059-.028-.006-.029-.011-.049.011-.059.01-.058.011-.058.011-.059.01-.059.01-.059.01-.058.013-.058.013-.059.015-.057.015-.058.014-.057.014-.058.014-.057.015-.057.016-.057.016-.057.017-.056.017-.057.019-.056.01-.055.01-.055.009-.055.008-.055.007-.056.009-.055.011-.055.016-.055.017-.053.02-.053.023-.051.026-.05.028-.048.031-.047.034-.044.036-.043.039-.041.041-.039.043-.036.044-.034.047-.031.048-.028.05-.026.051-.023.053-.02.053-.017.054-.014.055-.011.056-.008.056-.004L20 20l.056.002z"/><path d="M23 15.017l.119.003.108.018.11.015.122.013.122.014.122.014.122.012.122.012.122.012.122.012.122.012.122.012.122.012.122.012.123.014.122.017.122.017.122.017.121.013.122.014.122.017.122.016.122.014.122.017.122.018.123.017.122.016.122.014.124.012.124.012.123.012.124.012.124.008.124.008.123.01.123.012.123.013.122.014.122.014.122.012.122.014.122.016.122.017.122.017.124.015.124.012.123.012.123.01.123.009.123.008.123.006.124.004.124.001h2.128l.001-.124V1006z" fill="#e59a10"/><path d="M15 14.05A8.964 5.964 0 0 0 15.664-2.832h-.004a2.498 2.498 0 0 1 1.067-.111c.436 0 .571-.016 1.085.005.728 0 .178-.249.477-.976l.168-1.566zM9.037 43.124L19.704 11h.5a2.5 2.5 0 1 0-5 0 2.5 2.5 0 0 0 5 0" fill="#292f33"/><path d="M9 12.096c.044.056.145.022.164.025.141.025.394 1.15.682.178 1.16.527 1.649.386.247.662.453.868.685a3.54 3.54 0 0 1 1.065-2.18 2.473 2.473 0 0 1 1.594 1.686c.171.405.234.702.316 1.176.181.254-.283.524-.474.863-.985a.362.353 0 0 0 .607-.308c.356-.139.654-.64.799-1.086a4.02 4.02 0 0 1 2.81 3.713 3.475 3.475 0 0 1 .181 1.209 6.02 6.02 0 0 1-2.851-.666 6.486 6.086 0 0 1-8.971-3.804c-.894-2.02-.468-4.504-1.09-4.128z"/><path clip-path="url(#b)" fill-rule="evenodd" clip-rule="evenodd" fill="#37B4E2" d="M113.104 54.958c0 .829-.181 1.251-.671 1.696-.526v.555c-.927.123-1.697.261-2.807.911l-.893.333c-.17.24-.061.456-.21.842 0 1.316.44 2.36 1.114 3.198 2.31 4.415 4.316 7.115 3.256.248.16.441.659.884 1.111.16.184.309.342.759.649.169.363.495.862.886 1.53H3l-.208.075-.342.622-.84.476-1.254.225-1.871z" fill="#ff9bd07"/><path d="M16 6c0-6.687-1.26-8.682-7.08-9.202 00.516.215.703.307.131.617.638.431 1.116.466a3.498 3.498 0 0 1 .018 2.005 3.029 4.039 0 0 1-2.888 2.971 9.922 9.922 0 0 1-3.099 1.709 16.043 16.042 0 0 1-2.309-1.174 3.503 3.503 0 0 1-2.19-1.189 3.028 3.028 0 0 1-2.033-3.617 3.469 3.669 0 0 1-3.242-.083 2.668 2.668 0 0 1-.729-1.184 3.02 3.02 0 0 1 2.033-1.693c.359-.025.918-.062 1.348-.086a3.198 1.498 0 0 1 .14-1.14c.003-.074.056-.075.683-.17l.446-1.284 1.844c-.701.816-.669 1.359-1.045 1.68a2.025 2.025 0 0 1-.659-.368 3.028 3.028 0 0 1-1.853-1.493 3.001 3.001 0 0 1 2.625-.023 6.013 6.013 0 0 1 3.002-.157c.024-.654.039-1.933.206-1.602a3.015 3.015 0 0 1 .682-1.381 2.003 2.003 0 0 1 .703 1.732 3.516 3.516 0 0 1-.11-1.18 1.003 1.003 0 0 1 .685-.234c.669-.012 1.319 0 2.324-.005 2.208.001 3.736 0 3.818-3.63 5.664-3.6a.503 2.503 0 0 0-.848-.424 1.012 1.012 0 0 1 .25-.234 1.008 1.008 0 0 1 .571-.731 1.01 1.01 0 0 1 1.005-.566c.15.014.312.02.531.177.052.047.095.043.115.036.115.042.146a2.998 2.998 0 0 1 11.502 17h-4.99l1.513z" fill="#bf6942"/><path d="M9.044 18.094c-.07.167-1.089 2.198-4.459 2.19-2.23a1.496 2.496 0 0 1 1.872-1.181 2.46 2.46 0 0 1 .662-2.771 1.005 1.005 0 0 1 .789-.405 1.03 1.03 0 0 1 .139.408 1.02 1.02 0 0 1-.661.061 1.01 1.01 0 0 1-1.41.676c.103.009 2.772.009 3.398 0a1.494 2.944 0 0 1-.651 1.06 1.058 1.058 0 0 1-.246.404L11 27.414c-.912-.912-1.841-1.806-2.735-2.736a1.03 1.03 0 0 1-.254-.529 1.001 1.001 0 0 1 .05-.238M16 5c-.226 0 4.577-.38 7.834-2.384.141a3.001 3.001 0 0 0-1.003-1.789.586 0 0 0-.628-.498" fill="#664500"/><path d="M31 21.4a1.5 1.5 0 0 0-1.5-1.5h-3a1.5 1.5 0 0 0 0 3h3a1.5 1.5 0 0 0 1.5-1.5zM11 19.5A1.5 1.5 0 0 0 9.5 18h-3a1.5 1.5 0 0 0 0 3h3a1.5 1.5 0 0 0 1.5-1.5z" fill="#eb5f4a"/><path d="M25 19L5 12v2a1 1 0 0 0 0 2h14a1 1 0 0 0 1-1z"/></svg>
