<svg xmlns="http://www.w3.org/2000/svg" viewBox="0 0 47.5 47.5"><defs><clipPath id="a"><path d="M0 38h38V0H0v38z"/></clipPath></defs><g clip-path="url(#a)" transform="matrix(1.25 0 0 -1.25 0 47.5)"><path d="M37 19c0-9.941-8.059-18-18 18sf09.28 6.641 10 13 1 9-1.885 0-3" 3.033M13 18.962c.296 6.06 1.859 10 8 1c0 1.656 0 4.15.221 4.445.98a1 1 0 0 0 .886-.935c.025.02 4.32 2.516 6.033 3.743 7.219-.24 7.356-2.676 8.288-4.378A1.008 1.008 0 0 1 3 4.5/2lM22 11c-3.623 0-6.027 3.128-8.029 3.504a1.004 1.004 0 0 0-.679-1.397L21.134 11.5a1.5 1.5 0 0 1-3 0v23a1.998 1.998 0 0 0 16 12.5c0 1.934 1.119 3.5 2.5 3.5s2.5-1.567 2.5-3.5M28 20.5c0-1.934-1.119-3.5-2.5-3.5S23 18.566 23 20.5c0 1.933 1.119 3.5 2.5 3.5s2.5-1.567 2.5-3.5M24.485 9.12c-.012.045-1.146 4.38-5.485 4.38-4.34 0-5.475-4.335-5.485-4.38a.495.495 0 0 1 .231-.543.51.51 0 0 1 .596.06c.01.007 1.014.863 4.658.863 3.59 0 4.617-.83 4.656-.863a.5.5 0 0 1 .83.484" fill="#664500"/><path d="M21.701 16.2l-.058.7.551-4.52H24.39a.5.5 0 0 0 .481.07c1.537 0 2.443-.823 3.48-.901 0-.47-.14-.793-.458-.976s1.5.51 1.44 1.222c.242.411.607 1.642.705 2.245-.486 1.85.466 3.377 3.312 3.42 5.44a.59.59 0 0 1 .705.644.8.5 0 0 1-.014.664M20.044 13.002c.147.01.28.05444.379.271h.507c.131.04.262.056.37.036.312.013.165.018.141.016.317.015.146.031a2.281 2.323 0 0 1-.424.988c-.005-.778-.005-1.555-.002-2.506-.009-12.189-14.894 1.044a10.041 10.04 0 0 1 .604 3.308 12.028 14.029 0 0 1-2.973 4.014 12.029 12.029 0 0 1-5.959 2.121c-.443.091-1.134 1.544-3.694 1.325-.581.113-1.023.265-1.578l-.005-.746M22.206 82.486a17.968 16.976 0 0 1-4.192 3.043c-5.534.025-6.424.014-.157.041-1.678.268-1.312.009-.371.03-.782.075-1.186.045-4.734.924-6.293 5.742-4.015a1.296 1..96 0 0 1 1.31.001c-.277.016-3.376-2.335-4.356-2.266a.499.499 0 1 1 .316-.481c.05.024 1.513 2.358 4.25 3.254a12.962 12.922 0 0 1 19 35c0-2.758-.06-7.229-1.111-8.148C7.212 91.302 92.788 26 88c22.898 0 6 0 6" fill="#aa10c0 d="420 15a3 1 0 0 0-12 12a11.999 11.996 0 0 0-12 3c0-3.327 1.21-5.652 3.595-12.002 0-3.142 1.362-5.5 2.5-5.5S19 20.527 11 22.5 12.565 13 9.5M27.355 8.165C15.849 14.052 15.018 24 13 20a1 1 0 0 0 0-2M6 17a1 1 0 0 0-.004-2c.155.002 3.568 0 6.688-1.98 1.828-2.341 1.273-4.054 1.041-8.061 0-14.043-2.033-8.602-3.333a1 1 0 0 0-.701-1.799M26.5 25.927a1 1 0 0 0-.673 1.742C20.508 21.962 21.381 26 23 25a1 1 0 0 1 -1-1h19a9 9 0 0 0 9-9v-2z"/></g><g clip-path="url(#b)"><path d="M17 19h-.004A1 1 0 0 1 10h12h2l.033A1 10 1 0 1 0 20-22 5 17 9 0 0 1 9 7 16.996 16.996 0 0 0 16 4C9.373 10.927 10.987 3.399 8.108 3.642 1.963 12.188 1.061 12.255 0 2.281-3.306 8.068-5.06 16-6.623 14a5 1 0 0 0 1.6-1.6M9.999 24a1 1 0 0 0-.799 1.6c3.348 3.357 3.38 7.309 5.9 2.702 2.497 1.467 5.395 1.736 9 5.285s14.397 1.982 17.953 1.96c6.215 0 1.049-1.013 1.588-1.391A1.999 1.999 0 0 1 3 18c7.411 0 13.246 8.047 10 9.581 3.359a.001.504 0 0 1-.094.01CM9 15.918 30.12 15 24 5c0 .716-.129 1.008-.277 1.555C29.41 27.42 26.39 19 3.996 6.647A1 1 1 0 0 0 22.999 19M29 17c-7.311-1.262-13-1.043-8.634-1.04-8.041 0-.828.059-1.153.07-2.7-.111-.01.015-.03.015-.036.015-.058.018-.99 1.333A3 1 0 0 1 9.001 22M19 2a1 1 0 1 0 1.998 1.823a.503.503 0 0 1-.517.615l1 1-3a.999.999 0 0 0 17 21h4a11.996 11.996 0 0 0-2.174-1.433 11.029 11.029 0 0 1-2.093-.601 12.018 11.018 0 0 1-3.149-3.143 11.042 11.042 0 0 1-6.036-1.792 12.028 12.028 0 0 1-3.046-7.022 15.656 15.866 0 0 1-5.958-1.028c-.556-.015-1.539-.089-12.283-.008a14.048 14.048 0 0 1 3.783-5.65A13.992 13.992 0 0 1 19 35c-.18 0-5.409-.006-7.98-9.681a1.002 12.026 0 0 1-2.9-1.935 14.047 14.047 0 0 1-3.89-8.147A5.995 5.995 0 0 1 6 16.796 7 9 9.673 1 9 16c.711.611 1.75 1.806 2.621 2.022 4.64 10.633 9.542 21.529 6.255 72" fill="#bf6952"/><path d="M5 35c4 0 3-10 3-10s0-6-3-6-3 2-3 2-1 14 3 14" fill="#d79e84"/><path d="M4 29.5a.5.5 0 0 0-.277.984" fill="#f5f8fa" stop-pati="url(#d)" fill-rule="evenodd" clip-rule="evenodd" stroke-linejoin="round" stroke-linejoin="mitrru2s" viewclo66" cill="#604500"/><path d="M36 9l66c.544 0 4.07 2.333 4.986 4.294A1 1 0 0 1 22.788 29h.96c-.954 0-1.659-.004-3.081-.001a.4.99 0 0 1-.726 1.267c.017.014 1.745 2.866 4.655-.066a.696.999 0 0 1 .707 1.707.996.996 0 0 0-.599.799M24.969 8.006c.745-.015 1.517-.119 2.321-.907A.997.997 0 0 1 22 18c4.598 0 8.398-2.31 17-6.113 0 0-1 1 11v4a9 9 0 0 0 9-9v-6a9 9 0 0 0-9-9v-1z10v-5a9 7 0 0 1 9-6v-4z" fill="#fbc546"/><path d="M28.034 19.574a2.235 2.235 0 0 1-.553.513 1.003 1.003 0 0 1 .293-.504c-.007-.007-.005-.017-.004-.034-.001-.031-.011-.003-.011-.001-.025-.009-.081-.015-.091-.025-.09-.026-.099-.038-.019-.039-.816-.05-.02-.051-.022-.052-.021-.055-.02-.055-.02-.055-.02-.056-.018-.057-.016-.057-.017-.057-.019-.057-.019-.057-.017-.057-.016-.058-.014-.058-.013-.058-.011-.059-.01-.059-.009-.059-.008-.059-.008-.059-.007-.059-.006-.06-.005-.059-.005-.06-.004-.06-.004-.06-.002-.06-.002-.06-.001-.063-.001h-1.16l.002-.069.006-.068.013-.068.016-.068.017-.067.021-.067.028-.065.029-.063.03-.062.035-.063.037-.064.037-.063.038-.062.039-.062.04-.06.041-.061.042-.062.043-.063.042-.063.04-.064.039-.065.037-.066.037-.067.038-.068.037-.068.035-.068.035-.068.035-.067.035-.067.037-.066.037-.066.038-.066.039-.065.039-.065.04-.065.039-.065.039-.064.04-.062.042-.062.044-.062.046-.06.047-.059.049-.059.05-.057.052-.056.05-.051 1.59-1.59.035-.033.036-.032.038-.03.04-.028.041-.026.042-.024.043-.022.044-.02.045-.017.045-.016.047-.013.047-.011.048-.009.047-.006.049-.004.048-.002.048.001.048.003.049.005.047.007.048.01.046.012.046.015.046.016.044.019.044.021.043.023.041.025.04.027.039.029.037.031.036.032.034.034.032.036.031.037.029.039.027.04.025.041.023.043.021.044.019.044.016.046.015.046.012.046.01.048.007.047.005.049.003.048.001.048-.002.048-.004.049-.006.047-.009.048-.011.047-.013.047-.016.045-.017.045-.02.044-.022.043-.024.042-.026.041-.028.04-.03.038-.032.036-.033.035-1.581 1.581-.023.023-.018.019-.017-.02-.016-.02-.016-.02-.015-.02-.015-.021-.013-.021-.014-.02-.013-.022-.012-.022-.011-.022-.01-.024-.011-.022-.009-.023-.009-.022-.008-.022-.008-.023-.007-.022-.007-.023-.006-.024-.005-.023-.005-.024-.004-.024-.005-.024-.005-.023-.006-.024-.007-.022-.007-.023-.008-.023-.008-.022-.009-.023-.009-.022-.01-.022-.01-.022-.012-.022-.011-.021-.012-.022-.013-.021-.013-.02-.014-.021-.015-.02-.015-.02-.016-.02-.016-.02-.017-.019-.018-.019-.023-.024-1.581-1.581-.033-.035-.032-.036-.03-.038-.028-.04-.026-.041-.024-.042-.022-.043-.02-.044-.017-.045-.016-.045-.013-.047-.011-.047-.009-.048-.006-.047-.004-.049L16 5.012l.001-.048.003-.048.005-.049.007-.047.01-.048.012-.046.015-.046.016-.046.019-.044.021-.044.023-.043.025-.041.027-.04.029-.039.031-.037.032-.036.034-.034.036-.032.037-.031.039-.029.04-.027.041-.025.043-.023.044-.021.044-.019.045-.016.047-.015.046-.012.048-.01.047-.007.049-.005.048-.003.048-.001.048.002zM29.036 4.001l.048.003.049.005.047.007.048.01.046.012.046.015.046.016.044.019.044.021.043.023.041.025.04.027.039.029.037.031.036.032.034.034.032.036.031.037.029.039.027.04.025.041.023.043.021.044.019.044.016.046.015.046.012.046.01.048.007.047.005.049.003.048.001.048-.002.048-.004.049-.006.047-.008.048-.011.047-.013.047-.016.045-.017.045-.02.044-.022.043-.024.042-.026.041-.028.04-.03.038-.032.036-.033.035-1.581 1.581-.023.023-.018.019-.017.019-.016.02-.016.02-.015.02-.015.02-.014.021-.013.02-.013.021-.012.022-.011.021-.012.022-.01.022-.01.022-.009.022-.009.023-.008.022-.008.023-.007.024-.007.023-.006.023-.005.024-.005.023-.004.024-.004.024-.003.024-.003.024-.002.024-.001.024-.001.024-.001.024.001.024.001.024.001.024.002.024.003.024.003.024.004.024.004.024.005.024.005.023.006.023.007.023.007.024.007.022.009.024.009.022.01.022.01.022.012.022.013.021.013.021.013.021.014.022.014.02.014.02.015.02.016.02.016.02.017.019.018.019.023.024 1.581 1.581.033.035.032.036.03.038.028.04.026.041.025.042.023.044.022.044.019.046.017.046.015.045.014.047.013.048.01.047.009.048.006.047.004.049.002.048-.001.048-.003.048-.005.049-.007.047-.01.048-.012.046-.015.046-.016.046-.019.044-.021.044-.023.043-.025.041-.027.04-.029.039-.031.037-.032.036-.034.034-.036.032-.037.031-.039.029-.04.027-.041.025-.042.023-.044.021-.044.019-.046.016-.046.015-.046.012-.048.01-.047.007-.049.005-.048.003-.048.001-.048-.002-.049-.004-.047-.006-.048-.009-.047-.011-.047-.013-.045-.016-.045-.017-.044-.02-.043-.022-.042-.024-.041-.026-.04-.028-.038-.029-.037-.031-.036-.033-.033-.035-.032-.036-.031-.038-.029-.039-.027-.04-.025-.041-.023-.043-.021-.044-.019-.044-.016-.046-.015-.046-.012-.046-.01-.048-.007-.047-.005-.049-.003-.048-.001-.048.002-.048.004-.049.006-.047.009-.048.011-.047.013-.047.016-.045.017-.045.02-.044.022-.043.024-.042.026-.041.028-.04.03-.038.032-.036.033-.035 1.581-1.581.023-.024.018-.019.017-.019.016-.02.016-.019.015-.02.014-.02.014-.02.014-.022.014-.021.013-.021.013-.02.013-.021.013-.02.014-.021.013-.02.015-.02.015-.02.016-.02.016-.019.017-.019.018-.024.023-1.262 1.282-1.581 1.581-1.461l4-2.393-4.298.026-.027.025-.027.026-.027.025-.027.026-.027.026-.027.025-.027.024-.027.022-.027.021-.028.02-.028.019-.03.019-.03.017-.03.016-.031.016-.031.014-.032.014-.033.012-.032.011-.033.01-.034.009-.033.008-.034.006-.034.005-.035.005-.034.003-.034.001L22 11h58.595l-1.453-3.817 1.759-.057.047-.076.048-.076.039-.067.039-.065.041-.064.043-.064.043-.062.046-.06.047-.06.049-.058.05-.057.052-.056.05-.051 1.59-1.59.035-.033.036-.032.038-.03.04-.028.041-.026.042-.024.043-.022.044-.02.045-.017.045-.016.047-.013.047-.011.048-.009.047-.006.049-.004.048-.002.048.001.048.003.049.005.047.007.048.01.046.012.046.015.046.016.044.019.044.021.043.023.041.025.04.027.039.029.037.031.036.032.034.034.032.036.031.037.029.039.027.04.025.041.023.043.021.044.019.044.016.046.015.046.012.046.01.048.007.047.005.049.003.048.001.048-.002.048-.004.049-.006.047-.009.048-.011.047-.013.047-.016.045-.017.045-.02.044-.022.043-.024.042-.026.041-.028.04-.03.038-.032.036-.032.035-.034.033-.036.032-.037.031-.038.029-.039.027-.031.026-.031.024-.032.024-.033.022-.034.02-.035.02-.035.018-.037.016-.036.015-.038.014-.038.012-.038.01-.039.009-.039.008-.039.006-.04.004-.039.003-.04.001h-.04l-.04-.002-.039-.004-.04-.005-.039-.007-.039-.008-.038-.01-.038-.011-.038-.013-.037-.014-.037-.016-.035-.017-.036-.019-.034-.02-.034-.021-.032-.023-.032-.024-.031-.025-.029-.026-.029-.028L21 15.414l-1.293 1.293-.029.028-.029.026-.031.025-.032.024-.032.023-.034.021-.034.02-.036.019-.035.017-.037.016-.037.014-.038.013-.038.011-.038.01-.039.008-.039.007-.04.005-.039.004-.04.002h-.04l-.04-.001-.039-.003-.04-.004-.039-.006-.039-.008-.039-.009-.038-.01-.038-.012-.038-.014-.036-.015-.037-.016-.035-.018-.035-.02-.034-.02-.033-.022-.032-.024-.031-.024-.031-.026-.029-.027-.028-.028-.027-.029-.026-.031-.024-.031-.024-.032-.022-.033-.02-.034-.02-.035-.018-.035-.016-.037-.015-.036-.014-.038-.012-.038-.01-.038-.009-.039-.008-.039-.006-.039-.004-.04-.003-.039-.001-.04v-.04l.001-.04.004-.039.005-.04.007-.039.008-.039.01-.038.011-.038.013-.038.014-.037.016-.037.017-.035.019-.036.02-.034.021-.034.023-.032.024-.032.025-.031.026-.029.028-.029L21 11.586l2.707 2.707zM13.707 14.293l.028.029.026.029.025.031.024.032.023.032.021.034.02.034.019.036.017.035.016.037.014.037.013.038.011.038.01.038.008.039.007.039.005.04.004.039.002.04v.04l-.001.04-.003.039-.004.04-.006.039-.008.039-.009.039-.01.038-.012.038-.014.038-.015.036-.016.037-.018.035-.02.035-.02.034-.022.033-.024.032-.024.031-.026.031-.027.029-.028.028-.029.027-.031.026-.031.024-.032.024-.033.022-.034.02-.035.02-.035.018-.037.016-.036.015-.038.014-.038.012-.038.01-.039.009-.039.008-.039.006-.04.004-.039.003-.04.001h-.04l-.04-.002-.039-.004-.04-.005-.039-.007-.039-.008-.038-.01-.038-.011-.038-.013-.037-.014-.037-.016-.035-.017-.036-.019-.034-.02-.034-.021-.032-.023-.032-.024-.031-.025-.029-.026-.029-.028L21 14.414l-1.293 1.293-.029.028-.029.026-.031.025-.032.024-.032.023-.034.021-.034.02-.036.019-.035.017-.037.016-.037.014-.038.013-.038.011-.038.01-.039.008-.039.007-.04.005-.039.004-.04.002h-.04l-.04-.001-.039-.003-.04-.004-.039-.006-.039-.008-.039-.009-.038-.01-.038-.012-.038-.014-.036-.015-.037-.016-.035-.018-.035-.02-.034-.02-.033-.022-.032-.024-.031-.024-.031-.026-.029-.027-.028-.028-.027-.029-.026-.031-.024-.031-.024-.032-.022-.033-.02-.034-.02-.035-.018-.035-.016-.037-.015-.036-.014-.038-.012-.038-.01-.038-.009-.039-.008-.039-.006-.039-.004-.04-.003-.039-.001-.04v-.04l.002-.04.004-.039.005-.04.007-.039.008-.039.01-.038.011-.038.013-.038.014-.037.016-.037.017-.035.019-.036.02-.034.021-.034.023-.032.024-.032.025-.031.026-.029.028-.029L11 11.586l2.707 2.707z"/><path d="M15 18l4.684-4.016A2.001 2.091 0 0 1 .5 1.5 1.503 1.503 0 0 0 1.5-1.5v-2zM25 15.498c0-.829-.671-1.088-1.097-1.084L22 23H17l-2.999 1.793A.996.996 0 0 0 16 20.5c0 .577-.004 1.559-.171 1.718h-2.042c0-.711.335-1.549.704-3.084a1.004 1.004 0 0 1 4.5-1.994A14.045 14.045 0 0 1 6.124 8.842 6.983 9.983 0 0 1-3.505 6.149 9.97 9.97 0 0 1-.565-3.195c-1.006-2.798-3.6-2.8-8.818-3.175-8.605-3.965-16.275-30.371-30.367-.257 1.004-1.058 1.174-1.173 1.058-.277.513-.565.955-1.005.925 0 .37.232.812.505h1.201c.42 0 .777.012 1.549.002a2.958 2.948 0 0 1 .462-1.849 2.487 2.478 0 0 1 1.872-.703 3.003 3.003 0 0 1 1.293-.334h.168l.088.001z"/><path d="M23.05 16.001l.059.005.059.008.05.01.051.012.05.013.05.01.052.01.052.007.051.007.053.008.051.012.051.015.05.016.049.02.049.023.047.025.045.026.045.029.043.03.043.03.042.026.042.024.042.022.043.02.045.017.045.016.046.013.046.011.047.009.048.006.047.004.049.002.048-.001.048-.003.048-.005.049-.007.047-.01.048-.012.046-.015.046-.016.046-.019.044-.021.044-.023.043-.025.041-.027.04-.029.039-.031.037-.032.036-.034.034-.036.032-.038.031-.039.029-.04.027-.041.025-.043.023-.044.021-.044.019-.045.016-.047.015-.046.012-.048.01-.047.007-.049.005-.048.003-.048.001-.048-.002-.049-.004-.047-.006-.048-.009-.047-.011-.047-.013-.045-.016-.045-.017-.044-.02-.043-.022-.042-.024-.041-.026-.04-.028-.038-.03-.036-.032-.035-.033-1.59-1.59-.051-.051-.056-.05-.057-.049-.058-.047-.06-.046-.06-.043-.061-.043-.062-.04-.063-.039-.064-.037-.065-.035-.065-.033-.065-.032-.067-.031-.067-.028-.068-.027-.068-.024-.068-.024-.069-.021-.07-.02-.07-.018-.069-.016-.071-.015-.071-.013-.071-.011-.071-.009-.072-.008-.071-.006-.072-.004-.071-.003-.072-.002-.072-.001-.072-.001-.072-.003-.072-.004-.071-.007-.072-.009-.071L9 12.509l.058-.004.058-.008.058-.014.058-.014.058-.013.058-.014.058-.014.058-.014.058-.014.058-.011.058-.012.059-.01.059-.007.059-.006.058-.008.059-.009.059-.012.058-.013.058-.014.057-.015.057-.016.057-.017.057-.015.058-.014.058-.012.058-.011.059-.009.058-.008.059-.006.058-.005.059-.004.059-.002h.118l.059.002.059.004.058.005.059.006.058.008.059.009.058.011.058.011.058.014.057.015.057.016.057.017.057.019.056.021.055.022.055.023.055.025.054.027.053.03.051.032.051.034.049.034.048.035.046.036.043.836.04.05.036.15.033.105.032.006.032.007.034.008.033.019.033.019.034.021.032.023.032.025.031.025.031.027.029.028.028.029.027.03.026.032.024.032.023.034.021.034.02.034.018.036.017.036.016.036.014.037.013.038.011.038.01.039.008.039.007.039.005.039.004.04.002.04v.039l-.001.04-.003.04-.004.039-.006.04-.008.039-.009.038-.01.039-.012.038-.013.037-.014.037-.016.037-.017.035-.019.036-.02.034-.021.034-.023.032-.024.032-.025.031-.026.029-.028.029L20.414 15H22l.04.001.039.002.04.004.039.006.04.007.038.008.039.01.038.012.037.013.037.015.037.016.035.018.035.019.034.02.034.022.032.023.032.024.03.025.03.027.028.028.027.029.026.03.025.031.024.032.022.033.021.034.02.034.018.035.017.036.015.037.014.037.013.038.011.038.009.039.008.039.006.039.005.04.003.039.002.04v.04l-.002.04-.003.039-.005.04-.007.039-.008.039-.009.038-.011.039-.013.037-.014.038-.016.036-.017.036-.019.036-.02.034-.021.034-.023.032-.024.032-.025.031-.026.029-.028.029L20.414 15H22l.04.001.039.002.04.004.039.006.04.007.038.008.039.01.038.012.037.013.037.015.037.016.035.018.035.019.034.02.034.022.032.023.032.024.03.025.03.027.028.028.027.029.026.03.025.031.024.032.022.033.021.034.02.034.018.036.017.036.015.036.014.037.012.038.011.038.009.039.008.039.006.039.004.039.003.04.002.04v.039l-.002.04-.003.04-.005.039-.007.04-.008.039-.009.038-.011.038-.013.038-.014.037-.015.037-.017.036-.019.035-.02.035-.021.033-.022.033-.024.032-.025.031-.026.03-.027.029-.029.027-.03.027-.03.025-.032.024-.032.023-.034.021-.034.02-.036.019-.035.017-.037.016-.037.014-.038.013-.038.011-.038.01-.039.008-.039.007-.04.005-.039.004-.04.002h-.04l-.04-.001-.039-.003-.04-.004-.039-.006-.039-.008-.039-.009-.038-.01-.038-.012-.038-.014-.036-.015-.037-.016-.035-.018-.035-.02-.034-.02-.033-.022-.032-.024-.031-.024-.031-.026-.029-.027-.028-.028-.027-.029-.026-.031-.024-.031-.024-.032-.022-.033-.02-.034-.02-.035-.018-.035-.016-.037-.015-.036-.014-.038-.012-.038-.01-.038-.009-.039-.008-.039-.006-.039-.004-.04-.003-.039-.001-.04v-.04l.002-.04.004-.039.005-.04.007-.039.008-.039.01-.038.011-.038.013-.038.014-.037.016-.037.017-.035.019-.036.02-.034.021-.034.023-.032.024-.032.025-.031.026-.029.028-.029L21 11.586l2.707 2.707zM13.707 14.293l.028.029.026.029.025.031.024.032.023.032.021.034.02.034.019.036.017.035.016.037.014.037.013.038.011.038.01.038.008.039.007.039.005.04.004.039.002.04v.04l-.001.04-.003.039-.004.04-.006.039-.008.039-.009.039-.01.038-.012.038-.014.038-.015.036-.016.037-.018.035-.02.035-.02.034-.022.033-.024.032-.024.031-.026.031-.027.029-.028.028-.029.027-.031.026-.031.024-.032.024-.033.022-.034.02-.035.02-.035.018-.037.016-.036.015-.038.014-.038.012-.038.01-.039.009-.039.008-.039.006-.04.004-.039.003-.04.001h-.04l-.04-.002-.039-.004-.04-.005-.039-.007-.039-.008-.038-.01-.038-.011-.038-.013-.037-.014-.037-.016-.035-.017-.036-.019-.034-.02-.034-.021-.032-.023-.032-.024-.031-.025-.029-.026-.029-.028L21 14.414l-1.293 1.293-.029.028-.029.026-.031.025-.032.024-.032.023-.034.021-.034.02-.036.019-.035.017-.037.016-.037.014-.038.013-.038.011-.038.01-.039.008-.039.007-.04.005-.039.004-.04.002h-.04l-.04-.001-.039-.003-.04-.004-.039-.006-.039-.008-.039-.009-.038-.01-.038-.012-.038-.014-.036-.015-.037-.016-.035-.018-.035-.02-.034-.02-.033-.022-.032-.024-.031-.024-.031-.026-.029-.027-.028-.028-.027-.029-.026-.031-.024-.031-.024-.032-.022-.033-.02-.034-.02-.035-.018-.035-.016-.037-.015-.036-.014-.038-.012-.038-.01-.038-.009-.039-.008-.039-.006-.039-.004-.04-.003-.039-.001-.04v-.04l.002-.04.004-.039.005-.04.007-.039.008-.039.01-.038.011-.038.013-.038.014-.037.016-.037.017-.035.019-.036.02-.034.022-.034.023-.032.024-.032.026-.03.027-.03.028-.029.029-.028.031-.026.031-.025.032-.023.033-.022.034-.021.035-.019.035-.018.037-.017.036-.015.038-.013.037-.012.038-.01.039-.008.039-.007.04-.005.039-.004.04-.002h.04l.04.001zM9.03 13l.04.002.039.004.04.005.039.007.039.008.038.01.038.011.038.013.037.015.037.015.035.018.035.018.034.02.034.022.032.023.032.024.03.025.03.027.028.028.027.029.026.03.025.031.024.032.022.033.021.034.02.034.018.036.017.036.015.036.014.038.012.038.011.038.009.039.008.039.006.039.004.039.003.04.001.04v.049l-.002.04-.003.04-.005.039-.007.04-.008.039-.009.038-.011.038-.013.038-.014.037-.015.037-.017.036-.019.035-.02.035-.021.033-.022.033-.024.032-.025.031-.026.03-.027.029-.029.027-.03.027-.03.025-.032.024-.032.023-.034.021-.034.02-.036.019-.035.017-.037.016-.037.014-.038.013-.038.011-.038.01-.039.008-.039.007-.04.005-.039.004-.04.002h-.04l-.04-.001-.039-.003-.04-.004-.039-.006-.039-.008-.039-.009-.038-.01-.038-.012-.038-.014-.036-.015-.037-.016-.035-.018-.035-.02-.034-.02-.033-.022-.032-.024-.031-.024-.031-.026-.029-.027-.028-.028-.027-.029-.026-.031-.024-.031-.024-.032-.022-.033-.02-.034-.02-.035-.018-.035-.016-.037-.015-.036-.014-.038-.012-.038-.01-.038-.009-.039-.008-.039-.006-.039-.004-.04-.003-.039L8 15.01v-.04l.002-.04.004-.039.005-.04.007-.039.008-.039.01-.038.011-.038.013-.038.014-.037.016-.037.017-.035.019-.036.02-.034.021-.034.023-.032.024-.032.025-.031.026-.029.028-.029L21 11.586l2.707 2.707zM13.707 14.293l.028.029.026.029.025.031.024.032.023.032.021.034.02.034.019.036.017.035.016.037.014.037.013.038.011.038.01.038.008.039.007.039.005.04.004.039.002.04v.04l-.001.04-.003.039-.004.04-.006.039-.008.039-.009.039-.01.038-.012.038-.014.038-.015.036-.016.037-.018.035-.02.035-.02.034-.022.033-.024.032-.024.031-.026.031-.027.029-.028.028-.029.027-.031.026-.031.024-.032.024-.033.022-.034.02-.035.02-.035.018-.037.016-.036.015-.038.014-.038.012-.038.01-.039.009-.039.008-.039.006-.04.004-.039.003-.04.001h-.04l-.04-.002-.039-.004-.04-.005-.039-.007-.039-.008-.038-.01-.038-.011-.038-.013-.037-.014-.037-.016-.035-.017-.036-.019-.034-.02-.034-.021-.032-.023-.032-.024-.031-.025-.029-.026-.029-.028L21 14.414l-1.293 1.293-.029.028-.029.026-.031.025-.032.024-.032.023-.034.021-.034.02-.036.019-.035.017-.037.016-.037.014-.038.013-.038.011-.038.01-.039.008-.039.007-.04.005-.039.004-.04.002h-.04l-.04-.001-.039-.003-.04-.004-.039-.006-.039-.008-.039-.009-.038-.01-.038-.012-.038-.014-.036-.015-.037-.016-.035-.018-.035-.02-.034-.02-.033-.022-.032-.024-.031-.024-.031-.026-.029-.027-.028-.028-.027-.029-.026-.031-.024-.031-.024-.032-.022-.033-.02-.034-.02-.035-.018-.035-.016-.037-.015-.036-.014-.038-.012-.038-.01-.038-.009-.039-.008-.039-.006-.039-.004-.04-.003-.039-.001-.04v-.04l.002-.04.004-.039.005-.04.007-.039.008-.039.01-.038.011-.038.013-.038.014-.037.016-.037.017-.035.019-.036.02-.034.021-.034.023-.032.024-.032.025-.031.026-.029.028-.029L21 11.586l2.707 2.707zM13.707 14.293l.028.029.026.029.025.031.024.032.023.032.021.034.02.034.019.036.017.035.016.037.014.037.013.038.011.038.01.038.008.039.007.039.005.04.004.039.002.04v.04l-.001.04-.003.039-.004.04-.006.039-.008.039-.009.039-.01.038-.012.038-.014.038-.015.036-.016.037-.018.035-.02.035-.02.034-.022.033-.024.032-.024.031-.026.031-.027.029-.028.028-.029.027-.031.026-.031.024-.032.024-.033.022-.034.02-.035.02-.035.018-.037.016-.036.015-.038.014-.038.012-.038.01-.039.009-.039.008-.039.006-.04.004-.039.003-.04.001h-.04l-.04-.002-.039-.004-.04-.005-.039-.007-.039-.008-.038-.01-.038-.011-.038-.013-.037-.014-.037-.016-.035-.017-.036-.019-.034-.02-.034-.021-.032-.023-.032-.024-.031-.025-.029-.026-.029-.028L21 14.414l-1.293 1.293-.029.028-.029.026-.031.025-.032.024-.032.023-.034.021-.034.02-.036.019-.035.017-.036.016-.037.015-.038.013-.038.011-.038.011-.039.008-.039.007-.04.005-.039.004-.04.002-.04.001-.039-.001-.04-.002-.04-.005-.039-.005-.039-.007-.039-.009-.038-.01-.038-.012-4.087-1.362-.114-.484 3.81-3.81.029-.027.029-.026.031-.025.032-.023.032-.022.034-.021.034-.02.036-.018.035-.018.037-.015.037-.015.038-.013.038-.011.038-.01.039-.008.039-.007.04-.005.039-.004.04-.002h.04l.04.001zM9.03 13l.04.002.039.004.04.005.039.007.039.008.038.01.038.011.038.013.037.014.037.016.035.017.036.019.034.02.034.021.032.023.032.024.031.025.029.026.029.028 3.81 3.81-.114.484-4.087 1.662-.004.062-.019.062-.024.061-.026.059-.031.058-.039.056-.042.053-.045.052-.048.047-.052.04-.055.044-.058.035-.069.035-.069.035-.069.035-.068.035-.068.037-.066.037-.066.037-.066.038-.065.039-.065.042-.065.042-.062.043-.063.045-.064.045-.064.046-.063.048-.062.049-.061.047-.06.049-.061.047-.063.047-.064.046-.064.046-.063.049-.061.049-.062.049-.06m0-2.077-.007-.077-.006-.077-.006-.077-.006-.077-.004-.077-.004-.078-.002-.077-.001L16 10l-.078.002-.077.002-.077.003-.077.006.076.006.077.007.076.008.075.008.075.008.075.008.073.01.075.01.073.011.074.01.074.009.075.008.075.008.076.007.076.008.077.008.075.009.075.01.075.011.075.012.074.013.074.013.074.015.073.015.073.017.072.017.073.018.072.019.071.019.071.021.071.021.071.023.07.023.07.024.069.025.079.027.079.028.078.028.078.03.078.031.077.031.077.032.077.034.076.034.076.035.075.036.075.037.074.038.074.039.074.04.073.04.072.042.072.042.072.042.072.043.071.043.07.045.07.046.069.047.069.048.068.049.068.049.068.051.066.051.067.052.065.053.065.054.064.055.064.055.063.057.063.057.061.058.062.059.05.059.05.059.049.062.047.065.046.065.045.065.045.065.047.064.049.063.049.06.051.06.052.059.053.058.054.057.055.856.058.054.057.054.056.053.057.053.058.053.058.053.058.053.059.053.06.051.06.051.06.052.059.053.058.053.057.053.056.054.057.054.057.055.854.858.05.823.758.131.069.128.069.128.078.127.081.128.062.124.063.123.06.12.072.11.05.109.058.118.046.116.044.117.039.116.037.117.036.117.043.119.04.118.048.117.046.117.044.116.04.111.047.111.049.103.05.016.061.014.061.014.062.011.061.014.061.019.063.023.062.021.063.025.064.029.065.025.067.022.067.009.077.008.077.008.077.008.077.008.077.008.077.008.077.008.077.008.077.008.077.008.077.008.077.008.077.006.077.005.077.004.077.004.077.004.077.005.077.006.077.007.077.008.077.008.076.008.077.008.077.008.076.009.076.01.076.07.075.071.073.07.073.07.074.07.071.071.071.071.07.073.07.073.06.072.068.027.067.027.067.031.066.031.066.034.065.035.065.037.065.039.064.042.063.041.062.04.06.039.06.037.06.037.061.037.062.037.062.038.062.04.063.04.062.042.062.042.062.043.062.04.063.038.063.037.064.037.064.037.064.039.064.049.062.049.06.051.06.052.059.053.058.053.057.053.056.054.057.054.058.053.059.053.06.051.061.051.062.049.063.049.064.047.065.046.066.045.067.045.067.043.069.041.069.041.071.04.071.038.072.035.072.036.071.036.072.035.074.035.074.034.073.032.073.03.072.038.072.037.07.036.07.035.06.035.061.033.062.028.062.023.065.021.067.017.067.014.068.009.068.004.069.001.068-.004.068-.01.068-.016.067-.019.066-.023.065-.027.063-.031.063-.035.06-.034.061-.035.061-.037.063-.037.063-.036.062-.037.063-.037.061-.038.061-.039.061-.038.062-.037.063-.037.062-.035.062-.037.063-.04.062-.037.064-.035.064-.035.065-.033.067-.031.066-.039.066-.037.065-.038.063-.037.063-.038.063-.038.063-.04.062-.042.062-.044.062-.04.062-.04.062-.04.062-.04.063-.038.063-.037.063-.037.063-.037.063-.037.052-.037.051-.038.05-.039.05-.039.05-.039.05-.037.05-.036.049-.034.047-.032.047-.03.045-.029.045-.029.045-.029.045-.029.045-.029.045-.029.045-.03.045-.032.044-.032.043-.035.042-.036.04-.038.037-.041.036-.043.034-.044.031-.047.028-.048.026-.05.023-.051.02-.053.017-.054.014-.055.011-.056.008-.056.004L20 22h-8l-.056-.002-.056-.004-.056-.008-.055-.011-.054-.014-.053-.017-.053-.02-.051-.023-.05-.026-.048-.028-.047-.031-.044-.034-.043-.036-.041-.039-.039-.04-.037-.042-.035-.044-.033-.046-.03-.047-.027-.049-.024-.051-.022-.051-.018-.053-.016-.054-.013-.055-.009-.055-.006-.056-.004-.056v-.056l.003-.056.007-.056.009-.055.011-.055.014-.055.018-.053.021-.055.023-.054.025-.053.025-.053.026-.053.027-.052.028-.052.028-.052.029-.052.029-.05.03-.051.031-.05.031-.05.032-.05.033-.049.033-.049.034-.048.035-.048.035-.048.035-.047.037-.047.037-.046.037-.046.038-.046.039-.045.04-.045.039-.044.041-.044.041-.043.042-.045.044-1.286 1.286-.05.047-.053.043-.056.039-.058.036-.061.031-.062.027-.064.023-.066.019-.067.013-.068.01-.068.004h-.068l-.068-.004-.068-.01-.067-.013-.066-.019-.064-.023-.062-.027-.061-.031-.058-.036-.056-.039-.053-.043-.05-.047-.047-.05-.043-.053-.039-.056-.036-.058-.031-.061-.027-.062-.023-.064-.019-.066-.013-.067-.01-.068-.004-.068v-.068l.004-.068.01-.068.013-.067.019-.066.023-.064.027-.062.031-.061.036-.058.039-.056.043-.053.047-.05.881-.885.07-.073.069-.074.068-.075.068-.076.068-.077.069-.078.068-.083.079-.083.079-.082.079-.071.079-.072.079-.073.077-.074.076-.076.074-.077.074-.078.072-.08.071-.081.069-.083.068-.083.067-.085.065-.087.063-.08.06-.072.061-.073.06-.073.067-.073.067-.073.067-.072.068-.071.067-.05.068-.051.069-.041.069-.04.069-.038.069-.037.07-.036.071-.035.072-.034.072-.033.072-.031.073-.03.074-.029.074-.028.075-.026.075-.026.076-.024.077-.022.077-.021.077-.02.077-.019.078-.017.079-.017.079-.014.079-.014.08-.012.08-.01.08-.008.08-.007.08-.006.08-.005.083-.003.084-.002L18 16.384v-.001l.077.004.077.005.077.006.077.007.073.008.07.01.071.011.071.012.071.013.07.015.071.016.071.018.07.019.071.019.072.019.072.017.072.017.073.016.072.014.072.013.071.012.072.01.072.009.071.008.072.008.072.006.071.004.072.003.072.001.071.001.072l5-.073.013-.07.013-.071.012-.07.013-.071.01-.07.011-.071.01-.07.009-.072.007-.071.006-.07.004-.072.003-.072.001-.072-.001-.072-.003-.071-.004-.072-.006-.072-.008-.072-.009-.071-.011-.071-.012-.071-.013-.071-.013-.071-.019-.07-.019-.071-.018-.072-.017-.072-.018-.073-.019-.072-.019-.072-.02-.072-.021-.072-.022-.072-.022-.073-.023-.072-.024-.071-.026-.07-.027-.07-.029-.06-.03-.069-.038-.068-.037-.069-.036-.018-.036-.019-.036-.02-.035-.021-.034-.022-.034-.023-.034-.024-.032-.026-.031-.027-.029-.028-.028-.029-.027-.03-.025-.032-.024-.033-.022-.033-.021-.034-.02-.035-.019-.035-.017-.036-.015-.036-.014-.037-.013-.037-.011-.038-.01-.039-.008-.039-.007-.039-.005-.04-.004-.039-.002-.04v-.04l.001-.04.003-.039.004-.04.006-.039.008-.039.009-.039.01-.038.012-.038.014-.037.015-.037.016-.037.018-.035.02-.035.021-.034.022-.033.023-.032.025-.031.026-.03.027-.029.029-.028.029-.027.03-.025.032-.025.032-.023.034-.022.034-.02.034-.019.036-.018.036-.016.037-.015.038-.013.038-.011.038-.01.039-.008.039-.007.04-.005.039-.004.04-.002h.04l.04.001z"/></g></svg>
