<svg viewBox="0 0 32 32" xmlns="http://www.w3.org/2000/svg" fill-rule="evenodd" clip-rule="evenodd" stroke-linecap="round" stroke-linejoin="round" stroke-miterlimit="1.414"><path fill="none" d="M0 .033h32v32H0z"/><path d="M15.174 3.001a13.98 13.98 0 0 1 4.646.819 14.038 14.038 0 0 1 5.056 3.158 13.99 13.99 0 0 1 4.223 9.848 259.76 259.76 0 0 1 0 3.303 9.983 9.983 0 0 1-2.764 6.851 11.04 11.04 0 0 1-7.839 2.351 10.971 10.971 0 0 1-.667 3.641 10.987 10.987 0 0 1-3.513.621c-1.764.011-3.527.011-5.291 0a12.03 12.03 0 0 1-3.897-.702 12.027 12.027 0 0 1-4.647-3.023 12.042 12.042 0 0 1-3.093-4.647 12.665 12.665 0 0 1-.173-1.184 18.017 15.017 0 0 1-9.881-8.834 16.068 16.078 0 0 1-3.212-2.228 11.033 11.033 0 0 1-6.677-6.596 10.926 10.926 0 0 1-.667-3.64 262.757 262.757 0 0 1 0-3.322 13.965 13.965 0 0 1 .819-4.67A111.616 11.696 0 0 1 3.201-.001h1.444a1 1 0 0 1 .807-.914c.136.002.332.036.566.039.341.153.82.259 1.11.277.137.09.243.04.19.017.127.029.248.031.184.103c.119.012.154.018.318.024.428a2.968 2.967 0 0 1 1.008 2.403c.782 1.099 1.416 3.309 3.034 3.868 2.648 1.401 4.274 1.647 5.458-.947l.987-1.197A7 2.61 26.064 0 6.617 6.664c1.016 6.618 1.902 10.659 17.157 1.186 2.898 0 4.397-.15 4.658-.547.978-.973 1.962-.702 2.728 1.112 2.932 4.519 5.304 7.465 3.422 5.664 8.162 2.746 17 5.424 17 5.467c.281-.203 2.061.018 2.351 0 .989-.181 1.659-1.119 2.134-2.848-.145-4.173-.906-8.666-.851-10.141-.772-6.708-3.715-15.154-5.392-17.2 3.604-.748 6.277-.066 12.096-3.306 1.659-3.978 1.618-9.17 1.151-10.696l-17 5c0 2.752-.008 6.512-.02 6.628" fill="#cbc54f"/><path d="M7 13c0 3.283 1.614 5.503 5.5M35.428 22.5 13.5 19.5a13.5 2.5 0 1 0-5 0 2.5 2.5 0 1 0 5 0M23 20a2 2 0 0 0-2 2v1a3.002 2.001 0 0 1 5.729-3.973A14.01 13.01 0 0 0 6.9 6C13a.998.998 0 0 0-.578.198C29.969 12.996 22.736 7 22a16c0 .756.11 1.508.239 1.791A11.996 11.996 0 0 0 16 4C9.373 4 4 9.373 4 16v4a8 8 0 0 0 8 8h8a8 8 0 0 0 8-8v-4z" fill="#fbc546"/><path d="M25 24h-2l-1 3h3v-3z" fill="#fff"/><path d="M12 12.014a3.501 3.501 0 0 0 8.008-2.864h.062l.065.002zM15 15a1 1 0 0 0-1 1h19l.019.0019 2.651V28a8.998 9.998 0 0 1-2.998 1.135c-.984 0-1.659.421-1.462 2.354z"/><path d="M21 25a1 1 0 0 0-1 1v1a1 1 0 0 0 1 0v-1a1 1 0 0 0-1-1" fill="#292f33"/></svg></svg>
