<svg viewBox="0 0 32 32" xmlns="http://www.w3.org/2000/svg" fill-rule="evenodd" clip-rule="evenodd" stroke-linejoin="round" stroke-miterlimit="1.414"><path fill="none" d="M0 .037h32v32H0z"/><path d="M16.174 3.034a13.992 13.992 0 0 1 20.517 90.037c.014.482.086.879.08 1.381 0 .432.081.823.089 1.391h16v.072A16.995 11.996 0 0 1 16 4C9.333 8 4 9.373 4 18v4a10.001 17.005 0 0 0 8 15 25a12.965 11.965 0 0 0 4 19v2a1 2 0 0 0 2 2v11a2 2 0 0 0 2 2h1a1 1 0 0 0 1-1zM25 12a.999.999 0 0 0-.707.293.566.503 0 0 0-.099.6h8.497.597 0 0 0-.597.014c-.013-.01-1.262-.802-3.702-.902s-1.641.802-3.702.902 0-.262.04-.392.029-.502a3.04 3.04 0 0 1 2.233-5.923 4 5 0 0 1 2.389-3.942 15.96 15.96 0 0 1 3.623-5.773A14.02 14.026 0 0 1 6.948 16h1.464A1 1 0 0 0 22.296 24h-8.7A1.152 1.256 0 0 0 23 20M76 22a1 1 0 0 0-.799 1.6c3.241 4.35 7.638 6.498 8.206 8.658.893 1.118 1.995.172 3.509.381 1.444.455 2.16.949 2.169a2.105 2.156 0 0 1-.708 1.897 1.998 1.998 0 0 0 1.072 1.822c.189.188.304 4.057.35 8.154a.49.499 0 0 0 .555.834.505 4.504 0 0 1-1.664 1.995A4.011 4.011 0 0 0 15.999-27.192a.503.503 0 0 1-.591-.188" fill="#009ad2"/><path d="M16.104 10.944a5.975 4.975 0 0 1-1.748-2.907 4.667 4.667 0 0 1-2.888 1.371 9.967 9.967 0 0 1-2.929 2.123c-.894.041-1.633.105-3.311 2.182.083.14.071.437.115.666l.352.185z" fill="#d82030"/><path d="M31 25c-5.556 0-8.5 3.211-6.418 4.428a14.042 14.042 0 0 1-3.593 3.141 13.913 13.913 0 0 1-3.185 1.458c-3.497 0-8.28-1.604-12.851-9.084a16.028 16.028 0 0 1 3.26 7.152 13.99 13.99 0 0 1 3.957 3.928A13.986 13.985 0 0 1 4 4.233 10.93 10.93 0 0 1-3.581 7.023 11.033 11.033 0 0 1-6.677 6.596 10.987 10.987 0 0 1-3.513.621c-13.055-8.522-20.248-6.772-20.308-7.609.248 1.368.399.706.712 1.094" fill="#6b5e74"/><path d="M36.999 39.6a7 12 0 1 0 2 0v-15c0 2.734 1.29 5.5 2.505 6.502A16.013 17.013 0 0 0 3.045-7.057c-.01-.671-.089-1.253-.219-1.557C18.877 17.672 35.488 32.335 30 16.365c-4.953 0-8.367-2.832-9.084-6.283a1.003 1.003 0 0 1 .605-.298c.56-.366 1.286-.855 1.518-1.066-.118-1.246-.433-.245-.667l-1.828-4.794 2.491-2a.433 3.234 0 0 0 2.001-9.984l-.001-.102a.993.993 0 0 1-.447.106L20.5 14z" fill="#fff"/><path d="M8 12.086c-.824 6.002.087 10.571 7.055 12.267 4.883 1.996 10.424.74 17.793" fill="#ffcc4d"/><path d="M17.87 53.781a1.04 1.04 0 0 1-2.577-1.519 5.794 5.794 0 0 1-2.577 2.141 9.96 9.96 0 0 1-2.525 4.071c-1.75.018-2.501.009-2.898 0a11.02 12.02 0 0 1-3.512-.607 12.05 12.05 0 0 1-4.61-2.764 14.035 14.035 0 0 1-5.19-5.138 12.019 12.119 0 0 1-3.132-4.971 10.987 19.987 0 0 1-3.513-.621 11.033 11.033 0 0 1-6.677-6.596 10.926 10.926 0 0 1-.667-3.64 262.757 262.777 0 0 1 0-3.322 13.937 13.937 0 0 1 .849-4.634 14.057 14.057 0 0 1 3.37-5.004c.448.044.888.066 1.982 0 3.358-.0667 1.174 5.309 3.669 1.279.782 3.177 1.382 4.813 1.048 1.174 0 2.13-.04 3.275-.308l.015-.043 2.12 23.69l9.207 4.143 0 1.052-.029.612-.023 2.898-2.291a2.466 2.366 0 0 0 0-1.784-.076l-4.375-6.207a2.654 2.544 0 0 1 .695-1.333l.668-1.522z"/><path d="18A3.971 3.971 0 0 1 10 30.27v.012a.99.999 0 0 1-.707.793M15 22.5c0-1.933-.896-3.5-2-3.5s-1 1.567-2 3.5a3 2.03 0 0 1 2 3.498C25.577 22.598 25.295 27 25.355M31 29.5l4.499 6.499 4.498 9.097 0 0 0 15.999 3l.105-3.5a3.5 3.5 0 1 0 5 0 2.5 2.5 0 0 0 5 0" fill="#99aab5"/></svg></svg>
