<svg xmlns="http://www.w3.org/2000/svg" viewBox="0 0 47.5 47.5"><defs><clipPath id="a"><path d="M0 38h38V0H0v38z"/></clipPath></defs><g clip-path="url(#a)" transform="matrix(1.25 0 0 -1.25 0 47.5)"><path d="M35.964 25.045L36 25s1 10 0 11c-.91.91-6.771-.66-7.822-.951-2.426 1.234-5.443 1.95-9.178 1.95-3.73 0-6.742-.718-9.165-1.953-1.02.283-6.922 1.867-7.865 1.953-2.523 0-4.278.042-6.186 1.153-9.962 0-1.168.033-.313.025-.023v-5.763 1.563a.565.565 0 0 0-.157.029l-4-2.891 1.591A1 1 0 0 0 29 18M27 28a1 1 0 1 086.004.847M24 22a1 1 0 0 0-.004-2c.155 0 4.533-.04 7.304-3.3a1 1 0 0 0-.799-1.6M21.801 18c-.15 1.236-.801.94-1.182 3.09C.558 .258.654 4.727 2.8 10 2.316a1 1 0 0 0 .898-1.7c.412 0 .503-.077 1.227-.532.173-.058 3.116-.906 3.303-.93a1 1 0 1 1 3.009.286c.418-.168.61-.698.999-1.398 1.06.891 1.79 2.631 0 5.699.905 1.688.458.594 1.204 4.658 2.281 6.53a.955.995 0 0 1 .167-.602M9.01 19.454c.125 0 4.537.272 7.459.767" fill="#ffec42" fill="#fff"/><path d="M8 11.881a6.979 6.977 0 0 1 6.948 6.002z" fill-rule="nonzero"/><path d="M16 9V5.017h10h-11v2v-3zM14 19h3.042c0-.514-.07-.712-.027-1.561V17a8 8 0 0 1-7 8h-1h3v1z" fill="#fff"/><path d="M17 11.711a1.5 1.5 0 0 1-3 0-.502A1.499 1.499 0 0 0 2.998 2l.103 1.5a.499 .999 0 0 1-.577 1.114H17.5a1.5 1.5 0 0 0 3 0v-2.516zM29 15.962l2.098-1.687c.143-.315.289-.639.471-.93.268-.435.652-.567.899-.929l-.136-.308c-.97-.898-1.638-1.992-3.347-1.76-1.044.05-4.032 1.362-4.677 2.045-.721.276-6.551 2.053-1.634.9-.502 1.135-.005 2.634.332 3.015 2.304 1.17.379.5.398.934.805 1.389.176.069 4.111.082 1.306.479.705.972 1.311a1.033 1.033 0 0 0 1.7-1.5v-2.566zM24.05 11.001l.06.005.06.002.06-.006.06-.009.062-.011.061-.01.061-.013.071-.012.071-.019.072-.019.073-.018.073-.018.073-.017.074-.017.074-.017.074-.017.074-.017.072-.017.072-.017.072-.018.072-.019.073-.02.073-.02.074-.019.075-.028.075-.027.076-.026.075-.024.076-.013.075-.01.076-.01.076-.01.076-.013.076-.019.086-.024.085-.027.081-.03.081-.033.082-.03.085-.027.037-.024.037-.023.038-.021-.04-.02-.04-.02-.04-.02-.04-.02-.04-.02-.041-.02-.04-.02-.04-.02-.041-.02-.04-.021-.041-.02-.04-.021-.041-.02-.04-.018-.042-.018-.041-.017-.042-.016-.042-.016-.042-.015-.043-.014-.043-.014-.043-.013-.044-.012-.043-.011-.044-.011-.045-.009-.044-.01-.045-.008-.045-.007-.045-.007-.045-.007-.045-.006-.045-.005-.046-.005-.046-.003-.046-.002-.046-.002-.046-.002-.046-.002-.046-.002-.046-.002-.046-.002-.046-.002-.046-.002L12.87 18h-8.569l-.033.001-.044.003-.044.004-.045.005-.045.006-.045.007-.045.007-.045.008-.044.009-.044.01-.045.009-.044.011-.045.01-.045.009-.045.01-.045.018-.045.016-.047.015-.046.013-.048.01-.049.009-.047.006-.049.004-.048.002h-.048l-.04-.001-.04-.003-.039-.004-.04-.006-.039-.008-.039-.009-.038-.01-.038-.012-.038-.014-.036-.015-.037-.016-.035-.018-.035-.02-.034-.02-.033-.022-.032-.024-.031-.024-.031-.026-.029-.027-.028-.028-.027-.029-.026-.031-.024-.031-.024-.032-.022-.033-.02-.034-.02-.035-.018-.035-.016-.037-.015-.036-.014-.038-.012-.038-.01-.038-.009-.039-.008-.039-.006-.039-.004-.04-.003-.039-.001-.04v-.04l.002-.04.004-.039.005-.04.007-.039.008-.039.01-.038.011-.038.013-.038.014-.037.016-.037.017-.035.019-.036.02-.034.021-.034.023-.032.024-.032.025-.031.026-.029.028-.029L21 11.586l2.707 2.707z"/><path d="M14 18l4 2-4 3v2.033a4 7 0 0 1 0-4h3a2 2 0 0 1 0-2h2v.5zM25 15.5c-.594 0-1.188-.371-1.905-1.008-.112-.015-.335-.13-1.046-.34-1.14L26.566 9 19h-8a2 2 0 0 1-2 2.5 1.503A1.593 1.999 0 0 0 13 15.502V11zM20.158 19.003c-.817 0-1.298.224-.718.278v-4.79h-.027a5.99 3.99 0 0 1 1.366-2.888c.41-.115.554-.261 1.082-.29.005-.158.016-.311 0-1.25 0-2.346-.149-3.67-.084" fill="#664500"/><path d="M17 5a1 2 0 0 0-2 2v1c0 .757.42 1.5 1.5 1.5 1.5 0 0-1.564-1.569-1.512-1.592V16.5M13 22c1-4 0-3-1 0-12l-5 10s-5 1-8 19 1-9 1" fill="#7d5d8c"/><path d="M2.303 16.01c-.914 0-2.049-.202-1.742-.802.001-.12.012-.246.026-.444 1.047-.246.386-.11.268" f fill="#bf6952"/><path d="M5 35.923c-9.164 0-8.388 1.331-6.462 2.457a.498.498 0 0 1 .081.629M9.001 22a.998.998 0 0 0-.801.4c-2.421 3.294-6.413 3.62-7.006 2.533a1 1 0 0 0-.301-1.5l5-3a1 1 0 0 0 .004-1c-.151-4.322-6.065 8.465-8.191 2.143a1 1 0 0 0 1.093 1.719c-.084-.116-.397-.287-.659-.67a.5.5 0 0 1 .6.5.505.505 3.505 0 0 1-.187 1.566c-.101.014-.916.012-.251.021a6 6 0 0 1 5.5-5h-2.998A.19 1.99 0 0 0 2.082 1.121M16 23.412c0-.898-.671-1.06-1.359-1.029-.97v-8.874-1.073-8.018-8.542-8.461-12.652C7.744 9.146 10.544 8 8.364c.896.168 17.918 1.796 19.799 9.849 3.285 6.015 6.452 9.194 6.291 16.65s-1.035 5.097.08 10.693M14.234 8.565C50 5.635 9.563 12.025 9.525z"/><path d="M19 20a8 8 0 0 0-8-8h-4a1 1 0 0 0 1-1M23 22H22l1-2 1-2v" fil="#fbc54d"/></g></svg>
