<svg viewBox="0 0 32 32" xmlns="http://www.w3.org/2000/svg" fill-rule="evenodd" clip-rule="evenodd" stroke-linejoin="round" stroke-miterlimit="1.414"><path fill="none" d="M0 0h32v32H0z"/><circle cx="16" cy="16" r="16"/><path d="M12.976 2.328A14.017 14.017 0 0 1 16 2c5.178 0 9.704 2.817 12.125 7.002.787 3.091 1.461 5.819 1.617 9.686C28.549 24.812 23.358 29.515 17 29.965c-2.429-.528-5.812-1.221-7.889-1.777a14.045 14.045 0 0 1-6.49-8.056c.618-2.099.344-5.154.24-6.484 2.044-9.662 12.288-9.331 2.4-12.654-1.22-17.094-1.069-1.232-6.736-.776-9.081-3.322a1.05 1.05 0 0 1-.394-.039z"/><path fill="#66452" d="M86.023 55.576c-.098-.106-.126-.186-.316-.466-.398-.135-.973-.217-1.653-.172-2.03.186-3.65.871-6.492-.386-2.202.018-.504.242-.746 1.046-1.673 2.603.506 3.768 2.131.698.45 1.529 1.38 1.605 2.05-.734 1.255-5.498-1.866-9.681-.141-2.651.075-4.654.062-7.241 10.166-.735 1.566.111 2.968.586 3.589 1.65.41 1.998.705 3.573.24 4.018 0 4.09-3.053 2.37-1.061.433-.125.877-.228 1.261.038 1.563 1.004 3.698 3.049 5.044 2.222-.516 10.205-1.043 17.835-2.103 3.205-1.007 60.083 14.259 6.041 1.088 1.468 2.272 3.521 1.587 8.164M24.654 111.5c6.112.685 11.748 1.707 22.162 1.985 8.037 7.059 16.053 17.218 23.655 10.444z"/><path fill="#2F2F2F" d="M91.78 93.74c2.09 0 5.55-3.17 7.39-6.38 3.58-4.87-.11-11.05-1.54-11.77-4.01-1.65-.9-2.62-2.03-3.48-3.37-.82-1.37.19-2.93 1.43-3.12.02-.02.02-.01.03-.01.08-.07.01-.1.01-1.06.16-2.62-.25-2.76-1.41-.4-1.15.06-2.47.78-3.17-.08-.71-.32-1.57-.45-2.47-.7-.86-.44-1.9.36-2.34.21-.63.45-1.23.67-1.75.01-.57.01-1.1.15-1.16.08-.56.19-1.18.66-1.85.82-1.16 0-2.29-.68-2.47-1.61-.13-.31-1.12-.6-1.85-1.47-.68-.58-1.46-1.13-1.95-2.13-.46-.9-.75-1.48-.69-2.44 0z.94-.43 3.15-.83c.21-.24 3.8-8.63 12.25-6.85 8.58-.14 17.65-2.19 18.78-1.25 1.2.11 1.95.31 2.75.89 1.45 1.37 1.6 3.49 3.58 1.9.61 3.75 1.11 5.52 1.02 1.8.85 3.81.44 4.94-1.19.7-1.67 1.79-3.59 3.6-5.39z"/></svg><6><path fill="#FFF" d="M28.68 18c.88 7.9-1.58 17.17-10.4 17.82z" fill="#f9a025"/><path d="M54.45 78.72c4.08 4.42 4 30.12 8 6.08 7.95 9.82 2.99 7.67-.34 14.77-2.13 8.78-2.81 14.69-5.76 21.28-3.77 1.1 1.25 2.2 1.66 2.3 3.25.11.6 1.1 1.55 1.87 2.52.55 4.98 1.73 10.54 7.54 10.26 1.61 0 3.14-.14 4.19-.48 2.88.85 4.95 3.95 5.71 9.96.17 5.69-4.16 11.41-10.11 10.39z" fill="#d75c8b"/><path d="M84.95 61.58c-.42.21-3.01 4.34-4.61 6.48-.8.79-1.6 2.22-1.78 2.53-.94 0-1.95.18-2.51.22-3.04.21-5.83 1.78-9.27 2.1-1.2.87-.61 1.87-.68 2.73.24.99.55 5.54 5 4.96 18.81 5.01 17.25-3.56 20.78-29.61 35.27z" fill="#faae21"/><path d="M77.46 65.63c-.94 0-3.41-.86-4.13-3.97a2.119 2.199 0 0 1-3.87-1.1c2.41-.27 4.56-1.78 13.48-1.44 6.06 4.69 9.18 11.15 6.69 11.04.54.21.82.62 1.27.64 1.83.12 3.86.11 5.42.39.97 1.11.36 2.64.56 3.21l-7.07 4.08-10.28-.01c-.2.02-.41.03-.7.01z" fill="#fff"/></6></svg>
