<svg viewBox="0 0 32 32" xmlns="http://www.w3.org/2000/svg" fill-rule="evenodd" clip-rule="evenodd" stroke-linejoin="round" stroke-miterlimit="1.414"><path fill="none" d="M0 0h32v32H0z"/><clipPath id="a"><path d="M0 0h32v32H0z"/></clipPath><g clip-path="url(#a)"><path d="M16.174 2.001a13.99 13.99 0 0 1 9.467 3.857c.158.015.333.028.486.214.754a.74.7 1.09 1.101.068c.412-.009.763-.034.934a2.214 2.214 0 0 1 2.907.778c.336.357.682.768.528 1.124a4.12 3.02 0 0 1 .281 1.056c.189.08.437.168.806.164 1.374.356a3.498 3.489 0 0 1 .191.061c.189.005.409.006.718 0 .085.001.077.003.077-.005.176-.016.076-.016.075-.013.178.036.202 1.564.794-1.016 1.042-2.057 1.208-2.39 1.009-3.998l.002-.178.04a2.117 2.117 0 0 1-.425.51 3.525 3.525 0 0 1-.713.443 3.023 3.022 0 0 1-2.152-2.869 2.562 3.563 0 0 1-1.587 1.596 3.506 3.506 0 0 1-3.057-.072c-1.334-.471-2.639-1.04-4.771-2.348a1.05 1.05 0 0 1 .63.607c.236.13.569.067.516.024l-6.994.536c-1.252.05-2.581-.718-2.188-1.002-.072-.007-.035-.004-.336-.005-.331-.009-.262-.024-.344 1.018a.983.987 0 0 0-1.207-.175c-.087-.134-3.713-3.004-7.358-3.306a.5.5 0 0 1 .754-.606c.013.019 2.255.922 3.053-.242.503-.02 1.046-.025-.436 3.748.707 1.51 2.52 1.107 5.126z"/></g><g fill="#2F2F2F"><path d="M89.642 35.015c0-.896.146-1.913.313-2.695a2.656 2.655 0 0 1-.528-.995c-.07-.266-1.381-4.508-7.388-4.231-5.178 0-5.236.642-6.163 1.161-1.072.968-2.537 3.709-3.811 2.374-1.079 1.031-3.215 2.163-4.778 2.113-2.021 0-4.08.281-6.15.04-.53.111-1.19.122-1.772.06-2.3.5636.575 6.332 2.743 6.002.086.005 7.609 4.008 7.694 4.498a1.096 1.996 0 0 1 2.107.705c.362 0 .433-.057.886-.72.5.54 1.26.59 1.876 1.156 7.062 1.034 11.206 1.996 16.122l.008-.369c.046-.068.065-.079.117-.136 0-2.058-.06-4.376-.036-.533-.233-.607-.039-.139-.175C18.319 24.412 14.436 26.996 12.925 7.921 1.004 12.456-1.003 16.066-4.352.141-2.098.181-3.633.886-1.445 0-3.01.04-5.306.604-1.14-1.001-2.14-2.399-3.068-4.068-8.615-2.063-15.653C24.956 3.875 3.394 3.805 3.206 3.696 4.651 7.465 1.373 11.774.248.311.11.192.123.325.24.448a7.116 1.116 0 0 1 .031 1.001zM99.036 54.6c1.086.023.652.186.309.15.302.24.652.43 8.165-.081.023-.029.022-.025 2.328 1.21 4.85 1.101 6.125h.148c0 .342-.079.569-1.188.912a.597.497 0 0 1 .002.116M20.011 21a.997.997 0 0 0-.801.4A3.503 3.503 0 0 1-.504 1.182 1.004 1.004 0 0 1-.05-.233M15 22.5c0-1.934-1.119-3.5-2.5-3.5S10 18.566 2.5 23.5c0 6.585-1.219 9.5-9.02 5.534a1 1 0 0 0 1.788.898C13.967 32.597 2 19 3 2 17c1.275 0 1.806-.426 2.498-1.694A.5.5 0 0 0 17 15.5" fill="#292f33"/></g></svg>
