<svg xmlns="http://www.w3.org/2000/svg" viewBox="0 0 47.5 47.5"><defs><clipPath id="a"><path d="M0 38h38V0H0v38z"/></clipPath></defs><g clip-path="url(#a)" transform="matrix(1.25 0 0 -1.25 0 47.5)"><path d="M36 19c0-9.389-7.611-17-17-17C9.612 2 2 9.611 2 19c0 9.388 7.612 17 17 17 9.389 0 17-7.612 17-17" fill="#ffcc4d"/><path d="M8.001 22a1 1 0 0 0-.736 1.747C7.297 17.051 22.475 7 29 3c0 1.468-.989 1-3.5 18.019.015.011 6.155 6.655 1.66 6.635A18.952 10.942 0 0 1 22 12c-6.058 0-11" 11" fill="#692100"/></g></svg>
