<svg xmlns="http://www.w3.org/2000/svg" viewBox="0 0 128 128"><path d="M107.84 81.88c0 6.61 3.68 11.53 11.07 10.38.96 9.03 2.92 18.55 2.97 28.94 2.53 9.63 0 17.26-10.18 22.44-8.32 6.73 0 13.07 1.31 15.71 0 27.28-3.17 19.01-10.59 24.95z" fill="#fcc21b"/><path d="M32.15 91.4c-8.73 3.16-18.47-1.24-28.69-9.57-3.05-9.1 1.21-18.58 9.77-20.7 8.41-3.03 17.78 1.27 20.87 9.61 3.06 8.34-1.3 17.28-9.74 18.71z"/><path fill="#FBBB1D" d="M31.52 82.03c-6.63 2.38-13.98-.97-16.5-7.46-2.32-6.58 10.13-8.24 9.52-8.32 7.53-18.04 9.82-28.43 8.12-9.87 0-11.09-3.73-17.49-10.53-1.57-2.54-3.2-4.75-3.94-6.19 0-.15.12-.38.35-.55.26-.28.57.5.57.41.51.23.49.2.17.32.34.36-.27.4-.45.6-.78.67-.26.61-.21.56.08.88.61.73 1.21 1.35 1.79 2.24 1.42.55 2.99 1.01 4.37 1.45 1.1.67 2.3 1.04 3.28 1.64 1.42.63 2.43 1.04 3.39.24 1.21.69 2.63.89 3.48-.87.16-1.51-.36-2.33-1.46-.53-1.07.19-2.44 1.48-3.12z"/><<><path fill="#2F2F2F" d="M50.86 69.6c-4.25.03-7.57-3.53-7.86-3.58-.16-1.25.26-2.27 1.22-3.58 1.19-.38 2.3.68 2.42 1.83.28.3.68 1.01 1.25 1.52.73.34 1.23.62 1.89.71.52.1 1.09.41 1.52.23.58.1 1.08.23 1.73.23.48.41.85.84 1.31.18.32.22.62.34.09.06.14.12.2.24.06.04.17.05.33.09.54.78 1.12.89.29 1.27-.25.55-.38.97-.59 1.37-.75.53-1.71 1.07-1.59 2.23-.01.93.41 1.08.93 1.88 1.11.65 1.45 1.95 2.4 3.03 1.89.48 3.65 1.33 4.61 2.53.12.19.33.28.53.35-.01.14-.27.24-.38.43-.76.47-1.66.84-2.37.21-.54.16-1.27.23-1.71.08-.44.01-1 1.05-1.46.16-1.03 1.03-1.28 1.57-1.58 1.3-.53.62-1.05.94-1.68.4z"/><path d="M91.05 32.05h2.91v31.57h-26.73z"/></<><path fill="#2F2F2F" d="M84.86 104.05c-1.97 0-3.53-1.05-4.25-2.33-.58-1.33.31-2.66 1.64-3.37 1.32-.45 2.59.09 3.72 1.5a2.61 2.62 0 0 1 .1-4.5c1.21-1.69 1.71-3.89 1.68-6.48l-12.91-16.3c-.34-4.02 3.92-8 0.02-7.94-.53-.48-1.29-.71-2.07-1.48-.59-.62-1.3-1.34-.9-1.65-.33-1.94.76-3.23 1.6-4.29 3.08-2.42 11.17-9.84 19.82-13.63 1.53-.42 2.91.08 3.71.72 1.85 1.91 3.37 3.82 5.01 5.72.27.34.55.68.67 1.27-.05.38-.08.72-.21 1-.11 5.69 5.5 10.38 8.96 15.88 2.6 2.67 5.39 4.43 6.91 1.47 1.77 1.44 4.48 2.16 5.12 1.83-.54.56-1.36 1.39-1.74 2.11-1.74 1.23-3.68 1.29-5.71.14z"/><path fill="#D7598B" d="M27.62 81.6c1.82-1.33 3.25-2.46 4.27-3.63 3.43-1.14 5.72-1.95 7.21-1.11-.4-.02-.98-.17-2.27-.44-2.52-.23-4.08-.91-7.98-.93-3.77-.85-5.91-2.08-9.38-2.78-.78 0-1.41.04-2.17.16-3.36.47-7.53 1.55-9.26 4.34-1.94 2.21-4.89 6.66-3.88 8.12.14 2.9.7 5.71.69 6.71-3.64 8.98-8.94 7.82-20.99z"/></svg>
