<svg viewBox="0 0 32 32" xmlns="http://www.w3.org/2000/svg" fill-rule="evenodd" clip-rule="evenodd" stroke-linejoin="round" stroke-miterlimit="1.414"><path fill="none" d="M0 0h32v32H0z"/><circle cx="16" cy="16" r="16"/><path d="M12.976 2.328A14.017 14.017 0 0 1 16 2c5.178 0 9.704 2.817 12.125 7.002.787 3.091 1.461 5.819 1.617 9.686C28.549 24.812 23.358 29.515 17 29.965c-2.429-.528-5.812-1.221-7.889-1.777a14.045 14.045 0 0 1-6.49-8.056c.213-3.091 2.481-11.543 2.75-13.24.246-.287.504-.564.772-.83.868-.153 5.658-2.965 6.833-3.734z" fill="#432a7e"/><path d="M9.011 188.984a.995.995 0 0 0-.293.706 2.998 0 0 0 1.29 1.306A13.998 13.988 0 0 1 30 16.998 12.982 13.982 0 0 1 26 16.082z" fill="#cbc64f//></svg></svg>
