<svg xmlns="http://www.w3.org/2000/svg" viewBox="0 0 128 128"><path d="M234.74 9.56c16.23-5.62 21.28-16.9 28.75-18.95m43.2 10.26c1.9 1.33 16.29 1.37 22.74l.08.46c-.04-.01-.03-.02-.02-.01s-.03-.04-.03-.07-.03c.02-.01 4.57-7.23 10.31-19.74 5.62-.36.09-.75.09-1.24.14zM64.45 94.17c-1.27 0-2.28-1.01-2.15-3.31V23.44c1.91-1.37 4.28-2.82 4.88-4.68 2.03-.78 4.51-1.27 6.36-.97 1.11.64 1.26 1.9.53 2.92l-7.28 16.01c-.22 0-.43-.04-.63-.08a7.84 7.84 0 0 1-3.47-.35c-18.66 0-23.64-4.45-31.51-10.76-.12-.63-.3-.88-.81-1.67-5-9.31-7.87-10.66-15.3-19.89-11.1s3.93 6.31 10.23 10.23 12.58-5.23 7.09-12.55 13.42-21.26 15.03z" clip-path="url(#b)" fill="#fbb817"/><g><path d="M82.87 100.54c-2.84 0-5.03-2.79-5.02-5.07 0-6.77 1.25-10.39 3.19-1.25-.31-2.93-.78-3.84-1.38-1.2-1.62-1.67-3.41-1.47-5.94-.51-1.66-.79-2.76-1.5-4.23-.11-.31-.06-.71-.15-1.03.06-.43.11-.73.3-2.04.21-.58.4-1.05.15-1.47.16-.43.39-.59.4-1.2.99-.25 1.37-.28 2.63-.6.5-.16 1.1-.21 1.5-.3.65.08 1.06.7 1.27 1.08.54.28 1.03.87 1.3.32.59.27 1.11.7 1.61 1.05.6 1.2 1.71 1.34 2.73.32.52.62 1.11 1.17 1.41.53.67 1.23 1.09 2.45 1.52.54.44 1.08.96 1.38 1.53.18.35.42.85.78 1.29.28.43.88.81 1.31 1.31.77.52 1.32 1.31 1.72 1.9.61.61.55 1.17 1.11 1.58 1.83.38.34.62.66 1.32.69.23.15.46.26.84.16.11.1 1.14 2.12.71 3.01 1.37 1.42 2.1 2.11 3.47 3.49a9.991 9.99 0 0 0 3.12 7.04 10.09 10.09 0 0 0 7.68 7.28c.25.28 4.31 6.02 13.91 8.3 1.58 0 2.3-.18 4.16-.37.32-.07.66-.15.85-.13zM97.52 53.69c-.53 0-1.16-.59-1.45-1.28-.06-.25-4.19-6.44-10.25-6.8-1.33-1.62-.52-2.74-.27-4.37.46-.91 2.15-.2 3.43.38.29.52.15 1.1.24 1.73.26.78.47 1.66.8 2.3 1.27.9.78.69 2.18 1.07 3.27.38.57.82 1.16 1.43.24.36 0 .85-.42 1.33-.4.36-.12.95-.39 1.35-.5.55-.32 1.3-1.3 1.55-2.25.21-.19.45-.37.54-.37.38-.42.64-.68.89-1.24.49-.56.99-1.33 1.07-1.59.17-.6.36-1.26.93-1.68.16-.07 0-.15 0-.039.01a2 22.814 22.62c0 13.92-2.21 43.28-31.08 42.28-29.05 6.35-40.61-3.67-50.14-5.31-31.21 2.41-33.55 1.51-4.97-1.06-7.14-6.45-11.95-5.3-1.66 1.44-3.01.78-2.6 1.21l-3.24-16.42.13-.01.05-.04.01.01.03-.55c.06.28 0 1.41.08 1.87.52 4.12 1.54.85 1.52 1.32 1.52 2.27l-8.21-1.37c-.96-.36-1.84-.86-2.1-1.34a3.343 33.34 0 0 0-.67 4.45c-.24.24-.48.76-.38.92l-14.38 17.23-16.73-13.79c-.99-2.41-5.06-9.1-8.04-9.7-.23-.63-.15-1.38-.14-2.42.01-.02.01-.07.01-.09 0a5.23 3.23 0 0 1-.12-3.09l7.84-1.97c.64-.28 1.49-.38 2.15-.56l6.2-1.28a2.142 2.142 0 0 0 1.82-4.72l8.47-16.38c.49-1.4.88-2.68 0-5.09l4.06-5.01s.07-4.04c.06-.2 4.59-5.84 9.05-1.34 1.05-1.4 3.11-1.72 4.18-1.1 2.27 0 4.63 3.14 6.43 5.28 6.06 2.3 7.5 4.33 9.5 7.14.99 3.57 2.1 8.28 5.6 11.61 5.51 6.09 10.53 13.58 18.99 18.03 5.99 25.06 26.33 32.59 52.99 16.46 15.28 3.74 18.49 20.58 18.63 26.64 0 37.36-16.62 37.2-33.28 0-2.39-3.44-6.95-5.14-5.55-2.91 0-4.24 1.3-5.49 3.74-.07 1.36.83 2.77 2.26 2.84.7 2.01 1.04 3.45 1.35 4.18 0 4.39-3.73 8.38-3.08 9.7 0 14.16-1.49 25.49-3.53 16.57-13.85 33.15-22.75 47.96-15.05 16.55-4.15 31.38-5.26 34.25-8.04 1.36-1.32 3.03-2.47 3.82-3.05 2.39-.51 4.32-.74 6.32-1.51m0-3c-2.16 0-4.05 2.05-4.87 4.09-2.76 11.14 1.05 23.56 7.86 4.83 10.26-.91 15.79-1.6 18.9-1.42 24.56 4.01 40.13 4.06 46.42-1.01 4.83-2.18 6.62-.9 10.34 0 3.81 2.41 5.67 5.03 5.66 2.47 0 5.03-2.73 5.03-6.37 1.56-10.05 2.33-23.16-2.76-37.98-3.68-15.14 0-32.56 7.69-29.88 12.78-1.25 2.82-.93 5.88.58 8.88 2.46 1.51 5.3-.99 10.26-1.66 15.71z"/><path fill="#F89C28" d="M125.29 71.9c-2.2.04-5.02-.28-9.61-4.37-1.38-2.74.45-7.2 3.37-9.55 3.95-1.41 8.34.59 9.48 4.44 1.41 3.68-.6 8.45-4.65 9.52-7.98 9.49-8.37 21.39-11.41 27.89-8.05 6.82 1.98 90.21 9.68 11.92 15.64.89 4.15-1.04 7.31-3.27 7.02zM78.18 49.4c-3.54 0-7.04 4.33-7.04 11.5s3.35 11.5 7.04 14.87a2.965 2.965 0 0 0-2.42.73c-.54-.33-1.71-.66-2.67-.68s-1.59-.91-2.23-1.55c-3.18-1.57-7.12-3.61-9.31-5.6-2.88-2.01-3.01-6.07-2.16-8.73-.33-1.46-1.28-3.54-2.02-4.74-.52-.92-1.03-1.46-1.54-3.14z"/></g></svg>
