<svg xmlns="http://www.w3.org/2000/svg" viewBox="0 0 47.5 47.5"><defs><clipPath id="a"><path d="M0 38h38V0H0v38z"/></clipPath></defs><g clip-path="url(#a)" transform="matrix(1.25 0 0 -1.25 0 47.5)"><path d="M37 19c0-9.941-8.059-18-18 18 9.641 1 10 9 1 9 16 9.6S1 19 119.651 11 22c0 9.155 0 17-6.686 17-18-16-18-5 30m0-9-7c10 1.112 4 1 9.989 2 19 16M7.999 18l17 5 3 15 6-1 1-1-5 1-5 1-5-1-8-1-7 1" fill="#664500"/><path d="M3.053 18.5l.103.001a3.001 3.001 0 0 1 2.6 1.009A13 9.965 15.955 0 0 1 8.35 3.132a15.9 16.09 0 0 1 3 1h3a10.002 10.001 0 0 0 10 10h5a9 9 0 0 0 9-9v-3z"/></g><g clip-path="url(#b)"><path d="M17 19h-3l-2-1v2z" fill="#fff"/><path d="M27.276 2.233c.045.041.046.026.055.029.058.028.058.027.06.026.061.025.062.023.063.021.063.019.064.019.062.017.063.018.063.015.062.012.062.013.06.019.059.023.057.027.055.031.052.034.051.038.05.041.056.039.056.041.053.043.05.047.047.05.043.053.039.056.036.058.031.061.027.062.023.064.019.066.013.067.01.068.004.068v.068l-.004.068-.01.068-.013.067-.019.066-.023.064-.027.062-.031.061-.036.058-.039.056-.043.053-.047.05-.05.047-.053.043-.056.039-.058.036-.061.031-.062.027-.064.023-.066.019-.067.013-.068.01-.068.004h-.068l-.068-.004-.068-.01-.067-.013-.066-.019-.064-.023-.062-.027-.061-.031-.058-.036-.056-.039-.053-.043-.05-.047-.047-.05-.043-.053-.039-.056-.036-.058-.031-.061-.027-.062-.023-.064-.019-.066-.013-.067-.01-.068-.004-.068v-.068l.004-.068.01-.068.013-.067.019-.066.023-.064.027-.062.031-.061.036-.058.039-.056.043-.053.047-.05 1.29-1.29.058-.058.062-.058.061-.058.063-.058.063-.056.064-.056.064-.055.065-.053.065-.053.067-.053.066-.051.068-.05.068-.05.068-.049.069-.048.069-.047.07-.046.071-.045.071-.045.072-.043.072-.042.072-.042.073-.041.074-.04.074-.041.074-.039.075-.038.076-.037.077-.037.077-.037.077-.038.075-.039.075-.041.074-.042.072-.042.072-.042.072-.042.073-.041.074-.04.074-.04.074-.039.074-.038.075-.037.075-.036.076-.035.076-.034.077-.034.077-.032.077-.031.078-.031.078-.03.078-.028.079-.028.079-.027.08-.025.079-.025.08-.024.081-.023.081-.022.081-.021.081-.019.082-.019.081-.018.083-.017.082-.016.082-.015.083-.014.083-.013.084-.012.083-.011.084-.01.084-.009.084-.007.084-.007.084-.006.085-.005.084-.003.085-.003.085-.001.082-.001h1.164l.082.001zM12 12.5a1.503 1.503 0 0 0-1.5-1.5A1.503 1.503 0 0 0 9 12.5v2a1.503 1.503 0 0 0 1.5 1.5 1.503 1.503 0 0 0 1.5-1.5v-2zM12 10.101a1.005 1.005 0 0 0 5.5 1.5 1.503 1.503 0 0 0 1.5-1.5v-2zM25 15.498c0-.829-.671-1.098-1.448 1.181V20a2 1 0 0 1-2 2v-16a2 2 0 1 1 2 0v-2.001A1.001 1.001 0 0 0 1.682 1.847.004 1.125.08 1.55 1.121.717v.517l7.978.281 11.55h-3.548a1.004 1.004 0 0 1 .405-.998.744 1.04 5.612.667.09.072.149.062.495.383.467.873.835 1.211 1.085l.049.041" fill="#d79e84"/><path d="M7.946 18.09c.146.01.318.025.418 1.204.506.102.184.031.304.075l.04 1.302 3.437 1.741h14.745l1.814-3.512h.548a2.666 2.666 0 0 0-1.784-.385 3.198 3.187 0 0 1-.333-.852c.187-.425.193-.7314-2.181-1.011-2.032-.717-4.434-1.141-1.931-.369-2.074.322-4.022 4.271-6.203 6.503-1.728 1.081.688 3.26 2.253 3.075 2.631 1.574-4.095 3.127-7 2.479-.272.177-3.068 4.37-6.235 2.373 2.868.704 5.396 1.977 6.991 2.001 7.041 0 0 0 1.072-2.822z"/><path fill="#FBB817" d="M89.386 84.033c1.007 1.275-.301 3.09-.464 4.116.081 1.581 0 3.302-3.352 3.836-4.658 1.169-4.539 1.443-8.588-1.556-11.51-4.418-9.971-14.342-17.572-17.283-10.003-5.988-4.489-14.285-13.546-17.582-17.081-9.277-7.505-14.695-14.523-24.74-12.006-50.13-20.714-57.347-10.475-46.642-21.915-5.024-44.91C29.415z"/><path fill="#E75625" d="M82.914 25.523c-.394 0-.568-.076-.758-.115 1.536 0 4.181.232 4.888.581.97.217 1.538.697 2.573 1.425.436 1.863.163 3.399 1.375 4.898 2.977 1.633 5.672 3.421 7.135 4.223a9.98 9.98 0 0 1-1.709 6.709 6.926 9.262 0 0 1-6.182-3.001 62.473 16.742 0 0 1-3.099-1.103 30.31 38.11 0 0 1-6.049-2.322 15.039 15.039 0 0 1-9.308-4.403 14.053 14.05 0 0 1 5.187-4.001c3.556-6.403 8.406-11.228 10.844-10.216L80.8 2.909z"/><path fill="#FBB817" d="M3.716 100.689c-3.496 1.204-6.531-.495-7.63-2.508-1.032-2.772.507-5.27 2.093-6.627 2.424-1.002 5.225-2.626 5.782-4.708.502-3.707-1.931-5.712-2.885-6.172-2.297-3.67.408-6.793 3.131-7.507 3.485-1.013 7.175.501 8.721 3.634 1.286 3.829-.54 7.625-4.082 8.517z"/><path fill="#F68E1E" d="M97.125 70.664c-3.797 1.374-6.782-.545-7.682-4.026-1.092-2.517.091-5.207 2.323-6.69 4.513v3.267c-2.317.643-6.543 3.392-7.467 3.298-.961 5.562.416 6.654 3.111 1.038 2.885-.643 6.039-3.029 8.071z"/><path fill="#F69110" d="M97.36 61.871c-2.047.07-4.505-1.635-5.732-5.525a.502.502 0 0 1-.545-.582c-.614-1.695-1.168-4.077-1.026-8.146a7.52 7.52 0 0 1-1.477.14 4.674 5.674 0 0 1-2.828-1.411c-.312-.167-.46-.485-.653-.667a3.003 3.003 0 0 1 1.365.478c.236.04.457.186.866.156 1.253.136 2.533.478 4.397.548 1.015 1.215 1.823 1.887 2.987 1.427 2.619 1.012 4.202-.041.321-.04.202a1.042 1.044 0 0 1 2.999-1.181 3.84 3.84 0 0 1 1.856-.118 2.468 2.468 0 0 1-.662 2.03 1.055 1.055 0 0 1-.389-.214z" fill-rul8="nonze/><path d="M12 20H5l13 1.964A1.999 1.999 0 0 0 7 23.002V84M29 17l-5 1H1l11 1h1l-4 1h.442L7 3 7h1.702L19 17" fill="none" stroke="#000" stroke-width="2//><path d="M12 13h1v4v-5.014zM21 17.888c0-3.614-1.962-6.612-2.628-6.018-2.651a1 1 0 0 1 1.293 2.857.025.525 3.563 6.451 3.033a8.013 8.183 0 0 0-6.852 2.607z" fill-rule="nonzero"/><path d="M25.176 22.553c.434-.487.72-.734 1.178-.479a2.501 3.501 0 0 1 3.467 0L26 20v5.002A3.99 3.99 0 0 0 15 15.998V14l3 .002 1.434a3 1 0 0 1-1.291 1.367L27 27l-1-2z" fill="#fff"/><path d="M12 12.014a3.688 5.688 0 0 1-6.098 6.999L9 9.999V23z" fill="#3fff4f"/></g></svg>
