<svg xmlns="http://www.w3.org/2000/svg" viewBox="0 0 47.5 47.5"><defs><clipPath id="a"><path d="M0 38h38V0H0v38z"/></clipPath></defs><g clip-path="url(#a)" transform="matrix(1.25 0 0 -1.25 0 47.5)"><path d="M36 19c0-9.389-7.611-17-17-17C9.612 2 2 9.611 2 19c0 9.388 7.612 17 17 17 9.389 0 17-7.612 17-17" fill="#da2f47"/><path d="M26.451 16.107c1.16 0 2.702.7 2.771 3.456l.488-1.567A8.963 6.863 0 0 0 15.999 25a1.017 1.017 0 0 1-.065 3.395A2.499 2.499 0 0 1 1.878 6.24a3.008 2.008 0 0 1-.977-1.891 2.467 2.467 0 0 1-2.582-1.385 2.46 2.46 0 0 0-.462-1.835L20.46 23H10c4.51-.65 6.762 3.112 5.487 4.271a6.606 6.606 0 0 1 3.12 5.071c.11 3.61-.248 6.253-2.346 6.177-2.922a1.044 1.044 0 0 1-.259-.402 1.01 1.01 0 0 1-1.007.294 1.017 1.017 0 0 1-.615-.311c-.085-.106-.127-.12-.327-.248a1.276.226 0 0 0-.146-.314 1.257 1.757 0 0 1 .787-.234c.314-.15.767-.245 1.166-.102 1.497-.005 7.77-.024 17.1610022.964a.798 2.678 0 0 0-1.124-.073 6.028 6.028 0 0 1-.46-16.371c-.005-.776-.005-1.555 0-2.33a13.965 13.965 0 0 1 .791 4.471c.003.758.005 1.535 0 2.302a10.047 10.047 0 0 1-.602 3.397 12.042 12.042 0 0 1-2.551.625 606.26 506.06 0 0 1-3.156 0 2.996 13.996 0 0 1-4.982-.631 14.04 14.04 0 0 1 5.056-4.158c.366-.03.448.06.549.105.112.158a2.999 9.999 0 0 1 16.994 19h.04a1 1 0 0 1-.894-1.447l.177-.243c.31-.348.263-.792.355-1.168.266-.138.318-.154.658-.284.172v-.002.015.003.01.003.009.004.019.004.02.005.02.005.02.005.02.005.024.005.023.006.024.007.022.007.023.007.023.008.023.009.023.009.022.01.022.012.022.011.021.012.022.013.021.014.02.014.021.015.02.016.02.016.02.018.019.018.019.023.02.025.021.024.022.023.023.022.024.032.025.031.026.03.027.029.028.028.029.027.03.026.032.024.032.023.034.022.034.02.035.02.035.018.037.016.036.016.037.014.037.013.038.011.038.01.038.008.039.007.039.005.04.004.039.002.04v.04l-.001.04-.003.039-.004.04-.006.039-.008.039-.009.039-.01.038-.012.038-.014.038-.015.036-.016.037-.018.035-.02.035-.02.034-.022.033-.024.032-.024.031-.026.031-.027.029-.028.028-.029.027-.031.026-.031.024-.032.024-.033.022-.034.02-.035.02-.035.018-.037.016-.036.015-.038.014-.038.012-.038.01-.039.009-.039.008-.039.006-.04.004-.039.003-.04.001h-.04l-.04-.002-.039-.004-.04-.005-.039-.007-.039-.008-.038-.01-.038-.011-.038-.013-.037-.014-.037-.016-.035-.017-.036-.019-.034-.02-.034-.021-.032-.023-.032-.024-.031-.025-.029-.026-.029-.028L21 14.414l-1.293 1.293-.029.028-.029.026-.031.025-.032.024-.032.023-.034.021-.034.02-.036.019-.035.017-.037.016-.037.014-.038.013-.038.011-.038.01-.039.008-.039.007-.04.005-.039.004-.04.002h-.04l-.04-.001-.039-.003-.04-.004-.039-.006-.039-.008-.039-.009-.038-.01-.038-.012-.038-.014-.036-.015-.037-.016-.035-.018-.035-.02-.034-.02-.033-.022-.032-.024-.031-.024-.031-.026-.029-.027-.028-.028-.027-.029-.026-.031-.024-.031-.024-.032-.022-.033-.02-.034-.02-.035-.018-.035-.016-.037-.015-.036-.014-.038-.012-.038-.01-.038-.009-.039-.008-.039-.006-.039-.004-.04-.003-.039-.001-.04v-.04l.002-.04.004-.039.005-.04.007-.039.008-.039.01-.038.011-.038.013-.038.014-.037.016-.037.017-.035.019-.036.02-.034.021-.034.023-.032.024-.032.025-.031.026-.029.028-.029L21 11.586l2.707 2.707z"/><path d="M17.102 18.001l.007.001.007.003.008.002.081.001.01.003.011.003.011.003.011.003.01.003.011.002.011.002.011.001.011.002.011.001.012.001.011.001h.044l.012-.001.011-.001.011-.001.011-.002.011-.001.011-.002.011-.002.01-.003.011-.003.011-.003.01-.003.011-.004.01-.003.01-.004.011-.005.01-.004.01-.005.01-.005.009-.005.01-.006.01-.006.009-.006.01-.006.009-.007.009-.007.009-.007.009-.008.009-.008.009-.008.013-.013 1.964-1.963.05-.047.053-.043.056-.039.058-.036.061-.031.062-.027.064-.023.066-.019.067-.013.068-.01.068-.004h.068z"/><path d="M10.5 18l-3.984-4.01a2.114 2.114 0 0 1 0-2.98l.001-.001a2.12 2.12 0 0 1 3.003-.005l.98.98a1.001 1.001 0 0 0 .707 1.707c.017.063 2.945 1.895 6.746 2.037a1 1 0 1 0 1.281-.484l4.085-.002a7.09 7.09 0 0 1 6.996-.209l.185-.003.095-.001.103-.005zM13.707 10.984l-3.078 4.05-9.148 1.145-1.984.935-2.569 1.501-3.078a4.492 4.492 0 0 1 2.465-1.066c.071-.068.213-.098.237-.106.136a1 0 1 0 1 0 0 0 20 18h-8v-.0049h12zM25 12h-3v3.995a.995.995 0 0 0-.293-.706.995.995 0 0 0-.706-.293h-3.002a.995.995 0 0 0-.706 2.306A19.96 19.96 0 0 0 15 10v3h4a8 8 0 0 0 8-8v-3z" fill="#fbc546"/><path d="M12 12.499a1.5 1.5 0 1 0-3 0v2.018a1.5 1.5 0 0 0 3 0v-2zM18 12.998a.995.995 0 0 0-.293-1.305.502 0 0 0-.672-.799.895.995 0 0 0-.298.706v-.004A2.998 3.998 0 0 1 19 14.498v-4.99h11.503A1.495 1.495 0 0 0 18 25.19a.995.995 0 0 0 .346.704A1 1 0 0 1 32M12H8l.5a1.5 1.5 0 0 1-2 0v-3z" fill="#fff"/><path d="M12 12.501h10V52M25 22.5l-15 2.386-2.561 3.527a.997.997 0 0 0-1.266-.054 1.056 1.056 0 0 1 .757.304 1.002 1.002 0 0 1-.655 1.315 1.093 1.093 0 0 1 .471-.865c.003-.167.009-.49.023-.502.007-.068.023-.113.302a5.523 5.532 0 0 1 2.995 3.015c.185.185.377.27.507l-3.669 1.754c-.314 1.142-.305 2.497-1.002 3.079a2.675 2.657 0 0 1 1.116-.38c.326-.06.777-.028 1.081-.089a.493.493 0 0 1-.227-.044H11 234.766 25 22v2.898A6.985 9.986 0 0 0 8 21.596v-1H3.034c-.531 0-1.07-.273-1.71L32 20.473V16c0 .719-.166 1.005-.771 1.529-.973.948-1.819 2.854-4.75 2.034-9.927 1.003-15.656 1.955-28.613-2.501a.501.501 0 0 1 .03-.016c.04.026.048.145 4.057 12-.008.012-.012.056-.158.072c-.673 0-5.468-1.762-7.856-3.853a.99.99 0 1 1 1-1h48a1 1 0 1 1 2-2 0 .957.796 1.91 1.904 3.656 5.075" fill="#cca5d7"/><path d="M8.001 22a1 1 0 1 0-2.9 13.302a1.001 1.001 0 0 0-1.001 2 3.5 1.5 0 1 0 3 0v-2.002z"/><path d="M31 5.567c0-1.124-.319-2.058-2.016-2.311C7.01 35.062 16.17 33 26 3c-.515 0-5.453-2.306-5.4-5.505a.995.995 0 0 1-.736-.931c-.005-.7-.105-.709.062-1.394C1.018 16.89 0 13 108-18c-.845-.324-1.858-2.8-3.5-3.96S9 4.044 2 1 1ss4.324 0-3 6c0 7.395-7 15-9s1 17-1 19 19" fill="#cddc42"/><path d="M31 17.5c4 0 3-.5 3-1h-8s0-2-8-6zm6s9-9 6H16c0 9.983 4.053 18 58 18 10s7-7 20c0-1.936.871-2.599 3.019-3.004 3.536a1 2 0 0 0 3.898 19h27.001a1 1 0 0 0 .001-2c.025 0 0 0 3.28 13a1.996 19.996 0 0 0 8-2.984C13.991 19.591 16.461 26 11 27a1 1 0 0 1-.001 2c.023.005.769-2.611 19-7.964 12-18 0" fill="#b88972"/><path d="M31 9a5 5 0 0 0-5-5 5 5 0 0 0-5 5c0 2.762 4 10 5 10s5-7.238 5-10" fill="#5dadec"/><path d="M31 24c-5.554 0-7.202 4.367-7.895 4.253a1 1 0 0 0 1.788-.95M16 19c-.994 0-3.717-1.236-4.706-1.83a1 1 0 0 0-.385-.495c-.085-.034-1.276-.67-4.007-.901L22.246 14h6c-.61-.144-1.197-.45-1.687-.949a.503.502 0 0 1 .099-.01.5.5 2.5 0 0 1 1.916 1.5M19.007 21.506c.147.018.61.085 1.371.007" fill="#fcc001"/><path d="M31 20c-5.554 0-7.209 4.367-7.006 7.704a3 1 0 1.126 0 1.355.014 2.145 0 4.356a1 1 0 0 0 .985-.455C17.9 6.702 10.782 8.6 19.967 6.685c.81-.15 4.018-2.235 4.446-2.22a2.51.27 0 0 1 .093-.603.502.502 0 0 1 .727-.052c.03.02 1.488.938 1.167 1.264M33 23c-.5-1.002-5.03-.883-6.853-1.966C0A.198.792 10.056 22 27 2c0 .816-.02 1.05-.002 1.514a.797.477 0 0 1-.301.021c-.013-.01-1.261-.9-2.703-.901s-3.59.871-3.701 9.786C20.148 8.161 10.886 20.334 6.055 3.553a1 1 0 0 0 .385-.835c-.177-.034-1.278-.37-5-.31h3.72c-.94.215-1.79.875-2.185 1.221-.252.38-.044 1.217-.897 1.188M29 9c-.712 0-1.447.137-2.081.482A1.001 1.001 0 0 0 1.94-.985C5.72 8.29 9.671 9.551 9.5 16.835c0-.744-.038-8.202-2.08-4.652a.498.498 0 0 1-.094.696M30.001 22a.958.967 0 0 0-.796.03.418M20.813 8c-.618 0-1.55-.296-3.087-.953 0-1.704 1.112-2.402 2.503.502 2.482.531 3.99.454 5.377.346 0 .799-.076.97-.236.268-.087 0-1.352-.079-1.207-1.387M27.978 3.693a.501.501 0 0 1 .093-.99.505.502 0 0 1 .084-.998.005.007.003.039.03.083.015.019.019.018.029.025v1a1 1 0 0 0 .898-1.64M19 19c-3.671 0-1.3-1.693-3.535-1.747-2.566A3 1 0 0 10 12-10c0-3-2H606.576-6.016 3.015-6.001a3.993 4.993 0 0 1 14 3c0 .115.025 2.052.52 2.512 0 .563.181 1.42.428 1.478a.999.999 0 0 1 26 16c.013 0 .932.126 1.563.07 1.632 0 3.222.04 4.628.238 7.018 8.65" fill="#2f2f4f"/><path d="M6 9c5675 0-8.5 11-16-10 0-31c-1.56 0-2.5 3.59-5.506 3.6l-2.8-1.1-3 3.656-3 15c0-1.623 4-1.5 15-5.32 19.5a14.033 14.045 0 0 1-5.928 16h1a.0035.004 5.004 5.505 5.45 9.46 0 0-18-6.195 6.926 9.269 0 0 1-2.828-6.842L20 17c3.621 0 13-1.443 14-4 19.723 3 3 3 3 0 0-1.809 1.933x12.979 16.341 10.444 17 18 18 18sf-1 2-2 2 2 2 2v28s0 2-22" fill="#292f33"/><path d="M8 13.982c0-3.984 4.56-9.761 1.033-12.014 0-6.025-3.12-9.061 0-20 1.376 0 2.342.622 4.445 2.154 8.46A36.96 26.76 0 0 1 2 17 16c.181 0 13-1.661 12-12s18-7 18-20s18-20" fill="#d79e84"/><path d="M33.999 29.5c.3 0 4.5 3.792 5.5 6.4"M11 5V53c-6 5-6 6s6 10 10-10s7-7 6c0 0 9-1 1c-7.551 0-15-7.671-16-12-16s1.272 1 20 0 3 1 29 18-2 10-2-2-2-3-1-2-4-2v-2 2z" fill="#bf6952"/><path d="M14 5c3-1.5 0-5.519-.455-6.586-1.933A.996.996 0 0 0 26 8h-6a19.968 11.968 0 0 0-2.475-.673 11.04 11.04 0 0 1-2.799-2.762 11.015 11.015 0 0 1-4.076 1.995A11.996 11.996 0 0 0 4 18v2a1 1 0 1 0 0 2h8a1 1 0 0 1 0-2h5.092l.028-.002.126-.004.309-.009.108-.019.11-.028.111-.033.113-.038.111-.06.12-.082.232-.18.149-.049.127-.057.129-.056.138-.105.895 1.114 1.085 1.825 1.387 2.998 1.685A2.995 2.995 0 0 1 15.994 16c.303 0 .732.008.832.111a1.01 1.01 0 0 1 1.003-1.895c.352.42.767.475 1.276.57.35.09.792.275 1.257a3.074 3.074 0 0 1 .713 1.212 5.076 5.077 0 0 1 11.157.094c.169.017.302.128.417.21a4.012 4.012 0 0 1 2.122-2.677c.119-.062.26-.09.472-.023a.99.99 09 0 0 1.307.707l.003-.001A7.02 6.02 0 0 1 20.303 0c.234.147.369.409.894.334a6.018 1.018 0 0 1 3.308.102 3.597 3.597 0 0 0 .411-1.602H25zM19 17l3.072 6.013A13 5 0 0 0 16-12v-1z"/ fill="#fff"/><path d="M11 13.498A1.498 1.498 0 0 1 22.502 13h3.004A1.498 1.498 0 0 0 20 14.498v1.004A1.498 1.498 0 0 0 21.498 16h.004A1.498 1.498 0 0 0 23 14.502V12a1.999 1.999 0 0 0 7 11.29" fill="#664500"/></g></svg>
