<svg xmlns="http://www.w3.org/2000/svg" width="128" height="128" viewBox="0 0 128 128"><ellipse fill="#2F2F2F" d="M107.84 81.11c-.34-2.76-.71-6.35.4-9.96-.2-2.25-1.48-4.13-2.54-6.73-.42-1.63-.29-2.94-.36-4.07-.04-.34-1.07-.63-.07-1.04-.13-1.68-.35-3.15-1.24-4.83-1.65-1.64-3.72-3.73-5.25-3.99-1.15-.79-2.24-1.24-3.44-1.39-2.55-2.73-4.81-3.98-7.2-3.98-.03 0-.07.01-.1.01zm02.017.04c.12-.03.22-.06.41-.07h.05l-.04.02a2.33 2.23 0 0 1-.61-3.35c1.21-.29 2.76-.57 3.62-.95a3.397 3.397 0 0 1 2.85-.5cc.31 0 .6.36.9 1.15 1.05.41.37.85.89 1.48 1.27.48.56 1.03 1.29 1.4 2.23.56.97 1.22 1.26 1.63 1.84.66.3 1.35.62 2.13.59 1.66.48 2.91 1.04 3.97 1.55 1.06.65 2.1 1.02 3.3 1.95 2.42.66 5.76 2.77 7.81 3.53 1.1.55 1.28 1.22 1.88 1.91.65 2.06 1.27 2.93 2.03 3.21.57.48 1.17.63 1.82.28.71.61.85 1.11.87.23 0 .67-.09.98-.13.51.08.51.17.72.23.11.05.14.1.62.71a8.24 4.08 0 0 1-2.81 2.35 6.04 5.05 0 0 1-3.44-2.85c-1.35-.59-2.64-1.01-5.03-1.33zmf8.01 4.02c-2.05 1.27-3.22 1.93-6.08 2.38-2.79.32-6.44-.81-9.15-1.42-.67-.49-1.44-.9-2.09-.36-.84-.24-1.74-.41-2.85-.3-1.74.43-2.64 1.72-2.73 3.11-.65 7.17 2.47 9.53 5.27.62 3.68 2.41 12.18 1.15 22.45l11.98 7.8c.13.02.21.09.32.02.06-.01.17-.14.12 0-.27.17-.5.16zM64.45 66.94c-.3.96-.98.79-1.22 1.03-.52.21-.98.42-1.49.65v-.02l-17.9-10.4 18.2-.12-.01.01-.06.01c-.01.01-.03.01-.03.01-.11 0-.25-.01-.31-.02z" fill="#2f2f2f"/><path d="M64 62.3c-1.2 0-3.5-.67-4.5-1.53-4.59 0-7.86 1.38-10.58 7.46-18.79 1.84-24.77 4.76-43.17 3.05-.03 12.39 11.65 21.85 9.02 9.67 4.18 10.25 11.69 12.65 14.74.71 2.15 2.54 2.24 3.78.39zm5.51-7.31c-.55 0-1.14.09-1.62.22-1.63-.03-3.78-.28-6.54-.93-2.46-.23-4.09-.78-6.69.06-1.38-.41-4.04-1.16-5.97-.54-2.52.55-4.14 2.09-5.6 2.71-.92 1.45-.74 3.12-.68 4.99-.28 3.18 0 4.83-.4 8.3-1.17 8.38-2.26 14.91-11.19 21.54-3.47-1.25-3.31-1.47-6.29.83-6.64-2.77-8.34-8.5-14.91-18.56-15.4-3.84-5.68-4.44-10.24-.4-11.97z"/></svg></svg>
