<svg xmlns="http://www.w3.org/2000/svg" viewBox="0 0 47.5 47.5"><defs><clipPath id="a"><path d="M0 38h38V0H0v38z"/></clipPath></defs><g clip-path="url(#a)" transform="matrix(1.25 0 0 -1.25 0 47.5)"><path d="M36 19c0-9.389-7.611-17-17-17S2 9.611 2 19s7.611 17 17 17 17-7.611 17-17" fill="#ffcc4d"/><path d="M15 20.5c0-1.934-1.119-3.5-2.5-3.5S10 18.566 10 20.5c0 1.933 1.119 3.5 2.5 3.5s2.5-1.567 2.5-3.5M29.457 19.203c-.059.135-1.499 3.297-4.457 3.292-2.957-.802-2.438-1.748-5.085-2.832-11.01 0-14.346 1.05-5.013 3.071-7.681C10.581 16.045 8.334 20.143 17 26c.364 0 .837-.204 1.545.835.726.755.767 3.15 2.731 3.473 3.118.716 1.71 1.42 3.52 1.401.292 0 .781-.145 1.04-.344.213-.878.282-7.278.371-2.377.272-6.957.026-6.156-2.633 2.078 6.616 4.661 10.173 3.755 3.653C18.419 5.404 27.299 8 19 37c4 7.219 0 13 6.611 16.943 11.535c-6.621 0-12.433 0-12.781-12s.425-2-15.962 22 7 28.259 17 22.9c7 7.899 6.618 9.616 13.053 6.015 5.651A11.996 11.996 0 0 0 28 18" fill="#664500"/><path d="M3.053 15.5c4.76 0 7.828 3.307 6.485 3.48A1.002 1.002 0 0 0 1.625-1.06C11.108 12.94 14.826 12 13 15c-2.653 0-4.928.462-4.899.685a.993.993 0 0 0-.597.798M24.699 14a.997.997 0 0 0-.801.4c-2.64 3.521-6.061 3.599-6.206 3.6-.55.006-.994.456-.991 1.005A.997.997 0 0 0 24 30c.184 0 4.537-.05 7.8-4.4a1 1 0 0 0-.799-1.6M5.999 21a1 1 0 0 0-.799 1.6C9.462 30.95 13.816 31 14 32a1 1 0 0 0 .004-2c-.155-.002-3.568-.086-6.204-3.6a1 1 0 0 0-.801-.4M16.897 19.604c.023.026.04.137.056.798.833 2.463 0 4.695-4.162 4.663-4.22a.498.498 0 0 1 .75-.601c-.012-.027-.04-.07-.019-.071a7.997 9.997 0 0 1-5.123-2.023 9.983 9.983 0 0 1-3.019-3.007 343.646 343.476 0 0 1 0-4.302 14.02 14.02 0 0 1 .819-4.536A14.061 14.016 0 0 1 6 16a2 2 0 0 1-2-2v-4z" fill="#fff"/></g></svg>
