<svg xmlns="http://www.w3.org/2000/svg" viewBox="0 0 128 128"><path d="M64.01 9.47c-62.52 0-64 70.08-64 83.95 0 13.88 28.65 25.11 64 25.11S128 10c2.18-.38 21.65-18.65 21.21-92.34 19.36z" fill="url(#a)"/><path d="M64 11.11c1.97 1.37 4.72 1.27 6.72 0 14.34-1.47 4.19-2.59 6.66-4.59 9.56z" fill="#bdbdbd"/><path d="M122.19 62.65s-4.41-1.75-3.94-2.85a2.61 2.62 0 0 1 .1-2.87c-.19-.25-2.62-6.68-13.65-7.3-1.33-.03-.47-.06-.83-.08-2.98-.01-5.05.87-7.21 1.72-1.42-1.11-2.03-2.99-2.5-3.69-.17-1.47.22-2.63.57-3.48l9.48-19.45-16.63 4c.14 0 4.64 28.36 4.01 52.51.31 56.07.36 93.17 3.25 75.3-3.38 5.83 4.33 28.96.15 37.86z" fill="url(#b)"/><path d="M38.47 10.69c-5.14 0-10.59-4.75-10.95-10.5s-1.35-2.05-3.84-3.97c-3.12 0-5.66-3.14-5.95-7.76 0-3.33 3.29-7.6 2.97-7.85zM41.1 46.29c-1.78 0-3.63-.45-5.33-2.03c0-2.79.44-4.75 3.24-7.05 1.89-1.15 3.92-2.09 6.63-3.36.35-.4.7-.81.4-1.25.41-1.08 1.16-1.54 1.76-2.28 2.53-.84 5.34-1.53 7.32-2.44 2.64-2.06 4.23-4.95 5.68-6.52.69-.53.09-1.33-.35-1.65-.12-.51.46-.7 1.29-.41 1.8.21 1.85 1.5 3.04 1.79 4.26 3.09 4.08 1.26 7.42 1.92 13.68.05.96-.12 1.36-.6 1.31-.32.23-.61.34-1.06.32z"/></svg>
