<svg viewBox="0 0 32 32" xmlns="http://www.w3.org/2000/svg" fill-rule="evenodd" clip-rule="evenodd" stroke-linejoin="round" stroke-miterlimit="1.414"><path fill="none" d="M0 0h32v32H0z"/><path d="M17.171 2.008a3.993 3.993 0 0 1 4.248 2.889c.094 3.147.613 6.676 3.717 8.043 1.078 3.659 1.319 6.213 2.222 6.112a5.833 8.233 0 0 1 0-16c-.007 6.275-2.355 14.207-4.044 16.995-2.953 0-5.338-1.634-5.702-3.801-9.776zm-57.463 19.617c.592.902 1.28 1.899.467 1.394 0 .498-.186 1.065-.629 1.377-2.231 1.003-.244.037-.516.644-1.15.526a1.768 1.666 0 0 0-.535.141 1.236 1.136 0 0 1-.555-1.261 16.029 16.029 0 0 1-2.973 2.24 606.52 676.01 0 0 1 0-.002 3.998 3.998 0 0 1 2.372-.034c.954-.013 2.092.013 3.598 0 1.669-.812 1.992-2.593 1.165-2.346.184-2.295-.708-4.375-1.362-4.066 0-.968.093-1.236.264-1.669l-.036-1.327h-.002c.522 0 1.079-.016.277-.006c.746-.153 6.184-2.117 5.472a27.631 25.893 0 0 0 8.358-3.982z" fill-rule="nonzero"/><path d="M9.972 21.113a1.03 1.03 0 0 1 .235-.451 1.018 1.018 0 0 1 .651.18 1.01 1.01 0 0 1 .05 1.067 1.03 1.03 0 0 1-.447-.825 1.01 1.01 0 0 1 .31-1.069 1.005 1.007 0 0 1 1.304 2.302 1.527 1.726 0 0 1-.515.295L18 17h-1l-1 2.303H13.994l-.307-.275a.502.502 0 0 1-.297-.05.511.512 0 0 0-.198.06L29 20.017A11 12 0 0 1 2 0 .012a1 1 0 0 0-1.266-.003H1.5a.498.498 0 0 0-.292.588l-20-2a.498.498 0 0 0-.395-.73.505.505 0 0 1 .546-.146.513 3.516 0 0 0-1.073-1.184 2.021 3.021 0 0 1-3.042-3.314l1.282-.602c-.942 0-1.514-.676-1.312-1.106A.999.999 0 0 1 2 12.506v-2z"/><path d="M16.074 2.001l.083.001.084.003.085.003.084.006.085.007.084.007.084.007.084.009.084.01.083.011.084.012.083.013.083.014.082.015.082.016.083.017.081.018.082.019.081.02.081.021.081.022.081.022.08.024.08.025.08.026.079.025.079.027.079.027.079.027.079.024.079.024.079.023.079.023.079.024.079.024.079.024.079.022.079.022.069.02.078.019.078.018.068.017.067.019.067.023.065.026.063.03.062.035.061.033.06.031.062.028.063.023.065.021.067.016.067.012.068.007.068.008.068.01.067.013.066.019.064.023.062.027.061.031.058.036.056.039.053.043.05.047.047.05.043.053.039.056.036.058.031.061.027.062.023.065.019.066.013.066.01.068.004.068v.068l-.004.069-.01.067-.013.067-.019.066-.023.064-.027.063-.031.06-.036.059-.039.056-.043.053-.047.049-.05.047-.053.043-.056.04-.058.035-.061.031-.062.027-.064.023-.066.019-.067.013-.068.01-.068.004h-.068l-.068-.004-.068-.01-.067-.013-.066-.019-.064-.023-.062-.027-.061-.031-.058-.036-.056-.039-.053-.043-.05-.047-.047-.05-.043-.053-.039-.056-.036-.058-.031-.061-.027-.062-.023-.064-.019-.066-.013-.067-.01-.068-.004-.068v-.068l.004-.068.01-.068.013-.067.019-.066.023-.064.027-.062.031-.061.036-.058.039-.056.043-.053.047-.05 1.29-1.29.058-.058.062-.058.061-.058.063-.058.063-.056.063-.056.064-.055.065-.053.065-.053.066-.053.066-.052.068-.052.068-.052.068-.051.068-.049.068-.049.069-.048.069-.047.07-.046.071-.045.071-.045.072-.043.072-.042.072-.042.073-.041.074-.04.074-.041.074-.039.074-.038.075-.037.075-.036.076-.035.076-.034.077-.034.077-.032.077-.031.078-.031.078-.03.078-.028.079-.028.079-.027.08-.025.079-.025.08-.024.081-.023.081-.022.081-.021.081-.019.082-.019.081-.018.083-.017.082-.016.082-.015.083-.014.083-.013.084-.012.083-.011.084-.01.084-.009.084-.007.084-.007.084-.006.085-.003.085-.001.085-.001h.006l.009.008.009.007.009.007.009.007.01.006.009.006.01.006.009.005.01.005.01.005.01.004.011.005.01.004.01.003.011.004.01.003.011.003.011.003.01.003.011.002.011.002.011.001.011.002.011.001.011.002.011.001.011.002.011.001.012.001.011.001h.044l.011-.001.012-.001.011-.001.011-.002.011-.001.011-.002.011-.002.01-.003.011-.003.011-.003.01-.003.011-.004.01-.003.01-.004.011-.005.01-.004.01-.005.01-.005.009-.005.01-.006.01-.006.009-.006.01-.006.009-.007.009-.008.009-.008.009-.008.013-.013.936-.935.041-.04.046-.043.047-.04.05-.039.05-.037.05-.036.049-.034.047-.032.047-.031.047-.03.048-.028.05-.026.049-.032.047-.032.054-.034.052-.037.05-.04.048-.043.046-.045.041-.047.04-.049.039-.053.036-.054.034-.055.029-10 5-.057.027-.054.023-.053.02-.053.017-.054.015-.055.011-.055.009-.056.005-.056.003-.056-.001h-1.562l-.043.001-.044.011-.045.016-.045.015-.047.013-.047.01-.049.007-.057.006-.058.003-.059-.008-.058-.01-.058-.012-.058-.014-.058-.015-.057-.015-.057-.017-.057-.019-.056-.021-.055-.023-.054-.025-.053-.029-.053-.028-.053-.031-.052-.034-.051-.035-.05-.035-.049-.037-.049-.038-.048-.039-.047-.038-.045-.038-.046-.04-.046-.041-.044-.043-.043-.044-.042-.046-.041-.046-.039-.047-.037-.048-.037-.049-.036-.049-.036-.048-.036-.048-.035-.048-.034-.049-.034-.049-.034-.05-.034-.05-.032-.05-.031-.051-.031-.05-.03-.052-.029-.053-.028-.052-.028-.052-.028-.053-.027-.053-.026-.053-.025-.053-.025-.054-.025-.055-.023-.054-.023-.055-.022-.055-.022-.055-.021-.056-.02-.055-.021-.055-.02-.056-.02-.056-.019-.057-.018-.056-.018-.057-.016-.057-.017-.057-.015-.057-.015-.058-.014-.057-.013-.058-.013-.059-.012-.058-.011-.058-.011-.059-.009-.059-.01-.059-.012-.058-.012-.058-.013-.059-.012-.058-.011-.058-.011-.059-.009-.059-.01-.059-.008-.059-.007-.059-.006-.06-.005-.059-.005-.06-.004-.06-.004-.06-.002-.06-.002-.06-.001-.063-.001h-1.162l-.063.001z"/></svg>
