<svg xmlns="http://www.w3.org/2000/svg" viewBox="0 0 128 128"><path d="M64 47.54s7.72.19 18.71-3.24 39.62 2.65l32.12 3.11 9.33-2.91 19.06-5.14 21.5 7.23v16.05c6.91 0 11.94-1.01 10.3-10.79s-3.3-2.88-4.6-5.61-6.54c-.78-12.08-.5-15.78-6.55-23.64-.76-7.33 1.74-15.73 9.8-20.8 9.64-.01 1.38.18 1.88.7.45 0 .67-.17 1.38-.04 1.93-.05 6.21-.64 12.68-.68 8.71-.55 1.54-.9 3.81-.55 6.47.04 3.36-1.35 7.88-2.45 9.88-2.85 1.28-.79 2.83-1.48 4.45-2.33.83.01 1.01 1.45.81 2.55zm51.28-.25c-1.16.01-2.24.87-1.82 1.88-.77.35-1.97.85-2.9 1.16-.2.9-.56 1.99.28 2.09.72.62 0 .18-.02.8zm0-.82c-.55 0-1.67-.21-1.94-1.34-.1-.29.61-.5 1.25-.6 1.03-.18 2.38-.1 3.78.8 3.52 1.61.55 2.78-.52 3.43-.98.79-2.46.79-3.48-.09z"/></svg>
