<svg xmlns="http://www.w3.org/2000/svg" viewBox="0 0 47.5 47.5"><defs><clipPath id="a"><path d="M0 38h38V0H0v38z"/></clipPath></defs><g clip-path="url(#a)" transform="matrix(1.25 0 0 -1.25 0 47.5)"><path d="M36 19c0-9.389-7.611-17-17-17C9.612 2 2 9.611 2 19c0 9.388 7.612 17 17 17 9.389 0 17-7.612 17-17" fill="#ffcc4d"/><path d="M25.327 13.378a.5.5 0 0 1-.55.069l-4-2C19.904 7.511 1.827 8.566 3.456 8.038 5.65 0 1.698-.085 2.953-.743 3.846-.481a1.11 1.11 1.203 1.891c0-.827.211-1.053.416-1.699.069-.298.118-.798.318-1.134.418-1.144 0-.778.018-.013.017-.019 0-6.793 1.953-1.063 1.019-1.08 1.848-2.881c-.642-.654-1.718-1.105-2.713-1.471M29.523 19.886a.9935 9.983 0 0 0-1.004 1.314 0 5.515 1.62 7.03 5.033 1.043 0-.499.139.703.302z" fill="#f5c846"/></g></svg>
