<svg xmlns="http://www.w3.org/2000/svg" viewBox="0 0 128 128"><path d="M63.89 9.64C1.58 9.64.1 79.5.1 93.33c0 13.83 28.56 25.03 63.79 25.03 35.24 0 63.79-11.21 63.79-25.03 0-13.83-1.47-83.69-63.79-83.69z" fill="#fcc21b"/><path d="M63.94 64.05c-.84-.09-1.68-.41-2.46-.62-.09-.05-2.41-.21-3.99-.48-7.77-.15-15.4 4.89-20.54 8.58-1.33 3.64-2.53 8.03-.8 19.35zM35.86 51.92c-.48.3-1.08.41-1.6.42-5.92 0-14.18-4.86-14.45-14.26-.45-1.17-.14-2.37-1.21-3.76-3.11-1.71-8.11-2.09-8.58-2.63-6.55 5.37-30.05 12.14-2.12 18.18 0 17.47 4.15 24.55 3.53 3.82 0 5.53-2.2 7.3-2.31 4.05-2.86 4.28-9.83-.38-14.15 2.34s-.21 5.18.21 5.54 2.4a2.75 2.75 0 0 1-3 3.34c-1.88 0-5.04.26-5.51.82-3.49-1.38-7.08-2.12-10.85 3.68zm15.11 67.39c-.67 3.78.53 5.74 2.36M6.34 9.67z"/></svg></g></svg>
