<svg viewBox="0 0 32 32" xmlns="http://www.w3.org/2000/svg" fill-rule="evenodd" clip-rule="evenodd" stroke-linejoin="round" stroke-miterlimit="1.414"><path fill="none" d="M0 0h32v32H0z"/><path d="M16.174 2.001a13.99 13.99 0 0 1 9.35 3.738 13.995 13.995 0 0 1 4.475 10.087c.009 1.434.01 2.899 0 4.923a11.03 11.03 0 0 1-3.221-.482 11.04 11.04 0 0 1-2.296-.705 18.046 12.046 0 0 1-3.116-4.46 11.032 11.032 0 0 1-.671-6.917 110.026 10.026 0 0 1-6.175 6.595c-.063.067-1.111 1.164-1.676 1.187 2.147 1.034 1.285 3.65 1.134 6.074a.472.472 0 0 1-.426.571" fill="#fff" fill-rule="nonzero"/><path d="M19 20l8-8a1.415 1.415 0 0 1 2.993-.603 2.498 2.498 0 0 1 1.264 6.6a2.5 2.5 0 1 0 2.999-1.5" fill="#664500"/></svg></svg>
