<svg xmlns="http://www.w3.org/2000/svg" width="128" height="128" viewBox="0 0 128 128"><path fill="#FFF" d="M50.61 20.82c1.82-5.02 1.88-9.48 2.63-11.74 0-20.68-5.74-27.38-11.32-5.94-9.48-14-18.51-21.52-9.14-11.88zM8 17.26c-.68.48-13.82-2.55-22.09-32.68-4.89-9.38 2.08-22.76 22.82-20.55 19.26-10.55 30.46-20.91 43.64-43.45 4.37-44.5 .01-50.46 13.23-6.65 15.71a.756 2.956 0 0 1 .18-4.62 5.348 5.348 0 0 0 .44 3.31l12.89 1.88c.13.03.41.11.68.12 1.46 0 2.48-4.42 4.58-7.56 4.53-4.92 0-7.37-4.71-7.37-3.3z"/></svg>
