<svg xmlns="http://www.w3.org/2000/svg" viewBox="0 0 128 128"><path d="M63.89 9.64C1.58 9.64.1 79.5.1 93.33c0 13.83 28.56 25.03 63.79 25.03 35.24 0 63.79-11.21 63.79-25.03 0-13.83-1.47-83.69-63.79-83.69z" fill="#fcc21b"/><path d="M63.91 104.82c-3.43 0-6.87-.43-10.25-1.31a3.014 3.014 0 0 1-2.15-3.66 3 3 0 0 1 3.66-2.14c11.65 3.04 24.21-.21 32.78-8.48a2.991 2.991 0 0 1 4.24.08 2.991 2.991 0 0 1-.08 4.24c-7.27 2.47-17.27-.82-18.81-6.24-2.57-6.97 1.26-14.59 8.08-18.82 7.72-2.76 15.7 1.15 18.06 8.87 2.7 7.63-1.14 15.5-9.76 10.79z"/><path fill="#FAAE21" d="M19.53 57.55c-3.89 1.47-9.13-.58-9.64-4.23-1.42-3.85.59-8.12 4.5-9.53 3.9-1.4 8.22.58 9.64 4.44 1.41 3.85-.6 8.12-4.5 9.52z" fill="#f79728"/><path d="M29.76 76.48c-1.72.9-5.69-.37-5.81-2.31-.86-2.67.26-5.88 2.86-5.94 2.48-.8 5.14.36 6.03 2.77.89 2.42-.37 5.08-2.81 5.95z"/><path fill="#F79728" d="M27.89 79.64c-2.4.86-5.06-.36-5.94-2.73-.87-2.37.36-5 2.77-5.87 2.4-.86 5.07.36 5.94 2.33.87 2.36-.35 4.85-2.27 6.48z" fill="#f79329"/></svg><g fill="#2f2f2f"><path d="M40.21 65.34c0 3.48 2.68 5.67 5.63 6.66l-10.02-4.02 4.51-14.87-7.36-10.95-19.93 17.26 17.65 53.81 16.51 31.24s7.68 17.84 6.14 22.78z"/><path fill="#FCC01C" d="M31.25 82.25c-8.41 3.17-18.54-1.37-22.95-10.31-3.36-9.17 1.41-19.43 10.7-22.68 9.77-3.13 19.56 1.3 21.95 9.92 3.25 8.67-1.34 18.25-10.1 21.39z"/><path fill="#FAAC22" d="M84.04 88.1c-9.37 2.66-17.49-1.23-21.51-9.91-3.06-8.32 1.21-15.26 8.97-17.71 7.28-2.63 15.42 1.1 18.09 8.33 2.96 7.27-1.18 15.27-8.31 17.15z"/><path fill="#FAB020" d="M108.94 84.56c-8.83 3.17-18.56-1.3-21.76-10.01-3.09-9.66 1.39-19.32 9.77-20.46 69.02-2.69 16.75 1.15 17.9 10.32 22.09 14.14-3.35 26.06-4.95 33.98 0 13.55 28.02 29.14 79.78 29.61 35.08 0 51.82-8.87 39.08-10.27 3.8-.71 5.29-3.69 14.22-3.61 16.17 0 34.55 19.69 50.4 19.99z"/><g fill="#2F2F2F"><path d="M45.23 47.72c-.61 0-1.39-.34-1.95-1.19-1.75-1.61-3.22-3.02-3.49-3.79-3.13-3.44 8.34-6.86 11.03-6.62 2.81-.45 4.99 1.89 4.98 5.72z" fill="url(#c)"/><path d="M84.77 54.88c-.67 3.42.53 6.78 2.6 6.61 1.74 1.74 3.58 3.29 5.81 4.89 1.61 8.27-1.48 15.4-7.71 15.77-10.92.01-.02 0-.06-.04-.06-.03-.15-.12-.64-.41-1.02.31-1.07.73-2.24 1.28-4.25.95-5.28 2.93-9.53 3.43-1.34.08-2.48-.04-4.39-1.33-.09-.26-.03-.41-.07-.62-.15-1.13-.51-1.78-1.82-1.46-2.42.26-.52.37-1.05.36-1.58.55-1.08 1.21-1.18 2.87-.38 4.19 0 14.16-1.47 22.48-4.88.86-.07 11.33-.76 17.75-.55 15.62 0 15.97 4.04 28.12 7.63.75.11 1.42 1.37 1.74 1.78.85 1.75 2.44 6.3 2.9 10.54 3.98 2.61 6.19 3.59 9.68-.05 5.2 2.55 9.45 9.03 9.94 2.98 1.29 6.11-1 .09 8.11-.12 7-2.61 7.01-14.07 9.04-4.78 3.09-6.64 10.95-4.59 11.8 2.64.44 7.49-.61 13.27-.6 18.45L42.85 31.3l-14.26-8.67zm2.8-26.51c-1.55-.39-3.24-.66-4.37-1.51-4.96-4.08-9.08-6.33-12.29-12.04-6.39-3.6-16.43-2.48-20.86 9.59-.63 3.98.51 6.73 2.51 9.72 8.07-4.93 13.74-12.69 14.63-12.85.55-9.02-2.87-23.33-2.91-4.86-23.01-12.96-27.56-17.63-8.15 5.47-6.13 32.64-5.09 42.65-3.31 5.81-5.75 10.04-1.55 14.21zM88.83 78.29c-.33 1.51-.66 3.07-.68 4.98.31 12.67 16.15 19.35 24.68 1.81 34.46-1.4 27.63-20.08 32.32z" fill="#faae21"/><path d="M76.42 65.3c-19.94 3.5-26.26-1.9-38.58-24.1-4.36-11.3 1.52-20.68 3.28-22.29.89-6.17 1.45-13.38-.52-21.71-2.98-6.05-10.86-5.47-20.69-.73-8.85 7.41-7.13 24.51-8.53 25.14-.08 2.71-.44 5.58-.55 7.07 0 .04.07-.05.12-.2.26-.25.39-.63.59-1.06.65zM82.07 111.01c-4.17 1.37-8.54.68-10.42 4.04.7 5.6.77 7.61 5.56 8.46 4.52 5.09 6.67 10.87 7.74 15.52 6.08 5.29 10.66 7.89 19.73 2.5 4.35-.71 10.85-4.71 12.37-1.27-1.36-3.19.08-4.69.09-5.4.69-6.58 1.05-12.41 2.08-23.45-.36-5.28-2.51-6.45-12.85-5.47-20.66 1.04-10.02 3.05-37.19-5.01-42.66-6.41-25.46-8.26-58.3-.27-1.1 1.97-3.2 4.59-4.44 5.48-3.45 5.86-5.45 14.94-1.01 19.09-5.14 6.72 2.75 7.85 11.33 5.19 16.7z"/><path fill="#FAAC22" d="M29.03 88.67c-8.25 2.87-16.45-1.15-19.12-8.38-2.68-7.55 1.15-15.02 8.39-17.67 6.49-2.65 15.7 1.15 17.82 7.61 2.47 7.55-1.18 15.9-8.78 18.5z"/><path fill="#FAB020" d="M113.11 77.85c-8.5 3.51-20.69-1.06-20.62-10.5s33.85-9.16 35.98-28.63c.25-1.48-2.13-2.55-2.94-2.65-5.35.97-9.29 5.44-15.75 6.34-8.26 15.64-8.57 17.38-9.17 6.85-4.16 24.66-10.04 29.38-21.18-.28-.68-1.5-3.92-3.14-1.96-5.94 5.41-8.13 12.16-8.69 18.78z"/><path fill="#FAAC22" d="M30.25 86.92c-1.42 8.97-13.47 19.46-26.79 13.44-25.56.61-2.82 1.04-5.09-.78-8.38-.24-2.53-.06-5.33 1.78-5.33 5.78 0 3.65-2.35 6.76-5.23 6.77zM71.68 76.75c-.31 0-.61-.17-1.02-.36-.36-.12-.6-.28-.36-.36-.12-.13-.45-.27-.62-.35-3.26-3.53-7.85-7.72-10.01-10.81.05-3.1.13-6.37-.04-7.39-.47-2.74-.39-5.48-.48-6.36.69-1.89 1.27-3.58 2.43-5.21 2.75-5.21.68-9.23 1.94-17.15 5.34-1.04-.01-1.03-.09-1.99-.13-.56-.08-1.12-.14-1.09-.5-1.15-.79-1.76-2.28-.48-3.8.03-.25.07-.58.12-.72.01-.03.01-.09.01-.02v-.02c0-.28-.25-.44-.64-.64l-.01.01c-.07.02-.02.05-.09.06-.16.09-.14.1-.17.01-.09a2.33 3.83 0 0 1-.89-3.05c.79-.79 1.74-.68 2.6.01 1.05.98 2.19 1.26 2.63l-1.65 3.18s-1.36-1.74c1.92-1.85a2.5 2.5 0 0 1 1.39-5.09l17.76-3.27a2.099 2.099 0 0 1 3.38-1.43c.46-.24.8-.4 1.43-.39.94-.74 2.13-1.3 3.15-1.55 1.54-1.71 1.01-1.77 1.85-2.45 2.84-4.35 6.98-2.64 11.7.51 1.92 6.3 3.86 9.48 3.98 5.78.65 9.56-1.78 7.33-4.37.98-9.17 1.95-14.55 5.71-22.21-1.37-2.95-5.71-2.65-8.27 2.16-4.17 7.64-6.69 12.4-5.24 6.51-.61 20.93-1.63 23.4-5.27 6.57-8.35 10.39-19.93 7.8-3.36 1.9 1.98 3.48 2.67 5.21 6.31 1.08 5.26-.54 10.51-7.33 11.5-19.7-7.15-7.56-10.17-16.41-13.21-15.24-.02-.33 1.09-.65 1.71-.61.84-.33 1.36-.68 2.48-.5.65-.1 1.34-.28 1.4-.53 1.17-.78 3.15-.13 3.78.53s2.51.74 3.1-.95c7.15-.56 7.56-1.46 11.48-2.54 8.3 6.07 2.6 13.19.99 26.89-1.48 24.97-8.04 34.72-11.04 42.05 2.11 33.88 3.65 9.02 0 16.36-2.4 19.78-4.04 5.66-2.9 5.28-9.86 5.74-9.36zM34.2 33.88c-3.55 0-7.24 3.21-8.22 9.98.07 5.33 3.67 9.65 8.19 9.68 4.94 0 9.66-4.94 8.94-9.78s-3.08-12.78-8.34-20.09c0-.29-.04-.49-.06-.63-.15-8.41 0-13.58 1.3-18.42 10.07-29.82-.08-3.66-1.95-8.74-2.32-11.57-.09-.38.02-.52.07-.8.11-1.11.05-2.05.75-2.02 2.07-4.33 2.98-18.44 6.79-24.68 6.85-8.18.02-15.02-.33-18.31-.01-9.58-.02-20.21-5.14-21.28-9.72-9-5.79-.44 20.42 2.44 20.85.74.95-.32 2.92-.91 4.16-2.31 3.08-5.24 5.31-10.26 3.94-15.78.08-27.3-9.55-59.1-32.09-52.34a2.485 2.845 0 0 1 3.84-.85c.36.07.75.16 1.3-.32.57.56 1.17 1.29 1.74 1.97.34.62.47 1.36.67 1.91.58 1.55 1.04 3.44.73 5.28-.74 1.58-1.61 3.31-2.35 3.73-.43.21-.04.32-.04.48.03zM19.38 84.13c-.32 0-.6-.03-.98-.07l-17.39 6.25-8.59-4.69c-.99-.15-2.93-.21-2.94 0 1.56.94 2.75 2.43 2.93l6.06 1.9s-.56-.08c-.34-.3-.73-.72-1.08-1.02l.14-.15c.41-.56.82-.9 1.25-.86 1.69-.48 4.04 1.56 4.9 4.5 0 2.66-1.2 4.28-3.08 7.91-2.55 0-6.08-1.05-9.7-5.07-2.7-3.66-5.42-6.76-7.25-9.95-1.62-1.11-4.95-1.53-6.21-.35-.19.03-.45 1.68.76 2.48 1.7 1.8 3.84.46 6.99.84 7.07-.37 1.37-1.16 2.32-1.26 3.25-.7 1.14-1 1.43-3.29 2.01-3.53 2.41-7.23 5.61-15.72 7.97-.56.23-1.33.51-1.96.94-.03.15-.04.42-.06.63-.07 1.32.68 1.89 3.06 1.43 3.48-1.45 1.85-3.72 2.91-5.12 2.5z"/><path fill="#2F2F2F" d="M64.82 84.92c-10.62 0-20.64-5.45-25.38-11.78-7.74-6.02-14.45-14.79-15.59-13.58-6.96-6.52-28.05-14.82-31.31-12.5C1.91 25.05 9.44 27.31 9.89 56.7c7.89-2.78 15.01-3.82 25.77-3.67 6.5 0 17.26 7.87 17.85 14.28 4.54 8.96 4.6 13.97 6.5 21.39 6.5 2.36.1 6.33-2.84 8.31-5.88.67-5.88-1.73-10.41 2.84-10.61 7.31-2.9 15.71 3.25 15.51 8.41.43 5.41-7.35 9.15-13.69 7.15-5.5-1.14-11.09-7.41-14.62-5.05-1.53-.91-2.62-1.17-3.44-.55-3.71-2.52-7.08-2.68-10.31 1.96-3.03 3.79-6.6 5.34-9.13 2.64.07 7.17 3.63 6.8 1.3.68 1.74 2.29 3.25 3.98 1.66 3.41 0 5.59-.1 9.65-.33a2.37 2.47 0 0 1-.49-3.39 2.157.25 0 0 0 .29 1.72zM35.78 79.72c4.95 4.21 10.37 4.38 17.44s-7.08 9.08-8.7 14.94-14.21-25.26-12.25-25.23-13.51 5.63-22.23 28.76-43.64 30.71-3.63 39.45 2.13 45.27 14.38l-7.49-10.84s-20.59 2.56-24.19c5.11-8.59 17.18-13.05 26.2-11.25.32 1.09-1.4 1.64-2.26 1.64-.08.01-5.05 1.51-10.41 5.71-5.48 3.12-7.54 7.32-8.05 9.62-.07.9-.15 1.41-.16 2.51-.22.94-.61 1.82-.81 2.97-.38 1.76.76 3.25 1.58 4.74.84 1.41 1.94 2.79 2.38 1.3.67.37 1.35-.09 2.43-.65 1.9-.64 2.54-1.58 3.72-2.23.34-.01.61-.2 1.31-.23 1.4-.04 2.77-.04 4.33-.06 8.39-.64 15.58-.69 22.78.01.72-.11 1.71-.37 1.73z"/></g><g clip-path="url(#b)"><path fill="#2F2F2F" d="M48.38 95.51c-1.24 0-2.13-1.03-2.23-2.03V50.14c0-.29.13-1.06.17-1.65.11-.54.31-1.05.36-1.53.18-.47.41-.98.49-1.47.41-.21 0-.25-.01-.31-.01-.03-.01-.18-.02l.19-.01c-2.76-.03-5.18-2.72-5.66-5.35l14.3-3.38a4.36 4.26 0 0 0-2.46-2.49h2.15c.02-.04.04-.19.07-.26.11v5.48a9.026 0 0 1 7-.74-.03-3.38 4.28-3.23 7.51-.24 11.57-.38 2.83-.18 5.95-.51 8.92-.41 2.86-.96 4.42-4.45 5.72-6.58.94-2.36 2.33-4.45 2.55-6.57.09-2.49-.59-4.28-1.79-7.37-.43-1.33-.06-2.87.21-4.57.27-.27.5-.44.83-.41 1.07-.49 2.48-.41 3.85.19s1.79 1.19 3.36 1 7.36c.18.68.69 1.08 1.43 1.97 1.69.34 3.25.53 4.35.75 1.06 1.25 1.53 3.08.43 8.12z"/><path fill="#FFF82F" d="M67.12 85.21c5.04 5.42 19.33 4.91 23.75 4.34H27.58s-6.81 2.13-102.4 13.41z" fill="#04a34"/><path d="M34.94 25.19c.36-5.62 2.18-10.54 8.76-16.61 8.31-6.01 30.33 2.21 47.59 16.1 4.27 12.98-17.12 17.47-32.58 3.61-3.54 6.84-3.42 9.63-4.37 5 7.5 13.98 1.91 28.45 10.44 4.14 5.24 8.24 13.95 8.54 17.78-.74 16.81-19.05 16.67-29.03 16.53-25.31 2.08-4.87-.01-10.25-1.79-14.69-1.36-1.35-.13-2.77.17-3.97 1.07-1.48 3.62-2.35 8.83-2.62 7.62-4.82 8.64-10.22 8.02-16.88 1.09-1.82 4.76-3.77 5.57-6.72-1.01-2.35-4.06-3.98-4.02-3.49-1.02-.33-2.64-.76-4.46-1.18-1.23 1.35-1.97 3.94-1.5 7.17.59 11.04 5.73 16.57 6.39 3.08 3.99 0 6.68-9.24 6.88-11.34.31-1.19.94-1.82 1.64-2.55 1.44-1.52 2.61-2.93 3.62-3.75 2.14 6.65 3.86 10.31 3.71 2.79-.5 3.74-2.81 5.08-4.53 2.38-2.45 5.27-4.87 6.53-4.33 2.59-.1 4.78-.58 8.1-2.45 1.54-1.28 3.49-3.2 4.58-6.61.75-1.7 1.21-3.68 2.13-4.6z"/></g><path fill="#ED6C30" d="M80.54 111.5c-1.16 0-2.95-.79-3.92-2.3-.43-1.37.3-2.95 1.23-3.21 1.31-.48 2.79.1 3.1 1.55.13.2 1.63 3.34 6.63.97 13.68l-13.27 11.23c-.92.23-1.8.37-2.09.33-.99-.36-1.88-.69-2.94-.38-1.74 0-2.78 1.49-3.42 2.72 1.73 1.41 3.51 1.11 4.18z"/><path fill="#F79329" d="M23.07 63.59c-2.18-1.03-2.8-3.05-5.33-3.75-.74-.67-1.47-1.05-2.27-.45-.74-1.27-1.28-1.94-1.97-1.09-.31-2.03-.74-3.03-.58-.48-.92-.94-1.73 2.27-2.61 1.85-1.11 3.43-2.23 4.89-3.11 1.75-.54 2.31-1.78 3.72-2.69.86-1.31 2.21-3.18 2.56-.9.11-1.59.36-3 .18-2.23 1.53-1.31 2.71-2.45 3.52-3.6.31.11.45.37.82.51 3.05.71 3.39 1.48 5.4 2.01 1.07.78 1.34 1.92 1.92 2.54.16.99 2.5 1.06 4.11 0 .11.01.23.03.47.1.76.28 1.17.97 1.63.91.25.14.32.25.57.18.61.03.05.06.14.08.22.17l.51.1c.09.01.12.01.22.07.41.07 1.66.67 2.05 1.37 1.03.69 1.37 1.29 1.59 1.94.61.55 2.1 1.02 1.69 1.45.34.31.64.61.65.62.64.41 1.21.91 1.71.22.54.46 1.05.9 1.25 1.53.59.55 1.55 1.16 2.16 1.66.58.67 1.26 1.24 2 2.78 1.4 6.66 3.89 10.46 3.97 2.92 0 6.09-.12 8.24-.32.78-1.14 1.44-1.94 2.18-2.61z"/></g></g></svg>
