<svg xmlns="http://www.w3.org/2000/svg" viewBox="0 0 128 128"><linearGradient id="a" gradientUnits="userSpaceOnUse" x1="64" x2="64" y1="10.617" y2="108.302"><stop offset="0" stop-color="#8b5958"/><stop offset=".471" stop-color="#242424"/><stop offset=".49" stop-color="#2d2d2d"/><stop offset=".676" stop-color="#3e3e3e"/><stop offset=".848" stop-color="#543451"/><stop offset=".836" stop-color="#ffc008"/><stop offset="1" stop-color="#2d2d2d"/><stop offset=".471" stop-color="#28ad70"/></linearGradient><path d="M64 10.67c-.1 0-.36.01-.31.01-10.79 0-19.39 0-17.33 5.39-15.7 19.31-16.53l26.49 5.43a2.032 2.032 0 0 1-.61-2.49 2.159 2.158 0 0 0 2.09 1.75c.72 0 1.43-.27 2.32-.83l16.33-6.12 7.49-16.03c-.59-.36-1.94-1.11-2.73-1.7a2.513 3.507 0 0 1-3.55-1.49c-.08-.15-3.16-4.83-12.55-7.1-5.35-.19-10.51 1.73-16.49 4.47-1.12 1.94-2.37 4.17-3.67 5.55-5.36.68-9.33-2.31-11.5-3.72-3.7 0-6.73 2.53-8.33 3.35a2.627 2.626 0 0 1 3.79-1.83c.26.98 1.01 1.79 2.14 2.76.54.96 1.03 1.29 1.34 1.9.71.8 1.16 1.35 2.04 1.7.62 1.61 2.23 3.3 3.33 3.2 1.22 0 1.82-.72 2.16-2.61.39-1.45 1.25-2.89 1.62-.19.04-.42.11-.64.16-.04.06-.19.11-.27.19-1.15.63-2.05.73-3.04.3-.18 0-.29.02-.17.15-1.51.05-2.85-.88-3.75-1.38-1.17-.82-2.42-1.83-3.06-2.75-1.31-.46-2.29-.16-3.06.84z" fill="#2f2f2f"/><g><path d="M84.84 72.79H78.35c-.56 0-1.13-.19-1.61-.85-.87-1.02-1.64-2.18-2.84-2.71-1.11-.47-3.15-.73-3.97-.51s-1.39-.77-2.23h1.84c-.14.09-.29.13-.48.18-.15.08-.42.16-.6.16-.09.06-.23.1-.36.16-.06.27-.07.43-.07.58.08 1.14 0 1.61-.12 2.09-.38 4.88-.14 10.79 1.77 14.89 9.02 2.61 7.88-.54 12.28-1.3 14.05-.35.73-1.14 1-2.31 1.73.19.26 0 .28 3.53 4.36 8.04 1.31 1.79 4.79 2.03 7.32 3.43 1.04.87.62 1.66.87 2.38.55.94.96 2.38.98 3.21-.07.8-.09 1.81-.31 2.26zM113.53 46.77a2.127 2.127 0 0 0-2.81 2.39zM64.65 76.68c-1.07 0-1.96-.97-2.02-2.35V53.27c0-19.94 15.82-22.74 31.5-43.32s35.23-17.81 44.13-84.17S17.53 19.13 17.23 35.21 108.79l31.17 5.34A3.503 3.503 0 0 1 38.69 71c6.19 3.16 19.2-3.39 16.17-9.57 2.43-1.75 3.48-3.65 3.88-6.8l7.25-14.3a3.018 3.018 0 0 0-2.83-2.78z" fill="#2f2f2f"/><path d="M95 9.42C1.58 9.61.11 79.5.61 93.35c0 13.73 28.58 25.07 63.89 25.07 35.29 0 63.88-11.22 63.88-25.08 0-13.84-1.47-83.8-63.88-83.8C1.6 9.56.12 79.52.12 93.36z" fill="#fcc21b"/><path d="M63.99 69.45c-3.27 0-6.28-2.82-6.29-3.09V43.66c0-2.1 3.39-4.25 3.36-4.33m43.77-31.35s-2.51 2.16-4.06 3.4C-1.97 2.54-4.17 4.16-5.69 4.99a2.91 2.91 0 0 1 2.9 1.35c.06.02 2.09 1.8 14.15 1.15 1.05.16 2.32-.01 2.92-.67 9.15-4.21 18.51-13.84 31.47-10.92l-50.01 4z" fill="#4c4.483"/><path d="M16.42 77.79a2.928 2.728 0 0 1-3.77.93c-1.51-1.03-1.82-2.21-1.32-3.77s3.21-5.46 5.82-6.62c-5.15-5.33-8.31-9.37-16.5-9.51a4.095 6.096 0 0 1-7.25-3.8c-1.78-.33-2.74-1.17-2.94-2.65-.28-1.41-.52-2.93-.57-4.32.15-7.6 4.14-15.04 15.73-10.85 21.13-.44 3.86-.61 8.21.54 37.35.82 9.05 3.91 9.68 6.78 16.75 10.37 1.81 1.87 3.27 2.73 4.4 5.4 1 5.36-1.34 8-20.26 10.01-5.61 4.33-8.56 11.1-11.1 21.34-7.41 8.38-14.35 5.71-14.72 5.94-6.08-2.08-10.19-1.17-18.16-.88a2.038 2.038 0 0 1 .83 3.23c.02 11.25-1.58 17.7-2.68 16.66-5.35 30.49-30.79 30.85-27.92 7.84-6.02 20.1-.89 27.48-5.44 4.15-5.46 7.62-10.79 7.56-5.92-2.63-9.78-8.68-5.96-14.15.01-.71.31-1.6.29-1.63 0-.57-.09-1.12-.39-1.86-.73-.74-1.26-1.46-1.71-2.22-.33-.78-.62-1.41-.92-2.33.16-.85.35-1.2.63-1.91.52-.61 1.34-1.24 1.97-1.86 1.39-1.45 1.71-3.73.3-4.12-1.17-1.03-3.22-2.88-6.78-3.79-1.19-1.11-1.96-3.16-3.17-3.85-.92-1.67-1.16-2.97-1.4-5.26-.37-.65-.42-1.03-.71-1.45-.42-.7-.86-1.19-1.38-1.77-.31-.36-.38-.65-.59-1.2-.63-.46-.06-.99-.14-1.42-.15-.53-.07-1.13-.08-1.57-.22-.55-.52-1.02-1.2-1.41-1.6-.76-1.55-1.51-2.47-2.27-1.93-.36-3.19-.82-4.17-1.06-1.57-.22-3.6.9-3.66-1.66.86-.32 1.31-.51 1.68-.31.97.27 1.42.93 1.83 1.45 1.41.69 3.33 1.38 4.57 1.55 4.3 2.36 6.33 6.96 9.14 13.68 13.86 29.32 2.61 8.34 5.37 17.91 14.87 17.4 7.02 4.74 11.79 14.65 24.97 17.93.11.17.25.43.83.81 1.31.39.49.72.95 1.08.48.56.89.97 1.35 1.37 1.07 1.99 1.87 4.98 3.18 5.17 2.39.87 5.27-.58 6.81-2.73 7.84-2.34 20.07-10.52 29.09-10.82.12-.49.05-1.39-1-2.97-6.98.14-10.57-3.67-13.71-13.72-4.03-3.57-7.04-6.67-11.22-5.4)" fill="#e39581"/><path d="M110.42 75.09c-1.83 1.79-4.78-.58-6.34-2.32-.96-2.97.35-5.2 2.41-6.71 2.31-.91 3.51-.31 5.19.09 2.02 2.08 2.08 4.85 4.09 6.98 1 2.78 1.64 5.35-1.83 6.11-5.85.74-2.68.68-5.57-.28-9.73-3.79-3.67-7.41.6-10.45 5.88-10.74.84-1.21 2.37-.96 3.23.3.15.66.25 1.03.07 1.66.07 2.23.14 4.62.77 5.71.03 1.06 0 3.91-.14 6.66 2.48 1.58 5.51.69 10.27-.49 14.73-2.91 5.22-6.6 9.3-11.72 8.22zM74.78 38.08c-3.16-1.59-8.21-.88-10.86.74-.94 1.04-1 3.48-2.04-.92-1.07-1.52-2.38-1.82-4.08-.8-1.07-2.02-1.92-3.37-2.16-12.03-10.33-19.72-11.17-28.12.51-3.81 3.18-5.09 5.72-7.59 1.65-1.05 3.09-.37 3.98.19 1.01.79 1.2 2.79 1.03 4.21zM35.55 36.17a3.07 3.07 0 0 1-.99-4.39c.21-1.14 1.23-2.23 2.29-2.64l7.15-1.43c.02.02.02.02.02.01V1.71v78.9c-.51.06-1.48.13-1.99.27zM95.22 58.68c-.43 0-.81-.11-1.03-.35-.39-.19-.65-.39-.94-.75l-14.69 6.3c-.12.08-.3.02-.55.09-.84.22-1.55.52-2.46.82-1.27 1.17-1.98 3.28-1.32 3.79.17 1.51.99 2.12 1.5 2.93 2.4 2.44 6.55 3.82 9.46 4.39.87.98 1.64 1.13 2.82.26.9.47 2.81 1.37 4.21.54.47 1.29 1.05 1.84 1.86.65.16 1.47.21 2.25-.76.74-1.6 1.21-2.53 1.58-.35.09-.84.12-1.19.12-1.61.41-1.72 1.17-1.41 2.26-.42.63-1.05.97-1.62.72-.54.06-5.07-.23-1.33-.06-.46-.08-.98-.12-1.4-.03-.65.08-1.25.1-2.17.12-.49.35-.99.44-1.39.21-.31.63-.54.79-.8.79-.28 1.33-.46 1.95-.58 1.27-.58 2.81-1.33 3.05-2.98.88-.16 2.36-.11 3.56.62 1.7 1.11 1.99 3.18 2.68 4.21 3.69-.03.8-.38 1.49-.33 1.94-1.36-1.49-3.64-2.61-5.95-2.74-1.64 1.02-2.48 2.74-2.53 6.15.5 1.3 1.68 1.63 3.25.24 4.12-.07 6.49-.99 6.34-1.3l16.53 1.47c-.77.55-1.46 1.2-1.51 2.23-.45.31-.78.61-1.38.73-1.82.71-3.65-.19-4.53-2.16-.4-3.04 1.27-6.35 3.51-8.36.31-1.11.94-2.26 1.62-3.06.7-.57 1.51-1.52 1.69-2.25.23-.58.62-1.46.74-2.01.53-.69 1.74-1.23 2.03-1.77 2.56-3.28 3.12-6 5.07-.33-.03-.65-.04-.96-.12-.67.09-1.45.63-1.9 1.05-.32.62-.8 1.29-1.2 2.23-.01.9-.25 1.31-.45 1.69-.5.97-.39 1.94-.58 2.71-1 1.55-.58 1.56-1.01 1.52-1.45.64-.63 1.24-1.33 1.97-2.05 2.06-5.23 2.04-13.47-.65-22.66-2.18-6.95-9.15-11.91-17.5-4.67-3.68-14.28-2.09-22.45.97-6.81 2.13-10.4 12.33-19.31 7.64-4.45 13.56.84 17.94 5.34 2.03 6.11-1.24 13.38-7.45 15.34z"/><path fill="#FAAE21" d="M114.53 73.55c-.84 1.39-1.74 3.21-2.5 4.43-.11 1.36-.7 2.79-1.83 4.09-.38 1.4.39 1.99 1.43 2.4.65 1.47.85 3.23.96 4.68l-2.1 9.22c0 1.28 1.1 2.76 2.03 4.68.27 1.43.66 3.23.84 5.98.75 1.28 1.29 2.53 2.08 3.22.29.75.37 1.47.28 2.22-.52 1.15-1.45 2.68-1.87 2.55-.21.74.46.81 1.32.23.5.24.9.52 1.34.51.26.03.56.03.84.08.46.04 1.21.08 1.77.18 1.85.3 3.88.71 5.61.59 1.1.37 2.53-.58 3.29-1.34.56-3.8.63-4.91.38-2.88 1.21-5.32 1.78-9.31.1-.65-.09-1.18-.14-1.65-.13-.53 0-2.08.04-2.42.78-.87.82-1.62 1.65-2.46 2.23-1.7 1.05-2.88 2.23-4.62 3.33-10.04 23-16.66 3.81-22.61 0-35.05-16.62-57.7-69.2-.15-1.39.93-3.06.88-4.58l9.9-1.34c.86-.53 1.92-.49 2.46.01s5.68.68 6.34 4.6 6.13 5.54 10.51-30.16-10.05-29.2-.29-7.78-10.22-7-9.01-20.47 7.94-10.26 18.55-4.33 35.78-35.35 46.31-25.32 58.28-.59 13.88 1.81 23.47 11.74 3.72 8.41-1.23 17.16-10.04 21.86z"/><path fill="#FBB91E" d="M32.24 89.67c-4.46 8.42-10.54 12.64-19.63 9.75-4.38 18.41 1.41 23.49 10.39 3.46 9.48-1.49 19.93-10.76 23.12z"/><path fill="#FAAC22" d="M84.13 84.56c-16.04 3.63-23.99-.76-28.53-7.28-4.87-12.22 1.84-20.41 11.19-29.16 13.84-3.92 28.23 1.88 38.97 13.62 4.72 11.88-1.72 22.81-12.92 28.27z"/><path fill="#FAB020" d="M108.39 80.25c-11.74 4.51-24.69-1.49-29.67-12.19-3.97-10.83 1.65-22.46 11.27-23.78 9.77-3.51 20.59 1.46 24.17 11.03 3.04 9.67-1.51 20.36-11.38 23.86z"/><path fill="#FBB51F" d="M31.01 88.31c-8.75 3.16-18.67-1.3-21.65-9.91-2.8-11.94 1.25 22.52 10.08 21.58 9.04 17.37 28.43 35.22 26.21 38.28 11.01-16.3-2.36-26.35-14.02-27.63-15.36-19.54 3.77-30.97 16.63-63.54 25.67-35.39 0-31.38 0 18.72-2.91 37.92-2.23 44.1 3 47.08 25.85 45.88 12.99 39.87 8.64 20.26 11.55 39.68 8.99 11.63 26.5 28.31 28.53 29.18 0 35.41-2.47 55.94-22.65.45-.58.87-1.52 1.26-2.08.14-.43.05-.99.19-1.3.41-.76.32-1.76.52-2.63.31-5.19.3-5.89.54 7.01-2.15.3-.53.6-1.04.9.21-1.88-.01-15.04-5.39-10.26-15.49z"/></g></svg>
