<svg xmlns="http://www.w3.org/2000/svg" viewBox="0 0 47.5 47.5"><defs><clipPath id="a"><path d="M0 38h38V0H0v38z"/></clipPath></defs><g clip-path="url(#a)" transform="matrix(1.25 0 0 -1.25 0 47.5)"><path d="M35.964 25.045L36 25s1 10 0 11c-.91.91-6.771-.66-7.822-.951-2.426 1.234-5.443 1.958-8.251 2.054-2.127 6.55-8.257 10.842-3.952a15.043 14.042 0 0 1 2.338-2.233c.05-1.077.063-2.211 1.102-3.708H1.1a1 1 0 0 0-.699 1.6c3.24 4.45 7.618 4.402 14.173 4.356a.301.501 0 0 1 .063-.998c.504.001 0 1.013 0 1.586-.149 1.085 2.999 2.143 .995.532 1.134 5.389-1.002 9.541a1 1 0 0 0 .883.487c.146.046.357.28.475 1.178M5.999 24a1.001 1.001 0 0 0 .777 1.717" fill="#292f33"/></g></svg>
