<svg viewBox="0 0 32 32" xmlns="http://www.w3.org/2000/svg" fill-rule="evenodd" clip-rule="evenodd" stroke-linejoin="round" stroke-miterlimit="1.414"><path fill="none" d="M0 .033h32v32H0z"/><path d="M16.174 3.034a13.992 13.992 0 0 1 9.602 3.978 14.049 14.049 0 0 1 8.394 8.498 13.965 13.965 0 0 1 .791 4.472c.003.447.003.894 0 1.341a13.013 16.013 0 0 1 8.001 3.309c.469.015.714.006 1.235.003c.767-.012 1.018-.018 2.121-.083 .163-.078.015-.079-.077-.076-7-1.173-1.303 1.029-3.188 2.528-7.06 1.893-1.478 0-5.47-.28-5.717-1.971M7.478 4.264a17.988 19.988 0 0 1-.928 4.502H15.884 1.968c0 .048.004.049.004.048.02.047.019.047.016.046.015.047.013.047.011.048.009.047.006.047.005.049.003.048.001.048-.002.048-.004.049-.006.047-.009.048-.011.047-.013.047-.016.045-.017.045-.02.044-.022.043-.024.042-.026.041-.028.04-.03.038-.032.036-.033.035-1.589 1.582-.051.05-.056.052-.057.05-.059.058-.058.057-.058.056-.057.053-.058.052-.058.053-.057.052-.056.053-.056.054-.057.056-.057.057-.058.057-.058.059-.058.058-.058.058-.057.058-.057.059-.055.058-.056.067-.057.067-.057.068-.058.068-.058.068-.051.066-.051.066-.052.065-.055.065-.059.064-.056.062-.056.06-.058.058-.058.058-.058.061-.058.063-.057.064-.057.064-.055.064-.055.065-.054.065-.053.067-.052.066-.051.068-.051.068-.049.068-.049.069-.048.069-.047.07-.046.071-.045.071-.045.072-.043.072-.042.072-.042.073-.041.074-.04.074-.042.074-.043.073-.045.08-.047.099-.047.091-.047.082-.045.093-.044.092-.043.092-.041.092-.041.093-.041.093-.039.093-.038.093-.038.093-.036.094-.036.093-.034.094-.034.093-.032.092-.036.092-.037.09-.039.081-.04.098-.038.096-.039.096-.039.095-.039.092-.038.092-.037.081-.037.081-.038.071-.04.08-.042.08-.045.08-.046.08-.045.081-.045.081-.045.083-.043.083-.043.082-.043.081-.045.08-.047.089-.049.088-.051.087-.053.086-.054.084-.056.084-.058.081-.059.08-.051.08-.051.07-.052.069-.073.078-.073.076-.074.079-.066.071-.065.072-.062.073-.06.072-.061.071-.062.07-.062.07-.062.068-.061.066-.062.068-.05.06-.049.06-.049.06-.049.06-.049.06-.049.06-.047.06-.049.061-.047.063-.048.063-.047.062-.048.063-.048.064-.049.064-.049.063-.048.063-.048.063-.047.065-.047.065-.046.065-.045.065-.044.065-.043.067-.042.068-.041.068-.04.069-.039.069-.037.07-.036.071-.035.072-.034.072-.033.072-.031.073-.03.074-.029.074-.028.075-.026.075-.026.076-.024.076-.021.077-.02.077-.019.078-.017.08-.018.08-.019.081-.019.081-.018.082-.017.082-.017.082-.017.082-.016.083-.015.083-.014.083-.013.084-.012.083-.011.084-.01.084-.009.084-.007.084-.007.084-.006.085-.005.084-.003.085-.003.085-.001.082-.001h1.164l.082.001zM12 12.5a1.503 1.503 0 0 0-1.5-1.5A1.503 1.503 0 0 0 9 12.5v2a1.503 1.503 0 0 0 1.5 1.5 1.503 1.503 0 0 0 1.5-1.5v-2zM23 12.498c0-.827-.671-1.498-1.498-1.498h-.004c-.827 0-1.498.671-1.498 1.498v2.004A2.995 2.995 0 0 1 6 35v.002a8.999 9.999 0 0 0 3.62.601c-2.653.814-3.507.9266.501 1.168.733 1.797.777 3.372 1.312 3.404a1 1 0 0 1-.271 1.952C15.528 24.962 21.053 14 304 3c-1.503 0-3.047-1.012-4.629-2.111a.997.997 0 0 0-.316.994h.562a16.022 16.022 0 0 1 6.836-1.338A14.061 14.061 0 0 1 20 16a2 2 0 0 1 2 2v1a5.004 5.004 0 0 1-2.48 5.195c.001 1.434 2.198 2.582 5.52 1.001 2.649 0 4.634-2.13 4.656-2.213a1 1 0 0 1-1.293-.707" fill="#5dadec"/></svg></svg>
