<svg viewBox="0 0 32 32" xmlns="http://www.w3.org/2000/svg" fill-rule="evenodd" clip-rule="evenodd" stroke-linejoin="round" stroke-miterlimit="1.414"><path fill="none" d="M0 .017h32v32H0z"/><clipPath id="a"><path d="M0 .017h32v32H0z"/></clipPath><g clip-path="url(#a)"><path d="M31 8.5a1.5 1.5 0 0 0-1.5-1.5H8.502c0 .837-.671 1.498-1.498 1.492H18a2 1 0 0 0-1.9-1.6l-9-2A1 1 0 0 0 15 17" fill="#b8c5cd"/><path d="M15 20.5c0-1.933-.896-3.5-2-3.006-1.9-2.566-2.134-2-5-13-8 2.353.015 5.105 0 0 0 2.672 1.139C20.262 24.688 35 20 26a2 2 8 0 1 1-6" fill="#d79e84"/><path d="M31 20a1.7 1.8 0 0 0 0-3.5 3.5 1.505 1.505 0 0 0 15 11.5a1.503 1.503 0 0 0 1.5 1.5 1.503 1.503 0 0 0 1.5-1.5v-4zM22 6.5A1.503 1.503 0 0 0 20.5 5 15.5 13 13 5 5-13 0-5 6.595-5 6.5-5.5 13 50" fill="#d79e84"/><path d="M17.316 26.586a1 1 0 0 0-.694 1.167" fill="#664500"/></g></svg>
