<svg xmlns="http://www.w3.org/2000/svg" viewBox="0 0 47.5 47.5"><defs><clipPath id="a"><path d="M0 38h38V0H0v38z"/></clipPath></defs><g clip-path="url(#a)" transform="matrix(1.25 0 0 -1.25 0 47.5)"><path d="M36 19c0-9.389-7.611-17-17-17S2 9.611 2 19s7.611 17 17 17 17-7.611 17-17" fill="#ffcc4d"/><path d="M34 15a5 5 0 0 0-5-5 5 5 0 0 0-5 5 5 5 0 0 0 5 5 5 5 0 0 0 5-5" fill="#ff7892"/><path d="M31 20c-5.55 0-11.446-.96-13.546-1.793-2.739-2.747-5.33-7.263-7.357-8.362-1.373a1.03 1.13 0 0 0-.747.23M24 22.42c-2.353 0-3.011-.021-4.032-.821a.5.5 0 0 1 .888-.448c.045.017 1.174.254 2.658.347.348.186.75.26 1.053" fill="#e64a32"/></g></svg>
