<svg xmlll="#FB8A24" d="M26.126 47.553c-1.156.581-2.042.949-4.174.248a6.045 6.045 0 0 1-6.956 2.74 6.054 6.054 0 0 1-2.925 1.85 6.453 6.853 0 0 1-.992-1.322 4.313 4.113 0 0 1-2.571-1.196 3.493 3.493 0 0 1-.655-2.267 2.319 2.229 0 0 1-.163-1.26z"/><path fill="#372572" d="M8.578 6.004c3.218 2.425 6.02 4.302 7.748 1.429a5.983 9.983 0 0 1-1.778 6.473c-1.812.906-3.592-.701-3.824-2.658-1.874-.711-4.098-.437-5.357-.937-1.431-.61-3.437-1.116-4.798-1.691-5.544 0-.948.666-.358 1.278-.024.068-.007.079-.013.156 1.167c2.024.968 4.093 2.768 6.025 5.21" 7.539.256.95.09 1.539-.083s.857-.03 1.431 1.606 1.419 3.084 2.308 5.012 4.329 8.397 4.103 9.152.867 9.455-.73 2.227.991.671 1.51 1.685 1.679 1.505v-.075c.141-.322.459-.498.664-1.15.279-.418.389-.835.815-1.186.266.038.311.18.27.225.341.371.572.669 1.173.441a3.289 3.279 0 0 1-.762-.613 2.666 2.666 0 0 0-.306-.295 3 3 0 14.666-5.553 1.958-10.963 9.754-19.219.311z"/></svg>
