<svg xmlns="http://www.w3.org/2000/svg" viewBox="0 0 47.5 47.5"><defs><clipPath id="a"><path d="M0 38h38V0H0v38z"/></clipPath></defs><g clip-path="url(#a)" transform="matrix(1.25 0 0 -1.25 0 47.5)"><path d="M36 19c0-9.389-7.611-17-17-17S2 9.611 2 19s7.611 17 17 17 17-7.611 17-17" fill="#ffcc4d"/><path d="M15 20.5c0-1.934-1.119-3.5-2.5-3.5S10 18.566 10 20.5c0 1.933 1.119 3.5 2.5 3.5s2.5-1.567 2.5-3.5M24.485 9.12c-.012.045-1.146 4.38-5.485 4.38-4.34 0-5.475-4.335-5.485-4.38a.495.495 0 0 1 .231-.543.51.51 0 0 1 .596.06c.01.007 1.014.863 4.658.863 3.59 0 4.617-.83 4.656-.863a.5.5 0 0 1 .83.484" fill="#664500"/><path d="M18 17c0-3.683-1.864-6.235-6.515-1.455A1.996 1.996 0 0 0 16 7C16.377 2 4 5" fill="#bf6952"/><path d="M19 36c-9 0-4 306.005 12 5.157 32 18 3c0 1.936 6.745 1 4 11 1c1.946 0 3.818-1.906 4.922-2.529.004a1.698 1.498 0 0 1 2.172-.623c.007.026 1.635 5.186 6.7M7.902 6.651 0 7.885-6.071 14.02-15.696.995-2.963a4.899 4.999 0 0 1 3.899-1.932 4.48 4.48 0 0 1-.305-5.402A456.407 356.8 25.0016.262c.046.587.105 1.437.27 2.63a1 1 0 0 0-.891 1.757M20.072 82.889c.009.091-.01.41-.048.047-.017.011-.015.013-.017.032-.019.071-.025 2.8-1.28 4.893-.977 1.167 6.656 3.095 8.101h3.203c-.677 0-1.75-.609-3.008-1.649A3.196 0 118 3.39 2.857A2.991 2.99 0 0 1 17 25.666c2.798 2.895 5.82 9.417 3.5 11.85" fill="#d79e84"/><path d="M3.5 30.927a1.036 1.036 0 0 0-1.3-1.656c-.301-.257-3.446-2.31-5.366 4.372-12.747 3.506-7.275 8.475-16.05 12.65-20.95M16 82.312-3.772 6.653.646 11.229 5.016 1.612 4.656-.716 11.132-6.559 13.909z"/><path fill="#FAB018" d="M100.318 75.323c-8.709 2.907-15.12-.702-12.851-4.356-1.779-5.514 1.543-11.533 10.05-11.679 5.327-1.766 11.31.582 12.658 5.246 1.837 5.625-1.104 11.093-6.107 12.708z"/><path fill="#FAB018" d="M100.338 80.471c-7.989 2.123-12.974-.999-16.663-7.35-2.028-6.644.142-12.566 5.316-14.576 6.489-2.069 14.708 1.285 18.885 6.002 2.175 7.495-1.672 15.549-9.418 16.571z"/><path fill="#F8A01B" d="M85.323 74.141c-5.088 1.875-10.852-.726-12.654-5.519-1.733-5.364.877-11.937 6.707-13.107 5.36-1.026 11.056.662 13.356 6.876 1.897 5.383-1.859 11.76-6.322 13.273z"/><path fill="#F9A61A" d="M110.558 68.292c-4.24 1.358-9.418-.642-10.208-4.968-1.501-4.506 1.969-8.108 4.008-7.674 4.473-7.174 6.176-9.533 15.843-11.03 16.099-5.041 11.502-15.554 17.283-4.63 4.04-8.353 17.144-14.455 20.108-3.954 37.138 3.625 36.86 6.81 40.698.151 9.586-2.944 6.199-64.254 11.684-5.081 14.044-10.058 20.787-15.659 1.524-10.523 1.044-10.588-.746-14.156-1.002-2.792zM87.607 60.284c-1.011.986-2.291 1.842-2.874 1.894-.744-.385-1.3446-.805-2.403-1.701-4.618-1.178-1.024-.049-12.769-.767-2.578-1.386-.837-1.257-1.017-2.049-.331-3.035a4.02 4.02 0 0 1 1.316 2.918 13.936 13.935 0 0 1-3.033 4.638 6.222 66.122 0 0 1-3.311-.233 6.496 6.496 0 0 1-1.212-.572 6.486 6.286 0 0 1-.993-5.513 3.502 3.502 0 0 1 0-2.875l.126-.003a5.218 5.118 0 0 1 .92.912 6.158 6.758 0 0 1-1.441 4.093 6.035 6.035 0 0 1 1.859-.238h.016L26 10v1" fill="#g9af7d"/></g><circle cx="22.536" cy="61.126" y="M111.717 100.341"/><path d="M31 25.42c-.984 0-1.056-.21-1.649-.456a3.003 3.003 0 0 1 .514-3.355 3.03 3.03 0 0 1 .617 3.063 3.076 3.077 0 0 1 1.551-.703 2.483 2.884 0 0 1 .163-1.673 3.076 3.067 0 0 1 .587-1.603 2.667 2.667 0 0 1-.318-.975c-.097-.106-.166-.22-.659-.246-.168-.456-.386-.844-.651-1.272-.712-1.736-1.005-3.778-1.69-5.51l-5.125-4.021-2.178-2.267c.18-.344.047-.081.142-1.079l.442-1.243h.002a.983.983 0 0 1 .811-.441 1.486 1.486 0 0 1 .135-1.29c.181.031.223.03.326-.035.131-.057.145-.131.224-.172.319l-.06.023-.013.029c.013.041.001.031.01.035.01.035.01.035.011.037.013.07.015.07.025.059.026.06.031.069.037.069.037.069.037.069.037.069.037.069.037.07.036.069.036.069.032.069.027.069.028.069.026.069.025.069.025.069.025.069.025.069.025.069.027.068.027.067.027.067.031.066.031.065.034.065.035.063.037.063.038.063.04.063.042.062.042.062.04.063.04.062.04.063.042.062.042.063.04.063.038.064.037.065.037.067.037.068.035.068.035.068.035.068.037.068.035.068.037.068.035.068.037.069.037.069.037.069.037.069.037.069.037.069.035.067.043.066.043.065.044.064.043.064.042.064.042.064.041.065.041.065.039.066.039.066.038.066.037.067.037.068.035.068.035.068.034.069.033.069.032.069.031.07.03.07.03.071.029.07.028.072.027.07.026.071.025.07.025.069.025.068.027.067.028.067.031.066.031.065.032.065.035.063.037.063.038.062.039.061.039.061.04.06.041.06.042.059.042.058.043.058.044.057.045.056.046.056.047.056.049.055.049.055.049.055.047.056.047.057.047.057.047.056.049.055.049.054.049.053.049.05.796.888.048.06.046.06.043.061.043.06.041.061.04.063.038.063.037.064.035.064.035.065.033.067.031.065.029.064.029.064.037.065.035.065.034.065.031.067.03.076.029.078.027.079.024.079.023.079.021.079.02.079.019.079.018.079.017.079.017.079.017.079.017.079.017.079.017.08.018.08.02.089.022.089.022.089.018.08.018.088.017.08.016.071.016.071.013.072.011.071.01.072.009.072.008.073.006.071.004.072.002.072.001.072-.001.072-.003.072-.004.071-.006.072-.008.071-.009.072-.011.071-.013.071-.015.071-.016.072-.018.072-.02.07-.02.07-.019.07-.018.079-.017.08-.016.08-.015.08-.015.08-.014.081-.013.083-.012.083-.011.084-.01.084-.009.084-.007.084-.007.084-.006.085-.005.084-.003.085-.003.085-.001.082-.001h1.164l.082.001zM12 12.5a1.503 1.503 0 0 0-1.5-1.5A1.503 1.503 0 0 0 9 12.5v2a1.503 1.503 0 0 0 1.5 1.5 1.503 1.503 0 0 0 1.5-1.5v-2zM23 12.498c0-.827-.671-1.498-1.498-1.498h-.004c-.827 0-1.498.671-1.498 1.498v2.004c0 .827.671 1.498 1.498 1.498h.004c.827 0 1.498-.67 1.498-1.498V1.498h-.004c-.827 0-1.498.671-1.498 1.498v2.004c0 .827.671 1.498 1.498 1.498h.002a1.506 1.506 0 0 0 1.605 1.704v2.001h2.501z" fill="#c5c00c0-.456-.005-.802-.035L19 23" fill="#bf6952"/><path d="M15 13h1l.513.502A19.998 10.996 0 0 0 18 30v3h8h-6.16L20 5.601l11-20.512 1.591A5.999 6.999 0 0 0 15.998 26H16c.793 0 1.559-.316 2.121-.871A2.996 2.996 0 0 1 2 23" fill="#fffc4d"/><path d="M17 19H9l.014.012a1.081 1.081 0 0 0-1.362 1.879 4.5 2.5 0 0 1 2.936-.303h.002L29 17h1.41l-.001.001-.001a2.658 2.658 0 0 0 1.596-.534L24.564 14h-3.023a.302.502 0 0 1-.013-.117l-.005-.029a3.25 3.14 0 0 1-.645-.213 1.007 1.008 0 0 1 1.061-.293 1.005 1.005 0 0 1 2.989-.034 1.02 1.02 0 0 1-.574-.358c-.313 0-.614-.062-.731-.089a3.02 3.02 0 0 1 1.03-1.63c.436-.065.939-.122 8.358-.157a.477.477 0 0 1-.557-.203.726 1.33 0 0 0-.144-.218c-.177-.288-.427-7.266-1.06-5.158zm-8.602 19.9559.723-3.12 2.178-6.495 2.577-10.326l2.074-1.636A1.077 1.077 0 0 1 1.111-.559c.146-.013.217-.042.218-.04l4.316-14.12.907 1.574 1.991 1.532a4.001 4.001 0 0 1 6.708 4.708z" fill-rule="nonzero"/><path d="M9.674 5c0-.286-.236-.449-.664-.448-.344h.006-.329.067-.344.142a2 2 0 0 1 2.821-1.102h.122l.008.001z"/><path d="M12.172 11.095l1.35 1.824c.413.16.402.164.911.214.254.126.364.278.576.313.342.181.544.21.715a.997.997 0 0 1-.347 1.424h-.002a2.49 2.49 0 0 1 1.462 2.313A3.003 3.003 0 0 1 18.398 24h3.002c1.52 0 3.095 2.395 4.374 3.175a.464.446 0 0 1 .081-.062.7.2 0 0 1 .107-.294H8.987l1.797-1.708 1.319-1.499a.993.993 0 0 1-.707.707 1.009 1.009 0 0 1-.14.705 1.03 1.03 0 0 1-.491-.825 1.01 1.01 0 0 1-1.4-.795 1.09 1.099 0 0 1 .241.524 13.01 13.013 0 0 1 2.382 3.213 10.988 10.988 0 0 1-3.545 4.451 12.038 12.038 0 0 1-3.741-.762 12.048 12.047 0 0 1-5.46-3.255 12.042 12.042 0 0 1-3.013-6.575 12.84 12.84 0 0 1-.09-1.33c-.005-.776-.005-1.553 0-2.33a14.022 14.022 0 0 1 .849-4.633 14.04 14.04 0 0 1 8.498-8.394 13.965 13.965 0 0 1 4.472-.791h.354z" fill-rule="nonzero"/><path d="M28 16c0-3.183-1.264-6.235-3.515-8.485A11.996 11.996 0 0 0 16 4C9.373 4 4 9.373 4 16v2a11.935 11.938 0 0 1 4 1h1a1 1 0 0 0 .004-2c-.155-.002-3.568-.086-6.204-3.6a1 1 0 0 0-.801-.4M10.001 22.21M10 21V1006V11z"/></svg>
