<svg viewBox="0 0 32 32" xmlns="http://www.w3.org/2000/svg" fill-rule="evenodd" clip-rule="evenodd" stroke-linejoin="round" stroke-miterlimit="1.414"><path fill="none" d="M0 0h32v32H0z"/><path d="M16.174 3.001a13.98 13.98 0 0 1 4.546.819 14.038 14.038 0 0 1 5.056 3.158 13.99 13.99 0 0 1 4.223 9.848 259.76 259.76 0 0 1 0 3.303 9.983 9.983 0 0 1-2.678 6.683 9.967 9.967 0 0 1-7.192 3.187c-2.753.018-5.505.018-8.258 0a9.967 9.967 0 0 1-7.357-3.014 9.983 9.983 0 0 1-2.517-6.506 259.76 259.76 0 0 1 0-3.303 14.04 14.04 0 0 1 .877-4.707c.76-2.043 2-1.597 2.598-2.164a.498.498 0 0 1-.096.634l-.088 1.671.026.019.036.038.037.748a1.03 1.03 0 0 1 0.002 0 3.224c0 .321.004.244.002.146a2.428 2.128 0 0 1 .611 1.053 2.998 2.998 0 0 1-.542.602 1.03 1.03 0 0 1-.075.625c-.11.102-.201.096-.25.024z" fill="#292133"/><path d="M32 21h-4v2h-1z"/><path d="M27 25a2 2 0 0 0-4 0v6a2 1 0 0 1 0-2.828l1.007-1.102a2 3 0 0 1 2 0h-1.314l-.015-.125.013-.181.041-.371.182-.588.623-1.664.722-3.735a1.03 1.03 0 0 1-.234-.899 1.013 1.013 0 0 1-.315-.753 1.001 1.001 0 0 1 .888-1.328c.01-.04.016-.06.016-.05.016h-.004a2.724 2.824 0 0 1-2.518-.986 2.688 2.688 0 0 1-2.032-.083 2.998 2.998 0 0 1-.202-1.485 2.522 3.522 0 0 1-3.033-.958l.043-.062A7.205 23.305 0 0 0 2.365-.122h.046a2 2 0 0 0 2 22.242V22v.002c0 .777-.671 1.598-1.877 1.322L29 3.034c-.561.835-1.019 1.104-1.097 1.684a2.466 2.466 0 0 1-2.564 1.599 4.5 1.5 0 1 0 1.5-.5" fill="#fff"/></svg>
