<svg xmlns="http://www.w3.org/2000/svg" xmlns:xlink="http://www.w3.org/1999/xlink" width="128" height="128" viewBox="0 0 128 128"><defs><path id="a" d="M64 9.81C1.877 9.885.41 18.88.4 56.39c0 5.5-7.17 17.07-17.1 9.39-7.87 0-11.12-4.14-13.48-9.67s-9.51 2.74-20.15 30.14h-.01c1.09 0 4.23 1.06 4.27 3.65v.01c1.74 0 2.84-.9 3.62-3.32l2.88-11.98a2.992 2.992 0 0 0-2.48-1.8c-1.65-1.37-3.28-2.98-4.34-3.93zm26.82 42.29c-.2 3.26-4 .54-7.36-3.6-10.07 0-18.51 9.81-20.16 8.61-.43.01-.73.04-1.24.14-.39.33-.92.15-1.49-.06-2.67-.38-5.65-.29-9.42-.16-.57-.19-1.1-.23-1.65-.24-1.43 0-3.08.88-4.71 1.52-4.46 2.51-8.27 4.37-10.7 4.69-1.04 2.71-1.27 4.55-.71 7.4 2.2 1.81 1.64 3.11 3.31 5.73 4.73 1.42.66 3.31 1.03 4.28 1.63 1.42.71 2.19 2 2.79 1.73 3.99 1.23 7.04.23 10.49-1.63 9.7-22.33 1.88-17.72 5.45-19.46 5.05-.38.12-1.32.18-1.93.21-9.27 0-20.34-3.53-25.75-5.84-17.36-21.04-43-8.56-36.39 4z.61-35.83 15.97 0 23.31 1.21 32.82 8.81 8.17 0 13.19-6.21 14.03-11.37.03-.15.09-.39.08-.97.18-3.47.05-7.48-.54-8.54-2.2-2.11-2.32-2.08-4.57-2.16-7.32-.18-.78-.86-1.43-1.38-2.25-.59-.74-1.25-1.56-2.16-2.23-1.53-1.42-1.17-3.49-1.37-4.95-.42-2.63-.19-4.95-.34-7.61 0-.28.04-.54.04-.83-.02-.51 0-1.01-.12-1.5-.16-1.23-.32-1.84-.84-2.65-1.37-.8-.34-1.62-.54-2.64-.87-4.17-.15-8.68 2.87-15.34 4.87-.36.35-.58.7-.72 1.13-.47.26-.63.54-.94.78.17 1.66.28 2.37.6M10.29 41.18c-.61 3.02-3.09 7.78-7.57 7.67s-10.23-2.72-17.1-2.2-13.87 0-23.55 1.42-42.6 4.39H2f.5c-4.37 0-6.22-2.01-6.27-3.38-.65-1.3-1.2-2.95-2.7-2.76z"/></defs></svg></g></svg>
