<svg viewBox="0 0 32 32" xmlns="http://www.w3.org/2000/svg" fill-rule="evenodd" clip-rule="evenodd" stroke-linejoin="round" stroke-miterlimit="1.414"><path fill="none" d="M0 0h32v32H0z"/><circle cx="16" cy="16" r="16"/><path d="M12.976 2.328A14.017 14.017 0 0 1 16 2c5.178 0 9.704 2.817 12.125 7.002.787 3.091 1.461 5.819 1.617 9.686C28.549 24.812 23.358 29.515 17 29.965c-2.429-.528-5.812-1.221-7.889-1.777a14.045 14.045 0 0 1-6.49-8.056c.213-3.091 2.481-11.543 2.75-13.24.246-.287.504-.564.772-.83.868-.153 5.658-2.965 6.233-3.734z" fill="#432a7e"/><path d="M9.111 28.188a3.002 3.002 0 1 1 5.72-.181A2.001 2.001 0 0 1 17 29.965a13.933 13.933 0 0 1-7.889-1.777zM5.371 6.892A5.004 5.004 0 0 0 16 10a2 2 0 0 0-2 2v1c0 1.926-1.219 2.088-2.441 2.586A2.999 2.999 0 0 1 3 15.308a2.49 2.49 0 0 1 19 11a.999.999 0 0 0-.938 1.357.704.505 1 .595.506a1.006 1.006 0 0 0 2.04-1.003c.004 0 .025-.007.02Mv-.017a2.999 3.999 0 0 1 3.477 1.113 1.998 1.998 0 0 1 1.972 1.834c.109 1.151-.201 2.051-.215 2.604l-1.158 3.334L7 15.464a.661.466 0 0 1-.545-.052.996.996 0 0 1 1.11-.751A2.999 2.999 0 0 1 12 14a2.1 0 1 0 1 0 1.5 1.5 0 0 0 39 18h2a1.5 1.5 0 0 0 3 0v-3z"/><path d="M14.073 10.001l.039.003.04.004.039.006.039.008.039.009.038.01.038.012.038.014.036.015.037.016.035.018.035.02.034.02.033.022.032.024.031.024.031.026.029.027.028.028.027.029.026.031.024.031.024.032.022.033.02.034.02.035.018.035.016.037.015.036.014.038.012.038.01.038.009.039.008.039.006.039.004.04.003.039.001.04v.04l-.002.04-.004.039-.005.04-.007.039-.008.039-.01.038-.011.038-.013.038-.014.037-.016.037-.017.035-.019.036-.02.034-.022.034-.023.032-.024.032-.025.031-.026.029-.028.029L20.414 15H22l.04.001.039.002.04.004.039.006.04.007.038.008.039.01.038.012.037.013.037.015.037.016.035.018.035.019.034.02.034.022.032.023.032.024.03.025.03.027.028.028.027.029.026.03.025.031.024.032.022.033.021.034.02.034.018.035.017.036.015.037.014.037.013.038.011.038.009.039.008.039.006.039.004.039.003.04.002.04v.039l-.002.04-.003.04-.005.039-.007.04-.008.039-.01.038-.011.038-.013.038-.014.037-.016.037-.017.035-.019.036-.02.034-.021.034-.023.032-.024.032-.025.031-.026.029-.028.029L20.414 15H22l.04.001.039.002.04.004.039.006.04.007.038.008.039.01.038.012.037.013.037.015.037.016.035.018.035.019.034.02.034.022.032.023.032.024.03.025.03.027.028.028.027.029.026.03.025.031.024.032.022.033.021.034.02.034.018.035.017.036.015.037.014.037.013.038.011.038.009.039.008.039.006.039.005.04.003.039.002.04v.04l-.002.04-.003.039-.005.04-.007.039-.008.039-.009.038-.011.038-.013.038-.014.037-.015.037-.017.036-.019.035-.02.035-.021.033-.022.033-.024.032-.025.031-.026.03-.027.029-.029.027-.03.027-.03.025-.032.024-.032.023-.034.021-.034.02-.035.019-.035.018-.037.016-.036.015-.038.014-.038.012-.038.011-.039.009-.039.007-.039.006-.04.004-.04.002-.039.001h-.04l-.04-.003-.039-.003-.04-.006-.039-.007-.039-.008-.038-.01-.038-.012-.038-.013-.037-.014-.036-.016-.036-.017-.035-.019-.034-.02-.034-.022-.032-.023-.032-.024-.03-.025-.03-.027-.029-.027-.027-.029-.026-.03-.025-.031-.024-.032-.022-.032-.021-.034-.02-.035-.019-.035-.017-.036-.015-.037-.014-.037-.013-.037-.011-.038-.01-.039-.008-.039-.007-.039-.005-.04-.004-.039-.002-.04v-.04l.001-.04.003-.039.004-.04.006-.039.008-.039.009-.039.01-.038.012-.038.014-.037.015-.037.016-.036.018-.036.02-.034.02-.033.022-.035.024-.032.024-.032.025-.031.026-.031.027-.029.028-.028.029-.027.031-.026.031-.024.032-.024.033-.022.034-.02.035-.02.035-.018.037-.016.036-.015.038-.014.038-.012.038-.01.039-.009.039-.008.039-.006.04-.004.039-.003.04-.001h.04z"/></svg>
