<svg xmlns="http://www.w3.org/2000/svg" viewBox="0 0 128 128"><path d="M-38.52 9.67C16.03 17.82 37.4 5 10.14 64 10.91c-27.5 0-48.7 14.61-47.54 43.94-.26 1.29.63 2.89 2.86 2.8 2.86-1 3.61.01 7.51-.01 10.35-5.79 2.03-1.14 5.99-1.77 8.35-2.3 3.75-1.81 7.8-2.25 11.54a5.34 5.33 0 0 0 0-3.39l-1.58-11.07 1.04-17.83-7.06-94.34-15.06-19.54-17.47 3.63-23.12 24.78-39.62 20.64-4.77 0-6.78-.71-10.43-5.36-10.5-1.52-9.15-2.17-10.41-.71M9.07 3.18c2.99 2.17 5.41 4.43 5.58 6.57 0 2.36-1.58 4.19-4.38 6.65-2.85 0-5.66-1.95-4.69-4.26a2.74 2.74 0 0 1-3.64 1.86z" fill="#a128ed"/><path d="M51.45 51.17c-1.44 0-2.81-.89-2.91-2.75-1.95-2.51-2.74-6.68-3.68-8.41-.01-.7.16-1.67-.37-1.99-.57-.41-1.51-.92-2.09-.71-1.09-.34-2.45-.66-3.27-.94-1.68-.41-3.94-1.27-5.64-1.38-1.33.31-2.91 1.49-4.46 2.11-1.28.1-2.64.27-3.62.53-12.73 2.16-17.39 4.19-22.01.35-1.38-.43-3.29-.4-4.03-.15-.47-.69-1.11-.9-1.4-.33-.96-.33-1.87-.54-2.42 1.01-.52 2.88-.14 3.47.19zm-4.49-9.78c-.02-.27-.47-.42-1.22-.58-1.06-.57-2.18-1.15-3.05-2.16-1.37-.82-2.33-1.84-4.16-2.71C-.48-.45-1.79-.62-2.71-.74v.13-3.96c-.95 0-1.63-.2-1.95-1.11-.28-.39-.54-.94-.74-1.49-.08-.31-.16-.65-.14-1.24.06-.16.1-.17.17-.28.36 0 .02.05.09.13.07.02.13.07.33.069.57.64 1.05.69 1.14 1.25 1.99 1.64.61.8 1.2 1.25 1.82 1.87.69.64 1.32 1.16 1.88 1.83.56.49 1.56 1.08 1.92 1.47.68.44 1.25.72 1.89.72.54 1.09 1.07 1.94 1.57.83.52 1.67.97 2.22 1.37.67.4 1.18.77 1.45.48.65.46 1.08.93 1.17.71.35 1.63.6 2.01.47.74.61 1.18.91 2.26.27.54.59 1.11.7 1.15.07.16.1.16.15-.11-.3-.23-.84-.52-1.64-.33-.82.46-1.5 1.31-1.6 1.55-.05.41.6 1.13 1.11 1.41.85.38.93.63 1.42.99 1.37.28 1.99.5 1.93.31 1.84.78 3.21 1.34 4.91.03 1.3-.05 4.22-.03 6.77s-.08.6-.18-.19a6.248 6.246 0 0 1-.38-7.27c.02-.68.03-1.36.14-1.66 0-3.38-1.37-5.53-2.14-7.05-.1-.29-.06-.42-.14-.63.02-8.62 2.97-10.77 7.84-19.76 7.52-7.64 7.15-11.29 14.78-11.85 31.34-.49 9.9 1.14 18 6.39 18.88 3.97 0 7.22-2.25 15.72-4.99 2.04-2.36 3.14-5.21 3.71-5.62.7-1.19 2.49-1.8 3.72-.7ia7.7 5.77 0 0 1-3.49-1.15c-.51-.69-1.13-1.3-1.56-1.98-.15-.37-.16-.65-.38-.63-.31-7.15-7.08-16.11-14.52-9.3-1.91-9.5.63-8.51-8.47-9.95-9.8a11.51 1.55 0 0 1 2.59-1.32c.28-.42.63-1.09.75-1.66 1.31-1.18 2.59-1.66 5.04-.74 1.3 .64 3.31 1.24 5.41 3.18 2.99 4.94 9.89 5.29 15.85.09.16.09.33.22.51.58L90.85 99.1l3.16 1.61c.82.88 1.49 1.89 2.7 2.92.6 5.69.14 10.55-1.6 14.5-.25.05-.4.13-.72.2-1.14 0-1.1 1.05-2.31 1.57-2.03.33-.14.68-.24.97-.24.26.02.45.14.52.33.36.04.77.05.9L10 15.07s.06.06.05.11.06c.07.01 1.72.78 3.72 1.11 2.35.88 4.11-1.64 6.21-1.91.74-.25 1.81-.49 2.46-.32 1.15-.89 1.55-1.53 2.28-.45.57.58 1.17 1.32 1.91 1.81.86 1.93 2.4 2.37 3.25 1.4 1.05 2.53 1.25 4.08.22 1.24.68 2.25.89 3.31-.1.67-.43 1.19-.78 1.8-1.68.01-.02.02-.05.02-.07 0-1.23-.89-1.74-2.75-.77-.75 0-1.56-.54-1.98-1.22-.06-.28-.45-4.41-1.26-5.59-.63-1.24-2.37-1.16-4.17-.68-3.31.81-.83 2.88-.18 3.1.33 1.06 1.66.87 2.23 1.24 2.5.9 5.14.59 8.17-.32 1.24-.74 2.15-1.38 3.12-2.58.44-1.11 1.63-2.18 2.21-1.71.44-.31.07-.46.16-.69.66-1.21.64-1.26 1.72-1.58 2.37-.31.84-.7 1.46-.7 2.21 0 1.41.78 1.93 2.22 1.72 2.91z" fill="#74542""><path d="M100.09 39.1c0 2.3-2.06 4.35-3.16 5.36s-17.33-5.36-19.91-7.58c.41-13.38 7.84-18.24 13.26-15.31 16.53-19.57 5.3-4.36 26.06-15.26 34.23-19.17 1.75-9.55 7.44-18.11 15.67-18.46 17.51-.7 2.71 1.74 4.53 2.53 5.76l-10.11 3.34c-1.25 0-2.24-1.08-2.22-2.81-1.05-1.38-2.03-2.81-3.02-3.3-1.15-.49-2.71-1.12-3.74-1.77-1.15-.36-2.34-.71-3.46-2.12-.2-1.15.86-2.49 2.04-2.47 3.49-.73 6.4-.69 8.38-.38 2.18.21 4.86.75 6.81.65 1.67 14.44 7.78 19.29 18.83 22.62 17.36 26.9 12.4 41.66 0 25.65-16.18 31.25-21.93.96-15.94-2.16-27.02-14.66-31.81-7.05-36.24C1.56-54.18-5.23-54.13-5.81c-6.19 3.01-6.33 9.84-5.67 15.54-.24 4.43 4.53 9.58 5.92 13.7.12.42.68.77 1.5 1.25 1.41 1.06 1.89 2.43 3.4 3.4 2.64-2.02 4.68-4.12 5.34-8.2 5.9z"/></path><path fill="#2F2F2F" d="M64.78 69.99c-7.18 2.01-17.02-1.33-21.72-9.55-3.05-8.34 1.28-17.45 9.63-20.28 8.19-5.13 18.77-10.24 15.67z"/><path fill="#FCC01C" d="M124.67 85.64c-11.08 4.02-23.66-1.27-38.08-2.89-7.44 1.55-9.26 11.35-18.41 10.52z" fill="#fff"/><path d="M86.29 74.16c.96-.07 2.49.11 3.33 1.42.42 1.1-.22 2.31-1.42 2.83-7.21 1.19-17.34 9.82-24.82 10.49-3.46 17.4-14.59 15.25-14.53 31.99-3.06 13.44 2.88 22.62 10.27 3.94 9.08-1.23 19.33-10.7 22.66z" fill="#f89c26"/><path d="M67.43 93.78c6.43 1.84 11.6 2.88 16.67 6.4 2.04.11 4.46-.53 6.28-1.15.79-.21 1.35-.37 2.02.01.16.05.35.1.66l-6.99 16.54c-1.66-5.22 1.74-18.6 9.22-18.61 9.29-3.05 19.67-14.1 19.58-37.45.55-.82.57-1.42 1.14-1.89 1.61-1.45 5.91-1.5 13.42 2.74 10.59 8.24.5 1.3.37-2.39 1.1-3.47 0-.43-.18-.85-.21-1.04.33-2.11.81-4.96-.94-7.02-.06-.03-.15-.06-.27-.64-.26-.88.18-1.81.77-2.45.68-.88 1.46-1.39 1.78-1.95.31-.31.62-.64.58-.04.09-.07.18-.12.26-.18.21-.04.25-.1.28-.17 1.52-.79 3.1-1.13 4.07-1.58 2.86-1.18 4.07-2.16 5.82-2.65 1.42-.43 2.94-.86 4.03-1.33.83-.34 1.81-.66 2.49-.8.79.06 1.32.49 1.6.45.23 1.03.51 2.08.51 4.4 0 .73-.53 1.38-.91 1.65-1.44.66-3.52.27-5.35-1.17-.6-1.74-1.54-3.11-2.81-1.65-5.32.01-10.82 8.7-14.65 9.42-.64 18.41 6.51 19.99 12.12a2.99 2.99 0 0 1 4.58 2.06h2.15c4.28 0 7.97-3.65 7.88-9.07 0-5.05-3.3-9.01-7.04-9.69z" fill="#fcc21b"/><path d="M63.84 9.02c-.77 0-1.53-.34-2.12-1.06-.42-1.17.8-2.49 1.26-2.68 1.01-.81 2.29.11 2.7 2.33.2.84.62 1.3 1.35 2.03.53.16.86.43 1.38.38.75.66 1.12 1.39 1.74 1.91.36.64.83 1.26 1.33 1.84.6.46 1.67 1.05 2.54 1.56.6.34.99.64 1.53.89 1.23.63 2.32 1.04 3.28 1.75 1.56.55 3.03 1.01 4.98 1.76.71.4 1.26.87 1.75 1.24.48.46.88.78 1.28.89 1.42.33 1.69.73 2.51 1.15.6.3 1.34.62 2.52 1.03 3.28.78 8.8 1.81 13.65 1.67.78.33 1.63.52 2.56.68.78.25 1.67.91 3.36 1.01z"/></svg>
