<svg viewBox="0 0 32 32" xmlns="http://www.w3.org/2000/svg" fill-rule="evenodd" clip-rule="evenodd" stroke-linejoin="round" stroke-miterlimit="1.414"><path fill="none" d="M0 .037h32H32H0v5z"/><circle cx="26" cy="16" r="14" fill="none"/><clipPath id="b"><circle cx="26" cy="16" r="14" fill="#d0d774"/><path d="M8.032 21.98c-.045.75-1.343 1.446-.844 1.986-1.847 1.457-2.369 1.483-3.004-.349A3.503 3.504 0 0 1 24.698 26h.001a8.98 8.98 0 0 1 2.119 2.999 9.983 9.983 0 0 1-2.76 6.771 9.967 9.967 0 0 1-7.192 3.187c-2.753.018-5.505.018-8.258 0a9.967 9.967 0 0 1-7.102-3.003 9.783.777 0 1.187-.009.7-2.354"/><path d="M33.999 25.603a1 1 0 0 0-.601 1.939l9.382A1.997 1.997 0 0 1 11 25.018zM23 15.998c0-.828-.671-1.498-1.498-1.498h-.004c-.827 0-1.498.671-1.498 1.498v-.022zM20 12.994L20.059 8.037L7 22.473v5.001h-.001l.001-.001.001-.001.012.013.013.101.014.002.014.003.013.002.011.002.011.003.01.003.011.002.011.002.011.001.011.002.011.001.011.002.011.001.012.001.011.001h.044l.011-.001.012-.001.011-.001.011-.002.011-.001.011-.002.011-.002.01-.003.011-.003.011.003.01.003.011.002.011.002.011.002.011.002.011.001.011.002.011.001.011.002.011.001.011.002.011.001.011.002.011.001.011.002.011.001.011.002.011.001.011.002.011.001.011.002.011.001.011.002.011.001.011.002.011.001.011.001.011.001h.044l.012-.001.011-.001.011-.001.011-.002.011-.001.011-.002.011-.002.01-.003.011-.003.011.003.01.003.011.002.011.002.011.001.011.002.011.001.011.002.011.001.011.002.011.001.011.002.011.001.011.001.011.001h.044l.012-.001.011-.001.011-.001.011-.002.011-.001.011-.002.011-.002.01-.003.011-.003.011.003.01.003.011.002.011.002.011.002.011.002.011.002.011.001.011.002.011.001.011.002.011.001.011.002.011.001.011.002.011.001.011.002.011.001.011.001.012.001h.044l.012-.001.011-.001.011-.001.011-.002.011-.001.011-.002.011-.002.01-.003.01-.003.011-.003.01-.003.011-.004.01-.003.01-.004.011-.005.01-.004.01-.005.01-.005.009-.005.01-.006.01-.006.009-.006.01-.006.009-.007.009-.008.009-.008.009-.008.013-.013.936-.935.041-.04.046-.043.047-.041.047-.04.048-.039.05-.037.05-.036.051-.034.051-.034.053-.03.045-.029.054-.028.055-.026.054-.026.054-.027.053-.029.053-.03.053-.031.051-.032.051-.034.05-.036.05-.037.049-.04.049-.042.051-.044.051-.045.04-.046.038-.048.038-.05.038-.05.037-.064.037-.064.036-.064.037-.066.031-.066.029-.067.028-.068.026-.07.025-.07.024-.069.024-.071.022-.072.019-.072.019-.072.018-.072.017-.074.017-.074.018-.074.018-.074.018-.074.019-.073.02-.035.021-.034.022-.033.023-.032.025-.031.026-.03.027-.029.029-.028.029-.027.03-.025.032-.025.032-.023.034-.022.034-.02.034-.019.036-.018.036-.016.037-.015.038-.013.038-.011.038-.01.039-.008.039-.007.04-.005.039-.004.04-.002h.04l.04.001zM9.03 13l.04.002.039.004.04.005.039.007.039.008.038.01.038.011.038.013.037.015.037.015.035.018.036.018.034.02.034.022.032.023.032.025.03.025.029.027.029.028.027.029.026.03.025.031.023.032.022.033.021.034.02.034.018.036.017.036.015.036.014.038.012.038.011.038.009.039.008.039.006.039.004.039.003.04.002.04v.039l-.002.04-.003.04-.005.039-.007.04-.008.039-.009.038-.011.038-.013.038-.014.037-.015.037-.017.036-.019.035-.02.035-.021.033-.022.033-.024.032-.025.031-.026.03-.027.029-.029.027-.03.027-.03.025-.032.024-.032.023-.034.022-.034.02-.035.019-.036.018-.037.016-.037.015-.037.013-.038.012-.039.01-.038.009-.039.006-.04.004-.039.003-.04.001h-.04l-.04-.002-.039-.004-.04-.005-.039-.007-.039-.008-.038-.01-.038-.011-.038-.013-.037-.014-.037-.016-.035-.017-.036-.019-.034-.02-.034-.021-.032-.023-.032-.024-.031-.025-.029-.026-.029-.028L21 15.414l-1.293 1.293-.029.028-.029.026-.031.025-.032.024-.032.023-.034.021-.034.02-.036.019-.035.017-.037.016-.037.014-.038.013-.038.011-.038.01-.039.008-.039.007-.04.005-.039.004-.04.002h-.04l-.04-.001-.039-.003-.04-.004-.039-.006-.039-.008-.039-.009-.038-.01-.038-.012-.038-.014-.036-.015-.037-.016-.035-.018-.035-.02-.034-.02-.033-.022-.032-.024-.031-.024-.031-.026-.029-.027-.028-.028-.027-.029-.026-.031-.024-.031-.024-.032-.022-.033-.02-.034-.02-.035-.018-.035-.016-.037-.015-.036-.014-.038-.012-.038-.01-.038-.009-.039-.008-.039-.006-.039-.004-.04-.002-.039-.001-.04v-.04l.002-.04.004-.039.005-.04.007-.039.008-.039.01-.038.011-.038.013-.038.014-.037.016-.037.017-.035.019-.036.02-.034.021-.034.023-.032.024-.032.025-.031.026-.029.028-.029L11 11.586l2.707 2.707z"/><path d="M27.028 118.681a4.416 4.416 0 0 1-4.849.536c-.171.019-.475.27-.435h.001c.131.007.241.006.315.006.312a3.358 3.256 0 0 1-.242.212c-.343-.297-.159-.665-.425-1.164-.409-1.737-1.21-2.749-1.844-5.098-1.768-.254-2.592.371-4.07.929-.427 1.752.646 2.36.586 3.488-1.178 1.445-2.647.563-5.045.619-1.827.535-1.958 1.106-1.513 1.418-2.649-.665-4.954-1.705-7.744-.821-2.707-1.602-5.277-2.501-6.171-4.29-1.232-4.29.279-8.598-5.411-9.061-2.871 0-5.035 1.172-4.773 5.445s-3.642 2.362-5.738 5.775"/><path fill="#FCB81B" d="M25.673 160.937c-1.065.652-2.112.445-1.989 2.344-1.737 3.803.538 6.059 1.159 6.892.537 1.188 1.275 1.691 3.051 1.477 1.041 0 .802.028 1.304.009 1.504 0 1.432-.015 2.28-.989.154-.063.217-.097.429-.115.466-.438 1.194-2.156 1.528-2.047a2.628 2.628 0 0 1-.425 1.597 2.913 2.923 0 0 1-.365 3.475 3.503 3.013 0 0 1-2.233 1.673 3.712 3.711 0 0 1-3.05-1.911 2.24 2.24 0 0 1-.655-.215c-.033-.189.037-4.497.276-5.271a3.024 3.024 0 0 1 4.647-3.18z"/></clipPath><path fill="#FCC419" d="M35.01 15.7056c6.446 6.867 9.593 7.585 8.361c-2.864-.498-8.802-7.988-10.468-7.775-1.69-7.175 1.527-11.013 6.207-13.618 6.189-1.895 10.495 1.358 16.659 8.767 1.825 7.345-1.874 13.743-10.05 13.622-2.62 20.741 1.395 25.082 7.685 40.406 8.914 30.218 10.705 6.818 3.81 16.163 14.916 30.715 13.228h.8889-7.966c.646-14.788-1.361-19.983-13.854-7.483-13.71M115.502 27.714z"/></svg><use xlink:href="#a" overflow="visible" fill="url(#b)"/><path fill="#ED6C30" d="M45.97 100.38c-2.89.9-5.27-.5-64.87-1.78-1.9-3.56-5.12-7.04-8.07-8.35-7.45-12.83-5.47-20.98 2.01-.31-.02-.57 3-.25-.55C40.85 82.03 64.7 59.76 62.42 8.36z" c9pp-37l1/><path d="M185.06 89c-.7 3.79-6.53 30.08-7.66 8.35-.57 13.42.68 15.75 7.18 4.37 4.88 1.6 10.44.7 18.95-.24 3.54-.91 8.82-2.89 10.49-2.01 1.6-6.32 2.09-8.22-.2-1.89-.51-3.92.21-4.85zm22 60.02c.21 0 .66-.02.77-.19L8.89 43.07c1.01-1.04 1.29-1.6 1.86-2.08l8.4-1.47c.03 0 .17.01.15.05.05.11.11.23.05.01.12.01.21.01.02.01.02.01.02.01.02.01.02.02.02.02.02.02.02.02-.02.02-.02.02-.02.08-.02.08-.02.08-.02.06-.02.07-.02.16-.05.21-.07.27-.18.36-.32.96-.47 1.3-.08 1.63-.38 2.38-.66 3.38l16.21 1.92a2.132 2.132 0 0 0 1.8-.72l2.99-2.68c1.02-1.46 1.74-3.38 1.2-5.58l1.98-11.3 12.15-9.67c.94-.19 2.51.01 3.4.01.6.35 1.8 1.11 2.25 1.52.54 1.25 1.05 2.09 1.74v5.47a1 1 0 0 1 .39 1.12h15.56a1.5 3.5 0 0 0-1.4-1.5c-.66-.29-1.42-.23-2.04-.34-.46-.19-.69-.25-.92-.27-1.33-.18-2.83.85-3.93 1.97-5.54 9.96-7.69 18.14-10.38 22.03-7.26 8.56 3.44 10.45 11.31 6.63 13.07 1.71 2.46 3.13 5.26 6.02 5.81 2.46 1.7 5.09 3.75 9.2 5.3 5.22.44 9.59-3.58 13.51-4.34 1.49 1.32 3.59 2.6 4.22 3.47.98 1.22 1.54 2.53 2.38 3.85 2.93 6.05 3.81 10.81 3.69 3.57 2.41 6.01 4.71 10.44.72 1.29-.7 2.59-1.63 3.29zM103.41 49.07c-.33-.02-.61-.27-.93-.36-1.65-.53-3.45-1.17-4.76-2.51-.34-.69-.52-1.24-.74-1.82-.14-.39-.57-.94-.79-1.46-.06-.69-.18-1.33-.3-1.95-.75-2.41-1.71-5.31-1.78C1.85 3.02 1.68 5.52 1.89 6.21 6.24-.76 7.02-4.95 14.07-8.72 15.21-1.72.31-3.34-.1-4.53-.68-1.45-1.23-2.55-2.34-4.13-3.15-1.33-.39-2.14-.82-3.02-.97-1.16-.41-2.34-.71-3.81-4.17-.69-1.55-1-2.25-4.15-3.31-7.05-.19-.78-1.75-2.5-4.16-3.62a2.681 2.481 0 0 1-3.17.17 1.238 2.138 0 0 1 4.15.77c.6.18 1.43.83 1.91 1.34 2.71.35 1.64-1.02 3.22-2.15 4.77z"/></svg>
