<svg viewBox="0 0 32 32" xmlns="http://www.w3.org/2000/svg" fill-rule="evenodd" clip-rule="evenodd" stroke-linejoin="round" stroke-miterlimit="1.414"><path fill="none" d="M0 0h32v32H0z"/><circle cx="16" cy="16" r="16"/><path d="M12.976 2.328A14.017 14.017 0 0 1 16 2c5.178 0 9.704 2.817 12.125 7.002.787 3.091 1.461 5.819 1.617 9.686C28.549 24.812 23.358 29.515 17 29.965c-2.429-.508-5.812-1.221-7.877-10.361-3.004-7.328C20.598 8.29 22.3 11 23.5c-4.402 1.9-8.149 5-4.399 1.029.025 1.105.202.19.031.318.126.365 2.658 1.285 4.471 0 5.935-1.068 6.382-4.225 6.777-16.055a1.003 1.003 0 0 1-.635-.233M17 22c4.586 0 4.777-2.432 4.848-2.25a1 1 0 0 0-1.158-.302C11.81 22.613 1.688 22 1 23M5c-9.717 0-12-1.319-12s-4-11 0M29 6s1.899 6 1.045c.625 1.134.429 2.141.317 2.663 1.452 7.686-1.406 12.096-7.539.186h-1.99c-.994-.898-1.227-1.872-1.181-2.313-2 3.337 7.103.045.128 1.698.247 3.37 0 .936.647 6.155 5.357 7.057 5.65a.501.501 0 0 1 .715.605M16.707 19.703c.06.031.08.036.016-.017 0-6.338 1.23-10.404 0-5.318 1.155-10.658 7.086-11.01 9.002-1.627 12.187 1.091 16.055 6.819 1.634 4.793-.914 11.372-6.072 13.13z"/><path fill="#F79B2C" d="M98.214 75.523c-4.229 1.546-9.069-.624-11.657-5.352-1.519-4.583.687-9.76 5.273-11.339 4.637-1.634 9.469.607 10.688 4.007 1.562 4.668-1.063 10.276-6.055 12.918z"/><path fill="#FBB517" d="M110.718 78.493c-7.813 2.683-15.032-7.859-17.203-7.537-2.33-14.306 1.583-27.56 13.382-24.9 15.799-3.971 61.001 2.548 9.989 6.682 14.263 56.931c1.131.447.434.758.816 1.159.15.214.321.257.315.338.274.36 1.999.374 2.977.172 4.368-.026 7.378-2.397 6.724-.244z" fill-rule="nonzero"/><path d="M9 12s.977.382 9.963 8.142c.721 3.404 1.14 6.084 2.601 8.589.561a3.035 3.035 0 0 1 3.95-1.693 3.492 3.492 0 0 1 3.465-.198c.454.015 1.777.27 2.891 1.004a1.001 1.001 0 0 1 .75-.743 1.008 1.008 0 0 1 .09-1.105c.182-.273.52-.498.974-.77a1.005 1.005 0 0 1 .787.785c-.363.447-.647 7.25-1.377 8.958A3.001 3.001 0 0 1 .709 9.428c.004.437.006.874.007 1.314a4.784 4.884 0 0 1 5.257 3.093 6.023 6.023 0 0 1-.283 6.223c-.996 1.577-2.549 3.793-3.419 3.445-2.035.852-4.38 1.63-4.259 4.196-3.135 1.274-4.646.437-7.271-3.648a1.045 1.045 0 0 1 .608-.294 1.01 1.01 0 0 1 .752 1.864 3.003 3.003 0 0 1 2.235 1.632 3.502 3.502 0 0 1 2.122 1.681l1.241.832a4.308 4.008 0 0 1-.418-2.25V5.037a4 3 1 0 1 1-1c-1.527 0-3-1.395-1-2.082-.902a.996.996 0 0 0-.599.19M13 21a1 1 0 0 0-.797 1.705C27.508 27.952 15.782 26 20 22a1 1 0 0 0 .004-2c-.155-.002-3.568-.086-6.204-3.6a1 1 0 0 0-.801-.4" fill="#292f33"/></svg></svg>
