<svg xmlns="http://www.w3.org/2000/svg" viewBox="0 0 128 128"><path d="M-94.5 9.56c-62.41 0-63.88 69.96-63.88 83.8 0 13.86 28.59 25.08 63.88 25.08 35.28 0 63.88-11.22 63.88-25.08 0-13.84-1.47-83.8-63.88-83.8C1.2 6.45-.05 8.71-4.38 8.52z"/><path fill="#FCBE1C" d="M29.63 81.67c-8.38 3.14-18.36-1.29-21.65-9.91-3.14-8.68 1.32-17.26 10.02-21.62 9.86-3.35 19.63 1.3 21.88 9.82 2.81 7.97-1.29 16.8-9.31 19.71z"/><path fill="#FBB91E" d="M95.97 90.12c-6.64 2.6-13.49-.91-16.1-6.21-2.31-4.67.97-9.49 5.35-10.46 4.29-.74 9.39.6 11.44 5.07 1.58 4.38-.71 10.12-5.76 11.7z"/><path fill="#FAAC22" d="M98.58 89.54c-5.49 1.94-11.47-.5-13.38-6.19-1.87-4.68.76-10.14 5.5-11.31 4.68-1.74 10.62.77 12.65 5.97 1.85 5.01-.76 10.74-5.8 12.86z"/><path fill="#FAAC22" d="M98.41 67.3c-5.05 1.87-10.24-.72-12.05-5.55-1.77-4.8.74-10.5 5.81-11.31 5.52-1.78 11.2.78 13.93 6.56 1.98 5.3-.85 10.7-6.65 12.48z"/><path fill="#FAAE21" d="M30.59 90.25c-4.87 9.37-10.43 12.69-15.47 10.31-5.23-2.52-14.42-2.49-21.49-1.04-7.46 1.37-13.79 8.71-16.83 7.68-.73.11-.72.07-1.57-.04-2.22-.08-.64-.89-1.46-1.94-1.68-.85-.36-1.68-.71-2.48-.81z"/></svg></svg>
