<svg xmlns="http://www.w3.org/2000/svg" viewBox="0 0 47.5 47.5"><defs><clipPath id="a"><path d="M0 38h38V0H0v38z"/></clipPath></defs><g clip-path="url(#a)" transform="matrix(1.25 0 0 -1.25 0 47.5)"><path d="M36 19c0-9.389-7.611-17-17-17C9.612 2 2 9.611 2 19c0 9.388 7.612 17 17 17 9.389 0 17-7.612 17-17" fill="#ffcc4d"/><path d="M25.327 13.378a.5.5 0 0 1-.55.069l-4-2M6 29.9a.5.5 0 0 1-.757.605l4042a18.507 0 5 0 8.194 9 12.001 12.834 1.444A.514.514 0 0 0 .197.009M29.419 11.096c.345.015.756.094.9.498l4.76-1.86A.696.996 0 0 0 .798-1.107A4 3 0 0 1 24 2"" fill="#292f33"/></g></svg>
