<svg xmlns="http://www.w3.org/2000/svg" viewBox="0 0 128 128"><ellipse fill="#FFF" cx="97.64" cy="97.37" rx="6.44" ry="3.91" fill="#d75984"/><path d="M36.32 10.92c-12.36 0-12.65-8.18-22.13-14.55 5.82-8.97 16.17-18.6 15.19-21.59-5-88.32-10.58 9.96-20.28 14.91-39.89.56-3.09 2.04-4.44 4.43-7.23.15.14-2.48.33-5.46.34.03-.15.05-.39.02-.04.01-.07 0-.16.06-.26.1-.15.15-.32.38-.58.41-.26 1.39-.44.31-.52.4-1.16.46-1.66.79-1.07 0-1.16-.21-1.52-.54-.41-.37-.79-.88-1.12-1.16-.13-.39-.15-1.57.43-2.56.28-.9.69-1.55.99-2.1.01-.21.01-.26.01-.37.01-.75.01-1.4.14-2.31.3-.6.81-.89.25-1.4.31-1.18.07-2.43-1.16-2.22-2.15-.61-.79-1.46-1.57-2.4-2.2-2.28-.14-.83-.16-1.64-.16-2.47 0-.98.39-1.73 1.81-1.88.8-.21 1.81.4 1.9 1.75l.56.87 2.19-3.53 1.33-7.46.31-14.64c.14-1.35.33-2.6.24-4.04.14-1.5-.04-3.17-.54-4.58-1-.29-1.68-2.74.51-4.28 1.67-4.5 3.56-2.74 10.05.79 16.88 7.06 4.71 7.78-.86 13.78-6.5 16.68-5.06 4.33-8.25 5.43-18.65 5.69-20.76-.83-4.29-1.53-5.91-1.95-7.33-.46-1.31-.79-2.71-1.53-4.04-.32-.67-.44-1.28-.74-1.9-.11-.57-.42-1.12-.44-1.43-.15-.67-.41-1.16-.34-1.45-.23-.53-.82-.57-1.32.64-1.85.58-1.29 1.14-1.87 1.88-1.16 1.45-1.98 2.34-2.02 3.73-.14 1.38-.14 3.3-.95 4.09z"/></svg>
