<svg xmlns="http://www.w3.org/2000/svg" viewBox="0 0 128 128"><path d="M64 9.64C1.69 9.64.21 79.5.21 93.33c0 13.83 28.56 25.03 63.79 25.03 35.24 0 63.79-11.21 63.79-25.03 0-13.83-1.47-83.68-63.79-83.68z" fill="#fcc21b"/><path d="M63.94 54.62c-.75 0-1.49-.31-2.58-.67l-3.1-4.08 8.54-6.67c.9-.47 1.98-.14 2.77-.2 2.75.82 15.64 6.86 14.73 7.82 4.31 2.28 5.78 3.69 9.25 6.09 2.29 3.49 5.33 5.67 7.54 7.05 1.46.66 2.91 1.1 3.49 1.76 9.72 2.03 18.6-5.24 17.97 4.23 2.12.63 6.99-.14 9.55-.28 2.03-1.34 3.63-2.81 4.73-3.31.81-.18 1.75-.53 1.83-.73.94-.79 1.49-1.41 2.77-1.56.88-.18 1.74 0 2.64.3 2.88.4 4.67.17 12.33-.54 15.5-1.01 8.22-4.03 8.24-10.49 10.36-33.83-5.19-53.17-.88-15.1 2.58-17.65 2.57" fill="#cd7"cf"/><path d="M51.65 75.43c-1.73 0-5.29.36-5.21.12-.71.54-2.42.77-3.6.47-1.66-.23-2.08-1.34-2.45-1.36.372-2.8.98-3.34 1.59-.65 0-1.43-.2-2.24-1.18-.18-.22-.32-.43-.36-.63-.12-.37-.09-.61.16-1.06.31-.67.5-1.46.67-2.28.13-1.7.43-1.96 1.56-2.83 1.05-.14 2.09.01 3.48.32 4.65 1 6.48 5.64 8.55 9.76 4.5 1.28.98 2.62 2.45 3.35 2.63 2.34 5.63 4.81 9.8 2.63 3.53-2.36 6.01-7.16 7.03-13.11-.68-4.73-1.94-8.68-6.02-11.36-2.25-2.91-4.87-3.68-7.44-2.39-.7-.14-1.98-.31-2.81-.78-.69-.41-1.45-.8-2.01-.31-.06 0-.22.01-.22.01-1.63-.13-4.1-.71-4.83-.68-1.17-.52-2.35-.66-3.51-.59-.31-.16-.69-.23-1.24-.44-.52-.26-1.11-.57-1.74-.72-.74.18-1.63-.6-2.17-1.21-.46-.3-1.01-.51-1.58-.75-1.15-1.17-1.78-2.03-2.55-.22-1.11-.52-2.34-.27-3.59.12-.32.21-.6.28-1.05.41-.32.31-.63.5-1.08.65-1.01 1.52-1.28 2.67-1.58 1.04-1.45 2.58-2.15 3.59-3.22 2.12-.84.42-1.5.23-2.26.6-1.06-.72-2.28-1.65-2.59-2.93-.19-.26-2.48-4.18-3.87-4.06-.83-1.37-.73-2.74.91-4.27 1.05-1.45 1.97-3.88 2.73-6.02z" fill="#2f2f2f"/></svg>
