<svg xmlns="http://www.w3.org/2000/svg" viewBox="0 0 47.5 47.5"><defs><clipPath id="a"><path d="M0 38h38V0H0v38z"/></clipPath></defs><g clip-path="url(#a)" transform="matrix(1.25 0 0 -1.25 0 47.5)"><path d="M36 19c0-9.389-7.611-17-17-17S2 9.611 2 19s7.611 17 17 17 17-7.611 17-17" fill="#ffcc4d"/><path d="M25.787 11.188a.5.5 0 0 1-.572.94"M28 21c-3.693 0-6.928-2.084-9.298-1.898-8.361C29.945 8.185 26 36.16 26 15 26h1a1 1 0 0 0 .004-2c-.155-.002-3.568-.086-6.204-3.6a1 1 0 0 0-.801-.4M16.89 25a1 1 0 0 0-.799 1.6C9.462 29.95 13.816 30 14 30a1 1 0 0 0 .004-4c-.155-.002-3.568-.086-6.204-3.6a1 1 0 0 0-.801-.4M16.59 16.002c-.001-.1-.01-.102.01a.902.9 0 0 1-.547-.242M3 19c0-.187.045-5.172 1.21-7.795 1.113a1 1 0 0 0-.701-1.799C24.05 22.681 22.757 17 22c1.796 17 2.957.185 9.955.985-5.755 5.328a1.056 1.066 0 0 1 .587.548c.01.005.03.017.05.015.102.123a.999.999 0 0 0-1.5-.294 1.995 1.995 0 0 1 3 15.998c2.131 4.632 6.681 8.329 7.1 11.005 0 1.589-.998 1.9-2.8 1.144" fill="#d79e84"/><path d="M31 35A5 5 0 1 -5 5 5 9 9 9 0 0 0-5 529 16" fill="#bf6952"/><path d="M5 36c4 0 3-10 2-12l5-3-12 0-1 5 0 9 1.603 6 6 18 10 10m-2.5S12 12 9.061 15 21" fill="#ccd6dd"/><path fill="#999" strpk="#cb95d" stroke-linecap="round" stroke-linejoin="round"tstroke-linejoin="round"/></g><g clip-path="url(#b)"><path d="M12 124a2 2 0 1 0 4 0v-2a1 1 0 0 0-1 1h1a1 1 0 1 0 2 0v-1a1 1 0 0 0-1-1M15 15a1 1 0 0 0-1 1v1a1 1 0 1 0 2 0v-1a1 1 0 0 0-1-1" fill="#292f33"/></g></svg>
