<svg xmlns="http://www.w3.org/2000/svg" viewBox="0 0 128 128"><linearGradient id="a" gradientUnits="userSpaceOnUse" x1="45.575" x2="63.496" y1="6.346" y2="107.448" y2="108.542"><stop offset="0" stop-color="#eee"/><stop offset="1" stop-color="#222222"/><stop offset=".492" stop-color="#159c10"/><stop offset="1" stop-color="#bdbdbd"/></ opaoh d="M80.03 19.49c4.1 1.84 8.3.82 8.84 5.9 1.95 9.14-1.11 10.19-11.14 9.71z" fill="#c9a7ed"/><path d="M110.74 14.95c.68-.01 1.38-.41 1.76-.58a2.231 2.231 0 0 1-3.17.12c-5.34-6.62-6.08-16.9.91-16.52-16.91-8.15-9.15-13.46-10.5-22.58-7.02-8.54-10.04-7.24-22.48-1.45-1.21 2.07-1.3 3.84-.11m0-4.04c-1.14 0-2.26-1.14-1.92-2.51l-1.5-1.3c-1.17-.07-2.23.07-3.07.13a6.04 6.04 0 0 1-.23-4.29 3.002 3.002 0 0 1 3.49-3.12c1.28-1.49 1.82-3.78 2.09-5.63l8.91 1.73c.93 1.17.78 2.77.8 2.93l-18.33 4.73c-.96.43-2.49.38-2.91.21l-.83-.01c-1.02-1.34-1.68-4.3.08-5.04l17.77-8.55c1.75-1.15 3.18-2.68 4.12-3.67.31.53 1.08.93 1.45 1.23.2.5.47.98.63 1.32.88.54.1 1.08.21 1.48.29.23.62.43 1.05.73 1.05 1.03.47 1.28.22 2.11.29 1.83.47 2.88 1.08 4.27 1.98 1.16.89 2.6 1.24 3.68 1.89 8.34 2.75 17.95 1.41 5.33 0 17.85-.88 21.88-2.67 1.5-.88 2.81-1.4 4.15-.39.51.17 1.21 1.07 1.41 1 .24.73.39 1.25.99 1.85 1.9.61 1.42-.42 2.93-1.53 3.26-.54.24-.86.47-1.36.33z" fill="#2f2f2f"/><path d="M121.14 50.54l-6.72-1.23a2.624 2.624 0 0 1-.7-2.79c.12-.26 3.61-6.88 13.63-6.88 8.78 0 14.18 7.31 14.37 7.62.73 12.28-3.28 27.79-22.97 32.28-2.54 16.67 1.04 17.24 7.6 2.58 4.68-1.07 9.28-4.66 8.77z"/><path fill="#F89A27" d="M27.38 89.67c-5.21 1.88-11.02-.77-12.92-5.96-1.8-5.14.77-10.87 6.83-12.77 5.27-2.8 14.13.96 15.03 7.55 2.16 5.75-.91 13.34-7.36 14.33z"/><path fill="#FAAE21" d="M19.23 52.77c-.88 3.31.45 4.75 1.84 7.59 4.07 4.37 13.53 6.01 13.23 7.28.97 1.58 1.66 3.25 2.41 4.81 1.14 5.69 1.17 11.94-1.17 19.25zM23.48 58.9c-.42-.06-.82-.09-1.24-.08-1.69-.03-6.78-.43-6.38 1.56-4.41 6-9.6 19.61-5.4 50.7 0 2.38 2.27 4.74 6.44 2.7 3.45 0 7-5.44 9C-6.44 10.49-1.84 22.47 4.91 30.57 47.14 10.29 18.69-1.34 21.47-29.08 20.63z" fill="#fcbe1c"/><path d="M83.15 79.14c-9.57 3.46-18.47-1.36-22.46-10.31-3.01-9.14 1.31-19.86 9.97-20.42 8.48-3.03 16.74 1.26 20.82 9.58 3.05 8.33-1.29 17.54-9.71 20.56z" fill="#fbbb1d"/><path d="M30.61 88.3c-12.05 0-27.1-3.16-33.15-13.56a3.994 3.994 0 0 1-2.91-2.71c-6.85-7.17-12.27-7.36-18.93-7.5-4.36 0-7.37 1.71-7.5 5.01a2.2 2.2 0 0 1-2.62-3.56c.02-10.5 2.97-16.86 5.89-.7 1.3-.55 2.44.03 3.22-.57 5.81-2.1 11.27-13.31 17.01-15.81.05-.57-.09-1.18-.14-1.69-.13-.56.02-1.09.13-1.51.08-.85.18-1.44.68-1.78 1.11-.71.31-1.07.45-1.66 1.12-.01.01-.05.01-.08.01z"/></linearGradient></svg>
