<svg xmlns="http://www.w3.org/2000/svg" fill-rule="evenodd" clip-rule="evenodd" stroke-linejoin="round" stroke-miterlimit="1.414"><path fill="none" d="M0 .033h32v32H0z"/><path d="M16.174 3.034a13.992 13.992 0 0 0 16.994 4l.168.014.019-.019.015-.029.015-.03.015-.032.016-.031.014-.031.014-.031.013-.032.012-.033.011-.033.001-.034.001-.034.003-.035.004-.034.005-.034.006-.034.008-.034.009-.033.011-.033.011-.033.012-.032.014-.031.015-.032.016-.03.016-.03.018-.03.019-.029.02-.028.021-.028.022-.027.022-.026.024-.025.024-.024.025-.024.026-.022.027-.022.028-.021.028-.02.029-.019.03-.018.03-.016.03-.016.032-.015.031-.014.032-.012.033-.011.033-.011.033-.009.034-.008.034-.007.034-.006.035-.005.035-.003.035-.003.034-.002h.035l.034.001z"/></svg>
