<svg xmlns="http://www.w3.org/2000/svg" width="128" height="128" viewBox="0 0 128 128"><path fill="#FCC21B" d="M64 17.43C1.98 17.43.51 86.95.51 100.71c-.94-10.38 1.63-25.77 14.07-41.51 36.35-35.49 7.29-69.45-.07-.75.9-1.43 1.33-2.25 2.23l-.02.01c-.01 13.34 2.88 9.74 12.82 10.86 1.93 17.78-10.25 25.99-29.58 26.17z" fill="#faae24"/><path d="M73.05 58.54c.12-.48.23-.9.34-1.99-.09-3.42-.23-6.66-1.22-7.65-1.8-1.1-2.74-4.13-2.67-6.61-.85-3.74-.52-6.76-.71-10.33-.43-3.12-.72-6.05-.68-8.3-.28-2.15-1-4.79-1.71-7.72-3.38-2.54-10.11-2.2-18.48 1.75.91 2.14 1.63 4.4.42 6.72-.08 5.61-3.68 9.49-8.3 10.97-1.96 5.81-3.55 13.92-2.98 18.61-.09.26.08.52.15.53.41.04.01.06-.06.17-.1.62-.25.22-.59.18-.84.18h.01c-.08 1.81-.14 3.78.01 5.21 1.98 10.44 7.69 15.2 1.81 4.73 0 7.09-.5 1.52-1.31 3.17-2.54 4.67-6.82 5.86-7.48 1.09-1.18 3.19-3.45 3.88-6.72.41-1.75.63-3.68.07-5.66.75-3.69.34-7.2-.38-10.44-.43-2.83-1.41-5.51-3.29-7.44-1.9-1.82-4.5-3.42-7.51-3.36-1.7-.91-3.18-2.01-5.73-1.4-7.51.55-11.75 2.41-18.76 2.81-1.53.31-3.12-.2-3.99-1.4-.41-1.77 1.57-2.62 3.8-1.88 1.4-1.44 3.6-3.23 3.92-4.54 2.18-5.21 2.88-6.4 8.41-9.18 8.59-3.83 21.06 1.05 16.45 5.58 2.69 4.79-1.07 10.61-5.75 12.79z"/><path fill="#F9A324" d="M27.16 68.01c-3.82 1.47-9.29-.69-10.24-5.72-1.5-4.62.67-9.39 5.31-10.76 4.61-1.53 8.2.66 10.94 5.42 1.64 4.09-.65 8.95-5.11 10.51z"/><path fill="#F9A324" d="M27.58 84.24c-3.34 1.24-6.28-.52-8.56-3.23-1.38-3.44.51-7.4 4.25-8.7 3.9-1.29 7.58.54 8.97 4.64 1.28 3.51-.58 7.99-4.95 10.41z"/><path fill="#F9A324" d="M97.52 84.25c-3.67 1.27-7.49-.53-8.83-4.11-1.28-3.49.54-7.35 4.4-8.2 3.37-1.27 6.18.49 8.79 4.44 1.43 3.85-.6 8.12-4.5 9.52z"/><path fill="#F89E26" d="M97.58 65.8c-1.71 4.68-6.71 6.89-9.81 8.1-2.4 6.49-1.55 14.14-1.05 15.49-3.03 3.63-4.04 3.36-7.48-3.01-12.51-15.32-43.58.83-53.8s6.03-5.09 7.39-7.38c2.55-1.44 5.62-3.69 5.72-6.27.92-1.4 3.6-3.32 3.75-3.54l11.92-3.21-16.58 3.68c-1.11 1.24-1.94 2.82-2.76 2.74-.07.02-5.86 7.67-7.27 10.39-.43.98-1.11 1.81-1.69 2.32-.07 1.25 1.7 1.96 3.71.75 1.68 1.07 2.79 2.7 3 3.62.19 1.21.95 2.84 1.08 3.57.7 4.51 2.51 7.45 3.6 13.87 2.24 8.09 5.49 12.79 10.17 17.88z"/><path fill="#F9A723" d="M21.11 65.59c-3 6.39-12.24 17.61-101 18.32z" fill="#fcc21b"/><path d="M84.07 100.694c-3.89-1.87-6.2-3.74-9.37-4.78-7.53 0-8.27 3.36-7.17 7.76s-1.35 3.39-3.86 4.69H75.7c-.57 0-1.14-.18-1.57-.44-.18 0-2.32 1.43-3.22 2.34-.33 1.41-.73 2.17-1.62 3.26-.32 1.11-.74 2.38-.67 3.35.52.85 1.14 1.28 2.73 1.97 2.12 1.66 4.67 3.84 6.96 2.67 1.38 6.05 2.78 7.18 2.18.23.04.45.05.98-.09.17zM11.32 85.01c-1.78 0-5.03-1.83-5.01-5.07 1.71-1.44 5.09-2.82 4.88-5.61.04-3.67-1.33-5.95-7.22-7.75-11.1 1.24-9.19 9.25-10.29 14.84-15.09 9.93-4.61 37.38 2.24 43.94 1.78 8.68.73 14.45 1.58 17.45 6.15.49 2.18.62 3.48.71 3.48l-7.57 1.95c-1.17.42-1.74 3.28-4.47 4.97-.5.99-1.2 1.38-1.69 1.31a3.2 3.2 0 0 0-.68-2.13l-8.06-8.77c1.74-1.78 2.97-4.06 3.59-7.48-.15-2.62-1.7-5.09-1.73-7.62-.53-2.32-1.51-5.31-1.22-6.64 1.75-2.47 5.11-4.73 8.31-5.54 2.53-.01 5.12.62 7.82.93 1.3.42 2.41-.52 3.26-1.29.38-2.13.36-4.28 0-1.51-1.42-3.1-2.21-3.2-.58-.9-.93-1.31-1.3-1.23-.43-.78-.82-.95-1.47-.51-.41-.26-.82-.61-1.3-.72-.74-.34-1.48-.51-2.38-.33-1.45-.47-2.64-.57-3.97.38-1.67 1.72-2.53 3.72-2.34 4.73-.67 1.09-1.27 2.25-.93 3.2 0 5.61 2.15 9.81 5.31 9.52 5.7 1.53 11.95 4.57 18.48-5.2 5.4-8.3 13.37-14.35 22.1zM44.55 36.07 56.16 3.97 41.48 1.95"/><path fill="#2F2F2F" d="M42.86 67.92c-2.66-1.59-5.31-5.83-2.66-8.67 1.96-5.32 5.68-9.19 12.78-16.12.94-1.59 1.98-3.98 4.17-4.97 2.95-8.07 4.65-17.47 8.34z" fill="#f59525"/><path d="M160.74 83.55c.81-7.78-1.64-11.42-6.55-11.95z"/><path fill="#2F2F2F" d="M49.57 48.43c-.91-1.79-3.28-3.89-5.54-5.15-1.93-.52-4.31-1.89-6.16-2.6-1.05-1.17-2.33-2.5-3.16-4.25-3.66-3.67-11.14-4.99-17.76-3.6-3.09 3.33-6.08 9.5-10.27 6.05-.38.86-.52 1.39-.42 2.25 0 1.66.01 3.7.01 5.62.01 1.09-.09 2.23-.06 3.35-.11.36-.25.81-.44 1.2-.67 3.09-.34 6.51 1.9 1.3.97-.45 1.92-.79 2.01-.3.95-.11 1.43 0 3.67 0 6.59-.14 9.52.53 3.11 1.66.43 1.98-.67 3.4-1.45 4.04-.31.83-.62 2.22-.73 3.25zM15.34 68.53c-.62 1.62-1.37 3.61-2.45 5.21-.75 1.67.74 1.74 3.6.97 5.61-.37 5.68-.49 1.39.9.42 1.99.98 8.15 1.83 13.61 2.94 6.55-.74 14.26-2.88 18.31-5.76 5.72-2.6 16.21-4.99 20.97-2.04 4.54-1.98 10.74-4.59 14.4-10.84 3.31-4.68-.01-8.36-4.72-9.35-4.53-1.09-8.36 1.69-10.84 6.92-16.81 4.34-2.37 12.49.86 15.56 6.43 2.2 6.24-.83 13.38-7.36 14.33z"/><path fill="#F9A922" d="M98.25 67.82c-5.02 1.8-10.55-.84-11.97-5.36-1.63-4.94.68-10.46 5.83-12.34 5.23-1.83 11.11.8 11.98 5.16 1.96 5.53-.82 11.28-6.24 13.22z"/><path fill="#F9A524" d="M29.06 84.22c-3.29 1.32-7.73-.53-8.34-3.9-1.18-3.6.56-6.17 3.96-7.21 3.33-1.38 7.43.53 8.14 3.35 1.02 2.74-.43 5.85-3.24 6.86z"/><path fill="#F89A27" d="M27.97 68.88c-1.82.6-4.26-.28-4.83-2.11-.91-3.31.37-5.55 3.14-7.1 3.33-.83 6.66 1.75 7.56 5.53 1.06 2.88-.48 5.93-2.44 6.52z"/><path fill="#F79728" d="M27.34 79.04c-1.83.67-3.93-.27-4.68-1.68-.49-1.71.26-3.61 1.65-4.55 1.74-.71 3.67.2 4.57 2.14.85 1.68-.28 3.94-1.15 4.52z"/><path fill="#F79728" d="M27.35 71.9c-2.4.86-5.07-.36-5.94-2.73-.87-2.37.36-5 2.77-5.87 2.44-6.32 3.42-7.21 3.31-1.55.11-3.1.19-3.63 1.25-.6 2.31-1.74 3.58-2.71 6.71-.34 1.21-5.45.42-7.28-.83-1.77-2.79-2.5-6.71-3.51-7.95-2.14-1.41-4.02-2.89-5.24-3.9-3.16-1.4-7.51-1.65-10.17-.32-3.5.53-7.02 3.26-10.41 4.46-2.76 6.49-3.44 8.64-2.34.86.08 1.36.79 2.28 1.23 1.4.82 2.75.96 3.83.94 1.07.37 1.95.83 3.21 1.01.62.31 1.32.65 18.53.6 2.77-1.4 3.24-5.44 3.71-7.24.3-1.55.55-3.23.7-4.29-1.57-.64-2.78-.13-4.48 0-1.63 1.2-2.65 3.09-4.27 2.1 1.1 5.04 2.25 5.62 3.39.03.02.16.23.36.03.01.01.03.01.03.01m0.31c0-.11.08-.21.11-.27.11-.15.15-.3.44-.59.26-.63.21-1.2.32-1.56-.14-.49-.27-.96-.46-1.45-.63-.55-.22-1.19-.38-1.71-.84-.48-.57-1.01-1.04-1.51-1.51-.38-.96-1.11-1.41-1.83-1.38-2.51-1.06-12.35-1.32-19.47 0zM19.38 25.92c-.39-.02-.85-.02-1.04-.11-9.04-2.93-18.7-4.7-20.78-.83-1.68.24-4.27 1.4-5.49.86-.49 0-.75-.09-1.38-.13-1.58-.36-3.11-2.11-4.01-3.1-.7-.67-1.43-2.08-3.03-2.67-.74-.42-1.57-.62-3.04-.46-1.16 0-2.31.33-3.21 1.05-.31.47-.68.82-.72 1.01a1.298 1.198 0 0 0 .39-2.33 2.297 2.227 0 0 1-1.45-3.36c-.06-.21-.26-.37-.39-.52l-.58-.55c.42-1.68.52-3.3.93-4.94l9.81-1.39c-1.78-1.45-1.89-4.31-1.54-6.9 2.46-.02 9.26-4.23 7.38-6.03l.02-.01.02-.02.02c.01-.02.03-.02.03-.02.08-.03.07-.02.1-.61.06-.27-.32-.33-.18-.52-.49-.84-.39-1.39.2-1.32.9-4.14 3.4-5.71 5.85-2.31 2.64-5.3 5.71-6.82 8.94-.72 4.19.59 8.86 2.95 8.56 3.92 5.25 5.84 9.5 8.93 10.54 6.35 1.09 14.6-5.5 10.33-15.04-.57-2.53-.7-5.61-1.13-7.47-1.54-1.71-2.54-4.31-3.23-8.65-.14-.7.3-1.57-1.22-1.49-2.28z"/></svg><path fill="#4FCF2F" d="M96.52 91.92c-12.19 0-24.64-11.72-34.41-21.14-.03-.36.31-.8.92-1.38 1.47-2.59 3.19-3.54 5.72-5.82 1.89-2.53 2.84-5.83 3.23-10.52.89-5.62-6.6-17.84-5.62-21.23-.04-1.31 1.28-2.02 2.8-1.8 5.43-.74 10.46 5.52 8.5 3.97 1.49.78 3.12 1.04 4.51 2.78 1.38 5.62-.53 7.83-2.13 8.93-3.18 2.89-6.51 3.95-10.47 3.81zM55.69 48.98s-.86 3.58-2.6 6.42c10.22 12.99 17.44 22.1 43.2 23.53 8.23-28.46 27.79s.84 29.42.58 39.66c-2.85 11.83-21.88 15.71-43.21 19.57z"/><path fill="#FCC21B" d="M85.32 40.69C8.5 76.05 9.57 85.67 7.6 64.12c-1.11-5.52 1.43-18.62 10.96-21.62 8.79-3.26 18.65 1.32 21.74 10.05 3.14 9.66-1.47 19.71-10.6 22.43z" fill="#fab220"/><path d="M78.75 67.13c-6.37 0-15.96-1.17-18.17-2.69-10.26 0-10.66 11.53-21.88 19.73-12.01 22.32-21.9 15-19 16" fill="#fff"/><path d="M62.7 83.22c10.08 0 10.93 5.44 10.25 10.44.18 2.32-1.5 1.74-2.34 2.1-2.96 4.4-7.31 3.32-11.64 3.21-6.88-2.7-16.17-13.4-2.64-10.16 0-19.49 1.3-31.66 1.71-1.21-.47-3.41-.66-3.59-.86a37.834 37.834 0 0 0-6.85 9.74c-1.87 2.34-3.62 5.47-7.4 5.43l-1.51 19.51c-2.11-1.65-4.3-2.8-5.28-5.3-4.09-3.66-9.9-11.55-5.32-18.55 3.79-6.05 1.77-13.41 5.15-26.29l5.12-3.15a2.3 8.22 0 0 0 3.05-2.57h10a2.93 2.93 0 0 1-3.55 1.31c-.58 1.19-1.52 2.24-1.76 3.29-5.64 3.42-11.31 9.84-16.06 9.42-5.76.01-7.35-1.22-11.25-9.94L9.5 24.12z" fill="#fff"/></defs></dafz></svg>
