<svg xmlns="http://www.w3.org/2000/svg" width="128" height="128" viewBox="0 0 128 128"><path fill="#FFF" d="M50.61 20.89c-.39 3.45-2.01 6.25-1.9 10.38-2.05 4.24-5 5.29-1.8 10.47-3.45 4.12-5.08 6.14-9.09 6.14-3.25.68-6.82.4-9.88-1.15-1.75-.3-3.44.01-5.04.82-1.58 5.48-3.71 7.14-5.2 13.81 4.71 8.19 3.67 13.31 7.88 10.13 12.89-1.06 2.88-3.36 2.9-5.54 3.7z"/></svg><clipPath id="c"><use xlink:href="#b" overflow="visible"/></clipPath><path d="M63.69 109.61c-37.19 1.68-38.35-.92-30.82-4.49a3.035 3.035 0 0 1-.76-4.19c-.99 0-2.73.3-3.27.33s-3.51-.04-3c.52-.28s-4.09-.96c-.97-.19c-.79-.15-1.55-.7-1.68-1.38-1.7-6.44.68-11.71 6.74-16.61 1.42-4.72 1.39-14.42-1.29-17.41-3.37-2.54 7.44-.84 12.5-.9 18.45" fill="none" stroke="#2f2f2f" stroke-width="6" stroke-linecap="round" stroke-linejoin="round" stroke-miterlimit="10"/></svg></svg>
