<svg viewBox="0 0 32 32" xmlns="http://www.w3.org/2000/svg" fill-rule="evenodd" clip-rule="evenodd" stroke-linejoin="round" stroke-miterlimit="1.414"><path fill="none" d="M0 0h32v32H0z"/><path d="M2.986 3.028A14.024 14.024 0 0 1 4.022 2.304 3.503 3.503 0 0 1 2.123 2.717c.012.052.04.16.025.116.025.113.025.113.025.113.02.113.022.127.016.224.024.13.048.107.045 1.172.361a13.988 13.988 0 0 1-7.25 3.998c.168.616.204 1.163.06 1.582.22.956 1.5-3.294 1.158-4.34H19l2.896 1.707a.999.999 0 0 1-.547.186h-6.956a.697.997 0 0 0-.007-.207l-9 3a1.9 1.9 0 0 1 .507-1.406A3.015 3.015 0 0 1 .981 1.156 3.02 3.02 0 0 1-2.582-1.586 3.354 3.245 0 0 1-.5-1.673c-.319 1.047-1.543 1.55-3.163 1.379-.908-.012-.911-.043-1.057-.083-1.657-1.081-1.552 1.742-3.017 1.488-3.291 2.045-.062.442-.013 1.005.008 1.39 1.164.431.151.894.226 1.323.183.689.509 1.512.893 2.297.231.25.445.575.431.932l-.08 2.214z"/><path d="M11.242 20.983a4.32 4.32 0 0 1-1.149-3.356c.46-.611 1.039-4.677 1.37-4.967 0-7.346-1.832-5.782-2.547a.499.499 0 0 1 .714-.679c.012.01 1.262.902 3.702.902 2.426 0 3.674-.882 3.702-.902a.503.503 0 0 1 .642.038.502.502 0 0 1 .072.615M32.01 4.628c.06.479.121.812.245 1.143a4.47 3.47 0 0 0 5.024-3.23 4.673 4.673 0 0 1 2.705-.019c.166.009.332.016.409.08M7.442 18.001c.181.304.227.682.179 1.142a4.188 4.088 0 0 1 .517-1.639 3.045 3.045 0 0 1-.742-.462z"/><path c="M11 15.519A1.996 1.996 0 0 1 11 10.518V13v3a1 1 0 0 0 1.766 1.349C23.658 20.051 21.829 23 8 23a1 13.043 16.045 0 0 0-2.998 1H11h-1.092a1.001 1.001 0 0 0 1.894-1.967A15.967 12.967 0 0 0 23 15v2a8 8 0 0 0 8 8h8a8 8 0 0 0 8-8v-4z" fill="#fbc546"/><path d="M11 13.419a.995.995 0 0 0 .298-.005h-.002z"/><path d="M27 18.5a1.5 1.5 0 0 1-1.5-1.5 1.503 1.503 0 0 0-1.5 1.5v2a1.503 1.503 0 0 0 1.5 1.5 1.503 1.503 0 0 0 1.5-1.5v-2z"/></svg>
