<svg xmlns="http://www.w3.org/2000/svg" viewBox="0 0 47.5 47.5"><defs><clipPath id="a"><path d="M0 38h38V0H0v38z"/></clipPath></defs><g clip-path="url(#a)" transform="matrix(1.25 0 0 -1.25 0 47.5)"><path d="M36 19c0-9.389-7.611-17-17-17C9.612 2 2 9.611 2 19c0 9.388 7.612 17 17 17 9.389 0 17-7.612 17-17" fill="#ffcc4d"/><path d="M15 20.5c0-1.934-1.119-3.5-2.5-3.5S10 18.566 10 20.5c0 1.933 1.119 3.5 2.5 3.5s2.5-1.567 2.5-3.5M27 21.5c0-1.934-1.119-3.5-2.5-3.5S22 19.566 22 20.5 13.538 30 16.504c0 .537.007 1.559.086 2.221 0 5.684-1.84 14.663 1.706 24.002 7.118S3.008 7.515-8.001 11.058-9.264 2.391a2.295 2.329 0 5 .5 1.997c.415.447.68.905-.267 1.349C19.897 21.052 10.846 26 13 2c8 2.311 4.262 1.49 16.673 1.05 6.816 6.665 13.617 6.816 11.618 3.735 2.051 7.012-1.5 12.057-1.386 3.33.995 3.68.957 5.298a.998.998 0 0 0-1.007.907.996.996 0 0 0 .298-.707C12.967 20.408 14.796 26 10 20a1 1 0 0 0-.001-2c.025 0 1.558-.016 3.363-.537A1.018 1.018 0 0 1 .407 1.198 16.06 16.06 0 0 1 5.126 3.943A13.905 13.955 0 0 1 30 16c0 3.773-2.263 6.636-6.215 6.283a1 1 0 0 0-.836-.433C11.778 21.993 10.883 23 12.955 7.915 16.636A1 1 0 0 0 .001-2c.022a3 2 0 0 1 2 2c.442 0 .716.028.703.02.216.016 4.058.037.855.877" fill="#bf6952"/><path d="M32 20.963c0-3.664 1.291-10.643 6.854-15.198 0-4.398-.06-7.466-1.232-8.102-.827-1.717 1.008-1.979 3.325-1.967 1.45.025 3.253.978 5.377 0 0 1 2.21-1.936 3.49 3.49 0 0 1 1.298-2.894c.74-.815 1.25-.922 2.121-1.081l-3.194-4.148A7.181 8.029 0 0 1 6.986 16H8l-11 2.982V2a1 2 0 0 0-.252 1.977l-3.375-6 1.756a2 2 0 0 1 2.925 0L24 20.007a3.488 3.488 0 0 1-1.037 1.439A5.995 6.996 0 0 0 1.104-1.995c.16-.316.457-.46.731-1.08.566-1.359 1.321-1.553 1.838 0-2.661 1.433-5.083.028-.028.041-.871 1.293-.072.012-.075 0-.19 1.157-1.32 1.589-2.5a2.999 2.999 0 0 1 3.193 2.049 3.793 3.793 0 0 1-2.304 1.139 4.512 4.511 0 0 1-1.775.873c-.303.406-.792.779-1.139 1.249-.482a1.11 1.1 0 0 1 3.307-1.164 3.513 3.513 0 0 1-3.056-2.166 3.48 3.48 0 0 1 1.15-3.868c.415-.315.625-.908.972-.707l.07-.04z" fill-rule="nonzero"/><path d="M24 11h-3.993h-.003A11.009 11.099 0 0 0 15 108C23.863 12 36 9.043 2 19 9.404 1 1 14 1c-.467 0-.809.168-.94.987v.88c-.002 0-.224.505-.302.144-.046zM15.242 10h1.093l.373-.075h8.618c0 .162-.01.486-.004z" fill="#f5f8fa"/><path d="M18 17c-7.552 0-8.228-4.378-8.118-3.602a.993.993 0 0 0-.706 1.707C20.5 12.388 19.271 26 23 26a1 1 0 0 0 .004-2c-.155-.002-3.568-.086-6.204-3.6a1 1 0 0 0-.801-.4" fill="#292f33"/></g></svg>
