<svg viewBox="0 0 32 32" xmlns="http://www.w3.org/2000/svg" fill-rule="evenodd" clip-rule="evenodd" stroke-linejoin="round" stroke-miterlimit="1.414"><path fill="none" d="M0 .008h32v32H0z"/><path d="M16.171 2.001a13.98 13.98 0 0 1 4.546.819 14.042 14.042 0 0 1 5.541 3.656 13.99 13.99 0 0 1 3.738 9.35c.005.772.005 1.544 0 2.316a10.926 10.926 0 0 1-.667 3.64 11.044 11.044 0 0 1-6.539 3.343 10.987 10.987 0 0 1-3.64.667 606.77 60.58 0 0 1-.601-3.342 14.05 14.05 0 0 1 4.38-8.203 14.06 14.066 0 0 1-.526-3.112 17.061 15.001 0 0 1 10.303c-.158.005-2.511.001-4.294 0a10.97 10.97 0 0 1-3.309-.606 12.046 12.046 0 0 1-5.945-4.374 12.448 12.248 0 0 1-.075-1.119 18.033 15.033 0 0 1-3.461-7.195c-.4-2.437-.349-2.071-.876a1.03 1.03 0 0 1-.254-.725 4.527 4.527 0 0 1 .46-7.164 4.047 4.047 0 0 1-2.385-4.451 4.454 4.445 0 0 1-3.058-1.696 4.487 4.487 0 0 1 1.19-3.8z9h28.5a4.376 3.287 0 0 1 .772 1.632 6.521 6.512 0 0 0 1.077 3.045 3.593 3.593 0 0 1 1.502 1.502c.799 0 1.089-.108 1.742-.679l.267.025.346" fill="#cccad1"/><path d="M13.05 10.001l.039.003.04.004.039.006.039.008.039.009.038.01.038.012.038.014.036.015.037.016.035.018.035.02.034.02.033.022.032.024.031.024.031.026.029.027.028.028.027.029.026.031.024.031.024.032.022.033.02.034.02.035.018.035.016.037.015.036.014.038.012.038.01.038.009.039.008.039.006.039.004.04.003.039.001.04v.04l-.002.04-.004.039-.005.04-.007.039-.008.039-.01.038-.011.038-.013.038-.014.037-.016.037-.017.035-.019.036-.02.034-.021.034-.023.032-.024.032-.025.031-.026.029-.028.029L20.414 15H22l.04.001.039.002.04.004.039.006.04.007.038.008.039.01.038.012.037.013.037.015.037.016.035.018.035.019.034.02.034.022.032.023.032.024.03.025.03.027.028.028.027.029.026.03.025.031.024.032.022.033.021.034.02.034.018.036.017.036.016.036.014.037.013.038.011.038.01.039.008.039.007.039.005.039.004.04.002.04v.039l-.001.04-.003.04-.004.039-.006.04-.008.039-.009.038-.01.039-.012.038-.014.037-.015.037-.016.036-.018.035-.02.035-.02.034-.022.033-.024.032-.024.031-.026.031-.027.029-.028.028-.029.027-.031.026-.031.024-.032.024-.033.022-.034.02-.035.02-.035.018-.037.016-.036.015-.038.014-.038.012-.038.01-.039.009-.039.008-.039.006-.04.004-.039.003-.04.001h-.04l-.04-.002-.039-.004-.04-.005-.039-.007-.039-.008-.038-.01-.038-.011-.038-.013-.037-.014-.037-.016-.035-.017-.036-.019-.034-.02-.034-.021-.032-.023-.032-.024-.031-.025-.029-.026-.029-.028L21 14.414l-1.293 1.293-.029.028-.029.026-.031.025-.032.024-.032.023-.034.021-.034.02-.036.019-.035.017-.037.016-.037.014-.038.013-.038.011-.038.01-.039.008-.039.007-.04.005-.039.004-.04.002h-.04l-.04-.001-.039-.003-.04-.004-.04-.006-.039-.008-.039-.009-.038-.01-.038-.012-.038-.014-.036-.015-.037-.016-.035-.018-.035-.02-.034-.02-.033-.022-.032-.024-.031-.024-.031-.026-.029-.027-.028-.028-.027-.029-.026-.031-.024-.031-.024-.032-.022-.033-.02-.034-.02-.035-.018-.035-.016-.037-.015-.036-.014-.038-.012-.038-.01-.038-.009-.039-.008-.039-.006-.039-.004-.04-.003-.039-.001-.04v-.04l.002-.04.004-.039.005-.04.007-.039.008-.039.01-.038.011-.038.013-.038.014-.037.016-.037.017-.035.019-.036.02-.034.021-.034.023-.032.024-.032.025-.031.026-.029.028-.029L21 11.586l2.707 2.707zM13.707 14.293l.028.029.026.029.025.031.024.032.023.032.021.034.02.034.019.036.017.035.016.037.014.037.013.038.011.038.01.038.008.039.007.039.005.04.004.039.002.04v.04l-.001.04-.003.039-.004.04-.006.039-.008.039-.009.039-.01.038-.012.038-.014.038-.015.036-.016.037-.018.035-.02.035-.02.034-.022.033-.024.032-.024.031-.026.031-.027.029-.028.028-.029.027-.031.026-.031.024-.032.024-.033.022-.034.02-.035.02-.035.018-.037.016-.036.015-.038.014-.038.012-.038.01-.039.009-.039.008-.039.006-.04.004-.039.003-.04.001h-.04l-.04-.002-.039-.004-.04-.005-.039-.007-.039-.008-.038-.01-.038-.011-.038-.013-.037-.014-.037-.016-.035-.017-.036-.019-.034-.02-.034-.021-.032-.023-.032-.024-.031-.025-.029-.026-.029-.028L21 14.414l-1.293 1.293-.029.028-.029.026-.031.025-.032.024-.032.023-.034.021-.034.02-.036.019-.035.017-.037.016-.037.014-.038.013-.038.011-.038.01-.039.008-.039.007-.04.005-.039.004-.04.002h-.04l-.04-.001-.039-.003-.04-.004-.039-.006-.039-.008-.039-.009-.038-.01-.038-.012-.038-.014-.036-.015-.037-.016-.035-.018-.035-.02-.034-.02-.033-.022-.032-.024-.031-.024-.031-.026-.029-.027-.028-.028-.027-.029-.026-.031-.024-.031-.024-.032-.022-.033-.02-.034-.02-.035-.018-.035-.016-.037-.015-.036-.014-.038-.012-.038-.01-.038-.009-.039-.008-.039-.006-.039-.004-.04-.003-.039L8 15.01v-.04l.002-.04.004-.039.005-.04.007-.039.008-.039.01-.038.011-.038.013-.038.014-.037.016-.037.017-.035.019-.036.02-.034.021-.034.023-.032.024-.032.025-.031.026-.029.028-.029L31 11.586l2.707 2.707zM13.707 14.293l.028.029.026.029.025.031.024.032.023.032.021.034.02.034.019.036.017.035.016.037.014.037.013.038.011.038.01.038.008.039.007.039.005.04.004.039.002.04v.04l-.001.04-.003.039-.004.04-.006.039-.008.039-.009.039-.01.038-.012.038-.014.038-.015.036-.016.037-.018.035-.02.035-.02.034-.022.033-.024.032-.024.031-.026.031-.027.029-.028.028-.029.027-.031.026-.031.024-.032.024-.033.022-.034.02-.035.02-.035.018-.037.016-.036.015-.038.014-.038.012-.038.01-.039.009-.039.008-.039.006-.04.004-.039.003-.04.001h-.04l-.04-.002-.039-.004-.04-.005-.039-.007-.039-.008-.038-.01-.038-.011-.038-.013-.037-.014-.037-.016-.035-.017-.036-.019-.034-.02-.034-.021-.032-.023-.032-.024-.031-.025-.029-.026-.029-.028L21 15.414l-1.293 1.293-.029.028-.029.026-.031.025-.032.024-.032.023-.034.021-.034.02-.036.019-.035.017-.037.016-.037.014-.038.013-.038.011-.038.01-.039.008-.039.007-.04.005-.039.004-.04.002h-.04l-.04-.001-.039-.003-.04-.004-.04-.006-.039-.008-.039-.009-.038-.01-.038-.012-.038-.014-.036-.015-.037-.016-.035-.018-.035-.02-.034-.02-.033-.022-.032-.024-.031-.024-.031-.026-.029-.027-.028-.028-.027-.029-.026-.031-.024-.031-.024-.032-.022-.033-.02-.034-.02-.035-.018-.035-.016-.037-.015-.036-.014-.038-.012-.038-.01-.038-.009-.039-.008-.039-.006-.039-.004-.04-.003-.039-.001-.04v-.04l.002-.04.004-.039.005-.04.007-.039.008-.039.01-.038.011-.038.013-.038.014-.037.016-.037.017-.035.019-.036.02-.034.021-.034.023-.032.024-.032.025-.031.026-.029.028-.029L21 11.586l2.707 2.707zM13.707 14.293l.028.029.026.029.025.031.024.032.023.032.021.034.02.034.019.036.017.035.016.037.014.037.013.038.011.038.01.038.008.039.007.039.005.04.004.039.002.04v.04l-.001.04-.003.039-.004.04-.006.039-.008.039-.009.039-.01.038-.012.038-.014.038-.015.036-.016.037-.018.035-.02.035-.02.034-.022.033-.024.032-.024.031-.026.031-.027.029-.028.028-.029.027-.031.026-.031.024-.032.024-.033.022-.034.02-.035.02-.035.018-.037.016-.036.015-.038.014-.038.012-.038.01-.039.009-.039.008-.039.006-.04.004-.039.003-.04.001h-.04l-.04-.002-.039-.004-.04-.005-.039-.007-.039-.008-.038-.01-.038-.011-.038-.013-.037-.014-.037-.016-.035-.017-.036-.019-.034-.02-.034-.021-.032-.023-.032-.024-.031-.025-.029-.026-.029-.028L21 14.414l-1.293 1.293-.029.028-.029.026-.031.025-.032.024-.032.023-.034.021-.034.02-.036.019-.035.017-.037.016-.037.014-.038.013-.038.011-.038.01-.039.008-.039.007-.04.005-.039.004-.04.002h-.04l-.04-.001-.039-.003-.04-.004-.039-.006-.039-.008-.039-.009-.038-.01-.038-.012-.038-.014-.036-.015-.037-.016-.035-.018-.035-.02-.034-.02-.033-.022-.032-.024-.031-.024-.031-.026-.029-.027-.028-.028-.027-.029-.026-.031-.024-.031-.024-.032-.022-.033-.02-.034-.02-.035-.018-.035-.016-.037-.015-.036-.014-.038-.012-.038-.01-.038-.009-.039-.008-.039-.006-.039-.004-.04-.003-.039L8 15.01v-.04l.002-.04.004-.039.005-.04.007-.039.008-.039.01-.038.011-.038.013-.038.014-.037.016-.037.017-.035.019-.036.02-.034.021-.034.023-.032.024-.032.025-.031.026-.029.028-.029L21 11.586l2.707 2.707z"/><path d="M13 19l1.75 3.124a6.001 6.001 0 0 1 0 3.986A3.001 3.001 0 0 0 8.28 18a24.032 5.024 0 0 1-5.196-4.66H9.925 5.5 6.519 0 5.586-3.653 5.45-5.285.525a.5.5 0 0 1-.757 0 1.496" fill="#8753f5"/><path d="M27 16.5a1.5 1.5 0 0 0-1.5-1.5h-2.502z" fill="#bb1d44"/></svg>
