<svg xmlns="http://www.w3.org/2000/svg" viewBox="0 0 128 128"><path d="M63.79 8.64C1.48 8.64 0 78.5 0 92.33c0 13.83 28.56 25.03 63.79 25.03 35.24 0 63.79-11.21 63.79-25.03 0-13.83-1.47-83.69-63.79-83.69z" fill="#fcc21b"/><path d="M64 103.36c-11.77 0-22.5-5.46-29.42-14.99-.97-1.34-.68-3.02.62-4.58l9.17-11.34c.83.45 2.04.43 3.18.54 1.23.44 1.62 1.69.72 3.12zm-28.75-56.53 3.09-3.3 1.05-7.19 11.32-10.12 9.61-3.08 3.22-4.95 8.71-4.33 12.87-.23-.55-.4-1.02-.85-1.43-1.42-2.22-2.88-3.8-3.88-7.49-.24-.64 0-1.58.43-1.96.87-.14 5.6-1.28 13.48-.55 4.17 0 6.59 4.75 7.35 10.59 0 5.04-4.15 9.44-7.5 9.24a2.07.23 0 0 1-.12-.75c.28-.12 5.4-7.53 13.23-5.85h.05c7.94-7.6-16.16-13.54-22.3-14.94-10.27 1.71-23.12 2.54-37.35-1.73-5.72-5.04-12.24-13.57-8.31-20.35 5.09-5.51 12.38-8.46 21.43-2.74 18.57-13.42 23.14-30.07 32.62-5.82a3.84 3.84 0 0 1 3.51.87c19.89 3.04 37.04-.66 7.39-.68 11.51 2.51 15.96 1.97 2.74 1.34 5.58 2.73 8.8 5.33.68.75 1.62 1.15 2.73 2.11 6.82 4.39 13.59 7.47 20.1z"/><path fill="#2F2F2F" d="M40.31 78.24c-4.43 0-6.79-3.43-8.47-7.04.62-4.08 4.74-4.46 7.09-4.55 4.06 0 7.03 4.73 7.04 5.5 0 .93-1.58 4.61-2.65 4.89z" fill="#e79e8a"/><path d="M31.8 18.06c.77 1.13 1.7 2.61 1.86 3.5 6.06 4.52 13.57-7.56 20.3-6.33 6.26 5.04 7.42 13.69 8.53 20.14 0 .58-.06 1.81-.43 1.99-.15.1-.15.21-.35.37-.83.82-1.62 1.45-2.44 1.48-.1.08-.09.07-.078.17.08 8 3.2 1.32 11.91 4.74 17.81 15.48 0 .52-.09.66-.39.92-1.11 1.24-3.15 2.35-4.62 3.38-1.83 1.92-3.78 2.11-5.71 3.72-1.83.14-4.86-.09-5.6-.83-2.71-.75-5.65-2.18-7.01-3.21a3.547 3.557 0 0 1 .34-4.28c.84-1.01 1.6-1.6 1.94-2.68 1.95-.91 3.89-2.24 3-3.42-.35-3.26-2.93-2.04-8.41-.15-9.62-.01-2.03-.09-2.08-.32-2.04-3.11-3.06-7.68-.28-12.08.46-3.53.38-6.88-1.25-10.03-.8-3.73-.62-5.78 1.06-7.07 2.67-3.49.67-7.28-.74-8.35-2.58-.95-3.64.19-5.55 1.16-7.17 1.75-.67 5.57.17 6.04 1.77.95 2.62-.31 5.58-2.1 5.94z"/><path fill="#F79728" d="M27.84 79.61c-2.07.74-4.36-.31-5.11-2.35s.31-4.3 2.38-5.05c2.07-.74 4.35.31 5.11 2.35.75 2.14-.31 4.39-2.46 4.54z"/><path fill="#F79329" d="M26.31 78.92c-1.25 4.52-4.08 8.48-4.3 9.41.01 1.78-.53 2.01-2.02 1.66-.36-.14-1.97-13-3.64-1.31zM84.01 87.92c-1.2 1.57-2.68 3.89-2.81 5.71-.7 5.6.22 5.51 7.25 2.92 7.21-.07 1.19-1 1.3-2.31 1.71-.25.09-.42.13-.69.31z"/></svg></svg>
