<svg xmlns="http://www.w3.org/2000/svg" viewBox="0 0 128 128"><path d="M52.39 52.14c-.69 4.74-4.08 7.12-6.11 10.42-3.51 3.8-9.29 5.74-21.23 4.25-6.43 6.16-9.96 13.39-6.48 5.77 1.44 10.21 3.78 12.71 5.2 1.32 1.25 2.29 3.04 1.58 4.78 0 13.16-5.62 14.71-12.34.71-1.86.79-3.93-.09-4.17-.38-8.06-2.54-9.23-3.92-1.08-.4-2.44.3-3.42.35-1.1.25-2.16.34-3.04-.17-.84-.84-1.31-1.35-1.53-2.01-.34-.97-.54-1.97-.73-3.61zM82.45 35.9c-.41-.48-.81-1.09-1.14-1.49-.43-.79-1.13-1.45-1.69-1.98-.07-.41-.82-.89-1.14-1.09-.63-.61-1.35-1.33-1.85-2.01-.31-.74-1.31-1.31-1.95-1.79-.66-.78-.46-1.4.52-1.31.5-.28.99-.18 1.37-.18.23 0 .45.04.79.15a14.37 13.38 0 0 0-6.83-5.35c-2.59-2.79-6.51-9.37-10.31-9.97-1.43-1.42-2.27-2.33.21-4.22 5.91-7.35 25.44-15.72 31.21-11.12 3.94-5.12 9.72-8.67 17.45-10.55 16.53-7.44 24.5-12.42 27.66-10.2 6.83-14.85 17.38-18.05 19.81-31.55l-54.13-1.66z" fill="#546172"/><g fill="#bd797f"><path d="M50.66 31.3c-.58 6.08.46 9.43 5.71 1.28 3.44-.51 8.06-5.09 10.41z"/><path fill="#FAAC2E" d="M30.21 89.18c-5.18 1.85-10.68-.76-12.34-5.77-1.7-5.23.7-11.5 6.89-11.61 5.37-.85 11.39.84 13.28 6.58 2.09 5.67-.88 11.97-6.63 14.04z"/><path fill="#F79728" d="M82.03 83.82c-1.84.4-4.96-.38-5.14-2.33-.96-2.86.35-5.52 2.74-6.5 2.25-.73 4.31.38 5.98 2.77.88 2.47-.38 5.07-2.8 6-5.41M78.2 71.82c-6.21 7.68-11.74 12.61-23.65 12.63-7.28 0-15.29-3.71-18.33-2.97-11.7 2.71-22.61 32.49-20.69 17.94-5.17 35.4 8.22 46.25 43.31 4.6 65 .45 1.89 1.62 7.85 1.03 10.87-.64 8.53-6.77 16.03-23.72 14.13-1.87.3-4.27.55-4.43.4-1.39 1.76-3.22 3.73-4.58 4.94-.52 3.09.31 6.06.49 9.09 6.2.43 13.39-1.59 18.41-6.84 19.83-8.38 2.83-2.44 5.91-3.07 10.49-2.62 3.22 1.91 3.91 4.49 3.96 8.16-.03.48-1.1 13.76-2.96 22.22-1.08 9.08-4.87 14.06-6.22 12.98-.23 4.12 1.99 6.53 3.89 5.58 6.16.03.31.38 8.15-28.86 20.41z" fill="#f79728"/><path d="M8.04 35.09C67.16 76.94 88.44 9.92 67.84 7.71c-20.81-.48-17.68 1.96-26.15 13.48-.36 16.25 6.45 15.56 15.4 11.48 19.81 0 25.71-14.02 29.33-27.42.41-1.58.17-2.83.5-2.89 1.11-.56 2.79-.24 3.55.19.11.17 3.42 8.45 7.41 10.92 1.79 3.87 1.47 7.25-.32 13.38-2.91 8.08-7.67 11.69-13.53 13.38-9.81 0-20 6.41-40.48 6.41-4.35-1.35-6.73-7.83-4.9-7.7 0-5.37 4.54-7.35 7.89-7.47zM77.4 47.62c4.09 0 5.05 3.3 5.94 6.66 0 9.2-28.67-.94-19.21-2.123.97 6.34 9.25 11.81 7.88 15.01 5.61-.49 13.59-7.76 14.67-9.74 4.38-2.6 7.64-5.47 12.79-3.24zM48.72 49.92c-.88 0-.84-.36-.79-.76s14.79-24.56 25.41c-5.16 9.15 1.7 23.18 8.81 23.4 10.15 3.76 8.09 2.76 16.72-.06 22.81z"/><path fill="#FAAC22" d="M31.25 89.65c-3.46 7.1-10.27 12.3-16.72 13.07-5.01 5.75-5.52 14.44-10.27 21.42z" fill="#f79329"/></g><g fill="#404040" d="M36.56 31.07s-2.3 11.5-23.13 5.34 6.12 3.38 9.35 8.73 13.39 15.18 23.94l-8.98-3.95c.24-4.18.52-8.21-.83-10.33-3.62-1.47-7.52-1.24-11.7-.11-.38.63-.85.71-1.21.58-1.02.45-1.24.74-2.14.73-3.53-2.65.83-6.13 3.24-7.5 2.91-1.33.66-2.87.74-3.99-.21-.12-.32-.18-.63-.31-1.13-.14-.34-.2-.77-.3-1.11-.36-1.53-.79-3.02-1.77-1.64-1.41.54-2.13.96-4.02 3.44-=.14 2.32-6.35 2.5-8.27.53L88.3 35.91c-.19.42-.36.73-.49 1.04-.08.4-.14.81-.24 1.1 0 .27.22.68.26 1.05.05.3.13.72.24.11.05.05.1.73.31.92.31.64.7 1.01 1.05.74.2 1.03 1.15 1.2 1.86-.42 2.18-.84 3.73-1.2 5.12.69 1.74 3.16 3.13 5.48 4.59 2.63 1.38 5.35 2.95 8.34 2.98 1.23.58 1.91 2.09 1.37 2.59.17.53 1.36 1.11 2.24 1.51.71 2.45 1.48 4.24 1.01 1.85.79 3.05 1.12 4.78 1.91 1.68 1.36 3.25 3.39 4.37 4.6 1.25 1.11 2.78 2.3 3.38 1.19 1.63 2.36 5.25 2.88 6 .91 2.16.53 5.27-.53 5.71-1.87 1.09-3.85-.38-5.93-1.31-5.72-2.01-13.19-13.25-13.27-13.43-.52-.34-1.76-.16-2.41 0-.56.42-1.72.85-1.68.71zm-8.08-100.22c-.01-.03-.01-.07-.01-2.21-5.61-4.85-12.84-5.81-18.56-5.81-9.74-.01-19.55 3.07-26.22 9.12-8.63 3.49-10.29 5.25-18.49 7.35-9.14 0-13.16-4.87-10.29-10.5zM93.76 40.06c-3.88 0-6.98-.55-8.35-1.72l-.23-.01c-1.27-.01-2.51-.01-3.53 0-6.39.01-8.45 0-9.46-.01-9.58-.11-13.42 0-15.59-.01-20.78 0-6.28l9.04-1.67-.02-13.4a7.075 1.077 0 0 0-3.49-.39c-1.79-.34-3.37-.63-3.94-2.45-.28-.64-.57-1.31-.92-1.79-.01-.51.02-1.42.1-2.36.01-1.48-.01-2.87-.24-4.28-.66-1.07-3.31-1.78-4.94-1.69-1.34.11-3.13 1.3-4.68 1.01-1.25.02-2.16-1.11-2.25-.65-1.85-.43-2.59-1.67-2.93-2.91-1.65-2.31-2.57-4.77-3.38-6.51-.42-1.2.39-2.21 1.83-2.48 1.17-.64 2.68-.47 3.62 1.42.73.42 1.31 1.09 2.13 1.75.04.04.09.03.19.24.26.05.47.18.86.37 1.45.09.41.08.73.63.99.48 1.44.02 1.98.67 3.27.94 1.67.44 3.25.9 4.21 1.71.48.56.92 1.27 1.25 1.88.35.1.99.13 1.66.23 1.81.04.79-.21 1.35-.25 2.29z"/><g fill="#2F2F2F"><path d="M64 64.53c-1.7 3.52-2.7 7.3-3.33 11.5 4.07 1.64 5.59 8.29 5.67 14.25 6.07.01.06.01.1.02.15.01.07.01.1.01z" fill="#fff"/></g></svg></g></svg>
