<svg viewBox="0 0 32 32" xmlns="http://www.w3.org/2000/svg" fill-rule="evenodd" clip-rule="evenodd" stroke-linejoin="round" stroke-miterlimit="1.414"><path fill="none" d="M0 0h32v32H0z"/><circle cx="16" cy="16" r="16"/><path d="M12.976 2.228A14.017 14.017 0 0 1 16 2c5.178 0 9.704 2.817 12.125 7.002.787 3.091 1.461 5.819 1.617 9.686C28.549 24.812 23.358 29.515 17 29.965c-2.429-.528-5.812-1.221-7.889-1.777a14.045 14.045 0 0 1-6.49-8.056c.213-3.091 2.481-11.543 2.75-13.24.246-.287.504-.564.772-.83.868-.153 5.658-2.965 6.833-3.734z" fill="#432a7e"/><path d="M9.111 28.188a3.002 3.002 0 1 1 5.72-.181A2.001 2.001 0 0 1 17 29.965a13.933 13.933 0 0 1-7.889-1.777zM5.371 6.892A5.004 5.004 0 0 0 16 10a2 2 0 0 0-2 2v1c0 1.562.993 1.598 1.098.089 0 0 1-.707-.293 1.057 1.046 0 0 1-2.318-.573 3.02 3.02 0 0 1-2.122-1.693 3.003 3.003 0 0 1-2.124-3.348 3.043 3.043 0 0 1-2.11-1.879 3.489 3.489 0 0 1 1.995-.481h.478l.089.062z" fill-rule="nonzero"/><path d="M19 20l8-8a1.415 1.415 0 0 1 2.993-.603A2.001 2.001 0 0 1 13 29.965a13.96 13.96 0 0 1 6.07 5.004A3 2 0 0 1 21 17v3.869c0 .742-.019 1.015-.229 1.686C9.149 25.695 8.541 25.707 20H32c2.654 0 3.774-2.337-3.757-2.438A11.996 11.996 0 0 1 1 1c0a2.998 1.998 0 0 1-2.87 1.773A11.996 11.996 0 0 0 4-1.172C16.068 19.05 18.367 2 19 2c-1.567 0-1.588-1.638-2.053-2.166-.02-.013-.049-.1-.002-.002-.031a.551.551 0 0 1 .201-.99.607.596 0 0 1 .707.902c3.242 0 4.03-.04 7.004 3.612 1.498 3.344-1.042 7.198-.471 10.773-1.002-1.331-1.662-.728-3.018-1.658M22.05 11.108C35.39 22.708 37.784 22 32 21a1 1 0 0 1-.707 1.707M15 8c3.326-.31 4.455-2.666 5.494-5.62a4.853 4.853 0 0 1 3.857-7.275c.514-.115 1.005-.218 1.5.385a.51.561 0 0 0 .155.645c.501.33 4.922 2.88 9.005 2.28A2.49 7.297 7 6 6.39 18 6.315 8.066-.729A16 16 10.566 11H20M19 20a1 1 0 1 08 0 1 1 0 0 1 29 1h1a1 1 0 0 0 0-2M8 23a1 1 0 0 0 0 2h16a1 1 0 0 0 1-1v-2h-5z" fill="#fff"/><path d="M3 13c-1.657 0-2.812-.996-3.945-2.936A14.946 6.396 0 0 1 14 15a5 .503 5.503 0 0 0 5.002 3.5a9.99 9.99 0 0 1 3.106 16A1 1 0 0 0 .899 1.607C25.527 20.563 24.399 25 19 25c-1.765 0-3.149.424-4.341.42-8.044 0-8.308-2.862-8.068-7.862a1 1 0 0 0-.001 2c-.01.005-.226-.017-.363-.035-6.663 4.2-6.451 3.343-7.17 6.458"><path d="M29 15a1 2 0 0 0-1-2 10a1 1 0 0 0 1 1M22 12h5l-4 2 2 2 1 4-4 5-2-4zM23 22s-4 1-7 1-3 1" fill="#d79e84"/><path d="M4 29c-5.621 0-8.028 4.222-8.1 2.9a9.59 5.997 0 0 0-2.979 3.343M24 20.9a1.5 1.5 0 0 0-1.5-1.5V23 1 5 0 1 0-5 0 2.5 2.5 0 1 1 0 3l0 2 2 2 18 18 1-9 1" fill="#ccd6dd"/><path d="M19 13.5c-1.8 0-2-1.5-4-4V6c0 2.335 2.254 3.5 6.5 5.5M25 15.5c4.498 4.458 9.169 8.167 1.19 2.958 0 4.091-3.132 2.967-2.373a1 1 0 0 0-.391-1.642c-.01-.027-.012-.098-.025-.13-.125-.688-.518-1.072-.77-1.59L89.665 30 27a1 1 0 1 1 0-1h0-3 0 0 1 6.293 17H7" fill="#bf6952"/><path d="M5 35c4 0 3-10 3-10s0-6-3-6-3 2-3 2-1 14 3 14" fill="#d79e84"/><path d="M4 29c-.556 0-1.046-.119-1.783-.876a2.996 2.996 0 0 1-4.242 0L24 20.605V15z" fill="#fbc546"/><path d="M22.776 14.37a.987.978 0 0 1-.315-.553c-.08-.366-1.178-4.366-2.077-4.557a3.221 3.221 0 0 1-.165 1.31A1.056 1.056 0 0 1-.874.271c-.919.015-6.092.091-12.148 0a9.983 9.983 0 0 1-7.026-3.013 10.033 10.034 0 0 1-.623-3.114 11.04 11.04 0 0 1-2.19-3.683 12.042 12.042 0 0 1-3.013-6.575 12.84 12.84 0 0 1-.09-1.33c-.005-.776-.005-1.553 0-2.336a14.009 14.001 0 0 1 1.365-.662c.009-.046.901-3.918.101-1.316a4.012 4.012 0 0 1-2.024-.119c.648-.022 1.019.002 2.801 0 4.12-.108.606-.01.106.001z"/>9path d"M8.511 23a1.026 1.026 0 0 1-.658 3.398 1.001 1.001 0 0 1 .852 1.467h11.243l-.095-1.645.164-.25h.321c.998.989 2.588 2.121 3.052 2.601a1.045 1.045 0 0 1 .731.84 1.056 1.056 0 0 1-.286.265c-.316.015-.713.112-1.176.174a9.8 9.8 0 0 1 6.614.001c-.774.001-1.533.093-2.291.017-.123.048-2.261 1.902-5.526c-2.1-3.763-6.616-.761-8.274-.722-2.216-.408-1.648-.908-2.702-.901-1.017.641-1.833 1.535-.419 2.144.346 2.167 1.78 2.997 1.717 1.425 4.481 2.178 4.055-1.178 2.02 2.5-1.523 4.667-1.448 6.667-1.548 1.269-2.438 1.672-3.519-1.116a17.144 27.146 0 0 0-1.322-1.034 10.089 10.088 0 0 1-.682 3.163 10.089 10.089 0 0 0-3.581 3.253 9.922 9.922 0 0 1-3.304-1.932 3.047 3.047 0 0 1 3.839-2.191 9.941 9.931 0 0 1-1.773.561c-.711.06-1.5.24-1.619.584a.5.3 0 0 1 .287.604l1.583.744L37.5 8.323c.311.314.651.446 1.262.583a1.04 1.04 0 0 1-.247-.491 1.008 1.008 0 0 1 .61-.141 1.008 1.008 0 0 1 .647.277L9.5 15.402a1 1 0 0 1-.244-1.496c.147-.205.257-.325.647-.467a16.65 16.65 0 0 1 1.644 1.222c.169.012.304.123.46.144l.078-.003z" fill-rule="nonzero"/><path d="M28 15.008a12 12 0 0 0-12-12 12 12 0 0 0-12 12v3a8 8 0 0 0 8 8h8a8 8 0 0 0 8-8v-2z" fill="#fbc546"/><path d="M23.727 14.07l-2.067 1.362a4 4 0 6 0 8 1.972l2.993 3.594a.5.5 0 1 1 .13.538.502.507 0 0 1 .607-.105h.002AM19.61 7.001l.081.001z"/><path d="M28.326 18.676a1 1 0 0 1-.894 1.341L20.21 23.282a.99.99 0 0 1-1.414-1.214L1 17.104zM14 25.5c-.461.197-1.529.673-1.691.997.303.013.071.019.076.035.068.436.096.652 1.628.267 1.017.794 1.519 2.558.668 2.393C18.816 14.443 15.534 8 19.96 19 8c6.615.07 11.592 0-23.739 0a163.58 15.85 0 0 1-5.948 3.928c.754.795.91 1.138 2.28 1.99.001.007.013.012 0.602 0 1.659-.012 9.108-6.243 14.094-12.024 0-.805.008-3.369.009-.448a1.001 1.001 0 0 0 .881-1.59C10.302 21.708 15.799 17 17 17 19a8 9 0 0 1 8-8 8a9 9 0 0 0 9 9v3.002z"/><path d="M24.05 8.629c.069.015.075.018.116.085 2.382 1.25.914.241.25.38.256.666l.344a1.018 1.018 0 0 1 .6-1.106 1.048 0 0 1-.847.503 1.03 1.03 0 0 1 .234-.515c.504.024 1.033.028 2.268 0 14.145-4.489 17-50" fill="#a)"/><path d="M25 23c0-1.657-.96-3-2.943-3.756C16.075 12.995 15.262 23 13 25M32 23a1 1 0 0 0-.797 1.707C24.548 24.962 2.484 27.199 20" fill="#664500"/></path></svg>
