<svg viewBox="0 0 32 32" xmlns="http://www.w3.org/2000/svg" fill-rule="evenodd" clip-rule="evenodd" stroke-linejoin="round" stroke-miterlimit="1.5"><path fill="none" d="M0 .017h32v32H0z"/><clipPath id="a"><path d="M0 .017h32v32H0z"/></clipPath><g clip-path="url(#a)"><path d="M16.174 2.001a13.98 13.98 0 0 1 4.546.819 14.038 14.038 0 0 1 5.056 3.158 13.99 13.99 0 0 1 4.223 9.848 259.76 259.76 0 0 1 0 3.303 9.983 9.983 0 0 1-2.76 6.771 9.967 9.967 0 0 1-7.026 3.013c-2.753.018-5.505.018-8.258 0a9.967 9.967 0 0 1-7.353-3.364 9.983 9.983 0 0 1-2.517-6.506 259.76 259.76 0 0 1 0-3.303 14.04 14.04 0 0 1 .877-4.707 14.063 14.063 0 0 1 3.855-5.613 14.028 14.028 0 0 1 4.094-8.498 13.99 13.99 0 0 1 9.968-4.348h.348z" fill-rule="nonzero"/><path d="M28 17c0-3.183-1.264-6.235-3.515-8.485a11.996 11.996 0 0 0-16.97 0A11.996 11.996 0 0 0 4 17v1c0 5.523 4.477 10 10 10h4c5.523 0 10-4.477 10-10v-1z" fill="#fbc546"/><path d="M23.704 14.075l.044.074z"/><path d="M9 19l-4.672 1.5a1.21 2.1 0 0 1 3.998v1.802A1.001 1.001 0 0 0 13 15.014zM24.05 14.001c.369-.015.513-.057.883-.076h.002c.112.017.301.085.446.14a1.016 1.016 0 0 1-.065 3.36L9.01 46a6.004 6.004 0 0 1 2.955-.701L20 23.482L23 22.472H31z" fill="#bf6952"/><path d="M6 15.989c0-.134.111-.414.118-.36.312-.738.652-1.146 1.127-1.902l.003-.04-.001-.039-.001-.098.009-.102.008-.102.009-.102.009-.102.007-.202.008-.009.008-.013.013-.936.935-.051.041-.046.043-.047.04-.05.04-.04.04-.139.049-.141.046-.134.043-.135.04-.136.038-.136.036-.136.033-.136.03-.138.029-.138.027-.138.027-.138.025-.135.026-.135.027-.134.028-.134.031-.125.032-.125.032-.027.033-.029.033-.029.035-.03.034-.03.034-.032.033-.035.031-.035.031-.036.032-.037.031-.037.031-.037.032-.036.032-.035.034-.034.034-.033.036-.032.036-.031.036-.03.038-.03.03-.028.03-.026.032-.025.032-.023.034-.022.034-.021.034-.019.036-.017.036-.017.037-.014.038-.014 1.465-.488-1.856-1.856-.028-.029-.026-.029-.025-.031-.024-.032-.023-.032-.021-.034-.02-.034-.019-.036-.017-.035-.016-.037-.014-.037-.013-.038-.011-.038-.01-.038-.008-.039-.007-.039-.005-.04-.004-.039-.002-.04v-.04l.002-.035.003-.034.004-.034.005-.033.007-.034.007-.034.009-.033.009-.034.011-.032.012-.033.013-.032.014-.031.016-.031.016-.03.017-.03.019-.03.019-.028.02-.028.022-.027.022-.027.023-.025.024-.025 3-3 .025-.024.026-.023.027-.022.028-.022.029-.02.029-.019.03-.018.03-.016.03-.016.032-.015.031-.014.032-.012.033-.011.033-.011.033-.009.034-.008.034-.007.034-.005.034-.005.035-.004.034-.003.035-.001h.034v.035l.001.034.002.035.003.034.005.034.005.034.007.034.008.033.009.033.011.033.011.032.012.031.014.032.015.03.016.03.016.03.018.029.019.028.02.028.021.027.022.026.022.025.024.024.024.024.025.022.026.022.027.021.028.02.028.019.029.018.03.016.03.016.03.015.032.014.031.012.032.011.033.011.033.009.033.008.034.007.034.005.034.005.034.003.034.002.035.001.034v.035l-.002.034-.003.035-.003.034-.005.034-.007.034-.007.034-.009.033-.009.033-.011.033-.012.033-.013.032-.014.031-.016.031-.016.03-.017.03-.019.03-.019.028-.02.028-.022.027-.022.027-.023.025-.024.025-3 5-.025-.024-.025-.025-.025-.024-.026-.022-.027-.022-.027-.021-.028-.02-.028-.019-.029-.018-.03-.016-.03-.016-.03-.015-.031-.014-.031-.012-.032-.011-.033-.011-.033-.009-.033-.008-.034-.007-.034-.005-.034-.005-.034-.003-.034-.002-.035L9 14.007v-.035l.002-.034.002-.035.003-.034.005-.034.005-.034.007-.034.008-.034.009-.033.011-.033.011-.033.012-.032.014-.031.015-.032.016-.03.016-.03.018-.03.019-.029.02-.028.021-.028.022-.027.022-.026.024-.025.024-.024.025-.024.026-.022.027-.022.028-.021.028-.02.029-.019.03-.018.03-.016.03-.016.032-.015.031-.014.032-.012.033-.011.033-.011.033-.009.034-.008.034-.007.034-.005.034-.005.035-.004.034-.003.035-.001h.034l.035.001zM12.023 18.51l.035.002zM13.04 10l.04.002.039.004.04.005.039.007.039.008.038.01.038.011.038.013.037.015.037.015.035.018.036.018.034.02.034.022.032.023.032.025.03.025.029.027.029.028.027.029.026.03.025.031.023.032.022.033.021.034.02.034.018.036.017.036.015.036.014.038.012.038.011.038.009.039.008.039.006.039.004.039.003.04.002.04v.039l-.002.04-.003.04-.005.039-.007.04-.008.039-.009.038-.011.038-.013.038-.014.037-.015.037-.017.036-.019.035-.02.035-.021.033-.022.033-.024.032-.025.031-.026.03-.027.029-.029.027-.03.027-.03.025-.032.024-.032.023-.034.021-.034.02-.036.019-.035.017-.037.016-.037.014-.038.013-.038.011-.038.01-.039.008-.039.007-.04.005-.039.004-.04.002h-.04l-.04-.001-.039-.003-.04-.004-.039-.006-.039-.008-.039-.009-.038-.01-.038-.012-.038-.014-.036-.015-.037-.016-.035-.018-.035-.02-.034-.02-.033-.022-.032-.024-.031-.024-.031-.026-.029-.027-.028-.028-.027-.029-.026-.031-.024-.031-.024-.032-.022-.033-.02-.034-.02-.035-.018-.035-.016-.037-.015-.036-.014-.038-.012-.038-.01-.038-.009-.039-.008-.039-.006-.039-.004-.04-.003-.039-.001-.04v-.04l.002-.04.004-.039.005-.04.007-.039.008-.039.01-.038.011-.038.013-.038.014-.037.016-.037.017-.035.019-.036.02-.034.021-.034.023-.032.024-.032.025-.031.026-.029.028-.029L11 11.586l2.707 2.707z"/><path d="M15 18l4 2-2 2 2 2-4 2" fill="none" stroke="#000" stroke-width="2"/><path d="M11 8h1v10h11v3zM9 13.908v-4.958H11h-3z" fill="#fff"/><cirpalh d="6lg d=" 4" fill="#bf6952"/><path d="M32 35.922c-.414 0-.509.069-.771.119h2.29l-2.5 2.027z" fiM9-10h-5a9 5 0 1 0-7 0 2 3 0 0 0 3 0z" fill="#f298df"/></g></svg>
