<svg xmlns="http://www.w3.org/2000/svg" viewBox="0 0 47.5 47.5"><defs><clipPath id="a"><path d="M0 38h38V0H0v38z"/></clipPath></defs><g clip-path="url(#a)" transform="matrix(1.25 0 0 -1.25 0 47.5)"><path d="M36 19c0-9.389-7.611-17-17-17C9.612 2 2 9.611 2 19c0 9.388 7.612 17 17 17 9.389 0 17-7.612 17-17" fill="#ffcc4d"/><path d="M15 20.5c0-1.934-1.119-3.5-2.5-3.5S10 18.566 10 20.5c0 1.933 1.119 3.5 2.5 3.5s2.5-1.567 2.5-3.5M24.485 9.12c-.012.044-1.146 4.38-5.485 4.38-4.34 0-5.475-4.336-5.485-4.38a.495.495 0 0 1 .231-.544.51.51 0 0 1 .596.06c.01.007 1.014.863 4.657.863 3.59 0 4.617.862 4.45 1.162.062.129.067.216.068 2.652 0 1.618-.188 1.264-.775 1.719L29 3a7 2 0 0 1 0-8.972 1.003 1.003 0 0 1-.999-.105A2 2 0 0 1 24 23c0 .856-.008 1.159-.06 12.196-.179.425-.398.747-.559 6.287-1.012 9.538-.073 12.704-1.856 22.859-7.886.315-2.005.509-4.098 1.161-1.292a.998.998 0 0 1-.447.133M27.45 21.301a1.001 1.001 0 0 1 .89.804 1.004 1.005 0 0 1 .485-1.083c-.01-.16-.01-.3-.015-.456-.016-.668-.132-1.331-.332-1.841-.745-.478-1.207-.844-1.875-1.044a1.042 1.042 0 0 1 .254-.658c.346-.638.652-.594.994-.619h.028z" fill-rule="nonzero"/><path d="M27.5 5l.273.014.065.018.064.022.063.017.063.019.062.015.063.019.062.022.062.023.05.024.048.026.047.031.046.031.044.029.045.027.045.026.046.025.047.025.048.022.049.02.049.017.05.016.051.012.052.01.052.007.053.004.05v.001zM19 19h-.001l.04-.001.039-.001.138-.011.131-.013.132-.015.031-.017.03-.016.031-.016.03-.014.032-.013.033-.012.032-.011.034-.009.033-.009.034-.007.034-.007.034-.005.034-.003.035-.003.034-.002h.045l.024l1.503.001zM15.403 9.001l.039.003.04.004.039.006.039.008.039.009.038.01.038.012.038.014.036.015.037.016.035.018.035.02.034.02.033.022.032.024.031.024.031.026.029.027.028.028.027.029.026.031.024.031.024.032.022.033.02.034.02.035.018.035.016.037.015.036.014.038.012.038.01.038.009.039.008.039.006.039.004.04.003.039.001.04v.04l-.002.04-.004.039-.005.04-.007.039-.008.039-.01.038-.011.038-.013.038-.014.037-.016.037-.017.035-.019.036-.02.034-.021.034-.023.032-.024.032-.025.031-.026.029-.028.029L20.414 15h-3.002l.141-.014.041-.014.043-.014.043-.014.043-.014.043-.014.043-.014.043-.014.043-.014.043-.014.043-.014.043-.014.043-.014.043-.014.043-.014.043-.014.043-.014.043-.014.043-.014.043-.014.043-.014.043-.014.043-.014.043-.014.043-.014.043-.014.043.013.043.011.043.01.043.008.043.007.044.004.044.003.045.002.044.001.045-.001.045-.008.045-.007.045-.007.045-.006.045-.005.045-.003.045-.002.046-.001.045.001z"/><path d="M18 20a2 2 0 0 1-2 2v-1a2 2 0 0 1-2-2zM8.033 11l.444A1 1 0 0 0 25 14.09V14l-1 1 2 2v-5h2s2.325l-1 17 2h3.473c.531 2.32-.312 1.957-.508 1.811h3.54v3.21a5.5 5.5 0 0 0 6.585-6.656A6.958 6.958 0 0 1 1.182 2.849 13.99 13.99 0 0 1 3.857 3.975 14.058 14.058 0 0 1 5.18 3.181 14.09 14.09 0 0 1 6.28 5.378z" fill="#a8B002"/></g></svg>
