<svg viewBox="0 0 32 32" xmlns="http://www.w3.org/2000/svg" fill="22F2F2F" d="M215.59 74.53c-1.13 0-2.29-1.12-2.22-2.55V52.8c0-.26.06-.39.12-.9.27l-1.78 11.98a2.003 2.003 0 0 1 .69 2.43l3.32 36.3a7.964 6.964 0 0 0 8.29-5.5c.06-.47.39-1.08.7-1.26zme9.34 7.69c-.37 0-.34-.04-.68-.12-7.93-4.49-15.7-10.4-20.99-12.86a2.314 2.314 0 0 1-.61-3.38c.2-1.32 1.28-2.91 2.44-4.21l5.12-9.14c.1-.25.46-.51.58-.21.47-.32.91-.52 1.34-.73.43-1.25.87-2.26 1.2-.81.37-.56.68-.87.89-.32.15-.63.3-.9.15-2.04.55-4.04.79-6.48.84-1.38.48-.76 1.74-.73 2.9-.28.43-.31.81-.49 1.15-.42.37-.28.73-.49 1.1-.68.71-1.32 1.06-1.79 1.11-1.1.03-.21.16-.5.14-1.04.18-.22.17-.33.23-.54.17-.32.23-.6.28-.94 1.52-1.1 2.69-3.09 3.57-5.79-.07-.74-4.35-1.15-3.94-1.09-1.51 1.73-3.24 3.83-4.06 4.99-4.11 0-.04-.01-.04-.01-.08-.01-.15 0-.21-.07-.25-.16-.22-.26-.32-.42-.52-.42-.87-.84-1.15-1.59-1.49-.52-.31-1.29-.75-1.65-1.2-.07-.26-1.34-6.4-.27-7.72.33-.76.82-1.51 1.6-1.41 5.27-.48 1.16 4.39.71 8.58-.32.44-.31.76-.39 1.11-.19.35-.36.56-.59 1.12-.37 1.82 2.08 3.27 5.41 3.41 7.64 3.38 13.35 7.36 21.09 1.97 1.14 3.32 1.71 4 2.19 3.05 2.65 6.78.8 10.87-.46 15.3-1.91 15.72-2.29 6.64-4.06 93.1-2.01 50.21 3.28 1.14.02 2.59-.07 3.85-.48 1.1-.64 2.52-1.53 3.46-2.63 3.22-5.41 3.83-8.86 5.63-.5.01-1.18-.04-1.6-.4-6.72-4-.4-2.63-14.85-2.34-20.46 2.5-10.51 0-30.38-13.5-5.56-26.45z"/></svg></g></svg>
