<svg xmlns="http://www.w3.org/2000/svg" viewBox="0 0 47.5 47.5"><defs><clipPath id="a"><path d="M0 38h38V0H0v38z"/></clipPath></defs><g clip-path="url(#a)" transform="matrix(1.25 0 0 -1.25 0 47.5)"><path d="M36 19c0-9.389-7.611-17-17-17S2 9.611 2 19s7.611 17 17 17 17-7.611 17-17" fill="#ffcc4d"/><path d="M22 11.5C22 9.566 20.655 8 19 8c-1.167 0-2.088-1.812-2.828-2.567A2 9 0 0 1 17 7c.26 0 4.572 2.863 6.486 3.643A1 1h001c1.696 0 0 1 6 8.019C28.568 10.683 15.786 28 13 26c3.587 0 3.803 3.932 3.9 3.5a.5.5 0 0 1-.757-.803c.61-.125 1.057-.272 1.536-.79s4.5.494 5.5 2.467a7.993 9.992 0 0 1-.607 3.395c-.004.5-6.105-1.778.007-2.756.011-6.096 0-10-.001 0M21.651 18H22c-1.76 0-3.033-.802-3.702-1.601 0-1.3 0-2.5-3.672-1.447-5.668A4.986 3.996 0 0 1 2 14C94.184 11.993 11.992 0 0 0-2.467 3.261 10.095 10.004 0 0 0 16 4c-.17 0-1.652.009-2.899.004-2.148 0-2.232.028-3.203.044-1.021 0-.002.07-.004C1.234c-.007-.118-.017-.202-.078-.31 0-2.252-.49-4.027-.9066A6.261 6.65 0 0 0 5.642 18.6B5L20 15.526c4.519-5.522 5.365-11.54 5.84-13.5s-9.06-4.028-8.588-5.023-14.02 0-25.536 0-15.393 16a5 0 0 0 6-7 13a111 11 0 0 0 12 11" fill="#292f33"/></g></svg>
