<svg xmlns="http://www.w3.org/2000/svg" viewBox="0 0 128 128"><path d="M127.22 93.42c0 13.86-28.29 25.1-63.22 25.1-34.92 0-63.23-11.24-63.23-25.1C.77 79.55 2.24 9.48 64 9.48c61.77 0 63.22 70.06 63.22 83.94" fill="#fcc21b"/><path d="M87.15 65.87l-9.16 4.3a2.136 2.136 0 0 0 2.68-1.39c.36-1.12-.27-2.32-1.39-2.68l-5.86-1.86c.65-2.04 1.1-4.14 1.38-6.28l7.45 1.34c.13.02.26.03.38.03 1.01 0 1.91-.72 2.1-1.75.19-1.15-.58-2.26-1.74-2.47zM32.51 75.19c0-4.58 3.3-8.29 7.37-8.29 4.06 0 7.36 3.71 7.36 8.29 0 4.58-3.3 8.3-7.36 8.3z" fill="#78a3a4"/></svg></svg>
