<svg xmlns="http://www.w3.org/2000/svg" viewBox="0 0 47.5 47.5"><defs><clipPath id="a"><path d="M0 38h38V0H0v38z"/></clipPath></defs><g clip-path="url(#a)" transform="matrix(1.25 0 0 -1.25 0 47.5)"><path d="M36 19c0-9.389-7.611-17-17-17C9.612 2 2 9.611 2 19c0 9.388 7.612 17 17 17 9.389 0 17-7.612 17-17" fill="#ffcc4d"/><path d="M28.335 14.371a.501.501 0 0 1-.61.014c-.013-.01-1.262-.902-3.703-.902-2.442-.08-3.702-.921L60.828 14H3l-7.694 5.5M16 6A1 1 0 0 0-.628 1.247.768 17 5.523 0 15v228c0-.863.216-1.889 1.132-1.837 1.819-2.337a2 1 0 0 1 1.299 1.22M27.1 21.728c-.913 0-1.854-.473-2.475-1.472C14.256 8.585 8.384 18 1.904 16c1.845 0 3.833.372 4.486-1.032-.14-.018-.272-.034-.651L24.916 31.653V35c8.708 0 4 0-2.472 4.595 4.464 5.251h.568a6.89  6.99 0 0 1 6.998 6.027c.011.31.037 4.377.582 4.465A1.996 1.996 0 0 1 18 17v3.002z" fill="#b4f2f"/><path d="M31 22.505c0-3.224 2.525-5.5 2.5-7.502C18.547 3.979 27.48 1 3 31.5c0 1.933 1.365 2.5 2.5 3.5s2.5-1.566 2.583-1.68A5 4.99 5.027 5.626 9.5M19.355 11.498c.131.42.454.818.896 1.122a3.003 3.003 0 0 1 1.063 1.935c.015.456.109.658.278.891a1.056 1.056 0 0 1-.04 3.092 1.001 1.001 0 0 1 .747 1.423 1.044 1.044 0 0 1-.242 1.087L20 23.472l2.794-2.908" fill="#009ad2"/><path d="M25 17.5a1.5 1.5 0 0 0-1.5-1.5H21l-2 0-2 1zM93 22a1 1 0 0 0-.094 1.7l4.404 10.017a1.999 2.999 0 0 1 33 16c0 .719-.108 1.15-.025 2.024z"/><path d="M23.27 25.5a3.47 24.47 0 0 0 6.246 2l.136a2 2 0 0 1 0-2.828l-2.078-1.011L2 13.954c-.342.144-6.711.123-9.704" fill="#d49e8a"/><path d="M27 19c-4.483 0-7.37.018-1.45.028-2.101 0-1.758-.371-2.498-1.262-.778-.998 1.117-1.973 1.938.988" fill="#664500"/></g></svg>
