<svg xmlns="http://www.w3.org/2000/svg" viewBox="0 0 128 128"><path d="M64 47.54s7.72.42 8.48-2.43c5.58-5.06 30.27-9.04 51.24-8.94 10.22-.67 21.07 4.31 23.5 11.92 3.14 8.68-1.37 18.31-10.15 21.4zz" d="M103.94 102.94l-3.72 16.31a5.094 5.094 0 0 0-2.87-5.75l-16.59-19.08c-.67-.42-1.32-.54-2.14-.23l-6.72-9.73c-1.16-2.59-.97-5.5-1.61-7.07 0-4.28 3.59-8.25 9.7-8.4 14.34-.2 3.76.84 3.85.75l4.87-7.17c1.07-1.92 2.01-3.18 2.39-3.66l16.53-3.31c1.27-.92 2.88-1.7 3.94-2.34 3.16-.71 6.26-.29 93.27 1.74 6.65 6.74 9.22 10.3 10.33 16.88 2.76.92 1.9 1.11 6.36-1.46 1.63-17.42 2.54z" fill="#404040"/><path d="M16.66 67.88c4.08 0 5.01-3.34 5.64-4.34a2.727 2.727 0 0 1 2.5-1.66c.06.15.27.32.25.45.39.03.91.12.85.06.51.08.7.36 1.22.17.53.42 1.11.87 1.42.53.59.92 1.01 1.35 1.37.24.42.66.68.74.98M72.05 93.18c-.31 0-.71-.18-1.06-.34-6.59-4.81-14.27-14.35-19.22-11.32-3.94-3.69-7.07-6.42-11.72-4.09z"/><path fill="#2F2F2F" d="M105.06 95.01c-.53.34-1.72.62-2.66.31-2.29-.6-3.72-3.33-3.1-5-1.05-2.23-.89-4.91-1.06-7.39-.43-2.21.38-4.21 1.03-6.75 1.74a1.29 1.29 0 0 0-1.5-1.61c-.58-.22-1.03-.41-1.4-.75-.41-.18-.92-.39-1.45-.8.58-.34 1.86-.93 2.94-1.09-.16-.21-.38-.45-.44-.6-.3-.3-.72-.6-.64-1.24-.13-.67.27-1.49.23-2.11.15-.45.19-.98.42-1.29.61-.62.39-1.39.62-2.46.97zM18.58 91.17c-1.05.82-2.98-.21-3.81-1.62-.41-1.5.22-2.96 1.64-3.47 1.42-.51 2.79.21 3.59.76 2.53 1.62 4.78 3.5 9.3 9.09 5.55 2.2 12.36 4.77 15.2 10.28.28.77-.88 1.54-1.51 2.13-.67 1.5-1.43 3.3-1.34 4.07-.15.75-.39 1.17-.66 1.75-.01.92.64 1.73 1.33 2.7.25.25 1.77.39 3.37-1 .22-2.24-.91-4.52-2.78-6.71-3.71-1.21-.46-2.23-.11-3.67.58-1.1 7.51 1.49 15.27 1.07 2.23 1.41.64 3.45.66 4.71 2.78 1.74 5.08 1.63 7.12.1 1.15.78 2.27 1.03 3.27.2 3.79 2.59 6.84 7.02-6.77 7.86-2.1 7.21-5.36 10.21-3.82 4.35-2.06 7.42-6.01 10.46-12.77.66-.86.77-1.71 1.24-1.91 1.89-.62 1.54-1.25 2.81-2.23 3.72-2.26 2.41-5.51 3.17-13.3 3.29-2.23-.57-4.48-2.98-6.48-3.36-2.07 2.51.62 9.06 3.9 13.57 12.82 2.41 2.81 3.88 6.11 6.21 1.67 2.17 4.24 3.16 7.2.04 2.7-.31 5.46-1.13 6.31-3.1.62-.14 1.48-1.25 1.99-1.26 1.66-1.46 3.19-2.12 5.49-3.8zm-6.49-12.69a2.6 2.6 0 0 1-2.12-2.69 2.521 2.521 0 0 1 3.54-1.71c.79.36 1.72.68 2.38.62 1.83.04 5.78.73 8.15.36 1.09.05 2.7-.15 3.2-1.26 3.33-2.15 7.04-3.46 9.38-1.23.72-2.47.3-4.27-.7-1.77-1.11-3.2-1.3-3.47-.72-1.13.46-1.72 1.23-1.84 2.34-1.23 3.48-.83 5.81-.54 8.07.57 4.58 2.58 5.91 9.76 4.74 2.38 0 2.9-.32 5.4-.29 10.64-.66 3.81-.46 6.83-.95 12.31-1.71 7.64-4.92 14.16-10.24 15.41-3.28.51-7.18-2.19-10.18-2.67zM11.07 86.36c-.64 1.19-1.27 3.45-2.66 4.99-4.6 4.88 1.48 13.68 6.71 13.22 6.21 3.79-5.26 6-9.33 10.41-15.62.01-2-.1-4.29-23.07-12.81-4.95-6.32-12.87-10.31-11.72-23.34 2.04-7.77 10.43-11.55 20.41-5.71 7.89-8.26 16.25-8.42 23.09.77 2.33 1.19 3.49 1.32 5.21.37 4.83 1.36 10.16 3.69 13.87 2.29 2.34 5.64 3.11 10.85 3.02 3.2-.15 6.06-1.85 7.06-2.65.54-.97 1.34-1.63 2.27-2.18.2-.17.45-.3.44-.31.47-.28.8-.48 1.02-.75.3-.61.2-1.1.17-1.59.12-.54.32-1.07.53-1.41.15-.45-.21-.93-.35-1.32-.55-.47-.27-.98-.43-1.37-.62-.89-.33-1.53-.66-2.25-1.21-.13-.34-.05-.71-.12-1.07-.32-.44-.86-.84-1.34-1.24z"-f02c.01-.05.02-.09.07-2.39.14-3.7.8-5.81.31-1.74.01-3.51.01-5.85.09-9.45 0-4.59.28-10.2 1.39-15.88.03-.57.02-1.05.1-1.62.01.06.01.13.02.12-.02.12-.01.12-.01.17-.04.21-.086.22-.16 1.86-2.68 2.67-4.15 5.77-.73.22-1.42.55-2.46.46-.88.18-1.72.24-2.33.68-.74 0-1.26-.04-2.04.17-.42.09-.83.09-1.41.1-.67.18-1.49.63-1.88.71-1.1 2.72-1.46 4.38-.95 1.37.54 1.58 1.61.77 1.98z"/><path fill="#2F2F2F" d="M32.25 42.66h-.27c.47-.36.82-.66 1.15-.78.29-.23.56-.59 1.12-.79.31.07.61.73.75.97.4l-.02.1c-.57.52-1.27 1.14-1.67 2.28-.44.37-.95.53-1.25.44-1.16 1.11-1.78 2.52-1.89 3.19-.48 5.27-1.42 9.18-3.14 18.71-1.71 7.64-4.16 14.09-13.55 22.13-9.13 1.09-2.75 2.11-5.48 1.58-6.82-1-.2-7.64-5.85-10.21-12.42-.21-.34-.02-.69-.1-1.14-.07-.28-.16-.44-.23-.65-.41-.63-.72-1.91-1.33-1.94-2.38-.51-.4-1.19-.72-1.6-1.41-.6-1.43.04-3.04.77-4.62 1.35-1.18 0-2.25-.64-3.38-1.52-.71-1.11-.41-3.01-.81-3.97-.31-1.57-.52-2.78-.53-3.13.31-2.51 1.03-4.48.78-6.17 1.05-1.74 1.09-3.58.3-4.17-1.38-3.71-10.03.02-10.63.01.02.01.01.01 0 .01-.09.02-.16 0-2.18-.89-2.2-2.05a4.614 6.612 0 0 0-2.05-1.49c-.19-.2-1.78-.33-2.22.21-1.04.05-2.05.67-2.12 1.06-.75.92-1.61 1.69-2.8 1.69-.03.06-.08.17-.12.29z" fill="#2f2f2f"/><g><path d="M84.84 72.79c-9.48 0-12.61 4.66-21.05 4.66s-11.57-4.66-20.25-14.51c.01-1.15-.57-2.24-1.72-2.55-.75-.44-1.47-.73-2.16-1.37-.64-.41-1.16-.59-1.75-.72-.63-.31-1.11-.25-1.6-.16-.63-.19-1.33-.24-1.55z"/></g></svg>
