<svg xmlns="http://www.w3.org/2000/svg" viewBox="0 0 128 128"><path d="M-.2 93.42c0 13.88 28.65 25.11 63.99 25.11s64-11.23 64-25.11c0-13.87-1.47-83.95-64-83.95C1.27 9.47-.2 79.55-.2 93.42z"/><path fill="#FCC01C" d="M32.21 124.6c-5.08 5.88-11.64 13.94-24.64 19.32s105.23-5.06 23.24-7.92c36.56 1.83 44.85 16.36 42.01 15.79 21.31 0 35.42-1.08 49.66-2.65s11.73 4.37 14.39 7.88c.37 1.11.64 2.81.81 3.51s-7.49 2.45-12.35 21.19c0 .11-.02.2-.03.32-2.51 2.92-5.04 3.71-10.57 7.65-5.88 12.04-10.79 15.31-9.44 5.91-5.2 11.66-12.97 17.63-8.15 7.65-8.19 13.64-10.98 22.38-5.67 8.55 2.1 17.61 14.29 33.12 13.18 9.54-.03 19.61-4.29 10.83-10.44 1.47-4.96.62-9.46-1.66-14.45-2.21-4.65-1.17-11.4.37-12.36 1.95-7.44 7.44-11.06 19.28-6.44 26 24.89 3.84 18.34 13.55 28.4 11.45 3.29.86 6.41 1.68 9.66-.3.77-.61 1.35-1.32 2.03-2.03.3-.17-.86.28-1.62.33-.52.11-1.07-.4-1.64-.79-.46-.26-.75-.33-1.34-.34-.63-.82-1.63-2.44-.69-3.12.17.09 2.35.91 3.39.98 1 .64 1.36.09 2.15-.19 2.64-.28 0-.55-.04-.78-.62-1.53-.42-.47-1.57-1.1-2.41-1.93-.01-.15 0-.25-.01-.3-.07-.21-.15-.23-.32-.45-.31-.64-.42-1.29.42-1.87zM40.62 65.19c-.42 0-.81-.3-1.38-.33-.92-.74-1.57-1.28-1.99-1.69-.69-.41-1.34-.93-2.06-.3-.69-.24-1.36-.55-2.45-1.08l-10.51-1.07c-.19-.03-.51-.06-.73-.1-.75 0-1.68 1.01-2.71 2.67-.01.15-.1.3-.1.52-.07.08-.41.16-.6.31-.14.08-.31.18-.53.2-.6.61-1.5.52-2.04.52-.92-.22-1.53-.59-2.17-.7-.11-.4-.19-.86-.16-1.16 0-2.32-1.1-2.63-2.04-3.16-5.31-3.11-13.1-9.46-16.54-9.33-.79 0-1.46.04-2.24-.19-.6-.22-1.1-.55-1.74-.78-1.33.12-2.83-.38-3.88-.62-.91-.99-.99-2.24 1.01-3.05 1.3-1.41 1.66-3.58 1.99-6.21-.11-1.69-1.33-3.15-2.2-2.42-1.1-1.04-2.17-.81-3.17.15zm5.4-43.6c-.83.16-1.55-.34-2.18-1.21-.36-.82-.97-2.42-.33-3.91.31-2.72 3.02-3.54 3.92-4.7 1.54-10.83 2.71-16.67 1.75z"/><path fill="#FCC21B" d="M38.88 77.67c-17.01 4.16-41.39-1.54-42.94-19.64-.45-13.74 1.1-26.36 11.62-33.41 3.79-31.18 2.15-35.36 2.35-13.58 0-35.38-1.53-52.61-3.56C9.1 28.7 32.9 17.53 26.5 43.68S69.5 40.06 15.95 3.45 26.65-1.4 38.61-23.43 5.21-4.96-2.85-9.78-2.37-10.41z"/><path fill="#FCC21B" d="M89.59 98.55c-8.7 4.51-18.98-1.34-20.4-9.52-3.97-8.4 1.24-19.33 9.1-28.57 8.45-3.87 15.13 1.1 18.29 8.61 2.7 7.77-1.12 15.15-8.39 17.76z"/><path fill="#FBB51F" d="M99.47 71.17c-6.87 2.47-14.45-1.01-16.94-7.76-2.4-7.62 1.16-15.04 7.88-18.74 6.78-2.47 16.44 1.02 17.9 8.6 2.37 7.48-1.24 15.35-10.8 21.86z"/><path fill="#FAB220" d="M30.96 89.21c-4.07 8.02-14.38 11.91-21.68 10.73-6.21-1.72-14.8-4.71-21.88-9.28-9.67-.01-19.55 10.04-22.05 9.96 4.18 22.8 4.28 33.58 2.05 35.37-.04 6.75-2.75 10.23-6.51 11.51-19.54-4.76-5.4-16.95-7.64-16.46-1.65 2.99-8 3.01-5.4 5.46-7.65 10.31-8.68 5.21-.94 8.4 5.23 8.72 8.05 1.57 1.08 2.24 3.43 2.5 4.92.57.99 1.24.91 2.73 0 1.3-.23 2.59-1.53 2.96-2.27 2.49-3.53 5.04-7.81 5.72-14.04 5.18-4.82 11.5-18.43 5.87-19.54zM34.23 117.79c.18.19.36.37.88.47 1.26.46 1.91.72 3.41-.35 4.23-1.11 1.91-2.83 2.27-4.54 3.37-.96.2-1.6.62-2.05.62-.5-.15-.73-.43-1.22-.51-1.56-.73-3.09-1.62-5.37-1.73-1.03-.31-2.04-.71-3.26-1.34-.41-1.17-1.67-2.08-2.66-2.78-1.11-.49-2.14-.11-3.25.15h3.12c9.93 0 13.26 8.6 12.38 9.85a2.977 2.977 0 0 1-2.74 1.89c-.56 1.66-.96 3.03-1.73 3.36.1 6.94-10.95 33.94-27.64 4.66zm-.17 18.27c-8.02 8.68-16.98 11.25-26.78 12.33-9.24-7.18-7-18.77-18.11-9.7 28.98.01 24.22 8.28 34.94 12.13 1.46.11-2.87-.04-2.83 0-1 .64-.66-.73-1.14-.23-.55.46-1.03.99-1.09.55-.51.95-1.3 1.28-2.03.33-.63.78-1.11 1.02-.31.37-.17.65-.39.84-.41.5-.26.97-.49 1.35-.8.65-.14 1.37.07 1.78.57.64 1.99.6 1.89.91 3.03 1.63 6.27 3.12 10.1 1.01 1.32-.08 2.63-.78 3.38z"/></svg>
