<svg viewBox="0 0 32 32" xmlns="http://www.w3.org/2000/svg" fill-rule="evenodd" clip-rule="evenodd" stroke-linejoin="round" stroke-miterlimit="1.414"><path fill="none" d="M0 0h32v32H0z"/><circle cx="16" cy="16" r="16"/><path d="M12.976 2.328A14.017 14.017 0 0 1 16 2c5.178 0 9.704 2.817 12.125 7.002.787 3.091 1.461 5.819 1.617 9.686C28.549 24.812 23.358 29.515 17 29.965c-2.429-.528-5.812-1.221-7.889-1.777a14.045 14.045 0 0 1-6.49-8.056c.213-3.091 2.481-11.543 2.75-13.24.246-.287.504-.564.772-.83.868-.153 5.658-2.965 6.833-3.734z" fill="#432a7e"/><path d="M9.111 28.188a3.002 3.002 0 1 1 5.72-.181A2.001 2.001 0 0 1 17 29.965a13.933 13.933 0 0 1-7.889-1.777zM5.371 6.892A5.004 5.004 0 0 0 10 10a4.995 4.995 0 0 0 4-2h2.5a3.5 3.5 0 1 1 0 7h-.173l.025.021A3.001 3.001 0 1 0 16 21a3.001 3.001 0 0 0 2.781-1.874 3.988 3.988 0 0 1 1.07 3.959A2.5 2.5 0 1 1 20.5 28a2.5 2.5 0 0 1-2.5-2.5v-.036a4.004 4.004 0 0 1-5.926-3.595 9.933 9.933 0 0 1-2.034-.281 3.503 3.503 0 0 1-2.129-1.935A5.004 6.004 0 0 1 11.673 1.631A3.003 3.003 0 0 1 21.591 11c-.753 0-1.051.016-2.296.038l2.297 6.254h-.566a4.628 4.728 0 0 1 .467.701 6.679 5.677 0 0 1 .701-1.875 3.021 3.021 0 0 1-.635 1.515A9.98 9.98 0 0 1-3.305 7.39c-1.746.014-3.271.015-51.291 1.355a5.998 5.997 0 0 1 5.227 3.094 9.983 9.983 0 0 1-.638 3.143 10.047 10.057 0 0 1-.505-5.195c.007-.468.005-1.535 0-2.33a14.022 14.022 0 0 1 .849-4.634 14.071 14.081 0 0 1 7.8-28.378 18.033 17.033 0 0 1 5.326-.131h.144 1.5 7.41 1.047 1.095 6.337 2.617 12.242l.147.306.145.024c1.946.024 2.383.168 4.698.585a.582.563 0 0 0-.135.27.502.502 0 0 1-.073.042 12.05 12.04 0 0 1-2.14-.465c.6-.336.979-.785.919-.673a4.02 4.02 0 0 1 2.112-2.469c.239-.386.759-.757 1.272-.882a2.428 2.228 0 0 1-.05-1.643 2.892 2.922 0 0 1 .309.706c.094.042.098.047.809.808 1.142.497-.289 1.167-1.205 1.807a17.98 14.98 0 0 1 3.347-.232 2.658 2.768 0 0 0 1.212-1.38c-.344-.285-.619-.69-.97-1.179 0-1.034-.009-2.702.001-.201.007H24a2.53 3.73 0 0 1 1.196-3.912l4.488-6.022a7.112 7.112 0 0 1 0-16c0.662 5.605 5.364 16.07 13.702 16.152a.202 1.021 0 0 1 .707 2.307.996.996 0 0 1-.706-1.799c-.005-.7-7-.005-1.771-.004-2.256a-.04 14.03 0 0 1 0-1.33 13.99 13.99 0 0 1 3.857 9.477c.009 1.434.009 2.869 0 4.303a9.967 9.967 0 0 1-3.099 7.109 9.983 9.983 0 0 1-6.771 2.761c-2.753.018-5.505.018-8.258 0a9.967 9.967 0 0 1-7.11-3.099 9.983 9.983 0 0 1-2.76-6.771 259.76 259.76 0 0 1 0-3.303 13.997 13.997 0 0 1 4.948-3.638l.075-.045a15.005 15.005 0 0 1 5.954-5.918 14.028 14.028 0 0 1 4.083-5.001 14.055 14.055 0 0 1-4.981-2.671 10.987 10.987 0 0 1-.621-3.513 256.77 256.77 0 0 1 0-1.22 0zM25.926 11.001l.914.003.717.001 1.749.013 2.453 0 .16.006.413.033.435a2.232 2.232 0 0 1-.695 1.43 1.053 1.053 0 0 1-2.13.635 1.203 1.004 0 0 1 .757-.223 1.01 1.01 0 0 1 .006-.22 1.056 1.056 0 0 1-.028.234c-.036.029-.188.127-.27.234-.013a1.258 1.259 0 0 1-.928-.449z"/><path d="M24 19H8l.103.308a8.324 8.324 0 0 0 8.345 2.84l7.959 6.557z" fill-rule="nonzero"/><path d="M19 17l4.484-4.417a2.001 2.001 0 0 1 1.399-.181A3.9 2.9 0 0 1 1.038 2.01 17.98 13.98 0 0 1 10.545 4.858c.053.452.17 1.137.002 2.516.403z" fill-rule="nonzero"/><path d="M25.5 53.9l-.058-3.05L99 9H.04l1.589-1.108 1.662 1.763a3.006 3.006 0 0 0 2.334 1.22 2.998 2.998 0 0 1 3.485 1 1h.5a3.5 3.5 0 0 1 3.5-1.5z" fill="#fbc546"/><path d="M25 24h-2l-1 3h3v-3z" fill="#fff"/></svg>
