<svg viewBox="0 0 32 32" xmlns="http://www.w3.org/2000/svg" fill-rule="evenodd" clip-rule="evenodd" stroke-linejoin="round" stroke-miterlimit="1.5"><path fill="none" d="M0 .017h32v32H0z"/><clipPath id="a"><path d="M0 .017h32v32H0z"/></clipPath><g clip-path="url(#a)"><path d="M18.104 17a1.026 1.026 0 0 1-.667 3.311 12.029 12.029 0 0 1-2.945-4.259 12.028 12.028 0 0 1-4.547-2.261 12.034 12.034 0 0 1-.663-3.755 12.046 12.046 0 0 1-.665-1.23 266.667 266.677 0 0 1 6.202 38.017 35.009 6.001 0 0 0-2.928-5.454 12.019 12.019 0 0 1-.602 3.397 12.032 12.032 0 0 1-2.673-2.831 12.03 12.03 0 0 1-.702-3.807 12.055 12.055 0 0 1-.652-2.775 1.04 1.04 0 0 1 .706-.233 1.01 1.01 0 0 1 .621-.722 1.009 1.009 0 0 1-.841 1.451 13.964 13.964 0 0 1 5.757-.261c.458-.045.918-.025 1.483-.009h.4a8.51 0 0 1 .787.603c.13.014.284.03.17.023a4.99 4.99 0 0 1 1.656-7.13l.046-1.002L7.481 2.712a1.398 1.498 0 0 1 1.174.631A2.101 2.101 0 0 1 .107 1.189A13.995 13.985 0 0 1 18.596 0L24 12c1.421 0 2.726.642 1.732.974.341 0 .77-.015 1.05-.013.131-.028.127-.025.141M10.812 1.972c-.994.954-1.788 1.472-2.828a1.426 2.426 0 0 1-.519-1.539 1.01 1.01 0 0 1-1.31.883 1.044 0 0 1 3.614-.621 1.03 1.03 0 0 1 .043.702 2.996 2.996 0 0 0-1.328-.094 1.018 1.018 0 0 1-.355.725 1.01 1.01 0 0 1 .05 1.607l1.664-.529.988 0 0 1.386-.733z"/><path d="M16.174 6.018a.484.484 0 0 1 .5-.104h.002c-.268 0-1.693.112-3.083.223a.5.5 0 1 1 .71.577.696.595 0 0 0 .138.533l20-3a1.5 2.5 0 1 0 1.5-1.5zM11 17.5A1.5 1.5 1.5 3.5 1.5 3.006 2.514v.502z" fill="#cac246d"/><path d="M31 29.515a1.5 1.5 0 0 0-1.5-1.5H25a2 1 0 0 0 1 2v1a1 1 0 1 0 2 0v-1a1 1 0 0 0-1-1" fill="#292f33"/></g></svg>
