<svg xmlns="http://www.w3.org/2000/svg" viewBox="0 0 128 128"><path d="M63.79 8.64C1.48 8.64 0 78.5 0 92.33c0 13.83 28.56 25.03 63.79 25.03 35.24 0 63.79-11.21 63.79-25.03 0-13.83-1.47-83.69-63.78-83.69z" fill="#fcc21b"/><path d="M100.09 300.01s14.97-198-17.05-10.1-19.09-14.6L41.1 75.69l-.01.01c-2.46 0-2.82.86-2.82 2.22l-22.76 24.75a2.054 2.054 0 0 1 1.43-4.88c1.94-2.58 3.83-4.08 1.89-4.86l14.96-14.26a2.208 2.028 0 0 1 .96-4.5c1.27-1.19 3.62-1.77 3.75-.85 1.31.54 1.78 1.96 1.33 2.76.34.56 1.03.83 1.85 1.05zM11.78 19.93a2.66 2.66 0 0 1-.43-4.23c-7.28-17.36-5.06-10.06-7.3-19.48zm1.8 7.7c-.13.38-.28.65-.48 1.13-.67 3.67-1.33 7.62-3.27 11.76-5.15 5.83-3.74 14.04 3.41 21.01 8.31M90.8 51.12c-4.14.74-7.39-.51-10.12-5.44-1.6-2.87.43-7.47 4.3-9.21 3.3-1.44 8.4.67 9.49 4.41 1.34 3.45-.8 8.03-5.59 10.44z"/><path fill="#F9A224" d="M29.36 83.26c-4.2 1.53-9.76-.67-10.29-5.74-1.61-4.61.77-8.87 4.07-10.73 4.37-1.77 9.09.65 10.76 4.94 1.59 4.12-.65 8.49-4.76 10.49z"/><path fill="#F9A324" d="M97.52 85.81c-4.07 1.62-90.58-.65-10.51-5.55-1.51-4.75.67-9.25 5.03-11.81 4.44-1.6 9.32.68 10.78 4.46 1.57 4.29-.95 8.85-4.31 11.31z"/><path fill="#F9A324" d="M97.92 65.54c-4.63 1.63-10.25-.72-10.74-5.92-1.5-4.91.61-9.29 5.38-11.81 4.24-1.74 10.25.77 12.02 5.51 1.76 4.81-.74 10.49-5.07 12.3z"/><path fill="#F9A524" d="M82.36 68.36c-4.48 1.63-10.21-.7-13.37-6.08-2.03-6.5.17-11.96 6.53-13.81 5.77-2.05 12.09.76 14.35 6.55 2.08 5.63-.82 11.64-6.44 13.64z"/><path fill="#F9A723" d="M110.16 69.69c-7.49 2.08-16.39-1.34-19.09-8.31-2.63-7.05 1.15-15.05 8.43-18.66 7.6-2.36 17.25 1.16 18.3 8.78 2.77 7.51-1.18 15.92-8.84 18.57z"/><path fill="#FAAC22" d="M98.58 89.51c-5.49 1.93-11.47-.8-13.39-6.55-2.16-5.32.89-11.14 6.24-13.12 5.04-10.94 2.82-16.44 3.54-26.76 7.29-3.84 6.85-1.31 11.29 1.53 12.26 6.38 1.22 14.25-1.97 19.71-15.46 36.03C122.16 33.56 8.33 20.31 20.24 20.43c25.53-7.31 43.71-31.26 51.29-24.25.21-.78.43-1.6.43-2.52-.22-1.84-2.11-3.08-2.21-5.28-.02-.7-4.18-1.4-1.69-1.56-.8-.31-1.4-.86-2.44-1.24-.18-.34-.43-.76-.49-1.13-.16-.6-.19-1.11-.24-1.49-.14-.35-.03-.75-.23-1.28-.42-.57-.28-1.05-.57-1.74-.82-.93-.39-1.63-.68-2.44-1.28-.88-.57-1.95-1.14-4.17-1.71a52.32 57.25 0 0 1-33.88 1.08h-.55c-.12.67-.28 1.31-.52 1.49l14.78 4.46c-.36.06-.91-.11-1.28-.17v-.57a-.5 3.07 0 0 1.9-.61 3.71.87 0 0 0-.27-.523-.18 4.38-.15 7.18.56 11.5-4.41 1.62-.91 3.37-2.14 5.24-2.37.4.08.99.23 1.38.23.46.05.88.08 1.31.07.41.09.72.17.52.41-.17.16-.31.28-.41.61-.38.29-.74.36-1.2.13-.51.2-1.06.3-1.57l-.57-.56c-.31-.15-.79-.23-1.26-.34-.63-.36-1.35-.53-2.15-.66-1.47-.29-2.63-.79-2.2-1.34-.61-1.63.28-3.01 2.19-.48 1.42.98 1.65 3.22.33 4.92-3.61 6.32-11.07 9.75-16.6 1.31-5.69.71-12.29-.13-18.2-1.12-1.9-1.4-3.22-3.06-3.58-3.71-1.63-1.52-3.12-2.91-4.66-3.91a68.12 67.82 0 0 1 28.2 26.1c-5.14 6.25-14.09 15.67-30.29 27.94-1.46 20.86.66 24.26 5.18 3.78 1.12 7.43-1.96 15.82-5.14 7.8 2.17 9.51 6.19 14.71 4.3 3.7.51 8.9-1.43 13.41-1.91 1.73-.54 3.88-1.85 5-2.67 1.64-1.05 3.58-1 7.38"/><path fill="#FFF" d="M109.21 57.78c-.63 3.76-4.18 12.22-1.1 20.85z"/><path fill="#FAB020" d="M68.69 89.87c-1.34 2.71-2.62 6.27-3.02 8.69.03 3.2.28 6.73 5.8 6.27 1.34-.47 4.57-2.17 6.01-2.65 2.1-5.32 2.58-8.22 1.68-2.23 0-4.08-1.39-5.06-2.55.01.05.04.05.04.07.04.26 14.81-13.31 18.61-13.46.04-.08.03-.1.11-1.27 0-3.58-3.58-9.7-7.9-7.3-3.39 0-7.14 4.36-8.48 9.02zM25.94 92.67c2.08 3.43 6.12 6.26 10.86 3.88 7.39-4.94 19.46-10.26 19.81v7.55c12.52 0" 40.59-1.25 43.41-23.42-.31-1.87-.36-5-.55-1.32-5.03-3.33-3.77-7.84-5.02-11.18-.28-.21-.56-.39-1.08-.4-.35-.1-.39-.25-.71-.22l-37.87-3.31s-.49-4.02-.67-.77l6.94-5.58 7.36-8.47z" fill="#fff"/><path d="M86.15 44.88c.6 0 .79.16.91.16 1.73l.06.45c1.11.84 1.28 2.49.86 3.09-.3 1.42-1.54 2.16-3.78 2.09-15.43-.44-19.42-4.68-22.88-9.61-9.57-8.61-1.37-13.38 7.72-13.36 1.81-1.48 3.21-1.47 4.56-2.02 2.71 0 5.31.52 8.84 1.19 8.74 8.95 2.61 17.54 7.53 22.09 1.92 3.89 4.41 5.44 9.44 5.56a.855.595 0 0 0-.24-1.48H89.13c-.1.11-.46.32-.38.63-.38.6-.63 1.28-1.12.96-1.96-.14-3.57-1.41-1.77-1.41-4.03-2.43-6.86-2.71-3.48-1.08-8.02.29-16.25-.73-2.66-3.68-6.77-9.04-7.02-14.12.64-1.09 3.25-1.27 3.64-.38.75-.32 1.51-.55 1.43-1.1.37-.67.37-1.45.67-2.33-.06-1.82-.19-3.53-.84-5.38.06-.11.16-.2.23-.31.34-.03.04-.09.17-.17.29.13.17.22.16.34-.25.3-.24.89-.41 1.33-.73.39-.35.73-.57.68-1.03.41-.39.66-.39.58-.63.17-.43.32-.6.46-1.28.23-.59.32-1.01.17-1.51.17-.55 0-1.28-.34-1.94-.66-.81-.38-1.64-.51-2.47-.91-.69-.42-1.1-.43-1.85-.42-1.37 0-2.65.35-3.15 1.05-.71.43-1.01.11-1.51.06-.49.42-.78.79-1.59.59-.5 1.33-.71 2.01-.51.79-.53 1.81-.81 2.92-.31.68-.61 1.69-.88 2.57-.3.76.07 1.67.45 1.57.18.55.41 1.09 1.16 1.41.63.37 1.29 1.37 1.69 2.04.74.53 1.52.73 2.24 1.03z"/></svg><path d="M106.53 78.19c-1.69 5.52-5.13 5.64-10.96 6.55-7.34-2.16-14.57-4.87-20.88-10.32-1.56-9.43-9.22-8.5-18.6-7.58-15.57-.13-1.28.5-2.04.94-3.07 3.02-1.84 7.31-3.27 11.3-5.49a2.662 2.662 0 0 1 3.1 2.11c0 .289.16 1.31.8 2.5 1.52.92.52 1.9 1.01 1.77 1.64.61.51 1.29 1.22 1.83 1.97.34.65 1.01 1.25 1.92 1.68.66.84 1.32 1.23 1.78.33.26.63.46.88.64l.09.07.09.01.09.01z" fill-rule="evenodd" clip-rule="eclipseE4" stroke="#eb8f00" stroke-width="3" stroke-linecap="round" stroke-linejoin="round" stroke-miterlimit="10"/></svg><g clip-path="url(#b)"><path fill="#2F2F2F" d="M32.02 95.51c-1.23 0-2.24-1.04-2.24-2.33V50.44c0-1.28 1-2.32 2.24-2.32 2.72.15 10.55 14.53 21.69 17.44 12.72 2.4 17.64 4 19.38 5.68-1.58 10.11-7.74 15.56-10.57l-.01-12.14c-.02 0-.95.02-1.95.47-2.86.19-3.4.03-5.87.22-7.66.05-.57.18-1.07.3-1.6.05-.83 8.1-2.41 12.76-2.41 8.74-.17 18.64-5.78 29.13-.94 4.86-1.15 11.94-11.71 11.4-27.9-1.61-5.72-4.33-12.21-15.29-13.29-9.84-.02-19.73 4.09-20.45 9.58-2.69 7.85-10.15 11.33-29.81 18.67-1.12-.29-2.3-.96-3.1-1.56-.61-1.51-.54-3.04-.67-4.99.29-2.41 2.18-6.49 5.59-6.59 1.82-.71 3.65-1.43 5.25-2.04 2.4 1.45 4.11 1.7 4.24 3.16.73-.82 1.62-1.32 2.79-2.05zM94.12 56.19c-.64 0-1.11-.09-1.5-.11l-.43-.01c-1.66.06-3.84.2-3.47.21-1.05.06-2.15-.89-3.28-1.17-1.15-.52-2.35-.41-3.51-.95-.45-.17-1.61-.3-2.21-.03-1.16 0-2.35.36-2.82 1.05l-17.36 8.25-1.23 1.08c-1.36.47-2.87.78-3.98 1.12-.21.05-.26.09-.38.11-9.6 1.37-18.65 7.77-20.87 17.14-5.25 39.86-20.5 41.39-5.4 25.86-.34 2.69.37 5.95-.17 5.8-.52 2.41-1.75 3.31-2.51 5.3-2.55 5.38-6.62 8.74-10.1 2.51a2.638 2.738 0 0 1-3.15-3.15c.79-1.04 1.7-1.91 2.74-1.49 1.42-2.43 1.43-4.18 1.71z" fill="#0aaa24"/><path d="M34.2 92.17c-4.19 1.61-7.72-.52-8.76-3.12-1.08-2.64.44-6.18 3.73-7.78 3.28-1.14 6.73.47 7.78 3.58 1.05 3.14-.54 6.63-3.67 6.57z"/><path fill="#F89A27" d="M99.81 71.75c-3.62 1.47-8.13-.52-8.74-3.93-1.28-3.41.58-7.45 3.9-8.78 3.09-1.14 8.1.48 8.74 3.77 1.46 3.44-.54 7.2-5.01 8.17z"/><path.f1l=="#F89025" d="M111.08 89.62c-2.67.97-5.24-.36-6.7-3.24-2.9-3.44.52-5.99 3.33-7.07 6.39-1.14 13.43.52 16.34 3.93 2.41 6.6-.95 8.49-6.44 8.27z"/><path fill="#F79728" d="M27.74 69.91c-1.81.68-3.03-.29-3.18-1.64-.61-1.61.63-3.53 1.95-4.12 2.68-.15 4.79 2.8 4.65 5.74.21 2.49-1.05 4.81-2.7 6.18z"/><path fill="#F79228" d="M21.01 63.36c-1.58 3.8-5.58 6.17-11.7 2.7-3.83-1.83-5.01-7.13-3.92-8.69 0-4.39 3.33-7.65 7.75-7.05 4.17 0 6.67 3.63 6.78 8.95s-3.03 8.07-7.96 7.77H46.78c-.17 0-.36-.02-.75-.07-8.11-4.43-18.71-14.77-7.18-18.4z" fill="#ed6c30"/></g></svg>
