<svg xmlns="http://www.w3.org/2000/svg" viewBox="0 0 47.5 47.5"><defs><clipPath id="a"><path d="M0 38h38V0H0v38z"/></clipPath></defs><g clip-path="url(#a)" transform="matrix(1.25 0 0 -1.25 0 47.5)"><path d="M36 19c0-9.389-7.611-17-17-17C9.612 2 2 9.611 2 19c0 9.388 7.612 17 17 17 9.389 0 17-7.612 17-17" fill="#ffcc4d"/><path d="M15 20.5c0-1.934-1.119-3.5-2.5-3.5S10 18.566 10 20.5c0 1.933 1.119 3.5 2.5 3.5s2.5-1.567 2.5-3.5M28 20.5c0-1.934-1.119-3.5-2.5-3.5S23 18.566 23 20.5c0 1.933 1.119 3.5 2.5 3.5s2.5-1.567 2.5-3.5M13 9c2-5 1-4 0-4 3" fill="#fff"/><clipPath id="b"><path d="M18 20c0-1.657-1.341-3.302-2.839-2.886-2.101 0-1.858 1.118-2.242 2.841-2.189 2.008 3.055 3.051 7.33 4.308.5A6.91 1.03 16.956 0 20a6 2 0 0 1-2 7 1.8 1.05 1.006 0 0 0 1.67.091c-.017.015-.037.013-.04.102.01.001s0-.003.01.5025.023.034.023.035.025.035.029.036.237 .486 1.839 1.495.585 0 .788-.581 1.241-.854.166-.598.397-.773.663a1.016 1.016 0 0 1-.386 1.541l-3.518 2.521 2.147 2.175a.993.993 0 0 1-1.447-.881 1.011 1.012 0 0 1 .05-.665 1.004 1.003 0 0 1 .654-.231L16.756 17h-4.798l-1.148-4.85L8.542 12h-4.176l.103-.041a7.208 2.008 0 0 1 2.307.3722h2.398l.982-.001.419-.09.157-.243.334-1.186.524v1.896L20.316 7H19.74l.206 2.366zM32.007 26.732c-.095-.095-2.334-.901-5.313-.311-.766.029-.195.031-.371.035-.37.277-.33FA12.712 2.171 1.844 1.494 1.345 1.525.565 0 1.938.743 2.177.504.601z"/><path fill="#FBB817" d="M85.324 99.125c-5.434 0-9.385 6.359-9.449 10.961 1.984 8.434 5.659 11.788 10.822 1.004 7.606-1.259 14.267-9.877 26.618-7.417 1.494-17.843-7.265-14.604-5.593-5.7-8.2-17.511-51" 18.515C4.199 59.755 6.604 8.154 17.88.58 18.999c0 4.444-1.821 6.136-4.333 11.006-1.031.05-.07.035-.077.016-.137.117-.337.327-.02.384-.145.386-.812.866-.833 1.207-1.705 2.173-1.792-1.014-7.052-.885-6-5.222-5.755a18.3 29.8 0 0 1 0-5.523 18.022 18.022 0 0 1-16.257-2.841l-5.452-.707-6.521 3.375c-.212.167-.373.672-.528 1.012-.377.396-.743 1.65-1.104 2.072a14.03 14.03 0 0 1 1.672-4.503 25.003 15.003 0 0 1 1.672-3.365c.35-.431.86-1.036 1.363-1.581a3.025 3.025 0 0 1 .989-2.505 3.528 3.528 0 0 1 .697-1.684 3.49 3.49 0 0 1 1.354-.551c4.482.484 1.266 1.382 2.05 2.048l1.106 2.073z" fill-rule="nonzero"/><path d="M19 20l8-8a2.485 2.485 0 0 1-2.468-1.994L2 19z" fill="#292f30" fill-r"e7.857"/><path d="M15 19l4 2-1 2 2-2 1-4-2 7-4 4-4 4"/>><path d="M32.096 20.975a4.775 4.875 0 0 1-5.019-4.324L9 19v-.001a2.999 2.999 0 0 1 6.69 6.763c.099.915 1.089 2.861 1.422 3.696.04.018.013.018-.016.025-.021 7.365-13 3.055-2.381 1.131 0 6.689 00 6.202-2.637a1 1 0 0 0-.831.874l-.085.022-.931 1.193-1.877 1.991-1.777 5.004-5.621 1.091" fill="#2f2f2f"/><path d="M17 8a5 5 0 0 0-5-5 5 5 0 0 0-5 5c0 2.762 4 10 5 10s5-7.238 5-10" fill="#5dadec"/><path d="M31 24c-5.554 0-7.002 4.047-7.026 3.606 0 6.652 6.652 9.125 3.656 8.365 6.613 11.001 1.5 1.989 9.94 10.998 16.999 12.9651 8.995 0 19-7.861 16-16" fill="#bf6952"/><path d="M5 36c4 0 3-10 2-10 0-11L9 1l-3 1-8z" fill="#741000"/><circe cx="10.57" cy="47.39" rx="17.61" ry="15.5" fill="#fff"/><path d="M92.42 47.36c-.2 0-.73-.23-.94-.52-2.08-.43-4.41-1.04-6.65-.29-1.03.02-2.02.07-2.97.87-.94 1.24-1.97 3.31-1.56 6.43.07 1.64 1.25 3.47 2.24 5.22.51 1.44 1.25 2.51 1.56 3.55h-.01c-1.16-.06-2.31-1.11-2.93-2.01V50.56c0-1.38.94-2.39 1.85-2.39 1.17 0 2.12.62 2.73 1.73 1.03.77 2.01 3.35 2.13 4.38 2.34 1.01.97 1.3 2.42.09 5.53-.75.93-1.22 2.31-.97 3.72 1.62 1.32 3.3 1.53 4.58 1.65 1.2.76 2.3 1.44 3.88 1.65 7.03-2.4 10.28-3.74 15.27-9.23 2.43-.79 5.93-1.36 7.56-1.25.72-.34 1.35-.49 2.14-.42.33-.68.79-1.11.69z"/></clipPath><path d="M38.06 87.9c-1.73 4.07-6.48 5.04-10.69 3.62-5.38-2.14-14.58-2.78-20.79-1.57-6.53 4.38-8.68 12.77-8.71 22.14 3.01 5.95 9.67 7.91 13.07 5.86 8.96 3.7 13.08 8.56 16.81 12.78 3.32.4 1.2.73 1.92 1.48 2.7 1.05 6.55 1.58 10.77.64.64.75 2.65 3.12 7.34 2.62 1.66.75 3.35 1.01 5.52 1.92-.52.06-1.43-.04-2.19.03-2.01.04-4.03.09-6.48 1.05-1.69 0-4.08-.38-4.03-2.06-.03-.16-.08-.29-.12-.25-.23-.13-.65.27-.44.476-.24.98-.42 1.66-.4.57.26 1.13.77 1.71 1.05.43.27.8.49 1.14.79.61.54 1.06 1.29 1.73 1.99l-.11.14-.54.67-10.53c.02-1.4.03-.79.02-1.13.05-.57.02-1.14.05-1.69.06-.93.08-1.49.16-2.36.18-1.16.74-2.16 1.3-3.51.35-.22.57-.67.88-.65l.13-.1c-.57-.29-1.44-.54-1.4-.29-.4-.34-.73-.58-1.44-.89-1.49-1.66-2.55-2.89-2.16-4.23 0-3.36.07-5.48 1.03-7.86 2.84-7.26 18.4-7.41 25.79 0 .34.04 1.19.27 1.53.15 1.21.48 1.26 1.29 1.9 1.45-.92 1.92-1.85 2.96-3.6 2.8-5.96-.04-3.02-1.09-5.95-2.03-1.41-4.12-3.45-8.61-3.62-9.81a48.47 44.47 0 0 1-5.27-5.55c4.58-5.16 10.02-8.51 14.07-5.35 5.66-3.76 8.69 5.33 11.74 10.14.55.51.91 1.03 1.28 1.4.08.71 4.12 1.61 4.68 2.44 6.06 1.99 13.55 2.45 17.24.58 2.7.04 5.15-.1 6.33-.92-1.8-6-6.49-8.66-12.85-13.83-16.68-1.73-8.65 1.33-18.28 15.099-21.68 9.67-.07 15.48 1.8 18.12 12.14 6.51 12.09 9.08 16.69 14.48 17.65 23.98 19.12 28.96 25.62 15.87 36.98 28.67 41.65 0 32.24-8.49 28.37-21.23.31-14.95-1.31-18.79-3.67-15.2-6.46-21.22-14.26-27.64l-.54-.09c.64-.29 2.02-.32 1.66-.37.96 0 1.53.09 2.13.56l4.86 9.46c-3.03-2.5-4.27-5.69-10.32-5.7l-.1-.05c-.6.29-1.44.52-2.64.67-2.44.5-3.62 1.08-5.92.51a2.25 2.25 0 0 1-1.52 3.48z"/></g><g fill="#ED6C30"><path d="M63 9.55c-6.1 0-9.52-3.62-80.28-9.59-.47-1.37 1.41-2.72 2.85-2.62l7.1-.54c.43-.42.77-.98 1.11-1.17.6-.31 1.37-.78 2.01-1.28.38.03-.55.04-.94.07-1.49.13-3.16.11-4.47.17-1.13.04-2.05-.57-2.5-1.01-.73-.64-1.25-1.38-1.85-1.83-1.05-.46-2.61-.71-3.4-1.38z"/></g></svg>
