<svg xmlns="http://www.w3.org/2000/svg" viewBox="0 0 128 128"><defs><path id="a" d="M15.87 32.75C35.15 17.83 57.14 21.19 64 10.64c28.99-13.81 54.98-63.64 58.95-24.65 41.64 0 28.64-4.65 39.06-43.69C22.4 45.77-28.4 63.29-29.65 64-50.05C124.65 1.27 50.18-4.56 54.88l-9.98V40.95z" fill="#fc9739"/><path d="M87.46 40.87s.06-.41.1-.8.11-1.66 1.48-2.85 4.1-4.31 5.5a3.3 3.31 0 0 0 2.99-1.76l14.96-16.26a2.012 2.013 0 0 1-3.3-.03 2.562 2.652 0 0 0-.36-3.35c.13-.25 2.58-6.58 11.25-6.51 17.51-1.03 4.65-1.78 7.63-2.62 10.71-.07 1.55 1.19 3.1 3.25 2.04l1.65 1.46c-.01.42-.19.72-.27 1.38-.07.01-.05.01-.08.01z" fill="#fcc8fb"/></defs></svg>
