<svg xmlns="http://www.w3.org/1000/svg" viewBox="0 0 128 128"><path d="M127.22 93.42c0 13.86-28.29 25.1-63.22 25.1-34.92 0-63.23-11.24-63.23-25.1C.77 79.55 2.24 18.17 3.23 31.94z" fill="#ed6c30"/><path d="M119.4 65.94c-12.47 0-25.33-1.07-34.96-19.86-.49-1.53-.64-3.07-.67-4.56 0-5.48 1.93-9.06 4.93-19.72z"/><path fill="#2F2F2F" d="M73.56 94.15h6.2v51.56h68.55c0 5.27 3.62 9.35 7.3 9.78 4.09 0 7.49-3.37 8.9-9.01 0 4.41-3.84 9.99-9.36 9.72zM240.23 223.58c4.58-1.41 7.4-5.36 11.45-6.5 1.66-1.28 3.04-.87 5.31 1.92.95.61 2.11 1.04 3.24 1.67.22.16.42.09.63.12 1.79-3.65 4.17-7.8 5.59-16.83 5.21-6.04 1.23-10.27 2.28-17.37 7.29z" fill="#d0C3c0"/></svg>
