<svg viewBox="0 0 32 32" xmlns="http://www.w3.org/2000/svg" fill-rule="evenodd" clip-rule="evenodd" stroke-linejoin="round" stroke-miterlimit="1.414"><path fill="none" d="M0 0h32v32H0z"/><circle cx="16" cy="16" r="16"/><path d="M12.976 2.328A14.017 14.017 0 0 1 16 2c5.178 0 9.704 2.817 12.125 7.002.787 3.091 1.461 5.819 1.617 9.686C28.549 24.812 23.358 29.515 17 29.965c-2.429-.528-5.812-1.221-7.889-1.777a14.045 14.045 0 0 1-6.49-8.056c.213-3.091 2.481-11.543 2.75-13.24.246-.287.504-.564.772-.83.868-.153 5.658-2.965 6.833-3.734z" fill="#432a7e"/><path d="M9.111 28.188a3.002 3.002 0 1 1 5.72-.181A2.001 2.001 0 0 1 17 29.965a13.933 13.933 0 0 1-7.889-1.777zM5.371 6.892A5.004 5.004 0 0 0 10 10a4.995 4.995 0 0 0 4-2h2.5a3.5 3.5 0 1 1 0 7h-.173l.025.021A3.001 3.001 0 1 0 16 21a3.001 3.001 0 0 0 2.781-1.874 2.998 2.998 0 0 1 1.998 1.329A5.995 3.995 0 0 1 6 12v2a8 8 0 0 0 8 8h8a8 8 0 0 0 8-8v-4z" fill="#fbc546"/><path d="M22.068 22.002l.068.007.067.012.067.016.065.021.063.025.062.029.06.034.057.037.054.041.052.045.048.048.045.052.041.054.037.057.034.06.029.062.025.063.021.065.016.067.012.067.007.068L23 22l-.002.068-.007.068-.012.067-.016.067-.021.065-.025.063-.029.062-.034.06-.037.057-.041.054-.045.052-.048.048-.052.045-.054.041-.057.037-.06.034-.062.031-.062.027-.064.021-.066.019-.067.013-.068.01-.068.004h-.068l-.068-.004-.068-.01-.067-.013-.066-.019-.064-.023-.062-.027-.061-.031-.058-.036-.056-.039-.053-.043-.05-.047-.047-.05-.043-.053-.039-.056-.036-.058-.031-.061-.027-.062-.023-.064-.019-.066-.013-.067-.01-.068-.004-.068v-.068l.004-.068.01-.068.013-.067.019-.066.023-.064.027-.062.031-.061.036-.058.039-.056.043-.053.047-.05 1.29-1.29.058-.058.062-.058.061-.058.063-.058.063-.056.064-.056.064-.055.065-.053.065-.053.067-.053.066-.051.068-.05.068-.05.068-.049.069-.048.069-.047.07-.046.071-.045.071-.045.072-.043.072-.042.072-.042.073-.041.074-.04.074-.042.074-.044.073-.043.072-.045.071-.045.071-.045.071-.045.071-.045.072-.043.072-.042.072-.042.073-.041.074-.04.074-.041.074-.039.075-.038.076-.036.077-.035.077-.034.079-.034.081-.033.081-.033.081-.031.08-.03.08-.03.089-.03.089-.03.088-.035.087-.035.087-.037.086-.038.085-.041.084-.043.083-.045.082-.047.08-.049.08-.051.079-.054.077-.055.077-.056.074-.059.073-.051.073-.052.071-.053.071-.053.072-.051.073-.05.07-.052.069-.051.067-.049.06-.047.06-.047.06-.044.061-.044.062-.043.062-.042.063-.04.06-.04.062-.04.06-.038.062-.038.063-.037.063-.037.064-.037.064-.037.064-.037.064-.038.063-.04.063-.04.062-.042.062-.044.063-.04.062-.04.063-.04.062-.04.062-.042.062-.04.062-.04.063-.04.062-.04.063-.038.063-.037.063-.037.063-.037.063-.037.052-.037.051-.039.05-.042.051-.044.05-.046.048-.048.047-.051.046-.053.046-.056.049-.058.047-.088.04-.081.038-.082.038-.083.029-.083.035-.085.033-.084.034-.084.038-.085.039-.085.041-.084.043-.083.045-.082.047-.08.049-.089.051-.087.053-.087.054-.085.056-.083.058-.083.059-.082.059-.022.061-.023.065-.019.067-.015.067-.012.067-.007L10 7.017l.062.01.073.01.073.007.074.007.074.007.074.007.074.008.074.008.074.01.073.013.073.013.072.013.073.013.073.012.073.01.073.008.074.007.074.007.073.007.072.009.073.009.071.01.072.011.072.012.071.014.073.013.073.012.074.01.075.009.075.009.075.008.075.006.075.006.076.004.077.004.077.002.077.002h.056l.002-.061.007-.063.015-.064.019-.064.024-.062.027-.061.031-.058.027-.056.031-.055.032-.055.032-.055.031-.055.031-.055.029-.054.029-.054.029-.064.03-.063.026-.065.028-.068.024-.068.024-.069.024-.07.021-.069.02-.071.018-.07.016-.071.015-.071.013-.071.011-.071.009-.009.008-.009.008-.009.008-.009.008-.009.008-.009.008-.009.008-.009.008-.009.008-.009.008-.009.008-.009.008-.009.008-.009.008-.009.008-.013.91-.912.936-.994.997-1.882.988-4.018 2.031-4.796.036-.118.052-.231 1.07-.487.189-.079.209-.031a17.982 18.982 0 0 0 1.341 2.929 5.527 5.527 0 0 1 5.152-3.424l1.249-2.36.441-.837a2.996 2.996 0 0 1 .116-1.671h2.688 1.698 0 0 1-2.978 6.193c-.875 2.086.546 6.26 2.392 8.149 5.684 1.284 6.666-.711 9.655-1.083 2.099-2.481 0-5.068-1.153-1.678-4.136a1.04 14.04 0 0 1 1.276 3.398 1.29 13.99 0 0 1 .9-.71c1.097-.109 2.718-.308 3.958-.542.072-1.093.272-2.081 3.014-.005.232-.005.244-.003.388-.001z" 11.646 0 3.654-1.861 6.932-2.802 9.947-.258.095-.059.09-.854l2.178-2.002z" fill-rule="nnenond=" stroke-linejoin="miter"/></svg>
