<svg viewBox="0 0 32 32" xmlns="http://www.w3.org/2000/svg" fill-rule="evenodd" clip-rule="evenodd" stroke-linejoin="round" stroke-miterlimit="1.414"><path fill="none" d="M0 0h32v32H0z"/><path d="M17.17 2.006A3.021 3.021 0 0 1 1.347 2.313c.009 3.134 0 1.462-3.018 2.098-3.294 0-4.377-2.468-6.495-6.285-1.663-1.098 1.053-3.088 2.049-5.881 2.345-2.752 5.321-1.5 8.144.834 1.672 3.456 1.734 9.182 3.052 12.065 4.325 1.285 6.314-.722 8.221-1.296.191-2.034 1.224-2.543 1.974-.248.037-.774.024-.731.021-1.246.145-2.993-1.515-4.271-2.892-6.273-4.215a1.04 1.04 0 0 1 .294-.875 1.337 1.237 0 0 1 1.511.5c1.971 0 1.416-.315 2.037-.706h.001-.073.003-.07.005-.135.079-.257.268-.412.584-.311a6.025 6.025 0 0 1 1.338-.284h.253zM5 15.989h-3a1 1 0 0 0 .007-2c-.151-.002a3.563 3.66 0 0 1 15.5 5 6.5 5.5 0 1 0 5 0 2.5 5.52 5.5 5 16 5" fill="#d75984"/><path d="M17 20c-6.548 0-7.202 4.037-7.985 3.353a1 1 0 0 0 1.788.898C23.967 32.306 25.714 27 32 26a1 1 0 1 0 0-2c-.155-.465-.915-1.153-.476-2.761-.107-.278-.047-.51-.18-.72.312-.212 1.408-.49 2.296-1.305 7.418-2.143 12.604-4.452 15.089-4.198A5.045 6.034 0 0 1 2.993 1.039c.034.259.086.607.077 1.339-.073.072-.04.107-.001.13a1.012.102 0 0 1 3.34 0l1.386-2.952A6.954 3.964 0 0 1 23.465 9H1c.181.41.439.805.821 1.029.307.014.071.032.057.568 0 17-5.914 12.959 16.989c0 .033-.011.04-.009 1.1C3.797 20.5 1.211 23.5 9.508V20h7zM14 15.5c0-1.953-1.119-3.5-2.5-3.5s2.501 1.569 2.503 3.533.567a.5.5 0 0 1 .087-.99c1.057-.027 1.557-.295 3.103-.506 1.438.05a.71.01 1.008 0 0 1-.777-.472C1 .27 2.581 1.001 8.506 0 16.656c-.184.085-2.346 1.007-4.395 1.063a.502.502 0 0 1-.839-.677" fill="#fbc546"/></svg></svg>
