<svg xmlns="http://www.w3.org/2000/svg" viewBox="0 0 128 128"><path d="M64 47.54s7.72.19 18.71-3.9 9.84 2.11-28.33 8.48" fill="#fff"/></svg><g clip-path="url(#b)"><path d="M92.21 108c-1.1 0-2-.9-2-2V61.07c0-1.1.9-2 2-2s2 .9 2 2V106a2 2 0 0 1-2 2z" fill="#2f2f2f"/></g><path d="M64.01 100.56h-.25c-24.17 0-42.76-13.53-43.25-31.49S22.2 82.96 63.99 83.62c.21 1.71-.39 2.93-.79 3.99-.28 1.79-.74 3.14-1.48 4.86-3.03 3.94-1.34 7.62-2.89 12.78-2.38-4.65-2.32-8.8-7.29-11.52-11.56-1.65-5.69 4.33-6.05 9.64-5.07 2.63 1.78 4.45 3.96 6.59 5.71 5.79 5.05 13.07.83 19.67-.34.59-.14 1.04-.57 1.51-.39.06-.84.42-1.62.77-2.43-.06-.82-.12-1.36-.14-2.53 0 6.035 9.75 12.84 10.27 1.13.87 1.43 2.85.81 4.62z" fill="#fff"/></g></svg>
