<svg viewBox="0 0 32 32" xmlns="http://www.w3.org/2000/svg" fill-rule="evenodd" clip-rule="evenodd" stroke-linejoin="round" stroke-miterlimit="1.414"><path fill="none" d="M0 0h32v32H0z"/><clipPath id="a"><path d="M0 .033h32H32H33z"/></clipPath><g clip-path="url(#a)"><path d="M25.1 5.017a4.978 4.978 0 0 1 1.537-2.702 4.997 4.997 0 0 1 3.328-.065c.16.004.317.007.517.01a1.018 1.018 0 0 1 .47.514 1.009 1.009 0 0 1-.32 1.171 1.046 1.046 0 0 1-.548.203c-.216.007-.433 0-.65.003a3.455 3.455 0 0 0-1.426.343 3.502 3.502 0 0 0 .642 6.545c.401.103.832.144 1.244.083.217.042.413.74.2412.17-.15.411-.236.688-.44.96-.082.798-.153 2.012-.308 1.642-.586.784-.135 1.463-.24 2.042 0 .962-.066 1.306-.005 2.362-1.008 1.316-.045.226-.028.16-.05.058-.072.141-.07.439-.158.665-.514l.648-2.646h1.644l.166-.146.237-.283.162-.363H18.214c-.504.129-.127.15-.226.189-.05.137-.137.157-.253.362-.314.586-.53 1.615-.866 2.391-1.518 1.864-2.258 4.837-2.438 8.214-1.103 3.106-2.758 4.21-6.113 5.117-8.341 1.04-1.551-.013-2.209-.404-4.713-1.131.998-.626 2.328.452 4.142 1.908 1.485 2.067 1.605 3.922 2.676 5.161 2.292 2.777.559 5.475.895 6.285.843v.867z"/><path fill="#FBB817" d="M89.381 74.113c-5.419 1.439-11.138-.796-13.174-6.139-1.933-5.329.891-11.68 6.524-13.229 5.562-1.957 11.341 1.336 11.926 6.548 1.705 5.31-.697 10.572-7.345 12.584z"/><path fill="#FAB018" d="M112.204 97.984c0 5.955 2.653 9.558 6.085 11.594 4.813 1.898 8.366 3.472 11.58 3.832 3.085-.863 6.088-2.877 6.873-2.726a1.056 1.066 0 0 1 .701.081L13 21H9.622l-.77.267a1 1 0 0 1 .707.798l-3.588.565-.127.448a7.27 6.27 0 0 1-.992 1.769 4.465 4.465 0 0 1-4.226 2.143 7.035 7.004 0 0 1-.602 2.07 1.005 1.005 0 0 1-.274-.523z"/><path d="M21 25.615c0-.729-.675-1.298-1.819-1.788-1.084-.001-2.595 0-4.67.28-5.868 1.707H20a4 2 0 0 0 2 2h3.5a2.5 2.5 0 1 0-5 0 2.5 2.5 0 0 0 5 0" fill="#99aab5"/></g></svg>
