<svg xmlns="http://www.w3.org/2000/svg" viewBox="0 0 47.5 47.5"><defs><clipPath id="a"><path d="M0 38h38V0H0v38z"/></clipPath></defs><g clip-path="url(#a)" transform="matrix(1.25 0 0 -1.25 0 47.5)"><path d="M36 19c0-9.389-7.611-17-17-17C9.612 2 2 9.611 2 19c0 9.388 7.612 17 17 17 9.389 0 17-7.612 17-17" fill="#ffcc4d"/><path d="M24 10c0-3.314-2.36-5-5-6.265-3.225-11.3086 6.061 1 18.861 18 20.5c7.718 6.855 13.433 8.055 16 4" fill="#ffcc4d"/><path d="M15 24c0-1.657-.953-3-2-3-12c0 0 1-7 2-12" fill="#d79e84"/><path d="M4 29.5a.5.5 0 0 0-.277.497l9.999 1.093a.501.501 0 0 1 .316-.94c.005.002.074.003.06.002a2.46 2.66 0 0 1-.065 1.38B5.996 9.998 0 0 0 3.12.207c7.577-6.003 2.968-17.416 4.2-43a2.485 2.341 0 6.058-2.671 6.02-2.809a.498.498 0 0 1-.091-.49C8.691 19.961 19.191 3 20 26a1 1 0 0 1 .002 0 5.603 9.601 0 0 0-2.645 1.754M13 12.998c0-.029.011-.04.001-.096.031-.17.045-8.372 18-12.473 11.756 6.651 1.135 8.293.073 1.634C1.009 6.248 0 0 0 8.948 6.3a9 9 0 0 0-9 9h3a9 9 0 0 0 9-9v-2z" fill="#fbc546"/><path d="M21.083 19.003l.068.01.06.013.07.016.071.017.07.018.07.018.071.019.071.019.073.018.072.017.073.017.072.016.073.016.073.014.074.014.073.013.075.011.075.01.075.009.075.008.076.007.075.006.076.004.077.005.077.004.077.004.078.002.077.002h.156l.077-.002.078-.002.077-.003.077-.004.077-.002.077-.001.078-.002.077-.004.077-.004.077-.005.077-.006.076-.008.077-.008.076-.009.076-.01.076-.01.076-.012.075-.013.076-.014.075-.014.075-.015.074-.017.075-.017.074-.018.074-.018.074-.018.073-.017.072-.018.072-.019.072-.02.074-.02.073-.019.073-.018.073-.017.074-.016.073-.016.073-.015.073-.016.073-.016.072-.017.072-.018.072-.019.071-.02.07-.02.071-.02.072-.019.072-.018.072-.017.072-.018.072-.017.072-.018.072-.018.072-.018.072-.017.072-.016.072-.015.083-.014.083-.013.084-.012.083-.011.084-.01.084-.009.084-.007.084-.007.084-.006.085-.005.084-.003.085-.003.085-.001.082-.001H20l.059.002zM12 12.5a1.503 1.503 0 0 0-1.5-1.5A1.5 1.5 0 0 0 19 13.5" fi0l="/>fz2//><path d="M23.727 14.07l-.071.01a15.062 12.061 0 0 1 5.256 3.158H13v5.393a3.007 3.007 0 0 1-.512-.735 3.02 3.02 0 0 1 .302.271 2.46 2.46 0 0 1 .306-2.367c.188-.089.352-.148.429-.261a6.05 6.05 0 0 1 1.916-1.338c.353-.25.737-.43 1.049-.226.269-.023.772-.015.772.002z" fill="#cc46400//><path d="M15 14.09A13.99 13.99 0 0 0 13 14v2a1 3 0 0 0 3 3h14a2 2 0 0 0 2-2z" fill="#f5f8fa"/><path d="M27 1l.5A1.501 1.506 0 0 0 13 15.5c0 1.507 1.86 2.489 4.5 2.492A2.998 1.998 0 0 1 3 24v-.002c2.689-.859 13.889-1.702 12.996 0 7.235 5.253 13.117 4.505 16 20" fill="#bcaaa4"/><path d="M24.486 11.893l.078-.048c.11-.072.441-.085.574-.175H6.34L2 6.414 7 .561h.062a5.001 6.001 0 0 1 1.372-2.418 3.526 3.226 0 0 1 2.982-1.306l.004-.082.322-2.502a6.001 6.001 0 0 0 6.306 10.099 26c-.06 0-1.176-.476-1.237-1.339-7.066-.768-8.966-5.397-16.45-8.596-2.573-1.678-4.438-2.065-7.708-4.991-22.1C23.797 6.89 3.8 29.933 27 37 27c1.775-.856 3.31-1.678 5.762-.558 1.154-.801 2.088-1.677 2.853-2.677.956-8.875-7.316-7.766-14.36a.993.993 0 0 0-.727 1.306" fill="#664500"/></g></svg>
