<svg viewBox="0 0 32 32" xmlns="http://www.w3.org/2000/svg" fill-rule="evenodd" clip-rule="evenodd" stroke-linejoin="round" stroke-miterlimit="1.414"><path fill="none" d="M0 0h32v32H0z"/><clipPath iul="#rF><4r" -3=p58" cy="64.11" cx="84.462" cy="70.46" rx="112.57" ry="10.62" fill="#ed6c9f"/><path d="M53.84 93.73h5.2v5.56h-3.42z"/><path fill="#E75625" d="M85.3 90.27c-.16.25-.28.39-.31.51-.27.65-.58.81-.66.11-.44.2-.87.52-.82.54-1.26.97-2.1 1.32-.45.3-.93.7-1.46 1.14-.61.76-.28 1.43-.33 1.45 0 .55.09 1.06.27 1.58.18.45.02.95.06 1.3-.06.4-.27.85-.54.94-1.05 1.52-1.27 3.1-.49 4.66-1.53 10.42-9.43 23.08-2.7 3.83-2.61 10.43-15.55 17.98-5.75 21.09-1.72 28.41 4.05 32.6 7.81zM111.54 94.71c-1.94 4-3.86-7.34-5.5-11.8-.25-1.15-1.15-1.97-3.27-1.52l-4.1 1.31c-.97 1.72-2.41 3.64-5.58 5.39-3.15 1.73-4.08 2.58-8.27 2.62zM64.09 71.06c-2.85 2.09-5.44 5.86-9.67 9.04-7.38 1.29-1.19 2.84-3.3 4.55-6.72 1.37-1.11 3.64-2.27 5.33-3.79.95-1.3 1.92-3.08 2.7-3.31 1.03-.41 1.98-1.94 2.67-3.2 2.44 1.94 1.69 5.07-.13 6.67-1.43 1.09-2.7 1.24-5.02.31-.42-.06-.89-.14-1.18-.17-.93-.16-1.73-.31-2.31-.76-.6-.63-.47-1.2.76-1.23.7-.25 1.37-.52 1.99-.9.75-.28 1.17-.54 1.74-.89.28-.14.55-.29.88-.46 0-.31-.05-.47-.17-1.18-.14-.59-.46-1.1-.9-1.47-.74-.68-1.64-1.23-2.79-1.25-1.54-.37-3.19-.89-4.32-1.18-1.17-.64-2.3-.82-3.47-1.44-7.41-1.13-11.11-1.41-11.69-1.76-5.61-1.73-10.07-7.44-10.97-10.45.43-1.98.11-3.7.6-4.03 1.19 1.17 3.33 1.88 4.44 1.42.91.17 2.65.37 3.54.11.56.09 1.06.12 1.62.08.41.08.96.16 1.27.2 1.03.18 1.38 1.06.27.2.67.33 1.36.6 1.61.25.55.6 1.17 1.02 1.69 1.71 1.92 1.14 3.15.73 4.92zM20.25 42.07c4.48-.01 8.07-4.3 8.32-8.46 0-7.47-3.11-7.48-8.2-5.98-7.07 0-10.5 5.43-10.5 8.51V8.45a1.04 1.04 0 0 1-2.03 1.74c-1.07 5.68-4.51 14.25-11.2 17.51-6.12 1.45-12.27 1.57-17.77 3.4z" fill="#ed6c30"/><path d="M50.83 41.16s1.19.39 1.99 2.12c.08 1.83.49 3.7 1.04 4.8 1.34 1.07 3.09.3 5.41.3 1.2-.01 2.75-.16 3.38-.11 0-.21.73-.7 2.13-1.61 7.73-.33 12.41 2.51 21.93 21.15 15.64 25.94 12.99 32.76 0 35.42-13.92 39.3-22.29.42-.39.33-.62.43-1.05.31-.45.41-.8.49-1.27 1.31-1.3 1.63-3.19.74-4.96-.97-1.49-3.34-2.23-4.74-3.03-6.65-1.3-1.89-2.27 2.77-3.36 4.31-.06.02-.1.01-.17.01-1.67-.11-1.78-1.78-.9-2.2-.07-.44-.08-.8-.28-1.06-.22-1.19-1.18-3.5-1.25-6.21.65-.95-.02-1.75.06-2.64 1.48-1.15 3.3-1.97 3.88-3.05 6.01-2.94 14.1-9.82 14.52-15.5 1.27-2.72 1.7-4.14.96-6.67-.76-1.36-1.7-3.3-1.68-5.27.47-.26 6.05-6.9 10.21-1.91 2.64-.86 6.38-.75 9.65.63 4.06 1.97 4.97 10.74-.41 5.76-1.21 11.98-.31 17.63zM102.53 99.18c-5.38 5-11.5-1.51-2.37-3.03-1.87-.91-.93-2.34-.26-2.94.81-3.78 2.39-5.95 8.78-7.87 13.38-1.45-15.41 1.96-37.64.96-7.16.79-12.67-.52-25.47-10.24-7.43-20.46 6.9-26.51 3.33-33.8 7.26-6.96 13.38-9.88 27.5-4.67.68-1.25 2-3.46 2.64z" fill="#e49520"/></clipPath></svg>
