<svg viewBox="0 0 32 32" xmlns="http://www.w3.org/2000/svg" fill-rule="evenodd" clip-rule="evenodd" stroke-linejoin="round" stroke-miterlimit="1.414"><path fill="none" d="M0 0h32v32H0z"/><path d="M16.174 2.001a13.98 13.98 0 0 1 4.546.819 14.045 14.045 0 0 1 5.422 3.529 14.032 14.032 0 0 1-2.533 3.33 11.039 11.039 0 0 1-3.838 2.121 11.04 11.04 0 0 1-6.236 2.641 10.987 10.987 0 0 1-3.513.621 506.27 506.27 0 0 1-6.284 0 10.926 10.926 0 0 1-3.64-.667 11.033 11.033 0 0 1-6.677-6.596 10.926 10.926 0 0 1-.667-3.64 262.757 262.757 0 0 1 0-3.322 13.937 13.937 0 0 1 .849-4.634 14.057 14.057 0 0 1 3.37-8.244 14.041 14.042 0 0 1 8.498-8.394 13.965 13.965 0 0 1 4.472-.791h.354z"/><path d="M28 16c0-3.183-1.264-6.235-3.515-8.485A11.996 11.996 0 0 0 16 4C9.373 4 4 9.373 4 16v4a8 8 0 0 0 8 8h8a8 8 0 0 0 8-8v-4z" fill="#fbc546"/><path d="M21.083 12.001l.068.012.067.016.067.019.064.022.063.025.062.024.06.021.059.02.057.023.057.022.057.023.057.021.056.021.057.019.057.019.057.016.056.016.056.014.056.012.056.01.055.007.056.004.056L21 21l-.002.056-.004.056-.008.056-.011.055-.014.054-.017.053-.02.053-.023.051-.026.051-.028.049-.031.047-.033.045-.036.043-.039.04-.041.037-.043.034-.044.031-.047.027-.048.025-.059.023-.058.023-.057.021-.057.024-.057.026-.058.026-.059.025-.061.023-.062.021-.063.018-.062.019-.062.019-.062.018-.072.017-.072.017-.072.017-.072.018-.072.02-.073.021-.073.024-.063.024-.062.024-.061.024-.061.023-.059.023-.057.025-.058.023-.059.022-.059.022-.059.02-.057.017-.057.016-.057.015-.058.014-.058.013-.057.013-.058.014-.057.015-.057.016-.057.017-.057.019-.056.018-.056.02-.055.02-.055.027-.055.028-.054.028-.052.029-.052.03-.05.03-.04.032-.05.034-.05.034-.049.034-.049.034-.048.034-.048.035-.048.036-.047.036-.047.037-.047.038-.046.038-.045.038-.045.04-.045.04-.044.04-.044.041-.045.041-.046.043-.046.044-.045.044-.044.042-.044.041-.044.041-.045.04-.045.039-.045.04-.045.039-.044.041-.044.041-.043.042-.045.044-1.286 1.286-.05.047-.053.043-.056.039-.058.036-.061.031-.062.027-.064.023-.066.019-.067.013-.068.01-.068.004h-.068l-.068-.004-.068-.01-.067-.013-.066-.019-.064-.023-.062-.027-.061-.031-.058-.036-.056-.039-.053-.043-.05-.047-.047-.05-.043-.053-.039-.056-.036-.058-.031-.061-.027-.062-.023-.064-.019-.066-.013-.067-.01-.068-.004-.068v-.068l.004-.068.01-.068.013-.067.019-.066.023-.064.027-.062.031-.061.036-.058.039-.056.043-.053.047-.05.881-.885.057-.072.053-.053.062-.059.072-.059.06-.058.062-.058.063-.057.063-.057.064-.055.064-.055.065-.054.065-.053.067-.052.066-.051.068-.051.068-.049.068-.049.069-.048.069-.047.07-.046.071-.045.071-.045.072-.043.072-.042.072-.042.073-.041.074-.04.074-.041.074-.039.074-.038.075-.037.075-.036.076-.035.076-.034.077-.034.077-.032.077-.031.078-.031.078-.03.078-.028.079-.028.079-.027.08-.025.079-.025.08-.024.081-.023.081-.022.081-.021.081-.019.082-.019.081-.018.083-.017.082-.016.082-.015.083-.014.083-.013.084-.012.083-.011.084-.01.084-.009.084-.007.084-.007.084-.006.085-.005.084-.003.085-.003.085-.001.082-.001h1.164l.082.001zM12 12.5a1.503 1.503 0 0 0-1.5-1.5A1.503 1.503 0 0 0 9 12.5v2a1.503 1.503 0 0 0 1.5 1.5 1.503 1.503 0 0 0 1.5-1.5v-2zM23 12.498c0-.827-.671-1.498-1.498-1.498h-.004c-.827 0-1.498.671-1.498 1.498v2.004c0 .827.671 1.498 1.498 1.498h.004c.827 0 1.498-.671 1.498-1.498v-2.004z"/></svg>
