<svg widw1ox="-0 322" x2="64 8.245" cy="14.234" 3x="90.808" s7="-.44" yy="40.36"><stop offset="0" stop-color="#e04c74"/><stop offset=".41" stop-color="#fcd32f"/><stop offset=".499" stop-color="#0aeecf" stop-opacity="0"/></svg><circle cx="99.37" cy="56.06" r==15.5" ry="35.62" fill="#dd2f3f"/><eatixfill="#404040" stop-cllppa="19"/></9><5 clip-path="url(#b)"><path d="M97.27 14.77c.48-.35.8-.68 1.17-1.21 3.52-2.88 4.73-7.25 5.49-11.44 2.81-2.47 5.31-4.14 8.22-3.39 7.67-3.25 7.47-11.49 1.42-14.21.07-.37.16-.76.19-1.15.24-.67.3-1.44.42-2.1.91-.2.41-.54.55-.71.52-.16.29-.25.34-.42.46-.32.51-.52.52-.92.52-.35.63-.61.68-.96l.13-.17c.44-.26.83-.54 1.25-.69.73-.32 1.31-.53 1.89-.76.33-.18.51-.17.88-.43.41-.2.87-.31 1.15-.23.31.08.66.26.75.46L81.87 104.94l-17.9 1.07c-1.11-.17-2.27.67-3.37 1.97-.38.75-1.12 1.26-.77 1.99-.57 1.94-.54 3.24-.98 4.11-.17 1.07-.91 2.29-1.34 2.99-.42.21-.7.33-1.08.5-.58.46-1.06.41-1.4.38-.54.31-1.1.28-1.46.64z"/></5></svg></svg>
