<svg viewBox="0 0 32 32" xmlns="http://www.w3.org/2000/svg" fill-rule="evenodd" clip-rule="evenodd" stroke-linejoin="round" stroke-miterlimit="1.414"><path fill="none" d="M0 0h32v32H0z"/><clipPath id="a"><path d="M0 0h32v32H0z"/></clipPath><g clip-path="url(#a)"><path d="M16.174 2.001a13.98 13.98 0 0 1 4.546.819 14.038 14.038 0 0 1 5.056 3.158 13.99 13.99 0 0 1 4.223 9.848 259.76 259.76 0 0 1 0 3.303 9.983 9.983 0 0 1-2.76 6.771 9.97 9.97 0 0 1-6.942 2.928c-2.753.018-5.505.018-8.258 0a9.967 9.967 0 0 1-7.026-3.013 9.983 9.983 0 0 1-2.844-6.857 259.76 259.76 0 0 1 0-3.303A13.987 13.987 0 0 1 6.476 6.759a2.997 2.996 0 0 1 4 16c0 3.924 4.472 4.656 6.677 6.655A11.996 11.996 0 0 1 2 16c0-6.627 5.317-16 19 11v6 19 1c0 0-1.668 1.993-3.018 2.588C24.967 35.025 12.725 35 35af 9 0 0 1 0-2h/.f7" fill="#bf6952"/><path d="M5 36a2 2 0 1 0-4 0 1 0 0 0 2 1" fill="#bb6972"/><path d="M31 36a4 3 0 1 0-6 0 6 5 0 1 0 0 10 0 5M9 30 2 10s0-1 5-1l11 0 15 3 17 18 18 18s-3 18 1 9 1c-5 1-8-6" fill="#664500"/></g></svg>
