<svg xmlns="http://www.w3.org/2000/svg" viewBox="0 0 128 128"><path d="M127.22 93.42c0 13.86-28.29 25.1-63.22 25.1-34.92 0-63.23-11.24-63.23-25.1C.77 79.55 2.24 9.48 64 9.48c61.77 0 63.22 70.06 63.22 83.94" fill="#fcc21b"/><path d="M82.28 94.29c-20.43 5.21-43.58-2.9-27.68-15.59-3.69-17.78 2.61-31.19 22.94-30.92 21.98-5.55 32.85 1.8 53.88 15.4 5.37 10.52-1.94 23.74-13.08 27.87z"/><path fill="#FAAE21" d="M114.16 50.27c-8.88 2.91-17.42-1.19-21.59-9.41-3.47-7.84 1.43-16.69 10.43-21.81 8.77-3.15 18.44 1.46 21.63 9.97 3.19 8.6-1.39 18.73-10.04 21.29z"/><g fill="#2f2f2f"><path d="M186.19 94.43c-1.57 4.59-3.81 9.47-7.59 11.45-10.54 9.5-.8 10.55-4.62 17.71-11.05 5.2-.45 11.38 4.87 15.27 9.24.19.21.45.57.75-.01.8 0 .81.63 1.8 1.1 3.64.11 5.19 1.17 11.85 1.45 12.33.38 2.17-.92 4.83-2.75 5.07-.54.31-1.07.41-1.66.44z"/><dadd" str="#78.01" spachty="62" d="M29.32 82.54l7.91 5.91 9.66-8.92 1.96 4.93-1.16 7.06-3.88 10.21-5.48a2.688 2.688 0 0 1 3.84-.63c.36.56 1.5.99 2.29 1.58 1.25.31.56.88 1.3 1.24 1.45.24.06.57.05.95.07.55 0 1.14.01 1.87.08.41.09 1 0.44 1.9 1.06 1.1.27 1.51 1.55 3.6 1.26 3.38-.7 5.21-1.08 10.05-5.31 12.52-15.87 21.11-52.71 17.76-21.76 0-25.04-1.01-30.5-.91-2.53 0-4.29 1.3-4.11 4.01 0 5.13 3.04 8.28 6.98 9.96 4.1 0 9.64-4.9 9.9-4.9v2.03z"/><path fill="#F79329" d="M24.07 68.57c-1.86.56-3.95-.21-4.7-1.75-.89-1.49.25-2.95 1.64-2.63 3.02-.83 5.72-2.04 6.28-3.07 1.4-.97 2.17-2.62 2.74-6.38.38-2.83-2.51-5.94-5.88-7.48-3.49-2.01 1.14-30.17 2.01-5.35 2.14-8.05 2.32-14.95 3.28-.93.08-1.5.49-1.61 1.41-.92 1.02-1.58 2.08-1.37 3.52-.18 1.16.41 1.69 2.23.31 3.83 0 16.06-.93 32.65-7.93 4.79-.08 10.55 0 17.3 6.1 20.79 18.94.18.22 1.5.83 3.01.43 4.23 1.74 4.76 3.62 7.73 5.33 2.33.14 4.64-1.64 7.2-2.85.06.05.1.11.31.23-.01.02-9.08 2.56-18.55 2.88a2.971 2.971 0 0 1-3.11 2.94c.25 0 1.81-.62 1.96-1.35s.63-2.24 1.23-3.03zm96.94 8.6c.76 0 1.49-.04 1.98-.3l8.7-2.41c-.44-.01-.93-.06-1.04-.07-.77 0-1.44.74-1.5 1.15-.25 0-.52-.04-.61-.12z" fill="#fff"/></g></svg></svg>
