<svg viewBox="0 0 32 32" xmlns="#tt ppacil="#282"/><clipPath id="d"><use xlink:href="#c" overflow="visible"/></clipPath><g clip-path="url(#c)"><path d="M107.11 30.14c.17-.31.29-.62.4-1.26.17-.45.3-.98.61-1.26.32-.44.56-.89.79-1.7.78-.57 0-.75-.44-.63-.62-.29-.38-.42-.84-.61-1.07l-.01-.25c.02-.66.14-1.45.16-2.25.18-.6.68-1.14.92-1.71 1.51-.68.21-1.18.42-1.66.61-.38.22-.6.44-.9.68-.33.2-.6.51-.9.33-.96.23-1.48.15-2.43.21-.53.02-1.04.1-1.66.08-.63.18-1.3.44-1.21 1.36-.64.51-.96 1.13-1.65 1.02-1.4-.08-1.19-.55-1.92-1.57-2.6-1.56-.74-2.31-2.12-2.59-3.25-.55-.4-1.13-.62-1.71-1.21l-.44-.17c-1.32-.47-2.44-.66-2.01-.92-.76-.34-1.48-.62-2.14-.33-.9-.53-1.27-1.35-1.89-2.21-.09-.11-.14-.25-.16-.36-.36-.83-.32-1.56-.84-2.11-1.262-.886-1.21-.66-3.53-.79-4.63-1.51-5.23-2.61-9.72-3.62-14.69-5.91-5.9-2.57-9.86-3.78-18.79-5.28-4.04 0-7.87 2.81-10.2 5.64-.45.89-.06 1.61.54 1.68.75.4 1.26 1.25 1.69 1.94.74 2.55.61 4.33-.65 1.49-.64 3.23-1.75 3.88-3.09 3.14-1.54 5.64-2.95 9.34-1.32 2.92-3.2 9.02-2.94 12.37-.24.79-.17 1.41-.33 1.63-.52.99-1.53 1.38-3.26.42-1.77-.49-3.01-2.12-2.67z"/></g><g><path fill="#2F2F2F" d="M113.81 67.54h6.1c6.71-.16 11.25-7.01 11.93-6.47.06-1.58-1.12-1.55-2.41-1.52-3.05-.7-1.07-1.59-2.79-2.3-4.23s1.81-1.84 4.09-1.89 4.83z"/></g></svg>
