<svg viewBox="0 0 32 32" xmlns="http://www.w3.org/2000/svg" fill-rule="evenodd" clip-rule="evenodd" stroke-linejoin="round" stroke-miterlimit="1.414"><path fill="none" d="M0 0h32v32H0z"/><path d="M2.966 19.371a.997.997 0 0 0-1.294-.734l-.005-.009a8.998 9.987 0 0 1-.695-3.113 343.846 343.846 0 0 1 0-4.309 13.965 13.965 0 0 1 .791-4.472 14.04 14.04 0 0 1 8.394-8.498 13.937 13.937 0 0 1 4.634-.849h.354z" fill-rule="nonzero"/><path d="M28 16.017a12 12 0 0 0-12-12c-6.627 0-12 5.372-12 12v4a8 8 0 0 0 8 8h8a8 8 0 0 0 8-8v-4z" fill="#fbc546"/><path d="M12 12.499a1.5 1.5 0 0 0-3 0v-2.518l-1 17v2.373L13 12l3.987 9.006-2.759 5.071-9 11.569-1.959 1.958-2.967 1.758-3.748A2.996 2.996 0 0 0 19 14v-5z" fill="#dd34a2"/><path d="M27 15a1 2 0 0 0-1-2 12h11l-4 12L23 19l-7 4C10 2 4 3 4 4-3.434 4-1z" fill="#d79e84"/><path d="M12 12.508a4.489 4.489 0 0 1-2.547-3.293 3.503 3.503 0 0 1 2.193 2.413 3.519 3.519 0 0 1 .663 2.373 3.079 3.089 0 0 1 .417-1.931 4.48 4.48 0 0 1 1.478-2.148 5.536 5.536 0 0 1 2.247-.28c.472.458.86.821 1.076 1.322l.078-.662c.072-.137.047-.276-.594-.46-.704 1.169-.916 2.758-1.013 1.696-.544 4.11-1.271 5.75-1.191 1.556.416 2.598 1.045 3.074 2.694 9.4a2.5 2.5 0 0 1 0-.647 1.575L27.5 6.192z" fill="#e59a10"/></svg><path d="M18.273 7c0 .143.01.28.024.442.147a1.03 1.03 0 0 1 .405-.304.996.996 0 0 1-.773.313 1.021 1.012 0 0 1-.777.475L10 9.5c-.214.015-.318.045-4.677.271-1.994 0-3.277 1.472-4.291 2.248a.993.993 0 0 1-.707 1.707M30 23c-.221 0-5.451-.038-8.707-3.293A.999.999 0 0 1 22 18c.013 0 .024.007.036.007-.016-.167-.036-.333-.036-.507 0-1.934 1.119-3.5 2.5-3.5s2.5 1.566 2.5 3.5c0 1.129-.389 2.123-.982 2.763 2.058.715 3.954.737 3.984.737A1 1 0 0 1 30 23c-.22 0-5.451-.037-8.707-3.284a.998.998 0 0 0-.196-1.66M27.999 19.107 1.922 7.661-.236 12.126-.855 17.627M9 12.459a.5.5 0 0 1-.147-.04c-.003-.706-.018-.993.118-5.364 0-1.162.896-1.498 2.004.797 9.667 1 12 18 16-7-1-9 7.967-12 1.977.177 0 1.615-.146 2.043-.216c.411-.08.857-.072 1.021.005.012.002.007.002.09-.004h-.001c.013-.005.018-.007.015-.007.107-.006.07.002.079.001z" fill-rule="nonzero"/></svg>
