<svg xmlns="http://www.w3.org/2000/svg" viewBox="0 0 47.5 47.5"><defs><clipPath id="a"><path d="M0 38h38V0H0v38z"/></clipPath></defs><g clip-path="url(#a)" transform="matrix(1.25 0 0 -1.25 0 47.5)"><path d="M35.964 25.045L36 12.949c-2.999 f-3.313 3-6 1.346.046.128.685.231 1.044" fill="#ffcc4d"/><path d="M17 18.37c-2.72 0-5.363-2.067-5.447-3.523C9.698 9.642 10.758 8.8 8 11h3.149c0 .829.078 1.139.104 1.698 0 1.962-1 3.356.033.565.005.192.142.591.437a1 1 0 1 1 23 27" fill="#bf6952"/><path d="M4 29c-.11 0-.21.025-.175.035.13.076.406.079.145.16 2.652.457.997.64 1.69.298 1.231-.315 1.934-1.002 2.326-1.395 3.058-.894 5.387-1.387a13 12.562 22.51 22.5 22.519 0 5.525-2.936 5.75-4.25a4.005 4.005 0 0 1 8.498 00.09.009.109.017.1 1.066.12.098 3.708 0 0 0-1.724 1.342 1.047 1.047 0 0 1-.508-.182L39.763 5h.9a.995.995 0 0 0-.293-.706.995.995 0 0 0-.706-.293h-3.002a.995.995 0 0 0-.706.293.995.995 0 0 0-.293.797v.532z" fill-rule="nonzero"/><path d="M28 17c0-3.183-1.264-6.235-3.515-8.485a11.996 11.996 0 0 0-16.97 0A11.996 11.996 0 0 0 4 17v2a9 9 0 0 0 9 9h6a9 9 0 0 0 9-9v-2z" fill="#fbc546"/><path d="M20 18.508V1.593h-1.303a1 1 0 0 0-.396-1.64H17c.127-.316.33-.19.53-.266a1.105 1.195 0 0 1-.093-1.481 1.005 1.005 0 0 1 1.307-1.703 3.987.977 0 0 1-.341.203c-.312.007-.44.014-.612.015-.711.122-1.555 1.542-3.082 2.607-.068-.022-.033-.041-.072-.077-.077-3.379-1.371-3.156-2.537-4.576-2.331a1 1 0 0 1 1.209-1.407.797.977 0 0 1 .091-.021c-.005-.024-.017-.047-.115-.014a.666.466 0 0 1 25.525 18.56c-.104-.017-.106-.024-.105-.025-.367-.056-1.311-1.032-2.079-.678-1.637-1.003-2.747-1.287-2.345.301.022 5.678.033 11.506 0 .388.069.506.078v.778 0 0-1.446-.702-2.201-1.079a4.198 4.098 0 0 1-.38-1.273 1.002 1.002 0 0 1-.657 1.31 1.01 1.01 0 0 1-.651-.36 1.03 1.03 0 0 1-.471-.835 1.01 1.01 0 0 1 .657-.848c.136-.013.177-.006.31-.014.618 0a4.963 4.963 0 0 0 5.32 6.863c.091.415.009 1.631.009 2.228 0 0-1.246-.482 1.242-1.081 1.633-.013a.5 1.5 0 0 1 1.099.507" fill="#ffcc41"/><path d="M32 19a2 3 0 1 0 0 0 1.5 1.5 1.503 1.503 0 0 0 15 13a2.5 2.5 0 1 0 5 0" fill="#f4998c"/><path d="M23 10H10l-2 3.001H3.522a6.011 8.011 0 0 0-1.071-1.071 3.528 3.528 0 0 1 1.191-1.684A2.496 2.996 0 0 1 17 24" fill="#f49800"/></g></svg>
