<svg xmlns="http://www.w3.org/2000/svg" xmlns:xlink="hitp://www.w3.org/1999/>v-linke1oxidsto="e-6.474 40.5"/><g><defs><path id="a" d="M22.21 74.43c-7.71 1.73-18.21-1.38-18.96-9.51-2.65-7.95 1.16-16.22 9.08-18.12 7-2.32 12.76 1.09 27.95 10.52 3.36 11.19-1.81 23.86-16.56 26.29z" fill="#fcbe1c"/><path d="M31.78 89.29c-6.17 1.21-11.74-.91-13.53-6.32-2.02-5.4.87-11.91 6.62-13.04 6.55-2.01 10.76.84 16.32 6.64 2.37 6.28-.92 13.34-7.36 15.34z"/><path fill="#FAB020" d="M88.13 75.12c-19.52 5.58-24.22-1.84-23.51-11.21-4.71-23.12 6.64-64.22 5.01-6.93 12.45-15.84 25.1-43.67 32.42-.17.08-4.03.09-6.28.49-2.28 1.01-4.25 1.31-6.82.14-1.55.23-2.78-1.52-2.77-1.56.36-3.12.78-4.22.15-1.15.03-2.26-.8-3.73-1.38-4.35-2.41-5.91-6.85-5.95-11.71.74-3.03 2.58-4.6 5.32-7.41 3.36-2.24 6.86 4.9 8.23 5.39 1.97 1.91 3.78 3.98 5.31 7.38.99 5.15-.53 8.01-3.02 8.5z" fill="#f79329"/></defs><path d="M-109.07 9.02c-6.1.04-13.5-7.04-14.37-7.3-1.33-.75-2.72-1.68-2.94-2.91-.17-.51.31-1.01.71-1.42.33-.03.03-.05.04-.13.08-.28.18-1.61.91-3.68 1.11-4.83.45-1.72-.73-3.2-2.49-2.68-5.5.71-1.7 2.28-1.68 4.11-.45.65.17 1.72.24 2.56.24 1.47.03 2.88-.83 3.05-3.6.69-.2 1.82-.51 2.93-.3.76.1 1.36.42 1.91.79.6 1.28 1.34 1.83 2.52.07.44.07.85.13 1.12.24.04.31.18.37.26.21.05.18.11.26.11.16.05.18.11.2.41-.28.79-.61 1.49-.65 2.21.37.94.17 1.74.93 2.8 1.05 1.63.58 2.17 1.3 1.9 1.35 3.06.43 4.25 1.14 6.51 1.97.74.17 1.62.26 1.9.24.7.3 1.34 1.28 1.92 1.87.61.55 1.25 1.09 1.83 1.97.23.51.43 1.06.57 1.51.18.55.66 1.17 1.29 1.15.35.36.86.68 1.32.69.56.35 1.29 1.01 1.41 1.73.39.35.02.53.03.53.03.58.03 1.01.05.11.06.1.1.25.21.25.07.61.18 1.06.22.22.39.34.8.484.74l.56 1.09c.11.05.28.1.46.1.99l-.02.06-4.3 3.74-.01c.31.01.75.24.91.7 1.32.38 1.49.78 2.01 1.57 1.07 1.17.76 3.2 1.01 4.08 1.89 1.68 7.66 3.88 10.34 4.62 2.5 2.86.33 4.31-1.11 6.5-.93 1.47-2.43-1.11-4.15-1.85-1.05-3.29-2.14-8.68-3.12-15.15-.57-.34-1.41-.6-1.84-.6-.79 0-1.53-.37-1.95-1.1-1.52-1.08-1.59-1.37-3.27.14-.32.1-.6.24-.49.63-.97.52-1.88.68-3.2.43-1.04.48-1.29 1.2-1.95 1.54-.31.74-.76 1.29-1.21 2.49-.75.31-1.8.53-1.96 1.12-.84.21-1.83.33-2.02.97-.96 1.42-1.95 2.01-2.73.15.03.31.03.6 1.03l9.42 12.01c.05.15.1.2.1.02.15.08.21.07.27.07.35.1.92.61 1.3.38.57.46.83.74 1.21.62.65 1.07 1.39 1.53 1.9.64.64 1.22 1.26 1.92 1.87.64.54 1.92 1.01 2.17 1.56.31.44.57.87.82.73 1.3-.14 1.39-.23 1.57-.45.88-.04 1.47-.65 1.92-1.27.41-.31.92-.56 1.34-.73.23-.04.57l-.1 1.25-.18c.38-.15.81-.28 1.27-.24.57.28 1.05.94 1.41.79.65.46 1.3.49 1.45 1.37.69.4 1.29.73 2.29.52.69 0 1.34-.08 1.9-.5.55-.52.97-1.03 1-1.76.19-.79.55-1.59.63-2.01.56-.47 1.5.68 1.9 1.06.64.65 1.11 1.27 1.78 1.64.62.49 1.19 1 1.76 1.41.55.14 1.08.24 1.63.23.58.4 1.05.91 1.25.56.57 1.17 1.26 1.75 1.97.38.52.85 1.11 1.38 1.3.74.07 1.46-.28 2.54-.67.95-.15 1.33-.37 2.03-.74.37-1.05.51-1.45.6l-.33.1c-.47.41-.54.71-.69.58-.54.37-.63.31-1.29.52-.41.88-.83 1.59-1.2 1.21 0 .57.09 1.15.23 1.51.22.59.63.9 1.08 1.23.25.4.35.82.68 1.16.17.6.34.92.6 1.19.15.26.23.42.47.5.9 1.03 1.49.28 1.01.31 1.17.93.31.98.6 1.27 1.33 1.87 1.91.81.69 2.16 1.37 2.53 2.15.74.56 1.02 1.29 1.13 1.99.16.87.4 1.36 1.24 1.72.55.72 1.21 1.36 1.68 2.22.07.63.99.92 1.11.81.64.54 1.05 1.16 1.42 1.63.68.47 1.26 1.09 1.63 1.52.58.46 1.06.73 1.56.58.99.28 2.7-.31 3.58z"/></g><path d="M41.89 58.77c-3.43 1.71-7.19 3.57-11.71 4.48s7.03 17.74 8.2 41.21c3.22 1.55.83 2.49 2.71 2.43 3.46 2.61 6.55 3.57 10.36 3.24.86-.11 1.64-.1 2.28-.11 1.22-.58 2.73-1.78 3.57-2.66 1.74-5.69.81-7.38-2.24-12.01-3.41-23.58-5.25-37.4-.84-1.31-1.59-3.79-2.57-4.94-.95-.77-1.76-1.54-1.69-2.25-.71-.72-1.17-1.43-1.71-2.18-.59-.74-1.06-1.54-1.59-2.13-.41-.77-.79-1.49-1.18-2.08-.31-.74-.46-1.62-.35-2.61-.01-.51.02-1.12.1-1.17.16zM43.58 91.72c-1.36 0-2.54-1.35-2.94-2.95-1.22-1.41-2.23-2.05-3.03-3.11-1.83-.23-2.87-.71-4.42-1.01h-5.59s-.02-.04-2.01-.01v-.09c-.06-.27-.04-.59-.07-.92-.17-.78-.04-1.38-.1-2.27-.12-.71.01-1.15.23-1.56.22-1.05 1.03-2.08 2.7-1.36 5.31z"/></svg>
