<svg viewBox="0 0 32 32" xmlns="http://www.w3.org/2000/svg" fill-rule="evenodd" clip-rule="evenodd" stroke-linejoin="round" stroke-miterlimit="1.414"><path fill="none" d="M0 0h32v32H0z"/><path d="M16.174 3.001a13.98 13.98 0 0 1 4.546.819 14.045 14.045 0 0 1 5.422 3.529 13.99 13.99 0 0 1 3.857 9.477c.009 1.434.009 2.869 0 4.303a9.967 9.967 0 0 1-3.099 7.109 9.983 9.983 0 0 1-6.771 2.761c-2.753.018-5.505.018-8.258 0a9.967 9.967 0 0 1-7.192-3.18 10.039 10.038 0 0 1-3.87-2.271 10.017 10.017 0 0 1-.622-3.219 110.032 10.032 0 0 1-5.049 3.043c-.394.044-.788.066-1.184.073-1.433 0 0 0 .119-.433 1.008 1.008 0 0 1-.754-1.516 1.52 1.51 0 0 1-.976-.814 1.012 1.012 0 0 1-.234 1.069c.982.401 1.437.069 2.009.08.125.092.257.058.318.115.436.133.652.283.94.588a2.555 2.555 0 0 1 11.199 23H14l.731z" fill-rule="nonzero"/><path d="M12 9.5a1.5 1.5 0 0 0-1.5-1.5h-3a1.5 1.5 0 0 0 0 3h3a1.5 1.5 0 0 0 1.5-1.5zM11 19.5a1.5 1.5 0 0 0-1.5-1.5H8.998A1.999 1.999 0 0 0 7 13.998V14l3 .023v1.593c0 .367.146.719.405.979.26.259.612.405.979.405h.002A1.611 1.611 0 0 0 13 15.386V13.5z"/></svg>
