<svg xmlns="http://www.w3.org/2000/svg" viewBox="0 0 128 128"><path d="M63.79 8.64C1.48 8.64 0 78.5 0 92.33c0 13.83 28.56 25.03 63.79 25.03 35.24 0 63.79-11.21 63.79-25.03 0-13.83-1.47-83.69-63.79-83.69z" fill="#fcc21b"/><path d="M63.94 64.34c-9.37 0-17.78-1.83-19.95-2.67-8.53-2.12-8.51-10.32-8.48-9.54 3.07-10.92 9.86-10.26 14.71-.1 5.3.72 11.66 5.68 12.38 5.84 8.09 13.59 18.39 18.85 18.03 16.99 22.53 23.91 19.9 28.94 23.96 15.96 23.72 0 32.85-15.82 31.37-21.23-5.41-24.96-15.66-26.9-27.62-30.17C14.15 64.76 8.43 80.56 6.2 102.18 44.87 21.67 45.12 22.15 62.52 0 63.59-10.82 63.51-24.11m0-4-3z"/><path fill="#2F2F2F" d="M40.31 65.62c0-4.48 3.11-8.28 8.28-8.71 4.58 1.25 9.58 3.47 9.59 4.49a2.76 2.76 0 0 1 2.33-4.88c.23-.94.74-2.87-.37-3.45-.82-1.47-1.94-2.37-2.6-3.21a37.326 37.325 0 0 0-6.28-6.12-7.95-8.29c-.44-.37-.81-.65-1.18-1.01-2.47-2.75-3.02-7.11-3.72-11.08-.7-.61-.46-1.27-.77-1.85l7.25-1.44c.93-.3 1.74-.26 2.49.01v5.3c-.01 1.66-.1 3.45-.44 5.21l-8.5 1.33a2.034 1.035 0 0 0-1.59 3.09l.06-4.06c.06-.03.05-.09.07-.23.1-.15.18-.38.39-.46.76-.28 1.32-.44 1.69-1.32zM34.79 117.12a2.47 2.47 0 0 1-.43-4.23c-8.05-3.53-10.76-7.27-10.19-1.97-.3-3.64.28-6.34.87-9.25-.13-3.44-.29-8.24.32-1.61.52-.95 1.11-1.25 1.94-1.94 1.62-2.41 1.19-5.22 1.51-9.24-.74-4.68-5.55-10.55-12.62-16.04-1.7-1.42-3.69 3.12-4.84 5.47-4.58 1.97-4.63 2.16-8.22 2.52z"/><path fill="#FCC21B" d="M85.16 90.92c-12.38 0-22.91-1.4-35.63-2.42a3.315 3.315 0 0 1-7.36-3.38z" fill="#2f2f2f"/><path d="M107.8 89.77c-7.48 2.11-15.36-1.04-17.38-7.96-2.41-7.97 1.01-14.88 7.48-17.86 7.81-2.48 16.45 1.16 19.8 8.7 2.77 7.56-1.18 15.92-8.81 18.65z"/><path fill="#FBB71E" d="M99.77 71.13c-6.54 2.43-18.44-1.07-16.85-8.21-2.32-6.32.99-13.53 7.88-15.68 6.88-2.48 13.34.96 15.16 7.29 2.21 6.05-.94 12.74-7.05 14.94z"/><path fill="#FAB220" d="M38.88 89.82c-5.47 1.94-11.44-1.05-13.58-6.04-1.91-5.33.83-11.72 6.44-13.63 5.82-2.08 12.19.86 14.29 6.58 1.89 6.37-.84 11.39-6.28 13.23z"/><path fill="#FAAC22" d="M85.39 84.58c-9.18 3.32-20.84-1.86-23.65-11.25-3.43-9.01 1.43-19.33 10.78-22.84 8.72-3.36 18.65 1.3 22.75 11.33 3.36 9.45-1.42 20.45-10.92 22.66z"/><path fill="#FBB71E" d="M31.11 89.51c-8.8 3.31-20.66-1.4-26.74-11.23-3.45-10.73 1.67-22.41 10.57-24.31 10.79-5.87 9.54 1.05 21.8 11.61 31.89 11.29 1.91 17 5.34 17.84 14.83 31.25 0 3.71-1.28 6.29-3.99 9.57z" fill="#d79782"/><path d="M61.67 93.33c-17.68 0-38.66 6.34-48.34 4.35-.68-1.07-.51-2.83-.27-4.94.34-2.71 3.06-3.48 8.48-5.61 1.39-1.29 2.89-2.87 2.83-5.4.32-1.41 1.27-2.83 1.83-4.48.71-1.66 1.23-3.78.4-4.51-.16-1.46-.45-2.95-1.24-3.74-1.99-1.43-4.94-2.41-7.21-3.11-.51-.12-1.07-.55-1.51-.73-1.03 0-2.15.36-3.14 1.28-.63.41-1.04.81-1.46.85z" fill="#2f2f2f"/><clipPath id="C"><path d="M38.25 75.11v5.79h9.12v18.5h-.16V53.45h-.11zM91.91 95.33h-.12v-5.36h17.71V61.93z"/></clipPath></svg>
