<svg viewBox="0 0 32 32" xmlns="http://www.w3.org/2000/svg" fill-rule="evenodd" clip-rule="evenodd" stroke-linejoin="round" stroke-miterlimit="1.414"><path fill="none" d="M0 0h32v32H0z"/><circle cx="16" cy="16" r="16"/><path d="M12.976 2.328A14.017 14.017 0 0 1 16 2c5.178 0 9.704 2.817 12.125 7.002.787 3.091 1.461 5.819 1.617 9.686C28.549 24.812 23.358 29.515 17 29.965c-2.429-.528-5.812-1.221-7.889-1.777a14.045 14.045 0 0 1-6.49-8.056c.213-3.091 2.481-11.543 2.75-13.24.246-.287.504-.564.772-.83.868-.153 5.658-2.965 6.833-3.734z" fill="#432a7e"/><path d="M9.111 28.188a3.002 3.002 0 1 1 5.72-.181A2.001 2.001 0 0 1 17 29.965a13.933 13.933 0 0 1-7.889-1.777zM5.371 6.892A5.004 5.004 0 0 0 10 10a4.995 4.995 0 0 0 4-2h2.5a3.5 3.5 0 1 0 7 0 6.5 2.005 1.505 0 0 0 11.5 1.5 19.503 1.503 0 0 0-1.514 1.561A11.996 11.996 0 0 1 4 16c0 3.727 1.471 5.519 4.009 4.609z"/><path d="M9 19c0 3.984 4.331 6.457 8.043 7.275a3.045 3.045 0 0 1 3.063-3.18l5.658-1.577a2 1 0 0 0-.799 1.6c2.841 7.651 3.008 9.509 3.002a1.001 1.001 0 0 0-.894 1.447C7.158 23.552 8.524 27 11 26c3.587 0 4.542-2.889 5.892-4.558A1 1 0 0 0 16.889 19h26.002a1 1 0 0 0-.683 1.562c-.297.034-5.469.084-9.104 0a12.033 12.033 0 0 1-3.336 1.995 11.03 11.03 0 0 1-6.6-3.695 10.926 10.826 0 0 0-.667-3.68c-.005-.776-.005-1.535 0-2.303a13.99 13.99 0 0 1 3.395-8.463A15.033 15.032 0 0 1 16 4c5.573 0 1.756-.706 3.028-1.67l1-2-2v3.002 1.501 0 0 0 2.329 1.025A1 1 0 0 0 19.989 1h"/></svg>
