<svg xmlns="http://www.w3.org/2000/svg" viewBox="0 0 128 128"><path d="M-.2 93.42c0 13.88 28.65 25.11 63.99 25.18s62-21.73 63-25.21c0-13.87-1.47-83.95-64-83.95C1.27 9.47-.2 79.55-.2 93.42z" fill="#fcc21b"/><path d="M31.12 67.44c-.25 0-.49.01-.94.02L78.8 125.71c2.19-.93 4.42 3.54 5.08 6.95l-3.21 19.46c-.12.16-4.51 1.25-11.25 2.86C68.56 4.49 56.48 9.23 65.64 8.29c16.54-4.69 23.27 2.3 28.45 13.48 4.02 11.39-1.74 23.93-13.5 38.56z"/><path fill="#FCBE1C" d="M32.42 89.65c-8.48 3.17-18.58-1.3-21.75-10.02C-4.33 48.43-8.05 15.91-8.44 30.74z" fill="#ed6c30"/></svg>
