<svg viewBox="0 0 32 32" xmlns="http://www.w3.org/2000/svg" fill-rule="evenodd" clip-rule="evenodd" stroke-linejoin="round" stroke-miterlimit="1.414"><path fill="none" d="M0 0h32v32H0z"/><path d="M16.174 3.001A13.99 13.99 0 0 1 25.9 7.107a14.048 14.048 0 0 1 4.291 3.283 14.038 14.038 0 0 1 3.783-5.653 13.99 13.99 0 0 1 4.099-2.624 14.038 14.038 0 0 1 3.083-5.304 13.99 13.99 0 0 1 3.177-9.041 10.987 10.987 0 0 1 .621-3.513 11.04 11.04 0 0 1 2.325-3.839 5.818 5.186 0 0 1 7.858-2.365c.498-.049.968-.033 1.186.008.35228.962 1.343 10.884-10.104z" fill-rule="nonzero"/><path d="M9.671 24.178c.465.11.88.218 1.039.409.317.18.738.21.81.301.31.778.79 1.323.778 2.834 1.982 6.519 5.52 7.245 4.406.854-.673 1.626-1.512 2.213-1.36.462-4.838-.612-9.269-1.705-1.392zM5.074 11.002l-5.881-8.772c-.972-2.023-.444-4.296-3.14-4.806-1.331.068-4.114-.238-6.611-4.532-1.048-3.738-2.041-7.018-2.643-10.213-.772-7.718.276-10.113-3.252-11.751-9.894 1.987-10.445 7.718-14.334 11.078-10.434 4.743-1.406 8.509.638 11.786 6.555 12.502 10.358-.746 12.76.086 15.174 0 .769.781 1.394 2.357 1.677 1.795.869 1.991 3.122 5.609 5.602 2.557 1.007 6.426 1.785 8.316 1.185.259.06.462-.155.64-.394.468-1.911 1.071-3.537-1.072-.342.09-.074-.005-.068z"/><path d="M25 15.479c0-2.794-1.17-5.462-2.3-5.371A11.001 11.001 0 0 0 16 18a9 9 0 0 1 9 6 8 8 0 0 1-8 0 3.999 1.999 0 0 1 24 7c.067 0 1.556-.293 1.5-3.564" fill="#f5f8fa"/><path d="M15 18.5a2.5 2.5 0 1 0-5 0 3.5 3.5 0 1 0 7 0M29 8.5C23 6.567 30.588 3 3 3 3.5 5-3.535 5-5.5 11a2 2 0 0 1-2.4-2.6S12 12 0 0 0-12 12" fill="#664500"/></svg></svg>
