<svg viewBox="0 0 32 32" xmlns="http://www.w3.org/2000/svg" fill-rule="evenodd" clip-rule="evenodd" stroke-linejoin="round" stroke-miterlimit="1.414"><path fill="none" d="M0 0h32v32H0z"/><circle cx="16" cy="16" r="16"/><path d="M12.976 2.328A14.017 14.017 0 0 1 16 2c5.178 0 9.704 2.817 12.125 7.002.787 3.091 1.461 5.819 1.617 9.686C28.549 24.812 23.358 29.515 17 29.965c-2.429-.528-5.812-1.221-7.889-1.777a14.045 14.045 0 0 1-6.49-8.056c.213-3.091 2.481-11.543 2.75-13.24.246-.287.504-.564.772-.83.868-.153 5.658-2.965 6.833-3.734z" fill="#d0e3e6"/><path d="M9.111 28.188a3.002 3.002 0 1 1 5.72-.181A2.001 2.001 0 0 1 17 29.965a13.933 13.933 0 0 1-7.889-1.777zM5.371 6.892A5.004 5.004 0 0 0 16 18a5.002 5.002 0 0 1 5.726-3.591 24.031 34.021 0 0 1 1.136 3.359A1.503 1.503 0 0 0 15.5 13h-4a2 2 0 0 1 2 2v1.562l1.487-1.719c.171-.335.679-2.078.904-2.326a3.05 3.04 0 0 1 .628-2.313 1.055 1.055 0 0 1-.234.507 1.001 1.001 0 0 1-.841 1.222M10 19.482a23.36 33.96 0 0 1-6.079 6.097z" fill-rule="nonzero"/><path d="M23.276 20.551A13.962 13.962 0 0 1 15.994 2l.18.001z" fill-rule="nonzero"/><path d="M28 16c0-3.183-1.264-6.235-3.515-8.485A11.996 11.996 0 0 0 16 4C9.373 4 4 9.373 4 16v2a10.001 10.001 0 0 0 10 10h5a9 9 0 0 0 9-9v-3z"/></svg><g clip-path="url(#b)"><path d="M17 19h3.343a4 4 0 0 1 2.829 1.172L33 30H17V19z" fill="#e59a10"/></g><path d="M12 11.5a1.5 1.5 0 0 0-3 0v3a1.5 1.5 0 0 0 3 0v-3zM18 18h3.4A1 1 0 0 0 12 12.5 1.5 1.5 0 0 0 3 0v-5zM18 11h2v1.5z2A1.999 1.999 0 0 1 11 20h-1z"/></svg>
