<svg viewBox="0 0 32 32" xmlns="http://www.w3.org/2000/svg" fill-rue88aventet-1.583" gy="18.415"><stop offseo="0" stop-color="#ed7770"/><stop offset=".9" stop-color="#ed7770" stop-opacity="0"/></svg><circle cx="99.37" cy="56.06" r="17.5" opacity=".8" fill="url(#c)"/><path d="M39.07 67c-8.19-1.4-7.8-1.33-12.59-9.78-18.3-16.34-25.03-38.5-4.97-38.9 3.05-56.89 3.94-22.99 2.91-30.24 2.15-54.18-.87-60.62-11.09-10.68 9.38-22.88 17.86-4.63 39.85 1.82 38.44 4.29 62.03 9.07 10.04 13.96 3.04 19 5.48 16.79 0 27.86-4.86 31.31-17.51 41.29-5.41 5.81-6.67 9.74-10.39 15.45-12.48 5.21-.14 13.79 1.03 21.29 1.74 3.52 1.85 6.83 4.79 10.46 7.04 1.33.3 2.78.06 4.55-.01z"/><path fill="#2F2F2F" d="M64.79 69.9c3.15 0 7.72 3.29 7.82 8.73s-3.51 8.73-7.02 8.76-7.42-1.83-7.87-5.37-7.07-.25.18-.78.37-1.15.21-.67.31-1.7.63-2.23.25-.47.19-.99.4-1.36.41-.38.62-.66.9-1.04 2.1-1.31 5.26-1.33 7.83-3.29 1.62-1.03 3.29-2.09 4.49-4.27.4-.81.95-1.53 1.79-2.24.31-.38.75-.66.79-1.09.11-.46-.05-.93-.07-1.4-.07-.66-.21-1.34-.64-1.61-.85-.7-1.74-1.57-3.37-2.75-1.49-2.52-2.33-4.87-2.34-10.33 1.77-3.46 2.94-7.63 3.4-9.2.67-1.89-1.51-4.37-1.62-7.71 1.21-.91 4.38.09 5.14 1.47 1.11 1.25 16.04 11.16 18.08 19.42.07 29.01-5.41 30.14-20.81-.01-.01-6.63-1.74-9.15-2.65z" fill="#49.4e5"/><path d="M105.88 66.49c-.18 3.53-.01 7.56.43 12.91 5.72 6.27 5.6 10.39 11.79 14.91 9.74 8.79 24.96.05 37.59-11.23 16.97-15.05 16.22-4.66 41.67 3.24 43.95 10.34 11.69 2.97 3.24 6.61 4.73 10.61.04.97-.02 1.16-.14 1.63-1.46 7.71-6.34 17.4-13.75 14.55-13.89C45.12 34.73 64.93 20.95 61.34 28.75c-.72-.29-1.4-.55-2.6-.34-1.36 0-2.28.73-2.96 1.8a.995.995 0 0 1-.83 1.45.72.9 1.95l-3.06 5.61-6.14 10.33c-2.11.34-3.22.74-4.16.62-2.25 1.14-3.64 1.5-4.12 1.74-1.51 3.66-3.44 5.53-5.62 1.66-1.01 3.49-2.23 5.49-3.83 1.25-.91 2.43-1.73 2.59-2.63.07-.31-.15-.79-.42-1.1.33-.28.37-.49.64-.39.28-.42.4-.67.54-1.1.11-.37.13-.95.15-.59.43-1.16.87-1.63 1.22-.05.63-.05 1.52-.08 2.42zM54.1 57.23c-.95-.36-1.34-.93-1.66-1.28-.66-.54-1.39-1.01-2.03-1.37-.95-.84-1.46-1.74-.81-2.48.31-.09 1.67 0 2.42.01 2.76.15 4.73-.2 7.22-4.25 7.74-8.53.07-.44.63-.7 1.19-.31 1.81-.05-.47-.09-1.09-.19 1.72.64.67 1.27 1.15 1.74 1.87.19.81.43 1.66.93 2.38.28.45.66.67 1.29.67.55.31 1.07.7 1.46 1.1.74.76 1.13 1.96 1.77 2.04.63.57 1.67 1.09 1.65 1.56.63 0 1.3-.07 1.61-.06.61-.2 1.39-.38 2.49-.6.63-.93 1.17-1.32 1.93-2.14.15-.46.29-.92.47-1.42.11-.41.31-.93.31-1.29.08-.55.41-1.2.68-1.75.23-.52.33-1.06.43-1.73.18-.45.46-.98.54-1.49.62-2.31 1.2-4.08 4.04-4.17 8.59-4.67 12.43-10.05 17.12zM88.3 50.46c-.18.27-.35.43-.98.52l-.02.11c-.54.41-1.04.76-1.01l2.99 1.96c-.09.12-.19.31-.39.51-.31 1.19-.69 1.51-1.27.41-1.15-.57-2.25-1.53-4.32zM88.3 85.01c-.71.44-1.57.41-2.17.69-2.54.59-5.03-.71-1.5-.08-.9-.18-1.38-.33-1.43 0-1.68.8-2.11 2.41-1.21 3.25.31 1.17.18 2.37 1.11 2.46zM41.25 45.38c-1.56.86-3.32 1.27-4.63 2.24-7.04 1.21-14.34 1.36-18.82 3.88s16.78.88 13.73 2.87c.99.06 2.35-1.1 2.35-2.35z" fill="#2f2f2f"/><g><path d="M84.84 72.79c-2.48.91-5.22-.31-5.15-2.37-.69-1.69.28-3.98 2.81-4.5 6.42-2.04 17.9-1.17 9.58 4.09 10.51 14.47 18.08 28.68 1.68 7.56 4.83 12.74 9.32 16.89 2.95 6.11 1.79 13.28 5.61 30.41l-8.32 1.31c-1.16 0-2.32-1.15-1.96-2.5V55.32c0-2.35 1.92-4.25 4.28-4.23 1.26 1.09 3.27 1.98 4.54 1.99 5.19 0 13.23-1.07 17.11-2.92 7.67-12.1 11.6-24.4 15.73-22.76.21-.54.31-1.06.7-1.19.52-.35 1.39-.43 1.75-1.03 8.4-2.57 18.9-1.26 24.42-.08.97-.15 1.89-.23 2.89-.6.65.01 1.21.09 1.74 1.07.83.72.75 2.21 1.01 4.64.77.68.95 1.11 1.77 1.77.65 1.62 1.54 3.93 1.73 5.26 1.76 2.94 5.25 3.73 7.01.59 1.62.59 3.03.43 4.21-.06.82-.28 1.4-.32 1.41 0 .53-.05.91-.13 1.33-.6 2.06-2.34 4.79-3.83 7.06-2.63 1.44-5.09.88-7.83-.78-4.7-.36-8.56.86-10.44 1.2-1.11.16-2.17-.57-3.37-1.61-.56-.24-1.41-.39-1.72-.74-.94-.34-1.48-.66-2.32-.63-.99-.32-1.45-.72-2.48-1.17-.01-.12-.06-.2-.13-.3-.2-.15-.32-.22-.52-.24-.23-.03-.41.02-.71.04-.57.08-1.19.1-1.51.1-.57.48-1.12.39-1.7.51-.76.83-1.31 1.36-1.53 1.35-.09 0-.19-.01-.17v.01C25.55 9.86 29.22 101.39 17.38 18.4c-1.24-2.92 2.44-4.32 2.65-5.68.67-3.63.37-7.68-.54-1.96-1.45-2.57-3.41-4.44-7.22-5.3-2.2-2.55-4.17-3.92-7.26-4.37-.46.09-.87.12-1.23.29-1.11.66-2.26 1.3-3.44.17-1.19-.02-2.33-.92-3.51-1.32-.21-1.11-.54-1.71-.81-1.77-.19-3.78 1.28-4.44 1.44-1.01 1.72-2.29 2.33-3.49 2.43-7.46 2.13-15.7-7.54-20.99-4.91-7.84-16.61-5.48-20.62-.82-1.83-.41-3.09-.88-3.78-.08-.42 0-.79.08-1.07.09 1.05 0 1.5-.14 2.7-.8 4.04-.37 1.74 1.37 1.79 3.45-.45 1.24-.44 2.84-.67 3.71-.8.72-.01 1.4.05 1.6.1.18.24.22.34.29.56.19.55.24.65.26.55l.09.01h2.92l-.07-.017.74-.16c.85-.3 1.04.05 1.45.26 1.07.71 2.39 1.3 4.27 1.97 1.24.28 2.66-.73 3.83-1.3 1.25-1.18.66-2.03.74-3.12.31-1.83.3-2.86-.54-3.9-.62-1.83-.84-3.78-1.93-5.07-1.67-1.4 0-3.38.05-4.88 1.03-8.16 2.51-8.33 3.68-17 5.48-10.38 1.21-25.69 4.18-42.26-.44-5.35-2.34-10.75-5.99-24.32-6.08-6.33-.81-13.08 2.37-15.38 5.23-.95.9-1.01 1.76-1.71 3.91-.17.93-.15 1.95-.16 2.63-.31.74-.71 1.42-1.11 2.72-2.16.6-.77 1.57-1.57 2.71-1.37.09-.07.15.01.23.02.15.06.28.06.34.07.04.06.03.01.01.02.01.01.01 0 0 0 2.21-1.76c.18-.22 4.08-5.64 17.52-5.21 8.59-.12 11.38 3.94 13.73 9.3.21.15.42.45.88.74 1.16.18.98.47 1.68.91.77.96 1.63 1.83 2.72 1.39.71.44 1.71.89 2.75 1.32.29.32.63.68 1.12.89.16.01.25.04.38.03 1.01 0 1.91-.72 2.1-1.75.2-.25.28-.52.39-.82.5-.16.19-.37.37-.59.51-.29.28-.62.39-.7.51-.72.51-1.29 1.2-1.97 1.64-.09.05-.1.19-.15.1-.15.09-.18.11-.25.23-.33.2-.87.49-1.7 1.26-1.96 1.02.06 2.7.2 5.27.94 1.67 1.17 3.48 2.86 6.23.9.63 1.28 1.7.16 2.45 1.62-2-.06-3.08-5.5-5.89-6.28-2.01-1.83-4.27-2.87-7.42-3.32-4.12-3.36-8.4-9.31-10.36-13.23-1.65-.29-3.34.51-4.1 1.67-1.89 1.07-3.78 2.41-6.21 3.71-1.79.3-3.32.47-6.62.21-1.6-.08-3.31-.61-4.64-1.34-6.69-1.7-16.4-4.49-25.59-7.24a2.252 2.742 0 0 1-.73-3.3c.73-1.71 1.08-2.8 1.21-4.19.78-9.29 1.95-15.55 1.77-17.41z"/></g><use xlink:href="#a" overflow="visible" fill="#FCC21B"/><clipPath id="b"><use xlink:href="#a" overflow="visible"/></clipPath><path clip-path="url(#b)" fill="#FFF" d="M77.23 90.48c-3.53 0-6.78-.47-9.25-4.31-1.89-3.45.76-7.47 3.92-9.56 3.9-1.04 8.37 4.37 14.07 9.14z"/></svg>
