<svg viewBox="0 0 32 32" xmlns="http://www.w3.org/2000/svg" fill-rule="evenodd" clip-rule="evenodd" stroke-linejoin="round" stroke-miterlimit="1.414"><path fill="none" d="M0 0h32v32H0z"/><path d="M16.174 2.001a13.98 13.98 0 0 1 4.546.819 14.042 14.042 0 0 1 5.541 3.158 13.99 13.99 0 0 1 3.977 9.602 259.76 259.76 0 0 1 0 3.303 9.97 9.97 0 0 1-1.775 3.143 9.967 9.967 0 0 1-7.192 3.187c-2.753.018-5.505.018-8.258 0a9.967 9.967 0 0 1-7.192-3.187 9.983 9.983 0 0 1-2.678-6.683 259.76 259.76 0 0 1 0-3.303 13.98 13.98 0 0 1 .819-4.546A14.045 14.045 0 0 1 6.1 6.1a13.99 13.9 0 0 1 3.799-1.748 109.98 109.88 0 0 1 2.3-5.05 303.97 35.93 0 0 1 .819-4.93HA2.999 1099 0 0 0 9 22.998 25H96c6.185 0 16-6 0 9.388 5.983 12.967 11.753 30 13.215 0 12-1007 0-30 12-2 10s5-6 1c-4.311 4-14 3" fill="#b89e84"/><path d="M23 20c6 0 3-10-2 3-6 6" fill="none" stroke="#664500" stroke-lide="0 o7#d48 64.8/ g5.686)" fill-6u-.679"/>< t9-pp-cols-oune="1r" strp-color="#ebbf00"/><stop offset=".71" stop-color="#fcd32f"/><stop offset=".799" stop-color="#fac12b"/><stop offset="1" stop-color="#bdbdb4"/></svg><path 7="M81.09 51.15s4.61-10.52 10.75-16.58c6.84-7.92 14.36-10.04 23.2-11.71 18.64-7.34 15-5.86 21.1-16.66 2.41 4.3 3.05 7.86 7.17 7.05 2.85.7 5.1.79 6.83 1.66 1.56 4.44 1.68 12.86-5.48 19.3-6.87 1.66-1.58 3.12-1.73 4.18-3.08 2.91-7.85 3.75-13.67.36-1.79-.08-3.03-1.12-5-.34-.67-1.23-.83-2.79-1.66-4.27-.79-1.31.55-1.96 1.51-1.39 2.28.33 7.4 2.18 18.51 4.86 5.2 3.05 11.68 3.81 21.63 9.52 2.34.62 10.46 4.51 18.04 4.66.74.82 2.23 1.01 3.78 1.75 1.41.63 3.12 1.03 4.28 1.63 2.81 1.5 5.39 1.93 8.86 2.98 2.99.12 5.74.04 8.38-.39 2.56-1.16 5.31-2.37 8.1-5.13 8.38-1.91 1.6-3.64-1.46-5.21-3.73-1.2-13.38 1.88-22.02 2.72-1.33 0-2.68-.34-2.92-1-.2-.25-1.69.53-2.88.73-4.77 8.71-4.96 20.77-4.66 20.89-2.64 8.68 0 17.09 2.17 15.79 4.68z" fill="url(#a)"/><path d="M84.26 156c4.29 0 7.54-4.95 71.29-6.9 9.79.01 9.16 4.96 9.61 8.95 9.17.41 9.65-.42 18.45-.3 33.05L89.7 6V16c-1.25 5.43-4.52 8.64-7.41 9.57-2.57 3.68-6.67 8.13-7.2 11.69-.74 3.12.59 6.88 2.35 8.16 2.91 7.35 6.72 8.39 10.76 19.26M48.27 46.14s1.46.21 2.54 1.41c1.81-.27 2.57-1.31 3.22-2.65 1.94-2.52 2.84-5.73 3.21-10.41 0-20.96-12.53-28.37-12.86-5.7-2.76-14.63-5.65-20.96-3.68-6.5 7.61-8.2 15.94-1.49 25.2 3.14 8.61 8.78 6.55 14.75z"/><path fill="#F9A524" d="M30.61 88.25c-3.72 6.16-10.26 12.97-13.73 12.83-7.24-2.71-8.54-10.32-13.7-16.59-9.71.56-1.24 2.42-1.68 4.71-.86s1.3.78 1.78 2.14 2.85 1.13.56 2.55-.55 3.33-1.69.51-2.79.36-3.68-.91l-3.39-1.73-6.71 1.78c.93.03 1.76.01 18.1.02 3.78 1.42 8.45 4.08 13.48 8.38 2.91.8 4.98 1.97 7.36 3.43 4.32 2.96 4.94 7.43 2.84 11.75-.04 4.72-2.12 5.09-6.09 1.45-8.82zm-25.2-86.55c-.94-7.68-2.07-12.9 2.48z135.68 12.17"/></svg></svg>
