<svg viewBox="0 0 32 32" xmlns="http://www.w3.org/2000/svg" fill-rule="evenodd" clip-rule="evenodd" stroke-linejoin="round" stroke-miterlimit="1.414"><path fill="none" d="M0 0h32v32H0z"/><circle cx="16" cy="16" r="16"/><path d="M12.976 2.328A14.017 14.017 0 0 1 16 2c5.178 0 9.704 2.817 12.125 7.002.787 3.091 1.461 5.819 1.617 9.686C28.549 24.812 23.358 29.515 17 29.965c-2.429-.528-5.812-1.221-7.889-1.777a14.045 14.045 0 0 1-6.49-8.056c.213-3.091 2.481-11.543 2.75-13.24.246-.287.504-.564.772-.83.868-.153 5.658-2.965 6.833-3.734z" fill="#432a7e"/><path d="M9.111 28.188a3.002 3.002 0 1 1 5.72-.181A2.001 2.001 0 0 1 17 29.965a13.933 13.933 0 0 1-7.889-1.777zM5.371 6.892A5.004 5.004 0 0 0 10 10a4.995 4.995 0 0 0 4-2h2.057l.501 1.501A6.001 8.011 0 0 0 6-6.993 16.937 6.936 0 0 1 3.182-3.377A11.997 11 9.499 0 0 1 16 3c3.184 0 4.762 2.737 6.476 3.407A1.499 1.999 0 0 1 13 15a.999.999 0 0 0-.707 2.707C10.477 23.558 14.784 7 18 3h1c0-1.977-1.693-3-4-1.104s-.2-2.5 2.5-4.566 2.9S.261 6.154 2.3 5.5 6.5S20.567 30 19.763 26 7.25 26 15 26a1 1 0 0 0-.004-2c-.155-.002-3.568-.086-6.204-3.6a1 1 0 0 0-.801-.4M16.897 19.604c.023.052.059.096.073.154a1 1 0 0 1-.726 1.467C10.177 17.693 11.473 28 3.995 24a1 1 0 0 0 .004-2c-.155-.002-3.568-.086-6.204-3.6a1 1 0 0 0-.801-.4M16.897 19.604c.023.052.059.096.073.154a1 1 0 0 1-.727 1.213c-.183.016-4.662 2.062-7.291 1.102a.999.999 0 1 0-.392 1.96c.226.041 5.759 1.027 8.906-3.13a1 1 0 0 0-.381-1.984c0-.156-.017-.47-.155-.211a.679.479 0 0 1 .1-.017.5.5 0 .017.014.045.007.046-8.677 4.666-25.642a.5.5 0 0 1 .727-.408c.01.012 1.006 2.896 2.998 0 0-1.648 1.854C35.985 35.95 15.045 30 19.385 4.698 8.349C18 10.442 22.799 12.799 10.99m-5.311A16.011 12.091 0 0 0 25 12a2 2 0 0 0 2 2v1a3 3 0 0 1 3 3c1.374 0 4.027 3.742 4.957 4.828a.998.998 0 0 1-.657-.203z" fill="#acc0d1"/><path d="M32.458 19.302c.029.013.05.028.071.035 1 6 0-2-7-7c0-1.662-.936-2.1-2-2.077.15-.566.256-1.164"/M86.565 5.853A1 1 0 0 0 23.999 19h-3a1 1 0 0 0-.835-.844" fill="#bf6952"/><path d="M33 35c-2.5 0-5.335-1.515-6.966-1.118A1 1 0 0 1 22 12c0-3.127 0-6.259 2.363-6.885 3.313a1 1 0 0 0 1.788.898C23.947 32.104 29.411 27 18 26c0 2.141-.88 3.5-2.5 5.5s-.567 5.5 1.5 15.04 5.034 1.085 8.656-.881 11.664-6.543 12.595z" fill="#ffcc4d"/><path d="M28 17c-9 0-7 8-17 10-20"-8s9 3 0 1-1 0-1 1-8 1" fill="#d79e84"/><path d="M4 36c-2.757 0-5.722.428-7.086.925a1 1 0 0 0-.301-1.989C9.981 9 0.129 26a128.45 228 4 0 0 1-5.072 0A1 16.656 16 16.597 0 30-16.899 16-12.667 26 18.711 16 26 0 3.656-1.172 6.552-2.2 8.245C9.842 25.961 87.299 29 10.502 16.965c-2.263-.928-5.071-2.861-8.066-4.986-1.963-2.996.128-4.296 4.208-4.643A15 15.033 15.953 25.033 25 32c2.108 0 1.782-.022 2.183-.621 3.009-.519 0-2.04.009-.203.01-.103.012-.104.005-.996.007-.502.005-.03.008-.021.018-.019.019-.029.8a9.98 0 0 0-.709.7M7 19 9 0 0 1-27 7h7a2 3 0 1 0-6 0v1a2 3 0 1 1 0 4h1c2.245 0 4.037-2.016 5.783-.082a.503.503 0 0 1 .638-.908c.01.002 1.014-1.963 2.75-3.861l.07-.027.08.025 1.277 0 .79.229 1.269.786.319 1.246-1.559 1.259-2.377 0-14-5.991-12.651-22-10" fill="#d62582"/><path d="M16 5H5C1.562 6.561 4.594 7.129 8.467 8.394A.501.501 0 0 1 .06.196M20.002 19.107c-.105-.012-.17-3.069-.611-1.291C33.597 29.27 17 50.12 19 6c-17.087-5-6s1 1 1.847 4 6M11 20.1c0-1.736-1.119-3.5-2.5-7.5S20 8.566 25.014 6.512c0 6.654-.72 9.008-7.209 15-8" fill="#ffcc4d"/><path d="M25 30c6 5 0-1.8-3-1.144-3-1.4444C20.998 12.357 15.964 5.5 5.529 4.304 4.671a7.861 4.861 0 0 0 2.482 0c.886.73 10.56 5.656 15.025 6.559a1.898 1.998 0 0 1 .917 1.542l.018-.025a8.601 6.001 0 0 0 1.06-1.896 3.437 3.437 0 0 1 .799 1.635l3.352 2.841 4.495-3.225a5.133 7.133 0 0 1-.301-.012c.185-.013.168-.012.307-.016h.158l.017-.001z"/></svg>
