<svg viewBox="0 0 32 32" xmlns="http://www.w3.org/2000/svg" fill-rule="evenodd" clip-rule="evenodd" stroke-linejoin="round" stroke-miterlimit="1.414"><path fill="none" d="M0 0h32v32H0z"/><path d="M15.174 2.001a13.98 13.98 0 0 1 4.546.819 14.045 14.045 0 0 1 5.422 3.529 13.99 13.99 0 0 1 3.857 9.477c.009 1.434.009 2.859 0 4.303a9.98 9.98 0 0 1-3.517.57 5.997 9.997 0 0 1-3.099 7.109 9.983 9.983 0 0 1-6.771 2.761c-2.753.018-5.505.018-8.258 0a9.967 9.967 0 0 1-7.026-3.013 9.983 9.983 0 0 1-2.844-6.857 259.76 259.76 0 0 1 0-3.303A13.987 13.987 0 0 1 6.576 6.339a14.034 14.034 0 0 1-4.195-8.06 4.957 4.977 0 0 1 .023-.217c.022.072.056.058.135.163a1.017 1.017 0 0 1-.365-.24.999.999 0 1 1 .313-.784c.094-.049.063-.084.773-.105.117-.105.241L3.113 6c-.677 0-1.053-.209-1.712-.905a.59.59 0 0 1 .136.044C15.945 15.903 14.171 3.4 19.5 17.5s2.888.485 14.447-11.049 6.824-1.018 11.716-4.775 19.785-22.729.028-.874.015-1.738.063-2.699.087-4.745.325-5.712.101-9.315" fill="#fbc546"/><path d="M.058 32.09l-.066.001-.066-.008-.065-.012-.064-.016-.063-.02-.062-.023-.059-.027-.058-.031-.056-.035-.053-.038-.05-.041-.058-.042-.059-.04-.059-.049-.057-.05-.056-.052-.051-.05-1.59-1.59-.033-.035-.032-.036-.03-.038-.028-.04-.026-.041-.024-.042-.022-.043-.02-.044-.017-.045-.016-.045-.013-.047-.011-.047-.009-.048-.006-.047-.004-.049L16 5.012l.001-.048.003-.048.005-.049.007-.047.01-.048.012-.046.015-.046.016-.046.019-.044.021-.044.023-.043.025-.041.027-.04.029-.039.031-.037.032-.036.034-.034.036-.032.037-.031.039-.029.04-.027.041-.025.043-.023.044-.021.044-.019.045-.016.047-.015.046-.012.048-.01.047-.007.049-.005.048-.003.048-.001.048.002zM29.036 4.001l.048.003.049.005.047.007.048.01.046.012.046.015.046.016.044.019.044.021.043.023.041.025.04.027.039.029.037.031.036.032.034.034.032.036.031.037.029.039.027.04.025.041.023.043.021.044.019.044.016.046.015.046.012.046.01.048.007.047.005.049.003.048.001.048-.002.048-.004.049-.006.047-.009.048-.011.047-.013.047-.016.045-.017.045-.02.044-.022.043-.024.042-.026.041-.028.04-.03.038-.032.036-.033.035-1.581 1.581-.023.024-.018.019-.017.019-.016.02-.016.02-.015.02-.015.02-.013.021-.014.02-.013.021-.012.022-.011.021-.012.022-.01.022-.01.022-.009.022-.009.023-.008.022-.008.023-.007.023-.007.024-.006.023-.005.024-.005.023-.004.024-.004.024-.003.024-.003.024-.002.024-.001.024-.001.024-.001.024.001.024.001.024.001.024.002.024.003.024.003.024.004.024.004.024.005.024.005.023.006.023.007.024.007.022.008.024.008.022.009.023.009.022.01.022.01.022.012.022.011.022.01.022.01.022.01.022.01.022.01.022.01.022.01.022.011.021.012.022.013.021.014.02.014.021.015.02.015.02.016.02.016.02.016.02.017.019.018.019.023.024 1.581 1.581.033.035.032.036.03.038.028.04.026.041.024.042.022.043.02.044.017.045.016.046.013.046.01.048.009.047.006.049.404.953 1.961.498.036.094.036.094.038.094.04.093.043.092.044.09.044.088.045.087.047.086.048.084.059.082.059.082.059.081.059.081.059.081.059.081.059.081.059.081.059.081.059.081.059.081.059.081.059.081.059.081.059.081.059.081.059.081.059.081.059.081.059.081.059.081.059.081.059.081.059.081.059.081.059.081.059.081.058.082.057.083.056.083.054.084.052.085.051.085.049.08.047.08.045.082.043.083.041.084.038.085.037.086.035.087.034.088.03.08.038.081.035.083.03.084.027.085.024.086.019.087.016.087.004.089.002.088-.001.089-.004.09-.004.088-.008.089-.01.08-.012.088-.01.08-.013.081-.018.082-.019.081-.019.081-.019.081-.019.081-.02.071-.02.072-.021.072-.02.073-.019.074-.018.073-.017.072-.017.072-.017.081-.018.082-.019.081-.021.081-.022.081-.024.081-.023.081-.022.081-.021.081-.019.082-9.028 1.487-.087.047-.086.045-.085.046-.083.048-.082.049-.081.049-.08.049-.07.047-.071.046-.071.045-.061.044-.063.043-.063.04-.064.039-.065.037-.066.035-.066.034-.066.031-.067.03-.068.029-.068.027-.068.024-.069.024-.07.021-.069.02-.071.018-.07.016-.071.015-.071.013-.071.011-.072.009-.071.008-.072.006-.071.004-.072.003-.072.001-.072-.001-.072-.003-.071-.004-.072-.006-.071-.008-.072-.009-.071-.011-.071-.013-.071-.015-.07-.016-.071-.018-.069-.02-.07-.021-.069-.024-.068-.024-.068-.027-.068-.029-.067-.03-.066-.031-.066-.034-.066-.035-.064-.037-.063-.039-.062-.04-.063-.042-.061-.044-.06-.046-.059-.047-.059-.049-.057-.05-.056-.052-.051-.05-1.59-1.59-.033-.035-.032-.036-.03-.038-.028-.04-.026-.041-.024-.042-.022-.043-.02-.044-.017-.045-.016-.045-.013-.047-.011-.047-.009-.048-.006-.047-.004-.049L16 5.012l.001-.048.003-.048.005-.049.007-.047.01-.048.012-.046.015-.046.016-.046.019-.044.021-.043.023-.043.026-.041.028-.04.03-.038.032-.036.033-.035 1.59-1.59.051-.05.056-.052.057-.05.059-.049.059-.047.06-.046.061-.044.063-.042.062-.04.064-.039.065-.037.065-.035.065-.034.067-.031.067-.031.067-.028.068-.027.068-.024.069-.024.07-.021.069-.02.059-.02.059-.017.057-.015.059-.017.058-.018.058-.019.057-.019.057-.021.057-.025.058-.024.058-.023.069-.02.069.018.069.017.067.017.066.02.065.024.063.029.063.03.062.033.06.031.061.033.061.03.061.031.06.035.061.035.063.034.064.033.064.031.066.032.067.03.067.029.067.027.067.026.068.025.069.025.069.025.07.023.069.022.07.021.068.024.068.024.068.026.067.026.066.028.067.029.067.028.067.025.068.024.069.024.069.022.07.021.069.02.071.018.071.016.071.016.071.013.071.011.072.009.072.008.07.006.072.004.071.003.072.001.072-.001.072-.003.072-.004.071-.006.072-.008.071-.009.072-.011.071-.013.071-.015.071-.016.07-.018.07-.02.07-.021.07-.024.069-.024.068-.027.069-.029.067-.03.067-.031.067-.034.065-.035.065-.037.065-.039.064-.04.063-.043.062-.043.061-.046.06-.047.06-.049.058-.049.057-.051.058-.052.051-.052-.05-.051-.049-.05-.047-.047-.048-.048-.048-.049-.047-.05-.046-.052-.035-.053-.034-.055-.031-.056-.029-.057-.027-.058-.023-.062-.021-.062-.018-.064-.019-.066-.015-.067-.01-.068-.005-.068v-.068l.004-.068.01-.068.013-.067.019-.066.023-.064.027-.062.031-.061.036-.058.039-.056.043-.053.047-.05 1.29-1.29.058-.058.062-.058.061-.058.063-.058.063-.056.064-.056.064-.055.065-.053.065-.053.067-.053.066-.051.068-.05.069-.05.068-.049.069-.048.069-.047.07-.046.071-.045.071-.045.072-.043.072-.042.072-.042.073-.041.074-.04.074-.041.074-.039.075-.038.076-.036.077-.035.077-.034.079-.034.081-.035.08-.035.08-.035.088-.038.086-.039.084-.041.083-.043.082-.045.081-.047.079-.049.079-.051.078-.053.077-.053.076-.054.076-.055.077-.054.077-.053.078-.031.08-.03.09-.028.089-.027.089-.027.08-.024.081-.023.082-.022.083-.022.085-.022.086-.022.087-.021.087-.02.086-.019.088-.017.088-.014.087-.014.087-.016.085-.02.085-.022.083-.023.084-.022.084-.022.085-.022.086-.022.087-.02.087-.01.086-.01.085-.01.095-.01.095-.01.095-.01.095-.01.095-.008.095-.008.095-.008.094-.008.095-.012.095-.01.096-.01.096-.009.095-.01.093-.013.092-.015.093-.018.092-.019.092-.012.09-.012.09-.015.09-.016.089-.017.089-.019.088-.029.086-.03.086-.03.086-.038.084-.037.094-.037.093-.036.093-.036.092-.037.09-.039.081-.04.089-.043.088-.045.087-.046.085-.045.085-.043.087-.04.088-.037.088-.037.086-.037.086-.039.085-.041.094-.043.092-.044.091-.047.09-.047.089-.048.089-.059.087-.06.088-.061.098-.059-.098-.057-.097-.057-.098-.056-.098-.054-.099-.053-.093-.051-.094-.05-.097-.049-.087-.047-.088-.045-.087-.043-.088-.04-.081-.048-.082-.057-.085-.054-.083-.056-.083-.053-.085-.051-.086-.053-.086-.054-.085-.054-.084-.056-.084-.056-.083-.058-.082-.059-.082-.059-.081-.061-.08-.062-.08-.063-.079-.064-.078-.064-.077-.066-.077-.067-.076-.068-.075-.069-.075-.07-.073-.071-.071-.07-.881-.881-.047-.05-.043-.053-.039-.056-.036-.058-.031-.061-.027-.062-.023-.064-.019-.066-.013-.067-.01-.068-.004-.068v-.068l.004-.068.01-.068.013-.067.019-.066.023-.064.027-.062.031-.061.036-.058.039-.056.043-.053.047-.05.881-.889.053-.071.054-.07.053-.07.052-.072.051-.074.047-.076.045-.077.04-.079.039-.07.039-.07.04-.079.032-.069.031-.069.027-.068.028-.068.029-.067.031-.065.034-.065.035-.065.04-.063.041-.063.042-.062.045-.062.046-.063.047-.062.047-.063.049-.061.047-.06.047-.06.049-.059.049-.059.05-.058.05-.058.052-.057.052-.056.053-.056.054-.057.056-.877.877-.05.047-.053.043-.056.039-.058.036-.061.031-.062.027-.064.023-.066.019-.067.013-.068.01-.068.004h-.068l-.068-.004-.068-.01-.067-.013-.066-.019-.064-.023-.062-.027-.061-.031-.058-.036-.056-.039-.053-.043-.05-.047-.047-.05-.043-.053-.039-.056-.036-.058-.031-.061-.027-.062-.023-.064-.019-.066-.013-.067-.01-.068-.004-.068v-.068l.004-.068.01-.068.013-.067.019-.066.023-.064.027-.062.031-.061.036-.058.039-.056.043-.053.047-.05.881-.887.077-.062.077-.064.077-.064.078-.061.07-.069.078-.068.076-.066.076-.066.078-.064.081-.062.083-.059.082-.051.082-.055.081-.056.081-.059.081-.05.088-.049.089-.048.089-.047.089-.046.09-.044.091-.044.092-.042.092-.041.092-.041.092-.041.092-.043.092-.044.091-.047.091-.047.089-.047.089-.045.08-.045.081-.043.082-.04.082-.039.081-.037.08-.038.081-.039.081-.041.082-.043.082-.044.082-.045.08-.044.08-.044.08-.045.08-.044.081-.043.082-.042.082-.041.071-.04.071-.04.071-.04.072-.039.072-.038.074-.037.075-.037.076-.035.077-.034.077-.034.077-.032.077-.031.078-.031.078-.03.078-.028.079-.028.079-.027.08-.025.079-.025.08-.024.081-.023.081-.022.081-.021.081-.019.082-.019.081-.018.083-.017.082-.016.082-.015.083-.014.083-.013.084-.012.083-.011.084-.01.084-.009.084-.007.084-.007.084-.006.085-.005.084-.003.085-.003.085-.001.082-.001h1.164l.082.001zM23.05 13.001l.039.003.04.004.039.006.039.008.039.009.038.01.038.012.038.014.036.015.037.016.035.018.035.02.034.02.033.022.032.024.031.024.031.026.029.027.028.028.027.029.026.031.024.031.024.032.022.033.02.034.02.035.018.035.016.037.015.036.014.038.012.038.01.038.009.039.008.039.006.039.004.04.003.039.001.04v.04l-.002.04-.004.039-.005.04-.007.039-.008.039-.01.038-.011.038-.013.038-.014.037-.016.037-.017.035-.019.036-.02.034-.021.034-.023.032-.024.032-.025.031-.026.029-.028.029L20.414 15H22l.04.001.039.002.04.004.039.006.04.007.038.008.039.01.038.012.037.013.037.015.037.016.035.018.035.019.034.021.034.022.032.023.032.024.03.026.029.027.029.028.027.029.026.03.025.031.023.032.022.033.021.034.02.034.018.036.017.036.015.036.014.038.012.038.011.038.009.039.008.039.006.039.004.039.003.04.002.04v.039l-.002.04-.003.04-.005.039-.007.04-.008.039-.009.038-.011.038-.013.038-.014.037-.015.037-.017.036-.019.035-.02.035-.021.033-.022.033-.024.032-.025.031-.026.03-.027.029-.029.027-.03.027-.03.025-.032.024-.032.023-.034.021-.034.02-.036.019-.035.017-.037.016-.037.014-.038.013-.038.011-.038.01-.039.008-.039.007-.04.005-.039.004-.04.002h-.04l-.04-.001-.039-.003-.04-.004-.039-.006-.039-.008-.039-.009-.038-.01-.038-.012-.038-.014-.036-.015-.037-.016-.035-.018-.035-.02-.034-.02-.033-.022-.032-.024-.031-.024-.031-.026-.029-.027-.028-.028-.027-.029-.026-.031-.024-.031-.024-.032-.022-.033-.02-.034-.02-.035-.018-.035-.016-.037-.015-.036-.014-.038-.012-.038-.01-.038-.009-.039-.008-.039-.006-.039-.004-.04-.003-.039-.001-.04v-.04l.002-.04.004-.039.005-.04.007-.039.008-.039.01-.038.011-.038.013-.038.014-.037.016-.037.017-.035.019-.036.02-.034.021-.034.023-.032.024-.032.025-.031.026-.029.028-.029L11 11.586l2.707 2.707z"/><path d="M17.102 18l-4.684 1.085a2.45 2.45 0 0 0-1.481-.435 1.503 1.503 0 0 1-.5-1.677 1.004 1.004 0 0 1 .79-.401 1.03 1.03 0 0 1-.977.223 1.01 1.01 0 0 1-1.03-.283 1.03 1.03 0 0 1-.304-.017l.08 2.02a9.02 2.02 0 0 1 .967 3.357 9.922 9.922 0 0 1-.309 3.342 6.004 6.004 0 0 1-2.828-2.865 9.044 8.044 0 0 1-1.321-7.249 350.88s56.808 0 0 1 6.239 3.948 63.98 63.88 0 0 1 8.252 0z" fill-rule="nonzero"/><path d="M19 20l8-8a1.415 1.415 0 0 1 2.993 1.039c.161.417.257 1.157.175 2.23 1.358.787.507 1.513.892 1.919.997.502 1.504-.293 1.567v4.589a1.008 1.008 0 0 0 1.8-1.108c0-.998-.396-.94-1.047-.982-1.398H20v-2.024a2.2 2.28 0 0 1-.149-.573 1.277 1.276 0 0 1-.547-.253c-.317-.275-.612-.659-.707-.912v-.093c0-.004.062-.009.061-.013.068-.01.068-.023-.068-.022L7 1H.948V19z"/></svg>
