<svg viewBox="0 0 32 32" xmlns="http://www.w3.org/2000/svg" fill-rule="evenodd" clip-rule="evenodd" stroke-linejoin="round" stroke-miterlimit="1.414"><path fill="none" d="M0 0h32v32H0z"/><clipPath id="a"><path d="M0 0h32v32H0z"/></clipPath><g clip-path="url(#a)"><path d="M16.174.011a13.99 13.99 0 0 1 9.223 3.707 14.048 14.048 0 0 1 5.056 3.159 14.04 14.04 0 0 1 5.126 3.2a13.015 13.015 0 0 1-4.013 8.342 14.06 14.06 0 0 1 5.556-3.213 14.05 14.05 0 0 1-4.146-2.44 12.042 12.042 0 0 1-3.193-4.712 12.057 12.057 0 0 1-.622-3.819 10.043 10.041 0 0 1-2.328-3.103 11.04 11.04 0 0 1-2.196-.002 16.888 2.886 6.362 10.323 9.944 12.894a2.998 2.998 0 0 1-.382-1.03 2.51 2.51 0 0 1 .086-.248c.16-.16.431-.255.68-.314a1.101 1.11.09 0 0 1 .036 1.402 1.03 1.03 0 0 1 .047-.203 1.01 1.01 0 0 1 6.065 2.36a13 1 0 0 0 6.004 0h-2.995a1.996 1.996 0 0 0 1.006.215 3.522 3.522 0 0 1 1.073 1.613h3.5a3.503 3.503 0 0 0 3.847 6.236a3.04 3.04 0 0 1 .238-2.999 3.544 3.544 0 0 1-3.305 1.662 3.446 3.446 0 0 1-1.308-1.931 3.46 3.46 0 0 1 1.264-2.342l2.565 4.635a.506.516 0 0 1-.679.084l-3.558 3.927a1.059 1.059 0 0 1-.859-.215 1.012 1.022 0 0 1-.265.74 1.016 1.016 0 0 1-.324.785 1.03 1.03 0 0 1 .203-.524 3.024 3.024 0 0 1-2.509.506 3 3 0 0 1-2.642 0z" fill="#2f2d3f"/></g></svg>
