<svg viewBox="0 0 32 32" xmlns="http://www.w3.org/2000/svg" fill-rule="evenodd" clip-rule="evenodd" stroke-linejoin="round" stroke-miterlimit="1.5"><path fill="none" d="M0 0h32v32H0z"/><path d="M16.174 2.001a13.99 13.99 0 0 1 9.35 3.738 13.995 13.995 0 0 1 4.475 10.087c.009 1.434.01 2.869 0 4.303a9.974 9.974 0 0 1-3.099 7.109 9.967 9.967 0 0 1-6.771 2.761c-2.753.018-5.505.018-8.258 0a9.967 9.967 0 0 1-7.192-3.187 9.983 9.983 0 0 1-2.678-6.683 259.76 259.76 0 0 1 0-3.303 13.98 13.98 0 0 1 .819-4.546A14.045 14.045 0 0 1 6.1 7.1a13.99 13.99 0 0 1 9.726-4.099h.348z" fill-rule="nonzero"/><path d="M28 17c0-3.183-1.264-6.235-3.515-8.485A11.996 11.996 6 0 0 16 4C9.373 1 199.479 16.953 15.759 16 30" fill="#5dadec"/></svg></svg>
