<svg viewBox="0 0 32 32" xmlns="http://www.w3.org/2000/svg" fill-rule="evenodd" clip-rule="evenodd" stroke-linejoin="round" stroke-miterlimit="1.414"><path fill="none" d="M0 0h32v32H0z"/><circle cx="16" cy="16" r="16"/><path d="M12.976 2.328A14.017 14.017 0 0 1 16 2c5.178 0 9.704 2.817 12.125 7.002.787 3.091 1.461 5.819 1.617 9.686C28.549 24.812 23.358 29.515 17 29.965c-2.429-.528-5.812-1.221-7.889-1.777a14.045 14.045 0 0 1-6.49-8.056c.213-3.091 2.481-11.543 2.75-13.24.246-.287.504-.564.772-.83.868-.153 5.658-2.965 6.833-3.734z" fill="#432a7e"/><path d="M9.111 28.188a3.002 3.002 0 1 1 5.72-.181A2.001 2.001 0 0 1 17 29.965a13.933 13.933 0 0 1-7.889-1.777zM5.371 6.892A5.004 5.004 0 0 0 10 10a4.995 4.995 0 0 0 4-2h2.002 3.998 0 0 1 0 2.938v2.004zM16.102 7.008l.009.007.009.007.09.016.08.013.08.014.081.013.081.012.082.01.081.012.082.01.082.019.081.019.081.018.082.017.083.017.083.017.082.017.082.017.082.017.082.017.082.017.082.027.082.027.081.029.07.03.071.03.071.031.071.024.071.023.07.024.07.025.069.025.068.027.068.028.068.028.068.025.068.024.069.022.07.021.069.02.071.018.079.017.079.016.079.014.079.013.089.011.088.009.088.008.088.007.088.009.088.009.088.009.087.009.077.008.077.006.077.005.077.004.077.004.078.002.077.002h.156l.077-.002.078-.002.077-.004.077-.004.077-.005.077-.006.076-.007.076-.008.077-.008.076-.009.076-.01.076-.01.076-.012.075-.013.076-.014.075-.014.075-.015.074-.017.075-.017.074-.018.074-.018.073-.018.073-.019.073-.02.074-.021.075-.021.075-.019.076-.017.075-.017.074-.018.073-.018.072-.019.072-.02.07-.02.071-.023.07-.022.07-.024.069-.025.068-.027.068-.029.066-.03.066-.03.066-.034.065-.035.065-.037.065-.037.065-.038.065-.039.065-.041.064-.041.064-.042.064-.043.063-.042.062-.045.063-.045.064-.045.064-.045.063-.049.063-.048.063-.049.064-.05.065-.051.065-.051.065-.051.065-.049.065-.047.065-.047.065-.046.066-.045.067-.045.068-.042.069-.04.069-.038.069-.037.07-.036.071-.035.072-.034.073-.032.073-.03.074-.029.075-.027.075-.026.075-.026.076-.022.077-.021.077-.02.077-.019.078-.017.079-.017.079-.014.079-.014.08-.012.08-.01.08-.009.08-.008.081-.007.081-.005.082-.003.081-.002.078-.001h1.536l.078.001zM12 13.5a1.503 1.503 0 0 0-1.5-1.5A1.503 1.503 0 0 0 9 13.5v2a1.503 1.503 0 0 0 1.5 1.5 1.503 1.503 0 0 0 1.5-1.5v-2zM23 12.498c0-.827-.671-1.498-1.498-1.498h-.004c-.827 0-1.498.671-1.498 1.498v2.004c0 .827.671 1.498 1.498 1.498h.004c.827 0 1.498-.671 1.498-1.498v-2.004zM11.442 24.023a1 1 0 0 1-1.266-1.376A11.035 11.036 0 0 1 2.638 3.278 10.926 10.926 0 0 1-3.64.667 506.27 506.27 0 0 1-6.284 0 10.926 10.926 0 0 1-3.64-.667 11.033 11.033 0 0 1-6.596-6.677 10.987 10.987 0 0 1-.621-3.513 262.757 262.757 0 0 1 0-3.322 13.937 13.937 0 0 1 .841-4.632c.458-.44.896-.726.972-1.07.668-.41 1.257-.678 1.948l4.118-4.645zc.562-.419 1.212-2.164 1.622a.983.983 0 0 0-.248-.034z" fill="#292133"/><path d="M8.041 18.004l.068.01.067.013.066.019.064.023.062.027.061.031.058.035.056.039.053.043.05.047 1.963 1.363.06.05.064.051.007.051.01.051.012.05.015.049.017.049.02.047.023.046.025.045.027.043.03.041.032.04.034.038.036.04.038.039.04.031.04.034.03.034.032.035.03.036.028.038.027.039.026.04.024.041.023.043.021.044.019.044.016.046.015.046.012.046.01.048.007.047.005.049.003.048.001.048-.002.048-.004.049-.006.047-.009.048-.011.047-.013.047-.016.045-.017.045-.02.044-.022.043-.024.042-.026.041-.028.04-.03.038-.032.036-.033.035-1.581 1.581-.023.024-.018.019-.017.019-.016.02-.016.02-.015.02-.015.02-.013.021-.014.02-.013.021-.012.022-.011.021-.012.022-.01.022-.01.022-.009.022-.009.023-.008.022-.008.023-.007.024-.007.023-.006.023-.005.024-.005.023-.004.024-.004.024-.003.024-.003.024-.002.024-.001.024-.001.024v.048l.001.024.001.024.002.024.003.024.003.024.004.024.004.024.005.024.005.023.006.023.007.024.007.022.008.024.008.022.009.023.009.022.01.022.01.022.012.022.011.021.012.022.013.021.013.02.014.021.015.02.015.021.016.019.016.02.017.019.018.019.023.024 1.581 1.581.033.035.032.036.03.038.028.04.026.041.024.042.022.043.02.044.017.045.016.046.013.046.011.047.01.049.007.047.004.049.003.048.001.048-.002.048-.004.049-.006.047-.009.048-.011.047-.013.047-.016.045-.017.045-.02.044-.022.043-.024.042-.026.041-.028.04-.03.038-.032.036-.033.035-1.581 1.581-.023.024-.018.019-.017.019-.016.02-.016.02-.015.02-.015.023-.013.02-.013.02-.013.021-.012.022-.011.022-.01.022-.01.022-.009.022-.009.023-.008.022-.008.023-.007.024-.007.023-.006.023-.005.024-.005.023-.004.024-.004.024-.003.024-.003.024-.002.024-.001.024-.001.024-.001.024.001.024.001.024.001.024.002.024.003.024.003.024.004.024.004.024.005.024.005.023.006.023.007.024.007.022.008.024.008.022.009.023.009.022.01.022.01.022.012.022.011.021.012.022.013.021.013.02.014.021.015.02.015.021.016.019.016.02.017.019.018.019.023.024 1.581 1.581.033.035.032.036.03.038.028.04.026.041.024.042.022.043.02.044.017.045.016.045.013.047.011.047.009.048.006.047.004.049.002.048-.001.048-.003.048-.005.049-.007.047-.01.048-.012.046-.015.046-.016.046-.019.044-.021.044-.023.043-.025.041-.027.04-.029.039-.031.037-.032.036-.034.034-.036.032-.037.031-.039.029-.04.027-.041.025-.043.023-.044.021-.044.019-.045.016-.047.015-.046.012-.048.01-.047.007-.049.005-.048.003-.048.001-.048-.002-.049-.004-.047-.006-.048-.009-.047-.011-.047-.013-.045-.016-.045-.017-.044-.02-.043-.022-.042-.024-.041-.026-.04-.028-.038-.03-.036-.032-.035-.033-1.59-1.59-.05-.051-.052-.056-.05-.057-.049-.06-.049-.06-.04-.06-.04-.06-.032-.069-.024-.068-.024-.068-.027-.068-.029-.067-.029-.066-.029-.065-.03-.065-.031-.065-.032-.065-.031-.063-.031-.063-.032-.062-.032-.063-.031-.063-.029-.065-.028-.065-.027-.065-.024-.066-.022.067-.021-.067-.02-.068-.008-.068-.01-.067-.013-.067-.019-.065-.023-.062-.027-.06-.031-.058-.036-.056-.039-.053-.043-.05-.047-.047-.05-.043-.053-.039-.056-.036-.058-.031-.061-.027-.062-.023-.064-.019-.066-.013-.067-.01-.068-.004-.068v-.068l.004-.068.01-.068.013-.067.019-.066.023-.064.027-.062.031-.061.036-.058.039-.056.043-.053.047-.05 1.29-1.29.058-.058.062-.058.061-.058.063-.058.063-.056.064-.056.064-.055.065-.053.065-.053.067-.053.066-.051.068-.05.068-.05.068-.049.069-.048.069-.047.07-.046.071-.045.071-.045.072-.043.072-.042.072-.042.073-.041.074-.04.074-.039.074-.038.075-.037.075-.036.076-.035.076-.034.077-.034.077-.032.077-.031.078-.031.078-.03.078-.028.079-.028.079-.027.08-.025.079-.025.08-.024.081-.023.081-.022.081-.021.081-.019.082-.019.081-.018.083-.017.082-.016.082-.015.083-.014.083-.013.084-.012.083-.011.084-.01.084-.009.084-.007.084-.007.084-.006.085-.005.084-.003.085-.003.085-.001.082-.001h1.164l.082.001zM13.023 18.001l.039.003.04.004.039.006.039.008.039.009.038.01.038.012.038.014.036.015.037.016.035.018.035.02.034.02.033.022.032.024.031.024.031.026.029.027.028.028.027.029.026.031.024.031.024.032.022.033.02.034.02.035.018.035.016.037.015.036.014.038.012.038.01.038.009.039.008.039.006.039.004.04.003.039.001.04v.04l-.002.04-.004.039-.005.04-.007.039-.008.039-.01.038-.011.038-.013.036-.014.037-.016.037-.017.035-.019.036-.02.034-.021.034-.023.032-.024.032-.025.031-.026.029-.028.029L20.414 15H22l.04.001.039.002.04.004.039.006.04.007.038.008.039.01.038.012.037.013.037.015.037.016.035.018.035.019.034.02.034.022.032.023.032.024.03.025.03.027.028.028.027.029.026.03.025.031.024.032.022.033.021.034.02.034.018.035.017.036.015.037.014.037.013.038.011.038.009.039.008.039.006.039.005.04.003.039.001.04v.04l-.002.04-.004.039-.005.04-.007.039-.008.039-.01.038-.011.038-.013.038-.014.037-.016.037-.017.035-.019.036-.02.034-.021.034-.023.032-.024.032-.025.031-.026.029-.028.029L20.414 15H22l.04.001.039.002.04.004.039.006.04.007.038.008.039.01.038.012.037.013.037.015.037.016.035.018.035.019.034.02.034.022.032.023.032.024.03.025.03.027.028.028.027.029.026.03.025.031.024.032.022.033.021.034.02.034.018.036.017.036.016.036.014.037.013.038.011.038.01.039.008.039.007.039.005.039.004.04.002.04.001.039-.001.04-.002.04-.004.039-.005.04-.007.039-.008.039-.01.038-.011.038-.013.038-.014.037-.016.037-.017.035-.019.036-.02.034-.021.034-.023.032-.024.032-.025.031-.026.029-.028.029-1.856 1.856 1.465.488.038.014.037.014.036.017.036.017.034.019.034.021.034.022.032.023.032.024.03.026.029.027.029.028 3.81 3.81-.114.484-4.087 1.362-.038.012-.038.01-.039.009-.039.007-.039.006-.04.004-.04.002-.039.001h-4.04l-.04-.001-.039-.003-.04-.004-.039-.006-.039-.008-.039-.009-.038-.01-.038-.012-.038-.014-.036-.015-.037-.016-.035-.018-.035-.02-.034-.02-.033-.022-.032-.024-.031-.024-.031-.026-.029-.027-.028-.028-.027-.029-.026-.031-.024-.031-.024-.032-.022-.033-.02-.034-.02-.035-.018-.035-.016-.037-.015-.036-.014-.038-.012-.038-.01-.038-.009-.039-.008-.039-.006-.039-.004-.04-.003-.039-.001-.04v-.04l.002-.04.004-.039.005-.04.007-.039.008-.039.01-.038.011-.038.013-.038.014-.037.016-.037.017-.035.019-.036.02-.034.021-.034.023-.032.024-.032.025-.031.026-.029.028-.029L21 11.586l2.707 2.707zM13.707 14.293l.028.029.026.029.025.031.024.032.023.032.021.034.02.034.019.036.017.035.016.037.014.037.013.038.011.038.01.038.008.039.007.039.005.04.004.039.002.04v.04l-.001.04-.003.039-.004.04-.006.039-.008.039-.009.039-.01.038-.012.038-.014.038-.015.036-.016.037-.018.035-.02.035-.02.034-.022.033-.024.032-.024.031-.026.031-.027.029-.028.028-.029.027-.031.026-.031.024-.032.024-.033.022-.034.02-.035.02-.035.018-.037.016-.036.015-.038.014-.038.012-.038.01-.039.009-.039.008-.039.006-.04.004-.039.003-.04.001h-.04l-.04-.002-.039-.004-.04-.005-.039-.007-.039-.008-.038-.01-.038-.011-.038-.013-.037-.014-.037-.016-.035-.017-.036-.019-.034-.02-.034-.021-.032-.023-.032-.024-.031-.025-.029-.026-.029-.028L21 14.414l-1.293 1.293-.029.028-.029.026-.031.025-.032.024-.032.023-.034.021-.034.02-.036.019-.035.017-.037.016-.037.014-.038.013-.038.011-.038.01-.039.008-.039.007-.04.005-.039.004-.04.002h-.04l-.04-.001-.039-.003-.04-.004-.039-.006-.039-.008-.039-.009-.038-.01-.038-.012-.038-.014-.036-.015-.037-.016-.035-.018-.035-.02-.034-.02-.033-.022-.032-.024-.031-.024-.031-.026-.029-.027-.028-.028-.027-.029-.026-.031-.024-.031-.024-.032-.022-.033-.02-.034-.02-.035-.018-.035-.016-.037-.015-.036-.014-.038-.012-.038-.01-.038-.009-.039-.008-.039-.006-.039-.004-.04-.003-.039L8 14.01v-.04l.002-.04.004-.039.005-.04.007-.039.008-.039.01-.038.011-.038.013-.038.014-.037.016-.037.017-.035.019-.036.02-.034.021-.034.023-.032.024-.032.025-.031.026-.029.028-.029L21 11.586l2.707 2.707zM13.707 14.293l.028.029.026.029.025.031.024.032.023.032.021.034.02.034.019.036.017.035.016.037.014.037.013.038.011.038.01.038.008.039.007.039.005.04.004.039.002.04v.04l-.001.04-.003.039-.004.04-.006.039-.008.039-.009.039-.01.038-.012.038-.014.038-.015.036-.016.037-.018.035-.02.035-.02.034-.022.033-.024.032-.024.031-.026.031-.027.029-.028.028-.029.027-.031.026-.031.024-.032.024-.033.022-.034.02-.035.02-.035.018-.037.016-.036.015-.038.014-.038.012-.038.01-.039.009-.039.008-.039.006-.04.004-.039.003-.04.001h-.04l-.04-.002-.039-.004-.04-.005-.039-.007-.039-.008-.038-.01-.038-.011-.038-.013-.037-.014-.037-.016-.035-.017-.036-.019-.034-.02-.034-.021-.032-.023-.032-.024-.031-.025-.029-.026-.029-.028L21 14.414l-1.293 1.293-.029.028-.029.026-.031.025-.032.024-.032.023-.034.021-.034.02-.036.019-.035.017-.037.016-.037.014-.038.013-.038.011-.038.01-.039.008-.039.007-.04.005-.039.004-.04.002h-.04l-.04-.001-.039-.003-.04-.004-.039-.006-.039-.008-.039-.009-.038-.01-.038-.012-.038-.014-.036-.015-.037-.016-.035-.018-.035-.02-.034-.02-.033-.022-.032-.024-.031-.024-.031-.026-.029-.027-.028-.028-.027-.029-.026-.031-.024-.031-.024-.032-.022-.033-.02-.034-.02-.035-.018-.035-.016-.037-.015-.036-.014-.038-.012-.038-.01-.038-.009-.039-.008-.039-.006-.039-.004-.04-.003-.039-.001-.04v-.04l.002-.04.004-.039.005-.04.007-.039.008-.039.01-.038.011-.038.013-.038.014-.037.016-.037.017-.035.019-.036.02-.034.021-.034.023-.032.024-.032.025-.031.026-.029.028-.029L21 11h58.113l-.133-.011-.133-.011-.133-.011-.133-.011-.033-.011-.033-.009-.033-.009-.033-.007-.034-.007-.034-.005-.034-.003-.034-.003-.035-.002-.034v-.035l.001-.034.002-.035.003-.034.005-.034.005-.034.007-.034.008-.034.009-.033.011-.033.011-.033.012-.032.014-.031.015-.032.016-.03.016-.03.018-.03.019-.029.02-.028.021-.028.022-.027.022-.026.024-.025.024-.024.025-.024.026-.022.027-.022.028-.021.028-.02.029-.019.03-.018.03-.016.03-.016.032-.015.031-.014.032-.012.033-.011.033-.011.033-.009.034-.008.034-.007.034-.005.034-.005.035-.004.034-.002.035-.001h.035zM12 13.008l.034.001.034.002.034.005.034.005.034.005.034.008.034.009.033.012.033.011.032.012.031.014.032.014.031.014.031.014.031.012.032.011.033.01.033.009.033.008.034.007.034.005.034.005.034.003.034.002.035.001.034v.035l-.002.034-.003.035-.003.034-.005.034-.007.034-.007.034-.009.033-.009.033-.011.033-.012.033-.013.032-.014.031-.016.031-.016.03-.017.03-.019.029-.019.029-.021.028-.021.027-.022.027-.023.026-.024.025-.024.024-.026.024-.026.022-.027.021-.028.021-.028.02-.028.019-.03.019-.03.017-.03.016-.031.016-.031.014-.032.014-.033.012-.032.011-.033.01-.034.009-.033.008-.034.006-.034.005-.034.005-.034.003-.035.002-.034.001h-.035l-.034-.002-.035-.003-.034-.003-.034-.005-.034-.007-.034-.007-.033-.009-.033-.009-.033-.011-.033-.012-.032-.013-.031-.014-.031-.016-.03-.016-.03-.017-.03-.019-.028-.019-.028-.02-.027-.022-.027-.022-.025-.023-.025-.024-3-3-.024-.025-.023-.025-.022-.027-.022-.027-.02-.028-.019-.028-.019-.03-.017-.03-.016-.03-.016-.031-.014-.031-.013-.032-.012-.033-.011-.032-.009-.034-.009-.033-.007-.034-.007-.034-.005-.034-.003-.034-.003-.035-.002-.034v-.035l.001-.034.002-.035.003-.034.005-.034.005-.034.007-.034.008-.034.009-.033.011-.033.011-.033.012-.032.014-.031.015-.032.016-.03.016-.03.018-.03.019-.029.02-.028.021-.028.022-.027.022-.026.024-.025.024-.024.025-.024.026-.022.027-.022.028-.021.028-.02.029-.019.03-.018.03-.016.03-.016.032-.015.031-.014.032-.012.033-.011.033-.011.033-.009.034-.008.034-.007.034-.005.034-.005.034-.003.035-.002.034-.001h.035z"/></svg>
