<svg xmlns="http://www.w3.org/2000/svg" viewBox="0 0 128 128"><path d="M100.5 72.77c-.99 0-1.41-.33-2.09-1.12l-4.5-5.4s-8.13-14.66-7.04-24.64c0-.68.14-1.01.32-1.65.18l-4.66-10.33a2.084 2.084 0 0 1-2.28-2.58zm-35.52.32c-.97 0-1.37-.43-1.85-1.12-.13-.22-.06-.49-.16-.51-.32-.28-.72-.65-.76-.62-.36-1.34-.13-1.95.51-3.47 1.28-5.84 4.48-7.46 8.42-.77 4.41.75 11.34 5.71 15.75 8.73.97 9.88-2.28 13.43-1.47 23.2z"/><path fill="#FBB51F" d="M67.54 89.79c-1.69-5.97-5.13-9.7-9.33-11.63-5.18 1.89-8.14 11.38-8.78 15.17-.97 1.12.71 2.28 1.7 2.23 3.5 2.33 8.55 7.5 15.4 11.1 1.25 2.41.87 4.73 2.22 5 2.89.97.47 1.76.82 2.65.89 1.57.25 2.6.17 5.51.19 1.7-.28 1.81-.81 2.42z"/></svg>
