<svg viewBox="0 0 32 32" xmlns="http://www.w3.org/2000/svg" fill-rule="evenodd" clip-rule="evenodd" stroke-linejoin="round" stroke-miterlimit="1.414"><path fill="none" d="M0 0h32v32H0z"/><path d="M16.174 2.001a13.99 13.99 0 0 1 9.223 3.621 14.048 14.048 0 0 1 3.783 5.658 13.98 13.98 0 0 1 .819 4.546c.007 1.105.007 2.21 0 3.316a10.987 10.987 0 0 1-.621 3.513 11.028 11.028 0 0 1-6.596 6.677 10.926 10.926 0 0 1-3.64.667c-1.764.011-3.527.011-5.291 0a12.03 12.03 0 0 1-3.897-.702 12.046 12.046 0 0 1-4.948-3.353 12.018 12.018 0 0 1-3.005-7.795c-.005-.776-.005-1.553 0-2.33a13.965 13.965 0 0 1 .791-4.471 14.04 14.04 0 0 1 8.394-8.498 13.937 13.937 0 0 1 4.634-.849 13.965 13.965 0 0 1 15.996 0l.18.002z" fill-rule="nonzero"/><path d="M28 17c0-3.183-1.264-6.235-3.515-8.485A11.996 11.996 0 0 0 16 4C9.373 4 4 9.373 4 16v3a9 9 0 0 0 9 9h6a9 9 0 0 0 9-9v-3z"/></svg><g clip-path="url(#b)"><path d="M31 29.5c5 0 3-.5 3-1h-6s0-2-6-2-1 4 0 1 6 1 14 0 3-1-7" fill="#79180e"/><path d="M10 10V1l23 16v6h-1z" fill="#ddb44a"/><path d="M27.323 18c.044.017.042.019.04.098.049.197.195.155.156.244.134.316l.177.073h1.794l.186-.605L27 10.816c.419.11.862.203 1.294.171.656.23 1.014.546 1.187.994 1.074 1.692.462 2.095-.542.34-.034.757-.002 1.179a25.034 15.034 0 0 0-1.309-.724 2.614 2.614 0 0 1-1.594-.998c-.03-.116-.402-.313-.145-.476l-.648-.026c.948-.383 1.255-.647 1.774-1.012H5.546 0 1.336-.123 1.744-.656 1.879-.749 1.191 1.962.362 2.528-1.006.61-.445 1.597.005 1.907a56886.59 0 63.91 19.69 61.64 11.08 13.68-2.88 27.62-22.89 32.18z"/><path fill="#FAB020" d="M85.35 93.33c-13.97 2.5-37.83-1.35-51.62-11.33-3.91-6.9 2.29-12.85 8.84-16.7 12.73-2.63 32.08 3.11 31.53 15.71 3.39 7.28-2.91 13.42-10.71 14.87z"/><path fill="#FAAE21" d="M32.4 89.14c-1.6 8.28-7.14 6.37-14.66 6.69-6.82-2.73-14.3-4.67-29.33-13.94-15.12 0-20.96 11.41-24.07 14.71-11.58 2.91-25.15 2.89-39.73-2.93z" fill="#ecee1c"/><path d="M75.54 53.67c0 2.58-1.03 3.49-3.02 3.39a7.327 6.227 0 0 1 3 8.26c-.82 0-.7-.22-.82-.38zm28.05-32.59c-.72 0-1.62-.31-2.34-1.19-1.43-.93-3.44-1.33-5.58-.62-.22-.34-.57-4.02-.29-.42s.98.95 2.53 1.52.84.4 1.84.84 2.6 1.2 16.14.55 24.43-8.08 28.4-3.48 2.77-4.67 4.19-10.79 7.75-2.39.17-4.45.81-6.38.91-7.39 7.71-18.34 13.52-30.46 14.43-2.79.13-5.72-.01-8.43-.63-.84-1.74-.89-3.09-.39-4.53-.12-.84-.78-2.05.22-3.01.17-.48.66-.96 1.21-1.08.7.05 2.38 6.21 2.51 6.46.77 3.29-2.15 4.3-5.96 4.58-.72-.01-1.58-.94-1.91-1.2zM125.75 24.62c-.39 1.19-.64 2.24.16 2.98 1.5.8 2.59.62 5.17-1.56 5.91-3.76.83-5.31.3-14.44-.39-2.57 0-5.25-.09-6.65-.19-4.09-.01-5.61-4.34-6.08-9.26.02-5.57 4.14-11.58 1.94-13.88 2.34-7.31 1.77-18.47 2.36-19.33 3.84-4.28 0-7.35 2.22-7.33 4.76 0 2.39 1 3.82 2.89 2.95 3.96.45 8.65-2.94 15.06-7.38 1.56-1.82 1.83-3.7.21-5.96-.71-3.74-1.74-6.18-2.22-9.08a20.632 20.823 0 0 0-6.28 9.83c-3.26 8.55-2.04 18.6-1.34 18.49-6.95 6.65-28.67 14.43-30.97 23.23-3.82 2.21 1.17 3.99 4.59 4.18 8.98zM38.38 40.25c-3.54 2.41-9.12 1.62-16.45 4.72-1.38 3.34.46 8.96 6.06 1.39 3.45-.5 8.82-4.12 8.72z"/><path fill="#F9A524" d="M30.31 88.29c-3.29 1.14-6.71-.47-7.86-3.62-1.16-3.15.48-6.03 3.67-7.77 3.181-1.14 6.77.44 7.31 3.6 1.18 3.12-.4 6.5-2.61 7.77z"/><path fill="#F89A27" d="M26.92 67.54c-2.69.7-5.54-.37-6.29-3.13-1.08-2.71.46-5.55 3.52-7.18 3.19-1.14 6.56.47 7.22 3.9 1.16 3.12-.51 6.6-2.95 7.83z"/><path fill="#F89A27" d="M27.89 71.64c-2.36.8-4.24-.35-5.72-3.34-1.12-2.79.53-5.05 2.86-5.92 2.4-.03 5.1.37 5.16 2.66.95 2.74-.41 5.56-3.04 6.51z"/><path fill="#F79728" d="M25.88 66.04c-1.73 1.66-3.77 3.39-4.88 5.01-2.72 4.5-.96 8.34 1.64 11.05 4.55 2.96 6.28-.82 10.63 6.91 12.01 5.67 2.09 1.64-4.51 3.3-7.03 4.07a2.68 2.68 0 0 1 .13-3.25c1.04-.58 2.96-.25 3.01-.65 1.47.21 3.25 1.53 4.72 2.41 5.2 2.08 8.41 8.33 8.44 13.3.53 1.11.6 2.28-.04 3.2-.05 1.67.91 3.16 1.95 1.91 1.84 1.64 3.31 1.34 5.23.56 1.98 3.48 4.81 6.79 10.47.65 1.04.49 2.13-.52 2.96-.93.44-1.7.8-2.95-.58-4.09z" fill="#fff"/></g></svg></svg>
