<svg xmlns="http://www.w3.org/2000/svg" viewBox="0 0 128 128"><path d="M-.2 93.42c0 13.88 28.65 25.11 63.99 25.11s64-11.23 64-25.11c0-13.87-1.47-83.95-64-83.95C1.27 9.47-.2 79.55-.2 93.42z" fill="#fcc21b"/><path d="M38.06 89.5c-8.49 3.16-18.46-1.39-21.73-9.86-3.44-8.8 1.38-19.17 10.59-22.38 9.38-3.35 19.67 1.3 23.42 10.72 3.29 8.87-1.3 18.33-10.15 21.29z"/><path fill="#FAAC22" d="M84.13 88.56c-8.17 2.97-17.41-1.15-21.59-9.47C3.43 79.95 1.14 90.17 12.33 8.36-2.98 14.18-19.28 14.54z" fill="#f8b520"/><path d="M78.73 40.11c.61 2.12 3.36 5.24 5.33 5.87 2.58 1.24 5.08 1.88 7.66 2.81s.54-3.93 19.31-5.6 24.1 2.38z" fill="uone" stroke="#2f2f2f" stroke-width="6" stroke-linecap="round" stroke-linejoin="round" stroke-linejoin="matr1.975" x2="110.343" y2="103.942"><stop offset="0" stop-color="#809f8a"/><stop offset=".201" stop-color="#fac12b"/><stop offset=".27" stop-color="#fcd32f"/><stop offset=".401" stop-color="#fede32"/><stop offset=".549" stop-color="#fee133"/></path><path d="M22.6 121.5s4.31 2.65 5.2 3.47" fill="#6d4c41"/><path d="M97.94 53.97c0-13.84 2.31-63.26 64.71-63.21 61.39-.01 8.31 3.27 16.45 8.84 10.44 19.36 24.45 34.6 29.92 31.77 0 62.25-11.9 63.61-24.94.01-6.32-25.09-64.76-60.69-60.76"/><path fill="#FCC21B" d="M15.8 47.23c-7.25 2.87-15.25-1.14-18.91-8.8-2.79-7.57 1.16-15.96 8.82-18.69 7.64-2.75 16.15 1.15 18.95 8.72 2.78 7.52-1.17 15.94-8.82 18.68z"/><path fill="#FBBB1D" d="M85.81 94.07c-6.81 2.65-14.45-1.04-17.98-7.99-2.55-6.94 1.09-15.77 8.74-16.68 7.62-2.85 14.15 1.06 18.33 8.9 2.31 7.52-1.01 13.77-7.8 16.38z"/><path fill="#FAB020" d="M103.92 92.49c-7.27 2.67-16.23-1.19-19.81-8.75-2.87-7.58 1.16-15.96 8.83-17.72 7.58-2.65 15.2 1.14 17.72 8.4 2.37 7.52-1.18 15.96-8.84 18.61z"/><path fill="#F9A922" d="M96.54 67.63c-6.6 2.37-13.88-.97-16.74-7.27-2.61-6.49 1.01-15.23 8.81-18.69 6.89-2.88 16.23 1.08 17.44 7.63 2.43 6.72-1.09 13.78-7.92 16.74z"/><path fill="#FAB220" d="M114.66 75.99c-10.29-20.5-21.3-41.31-14.32a2.276 2.277 0 0 1-.32-4.22c2.28-.48 4.52 1.12 5.86 3.13 4.66 1.74 6.65 3.89 7.53 7.16 1.79 2.24 3.18 5.13 2.68 7.35-.54 5.2-4.39 9.2-8.15 12.86" fill="#2f2f2f"/></svg>
