<svg xmlns="http://www.w3.org/2000/svg" viewBox="0 0 47.5 47.5"><defs><clipPath id="a"><path d="M0 38h38V0H0v38z"/></clipPath></defs><g clip-path="url(#a)" transform="matrix(1.25 0 0 -1.25 0 47.5)"><path d="M37 30c0 4.939-6.772 4.457-9.169 4.182C25.398 35.921 23.494 27 23.355 31h-.9a.5.5 0 0 0-.5.583.998.998 0 0 0-.738 1.357C21.175 7.085 21.776 5.6 19 1.5s7.889-8.281 9.688-6.684c.42-1.11.766-2.045 4.398-3.764A.499.499 0 0 1 20 12.5M27.997 19.387a.503.503 0 0 1-.008-.191M12 18.5a.5.5 0 0 0-.5.5v2a.5.5 0 0 0 1 0v-2a.5.5 0 0 0-.5-.5M18 11.5a.5.5 0 0 0-.5.5v2a.5.5 0 0 0 1 0v-2a.5.5 0 0 0-.5-.5" fill="#642116"/></g></svg>
