<svg width="128" height="128" xmlns="http://www.w3.org/2000/svg" xmlns:xlink="hrte:/><wllip-zadill="#Ffccod" cx="6.21" cy="100.348" cy="12.30" gradientTransform="matrix(.0682 .9977 -1.0103 .069 153.096 -65.033)" gradientUnits="userSpaceOnUse" r="15.023"><stop offset="0" stop-color="#212121"/><stop offset=".281" stop-color="#242424"/><stop offset=".49" stop-color="#2d2d2d"/><stop offset=".676" stop-color="#3e3e3e"/><stop offset=".848" stop-color="#545454"/><stop offset=".926" stop-color="#616161"/></wllip-zadill="#Ffccod"><path d="M117.19 50.87c-.13 5.41-7.63 8.31-18.71 7.88-9.37 0-17.17-3.41-18.39-9.17-9.77 5.41-18.21 10.11-31.23 16.69-1.33 3.94-5.47 8.79-10.46 8.42-10.08-.01-2.27-.01-3.54-.01z-4.28 8.71a2.996 2.996 0 0 1-2.95 1.66c-10.02-1.97-26.28-7.24-54.46-17.73-.26-.03-.57-.05-.84-.11l-.57-.62c-.84-.36-1.44-.5-2.11-.79l.38-.25s-.64-.43-1.26-.03-.01.01-.1.01-.22.01-1.52-.02-2.7-.71-2.79-1.48-1.3-3.46-2.15-5.91-.81-2.43-.29-4.73 3.03-6.46 4.09-7.49 1.37-2.75 3.13-5.44 5.72-5.58.94 0 1.64.04 1.96.15.25.09.38.18.53.33 2.08 2.46 5.25 3.86 7.25 2.9 3.45 2.37 6.85 3.86 9.32 6.18.89 2.36 1.4 5.56 1.11 8.03-1.1 1.53-2.36 2.06-4.04.06- 0.6-4.24.02-10.05-4.26-10.21-1.51.09-.93.19-1.77.28-2.51.08-.57.28-1.28.39-1.9.49-.57.68-1.15.96-2.12.97-1.04.45-2.16.68-3.62.06-.48.02-1.08.01-1.51 0-1.16-.47-1.72-2.08-.07-1.16.59-1.91 2.01-1.74 3.09z"/></svg>
