<svg viewBox="0 0 32 32" xmlns="http://www.w3.org/2000/svg" fill-rule="evenodd" clip-rule="evenodd" stroke-linejoin="round" stroke-miterlimit="1.414"><path fill="none" d="M0 0h32v32H0z"/><path d="M16.174 2.001a13.98 13.98 0 0 1 4.546.819 14.045 14.045 0 0 1 5.422 3.529 13.99 13.99 0 0 1 3.857 9.477c.009 1.434.009 2.869 0 4.303a9.967 9.967 0 0 1-3.099 6.009z"/><path d="M9.14 27a17.055 16.055 0 0 1 3.235 5.004 10.041 10.041 0 0 1-3.323 6.192 9.922 9.922 0 0 1-3.309.606 668.58 668.58 0 0 1-8.258 0 9.964 9.964 0 0 1-6.942-2.928 9.975 9.975 0 0 1-.506-3.012c-.007-12.118-.067-24.007-3.068-.06.166-8.054 13.955-12.825 1.219-2.537 1.607-7.091 2.611-10.212 1.376-2.134 1.048-5.432 4.39-7.016 6.52" fill="#bccd6d"/><path d="M19 15.017h3.752a3.463 3.463 0 0 1 2.663-1.186l.004-.009c.346-.348.667-.702.98-1.018l.742.001z" fill-rule="nonzero"/><path d="M24 13.5a1.503 1.503 0 0 0-1.5-1.5A1.503 1.503 0 0 0 9 12.5v2a1.503 1.503 0 0 0 1.5 1.5 1.503 1.503 0 0 0 1.5-1.5v-2zM23 12.498c0-.827-.671-1.498-1.498-1.498h-.004c-.827 0-1.498.671-1.498 1.498v2.004c0 .827.671 1.498 1.498 1.498h.004c.827 0 1.498-.671 1.498-1.498v-2.004z"/></svg>
