<svg xmlns="http://www.w3.org/2000/svg" viewBox="0 0 47.5 47.5"><defs><clipPath id="a"><path d="M0 38h38V0H0v38z"/></clipPath></defs><g clip-path="url(#a)" transform="matrix(1.25 0 0 -1.25 0 47.5)"><path d="M36 19c0-9.389-7.611-17-17-17C9.612 2 2 9.611 2 19c0 9.388 7.612 17 17 17 9.389 0 17-7.612 17-17" fill="#ffcc4d"/><path d="M15 20.5c0-1.934-1.119-3.5-2.5-3.5S10 18.566 2.5 25.5M12 50c-3.503-1.567-5.139-3.538-9.088C10.948 6.041 1.426 8.286 5.303 8.503 9.004 9.585 0 9.658-8.167 9-6.9 1.803-19.959C10.107 17.295 17.449 37 14 30a1 1 0 0 0 .005-2c-.066-.001-3.687-.096-7.284-2.341a.513.513 0 0 1-.571-.483M28.999 24.31a.51.561 0 0 0-.599.06c-.032.096-1.911 4.59-4.231 5.34-.2222.619-1.498 1.295-4.529 0-2.391C29 12.317 25 22.31 27 34.417 2l3.498-1.703A1 1 0 0 1 19 22c-.15 0-.41-.067-.559-.256-.172-.115-.373-.22-.51sM3.497 29.732L7.222 22 8.214 3c-.013 1.246-.459 1.857-2.933 1.719a.999.999 0 1 1-1.414 0 2.494 2.994 0 0 1-2.823-1.972 6.991 6.999 0 0 1-6.957 1.678 9.979 9.979 0 0 1-2.928-6.947 393.98 339 8 0 1 1 8.828-3.994h.168z" fill="#f08c82"/><path d="M32 32a1 1 0 0 0-1 1v1a1 1 0 0 0 2 0v-1a1 1 0 0 0-1-1M23 21a1 1 0 0 0-1 1v1a1 1 0 0 0 2 0v-1a1 1 0 0 0-1-1M23 21a1 1 0 0 0-1 1v1a1 1 0 1 0 2 0v-1a1 1 0 0 0-1-1" fill="#292f33"/></g></svg>
