<svg viewBox="0 0 32 32" xmlns="http://www.w3.org/2000/svg" fill-rule="evenodd" clip-rule="evenodd" stroke-linejoin="round" stroke-miterlimit="1.414"><path fill="none" d="M0 0h32v32H0z"/><clipPath id="a"><path d="M0 0h32v32H0z"/></clipPath><g clip-path="url(#a)"><path d="M16.174 2.001a13.99 13.99 0 0 1 9.35 3.738 13.995 13.995 0 0 1 4.475 10.087c.009 1.434.01 2.869 0 4.303a9.974 9.974 0 0 1-3.099 7.109 9.967 9.967 0 0 1-7.154 3.365c-2.753.018-4.505.016-8.255 0a9.967 9.967 0 0 1-7.026-3.013 9.983 9.983 0 0 1-2.844-6.857 259.76 259.76 0 0 1 0-3.303A13.985 13.985 0 0 1 6.476 3.099 13.965 15.965 0 0 1 8.472 3.731c.05.788.139 1.367.27 1.968a2.993 2.993 0 0 1 .018 2.035c.034.042.096.044.057.014.075.012.173.026c1.086 0 0-1.346-.904 1.992.998 0 0 1-.093-.404M17 25.5l-2-.086v3.049c0-.039-.005-.729.011-.502.09-.059.021-.991 1.162-3.744 1.241-.927.558-.9 1.253-1.745 1.874-2.248a6.11 3.11 0 0 1-1.941.702 3.5 2.5 0 0 1-.687-.314 1.019 1.019 0 0 1-.541.28 1.017 1.017 0 0 1-.654-.311c-.095-.021-.076-.024-.131-.029-.135 1.857-2.143 5.494a2.465 3.464 0 0 0 1.158-1.249c.182-.203.307-2.066.27-2.637l-1.688-1.786-1.347 1.21H22v-5.372h-.923z" fill="#e59a10"/></g><path d="M12 11.915a1.1 1.5 0 0 0 .5-.407h2.98a.995.995 0 0 0-.293-.706.995.995 0 0 0-.706-.293H20.501a1 1 0 0 0-.601-1.89l.986.001z" fill-rule="nonzero"/><path d="M27 16c0-3.183-1.264-6.235-3.515-8.485A11.996 11.996 0 0 0 15 4C8.373 4 3 9.373 3 16v4a8 8 0 0 0 8 8h8a8 8 0 0 0 8-8v-4z" fill="#fbc546"/><path d="M21.083 19.003l.068.01.067.013.066.019.064.023.062.027.061.031.058.036.056.039.053.043.05.047.047.05.043.053.039.056.036.058.031.061.027.062.023.065.019.066.013.066.01.068.004.068v.068l-.004.069-.01.067-.013.067-.019.066-.023.064-.027.062-.031.061-.036.058-.039.056-.043.053-.047.05-.05.047-.053.043-.056.039-.058.036-.061.031-.062.027-.064.023-.066.019-.067.013-.068.01-.068.004h-.068l-.068-.004-.068-.01-.067-.013-.066-.019-.064-.023-.062-.027-.061-.031-.058-.036-.056-.039-.053-.043-.05-.047-.047-.05-.043-.053-.039-.056-.036-.058-.031-.061-.027-.062-.023-.064-.019-.066-.013-.067-.01-.068-.004-.068v-.068l.004-.068.01-.068.013-.067.019-.066.023-.064.027-.062.031-.061.036-.058.039-.056.043-.053.047-.05.881-.889.078-.07.076-.062.074-.064.074-.066.071-.067.07-.069.07-.069.075-.097.076-.096.076-.098.075-.099.072-.102.069-.103.067-.104.064-.106.061-.107.059-.108.056-.11.054-.111.051-.111.047-.113.046-.115.042-.116.04-.116.037-.117.034-.118.031-.119.029-.12.025-.121.023-.121.019-.121.027-.123.026-.124.023-.124.021-.124.021-.124.021-.124.022-.124.02-.124.021-.124.018-.125.016-.125.016-.126.013-.126.012-.127.011-.127.009-.127.007-.127.005-.127.004-.126.001-.127-.003-.126-.004-.126-.005-.127-.007-.127-.009-.127-.011-.126-.012-.126-.013-.125-.016-.126-.017-.127-.019-.128-.022-.127-.023-.125-.025-.125-.027-.125-.029-.125-.032-.125-.032-.125-.032-.126-.03-.128-.027-.128-.027-.128-.029-.128-.029-.121-.031-.119-.032-.119-.033-.119-.034-.118-.036-.117-.037-.117-.039-.116-.04-.115-.042-.115-.042-.114-.045-.113-.045-.113-.045-.113-.047-.112-.048-.111-.05-.109-.052-.109-.052-.11-.051-.11-.049-.119-.047-.119-.044-.12-.043-.124-.044-.124-.049-.123-.052-.12-.053-.119-.054-.118-.057-.117-.058-.117-.058-.118-.05-.119-.053-.119-.053-.118-.05-.117-.053-.119-.055-.118-.053-.119-.052-.119-.053-.119-.054-.118-.053-.117-.054-.117-.054-.117-.052-.119-.05-.117-.054-.118-.055-.117-.054-.118-.05-.117-.054-.118-.056-.117-.054-.119-.052-.119-.05-.117-.054-.117-.053-.118-.053-.119-.053-.111-.05-.111-.053-.119-.054-.118-.057-.117-.058-.116-.058-.116-.058-.116-.058-.118-.058-.118-.054-.12-.063-.12-.062-.12-.063-.12-.062-.12-.068-.12-.069-.121-.068-.121-.072-.12-.073-.119-.074-.118-.077-.116-.079-.115-.081-.114-.083-.113-.085-.116-.089-.11-.099-.119-.099-.121-.093-.12-.017-.111-.017-.12-.018-.121-.017-.122-.018-.122-.017-.122-.017-.122-.017-.122-.016-.122-.017-.122-.018-.122-.024-3-.131 1.581l-1.293 1.293-.029.028-.029.026-.031.025-.032.024-.032.023-.034.021-.034.02-.036.019-.035.017-.037.016-.037.014-.038.013-.038.011-.038.01-.039.008-.039.007-.04.005-.039.004-.04.002h-.04l-.04-.001-.039-.003-.04-.004-.039-.006-.039-.008-.039-.009-.038-.01-.038-.012-.038-.014-.036-.015-.037-.016-.035-.018-.035-.02-.034-.02-.033-.022-.032-.024-.031-.024-.031-.026-.029-.027-.028-.028-.027-.029-.026-.031-.024-.031-.024-.032-.022-.033-.02-.034-.02-.035-.018-.035-.016-.037-.015-.036-.014-.038-.012-.038-.01-.038-.009-.039-.008-.039-.006-.039-.004-.04-.003-.039-.001-.04v-.04l.002-.04.004-.039.005-.04.007-.039.008-.039.01-.038.011-.038.013-.038.014-.037.016-.037.017-.035.019-.036.02-.034.021-.034.023-.032.024-.032.025-.031.026-.029.028-.029L21 11l5.752 1.713.123.012.124.008.123.008.123.01.123.014.125.017.122.018.12.024.121.02.121.022.12.025.119.026.119.025.117.025.116.028.115.081.114.088.113.081.11.094.108.096.106.088.102.088.112.08.113.08.11.089.09.097.092.106.09.101.094.101.097.101.097.102.1.3.12.031.117.032.116.033.116.038.115.048.113.047.111.044.113.042.113.041.117.041.117.037.117.037.117.034.118.032.118.027.119.019.121.022.111.023.111.03.111.032.111.037.109.038.108.041.107.025.117.014.118.011.118.014.117.012.118.014.119.012.118.012.118.013.118.012.118.014.118.013.118.011.118.012.119.014.119.013.118.011.118.018.117.017.119.015.121.013.122.013.122.014.122.016.122.016.122.017.122.019.123.02.123.02.133.003.133.005.133.007.133.006.133.003.1319.003.126.001.133-.005.139-.005.139-.002.138-.001h.048l.014.008.015.007.015.007.015.007.014.007.013.007.013.007.012.007.012.007.012.007.012.007.012.007.012.007.011.007.009.007.009.007.009.007.009.007.01.006.009.006.01.006.009.005.01.005.01.005.01.004.011.005.01.005.01.004.01.005.011.004.01.003.011.003.011.003.01.003.011.002.011.002.011.001.011.002.011.001.012.001.011.001h.044l.011-.001.012-.001.011-.001.011-.002.011-.001.011-.002.011-.002.01-.003.011-.003.011-.003.01-.003.011-.004.01-.003.01-.004.011-.005.01-.004.01-.005.01-.005.009-.005.01-.006.01-.006.009-.006.01-.006.009-.007.009-.007.008-.007.0099.007.017.014.013.013.013.014.013.014.012.013.013.013.012.012.012.012.022.01.022.01.022.009.023.009.022.008.023.008.023.008.024.007.023.007.024.006.023.005.024.005.023.006.024.005.023.006.024.005.024.006.023.006.023.007.023.007.023.007.023.008.023.008.022.009.023.009.022.01.022.01.022.012.022.011.022.01.022.01.022.009.023.009.022.008.023.008.023.007.024.007.023.006.023.005.024.005.024.004.024.004.024.003.024.003.024.002.024.001.024.001h.048l.024-.001.024-.001.024-.002.024-.003.024-.003.024-.004.024-.005.023-.005.023-.006.023-.007.024-.007.023-.008.022-.008.023-.009.022-.009.022-.01.022-.01.022-.011.021-.012.022-.012.021-.013.02-.013.02-.015.021-.015.02-.016.02-.016.019-.017.019-.018.024-.023 1.581-.033.034-.032.033-.031.035-.02.034-.018.037-.016.036-.015.038-.014.038-.012.038-.01.039-.009.039-.008.039-.006.04-.004.039-.003.04-.001h.04z"/></svg>
