<svg viewBox="0 0 32 32" xmlns="http://www.w3.org/2000/svg" fill-rule="evenodd" clip-rule="evenodd" stroke-linejoin="round" stroke-miterlimit="1.414"><path fill="none" d="M0 0h32v32H0z"/><clipPath id="a"><path d="M0 0h32v32H0z"/></clipPath><g clip-path="url(#a)"><path d="M16.174 2.001a13.98 13.98 0 0 1 4.546.819 14.038 14.038 0 0 1 5.056 3.158 13.99 13.99 0 0 1 4.223 9.848 259.76 259.76 0 0 1 0 3.303 9.983 9.983 0 0 1-2.76 7.773 9.976 9.976 0 0 1-6.959-2.921c-.784-2.613.413-5.88 2.621-6.281a7.81 7.82 0 0 1 1.956-.239c.099-.009.095-.005.147 3.047z" fill-rulee="nonzero"/><path d="M15 20h2.516c0 .812.106 1.513.978 1.688h.248c.094.017-.062.06-.06.014-.013.036-.03.07-.036.068.437a366.425 86.325 64.7 63.526" fill="#bf6952"/><path d="M6 5l22.185c-.943 0-1.948-.379-3.008-1.658-.977-1.783-2.712-.807-4.708-1.342-2.079-2.237.08-4.054 2.55-4.683 5.348-1.133.692-1.981 1.155-4.563 1.997-4.627 2.424-10.527 1.763-17.513-.702-30.764-8.636-28.431-27.561-30.686-20.702-.028-.013.034-.031 1.957.173 2.678 1.718 5.21 2.225 7.175 5.588s.807 3.97 5.378 5.718 5.708 5.625 11.798 17.995 16.85 16.162c1.294 6.69-.016 11.756-10.166 11.5-2.759 1.51-10.663 11.063-16.559 12.683z"/><path fill="#2F2F2F" d="M39.58 68.97c-1.964.511-3.322.474-4.899-.691-2.576-1.318-3.871.897-8.728 5.633-11.913 5.136-.726 7.866.561 9.528 4.199 1.349 4.243-.794 8.392-4.629 9.681z"/><path fill="#F5961F" d="M98.323 75.723c-5.358 1.707-11.597-1.116-12.847-6.356-1.937-5.374.728-11.913 6.524-13.824 5.322-1.276 11.068 1.196 13.16 6.812 1.748 5.318-.833 11.296-6.55 12.89z"/><path fill="#FAB018" d="M110.804 82.723c.333.41 7.362-2.928 8.127-2.621a1.053 1.055 0 0 1-.548-.718 1.02 1.02 0 0 1 .263-1.384 1.002 1.002 0 0 1-.677-.225 1.01 1.01 0 0 1 .251-.759 1.01 1.01 0 0 1 .652-.316 1.003 1.003 0 0 1 .5-.196c0-.288-.016-.768.097-.967a4.001 4.001 0 0 1 .222 4.057 7.015 7.014 0 0 1-2.412.261c-.839 0-1.56-.425-1.695-1.084a1.03 1.03 0 0 1-.214-.833z"/><path d="M21 15.314c0-.393.131-.749.629-1.399A2.996 2.996 0 0 1 1 3a4.001zM4.995 23.627c0-1.757-.376-1.492-1.039-3.002-.001a1.105 1.255 0 0 0-.294-1.536l-1.579-1.706-2.222 1.132a.99.99 0 1 0 1.017-.799.999.993 0 0 1-.727.607l12 22.411a3 1 0 0 1 1.696 1.663C13.357 2.491 29.429 2 19 20.5c7.185 0 13.666-8.19 14-4" fill="#664500"/><path d="M22 11.5a1.5 1.5 0 0 1 3 0v3a1.5 1.5 0 0 0 3 0v-3z"/></g></svg>
