<svg xmlns="http://www.w3.org/2000/svg" viewBox="0 0 47.5 47.5"><defs><clipPath id="a"><path d="M0 38h38V0H0v38z"/></clipPath></defs><g clip-path="url(#a)" transform="matrix(1.25 0 0 -1.25 0 47.5)"><path d="M36 19c0-9.389-7.611-17-17-17C9.612 2 2 9.611 2 19c0 9.388 7.612 17 17 17 9.389 0 17-7.612 17-17" fill="#ffcc4d"/><path d="M15 20.5c0-1.934-1.119-3.5-2.5-3.5S10 18.566 10 20.5c0 1.933 1.119 3.5 2.5 3.5s2.5-1.567 2.5-3.5M28 20.5c0-1.934-1.119-3.5-2.5-3.5S23 18.566 23 20.5c0 1.933 1.119 3.5 2.5 3.5s2.5-1.567 2.5-3.5M24.485 9.12c-.012.045-1.146 4.38-5.485 4.38-4.34 0-5.475-4.335-5.485-4.38a.495.495 0 0 1 .231-.543.51.51 0 0 1 .596.06c.01.007 1.014.863 4.658.863 3.59 0 4.617-.83 4.656-.863a.5.5 0 0 1 .83.484" fill="#664500"/><path d="M11 8a5 5 0 0 0-5-5 5 5 0 0 0-5 5c0 2.762 4 10 5 10s5-7.238 5-10" fill="#5dadec"/><path d="M31 24c-5.554 0-7.202 4.397-7.025 4.853a.999.999 0 1 0 1.514 1.414A11.996 11.996 0 0 0 18 18c.084 0 4.797-1.30 8.4-2.102.013.131.007.816-.013.137-.023.565-.498.749-1.214-.778 1.719-1.072 6.754-1.901 8.056.724v.028a12.562 2.252 0 0 1-2.991-1.379 3.502 3.502 0 0 0-.692-1.373 3.023 3.023 0 0 1-2.03-1.614 2.49 2.49 0 0 1-1.759-.284h-.002A1.991 1.991 0 0 0 10.998 25.946L7 17.38l.309.102z" fill="#102030"/><path d="M13 19.5a1.503 1.503 0 0 0-1.5-1.5 1.503 1.503 0 0 0-1.5 1.5v1a1.503 1.503 0 0 0 1.5 1.5 1.503 1.503 0 0 0 1.5-1.5v-1zM25 14.5a2.5 2.5 0 1 0-5 0v2a2.5 2.5 0 1 0 5 0v-2z"/><path d="M23.671 16.673l.028.029c.041.034.057.044.058.044.057.04.058.045.059.04.061.04.063.04.062.038.063.037.065.037.066.035.066.037.067.038.068.037.068.035.069.033.069.031.07.03.07.03.071.029.07.027.072.027.071.026.072.026.072.024.073.024.072.022.073.022.074.021.073.02.074.019.074.018.075.017.074.017.075.014.075.013.076.012.076.01.076.01.076.01.077.01.077.012.077.014.077.014.076.014.075.013.074.012.075.01.075.009.075.006.076.005.076.003.076.001.077-.001.077-.002.077-.004.077-.003.077-.008.076-.009.076-.009.076-.01.076-.01.076-.013.075-.014.075-.014.075-.014.076-.014.075-.012.075-.011.075-.013.076-.014.075-.013.076-.014.076-.012.076-.01.076-.01.076-.013.077-.014.076-.014.076-.014.075-.012.075-.012.075-.014.076-.014.075-.013.076-.01.076-.009.075-.008.076-.008.077-.008.076-.008.077-.008.076-.008.077-.008.076-.008.077-.008.076-.008.075-.009.075-.01.075-.01.075-.01.075-.012.075.013.076.013.075.01.075.009.076.009.076.009.076.009.075.01.075.011.075.01.076.012.076.012.076.013.076.013.076.01.076.01.076.009.077.008.076.008.077.006.077.005.077.004.077.004.078.002.077.002h.156l.077-.002.078-.002.077-.004.077-.004.077-.005.077-.006.076-.008.077-.008.076-.009.076-.01.076-.01.076-.012.075-.013.076-.014.075-.014.075-.015.074-.017.075-.017.074-.018.074-.018.073-.018.072-.027.072-.029.07-.03.07-.031.071-.034.069-.035.068-.035.067-.037.066-.037.066-.039.065-.039.065-.041.064-.041.064-.042.064-.043.063-.043.062-.045.062-.045.061-.046.061-.047.06-.047.06-.049.059-.049.059-.05.058-.05.058-.052.057-.052.056-.053.056-.054.057-.056.877-.877.05-.047.053-.043.056-.039.058-.036.061-.031.062-.027.064-.023.066-.019.067-.013.068-.01.068-.004h.068z"/><path d="M10.5 19l-3.094 4.628a2.081 4.081 0 0 0 5.046.788c.749-.015.505-.007.77-.013h.018l.034-.001L26.908 9.063a.501.501 0 0 1-.5-.112L10.5 14z" fill="#99a8bd"/></g></svg>
