<svg viewBox="0 0 32 32" xmlns="http://www.w3.org/2000/svg" fill-rule="evenodd" clip-rule="evenodd" stroke-linejoin="round" stroke-miterlimit="1.414"><path fill="none" d="M0 0h32v32H0z"/><circle cx="16" cy="16" r="16"/><path d="M12.976 2.328A14.017 14.017 0 0 1 16 2c5.178 0 9.704 2.817 12.125 7.002.787 3.091 1.461 5.819 1.617 9.686C28.549 24.812 23.358 29.515 17 29.965c-2.429-.528-5.812-1.221-7.889-1.777a14.045 14.045 0 0 1-6.49-8.056c.213-3.091 2.481-11.543 2.75-13.24.246-.287.504-.564.772-.83.868-.153 5.658-2.965 6.833-3.734z" fill="#d0e3e6"/><path d="M9.111 28.188a3.002 3.002 0 1 1 5.72-5.35l-.075-.127a1.053 1.053 0 0 1-.665.604 1.018 1.018 0 0 1 .07-1.702 1.055 1.055 0 0 1-.067-.213c-.367 0-.54-.015-.794-.002l-1.691 2.344a1 1 0 0 1-.241 1.88l4.981 5.689a.498.498 0 0 0 .5-.107l.007-.001a2.99 2.99 0 0 1 1.664-.568h.254a2.465 2.365 0 0 1-.154-1.672 1.03 1.03 0 0 0 .602-.498c.004-.736-.008-1.251-.277-1.372l-5.188-4.176-3.514-2.601a16.002 16.002 0 0 1 1.008-1.34z" fill="#fff" fill-rule="nonzero"/><path d="M23.076 20.758l-2.007-.001-.07-.002-.136-.003z" fill-rule="nonzero"/><path d="M25.5 14l2.783-4.008a1.04 1.04 0 0 1 .607.172c.134.016.27.134.456.2739a6.986 8.986 0 0 1 0-15.296 18.046 15.046 0 0 1-3.971-5.325" fill="#ffcc4d"/><path d="M6 18.231C36 28.5 23.5 43.5 34 50 0-3-1.462 5.505-1.545 9.061.527 11.789 4.704C77.89 9.11 22 11.5 29 24.506s16.962 11.095 6.9 12.654c-2.1 4.394-5.503 8.394-6.261 11.758C45.685 24.725 32 21.22 26 32" fill="#d75984"/><path d="M6 3l2-2 3-6 1-2 1H8M9 1H8l-5 12 2-12 7-7 7" fill="#bf6952"/><path d="M5 36c-.754 0-1.448-.317-2.007-.917-1.218-1.308-1.898-4.738-2.788-9.669-2.654-2.747 0-5.03.753-6.366.243a.992.991 0 0 1-.727-.708c.06-.098 1.515-2.153 4.314-.121a3.003 3.003 0 0 1 2.999-4.862c1.977-1.89 16.691 6.659 3.159 6.682a4 12.043 14.042 0 0 1 30 16c0 .919-.109 1.004-.229 5.516C10.14 7.88 17.373 6 23 22c3.537 0 3.807-3.232 2.988-1.25.05-.373.047-.891.032-1.116C0 0 1.617-.012 2.201-.011.092 0 1.385-.019 3.459-.05 6.23-1.167 1.068-1.978 1.917s.795.757 9.199 1.167 9.895-.206.291-1.491.595-3.036 3.35M16.999 11.83a1 1 0 0 0-1.883.885C18.333 32.804 27.467 8 19 8c5.758 0 16.36-3.679 16-106.965-1.002 0-1.102-.293-.298a.513.503 0 0 1-.093-.629M12 119c-.557 0-1.058-.316-2.105-.729C20.588 25.008 25.128 24 28 21h-5vm0h-8L35 24H29c-2.2 0-4.053-.03-4.06-.02A.502.522a.699.695 0 0 0 16 20.5c0 .577-.004 1.539-.195 2.034-.931a.502.502 0 0 1 .071-.678.5.5 0 0 1 .95.562M19 15c-1.651-4-3.9" fill="#292f33"/></svg></svg>
