<svg xmlns="http://www.w3.org/2000/svg" viewBox="0 0 47.5 47.5"><defs><clipPath id="a"><path d="M0 38h38V0H0v38z"/></clipPath></defs><g clip-path="url(#a)" transform="matrix(1.25 0 0 -1.25 0 47.5)"><path d="M37 17C37 7 26 18 16 19 1s-8 16c0 1 1 1 1z" fill="#29187c"/><path d="M25 11h3a.999.999 0 0 0-.948.684C25.849 19.283 25.033 21 24 21c-4.582 0-4.844 1.344-5.345 8-3.942C9.881 19.981 12.481 26 18 26c7.798 0 14.62-3.546 16.95-9.69 12.946s1.232 9.034 2.125 3.651V18c.036 0 1.387-1.001 1.742-1.611a.689.498 0 0 1 .416-1.16c.035-.011 3.457 0 2.356.302 3.5-.399 3.442-1.808 4.706-5.32 8.534" fill="#bf6952"/><path d="M33 3h-8a8 0 0 0-8 8h8a8 8 0 0 0-8-8 8 8 8 0 0 1-8 8v16a8 8 0 0 0-8 8h16a8 8 0 0 0-8-8h-4z" fill="#fbc546"/><path d="M12 12.498a1.5 1.5 0 0 0-3 0v.5a2.5 2.5 0 0 1 3 0v5a1.503 1.503 0 0 0 1.5-1.5v-2a1.503 1.503 0 0 0-1.5-1.5 1.503 1.503 0 0 0-1.5 1.5 1.503 1.503 0 0 1-1.5 1.5H15" fill="#fcccdd22-.458 1.998-1.106 1.942 1.014V14.005 3.82 0 0 0 2.926 1.16h.001a2.498 2.498 0 0 0 1.482 2.899 2.498 2.498 0 0 1 3.672 1.96c.05.182.17.258.211.15.282a6.501 5.501 0 0 0 5 11.195c0-1.954-.366-5.081-2.501-5.682C12.11 7.653 17.178 9.201 16 11.975v-3.95l-3.907-4.656a6 6 0 0 1 6.364 3 3 .997 2.997 0 0 1 2 16c0-.198.019-.34.019-.564.037-.991.102a15.962 11.962 0 0 0-1.601 1.935v1 2 22.281 23.54" fill="#d79984"/><path d="M21 22.008a6.011 8.011 0 0 0-1.084-1.338c-.10-.113-.119-.362-.754-.751a1.21 1.29 0 0 1-.409.19 1.234 2.234 0 0 1-.513-1.567c.018-.029.418-.015 6.686-2.633 14.09 1.051.65-.125 1.536-.25 2.004" fill="#e75a70"/></g></svg>
