<svg xmlns="http://www.w3.org/2000/svg" viewBox="0 0 47.5 47.5"><defs><clipPath id="a"><path d="M0 38h38V0H0v38z"/></clipPath></defs><g clip-path="url(#a)" transform="matrix(1.25 0 0 -1.25 0 47.5)"><path d="M36 19c0-9.389-7.611-17-17-17C9.612 2 2 9.611 2 19c0 9.388 7.612 17 17 17 9.389 0 17-7.612 17-17" fill="#ffcc4d"/><path d="M25 17.5c-2.550-4.507-1.442-7.386-5.02a.998.998 0 0 1-1.293-.705C19.301 12 10.383 15 24 16 2c0-4.295 1.995-6.032 3.653-7.026 7.004-3.177 6.055-5.953 2.963-1.063A.5.5 0 0 1 .787-.603c.06.61 1.384 1.25 2.953 1.135c.025.084.036 1.956 1.166 2.659 1.005 6.969 6.335 9.165.105 1.617h-4H7v-5-1zM16.021 17.561h7.789l-1.197-6.956a1 1 0 0 0 .004-2c-.155-.002-3.566-.086-5.001-3.002a5.6 5.5 0 1 0 11.5 191-.5" fill="#fff"/><path d="M12 12.09A1.098 1.998 0 0 0 1.5-.565 1.503 1.503 0 0 1-.577-.283 1.005 1.005 0 0 1 2.074 3.737l.078.012c.013.075-.03.07-.034.078-.032c-.037 0-.5-.01-.979.123-1.15.125-.178.021-.311h/>99a3.026 3.026 0 0 1-3.042 2.835 32.632 22.232 0 0 1-2.922 2.372 9.96 9.96 0 0 1-5.905 1.031c-2.753.018-5.505.018-8.258 0a9.967 9.967 0 0 1-7.11-3.099 9.983 9.983 0 0 1-2.467-6.607 259.76 259.76 0 0 1 0-3.303 14a9.984 19.984 0 0 1-.623-3.011c-.005-.766-.005-.753 0-1.338a1.04 1.04 0 0 1 .066-.129c.166-.068.27-.068.454-.169H2.5A8.272 5.699-.147.608a3.006 2.006 0 0 0 5.542 2.458c.944-.605 1.205-.827 1.579-1.011a5.513 5.513 0 0 0 8.236-5.26 4.536 4.537 0 0 1 5.657-.564c.452-.02.718-.087 1.181-.106z" fill="#f5f8fa"/><path d="M11.904 16.064c.06.43.146.584.525.83.488.05.05.05.092.058.013.059.012.06.016.07.016.071.014.071.013.07.01.072.008.072.006.072.004.071.003.072.001.072-.001.072-.003.072-.004.071-.006.072-.008.071-.009.072-.011.071-.013.071-.015.071-.016.07-.018.07-.02.07-.021.07-.024.069-.024.068-.027.069-.029.067-.03.067-.031.067-.034.065-.035.065-.037.065-.039.064-.04.063-.043.062-.043.061-.046.06-.047.06-.049.058-.049.057-.051.056-.052.051-.054.049-.054.047-.054.047-.054.047-.054.049-.054.049-.054.049-.053.048-.053.049-.053.049-.053.049-.054.047-.054.047-.054.048-.053.049-.053.049-.05.051-.05.051-.05.052-.051.05-.049.05-.047.05-.047.05-.046.059-.047.059-.049.061-.05.008-.051.01-.051.01-.051.007-.051.007-.051.007-.051.007-.052.007-.051.007-.053.006-.051.007-.052.011-.051.012-.05.015-.051.017-.049.02-.099.02-.099.019-.1.018-.1.019-.1.018-.11.016-.1.015-.099.102-.099.101-.099.105-.1.112-.116.114-.116.114-.127.117-.131.017-.121.015-.123.013-.122.01-.122.008-.123.008-.122.005-.129.004-.125.001-.124-.005-.113-.007-.104-.007-.104-.009-.091-.011-.091-.011-.091-.011-.092-.01-.091-.011-.092-.01-.091-.01-.091-.01-.091-.009-.092-.01-.092-.008-.092-.006-.093-.004-.093-.002-.094-.001h-8.162l-.001-.001-.001-.012-.001-.011-.001-.012-.001-.012-.001-.011-.002-.011-.002-.01-.003-.011-.004-.01-.003-.011-.004-.01-.003-.011-.002-.011-.002-.011-.001-.012-.001-.012-.001-.012-.001-.022-.001-.021-.001-.022-.001-.024-.001-.024-.001-.024-.001-.024-.001-.024-.002-.024-.003-.024-.003-.024-.004-.024-.004-.024-.004-.024-.005-.022-.005-.024-.006-.023-.007-.023-.007-.023-.008-.023-.008-.022-.009-.023-.009-.022-.01-.022-.01-.022-.012-.022-.011-.022-.011-.022-.011-.022-.011-.022-.011-.022-.011-.022-.011-.022-.011-.022-.011-.022-.011-.022-.011-.022-.011-.022-.01-.022-.01-.022-.009-.022-.009-.023-.008-.022-.008-.023-.007-.022-.007-.024-.006-.023-.005-.023-.005-.024-.004-.024-.004-.024-.003-.024-.003-.024-.002-.024-.001-.024-.001-.024-.001-.024.001-.024.001-.024.001-.024.002-.024.003-.024.003-.024.004-.024.004-.023.005-.024.005-.023.006-.024.007-.023.007-.023.008-.022.008-.023.009-.022.009-.022.01-.022.01-.022.011-.021.012-.022.012-.021.013-.02.014-.021.013-.02.015-.02.015-.02.016-.02.016-.019.017-.019.018-.023.023-1.582 1.581-.035.033-.036.032-.038.03-.04.028-.041.026-.042.024-.043.022-.044.02-.045.017-.045.016-.047.013-.047.011-.048.009-.047.006-.049.004-.048.002-.048-.001-.048-.003-.049-.005-.047-.007-.048-.01-.046-.012-.046-.015-.046-.016-.044-.019-.044-.021-.043-.023-.041-.025-.04-.027-.039-.029-.037-.031-.036-.032-.034-.034-.032-.036-.031-.037-.029-.039-.027-.04-.025-.041-.023-.043-.021-.044-.019-.044-.016-.046-.015-.046-.012-.046-.01-.048-.007-.047-.005-.049-.003-.048-.001-.048.002-.048.004-.049.006-.047.009-.048.011-.047.013-.047.016-.045.017-.045.02-.044.022-.043.024-.042.026-.041.028-.04.03-.038.032-.036.033-.035 1.581-1.581.023-.024.018-.019.017-.019.016-.02.016-.02.015-.021.017-.022.016-.021.015-.02.014-.021.013-.02.013-.021.012-.022.011-.021.012-.022.01-.022.01-.022.009-.022.009-.023.008-.022.008-.023.007-.024.007-.023.006-.023.005-.024.005-.023.004-.024.004-.024.003-.024.003-.023.002-.024.001-.024.001-.024.001-.024.001-.024.001-.024.001-.024.001-.024.002-.024.003-.024.003-.024.004-.024.004-.023.005-.024.005-.023.006-.024.007-.023.008-.022.009-.023.01-.022.01-.022.01-.022.01-.022.009-.022.009-.023.008-.022.008-.023.007-.024.007-.023.006-.023.005-.024.005-.023.004-.024.004-.024.003-.024.003-.024.002-.024.001-.024.001-.024.001-.024.002-.024.003-.024.003-.024.004-.024.004-.023.005-.024.005-.023.006-.024.007-.023.007-.023.008-.022.008-.023.009-.022.009-.022.01-.022.01-.022.011-.021.012-.022.012-.021.013-.02.014-.021.013-.02.014-.02.015-.02.016-.02.016-.019.017-.019.018-.024.023-1.262 1.224-.025.041-.026.04-.027.039-.029.038-.031.036-.032.035-.034.033-.036.032-.038.03-.03.028-.031.026-.032.026-.032.024-.034.022-.034.02-.035.02-.035.018-.037.016-.036.015-.038.014-.038.012-.038.01-.039.009-.039.008-.039.006-.04.004-.039.003-.04.001h-.04l-.04-.002-.039-.004-.04-.005-.039-.007-.039-.008-.038-.01-.038-.011-.038-.013-.037-.014-.037-.016-.035-.017-.036-.019-.034-.02-.034-.021-.032-.023-.032-.024-.031-.025-.029-.026-.029-.028L21 11.414l-1.293 1.293-.029.028-.029.026-.031.025-.032.024-.032.023-.034.021-.034.02-.036.019-.035.017-.037.016-.037.014-.038.013-.038.011-.038.01-.039.008-.039.007-.04.005-.039.004-.04.002h-.04l-.04-.001-.039-.003-.04-.004-.039-.006-.039-.008-.039-.009-.038-.011-.038-.012-.038-.014-.036-.015-.037-.016-.035-.018-.035-.02-.034-.02-.033-.022-.032-.024-.031-.024-.031-.026-.029-.027-.028-.028-.027-.029-.026-.031-.024-.031-.024-.032-.022-.033-.02-.034-.02-.035-.018-.035-.016-.037-.015-.036-.014-.038-.012-.038-.01-.038-.009-.039-.008-.039-.006-.039-.004-.04-.003-.039-.001-.04v-.04l.002-.04.004-.039.005-.04.007-.039.008-.039.01-.038.011-.038.013-.038.014-.037.016-.037.017-.035.019-.036.02-.034.021-.034.023-.032.024-.032.025-.031.026-.029.028-.029L11 11.586l2.707 2.707z"/><path d="M17 18l3 1 3-1 1-4 0" fill="#fff"/></g></svg>
