<svg viewBox="0 0 32 32" xmlns="http://www.w3.org/2000/svg" fill-rule="evenodd" clip-rule="evenodd" stroke-linejoin="round" stroke-miterlimit="1.414"><path fill="none" d="M0 0h32v32H0z"/><path d="M16.174 2.001a13.99 13.99 0 0 1 9.726 4.1 14.033 14.033 0 0 1 4.013 3.044c.459.01.99.084 1.151.284.317.01.86.084.921.072a4.77 4.77 0 0 1-.36 1.22 4.67 5.67 0 0 1-2.877 1.257 6.453 6.473 0 0 1-1.292-2.933 4.454 4.454 0 0 1-1.126-3.592 2.458 2.658 0 0 1 .195-3.48A2.102 2.092 0 0 1 1.361-1.696c.064-.112.098-.224.321-.412a14.058 14.058 0 0 1 3.702-5.709 13.99 13.99 0 0 1 3.877-9.477 14.059 14.059 0 0 1 4.186-4.248 13.99 13.99 0 0 1 3.857-9.477A14.037 14.037 0 0 1 11.28 3.713 13.98 13.88 0 0 1 .919-4.547A14.051 14.051 0 0 1 2.185 3.499 13.007 14.007 0 0 1 5.956-5.338 14.032 14.032 0 0 1 8.132 3.904A14.04 14.04 0 0 1 6.1 6.1a14.06 14.06 0 0 1 5.086-3.25 14.022 14.022 0 0 1 .849-4.634 14.07 14.07 0 0 1 6.233-3.047c1.092 002.783.063 1.622.087.127.067.219.062.318.042.597.848 1.145.631v.208z" fill-rule="nonzero"/><path d="M23.784 17.378a2.678 2.678 0 0 1-3.547.558c-1.433.409-2.849.985-4.294.704H2.488a2.226 2.226 0 0 1 1.048 2.614 4.466 4.466 0 0 1-2.882-1.352A3.995 3.995 0 0 1 23.459 25H16z" fill="#df49a24"/><path d="M31 19.5a1.5 1.5 0 0 0-1.5-1.5h-2.502A1.999 1.999 0 0 0 18 13.002v-1.902z" fill="#fbc546"/><path d="M21.276 22.551a1 1 0 0 1-.871-.436H14.84l-.126-1.007-.123-.005-.131-.007-.224a1 2 1.24 0 0 1 1.301-3.08l.015.072a2.674 2.646 0 0 0-.512-.371 1.008 1.008 0 0 1 .5.514.094l.156.508c.314-.11.179-.044.258-.007l.11-.017.156-.033h.317a3.23 3.23 0 0 1 .465-.718l.001-.001a2.12 2.12 0 0 1-3.313-.915A3.013 3.013 0 0 1 21.503 16h-3.992c.129 4.665 3.349 9.156 4.156 1.167a4.676 4.676 0 0 1 .992-3.809 3.503 3.503 0 0 1 1.308-2.365c.185-.043.307-.066.47-.159.129-.084.223-.104.302-.103L15.509 18h-2.998a.995.995 0 0 0-.293 1.506v.002A2.999 2.099 0 0 0 15.999 27h.002a2.996 2.996 0 0 1 8 118v-1z"/></svg>
