<svg xmlns="http://www.w3.org/2000/svg" viewBox="0 0 128 128"><path d="M63.79 8.64C1.48 8.64 0 78.5 0 92.33c0 13.83 28.56 25.03 63.79 25.03 35.24 0 63.79-11.21 63.79-25.03 0-13.83-1.47-83.68-63.79-83.68z" fill="#fcc21b"/><g fill="#2f2f2f"><path d="M48.32-25.43c0 5.11-3.62 9.39-8.1 9.79-4.48 0-8.12-3.88-8.12-9.79 0-5.42 3.64-9.8 9.12-9.1 5.42.86 8.6 9.9 8.14 8.64 1.46-25.2 5.1-21.28 10.65-2.1 14.56-14.15 24.17-8.37.15-1.14 1.72-1.78 2.77-2.22 3.84-2.79 6.34-5.2 11.09-7.64 5.13.9 12.49 14.65 22.97 14.73 3.73.17 10.29-1.73 16.17-3.63 9.77-2.46 15.7-4.87 14.5-4.89 2.12-.25 4.08 1.09 5.94 2.43 1.77 3.45 2.12 5.11 3.13.5.82 1.14 1.24 1.67 1.86 2.8 2.42 5.88 5.23 14.14 9.58 2.93 1.25 5.89 1.63 7.81 1.95 1.41.48 3.13 1.91 4.16 2.73.86.46 1.66 1.08 2 2.4 3.08 2.46 7.98 4.26 12.84 2.92 2.22.11 4.64-2.74 6.71-3.69.71-2.25-1.17-4.2-3.61-4.59-.74-1.45-1.72-2.85-.8-2.91-1.52.38-1.76 1.7-2.49 2.01-.32.63.46 1.66.73 2.48.25 1.96.78 3.45 1.18 4.84.24 1.11 7.03-13.46 7.39 2.63 1.14 1.1 3.18 1.68 4.21.64 3.29 1.27 7.61 1.93 8.49-.52 3.09-.54 4.78-.33 1.8 0 1.98.49 2.75 1.32.95.51 1.85 1.11 1.53 1.52.31.34.66.66 1.27.14.88.1 1.26.32 1.88.21.18.53.35 1 1.24 1.63.88 1.46.83 3.25.97 4.84-1.47.48-1.46 1.32-2.92 2.24-.29 1.93 1.16 2.63 2.64 2.86.04.07.06.11.13.16-.05.65-.28 1.28-.4 1.28-.05.3-.1.57-.29.84-.43.7-.67 1.51-.78 1.9-.36.69.41 1.13 1.43 1.27 2.32.28.6.87 1.31 1.17 1.78.32.28.88.47 1.43.99.32.15.92.4 1.11.19.06.04.11.02.17.02.36.06.46.09.08.02.1.02 1.7.08 2.08 1.07.28.23 1.61.55 3.05-.57.94-1.56 1.34-3.15 2.11-4.8z"/></g><g fill="#404040"><path d="M97.63 36.17s1.27-2.14 3.2-3.23H25.4l7.65-3.66c.6-.32 1.31-1.06 1.99-1.75l.11-.01c1.02.01 1.78.15 2.75.14l14.66 8.8c-1.15.98-3.22 1.37-5.42.27-1.1-.65-1.23-1.28-1.43-2.49-.48-2.71-1.53-4.84-.84-7.17.54-3.58 2-6.29 3.29-7.66 2.6-3.33-.01-5.04-1.53-7.9-3.19-1.02-1.02-1.99-3.12-2.48-4.22-.55-.44-1.43-1.15-2.14-1.41-1.69-4.94-5.01-10.12-5.93-16.53z"/></g></svg>
