<svg viewBox="0 0 32 32" xmlns="http://www.w3.org/2000/svg" fill-rule="evenodd" clip-rule="evenodd" stroke-linejoin="round" stroke-miterlimit="1.414"><path fill="none" d="M0 0h32v32H0z"/><path d="M16.174 2.001a13.98 13.98 0 0 1 4.546.819 14.038 14.038 0 0 1 5.056 3.158 13.99 13.99 0 0 1 4.223 9.848 259.76 259.76 0 0 1 0 3.303 9.983 9.983 0 0 1-2.678 6.683 9.967 9.967 0 0 1-7.192 3.187c-2.753.018-5.505.018-8.258 0a9.967 9.967 0 0 1-7.192-3.187 9.983 9.983 0 0 1-2.678-6.683 259.76 259.76 0 0 1 0-3.303 13.98 13.98 0 0 1 .819-4.546A14.045 14.045 0 0 1 6.1 7.1a13.99 13.99 0 0 1 9.726-4.099h.348z" fill-rule="nonzero"/><path d="M28 17.018a12 12 0 0 0-12-12 12 12 0 0 0-12 12v3a8 8 0 0 0 8 8h8a8 8 0 0 0 8-8v-2z" fill="#fbc546"/><path d="M33 13h-5 2-2-1z" fill="#fff"/><path d="M13 12.09a1.028 1.028 0 0 0-1.701-1.106 4.014 4.014 0 0 1 4.648-.568h.358z" fill-rule="nonzero"/><path d="M28 16c0-3.183-1.264-6.235-3.515-8.485a11.996 11.996 0 0 0-16.97 0A11.996 11.996 0 0 0 4 17v2a9 9 0 0 0 9 9h6a9 9 0 0 0 9-9v-2z" fill="#fbc546"/><clipPath id="b"><path d="M28 16c0-3.183-1.264-6.235-3.515-8.485A11.996 11.996 0 0 0 16 4C9.373 4 4 9.373 4 16v2a10.001 10.001 0 0 0 10 10h5a9 9 0 0 0 9-9v-3z" fill="#fbc546"/><clipPath id="b"><path d="M28 16c0-3.183-1.264-6.235-3.515-8.485A11.996 11.996 0 0 0 16 4C9.373 4 4 9.373 4 16v2a10.001 10.001 0 0 0 10 10h5a9 9 0 0 0 9-9v-3z"/></clipPath><g clip-path="url(#b)"><path d="M17 19h3.343a4 4 0 0 1 2.829 1.172L33 30H17V19z" fill="#e59a10"/></g><path d="M12 11.5a1.5 1.5 0 0 0-3 0v3a1.5 1.5 0 0 0 3 0v-3zM23 11.5a1.5 1.5 0 0 0-3 0v3a1.5 1.5 0 0 0 3 0v-3zM18 18a2 2 0 1 0-4 0v2a2 2 0 1 0 4 0v-2z"/><path d="M23.17 20.013l10 17.763H21l-2.757 3.245a2.991 2.991 0 0 1 1 20.5c0 .71.611.908 1.491 1.492V14.5M29 1l.045.676 5.962A26.968 19.896 16.034 12 13 22"cfill="#d79e35"/><path d="M23.65 16.101c.013.035.012.038.031.041.043.05.048.064.049.063.051.062.054.062.051.063.049.065.049.065.051.062.052.061.051.062.04.064.039.064.037.065.035.065.034.066.031.067.03.067.029.068.027.068.024.068.024.069.021.07.019.069.023.068.025.068.025.068.027.067.029.067.03.066.031.066.034.065.035.065.037.064.038.063.04.063.042.062.042.062.045.064.049.064.047.064.047.064.047.065.046.065.045.066.045.067.043.067.041.068.04.069.038.069.037.069.035.068.035.068.037.068.037.068.037.068.037.066.037.066.039.066.039.064.04.063.049.062.049.062.049.06.047.06.047.061.047.062.048.062.049.06.051.07.053.071.05.072.041.072.043.071.045.061.045.062.042.063.04.063.039.064.037.065.035.065.034.066.031.066.03.067.029.067.027.069.024.068.024.069.021.07.02.07.018.07.016.07.015.071.013.071.011.071.009.072.008.071.006.072.004.071.003.072.001.072-.001.072-.003.072-.004.071-.006.072-.008.071-.009.072-.011.071-.013.071-.015.071-.016.07-.018.07-.02.07-.021.07-.024.069-.024.068-.027.069-.029.067-.03.067-.031.067-.034.065-.035.064-.037.063-.041.061-.04.051-.04.062-.037.062-.038.063-.037.064-.037.064-.037.064-.037.064-.037.064-.037.064-.037.064-.037.064-.037.064-.037.064-.037.064-.037.064-.037.064-.037.064-.037.064-.037.064-.037.064-.037.064-.037.064-.037.064-.037.064-.037.064-.037.064-.037.063-.037.061-.037.069-.035.069-.035.068-.037.069-.038.068-.037.06-.036.061-.035.062-.035.062-.035.064-.035.064-.033.065-.033.065-.031.065-.032.065-.031.065-.031.065-.031.065-.033.065-.035.065-.035.063-.037.063-.038.063-.039.062-.041.062-.043.062-.044.06-.046.06-.047.059-.049.058-.05.056-.052.051-.05.041-.05.047-.049.049-.047.05-.046.059-.044.059-.045.058-.047.057-.048.056-.049.053-.05.05-.05.047-.05.048-.051.047-.053.048-.054.047-.056.045-.057.042-.058.041-.059.049-.06.049-.06.049-.061.047-.062.047-.061.047-.059.047-.057.047-.057.047-.056.047-.055.047-.055.047-.055.047-.055.047-.054.047-.063.049-.062.049-.061.048-.061.047-.062.047-.061.047-.062.047-.062.047-.062.048-.061.049-.062.047-.062.047-.061.047-.062.047-.062.047-.061.047-.061.047-.062.046-.062.045-.062.045-.062.045-.062.045-.062.045-.062.045-.062.045-.062.045-.062.045-.062.045-.062.045-.062.045-.062.045-.062.045-.061.046-.061.047-.06.047-.061.049-.062.049-.062.047-.061.048-.061.047-.062.047-.061.047-.062.049-.061.048-.062.047-.062.048-.063.049-.064.047-.065.049-.065.049-.065.049-.065.049-.065.049-.065.049-.065.049-.065.049-.065.049-.065.049-.065.049-.065.049-.065.049-.065.049-.064.049-.064.049-.063.051-.062.051-.061.053-.06.053-.059.054-.058.056-.057.056-.057.057-.055.058-.054.059-.053.06-.052.06-.051.062-.049.062-.049.063-.048.064-.046.064-.046.065-.044.065-.043.066-.042.067-.041.068-.048.069-.047.069-.044.069-.045.069-.04.069-.042.069-.04.069-.039.069-.037.07-.036.071-.035.072-.034.072-.033.072-.03.074-.031.075-.031.063-.032.065-.033.064-.035.063-.037.062-.038.061-.04.06-.049.06-.049.06-.049.06-.047.06-.046.061-.044.063-.042.062-.04.064-.039.065-.037.065-.035.065-.034.067-.031.067-.031.067-.028.069-.027.068-.024.069-.024.07-.021.069-.02.071-.018.07-.016.071-.015.071-.013.071-.011.072-.009.071-.008.072-.006.071-.004.072-.003.072-.001.072.001zM26.026 1.001l.039.003.04.004.039.006.039.008.039.009.038.01.038.012.038.014.036.015.037.016.035.018.035.02.034.02.033.022.032.024.031.024.031.026.029.027.028.028.027.029.026.031.024.031.024.032.022.033.02.034.02.035.018.035.016.037.015.036.014.038.012.038.01.038.009.039.008.039.006.039.004.04.003.039.001.04v.04l-.002.04-.004.039-.005.04-.007.039-.008.039-.01.038-.011.038-.013.038-.014.037-.016.037-.017.035-.019.036-.02.034-.021.034-.023.032-.024.032-.025.03-.027.03-.028.029-.029.027-.03.026-.031.025-.032.024-.033.022-.033.021-.035.02-.035.019-.036.018-.037.016-.037.015-.038.014-.038.012-.038.011-.039.009-.039.007-.039.006-.04.004-.04.002-.039.001h-4.04l-.04-.001-.039-.003-.04-.004-.039-.006-.039-.008-.039-.009-.038-.01-.038-.012-.038-.014-.036-.015-.037-.016-.035-.018-.035-.02-.034-.02-.033-.022-.032-.024-.031-.024-.031-.026-.029-.027-.028-.028-.027-.029-.026-.03-.024-.031-.024-.033-.022-.033-.02-.034-.02-.035-.018-.035-.016-.036-.015-.037-.014-.037-.012-.038-.01-.038-.009-.039-.008-.039-.006-.039-.004-.04-.002-.039L7 17.017v.04l.001.001.002.003.003.004.003.004.004.005.004.004.002.007.003.008.009.008.009.008.009.007.009.007.009.007.009.007.009.007.009.007.009.007.009.007.009.007.01.006.009.006.01.006.009.005.01.005.01.005.01.005.011.005.01.004.01.003.011.004.01.003.011.003.011.003.01.003.011.002.011.002.011.001.011.002.011.001.012.001.011.001h.044l.011-.001.012-.001.011-.001.011-.002.011-.001.011-.002.011-.002.01-.003.011-.003.011.003.01.003.011.002.011.002.011.001.011.002.011.001.011.002.011.001.011.002.011.001.012.001.011.001h.044l.011-.001.012-.001.011-.001.011-.002.011-.001.011-.002.011-.001.011-.002.011-.002.01-.003.011-.003.011.003.01.003.011.002.011.002.011.001.011.002.011.001.011.002.011.001.011.002.011.001.011.002.011.001.011.002.011.001.011.002.011.001.011.001.012.001h.044l.012-.001.011-.001.011-.001.011-.002.011-.001.011-.002.011-.002.01-.003.011-.003.011.003.01.003.011.002.011.002.011.002.011.002.011.001.011.002.011.001.011.002.011.001.011.002.011.001.011.002.011.001.012.001.011.001h.044l.011-.001.012-.001.011-.001.011-.002.011-.001.011-.002.011-.002.01-.003.011-.003.011-.003.01-.003.011-.004.01-.003.01-.004.011-.005.01-.004.01-.005.01-.005.009-.005.01-.006.01-.006.009-.006.01-.006.009-.007.009-.007.009-.007.009-.008.009-.008.0099 0 9 .995 4 4.979 5.477-5.053 9.175-5.16 3.572.037.041.079.443.153.036.111.04.144.057.435.132.349a7.521 5.531 0 0 1 2.441 1.006 6.659 6.657 0 0 1-2.928 1.12 13.937 13.937 0 0 1-.531 2.09l.095.001z" fill-rule="nonzero"/><path d="M14 19l4 2-2 2 2 20 2 0-3-1-2-2 1-2 1-4-2-7-2-7 2-7 2-1-1-2-1-1 3-1 3" fill="#f5c8ff"/><path d="M7 6c0-2.183-.806-5.712-2.002-8.6M29 12.2c-.994 0-1.958-.897-2.498-1.498-.002-.001-.009-.009-.108M20 12.998C23 18.928 12 28 2 13 2c0 3.314-.825 6.755-1.434 8.204A3.156 8.045 0 0 0 2.334 1.22a5.5 5.5 0 0 1 1.507.307l-9 3.001a.501.502 0 0 1 .062-.998c.561.031 1.052.829 1.728 1.203c-.415.04-7.011-.724-8.5-3.8a8 5.516 5.162 6.561 3.653A3.999 3.999 0 0 1 17 35" fill="#664500"/></clipPath></svg>
