<svg xmlns="http://www.w3.org/2000/svg" viewBox="0 0 128 128"><ellipse fill="#2F2F2F" d="M21.86 72.7h-.015.01v10.01 14.99 21.17c11.1-10.15 5.58-26.3 27.29-48.67S31.78-1.91 44.67-2.64 58.25 0 37.21 8.31 56.2 35.06 45.71 0 62.43-2.12 63.48-24.06S99.54 25.71 91.34 64 64.18c11.78-5.52 27.08-2.82 33.88 1.89 8.34 1.98 18.62 5.38 24.23 5.84 11.98-3.08 23.21-13.86 25.73-2.63 39 6.89 3.93 9.04-2.82z48.86 10.29c.97.23 1.8.38 2.51 1.31.38.91 1.01 1.29 1.48 2 .57 7.29 2.14 17.34-.54 24.88-2.11 1.4-3.95 1.73-4.4.65-7.3-2.15-9.08-6.84-7.89z" fill="#b4c3f"/></svg></svg>
