<svg xmlns="http://www.w3.org/2000/svg" viewBox="0 0 128 128"><path d="M127.22 93.42c0 13.86-28.29 25.1-63.22 25.1-34.92 0-63.23-11.24-63.23-25.1C.77 79.55 2.24 9.48 64 9.48c61.77 0 63.22 70.06 63.22 83.94" fill="#fcc21b"/><path d="M82.18 93.97c9.68-.36 14.13 1.63 22.62 10.37.49 1.49-.39 3.91-2.23 4.98z" fill="#f79329"/></svg><g fill="#2f2f2f"><path d="M40.36 35.47a2.66 2.66 0 0 0-2.43-1.88c-1.27-1.04-1.62-2.81-2.21-3.77-.3-1.07-.2-2.56-1.15-3.62a3.015 3.015 0 0 1-.93-3.99 2.126 2.126 0 0 0 2.09 1.75c1.07 1.23 1.18 2.86.72 3.51a2.41 3.41 0 0 0 3.59 1.72l7.79-2.18c1.55 1.83 3.2 3.76 5.66 3.68 3.86 0 7.36-3.95 7.5-9.05 0-4.37-3.35-9.55-7.07-9.35zM79.16 58c-.55 0-1.04-.14-1.63-.08z" fill="#2f2f2f"/><path d="M125.08 92.17c-1.9 1.03-2.78-1.81-3.95-3.61S40.46 46.05 46.62 15.16 35.66 7.4c-10.31 0-17.94-1.02-31.55-8.42a2.849 2.048 0 0 1-.51-3.02c.06-.25.13-3.35 2-3.46 2.2-10.31-9.9-22.64-20.8-4.95-31.05 18.48-30.65 31.14-32.81 20.64-1.78 35.81-.89 19.21 3.17 3.82 10.61-1.27 17.01-2.92 28.86-16.05-42.37-24.06-59.06-22.94-20.96-18.56-39.29-53.21-35.53z"/><path fill="#2F2F2F" d="M42.81 48.53c-3.57 8.41-11.33 11.37-13.8 15.18-5.1 3.76-8.02 11.13-35.59 14.53-25.54 0-37.06-10.21-49.6-21.12-.47-1.07-.39-3.72.47-4.49.12-.04.17-.08.31-.09.49-.17 1.39-.44 1.89-1.58 1.51-1.44 0-2.71-.91-4.03-2.11a2.81 2.81 0 0 1-1.99-3.21c.18-.07 4.21-7.54 15.23-9.85 1.75-.33 4.24.09 5.85l-7.22 6.14c-1.06.78-2.21 2.22-1.8 3.51l14.37 8.83c.22.04.44.07.66.16 1.63.55 2.68.97 3.83 1.97 1.6 2.66 1.82 5.09 1.52 7.01-2.32 8.64-7.36 13.07-32.25 1.33-.48.67-.76.93-1.29.88-1 1.05-1.82 1.24-3.48.04-7.26-4.11-6.54-10.97 0-30 6.04-3.48 4.42-8.05 8.5-4.39 24.42.86 4.82 4.43 7.55 5.9 10.05 21.09 4.62 14.59 10.78 1.58 3.44 2.34 7.31 3.53m9.18c.96 0 1.26.42 1.64 1.36.05.02.15.03.31.37 0 .26.06.44.1.19.33l.03.01.05.01.08.01.1.02l18.05 5.51s-.03 11.3-13.5c-.94-6.52-1.13-10.41 1.94-10.5 3.81-20 13.4-23.39 11.44-25.66 11.44-25.5 10.08-57.64.01-.03.01-.05.01-.07 0-.13.01-.27.08-4.27.49-15.49-.67-42.01-.35-8.41 4.99-6.74 15.15-10.13 17.56-15.51 1.61-3.34 5.16-3.74 8.34-.97 4.23.55 6.71 2.75 5.5 5.71.53 2.72-1.4 5.62-3.68 7.58-5.01 3.22-6.66 4.8-9.81 3.35-3.95-1.73-4.65-5.75-3.61-8.8 4.25-5.63 7.72-8.67 9.83-6.38 4.39 1.08 7.04 2.74 9.58 5.27 2.2-.18 4.73-.75 7.07-2.65 1.05 2.97 4.89 3.68 7.53.38 8.05-1.05 14.65-2.9 23.33-2.05 7.92-3.82 14.97-13.22 20.17-9.94 5.75 3.18 12.39 12.99 7.33 19.12z"/><path fill="#FBB51F" d="M30.95 81.17c-8.73 2.73-17-.22-15.56-3.36-18.38-6.19-5.4-12.32-14.85-14.6-32.26-.02-.74.19-1.9 1.34-1.62 1.34 0 .25.03.31.03.4-.04.43-.01.6-.01 1.32-.48 4.52-2.87 4.85-3.38z"/></g><path fill="#2F2F2F" d=263 27.218" c9l-8.24 84"/><path fill="#2F2F2F" d="M49.87 65.81c-.65-1.88-6.24-2.8-13.42 2.94-5.64 2.41-11.4 3.79-15.75.99-15.69-2.11-24.36-14.69-43.36-6.25-6.05-15.41-7.44-26.99-3.45-8.96 3.21-18.55 3.77-20.1 2.64-1.27 3.28-.88 6.58-.59 7.82 1.45 4.7 5.61 6.77 10.17-.4 2.71-.34 5.71-.74 7.06-.37 1.74-.4 3.94-.85 5.98-1.57.09-.55.37-1.01.31-1.56.08-.5.91-1.29 1.38-1.69 1.39-.22.81-.66 2.48-.33 3.42 0 1.67.75 3.25 1.11 5.51.22 2.61 1.55 5.31 1.92 8.1.51 1.12.61 2.57 1.33 3.2 1.35.7.92 1.3 1.05 2.38 1.52 2.53 2.59 4.25 6.93 3.61 9.74-.79.46-1.54.89-2.21.67l-18.33-6.01c-.54-.07-1.03.08-1.69.28l-.55.46c-.97 1.62-2.08 4.24-2.37 5.55-.64.44-1.22.75-1.85 1.04l-.3.3c-.03.14-.08.29-.13.51-.27.4-.34.84-.51.62-.22.42-.28.91.03.29.13.56.41.78.74h.01l1.94.2c.18.03.18.08.29.24 1.07.57 2.01 1.96 1.84 3.48z"/></svg>
