<svg viewBox="0 0 32 32" xmlns="http://www.w3.org/2000/svg" fill-rule="evenodd" clip-rule="evenodd" stroke-linejoin="round" stroke-miterlimit="1.414"><path fill="none" d="M0 0h32v32H0z"/><clipPath id="a"><path d="M0 0h32v32H0z"/></clipPath><g clip-path="url(#a)"><path d="M16.174 2.001a13.98 13.98 0 0 1 4.546.819 14.038 14.038 0 0 1 5.056 3.158 13.99 13.99 0 0 1 4.223 9.848 259.76 259.76 0 0 1 0 3.303 9.983 9.983 0 0 1-2.678 6.683 9.967 9.967 0 0 1-7.192 3.187c-2.753.018-5.505.018-8.258 0a9.967 9.967 0 0 1-7.192-3.187 9.983 9.983 0 0 1-2.678-6.683 259.76 259.76 0 0 1 0-3.303 13.98 13.98 0 0 1 .819-4.546A14.045 14.045 0 0 1 6.1 7.1a13.99 13.99 0 0 1 9.726-4.099h.348z" fill-rule="nonzero"/><path d="M28 17c0-3.183-1.264-6.235-3.515-8.485a11.996 11.996 0 0 0-16.97 0A11.996 11.996 0 0 0 4 17v2a9 9 0 0 0 9 9h6a9 9 0 0 0 9-9v-2z" fill="#fbc546"/><path d="M12 12.499a.999.999 0 0 1-.567 1.164H3.5A2.503 1.503 0 0 0 16 1u.5c0 1.536 1.516-3.062 2.486-3.641A1.009 1.009 0 0 1 2 14c0-.796.01-1.534.293-1.582l-10.507z" fill="#664500"/><path d="M23.05 12.001l.039.003.04.004.039.006.039.008.039.009.038.01.038.012.038.014.036.015.037.016.035.018.035.02.034.02.033.022.032.024.031.024.031.026.029.027.028.028.027.029.026.031.024.031.023.032.021.034.02.034.019.036.017.035.016.037.014.037.013.038.011.038.01.038.008.039.007.039.005.04.004.039.002.04v.04l-.001.04-.003.039-.004.04-.006.039-.008.039-.009.039-.01.038-.012.038-.014.038-.015.036-.016.037-.018.035-.02.035-.02.034-.022.033-.024.032-.024.031-.026.031-.027.029-.028.028-.029.027-.031.026-.031.024-.032.024-.033.022-.034.02-.035.02-.035.018-.037.016-.036.015-.038.014-.038.012-.038.01-.039.009-.039.008-.039.006-.04.004-.039.003-.04.001h-.04l-.04-.002-.039-.004-.04-.005-.039-.007-.039-.008-.038-.01-.038-.011-.038-.013-.037-.014-.037-.016-.035-.017-.036-.019-.034-.02-.034-.021-.032-.023-.032-.024-.031-.025-.029-.026-.029-.028L21 14.414l-1.293 1.293-.029.028-.029.026-.031.025-.032.024-.032.023-.034.021-.034.02-.036.019-.035.017-.037.016-.037.014-.038.013-.038.011-.038.01-.039.008-.039.007-.04.005-.039.004-.04.002h-.04l-.04-.001-.039-.003-.04-.004-.039-.006-.039-.008-.039-.009-.038-.01-.038-.012-.038-.014-.036-.015-.037-.016-.035-.018-.035-.02-.034-.02-.033-.022-.032-.024-.031-.024-.031-.026-.029-.027-.028-.028-.027-.029-.026-.03-.024-.031-.024-.033-.022-.033-.02-.034-.02-.035-.018-.035-.016-.036-.015-.037-.014-.037-.013-.038-.011-.038-.009-.038-.008-.039-.007-.04-.005-.039-.003-.04-.002-.04v-.039l.002-.04.003-.04.004-.039.006-.039.008-.039.009-.039.011-.038.012-.038.014-.037.015-.037.017-.036.019-.035.02-.035.021-.033.023-.033.024-.032.025-.03.026-.03.028-.029L11 10.594l2.707 2.707z"/><path d="M24.982 17.173a.779 2.778 0 0 1 .013.123 3.522 3.522 0 0 1-3.04-.015c-.337 0-2.378.057-4.385.674-1.062.754-2.085 1.622-3.02.924-.274.534-.664.927-.849.742 1.819.637 3.374.274 4.677a.804.777.045 36.34 28.784c.116.675.447 1.15.584 1.319 0 2.039-1.621 2.873-2.671 1.519-1.751-.337-4.636-.679-6.27-1.611" fill="#bf6952"/><path d="M36 36c3 0 3-14 3-14s-4-1 2-2z" fill="#4320de"/><path d="M6 12s5-2 10-6-4c0-12 6-2 1" fill="#9d6cc2"/></g><g clip-path="url(#b)"><path d="M97.22 93.87c0 1.88-.68 3.79-2.12 6.78-6.2 3.66-9.46 8.44-10.24 3.92 0 2.55 3 3.16 3.11 4.89 3.64 10.47 5.69 25.42 5.5 40.58 3.9 7 0 14.46 0 40.99 4.06 52.24l-.02.01c0 .21 0 .41.01.51.02.18 0 3.25-.97 4.66-2.34.18-.02.27-.06.4-.07-.01-.07-.02-.15.03z" fill="#bfe9a7"/><path d="M64 88.36c-1.7 0-2.86-1.01-3.55-2.36v14.4c0 2.34-2.01 4.72-3.03 6.29l3.11 23.41c1.21.38 1.91 1.07 1.74 1.57V14.8c-1.25 0-2.95-1.18-2.84-2.71"-.57-18.73-10-38.44l.02-3c.49 0 4.79 3.33 5.97 8.33s-3.53 9.09-7.06 8.09zM46.94 59.66c4.46-.01 8.11-4.36 8.12-9.69-.01-5.37-3.36-9.7-8.14-9.69-4.49.01-8.13 4.36-8.12 9.73.01 5.35 3.67 9.68 8.16 9.67z"/></g><path d="M142.78 101.69c2.65-.33 4.69-.33 6.58.06.95 1.15 1.7 1.93 2.16 1.56 2.24 2.77 4.2 2.83 4.9.73.92 1.23 1.77 1.73 2.51 1.05.89 1.28 2.42.06 3.73zM26.45 35.18c-1.07 1.03-2.51 1.66-3.32 1.64-1.01 1.26-2.28 1.78-3.62 2.06a6.816 6.616 0 0 1-6.2 7.31c-.68 0-1.18-.04-1.81-.18-1.68-.23-3.35-.46-4.38-1.18-1.87-.71-4.12-2.78-6.63-3.64-5.35-2.28-11.94-6.38-14.64-6.61-1.45-.9-3.52-.7-5.49-.52-2.03 1.57-3.28 5.73-2.45 12.37zM88.83 156.54s-7.4 4.04-8.24z"/></svg></svg>
