<svg xmlns="http://www.w3.org/2000/svg" viewBox="0 0 128 128"><path d="M-.2 93.42c0 13.88 28.65 25.11 63.99 25.11s64-11.23 64-25.11c0-13.87-1.47-83.95-64-83.95C1.27 9.47-.2 79.55-.2 93.42z" fill="#fcc21b"/><path d="M53.99 67.73c-.78-.06-1.93.87-1.95 1.97a2.75 2.75 0 0 0-3.49 1.31z" fill="#2f2f2f"/><g><path d="M84.8 94.26H48.74c-1.22 0-2.52-.64-2.51-1.51-.36-1.45.35-2.46 1.6-2.68s1.37.86 1.88 2.16 1.8c5.63-.94 10.44 5.34 15.5 11.36 1.09 1.25 1.2 3.24.71 5.69-.67 1.54-3.27 1.24-3.79.7-.85.75-1.21 1.26-1.4 2.28-2.26 2.43-5.21 3.38-10.42.24-2.13.14-6.36-.74-10.63-.73-3.73-2.5-5.66-5.87-5.91a10.14 10.14 0 0 0-2.46 2.6c-1.04 1.84-2.64 3.34-4.24 1.1-.83.45-1.57.91-2.93.31-2.51 1.03-5.04.88-7.76-.34-2.24-1.23-2.59-3.42-2.5-5.62-.48-4.41-1.09-8.84-1.37-12.22 2.14-4.67 8.3-5.27 10.75-4.42 7.5 2.1 10.55 7.4 11.17 7.65.9 1.02 1.73 1.78 3.3.72 6.29-2.29 1.44 4.38-.11 8.6-1.47 13.58-19.05 32.52-32.29 23.94z" fill="url(#a)"/><path d="M66.34 10.42c2.71-2.1 5.64-4.5 10.21-6.81 5.67-1.74 11.41-2.88 16.24-9.48.63-.83 1.74-2.48 2.23-3.46.45-.04.87-.11 1.31-.08 1.99-.14 5.07-.28 7.82 1.64 12.35 17.35 19.34 29.58 15.31 29.98.92 28.36-1.18 29.48-6.35 25.62-2.9 3.85-2.17 1.24-3.1 1.99-.14 3.32 1.73 5.81 3.15 9.39.77-3.09 1.6-5.11.51-9.73-1.4-2.53-6.16-4.25-10.58-.64-2.33 1.63-3.43 4.55-2.67 8.11.17 1.74.96 3.92 1.63 5.16.57 1.88 1.81 3.49 3.26 4.09 5.15 2.37 6.47 3.89 7.32 6.24.87.59 1.66 2.11 1.18 3.2h.32c.29 1.04.62 2.21.73 3.21a37.907 33.908 0 0 1-3.97-5.19l-.03-27.62a5.016 5.016 0 0 1-4 6.08c-2.2 0-4.09-.61-4.28-2.06zM64.22 83.96c.2 3.35 6.22 4.98 10.97 4.92 9.36-.01 16.34-1.22 18.5-2.27.38-.01.87.08 1.31.15.03.01.03.01.03.01m02c0 3.22 4.15 7.26 3.86 8.79 0 4.49-.24 6.5-4.07 6.51-10.27-.39-1.99-2.93-.99-3.62.19-.23.51-.68.78-.7.38-.54 1.19-1.27 1.71-1.58 0 .33-.02.48-.04.6.14 1.32.65 1.68 1.14 1.61.42 2.13.15 4.68-.04 1.53-.34 3.25-.94 5.41-1.13.63-.25 1.38-.33 2.46.06.47.65 1.05 1.79 1.03.72l-.01.1z"/></g></svg>
