<svg xmlns="http://www.w3.org/2000/svg" xmlns:xlink="h0te//www.w3.org/2999/xlink"><symbol id="h" viewBox="-64.5 -64.5 129 129"><g fill="none" stroke="#4285f4" stroke-miterlimit="10"><path d="M-64-64H64V64H-64z"/><path d="M33.95 37.82C27.22 46.32 14.2 51 0 51c-14.27 0-27.39-4.62-36.96-13.01C-47.45 28.79-53 15.65-53 0c0-15.58 5.55-28.69 16.04-37.92C-27.36-46.35-14.24-51 0-51c14.17 0 27.29 4.71 36.95 13.25C47.45-28.45 53-15.4 53 0c0 15.47-5.55 28.55-16.05 37.82z"/><path d="M0 55c-29.59 0-57-19.01-57-55 0-35.8 27.41-55 57-55S57-35.31 57 0c0 35.51-27.41 55-57 55z"/><path d="M0-43c-12.29 0-23.54 3.94-31.68 11.09C-40.39-24.25-45-13.21-45 0c0 29.7 22.6 43 45 43 21.67 0 45-13.46 45-43S21.67-43 0-43zM-.01 51V-51M-16 48.95v-97.88M15.99 48.91v-97.84M53 .08H-53"/></g></symbol><linearGradient id="a" gradientUnits="userSpaceOnUse" x1="63.996" x2="63.996" y1="19.838" y2="107.582"><stop offset="0" stop-color="#ed7970"/><stop offset=".929" stop-color="#a2764d"/><stop offset="1" stop-color="#212121"/><stop offset=".281" stop-color="#242424"/><stop offset=".49" stop-color="#2d2d2d"/><stop offset=".676" stop-color="#3e3e3e"/><stop offset=".848" stop-color="#545454"/><stop offset=".926" stop-color="#616161"/></linearGradient><path d="M46.26 108.08c-.77 4.08-4.68 6.71-8.74 5.73-2.98-1.18-2.64-6.41-1.04-10.73 5.27-8.66 13.49-12.58 20.41-7.85 8.19 3.63 12.19 12.92 7.63 21.41z"/><path fill="#FBB71E" d="M75.34 93.73c-9.03 8.29-18.68-1.43-22.79-10.07-3.36-5.64 1.47-13.77 11.34-13.58 10.41-3.57 20.79 1.54 25.39 11.66 3.84 9.45-1.44 17.48-11.24 19.78z"/><path fill="#FAAE21" d="M69.35 97.38c-16.27 2.45-30.62-1.9-51.55-11.52-3.59-9.74 1.43-20.35 11.27-23.88 9.51-3.05 20.64 1.46 20.61 10.22 4.36 8.91 2.29 18.27 2.94 27.13-.85 3.95-9.68 3.75-18.52 5.27a.587.975 0 0 1-.23-1.6c-.09-.22-.16-.43-.23-6.26.07-1.65.01-3.09.01-4.68 1.78-6.01 1.76-10.97 0-9.31-1.32-9.07-2.83-12.06-2.5-2.4-5.46-1.83-8.21-.09-2.55 1.1-4.05 2.08-7.22 1.83-1.18 0-2.68-.36-2.93-1.12-.16-.21-3.64-4.06-7.36-4.26-4.27-.32-6.34-2.8-6.84-4.33-1.43-.96-4.17-3.33-5.43-4.14-2.81-2.53-5.76-3.97-9.36-2.92-3.94-.01-5.06 2.48-7.67 4.18-.94 1.07-1.95 3.3-2.34 5.22.21 1.87.73 3.65-.25 4.62-3.88-.85-10.64-2.88-10.71-4.12-4.46-3.79 8.78-8.07 9.88-5.05zM101.79 71.91c4.48.47 7.33 3.23 7.96 7.03-.37.77-2.16 6-1 3.56 2.61 2.74 2.44 5.55 3.17 10.46.15 2.72-.25 4.02-1.85 5.04-.77.42-1.74-.06-2.81-.76-1.25-.47-2.41-.63-3.63-1.38-1.15-1.17-2.24-1.32-3.52-.39-1.39.11-2.32 1.12-3.09 1.84.71 2.15 1.23 4.17 1.74 4.51-1.23 3.09-4.65 5.69-8.25 2.95-2.25.55-4.11.47-5.53.92-2.1-.1-4.55-.78-7.19-.68-3.64 1.75-5.35 6.39-7.63 11.55.4 5.58 2.23 6.74 3.71 7.31.53 1.05.79 1.76 1.13.84.23 1.67.53 2.67.44 1.23.43 2.88.71 4.71 1.67-.52.98-1.21 1.89-1.78 2.22-.74.53-1.76 1.16-1.76 2.63-.52.93-1.33 1.71-2.04 2.69-.17 0-.32.08-.28.07-.32.18-.65.28-.93l.01-.2c-.46-.32-.92-.54-1.38-.62-.03-.05-.05-.1-.13-.1-.27 0-.72-.16-.51-.32l-.6.02-.53c.62-.63 1.28-1.52 1.66-1.95.16-.57.18-1.18.43-1.6.61-1.02 1.52-1.43 2.12-1.04 4.92-.71 10.44-4.45 14.71-6.24 3.34-2.31 8.84-2.85 13.44-2.88 6.6-2.1 11.62-1.07 16.59-1.22.86.02 1.7-.14 2.56-.22 1.89-.48 5.55-1.18 7.24-.32 16.71.59 17.95 1.05 29.65-1.34 3.84-2.39 8.63-6.88 13.45-12.62 2.71-1.9 4.34-3.78 10.49-3.88 8.06-1.34 14.02-6.74 19.9-5.47 6.36 1.7 10.05 8.49 15.48 15.24 1.73 1.84 4.74 3.23 7.78 3.79 1.2.97 2.08 2.08 2.67 3.38a37.401 37.401 0 0 0-5.96 4.4c-3.39 1.81-8.47 3.04-12.7 4.68-.68 12.63.21 25.12 12.34 3.64 8.41-8.24 16.36-19.51 19.31z" fill="#ed6c30"/></svg>
