<svg xmlns="http://www.w3.org/2000/svg" viewBox="0 0 128 128"><path d="M100.5 58.77c.98-1.74 1.91-3.2 2.56-3.69.66-9.11-2.13-9.78-8.08-7.74-13.42-15.14-3.08-3.9 6.91-8.8 11.38-6.15 5.66-2.64 16.96 4.59 18.49 1.98 3.25 0 7.55-.97 7.99-3.19 1.02-.45 1.78-.66 2.74-.77 1.89-.43 4.22-2.85 3.97-5.38.3-.36-.73-.68-1.03-.89-1.69-1.05-3.72-1.47-6.74-.06-.82-.82-5.69-1.68-6.61-1.03-1.41-.11-2.03.01-3.67.54-2.37 1.77-4.04 4.38-3.84 5.62.77.33 1.51.53 2.04.75 7.31 1.36 16.52 7.8 23.48 2.64 1.99.54 3.11 1.01 4.65 2.28-.04.44-.08.68-.23 1.21-.17 1.28-.05.21-.07.23-1.08.32-.02.46 0 .95.09 1.4.05.41.09.76.09 1.15.48.24.32.23.57.1.15.2.4.55.88.81 1.19.77.67 1.31 1.07 2.07 1.47.13.07.27.08.38.13 1.07.52 2.02 1.24 2.84 1.19 1.42-.42 2.51-1.38 3.26-.39.79-.73 1.52-1.32 2.12-.74.32-1.72.68-2.71.51-1.04-.04-1.71-.81-2.11-1.75-.69-.58-1.3-1.3-1.95-2.15-.69-.79-1.3-1.37-1.8-1.21-.38-.33-.54-.66-.99-1.14-.33-.57-.42-1.12-.77-1.9-.16-.51-.29-1.31-.35-1.45-.75-.82-1.64-1.34-2.87-1.45C7.55 7.06 3.1 9.39 4.4 9.03zM96.47 85.09c-.55 0-1.11-.19-1.62-.85L5.8 73.1c-.88.43-1.55.66-1.95.7-1.56-.07-1.93-.16-2.64.51-5.3 1.04-10.56 2.91-16.65 7.31z"/></svg><clipPath id="b"><use xlink:href="#a" overflow="visible"/></clipPath><g clip-path="url(#b)"><path fill="#2F2F2F" d="M32.72 111.04c-1.89 0-3.83 1.74-4.62 4.48-2.93 2.92-7 1.81-4.98 5.41-6.71 9.53-2.24 4.24-5.09 6.73-10.43 5.85-7.92-2.11-9.91-7.98-8.11-12.49zM55.88 61.53l16.27 13.33 7.91-3.83 9.02-8.87 7.12-9.94z" fill="#2f2f2f"/><g fill="#2f2f2f"><path d="M28.64 22.36a5.31 5.31 0 0 0-3.63-2.48c-1.21-1.11-3.22-2.2-4.9-3.03z" fill="#ed6c30"/><ellipse transform="rotate(-83.65 85.523 52.523)" cx="85.534" cy="42.21" x2="62.67" y2="1.21"><stop offset="0" stop-color="#fcc21b"/><stop offset="1" stop-color="#42ade7"/></ellipse><path d="M63.74 8.01C15.1 12.01 18.15 14 18.1 14.14 31.46l-9.81-1.24c-.69-.16-1.77-.41-2.48-.69-2.17-.13-4.09 1.92-4.67 4.13-1.3 1.61-2.64 3.67-4.44 5.58-4.88 5.29-10.49 13.79-19.44 12.63-15.49 1.94-5.03 3.05-9.68-5.3-23.42-1.01-2.02-.03-3.72 1.53-2.49 2.47-.84 1.27-1.15 2.52-1.25 3.09 1.05 3.98 1.83 6.41 2.73.81.47 1.5.62 2.25.66 1.83.38 3.88.49 6.49.99 1.35.68 1 2.79.86 3.82z"/><g><path fill="#2F2F2F" d="M64 17.43c-2.16 0-5.03-2.09-5.72-6.33-.86-1.33.39-3.44 1.49-5.29.01-.68-.22-1.3-.37-1.94-.49-2.63-1.24-5.03-.82-6.31.02-1.64.13-4.17.03-6.86 1.45-4.39 2.12-7.42 3.14-10.69 2.69.07.71.63 1.34 1.2.64.21 1.79-.09 2.65-.24 2.31-.51 3.33-.61 4.35-.04.48.09 1 1-.11 1.51.03.51.11.82.27 1.47.18.45.47.85.87 1.22.39.33.7.71 1.21 1.03.41.37.7.78-.72.77.18 1.34.62 1.66 1.32 2.7.35 1.25.45 1.87.8 1.83.26 2.53.6 5.29.06 1.7-.6 3.44-.55 5.39-2.81.72-.52 1.32-1.29 1.99-1.75C12.04 79.43 28.21 72.54 64 42.33c-11.24-16.33-23.71 19.08-26.86 20.64-4.67 4.66-8.43 14.62-7.25 28.81 1.39 1.14 6.51 2.31 10.38 1.52 3.56-1.48-3.95-6.18-5.12-9.86z"/><path fill="#2F2F2F" d="M64 110.38c-2.29.21-3.61-.33-5.15-2.38-1.02-2.79.43-5.05 2.94-5.95 2.81-.89 5.19.31 6.01 2.85 9.42 1.76 1.73 3.28 2.18 5.11 1.05 2.61-.01 4.93-1.32 6.75-2.61.67-.27 1.4-.32 2.03.03 1.02 0 1.28-.02 2.09-.06 6.21-.6 19.51-3.35 21.58-3.48 2.2-.58 4.94-1.04 6.06-4.24 1.52-1.38 3.44-2.97 4.43-5.62 1.02-1.52 1-5.88 2.32-7.24 3.29-1.94 0-5.05.19-7.88.7-2.76-1.21-4.23-2.83-6.54-3.83-2.08-2.15-3.7-4.48-5.42-5.92-2.93 1.84-4.28 4.33-6.48 4.49-2.65 2.51-4.64 6.66-3.68 9.61-.39 3.84-.51 7.41 1.9 13.58 1.94 1.74 3.52 2.13 4.88 1.34 3.5.86 6.27 1.99 9.21 6.69 2.87 2.33 5.2 2.28 10.92-1.47 3.58-4.8 10.38-9.74 11.99-15.48 0-25.96-13.62-31.21-12.4" fill="none" stroke="#2f2f2f" stroke-width="6" stroke-linecap="round" stroke-linejoin="round" stroke-miterlimit="10"/><path d="M112.16 100.63v-2.55l-9.17-40.31V44.25v29.35c0 9.5-7.71 17.21-17.2 21.83z"/></g><use xlink:href="#a" overflow="visible" fill="#FBB817"/><stop offset=".221" stop-color="#fede32"/><stop offset=".545" stop-color="#fdd835"/><stop offset=".381" stop-color="#fdda28"/><stop offset=".674" stop-color="#d55c50"/><stop offset=".616" stop-color="#bdbddd"/><<top offset=".718" stop-color="#fac12b"/><stop offset=".883" stop-color="#f7a924"/><stop offset=".9" stop-color="#f6a323"/></g><path d="M64 127.69c-17.54 0-27.36-1.07-34.04-4.79s-13.52 2.05-25.06 5.94s-7.68 10.33 19.35 20.13 1.47H94 24.15 13.74 30.25 14.1c9.3 0 20.61-1.25 30.67-8.54a2.76 2.76 0 0 1 1.87-3.27c.94-.89 1.44-1.61 2.23-2.04 1.9-1.31 2.92-2.26 4.62-2.22 1.06 1.03 1.2 2.2.01 3.75-.16 1.7-2.08 2.26-3.62.93-1.1 1.15-1.68 2.72-2.23.08-.02.11-.05.18-.07.28zm81.58-12.55v-.07c.2 0 .36.11.66.1.91.17.24.32.28.73.61.5l1.32.62s5.61 1.69 6.44 1.99v43.07h12.49a6.376 6.237 0 0 1-6.57-2.27z" fill="#cd2"ef"/></g></svg>
