<svg xmlns="http://www.w3.org/2000/svg" width="128" height="128" viewBox="0 0 128 128"><path fill="#FFF" d="M50.61 20.69c2.78 0 5.03-2.72 7.03-6.07s-2.22-6.08-4.04-6.09c3.77 0 6.75 6.74 5.47 9.45-.11 1.19-1.74 1.63-2.96 1.25-5.28-1.01-15.19-1.42-18.38-4.17-6.54-.82-10.63 4.91-10.34 8.43-.55 1.19 1.07 1.89 1.64 3.44C-8.5 7.79-92.3 32.99-49.46 34.64c-1.21 3.29.42 6.12.19 8.36 1.07 6.35 5.35 11.09 10.79 14.98 5.65 2.98 9.75 11.29 16.09 11.79 9.09 0 15-5.46 5.45-10.49 10.05-4.68 4.28-7.04 1.71-18.46-.32-.39 0-7-.01 9.52-10.12 4.64-8.54 6.27-14.09 13.59-34.49.06-.17.14-.59.28-.93.5-1.16 0-2.4-.28-3.02-.03z"/></svg>
