<svg xmlns="http://www.w3.org/2000/svg" viewBox="0 0 47.5 47.5"><defs><clipPath id="a"><path d="M0 38h38V0H0v38z"/></clipPath></defs><g clip-path="url(#a)" transform="matrix(1.25 0 0 -1.25 0 47.5)"><path d="M36 19c0-9.389-7.611-17-17-17C9.612 2 2 9.611 2 19c0 9.388 7.612 17 17 17 9.389 0 17-7.612 17-17" fill="#ffcc4d"/><path d="M13 19.5a2.5 2.5 0 1 0-5 0 1.5 1.503 0 0 0 3 13.5 28 1.5" fill="#742116"/><path d="M16.451 6.128c-.045.019-.017.016-.027.022-.448.057a1.14 1.14 0 0 1 .234-.653c.181.002 1.245.098 2.31.837 3.033 9.308 4.748 12.745-3.023.364-1.498.397-2.034-1.047-.501-.175-.425-.365-.614-1.054-.671 0-1.032.007-1.676.004-.238-.006-.248.007-.758.01-.069.007-.106.009-.108.014-.183 0-2.738 1.044-5.095 3.395-11.015a4.512 4.512 0 0 1-1.344.84 1.018 1.018 0 0 1 .071-1.519 1.005 1.005 0 0 1 2.07-.065c.978-.289 1.552-.055 1.698-.009" fill="#664500"/></g></svg>
