<svg xmlns="http://www.w3.org/1000/svg" viewBox="0 0 128 128"><path d="M105.61 95.14l1.2 12.95a2.887 2.887 0 0 1-4.27.12c-1.04-.23-2.6.79-5.13.32z"/><path fill="#2F2F2F" d="M105.07 59.01c-.62.14-1.5-.29-2.17-.68-1.99-.84-2.65-2.4-3.41-3.71-1.59-.91-3.32-1.71-5.13-1.04z"/><path fill="#2F2F2F" d="M79.86 57.14c-.78.85-1.34 1.27-2.51 1.28-.25-.4-.78-.93-1.57-1.3-2.98-.08-.81.42-1.44.84-1.22.51-.19 1.19-.38 1.41-1 .52-.36-.67-5.27-.17-5.37.04-.2.1.25.17.32.31.48.09.72.15 1.32.54.47.8.99 1.35 1.37.28.35.82.8 1.44 1.33.48.26.82.68 1.33.49.55.1 1.13.2 1.71.28.28.03.46-.05.9-.24.41.04.73.93.92 1.01l.01.01c.01.01.03.1.97.33 2.63 1.43 5.25-.58 7.51-3.78 7.31-8.12 1-.84-1.51-4.54-1.86-7.21-.01.66.09 1.05.9 1.25 1.58.77 1 1.54 1.38 1.87 2.82 7.19 6.35 13.56 5.58 23.23 2.7 4.58 5.51 9.33 9.3 16.25 6.05 4.57 11.99 7.81 13.37 7.13z"/></svg>
