<svg width="128" height="128" xmlns="http://www.w3.org/2000/svg"><symbol id="d" viewBox="-64.5 -64.5 129 129"><g fill="none" stroke="#4285f4" stroke-miterlimit="10"><path d="M-64-64H64V64H-64z"/><path d="M36.95 37.82C27.32 46.32 14.2 51 0 51c-14.27 0-27.39-4.62-36.96-13.01C-47.45 28.79-53 15.65-53 0c0-15.58 5.55-28.69 16.04-37.92C-27.36-46.35-14.24-51 0-51c14.17 0 27.29 4.71 36.95 13.25C47.45-28.45 53-15.4 53 0c0 15.47-5.55 28.55-16.05 37.82z"/><path d="M0 55c-29.59 0-57-19.01-57-55 0-35.8 27.41-55 57-55S57-35.31 57 0c0 35.51-27.41 55-57 55z"/><path d="M0-43c-12.29 0-23.54 3.94-31.68 11.09C-40.39-24.25-45-13.21-45 0c0 29.7 22.6 43 45 43 21.67 0 45-13.46 45-43S21.67-43 0-43zM-.01 51V-51M-16 48.95v-97.88M15.99 48.91v-97.84M57 .08-55.31 0-67.28-14.38-57.62-15.7C.01 13.33 17.4 26.49 62 22.91 0 51.27-.01 63.82-28.65 43.28 0 43.77 11.21 43.38 21.14 0 30.28-28.65 43.95-23.81h-43.25C88.83 44.02 93.97 72.97 60.01 0c0 16.04 24.08 25.05 43.24 0 30.27-10.61 39.31-20.64S58.48 6.73 53.94 8.21 65.01c0-11.54 0-21.5-4.81-21.81-21.39S75.8 25.51 64 57.37z" fill="#eb8f00"/><path d="M65.33 108.29c-2.13-1.01-5.15-2.39-5.79-3.58-4.15-11.13-7.35-13.78-6.22a2.991 2.992 0 0 1 4.64.24 1.81.781 0 0 0-.63.18c-.08.31-.39.74-.67 1.27-1.85 1.43-3.6 3.77-3.4 5.49a2.015 2.015 0 0 1-2.41-2.43c.18-.21 4.11-7.52 14.34-7.22 8.94 0 12.79 7.2 14.36 7.62.73 1.2.38 2.97-.83 3.73-1.31 1.06-3.35 1.37-4.92 2.73-.26.09-.38.17-.61.31-2.29 1.02-3.84.7-5.28-.39-1.69.48-3.14.96-4.74-.76-1.69-2.48-2.81-4.65-2.91-1.64-.29-3.05.34-4.03 1.16-2.33 2.23-5.16 3.89-8.21 5.49l-.03-.04c-.01-.01-.02-.04-.04-.03-.08-.03-.19-.08-.28-.08-.23-.12-.65-.24-.97-.34-1.43-.6-2.37-.91-3.57-1.59-.53-.64-1.23-1.17-1.41-1.53-1.08-.51-2.33-.14-4.27.14-1.35.93-3.16.37-4.43.45-7.71 0-13.54-2.02-20.65-3.04-1.53 1.21-2.81 2.89-.92 3.22 0 .09.03 1.06.12.01zM11.23 93.06c.82 1.13 1.5 1.91 2.16 1.92.56 6.96-.13 10.66-10.55 10.05-10.92.39.05-.14.13-.45.11-.64-.07-1.32-.83-1.56-1.48-.25-.39-.15-.94-.49-1.48-.75-.49-1.57-.6-2.64-1.11l-.48-.19c-1.2-1.07-1.64-2.08-1.84-4.71-.38-1.33-.06-2.46.72-3.47 1.52-.2.14-.73.09-1.08.11z"/></g></symbol></svg>
