<svg xmlns="http://www.w3.org/2000/svg" viewBox="0 0 47.5 47.5"><defs><clipPath id="a"><path d="M0 38h38V0H0v38z"/></clipPath></defs><g clip-path="url(#a)" transform="matrix(1.25 0 0 -1.25 0 47.5)"><path d="M36 19c0-9.389-7.611-17-17-17C9.612 2 2 9.611 2 19c0 9.388 7.612 17 17 17 9.389 0 17-7.612 17-17" fill="#ffcc4d"/><path d="M25 17.5c-2.550-4.517-3.495-5.86-4.868A11.996 11.996 0 0 0 18 18C26 3.071 3 2 3 1" fill="#d79e84"/><path d="M20 15a1 1 0 0 0-1 1v1a1 1 0 0 0 1-1z" fill="#9f6c50d"/></g></svg>
