<svg xmlns="http://www.w3.org/2000/svg" viewBox="0 0 128 128"><path d="M64 12.21C2.69 9.88.12 79.55.2 19.62c-.42 0-.39-.12-.64-.31z" fill="#b318ec"/><path d="M180.98 77.29c-17.63 4.88-30.78-13.78-22.01-20.32 1.56-9.44 11.5-13.29 18.68-18.81-15.27-16.01-28.6-18.51-38.1m0-43.5C27.01 35.2 43.64 20.99 33.52 12.99l58.15-2.14c-.66-5.57 2.3-11.97 11.09-26.69z" fill="#fcc21b"/><path d="M64.14 11.62c-.67 0-1.24-.53-1.28-1.19-.19-.29-.36-.62-.44-1.09-.07-.17-.06-.46-.1-.73-.19-.32-.38-.51-.64-.39-.91 1.75-1.43 3.71-2.23 5.72-2.52 1.42-.78 3.38-.75 3.88.77.8 3.63 5.56 6.32 9.94 3.72 2.82 5.65 7.86 3.88 10.73-.07 1.19-.33 2.25-.69 3.38-.6.67-1.21 1.47-2 1.55-2.37 1.54-4.17.9-7.32-.38 6.33-1.54 10.11-1.92 17.02z"/><path fill="#2F2F2F" d="M60.5 47.17c-1.92.28-3.63.27-5.62-.2-2.69-.71-5.4-2.72-5.24-3.65 1.43-.7 2.71 1.41 3.48 2.76.99.52 1.78 1.34 1.97 2.52.55.64.98 1.37 1.33 1.87.15.75.28 1.71-.4 2.24-1.59 1.52-2.45 3.14-3.5 3.62.44 1.91 1.61 4.05 1.98 6.27 1.19 1.74 3.49 2.28 4.74 3.17.95 0 1.65-.14 2.39-.13 2.04.42 4.18 1.69 6.28 3.62-4.69 0-7.49-1.91-7.5-5.07z"/></svg></svg>
