<svg xmlns="http://www.w3.org/2000/svg" viewBox="0 0 47.5 47.5"><defs><clipPath id="a"><path d="M0 38h38V0H0v38z"/></clipPath></defs><g clip-path="url(#a)" transform="matrix(1.25 0 0 -1.25 0 47.5)"><path d="M36 19c0-9.389-7.611-17-17-17C9.612 2 2 9.611 2 19c0 9.388 7.612 17 17 17 9.389 0 17-7.612 17-17" fill="#ffcc4d"/><path d="M15 20.5c0-1.934-1.119-3.5-2.5-3.5S10 18.566 10 20.5c0 1.933 1.119 3.5 2.5 3.5s2.5-1.567 2.5-3.5M24.485 9.12c-.012.045-1.146 4.386-4.465 4.342-4.348A2.996 2.996 0 0 1 11 3c0.336.01 1.459.06 2.958.579 3.245 0 1.155-.013 1.07-.971A1.998 1.998 0 0 1 32 12.35c-.105.415-.148 1.047-.171a5.993 9.993 0 0 1 3.609 1.997c.094.586.076 1.292.177 2.391 0 .568-.038 6.198-2.94 6.255-2.126 1.004-5.054 1.77-9.028 1.533C27.671 8.058 20.386 5.805 22.5h-3.317c1.226 6.651 2.667 12.329 5.028 5.92 6.854 11.053 1.886 12.856V1.143a.515.515 0 0 0-.147.06.503l-1.565.602a.999.999 0 0 1-2.314 1.434L10.2 2A1 1 0 0 0-1.826-1.611 1.5 1.5 0 0 0-3 0v.004a4.594 4.494 0 0 1 .267 3.191 4.473 4.473 0 0 1 2.805 7.096 6.499 6.499 0 0 0 3.597 1.117 6.486 6.626 0 0 1-1.404.211 4.678 4.678 0 0 1-2.558 2.245 5.999 5.999 0 0 1-2.367 3.295 5.5 5.5 0 0 1 .777-.207l.015.001zM10.617 18.001c-.013.07-.004.067-.004.16-.007.068-.01.067-.013.067-.019.066-.023.062-.071.063-.04.06-.037.06-.037.069-.035.068-.035.068-.035.068-.035.068-.035.068-.037.068-.037.068-.037.069-.036.078-.037.087-.038.085-.041.085-.041.084-.042.083-.043.083-.043.081-.045.08-.049.087-.048.088-.051.087-.053.088-.044.088-.043.08-.043.081-.045.08-.045.081-.045.08-.049.081-.04.091-.034.091-.037.097-.038.097-.03.096-.041.094-.041.093-.041.092-.043.091-.044.08-.045.08-.045.081-.045.083-.043.082-.043.082-.043.08-.045.08-.047.089-.049.088-.051.087-.052.087-.054.076-.054.074-.055.074-.056.074-.056.074-.058.074-.061.072-.063.071-.062.07-.062.071-.061.072-.063.073-.065.075-.067.075-.069.074-.069.075-.069.075-.068.075-.067.076-.066.078-.065.078-.064.079-.063.088-.062.081-.061.082-.059.881-.052.092-.054.095-.045.095-.048.096-.049.065-.047.064-.046.064-.046.065-.043.066-.043.067-.042.068-.041.068-.04.069-.039.069-.037.078-.037.077-.036.076-.037.075-.037.074-.038.074-.038.074-.038.074-.038.074-.037.075-.038.076-.037.076-.037.076-.037.077-.035.077-.034.077-.034.077-.033.078-.034.08-.035.081-.035.081-.035.081-.035.08-.035.081-.035.08-.039.081-.04.081-.043.08-.045.08-.047.079-.047.078-.049.082-.053 1.484-1.285 2.581-2.519 3.327-.041.036-.045.034-.044.032-.046.029-.048.026-.049.024-.05.022-.051.019-.052.017-.054.014-.055.011-.056.008-.056.004L20 22l-.056-.002-.056-.004-.056-.008-.055-.011-.054-.014-.053-.017-.053-.02-.051-.023-.05-.026-.048-.028-.047-.031-.044-.034-.043-.036-.041-.039-.039-.041-.036-.043-.034-.044-.031-.047-.028-.048-.026-.05.023-.052.02-.054.016-.055.013-.055.01-.056.007-.056.007-.056.009-.055.011-.055.016-.055.017-.053.02-.053.023-.051.025-.059.028-.058.031-.056.039-.056.038-.055.039-.053.041-.053.041-.053.04-.051.037-.062.033-.062.029-.064.025-.065.028-.067.022-.067.021-.067.02-.067.019-.068.014-.067.018-.067.022-.065.024-.063.027-.062.03-.061.027-.062.028-.063.029-.067.03-.067.031-.066.032-.066.032-.065.035-.064.037-.063.038-.062.039-.062.04-.062.041-.063.042-.062.043-.062.044-.061.044-.062.046-.059.047-.057.047-.056.047-.055.049-.054.049-.053.051-.053.051-.054.05-.051.05-.05.051-.059.053-.058.049-.056.05-.057.062-.058.063-.058.063-.058.063-.058.063-.056.064-.056.064-.055.065-.053.065-.053.067-.053.066-.051.068-.05.068-.05.068-.049.069-.048.069-.047.079-.046.08-.045.082-.035.083-.03.084-.028.085-.027.085-.028.086-.033.086-.035.085-.037.086-.038.095-.035.094-.036.094-.038.093-.038.093-.038.093-.036.094-.034.095-.032.096-.03.096-.028.097-.026.098-.024.099-.023.099-.022.099-.02.099-.029.1-1.2.8-2.16.045-.186.045-.172.038-.18.038-.188.043-.187.029-.171.02-.161.003-.175.006-.174.007-.173.01-.173.012-.174.013-.173.016-.172.019-.172.02-.17.022-.17.024-.171.027-.172.027-.126.021-.126.029-.126.025-.128.023-.129.029-.121.027-.121.024-.122.023-.122.021-.122.029-.122.027-.122.026-.122.027-.123.027-.124.025-.124.025-.125.025-.125.025-.126.029-.127.03-.133.029-.132.027-.134.025-.135.025-.134.027-.134.029-.134.023-.135.025-.132.027-.031.028-.031.028-.029.029-.029.03-.027.03-.025.032-.025.032-.023.034-.021.034-.02.034-.019.036-.017.036-.016.037-.014.038-.012 4.78-1.368 8.351-4.886.017-.085.012-.086.01-.087.009-.089.007-.089.004-.079-.008-.088-.014-.087-.017-.087-.019-.085-.02-.084-.021-.083-.022-.082-.022-.029-.026-.029-.026-.027-.025-.027-.027-.026-.027-.025-.025-.025-.025-.024-.026-.022-.027-.022-.027-.021-.028-.02-.028-.019-.029-.018-.03-.016-.03-.016-.03-.015-.031-.014-.031-.012-.032-.011-.033-.011-.033-.009-.033-.008-.034-.007-.034-.005-.034-.005-.034-.003-.034-.002-.039L8 14.03v-.03l.002-.034.003-.035.004-.034.005-.034.006-.034.008-.034.008-.033.01-.033.011-.033.012-.032.014-.031.015-.032.016-.03.016-.03.018-.03.019-.029.02-.028.021-.028.022-.027.022-.026.024-.025.024-.024.025-.024.026-.022.027-.022.028-.021.028-.02.029-.019.03-.018.03-.016.03-.016.032-.015.031-.014.032-.012.033-.011.033-.011.033-.009.034-.008.034-.007.034-.005.034-.005.034-.003.035-.002.034-.001h.035zM12.043 11.001l.035.002.034.003.034.005.034.005.034.007.034.008.033.009.033.011.033.011.032.012.031.014.032.015.03.016.03.016.03.018.029.019.028.02.028.021.027.022.026.022.025.024.024.024.024.025.022.026.022.027.021.028.02.028.019.029.018.03.016.03.016.03.015.032.014.031.012.032.011.033.011.033.009.033.008.034.007.034.005.034.005.034.003.034.002.035.001.034v.035l-.002.034-.003.035-.003.034-.005.034-.007.034-.007.034-.009.033-.009.033-.011.033-.012.033-.013.032-.014.031-.016.031-.016.03-.017.03-.019.03-.019.028-.02.028-.022.027-.022.027-.023.025-.024.025-3 3-.025.024-.025.024-.027.022-.027.022-.028.02-.028.019-.03.019-.03.017-.03.016-.031.016-.031.014-.032.014-.033.012-.032.011-.033.011-.033.009-.034.008-.034.007-.034.005-.034.005-.034.003-.035.002-.034.001h-.035l-.034-.002-.035-.003-.034-.003-.034-.005-.034-.007-.034-.007-.033-.009-.034-.009-.032-.011-.033-.012-.032-.013-.031-.014-.031-.016-.03-.016-.03-.017-.03-.019-.028-.019-.028-.02-.027-.022-.027-.022-.025-.023-.025-.024-3-3-.024-.025-.023-.025-.022-.027-.022-.027-.02-.028-.019-.028-.019-.03-.017-.03-.016-.03-.016-.031-.014-.031-.013-.032-.012-.033-.011-.032-.009-.034-.009-.033-.007-.034-.007-.034-.005-.034-.003-.034-.003-.035-.002-.034v-.035l.001-.034.002-.035.003-.034.005-.034.005-.034.007-.034.008-.034.009-.033.011-.033.011-.033.012-.032.014-.031.015-.032.016-.03.016-.03.018-.031.019-.029.02-.028.021-.028.022-.027.022-.026.024-.025.024-.024.025-.024.026-.022.027-.022.028-.021.028-.02.029-.019.031-.028.031-.026.032-.025.032-.023.034-.022.034-.021.034-.019.036-.017.036-.017.037-.014.038-.014 1.465-.488-1.856-1.856-.028-.029-.026-.029-.025-.031-.024-.032-.023-.032-.021-.034-.02-.034-.019-.035-.017-.036-.016-.037-.014-.037-.013-.037-.011-.033-.011-.033-.009-.033-.009-.033-.007-.034-.007-.034-.005-.034-.003-.034-.003-.035-.002-.034v-.035l.001-.034.002-.035.003-.035.004-.034.005-.034.006-.034.008-.034.008-.033.01-.033.011-.033.012-.032.014-.031.015-.032.016-.03.016-.03.018-.03.019-.029.02-.028.021-.028.022-.027.022-.026.024-.025.024-.024.025-.024.026-.022.027-.022.028-.021.028-.02.029-.019.03-.018.03-.016.03-.016.032-.015.031-.014.032-.012.033-.011.033-.011.033-.009.034-.008.034-.007.034-.005.034-.005.035-.004.034-.003.035-.001H.034v3.535l-.001.004-.002.033-.001.034-.002.035-.003.034-.005.034-.005.034-.007.034-.008.034-.009.033-.011.033-.011.033-.012.032-.014.031-.015.032-.016.03-.016.03-.018.03-.019.029-.02.028-.021.028-.022.027-.022.026-.024.025-.024.024-.025.024-.026.022-.027.022-.028.021-.028.02-.029.019-.03.018-.03.016-.03.016-.032.015-.031.014-.032.012-.033.011-.033.011-.033.009-.034.008-.034.007-.034.005-.034.005-.034.003-.035.002-.034.001h-.035l-.034-.002-.035-.003-.034-.003-.034-.005-.034-.007-.034-.007-.033-.009-.033-.009-.033-.011-.033-.012-.032-.013-.031-.014-.031-.016-.03-.016-.03-.017-.03-.019-.028-.019-.028-.02-.027-.022-.027-.022-.025-.023-.025-.024-3-3-.024-.025-.023-.025-.022-.027-.022-.027-.02-.028-.019-.028-.019-.03-.017-.03-.016-.03-.016-.031-.014-.031-.013-.032-.012-.033-.011-.032-.009-.034-.009-.033-.007-.034-.007-.034-.005-.034-.003-.034-.003-.035L8 12.017v-.035l.001-.034.002-.034.003-.035.005-.034.007-.034.007-.034.009-.033.009-.034.011-.032.012-.033.013-.032.014-.031.016-.031.016-.03.017-.03.019-.03.019-.028.02-.028.022-.027.022-.027.023-.025.024-.025 3-3 .025-.024.025-.023.027-.022.027-.022.028-.02.028-.019.03-.019.03-.017.03-.016.031-.017.031-.014.032-.013.032-.012.033-.02.035-.02.035-.02.036-.018.037-.016.036-.015.038-.014 3.56-.801 1.435-.009-.142.018-.141.015-.125.013-.126.012-.123.013-.125.015-.125.016-.126.012-.127.012-.127.014-.127.016-.127.019-.127.02-.128.022-.127.015-.128.018-.13.02-.14.015-.121.014-.12.01-.12.009-.129.008-.12.014-.123.013-.121.018-.122.017-.122.014-.123.014-.123.01-.122.009-.124.005-.112.001-.11.001-.102.004-.119.004-.119.004-.11.001-.11-.001-.109-.002-.119-.004-.119-.006-.12-.008-.123-.01-.122-.014-.122-.017-.121-.019-.121-.023-.119-.025-.119-.029-.118-.031-.118-.034-.116-.037-.115-.04-.115-.042-.113-.045-.112-.048-.111-.048-.109-.047-.109-.045-.109-.044-.109-.043-.109-.044-.108-.044-.108-.043-.109-.04-.19-.027-.192-.025-.129-.025-.128-.027-.129-.029-.128-.029-.127-.029-.126-.03-.126-.029-.116-.027-.117-.027-.117-.025-.118-.025-.118-.025-.117-.025-.117-.025-.117-.025-.117-.025-.117-.025-.117-.025-.117-.025-.117-.025-.117-.025-.117-.025-.117-.025-.117-.025-.117-.025-.117-.025-.117-.025-.117-.025-.117-.025-.117-.025-.117-.025-.117-.025-.117-.025-.117-.025-.117-.025-.117-.025-.117-.025-.117-.025-.117-.025-.117-.025-.117-.025-.117-.025-.117-.025-.117-.025-.117-.025-.117-.025-.117-.025-.117-.025-.117-.025-.117-.025-.117-.025-.117-.025-.117-.025-.117-.025-.117-.025-.117-.025-.117-.025-.117-.025-.117-.025-.117-.025-.117-.025-.117-.025-.117-.025-.117-.025-.117-.025-.117-.025-.117-.025-.117-.025-.117-.025-.117-.025-.117-.025-.117-.025-.117-.025-.117-.025-.117-.025-.117-.025-.117-.025-.117-.025-.117-.025-.117-.025-.117-.025-.117-.025-.117-.025-.117-.025-.117-.025-.117-.025-.117-.033-.118-.031-.119-.029-.12-.027-.12-.028-.121-.028-.12-.029-.121-.031-.119-.032-.119-.033-.119-.034-.118-.036-.117-.037-.117-.039-.116-.04-.115-.042-.115-.042-.114-.045-.113-.045-.113-.047-.112-.048-.111-.05-.109-.052-.1-.053-.09-.055-.09-.055-.098-.057-.097-.057-.097-.057-.098-.054-.098-.053-.098-.062-.092-.059-.082-.058-.083-.058-.082-.057-.08-.057-.077-.056-.076-.055-.074-.056-.074-.056-.074-.055-.074-.054-.075-.054-.077-.052-.077-.05-.08-.049-.081-.048-.083-.047-.085-.045-.085-.044-.087-.041-.087-.04-.088-.037-.089-.037-.089-.038-.086-.08-.088-.083-.088-.083-.086-.081-.086-.08-.086-.081-.081-.083-.083-.084-.081-.081-.081-.08-.08-.089-.08-.088-.082-.088-.082-.086-.083-.085-.084-.085-.084-.083-.083-.081-.081-.08-.08-.088-.089-.087-.089-.087-.092-.083-.093-.081-.093-.08-.094-.078-.096-.077-.098-.075-.091-.073-.092-.071-.094-.07-.085-.07-.076-.068-.076-.067-.077-.067-.078-.064-.078-.064-.079-.062-.08-.051-.081-.049-.082-.049-.082-.043-.082-.042-.082-.041-.083-.039-.085-.037-.096-.036-.095-.034-.095-.034-.094-.036-.093-.036-.093-.038-.093-.039-.092-.041-.092-.041-.091-.042-.091-.044-.09-.044-.089-.046-.089-.047-.089-.048-.088-.049-.087-.05-.087-.051-.086-.052-.086-.054-.085-.054-.084-.056-.084-.056-.083-.058-.082-.059-.082-.059-.081-.061-.08-.062-.08-.063-.079-.064-.078-.064-.077-.066-.077-.067-.076-.068-.075-.069-.075-.07-.073-.071-.071-.07-.881-.881-.047-.05-.043-.053-.039-.056-.036-.058-.031-.061-.027-.062-.023-.064-.019-.066-.013-.067-.01-.068-.004-.068v-.068l.004-.068.01-.068.013-.067.019-.066.023-.064.027-.062.031-.061.036-.058.039-.056.043-.053.047-.05.881-.887.077-.057.076-.053.074-.052.072-.053-.078-.047-.077-.038-.07-.03-.07-.032-.069-.032-.068-.037-.068-.035-.067-.037-.065-.037-.065-.038-.066-.039-.066-.039-.066-.039-.065-.041-.064-.041-.064-.042-.064-.043.063-.043.062-.045.063-.045.062-.045.061-.045.062-.045.063-.043.063-.043.063-.042.062-.042.062-.041.062-.04.06-.04.06-.04.061-.038.061-.038.063-.037.064-.037.064-.037.064-.037.064-.038.064-.04.063-.042.062-.044.062-.046.062-.047.061-.047.061-.049.06-.049.06-.048.062-.047.062-.046.063-.045.062-.045.063-.044.062-.043.062-.043.062-.04.063-.038.063-.037.062-.037.061-.037.071-.038.072-.039.074-.038.075-.038.075-.038.075-.038.075-.036.076-.035.077-.034.087-.035.08-.038.08-.039.081-.041.092-.043.09-.044.091-.046.09-.048.089-.047.087-.05.078-.051.067-.051.066-.051.067-.05.068-.05.068-.059.067-.058.063-.057.063-.057.064-.055.064-.055.065-.054.065-.053.067-.052.066-.051.068-.051.068-.049.068-.049.069-.048.069-.047.07-.046.071-.045.071-.045.072-.043.072-.042.072-.042.073-.041.074-.04.074-.041.074-.039.075-.038.076-.037.077-.037.077-.037.077-.037.078-.037.079-.037.08-.035.081-.034.082-.032.083-.031.085-.03.086-.03.086-.038.084-.037.084-.037.082-.038.083-.04.085-.032.085-.034.084-.035.084-.037.084-.039.082-.039.082-.042.082-.043.081-.044.08-.045.08-.047.089-.04.088-.043.087-.045.086-.046.085-.048.084-.049.083-.05.881-.081.09-.089.096-.088.096-.087.096-.088.094-.082.094-.081.091-.082.096-.084.096-.087.096-.088.086-.083.088-.084.088-.083.086-.084.086-.083.086-.082.088-.081.098-.079.108-.078.099-.078.096-.079.096-.079.024-.072.022-.073.021-.073.02-.074.019-.076.018-.076.019-.075.02-.075.018-.074-.024-.074-.024-.064-.021-.065-.018-.065-.019-.064-.013-.063-.018-.063-.021-.061-.022-.059-.022-.058-.025-.057-.027-.057-.03-.055-.034-.052-.037-.05-.041-.048-.045-.041-.045-.04-.046-.039-.047-.038-.048-.037-.049-.036-.05-.035-.05-.034-.051-.033-.052-.032-.053-.031-.053-.03-.053-.029-.054-.027-.055-.026-.055-.025-.055-.024-.056-.022-.056-.021-.057-.019-.058-.018-.06-.018-.069-.015-.067-.013-.067-.013-.065-.021-.065-.025-.065-.029-.065-.034-.067-.031-.069-.031-.06-.029-.07-.028-.07-.027-.071-.026-.071-.026-.072-.023-.073-.022-.073-.02-.074-.019-.074-.018-.075-.017-.074-.016-.075-.015-.075-.014-.076-.013-.076-.012-.076-.01-.076-.01-.076-.009-.077-.008-.076-.008-.077-.006-.077-.005-.077-.004-.077-.003-.077-.002-.077-.002-.077-.001-.076-.002H-.359l.078-.001.078-.001.078.002.077.004.077.004.077.007.076.009.075-.01.076-.01.076-.003.076-.002.076-.003.077-.003.077-.005.077-.006.076-.007.076-.009.076-.01.076-.01.076-.012.075-.013.076-.014.075-.014.075-.015.074-.017.075-.017.074-.018.074-.019.073-.02.074-.021.073-.022.072-.022.073-.024.072-.024.072-.026.071-.026.072-.027.07-.027.071-.029.07-.03.07-.03.069-.031.068-.035.06-.035.063-.037.063-.037.063-.038.063-.038.063-.04.063-.042.061-.044.06-.046.06-.047.058-.049.058-.051.056-.052.061-.059 1.167-1.167.031-.039.032-.036.032-.036.033-.036.033-.036.031-.035.031-.034.031-.033.033-.032.034-.031.033-.03.034-.028.035-.026.037-.025.038-.023.039-.021.04-.019.04-.018.04-.016.042-.015.042-.014.042-.013.042-.012.043-.011.043-.009.044.006.044.005.044.003.045.001.045-.001.045-.002.045-.004.044-.007.043-.008.044-.01.042-.012.042-.014.042-.016.041-.017.04-.019.041-.021.04-.021.04-.023.04-.024.048-.025.047-.027.047-.03.047-.032.047-.032.046-.034.044-.036.043-.039.041-1.482 1.244-.082.025-.026.025-.027.026-.027.026-.029.025-.031.024-.032.024-.033.022-3 13.581-.037.027-.035.028-.035.029-.035.03-.033.03-.032.031-.032.032-.032.032-.031.033-.03.033-.03.035-.029.035-.028.037-.027.037-.026.038-.025.038-.023.039-.021.039-.021.04-.019.04-.019.041-.017.04-.017.042-.015.042-.015.042-.015.043-.014.043-.015.043-.015.043-.015.043-.015.043-.015.043-.015.043-.015.043-.015.043-.015.043-.015.043-.015.043-.015.043-.015.043-.015.043-.015.043-.015.043-.015.043-.015.043-.015.043-.015.043-.015.043-.015.043-.015.043-.015.043-.015.043-.015.043-.015.043-.015.043-.015.043-.015.043-.015.043-.015.043-.015.043-.015.043-.015.043-.015.043-.015.043-.015.043-.015.043-.015.043-.016.043-.015.044-.018.043-.021.044-.022.042-.025.042-.026.04-.028.039-.031.038-.032.036-.033.035-.036.033-.037.031-.038.029-.04.027-.041.026-.042.023-.044.022-.044.019-.045.017-.046.015-.047.013-.047.01-.048.009-.047.005-.049.004L19 23h-6l-.048-.001-.049-.004-.047-.005-.048-.009-.047-.01-.047-.013-.046-.015-.045-.017-.044-.019-.044-.022-.042-.023-.041-.024-.04-.026-.039-.028-.037-.031-.036-.032-.034-.034-.032-.036-.031-.037-.029-.039-.027-.04-.025-.041-.023-.043-.021-.044-.019-.044-.016-.046-.015-.046-.012-.046-.01-.048-.007-.047-.005-.049-.003-.048-.001-.048.002-.048.004-.049.006-.047.009-.048.011-.047.013-.047.016-.045.017-.045.02-.044.022-.043.024-.042.026-.041.028-.04.03-.038.032-.036.033-.035 1.581-1.581.023-.024.018-.019.017-.019.016-.02.016-.02.015-.02.015-.02.014-.021.013-.02.013-.021.012-.022.011-.022.01-.022.01-.022.009-.022.009-.023.008-.022.008-.023.007-.023.007-.024.006-.023.005-.023.005-.024.004-.024.004-.024.003-.024.003-.024.002-.024.001-.024.001-.024.001-.024.002-.024.003-.024.003-.024.004-.024.004-.023.005-.024.005-.023.006-.024.007-.023.007-.023.008-.022.008-.022.009-.023.009-.022.01-.022.011-.021.012-.022.012-.021.013-.02.014-.021.013-.02.015-.02.015-.02.016-.02.016-.019.017-.019.018-.024.023-1.261 1.581-.035.033-.036.032-.038.03-.04.028-.041.026-.042.024-.043.022-.044.02-.045.017-.046.016-.046.013-.047.011-.048.009-.047.006-.049.004-.048.002-.048-.001-.048-.003-.049-.005-.047-.007-.048-.01-.046-.012-.046-.015-.046-.016-.044-.019-.044-.021-.043-.023-.041-.025-.04-.027-.039-.029-.037-.031-.036-.032-.034-.034-.032-.036-.031-.037-.029-.039-.027-.04-.025-.041-.023-.043-.021-.044-.019-.044-.016-.046-.015-.046-.012-.046-.01-.048-.007-.047-.005-.049-.003-.048-.001-.048.002-.048.004-.049.006-.047.009-.048.011-.047.013-.047.016-.045.017-.045.02-.044.022-.043.024-.042.026-.041.028-.04.03-.038.032-.036.033-.035 1.581-1.581.023-.024.018-.019.017-.019.016-.02.016-.02.015-.02.015-.02.014-.021.013-.02.013-.021.012-.022.012-.022.011-.021.012-.022.012-.022.012-.021.012-.022.013-.02.014-.021.013-.02.015-.02.015-.02.016-.02.016-.019.017-.019.018-.024.023-1.262 1.282-.035.035-.036.038-.033.039-.031.04-.028.041-.026.042-.024.043-.022.044-.02.045-.017.045-.016.047-.013.047-.011.048-.009.047-.006.049-.004.048-.002.048.001.048.003.049.005.047.007.048.01.046.012.046.015.046.016.044.019.044.021.043.023.041.025.04.027.039.029.037.031.036.032.034.034.032.036.031.037.029.039.027.04.025.041.023.043.021.044.019.044.016.046.015.046.012.046.01.048.007.047.005.049.003.048.001.048-.002.048-.004.049-.006.047-.009.048-.011.047-.013.047-.016.045-.017.045-.02.044-.022.043-.024.042-.026.041-.028.04-.03.038-.032.036-.033.035-1.581 1.581-.023.024-.018.019-.017.019-.016.02-.016.02-.015.02-.015.02-.013.021-.014.02-.013.021-.012.022-.011.022-.01.022-.009.023-.009.023-.008.022-.008.023-.007.024-.007.023-.006.023-.005.024-.005.023-.004.024-.004.024-.003.024-.003.024-.002.024-.001.024-.001.024-.001.024.001.024.001.024.001.024.002.024.003.024.003.024.002.024.001.024.001h.042l.042.002.042.003.042.004.041.004.042.002.043.001.044.001.042.001.043-.001.043-.002.043-.003.044-.005.044-.007.044-.008-.043-.009-.041-.011-.041-.012-.04-.014-.041-.016-.04-.017-.039-.018-.039-.02-.039-.022-.037-.023-.037-.023-.036-.027-.034-.027-.032-.027-.032-.028-.031-.029-.031-.029-.03-.029-.031-.03-.03-.03-.03-.03-.03-.03-.03-.03-.03-.03-.03-.03-.03-.03-.03-.03-.03-.03-.03-.03-.03-.03-.03-.03-.03-.03-.03-.03-.03-.03-.03-.03-.03-.03-.03-.03-.03-.03-.03-.03-.03-.03-.03-.03-.03-.03-.03-.03-.03-.03-.03-.03-.03-.03-.03-.03-.03-.03-.03-.03-.03-.03-.03-.03-.03-.04-.032-.039-.033-.03-.034-.03-.035-.03-.037-.03-.038-.029-.038-.027-.039-.026-.041-.024-.041-.022-.043-.021-.044-.018-.044-.016-.046-.014-.046-.011-.047-.01-.048-.007-.047-.004-.049-.003-.048v-.048l.003-.048.004-.049.007-.047.01-.048.011-.047.014-.046.016-.046.018-.044.02-.044.022-.043.023-.042.026-.04.027-.039.03-.038.032-.036.033-.035 1.591-1.581.023-.024.018-.019.017-.019.016-.02.016-.02.015-.021.017-.022.016-.021.015-.023.013-.022.014-.022.013-.021.013-.02.014-.021.013-.02.015-.02.015-.02.016-.02.016-.019.017-.019.018-.023.023-1.582 1.581-.035.033-.036.032-.038.04-.04.048-.033.046-.034.044-.036.041-.049.039-.051.036-.053.034-.055.03-.057.027-.058.023-.06.019-.061.016-.062.012-.062.008-.063.004-.063.001-.063.004-.063.007-.062.01-.062.012-.061.018-.06.02-.071.023-.069.024-.078-.027-.077-.027-.077-.026-.077-.026-.077-.022-.077-.021-.076-.02-.077-.018-.077-.017-.077-.017-.077-.017-.079-.017-.07-.018-.07-.018-.071-.017-.071-.017-.07-.016-.071-.015-.07-.013-.071-.011-.071-.009-.072-.008-.071-.006-.072-.004-.071-.003-.072L22.15 83.18z" fill="#292f33"/></g></svg>
