<svg viewBox="0 0 32 32" xmlns="http://www.w3.org/2000/svg" fill-rule="evenodd" clip-rule="evenodd" stroke-linejoin="round" stroke-miterlimit="1.414"><path fill="none" d="M0 0h32v32H0z"/><path d="M16.174 2.001a13.98 13.98 0 0 1 4.546.819 14.038 14.038 0 0 1 5.056 3.158 13.99 13.99 0 0 1 4.223 9.848 259.76 259.76 0 0 1 0 3.303 9.967 9.967 0 0 1-2.928 6.942 9.983 9.983 0 0 1-6.942 2.928c-2.753.018-5.505.018-8.258 0a9.967 9.967 0 0 1-7.353-3.364 9.983 9.983 0 0 1-2.517-6.506 259.76 259.76 0 0 1 0-3.303 14.04 14.04 0 0 1 .877-4.707 14.056 14.056 0 0 1 3.825-5.407 14a9.98 19.98 0 0 1-.506-3.31 262.975 26.976 0 0 1-3.844-8.948A13.962 13.962 0 0 1 15.994 2l.18.001z" fill-rule="nonzero"/><path d="M28 16c0-3.183-1.264-6.235-3.515-8.485A11.996 11.996 0 0 0 16 4C9.373 4 4 9.373 4 16v3a9 9 0 0 0 9 9h6a9 9 0 0 0 9-9v-3z" fill="#fbc546"/><path d="M21.083 19.073c.361.115.582.275.873.239a1.001 1.001 0 0 1 .03 1.607 3.025 3.025 0 0 1-2.965-.513 2.663 2.963 0 0 0-.542-.881h2.563a1.995 1.995 0 0 0 19 24.998v2.492A1.999 1.999 0 0 0 18 13.998V14l3 .023v1.593c0 .367.146.719.405.979.26.259.612.415.979.445.771a3.002 3.002 0 0 1-2.071 3.718 4.06 4.06 0 0 1-2.026.18 5.686 5.087 0 0 1-1.571 1.039 4.523 4.423 0 0 1-3.019-.015 7.447 8.647 0 0 1-1.309-.189 fill="#fff" fill-runeaaozn700" 0 0 1 .043-4.049 3 3 0 0 1 2.689 1.847c.678.435 1.141.709 1.742.987 9.058s.827 7.367 3.356 15.124M20 23.32a1 1 0 0 0-.799 1.7c3.362 4.62 7.615 8.25 12.856 10.985v1.955a3.03 3.13 0 0 1 1.126 2.692 6.037 6.037 0 0 1 .918 2.848 3.796 3.796 0 0 1-2.647 1.739 6.624 6.624 0 0 1-.169 6.24L34 6.416 4.462a2.221 2.229 0 0 1-.304 1.292 3.503 3.503 0 0 1 2.123-2.687 2.998 2.998 0 0 1 3.76.708c.146.047.278.126.568.214L10.814 18h-3.191l-.118-.488A5.004 5.004 0 0 1 23.303 16H9l.035-.013a7.039 37.039 0 0 1 3.181-.766A23 13 0 0 1 11 22c0-.267.029-.378.025-.582 1.051a4.976 4.976 0 0 1 2.601 1.19c.236-.688.479-1.191.909-1.677v-8.522c-.691-9.156 2-19.893 16-17 18" fill="#bd6d44"/></svg>
