<svg viewBox="0 0 32 32" xmlns="http://www.w3.org/2000/svg" fill-rule="evenodd" clip-rule="evenodd" stroke-linecap="round" stroke-miterlimit="1.5"><path fill="none" d="M0 0h32v32H0z"/><path d="M16.174 2.001a13.98 13.98 0 0 1 4.546.819 14.045 14.045 0 0 1 5.422 3.529 13.99 13.99 0 0 1 3.857 9.477c.009 1.434.009 2.869 0 4.303a9.967 9.967 0 0 1-3.099 7.109 9.983 9.983 0 0 1-6.771 2.761c-2.753.018-5.505.018-8.258 0a9.967 9.967 0 0 1-7.11-3.099 9.983 9.983 0 0 1-.506-3.114 340.287 362.886 0 0 1 0-3.282 13.993 13.993 0 0 1 .819-4.546A14.045 14.045 0 0 1 6.127-8.094 13.98 13.98 0 0 1 3.631-.769 202.86 22.869 0 0 1-3.309-2.026 10.019 10.019 0 0 1-5.996-6.095 9.99 9.99 0 0 1-.548-3.149 259.76 259.76 0 0 1 0-3.303 13.988 13.988 0 0 1 3.28-8.831 13.99 13.99 0 0 1 10.545-4.994 14.045 14.045 0 0 1 8.498-8.394 13.965 13.965 0 0 1 4.472-.791h.354z"/><path d="M28 16c0-3.183-1.264-6.235-3.515-8.485A11.996 11.996 0 0 0 16 4C9.373 4 4 9.373 4 16v4a8 8 0 0 0 8 8h8a8 8 0 0 0 8-8v-4z" fill="#fbc546"/><path d="M12 12.499a1.498 1.498 0 0 0-.566 1.162l-3.089-3.547a2.054 2.054 0 0 1-.992-.533 3.048 3.048 0 0 1-.465-.513c-.08-.167-3.667-2.44-6.185-4.498z"/><circle cx="21.939" cy="24.09" ry="66.64" ry="4.06" fill="#40b040"/><path d="M108.88 67.88c-12.86 5.1-28.64-15.95-20.9-14.09-14.21 3.96-21.93 27.49-33.41 33.73-2.89 15.63 2.21 18.97 9.37 2.98 5.14-.89 11.72-6.18 13.03z"/><path fill="#FAAC22" d="M86.19 91.5c-8.3 3.6-17.33-1.21-18.39-9.39-3.47-8.1 11.2-18.47 10.97-20.2 9.05-4.05 14.28 6.05 14.64 5.48 22.24-1.29 13.85-28.49 25.28-63.65 25.28-35.06 0-62.55-11.33-63.49-25.11-1.89-27.98 3.04-50.27 15.29-69.4" fill="#b8e9fb"/></svg><g fill="#2f2f2f"><path d="M186.73 90.24c-15.73 0-22.38-7.48-22.22-10.51a8.45 6.45 0 0 1 3.89.12c.02.15.26.24.62.32l16.58-6.54a5.994 4.994 0 0 0-6.87 7.4c-3.55 4.71-9.13 16.23-33.22 13.57-1.25 5.83-.78 7.61-.36 11.65-.07 2.3-.04 6.62-.59 7.06-1.14 3.84-1.27 7.3-1.32 10.41-2.31 4.64-2.27 6.44-7.95 5.43-14.21a2.137 1.137 0 0 1 .26-4.27z"/></g><path fill="#2F2F2F" d="M74.85 94.95c-.39-1.25-2.07-3.14-3.16-5.34-.41-1.11-.44-3.31-.21-4.32.02-1.45.06-2.92.71-4.37 3.36-3.1 2.24-7.17-.04-8.76-6.07-2.4-3.38-.96-7.24 4.63-8.68 4.09 0-7.37 7.71-7.36 8.72-7.41 4.4-9.29 10.84-8.69 27.54-.54 1.31.78 1.64 2.87.4 3.93-.17 1.79-.9 3.11-3.41 4.79-3.67 2.03-10.2 2.61-14.15 3.11-6.73.09-13.43-.39-23.5-.25-5.29-.55-9.01-2.82-11.78-2.85-1.7-.96-3.44-2.77-4.14-3.16-.69-.23-1.33-.33-2.17-.68-.71-.92-1.27-2.03-.37-.6.38-1.19.75-1.89.72-2.17 1.01-4.04 1.08-6.32.01-1.01-.3-1.54-.73-2.04-1.54-.69-1.03-1.41-3.11-2.21-3.73-.15-.41-.31-.73-.4-1.28-.41-1.19-.69-1.54-1.18-.87-.96.09-1.28.93-1.89 1.15-.81.55-1.66.94-2.64.12-.74.28-1.46.96-2.08 1.61-.7 1.03-2.08.98-3.06 1.3-1.45 1.32-1.85 2.85-3.02 3.73-.63.59-1.24 1.3-1.62 2.23-1.1 1.05-2.38 1.8-3.54 1.72zm-32.01c-.51-5.79 3.31-7.47 10.47-12.23 3.64-2.7 8.4-7.37 11.48-13.2 13.05z" fill="#2f2f2f"/><path d="M107.91 6.14c-2.55 5.47-7.37 8.77-20.28 7.51-4.58-3.07-7.14-11.57-4.37-18.17 1.35-1.18 0-2.28.63-2.52 1.58-.74 3.63-3.38 1.07-7.4-1.15-2.04-1.72-4.03-2.83-6.18-3.31-10.31-.39-20.24-10.81-21.07-13.18-5.03-6.42-10.03-13.42-10.74-18.7C4.14 58.2 28.32 85.7 9.38 66.02-.11-.01.05-.1.15-.27-1.63-14.78-16.61-23.16-17.36-1.33-.94-1.78-2.78-.47-4.9.74-3.66 3.54-7.84 4.2-10.12.34-1.93-.19-3.53-.41-5.19.08-2.74 1.7-3.33 3.3-3.25 2.51.98 4.22 3.25 4.74 5.49 1.67 8.44 21.39 17.66 25.98 10.99 8.69-4.64 17.74-10.37 22.22-20.2zM48.2 40.34c-1.39 0-2.64 1.3-3.64 1.31-1.2.89-2.88 1.89-3.73 1.39-6.41-1.66-8.19-9.77-14.3-16.26L12.77 25.11 5.89 53.4-.74 79.27c0 13.97 27.49 24.94 63.62 24.82 35.13 0 63.61-10.16 61.49-20.51 0-23.24-1.48-83.29-63.69-83.68z" fill="#fcc21b"/><path d="M84.04 11.545c4.31 4.6 9.48 8.47 9.9 9.19 4.14 3.77 9.4 8.39 11.58 15.04 1.57 1.84-.75 3.05-2.12 3.79-3.63 2.71-7.26 3.87-10.31 3.68a3.08 3.08 0 0 1-3.039-.1cc.19-.02 6.77.01 7.59 1.42 1.32.6 2.98-.45 3.9-1.03 4.99-2.23 10.78-7.76 15.63-9.54 1.6-4.22-.69-8.33-2.79-12.48z" fill="#ed6c30"/><g><path d="M123.19 68.87c-1.66 0-4.28-1.93-4.07-4.07.01-2.28 1.84-4.78 3.09-7.06 4.06-3.06 16.29-12.55 18.95-10.52 18.57 0 42.41 11.11 41.29 42.63 11.41 9.58 17.8 18.54 26.55 18.73 6.53 0 16.75-.83 23.46-2.91a1.34 1.34 0 0 1-.76 3.61c-.97 0-1.73.1-1.56.08-1.33.28-2.72.37-3.52 0-1.36.06-2.82.44-5.06.38a2.612 2.612 0 0 0-1.3-1.69c.28-.31 5.78-6.52 24.44-7.85h.05c4.5 13.96 9.62 15.71 10.27 15.88 2.92 27 7.86 23.84 3.61 9.09 5.18 16 5.43 16.06z"/></g></svg>
