<svg xmlns="http://www.w3.org/2000/svg" viewBox="0 0 47.5 47.5"><defs><clipPath id="a"><path d="M0 38h38V0H0v38z"/></clipPath></defs><g clip-path="url(#a)" transform="matrix(1.25 0 0 -1.25 0 47.5)"><path d="M36 19c0-9.389-7.611-17-17-17C9.612 2 2 9.611 2 19c0 9.388 7.612 17 17 17 9.389 0 17-7.612 17-17" fill="#ffcc4d"/><path d="M28.335 14.371a.501.501 0 0 1-.635.03c-.039-.03-3.922-2.9-8.7-2.9-3.4 0-.516.223-.942.749-1.146a4 7 0 0 0-.779-.402h-3.002c-.204 4.657-3.236 8.385-5.56 13.874a1 1 0 0 0 .301-1c.957 0 5.99 3.107 6.453 4.37a.501.501 0 0 1-.655.605M30.001 24a.998.998 0 0 0-.801.4c-2.592 3.456-6.961 2.628-7.004 2.62a.998.998 0 1 0-.392 1.96c.23.048 5.657 1.072 8.996-3.38a1 1 0 0 0-.891-.45C20.15 11.893 11.762 9.051 2.101 17-7.601 18-10" fill="#664500"/></g></svg>
