<svg xmlns="http://www.w3.org/2000/svg" viewBox="0 0 47.5 47.5"><defs><clipPath id="a"><path d="M0 38h38V0H0v38z"/></clipPath></defs><g clip-path="url(#a)" transform="matrix(1.25 0 0 -1.25 0 47.5)"><path d="M36 19c0-9.389-7.611-17-17-17C9.612 2 2 9.611 2 19c0 9.388 7.612 17 17 17 9.389 0 17-7.612 17-17" fill="#ffcc4d"/><path d="M20 17.5c-2.5 0-4.315-2.134-4.466-2.299a.995.995 0 0 0-.707 2.758c2.125 0 4.531.801 6.736 2.112 7.563 0 16s1.881 13.96 21.6 2.001 1.241.002 2.869.009 4.742 0 10.646-1.322 3.553-3.68 6.445" fill="#bf6952"/><path d="M31 26c-5.557 0-5.777.573-10.844 4.798-2.02 2.247 1.19 3.956 3.034 8.76 1.498 5.694-.966 9.606-5.754 14.853-8.254a.5.5 0 0 1-.09.062l-4 22.945 1.11 0 5.09.04 5.498 1.159.716 1.963 1.018 1.205 1.69 1.19.6 0 .79.028 1.249.189 5.438 6.01 7.267 1 17 1.655.104 3.518 2.571 7.025 5.657a.899.999 0 0 1 1.116-.013 1.796 1.398 0 0 1 2 22" fill="#bf6952"/><path d="M6.999 25a1 1 0 0 0-.799 1.6C9.462 39.95 12.815 17 14 17c1.997 0 1 1 7 10.149 7s5.881 7.161 7.651 10 12.942c-2.664 0-3.833-1.076-4.498-3.008A.998.998 0 0 1 22 18c4.501 0-8.002 2.819-6.002 3.602a2.001 2.001 0 0 1 0-1.571C9 3.597 0 0 1 6.039 16h.044A1 1 1 0 0 1 22 12" fill="#bb1c34"/><path d="M15 18.508c0 .866.146 1.539.479 2.111 2.241.105.615.412 1.205.889 1.34.29.457.98.53 1.31 1.082.463 1.767-.503 2.839-.979 3.399-.774a1.5 1.5 0 0 0 3.8-1.6z" fill="#664500"/></g></svg>
