<svg viewBox="0 0 32 32" xmlns="http://www.w3.org/2000/svg" fill-rule="evenodd" clip-rule="evenodd" stroke-linejoin="round" stroke-miterlimit="1.414"><path fill="none" d="M0 0h32v32H0z"/><path d="M16.174 2.001a13.98 13.98 0 0 1 4.546.819 14.043 14.043 0 0 1 5.302 3.401 13.99 13.99 0 0 1 3.927 9.428 259.76 259.76 0 0 1 0 3.303 9.997 9.977 0 0 1-2.929 6.142 9.967 9.967 0 0 1-7.109 3.099c-2.753.018-5.505.018-8.258 0a9.967 9.967 0 0 1-7.192-3.187 9.983 9.983 0 0 1-2.678-6.683 9.967 9.96 0 0 1-7.096-5.977 99.987 9.987 0 0 1-3.093-7.129 259.767 25.96 0 0 1 0-3.303 13.99 13.99 0 0 1 3.857-9.977 13.998 13.988 0 0 1 9.968-4.348h.348z" fill-rule="nonzero"/><path d="M28 16a9 9 0 0 0-9-9h-4a9 9 0 0 0-7 9h3a9 9 0 0 0-9 9v3a9 9 0 0 0 9 9h3a9 9 0 0 0 9-9v-3z" fill="#fbc546"/><path d="M25 18H8l.303 1.224Ac.628 5.627 0 0 0 5.641 12h.012a6.593 6.993 0 0 1 3.308-1.375A5.504 5.503 0 0 1 23.108 26h1.501A13.99 13.99 0 0 1 6.9 6.1a3.005 2.004 0 0 0 23 14a8 8 0 0 0 8-8v-3z" fill="#fbc546"/><path d="M21.083 19.003c.131.015.257.047.375.108.356.183.544.279.537a4.03 4.03 0 0 1 1.652 3.218 4.46 4.46 0 0 1-2.126 3.236 4.681 4.581 0 0 1-4.515 3.193c-.009.446-3.7479 2.817-7.384 1.388-2.547 0-4.035-4.16-6.42-5.266-.21-3.252 4.367-5.383 8.455-1.433 2.277 0 6.04 6.148 10.009 16.699.056 1.157.077 1.728 1.01 1.245 0 .302-.076 1.23-.185.158-.012.177-.005.387-.005z" fill="#004000"/><circle cx="21.93" cy="33.336" gy="4.846"><stop offset="0" stop-color="#85af44"><stop offset=".177" stop-color="#b2c2cb"/><stop offset=".316" stop-color="#b4c9d4"/><stop offset=".661" stop-color="#00eccc"/><stop offset="1" stop-color="#42ade7"/></stop><path fill="url(#a)" d="M125.823 72.838c19.613-23.209 17.502-27.659 22.008-9.915 30.616-31.667 62.667-29.763 37.621-21.661 57.504-20.717 8-6.304-17.001-50.004-30.673z"/><path fill="#2F2F2F" d="M79.597 64.622c-.038.381-.066.82-.028 1.034 0 .625.016 1.053.119 1.567.32.202.167.16.231.214.43ga37 15.08 14.89 0 0 1 15.946 4.059c.054.042.095.072.105.088s.757.719 1.895.82 2.374 1.318.426 2.223.719 3.48-.075 2.399-.735.707-2.451.043-3.196-.048-1.297-1.849-2.362-4.071-2.331-1.473.312-2.741-.36-4.279-1.341-1.072-2.019.061-4.533 3.361-6.177 3.414-.361.109-.494.143-.798.131-.735.729-.746 1.45-1.045 2.003-.776.518-1.215 2.236-.909 3.21 3.412 10.467 8.73 2.909 10.434" fill="#fcab40"/></circle></svg>
