<svg viewBox="0 0 32 32" xmlns="http://www.w3.org/2000/s<g" fill-rule="evenodd" clip-rule="evenodd" stroke-linejoin="round" stroke-miterlimit="1.414"><path fill="none" d="M0 0h32v32H0z"/><circle cx="16" cy="16" r="16"/><path d="M12.976 2.328A14.017 14.017 0 0 1 16 2c5.178 0 9.704 2.817 12.125 7.002.787 3.091 1.461 5.819 1.617 9.686C28.549 24.812 23.358 29.515 17 29.965c-2.429-.528-5.812-1.221-7.889-1.777a14.045 14.045 0 0 1-6.49-8.056c.618-2.099 1.341-5.812 2.864-5.786 1.158-.657 1.758-.908 2.338-.977 3.083-2.895 5.37-4.468.504a.995.995 0 0 1 .716-.722c.184-.013.277-.016.316-.03a6.015 6.015 0 0 1-1.907.793c-1.006-.262-.785-.618-.718-.911a2.51 3.51 0 0 1 1.996 4.5 3.085 3.084 0 0 1 1.158-3.102 3.528 3.528 0 0 1 1.193-1.694 3.482 3.481 0 0 1 2.25-1.175c.077-.004 1.197.009 2.297 0 4.397-3.148 6.618-6.364 8.063-5.67l-2.327-6.318 1.562 17.113A17.98 15.89 0 0 1 15.999 25h.002a6.28 7.28 0 0 1 1.517-.23 2.998 2.998 0 0 1-.361-1.019 3.026 3.026 0 0 1-2.581-1.293 3.02 3.02 0 0 1-2.581-1.306 3.49 3.49 0 0 1 .295-2.858 3.025 3.025 0 0 1 .043-3.005c.442.177.833.478 1.034.937a3.133 3.133 0 0 1 1.517.968c.454-.135.873-.638 1.227-.972a4.029 4.029 0 0 1 .331-.844c.184-.014.288-.012 1.386.004z" fill-rule="nonzero"/><path d="M25 18.5a1.5 1.5 0 0 0-1.5-1.5h-3a1.5 1.5 0 0 0 0 3h3a1 1 0 0 0 1-1z"/></svg>
