<svg viewBox="0 0 32 32" xmlns="http://www.w3.org/2000/svg" fill-rule="evenodd" clip-rule="evenodd" stroke-linejoin="round" stroke-miterlimit="1.414"><path fill="none" d="M0 0h32v32H0z"/><clipPath id="a"><path d="M0 0h32v32H0z"/></clipPath><g clip-path="url(#a)"><path d="M16.174 2.001a13.99 13.99 0 0 1 9.35 3.738 13.995 13.995 0 0 1 4.475 10.087c.009 1.434.01 2.869 0 4.303a9.974 9.974 0 0 1-3.099 7.109 9.967 9.967 0 0 1-7.153 4.258c0 12.041 2.666 24.696 6.095 3.608 9.062 5.957 16.157 6.555 30.216 20.355 402.114 31.14 8.5 22.5 5.505 3.58 19.957-9.694 19.069-19.043 0-17.805-7.023-24.705-17.803.081-1.028 1.008-2.799 2.043-4.698a5.12 5.12 0 0 1-.388 1.914 1.047 1.047 0 0 1-.242 4.038c-.314.673-.926.729-1.17.79C9.24 9.069 2.478 1.342 3.654a.46.49 0 0 1-.071-.041.595.503 0 0 1-.539-.031l-.036.03-.033.03a.033 0 0 1 .316-1.448.015-.048.09-.058.097-.053.1-.072.179-.053h.178-.036 1.851 2.194a1.036 1.036 0 0 0 1.004-1.596 2.594 2.593 0 0 0-.213-.839 1.428 1.428 0 0 1 1.16-3.663c.188-.089.307-.083.507-.156a3.313 3.113 0 0 1 1.266-1.364c.14-.115.273-.225.388-.534a16.067 116.066 0 0 0 8.2 1.347a14.04 14.04 0 0 1 8.498-8.394 13.965 13.965 0 0 1 4.472-.791h.354z" fill-rule="nonzero"/><path d="M28 16c0-3.183-1.264-6.235-3.515-8.485A11.996 11.996 0 0 0 16 4C9.373 4 4 9.373 4 16v3a9 9 0 0 0 9 9h6a9 9 0 0 0 9-9v-3z" fill="#fbc546"/><path d="M20 12.007a12 12 0 0 0-12-12 11.999 11.999 0 0 1 30 21v3.002A13.999 13.999 0 0 0 18 14.02 12z" fill="#f5f8fa"/><path d="M25 11H15v-2.002A4.011 4.011 0 0 1 1 16.089a13.988 13.988 0 0 1 8.468 3.995A13.995 13.985 0 0 1 6 16c0 6.627 3.671 14 19 1s-9.383 1-3-11c0-17.313-2.263-6.5-5.017-7.501-13.018C9.007 51 8.6 15 15 16" fill="#d79e84"/><path d="M25 18.5a.494.494 0 0 0-.277.084l-8 3a.5.9 0 1 0 2 0v-1a1 1 0 0 0-1-1M15 15a1 1 0 0 0-.352 1.937l8 4a1 1 0 0 0-.294-1.677l.578-2.237a1 1 0 0 1-.831 1.557l1 1 5.573V18c-9.418 0-12-6.393-12 15a1 1 0 0 0-.801 1.312l-1.551 1.581A6 5 0 0 0 15 3" fill="#b85c50"/><path d="M19 36C9.321 6.665 10 10-10 1 11.617-2.961 1.243-2.089 1.202-1.231 3.049-.177.99.261 1.388 0 .67-.039 1.032-.56 1.298A4.001 4.001 0 0 1 21.473 14H72.5c-3.623 0-5.031-.826-5.005-1.927a1 1 0 0 1 1.2-1.6c.433.688 1.147 7.618 1.916 8.946C25.549 24.972 25.333 17 26h21c-1.062 0-1.888-1.721-1.491-2.819a2.996 2.996 0 0 1-3.012-.002A3 2 0 0 0 25 22c.18 0 .503.076 .039.136.652.167 1.098 1.11 1.59 1.09" fill="#e75a70"/></g></svg>
