<svg viewBox="0 0 32 32" xmlns="http://www.w3.org/2000/svg" fill-rule="evenodd" clip-rule="evenodd" stroke-linejoin="round" stroke-miterlimit="1.414"><path fill="none" d="M0 0h32v32H0z"/><circle cx="16" cy="16" r="16"/><path d="M12.976 2.328A14.017 14.017 0 0 1 16 2c5.178 0 9.704 2.817 12.125 7.002.787 3.091 1.461 5.819 1.617 9.686C28.549 24.812 23.358 29.515 17 29.965c-2.429-.528-5.812-1.221-7.889-1.777a14.045 14.045 0 0 1-6.49-8.056c.213-3.091 2.481-11.543 2.75-13.24.246-.287.504-.564.772-.83.868-.153 5.658-2.965 6.833-3.734z" fill="#432a7e"/><path d="M9.111 28.188a3.002 3.002 0 1 1 5.72-.181A2.001 2.001 0 0 1 17 29.965a13.933 13.933 0 0 1-7.889-1.777zM5.371 6.892A5.004 5.004 0 0 0 10 10a4.995 4.995 0 0 0 4-2h2.5a3.5 3.5 0 1 1-7 0 0 2.929 2.539 0 0 0 16 0l6.396L9 13.403a1 1 0 0 1-.826 1.171L20 21.889a4.71 4.51 0 0 1 6.345--.918h.002a.999.999 0 0 1 1.104 1.414L14.4 19.924l-.075.013.076.003.067.004.065.009.064.012.064.016.063.02.062.023.051.024.05.027.05.027.049.029.048.029.047.031.045.034.043.036.042.039.04.041.039.043.035.044.035.047.037.047.039.048.039.047.037.047.036.045.035.044.035.043.038.032.04.032.04.034.03.034.026.034.025.034.025.034.023.034.022.035.02.035.02.036.016.037.016.036.017.035.018.035.019.034.02.034.022.032.023.032.024.03.025.029.027.029.028.027.029.026.03.025.031.023.032.022.033.021.034.02.034.018.036.017.036.015.036.014.038.012.038.011.038.009.039.008.039.006.039.004.039.003.04.001.04.001.039.001.039.001.04.005.049.005.04.002.04.001.04v.04l-.002.04-.004.039-.005.04-.007.039-.008.039-.01.038-.011.038-.013.038-.014.037-.016.037-.017.035-.019.036-.02.034-.021.034-.023.032-.024.032-.025.03-.027.03-.028.029-.029.027-.029.027-.031.026-.031.024-.032.024-.033.022-.034.02-.035.02-.035.018-.037.016-.036.015-.038.014-.038.012-.038.01-.039.009-.039.008-.039.006-.04.004-.039.003-.04.001h-.04l-.04-.002-.039-.004-.04-.005-.039-.007-.039-.008-.038-.01-.038-.011-.038-.013-.037-.014-.037-.016-.035-.017-.036-.019-.034-.02-.034-.021-.032-.023-.032-.024-.031-.025-.029-.026-.029-.028L21 14.414l-1.293 1.293-.029.028-.029.026-.031.025-.032.024-.032.023-.034.021-.034.02-.036.019-.035.017-.037.016-.037.014-.038.013-.038.011-.038.01-.039.008-.039.007-.04.005-.039.004-.04.002h-.04l-.04-.001-.039-.003-.04-.004-.039-.006-.039-.008-.039-.009-.038-.01-.038-.012-.038-.014-.036-.015-.037-.016-.035-.018-.035-.02-.034-.02-.033-.022-.032-.024-.031-.024-.031-.026-.029-.027-.028-.028-.027-.029-.026-.031-.024-.031-.024-.032-.022-.033-.02-.034-.02-.035-.018-.035-.016-.037-.015-.036-.014-.038-.012-.038-.01-.038-.009-.039-.008-.039-.006-.039-.004-.04-.003-.039-.001-.04v-.04l.002-.04.004-.039.005-.04.007-.039.008-.039.01-.038.011-.038.013-.038.014-.037.016-.037.017-.035.019-.036.02-.034.021-.034.023-.032.024-.032.025-.031.026-.029.028-.029L21 11h58.514l-1.523 1.753A1 1 0 0 0 .394-1.97c-.107-1.018-.47-1.255-.602-.956-.146-1.329-1.051-1.775-.975-1.654.755-3.29 1.674-4.647a4.564 4.464 0 0 1-.625-.434L6.454 6.629a6.648 8.648 0 0 1-3.587-.199 3.965 3.965 0 0 1-2.678-1.101c-.772-.74-1.61-1.24-1.026-2.188.186-.188.15-.442.434-.844a4.121 4.112 0 0 1 .06-.238c.069-.02 1.326-.005 2.806.948a2.955 2.955 0 0 1 1.554-.518c.356-.138.677-.38 1.245-.082l.438 4.874z" fill="#482424"/><path d="M8.03 11l-.034.002-.036.003-.034.005-.034.005-.034.007-.034.007-.033.009-.034.009-.032.011-.033.011-.033.012-.032.014-.031.015-.032.016-.03.016-.03.018-.03.019-.029.02-.028.021-.028.022-.027.022-.026.024-.025.024-.024.025-.024.026-.022.027-.022.028-.021.028-.02.029-.019.03-.018.03-.016.03-.016.032-.015.031-.014.032-.012.033-.011.033-.011.033-.009.034-.008.034-.007.034-.005.034-.005.035-.004.034-.003.035-.001h.034l.035.001zM12.023 18l.035.012.037.014.037.016.035.017.036.019.034.02.034.021.032.023.032.024.031.025.029.026.029.028 3.81 3.81-.114.484-4.087 1.362-.038.012-.038.01-.039.009-.039.007-.039.006-.04.004-.04.002-.039.001-.042v-.049l.022-.044.024.043.025.042.027.04.039.04.041.036.043.034.044.031.047.027.048.025.05.022.051.02.053.017.053.014.054.011.055.008.056.004.056L21 21l-.002.056-.004.056-.008.056-.011.055-.014.054-.017.053-.02.053-.023.051-.026.05-.028.048-.031.047-.034.044-.036.043-.039.041-1.176 1.176-.087.086-.094.088-.096.084-.097.081-.099.079-.101.076-.102.073-.103.07-.105.067-.106.068-.107.067-.108.069-.108.072-.119.061-.112.067-.113.064-.109.061-.102.069-.103.095-.102.095-.101.096-.008.095-.01.094-.002.095-.003.099-.004.098-.007.09-.008.089-.01.089-.012.088-.011.088-.022.089-.023.088-.022.089-.02.089-.01.099-.01.09-.007.09-.008.089-.008.089-.012.088-.012.088-.01.088-.01.089-.014.089-.014.088-.013.088-.013.088-.012.088-.01.089-.01.089-.007.08-.006.08-.006.08-.005.083-.003.081-.002.088-.001.088-.001h.082l.039-.001.04.005.039.005.04.007.04.008.039.01.038.012.037.013.037.015.037.016.035.018.035.019.034.02.034.022.032.023.032.024.03.025.03.027.028.028.027.029.026.03.025.031.024.032.022.033.021.034.02.034.018.035.017.036.015.037.014.037.013.038.011.038.009.039.008.039.006.039.005.04.003.039.001.04v.04l-.002.04-.004.039-.005.04-.007.039-.008.039-.01.038-.011.038-.013.038-.014.037-.016.037-.017.035-.019.036-.02.034-.021.034-.023.032-.024.032-.025.031-.026.029-.028.029-1.856 1.856 1.465.488.038.014.037.014.036.017.036.017.034.019.034.021.034.022.032.023.032.024.03.026.029.027.029.028.027.029.026.03.025.031.023.032.022.033.021.034.02.034.018.036.017.036.015.036.014.038.012.038.011.038.009.039.008.039.006.039.004.039.003.04.001.04v.049l-.002.04-.003.04-.005.039-.007.04-.008.039-.009.038-.011.038-.013.038-.014.037-.015.037-.017.036-.019.035-.02.035-.021.033-.022.033-.024.032-.025.031-.026.03-.027.029-.029.027-.03.027-.03.025-.032.024-.032.023-.034.021-.034.02-.035.019-.036.018-.036.016-.037.014-.038.013-.038.012-.038.01-.039.008-.039.007-.04.006-.039.003-.04.003h-.04l-.039-.001-.04-.002-.04-.004-.039-.006-.039-.007-.039-.009-.038-.01-.038-.012-4.087-1.362-.114-.484 3.81-3.81.029-.027.029-.026.031-.025.032-.023.032-.022.034-.02.035-.02.035-.018.037-.016.036-.015.038-.014.038-.012.038-.01.039-.009.039-.008.039-.006.04-.004.039-.003.04-.001h.04zM23.05 11.001l.039.003.04.004.039.006.039.008.039.009.038.01.038.012.038.014.036.015.037.016.035.018.035.02.034.02.033.022.032.024.031.024.031.026.029.027.028.028.027.029.026.031.024.031.024.032.022.033.02.034.02.035.018.035.016.037.015.036.014.038.012.038.01.038.009.039.008.039.006.039.004.04.003.039.001.04v.04l-.002.04-.004.039-.005.04-.007.039-.008.039-.01.038-.011.038-.013.038-.014.037-.016.037-.017.035-.019.036-.02.034-.021.034-.023.032-.024.032-.025.031-.026.029-.028.029L20.414 15H22l.04.001.039.002.04.004.039.006.04.007.038.008.039.01.038.012.037.013.037.015.037.016.035.018.035.019.034.02.034.022.032.023.032.024.03.025.03.027.028.028.027.029.026.03.025.031.024.032.022.033.021.034.02.034.018.036.017.036.016.036.014.037.013.038.011.038.01.039.008.039.007.039.005.039.005.04.002.04.001.039-.001.04-.002.04-.004.039-.005.04-.007.039-.008.039-.01.038-.011.038-.013.038-.014.037-.016.037-.017.035-.019.036-.02.034-.021.034-.023.032-.024.032-.025.031-.026.029-.028.029L21.414 15H23l.045.001z"/><path d="M27 18.5a1.5 1.5 0 0 0-1.5-1.5h-3a1.5 1.5 0 0 0 0 3h3a1.5 1.5 0 0 0 1.5-1.5zM11 19.5a1.5 1.5 0 0 0-1.5-1.5H8.998A1.999 1.999 0 0 0 7 13.998V16l-18.513-1.502A7.28 8.27 0 0 1 6.511 3.012l.704 1.573z" fill="#cc4add"/><path d="M10.07 18.002l.069.005.068.01.067.012.066.016.065.021.064.025.063.024.063.025.062.024.062.024.061.024.061.023.061.022.062.019.062.019.062.019.062.019.062.019.062.017.063.016.054.016.054.017.055.02.053.022.054.025.054.029.054.029.053.031.053.031.051.034.051.034.05.036.05.037.049.039.047.04.047.041.046.043.043.044.041.046.039.048.037.049.035.051.034.051.033.052.031.053.031.054.031.055.034.056.032.055.029.059.026.06.026.061.021.062.012.062.01.063.009.063.004.063v.064l-.004.062-.007.062-.012.061-.016.061-.019.06-.022.058-.021.059-.022.057-.023.057-.023.057-.025.057-.026.056-.028.059-.028.051-.028.052-.029.053-.03.053-.031.053-.032.053-.034.051-.035.048-.037.047-.038.046-.036.047-.036.047-.036.049-.034.049-.033.04-.03.041-.031.041-.032.043-.032.043-.03.045-.027.046-.025.047-.023.047-.02.049-.017.05-.015.051-.012.052-.01.051-.007.052-.004L12 19l.052.001z"/><path d="M27 19.5a1.5 1.5 0 0 0-1.5-1.5h-3a1.5 1.5 0 0 0 0 3h3a1.5 1.5 0 0 0 1.5-1.5zM11 19.5A1.5 1.5 0 0 0 9.5 18h-3a1.5 1.5 0 0 0 0 3h3a1.5 1.5 0 0 0 1.5-1.5z" fill="#ed6b44"/></svg>
