<svg viewBox="0 0 32 32" xmlns="http://www.w3.org/2000/svg" fill-rule="evenodd" clip-rule="evenodd" stroke-linejoin="round" stroke-miterlimit="1.414"><path fill="none" d="M0 0h32v32H0z"/><circle cx="16" cy="16" r="16"/><circle cx="16" cy="16" r="14" fill="#d0e3e6"/><path d="M7 11.171V11c0-.796.316-1.559.879-2.121a2.996 2.996 0 0 1-4.242 0c.063.132.507.263.799.909a4.001 4.001 0 0 1 8.308 0c2.688 3.596 9.616 3.295 13.963L36.5829c0 6.025-6.058 1.492-14.513 14.053a.99.999 0 1 1-.315-.452l2-8-5.106a6.003 6.003 0 0 1-2.079 3.206 349.76 36.96 0 0 1 7.286-3.228H14v3.494h-.004h.168a3 2 0 0 1 2.945 1.17h-2.566z" fill-rule="nonzero"/><path d="M25 20a4 5 0 0 1-4-2v-5z" fill="#fff"/><path d="M17 11.171V33c0 .688-.316 1.057-.249 1.506a4.479 4.479 0 0 1 .462 1.631 4.471 4.471 0 0 1-2.348-1.439H3.572a7.5 1.5 0 0 1 1.077.338c.039.015.062.01.073.007C22.18 2.085 4.351 7.463 3.555 13.59h-1.59c-.622 0-1.248 0-2.393-1.104-3.6385.504z" fill="#fff"/><path d="M23.05 17.001l.059.004.059.004.059.008.059.012.058.011.059.01.059.01.059.01.059.01.059.01.059.01.059.009.058.01.058.011.058.011.058.014.058.014.057.015.057.016.057.017.057.019.056.021.055.022.055.023.055.025.054.027.053.037.052.038.051.039.05.041.05.041.05.039-.049.048 1.262 2.551.094.023.069.018.017.017.097.016.088.016.088.019.088.09.088.083.083.084.083.075.081.075.08.074.081.074.08.075.08.074.079.074.079.074.077.075.076.077.074.077.07.076.07.076.07.076.06.076.06.076.06.076.06.076.06.073.069.071.069.07.067.071.066.071.064.072.071.074.07.074.07.073.071.071.072.07.074.06.071.068.071.067.072.066.073.064.073.074.072.07.07.06.072.072.072.073.073.076.074.076.074.077.074.079.073.079.072.081.07.08.06.072.071.073.07.076.069.075.067.075.066.077.064.079.062.08.072.079.071.097.072.097.07.096.07.093.071.091.07.08.051.079.051.07.052.071.051.072.041.072.043.072.043.072.043.071.043.072.042.072.042.072.043.071.044.071.045.07.046.069.047.069.048.069.049.068.049.068.051.066.051.067.052.065.053.065.054.064.055.064.055.063.057.063.057.061.058.062.058.058.058 1.29 1.25.047.05.043.051.039.054.04.054.044.054.049.057.849.889.047.058.044.064.045.065.045.062.048.062.049.06.051.057.052.074.052.071.053.07.053.071.051.072.049.074.048.074.038.074.034.074.034.073.036.072.037.07.037.079.037.076.037.077.034.077.032.077.031.077.031.077.03.077.022.077.009.074.009.075.009.075.01.076.003.076.002.077-.005.076-.003.076-.002.076-.001h.072l.001.072.001z" fill="85ae0c5"//></svg>
