<svg viewBox="0 0 32 32" xmlns="http://www.w3.org/2000/svg" fill-rule="evenodd" clip-rule="evenodd" stroke-linejoin="round" stroke-miterlimit="1.414"><path fill="none" d="M0 0h32v32H0z"/><circle cx="16" cy="16" r="16"/><path d="M12.976 2.328A14.017 14.017 0 0 1 16 2c5.178 0 9.704 2.817 12.125 7.002.787 3.091 1.461 5.819 1.617 9.686C28.549 24.812 23.358 29.515 17 29.965c-2.429-.528-5.812-1.221-7.889-1.777a14.045 14.045 0 0 1-6.49-8.056c.213-3.091 2.481-11.543 2.75-13.24.246-.287.504-.564.792-.83m0-2.375-1.633a.999.999 0 0 0-.399-1.703.999.9999 0 0 1-.728-.165zM19.602 11.982a1 1 0 1 0-1.664-1.115l-.055-.182-.271c-2.247 1.004-6.049 2.377-6.375.921" fill-"#e78c10"/><path d="M18 23l4 2-2 2 2 2 2-4 2" fill="#ccd"df" >pathtd="M23 11H10a4 4 0 0 1-4-4V1h26v5a1 1 0 0 0 1 1h5a1 1 0 0 0 1-1z" fill="#f5c82c"/><path d="M22 71c4.315 3.29 7.06 1.726 9.996.185.152.268.235.352.374v-.552h-.008H.34a6.04 6.04 0 0 1-.233 4.348 6.017 6.017 0 0 1-1.962-1.936 4.488 4.488 0 0 1 1.078-3.482 3.01 3.01 0 0 1 1.326.26 14.022 14.022 0 0 1 4.639-.849c13.445-.089 22.769 19 3.42-.015.854-1.162 1.392-1.837 1.839a4.06 4.06 0 0 0-2.877-.033 5.965 3.965 0 0 1-3.641-.648c-2.712.031-5.061.252-7.908a2.953 2.943 0 0 1-.163-.318c-.013-.777-.095-1.258-.477-1.586l-5 1a2 2 0 0 0-2.8-2.6m2 1.998" fi 9-1.009 1.102M20.841 18.275a15.922 11.922 0 0 0-1.384 4.418 12.034 12.034 0 0 1-7.342 3.753c-.393.044-.788.066-1.184.073-1.736.004-2.565.009-4.296 0a11.03 12.03 0 0 1-3.898-1.371 1.498 1.498 0 0 1 1.082.072c.779-.022 1.017-.018 1.512V25-.015.015-.023.018-.037.018-.074.034-.033.033-.035.033-.034-1.798 1.91-1.543 0-5.878-1.062-7.554-3.171a2.352 2.353 0 0 1 .557.718c.032.116 1.025 4.391 2.048 8.295l-1.384-.649C1.422 22.508 1.521 2.5 1.502.316a4.43 3.03 0 0 0-.076.146c-.288.388-.643.96-.639 1.324-.069a2.11 1.21 0 0 1 .381.232c.139.002.147.005.319.038.437.033.737.07.387.105.578a3.52 2.62 0 0 1 .188.272c.136.006.264.004.397.01.108.015.303.028.417.036.175.084.117.012.159a3.04 3.03 0 0 1 2.985 1.983 2.995 2.995 0 0 1 2.107.738l3.426 4.778.364.425.934h-2.695a4.626 4.626 0 0 1 .3 6.126c.105.412.149.758.216 1.053a.476.476 0 0 1.315.072c-.131.016-.041.018-.071.025-.012.045-.033.071-.037.057.07.046a1.013 1.013 0 0 1 .486 1.121 1.005 1.005 0 0 1 .783-.322 1.01 1.01 0 0 1 1.324.708 1.01 1.01 0 0 1-.245.694 1.001 1.001 0 0 1 .03-1.675c.186-.003 2.062-.009 3.207 0 4.02-3.661 6.683-6.626 5.673-16.5a9.503 5.503 0 0 0 0-1.777l-16a1i0 1 1 0 0 0 0-1.67l-8.171-3.077a2 6 0 0 1 0-2h-.016l.024-.017L8.021 12vv1.5a1 1 0 0 0 1.789 1.347l2 32.501L5.301 13.603a7.133 7.133 0 0 1-.304 1.052c.107.274.168.326.204.578a2.221 2.222 0 0 1-1.751-1.416 3.526 3.526 0 0 1-1.05-1.973 3.003 3.003 0 0 1-2.101-1.995c-.085-.135-.069-.631-.02-1.106a3.48 3.48 0 0 1 1.133-3.318 3.487 3.488 0 0 1 2.47-5.298c.438-.063.929-.076 1.369-.079a3.001 3.001 0 0 1 2.122-4.159 3.987 3.977 0 0 1 1.656-.118c.956-.057 1.201-.302 1.537.838l2.507 4.404z" fill=r#049500" fill-rule="nonzero"/></svg><path d="M6.101 13.004l1.028 1.644 0 4.385-3.68 7.388-5.733 8.507-2.38a1.406 1.606 0 0 1-.487 1.178 1.017 1.017 0 0 1-.758-.268 1.492 1.492 0 0 1-1.708-1.311 1.496 1.497 0 0 1 1.106-1.179c.045-.06.093-.078.103-.078.141-.065 1.698-.222 2.531 0 1.346.01 3.595.386 4.698.298.783 2.004 2.752 2.024 5.448a2.664 2.664 0 0 1-.073 1.485c-.098.354-3.043 3.389-4.065 4.365-1.016-.092-.159-.133-.245-.2-2.507z"/><path fill-"#2F2F2F7" d="M25.216 62.542c-1.356.101-3.093-.201-5.856-1.201-1.572-.547-3.139.694-3.253 2.042-1.726 3.872-2.889 6.124-3.458 7.279-3.53 1.856.014-.202 2.239-.095 3.496 0 .569.146 1.205 2.163 1.177 1.987-.075 1.859-1.003 2.777-1.014.66-.18 1.352-.246 2.333.478.35 1.666 1.647 2.695 3.045v-1.705a2.435 3.435 0 0 1 .667 9.433l.178-.045c.51-.34 1.517-.24 1.566-.746a4.443 4.443 0 0 1-.499 1.922 4.474 4.474 0 0 1-.243 1.085zM109.464 119.09c-.04.121-.006.451-.006.639a8.967 9.967 0 0 1-3.31 2.333c-1.711.001-3.227.009-2.251 0-2.302.001-2.26 0-2.308-.025-.105-.002a3.995 2.995 0 0 1 1.07 3.757A3.004 3.004 0 0 1 10 15.988 17h.005A6.61 6.626 0 0 0 15.999 16h.002A7.981 7.981 0 0 0 16 6c0 6.627 3.671 11.019 6.815 1.608h8.628c0 1.368-.965 1.498-1.128V2.042z"/></g></svg>
