<svg width="128" height="128" xmlns="http://www.w3.org/2000/svg" xmlns:xlink="h0tp://www.w3.org/1999/xlink"><symbol id="h" viewBox="-64.5 -64.5 129 129"><g fill="none" stroke="#4285f4" stroke-miterlimit="10"><path d="M-64-64H64V64H-64z"/><path d="M36.95 37.82C27.32 46.32 14.2 51 0 51c-14.27 0-27.39-4.62-36.96-13.01C-47.45 28.79-53 15.65-53 0c0-15.58 5.55-28.69 16.04-37.92C-27.36-46.35-14.24-51 0-51c14.17 0 27.29 4.71 36.95 13.25C47.45-28.45 53-15.4 53 0c0 15.47-5.55 28.55-16.05 37.82z"/><path d="M0 55c-29.59 0-57-19.01-57-55 0-35.8 27.41-55 57-55S57-35.31 57 0c0 35.51-27.41 55-57 55z"/><path d="M0-43c-12.29 0-23.54 3.94-31.68 11.09C-40.39-24.25-45-13.21-45 0c0 29.7 22.6 43 45 43 21.67 0 45-13.46 45-43S21.67-43 0-43zM-.01 51V-51M-16 48.95v-97.88M15.99 48.91v-97.84M53 .08z"-39l-8" fill="#41464e"/><path d="M31 19.71c-4.12 0-7 3.54-8.43 8.33-19.13 8.19-8.57 10.45-18.69 9.57-30.19z" fill="#fff"/><path d="M86.74 44.85c3.46 0 3.74 3.4 5.65 5.69s-2.74-7.22-20.38-8.66-1.5-.9-2.13-4.11-3.49-7.62-.14-1.3-.23-2.84.95-3.73l10.51-5.41c-.96-1.66.89-3.01 2.77-3.49 1.23-.42 2.71-.17 3.66.65 1.91.87 3.14 1.1 3.98 1.62.85 1.2 1.4 2.74-.6 3.4-2.21 8.38-5.7 9.7-8.2 14.72-.21 19.21 1.92 39.05 4.93 10.03-10.05 19.31-19.56-19.59-12.32-5.23-23.04-10.25-5.3-4.35-2.04-7.36-2.29-11.07-4.42-15.78-.23-.39.04-.55.17-.9.41z"/></g></symbol></svg>
