<svg viewBox="0 0 32 32" xmlns="http://www.w3.org/2000/svg" fill-rule="evenodd" clip-rule="evenodd" stroke-linejoin="round" stroke-miterlimit="1.414"><path fill="none" d="M0 0h32v32H0z"/><circle cx="16" cy="16" r="16"/><circle cx="16" cy="16" r="14" fill="#d0e3e6"/><path d="M7 11.171a1.1 1.1 0 0 1-1.5-1.6h-3.998A.995.995 0 0 0 .798.293h4.82c.08 1.615-.069 3.522-.689 2.096l.748.257a1 1 0 0 1-.894 1.117l-.015-.001a13.98 13.98 0 0 1 .819 4.546c.007 1.105.007 2.211 0 3.316a10.926 10.926 0 0 1-.667 3.64 11.049 11.049 0 0 1-2.838 4.271 11.04 11.04 0 0 1-3.839-2.325 11.049 11.049 0 0 1-2.838-4.271 10.926 10.926 0 0 1-.667-3.64 262.915 262.915 0 0 1 0-3.323 13.965 13.965 0 0 1 .791-4.472 14.04 14.04 0 0 1 8.394-4.488h1.44z"/><path d="M28 16c0-3.383-1.264-6.235-3.515-8.485A11.996 11.996 0 0 0 16 4C9.373 4 4 9.373 4 16v2a11.996 11.996 0 0 0-16 4C16 19 9 0 10-12 6c0 3.187-.772 5.898-1.496 8.452-2.629a2.666 2.666 0 0 0-1.624 1.439A5.5 2.5 0 1 1 36 0" fill="#292f33"/></svg></svg>
