<svg xmlns="http://www.w3.org/2000/svg" viewBox="0 0 47.5 47.5"><defs><clipPath id="a"><path d="M0 38h38V0H0v38z"/></clipPath></defs><g clip-path="url(#a)" transform="matrix(1.25 0 0 -1.25 0 47.5)"><path d="M36 19c0-9.389-7.611-17-17-17S2 9.611 2 19s7.611 17 17 17 17-7.611 17-17" fill="#ffcc4d"/><path d="M15 20.5c0-1.934-1.119-3.5-2.5-3.5S10 18.566 10 20.5c0 1.933 1.119 3.5 2.5 3.5s2.5-1.567 2.5-3.5M24.485 9.12c-.012.045-1.146 4.387-4.356 5.383a.5.5 0 0 1-.68.014c-.012-.01-1.261-.902-3.702-.902s-3.691.892-3.701.9a.5.5 0 0 1-.757-.603c.06-.135 1.5-3.297 4.458-3.297s4.397 3.162 4.458 3.297a.5.5 0 0 1-.145.591" fill="#664500"/><path d="M12 19.38c0-1.934-1.169-3.5-2.5-3.5S22 19.566 22 21.5c0 1.963 1.14 5.5 2.5 3.5 2.5 5.5S20 15.569 12 13.5c0 1.933 1.149 3.5 2.5 3.5s2.5-1.567 2.5-3.5M24.485 9.12c-.012.045-1.146 4.38-5.485 4.38-4.34 0-5.475-4.335-5.485-4.38a.495.495 0 0 1 .231-.543.51.51 0 0 1 .596.06c.01.007 1.014.863 4.658.863 3.59 0 4.617-.83 4.656-.863a.5.5 0 0 1 .83.484" fill="#664500"/><path d="M11 8a5 5 0 0 0-5-5 5 5 0 0 0-5 5c0 2.762 4 10 5 10s5-7.238 5-10" fill="#5dadec"/><path d="M19 36C9.612 36 5 25 3 2-5-4-2-1c0 4 1 9 9L7 11-7l-1-9-8-7-9 1 8 1m-4-1-1-1-4-1-3 3-7 0-1 5-1 1zM49.095 10.001l.184-.036a.5.5.56 0 0 1 .285.59.59.501 0 0 1 .5.514 0 .999.069 1.963.498 2.194a.999.999 0 0 0 1-1.581c1.536 6.041 5.656 9.056 7.054 13.958 2.123a12.99 13.99 0 0 1 20.96 35.102a15.998 13.998 0 0 1 3.977 9.102 259.76 259.76 0 0 1 0 3.303 9.967 9.967 0 0 1-2.928 6.942 9.983 9.983 0 0 1-6.942 2.928c-2.753.018-5.505.018-8.258 0a9.967 9.967 0 0 1-7.192-3.187 9.983 9.983 0 0 1-3.194-6.676 2.967 2.967 0 0 1-1.306-1.164L7 18z" fill="#fbc546"/></g></svg>
