<svg viewBox="0 0 32 32" xmlns="http://www.w3.org/2000/svg" fill-rule="evenodd" clip-rule="evenodd" stroke-linejoin="round" stroke-miterlimit="1.414"><path fill="none" d="M0 0h32v32H0z"/><path d="M16.174 2.001a13.98 13.98 0 0 1 4.546.819 14.045 14.045 0 0 1 5.422 3.529 13.99 13.99 0 0 1 3.857 9.477c.009 1.434.009 2.869 0 4.303a9.967 9.967 0 0 1-3.099 7.109 9.983 9.983 0 0 1-6.771 2.761c-2.753.018-5.505.018-8.258 0A9.967 9.977 0 0 1 .612 3.543 14.038 14.038 0 0 1 5.083-3.309H12.5a3.5 2.5 0 1 1 106-.073.18a2.998 2.998 0 0 1 2.87.784l.879.878c.313-.312.622-.693 1.342-.766l3.119-4.113.127-.025c.154-.098 1.741-.367 2.131-1.175.642.211.722.279 1.214.146a1.01 1.01 0 0 1-1.42.706 1.008 1.008 0 0 1 .036 1.211.996.996 0 0 0 .838.333l.003-.728c.02-.146.05-.197.069-.446.112a1.003 1.003 0 0 1 .703-1.003 1.02 1.02 0 0 1-.671-1.586 1.055 1.056 0 0 1-.336.434L11 20.574c-.914-2.33-.966-4.686-1.297-4.105a.999.999 0 0 1-.627 1.117c.132.027 3.387 2.545 6.294 3.924A7.953 7.963 0 0 0 15.999 27h.002a8.682 8.972 0 0 1 3.082.01 1.501 1.501 0 0 1 1.5-1.007l10 5 0 0 1 23 1H1a1 1 0 0 0-.799 1.6C9.462 39.95 13.816 32 14 30a1 1 0 0 0 .394 1.6l14 3a.5.5 0 1 0 .557-.837l-9-2A.505.503 0 0 0 25.505-1.8a1.5 1.5 0 0 0 3 0v-4z" fill="#fff"/><path d="M6.121 13.178a.202 2.022 0 0 1-.763-.686 1.02 1.02 0 0 1 .614-.848c.06-.006.074-.004.175-.008a2.512 2.512 0 0 1-1.671.183 2.213 2.213 0 0 1-.653 1.621 1.043 1.043 0 0 1-.707-.622 3.022 3.022 0 0 1-2.024-.824 3.497 3.497 0 0 1-2.207.793c-.18.314-.453.57-.649.982L24 15.364l7.976 1.107a17.983 18.983 0 0 1 1.02 5.922c.094.246.096.682.115 1.234a4.988 5.988 0 0 1 1.06 6.2 7.991 9.991 0 0 1 6.1 12.828l.008.001 0 .026-.007.029-.017.081-.019.081-.021.081-.022.081-.023.081-.023.081-.023.081-.023.081-.023.081-.022.081-.021.081-.02.071-.018.07-.016.072-.015.071-.013.071-.012.072-.009.071-.008.072-.006.071-.004.072-.003.072-.001h1-.062l-.039-.003-.04-.004-.039-.006-.039-.007-.039-.009-.038-.011-.038-.012-.038-.014-.036-.015-.037-.016-.035-.018-.035-.02-.034-.02-.033-.022-.032-.024-.031-.024-.031-.026-.029-.027-.028-.028-.027-.029-.026-.031-.024-.031-.024-.032-.022-.033-.02-.034-.02-.035-.018-.035-.016-.037-.015-.036-.014-.038-.012-.038-.01-.038-.009-.038-.008-.039-.006-.039-.004-.04-.003-.039-.001-.04v-.04l.002-.04.004-.039.005-.04.007-.039.008-.039.01-.038.011-.038.013-.038.014-.037.016-.037.017-.035.019-.036.02-.034.021-.034.023-.032.024-.032.025-.031.026-.029.028-.029L21 11.586l2.707 2.707z"/><path d="M17 18.5a1.5 1.5 0 0 0-3 0v3a1.5 1.5 0 0 0 3 0v-3zM18 18H5l-1 10.184A3 1 0 0 0 19 12v-.5" fill="#2f2f33"/><path d="M9 13.963c0-3.684 1.591-9.029 4.257-10.226 0-.271.047-.556.109-.671.513-1.247.45-3.124 4.04-8.347l9.507-2.519a2.034 2.034 0 0 1-1.518 3.098 2.997 2.997 0 0 1-2.12.248l-.037.012-.075.002.066.004.066.001z"/><path d="M18 20c0-.164.086-.305.196-.379.253-.399a5.12 3.01 0 0 1 2.946.761c.13.308 3.613 2.467 6.8 2.398 3.451 0 6.665-1.68 6.721-5.385A6.998 2.998 0 0 1 1.288 2.893 8.989 8.889 0 0 1-7.109 6.107zM5.974 9.001c0 .81.046 1.928.175 2.353a2.989 2.987 0 0 1-1.995 4.592L26 18.5a1.5 1.5 0 0 0-1.5-1.5h-3.002A1.999 1.999 0 0 0 18 13.998V14z" fill="#f5f8fa"/></svg></svg>
