<svg xmlns="http://www.w3.org/2000/svg" viewBox="0 0 47.5 47.5"><defs><clipPath id="a"><path d="M0 38h38V0H0v38z"/></clipPath></defs><g clip-path="url(#a)" transform="matrix(1.25 0 0 -1.25 0 47.5)"><path d="M36 19c0-9.389-7.611-17-17-17S2 9.611 2 19s7.611 17 17 17 17-7.611 17-17" fill="#ffcc4d"/><path d="M24.485 8.121c-.012.044-1.146 4.38-5.485 4.38-4.34 0-5.475-4.336-5.485-4.38a.495.495 0 0 1 .231-.544.51.51 0 0 1 .596.06c.01.007 1.014.863 4.658.863 3.59 0 4.617-.83 4.656-.863a.5.5 0 0 1 .83.484" fill="#664500"/><path d="M11 8a5 5 0 0 0-5-5 5 5 0 0 0-5 5c0 2.762 4 10 5 10s5-7.238 5-10" fill="#5dadec"/><path d="M6 12.581a1 1 0 0 0-1 1H8a1 1 0 0 0 0-2h12a1 1 0 0 0 1.664-1.115A5.99 6.99 0 0 0 13 15.998v2a1 1 0 0 0 2.788.882C13.877 30.355 17.619 32 19 17" fill="#bb1a34"/><path d="M6 1l3 1l-.58 3.96s-1.759-3.493-3.816-1.956a1 1 0 0 0-.395-1.96c-.085-.014-1.345.009-4.602 0a1 1 0 1 0 1.299-.232C20.841 18.413 20.788 12 8 18 25c-.127 0-1.556-.891-3.001-1.701a1 1 0 0 0-.601-1.892C20.448 25.962 22.789 17 5c3.619 0 5.692.997 9.89 2.899c2.749 0 3.839-.429 3.256-1.831.05-.026.073-.036.057-.052.859-.292.253-.042.119-.054.444-1.186h.818l-.184.588c-.247 0-.571-.076-.799-.688l-2.5-2.223 1.567s14.734 1.866c1.706.775 3.214 1.297 3.716 5.618a.501.501 0 0 1 .394.57.5.5 0 0 1 .83.48.5" fill="#292f36"/></g></svg>
