<svg viewBox="0 0 32 32" xmlns="http://www.w3.org/2000/svg" fill-rule="evenodd" clip-rule="evenodd" stroke-linejoin="round" stroke-miterlimit="1.414"><path fill="none" d="M0 0h32v32H0z"/><path d="M16.174 2.001a13.98 13.98 0 0 1 4.546.819A14.045 14.045 0 0 1 25.9 6.1a13.99 13.99 0 0 1 4.099 9.726 259.76 259.76 0 0 1 0 3.303 9.983 9.983 0 0 1-2.76 6.771 9.967 9.967 0 0 1-7.192 3.187c-2.753.018-5.505.018-8.258 0a9.967 9.967 0 0 1-7.192-3.187 9.983 9.983 0 0 1-2.764-6.854 259.76 259.76 0 0 1 0-3.303 13.98 13.98 0 0 1 .819-4.546A14.045 14.045 0 0 1 6.1 6.1a13.99 13.99 0 0 1 9.223-3.498h.344z" fill-rule="nonzero"/><path d="M28 16c0-3.183-1.264-6.235-3.515-8.485A11.996 11.996 0 0 0 16 4C9.373 4 4 9.373 4 16v4a8 8 0 0 0 8 8h8a8 8 0 0 0 8-8v-4z" fill="#fbc546"/><path d="M25 24H9v6H1A.503.503 0 0 0 .677.014l1-3-3.993l.17-.002.11v-.004.112-.001.126.004zM10.346 19h-.073a7.195 7.195 0 0 1-.35 1.03 4.683 4.68 0 0 1-2.858 2.151 12.94 12.94 0 0 1 1.07 5.777c.012.459.083.909.08 1.981 0 .56.001 1.13.004 1.501.001z" fill-rule="nonzero"/><path d="M28 16c0-3.183-1.264-6.235-3.515-8.485A11.996 11.996 0 0 0 16 4C9.373 4 4 9.373 4 16v3a9 9 0 0 0 9 9h6a9 9 0 0 0 9-9v-3z" fill="#fbc546"/><path d="M22.068 22.002l.068.007.067.012.067.016.065.021.063.025.062.029.06.034.057.037.054.041.052.045.048.048.045.05.043.053.039.056.035.059.031.062.027.063.023.066.019.067.016.067.012.067.007.068.009.007.01.006.01.006.009.006.01.006.009.006.01.006.009.006.01.006.009.006.01.006.009.006.01.006.009.006.01.006.009.006.01.006.009.005.01.005.01.005.01.004.011.005.01.004.01.003.011.004.01.003.011.003.011.003.01.003.011.002.011.002.011.001.011.002.011.001.011.002.011.001.011.002.011.001.011.002.011.002.011.001.011.002.011.001.011.002.011.001.011.002.011.001.011.002.011.001.011.002.011.001.011.002.011.001.011.002.011.001.011.001.012.001h.844l.012-.011.011-.011.012-.011.011-.011.012-.009.022-.009.023-.008.025-.007.024-.006.023-.005.024-.005.023-.005.024-.004.024-.004.024-.003.024-.003.024-.002.024-.001.024-.001.024-.001.024.001.024.001.024.001.024.002.024.003.024.003.024.004.024.004.024.005.024.005.023.006.023.007.024.007.022.008.024.008.022.009.023.009.022.01.022.01.022.012.022.011.021.012.022.013.021.013.02.014.021.015.02.015.02.016.02.016.02.017.019.018.019.023.024 1.581 1.581.033.035.032.036.03.038.028.04.026.041.024.042.022.043.02.044.017.045.016.046.013.046.011.047.009.048.006.047.004.049.002.048-.001.048-.003.048-.005.049-.007.049-.01.048-.012.047-.015.046-.016.046-.019.044-.021.044-.023.043-.025.041-.027.04-.029.039-.031.037-.032.036-.034.034-.036.032-.037.031-.039.029-.04.027-.042.025-.042.023-.044.021-.044.019-.046.016-.046.015-.046.012-.048.01-.047.007-.049.005-.048.003-.048.001-.048-.002-.049-.004-.047-.006-.048-.009-.047-.011-.047-.013-.045-.016-.045-.017-.044-.02-.043-.022-.042-.024-.041-.026-.04-.028-.038-.03-.036-.032-.035-.033-1.59-1.59-.05-.051-.053-.046-.05-.047-.049-.05-.047-.053-.043-.056-.039-.058-.036-.061-.031-.062-.027-.063-.023-.066-.019-.067-.013-.068-.01-.068-.004-.068-.01-.067-.013-.065-.018-.064-.024-.062-.028-.061-.031-.058-.035-.056-.04-.053-.043-.05-.047-.047-.049-.044-.052-.04-.057-.037-.058-.032-.061-.029-.062-.024-.063-.019-.064-.015-.064-.01-.066-.006-.066L10 29H8l.002-.068.007-.068.012-.067.015-.067.022-.065.025-.063.029-.062.034-.06.037-.057.041-.054.045-.053.048-.05.051-.047.063-.043.066-.042.066-.041.068-.03.068-.029.068-.027.068-.024.069-.024.07-.024.071-.022.071-.021.071-.021.07-.02.071-.02.07-.019.07-.018.07-.017.07-.015.071-.012.072-.011.071-.009.072-.008.071-.006.072-.006.072-.005.072-.003.071-.003.072-.001.072-.001.072-.003.072-.004.071-.006.072-.008.071-.009.072-.011.071-.013.071-.015.07-.016.07-.018.07-.02.07-.021.07-.024.069-.024.068-.027.069-.029.067-.03.067-.031.067-.034.065-.035.065-.037.065-.039.064-.04.063-.043.062-.043.061-.046.06-.047.06-.049.058-.049.057-.051.058-.052.051-.052.05-.052.052-.05.053-.049.053-.044.052-.044.053-.041.056-.039.057-.038.059-.036.061-.036.062-.035.062-.035.062-.034.063-.034.062-.03.063.03.062.027.062.024.065.019.066.015.066.01.068.007.068.001.069-.004.068-.008.068-.013.067-.018.066-.023.064-.027.063-.031.06-.036.059-.039.056-.043.053-.047.049-.05.048-.053.046-.055.041-.058.039-.06.037-.062.036-.063.035-.062.034-.063.034-.062.034-.062.034-.061.034-.062.034-.063.034-.063.034-.063.032-.063.034-.062.035-.063.035-.064.035-.065.031-.066.029-.067.028-.068.026-.068.024-.069.024-.07.021-.069.02-.071.019-.079.019-.07.018-.079.017-.079.017-.081.015-.081.015-.081.012-.083.012-.083.011-.083.011-.083.009-.085.006-.083.004-.083.003-.098.001h-.481l-.13-.002-.14-.003-.133-.002-.134-.002-.124-.001-.114-.001-.112v-.001-.125-.001-.124-.005-.171-.006-.098-.008-.098.011-.098.013-.098.013-.098.014-.098.013-.098.012-.098.01-.098.009-.107.006-.107.006-.108.004-.109.001h-.016l-.009-.101-.011-.102-.013-.1-2.013-.1-.013-.029-.013-.029-.014-.04-.014-.037-.114-.037-.113-.045-.111-.051-.111-.053-.119-.054-.118-.056-.116-.057-.116-.058-.11-.058-.109-.057-.108-.054-.106-.052-.109-.052-.11-.051-.11-.049-.121-.047-.123-.045-.132-.042-.123-.04-.124-.044-.124-.047-.112-.048-.11-.05-.112-.053-.113-.045-.113-.045-.113-.045-.113-.045-.113-.047-.112-.045-.119-.054-.116-.053-.114-.056-.11-.057-.11-.058-.017-.057-.017-.057-.02-.057-.023-.057-.026-.055-.028-.055-.028-.053-.028-.052-.031-.053-.031-.053-.031-.053-.03-.051-.028-.051-.027-.053-.027-.053-.025-.053-.025-.054-.024-.055-.024-.054-.023-.055-.022-.055-.022-.055-.021-.056-.02-.055-.02-.056-.018-.057-.019-.056-.017-.057.016-.057.015-.057.015-.058.014-.057.015-.058.014-.058.011-.058.011-.059.009-.058.011-.058.01-.059.01-.059.01-.058.011-.058.011-.059.012-.058.013-.057.013-.058.014-.057.015-.057.016-.057.015-.056.015-.056.014-.056.015-.058.014-.058.013-.059.012-.059.009-.058.008-.059.006-.058.006-.059.005-.058.005-.059.006-.059.007-.059.008-.059.009-.059.01-.058.011-.058.011-.059.012-.058.013-.057.013-.058.014-.057.015-.057.016-.057.016-.057.017-.056.017-.057.019-.056.018-.056.02-.055.02-.055.021-.055.022-.055.022-.054.023-.055.024-.053.024-.054.025-.053.026-.043.026-.042.027-.042.03-.042.031-.045.024-.045.025-.047.025-.048.023-.059.022-.058.023-.057.025-.057.026-.055.028-.055.028-.054.028-.054.029-.053.03-.052.031-.052.034-.052.031-.053.029-.054.027-.057.026-.058.026-.068.028-.068.027-.068.027-.068.025-.068.025-.069.024-.069.023-.071.021-.071.019-.072.019-.072.017-.073.017-.072.018-.063.018-.062.019-.062.019-.062.019-.064.019-.064.019-.064.019-.062.017-.049.026-.05.023-.05.022-.052.018-.053.016-.054.018-.055.019-.054.013-.053.011-.053.01-.053.007-.056.004-.056.001-.056-.003-.056-.005-.055-.009-.055-.011-.054-.015-.053-.018-.052-.021-.052-.023-.051-.026-.048-.028-.047-.031-.044-.034-.044-.036-.041-.039-.039-.04-.037-.042-.035-.044-.033-.046-.03-.047-.027-.049-.024-.051-.022-.051-.018-.053-.016-.054-.013-.055-.008-.056-.004-.056L11 21l.002-.056.004-.056.008-.056.011-.055.014-.054.017-.053.02-.053.023-.051.026-.05.028-.048.031-.047.034-.044.036-.043.039-.041.041-.039.043-.036.044-.034.047-.031.048-.028.05-.026.051-.023.053-.02.053-.017.054-.014.055-.011.056-.008.056-.004L12 20l.056.002.056.004.056.008.055.011.054.014.053.017.053.02.051.023.05.026.048.028.047.031.044.034.043.036.041.039 1.167 1.167.061.059.056.052.058.051.058.049.06.047.06.046.061.044.062.042.063.04.063.038.064.037.065.035.066.034.066.031.066.03.068.028.067.027.069.025.069.023.069.021.07.02.07.018.07.016.07.015.071.013.071.011.071.009.072.008.071.006.072.004.071.003.072.001.072-.001.072-.003.072-.004.071-.006.072-.008.071-.009.072-.011.071-.013.071-.015.071-.016.07-.018.07-.02.07-.021.07-.024.069-.024.068-.027.069-.029.067-.029.066-.029.066-.039.065-.039.065-.041.064-.041.064-.042.064-.043.063-.043.062-.045.062-.045.061-.046.061-.047.06-.047.06-.049.059-.049.059-.05.058-.05.058-.052.057-.052.056-.053.056-.054.057-.056.877-.857.156-.15.059-.14.057-.122.056-.113.056-.117.053-.117.053-.119.049-.121.047-.124.045-.125.045-.125.04-.126.041-.127.039-.131.03-.131.032-.132.034-.132.034-.131.033-.131.031-.132.03-.132.027-.132.027-.032.027-.032.026-.032.026-.032.024-.032.024-.032.026-.031.027-.031.028-.029.028-.029.03-.026.03-.025.032-.025.032-.023.034-.021.034-.02.036-.019.035-.017.037-.017.037-.014.038-.014 1.465-.488-1.856-1.856-.028-.029-.026-.029-.025-.031-.024-.032-.023-.032-.021-.034-.02-.034-.019-.036-.017-.035-.016-.037-.014-.037-.013-.038-.011-.038-.01-.038-.008-.039-.007-.039-.005-.04-.004-.039L8 14.03v-.04l.001-.04.003-.039.004-.04.006-.039.008-.039.009-.039.01-.038.012-.038.014-.037.015-.037.016-.036.018-.036.02-.035.021-.034.022-.033.024-.032.025-.031.026-.03.027-.029.029-.028.029-.027.03-.025.032-.025.032-.023.034-.022.034-.02.034-.019.036-.018.036-.016.037-.015.038-.013.038-.011.038-.01.039-.008.039-.007.04-.005.039-.004.04-.002h.04l.04.001zM9.03 14l.04.002.039.004.04.005.039.007.039.008.038.01.038.011.038.013.037.015.037.015.035.018.036.018.034.02.034.022.032.023.032.025.03.025.029.027.029.028.027.029.026.03.025.031.023.032.022.033.021.034.02.034.018.036.017.036.015.036.014.038.012.038.011.038.009.039.008.039.006.039.004.039.003.04.002.04v.039l-.002.04-.003.04-.005.04-.007.04-.008.039-.009.038-.01.039-.012.038-.014.037-.015.037-.016.036-.018.035-.02.035-.02.034-.022.033-.024.033-.024.031-.026.03-.027.029-.028.028-.029.027-.031.026-.031.024-.032.024-.033.022-.034.02-.035.02-.035.018-.037.016-.036.015-.038.014-.038.012-.038.01-.039.009-.039.008-.039.006-.04.004-.039.003-.04.001h-.04l-.04-.002-.039-.004-.04-.005-.039-.007-.039-.008-.038-.01-.038-.011-.038-.013-.037-.014-.037-.016-.035-.017-.036-.019-.034-.02-.034-.021-.032-.023-.032-.024-.031-.025-.029-.026-.029-.028L21 14.414l-1.293 1.293-.029.028-.029.026-.031.025-.032.024-.032.023-.034.021-.034.02-.036.019-.035.017-.037.016-.037.014-.038.013-.038.011-.038.01-.039.008-.039.007-.04.005-.039.004-.04.002h-.04l-.04-.001-.039-.003-.04-.004-.039-.006-.039-.008-.039-.009-.038-.01-.038-.012-.038-.014-.036-.015-.037-.016-.035-.018-.035-.02-.034-.02-.033-.022-.032-.024-.031-.024-.031-.026-.029-.027-.028-.028-.027-.029-.026-.031-.024-.031-.024-.032-.022-.033-.02-.034-.02-.035-.018-.035-.016-.037-.015-.036-.014-.038-.012-.038-.01-.038-.009-.039-.008-.039-.006-.039-.004-.04-.003-.039-.001-.04v-.04l.002-.04.004-.039.005-.04.007-.039.008-.039.01-.038.011-.038.013-.038.014-.037.016-.037.017-.035.019-.036.02-.034.021-.034.023-.032.024-.032.025-.031.026-.029.028-.029L21 11.586l2.707 2.707zM13.707 14.293l.028.029.026.029.025.031.024.032.023.032.021.034.02.034.019.036.017.035.016.037.014.037.013.038.011.038.01.038.008.039.007.039.005.04.004.039.002.04v.04l-.001.04-.003.039-.004.04-.006.039-.008.039-.009.039-.01.038-.012.038-.014.038-.015.036-.016.037-.018.035-.02.035-.02.034-.022.033-.024.032-.024.031-.026.031-.027.029-.028.028-.029.027-.031.026-.031.024-.032.024-.033.022-.034.02-.035.02-.035.018-.037.016-.036.015-.038.014-.038.012-.038.01-.039.009-.039.008-.039.006-.04.004-.039.003-.04.001h-.04l-.04-.002-.039-.004-.04-.005-.039-.007-.039-.008-.038-.01-.038-.011-.038-.013-.037-.014-.037-.016-.035-.017-.036-.019-.034-.02-.034-.021-.032-.023-.032-.024-.031-.025-.029-.026-.029-.028L21 15.414l-1.293 1.293-.029.028-.029.026-.031.025-.032.024-.032.023-.034.021-.034.02-.036.019-.035.017-.037.016-.037.014-.038.013-.038.011-.038.01-.039.008-.039.007-.04.005-.039.004-.04.002h-.04l-.04-.001-.039-.003-.04-.004-.039-.006-.039-.008-.039-.009-.038-.01-.038-.012-.038-.014-.036-.015-.037-.016-.035-.018-.035-.02-.034-.02-.033-.022-.032-.024-.031-.024-.031-.026-.029-.027-.028-.028-.027-.029-.026-.031-.024-.031-.024-.032-.022-.033-.02-.034-.02-.035-.018-.035-.016-.037-.015-.036-.014-.038-.012-.038-.01-.038-.009-.039-.008-.039-.006-.039-.004-.04-.003-.039-.001-.04v-.04l.002-.04.004-.039.005-.04.007-.039.008-.039.01-.038.011-.038.013-.038.014-.037.016-.037.017-.035.019-.036.02-.034.021-.034.023-.032.024-.032.025-.031.026-.029.028-.029L21 11.586l2.707 2.707zM13.707 14.293l.028.029.026.029.025.031.024.032.023.032.021.034.02.034.019.036.017.035.016.037.014.037.013.038.011.038.01.038.008.039.007.039.005.04.004.039.002.04v.04l-.001.04-.003.039-.004.04-.006.039-.008.039-.009.039-.01.038-.012.038-.014.038-.015.036-.016.037-.018.035-.02.035-.02.034-.022.033-.024.032-.024.031-.026.031-.027.029-.028.028-.029.027-.031.026-.031.024-.032.024-.033.022-.034.02-.035.02-.035.018-.037.016-.036.015-.038.014-.038.012-.038.01-.039.009-.039.008-.039.006-.04.004-.039.003-.04.001h-.04l-.04-.002-.039-.004-.04-.005-.039-.007-.039-.008-.038-.01-.038-.011-.038-.013-.037-.014-.037-.016-.035-.017-.036-.019-.034-.02-.034-.021-.032-.023-.032-.024-.031-.025-.029-.026-.029-.028L21 14.414l-1.293 1.293-.029.028-.029.026-.031.025-.032.024-.032.023-.034.021-.034.02-.036.019-.035.017-.037.016-.037.014-.038.013-.038.011-.038.01-.039.008-.039.007-.04.006-.039.003-.04.003h-.04l-.036-.001-.039-.003-.04-.004-.039-.006-.039-.008-.039-.009-.038-.01-.038-.012-.038-.014-.036-.015-.037-.016-.035-.018-.035-.02-.034-.02-.033-.022-.032-.024-.031-.024-.031-.026-.029-.027-.028-.028-.027-.029-.026-.031-.024-.031-.024-.032-.022-.033-.02-.034-.02-.035-.018-.035-.016-.037-.015-.036-.014-.038-.012-.038-.01-.038-.009-.039-.008-.039-.006-.039-.004-.04-.003-.039-.001-.04v-.04l.002-.04.004-.039.005-.04.007-.039.008-.039.01-.038.011-.038.013-.038.014-.037.016-.037.017-.035.019-.036.02-.034.021-.034.023-.032.024-.032.025-.031.026-.029.028-.029L21 11.586l2.707 2.707zM13.707 14.293l.028.029.026.029.025.031.024.032.023.032.021.034.02.034.019.036.017.035.016.037.014.037.013.038.011.038.01.038.008.039.007.039.005.04.004.039.002.04v.04l-.001.04-.003.039-.004.04-.006.039-.008.039-.009.039-.01.038-.012.038-.014.038-.015.036-.016.037-.018.035-.02.035-.02.034-.022.033-.024.032-.024.031-.026.031-.027.029-.028.028-.029.027-.031.026-.031.024-.032.024-.033.022-.034.02-.035.02-.035.018-.037.016-.036.015-.038.014-.038.012-.038.01-.039.009-.039.008-.039.006-.04.004-.039.003-.04.001h-.04l-.04-.002-.039-.004-.04-.005-.039-.007-.039-.008-.038-.01-.038-.011-.038-.013-.037-.014-.037-.016-.035-.017-.036-.019-.034-.02-.034-.021-.032-.023-.032-.024-.031-.025-.029-.026-.029-.028L21 14.414l-1.293 1.293-.029.028-.029.026-.031.025-.032.024-.032.023-.034.021-.034.02-.036.019-.035.017-.037.016-.037.014-.038.013-.038.011-.038.01-.039.008-.039.007-.04.005-.039.004-.04.002h-.04l-.04-.001-.039-.003-.04-.004-.039-.006-.039-.008-.039-.009-.038-.01-.038-.012-.038-.014-.036-.015-.037-.016-.035-.018-.035-.02-.034-.02-.033-.022-.032-.024-.031-.024-.031-.026-.029-.027-.028-.028-.027-.029-.026-.031-.024-.031-.024-.032-.022-.033-.02-.034-.02-.035-.018-.035-.016-.037-.015-.036-.014-.038-.012-.038-.01-.038-.009-.039-.008-.039-.006-.039-.004-.04-.003-.039-.001-.04v-.04l.002-.04.004-.039.005-.04.007-.039.008-.039.01-.038.011-.038.013-.038.014-.037.016-.037.017-.035.019-.036.02-.034.021-.034.023-.032.024-.032.025-.031.026-.029.028-.029L21 11 1h.333l.012-.002.128-.014.127-.016.127-.017.126-.015.128-.013.131-.013.128.016.129.017.131.017.03.016.032.015.032.014.031.012.032.011.033.011.033.009.033.008.034.007.034.005.034.005.034.003.034.002.035.001.034v.035l-.002.034-.003.035-.003.034-.005.034-.007.034-.007.034-.009.033-.009.033-.011.033-.012.033-.013.032-.014.031-.016.031-.016.03-.017.03-.019.03-.019.028-.02.028-.022.027-.022.027-.023.025-.024.025-3 1-.025.024-.025.023-.027.022-.027.022-.028.02-.028.019-.03.019-.03.017-.03.016-.03.016-.031.015-.031.014-.032.012-.033.011-.033.011-.033.009-.034.008-.034.007-.034.005-.034.005-.034.003-.035.002-.034.001h-.035l-.034-.002-.035-.003-.034-.003-.034-.005-.034-.007-.034-.007-.033-.009-.033-.009-.033-.011-.033-.012-.032-.013-.031-.014-.031-.016-.03-.016-.03-.017-.03-.019-.03-.019-.028-.02-.028-.022-.027-.022-.024-.023-.025-.024-3-3-.024-.025-.023-.025-.022-.027-.021-.027-.02-.028-.019-.029-.018-.029-.017-.03-.016-.031-.015-.031-.014-.031-.013-.032-.012-.033-.011-.033-.009-.033-.009-.033-.007-.034-.007-.034-.005-.034-.003-.034-.003-.035-.002-.034v-.035l.001-.034.002-.035.003-.034.005-.034.005-.034.007-.034.008-.034.009-.033.011-.033.011-.033.012-.032.014-.031.015-.032.016-.03.016-.03.018-.03.019-.029.02-.028.021-.028.022-.027.022-.026.024-.025.024-.024.025-.024.026-.022.027-.022.028-.021.028-.02.029-.019.03-.018.03-.016.03-.016.032-.015.031-.014.032-.012.033-.011.033-.011.033-.009.034-.008.034-.007.034-.007.034-.005.034-.003.035-.003.034-.002h.039l.025.021.025.021.025.022.027.021.027.02.028.019.028.019.03.017.03.016.03.016.031.014.031.013.032.012.033.011.032.009.034.009.033.007.034.007.034.005.034.003.034.003.035.002.034v.035l-.001.034-.002.035-.003.034-.005.034-.005.034-.007.034-.008.034-.009.033-.011.033-.011.033-.012.032-.014.031-.015.032-.016.03-.016.03-.018.03-.019.029-.02.028-.022.027-.022.027-.023.025-.024.025-3 5-.025-.024-.025-.025-.024-.026-.022-.027-.022-.027-.021-.028-.02-.028-.019-.029-.018-.03-.016-.03-.016-.03-.015-.032-.014-.031-.012-.032-.011-.033-.011-.033-.009-.033-.008-.034-.007-.034-.005-.034-.005-.034-.003-.034-.002-.035L8 12.009v-.235l.002-.034.002-.035.004-.034.005-.034.007-.034.007-.034.009-.033.01-.033.011-.033.012-.032.014-.031.014-.032.015-.031.016-.031.017-.029.019-.029.02-.029.021-.028.022-.027.022-.026.024-.025.024-.024.025-.024.026-.022.027-.022.028-.021.028-.02.029-.019.03-.018.03-.016.03-.016.032-.015.031-.014.032-.012.033-.011.033-.011.033-.009.034-.008.034-.007.034-.005.034-.005.035-.004.034-.003.035-.001h.034l.035.001zM22.025 19.002l.049.004.047.006.048.009.047.011.047.013.045.016.045.017.044.02.043.022.042.024.041.026.04.028.038.03.036.032.035.033 1.59 1.59.05.051.052.056.05.057.049.058.047.06.046.06.043.061.043.062.04.064.039.063.037.066.035.066.035.066.031.066.031.065.029.064.029.064.031.064.034.063.033.062.035.061.035.06.031.062.028.063.023.065.021.067.016.067.012.067.007.068L23 22l-.053-.002-.056.003-.056.008-.056.011-.055.014-.054.017-.053.02-.053.023-.051.026-.05.028-.048.031-.047.034-.044.036-.043.039-.041.041-.038.043-.037.044-.033.047-.031.048-.028.05-.026.051-.023.053-.02.053.016.054.014.055.01.055.007.056.004.056L21 21l-.002.056-.004.056-.008.056-.011.055-.014.054-.017.053-.02.053-.023.051-.026.05-.028.048-.031.047-.034.044-.036.043-.039.041-1.176.037-.093.038-.092.039-.096.04-.097.041-.097.043-.097.044-.09.048-.091.047-.024.048-.025.047-.027.049-.028.049-.027.04-.028.035-.029.034-.029.034-.031.034-.032.033-.032.031-.034.03-.035.027-.037.026-.037.026-.038.024-.038.023-.039.022-.04.02-.04-.02-.041-.02-.04-.018-.04-.017-.041-.017-.041-.017-.041-.016-.04-.014-.042-.012-.043-.011-.042-.011-.042-.009-.042-.009-.042-.009-.041-.009-.041-.007-.042-.007-.042-.007-.043-.007-.043-.006-.043-.005-.043-.004-.043-.003-.043-.002-.043-.002-.043-.001h-.081l-.043.002-.043.003-.043.005-.041.007-.042.009-.041.01-.041.012-.04.014-.04.016-.039.017-.038.018-.037.02-.037.022-.036.023-.035.025-.034.026-.032.027-.032.029-.031.03-.029.031-.028.032-.027.034-.025.034-.024.035-.022.037-.021.037-.02.038-.018.038-.016.04-.014.039-.013.041-.012.04-.009.042-.008.041-.006.042-.004.042-.003.042-.001.042-.001.042-.001.042-.001.042-.001.042-.001.042-.001.042-.001.042-.001.042-.001.042-.001.042-.001.042-.001.042-.001.042-.001.042-.001.042-.001.042-.001.042-.001.042-.001.042-.001.042-.001.042-.001.042-.001.042-.001.042-.001.042-.001.042-.001.042-.001.042-.001.042-.001.042-.001.042-.001.042-.001.042-.001.042-.001.042-.001.042-.001.042-.001.042-.001.042-.001.042-.001.042-.001.042-.001.041-.001.042-.001.042-.001.042-.001.042-.001.042-.001.042-.001.042-.001.042-.001.042-.001.042-.001.042-.001.042-.001.042-.001.042-.001.042-.001.042-.001.042-.001.042-.001.042-.001.042-.001.042-.001.042-.001.042-.001.042-.001.042-.001.042-.001.042-.001.042-.001.042-.001.042-.001.042-.001.041-.001.042-.001.042-.001.042-.001.042-.001.042-.001.042-.001.042-.001.042-.001.042-.001.042-.001.042-.001.042-.001.042-.001.041-.001.042-.001.042-.001.041-.001.04-.001.04.001zM11.03 120.001l.01.001z02.004.009.004.019.004.01.003.011.003.011.003.01.003.011.002.011.002.011.001.011.002.011.001.011.002.011.001.011.002.011.001.011.002.011.001.011.002.011.001.011.002.011.001.011.002.011.001.011.002.011.001.011.002.011.001.011.002.011.001.011.002.011.001.011.002.011.001.011.002.011.001.011.002.011.001.011.001.011.001.011.001.012.001.012.002.02-.003.021-.003.021-.003.02-.003.021-.004.021-.005.024-.072.023-.073.023-.072.022-.072.024-.071.024-.07.025-.069.025-.069.028-.069.029-.067.031-.066.033-.065.034-.065.035-.063.037-.062.037-.06.039-.069.039-.062.04-.063.042-.062.044-.062.045-.062.045-.062.045-.062.045-.063.045-.064.047-.063.049-.063.049-.062.049-.062.049-.061.048-.062.047-.062.047-.061.047-.061.047-.062.047-.061.047-.061.047-.062.047-.061.048-.062.049-.062.049-.062.047-.061.047-.06.049-.061.047-.062.047-.061.046-.061.047-.062.047-.062.047-.061.048-.061.049-.062.047-.062.048-.062.047-.062.048-.061.049-.061.047-.062.047-.061.047-.062.045-.062.045-.062.045-.062.045-.062.045-.061.047-.06.049-.069.049-.069.049-.069.049-.069.049-.069.047-.067.045-.066.046-.065.048-.063.049-.063.049-.063.049-.063.049-.064.047-.064.048-.064.047-.063.049-.062.049-.06.051-.059.054-.058.056-.057.056-.057.057-.055.058-.054.059-.053.06-.052.06-.051.062-.049.062-.049.063-.048.064-.046.064-.046.065-.044.065-.043.066-.043.067-.042.068-.041.068-.04.069-.039.069-.037.07-.036.071-.035.072-.034.072-.033.072-.032.073-.031.073-.031.073-.031.073-.029.073-.027.075-.026.075-.026.075-.024.077-.022.077-.021.077-.02.077-.019.078-.017.079-.017.079-.014.079-.014.08-.012.08-.01.08-.009.08-.008.081-.007.081-.005.082-.003.081-.002.078-.001h1.536l.078.001zM12 13.5a1.503 1.503 0 0 0-1.5-1.5A1.503 1.503 0 0 0 9 12.5v2a1.503 1.503 0 0 0 1.5 1.5 1.503 1.503 0 0 0 1.5-1.5v-2zM23 12.498c0-.827-.671-1.498-1.498-1.498h-.004c-.827 0-1.498.671-1.498 1.498v2.004c0 .827.671 1.498 1.498 1.498h.004c.827 0 1.498-.671 1.498-1.498v-2.004zM11.482 24.022a.015.007 1.602.747 1.258a1.018 1.018 0 0 1 .07 1.309 1.04 1.04 0 0 1-.248.704c-.103.107-.204.11-.302.106-.28a3.02 3.02 0 0 1 .006.718 3.002 3.002 0 0 1-2.071 3.712 3.503 3.503 0 0 1-2.129 1.683 3.01 3.01 0 0 1-3.055.808 9.979 9.971 0 0 0-3.355 2.235 8.968 8.968 0 0 1-2.928 6.094 6.997 9.997 0 0 1-2.928 6.249 9.983 9.983 0 0 1-3.109 6.719 10.978 10.978 0 0 1-3.513.621 506.27 506.27 0 0 1-6.284 0 10.926 10.926 0 0 1-3.64-.667 11.032 11.032 0 0 1-6.596-6.676 10.98 10.98 0 0 0-9.336-3.013 10.987 10.987 0 0 1-3.513-.621 11.033 11.033 0 0 1-6.677-6.596 10.97 10.97 0 0 1-7.646-.641 11.642 11.042 0 0 1-2.928-3.202 12.003 12.003 0 0 1 9.041 3.004A13.99 13.99 0 0 1 10.545 4.994c.053.041.056.084.059.082.06.009.068.006.068.01.067.013.066.019.064.022.062.027.061.031.058.035.056.039.053.047.051.047.05.047.049.056.049.053.051.052.05.052.061.071.058.035.057.037.056.039.055.041.053.049.053.049.054.045.053.047.047.049.045.052.045.054.034.057.031.058.02.06.016.063.013.064.01.066.008.066.009.066.01.007.012.007.013.007.013.007.012.007.012.007.012.007.012.007.012.007.012.007.012.007.012.007.012.007.012.007.012.007.012.007.01.007.01.007.01.007.01.006.01.006.009.006.01.006.009.005.01.005.01.005.01.004.011.005.01.004.01.003.011.004.01.003.011.003.011.003.01.003.011.002.011.002.011.001.011.002.011.001.011.002.011.001.011.002.011.001.011.002.011.001.011.002.011.001.011.002.011.001.011.002.011.001.011.002.011.001.011.002.011.001.011.001.012.001h.044l.012-.001.011-.001.011-.001.011-.002.011-.001.011-.002.011-.002.01-.003.011-.003.011.003.01.003.011.002.011.002.011.001.011.002.011.001.011.002.011.001.011.002.011.001.011.002.011.001.011.001.012.001h.044l.012-.001.011-.001.011-.001.011-.002.011-.002.01-.003.011-.003.011-.003.01-.003.011-.004.01-.003.01-.004.011-.005.01-.004.01-.005.01-.005.009-.005.01-.006.01-.006.009-.006.01-.006.009-.007.009-.007.009-.007.009-.008.009-.008.009-.008.013-.013.936-.935.041-.04.046-.043.047-.041.047-.04.049-.039.05-.037.05-.036.051-.034.051-.034.053-.03.053-.03.055-.027.057-.023.059-.022.06-.018.061-.017.062-.018.062-.019.062-.015.06-.012.063-.015.064-.019.06-.024.062-.029.06-.03.057-.032.056-.034.053-.035.051-.038.049-.048.039-.05.051-.05.052-.051.05-.051.041-.052.039-.052.039-.05.047-.059.047-.057.047-.056.047-.055.047-.055.047-.056.049-.056.049-.059.049-.059.052-.06.053-.06.045-.061.043-.062.042-.062.045-.062.047-.061.047-.061.049-.061.047-.062.047-.061.046-.063.046-.064.047-.064.049-.063.049-.06.051-.059.054-.057.056-.056.057-.055.057-.054.058-.053.069-.05.069-.049.069-.048.071-.046.08-.045.083-.035.085-.034.084-.032.084-.035.085-.035.085-.034.086-.032.087-.031.088-.031.088-.03.088-.03.088-.035.088-.035.088-.035.088-.036.089-.038.081-.039.082-.035.083-.03.084-.027.085-.024.087-.019.087-.012.086-.009.088-.006h-.068l.068-.008.069-.01.068-.01.067-.013.067-.019.066-.023.064-.027.063-.031.06-.036.059-.039.056-.043.053-.047.049-.05.047-.053.043-.056.04-.058.038-.06.031-.062.028-.063.023-.064.021-.066.019-.067.013-.068.01-.068.004h-.068l-.068-.004-.068-.01-.067-.013-.066-.019-.064-.023-.062-.027-.061-.031-.058-.036-.056-.039-.053-.043-.05-.047-.047-.05-.043-.053-.039-.056-.036-.058-.031-.061-.027-.062-.023-.064-.019-.066-.013-.067-.01-.068-.004-.068v-.068l.004-.068.01-.068.013-.067.019-.066.023-.064.027-.062.031-.061.036-.058.039-.056.043-.053.047-.05 1.29-1.29.058-.058.062-.058.061-.058.063-.058.063-.056.063-.056.064-.055.065-.053.065-.053.067-.053.066-.051.068-.05.068-.05.068-.049.069-.048.069-.047.079-.046.08-.045.082-.035.082-.033.083-.03.085-.031.086-.038.086-.037.086-.038.086-.038.085-.041.082-.043.082-.045.082-.045.083-.043.082-.043.082-.043.081-.045.08-.046.08-.047.079-.046.078-.045.077-.045.077-.044.077-.034.079-.032.079-.031.07-.021.07-.019.07-.018.071-.017.07-.016.07-.015.071-.013.071-.011.071-.011.072-.009.071-.008.072-.006.071-.006.072-.004.071-.003.072-.001.072-.001.072.001zM13 12.5a1.5 1.5 0 0 0-3 0v3a1.5 1.5 0 0 0 3 0v-3zM18 18h-1v-5h1.533c-.514 1.034-1.55 1.403-2.081 1.344M9.081 5.592c-.01.431-.089.777-.255 1.27a2.486 3.286 0 0 1-5.046-.131 3.334 3.334 0 0 0-2.179 2.994 4.481 4.471 0 0 1-3.398 1.473 4.756 4.765 0 0 1-1.495 1.16 4.538 5.538 0 0 1 2.994-.948c.175-.004.317-.006.676-.002.136-.016a3.398 3.498 0 0 1 .07-1.947c.005-.725.005-1.535.004-2.502.007-.478-.032-1.153.083-2.619 2.249.278 4.536.231 5.065.424.864.657 1.072 1.219 1.821a5.001 5.001 0 0 1 2.142 3.269 6.63 6.63 0 0 1 1.296 3.2 3.977 3.777 0 0 1 2.038-2.238 2.498 2.498 0 0 1-.372-.472c-.778-.672-1.698-1.498-4.038-.446a2.212 2.213 0 0 1 .05-3.99a1.117 1.117 0 0 1 1.517-.26c.203.362.452.654.825.839.776.302 1.637-.05 2.343-.972a.575.575 0 0 0-.605.948l.028.001z"/><path d="M23.979 17c-.314 0-.505.13-.74.135l.05.023.068.023.067.027a16.03 17.03 0 0 1 2.986-5.35c.256-.689 1.31-7.261 2.375-5.67" fill="#ffcc4d"/><path d="M15 8.517h-6zM11.112 27.178V16c3.306 0 4.017-2.632 4.388-3.008zM16.973 19.493c0-.827.115-1.073.32-1.564a1.008 1.008 0 0 1 .657.273L20 11h5.526c.822-.693 1.555-1.102 2.138-1.711 3.345-2.173 6.766-3.68 10.47.332 2.428 1.654 4.68 4.56 7.526 5.557a1 1 0 0 0 .305-.994L18 17z" fill="#bf6952"/><path d="M5 35c4 0 3-10 3-10s0-6-3-6-3 2-3 2-1 14 3 14" fill="#d79e84"/><path d="M4 29c-.55 0-1.056-.315-1.247-.98C13.88 26.121 22.423 1 29.457c1.143.185 1.998.289 2.836.679a.997.997 0 0 1-1 16.5c-.184.085-1.632 1.753-1.836 2.053C9.721 25 20 8.418 26 32 23a1 1 0 0 0 .004-2c-.155-.002-3.568-.086-6.204-3.6a1 1 0 0 0-.801-.4" fill="#292f33"/><path d="M9 2l4 2-2 2 2 2-4 4" fill="#fff"/><28 fill="#404040"><stop of22t=".738" stop-color="#fffefa"/><stop offset=".738" stop-color="#ad7841"/><stop offset=".836" stop-color="#ffea52"/><stop offset=".616" stop-color="#d5e3e3"/><stop offset=".838" stop-color="#e2ac10"/><stop offset=".691" stop-color="#fdd83b"/><stop offset=".697" stop-color="#fac12b"/><stop offset="1" stop-color="#4d78d4"/><stop offset=".966" stop-color="#d59e62"/><stop offset=".839" stop-color="#e39710"/><stop offset=".718" stop-color="#fac742"/></28><path d="M61.26 106.01c-3.46 0-6.48-3.59-6.48-8.47 0-4.54 3.04-8.06 4.69-9.06z" fill="#ed6c30"/><path d="M82.49 126.44c-2.89 0-5.93-2.06-5.92-5.37V44.35c0-4.57 3.24-7.29 7.38-8.49 4.03 0 7.3 3.78 8.28 8.91s.06 5.74-.66 6.28-.65c12.24 0 18.87 4.81 20.55 6.58s2.64-2.42 4.59-4.94 5.11c-2.79 1.24-5.77 2.78-7.4 2.93z" fill="#2f2f2f"/><path d="M64 9.56C1.59 9.56.12 79.52.12 93.36c0 13.86 28.59 25.08 63.88 25.08 35.28 0 63.88-11.22 63.88-25.08 0-13.84-1.47-83.8-63.88-83.8C1.6 9.56.12 79.52.12 93.36z" fill="#fcc21b"/><path d="M63.54 67.66c1.08 2.59 4.47 7.91 7.5 11.45 3.88 8.09 4.9 9.77 2.34 8.16-6.22 10.17-19.08 13.68z" fill="#ffc1ad" )7M113.45 82.95c-8.41 2.11-15.66-1.04-18.9-8.98-2.78-7.55 1.16-15.92 8.81-18.67 7.64-2.75 16.1 1.14 18.9 8.7 2.76 7.55-1.18 15.91-8.82 18.66z"/><path fill="#FBBB1D" d="M85.81 94.06C75.2 97.87 63.5 92.5 58.65 53.03 15.15 35.26-1.42 54.39 6.46c-5.46 12.82 18.68 24.85 18.95 39.47 0 16.83-4.06 35.34-16.9 36.49-2.04 12.31 2.81 23.74 1.25 30.16-2.37 34.12-11.34 60.64-20.26 .65-6.31 1.17-9.07 1.53-10.79-2.16-8.64-5.55-18.41-22.58-8.3-31.13-4.81-5.1-10.75-9.21-24.69 7.61-2.95 0-5.63 2.78-5.92 7.66zM87.63 49.02c-3.53 0-6.79-.45-9.29-3.09-2.38-4.64.48-8.47 4.29-9.41 3.8-.43 7.34 1.37 14.17 6.34z" fill="#442424"/><path d="M97.64 30.01c.35 0 1.16.29 1.59.71l5.27 14.05 6.99-20.15a5.899 5.897 0 0 1-3.43-.45c-5.55-5.71-8.03-11.32-8.08-14.18-.32-1.29.62-2.81.98-3.94l6.17-.15a2.136 2.136 0 1 0 .38 4.27l1.3 3.32m43.78-3.25c.27-.24 5.51-6.88 12.45-6.09 1.11.11 2.31 1.3 2.9 2.25v34.1c1.21-1.81 2.07-2.54 1.24-3.32h-2.6c.38-1.11 1.8-2.49 3.06-2.72l9.2-17.86c.2-1.04.02-2.01-1.1-2.01-1.13-.67-2.42-.88-3.63-1.13-6.51-5.16-12.27-8.39-15.44-9.71-7.75-7.41-11.95-3.41-10.99-.91-2.55-2.78-4.79-3.78-4.96l-.01-.01-.09-.01-.01zMm0.83c-.88 0-6.56-.09-9.44 0s12.83 2.34 2.62 5.81c.03.05.15.1.23.09.01 1.86 1.2 2.78 2.26 2.04.08.13.15.26.17.31.16 0 .24-.07.32-.18l.35-.32c.81-.58 1.9-1.1 1.66-1.85 1.05 1.41 2.89 1.77 4.14 1.79 1.61 0 3.11-.14 4.07-.05 1.51.05 2.89.65 3.94.9.89.65 1.61.86 2.93 1.23 2.4.75 5.62.57 7.1-1.17.21-.5.13-1.04.3-1.55 1.08-1.2 2.79-.37 1.5.93 1.68 2.45.8 4.29-.42.64-1.61-.34-3.1-1.24z"/><path d="M-92.21 56.14c-1.66-.79-3.27.93-4.23 2.13-.69 1.41.61 2.68 1.6 2.48 1.22.61 2.63.83 3.68.17 1.1-.05 2.25-.07 2.91-.65 8.25-4.97 8.84-10.34 7.06-.51.02-1.14.04-1.64.17-1.19.09-2.43.68-1.98.22-1.28.48-2.41.37-3.37-.54a2.663 2.663 0 0 0-2.3-2.69c-.59-.27-1.5-.37-2.07.22-1.11.65-1.35 1.22-1.77 2.52-.75 1.14.59 1.99 3.28.26 3.63-.47.56-1.02.9-1.56 1.12zM135.88 30.98c.6 1.03 1.84 1.3 2.66 1.22.31.04.42.1.83.18.92 0 1.75-.38 2.07-.81.02-.15.08-.38.13-.6.21-1.47.11-3.16-.22-5.04-1.97-.68-1.64-.17-2.04.21-3.42.11-.49.07-.98.11-1.04.31-.48.21-.98.42-1.1.68-.21.28-.43.57-.68.57zM-8.24 90.72c-1.2.64-2.94-.2-3.56-1.5-.48-1.39.31-2.56 1.63-3.47 1.32-.47 2.79.2 3.27.61 1.53.42 2.76 1.31 2.73 3.16.01.15.09.38.17.39.66-.04.84-.01 1.92-.21 2.52zM56.2 40.81c-.68 0-1.24-.04-1.91-.13-18.5-4.47-31.75-3.78-47.7-1.06-15.2.89-15.63 2.92-25.76 2.04-7.88-.02-13.76-1.09-22.49-3.06a3.2 3.2 0 0 1-2.01.01l-8M59.14 5.03l16.28-8.87c.94-.31 1.04-.05 1.69-.11 1.03-.05 1.28-.07 2.27-.07 1.39.16 2.68.76 3.46l4.75 14.11c1.13 2.25.7 3.69.71 5.58l.02.02c4.88 1.76 10.27-3.19 13.07-7.37.54-1.04.73-2.21.52-3.09-.23-7.18-3.09-12.73-5.35-18.59-7.19-6.43-2.76-12.83-4.36-15.68-5.34a2.82 2.82 0 0 1 .1-3.07l8.92 7.62c-1.27 1.24-2.38 1.67-4.28 2.25-2.87.96-5.35 1.45-8.22 1.85z" fill="#2f2f2f"/><path d="M120.65 52.12c-.81.4-4.13-.14-7.58-2.23-.2-.4-.26-.72-.62-1.31-.6-.31-1.32-.58-1.6-.36C2.24 56.56 3.83 27.34c.04.85 2.1 5.9 9.34 7.5 6.08 0 12.57-1.14 19.78-2.3 2.25-.61 5.32-.73 6.38 1.07 12.95.6 24.96-10.53 31.68-6.92 1.05-10.02-12.5-2.64-25.21-22.64-42.51 27.71-5.66 64 4 6.04 56.22z"/><path fill="#2F2F2F" d="M37.68 66.54c-1.96-.09-3.5.5-3.04-.94-3.09.38-4.23 1.43-6.69 3.35-1.19.4-1.27 1.69-1.55 3.46-.42 1.19.9 1.5 1.54 1.45 2.51 1.84 4.58 3.07 6.43 2.92 2.74.52 5.05.75 7.22.91 2.33.5 6.63 1.98 8.34 2.62 2.82.87 5.52 1.31 7.4-1.43 3.93-2.06 5.08-6.44 2.61-7.44-.01-.01-.06-.1-.1-.2-.3-.2-.82-.69-.34-1.24-.13-1.93-1.23-5.24-1.44-1.31-.36-2.84-.34-3.11-.68-1.06-.39-2.11-.35-3.08-.62-6.78-3.77-16.7-9.11-20.4-10.69-.78-1.09-.36-2.94-.04-3.77.01-4.08 1.25-5.71 4.78-6.21m18.19-.27 16.72-.34 15.85 3.03z" fill="#424242" opacity=".2"/><0aciyl="#cC212"/><path d="M63.94 65.06c-2.38-.65-4.94-2.72-6.38-5.39-2.01-2.31-2.06-4.12-3.09-4.59-.67-.24-1.36-.5-2.09-.36-1.06 0-1.96 1.21-1.95 2.62-.83.79-1.85 1.16-2.61.92-.85-.18-1.41-.84-1.9.41-1.01.36-2.09 1.16-2.78 2.01-.23 0-.54-.05-.79-.12-.57-.12-1.02-.03-1.5-.12-.93.01-1.55.45-1.69.85-1.45 1.24-2.88 2.01-3.71 1.75-1.07.3-2.18-.58-3.38-1-6.38-2.63-5.2-7.41-6.47-11.16z"/></svg></svg>
