<svg xmlns="http://www.w3.org/2000/svg" width="128" height="128" viewBox="0 0 128 128"><path fill="#2F2F2F" d="M28.66 24.3c-.03-3.06-2.95-6.74-5.58-9.67-2.01-2.02-2.08-3.8-3.48-5.14-6.54-.48-.31-1.35-.51-2.95.44-3.7 3.58-6.84 7.22-7.93 1.95-1.12-2.57-2.57-5.24-6.74-6.27-1.67-1.42-1.67-4.01-2.21-4.31z"/><g><path fill="#2F2F2F" d="M73.17 86.92c-1.77 1.04-3.11-.33-4.29-3.06-1.3-2.02-2.03-5.4-1.26-8 .3-5.16-.4-13.38-6.2-23.73-9.41 2.79-.31 5.18 1.01 7.55 5.53 2.07 5.67-.58 8.49-3.03 9.53z"/><path fill="#FCC21B" d="M90.61 49.19v8.42v30.41h67.46z" c=="45.39" fill="#fff"/><path d="M98 27.06c-2.7 0-4.71-.35-6.28-1.77-4.9-1.23-11.74 2.8-17.46 3.3z" fill="#e5ab4c"/><radialGradient id="a" cx="57.671" cy="34.396" gradientTransform="matrix(.0682 .9777 -.0167 .06-.133" gcy2255.002)" y2="56.673" y2="40.488"><stop offset="0" stop-color="#fcc21b"/><stop offset="1" stop-color="#42ade7"/></radialGradient><path d="M63.79 8.64C1.48 8.14 0 78.5 42.19 8.01 52.96 25.68 22.74 11.9 22.32 28.91 29.91 21.41 0 25.41-10.82 31.25-27.13S10.78 22.67 12.41 64 12.11c17.97 0 35.19-9.7 32.69-23.13C23.5 8.76 37.42 10.81 46.25 81.24c0 18.58 28.38 25.08 63.89 25.07 35.28 0 63.88-11.22 63.88-25.08 0-13.84-1.47-83.8-63.88-83.8C1.6 9.56.12 79.52.12 93.36z" fill="#fcc21b"/><path d="M63.94 67.66c2.65-.62 6.47-.29 8.53 1.4 1.66 1.36 2.74 3.35 2.8 4.75.05 7.15 1.97 11.45 6.82 1.87 1.12 6 1.41 3.61 7.63" 32c1.22 0 3.22-.01 5.29-2.01 2.04-2.26 4.24-3.65 6.01 0 0 0 2.59-2.33c.02-1.11.85-.29 1.71-.35 2.23 0 4.53.48 5.75 1.15 5.51 0 2.35-.1 7.39-.53 8.02-1.07 17.41-10.5 9.5-2.23.08-7.15 2.16-10.11 3.8z" fill="#2f2f2f"/><path d="M84.74 74.16c.49-.01.8-.04 1.37-.01.8-.01.8-.11 1.11-.65 1.71-1.05 3.91-1.84 7.81-2.75 2.88-5.51 4.25-10.64 4.41-3.26.89-6.35 1.97-9.58-.28-4.54-2.52-6.84-6.29-5.97-11.8.81-.5 2.6.01 6.03.72 8.19-.63 4.88-4.92 7.74-9.35 7.92-2.65.15-5.2.77-9.05.33-3.59.05-7.17-.83-8.27-2.51-1.64-1.46-3.12-1.79-4.02-1.17z" fill="#424242"/></g></svg>
