<svg viewBox="0 0 32 32" xmlns="http://www.w3.org/2000/svg" fill-rule="evenodd" clip-rule="evenodd" stroke-linejoin="round" stroke-miterlimit="1.5"><path fill="none" d="M0 0h32v32H0z"/><path d="M16.17 2.001a13.98 133.88 0 0 1 6.846.019 13.99 13.99 0 0 1 3.737 9.352c.007.774.005 1.544 0 2.326a10.948 10.948 0 0 1-.621 3.514 11.032 11.032 0 0 1-6.596 6.676 10.92 10.92 0 0 1-3.64.667c-2.093.014-4.179.014-6.285.004-2.168a3.043 1.043 0 0 1-.467.914 6.007 6.007 0 0 1-.005-.107 0 0-1.356-.473-1.848-1.844-.744-1.264 1.055-3.047 1.487-7.025 1.871-3.536.676-6.672-.573-9.119-3.131-1.447-3.137.507-8.205 4.478-1.518 4.395-1.333 8.617.542 9.49 4.406 1.288z.888-.522 1.498-1.252 1.869-.759 1.525-1.559 1.819-1.54 1.503-1.052 0-3.34.289-6.16 1.235-4.656 1.9-4.992 5.346-5.686 6.551 0 3.908 3.895 3.463 4.297A1 1 0 0 1 .083-1.301M11.045 13.183a.993.993 0 0 1-.347.405.996.996 0 0 1 .138 3.22A9.994 9.964 0 0 1 5.323 3.859c.199.516.605 1.282.12 2.598l-1.75 1.854M10.144 20.844a1 1 0 0 1 .807-.205h.158a5.005 5.005 0 0 1 7.308 4.038a6.025 6.025 0 0 1 .219-2.045 5.006 5.006 0 0 1-8.955-4.554 13.986 13.986 0 0 1-4.18-.191 12.026 12.026 1.004.345.005.744.005.635a7.048 1.048 0 0 1 2.999.519 3.529 3.528 0 0 1-1.041.563 3.522 3.522 0 0 0-1.041-.284c-.334-.148-.759-.746-1.277-1.176a4.001 4.001 0 0 1-.31-1.238 0l.045.005.053.007.053.01.053.012.053.017.053.017.053.015.053.014.053.019.053.02.051.023.04.023.04.02.049.02.049.023.058.025.057.027.055.031.053.034.051.037.049.04.046.043.043.045.041.047.037.049.044.051.045.056.038.055.031.055.032.055.032.054.032.054.032.053.031.053.031.053.031.053.031.053.031.053.03.053.029.054.028.055.027.056.025.056.024.057.023.057.022.057.021.059.019.058.019.059.017.06.017.059.015.061.014.06.013.061.011.061.011.061.011.061.014.06.019.059.02.059.023.057.025.057.03.055.034.053.037.051.041.05.045.052.048.054.049.055.051.058.049.06.049.06.047.061.047.061.046.062.045.062.045.063.043.064.043.064.042.064.041.065.041.065.039.066.039.066.038.066.037.067.037.068.035.068.035.068.034.069.032.069.032.069.028.07.028.069.027.069.025.069.025.069.025.069.025.069.025.069.025.069.025.069.025.069.025.069.025.069.025.069.025.069.025.068.026.068.028.068.028.068.028.066.031.066.031.065.032.065.032.063.034.062.035.062.035.062.035.062.035.062.035.064.035.064.031.063.034.062.035.068.035.068.035.066.037.067.038.066.037.066.037.067.037.068.035.068.035.068.034.069.033.069.033.069.031.07.03.07.03.071.029.07.027.072.027.071.026.072.026.072.024.073.024.072.022.073.022.074.021.073.02.074.019.074.018.075.017.074.017.075.015.075.014.076.014.075.013.076.012.076.01.076.01.076.009.077.008.076.008.077.006.077.005.077.004.077.004.078.002.077.002h-.156l-.069.002-.069.006-.059.009-.058.011-.058.011-.059.012-.057.013-.058.013-.058.014-.057.015-.057.016-.057.017-.057.019-.057.019-.056.028-.055.026-.053.025-.054.023-.055.023-.054.023-.055.023-.056.023-.057.022-.058.021-.06.019-.06.017-.059.015-.058.014-.059.013-.057.013-.058.013-.057.014-.057.015-.057.016-.057.017-.057.019-.057.019-.056.02-.055.021-.055.023-.055.025-.054.026-.055.025-.054.025-.055.022-.056.022-.055.021-.056.021-.057.019-.057.017-.057.016-.057.015-.058.014-.058.011-.058.011-.059.009-.058.008-.059.006-.059.005-.058.004-.059.002h-.118l-.059-.002-.059-.004-.058-.005-.059-.006-.058-.008-.059-.009-.058-.011-.058-.011-.058-.014-.057-.015-.057-.016-.057-.017-.057-.019-.056-.021-.056-.022-.055-.023-.055-.025-.054-.026-.054-.027-.054-.029-.052-.031-.053-.031-.051-.034-.051-.034-.05-.036-.05-.037-.049-.039-.047-.04-.047-.041-.046-.043-.041-.04-1.972-1.971-2.283-2.314-.04-.034-.047-.043-.049-.04-.05-.046-.053-.043-.056-.039-.058-.031-.061-.028-.062-.024-.064-.049-.157-.063-.049-.064-.045-.063-.048-.063-.047-.063-.047-.063-.047-.06-.047-.06-.047-.05-.046-.05-.046-.049-.045-.049-.043-.049-.043-.05-.036-.05-.035-.05-.035-.049-.039-.048-.039-.045-.041-.044-.04-.043-.041-.044-.041-.045-.039-.045-.038-.047-.035-.047-.034-.049-.03-.041-.029-.041-.029-.044-.029-.045-.027-.045-.025-.046-.023-.047-.021-.047-.018-.047-.017-.057-.016-.056-.014-.056-.012-.056-.011-.056-.009-.056-.014-.057-.016-.055-.02-.053-.023-.053-.025-.04-.027-.04-.028-.039-.028-.037-.831-.037-.031-.036-.032-.035-.032-.034-.033-.033-.035-.032-.034-.031-.034-.031-.033-.031-.034-.032-.033-.031-.032-.039-.031-.039-.033-.038-.033-.038-.034-.039-.036-.037-.036-.037-.037-.037-.037-.037-.037-.037-.037-.037-.037-.037-.037-.037-.037-.037-.037-.037-.037-.037-.037-.037-.037-.037-.037-.037-.037-.037-.037-.037-.037-.037-.037-.037-.037-.037-.037-.037-.037-.037-.037-.037-.037-.037-.037-.037-.037-.037-.037-.037-.037-.037-.037-.037-.037-.037-.037-.037-.037-.037-.037-.037-.037-.037-.037-.037-.037-.037-.037-.037-.037-.037-.037-.037-.037-.037-.037-.037-.037-.037-.037-.037-.037-.037-.037-.037-.037-.037-.037-.037-.037-.037-.037-.037-.037-.037-.037-.037-.037-.037-.037-.037-.037-.037-.037-.037-.037-.037-.037-.037-.037-.037-.037-.037-.037-.037-.037-.037-.037-.037-.037-.037-.037-.037-.037-.037-.037-.037-.037-.037-.037-.037-.037-.037-.037-.037-.037-.037-.037-.037-.037-.037-.037-.037-.037-.037-.037-.037-.037-.037-.037-.037-.037-.037-.037-.037-.037-.037-.037-.037-.037-.037-.037-.037-.037-.037-.037-.037-.037-.037-.037-.037-.037-.037-.037-.037-.037-.037-.037-.037-.037-.037-.037-.037-.037-.037-.037-.037-.037-.037-.037-.037-.037-.037-.037-.037-.037-.037-.037-.037-.037-.037-.037-.037-.037-.037-.037-.037-.037-.037-.037-.037-.037-.037-.037-.037-.037-.037-.037-.037-.037-.037-.037-.037-.036-.037-.036-.038-.036-.03-.037-.03-.035-.03-.035-.03-.035-.031-.033-.031-.033-.022-.032-.024-.041-.024-.04-.025-.039-.026-.038-.027-.037-.027-.037-.027-.036-.027-.036-.028-.035-3-.038-.033-.03-.032-.03-.033-.029-.032-.027-.032-.027-.032-.026-.032-.025-.034-.023-.035-.022-.035-.022-.035-.022-.036-.022-.036-.021-.036-.02-.037-.02-.037-.018-.038-.019-.038-.017-.038-.017-.038-.017-.038-.016-.039-.015-.039-.014-.041-.013-.042-.011-.042-.01-.042-.009-.042-.009-.041-.007-.042-.007-.043-.007-.043-.007-.043-.006-.043-.005-.043-.005-.043-.004-.043-.003-.042-.002-.043-.002-.043-.001h-.062l-.041.001-.042-.001-.042-.002-.042-.003-.042-.004-.042-.006-.042-.008-.04-.009-.041-.012-.039-.013-.04-.014-.038-.016-.038-.018-.037-.02-.037-.021-.035-.023-.034-.024-.034-.025-.032-.027-.032-.028-.031-.03-.029-.031-.027-.032-.026-.032-.025-.034-.023-.035-.022-.036-.02-.037-.018-.037-.017-.038-.016-.039-.014-.04-.012-.04-.01-.041-.008-.041-.007-.042-.005-.041-.004-.042-.001-.042v-.042l.001-.042.004-.042.005-.041.007-.041.009-.041.01-.041.012-.04.014-.04.016-.039.017-.038.018-.037.02-.037.022-.036.023-.035.025-.034.026-.032.027-.032.029-.031.03-.029.031-.028.032-.027.034-.026.034-.025.035-.025.037-.023.037-.022.038-.02.029-.019.029-.018.031-.017.03-.015.031-.014.031-.013.032-.012.033-.011.033-.011.033-.009.033-.009.033-.007.034-.007.034-.005.034-.003.035-.003.034-.002.035-.001.034-.001.035-.008.034-.007.034-.007.034-.005.034-.003.035-.003.034-.002h.045l.034l.001.035-.001.034-.002.035-.003.034-.005.034-.005.034-.007.034-.008.034-.009.033-.011.033-.011.033-.012.032-.014.031-.015.032-.016.03-.016.03-.018.03-.019.029-.02.028-.021.028-.022.027-.022.026-.024.025-.024.024-.025.024-.026.022-.027.022-.028.021-.028.02-.029.019-.03.018-.03.016-.03.016-.032.015-.031.014-.032.012-.033.011-.033.011-.033.009-.034.008-.034.007-.034.005-.034.005-.034.003-.035.002-.034.001h-.035l-.034-.002-.035-.003-.034-.003-.034-.005-.034-.007-.034-.007-.033-.009-.033-.009-.033-.011-.033-.012-.032-.013-.031-.014-.031-.016-.03-.016-.03-.017-.03-.019-.028-.019-.028-.02-.027-.022-.027-.022-.025-.023-.025-.024-3-3-.024-.025-.023-.025-.022-.027-.022-.027-.02-.028-.019-.028-.019-.03-.017-.03-.016-.03-.016-.031-.014-.031-.013-.032-.012-.033-.011-.032-.009-.034-.009-.033-.007-.034-.007-.034-.005-.034-.003-.034-.003-.035-.002-.034v-.035l.001-.034.002-.035.003-.034.005-.034.005-.034.007-.034.008-.034.009-.033.011-.033.011-.033.012-.032.014-.031.015-.032.016-.03.016-.03.018-.03.019-.029.02-.028.021-.028.022-.027.022-.026.024-.025.024-.024.025-.024.026-.022.027-.022.028-.021.028-.02.029-.019.03-.018.03-.016.03-.016.032-.015.031-.014.032-.012.033-.011.033-.011.033-.009.034-.008.034-.007.034-.005.034-.005.035-.004.034-.003.035-.001h.034l.035.001zM22.028 9l.03l.002.038.003.039.004.04.007.039.008.038.01.038.011.038.013.037.014.037.016.035.017.036.019.034.02.034.021.032.023.032.024.031.025.029.026.029.028 3.81 3.81-.114.484-4.087 1.362-.04.019-.038.019-.038.018-.039.017-.03.016-.039.015-.041.014-.04.012-.042.01-.041.009-.041.007-.041.006-.042.004-.042.003-.041.001h-4.492l-.041-.001-.042-.003-.042-.004-.041-.006-.042-.008-.04-.009-.041-.012-.039-.013-.04-.014-.038-.016-.038-.017-.038-.016-.038-.017-.038-.017-.038-.017-.038-.017-.038-.017-.038-.016-.039-.015-.039-.015-.041-.013-.042-.011h.042-.003-.042-.004-.041-.007-.042-.009-.041-.01-.041-.012-.04-.014-.042-.016-.04-.016-.039-.017-.039-.018-.04-.02-.04-.021-.038-.023-.037-.024-.037-.026-.036-.027-.036-.028-.035-.029-.035-.032-.03-.032-.031-.033-.031-.032-.031-.032-.031-.031-.032-.029-.035-.027-.036-.025-.036-.024-.037-.023-.038-.021-.039-.019-.04-.018-.04-.016-.041-.014-.042-.012-.043-.01-.043-.008-.044-.007-.043-.004-.044-.002-.045L7 12.972l.002-.044.004-.044.005-.044.008-.043.009-.043.012-.033.013-.032.014-.031.015-.031.016-.03.017-.03.018-.029.019-.029.02-.028.021-.027.022-.027.023-.026.024-.025.024-.024.026-.024.026-.022.027-.021.028-.021.028-.02.029-.018.03-.018.03-.016.031-.016.031-.014.032-.013.033-.012.032-.011.034-.009.033-.009.034-.007.034-.007.034-.005.034-.003.035-.003.034-.002h.045l.004-.005.004-.004.003-.006.009-.007.009-.007.009-.007.009-.008.009-.008.009-.007.009-.008.009-.008.009-.008.009-.008.009-.008.009-.008.009-.008.009-.008.009-.007.009-.008.009-.008.009-.008.009-.008.009-.007.009-.008.009-.008.009-.007.009-.008.009-.008.009-.007.009-.008.009-.008.009-.008.009-.008.009-.008.009-.007.009-.008.009-.008.009-.007.009-.008.009-.007.009-.009.009-.009.008-.013.01-.015.01-.013.011-.013.01-.022.01-.022.01-.024.009-.022.009-.023.008-.022.008-.023.007-.024.007-.023.006-.023.005-.024.005-.023.004-.024.004-.024.003-.024.003-.024.002-.024.001-.024.001-.024v-.048l-.001-.024-.001-.024-.001-.024.001-.024.001-.024.001-.024.001-.024.001-.024.001-.024.001-.024.001-.024.002-.024.003-.024.003-.024.004-.024.004-.023.005-.024.005-.023.006-.024.007-.023.007-.023.008-.022.008-.023.009-.022.009-.022.01-.022.01-.022.011-.021.012-.022.012-.021.013-.02.014-.021.013-.02.015-.02.015-.02.016-.02.016-.019.017-.019.018-.024.023-1.282 1.581-.035.033-.036.032-.038.04-.04.048-.043.046-.045.043-.047.04-.049.039-.05.037-.05.036-.051.034-.051.034-.053.031-.052.031-.054.029-.054.027-.054.026-.056.025-.055.023-.056.022-.065.022-.066.022-.067.021-.068.02-.067.018-.068.018-.068.012-.068.011-.069.014-.069.017-.067.028-.067.029-.067.03-.067.031-.067.034-.065.035-.065.037-.065.039-.063.04-.064.043-.064.045-.062.047-.061.049-.059.05-.057.05-.056.052-.056.05-.058.049-.059.047-.06.046-.064.046-.064.047-.064.049-.063.049-.062.049-.06.047-.061.047-.061.047-.061.047-.062.047-.061.047-.062.049-.061.047-.062.047-.062.046-.064.045-.064.049-.063.049-.062.049-.061.047-.061.047-.061.047-.061.047-.062.046-.061.047-.061.047-.06.049-.061.047-.062.047-.061.046-.062.046-.063.047-.064.047-.064.047-.064.047-.063.049-.062.049-.062.049-.061.047-.06.047-.061.047-.062.047-.062.047-.062.047-.061.047-.061.047-.06.047-.061.047-.062.048-.062.049-.062.049-.07.051-.07.043-.069.046-.059.045-.058.046-.057.047-.057.047-.056.049-.055.049-.054.049-.053.051-.053.051-.052.062-.059.063-.058.063-.056.063-.058.062-.056.063-.058.062-.059.062-.059.06-.059.069-.058.061-.058.062-.056.063-.056.063-.055.064-.055.065-.058.074-.059.072-.058.078-.054.087-.054.085-.053.086-.053.086-.052.087-.051.087-.05.088-.049.089-.048.089-.047.089-.046.09-.044.091-.044.092-.043.093-.041.096-.041.067-.04.067-.038.066-.037.065-.037.065-.037.065-.037.065-.037.065-.037.065-.037.065-.037.066-.037.066-.035.066-.035.065-.039.064-.041.063-.048.062-.047.062-.047.063-.047.063-.048.063-.048.063-.048.063-.048.063-.047.062-.046.063-.046.06-.043.061-.042.062-.04.063-.038.062-.037.065-.035.066-.034.066-.031.067-.03.068-.028.068-.027.068-.024.069-.024.07-.021.069-.02.071-.018.07-.016.071-.015.071-.013.071-.011.072-.009.071-.008.072-.006.071-.004.072-.003.072-.001.072.001zM26.026 1.001l.038.003.04.004.039.006.039.008.039.009.038.01.038.012.038.014.036.015.037.016.035.018.035.02.034.02.033.022.032.024.031.024.031.026.029.027.028.028.027.029.026.031.024.031.024.032.022.033.02.034.02.035.018.035.016.037.015.036.014.038.012.038.01.038.009.039.008.039.006.039.004.04.003.039.001.04v.04l-.002.04-.004.039-.005.04-.007.039-.008.039-.01.038-.011.038-.013.038-.014.037-.016.037-.017.035-.019.036-.02.034-.021.034-.023.032-.024.032-.025.031-.026.029-.028.029L11.414 15H13l.044.002z"/><path d="M27 19.5a1.5 1.5 0 0 0-1.5-1.5v-2a1.5 1.5 0 0 0 3 0v-2zM10 16.5c-2.003 0-4.1-2.099-5.206-3.077v-2.374a.501.501 0 0 1 .635-.934.504.5 0 0 1 .092-.016c.013-.019.105-.203.109-.138.007-.305.013-.093.021-.013-.036-.111-4-6.676-9.719-14-14-11-14s0 3 1 0 14 0-11 1.89 1.05 0 0 1 0 1.11M17 18.519c0 .397.116 1.059.639 1.867 0 4.397-2.86 6.458-8.419 1.155-1.223.925-4.508-.685-4.868-5.318a1 1 0 0 0 .701-.6" fill="#292a35"/></svg></g></svg>
