<svg xmlns="http://www.w3.org/2000/svg" viewBox="0 0 128 128"><path d="M127.22 93.42c0 13.86-28.29 25.1-63.22 25.1-34.92 0-63.23-11.24-63.23-25.1C.77 79.55 2.24 90.11c.01 13.43-9.51 23.33-12.42m0-3C123.71 3.61 53 .24 51.33 11.71 43.1L6.41 42.17c2.33 4.33 2.28 8.41 5.2 11.21 1.81 3.49 4.28 5.53 8.46 7.09 4.76 8.65 4.68 13.78 5.88 13.19 2.55 26 15.32 26.34l3.57-36.3a3.032 3.032 0 0 1-3.05-.04 3.22 3.21 0 0 1 3.16-3.17l3.31 3.12c.11.02.23.03.38.03 1.01 0 1.61-.72 1.06-1.37.29-.32.6-1.24.42-1.8zM92.49 127.06h.04c-1.54 0-2.75-.24-3.79-.76-.51-1.46-.46-3.02.29-3.99.72.4 1.97 1.21 2.74 1.89.82.49 1.54.81 2.15 1.05 1.4.21 2.78.4 4.33.3 1.07 0 1.46-.01 1.63-.08 6.3-.61 9.16-2.54 8.14-2.3.81-.36 1.93-.33 2.74 0 1.36.78 1.94 2.37 1.3 2.45l.32.3c.49.96 1.08 1.25 1.56.29 0 .51-.03 1.67-.08 1.39-.38 2.57-1.49.3-.55.2-1.02.12-1.5.13-.95.19-1.95.4-1.84.81z"/><path d="M59.01 69.19c-.75-3.75 1.41-5.91 4.98-6.6 4.78 0 7.66 3.79 7.66 8.08s-.08 6.68-4.08 6.09C74.27-2.19 64.71.31 92.65-3.34 33.05.77 9.42 18.33.8 57.59c.94 12.98-3.28 29.49-12.89 18.57z"/><path fill="#FBB71E" d="M15.5 39.58C35.11 36.73 39.5 25.72 75.08 35.88c-8.17 3.26-17.47-2.36-22.42-10.86s-.02-9.14 2.91-16.25 9.12-1.21 1.37-.75 3.62-.61 4.79-.2m0-4c-2.74 0-5.54 1.47-7.08 5.09v44.2c0 1.66-.62 2.39-2.1 1.96-3.3zm-6.26-7.28c-.34-.44-.71-.85-.39-1.09l2.07-16.05-5.03 30.05l-.03-.04-.03.03-.03.02-.03 9.72.28c.18.04.41.09.08.01.07.01.07.01.07.01.07.01.07.01.06.01.09.01.15.08.21.08.52.09.05.11.03.23.03h26.9a4.01 4.01 0 0 1-2.62 4.09c-.16.25-.28.48-.49.88-.07.69.63 1.22.7 1.14.05.27.09.36.14-.54.11-.07.27-.12.37-.16.47-.18.8-.28 1.15-.21 1.13 0 1.31.79 1.85 1.98 1.67 1.84 2.44 3.23 2.83 2.9.14 5.57-.63 10.4-2.8 13.33-2.15 2.62-5.15 3.89-8.48 3.09z"/></svg>
