<svg viewBox="0 0 32 32" xmlns="http://www.w3.org/2000/svg" fill-rule="evenodd" clip-rule="evenodd" stroke-linejoin="round" stroke-miterlimit="1.414"><path fill="none" d="M0 0h32v32H0z"/><path d="M19.142 3.001a10.926 10.926 0 0 1 3.64.667 11.049 11.049 0 0 1 4.07 3.033 11.042 11.042 0 0 1-2.938 2.751 11.049 11.049 0 0 1 3.645 3.218 12.029 12.029 0 0 1-4.546-9.257 12.666 12.666 0 0 1-.073-1.184 180.81 180.81 0 0 1 0-2.329 13.965 13.965 0 0 1 .791-4.472A14.05 14.05 0 0 1 6.1 6.1a14.06 14.06 0 0 1 5.086-3.25 14.022 14.022 0 0 1 4.634-.849h.354z" fill-rule="nonzero"/><path d="M28 16c0-3.183-1.264-6.235-3.515-8.485A11.996 11.996 0 0 0 16 4C9.373 4 4 9.373 4 16v4a8 8 0 0 0 8 8h8a8 8 0 0 0 8-8v-4z" fill="#fbc546"/><path d="M12 12.499a1.5 1.5 0 1 0-3 0v2.018a1.5 1.5 0 0 0 3 0v-2.018zM19 20.017a3 3 0 1 0-6 0 3 3 0 0 0 6 0" fill="#292f33"/><path d="M9 12.096a1 1 0 0 0-1-1H12a1 1 0 0 0 1 0v-16a1 1 0 0 0-1 1v1a1 1 0 1 0 2 0v-1a1 1 0 0 0-1-1" fill="#292f33"/></svg></svg>
