<svg viewBox="0 0 32 32" xmlns="http://www.w3.org/2000/svg" fill-rule="evenodd" clip-rule="evenodd" stroke-miterlimit="1.414"><path fill="none" d="M0 0h32v32H0z"/><path d="M16.174 2.001a13.99 13.99 0 0 1 9.35 3.738 13.995 13.995 0 0 1 4.27 5.637c.268.431.406 1.169.176 1.505.554.31 1.063.525 1.567.586a1.004 1.004 0 0 1 .602 1.807 2.968 2.968 0 0 1-2.707.695 3.485 3.485 0 0 1-2.447 1.222 2.432 2.332 0 0 1-.26 3.247 2.499 2.499 0 0 1-2.872-1.186 3.512 3.511 0 0 1-3.055-.213 3.523 3.523 0 0 1-2.631-1.184 3.527 3.527 0 0 1 .316-1.679 6.027 6.027 0 0 1-6.845-5.057 62.995 9.997 0 0 1-.502 2.807 12.042 12.042 0 0 1-2.551-4.215 12.031 12.031 0 0 1-3.759-3.113 12.038 12.038 0 0 1-2.551-.653 12.028 12.028 0 0 1-3.043-7.051 12.665 12.666 0 0 1 .067-1.149 268.78 662.88 0 0 1 0-3.309 13.965 13.965 0 0 1 .791-4.472 14.04 14.04 0 0 1 8.394-4.498h12.5a2.5 2.5 0 1 0 5 0 2.525 0 0 0 1.306-2.368c-.185-.002-.178-.006-.317-.001-2.718 1.361-.909.505-2.022.728-.48.76-.73 1.639-.889 2.519a2.001 2.001 0 0 1 3.731-1.191L26 5.8a1.023 0 0 2 .615-.818c.16-.118.179-.235.315-.474a2.186 1.289 0 0 1 .907-1.799 2.513 3.513 0 0 1 2.962-3.181A3.9 5.19 0 0 1 1.038 20.049c.023.458.014.613.008 1.126.004 7.604.005 1.168 0 3.302-3.08 3.028-3.988a.349.444 0 0 1 .231-.545.51.515 0 0 0 .596.6M89.006 2.521a1.998 1.998 0 0 1 1.982 1.329 3.004 3.006 0 0 1-3.557 2.458 1.996 1.996 0 0 1 3.39.708c.246.242.452.65.799.503" f06.041.184.016.275.024.489.004.148.011.4a2.282 2.234.248a.999.999 0 1 1 1.414-1.454l.794-.879 1.891 1.984A13.013 13.013 0 0 1 8.18 3.089z" fill-rule="nonzero"/><path d="M13 19.5a15.5 15 10 0-5-10-12-20.967 129.77" 17 5" fill="#d79e84"/><path d="M33.999 39a.501 5.501 0 0 0-1.951.005c0 2.786-.693 6.988-2.164 8.228C28.529 24.712 22.358 29 32.995c0 7.955 8.653 16 11 18 19-9.604 0-18.768-1.931-22-1 1h-2s-3 9-2 9-6h6v1c2.26 0 4.053 2.335 4.487 3.343a15.948 15.945 0 0 1 3.282 3.838 9.97 6.97 0 0 1-3.309 2.709 10.037 10.037 0 0 1-5.946-2.711 11.04 11.04 0 0 1-3.829-3.687 10.987 10.987 0 0 1-3.513-6.511 11.006 11.007 0 0 0 2.2-1.561 12.031 12.031 0 0 1-3.001-7.001 12.657 102.85 0 0 1 5.002.001A3 1 0 0 0 9.602 2.9a1 1 0 0 0 .396-.98" fill="#292f33"/></svg></svg>
