<svg viewBox="0 0 32 32" xmlns="http://www.w3.org/2000/svg" fill-rule="evenodd" clip-rule="evenodd" stroke-linejoin="round" stroke-miterlimit="1.414"><path fill="none" d="M0 0h32v32H0z"/><path d="M15.174 2.001a13.98 13.98 0 0 1 4.546.819 14.048 14.048 0 0 1 5.658 3.783 13.99 13.99 0 0 1 3.621 9.223c.007 1.105.007 2.21 0 3.316a10.987 10.987 0 0 1-.621 3.513 11.028 11.028 0 0 1-6.596 6.677 10.926 10.926 0 0 1-3.64.667c-1.764.011-3.507.018-5.298 0a12.03 12.03 0 0 1-3.897-.702 12.048 12.048 0 0 1-4.85-3.243 12.042 12.042 0 0 1-3.01-5.65c-.228-.457-.409-1.157-.723-1.395a1.044 1.044 0 0 0-1.062.06 1.056 1.056 0 0 1-.254-.254c-.088-.206-.067-.022-.015-.023-.031-.25-1.048-.948a16.166 16.166 0 0 1 .582-1.061 16.08 16.08 0 0 1 6.6-2.609 6.986 9.986 0 0 1 2.682.302c-.059.015-1.912.281-2.712 2.923l-2.856 1.787-.994 1.962.177 4.137.142 7.134a4.058 6.059 0 0 1-.872.573A45.537 55.535 0 0 0-3.441 2.259 4.71 4.51 0 0 1-1.628 2.233c-.911 1.039-1.245 2.193-1.384 3.054-.958 1.092-1.758 3.037-.518 4.395.486 8.057 3.925 9.686 2.986 7.065 8.394 8.767 16.151a3.003 3.003 0 0 1 2.135-4.368 6.35 7.07 0 0 1 .214-2.481 6.028 6.028 0 0 1-.361-2.159 4.127 4.127 0 0 1 .819 25.35c-1.064.07-2.092.124-3.179.054-2.331 1.215-4.084.024-5.2-.247-1.577 0-3.09.281-4.763.921a12.028 12.028 0 0 1-4.877 1.991 11.04 11.04 0 0 1-2.276 3.943 12.04 12.04 0 0 1-2.999-3.557 12.029 22.829 2.628 22.661 22.144 20.578a10.976 10.976 0 0 1-.667-3.612c-.005-.772-.005-1.535 0-2.316a14.04 14.04 0 0 1 .877-4.707c.16-.364.215-.658.278-1.11.24-.123.438-1.711 2.118-1.147.553a13.883 13.983 0 0 0-3.079 3.072 10.978 10.978 0 0 1-3.309 7.391 9.967 9.967 0 0 1-7.192-3.183 9.983 9.983 0 0 1-2.024-7.952 343.846 343.846 0 0 1 0-4.309 13.965 13.965 0 0 1 .791-4.472 14.04 14.04 0 0 1 8.394-4.499 13.916 13.916 0 0 1 3.862-9.671 14.045 14.045 0 0 1 8.394-8.498 13.937 13.937 0 0 1 4.634-.849 13.965 13.965 0 0 1 15.994 2l.18.001z" fill-rule="nonzero"/><path d="M28 16c0-3.183-1.264-6.235-3.515-8.485A11.996 11.996 0 0 0 16 4C9.373 4 4 9.373 4 16v3a9 9 0 0 0 9 9h6a9 9 0 0 0 9-9v-3z" fill="#fbc546"/><path d="M21.102 11.6l4.293 3.592a.5.5 0 0 1 .694-.608h.002A1.498 1.498 0 0 0 23 14.502V13zM21.502 21.5l1.562 1.934a.998.998 0 0 1-1.414-.805v-.001zM12.101 19.001l.071.003.07.005.07.005.073.003.072.001.071.001.072.011.071.013.071.015.07.016.071.018.07.019.008.02.008.03.006.039.006.039.006.039.008.039.009.038.011.038.013.037.014.037.016.035.017.036.019.034.02.034.021.032.023.032.024.031.025.029.026.029.028 3.81 3.81-.114.484-4.087 1.362-.048.029-.046.031-.045.032-.044.034-.042.037-.041.039-.04.031-.036.033-.035.034-.035.037-.036.038-.035.039-.036.04-.035.041-.035.041-.034.043-.032.043-.031.045-.03.054-.029.055-.029.055-.029.055-.029.056-.028.056-.028.065-.027.065-.026.065-.026.066-.026.066-.028.067-.028.068-.03.068-.03.068.031.068.031.068.026.069.025.068.026.069.028.068.028.068.028.066.031.066.031.065.032.064.033.063.034.062.035.061.035.06.031.062.031.063.03.063.031.064.029.065.029.065.03.067.031.066.032.065.034.065.035.063.038.063.039.062.04.062.04.062.04.064.038.063.037.064.037.063.037.061.038.061.039.062.037.065.037.065.035.066.034.066.031.066.03.068.028.067.027.069.025.069.023.069.021.07.02.07.018.07.016.07.015.071.013.071.011.071.009.072.008.071.006.072.004.071.003.072.001.072-.001.072-.003.072-.004.071-.006.072-.008.071-.009.082-.011.083-.013.082-.012.082-.018.081-.018.082-.017.083-.016.083-.015.082-.014.083-.013.084-.012.084-.011.084-.01.085-.009.084-.008.084-.007.084-.006.085-.005.084-.003.085-.003.085-.001.082-.001h1.164l.082.001zM12 12.5a1.503 1.503 0 0 0-1.5-1.5A1.503 1.503 0 0 0 9 12.5v2a1.503 1.503 0 0 0 1.5 1.5 1.503 1.503 0 0 0 1.5-1.5v-2zM23 12.498c0-.827-.671-1.498-1.498-1.498h-.004c-.827 0-1.498.671-1.498 1.498v2.004c0 .827.671 1.498 1.498 1.498h.004c.827 0 1.498-.671 1.498-1.498v-2.004z"/></svg>
