<svg viewBox="0 0 32 32" xmlns="http://www.w3.org/2000/svg" fill-rule="evenodd" clip-rule="evenodd" stroke-linejoin="round" stroke-miterlimit="1.414"><path fill="none" d="M0 0h32v32H0z"/><circle cx="16" cy="16" r="16"/><path d="M12.976 2.328A14.017 14.017 0 0 1 16 2c5.178 0 9.704 2.817 12.125 7.002.787 3.091 1.461 5.819 1.617 9.686C28.549 24.812 23.358 29.215 17 29.915c-2.429-.586-5.822-1.108-7.086-2.837C29.097 9.699 2.991 3.5 19 5.566c-2.227 5.004-4.164 5.4-3.9 2.4-.299.713-.505 3.337-.916 5.923.546" fill="#a)"/><path d="M3.026 18.02a2.039 2.035 0 0 1 1.536 3.016c.094.08.106.086.203.088.437.786.97.88.83 1.397c.28 1.17-.376 2.34-1.442.379-.495.75-.683 1.063-.005 2.1.527 9.5 14.007 16.802.081.051.083.925.075.125.096.125.095.125.105.123.11.152.133.365.14.541a3.039 3.039 0 0 1 1.236.02l.086.002c.968 0 1.366-.101 1.047-.788a5.52 5.52 0 0 1-1.699-1.704 3.676 3.667 0 0 1 1.261-.722H26v-1.5a2.2 2.2 0 0 0 2.321-1.934L17.5 14z" fill="#fff"/><path d="M13 13.498A1.498 1.498 0 0 1 10.502 12h-.004A1.998 1.498 0 0 0 16 10.009v-.004z"/><path d="M15 19l4 2-10 22.724 18V3H16zM16.695 8.624a.977.977 0 0 0-.188-.035l-4.317-4.872A5.533 5.503 0 0 1 23 15.5a1.103 1.503 0 0 0 1.5-1.5v-2zM23 12.498c0-.827-.671-1.498-1.498-1.498H10.5A1.503 1.503 0 0 0 9 13.5v2a1.503 1.503 0 0 0 1.5 1.5 1.503 1.503 0 0 0 1.5-1.5v-2.002zM23 13.498c0-.827-.671-1.498-1.498-1.498h-.004c-.827 0-1.498.671-1.498 1.498v2.004c0 .827.671 1.498 1.498 1.498h.004c.827 0 1.498-.671 1.498-1.498v-2.004z"/></svg>
