<svg xmlns="http://www.w3.org/2000/svg" viewBox="0 0 47.5 47.5"><defs><clipPath id="a"><path d="M0 38h38V0H0v38z"/></clipPath></defs><g clip-path="url(#a)" transform="matrix(1.25 0 0 -1.25 0 47.5)"><path d="M36 19c0-9.389-7.611-17-17-17S2 9.611 2 19s7.611 17 17 17 17-7.611 17-17" fill="#ffcc4d"/><path d="M28 17c-9.526 0-17-3.393-16.432 17.863-1.101 1.4-.299 2.226-1.966c1.139-.785 2.582-1.31 3.95-1.118 0-.531.117-1.103.175-.138 1.008-6.449 2.687-1.976 4.358-.926 11-4.02 12.654-9.164z"/><path d="M19.048 10.034c-.06.031-1.564 0-2.758-1.302-4.266-1.281a1.04 1.04 0 0 1-.754-.264c-.277.032-1.549 3.29-3.61.641l-1.597-1.303-1.778 1.789L17.898 9.22c-.312.047-.517.064-.728.111a4.98 4.99 0 0 1-.477 2.547 7.696 6.696 0 0 1-2.828 1.259c-1.712.403-3.159-.009-5.856-.242-1.446 0-2.527.356-2.656.644a3.543 3.534 0 0 0-2.517-1.083 3.488 3.488 0 0 1-2.287-.484 3.463 3.463 0 0 1-3.285-.27 5.48 5.68 0 0 1-.947-.084 6.476 6.676 0 0 1-.288-1.933L26.782 19l-.001-.001a22.015 12.015 0 0 1 19.308 22h3.002h1.688z" fill="#e06c00"/><path d="M17.04 16.001l.015.001.016.003.013.003.014.002.015.012.013.013.013.011.022.011.022.01.022.009.023.009.022.008.023.008.024.007.023.007.023.006.023.005.024.005.024.004.024.004.024.003.024.003.024.002.024.001.024.001.024.001.024.001.024.001.024.001.024.002.024.003.024.003.024.004.024.004.024.005.024.005.023.006.023.007.024.007.022.008.024.008.022.009.023.009.022.01.022.01.022.012.022.011.021.012.022.013.021.013.02.014.021.015.02.015.021.016.019.016.02.017.019.018.019.023.024 1.581 1.581.033.035.032.036.03.038.028.04.026.041.024.042.022.043.02.044.017.045.016.046.013.046.011.047.009.048.006.047.004.049.003.048-.001.048-.001.048.004.049.006.047.008.048.011.049.013.047.015.046.016.046.019.044.021.043.023.042.025.04.027.039.028.039.03.038.032.036.033.035 1.591 1.581.033.015.036.016.036.017.046.017.045.019.045.019.044.02.044.021.044.022.043.023.042.025.041.025.041.027.04.027.039.029.037.031.036.032.035.034.034.035.032.036.031.038.028.039.026.04.025.042.022.043.021.044.018.044.016.046.014.046.011.047.01.048.007.047.004.049.003.048v.048l-.003.048-.004.049-.007.047-.01.048-.012.047-.015.046-.016.046-.019.044-.021.044-.023.043-.025.041-.027.04-.029.039-.031.037-.032.036-.034.034-.036.032-.037.031-.039.029-.04.027-.042.025-.042.023-.044.021-.044.019-.046.016-.046.015-.046.012-.048.01-.047.007-.049.005-.048.003-.048.001-.048-.002-.049-.004-.047-.006-.048-.009-.047-.011-.047-.013-.045-.016-.045-.017-.044-.02-.043-.022-.042-.024-.041-.026-.04-.028-.038-.03-.036-.032-.035-.033-1.59-1.59-.051-.051-.056-.05-.057-.049-.058-.047-.06-.046-.06-.043-.061-.043-.062-.04-.063-.039-.064-.037-.065-.035-.065-.037-.065-.039-.063-.04-.063-.052-.061-.054-.06-.05-.06-.049-.06-.049-.061-.047-.062-.046-.063-.045-.064-.043-.064-.043-.064-.043-.064-.043-.064-.043-.064-.042-.064-.041-.065-.041-.065-.039-.065-.039-.065-.039-.065-.041-.065-.041-.065-.041-.065-.039-.066-.039-.066-.038-.066-.037-.067-.037-.068-.037-.069-.035-.081-.034-.082-.033-.083-.031-.083-.03-.083-.034-.082-.034-.031-.035-.029-.036-.028-.036-.027-.036-.027-.036-.025-.037-.026-.038-.024-.038-.024-.038-.023-.038-.023.039-.022.04-.02.04-.019.04-.017.041-.015.042-.014.042-.013.043-.01.044-.008.044-.006.044-.005.044-.002.044-.002.045.001.044.001.045.002.046.003.046.003.046.005.045.007.045.007.045.008.044.008.044.009.044.011.044.011.043.012.043.014.043.013.042.01.043.01.042.009.043.008.044.006.045.004.046.002.045.001.045-.002.045-.003.045-.005.044-.008.043-.009.044-.011.042-.013.042-.015.041-.017.041-.018.04-.02.04-.022.038-.023.038-.024.037-.027.037-.027.035-.029.036-.029.035-.03.034-.031.033-.031.033-.031.032-.032.031-.033.029-.035.028-.035.026-.037.025-.038.023-.039.021-.04.02-.04.019-.043.016-.042.015-.042.014-.042.012-.043.011-.043.011-.043.009-.044.008-.044.008-.044.006-.045.005-.044.003-.045.001-.045-.001-.045-.002-.046-.004-.045-.006-.045-.006-.045-.005-.046-.005-.046-.003-.046-.001-.046-.002h-.044l.043-.001.044-.004.045-.006.045-.008.043-.009.044-.011.042-.013.042-.015.041-.017.04-.018.039-.02.039-.021.038-.023.038-.024.037-.027.036-.027.034-.029.033-.031.032-5 5-.032.031-.033.029-.035.028-.035.026-.037.025-.038.023-.039.021-.04.02-.041.019-.041.018-.04.019-.041.019-.04.02-.04.02-.039.021-.039.022-.039.024-.038.023-.038.024-.038.024-.038.024-.037.024-.038.023-.038.023-.038.023-.038.023-.038.024-.037.026-.036.026-.035.037-.033.039-.032.039-.031.04-.028.04-.026.041-.025.041-.025.041-.026.04-.028.039-.029.037-.031.036-.032.034-.034.033-.035.031-.037.029-.038.028-.039.027-.041.025-.041.025-.041.024-.042.022-.043.022-.044.02-.045.017-.045.016-.047.013-.047.011-.047.009-.047.006-.049.004-.048.002-.048-.001-.048-.003-.049-.005-.047-.007-.048-.01-.046-.012-.046-.015-.046-.016-.044-.018-.044-.021-.044-.022-.043-.024-.042-.026-.04-.028-.038-.03-.038-.03-.035-.027-.035-.027-.036-.027-.036-.027-.036-.027-.036-.027-.036-.027-.036-.025-.036-.024-.037-.023-.038-.021-.039-.019-.04-.018-.04-.016-.041-.014-.042-.012-.043-.01-.043-.008-.044-.007-.043-.004-.045-.003-.045-.002-.045.001z"/></g>9/></svg>
