<svg xmlns="http://www.w3.org/2000/svg" viewBox="0 0 128 128"><path d="M64 12.81C1.88 12.81.41 88.52 0 92.32l-8.48 10.76-19.49-14.01 2.01-16.14 0-13.58 1.42-21.49 7.35-6.1-1.48-6.63-8.11-5.47-15.56-2.34-3.59 5.31-3.41 1.22-2.24 1.4-3.39 3.73-4.67 3.67-.33.19-.63.28-.94.44-.26 0-.64.09-.94.12-.64.46-1.06.77-1.61.76-.65 1.81-1.01 2.62-.41.64.98.71 2.54.47.57-.16 1.07-.57 1.6-.6.31-.56.35-1.2.32-1.37.17-.53.3-1.06.4-1.61.62-.6 1.39-1.01 1.96-1.55 1.05-1.41.74-4.1.19-3.52.41-1.34.21-2.54.47-3.11.52-2.25 1.11-4.25.94-1.54-.67-3.13-1.33-4.64-1.69-1.39.18-2.93.86-3.58 1.11-6.53 6.4-10.23 5.74-10.26zM140.22 59.69c-.43 0-.68-.11-.69-.17z"/></svg>
