<svg viewBox="0 0 32 32" xmlns="http://www.w3.org/2000/svg" fill-rule="evenodd" clip-rule="evenodd" stroke-linejoin="round" stroke-miterlimit="1.414"><path fill="none" d="M0 0h32v32H0z"/><path d="M16.174 2.001a13.98 13.98 0 0 1 4.546.819 14.045 14.045 0 0 1 5.422 3.529 13.99 13.99 0 0 1 3.857 9.477c.009 1.434.009 2.869 0 4.303a9.967 9.967 0 0 1-3.099 7.109 9.983 9.983 0 0 1-6.771 2.761c-2.753.018-5.505.018-8.258 0a9.967 9.967 0 0 1-7.11-3.099 9.983 9.983 0 0 1-.502 3.309 10.037 10.037 0 0 1-5.955 5.955 9.922 9.922 0 0 1-3.309.606c-2.753.018-5.505.018-8.258 0a9.967 9.967 0 0 1-7.192-3.187 9.983 9.983 0 0 1-2.678-6.683 259.76 259.76 0 0 1 0-3.303 14.04 14.04 0 0 1 8.496-8.498 13.937 13.937 0 0 1 4.634-.849 23.85 13.95 0 0 1 4.623-3.744 14.051 14.05 0 0 1 5.3-4.039 14.024 14.024 0 0 1 2.957-9.202A16.05 15.05 0 0 1 13.225-3.591 12.028 12.028 0 0 1-3.043-7.751c-.043-.06-.071-.069-.102-.069-.102L106.786c9.546-.047.754-.044.185.003.184a13.988 13.988 0 0 1 3.682-.038c.166.043.337.178.058 2.123 4.314 7.14A4.017 4.017 0 0 0 2.236 1.484c-.343.347-.999.609-.91.988l.757-1.503z"/><path d="M18 17h-.001a8.984 8.984 0 0 1-2.76 6.78c-1.752 8.323-7.488 6.858-10.273 8.247-2.365 1.435-4.459 2.487-5.521a4.045 4.045 0 0 1 .46-4.218l.045-1.062c.05-.086.063-.039.064-.04.06-.036.136-.037.121-.04.112-.045.112-.045.113-.044.113-.041.119-.039.117-.039.133-.046.13-.043.131-.04.139-.037.139-.035.14-.037.142-.039.142-.039.143-.036.134-.036.143-.039.143-.05.141-.054.136-.056.139-.053.042-.05.047-.049.048-.048.049-.046.05-.046.061-.045.062-.045.062-.043.062-.045.063-.045.062-.045.061-.045.061-.049.06-.049.06-.047.06-.047.061-.046.063-.043.062-.043.062-.042.063-.04.06-.039.06-.039.06-.039.061-.038.062-.037.063-.035.064-.034.064-.033.065-.033.065-.031.065-.032.065-.031.065-.034.065-.035.063-.037.063-.038.063-.038.063-.04.062-.042.06-.044.06-.046.06-.047.058-.049.058-.051.056-.052.061-.059 1.167-1.167.031-.045.029-.053.028-.054.028-.054.028-.054.029-.055.03-.055.031-.053.031-.053.031-.052.033-.053.034-.051.035-.05.035-.049.034-.048.034-.048.035-.048.036-.047.036-.047.037-.047.038-.046.038-.045.038-.045.04-.045.04-.044.04-.044.041-.045.041-.045.04-.046.039-.048.039-.048.037-.049.035-.05.035-.05.035-.051.033-.052.032-.053.031-.053.031-.055.029-.055.028-.055.028-.056.026-.057.025-.058.024-.058.023-.059.022-.06.023-.059.021-.058.022-.059.024-.05.022-.051.019-.052.018-.054.015-.055.011-.055.009-.055.091-.057.093-.065.093-.065.095-.065.094-.073.095-.084.093-.086.08-.089.081-.089.083-.089.084-.09.084-.092.082-.093.08-.096.081-.097.08-.096.081-.096.081-.096.084-.097.081-.09.08-.091.091-.092.091-.091.093-.09.094-.088.096-.097.096-.095.096-.094.096-.092.097-.092.096-.083.098-.081.098-.084.096-.075.097-.073.096-.07.093-.058.092-.056.091-.055.093-.054.096-.043.096-.041.097-.041.097-.041.098-.043.097-.044.097-.044.097-.044.098-.045.088-.045.089-.047.089-.048.089-.047.089-.045.09-.045.04-.045.032-.045.032-.043.031-.044.029-.045.027-.045.026-.047.025-.048.025-.047.025-.047.025-.046.028-.046.031-.044.032-.043.034-.041.036-.04.038-.029.039-.026.04-.025.041-.025.043-.022.043-.02.045-.017.045-.017.047-.014.047-.013.048-.012.048-.012.048-.01.038-.012.038-.014.037-.015.037-.016.036-.018.035-.02.035-.02.034-.022.033-.024.032-.024.031-.026.031-.027.029-.028.028-.029.027-.031.026-.031.024-.032.024-.033.022-.034.02-.035.02-.035.018-.037.016-.036.015-.038.014-.038.012-.038.01-.039.009-.039.008-.039.006-.04.004-.039.003-.04.001h-.04l-.04-.002-.039-.004-.04-.005-.039-.007-.039-.008-.038-.01-.038-.011-.038-.013-.037-.014-.037-.016-.035-.017-.036-.019-.034-.02-.034-.021-.032-.023-.032-.024-.031-.025-.029-.026-.029-.028L21 14.414l-1.293 1.293-.029.028-.029.026-.031.025-.032.024-.032.023-.034.021-.034.02-.036.019-.035.017-.037.016-.037.014-.038.013-.038.011-.038.01-.039.008-.039.007-.04.005-.039.004-.04.002h-.04l-.04-.001-.039-.003-.04-.004-.039-.006-.039-.008-.039-.009-.038-.01-.038-.012-.038-.014-.036-.015-.037-.016-.035-.018-.035-.02-.034-.02-.033-.022-.032-.024-.031-.024-.031-.026-.029-.027-.028-.028-.027-.029-.026-.031-.024-.031-.024-.032-.022-.033-.02-.034-.02-.035-.018-.035-.016-.037-.015-.036-.014-.038-.012-.038-.01-.038-.009-.039-.008-.039-.006-.039-.004-.04-.003-.039-.001-.04v-.04l.002-.04.004-.039.005-.04.007-.039.008-.039.01-.038.011-.038.013-.038.014-.037.016-.037.017-.035.019-.036.02-.034.021-.034.023-.032.024-.032.025-.031.026-.029.028-.029L21 11.586l2.707 2.707zM13.707 14.293l.028.029.026.029.025.031.024.032.023.032.021.034.02.034.019.036.017.035.016.037.014.037.013.038.011.038.01.038.008.039.007.039.005.04.004.039.002.04v.04l-.001.04-.003.039-.004.04-.006.039-.008.039-.009.039-.01.038-.012.038-.014.038-.015.036-.016.037-.018.035-.02.035-.02.034-.022.033-.024.032-.024.031-.026.031-.027.029-.028.028-.029.027-.031.026-.031.024-.032.024-.033.022-.034.02-.035.02-.035.018-.037.016-.036.015-.038.014-.038.012-.038.01-.039.009-.039.008-.039.006-.04.004-.039.003-.04.001h-.04l-.04-.002-.039-.004-.04-.005-.039-.007-.039-.008-.038-.01-.038-.011-.038-.013-.037-.014-.037-.016-.035-.017-.036-.019-.034-.02-.034-.021-.032-.023-.032-.024-.031-.025-.029-.026-.029-.028L21 14.414l-1.293 1.293-.029.028-.029.026-.031.025-.032.024-.032.023-.034.021-.034.02-.036.019-.035.017-.037.016-.037.014-.038.013-.038.011-.038.01-.039.008-.039.007-.04.005-.039.004-.04.002h-.04l-.04-.001-.039-.003-.04-.004-.039-.006-.039-.008-.039-.009-.038-.01-.038-.012-.038-.014-.036-.015-.037-.016-.035-.018-.035-.02-.034-.02-.033-.022-.032-.024-.031-.024-.031-.026-.029-.027-.028-.028-.027-.029-.026-.031-.024-.031-.024-.032-.022-.033-.02-.034-.02-.035-.018-.035-.016-.037-.015-.036-.014-.038-.012-.038-.01-.038-.009-.039-.008-.039-.006-.039-.004-.04-.003-.039-.001-.04v-.04l.002-.04.004-.039.005-.04.007-.039.008-.039.01-.038.011-.038.013-.038.014-.037.016-.037.017-.035.019-.036.02-.034.021-.034.023-.032.024-.032.025-.031.026-.029.028-.029L21 11.586l2.707 2.707zM13.707 14.293l.028.029.026.029.025.031.024.032.023.032.021.034.02.034.019.036.017.035.016.037.014.037.013.038.011.038.01.038.008.039.007.039.005.04.004.039.002.04v.04l-.001.04-.003.039-.004.04-.006.039-.008.039-.009.039-.01.038-.012.038-.014.038-.015.036-.016.037-.018.035-.02.035-.02.034-.022.033-.024.032-.024.031-.026.031-.027.029-.028.028-.029.027-.031.026-.031.024-.032.024-.033.022-.034.02-.035.02-.035.018-.037.016-.036.015-.038.014-.038.012-.038.01-.039.009-.039.008-.039.006-.04.004-.039.003-.04.001h-.04l-.04-.002-.039-.004-.04-.005-.039-.007-.039-.008-.038-.01-.038-.011-.038-.013-.037-.014-.037-.016-.035-.017-.036-.019-.034-.02-.034-.021-.032-.023-.032-.024-.031-.025-.029-.026-.029-.028L21 14.414l-1.293 1.293-.029.028-.029.026-.031.025-.032.024-.032.023-.034.021-.034.02-.036.019-.035.017-.037.016-.037.014-.038.013-.038.011-.038.01-.039.008-.039.007-.04.005-.039.004-.04.002h-.04l-.04-.001-.039-.003-.04-.004-.039-.006-.039-.008-.039-.009-.038-.01-.038-.012-.038-.014-.036-.015-.037-.016-.035-.018-.035-.02-.034-.02-.033-.022-.032-.024-.031-.024-.031-.026-.029-.027-.028-.028-.027-.029-.026-.031-.024-.031-.024-.032-.022-.033-.02-.034-.02-.035-.018-.035-.016-.037-.015-.036-.014-.038-.012-.038-.01-.038-.009-.039-.008-.039-.006-.039-.004-.04-.003-.039-.001-.04v-.04l.002-.04.004-.039.005-.04.007-.039.008-.039.01-.038.011-.038.013-.038.014-.037.016-.037.017-.035.019-.036.02-.034.021-.034.023-.032.024-.032.025-.031.026-.029.028-.029L21 11.586l2.707 2.707zM13.501 24.002h.035zM16.025 15.002l.036.001z" fill="#89a3e4"/><path d="M21 21h5v4h-6v.4zM15 12h3.5a1.5 1.5 0 0 0-1.5-1.5h-2.502A1.999 1.999 0 0 0 18 13.998V14l3 .023v1.593c0 .367.146.719.405.979.26.259.612.405.979.405h.002A1.611 1.611 0 0 0 13 15.386V13.5z"/></svg>
