<svg viewBox="0 0 32 32" xmlns="http://www.w3.org/2000/svg" fill-rule="evenodd" clip-rule="evenodd" stroke-linejoin="round" stroke-miterlimit="1.414"><path fill="none" d="M0 0h32v32H0z"/><path d="M16.174 3.001a13.98 13.98 0 0 1 4.546.819 14.038 14.038 0 0 1 5.056 3.158 13.99 13.99 0 0 1 4.223 9.848 259.76 259.76 0 0 1 0 3.303 9.983 9.983 0 0 1-2.678 6.683 9.967 9.967 0 0 1-7.192 3.187c-2.753.018-5.505.018-8.258 0a9.967 9.967 0 0 1-7.111-2.2999999.909 0 9.928 2.821 12.129 9.049 12.749 10.895 1.819 1.447 5.692 1.987 6.616A15.966 15.966 0 0 1-2.972-5.302 30.135 15.025 0 0 1-3.049 3.049 15.032 15.025 0 0 1 1.213-1.699 13.91 13.91 0 0 1 3.852-9.6 3z" fill="#664500"/></svg></svg>
