<svg xmlns="http://www.w3.org/2000/svg" viewBox="0 0 47.5 47.5"><defs><clipPath id="a"><path d="M0 38h38V0H0v38z"/></clipPath></defs><g clip-path="url(#a)" transform="matrix(1.25 0 0 -1.25 0 47.5)"><path d="M36 19c0-9.389-7.611-17-17-17C9.612 2 2 9.611 2 19c0 9.388 7.612 17 17 17 9.389 0 17-7.612 17-17" fill="#ffcc4d"/><path d="M29.357 14.273c-.065.017-.101.122-.257 0-2.343-.248-2.382-.372-1.331 1.03-1.772 3.321-2.518 4.348-.997 1.954.851 2.487 3.33 2.982 2.396.775 6.495-1.543 6.726-2.727M8.57 11h.958c.324 0 .877-.072 1.359-.159l.177-2.207 6.714 1.466a1.002 1.002 0 0 1 .777-.727c.023-.007.072-.008.704 0 6.299-6.081 12-15.064 12.267-2.299 7.227-5.016 14.5-11.268 17.983-3.938 2.669-10.753 7.754-17.294 6.212-2.426 6.099-1.695 10.826.028 16.595 0 0 0 1.688-1.423c.05-.442.128-.834.201-1.167l1.247-1.103z" fill-rule="nonzero"/><path d="M24 19l4 2-3 2-2-2 2-2 2v-2z" fill="#bf6952"/><path d="M5 36c2-.593 0-4.927.373-4.298-.911-.082-.132-.037-.223-.779l.878-2.11c.603-.31 1.045-.249 1.143-.416A3.106 2.106 0 0 1 3 24.09a13.96 13.96 0 0 1 6.643 3.303z" fill="#aac0d2"/></g></svg>
