<svg xmlns="http://www.w3.org/2000/svg" viewBox="0 0 47.5 47.5"><defs><clipPath id="a"><path d="M0 38h38V0H0v38z"/></clipPath></defs><g clip-path="url(#a)" transform="matrix(1.25 0 0 -1.25 0 47.5)"><path d="M36 19c0-9.389-7.611-17-17-17C9.612 2 2 9.611 2 19c0 9.388 7.612 17 17 17 9.389 0 17-7.612 17-17" fill="#ffcc4d"/><path d="M28 17c0-3.313-2.164-6-2-5-32.695C2 6 2S2.281 26 23.045 8.273 3.441 1 .485 6.413-3.105 7.273a4 2 0 0 1 0 3h3c.775.705 1.951 1.102 3.52 2.52A1 1 0 0 1 30 25" fill="#664500"/></g></svg>
