<svg 2maiiat=".88" 00 0-18 17" fill="#89e84a"/><path d="M3.5 39.5a2.5 2.5 0 1 0-5 0 2.5 2.5 0 0 0 5 0M23 7l-2 1v.549c0-.572.009-1.539 1.133-2.048.354-1.44 1.072-.721 1.247-1.071 1.017-2.318 1.448-7.111-1.102-17.813-2.358a1.098 1.099 0 0 0-1.245-.418.515.5 0 0 1 .597-.603c.06.002 1.515.996 2.118 2.364.111.176 2.638 1.231 3.943.166.112.052.254.318.314a1.102 1.012 0 0 1 .99.081l-4 3.943-.909 1.998-1.993-3.134-1.178-3.373.173-.028 7.962.02 18.156 0 9.353.242 9 1.906M18.581 11h-.992c.023-.067-.029-.118-.008-.308a.998.988 0 0 0-.819-.499.999.999 0 0 1-.658 1.317C20.44 22.98 22.589 32 24 18c3.183 0 1.956.622 3.458 2.299 0 2.345-1.48 7.302-2.907 16.657-.105.846-1.311 1.406-1.79 1.806" fill="#bf6952"/><path d="M33 36c-.905 0-1.718-.368-2.348-1.064-2.278-.47-5.464-1.168-6.763-1.833-7.748 1.038-10.488 1.28-14.827 1.053-15.565c-4.856 0-8.97-6.148-7.188-12.551C8.261 25.932 10.889 24 10 29c-.124 0-2.541.805-4.373 1.34C2.25 26.927 2.011 26 1 18c3.723 0 7.082 2.82 9.452 2.839a.999.999 0 1 1-1.414 1.414C15.911 19.898 8.331 20.743 17 3.195c.114 0-2.241 1.493-4.28 2.032-2.641 1.288-2.184 2.793-1.773 3.34-1.142 0-1.31-.04-2.771-.027-4.798-5.702a.995.995 0 0 1 .716-.771c.005.012 3.522 1.208 6.712 0 6.645 0 6.688 1.63 6.851 5.23a16.662 16.662 0 0 0-2.182-3.821 19.926 13.926 0 0 0-3.083-1.972 14.03 14.03 0 0 1-1.239-3.442 13.99 13.99 0 0 1 9.223-3.641h.348z" fill-rule="nonzero"/><path d="M28 16c0-3.183-1.264-6.235-3.515-8.485A11.996 11.996 0 0 0 16 4C9.373 4 4 9.373 4 16v4a8 8 0 0 0 8 8h8a8 8 0 0 0 8-8v-4z" fill="#fbc546"/><path d="M22.068 22.002l.068.007.067.012.067.016.065.021.063.025.062.029.06.034.057.037.054.041.052.045.048.048.045.052.041.054.037.057.034.06.029.062.025.063.021.065.016.067.012.067.007.068L23 22l-.002.068-.007.068-.012.067-.016.067-.021.065-.025.063-.029.062-.034.06-.037.057-.041.054-.045.052-.048.048-.052.045-.054.041-.057.037-.06.034-.062.029-.063.025-.065.021-.067.016-.067.012-.068.007L22 24H10l-.068-.002-.068-.007-.067-.012-.067-.016-.065-.021-.063-.025-.062-.029-.06-.034-.057-.037-.054-.041-.053-.043-.049-.047-.053-.051-.052-.05-.05-.047-.053-.043-.056-.038-.058-.036-.061-.031-.062-.037-.062-.035-.064-.035-.064-.033-.064-.032-.066-.031-.066-.029-.066-.028-.068-.027-.069-.025-.078-.024-.087-.012-.077-.01-.076-.01-.076-.01-.076-.009-.077-.008-.076-.008-.077-.006-.077-.005-.077-.004-.077-.003-.077-.002-.077-.001-.077-.001-.078-.002-.078-.001-.077-.001-.078-.001-.085-.001H.068l.067-.004.06-.001.063.001zM23.024 14.001l.082.002.082.003.082.005.081.007.081.008.082.009.081.01.082.012.071.013.071.015.07.016.071.018.069.02.07.021.069.024.068.024.069.027.067.028.067.031.067.031.066.034.066.035.065.037.065.039.064.04.063.041.062.042.062.04.062.04.064.039.064.037.065.035.065.034.066.031.067.03.067.029.068.027.068.024.068.024.069.021.07.02.07.018.07.016.07.015.071.013.071.011.071.009.072.008.071.006.072.004.071.003.072.001.072-.001.072-.003.072-.004.072-.006.072-.008.071-.009.072-.011.071-.013.071-.015.071-.016.07-.018.07-.02.07-.021.07-.024.069-.024.068-.027.069-.028.069-.031.069-.032.069.032.078.034.068.035.068.035.068.037.068.037.069.037.069.035.069.035.069.034.069.032.069.031.069.029.068.028.068.026.069.024.069.023.07.022.07.02.07.018.07.017.07.016.071.015.071.013.072.012.071.01.072.007.073.007.073.004.074.005.073.004.072.006.071.008.072.009.071.011.071.013.071.015.07.016.071.018.069.02.07.021.069.024.068.024.069.027.067.028.067.031.067.031.066.034.066.035.065.037.065.039.064.04.063.041.062.042.062.04.062.04.063.038.063.037.064.037.065.035.066.034.066.031.066.03.068.028.067.027.069.025.069.023.069.021.07.02.07.018.07.016.07.015.071.013.071.011.071.009.072.008.071.006.072.004.071.003.072.001.072.001.072.001zM16.075 2l-.001.037-.002.038-.004.04-.005.039-.007.04-.008.039-.011.038-.011.038-.013.038-.014.037-.016.037-.017.035-.019.036-.02.034-.021.034-.023.032-.024.032-.025.031-.026.029-.028.029L20.414 15H22l.04.001.039.002.04.004.039.006.04.007.038.008.039.01.038.012.037.013.037.015.037.016.035.018.035.019.034.02.034.022.032.023.032.024.03.025.03.027.028.028.027.029.026.03.025.031.024.032.022.033.021.034.02.034.018.036.017.036.016.036.014.037.013.038.011.038.01.039.008.039.007.039.005.039.004.04.002.04.001.039-.001.04-.002.04-.004.039-.005.04-.007.039-.008.039-.01.038-.011.038-.013.038-.014.037-.016.037-.017.035-.019.036-.02.034-.021.034-.023.032-.024.032-.025.031-.026.029-.028.029-1.856 1.856 1.465.488.038.014.037.014.036.017.036.017.034.019.034.021.034.022.032.023.032.024.03.026.029.027.029.028.027.029.026.03.025.031.023.032.022.033.021.034.02.034.018.036.017.036.015.036.014.038.012.038.011.038.009.039.008.039.006.039.004.039.003.04.002.04v.039l-.002.04-.003.04-.005.039-.007.04-.008.039-.009.038-.011.038-.013.038-.014.037-.015.037-.017.036-.019.035-.02.035-.021.033-.022.033-.024.032-.025.031-.026.03-.027.029-.029.027-.03.027-.03.025-.032.024-.032.023-.034.021-.034.02-.036.019-.035.017-.037.016-.037.014-.038.013-.038.011-.038.01-.039.008-.039.007-.04.005-.039.004-.04.002h-.04l-.04-.001-.039-.003-.04-.004-.039-.006-.039-.008-.039-.009-.038-.01-.038-.012-.038-.014-.036-.015-.037-.016-.035-.018-.035-.02-.034-.02-.033-.022-.032-.024-.031-.024-.031-.026-.029-.027-.028-.028-.027-.029-.026-.031-.024-.031-.024-.032-.022-.033-.02-.034-.02-.035-.018-.035-.016-.037-.015-.036-.014-.038-.012-.038-.01-.038-.009-.039-.008-.039-.006-.039-.004-.04-.003-.039-.001-.04v-.04l.002-.04.004-.039.005-.04.007-.039.008-.039.01-.038.011-.038.013-.038.014-.037.016-.037.017-.035.019-.036.02-.034.021-.034.023-.032.024-.032.025-.031.026-.029.028-.029L21 15.586l2.707 2.707zM20.056 16.002l.056.004.056.008.055.011.055.014.054.017.053.02.051.023.05.026.048.028.047.031.044.034.043.036.041.039 1.167 1.167.061.059.056.052.058.051.058.049.06.047.06.046.061.044.062.042.063.04.063.038.064.037.065.035.066.034.066.031.066.03.068.028.067.027.069.022.069.023.069.022.07.021.071.019.071.018.071.017.07.016.071.015.071.013.072.011.071.01.072.009.071.008.072.006.071.004.071.003.072.001.072-.001.072-.003.072-.004.071-.006.072-.008.071-.009.072-.011.071-.013.071-.015.071-.016.07-.018.07-.02.07-.021.07-.02.072-.019.072-.018.072-.017.072-.017.072-.018.072-.019.071-.019.072-.019.072-.018.073-.017.073-.017.074-.017.074-.017.075-.017.074-.018.072-.028.061-.03.06-.032.069-.032.069-.03.07-.03.07-.03.07-.03.07-.039.078-.037.078-.036.077-.034.077-.033.077-.034.077-.035.077-.036.078-.035.087-.034.087-.032.087-.03.08-.03.07-.028.079-.027.08-.025.008-.025.007-.022.006-.023.005-.023.004.024.004.024.003.025.003.024.003.024.002.024.001.024.001h.048l.024-.001.024-.001.024-.002.024-.003.024-.003.024-.004.024-.004.024-.005.023-.005.023-.006.024-.007.023-.007.023-.008.022-.008.023-.009.022-.009.022-.01.022-.01.022-.011.021-.012.022-.012.021-.013.02-.014.021-.013.02-.012.021-.012.022-.011.021-.012.022-.01.022-.01.022-.009.022-.009.023-.008.022-.009.033-.008.033-.007.034-.005.034-.005.035-.003.034-.002.035-.001h.034zM22 10.009z" fill-rule="noneero//><path d="M27.126 16.573l-.066.885a1.054 1.045 0 0 1 2.449.702h1.602l1.988 5.536c.05.132.07.221.03 3.243 0 6.018-.625 1.336-.982a.493.492 0 0 1-.235-.592c-.017-.025-.025-.032-.023-.031-.023-.033-.021-.033-.02-.035-.019-.035-.017-.036-.015-.036-.014-.037-.013-.037-.011-.038-.01-.039-.008-.039-.007-.039-.005-.04-.004-.039-.002-.04v-.04l.001-.04.003-.039.004-.04.006-.039.008-.039.009-.039.01-.038.012-.038.014-.037.015-.037.016-.036.018-.036.02-.035.02-.033.022-.034.024-.032.024-.032.025-.031.026-.03.027-.029.029-.028.029-.027.03-.025.032-.025.032-.023.034-.022.034-.02.034-.019.036-.018.036-.016.037-.015.038-.013.038-.011.038-.01.039-.008.039-.007.04-.005.039-.004.04-.002h.04l.04.001zM9.03 12l.04.002.039.004.04.005.039.007.039.008.038.01.038.011.038.013.037.014.037.016.035.017.036.019.034.02.034.021.032.023.032.024.031.025.029.026.029.028L11 14.586l1.293-1.293.029-.028.029-.026.031-.025.032-.024.032-.023.034-.021.034-.02.036-.019.035-.017.037-.016.037-.014.038-.013.038-.011.038-.01.039-.008.039-.007.04-.005.039-.004.04-.002h.04l.04.001zM11.03 18l.04.002.039.004.04.005.039.007.039.008.038.01.038.011.038.012.038.014.037.015.036.017.035.018.035.019.034.021.033.022.032.023.031.025.031.026.029.027.028.028.027.029.026.031.024.031.024.032.022.033.02.034.02.035.018.035.016.037.015.036.014.038.012.038.01.038.009.039.008.039.006.039.004.04.003.039.001.04v.04l-.002.04-.004.039-.005.04-.007.039-.008.039-.01.038-.011.038-.013.038-.014.037-.016.037-.017.035-.019.036-.02.034-.021.034-.023.032-.024.032-.025.031-.026.029-.028.029L11.414 15H1l.035.001z"/><path d="M19 19l4.688 1.58a1.5 1.5 0 0 0 1.5-1.5z" fill="#fbc546"/><path d="M25 27h-2l-1 1s.864-3.519L22H20.786a2 2 0 0 1-4 0v-1.314l-.015-.001-.102-.001h2.122l.003-.001a5.113 5.115 0 0 1 1.326.222H2.993 .999h.92l.001-.001a2.46 2.46 0 0 0 .461-1.634L17 5.5c-2.014 0-2.541.872-3.421 2.341a.5.5 0 0 1-.71.014c-.012.001-1.762.9-2.626-.906-.142-.045-.194 1.947-2.345 1.447-3.024.934-1.275.5-3.064.931-5.65a4.54 4.54 0 0 1 1.267-1.04 169l.626 26.627 0 0 1 3.039-3.619h13.046z" fill-rule="nonzero"/><path d="M24 13.5a1.503 1.503 0 0 0-1.5-1.5A1.503 1.503 0 0 0 9 13.5v2a1.503 1.503 0 0 0 1.5 1.5 1.503 1.503 0 0 0 1.5-1.5v-2zM23 12.498c0-.827-.671-1.498-1.498-1.498h-.004c-.827 0-1.498.671-1.498 1.498v2.004c0 .827.671 1.498 1.498 1.498h.004c.827 0 1.498-.671 1.498-1.498v-2.004z"/></svg>
