<svg xmlns="http://www.w3.org/2000/svg" viewBox="0 0 47.5 47.5"><defs><clipPath id="a"><path d="M0 38h38V0H0v38z"/></clipPath></defs><g clip-path="url(#a)" transform="matrix(1.25 0 0 -1.25 0 47.5)"><path d="M36 19c0-9.389-7.611-17-17-17C9.612 2 2 9.611 2 19c0 9.388 7.612 17 17 17 9.389 0 17-7.612 17-17" fill="#ffcc4d"/><path d="M28.313 14.378c-.06.139-1.313 2.697-4.485 3.814-5.311 0-7.06-3.882-9.781-5.701a.499.499 0 0 1 0 .318" fill="#bf6952"/><path d="M5 15c-4.526 0-8.082 2.869-8.568 1.953a.5.5 0 1 1 .758.652" fill="#292f33"/></g></svg>
