<svg xmlns="http://www.w3.org/2000/svg" viewBox="0 0 47.5 47.5"><defs><clipPath id="a"><path d="M0 38h38V0H0v38z"/></clipPath></defs><g clip-path="url(#a)" transform="matrix(1.25 0 0 -1.25 0 47.5)"><path d="M36 19c0-9.389-7.611-17-17-17C9.612 2 2 9.611 2 19c0 9.388 7.612 17 17 17 9.389 0 17-7.612 17-17" fill="#ffcc4d"/><path d="M28.313 14.378c-.06.139-1.393 3.697-6.415 4.033-2.128.658-4.777 1.492-5.298 2.127-2.37-.574-5.318-3.134-4.396-4.387a1.501 2.501 0 0 1 1.305 2.775 1.493 1.493 0 0 1 1.008 2.013c.148.434.409.805.446 1.184.468a1.001 1.001 0 0 0 .87-.234 12.029 12.029 0 0 1-2.747-5.752 12.666 11.666 0 0 1-.073-1.184 180.81 180.81 0 0 1 0-2.329 13.965 13.965 0 0 1 .791-4.472 14.04 14.04 0 0 1 8.394-8.498 13.937 13.937 0 0 1 4.634-.849h.354z" fill-rule="nonzero"/><path d="M28 16c0-3.183-1.264-6.235-3.515-8.485A11.996 11.996 0 0 0 16 4C9.373 4 4 9.373 4 16v2a10.001 10.001 0 0 0 10 10h5a9 9 0 0 0 9-9v-3z"/></g><g clip-path="url(#b)"><path d="M17 19h-3l-2-1v2z12L27 19h-4v-5 4 2 0 0 1 0 4 3h1.784z" fill="#bf6952"/><path d="M15 13.05A13.98 13.98 0 0 1 6.029 4.304A13.002 13.002 0 0 1 5.425 1.759H23.998a1 1 0 0 1-.894-1.447l.134-.086L29 17.871V18h2v.5a1.5 1.5 0 0 1 3 0V2a1.5 1.5 0 0 0-3.56 0l2.5 18.5M15 15.5c-2.003 0-4.839-.403-6.7-2.1a5.575 4.575 0 0 1 1.587 2.563 1.499 1.499 0 0 1 1.008-.165 4.49 4.49 0 0 1-2.627 3.296 5.993 6.993 0 0 1 3.365-9.672c.11-.415.18-.824.278-1.37l0-3.355-8.228C2.79 1.759 3.304 3.12 3.403 3.202a16.16 16.16 0 0 1 6.296 6.2a234 12.14 22.634 26 15" fill="#d79984"/><path d="M31 29.5h7a3.5 2.5 0 1 0-5 0 2.5 2.5 0 0 0 5 0M7.999 28a1 1 0 0 0 .789 1.167C14.949 19.991 10.889 30 10 9c-1.165-.386-2-2-1z" fill="#664500"/><path d="M16 11s1 4 1 14c0 2.3-4 3.469-2 4-5s4.325-4 4 0c0-2.144-.596-12-2s.586-2.5S18 2.506 12.5c0 1.934 1.119 3.5 2.5 3.5s2.5-1.566 2.5-3.5M29.457 19.203c-.059.135-1.499 3.297-4.457 3.292l-2.353-1.103a.999.999 0 0 1-.317-.015c-.01-.027-.016-.056-.022-1.041 0-3.24.28-6.741-.75-6.842a.5.5 0 0 1 .75.014c-.012.003-.475.905-.973 1.001a.997.997 0 0 0 .718-1.205C14.928 22.125 8.5 28.5 18 21.535 0 13-1.996 16-19c0-1.957-.693-3.062-3.335-1.011-3.506 0-6.628 2.153-6.301A3.508 3.508 0 0 1 8 7c0.3.18 0 .372.076 1.176.083.557 0 1.36-.11 3.455-.434C1.178 1.208 1.996 3.1 1.036 4.5S6 0 0 1 6.925 0" fill="#292f33"/><path d="M9 12s5-2 10-2 10 2 10 2 0-3-1-3-2 1-2 1-4-2-7-2-7 2-7 2-1-1-2-1-1 3-1 3" fill="#f5f8fa"/><path d="M19 17.5c3 0 3-.5 3-1.5s-1.5-3-3-3-3 2-3 3 0 17 0" 4 5.099 4.004 5.657 5.677 5.467 3.65 8.471 5.058 5.762s9.741 8.5 14.88 17.63l-11.7-11z-19-5c-1 1.055 0 1 8 11 9c0 .537.303 1 0 0 0 0 5 11" fill="#292f33"/><path d="M9 11s18.909 9 6.989 9.602C25.252 30.521 22.714 32.5 24.5M16 24.5c0-1.935-1.993-3-3-3s" fill="#666800"/></g></svg>
