<svg viewBox="0 0 32 32" xmlns="http://www.w3.org/2000/svg" fill-rule="evenodd" clip-rule="evenodd" stroke-linejoin="round" stroke-miterlimit="1.414"><path fill="none" d="M0 0h32v32H0z"/><clipPath id="a"><path d="M0 0h32v32H0z"/></clipPath><g clip-path="url(#a)"><path d="M16.174 2.001a13.98 13.98 0 0 1 4.546.819 14.038 14.038 0 0 1 5.056 3.158 13.99 13.99 0 0 1 4.223 9.848 259.76 259.76 0 0 1 0 3.303 9.983 9.983 0 0 1-2.678 6.683 9.967 9.967 0 0 1-7.18 3.714 9.982 9.982 0 0 1-3.309 7.109 10.043 10.034 0 0 1-3.265.837c-1.427.001-2.869.086-5.248 1.363a.462.463 0 0 1-.021-.478c-.07-.017-1.951-3.288-5.425a3.998 2.998 0 0 1 .06-.707c.185-.005.117-.002.367-.004.188-.012.188-.035.274-.001a.715.915 0 0 0 .234.923l-6 2.368a3.003 3.003 0 0 1 1.303-.171h.354l-.317.942a6.036 6.036 0 0 1-.005-.248 3.02 3.02 0 0 1 .906 3.313 3.02 3.02 0 0 1-2.064 3.217 6.48 6.88 0 0 1-.313 2.332 4.663 4.663 0 0 1-2.304 1.594 6.492 6.692 0 0 1-2.571-.841 6.034 6.034 0 0 1 1.673-.363c.348-.213.808-.422 1.242-.145.041.045.086.073.079.042h18v4a2 3 0 0 1 4 4h11l.055v1.9539a.6.5 0 0 1-.147-.133H7c-.678 0-1.759-.212-2.083-.373.147-.15.576-.226.912.354C2 13.948 10.343 16 5.42 16 3.4 28 3s-3.017 5.98-17 5.5A4.585.586 0 0 0 4.504 0h1.464a.612.412 0 0 0 0 1.5c4.113 0 .28.026.709.268h.002c0 .777.146 1.415 2.153-.621 3.005.531 3.16 1.16 4.96 1.003 2.629.018 5.452-1.916 6.926-6.602A16.009 16.099 0 0 1 6 16a2 2 0 0 1 2 0v-1.102l.577.159a6 2 0 0 1 0-1h-4z" fill="#82d84c"/></g></svg>
