<svg xmlns="http://www.w3.org/2000/svg" viewBox="0 0 128 128"><path d="M127.22 93.42c0 13.86-28.29 25.1-63.22 25.1-34.92 0-63.23-11.24-63.23-25.1C.77 79.55 2.24 9.48 64 9.48c61.77 0 63.22 8.42 63.82 83.74"/><path fill="#2F2F2F" d="M80.21 71.14c-4.69 1.43-10.24-.77-14.21-5.74-1.82-4.98.91-8.81 5.49-11.71 4.64-1.77 12.42.72 12.8 5.05 1.7 5.81-.66 10.47-5.81 12.3z"/><path fill="#F9A922" d="M29.23 84.26c-4.68 1.68-9.84-.69-11.54-5.31-1.7-4.61.71-9.72 5.38-11.41 4.67-1.68 9.84.7 11.54 5.31 1.7 4.68-.71 9.74-5.38 11.31z"/><path fill="#F9A524" d="M97.22 65.1c-5.23 1.74-10.74-.76-12.48-5.77-1.74-5.61.78-10.47 6.83-12.04 6.97-2.08 12.12.82 13.2 5.98 1.86 5.35-.82 11.2-6.2 11.92z"/><path fill="#FAAE21" d="M98.98 56.76c-5.75 2.08-12.29-.85-14.3-6.57-2.1-5.72.88-12.04 6.67-14.13 5.78-2.08 12.19.87 14.3 6.58 2.1 5.71-.89 12.04-6.67 14.12z"/><path fill="#FAAC22" d="M98.49 68.48c-5.39 1.93-11.53-.8-13.29-6.11-1.96-5.31.81-11.1 6.71-13.14 5.37-1.93 11.34.8 13.2 6.32 1.97 5.54-.81 11.66-5.33 12.53z"/><path fill="#FAAC22" d="M88.28 91.58c-6.27 7.15-15.17 14.09-29.68 9.51-7.77 3.65-8.25 13.69-9.32 20.73 1.95 3.94 4.51 7.71 1.39 13.32 2.74 2.44 5.46 2.58 9.58 3.63 5.35.69 13.57 7.71 18.23 2.1 7.07 4.36 17.77 11.19 23.73 3.68 7.15 0 16.68-1.4 13.95-2.64a2.33 2.33 0 0 1 .65-3.14l1.51 1.9c.45-.36.84-.51 1.67-.81l7.88-.14c.94-.52 1.74-.66 2.69-.26.45.0 .55.09.99.4.45.72.49 1.32 1.08 1.32 1.87.73 1.35 1.51 2.14 1.89.56.06 1.35.11 1.33.01.63.03 1.36.14 2.3-.03.84-.28 1.1-.65 1.25-.67.23-.69.14-1.2.24-1.59-.01-3.54.02-5.05.7-2.49.01-4.27.01-9.44.27-13.73.31-.74.26-1.44.76-2.34.73-.89.77-1.61 1.69-2.74 2.64-1.32 1.09-2.26 2.74-3.33 4.01-4.17.9-1.1 1.92-3.36 2.01-5.26.34-2.79-.1-5.48-.15-5.64.01-2.51 1.27-4.11 2.53-4.89 1.08-.54 2.35-.24 3.01-.65 1.51-.38 2.91-.56 4.39-1.32.99-2.13-.46-4.28-1.69-1.69-2.23-.83-4.42-2.07-5.62-1.34-.46-.1-.76-.41-1.1-.24-.69-.29-1.38-.54-2.18-.86-.64-.32-1.54-.76-2.15-1.47 1.62-.91 3.65-.4 4.93.68.11.67 3.41 6.21 9.02 6.46 4.28-1.18 8.03-4.86 9.21-7.05 5.62 28.38 5.74 35.3 6.79 43.49l-.13 8.68s2.51 10.25 7.74 16.05 6.21-6.48 5.12-14.04 1.52-17.53-.78 4.53-3.53 7.03-7.27 10.46-1.54 1.39-3.88 1.24-4.08.01-.75.01-1.31.33-1.66.09-2.12.03-3.26.04-4.87-.44-1.25-2.24-2.02-3.47-3.3-5.99-3.75-6.28-3.37-12.27-4.91-18.39-.21-6.89.11-12.45 1.59-17.07 4.34-1.33 1.21-2.7 2.51-3.6 3.88a2.951 2.951 0 0 1-2.98-2.72c-1.54-1.66-3.22-2.81-5.02-3.74-2.98-.86-4.18-1.43-7.35-.22-1.69.94-3.81 2.84-4.61 1.8-.71 3.59-1.76 5.14-.7 1.68.2 2.75 1.54 2.65 2.74 2.5 6.09 3.5 11.04.68 16.69.09 7.05-4.61 10.48-13.86 13.32z"/></svg>
