<svg xmlns="http://www.w3.org/2000/svg" viewBox="0 0 128 128"><ellipse fill="#2F2F2F" d="M20.46 63.72c.75.66 1.73 1.03 2.72 1.87 1.22.66 2.21 1.68 3.6 1.37 1.82.93 3.72 1.14 5.71.97.29 1.16.43 2.34 1.06 1.66 1.24 2.56 2.35 3.69 2.5 1.04 6.18-.54 7.6-3.07.98-3.15.19-5.05.01-7.45-.04-1.41.09-3.21.96-5.24.74-1.01 1.69-1.27 3.17-.45 1.71.74 1.63 1.75.32 2.7-.11.4-.18.81-.25 1.1 0 5.61 4.3 9.62 12.8 8.83 5.81.06 11.73-3.2 18.53-2.03 9.98 0 17.04-2.06 18.86-2.82 3.39.86 10.74 8.28 16.68 8.72.75 2.79.45 6.5-1.14 10.63-1.33 1.71-3.6 2.9-4.55 3.78-3.82-2.05-7.24-5.33-11.24-12.18-1-.65-1.27-2.57-1.36-4.22.19-3.02.87-6.43 1.95-9.24 1.94-2.95-.57-5.28-.7-7.71-.91-1.93-.11-3.74-.38-5.41-.84C2.26 4.83 2.71 8.35.98 11.73M89.27 4.01c-.09-.01-6.14-.21-9.2.62-1.67 1.09-4.08.06-5.44.04-1.41.01-2.08.04-4.26-.05-4.33-.05-7.36-.83-10.06-.43-.87-.86-1.44-1.15-2.25-.33-.78-.5-1.28-.47-2.26-.11-.57-.27-1.17-.55-1.7-.6-.6-.18-1.12-.32-1.6-.31-1.34 0-2.45-.36-3.26-1.64-.43-1.43.03-2.98 1.57-4.09l6.01 5.31-.01.06c-.7.16-1.74 1.21-1.75 1.55-.45.89-.76 1.59-.81 2.76.47 1.28 1.25 1.59 2.51 1.38.85.36 1.38.91 2.13 1.38.68.46 1.5.32 1.69.03 1.03 0 0 0 .18-.23.35-.2.88-.59 2.17-.7.75-.24 1.53-.58 2.1-.68.82-.2 1.4.06 1.95.12.36.03.65.13 1.22.07.38.18.62.47 1.22.17.39.32.66.51 1.12l.14-1.25c.14-.26.27-.44.36-.93.07-.33.18-.76.3-.18.21-.36.43-.68.63-1.2z"/><path fill="#2F2F2F" d="M48.05 48.53H74.11c-9.17 0-14.25-7.11-19.25-2.69-.72-.02-1.58-.14-2.37-.66z" fill="url(#b)"/><path d="M102.14 100.04C105.17 82.73 19 70.66 26 60.64c-14.32 0-24.54-1.08-34.41-2.89-2.05-.45-4.21 2.1-4.1 4.36 3.03s1.86 1.78 2.86 5.67c-.01 11.49-1.74 18.37-2.94 30.17-5.34 54.78 3.14 53.22 16.38 65.02 11.67 11.03 17.59 17.16s25.83-10.86 29.94-24.65c0-5.51-1.47-7.46-9.23-7.57z" fill="#eb8f00"/><d"><path d="M64 9.64C16.08 16.89 7.28 30 37.72 41.49 12.41 39.62 8.16 60 10.78 62.97c-.54-10.25 1.5-21.52 9.8-27.5 16.35-3.89 21.73 2.21 14.75 7.58 2.88 6.72-1.07 14.4-8.07 17.76z"/><path fill="#FBB71E" d="M94.49 116.83c-8.79 2.15-18.33-1.07-28.46-10.46-3.3-8.97 1.34-18.33 10.13-21.11 8.77-3.31 18.43 1.31 21.69 9.98 3.15 8.6-1.34 18.36-10.04 21.26z"/><path fill="#FAAC22" d="M84.18 89.57c-8.1 2.91-17.03-1.19-19.98-9.19-2.93-7.98 1.22-16.83 9.32-19.78 7.69-2.77 16.14 1.15 18.05 8.76 2.75 7.52-1.17 15.24-8.37 17.96z"/><path fill="#FBB51F" d="M89.11 84.72C71.24 96.41 8.13 87.69 1.28 64.68-8.22c-.57-6.98.12-12.96 7.89-24.06-1.34-7.46-11.74-4.32-19.49-2.66-5.9 2.72-13.67 4.81-20.1 5.62-.76.88-.67 1.51-.03 2.75.58 4.42 2.36 4 6.04 1.42 1.07 2.2 1.82 3.48 2.64 1.06 1.07 1.51 2.08 1.8 2.43.2.93.53 1.93.91 2.34.25 1.91 0 1.55-.47 1.98-1.33.06-.16.16-.26.15-.28.26-.29.29-.62.41-1.19.56-.56-.09-1.18-.23-1.64-.12-.57-.09-1.14-.13-1.57-.13-.15 0-.25-.01-.31-.01h-.02c-.21 0-.26-.06-.36-.16zmd88.39c-.97.45-1.54.68-2.03.43-.44.38-.91.5-1.49.38-.44.35-.97.49-1.47.49-.45 0-.85-.01-1.04-.08-.9-.28-1.48-.56-2.48-.66-.81-.39-1.34-.66-2.45-.44-.37 0-1.18.02-1.57.12-.94-.13-1.47-.24-2.11-.34-1.26-.89-3.13-1.89-4.07-2.03-.62-.24-1.3.34-2.14.79-1.04 1.24-3.78.43-6.48-.73-10.53-.76-4.03-.68-5.31.34-3.71 2.34-5.33 6.72-7.05 1.31-1.45 5.11-3.13 7.49-3.06 2.2-1.45 4.62-3.64 6.79-4.98 2.22-.46 4.34.36 4.93 2.73.82 2.49-.38 5.08-2.88 6.18z"/><path fill="#F79328" d="M22.32 64.05h6h35v31.71c.06 0 .21-.11.18-.37l2.63-1.17c.94 1.92 1.61 5.08-1.78 7.69-.54.31-1.04.71-1.53.38z" fill="#404040"/><path d="M67.98 13.36c-3.23 0-6.73-.47-7.33-1.07-7.07-2.69-2.37-6.06-4.01-10.11-.61-3.75-.32-6.04-.48-9.3.23-.32.09-.76.19-1.25.43v.02c.02-.01 4.06 2.71 8.45 7.42 5.55 2.92 9.79 3.97 13.97 4.52 2.31.6 8.93 2.68 8.77 4.21 3.88 1.84 6.76 3.81 9.48 4.38.45 0 .88-.14 1.38-.42 4.67-1.42 7.32-2.34 9.01-7.62.32-.48.56-.98 1.19-1.25.31-.18.66.08.83.54l-7.28 12.34c-.99.46-2.44.38-2.21-.68-1.01-.55-1.68-1.11-2.15-1.81-.61-.62-1.11-1.27-1.48-1.95-.36-.16-.47-.28-.79-.59-.2-.16-.43-.15-.65-.19l-1.69-3.39-6.62 1.03c-.31.13-.64.26-.76.66zM11.34 98.64c-.06.26-.18.3-.32.39-.06.43-.19.67-.38.21-.22.21-.46.39-.92.41C72.84 72.53 89.71 79.92 97.2 80.07-4.02c-3.37 0-4.71 3.12-6.42 6.7z" fill="#fff"/></d"></svg>
