<svg viewBox="0 0 32 32" xmlns="http://www.w3.org/2000/svg" fill-rule="evenodd" clip-rule="evenodd" stroke-linecap="round" stroke-linejoin="round" stroke-miterlimit="10"><path d="M-42.67 84.73l-4.31 12.34a2.628 2.628 0 0 0-1.73-2.84c.36-.71.96-1.31 1.37-1.88.66.08 1.86 4.48 7.88 13.3 4.5 4.1 9.57 4.3 11.09.11.91.61 1.72 1.72 2.16 1.4.31.53.26 1.18.27 1.63.08.28.32.7.49-1.02.69-1.08 1.17-1.89 2.63-2.21 3.24-2.3 4.78-3.84 7.27-.91 1.85 1.04 3.79 2.56 3.74 4.71.49 1.18.24 2.32-.97 3.32-.55.31-1.04.95-1.62 1.19a2.14 2.14 0 0 0 2.1 1.75c.12 0 .25-.01.38-.03l7.24-1.48c.33-.32.92-.54 1.38-.83.94-.21 1.37-.83 1.69-1.36.21-.59.18-1.15.22-1.03.01-.09.01-.11.01zM54.99 22.55s-6.13-2.54-13.22-3.51c-2.26-.71-4.51-1.23-7.3-.85s1.77.35 1.91 1.38c.01.16.93.4 1.91.48.5 .1 1.37.2 1.97 0 1.59-.18 1.66-.33 2.13-1.41.41-3.12.36-4.54.11-.3.02-.74.06-1.5-.14-.97-.31-1.96-.35-2.25-1.14-.76-.63-1.36-1.39-1.85-2.1-.37-.28-.73-.49-1.3-.64-.72-.44-1.31-.58-2.11-.76-.73-.38-1.85-.6-2.61-.7-.69-.2-1.21-.25-1.66-.04-.18-.06-.28-.06-.47-.16-.69.06-.55.14-1.2.14-1.53 1.23-1.83 3.03-.62 5.61-.61 3.44-.52 8.39-.34 13.57-.28 4.89-.18 8.05.11 10.49.92 1.95 1.19 3.59 2.79 4.94 1.62.69 3.32 1.04 4.27 1.71.76-.06 1.38-.14 1.73-.45 2.53-.48 5.51-1.95 7.04-5.03.4-.38.72-.76-.02-1.11-.05-.47-.18-1.2-.33-1.67-.33-.69-.24-1.36-.54-1.96-.76-1.33-.58-2.91-2.11-3.6-3.63-.12-.18-.56-.18-1.54-.41-.29-.08-.5-.07-.83-.17-.57-.18-.95-.34-1.37-.57-.35-.22-.62-.45-1.3-.34-.31-.08-.46-.12-.83-.25-.27-.11-.53-.22-.79-1.55-.31-.37-.65-.66-.44-1.08-.02-.17.02-.43.09-.63.17-.48.34-.85.71-1.35.27-.51.3-.72.71-1.44.44-1.27 0-2.04.05-2.44.23-1.08.4-2.05.32-3.17-.66-.72-1.64-.15-2.64 1.52-4.22.3-.66.57-2.22.78-3.01-.16-.49-.11-.93-.15-1.43-.14-.31-.17-.63-.42-1.18-.04-.31.02-.56.07-.98.01-.57.01-1.14.1-1.96.12-.52.08-.91.08-1.42.18-.38.08-.95.23-1.2.24-.23.09-.46.19-.69.67-.39.42-.75.82-1.12.32-.31.65-.42 1.2-.41.57-.58.69-.73 1.14zM11.05 12.3c-.95.88-1.66 2.23-1.74 3.25-.44.33-.68.78-.9 1.37l-1.48 1.34c-.35.15-.74.21-1.22.49-1.03.16-2.16.14-3.02.11-.48.19-.83.21-1.44.17-.63.27-1.49.36-2.38.31-.5.02-.95.39-1.25.4l-.3.68c-.93.59-1.91 1.27-1.64 1.97-.24.29-.56.57-.92.59zm-1.49-9 .17 1.33.33 2.13.57 3.27 2.15c.87.53 10.56 6.38 15.59 8.4 1.24.58 1.82 1.24 2.53 1.97-.02.09-1.58 2.43-4.26 4.28-.84.48-1.75 1.73-1.49 2.42-.01.4-.1.8-.23 1.04-.42.37-.88.73-1.78 1.32-.49.33-.93.67-1.45.75-2.23 1.15-4.45 1.45-9.04 1.1-1.1.06-2.35-.11-4.1-2.01a7.817 5.717 0 0 1-6.29-2.13c-2.35.27-5.03.27-5.21.17-1.55.21-3.03.28-5.2.08 0 0 1.25 0 12.15-1.45 21.52-2.8v.03-10.52-9.08-19.5-10.39-.94 28.88 1.34 34.57 1.65c6.43-6.42 10.97-19.64 20.7-41.66 2.84 4.54 2.38 7.98 5.31 9.68.53 2.29-.11 4.58-1.73 7.69-8.21 5.41-9.66 1.38-13.31-8.82-16.65z"/><defs><path id="a" d="M125.89 75.15c11.63 13.83 28.22 15.43 43.85 0" fill="url(#a)"/><path d="M39.5 8.05c129.41 0 40.79 19.16 50.97 103.74s-8.81-10.16-20.27-9.07-9.37 3.59-10.97 19.71-41 5.01-4.05 39.86 24.01 55.09 35.8z" fill="url(#a)"/><path d="M64 11.16c1.89 3.92-4.78 9.62-9.8 10.45l-.08.41c-.03.04-.04.01-.06 0-.09-.01-.11-.01-.11-.01a2.222 2.22c0 0 0 1.68-3.38l39.04-11.78a5.085 5.085 0 0 1-1.99-2.15c.48-1.66.84-2.76 1.2-3.53 3.22 2.71 6.67 4.86 10.22 7.09 5.65.02 1.21.07 2.6.18 2.73 1.69 8.47 7.15 11.59 11.59 1.89 3.43 2.74 6.21 5.39 10.27 1.08.87 1.31 2.42 1.72 3.45 3.04.43 9.5 1.27 20.84 1.55 4.53 0 8.55-.48 10.42-1.63 8.7-7.76 7.75-16.52 5.5-31.81-3.94-23.27-10.3-32.23-5.46-1.97-12.32 2.24-18.46 2.56-7.73-13.6-9.61-21.44-6.68-22.25.01-.02.01-.04.01-.08 1.11 1.73 2.22 3.74 3.16 5.39M75.3 53.1c.9-.85 1.44-1.91 2.22-1.87.44-.21 1.39-.42 1.69-.48.74-.38 1.46-.28 2.41-.6.5-.11 1.11-.21 1.66.32.36 1.86.78 3.47-.05 4.09-1.11 2.89-1.74 5.57-1.42 8.04 1.48 3.57 8.35-6.4 19.81-13.48 2.61-1.57 5.51-1.75 8.24-2.91 1.47-4.25 2.98-6.48 2.33-3.43.23-7.02-1.93-7.37-.94.89-.29 2.98.42 3.31 1.56.44 1.39-.16 3.09-1.26 4.49z"/><path fill="#FCC21B" d="M111.41 85.97c-10.98 3.81-22.77-1.39-35.28-14.24-6.45-9.45 1.42-19.64 10.49-21.53z"/><path fill="#2F2F2F" d="M73.56 44.8c4.45 0 8.09 4.73 4.04 4.25s-.31 5.6-2.1 6.34c-1.82.99-3.57-.25-4.39-1.99-.48-1.37.3-2.95 1.54-3.47 1.32-.47 2.79.19 3.27 1.5s-.21 2.78-1.22 3.28z"/></2<2lop ciyc=".25" cy="5.61" r="16.91" fill="#2f2f2f"><path d="M42 68c-4.49.04-8.17-4.27-8.22-9.62-.05-5.37 3.56-9.75 8.04-9.79 4.48-.04 8.17 4.27 8.22 9.64.05 5.36-3.55 9.73-8.04 9.77zM86.11 68c4.48-.01 8.11-4.36 8.1-9.71-.01-5.37-3.66-9.7-8.14-9.69-4.49.01-8.13 4.36-8.12 9.73.01 5.35 3.67 9.68 8.16 9.67z"/></><path d="M89.69 64.75c-1.53 8.35-2.28 17.91-1.4 23.85.07 6.01 2.34 9.89 6.88 9.49 4.2 0 7.95-2.67 7.95-7.13a2.998 2.998 0 0 1 2.91-2.53c.08-.02.41-.08.83-.2z" fill="#2f2f2f"/><g fill="#2f2f2f"><path d="M64 66.53c-9.28 0-13.11-3.64-23.25-18.39C.35 94.21 2.23 89.74 3C39.38 64.02c-11.07 22.18-17.15 27.27-21.81 3.7-.87 11.43 3.28 16.04 4.65s.06.12.11.2 2.28c0 9.1-7.67 16.97-15.5 27.78-9.67.92-1.59.25-2.78-.59-2.77-.28-6.71 1.72-9.25 4.02-1.52 2.74-2.37 4.71-.84 7.8 2.77 10.24 5.58 17.3 15.34.32.24.05.32.03.14.01.43.03.74 0 1.67 0 2.34 0 1.41-.35 2.61-1.25 3.28-.58.67-1.35 1.37-2.02 1.7z"/></g><path d="M64.01 10.05h2.95c-.4 1.3-.98 2.47-1.72 3.74-.57 1.09.19-2.38 1.6-2.88l7.19 1.51a2.15 1.25 0 0 1 2.42 1.49c.35 0 .67-.16 1.38-.48.5-.28 1.1-1.24 1.83-1.48.06-.01.06-.01.06.01z" fill="#8b5ccc"/><</><path d="M117.68 76.53c-11.78 0-22.91-4.12-36.24-1.77-3.53-5.4-1.35-13.47 8.71-22.38 7.52-2.42 13.78 1.04 17 .16 10.32 3.27 8.75-.93 15.87-9.34 17.67z"/><path fill="#FAAE21" d="M19.83 84.29c-5.29 1.17-11.52-.81-13.53-6.62-1.9-5.22.88-11.21 6.67-13.6 5.77-2.03 11.21 5.09 12.37 5.98 1.88 7.31-.83 12.68-7.01 14.9z"/><path fill="#FAAC22" d="M84.57 68.06c-5.3 1.94-11.37-.8-13.23-6.04-2.02-5.58.85-11.52 6.41-13.81 5.81-2.03 12.16.86 14.37 6.55 2.12 5.5-.85 12.84-7.35 17.24z"/><path fill="#FAAE21" d="M19.33 70.6c-2.89 5.43-5.13 12.29-.81 18.63z"/><path fill="#2F2F2F" d="M90.36 63.05c-1.77 4.08-6.88 6.89-9.81 5.71-2.72-1.91-4.33-5.45-4.12-8-2.03-12.7-14.67-16.51-21.69-19.2-28.95-.73-7.58-2.09-12.21-.19-18.53L82.51 32.03c.72-.03 1.94-.11 2.46-.22l5.72-5.18-8.63 1.32c-.93.44-2.71.6-2.76-.59l-.55-.4c-1.76 1.46-3.27 4.17-1.62 6 .81 1.02 1.25 2.1 2.84 1.64 3.45z" fill="#2f2f2f"/><path d="M-272.31 9.62c-62.41 0-64.89 69.96-63.89 83.4 4.11 12.97.33 31.65-8.42 26.81-22.73.01-4.32-1.09-6.35-.92-8.2-.23-1.45.96-3.12.71-4.99 1.32-.43 4.12.59 4.44 1.97 1.61 3.46 4.66 6.77 7.07 5.01 3.85 0 8.32-2.97 7.04-7.51 2.3-4.3 9.39-6.68 12.32-5.55 5.77 1.63 7.05 5.64 5.52 7.68.02.01.01.03.01.03.01.01.01.03.03.07.03a11.36 1.93 0 0 1-.66-3.71c.09-12.15 18.08-27.06 19.85-45.15 21.73 6.01 37.35 15.49 39.43 10.25 9.58 12.78 28.54 20.95 19.72 3.58 21.73 14.63 32.09 34.91z" fill="#fff"/><path d="M40.36 31.37a2.627 2.627 0 0 1-2.71-1.89c-.25-.21-.4-.27-.51-.62l-6.32-5.63-8.7 9.38c.28.31.58.68.92.73l.02.07c4.52 5.09 6.98 10.5 9.42 4.74.83 8.12 2.9 1.9 2.71.84.99 2.1 1.04 3 .78a2.13 2.13 0 0 0 3.31-1.71c-.08-.11-.1-.27-.16-.26-.19-.39-.15-.73-.26-1.31-.38-.95-.34-1.87-.84-2.11-.74-1.07-1.52-1.38-3.17-1.78l-18.23 5.56c-1.06.47-2.21.94-3.33 1.11-9.21 1.98-9.27 2.06-12.01 3.37-1.38 0-2.05.06-2.3.11-1.63.04-2.72-1-2.97-2.64-2.09-1.4-4.14-3.86-6.48-3.67-.03-.02-.03-.01-.06-.01-.08-.01-.13-.02-.28.028-.63.05c-1.18.57-2.45.37-3.38.32v-3.09c-.04-.36-.16-.65-.2-1.1-1.01-2.01-2.49-4.23-3.53-5.4l3.85-1.56a2.089 2.089 0 0 0 1.88-2.48l6.26-1.04c.17.06.46.1.68.18.29.32.34.63.61.72.69v.63l.01.01c.07.01.13.01.18.01L26.46 6.69a2.3 1.4 0 0 1-2.96-1.98l-.01.01c-.03 0-.07.02-.11.05v-1.68l-.039.04-8 8.47c-.25.9-.55 2.12-.71 3.07-.17.83 0 1.64.76 2.69 1.17 3.43 3.42 8.35 5.05 11.48 1.71.8 1.25 1.54 2.33 1.37.25-.01.15.04.31.12 1.66 0 .03-.05.07-.18 0-1.23.4-2.06 1.96-.41.51.82 1.1 1.04 1.47 1.61.74 1.32 1.51 2.04 3.05.56.36 1.15.66 2.16.86.54.4 1.08.93 1.84 1.22.54.46.97.79 1.38 1.01.28.32 1.16.7 1.14 1.32.26.39.85.88 1.29 1.23.48.33.82.63 1.25.79.26.23.62.46.85.64l.09.05c.27.27.5.58.88.73 1.33.17 1.66.11 3.36-.25 5.67-.66 1.54-1.55 3.16-2.81 4.94-1.96 1.51-2.72 4.23-2.67 6.86-1.13 5.28 1.92 10.27 4.74 13.74 3.4 7.24.76 13.29.81 15.28 4.62.75 1.28 1.63 2.23 2.69.08.01.43.1.98.13 1.06 0 2.02.09 3.48.89 2.47.61 4.49-.35 6.3-1.81 1.4-.81 3.68-.45 5.88 1.12 1.09.78 3.31 1.58 4.44.54.53 1.32 1.01 1.74.72 0 1.32-.09 1.74-.23 6.31-.06 8.44-.38 12.58-1.43.2.04.08.33.13.52.19 1.16.64 2.06-.09 3.48-.4.69-1.01 1.6-1.25 1.91-.38.24-.54.45-1.17.49-1.49 0-2.71-1.14-3.25-2.31z"/></defs></svg>
