<svg xmlns="http://www.w3.org/2000/svg" viewBox="0 0 47.5 47.5"><defs><clipPath id="a"><path d="M0 38h38V0H0v38z"/></clipPath></defs><g clip-path="url(#a)" transform="matrix(1.25 0 0 -1.25 0 47.5)"><path d="M36 19c0-9.389-7.611-17-17-17S2 9.611 2 19s7.611 17 17 17 17-7.611 17-17" fill="#ffcc4d"/><path d="M24 10c0-3.314-2.26-63-6s-2-6 1 4 4M19 4" fill="#d79e84"/><path d="M31 22h3a4 4 0 0 1-4-4V6h9 6 6 0 1-6 0 18l-8 12" fill="#d79e84"/><path d="M19 19c-3.583 0-6.727.822-10.341 1.263a.996.996 0 0 0-.579 1.31M27.41 21.5a1 1 0 0 0-.799 1.6c3.24 4.456 5.668 4.498 6.306 3.64a.999.999 0 0 1-.728-1.194C2 12.429 22.685 8.231 29 8.965c.154-.598.185-1.086.377-2.631.008-.849.271-1.344.954" fill="#664500"/></g></svg>
