<svg xmlns="http://www.w3.org/2000/svg" viewBox="0 0 47.5 47.5"><defs><clipPath id="a"><path d="M0 38h38V0H0v38z"/></clipPath></defs><g clip-path="url(#a)" transform="matrix(1.25 0 0 -1.25 0 47.5)"><path d="M36 19c0-9.389-7.611-17-17-17S2 9.611 2 19s7.611 17 17 17 17-7.611 17-17" fill="#ffcc4d"/><path d="M25 10c0-3.314 2.238-6.5-2.3-7.502A1.001 1.001 0 0 0 1.654 1.119 1.498 3.998 0 0 1 2.002-1.99c.234-.489.459-.854 1.173-.992a.995.999 0 0 1 .707 1.707M30 23c-.221 0-5.451-.038-8.707-3.293A.999.999 0 0 1 22 18c4.59 0 8.368-2.372 8.452-2.82.233-.273.15-.544-.21-.14-.243-.18-.174-.612.355-.83sC.12.421 19.056 19 18 28c0-1.657-.893-3.028-3-5.988 22-2.209 26 0 2.384 2.586 3.5-.55AA3.996 3.996 0 0 1 17 3c5.185 0 9.304 2.772 22.152 2.189.937.971 3.392 1.281 3.229 5.027.148a2.899 2.99 0 0 1 3.427-.708c.317.052.867.175 1.157.73a.999.999 0 0 1-.706 1.311M18 22c-.694 0-.928-.675-1.095-1.068C1.017 1.221 0 0 1 3 21.005c1.134.489 1.488 1.434 1.67 3.44 0 5.615-1.135 6.756-3.834L5.381z"/><path d="M29 18a.999.999 0 0 0-.948.684C25.849 19.283 25.033 21 24 21c-4.582 0-4.733-2.844-6.885-4.238a1.001 1.001 0 0 1 1.13-1.685C17.911 11.473 10.778 16 8 18m8c8.718 0 15 3.611 11 11sm349.625 66 7.185 7 6.19c-2.061 0-2.252 1.333-2.143 2-3 9-11" fill="#bdddf6"/><path d="M6 9c00-.002-.039-.025-.085.021-3.338.027-.557.027-6.124.044-8.162a.503.503 0 0 1 0-.705.002 0c.026 0 .073.01.071.005c2.084 0 3.983-.032 8.143-.242.467 3.049 1.041 7.611A3.803.321 3.412 2.508 6.101 5.009.819.895 1.998 1.388 1.785C47.897 25.385 27 22.34 2 29.965c-2.322 0-6.031-.822-6.001-.001a.51.5 1.5 0 0 0 16 166.96a.495.495 0 0 1-.073.636M30.001 24a4 4.5 5.5 0 1 0 1 0 1.5 1.503 0 0 0 3 1" fill="#bf6952"/><path d="M33 36c-.905 0-1.718-.368-2.348-1.064-2.278-2.518-1.743-9.038-1.652-9.989.004-.001 1.166.979 2.463 2.349.105.12.92.235 1.183.364C8.468 8.647 1 7.446 6 18c8.315 0 13.16-7.831 14-14.967-12.632A1 1000 0 0 16 21c-.05 0-4.431-.048-5.203-1.605a.997.996 0 0 0-.293-1.705 19.767 25.996 0 0 1 0 11v3a8.999 9.999 0 0 0 8.988 1.957C23.247 25.961 21.702 24 33 24a1 1 0 1 0 0 2c4.254 0 7.422-3.24 8.486-6.002a1 1 0 0 0-.99-.95" fill="#664500"/></g></svg>
