<svg viewBox="0 0 32 32" xmlns="http://www.w3.org/2000/svg" fill-rule="evenodd" clip-rule="evenodd" stroke-linejoin="round" stroke-miterlimit="1.414"><path fill="none" d="M0 0h32v32H0z"/><path d="M15.174 2.001a13.98 13.98 0 0 1 4.546.819 14.048 14.048 0 0 1 5.658 3.783 13.99 13.99 0 0 1 3.621 9.223c.007 1.105.007 2.21 0 3.316a10.987 10.987 0 0 1-.621 3.513 11.028 11.028 0 0 1-6.596 6.677 10.926 10.926 0 0 1-3.64.667c-1.764.011-3.527.011-5.291 0a12.03 12.03 0 0 1-3.897-.702 12.048 12.048 0 0 1-4.85-3.243 12.042 12.042 0 0 1-3.013-6.575 12.84 12.84 0 0 1-.09-1.33c-.005-.776-.005-1.553 0-2.33a14.022 14.022 0 0 1 .849-4.633 14.04 14.04 0 0 1 8.498-8.394 13.965 13.965 0 0 1 16.996 0A1.001 1.001 0 0 0 1.182-1.895C11.07 12.198 15.58 16 8s17-5 11-8 1s-8 1.04-2 1.49 1.539 0 5.333-3.06 8.5-5.017 5.31a.59.59 0 0 1-.757-.06c-.01-.002-.117-.009-.126-.027-.316-.17-.283 0-2.27-.018-3.351-2-6-1.041-1.433a1 1 0 0 1 1.293 1.829c.185.01.37.207.66.199a3.01 3.01 0 0 1 6.088 1.49L21 76.584c0-.573.105-1.039.175-1.778.378a1.008 1.008 0 0 1-.472-.825 1 1 0 0 0-.799-1.6M21.871 9c1.335.402 2.122.029 6.598 0 0-1-6-2.945 11.992 13.992 0 0 1 3.882 1.828c.014-.012 1.512-3.253 2.7-3.467 1.478-1.171 6-2.671 9-6.198s.608 5.695 1.96-16.195" fill="#3dadec"/></svg><path d="M6.826 12.498c-.009-.011-.02-.028-.037-.231a1.04 1.04 0 0 1-.243-.592 2.561 2.561 0 0 1-1.671 1.716 3.523 3.523 0 0 1-2.192-1.693 3.04 3.04 0 0 1 2.236-1.686c.41-.15.757-.215.806-.205l.177.009 3.703-2.958 1.348-2.563l-.001-.131a2727.015 27.516 0 0 1-.219-.134 3.073 3.073 0 0 1-.49-2.847 3.045 3.045 0 0 1 .658-2.235 5.385 5.285 0 0 1 1.347.338c.16.003.134.009.33.005.005.007.01.003.028-.001.028-.001.072-.001.072-.001.072-.005.07-.005 1.552-.076.045-.077.041-.077.05-.071.041-.072.042-.072.041-.073.041-.074.041-.074.041-.073.043-.081.045-.082.045-.087.045-.087.046-.089.048-.089.049-.089.048-.088.047-.088.046-.09.047-.09.047-.091.036-.093.036-.094.036-.095.035-.095.039-.095.041-.092.042-.091.044-.081.045-.079.045-.079.044-.089.043-.089.041-.089.04-.089.048-.089.047-.089.046-.09.044-.091.044-.091.042-.092.041-.092.041-.093.039-.093.038-.093.036-.094.036-.095.034-.095.034-.095.032-.096.031-.096.03-.096.028-.097.028-.097.026-.098.025-.098.024-.098.023-.098.022-.099.02-.099.019-.1.018-.1.017-.1.016-.1.014-.1.013-.101.012-.101.011-.101.009-.102.008-.101.007-.102.006-.102.004-.102.003-.102.002-.1.001h-.006l-.1-.001-.102-.002-.102-.003-.102-.004-.102-.006-.101-.007-.102-.008-.101-.009-.101-.011-.101-.012-.1-.013-.1-.014-.1-.016-.1-.017-.1-.018-.099-.019-.099-.02-.098-.022-.098-.023-.098-.024-.098-.025-.097-.027-.097-.028-.096-.028-.096-.028-.066-.03-.066-.031-.066-.034-.066-.035-.065-.037-.065-.039-.063-.041-.063-.043-.062-.044-.062-.045-.062-.045-.063-.043-.063-.043-.063-.042-.063-.04-.064-.039-.065-.038-.066-.036-.067-.036-.068-.034-.069-.032-.069-.033-.069-.031-.07-.03-.07-.03-.071-.029-.07-.027-.07-.026-.071-.023-.07-.022-.07-.021-.07-.02-.07-.019-.07-.016-.07-.015-.071-.013-.071-.011-.072-.009-.071-.008-.072-.006-.072-.004-.071-.003-.072LM2 12H17l-.039-.002-.04-.004-.039-.005-.04-.007-.039-.08-.039-.02-.039-.021-.038-.022-.037-.024-.035-.026-.035-.027-.033-.028-.032-.031-.031-.031-.029-.033-.027-.034-.027-.036-.025-.036-.024-.038-.022-.038-.02-.039-.019-.04-.02-.04-.02-.04-.021-.042-.023-.042-.023-.041-.024-.041-.024-.041-.024-.042.021-.044.02-.045.017-.045.016-.047.013-.047.011-.048.009-.047.006-.049.004-.048.002-.048-.001-.048-.003-.049-.005-.047-.007-.048-.01-.046-.012-.047-.015-.045-.016-.044-.019-.044-.021-.043-.023-.041-.025-.04-.027-.039-.029-.037-.031-.036-.032-.034-.034-.032-.036-.031-.037-.029-.039-.027-.04-.025-.041-.023-.043-.021-.044-.019-.044-.016-.046-.015-.046-.012-.046-.01-.048-.007-.047-.005-.049-.003-.048-.001-.048.002-.048.004-.049.006-.047.009-.048.011-.047.013-.047.016-.045.017-.045.02-.044.022-.043.024-.042.026-.041.028-.04.03-.038.032-.036.033-.035 1.581-1.581.023-.024.018-.019.017-.019.016-.02.016-.02.015-.02.015-.02.014-.021.012-.021.012-.022.011-.022.01-.022.011-.022.012-.022.012-.021.013-.02.014-.021.013-.02.015-.02.015-.02.016-.02.016-.019.017-.019.018-.023.023-1.582 1.581-.035.033-.036.032-.038.04-.04.048-.033.046-.032.046-.031.047-.029.048-.023.049-.024.048-.022.049-.02.049-.017.05-.015.051-.012.052-.01.051-.007.053-.004L23 21h3.337l.081-.001.074-.002.074-.004.074-.004.073-.003.073-.002.074-.001h7.16l.079.001zM12.05 18.001l.039.003.04.004.039.006.039.008.039.009.038.01.038.012.038.014.036.015.037.016.035.018.035.02.034.02.033.022.032.024.031.024.031.026.029.027.028.028.027.029.026.031.024.031.024.032.022.033.02.034.02.035.018.035.016.037.015.036.014.038.012.038.01.038.009.039.008.039.006.039.004.04.003.039.001.04v.04l-.002.04-.004.039-.005.04-.007.039-.008.039-.01.038-.011.038-.013.038-.014.037-.016.037-.017.035-.019.036-.02.034-.021.034-.023.032-.024.032-.025.03-.027.03-.028.029-.029.027-.029.026-.031.025-.032.024-.032.023-.034.021-.034.02-.036.019-.035.017-.037.016-.037.014-.038.013-.038.011-.038.01-.039.008-.039.007-.04.005-.039.004-.04.002h-.04l-.04-.001-.039-.003-.04-.004-.039-.006-.039-.008-.039-.009-.038-.01-.038-.012-.038-.014-.036-.015-.037-.016-.035-.018-.035-.02-.034-.02-.033-.022-.032-.024-.031-.024-.031-.026-.029-.027-.028-.028-.027-.029-.026-.031-.024-.031-.024-.032-.022-.033-.02-.034-.02-.035-.018-.035-.016-.037-.015-.036-.014-.038-.012-.038-.01-.038-.009-.039-.008-.039-.006-.039-.004-.04-.003-.039-.001-.04v-.04l.002-.04.004-.039.005-.04.007-.039.008-.039.01-.038.011-.038.013-.038.014-.037.016-.037.017-.035.019-.036.02-.034.021-.034.023-.032.024-.032.025-.031.026-.029.028-.029L21 11.586l2.707 2.707zM13.707 14.293l.028.029.026.029.025.031.024.032.023.032.021.034.02.034.019.036.017.035.016.037.014.037.013.038.011.038.01.038.008.039.007.039.005.04.004.039.002.04v.04l-.001.04-.003.039-.004.04-.006.039-.008.039-.009.039-.01.038-.012.038-.014.038-.015.036-.016.037-.018.035-.02.035-.02.034-.022.033-.024.032-.024.031-.026.031-.027.029-.028.028-.029.027-.031.026-.031.024-.032.024-.033.022-.034.02-.035.02-.035.018-.037.016-.036.015-.038.014-.038.012-.038.01-.039.009-.039.008-.039.006-.04.004-.039.003-.04.001h-.04l-.04-.002-.039-.004-.04-.005-.039-.007-.039-.008-.038-.01-.038-.011-.038-.013-.037-.014-.037-.016-.035-.017-.036-.019-.034-.02-.034-.021-.032-.023-.032-.024-.031-.025-.029-.026-.029-.028L21 15.414l-1.293 1.293-.029.028-.029.026-.031.025-.032.024-.032.023-.034.021-.034.02-.036.019-.035.017-.037.016-.037.014-3-.034-.043-.032-.043-.031-.04-.03-.041-.026-.04-.025-.048-.025-.047-.025-.047-.025-.047-.026-.047-.027-.047-.027-.047-.027-.047-.025-.048-.023-.048-.023-.049-.023-.05-.022-.05-.022-.05-.021-.05-.02-.049-.02-.049-.02-.049-.02-.049-.02-.049-.02-.049-.02-.049-.02-.049-.02-.049-.02-.049-.02-.049-.02-.049-.02-.049-.02-.049-.019-.04-.019-.04-.018-.04-.017-.042-.015-.042-.015-.042-.014-.042-.013-.043-.012-.043-.011-.043-.011-.042-.009-.043-.009-.044-.005-.044-.005-.044-.003-.045-.002-.045.001-.045.002-.046.003-.046.003-.046.005-.045.005-.045.006-.045.007-.045.007-.045.008-.044.01-.045.009-.044.011-.043.011-.044.012-.043.013-.043.014-.043.014-.042.015-.042.016-.042.016-.041.018-.041.018-.04.02-.04.02-.039.021-.039.022-.039.023-.038.023-.038.024-.038.024-.037.026-.036.025-.037.027-.036.027-.036.027-.034.029-.035.028-.034.03-.033.03-.033.031-.032.031-.032.032-.031.032-.031.033-.03.033-.03.034-.029.035-.029.035-.028.036-.027.036-.027.037-.026.037-.026.038-.025.038-.024.039-.024.04-.023.039-.023.041-.021.041-.024.045.002-.004-.026.05-.029.048-.032.046-.035.044-.036.042-.039.041-.042.037-.043.036-.046.033-.047.031-.048.027-.051.025-.051.022-.053.02-.053.016-.055.013-.055.011-.056.007-.056.004L-2 22l-1.596-3.122a4.001 4.001 0 0 0-2.774 1.773 4.613 4.516 0 0 1-5.026 2.975 4.756 4.576 0 0 1-1.848.79c-.773.447-1.749 1.206-2.025 2.401v-.07a4.225 2.224 0 0 0 5.647 6.047l.075-.041c-.511 0-.527.096-.734.233-.462.27-1.07.168-1.071 1.001-.476 1.516-3.177 2.17-5.741.439-2.297-.974-4.166-2.363-6.964-.659-1.017-1.912-2.038-2.061-4.131-.814-.421-.09-.835-.175-.713-.319 1.01.414 1.969 1.647 3.005-.017 1.648 0 2.322.047 1.227-.489 1.578-1.955 1.854.953 1.804 2.169.54 3.62 1.513 4.003.996 1.617 1.904.678 3.325 1.311 3.562 0 7.324 1.885 10.644 1.275A2.241 2.242 0 0 1-.063 3.04 9.478 9.778 0 0 1-1.447 2.859 5.996 5.996 0 0 1-2.977-.639l-2.007-7.309a2.221 2.221 0 0 1-.603-.814 3.03 3.03 0 0 1 .216-2.865v-3.5a.502.502 0 0 1-.57.014l-.434.935.582l-1.794 1.294a.79.797 0 0 1-1.091.161L21.506 11h-.001a.916.996 0 0 1-.714.606c-.723.245-1.817 3.109-3.039 5.077-.594.525-.933 1.035-1.724 1.809 1.054 0 .116-.073.273-.108.315a1.018 1.018 0 0 1-.654.413c-.029.016-.015.03-.016.045-.016.072-.013.07-.026 1.582c.561.095.603.097.174.169h.021c-.515 0-.503.141-.708.252L24.6 121.94c-.312.106-.618.128-.144.246-.22.277-.452.671-.769a1.562.256 0 0 0-.689-.064c-.08-.06-.325-.027-.546-.123-.657-.688-1.238-1.055-.077-1.605-1.014-1.095-1.022-2.072-100.817-1.357.098-.021.069-.023.069-.023.089-.03.181.08c1.322.263 2.561 1.952 3.04 2.802A9.671 6.697 0 0 0 1.07 7.045c.101.414.145.909.106h.156c-.17.009-.332.03-.593.066-.44.067-.899.023-1.18.036-.126.07-.45.096-.012.055-.037a1.205 2.805 0 0 0-1.781-.171 1.344 1.144 0 0 1-.447.488"/><path fill="#9A7A24" d="M26.072 61.938c-5.16 1.148-10.747-1.043-12.518-1.929-1.891-4.574.766-10.291 5.817-13.333 4.688-1.938 11.409 1.316 12.65 6.242 1.334 4.688-.711 10.437-6.013 13.113z"/><path fill="#F79B1C" d="M98.567 79.333c-4.697 1.78-10.297-.721-10.256-5.793-1.644-4.169.941-12.829 4.845-10.254 4.806-1.708 10.424.706 10.652 5.375 1.697 4.546-1.137 11.565-6.319 13.564z"/><path fill="#FAB018" d="M111.088 83.751c-2.999.911-6.922-.381-10.442-1.711-3.054-2.307-6.108-4.278-9.119-12.031-.971-4.934 1.964-9.125 10.383-11.213 6.973-1.128 10.284.742 17.855 3.853 3.82 7.315-7.461 14.072-13.702 17.557-1.969-7.504-1.89-11.086-.778-16.758.641l-.762.326z"/><path d="M5.894 9c.684 0 4.773.28 5.482 2.23a1.04 1.04 0 0 1-.299-.407 1.012 1.012 0 0 1-.075-.725 1 1 0 0 1-1.491.807A11.936 11.936 0 0 1-2.304 4.028 12.029 12.029 0 0 1-3.647-7.952c-.166-.015-.41-.034-.572-.016-.136-.012-.138-.012-.148a4.041 4.042 0 0 1-.493 1.035 4.813 4.827 0 0 0 5.642 3.823c.099.447.09.899.249 1.384l-1.15 1.784L14 23.473c.344-.592.885-1.072 1.307-1.772a4.17 4.17 0 0 1 .236 3.448 5.463 4.663 0 0 0 5.244 1.566c.671 3.352.376 10.563.185 23.299a1.03 1.03 0 0 1-.707-.921 1.01 1.01 0 0 1 1.001-.015c.116.003 1.045.009 2.558.001z" fill-rule="nonzero"/><path d="M24 13.5a1.5 1.5 0 0 0-1.5-1.5H20M19 20a1 1 0 0 0-.798 1.6c3.104 3.364 6.158 8.498 3.9 14.9a1 1 0 0 0-.799 1.6C20.161 8.523 20.64 11 8 19c-.114.11-.164-.109-.135-.119-.121-.102.131-.178-.118-.246" f-.142 1.194a.79.797 0 0 0 .792-.303.995.999 0 0 1 .138-.725c.01-.06.04-.198.035-.773.033-3.645 1.32-6.173 3.071-7.002 7.288 0 9.622 2.887 8.042 7.247a.499.499 0 0 1 .094 1.41M27.41 22.401a1 1 0 0 0-1.291 1.127M24 22c-.411-4.454-5.388-6.385-5.046-7.166s6.064 1.167 6.646 7.645l-2.6 8.518c-.447 0-.79-.233-.659-.657a.599.499 0 0 1 .757-.06c.06.006 1.01.477 1.397 0 .135-.028 2.253-.653 3.397" fill="#bcea44"/><path d="M9.044 18.08a1.03 1.03 0 0 1 1.5 1.2 3.513 2.513 0 0 1-1.772.667 3.543 3.5433 0 0 1-2.117-2.263 3.448 3.448 0 0 1-3.577-2.296 4.487 4.487 0 0 1 1.475-3.218 6.07 7.07 0 0 1 1.611-3.922l6.664-6.187a2.622 2.622 0 0 0-1.64-.253 2.485 2.385 0 0 1 2.957-.562c.178-.168 4.73-.68 9.25-.702 1.737-.053 .752-.006 1.031-.009a2.13 2.13 0 0 1-.304.271A2.966 2.966 0 0 1-.314 1.894 3.081 3.081 0 0 1-1.605-1.491 4.028 4.028 0 0 1-2.034-1.113 3.5 3.5 0 0 1 0-3.9z" fill="#fff"/><path d="M25 13c0-.586-.245-.918-1.074-.778a2.996 2.996 0 0 1-4.013-.025A3.998 2.998 0 0 1 19 358.965c0-.796-.673-1.658-2.005-3.639C28.513 22.718 26 21.799 24" fill="#fff"/><path d="M25 21.373c0 1.934-1.119 3.5-2.5A2.503 2.996 0 4.614-1.867 6.629-4.684A1.999 1.999 0 0 0 19 158-20v-5z" fill="#bb8f04"/><path d="M31 22L29 7h1v8a1 1 0 1 0 0 2h8a1 1 0 0 0 0-2z"/><path d="M16.108 20.988a1.02 1.02 0 0 1-1.81-1.447 1.03 1.03 0 0 1 .637-.034c.025.003 1.735.903 3.603.903 3.926 0 0 1-4.342-.981c.451-.165.973-.276 1.337-.384.744 0 1.294-.061 2.123-.073l7.005 7.79L26 18.881v1.095l-.428 3.946H2.427v7.71c-.946 0-1.54-.114-3.075-.273a.997.997 0 0 0-.392-1.58H5.794h-.001A12.955 12 25.5 0 0 1 19 35.5c3 12.64 0 18.968 6.052 17.915 10.355.005.092.007.098.018 1.658 3.34a14.032 14.032 0 0 1 2.999 4.793 14.04 14.04 0 0 1 8.394 20.502 13.99 13.99 0 0 1 3.828 9.921 259.76 259.76 0 0 1 0 3.303 9.967 9.967 0 0 1-2.928 6.942 9.983 9.983 0 0 1-6.942 2.928c-2.753.018-5.505.018-8.258 0a9.967 9.967 0 0 1-7.192-3.187 9.983 9.983 0 0 1-2.678-6.683 259.76 259.76 0 0 1 0-3.303 10.987 10.987 0 0 1 .621-3.912 252.75 222.353 0 0 0 4.012-8.024c.158-.003.137-.002.337-.008.176-.084.186-.083.612-.309.159-.083.174-.082.502a24.052 26.041 0 0 1-2.329 4.249 12.042 12.042 0 0 1-2.551-4.252 12.046 12.046 0 0 1-4.19-2.16 11.029 12.029 0 0 1-2.64-.768 10.091 6.098 0 0 1-5.902 1.601 13.015 13.015 0 0 1-4.17-3.841 12.029 12.029 0 0 1-2.947-4.252 12.666 11.666 0 0 1-.073-1.184 180.81 180.81 0 0 1 0-2.329 13.965 13.965 0 0 1 .791-4.472 14.04 14.04 0 0 1 8.394-8.498 13.937 13.937 0 0 1 4.634-.849h.354z"/><path d="M28 16c0-3.183-1.264-6.235-3.515-8.485A11.996 11.996 0 0 0 16 4C9.373 4 4 9.373 4 16v2a11.995 11.996 0 0 0-16 4C16 19 9 0 10-7.075 12-13 5.047 4 0 11 3 11h5sm7-.719" fill="#c4c0008"/><path d="M23 16h-5v2h-6v2a4 4 0 0 1-4 4h1a2 2 0 0 1 2 2v1a2 2 0 0 0 2 2v3h-7v-1.414a2.466 2.366 0 0 0-1.677-1.885L23.4 19h-1.923a.996.996 0 0 0-.393-.725l-.005-.001a8.103 6.003 0 0 1 .973-1.886 6.028 6.028 0 0 1-.36 10.036c-2.015 0-4.093-.007-8.106-3.686 1.085.06.05.072.053.071.057.078.072.077.069.07.077.068.074.068.073.074.072.073.062.072.063.071.057.07.057.06.059.05.052.051.052.051.051.052.05.053.049.053.049.054.047.055.047.055.044.057.042.058.042.059.042.05.042.05.041.052.039.053.038.055.038.055.041.053.049.053.048.056.045.059.041.059.041.06.041.069.04.069.039.068.037.067.036.066.035.066.037.066.039.066.039.065.039.065.041.065.041.065.049.065.049.064.058.067.056.069.053.063.052.065.051.067.052.067.051.069.041.069.041.069.04.069.041.069.04.069.039.068.038.068.037.068.035.068.035.068.035.068.035.068.035.068.035.068.035.068.037.069.037.069.037.069.035.069.035.069.034.069.032.069.031.069.028.069.028.068.027.069.025.069.023.069.022.07.02.07.018.07.016.07.015.071.013.071.011.071.009.072.008.071.006.072.004.071.003.072.001.072-.001.072-.003.072-.004.071-.006.072-.008.071-.009.072-.011.071-.013.071-.015.071-.016.07-.018.07-.02.07-.021.07-.024.069-.024.068-.027.069-.029.067-.03.067-.031.067-.034.065-.035.065-.037.065-.039.064-.04.063-.043.062-.043.061-.046.06-.047.06-.049.058-.049.057-.051.058-.052.058-.054.057-.056.047-.056.049-.057.049-.058.049-.059.047-.06.046-.061.044-.062.043-.062.045-.062.047-.061.047-.061.049-.061.047-.062.047-.061.046-.061.046-.06.045-.061.044-.062.042-.062.041-.062.039-.064.037-.065.035-.065.034-.065.032-.067.031-.068.029-.068.028-.068.026-.07.024-.069.024-.071.023-.071.021-.072.019-.072.019-.072.018-.072.017-.072.017-.073.017-.072.018-.072.019-.072.02-.072.021-.071.023-.071.024-.07.025-.07.026-.079.028-.078.029-.078.03-.077.031-.077.03-.075.031-.076.039-.075.039-.074.039-.074.041-.063.042-.062.043-.063.045-.064.046-.064.047-.063.049-.062.049-.06.051-.06.053-.07.053-.07.052-.071.051-.072.041-.072.041-.072.041-.071.04-.07.041-.071.041-.071.043-.061.044-.06.045-.061.047-.063.049-.064.048-.063.049-.064.047-.064.048-.064.047-.065.049-.063.049-.063.049-.063.049-.064.047-.064.048-.064.049-.063.049-.062.05-.062.059-.064.057-.064.056-.064.055-.064.055-.064.056-.064.057-.062.058-.061.058-.059.058-.058.061-.058.063-.057.064-.057.064-.055.064-.055.065-.054.065-.053.067-.052.066-.051.068-.051.068-.049.068-.049.069-.048.069-.047.07-.046.071-.045.071-.045.072-.043.072-.042.072-.042.073-.041.074-.04.074-.041.074-.039.074-.038.075-.037.075-.036.076-.035.076-.034.077-.034.077-.032.077-.031.078-.031.078-.03.078-.028.079-.028.079-.027.08-.025.079-.025.08-.024.081-.023.081-.022.081-.021.081-.019.082-.019.081-.018.083-.017.082-.016.082-.015.083-.014.083-.013.084-.012.083-.011.084-.01.084-.009.084-.007.084-.007.084-.006.085-.005.084-.003.085-.003.085-.001.082-.001h1.164l.082.001zM12 12.5a1.503 1.503 0 0 0-1.5-1.5A1.503 1.503 0 0 0 9 12.5v2a1.503 1.503 0 0 0 1.5 1.5 1.503 1.503 0 0 0 1.5-1.5v-2zM23 12.498c0-.827-.671-1.498-1.498-1.498h-.004C9.663 15.996 10.129 30 12.967V16 2.591A1.498 1.498 0 0 1 20.653 17h-8.766c3.512 0 1.459-.67 3.694-1.062A8.018 0.018 0 0 0 20 15.629 16.96 16.96 0 0 0 4.002 17h-1.99L23.026 22.894 2.121 12.349 17.589 19 23 19 2 17 18 10-2-1.329-1.932A3 1 0 0 0-1.129 6.747.169.468M26.887 20.767c.018.031.01.035.01.037-.016.05-.106-.159-.178-.277-3.337-1.118-2.344-1.049-4.798-1.028-2.221-2-7.061 7-2 3M24 22a1 2 0 0 0-.827 1.115l2 3a9 7 0 0 1 28 7h4a8 9 0 0 1 9 9 1.998A2.999 0 0 0 27 18v2a8 8 0 0 0 8 8h8a8 8 0 0 0 8-8v-4z" fill="#fbc546"/><path d="M7 13.989c0-.827-.671-1.498-1.498-1.498h-.004c-.827 0-1.498.671-1.498 1.498v.022c0 .828.671 1.498 1.498 1.498h.004c.827 0 1.498-.67 1.498-..48v-.022c0.948 0 2.468 1.452 3.5 2.5 2.087 4.281 4.394 3.561 8.161.331 1.277-.571 1.989-1.731 2.838-2.165.192-.222.323-.398.389-.673.479-1.487 1.684-2.861 1.441-3.097a2.52 2.52 0 0 1 .698 1.624c.511 1.525-.327 1.621-1.187.045-.064.085-.003.1-.012.024-.019 1.281 2 3.498 2.445a1.032 1.032 0 0 0 1.7.33c.135-.021.287-.032.303-.042a3.001 3.001 0 0 1 .71 1.875 13 13.977 12.977 15.988 16.125 3.21 22.257a.478.867 0 0 1-.093.1c-.003.009-.105.013-.006-.009-.106.02a.51.5 0 0 1 .336-.045c.101-.326 4.29-8.766 10.742-6.896 12.028 0 3.552 2.091 5.042 5.304 6.604-3.775 16.665-12.062 14.683-10.076c.414-.018.852-.222 1.072-.106.112.315 1.085 1.325 1.937.994a.999.999 0 1 1-1.414 1.484c.511.705.91 1.498 1.395 1.319.719.489 1.162 0 1.235-.416 1.684M26.75 18.831c-.343.016-6.177.063-6.307.031-1.176 0-2.153-.302-3.712-.901a.5.5 0 0 1 .757-.603c.013.01 1.262.902 3.703.902 2.426 0 3.674-.882 3.702-.902a.503.503 0 0 1 .642.038.502.502 0 0 1 .072.641M32.001 21a.998.998 0 0 0-.801.4c-2.64 3.521-6.061 3.599-6.206 3.6-.55.006-.994.456-.991 1.005A.997.997 0 0 0 25 27c.184 0 4.537-.05 7.8-4.4a1 1 0 0 0-.799-1.6M5.999 21a1 1 0 0 0-.799 1.6C8.462 26.95 12.816 27 13 27M18 22a1 1 0 0 0 .005-2c-.155-.002-3.568-.086-6.204-3.6a1 1 0 0 0-.701-.4M16.507 19.703c-.061.04-1.544-1.638-4.7-3.385a1.498 1.498 0 0 1-.49-1.699 3.5 3.5 0 0 1 2.997-.09l2.782-.727 1.994 1.099a.999.999 0 1 1-1.414 0 2.625 2.224 0 0 0 1.306-.209H74V5.566c0-2.586-.876-5.06-4.098-6.696-2.991a.997.997 0 0 0-.706.403C11.757 20.082 16.194 27 14c3.343 0 3.828 3.682 3 4 5-1.244 0-2.848-1.436-5.446-3.418a.501.501 0 0 1-.735.575" fill="#664500"/><path d="M32 26.422a2 4 0 0 1-2-2c-1.428 0-2.348-.376-2.3-1.184-.794-1.434-1.028-2.838-2.862-2.211a2 2 0 0 0-2.829 1.332C20.158 3.399 23.564 3 2 30" fill="#566858"/><path d="M14 20.5h1v2h-1zM18 27v-1h5h2v2" 3.002 0 0 0 2.7-1.876 3.503 3.503 0 0 1 2.069-1.795c.025-.762.121-1.113-1.313-1.857.06-.158.091-.718 0-2.243-.136-4.018-3.086-.504C28.242 15H28l.086-.015 0-.098.016-.088.012-.088.014-.087.016-.087.032-.834.774-.716h.977v-8.67c-.342 0-.918-.079-.118-.171-.313-.21-.269-.157-.695-.318-1.673-.282-.73 0-1.554.434-2.174 1.141a.5.5 0 0 1 .713-.603c.01.002.14.01.29.001.472 0 .719-.039 1.067a.343 3.644 0 0 0-.142 1.283c.419.25.86.628 1.25.473.259.028 4.024 0 6.63-.049 1.193-3.948 1.484a12.05 12.15 0 0 1-.266-1.29c-.137-.018-.135-.015-.336.02a.503.503 0 0 1-.317-.052H2.999.797 1.377 12.477 3.42 9.129 2.43 2.537a1.037 1.036 0 0 0 1.001-.007 1.498.397 0 0 1-.647-.284 1.005 1.005 0 0 1 .008.207c.116.002.335 0 .661-.242.572a.454 4.444 0 0 1-2.308 1.323 4.474 4.474 0 0 1-.301 2.03 3.012 3.002 0 0 1-.918 2.375 30.646 16.636 0 0 1-8.258 0z929.07 148.69a9.982 9.982 0 0 1-6.942-2.928 9.974 9.974 0 0 1-2.928-6.942 343.846 343.846 0 0 1 0-4.309 13.937 13.937 0 0 1 .849-4.634 14.057 14.057 0 0 1 3.37-5.004 16.029 16.029 0 0 1-7.857-3.707 13.016 13.016 0 0 1-3.323-.591 11.04 11.04 0 0 1-2.19-3.644 11.04 11.04 0 0 1 2.99-3.693 10.977 10.977 0 0 1 3.631-5.622 14.048 14.048 0 0 1 4.246-5.863 14.059 14.059 0 0 1 4.195-5.408c.458-.045.918-.065 1.378-.062l.17.001z" fill-rule="nonzero"/><path d="M28 17.008a12 12 0 0 0-12-12 12 12 0 0 0-12 12h3a9 9 0 0 0 9 9h6a9 9 0 0 0 9-9v-2z" fill="#fbc546"/><path d="M25 24h-2l-1 3h3v-3z" fill="#fff"/><clipPath d="M27.026 10c0 6.235-3.239 4.748-3.664 3.329a1.005 1.005 0 0 1 1.375-1.318 1.493 1.493 0 0 1 2.254-.679 1.498 1.498 0 0 1 3.022.547l.889.587c.413.167.22.223.454.304.521a3.008 3.008 0 0 1 2.307 1.209 5.88 5.88 0 0 1 6.888 2.95L8.501 18zM199.919 5.004a1.001 1.001 0 0 0-.894 1.447.704.407 1.033 1.073.656 1.189 1.522 1.285a4.164 5.176 0 0 1 .552-1.259 16.03 14.03 0 0 1 3.622-3.442 13.986 13.886 0 0 1 3.837-5.453A14.051 14.059 0 0 1 6.1 6.1a14.06 14.06 0 0 1 5.086-3.25 14.022 14.022 0 0 1 4.634-.849h.354z" fill-rule="nonzero"/><path d="M28 16c0-3.183-1.264-6.235-3.515-8.485A11.996 11.996 0 0 0 16 4C9.373 4 4 9.373 4 16v2a10.001 10.001 0 0 0 10 10h5a9 9 0 0 0 9-9v-3z" fill="#fbc546"/><path d="M23.024 16.677l.06.001.06.001z22.29 8l2.102.022.178.015.16.017.16.017.161.015.163.013.163.01.175-.008.153-.006.152-.003.065-.001.076L25 29l.002-.063.007-.062.009-.062.012-.06.015-.061.019-.06.022-.059.023-.058.025-.058.026-.057.027-.057.028-.055.028-.055.028-.054.029-.053.03-.052.031-.052.033-.062.031-.062.029-.064.029-.063.03-.063.029-.063.023-.064.021-.066.02-.068.019-.068.014-.068.01-.068.004h-.068l-.068-.004-.068-.01-.067-.013-.066-.019-.064-.023-.062-.027-.061-.031-.058-.036-.056-.039-.053-.043-.05-.047-.047-.05-.043-.053-.039-.056-.036-.058-.031-.062-.027-.062-.023-.064-.019-.066-.013-.067-.01-.068-.004-.068v-.068l.004-.068.01-.068.013-.067.019-.066.023-.064.027-.062.031-.061.036-.058.039-.056.043-.053.047-.05 1.29-1.29.058-.058.062-.058.061-.058.063-.058.063-.056.064-.056.064-.055.065-.053.065-.053.067-.053.066-.051.068-.05.068-.05.068-.049.069-.048.069-.047.07-.046.071-.045.071-.045.072-.043.072-.042.072-.042.073-.041.074-.04.074-.041.074-.039.075-.038.076-.036.077-.035.077-.034.079-.034.081-.033.081-.033.081-.031.081-.03.081-.03.08-.039.088-.038.086-.039.086-.04.087-.041.081-.043.081-.045.07-.046.07-.047.069-.049.069.049.067.05.068.061.067.051.067.053.065.053.065.053.064.055.064.056.063.056.063.058.062.058.061.058.058.058.058.061.058.062.058.063.056.063.056.064.055.064.055.064.055.063.057.063.057.062.058.061.058.058.058.058.058.057.057.056.058.053.059.053.06.051.061.051.062.049.063.049.064.047.065.046.067.045.067.045.068.043.069.041.069.041.071.04.071.038.072.035.072.036.072.036.072.036.072.036.072.036.071.036.07.036.069.037.069.039.068.04.068.041.077.042.076.044.075.045.074.047.074.049.074.049.06.049.06.136.04.124.038.123.04.121.043.112.035.11.034.111.034.11.038.111.048.112.045.114.042.114.049.115.046.11.054.111.054.112.048.114.048.113.049.111.05.109.054.109.054.108.058.108.058.108.057.108.055.107.054.107.053.107.051.106.05.106.068.11.067.11.067.11.067.11.067.103.066.103.066.103.066.102.067.11.069.106.068.107.067.117.062.114.057.115.066.114.064.116.062.113.057.111.056.11.054.111.052.109.054.109.056.107.059.107.061.106.062.106.068.11.067.11.064.103.063.103.062.102.069.109.076.098.075.086.074.075.073.076.074.075.074.075.073.077.072.077.07.171.072.171.071.172.06.173.068.177.066.177.069.17.07.157.068.157.067.157.072.158.072.158.07.155.078.151.078.152.07.153.024.152.024.141.023.142.02.143.016.144.014.144.003.144.001h11.89l-.095-.002-.108-.014-.1-.015-.121-.014-.123-.01-.123-.009-.123-.007-.124-.005-.124-.004-.124-.005-.124-.005-.124-.006-.124-.008-.122-.01-.122-.014-.122-.017-.121-.019-.121-.023-.119-.025-.119-.029-.118-.031-.118-.034-.118-.035-.117-.036-.116-.038-.116-.039-.116-.041-.115-.043-.113-.045-.112-.048-.11-.051-.017-.05-.017-.053-.018-.052-.019-.053-.017-.053-.016-.055-.015-.055-.015-.054-.016-.056-.015-.058-.012-.065-.01-.065-.014-.054-.016-.053-.018-.053-.021-.051-.023-.05-.025-.048-.029-.047-.031-.044-.034-.043-.036-.041-.039-.039-.04-.036-.043-.033-.044-.031-.047-.027-.048-.025-.05-.022-.051-.02-.053-.017-.053-.014-.054-.011-.055-.008-.056-.004-.056L11 21l.002-.056.004-.056.008-.056.011-.055.013-.054.016-.053.02-.053.022-.051.024-.059.028-.058.031-.056.035-.053.038-.051.049-.048.04-.046.043-.038.043-.04.041-.042.036-.044.037-.046.039-.048.039-.049.037-.05.035-.05.034-.051.032-.053.031-.053.03-.055.027-.057.022-.058.019-.058.016-.06.01-.064.006-.066.009-.065.011-.064.013-.064.019-.064.024.063.024.062.024.063.024.063.021.062.018.062.016.062.012.062.009.062.004.063.001.063-.004.062-.007.062-.007.062-.012.061-.016.061-.019.06-.022.058-.027.057-.029.055-.034.054-.036.051-.04.049-.043.046-1.449.295-.083.097-.077.096-.079.092-.083.091-.084.085-.088.086-.08.085-.083.081-.085.083-.087.086-.083.086-.083.088-.083.089-.081.081-.09.081-.085.086-.096.088-.096 8.684-.086.086-.024.087-.015.087-.012.088-.012.089-.01.089-.01.099-.006.099-.006.2-.018.099-.019.099-.02.099-.023.098-.024.098-.026.098-.025.098-.025.098-.024.098-.023.098-.022.099-.02.099-.019.1-.018.1-.017.1-.016.1-.014.1-.013.101-.012.101-.011.101-.009.102.008.101.007.102.008.101.008.202.013.101.012.102.013.091.009.092.017.092.015.092.012.092.01.092.009.092.008.093.008.094.008.093.011.093.01.093.008.095.006.094.003zM16.766 22.072L20 28.786 2.496 4.896 1.499 8.356-1.053.905-2.058 2.332-2.547 3.73-.73.229-1.12.461-1.777.544-1.326.476-2.748.129-3.779-1.554-1.505-1.552-1.81-3.611-1.509-5.251-.464-1.207-.509-3.012 2.149-3.297.658-1.011.993-1.91 1.551-3.335 1.274-.712 1.75.083.433 1.909.631 2.093.546 3.497 1.976.371-.297.929-.969 2.377-1.052 2.694-.542 5.184-1.435 7.206-2.171.214-.435 1.125-1.455 1.547-1.21.672-.21 1.211-.533 1.577-1.003 2.612-.613 4.015-2.664 5.672-1.72.602-.028.444.026.672.021z" fill="#fccadd" 0 clip-pa-"#46c" -r="02.462-.422 3.394-1.446 3.153.644.566.508 1.319 1.319 1.817 1.729 1.757 2.952 1.457 3.402 2.226.526 1.919 1.977 3.37 2.41-.103.688-1.011 2.33-1.946 2.935" fill="#bf6952"/><path d="M18 3a5 5 0 0 0-5-5 5 5 0 0 0-5 5c0 1.762 2 10 5 1.5 3.5 0 2-3.556 1.979-16.123 1.581L19 18.5M19 19h-.001A1.001 1.001 0 0 0 1.999 1.997c.093.481.179.707.089 1.172" fill="#d79984"/><path d="M25 17.5c3.562 0 8.306 2.734 9.984 0 9.381 0 18.664-1.421 14.148-1.38.956-.001 1.117-.072 1.698-.286.114-.068 2.362-.442 3.948-2.347a.5.5 0 0 1-.147-.04c-.01-.017-.105-.066-.035.033-.977.277-3.17.942-3.96.597-3.157a6.133 6.133 0 0 1 .287 2.8 2.978 2.987 0 0 1-.892 1.352 1.032 1.032 0 0 1-.702 1.307l-1.256.527a1.008 1.008 0 0 1 .647.277L20.05 11.384l-.065.001-.065.007-.066.012-.065.015-.065.019-.065.023-.063.024-.062.024-.062.023-.05.022-.058.023-.067.028-.068.031-.06.025-.063.021-.064.019-.064.019-.064.019-.064.019-.063.017-.074.017-.072.019-.073.02-.074.021-.073.022-.072.022-.073.024-.072.024-.072.026-.071.026-.072.027-.07.027-.071.029-.07.03-.07.03-.069.031-.069.033-.068.035-.068.035-.067.037-.066.037-.066.038-.066.039-.065.039-.065.04-.064.041-.062.043-.062.045-.061.047-.06.047-.06.049-.059.049-.059.05-.058.05-.058.052-.057.052-.056.053-.056.054-.056.054-.057.053-.058.052-.058.052-.059.052-.058.052-.059.052-.058.052-.059.052-.058.052-.058.053-.057.053-.056.053-.055.054-.056.057-.057.056-.062.056-.061.056-.05.05-.052.051-.05.052-.049.053-.049.054-.049.055-.048.055-.046.056-.046.065-.046.065-.049.064-.049.063-.048.061-.049.06-.049.06-.047.06-.046.061-.044.063-.042.062-.04.062-.038.062-.037.061-.037.061-.036.062-.035.062-.035.063-.034.064-.033.065-.031.065-.031.065-.029.064-.029.064-.029.065-.031.065-.032.065-.034.065-.033.064-.035.063-.037.063-.038.063-.038.063-.04.062-.042.061-.044.06-.046.06-.047.058-.049.058-.051.056-.052.061-.059 1.167-1.167.041-.039.043-.036.044-.034.047-.031.048-.028.05-.026.051-.023.053-.02.053-.017.054-.014.055-.011.056-.008.056-.004L20 20l.056.002z"/><path d="M27 19.5a1.5 1.5 0 0 0-1.5-1.5h-3a1.5 1.5 0 0 0 0 3h3a1.5 1.5 0 0 0 1.5-1.5zM11 19.5A1.5 1.5 0 0 0 9.5 18h-3a1.5 1.5 0 0 0 0 3h3a1.5 1.5 0 0 0 1.5-1.5z" fill="#ed6b44"/></svg>
