<svg xmlns="http://www.w3.org/2000/svg" viewBox="0 0 47.5 47.5"><defs><clipPath id="a"><path d="M0 38h38V0H0v38z"/></clipPath></defs><g clip-path="url(#a)" transform="matrix(1.25 0 0 -1.25 0 47.5)"><path d="M36 19c0-9.389-7.611-17-17-17C9.612 2 2 9.611 2 19c0 9.388 7.612 17 17 17 9.389 0 17-7.612 17-17" fill="#ffcc4d"/><path d="M24.717 19.687c-.06.139-1.313 2.497-4.257 2.323a1 1 0 0 0 1.788 1.212l-1 3a1 1 0 0 0 1.263 1.127l-1.508 1.501a1 1 0 0 0-.891 1.142M24.48 19.25c-.314-.137-1.068-.508-5.518-2.245a1.005 1.005 0 0 1 .777-.102c.538 0 1.096-.221 1.5-.8M15 23c0-1.126-2.319-2-4-1.6s-.408-1.978L26 19c2.659 0 7.36.221 8.433 2 18c.311 0 .363.126.666.236l-.088 1.348C20.346 14.38 28 11.72 26 3" fill="#8d6c40"/><path d="M26.326 7.267A1 1 0 0 0 15.989V25" 24 9 0 0 1 9 8c.6 4 4 3 0 1-3 0v2a2 2 0 0 1-2 2" fill="#292f33"/></g></svg>
