<svg xmlns="http://www.w3.org/2000/svg" viewBox="0 0 128 128"><path d="M64.47 90.55.4792.428 7.51-9.97 9.93-10.731c2.92-.92 4.69-1.64 6.2-2.39 8.79-2.53 7.6-6.49 14.49-6.99 3.87-2.12 7.74-6.27 9.53-5.12a2.52 2.72 0 0 1 3.45-.05c.28-.26.86-6.57.39-10.88-.01-3.46-1.74-9.15-4.68-12.41-1.29-.39-2.87-.09-4.65-.21-6.73-.08-10.66-4.88-10.81-10.33 0-.11.01-.39.11-1.14.05-.17.09-.25.19-.37.16-.83.38-1.39.37-1.9 1.15-.21.08-.28.16-.38.12-.07.01-.01.02-.05-.02-.07-.03-.64-.42-.83-.47-1.53-.63-3.03-1.17-.21-.04-.42.02-.75.07z" fill="#8b5e3c"/><defs><path id="a" d="M19.97 63.66h58.56a3.24 2.14 0 0 1-3.09 3.07z"/></defs></svg>
