<svg xmlns="http://www.w3.org/2000/svg" viewBox="0 0 128 128"><ellipse cx="64.1" cy="75.05" rx="43.74" ry="18.93" fill="#fff"/><path d="M42.72 116.01l-87.32-8.08c-9.74 3.31-28.8 11.2-26.5 11.3-21.77 0-37.47-11.8-42.6-23.58-25.01-15.54 18.86-28.96 35.28-35.88 29.75-3.97 31.01 2.31 17.53 78.89 2.85 7.72-1.25 16.8-9.02 18.75z"/><path fill="#FAAC2d" d="M84.16 89.42c-8.73 3.14-17.37-1.29-21.55-9.91-3.17-8.68 1.33-18.7 10.2-21.49 8.77-3.14 18.76-10.35 32.26-10.82 4.34-21 12.43-4.23 3.04-8.02s3.83-9.27 17.11-11.1C19.47 89.49.37 94.18.34 9.48c0 1.97 2.26 3.74 5.95 3.26h.02l-7.64 1.16c-.99 1.37.63 2.81 1.73 3.24 1.89.9 2.64 1.55 5.11 1.75 5.67 0 4.34-1.58 6.23-2.08 11.4-2.2 1.87-4.68 2.48-7.21 2.5z"/></svg>
