<svg viewBox="0 0 32 32" xmlns="http://www.w3.org/2000/svg" fill-rule="evenodd" clip-rule="evenodd" stroke-linejoin="round" stroke-miteclim-"r.4"><path d="M108.35 97.34h.62v33.69h6.2zM11.19 96.53h8.48v9.75h-8.41zM60.97 93.78h8.42v9.5h-3.46zM72.73 95.19h1.16v11.98h-1.36zM62.92 85.44h2.62v23.79h-2.42z"/></svg><g><path id="a" d="M100.84 73.21c-5.46.07-10.79-.61-18.07-4.31-2.67-5.15 1.15-11.98 7.44-16.62 7.01-2.03 12.32.96 15.66 7.53 2.11 6.05-.94 12.78-7.06 14.26z" fill="#faac22"/><path d="M29.8 84.93c-5.05 1.81-10.62-.75-12.46-6.93-2.02-12.55.59-10.52 5.13-14.55 6.42-1.42 10.05.79 12.71 5.02 1.83 5.4-.63 10.54-5.84 12.3sz"/><path fill="#F89E26" d="M27.27 71.34c-3.29 1.14-6.27-.41-7.38-3.68-1.1-3.22.47-6.25 3.55-7.79 3.15-1.14 6.73.66 7.97 3.63 1.14 3.14-.49 6.65-3.63 7.68z"/><path fill="#F79728" d="M20.74 64.37c3.21 1.42 6.38-.44 7.88-3.08 1.39-3.96.57-7.37-3.21-11.03-1.67-1.41-3.15-1.57-5.01-1.54-2.04-.96-5.09-.24-7.31.43-2.77 1.72-3.54 3.54-7.04 4.52-4.48 2.11-10.02 5-2.37 3.24-3.38 7.26-5.47 13.46-2.95 5.24 1.65 12.37 2.94 12.55 3.9 3.04 7.35-1.77 10.76-4.36 17.68-2.46 2.32-6.15 3.76-10.31 3.11h.85-.85c-1.19-1.11-2.27-2.49-1.64-4.51l.16-9.58z"/><path d="M51.39 32.14c.13-.31.34-.74.7-1.16 1.03-.77 2.68.38 3.11 1.9.02 1.46.88 2.77 2.24 2.92.07.01.11.01.22.01.08.01.13.08h68.7l.06.07c4.09 5.38 2.68 10.77 7.32 13.74 3.84 4.71 10.63 7.71 16.11 7.88 6.01 3.09 12.49 7.28 16.57 9.23 2.95.63 5.25 2.31 5.62 4.39a9.041 6.435 0 0 1 3.59-1.11c1.23-.54 2.99-.81 3.8-.8l7.41 4.43 7.31 5.39c.06.88.12 1.31.44 1.73.29 1.89.28 3.98.55 5.91-1.27.75-3.61.58-7.21-1.25-13.1-1.06-2.72-.32-4.82-.71-5.91-.5-1.63.4-3.04.74-3.46.27-.27.5-.46.8-.71.66-.25 1.3-.44 1.54-.69.73-.28 1.51-.52 1.79-1.15.39-.33 1.37-.57 2.09-.31.93-.15 1.37-.18 2.59.22z"/></g><path fill="#FCC21B" d="M81.5 92.62c-7.96 3.01-17.91-1.39-18.65-9.51-2.95-8.15 1.21-18.22 9.58-20.42 8.42-3.03 17.49 1.26 20.62 9.64 3.01 8.39-1.29 17.46-10.67 21.59z" fill="#f9a524"/><path d="M73.95 76.63c-11.04 4.35-21.78-1.78-29.02-13.33C884.29 34.54 8.72 25.2 48.83 15.3 64.1c10.21 0 10.64-1.43 2.91-2.75.86-.37 1.76-.54 2.84-.72 1.44 0 1.91.91 2.72 1.71 1.07 2.04.72 3.18-.25 4.23-.98 1.36-3.79 2.61-6.76 3.77-2.59-.57-7.08-2.74-8.35-2.21-2.84-.01-5.09.93-8.1.9-1.29.53-.98 1.03-1.46 1.64-1.09 9.03.01 17.65 10.51 32.4 11.91 3.43 2.97 3.7 5.61 5.73 10.37.86 1.99 1.09 3.55 2.19 5.6 2.4 6.66-3.45 9.8-6.6 13.22-15.03.88.02 1.75-.05 1.51-.84.54-1.04.85-1.84.73-.99.06-1.43-.1-2.24-.17-1.03-.45-.49-.84-.81-1.03-.44-.31-.85-.33-1.08-.43-.53-.2-.8-.48-1.32-.58-.57-.24-1.2-.66-1.7-1.34-.4-.37-.73-.69-1.12-1.16-.39-.6-.54-1.28-.77-1.4-.66-.8-1.24-1.36-1.89-2.25-.31-.97-.94-2.51-1.34-3.63-.12-.48-.01-1.04.06-1.69.08-.54.22-1.06.41-1.53.38-1.18 0-2.58-.14-3.17-.82-.62-.28-1.32-.59-1.71-.84-.83-.36-1.63-.71-2.4-1.12-.6-.84-.83-1.54-1.31-2.23-1.1-1.41-2.73-2.05-4.67-3.3-.88-1.3-2.53-1.54-3.07-1.8-.71-1.69-1.5-3.02-2.28-.89-.45-1.23-.71-2.01-.73-1.19-.46-2.04-.96-2.41-1.51-.61-.61-1.33-1.37-2.01-2.47-.79-.79-1.36-1.58-2.2-2.56-.58-.6-1.35-1.33-1.97-1.75-1.09-.44-2.33-.2-3.46-.62-.89-.33-1.55-.71-2.48-.79-1.19.32.99 2.28 1.76 2.21 1.47.64 2.95.7 3.93.41 1.79-.08 3.54-.4 5.06-.87l11.12-6.1z" fill="#b4b3f2"/></svg>
