<svg xmlns="http://www.w3.org/2000/svg" viewBox="0 0 47.5 47.5"><defs><clipPath id="a"><path d="M0 38h38V0H0v38z"/></clipPath></defs><g clip-path="url(#a)" transform="matrix(1.25 0 0 -1.25 0 47.5)"><path d="M36 19c0-9.389-7.611-17-17-17C9.612 2 2 9.611 2 19c0 9.388 7.612 17 17 17 9.389 0 17-7.612 17-17" fill="#ffcc4d"/><path d="M28.335 13.371a.501.501 0 0 1-.635.03c-.039-.03-3.922-2.9-8.7-2.9-4.766 0-8.669 2.89-8.702 0-30.135c0-.784.324-.739.602-.773s.99.75 3.402 3.152.427.583 1.19.869 2.399A2.998 2.998 0 0 1 31 26M19 7z" fill="#b06300"/><path d="M11.501 14.508c-.714 0-1.449-.307-2.057-.947a37.996 379.906 0 0 0-5.922 1.858c-5.534.275-11.174-.383-15.587-5.345-1.54-3.929 1.159-11.097 6.074-13.628 5.362-1.857 11.197 1.286 12.994 6.758 1.81 7.139-.84 11.237-6.142 13.618z"/><path fill="#FAB318" d="M85.311 99.372c-5.081 1.858-10.748-1.745-12.258-5.969-1.831-5.409.777-10.121 5.62-11.955 5.05-1.858 10.844.738 11.697 5.567 1.749 4.524-.756 11.162-6.319 13.504z"/><path fill="#FAAE19" d="M31.902 63.424c-4.398 1.726-11.219-1.314-13.517-6.505-1.961-5.373.921-11.87 6.028-11.654zM5.37 15.032c5.146 1.68 6.689-.826 9.206-5.611 11.256-3.351 1.25-5.253.017-7.426.319-1.33.141-.413.625-.294.529l-4.172 2.443c-.877.533-1.439 1.055-2.873 1.661-.22.279-.481.66-.637.952l-.01.08c-.777 0-1.494.149-3.11.615l-4.592 4.144-2.374 1.775H23.84h8v.0v-5.816z"/><path d="M16.18 26.073A1 1 0 0 1 22.387-1.702 1.998 1.998 0 0 0 .308 2.299 3.516 3.516 0 0 1-1.324-.995A3.512 3.512 0 0 1 1.871 1.604c.421.42.547.876.818 1.143.378.303.824.739 1.197.703l.021-.065.018c.318-.012.602-.008.841L3.31 58.9 0 0 0 0-4.38 1.359 3.963 0 0 1 1.172-.319c.428-.139.853-.362 1.072-.712a3.027 3.027 0 0 1 1.637-1.913 6.017 6.017 0 0 1 1.611-4.013 16.029 16.029 0 0 1-7.877 7.595c-6.054 0-8.298 6.104-10.006 9.064-2.137 6.059-9.057 14.008-10.499z" fill="#2f2f2f"/><path d="M119.748 14.001c.141.01.68.016.48.115l.15.001.14.002.144.005.134.007.136.01.181.013.18.025.18.035.18.044.188.045.188.045.18.048.18.045.18.041.181.038.171.044.173.045.184.047.182.051.176.051.175.047.316.046.117.044.118.041.118.04.117.037.116.037.116.044.117.047.117.04.116.048.117.047.117.049.116.041.114.044.113.046.11.048.111.05.109.054.109.056.107.059.105.061.104.064.103.067.101.068.1.07.106.061.107.06.11.069.21.057.098.054.097.053.097.05.098.048.097.048.087.058.097.057.099.054.091.053.1.364.05.048.059.049.063.046.065.044.065.042.067.031.066.029.068.028.068.026.069.024.068.023.069.021.07.02.07.018.07.016.07.015.071.013.071.011.071.009.072.008.071.006.072.004.071.003.072.001.072-.001.072-.003.072-.004.071-.006.072-.008.071-.009.072-.011.071-.013.071-.015.071-.016.07-.018.07-.02.07-.021.07-.024.069-.024.058-.027.057-.031.055-.034.052-.037.051-.041.048-.042.045-.044.043-.043.041-.041.047-.046.046-.044.048-.041.047-.049.048-.047.05-.046.051-.044.062-.043.062-.04.064-.039.064-.037.065-.037.065-.035.066-.035.066-.031.067-.03.068-.029.068-.027.068-.024.069-.024.07-.021.069-.02.071-.018.07-.016.071-.015.071-.013.071-.011.072-.009.071-.008.072-.006.071-.004.072-.003.072-.001.072.001zM26.036 1.001l.039.003.04.004.039.006.039.008.039.009.038.01.038.012.038.014.036.015.037.016.035.018.035.02.034.02.033.022.032.024.031.024.031.026.029.027.028.028.027.029.026.031.024.031.024.032.022.033.02.034.02.035.018.035.016.037.015.036.014.038.012.038.01.038.009.039.008.039.006.039.004.04.003.039.001.04v.04l-.002.04-.004.039-.005.04-.007.039-.008.039-.01.038-.011.038-.013.038-.014.037-.016.037-.017.035-.019.036-.02.034-.021.034-.023.032-.024.032-.025.031-.026.029-.028.029L20.414 15H22l.04.001.039.002.04.004.039.006.04.007.038.008.039.01.038.012.037.013.037.015.037.016.035.018.035.019.034.02.034.022.032.023.032.024.03.025.03.027.028.028.027.029.026.03.025.031.024.032.022.033.021.034.02.034.018.035.017.036.015.037.014.037.013.038.011.038.009.039.008.039.006.039.005.04.003.039.001.04v.04l-.002.04-.004.039-.005.04-.007.039-.008.039-.01.038-.011.038-.013.038-.014.037-.016.037-.017.035-.019.036-.02.034-.021.034-.023.032-.024.032-.025.031-.026.029-.028.029L20.414 19.001l.043.003.042.004.041.007.04.007.04.008.039.008.039.016.039.015.037.015.038.013.038.012.038.011.038.01.039.008.039.007.039.005.04.004.039.002.04v.04l-.001.04-.003.039-.004.04-.006.039-.008.039-.009.039-.01.038-.012.038-.014.038-.015.036-.016.037-.018.035-.02.035-.02.034-.022.033-.024.032-.024.031-.026.031-.027.029-.028.028-.029.027-.031.026-.031.024-.032.024-.033.022-.034.02-.035.02-.035.018-.037.016-.036.015-.038.014-.038.012-.038.01-.039.009-.039.008-.039.006-.04.004-.039.003-.04.001h-.04l-.04-.002-.039-.004-.04-.005-.039-.007-.039-.008-.038-.01-.038-.011-.038-.013-.037-.014-.037-.016-.035-.017-.036-.019-.034-.02-.034-.021-.032-.023-.032-.024-.031-.025-.029-.026-.029-.028L21 14.414l-1.293 1.293-.029.028-.029.026-.031.025-.032.024-.032.023-.034.021-.034.02-.036.019-.035.017-.037.016-.037.014-.038.013-.038.011-.038.01-.039.008-.039.007-.04.005-.039.004-.04.002h-.04l-.04-.001-.039-.003-.04-.004-.039-.006-.039-.008-.039-.009-.038-.01-.038-.012-.038-.014-.036-.015-.037-.016-.035-.018-.035-.02-.034-.02-.033-.022-.032-.024-.031-.024-.031-.026-.029-.027-.028-.028-.027-.029-.026-.031-.024-.031-.024-.032-.022-.033-.02-.034-.02-.035-.018-.035-.016-.037-.015-.036-.014-.038-.012-.038-.01-.038-.009-.039-.008-.039-.006-.039-.004-.04-.003-.039-.001-.04v-.04l.002-.04.004-.039.005-.04.007-.039.008-.039.01-.038.011-.038.013-.038.014-.037.016-.037.017-.035.019-.036.02-.034.021-.034.023-.032.024-.032.025-.031.026-.029.028-.029L21 9.019l-2.707 5.707-.058.028-.056.029-.055.03-.053.031-.051.033-.049.034-.048.039-.045.04-.045.038-.043.04-.044.04-.046.043-.048.041-.049.04-.051.036-.054.034-.055.02-.057.018-.057.016-.056.015-.057.015-.058.014-.058.013-.057.013-.058.013-.057.013-.058.014-.057.015-.057.016-.057.017-.057.019-.056.018-.056.02-.055.02-.055.021-.055.022-.055.022-.054.023-.055.024-.053.024-.054.025-.053.026-.043.026-.042.027-.042.031-.042.031-.044.029-.045.027-.045.025-.046.025-.047.018-.047.019-.047.018-.046.017-.046.016-.046.015-.046.012-.048.01-.047.007-.049.005-.048.003-.048.001-.048-.002-.049-.004-.047-.006-.048-.009-.047-.011-.047-.013-.045-.016-.045-.017-.044-.02-.043-.022-.042-.024-.041-.026-.04-.028-.038-.03-.036-.032-.035-.033-1.582-1.581-.023-.023-.019-.018-.019-.017-.02-.016-.02-.016-.02-.015-.02-.015-.021-.013-.021-.014-.02-.013-.022-.012-.022-.011-.022-.01-.022-.011-.022-.01-.022-.009-.022-.009-.023-.008-.022-.008-.023-.007-.024-.007-.023-.006-.024-.005-.023-.005-.024-.004-.024-.004-.024-.005-.024-.005-.023-.006-.023-.007-.024-.007-.023-.008-.023-.008-.022-.009-.023-.009-.022-.01-.022-.01-.022-.012-.022-.011-.022-.011-.022-.011-.022-.011-.022-.011-.022-.011-.022-.011-.022-.011-.022-.011-.022-.011-.022-.011-.022-.011-.022-.011-.022-.011-.022-.011-.022-.011-.022-.011-.022-.011-.022-.011-.022-.011-.022-.011-.022-.011-.022-.011-.022-.011-.022-.01-.022-.01-.022-.009-.022-.009-.023-.008-.022-.008-.023-.007-.024-.007-.023-.006-.024-.005-.023-.005-.024-.004-.024-.004-.024-.005-.024-.005-.023-.006-.023-.007-.024-.007-.023-.008-.023-.008-.022-.009-.023-.009-.022-.01-.022-.01-.022-.012-.022-.011-.021-.012-.022-.013-.021-.014-.02-.013-.021-.015-.02-.015-.02-.016-.02-.017-.02-.018-.019-.019-.018-.021-.017-.022-.016-.021-.015-.02-.015-.02-.015-.022-.016-.021-.016-.02-.016-.02-.017-.019-.018-.019-.023-.024-1.521-1.521-.033-.033-.03-.035-.025-.034-.025-.034-.025-.032-.027-.032-.027-.031-.029-.03-.029-.031-.031-.032-.031-.033-.031-.034-.03-.034-.03-.035-.028-.034-.029-.036-.027-.035-.027-.037-.027-.036-.025-.037-.026-.038-.024-.038-.024-.038-.023-.039-.023-.039-.022-.039-.021-.04-.02-.04-.02-.041-.019-.04-.019-.042-.018-.041-.017-.042-.016-.042-.016-.042-.015-.043-.014-.045-.013-.047-.011-.047-.01-.049-.009-.047-.017-.047-.016-.045-.015-.045-.017-.044-.019-.045-.012-.042-.011-.042-.011-.042-.009-.042-.009-.043-.009-.042-.008-.042-.007-.042-.006-.042-.005-.043-.004-.044-.003-.043-.002-.043-.001h-.081l-.035-.001-.034-.001-.034-.001-.034-.003-.034-.003-.035-.004-.034-.008-.033-.009-.033-.009-.034-.011-.032-.012-.032-.013-.032-.014-.031-.016-.03-.016-.03-.017-.03-.019-.028-.019-.028-.02-.027-.022-.027-.022-.025-.023-.025-.024-3-3-.024-.025-.023-.025-.022-.027-.022-.027-.02-.028-.019-.028-.019-.03-.017-.03-.016-.03-.016-.031-.014-.031-.013-.032-.012-.033-.011-.032-.009-.034-.009-.033-.007-.034-.007-.034-.005-.034-.003-.034-.003-.035L8 12.017v-.035l.001-.034.002-.034.003-.035.005-.034.007-.034.007-.034.009-.033.009-.034.011-.032.012-.033.013-.032.014-.031.016-.031.016-.03.017-.03.019-.03.019-.028.02-.028.022-.027.022-.027.023-.025 -.524-3.023-.023-.031-.022-.039-.021-.04-.02-.04-.018-.04-.017-.041-.017-.042-.017-.041-.016-.042-.015-.042-.014-.042-.012-.043-.011-.043-.011-.044-.009-.044-.006-.043-.005-.044-.003-.045-.002-.045.001-.045.002-.046.003-.046.001-.045.002-.045.002-.045.001-.045.002-.045.005-.044.007-.044.008-.043.011-.043.013-.042.015-.042.017-.044.018-.043.019-.044.021-.043.023-.041.025-.041.025-.041.024-.04.023-.042.02-.043.018-.044.018-.044.018-.044.018-.044.02-.044.022-.043.023-.042.025-.041.027-.04.029-.039.031-.038.032-.036.033-.035 1.593-.05.041-.053.043-.056.039-.058.036-.061.031-.062.027-.064.023-.066.019-.067.013-.068.01-.068.004h-.068l-.068-.004-.068-.01-.067-.013-.065-.018-.064-.029-.062-.024-.062-.028-.059-.031-.05-.03-.05-.03-.051-.03-.051-.029-.052-.029-.052-.028-.052-.028-.053-.027-.053-.026-.054-.025-.053-.025-.054-.025-.055-.023-.054-.023-.055-.022-.055-.022-.055-.021-.056-.02-.055-.02-.056-.018-.057-.019-.056-.017-.057.016-.057.015-.058.014-.058.011-.058.011-.059.009-.058.01-.058.011-.058.011-.058.014-.057.015-.057.016-.057.016-.056.018-.057.019-.055.018-.056.02-.055.02-.055.021-.055.022-.055.022-.054.023-.055.024-.053.024-.054.025-.053.026-.043.026-.042.027-.042.031-.042.031-.044.029-.045.027-.046.025-.047.023-.049.02-.049.017-.05.015-.051.012-.052.01-.053.007-.053.004-.053.004-.053.007-.051.01-.052.012-.05.015-.049.017-.049.02-.059.02-.067.013-.067.019-.066.023-.064.027-.063.031-.061.036-.058.039-.056.043-.053.047-.05 1.29-1.29.058-.058.062-.058.061-.058.063-.058.063-.057.063-.057.064-.055.064-.055.065-.054.065-.053.067-.052.066-.051.068-.051.068-.049.068-.049.069-.048.069-.047.07-.046.071-.045.071-.045.072-.043.072-.042.072-.042.073-.041.074-.04.074-.042.074-.042.073-.043.071-.045.071-.045.071-.045.072-.043.072-.042.072-.042.073-.041.074-.04.074-.041.074-.039.074-.038.075-.037.075-.036.076-.035.076-.034.077-.034.077-.032.077-.031.078-.031.078-.03.078-.028.079-.028.079-.027.08-.025.079-.025.08-.024.081-.023.081-.022.081-.021.081-.019.082-.019.081-.018.083-.017.082-.016.082-.015.083-.014.083-.013.084-.012.083-.011.084-.01.084-.009.084-.007.084-.007.084-.006.085-.005.084-.003.085-.003.085-.001.082-.001H20l.059.002zm-.058.021l-.076.027-.066.029-.066.03-.066.031-.066.033-.068.034-.068.028-.068.029-.068.027-.068.025-.069.024-.069.023-.07.021-.071.021-.071.018-.071.017-.072.017-.073.015-.073.014-.074.012-.075.011-.075.013-.075.013-.075.012-.075.013-.075.018-.074.02-.073.021-.074.022-.073.022-.072.024-.071.026-.05.028-.048.03-.047.036-.044.036-.043.039-.041.041-.039.043-.036.044-.034.047-.031.048-.028.05-.026.051-.023.053-.02.053-.017.054-.014.055-.011.056-.008.056-.004L20 20l.056.002z"/><path d="M21.083 10.015c.06.015.063.013.056.004.06.006.06.001.062.002zM29.707 10.009l.05.005.051.005.051.006.05.008.05.01.061.012.06.013.059.014.06.016.06.012.062.012.062.011.071.013.071.012.072.012.071.01.072.009.072.008.073.007.071.006.072.004.071.003.072.001.072-.001.072-.003.072-.004.071-.006.072-.008.071-.009.072-.011.071-.013.071-.015.071-.016.07-.018.07-.02.07-.021.07-.024.069-.024.068-.027.069-.028.068-.031.068-.03.067-.032.066-.035.065-.037.065-.039.064-.04.063-.043.062-.043.061-.046.06-.047.06-.049.058-.049.057-.051.058-.052.051-.053-.049-.05-.047-.057-.046-.057-.046-.057-.046-.057-.046-.057-.045-.757-.036-.051-.036-.05-.034-.051-.034-.052-.034-.053-.034-.054-.031-.055-.029-.057-.028-.058-.026-.063-.022-.063-.021-.063-.019-.064-.018-.064-.018-.064-.021-.063-.022-.062-.022-.06-.021-.058-.023-.057-.025-.057-.029-.055-.03-.053-.034-.052-.035.053-.037.056-.035.058-.031.061-.027.062-.023.062-.019.064-.016.064-.018.062-.026.062-.028.06-.03.061-.039.061-.04.062-.038.063-.037.063-.037.065-.037.065-.037.065-.037.065-.037.065-.037.065-.037.066-.037.068-.035.068-.035.068-.034.069-.032.069-.032.068-.034.069-.035.068-.035.068-.037.068-.037.068-.037.069-.035.078-.035.077-.034.077-.032.077-.031.078-.031.078-.03.078-.028.079-.028.079-.027.08-.025.079-.025.08-.024.081-.023.081-.022.081-.021.081-.019.082-.019.081-.018.083-.017.082-.016.082-.015.083-.014.083-.013.084-.012.083-.011.084-.01.084-.009.084-.007.084-.007.084-.006.085-.005.084-.003.085-.003.085-.001.082-.001h1.164l.082.001zM12 12.5a1.503 1.503 0 0 0-1.5-1.5A1.503 1.503 0 0 0 9 12.5v2a1.503 1.503 0 0 0 1.5 1.5 1.503 1.503 0 0 0 1.5-1.5v-2zM23 12.498c0-.827-.671-1.498-1.498-1.498h-.004c-.827 0-1.498.671-1.498 1.498v2.004c0 .827.671 1.498 1.498 1.498h.004c.827 0 1.498-.67 1.498-1.498v-.022zM21.244 24.128a.513.511 0 0 1-.579.061l-6 3a.503.503 0 0 1-.597.064.59.59 0 0 0-.158.066l-.347.156c.441.324.824.677 1.216 2.93l.001.17.014c.55.035 1.521.278.517.105a1 0 0 0 8.498-.008h.002z" fill="#fff"/><path d="M25 24.008a5.56 5.556 0 0 0-6.678-1.172L2 23v1.096L2 19 2h10V7c0 .375.116 1.099.17 2.591 1.054.746.295 1.516.879 2.652h2.55s-3.407-3.116-3.508-4.525a.498.498 0 0 1 .716.644" fill="#292f33"/></g></svg>
