<svg viewBox="0 0 32 32" xmlns="http://www.w3.org/2000/svg" fill-rule="evenodd" clip-rule="evenodd" stroke-linejoin="round" stroke-miterlimit="1.5"><path fill="none" d="M0 0h32v32H0z"/><path d="M3.946 13.892A13.992 13.992 0 0 1 25.9 7.138a9.98 9.98 0 0 1-3.305 7.292 11.04 11.04 0 0 1-3.839 2.325 10.978 10.978 0 0 1-3.64-.667 11.033 11.033 0 0 1-6.677-6.596 10.97 10.97 0 0 1-7.646-3.228 11.042 11.042 0 0 1-2.838-3.101 11.019 11.919 0 0 1-.63-3.613 12.04 12.04 0 0 1-.702-3.894 2.991 2.991 0 0 1-.365-.834 19.019 10.119 0 0 1-7.959 2.928 93.967 19.987 0 0 1-.606-3.309 209.715 269.816 0 0 1-3.184-3.004A7.982 9.982 0 0 1 1.065-1.16c.064-.028.068-.075 0-6.672 0a12.033 12.033 0 0 1-.759-.652 12.248 12.048 0 0 1-.298-1.645 1.042 1.042 0 0 1-.246-.402 1.017 1.016 0 0 1-.558-.271 1.008 1.008 0 0 1 .651-.713 1.055 1.055 0 0 1-.036-.704 1.018 1.017 0 0 1 .07-.226 1.013 1.013 0 0 1 .737.482 1.008 1.008 0 0 1 .035 1.01 1.001 1.001 0 0 1 .04 1.05l-3.221 3.998 4.557-3.207a1.042 1.042 0 0 1-.247-.492 1.017 1.017 0 0 1-.064 3.017 9.013 9.083 0 0 1 2.302-1.189c.089-.002.077-.006.77-.014.156v-3.587l.109-.705 2.518-1.752L22.996 19h.3a.5.5 0 0 1-.144-.05L5.699 18.603L10.25 7.023c-.912-.828-1.658-5.779-2.302-10.681a4 3 0 0 1 2.86-3.242 3.487 3.487 0 0 1 1.665-.709H23V1h6.024c.546 1.046 1.967 1.972 1.986.79.989 1.28 1.803.52 2.034" fill="#d99e8c"/><path d="M32.704 13.001l.077.003.077.005.076.006.076.008.075.008.075.011.074.012.074.013.074.013.074.015.073.015.073.017.073.017.073.017.072.017.07.074.07.076.07.077.06.071.058.072.058.073.058.074.056.074.055.074.052.075.051.076.05.078.051.07.049.07.051.071.053.06.043.061.042.062.04.063.039.064.037.065.035.065.034.066.031.067.03.068.028.067.027.069.024.068.024.069.021.07.02.07.018.069.016.071.015.071.013.071.011.071.009.072.008.071.006.072.004.071.003.072.001.072-.001.072-.003.072-.004.072-.006.072-.008.071-.009.072-.011.071-.013.071-.015.071-.016.07-.018.07-.02.07-.021.07-.024.069-.024.068-.027.069-.028.068-.031.067-.032.066-.034.065-.033.064-.037.063-.037.063-.038.063-.038.063-.04.062-.043.061-.044.06-.046.06-.047.058-.049.058-.051.056-.052.061-.059 1.167-1.167.041-.039.043-.036.044-.034.047-.031.048-.028.05-.026.051-.023.053-.02.053.016.054.014.055.01.055.007.056.004.056L21 21l-.002.056-.004.056-.008.056-.011.055-.014.054-.017.053-.02.053-.023.051-.026.05-.028.048-.031.047-.034.044-.036.043-.039.041-1.176 1.176-.087.085-2.116 1.862-.18.311-.32.481-.044.085-.048 1.791-1.372 1.262-.041.072-.045.07-.047.071-.04.079-.04.079-.043.071-.045.071-.045.072-.043.072-.042.072-.042.073-.041.074-.04.074-.041.074-.039.075-.038.076-.037.077-.037.077-.037.079-.036.089.034.09.033.091.031.042.022.043.025.042.026.041.027.04.028.039.029.037.03.036.031.033.034.032.034.031.035.028.035.026.037.026.039.025.041.025.041.025.041.027.041.027.039.028.039.03.039.03.038.023.037.025.035.025.034.026.033.027.032.03.03.03.029.031.029.031.029.03.029.029.031.027.032.026.032.025.034.023.035.022.036.02.037.018.037.017.038.015.039.014.04.012.04.01.041.009.042.007.042.005.042.004.043.002.044.001.044.001.045.002.044.003.045.005.044.008.043.009.044.011.042.013.042.015.041.017.04.018.039.021.039.022.037.023.037.026.035.026.034.027.033.029.032.03.032.029.035.028.035.027.036.024.037.023.038.021.038.019.04.018.041.016.041.014.042.024.042.022.043.021.044.02.044.019.046.017.046.016.046.013.046.011.047.009.048.006.047.004.049.002.048-.001.048.002z" fill="r2f2620"/></svg>
