<svg xmlns="http://www.w3.org/2000/svg" width="128" height="128" viewBox="0 0 128 128"><path fill="#FCC21B" d="M64 17.43C1.98 17.43.51 86.95.51 100.31c-.45-7.77 1.44-20.15 4.17-23.78 5.27-1.32 2.71.87 3.67 2.23C4 4.15 9.8 41.61 5.51 37.79l.07-.08c3.68 9.84 2.42 19.43 5.24 22.52z"/><path fill="#FBB91E" d="M31.55 90.92c-6.71.21-10.3-.03-28.55-2.58-4.83-12.31-8.09-16.69-12.84-21.8 0-32.56 11.4-42.66 42.66-42.66 25.04 1.66 46.45 4.52 55.75 7.2 68.21 0 3.52-2.38 6.69-5.39 7.76z" clip-path="url(#f)" fill="#242424"/><g opacity=".2" clip-path="url(#c)"><path d="M100.6 58.07c.01.02.03.08.03.08 1.14 4.06 4.63 4.58 8.7 0 13.33 1.84 15.68 1.83 16.69 0 25.09-9.82 27.66-14.36.31-1.05.95-2.07 1.5-2.97 1.03-3.22 2.16-5.47 3.03-7.05 5.31-2.24 10.76 3.05 16.74 5.4 2.02.6 5.39 1.71 8.76 2.98 2.87.12 5.3-.74 11.3-1.14 3.83-.58 7.47 1.07 12.85 9.5 2.92 6.13-1.07 12.38-7.04 14.91z"/><path fill="#F9A524" d="M23.71 88.9c-3.55 1.27-9.21-.65-10.87-4.94-1.58-4.31.65-8.64 4.79-10.42 4.62-1.54 9.54.66 11.26 5.51 1.64 4.49-.72 10.01-5.64 11.74z"/><path fill="#F9A723" d="M29.31 67.49c-3.46 6.23-11.24 10.58-19.99 9.58-4.88 4.91-10.96 13.79-14.84 19.03-16.01 19.65-3.68 1.63-5.51.01-7.78-.72-4.88-2.06-8.24-5.48-9.36-9.09zM111.71 29.01c-1.69-1.89-3.33-3.05-3.7-5.39-1.38-2.63-1.54-5.91-1.71-7.77 1.33-.81 0-6.29-.91-9.1-1.18-4.1-3.19-9.2-8.27-14.12-.33-1.17-.3-2.74.06-4.37zM80.74 40.2c.13-.08.27-.1 1.37-.06 3.4.24 6.63 3.61 9.49 4.59 4.23 1.81 9.31 4.71 9.98 4.09.56 0 1.41-.27 1.72-.88.79-.75 1.48-1.39 2.34-1.79 1.57-1.45 3.11-2.83 4.87-3.82 2.68-.09 5.08-.54 8.05.14 1.47 1.34 1.47 3.11 0 5.12-.64 3.51-1.11 5.3-.01 1.06.03 2.29.15 3.05.15.63.07 1.06.27 1.68.68.46.09.95.57 1.48.81 1.51.49 3.02 1.07 4.04 2.73.3.61.75 1.12 1.35 1.54.31.56.88.96 1.21.68.26.03.55.18.52.52.73.48 1.27.79 2.25.66.64.14 10.21.75 16.19.96 1.94.16 3.59.49 4.54.69 1.14.64 2.31.69 3.29.94.65 1.76.39 3.1-1.68 4.21a17.662 16.05 0 0 0 38 28.15c.81 0 1.85.47 2.04 1.34.28 0 .46.08.75.63l.01.01c.5 0 9.56 2.84 10.26 3.62 4.12 0 6.23-1.54 6.51-4.05.31-1.42-.71-2.82-1.18-3.52-.58-1.27-.43-2.94.97-3.75z"/></g></svg>
