<svg viewBox="0 0 32 32" xmlns="http://www.w3.org/2000/svg" fill-rule="evenodd" clip-rule="evenodd" stroke-linejoin="round" stroke-miterlimit="1.5"><path fill="none" d="M0 0h32v32H0z"/><path d="M15.174 2.001a13.98 13.98 0 0 1 4.546.819 14.045 14.045 0 0 1 5.422 3.529 13.99 13.99 0 0 1 3.857 9.477c.009 1.434.009 2.869 0 4.303a9.967 9.967 0 0 1-3.099 7.109 9.983 9.983 0 0 1-6.771 2.761c-2.753.018-5.505.018-8.258 0a9.967 9.967 0 0 1-7.026-3.013 9.983 9.983 0 0 1-2.844-6.857 259.76 259.76 0 0 1 0-3.303A13.975 13.975 0 0 1 15.996 2l.16.001a7.98 8.98 0 0 1 3.365-7.602H9.381a2.48 2.48 0 0 1-2.513-1.596 3.502 3.502 0 0 1-3.023-.073 3.968 3.968 0 0 1-2.828-3.101 4.664 4.664 0 0 1-5.855-4.072c-.403-.416-.064-.793-.012-1.634 0-2.358 1.145-4.08 2.024-4.298 2.031a1.032 1.033 0 0 0-1.3-.795 1.596 1.996 0 0 0-1.382-.773 1.01 1.01 0 0 1-1.4-.566 2.495 2.495 0 0 1-.113-.418c.198-.425.437-.735.624-1.1.368a.473.473 0 0 1-.007-.929c-.005-.063-.03-.067-.053-.107-.005-.024-.016-.025-.016-.025.016-.023.03-1.034 0-3.281-1.432a.463.463 0 0 0-.671-.061c-.076-.001-.171-.002-.106.008-.108.009-.103a3.143 3.143 0 0 1 1.261-1.69c.135-.002.315-.003.386-.006l.187 1.873A1 1 0 0 1 .291-1.057c1.038-.725 2.512-.015 3.351-.357.348-.15.833-.215 1.256.334.224.027.327.078.341a3.003 3.003 0 0 1 2.632 3.719 6.02 6.02 0 0 1 2.375 1.914c.089.306.106.743.275.868l.018.064c0 .162.009.315.014.316.024.488.03.817.08.5 0 1.154.009 2.761.084 2.072 0 1.358-.013 1.117-.07 1.682-.088.15.095 1.187.43 2.35.502.516.03 1.134.002 1.632.002a2.25 2.259 0 0 0-2.544-.323 2.567 2.567 0 0 1-.507-.199 3.028 3.028 0 0 1-.303-.671A33 13.035 14.035 0 0 1 8.14-3.181c.498-.044.914-.005 1.383a9.98 9.968 0 0 1-.625-3.019c-.003-.776-.005-1.533 0-2.303a13.99 13.99 0 0 1 3.857-9.477A14.037 14.037 0 0 1 11.28 3.82a13.98 13.98 0 0 1 4.546-.819 13.967 13.965 0 0 1 4.034-.049H13l.013.012a3.124 2.224 0 0 1-2.013-6.257 2.648 2.648 0 0 1-.063-.188c-.01-.177-.044-.311-.03-.202a3.135 9.135 0 0 1 .266-1.183 2.687 2.787 0 0 1-1.659-.184 3.478 3.478 0 0 1-.435.313c-.033.007-.027.015-.156.023-.11.029-.101.04-.009.002-.007.008.008.008.008.007.007.007.007.007.007.007.007.009.007.009.007.009.007.009.007.01.006.009.006.009.005.01.005.01.005.01.005.01.005.01.005.011.004.01.003.011.004.01.003.011.003.011.003.01.003.011.002.011.002.011.001.011.002.011.001.011.002.011.001.011.002.011.001.011.002.011.001.011.002.011.001.011.002.011.001.011.002.011.001.011.002.011.001.011.002.011.001.011.002.011.001.011.002.011.001.011.002.011.001.011.002.011.001.011.002.011.001.011.002.011.001.011.002.011.001.011.002.011.001.011.001.012.001h.044l.012-.001.011-.001.011-.001.011-.002.011-.001.011-.002.011-.002.01-.003.011-.003.011.003.01.003.011.002.011.002.011.002.011.002.011.001.011.002.011.001.011.002.011.001.011.002.011.001.011.002.011.001.011.002.011.001.011.002.011.001.011.002.011.001.011.002.011.001.011.002.011.001.011.002.011.001.011.002.011.001.011.002.011.001.011.001.011.001.012.001.011.002h.045l.011-.001.01-.002.011-.001h.014l.029.001zM12.048 17.001l.04.004.039.006.04.007.038.008.038.011.038.011.038.013.037.015.037.016.035.018.035.019.034.02.034.022.032.023.032.024.03.025.03.027.028.028.027.029.026.03.025.031.024.032.022.033.021.034.02.034.018.035.017.036.015.037.014.037.013.038.011.038.009.039.008.039.006.039.005.04.003.039.001.04v.04l-.002.04-.004.039-.005.04-.007.039-.008.039-.01.038-.011.038-.013.038-.014.037-.016.037-.017.035-.019.036-.02.034-.021.034-.023.032-.024.032-.025.031-.026.029-.028.029-1.856 1.856 1.465.489.048.013.048.013.049.01.049.009.049.008.05.007.051.006.05.005.051.003.051.002h10.104l.051-.002.051-.003.05-.005.041-.006.041-.008.041-.01.041-.012.04-.013.04-.014.04-.016.039-.017.038-.018.038-.021.037-.023.036-.023.035-.026.035-.027.034-.029.035-.029.035-.03.034-.031.033-.031.033-.03.033-.03.035-.027.035-.027.037-.026.037-.026.038-.024.039-.023.04-.02h.04-.029.041-.026.042-.024.043-.022.044-.02.045-.017.045-.016.047-.013.047-.011.048-.009.047-.006.049-.004.048-.002.048.001z" fill="red"/></svg>
