<svg xmlns="http://www.w3.org/2000/svg" width="128" height="128" viewBox="0 0 128 128"><path fill="#FFF" d="M50.61 20.88c1.88-1.69 4.51-2.94 4.77-4.88 3.02-2.05 4.37-4.83 4.38-7.23 2.59-3.45 7.14-3.42 8.02-3.67 1.44-.05 2.55.24 3.2 1.14.4.2 1.63-1.28 3.57-2.26 8.44-2.24 2.63-5.67 3.87-8.46 3.61a5.87 5.87 0 0 1-6.87.16c-1.08 1.88-3.62 4.39-6.77 6.14-.69 2.87.11 6.13 1.45 6.78 1.71 3.53 2.34 6.64 3.98 10.91 3.71 4.34-1.18 6.31-3.34 7.58-10.42.01-.01.01-.07.02-.11.02zM19.63 84.95c.1 3.28 3.32 5.12 7.3 2.94 3.1 0 4.82-3.54 7.75-7.32l.12-7.92z" fill="#2f2f2f"/><path d="M107.88 72.83c-.62 0-1.43-.03-1.85-.06-17.44-2.46-34.34-4.48-42.45-5.01 0-20.58 5.83-40.23 16.96-4.5.29-1.45.83-2.46 1.4-4.56-.77-1.22-1.5-1.55-2.22-2.12-.82-.49-2.13-.89-3.03-.97-.99-.05-1.33-.24-2.04-.42-.99-.59-1.41-1.14-1.89-1.81-1.2-2.64.03-5.48 1.21-7.69 1.02-1.07-.12-3.17-.2-5.28.19-1.19.62-2.47 3.04-.84 1.47-.23 1.96.57 3.2 2.29.13.2-.33.39-.6.33-1 1.29-1.77 2.29-2.49-.89-3-1.56-7.44-1.37-11.77zM88.82 28.92c.95.06.78.16 1.05.56 1.51 1.07 1.89 1.49 3.98 1.69 5.27.97 1.94 2.44 3.59 3.26 4.17 3.08 2.99 7.55 4.27 11.7 4.88 2.91 1.14 5.08 1.75 7.72.33 2.63 4.51 5.93 5.74 5.06 1.79.5 3.2 1.01 5.06 1.77.36.11.67.3.65.47 1.26-.18.38.34.51.84.84 1.32.21.36.61.61.71.99l-.07.47c-.04.35-.28.5-.28.94-.22.93-.15 1.36-.11 2.29-.17 1.56 1.09 1.95 3.17.33 7.29-.24 15.94-10.13 19.78zM86.07 50.04c-.04.01-.02 0-.07 00.002-.02c.02-.01.02-.02.07-.02.11 0 1.22-.83 1.26-1.38.29-.27.15-.43.3-.63.17 1.73.37 2.53 1.1 3.58 1.19 1.83-.01 3.49-.58 5.03-.97 1.57-.78 3.39-.43 5.18.06.12.07.24.04.21.03.03.03.03.03.03.03.33.03.46.03.11-.04.2-.07.27-.46 1.23-.61 2.75-.69 3.73-.01.69 0 1.33-.01 2.25-.07 2.69-1.48 4.83-2.78 7.31-2.24 2.04-.85 4.38-1.82 5.07-3.38.68-.31 1.73-.68 2.69-.6.76.33 1.43.65 2.34 1.05zM115.79 12.92c-.42.4-.61.82-1.01 1.62-1.49.04-.87-.11-1.46-.44-2.25-.34-.63.09-1.48.63-1.79.92-.88.42-1.54.94-2.37.9-.97 1.11-1.91 2.66-2.23 1.13.09.71.16.31.23.39.03.11.15.33.09.48.11.84.41 1.07.21.17.05.18.13.34.21.07.07.11.17.27.06.04.06.05.11.2 2.59 3.05 4.04 5.96 4.86 7.86.13.37.38-.8.55-.9.51-.58 1.18-1.04 1.61-1.48.52-.38 1.31-.71 1.49-.7.45-.39 1.03-1.43 1.49-2.03.2-.14.54-.3.94-.39.42-.26.86-.51 1.33-.73.39-.3.66-.39 1.37-.33.21-.49.15-.8.45-.9.77-.54 1.37-1.25 1.43-1.05z"/></svg></svg></svg>
