<svg xmlns="http://www.w3.org/2000/svg" width="128" height="128" viewBox="0 0 128 128"><path fill="#78A3AD" d="M16.22 32.55c3.21 3.51 9.22 4.09 13.09 4.68 1.59.55 3.21 1.04 4.57 2.04 1.96 1.08 3.21 2.09 4.24 3.49a2.66 2.66 0 0 1 4.19.34c.57.31 1.06.97 1.52 1.12.52.61 1.07 1.36 1.4 2.53l-.03.28s-.06.15-.9.14c-.39.34-.98.72-1.56.67l-.39-.22c.34-1.33.58-1.91 1.31-1.95 1.44l-.03-.09 1.63 1.34 5.32 2.31 1.14.36v14.92c-.12.18-.38.35-.54.31h-.01l.1.01.01.01.03.01h.01c.61.01 1.7.17 2.17 1.18.54.4 1.06.96 2.16.98.49.1 1.36.01 1.73.01 1.71.06 3.28.14 1.67.04 3.18.49 4.47.63.49-.05.91-.14 1.6-.04 1.9.01 5.16-.09 7.79-.38 7.57 3.07 11.55 14.35 11.19 19.88 2.34 9.67 0 18.75-1.4 27.75-2.44 1.23.48 1.67 2.31.06 3.65z"/></svg><path d="M63.89 63.55c-13.71 0-20.34-4.72-26.29-15.37V53.16C8 64.73.84 84.7 9.24 61 .04 13.97s-8.1 79.14-20.72 9.36z" fill="url(#a)"/><path d="M64 11.11c14.99 0 28.86 4.95 39.03 13.93C114.13 34.83 120 48.65 120 65c0 16.27-5.87 30.07-16.97 39.89-10.21 9.03-24.07 14-39.03 14-15.04 0-28.9-4.91-39.04-13.82C13.86 95.32 8 81.46 8 65c0-16.57 5.86-30.33 16.91-40.05C35.14 15.89 48.97 10.23 64 10.36m0-4C32.93 6.26 4.13 20.21 47.13 3.53 35.13-2.61 63.02-20.01 67.59 6.99 65.98 6.99 60.09-4.69 50.33-27.01 47.34-37.91 25.24 0 40.79 16.86 57.9 63.27 0 31.68 0 38.22 18.81 57.92 0 0 12-4.48 32.05s-63.3-29.13-53.5-23.22c0-4.39 1.19-7.31 6.37-7.37 14.14 0 27.35 16.82 24.76 17.77 4.13 10.23-1.75 21.74-9.78 25.67z" fill="#fbbb1d"/><path d="M30.61 88.36c-8.08 2.96-17.01-1.05-20.69-10.41-2.65-9.77 1.43-19.74 10.79-23.58 9.37-8.25 19.55 1.42 21.39 10.02 3.29 9.77-1.51 19.78-10.67 21.52z" fill="#fcbe1c"/><path d="M30.84 89c-8.44 3.03-17.74-1.24-20.81-9.57-3.06-8.32 1.27-17.53 9.7-20.57 8.41-3.03 17.74 1.26 20.82 9.58 3.05 8.33-1.29 17.54-9.71 20.56z" fill="#fbbb1d"/><path d="M30.61 88.36c-8.08 2.9-17-1.19-19.93-9.17-2.93-7.97 1.22-16.79 9.3-19.7 8.06-2.9 16 1.26 15.07 8.69 2.18 7.68-1.25 17.3-9.31 19.61z"/><path fill="#FAAE21" d="M19.27 55.86c-6.31 2.2-13.42-.92-15.55-7.25-2.26-6.24.95-13.14 7.3-15.18 6.41-2.33 13.76.97 15.1 7.38 2.37 6.05-.94 12.64-7.3 14.74-7.77 10.93-33.45 15.1-42.36 4.1z" fill="#ed6c30"/><g fill="#2f2f2f"><path d="M42 58.3c-4.49.04-8.17-4.27-8.22-9.62-.05-5.37 3.55-9.75 8.04-9.79 4.48-.04 8.17 4.27 8.22 9.64.04 5.35-3.56 9.73-8.04 9.77zM230.99-52.99c4.48-.01 8.11-4.36 8.1-9.71-.01-5.37-3.66-9.7-8.14-9.69-4.49.01-8.13 4.36-8.12 9.73.01 5.35 3.67 9.68 8.16 9.67z"/></g></svg>
