<svg xmlns="http://www.w3.org/2000/svg" xmlns:xlink="http://www.w3.org/1999/xlink" width="128" height="128" viewBox="0 0 128 128"><path fill="#FCC21B" d="M64 17.43C1.98 17.43.51 86.95.51 100.71c-.85-10.3 1.63-26.7 14.73-28.89 16.45-2.63 39.46 1.18 43.94 9.16 6.73 12.96-1.99 24.69-13.75 24.57z"/><path fill="#FCC01C" d="M85.58 92.27c-9.5 3.52-16.78-1.24-20.5-9.31-3.77-8.8 1.21-18.43 10.0-21.46 8.75-3.14 18.36 1.31 22.65 9.98 3.18 8.62-1.34 18.25-10.1 21.39z"/><path fill="#FAB020" d="M86.04 75.14c-6.46 2.34-14.45-1.08-17.68-8.42-2.55-6.79 1.06-14.28 8.08-17.12 7-2.42 14.76 1.04 17 10.87 19.86 10.97 3.04 17.68-1.43 22.48-9.1 20.32z" fill="#f9a324"/><path d="M72.23 85.05c-14.01 12.27-34.14 3.02-58.62 15.49-41.64 4.81-21.29 16.01-33.21 33.77-29.04 33.54-25.82 36.69-25.35 37.55-28.61.49-30.65-2.46-34.32-5.58-.83-14.26-2.58-20.28 3.27-27.15 5.41-.89.97-1.93.63-2.9.31-.21.32-.06.73.61 1.01 6.98-5.05 11.9-11.12 12.76-25.91-.69-9.22-1.62-17.77 2.27-23.16.78-2.12.59-6.31-.69-12.67-.83-2.23-1-3.88-2.8-5.21-3.38-.85-1.34-.54-2.94-.21-4.73.06-.82.82-1.21 1.21-1.89 1.06-.09 3.05-.24 4.6-.03 2.6-.05 5.77.01 7.28.21 4.81 0 1.69-.14 4.16-.16 4.06 0 .69 4.74 4.05 9.8 4.09 1.02.08 1.82.12 2.83.88.79 1.63 2.24 2.53 3.25.74.89 2.51 1.14 4.2 1.35 3.41.86 7.27 2.47 10.37 2.73 3.35.86 1.72 1.49 3.24 1.11 7.56 1.43 10.77 3.21 13.79 1.77 1.64 0 3.7-.15 4.8-.74 2.57-.38 5.98-1.55 7.89-4.53 2.18-2.05 3.93-4.25 3.88-6.76-.13-1.36-1.25-2.26-1.76-3.45-.16-.44-.32-.68-.44-.92-.38-.75-.91-1.43-1.07-1.96-.42-.47-.79-.94-1.19-1.06-.63-.49-1.31-.78-1.74-1.1-1.62-2.77-4.54-7.21-6.77-10.18-.57-.95-.36-1.77-.51-2.71zM18.34 76.94c.16 0 .35-.01.38-.03l67.5-17.49c-.43-.62-.26-1.66.34-2.43 1.08-.21 2.26 0 3.65.17 9.29.19 1.51.68 2.03.89 3.45l-16.56 3.85a2.089 2.089 0 0 0-1.58-2.14 2.94 2.94 0 0 1 3.34-2 2.72 24.02 0 0 1 3.12-3.69l-16.86 7.55-10.32 7.63c-.92 1.19-1.24 1.91-2.78 1.85-1.25-.57-2.16-1.24-1.69-2.57-.21-.68-.41-1.2-.72-1.69-.16-.65-.41-1.01-.5-1.4-.25-.79-.5-1.67-.5-2.74 0-1.65.93-3.15 1.72-4.02.9-1.4 1.72-1.84 3.12-.49 1.17-1.34.98-2 1.89-.45 4.18.76 7.41 2.98 1.17 1.76-.71 3.38-2.25 5.67-2.5 2.51-5.01 4.17-6.21 7.27-.48.72-.52 1.28-.04 1.66.04z"/><path fill="#2F2F2F" d="M64.89 69.91v5.52c9.68 5.05 20.19 8.2 24.48 11.71 3.44.88 13.49 1.61 22.65 1.27.91-.18 1.75-.34 2.56-1.41.05-.4.05-.73.04-.4.09 0 0-.25-.13-.52-1.44-.48-.37-1.11-.45-1.67-.72-.62-.22-1.1-.32-1.65-.34-.99-.59-1.76-.99-2.64 1.52-2.93 2.04-4.28 4.59-8.25 6.42-2.82.65-5.71-.31-7.36-2.13-1.02-.74-.39-1.67-.37-2.45-.04-.65.09-1.12.22-1.57.12-1.16.66-2.46.67-4.14-.56-.67-6.4.39-9.21.63-12.53 1.72-4.85 3.19-7.37 6.2-6.38 1.81.08 1.85.63 3.26 1.01 3.75-.52 5.81-2.85 6.04-7.37.69-.79-.07-1.38-.14-2.11.01z"/></svg>
