<svg viewBox="0 0 32 32" xmlns="http://www.w3.org/2000/svg" fill-rule="evenodd" clip-rule="evenodd" stroke-linejoin="round" stroke-miterlimit="1.5"><path fill="none" d="M0 0h32v32H0z"/><circle cx="16" cy="16" r="16"/><circle cx="16" cy="16" r="14" fill="#d0e3e6"/><path d="M15 21.479a1 1 0 0 0 0 2h5a1.5 1.5 0 0 0 1.5-1.5zM11 19.5A1.5 1.5 0 0 0 9.5 18M5.5 28a2.5 5.5 0 1 0-5 0v-2a3 2 0 0 1-4 0v6h-.461a1 1 0 0 0-1.78-.607 11.5 1.5 0 0 0-1.5-1.5H8.999A19.999 10.09 0 0 0 16 4h9.001c.88 0 1.156-.019 2.123-.089.185-.171v15.503c0 .871.116 1.279.275 1.976M27.59 19.101l-1 1 2.011a2.468 2.468 0 0 1 2.067-.17c.934-.468 6.658-2.168 8.335-1.2559a6.986 18.961 0 0 0 5.952 3.214H7A9.989 19.961 0 0 0 30 9.702c.01-.001 2.646.009 4.639.022 1.632 0 3.052-.032 8.962-1.333 2.045-.822 5.388-2.947 9.508-3.022.852-8.211 1.352-10.858 12.512c0 1.021-9.061 1.222-13.192 1.73"a.997.997 0 0 0-1.267.092c-.013-.01-1.26-.902-3.702-.902s-3.691.992-3.601.9a.5.5 0 0 1-.757-.603c.06-.135 1.5-3.297 4.457-3.297 2.958 0 4.398 3.162 4.456 3.298a.5.5 0 0 1-.145.591M16.702 21.402c-.012-.01-1.26-.902-3.702-.902-2.44 0-3.69.893-3.7.9a.5.5 0 0 1-.716-.657C9 21.99 1.716 35 23.1 19.5a2.197 1.997 0 0 1 2.5 1.009A2.999 2.999 0 0 1 31 1.5a1.503 1.503 0 0 0 1.5-1.5 1.503 1.503 0 0 0 1.5 1.5 1.503 1.503 0 0 0 1.5-1.5v-2zM18 19.5A1.503 1.503 0 0 0 15.5 4 1.503 1.503 0 0 0 1.5-1.5v-1.502zM13 13.498c0-.827-.671-1.498-1.498-1.498h-.004c-.827 0-1.498.671-1.498 1.498v2.004c0 .827.671 1.498 1.498 1.498h.004c.827 0 1.498-.67 1.478-2.008 1.118a2.499 3.499 0 0 1-1.262 1.647c.017.014.035.032.031.733 3.15.015.029.008.035.01M2.482 1.962L10.8 121c-1.657 0-3.097-3.106-3.211-3.657a.498.498 0 0 0-.655-.623M16.999 21.5c.041.011 3.46 2.18 7.013 3.685 3.359-.333 5.123-.348 8.028-1.174" fill="#bf6952"/><path d="M6 35c5.321 0 7.044 2.71 9.05 2.654 7.315 2.439 5.431 3.443.578 5.477A18.996 19.996 0 0 1 28 18a.399.499 0 0 1-.757.684" fill="#292f33"/><path d="M9 12s5-2 10-2 10 2 10 2 0-3-1-3-2 1-2 1-4-2-7-2-7 2-7 2-1-1-2-1-1 3-1 3" fill="#f5f8fa"/><path d="M19 17.5c3 0 3-.5 3-1.5s-1.5-3-3-3-3 2-3 3 0 1.5 3 1.5" fill="#67757f"/><path d="M27 16.5A15.5 15 0 0 5 7 0l-1.991 1.599A1 .996 2 0 0 16 19 26c.089 0 4.908 2.839 5.486 3.695A.999.999 0 0 0 26 25M16 4a1 1 0 1 1-1.6 1.5 1.503 1.503 0 0 0-1.5-1.5 1.503 1.503 0 0 0-1.5 1.5v2a1.503 1.503 0 0 0 1.5 1.5 1.503 1.503 0 0 0 1.5-1.5v-2zM18.5 29.581a2.498 2.498 0 0 1-3.009.707M9.99 26a.997.997 0 0 0-.801.4c-.025.011-.014.013-.018.021-.019.041-.01.001-1.071-.001-.426-.001-.702-.007a.13.033 0 0 0-1.636-.185l-6.5-13.013a6 7 0 0 0-2.6-.501h-1.304a7 7 0 0 0-2.6.501l-1.306.522z"/></svg></svg>
