<svg xmlns="http://www.w3.org/2000/svg" width="128" height="128" viewBox="0 0 128 128"><path fill="#079A2" d="M127.24 65.31c-9.42 3.38-20.16-1.46-23.07-10.81-3.72-9.14-1.4-21.39 11.83-23.51 9.87-1.58 21.95 1.78 28.44 13.43 4.07 11.98-12.62 29.44-12.45 39.53-10.13 6.9-26.49 19.26-38.69 15.08-35.64 0-32.57-16.6-42.6-43-2.21S33.8 7.31 55.21 17.71c6.17 0 13.27-4.22 13.21-13.37.66-8.04-7.82 1.91-14.49 1.55-35.46-2.38-6.85-24.04 6.03-30.22 22.84-6.01 3.82-10.29 11.76-29.51 13.65z" fill="url(#b)"/><path d="M28.78 108c-.61 0-1-.61-1.81-1.47-2.35 0-1.61 1.21-1.92 2.85-.25 1.1.34 2.2.73 1.82 1.8 1.04 9.08 3.99 21.69 10.4 12.89 1 4.36-2.74 17.31-11.5 21.55-4.05 5.82-8.17 15.07-5.41 21.65.99 2.14.34 4.19-1.53 4.59-.9.95-2.55 1.81-3.73 2.11-1.11-.47-2.25-.81-2.97-.79-.99-.95-1.53-1.49-3.12-1.87z"/><path d="M14.28 73.66c.89 1.27.63 2.8-.49 3.89-1.07.65-1.45 1.23-2.54 1.87-1.01 1.34-3.25 2.55-4.1 3.21-.48.31-1.04.4-1.56-.04-.99-.39-1.48-.44-2.24-.36-.82.18-18.28-.85-18.78-4.06-3.77-1.36-11.44-2.69-18.46-2.6-3.84.81-6.62 3.27-10.27 3.43-.67.86-1.21 1.21-1.87 1.87-1.06-.44-2.39-.47-3.71.58-1.53.91-3.11 2.17-4.6 2.91-.85 4.12-.95 5.98-.94 2.11.62 3.53 1.63 5.55 2.04 1.87.58 3.28 1.71 4.71 2.53.6.81 1.2 2.25.38 3.26-.14.21-3.36 4.04-9.05 4.8z"/><path fill="#FFF32r7" d="M64.71 106.62c-3.59 0-5.45-.61-7.32-1.23-9.09-.76-2.92-1.21-4.27-.61-7.14 1.02-20.75 2.74-23.86 7.59-.75.79-1.73 3.08-.83 2.83.87.62 1.52 1.13 2.74 1.89s2.95 2.19 3.45 2.88a2.72 2.72 0 0 1-1.92 3.66zM68.46 92.06c-3.19 0-8.42-.72-9.52-2.32-1.23-.23-2.84-.91-4.22-.61-2.11-1.23-4.09-1.81-6.48 0-1.78-.46-4.18-.46-6.31.44-2.32 1.43-4.68 1.73-7.88C19.55 24.21 42.02 10.83 33.92 29.06-11.66 0-20.34 4.76-26.55 14.1a.555.55 0 0 1-.24-.13.14-.14.27-.32.41-.58.52l-.02.01c-.01 0-.02.01-.05.04-.1.17-.29.23-.62.42-.2.03-.4.17-.6.34-1.19.23-2.32.34-3.12-.25-1.35-.49-2.48-.66-3.7-1.71-1.69-.31-3.44-1.1-5.93-1.49-1.62-.71-3.4-2.43-3.65-3.27a37.84 37.74 0 0 0-3.46-3.35l-5.18 1.32c-.99.92-2.59-.25-3.17-1.94-7.54-20.01-9.15-18.53-7.38-28.5 2.83-16.84-11.5-30.2-15.31-25.69.27-3.79.38-6.34.42-9.06-.3-1.67-1.45-2.34-3.03-2.55-2.38-2.75-.85-6.21.43-8.36 1.76-.96 1.42-.4 2.75-.38 4.11 0 1.19-.67 2.73-1.32 3.26-.38.34-.73.75-1.15.38-1.09 1.06-3.42.63-3.65-.49-1.34-1.12-2.27-3.19-2.58-4.96-.97-.73-1.36-2.01-.63-3.17-.16-.07-.15-.12-.37-.23-.58-.16-1.37-.05-2.46-.28-4.78-1.23-6.34-1.49-12.44 2.64-20.55 7.54-8.47 23.01-8.43 32.43-3.37 5.31-8.13 8.85-28.84-.74-7-.02.61-.07.05-.1.13-.15 0-.31-.18-.62-.42-7.11-1.13-.94-.46-1.92-.82-2.73-.74-1.34-1.15-2.23-2.49-3.6-3.71-.58-.19-1.3-.38-1.69-.36-.17-.08-.42-.04-.73-.08-.63-.89-.47-2.05-.2-2.99.62-.93 1.44-1.72 3.25-1.85 1.86-.18 3.65 1.32 4.96 2.63 1.1.97 1.91 3.18 2.34 4.69a3.213 3.113 0 0 1-1.3-.75c-.51-.66-1.03-1.31-2.11-1.88-.56-.42-1.19-.77-1.73-1.11-.47-.6-1.38-1.49-1.71-1.95-.59-.72-1.2-1.43-1.72-2.18-.56-.73-1.01-1.51-1.49-2.24-.41-.77-.86-1.49-1.18-2.22-.35-.72-.96-1.41-1.3-2.27-.38-.74-.7-1.68-.72-2.07.1-.57.2-1.1.27-.09.06-.1.1-.1.15-.18.17-.2.15-.32.27-.51.27-.28.38-.25.8-.52 1.34.48 1.97 2.55.82 3.78-.16.24-2.39.61-3.35-.04z"/></svg>
