<svg xmlns="http://www.w3.org/2000/svg" viewBox="0 0 128 128"><path d="M-94.5 9.56c-5.51 1.87-13.57-.9-13.29-6.55-1.97-5.34.82-11.2 6.2-13.26 5.48-1.97 11.4 1.16 13.3 8.23 1.96 1.86 1.95 3.57 2.09 5.99-.49 5.71-1.01 9.51-1.71 11.09-10.88 19.86-23.89 19.56-31.77 13.43-25.03 0-32.58-19.42-31.16-21.66-46.69-13.56 3.34-7.72 15.19-15.71 22.78-9.67 6.85 18.3 4.7 27.73 15.8 28.94 21.34 15.63 28.74 15 26.83 26.39 16.99 21.69 0 56.47-8.49 62.46-22.35.62-1.81-.68-3.8-.89-4.84-.94-1.78-1.02-3.97-1.74-5.24 1.36-1.11 3.49-1.27 4.88-1.49 8.54 0 17.49 1.2 32.49 3.1z" fill="url(#b)"/><g><path d="M57.88 72.75c1.67-1.09 3.71-2.48 5-.5-3.8-1.76-2.43-3.04-4.71-3.81-7.08 0-3.78 2.53-6.73 6.27-6.28 4.09 0 6.27 3.37 5.7 6.42l-.06 3.32zM75.55 74.27c-.35-2.75.41-5.92 2.31-5.06 2.44-.88 4.79 1.07 5.95 4.03 1.66 4.3-.43 6.91-3.13 7.5z"/><path fill="#FBB917" d="M83.11 91.62c-8.1 2.51-17.06-1.28-20.45-9.11-3.02-8.77 1.23-17.26 10.11-21.5 7.87-3.65 18.45 1.31 21.69 9.98 3.15 8.63-1.33 18.24-10.05 21.29z"/><path fill="#FBBB1D" d="M85.11 93.12c-67.71 35.28-77.46 62-28.06 62.34S8.54 8.94 65.22 8.26 64.74"/><path fill="#2F2F2F" d="M30.96 64.07c-.31-3.79-3.51-5.06-7.12-5.08-3.33 0-6.77 2.63-7.01 5.77V48.28c-.61.45-1.58 1.2-1.54 2.12-1.34 3.44-2.37 8.71-5.21 13.69-5.05 4.83-1.61 7.34-2.15 12.41 2.94 10.32 8.3 15.3 8.65 25.41-.01 3.23-4.05 4.71-5.77 6.64-2.86 2.42-5.03 5.13-5.13 4.93-2.13.19-3.96-1.5-5.36-3.18-1.09-1.58-3.07-3.31-5.67-3.71-6.52-.01-10.59-9.14-11.86-9.39zM20.24 30.03c-3.46.83-6.84 3.63-7.9 2.65s-.67 4.62-4.56 8.06-3.54c-2.79 1.76-3.55 3.92-5.62 4.96-2.05.81-4.11 3.3-6.61 7.76-2.75 2.87-6.63 6.27-8.25 8.13-3.64 4.09-8.08 8.17-12.08 4.84-.38.84-.86 1.56-.84 2.9-.11.4-.16.6-.39.58z"/><path fill="#2F2F2F" d="M77.17 69.37c-1.04-.31-2.05.24-3.04 1.96-2.31 2.94-.84 5.58-.71 8.85 1.05 21.47 8.54 20.26 1.92 3.83 8.65 2.65 13.76-.66 27.3-1.62.82-.23 1.81-.53 1.94-1.3-.29-1.19-1.9-2.12-2.61-2.21-.57-.4-1.17-.81-1.6-1.32-.46-1.23.79-2.4 1.22-2.87 1.14-.78 2.71-.33 3.8.32 1.58 1.07 3.54 1.1 5.09.52a12.24 22.32 0 4.43-5.24 5.33-6.38.12-.17.21-.32.3-.42.19-.22.26-.33.31-.51.63-1.23.79-2.12 1.07-3.46-3.38.33-1.04 0-2.25.04-.88.11-1.4.05-.94.29-1.51.36-2.21.24-.57.25-1.43.31-2.24 0-.58-.09-1.18-.17-1.62z"/></g></svg>
