<svg xmlns="http://www.w3.org/2000/svg" width="128" height="128" viewBox="0 0 128 128"><path fill="#2F2F2F" d="M28.66 64.9h76.51v19.2H28.66zM41.43 95.16h45.56v19.2H41.43z"/><path fill="#F79329" d="M125.08 95.27l-7.74-1.43 2.61 2.31.18 3.06l3.49 1.79c-.7 3.48-.45 7.36.9 10.65.23 1.54.73 3.21-.62 4.26-.17.03-.35.03-.85.17-1.09.42-1.75 2.18-.41 3.01.75.34 1.58.4 2.21.71v.02.15-.01.8-.03.18-.11 1.56-.58 2.32-1.38.44-.66.85-1.3 1.34-1.46.04-.47-.14-1.04-.39-1.49-.16-.42-.38-.62-.51-1.1-.68-.47-1.25-.72-1.84-1.1-.7-.21-1.3-.68-1.88-1.22-.46-.3-.79-.43-1.12-.41-.59-.24-1.07.06-1.68.04-.93 0-1.64 1.24-2.2 1.28s-.08.09-.1.02c-1.52-.89-5.08-1.69-8.24 0-9.48 8.33-20.15 4.56-30.17 3.37-1.24 0-2.25.79-1.9 1.85-.43 1.17.86.71 2.88 1.24.4.36 1.59.77 2.67 1.25.07.02 1.5.55 1.66.38.75.16 1.06.27 1.67.23.59.06 1.31.07 1.76.08 1.3.01 1.81.46 3.68.28 2.18.38 3.78 1.5 7.01 0 1.65l-.01.07-4.01c-8.47 3.97-23.18-3.08-34.45-.01-.1.02-.21.03-.32.02zM19.85 64.18c.66-.01 1.41-.02 2.02-.09z" fill="#202424"/><path d="M63.04 63.73C17.31 86.32 7.5 57.5 12.6 73.25c-1.77-10.64 2.7-24.57 1.5-33.38-.84-1.34-3.13-1.44-4.69-.39-2.08 0-5.05 1.21-7.09 2.73-1.25 1.71-3.08 3.01-5.14 6.79-4.63 2.69-6.77 3.31-11.71 3.7-3.8.79-7.56-2.28-9.06-3.32-.82-1.1-1.35-2.17-.68-18.54c0-.67 11.62-6.37 15.31-6.62 2.54-.71 5.31-.81 6.39-.62 3.36.25 5.52 3.35 5.5 3.79.62 1.57.19 3.38-.09 5.95-.27.5-1.04.81-1.85.71-.81.62-1.52 1.72-1.47 2.53-.23.95 0 1.28.03 1.97.14 1.07.71 1.25 1.93 2.22 1.85.46 4.15-1.55 6.24-.69 1.32-.06 2.86-.21 4.55-.29 5.68 0 13.27 6.37 15.73 10.27.79 1.08 1.23 3.25 1.5 3.71l9.7.11 14.42h-.12v20.98c-1.66 0-3.28-1.69-24.05-1.76V30.74c0 3.18 3.31 4.76 7.63 3.96 3.28 0 6.22-3.57 7.22-5.52 6.28-6.04 6.01-16.07 5.64-35.27-.86-4.92-2.88-5.95-7.25zm-19.55 3.71c-.14 0-.72-.01-.74-.01C93.34 78.39 74.81 84.74 8c.03-18.43 0-38.6-39.64-57.08-35.9 0-17.97-10.37-23.44-20.37 0-14.54 10.04-37.69 15.38-40.67 0-2.84-.59-5.78-1.73-8.45 4.78-3.64 16-1.39 17.85-6.36 1.7-1.42 2.37-3.68 2.34-5.59a18.12 16.12 0 0 1-5.44.15c-68.5 0-23.38 6.1-41.86 4.36-15.83 5.52-27.74 5.34-27.33 14.74-6.14 3.87-8.67 3.81-15.73 5.71-10.3-.81-2.53-1.77-2.84-2.99.31-1.96 1.58-3.73 2.51-6.49.7-1.06 2.43-1.76 3.24-1.7a16.82 16.82 0 0 1 5.52.07c0 .66.13 1.73.47 2.31 1.05.88.39 1.37 1.14 2.24 1.71 3.66 3.24 5.6 4.33 9.3 1.67 2.99 6.85 7.28 8.24m8.29c-.18 1.25-.06 2.68-.08 4.08v3.12c.21 5.39 2.11 11.04 10.33 16.51 3.86.64 17.43 2.8 28.75-1.04 4.73-.01 8.04-4.38 9.01-9.36.5-4.36-2.85-8.43-6.04-12.87z" fill="#04a344"/><path d="M10.58 76.26c-.2 1.11-2.3 1.22-4.28 1.78M11.84 35.18s1.49.21 2.74 0 12.36a28.16 21.82 1.91 59.16-.01 60.36-2.06 39.25 2.61 41.02 2.01 53.46c-2.15 2.91-5.23 6.14-8.33 8.72-4.22 2.34-7.77 4.47-10.41 4.38-4.63 3.92-10.21 5.64-17.05 4.85z" clip-path="url(#f)" fill="#e79570"/><path d="M63.64 34.09c0-1.9 2.24-3.21 3.01-3.71 3.71 0 13.56 27.55 25.01 38.59 21.05 32.16-.05 34.68-15.33 62.41-22.19 2.85-9.12 4.15-17.75 4.55-30.17-1.58-1.79-4.91-3.25-7.34-.85z"/></svg>
