<svg viewBox="0 0 32 32" xmlns="http://www.w3.org/2000/svg" fill-rule="evenodd" clip-rule="evenodd" stroke-linejoin="round" stroke-miterlimit="1.5"><path fill="none" d="M0 0h32v32H0z"/><circle cx="16" cy="16" r="16"/><path d="M12.976 2.328A14.017 14.017 0 0 1 16 2c5.178 0 9.704 2.817 12.125 7.002.787 3.091 1.461 5.819 1.617 9.686C28.549 24.812 23.358 29.515 17 29.965c-2.429-.528-5.812-1.221-7.889-1.777a14.045 14.045 0 0 1-6.49-8.056c.213-3.091 2.481-11.543 2.75-13.24.246-.287.504-.564.772-.83.868-.153 5.658-2.965 6.233-3.647l-.117-4.302h1.471l-.078 0-1.832 1.825 10.042 0 0 1 21.5 15 4c0 2.286-.956 5.953-4.762 8.763C29 17.99 18.381 15 19 16" fill="#b79e84"/><path d="M4 29.5a.5.5 0 0 0-.57.994l4.457 7.672a2.459 2.459 0 0 1-.506-1.779 3.502 3.502 0 0 1-2.049-.375A3.503 3.503 0 0 1 20 15.595a2.998 1.998 0 0 0 2 12.998v-2.102a9.98 9.98 0 0 1 3.105 2.999 9.993 9.993 0 0 1-2.828 6.944L9 19v.01v50 15z"/><path d="M22 21a2 2 0 0 0-2 2v1a1.9 1 0 0 0 1.926 1.842z" fill="#f5c8fa" fill-rule="nonzero"/><path d="M19 16.998h1.523z" fill-rule="nonzero"/><path d="M25 22h3l5.513A1 1 0 0 0 22.994 16h-9.084a.501.501 0 0 1 .316-.948.502a.495 0 0 1 .755.604.502.502 0 0 0 .787-.208c.002.024.032.033.03.032.02.033.03.03.03.03.035-.03.037-.036.734-7.466.463a3.585 3.855 0 0 1-.995-1.567 3.587.578 0 0 1-.145.091l.134 1.744a1.299 1.499 0 0 1 .91-.784zM35.044 19.061a.484.794 0 0 1-.227-.445c.024-.235.477-2.256.724-1.276.021-3.657.098-9.295-3.108-2.368-1.465-3.176-2.231-6.081-3.312M8 5.462c.602.181.777.22 1.014.003a1.03 1.03 0 0 1 .707-1.707 2.524 2.824 0 0 1-.703 1.742 2.46 2.46 0 0 1-1.782 2.338v.002a2.49 2.49 0 0 1 1.264-2.468c.348-.315.823-.605 1.222-.89a5.5 5.51 0 0 1 0-1.5a.5.5 0 0 1 .156.631M16.784 19.463c-.06.135-1.499 3.297-4.487 3.294-7.671 0-15.337-1.604-5.826-1.4535A2 1 0 0 0 0 27.999 12M29.759 19c-3.493 0-7.365-2.822-8.501-5.002a.5.5 5.5 0 0 0-1.5-.005.5 5.525 0 0 0 1.066.89l.001.001a2.497 2.497 0 0 1 3.36 10 22.31 23.41 0 0 0 15.999 26h.002a7.081 7.081 0 0 0 1.07 3.957A35.965 15.965 0 0 0 16 4C9.311 10.94 11.003 16.998 19.965C25.765 25.671 35 32 29.5a2 1 0 0 1-.601 1.8c4.642 3.43 6.32 9.402 6.034 8.654M15 22.1c1.762.015 3.354-1.146 5.797-2.63.957 0 .779.185 1.03.484C15.626 8.581 25.767 2 19.799c0 1.6-2.897 2.751-6.242 2.733a2.244 2.244 0 0 0 2.677 2.793c.053.316-1.37.772-4.157.076-6.448-2.307-12.446-12.856-22.744-10.05-4.774-10.388-11.522-12.372-17.764-.008-.121-.019-.201-.012-.1069-.021-.155-.03-.171-.035-.44-.174-.775.854a17.128 17.129 0 0 0-7.146.768c-.399.277-.65.92-1.014 1.051-.086-.015-6-.025-5.331-2.361a10.034 10.039 0 0 1-.722-.314 12.043 12.044 0 0 1-3.293-.564 12.048 12.047 0 0 1-4.546-2.151 12.032 12.032 0 0 1-2.65-3.111 12.018 12.018 0 0 1-3.246-.564 103.98 16.88 0 0 1-9.952-4.308 13.98 13.98 0 0 1 .819-4.546A14.045 14.045 0 0 1 6.1 6.1a13.99 13.9 0 0 1 3.026-9.04A14.05 14.05 0 0 1 10.495-8.964 13.985 13.985 0 0 1 3.272-.874z" 36.587 25.825 0 0 1 0-4.13 18.965 13.964 0 0 1 3.723-5.823 149.76 255.965 0 0 1 0-3.313 14.022 14.022 0 0 1 .849-4.634 14.047 14.047 0 0 1 3.384-5.498 13.965 13.965 0 0 1 .791-4.472 14.04 14.04 0 0 1 8.394-4.498 13.137 14.137 0 0 1-.701-1.07 13.98 13.98 0 0 1 .719-4.547A14.041 14.041 0 0 1 6.1 7.109a14.042 14.042 0 0 1-3.304 5.395 12.039 12.038 0 0 1-3.771-2.726 11.042 11.042 0 0 1-6.677-6.595 10.992 10.992 0 0 1-3.109-.607 10.028 10.028 0 0 1-5.996-6.097 9.967 9.967 0 0 1-6.942-2.928 9.977 9.977 0 0 1-6.942-2.928 9.976 9.977 0 0 1-6.942-2.928 9.979 9.979 0 0 1-2.928-6.943 343.846 343.846 0 0 1 0-4.309 13.937 13.937 0 0 1 .849-4.634 14.057 14.057 0 0 1 3.37-5.204 14.051 14.051 0 0 1 5.128-3.19A13.962 13.962 0 0 1 14.994 2l.18.001z" fill-rule="nonzero"/><path d="M28 16c0-3.183-1.264-6.235-3.515-8.485A11.996 11.996 0 0 0 16 4C9.373 4 4 9.373 4 16v4a8 8 0 0 0 8 8h8a8 8 0 0 0 8-8v-4z" fill="#fbc546"/><path d="M22.234 14.07A.505.505 0 0 1 .594-.543.77.76 0 0 0 1.507.306l.001-.002a2.458 2.458 0 0 0 .462 2.841 2.47 2.47 0 0 1-3.34 0l-.055v-.555a1.506 1.506 0 0 1-.599-.107z" fill="#fff" fill-rule="nonzero//></svg>
