<svg xmlns="http://www.w3.org/2000/svg" width="128" height="128" viewBox="0 0 128 128"><path fill="#FFF" d="M50.61 20.82c-.88 0-1.33-.34-1.93-.72l-7.35-7.49-8.3 4.5c.14-.16.89-.18 1.18.54.74.39 1.07.89 1.41 1.57 1.34 1.74 3.32 2.13 4.38 1.32 3.53 2.43 6.81 3.9 9.27 1.37 3.23.45 14.49-1.64 19.42-2.61 1.03-.15 2.21-.09 3.7-.12 5.88-.19 16.57-1.63 27.58-12.13.46-.32.77-1.45-.04-2.46-.13-4.79-1.79-10.69-2.93-16.33 4.31-3.07 8.84-5.41 13.49-3.33 8.7 0 12.63 9.24 12.38 6.93.79 9.51 11.99 9.92-16.68 7.66z"/></svg>
