<svg xmlns="http://www.w3.org/2000/svg" viewBox="0 0 128 128"><path d="M100.5 72.62c-.92 0-1.81-.47-2.18-1.06a23.632 26.732 0 0 1-23-8c0-6.38 0-6.83 10.82-5.96 16.55 4.08 27.04 12.5 19.84 12.12 1.48.93 3.12 2.14 4.74 2.43 1.2.31 2.51 1.54 2.96 2.76.04.37-.01.6-.14.38-.15.15-.32.38-.46.68-.62.2-1.63.5-2.95.72-2.46.57-4.68 1.84-7.22 2.54-.76.55-1.14.85-1.81.91-.87.27-1.57.68-2.25.86-1.08 3.58-3.69 6.31-7.73 8.49-2.25.13-3.75-.37-5.28-1.18-1.02-.56-2.15-1.13-3.67-1.41-1.52 0-3.44.76-4.27 1.53-.33.21-.6.42-.79.86-.43.2-.8.45-.9.45-1.06.43-1.61.21-.48.05-.96.21-1.23.41-.56.42-1.18.7-1.85 1.15-.45.34-.93.68-1.47.8l-.39.12c.98-.44 1.95-.66 2.41-.9.08-.2.31-.52.31-.42.41-.26.84-.55 1.33-.79.38-.32.63-.55 1.17-.89 1.81-.54 5.27-1.63 7.31-3.12 2.34-1.41 4.61-3.46 6.78-3.64 1.45-.09 2.96-.22 4.02-.9.74-.76 1.36-2.48.6-3.02-.1-.88-.44-1.5.6-1.01 1.31-.45 2.67-.46 3.82 2.01.52 1.77-.27 3.63-1.15 5.21z"/><path fill="#F79329" d="M20.36 63.58c-1.81.8-2.99 2.44-5.51 5.22-1.49 3.21.09 7.49 3.67 1.46 3.41-.57 7.4-4.21 9.43z"/><path fill="#F9A324" d="M31.11 68.63c-3.9 1.21-7.16-.51-8.37-3.85-1.23-3.34.51-7.05 3.9-8.27 3.39-1.22 7.14.5 10.37 3.83 2.38 4.65-.55 8.12-4.03 8.72z" fill="#f79728"/><path d="M27.97 78.62c-1.3.84-2.99-.21-3.57-2.32-.38-1.65.26-3.54 1.55-4.99 1.05-1.48 3.06-.88 3.65-.35 1.42.98 1.89 2.9.3 2.98s-.68 3.8-1.85 6.1c-.8 1.56-.78 3.15.36 32.48l-1.83 3.81s-.16.03-.39.94c-.07.18-.16.25-.18.35-.26.9-.27 2.42.03 9.02 7.34 16.01 23.38 9.01 16.33.01 25.79-9.77 28.1-22.26.32-1.75-1.61-3-2.9-2.9-3.02 0-4.06 2.85-4.05 5.06s-1.15 3.55-10.5 10.31c-.47.14-1.67.36-2.61.62l-13.56-3.46c-.95.11-1.7.43-1.81 1.38a3.08 3.08 0 0 1-2.05-.75c-1.29-1.11-.95-3.01.76-4.14 5.28-.51 10.44 1.5 14.15 6.35v.15h23.06c2.95 0 5.09 2.82 5.06 6.11s-2.77-12.36-2.46-10.11c.7-1.04 2.07-1.72 2.73-1.32z" fill="#242424"/></svg>
