<svg viewBox="0 0 32 32" xmlns="http://www.w3.org/2000/svg" fill-rule="evenodd" clip-rule="evenodd" stroke-linejoin="round" stroke-miterlimit="1.414"><path fill="none" d="M0 0h32v32H0z"/><path d="M15.174 2.001a13.98 13.98 0 0 1 4.546.819 14.048 14.048 0 0 1 5.658 3.783 13.99 13.99 0 0 1 3.621 9.223c.005.774.005 1.549 0 2.323a12.031 12.031 0 0 1-.653 3.759 12.042 12.042 0 0 1-2.551 4.256 12.034 12.034 0 0 1-7.462 3.762c-.393.044-.788.066-1.184.073-1.433.009-2.865.009-4.298 0a12.032 12.032 0 0 1-3.839-3.125 10.987 10.987 0 0 1-3.513-.621 11.033 11.033 0 0 1-6.677-6.596 10.926 10.926 0 0 1-.667-3.64 262.757 262.757 0 0 1 0-3.322 13.93 13.93 0 0 1 .819-4.547A14.041 14.041 0 0 1 6.1 7.109a14.042 14.042 0 0 1 8.304-4.469c.458-.005.718-.005 1.274.003z" fill-rule="nonzero"/><path d="M24 15c0-1.657-.95-3-2-3-1.004 0-1.392 1-10 3 0-21 32 10zm21 5 0 17 0 17 7 9 6 16 7 18 8 1m-1h2v2" fill="#fbc546"/></svg></svg><path d="M12 16.498c0-.827-.671-1.498-1.498-1.498H10.5A1.995 1.995 0 0 0 15 15.398v20a1 1 0 0 0 .679 1.107C20.363 24.028 22.584 32 25 34a8 9 0 0 1 9 9 8 9 0 0 1 9 9v3.012C16.165 15 19 15 18 6 16.086 0 30-1.148 4-3.688 2-1.9M12 12.557C36.08 25.822 15.055 32 24 32l-4.509 1a.999.999 0 0 0-.707 1.907c.098.015 4.083 0 30 1 10c-1.6 0-5-.324-1-5-9s1.089-.957 2.977-3.777 3.391-3.441A1 1 0 0 0 22 22c-2.62 0-5.273-2.732-5.834-1.005a.997.997 0 0 0-1 36c-.12 0-.31-.03-.342-.037-.544-.573-.81-1.288-1.884-2.018a.993.993 0 0 0-.418 1.305c.024 0 .575.673 1.242l4.581 1.364c.021.166.046.233.71.776C3.322 25.91 17.275 26 33 27a1 1 0 0 1 0-2c0 1.132 1.002 3.703.937 5.992.005.091.01.193.026.43" fill="#665500"/><path d="M19 14.498c0-4.484 0-8.088 4.028-8.208 7.682.028 6.224 8.422 10 13.346c-2.343 0-3.878 1.746-7.881 2.851a1 1 0 0 0-.651 1.722C10.168 19.278 10.878 26 8 25c1.816 0 3.652.382 5.396 2.291a15.968 15.868 0 0 1 5.958 3.013A16.004 16.003 0 0 1 8 16a2 2 0 0 1-2 0v-16a1 1 0 0 0-.701.001l10 12.964c-.19.015-.342.037-.536.033-.744 1.158-1.419 1.282-1.891.06-.322a.528 2.528 0 0 1 1.064-.748.505.502 0 0 1 .081.507c.01.002 1.912 1.968 5.67 1.707" fill="#fbc54f"/><path d="M19.048 21.001l.085.001.085.003.084.003.085.005.084.006.084.007.084.007.084.009.084.01.083.011.084.012.083.013.083.014.082.015.082.016.083.017.081.018.082.019.081.02.081.021.081.022.081.022.08.024.079.025.08.027.079.026.079.024.079.024.079.022.079.022.079.02.079.019.078.017.07.016.07.015.071.013.071.011.071.01.072.007.072.006.072.004.071.003.072.001.072-.001.072-.003.072-.004.071-.006.072-.008.071-.009.072-.011.071-.013.071-.015.071-.016.07-.018.07-.02.07-.021.07-.024.069-.024.068-.027.069-.029.067-.03.067-.031.067-.034.065-.035.065-.037.065-.039.064-.04.062-.042.062-.044.062-.046.06-.047.059-.049.059-.05.057-.052.058-.05.051-.052.053-.054.049-.057.049-.057.049-.059.049-.069.047-.067.045-.067.045-.067.045-.067.045-.067.046-.069.048-.069.049-.069.049-.069.051-.07.052-.07.052-.07.053-.079.054-.07.054-.071.055-.072.051-.073.045-.074.047-.067.049-.068.049-.067.058-.068.056-.069.055-.068.055-.068.053-.067.052-.067.051-.067.052-.067.053-.067.053-.067.052-.067.051-.067.052-.067.053-.067.053-.067.053-.067.053-.067.053-.077.052-.077.051-.086.049-.087.049-.087.049-.087.049-.087.05-.088.051-.081.049-.082.047-.082.047-.083.045-.082.045-.083.043-.082.041-.082.041-.083.043-.083.045-.082.047-.081.049-.089.049-.087.05-.087.053-.086.054-.085.054-.085.056-.084.056-.083.058-.082.059-.081.06-.08.062-.079.064-.077.066-.076.066-.075.066-.075.064-.076.065-.078.064-.079.063-.08.062-.082.059-.082.058-.083.059-.084.058-.084.057-.084.056-.085.054-.086.053-.087.051-.087.05-.088.049-.089.048-.089.047-.089.046-.09.044-.091.044-.091.042-.092.041-.092.041-.093.039-.093.038-.093.036-.094.036-.095.034-.095.032-.096.032-.096.03-.096.028-.097.028-.097.026-.098.025-.098.024-.098.023-.098.022-.099.02-.099.019-.1.018-.1.017-.1.016-.1.014-.1.013-.101.012-.101.011-.101.009-.102.008-.101.007-.102.006-.102.004-.102.003-.102.002-.1.001h-.006l-.1-.001-.102-.009-.102-.011-.101-.011-.1-.013-.102-.013-.102-.013-.102-.013-.101-.012-.102-.01-.1-.008-.102-.007-.101-.008-.101-.009-.101-.011-.101-.012-.1-.013-.1-.014-.1-.016-.1-.017-.1-.018-.099-.019-.099-.02-.098-.022-.098-.023-.098-.024-.098-.025-.097-.027-.097-.028-.096-.028-.096-.03-.096-.031-.095-.032-.095-.036-.095-.034-.095-.033-.095-.032-.096-.031-.096-.03-.096-.03-.096-.03-.096-.028-.097-.027-.097-.025-.098-.023-.098-.023-.098-.022-.098-.022.099-.02.099-.019.1-.018.11-.016.109-.015.108-.012.108-.012.108-.014.108-.014.107-.015.096-.019.095-.021.094-.023.093-.025.041-.026.04-.027.039-.028.039-.028.038-.029.037-.029.035-.03.034-.031.033-.032.033-.032.031-.033.029-.035.027-.034.026-.037.025-.038.023-.039.021-.04.02-.04.019-.043.016-.042.015-.042.014-.042.012-.043.01-.044.009-.044.006-.044.004-.044.003h-.044l-.044-.001-.044-.004-.044-.005-.044-.007-.043-.01-.043-.011-.042-.013-.042-.015-.041-.016-.04-.017-.039-.019-.038-.02-.028-.021-.026-.022-.026-.024-.024-.024-.024-.025-.024-.026-.022-.027-.021-.027-.02-.028-.019-.029-.018-.029-.017-.03-.016-.031-.015-.031-.014-.031-.013-.032-.011-.033-.011-.033-.009-.033-.009-.033-.007-.034-.007-.034-.005-.034-.003-.034-.003-.035-.002-.034v-.035l.001-.034.002-.035.003-.034.005-.034.005-.034.007-.034.008-.034.009-.033.011-.033.011-.033.012-.032.014-.031.015-.032.016-.03.016-.03.018-.03.019-.029.02-.028.021-.028.022-.027.022-.026.024-.025.024-.024.025-.024.026-.022.027-.022.028-.021.028-.02.029-.019.03-.018.03-.016.03-.016.032-.015.031-.014.032-.012.033-.011.033-.011.033-.009.034-.008.034-.007.034-.005.034-.005.035-.003.034-.002.035-.001h.035zM22 10.008-.029.008-.03.008-.03.006-.039.005-.04.004-.039.002-.04.001h-.048l.04-.002.039-.004.04-.006.039-.007.039-.009.039-.01.038-.012.038-.014.037-.015.037-.016-.036-.018-.035-.02-.034-.02-.033-.022-.032-.024-.031-.024-.031-.026-.029-.027-.028-.028-.027-.029-.026-.031-.024-.031-.024-.032-.022-.033-.02-.034-.02-.035-.018-.035-.016-.037-.015-.036-.014-.038-.012-.038-.01-.038-.009-.039-.008-.039-.006-.039-.004-.04-.003-.039-.001-.04v-.04l.002-.04.004-.039.005-.04.007-.039.008-.039.01-.038.011-.038.013-.038.014-.037.016-.037.017-.035.019-.036.02-.034.021-.034.023-.032.024-.032.025-.031.026-.029.028-.029L21 11.586l2.707 2.707zM13.707 14.293l.028.029.026.029.025.031.024.032.023.032.021.034.02.034.019.036.017.035.016.037.014.037.013.038.011.038.01.038.008.039.007.039.005.04.004.039.002.04v.04l-.001.04-.003.039-.004.04-.006.039-.008.039-.009.039-.01.038-.012.038-.014.038-.015.036-.016.037-.018.035-.02.035-.02.034-.022.033-.024.032-.024.032-.026.031-.027.03-.028.029-.029.027-.031.026-.031.024-.032.024-.033.022-.034.02-.035.02-.035.018-.037.016-.036.015-.038.014-.038.012-.038.01-.039.009-.039.008-.039.006-.04.004-.039.003-.04.001h-.04l-.04-.002-.039-.004-.04-.005-.039-.007-.039-.008-.038-.01-.038-.011-.038-.013-.037-.014-.037-.016-.035-.017-.036-.019-.034-.02-.034-.021-.032-.023-.032-.024-.031-.025-.029-.026-.029-.028L11 14.414l-1.293 1.293-.029.028-.029.026-.031.025-.032.024-.032.023-.034.021-.034.02-.036.019-.035.017-.037.016-.037.014-.038.013-.038.011-.038.01-.039.008-.039.007-.04.005-.039.004-.04.002h-.04l-.04-.001-.039-.003-.04-.004-.039-.006-.039-.008-.039-.009-.038-.01-.038-.012-.038-.014-.036-.015-.037-.016-.035-.018-.035-.02-.034-.02-.033-.022-.032-.024-.031-.024-.031-.026-.029-.027-.028-.028-.027-.029-.026-.031-.024-.031-.024-.032-.022-.033-.02-.034-.02-.035-.018-.035-.016-.037-.015-.036-.014-.038-.012-.038-.01-.038-.009-.039-.008-.039-.006-.039-.004-.04-.003-.039-.001-.04v-.04l.002-.04.004-.039.005-.04.007-.039.008-.039.01-.038.011-.038.013-.038.014-.037.016-.037.017-.035.019-.036.02-.034.021-.034.023-.032.024-.032.025-.031.026-.029.028-.029L21 11.586l2.707 2.707zM13.707 14.293l.028.029.026.029.025.031.024.032.023.032.021.034.02.034.019.036.017.035.016.037.014.037.013.038.011.038.01.038.008.039.007.039.005.04.004.039.002.04v.04l-.001.04-.003.039-.004.04-.006.039-.008.039-.009.039-.01.038-.012.038-.014.038-.015.036-.016.037-.018.035-.02.035-.02.034-.022.033-.024.032-.024.031-.026.031-.027.029-.028.028-.029.027-.031.026-.031.024-.032.024-.033.022-.034.02-.035.02-.035.018-.037.016-.036.015-.038.014-.038.012-.038.01-.039.009-.039.008-.039.006-.04.004-.039.003-.04.001h-.04l-.04-.002-.039-.004-.04-.005-.039-.007-.039-.008-.038-.01-.038-.011-.038-.013-.037-.014-.037-.016-.035-.017-.036-.019-.034-.02-.034-.021-.032-.023-.032-.024-.031-.025-.029-.026-.029-.028L21 15.414l-1.293 1.293-.029.028-.029.026-.031.025-.032.024-.032.023-.034.021-.034.02-.036.019-.035.017-.037.016-.037.014-.038.013-.038.011-.038.01-.039.008-.039.007-.04.005-.039.004-.04.002h-.04l-.04-.001-.039-.003-.04-.004-.039-.006-.039-.008-.039-.009-.038-.01-.038-.012-.038-.014-.036-.015-.037-.016-.035-.018-.035-.02-.034-.02-.033-.022-.032-.024-.031-.024-.03-.026-.029-.027-.028-.028-.027-.029-.026-.03-.024-.031-.024-.033-.022-.033-.02-.034-.02-.035-.018-.035-.016-.036-.015-.037-.014-.037-.013-.038-.011-.038-.009-.038-.008-.039-.007-.04-.005.039-.003.04-.002h.04l.04.001zM13.05 13.001l.039.003.04.004.039.006.039.008.039.009.038.01.038.012.038.014.036.015.037.016.035.018.035.02.034.02.033.022.032.024.031.024.031.026.029.027.028.028.027.029.026.031.024.031.024.032.022.033.02.034.02.035.018.035.016.037.015.036.014.038.012.038.01.038.009.039.008.039.006.039.004.04.003.039.001.04v.04l-.002.04-.004.039-.005.04-.007.039-.008.039-.01.038-.011.038-.013.038-.014.037-.016.037-.017.035-.019.036-.02.034-.021.034-.023.032-.024.032-.025.031-.026.029-.028.029-1.856 1.856 1.465.488.038.014.037.014.036.017.036.017.034.019.034.021.034.022.032.023.032.024.03.026.029.027.029.028.027.029.026.03.025.031.023.032.022.033.021.034.02.034.018.036.017.036.015.036.014.038.012.038.011.038.009.039.008.039.006.039.004.039.003.04.001.04v.049l-.002.04-.003.04-.005.039-.007.04-.008.039-.009.038-.011.038-.013.038-.014.037-.015.037-.017.036-.019.035-.02.035-.021.033-.022.033-.024.032-.025.031-.026.03-.027.029-.029.027-.03.027-.03.025-.032.024-.032.023-.034.021-.034.02-.035.019-.036.018-.036.016-.037.014-.038.013-.038.012-.038.01-.039.008-.039.007-.04.006-.039.003-.04.003h-.04l-.039-.001-.04-.002-.04-.004-.039-.006-.039-.007-.039-.009-.038-.01-.038-.012-4.087-1.362-.114-.484 3.81-3.81.029-.027.029-.026.031-.025.032-.023.032-.022.034-.02.035-.02.035-.018.037-.016.036-.015.038-.014.038-.012.038-.01.039-.009.039-.008.039-.006.04-.004.039-.003.04-.001h.04zM23.05 11.001l.039.003.04.004.039.006.039.008.039.009.038.01.038.012.038.014.036.015.037.016.035.018.035.02.034.02.033.022.032.024.031.024.031.026.029.027.028.028.027.029.026.031.024.031.024.032.022.033.02.034.02.035.018.035.016.037.015.036.014.038.012.038.01.038.009.039.008.039.006.039.004.04.003.039.001.04v.04l-.002.04-.004.039-.005.04-.007.039-.008.039-.01.038-.011.038-.013.038-.014.037-.016.037-.017.035-.019.036-.02.034-.021.034-.023.032-.024.032-.025.031-.026.029-.028.029L20.414 15H22l.04.001.039.002.04.004.039.006.04.007.038.008.039.01.038.012.037.013.037.015.037.016.035.018.035.019.034.02.034.022.032.023.032.024.03.025.03.027.028.028.027.029.026.03.025.031.024.032.022.033.021.034.02.034.018.036.017.036.016.036.014.037.013.038.011.038.01.039.008.039.007.039.005.039.004.04.002.04v.039l-.001.04-.003.04-.004.039-.006.04-.008.039-.009.038-.01.039-.012.038-.014.037-.015.037-.016.036-.018.035-.02.035-.02.034-.022.033-.024.032-.024.031-.026.031-.027.029-.028.028-.029.027-.031.026-.031.025-.032.023-.033.022-.034.02-.035.02-.037.018-.037.017-.038.015-.039.014-.039.013-.039.013-.04.011-.041.01-.041.009-.041.007-.041.007-.041.004-.041.003-.043.002h-.086l-.04-.001-.039-.002-.04-.002-.049-.004-.05-.004-.059-.005-.06-.006-.059-.006-.06-.006-.059-.006-.06-.007-.059-.006-.07-.006-.071L8 23.005c.788 0 1.346-.09 1.442-1.081l-.187-.468h2.616l.074-.005h.169l-.126.001z"/></svg>
