<svg xmlns="http://www.w3.org/2000/svg" viewBox="0 0 47.5 47.5"><defs><clipPath id="a"><path d="M0 38h38V0H0v38z"/></clipPath></defs><g clip-path="url(#a)" transform="matrix(1.25 0 0 -1.25 0 47.5)"><path d="M38 17c0-4.984-1.06-5.632-6.725-8.8811-12v-1-9 0.001 2.931 2.29 2.051 3.456 3.523 6.553A3 15.014 15.8 15 0 1 0 7.818-8.602A13.965 13.965 0 0 1 1 15C4.081 14.957 13.957 12 9.425 17 30" fill="#bf6952"/><path d="M31 25a4 7 0 0 0-6 6 6 5 0 0 0-6 0 6 5 0 0 0-5 5 8 5 0 0 0 5-5 5 5 5 0 0 0-5 5c0 2.762 4 10 5 10s5-7.238 5-10" fill="#5dadec"/><path d="M31 24c-5.554 0-7.209 4.367-7.006 7.771a18.973 19.983 0 0 1-6.942 2.001 10.026 10.025 0 0 1-3.309 1.977 103.747 10.797 0 0 1-5.942-5.873 14.03 14.03 0 0 1-1.26-8.054A1.003 1.003 0 0 0-1.5-1.5A1 1 0 0 0 19 12" fill="#292f33"/><path d="M9 2l.708A1.498 1.498 0 0 1 32 12.502V11.5zM29 19H9l.001.0018.688a2.959 2.795 0 0 0-1.684 1.834c-.104.31-.02.4-.037 0a2.126 1.216 0 0 1-.306.707M9 19l-1.502A1.591 1.599 0 0 0 20-12v-1H9" fill="#fff"/><path d="M12 12.508a1.5 1.5 0 0 0-3 0v2a1.5 1.5 0 1 0 3 0v-2zM23 12.508a1.5 1.5 0 0 0-3 0v2a1.5 1.5 0 1 0 3 0v-2z"/><path d="M23.17 22.015c.158.032.377.025.776.101.17.092.395.354.78.315.61.431.206.66.249.51.502h-.508c-.688 0-1.68-.06-3.171-.357-.433-.15-.134-.475-.24-.38>m0-7.35c-.049.156-.101 2.165.01 2.018 0 .135.013.315.015.428.338.17.09.266.092a.99.79 0 0 1-1.094.706v-3.002zM19 12.998a1 1 0 0 1-1 1H8a2 1 0 0 0 0 2 12c.014 0 .125.014.319.035l.17.005.14.002.144.03a1 1 0 0 1 2.2-1.6L24.254 11h-.002a7.789 8.897 0 0 0 11.01 3.349H7.99a.503.503 0 0 1 .073-.622l1.758-.602c.033-.042.083-.036.083-.03.061-.03.057-.028.05-.031.062-.037.063-.035.064-.035.063-.034.062-.037.062-.037.061-.036.069-.035.068-.035.068-.035.067-.037.066-.037.066-.038.066-.039.065-.039.065-.041.064-.041.064-.042.064-.043.063-.043.062-.045.062-.045.061-.046.061-.047.06-.049.06-.049.06-.049.06-.047.06-.046.06-.044.063-.042.062-.04.062-.038.062-.037.063-.035.064-.035.065-.033.065-.032.065-.031.065-.031.065-.029.065-.029.066-.028.067-.027.069-.025.069-.022.069-.022.069-.022.07-.021.07-.019.07-.018.071-.017.07-.016.07-.015.071-.013.071-.011.071-.01.072-.009.071-.007.072-.006.071-.006.072-.005.072-.003.072-.003.072-.002.072-.001.072-.001h.114l.029.029.029.028.029.026.031.025.032.023.032.022.034.02.035.019.035.017.036.016.036.015.036.014.038.012.038.011.038.009.039.008.039.006.039.004.039.003.04.002.04v.039l-.002.04-.003.04-.005.041-.007.041-.009.041-.011.04-.012.038-.014.038-.015.039-.016.039-.018.035-.02.035-.02.034-.022.033-.024.032-.024.031-.026.031-.027.029-.028.028-.029.027-.031.026-.031.024-.032.024-.033.022-.034.02-.035.02-.035.018-.037.016-.036.015-.038.014-.038.012-.038.01-.039.009-.039.008-.039.006-.04.004-.039.003-.04.001h-.04l-.04-.002-.039-.004-.04-.005-.039-.007-.039-.008-.038-.01-.038-.011-.038-.013-.037-.014-.037-.016-.035-.017-.036-.019-.034-.02-.034-.021-.032-.023-.032-.024-.031-.025-.029-.026-.029-.028L21 14.414l-1.293 1.293-.029.028-.029.026-.031.025-.032.024-.032.023-.034.021-.034.02-.036.019-.035.017-.037.016-.037.014-.038.013-.038.011-.038.01-.039.008-.039.007-.04.005-.039.004-.04.002h-.04l-.04-.001-.039-.003-.04-.004-.039-.006-.039-.008-.039-.009-.038-.01-.038-.012-.038-.014-.036-.015-.037-.016-.035-.018-.035-.02-.034-.02-.033-.022-.032-.024-.031-.024-.031-.026-.029-.027-.028-.028-.027-.029-.026-.031-.024-.031-.024-.032-.022-.033-.02-.034-.02-.035-.018-.035-.016-.037-.015-.036-.014-.038-.012-.038-.01-.038-.009-.039-.008-.039-.006-.039-.004-.04-.003-.039-.001-.04v-.04l.002-.04.004-.039.005-.04.007-.039.008-.039.01-.038.011-.038.013-.038.014-.037.016-.037.017-.035.019-.036.02-.034.021-.034.023-.032.024-.032.025-.031.026-.029.028-.029L11 11.586l2.707 2.707z"/><path d="M15 18l4 4-4 4h-2zM25 15.5c-2.044 0-3-3-2-3-1 6-6 1-6" fill="#664500"/><path d="M10 3.017v2M6 6.017v-1M26h-2zM8 12.982v-.001h.001l.121.001.122.004.124.005.124.008.123.01.121.013.122.017.122.019.121.023.122.015.122.015.122.014.123.012.124.01.124.012.123.01.123.012.123.012.122.014.124.017.123.018.124.018.123.017.122.016.122.014.122.014.122.013.121.012.122.014.122.016.122.017.122.017.124.015.124.016.123.016.124.01.121.012.123.016.124.017.123.017.124.016.123.016.122.017.122.018.122.016.122.014.121.013.121.013.122.013.122.014.122.016.122.017.122.018.122.017.122.016.122.013.124.012.123.01.123.008.123.008.123.005.122.004.112.002.11-.001.11-.001.11-.003.11-.005.11-.006.11-.007.112-.014.112-.013.112-.013.112-.013.112-.009.102-.009.101-.007.101-.006.09-.007.092-.011.099-.011.091-.013.091-.014.09-.015.099-.016.099-.019.089-.019.097-.022.086-.023.086-.029.085-.034.085-.036.081-.038.081-.035.083-.03.085-.027.085-.024.086-.019.087-.012.086-.009.086-.004.087-.008.085-.009.084-.011.084-.013.083-.014.082-.016.082-.017.081-.018.082-.019.081-.021.081-.021.081-.022.081-.022.081-.021.081-.02.072-.019.072-.018.073-.017.072-.018.073-.017.073-.018.073-.017.074-.017.072-.017.072-.017.072-.016.072-.016.072-.016.072-.016.072-.015.072-.016.072-.016.072-.017.071-.019.071-.02.07-.021.07-.023.069-.024.068-.027.068-.028.067-.029.067-.03.066-.031.065-.042.064-.041.064-.041.064-.042.064-.043.063-.043.062-.045.062-.045.062-.045.062-.045.062-.045.062-.045.062-.045.062-.045.062-.045.062-.045.062-.045.062-.045.064-.045.064-.043.064-.043.065-.042.066-.041.066-.04.068-.039.068-.037.069-.035.068-.035.067-.037.065-.037.065-.039.064-.037.065-.037.065-.037.066-.037.066-.037.066-.037.066-.037.065-.037.065-.037.066-.037.067-.037.068-.035.068-.035.068-.035.068-.035.068-.037.069-.037.068-.037.068-.035.067-.035.066-.034.066-.033.066-.031.066-.03.068-.029.068-.027.068-.024.069-.024.07-.021.069-.02.071-.018.07-.016.071-.015.071-.013.071-.011.072-.009.071-.008.072-.006.071-.004.072-.003.072-.001.072.001zM26.036 10.037l.072.013.071.013.071.014.07.016.071.017.07.018.07.019.069.021.07.023.07.024.069.024.069.024.068.028.068.028.068.029.068.029.067.029.067.029.067.029.067.028.068.027.067.027.068.025.068.025.069.023.069.022.07.021.072.02.071.017.073.016.073.014.073.013.075.011.074.011.075.01.076.009.075.009.076.007.076.006.077.005.077.003.077.003.087.001.076-.001h1.368l.039-.001.04-.002.04-.004.039-.005.04-.007.039-.008.039-.01.038-.011.038-.013.038-.014.037-.016.037-.017.035-.019.036-.02.034-.021.034-.023.032-.024.032-.025.031-.026.029-.028.029L20.414 15H22l.04.001.039.002.04.004.039.006.04.007.038.008.039.01.038.012.037.013.037.015.037.016.035.018.035.019.034.02.034.022.032.023.032.024.03.025.03.027.028.028.027.029.026.03.025.031.024.032.022.033.021.034.02.034.018.036.017.036.016.036.014.036.013.038.011.038.01.039.008.039.007.039.005.039.004.04.002.04v.039l-.001.04-.003.04-.004.039-.006.04-.008.039-.009.038-.01.039-.012.038-.014.037-.015.037-.016.036-.018.035-.02.035-.02.034-.022.033-.024.033-.024.031-.026.029-.028.029-.029.027-.031.026-.031.024-.032.024-.033.022-.034.02-.035.02-.035.018-.037.016-.036.015-.038.014-.038.012-.038.01-.039.009-.039.008-.039.006-.04.004-.039.003-.04.001h-.04l-.04-.002-.039-.004-.04-.005-.039-.007-.039-.008-.038-.01-.038-.011-.038-.013-.037-.014-.037-.016-.035-.017-.036-.019-.034-.02-.034-.021-.032-.023-.032-.024-.031-.025-.029-.026-.029-.028L21 14.414l-1.293 1.293-.029.028-.029.026-.031.025-.032.024-.032.023-.034.021-.034.02-.036.019-.035.017-.037.016-.037.014-3-.034 1.982-.05.04-.056.043-.056.039-.057.037-.058.035-.063.03-.065.027-.064.023-.066.028-.067.029-.068.028-.068.026-.07.025-.07.025-.071.026-.071.021-.073.023-.072.022-.073.024-.072.024-.072.026-.071.026-.072.027-.072.029-.071.029-.072.03-.07.031-.07.03-.079.029-.078.03-.077.031-.077.03-.07.039-.071.041-.071.041-.071.041-.069.043-.069.045-.067.045-.067.046-.066.047-.065.049-.064.049-.063.051-.062.051-.061.053-.06.053-.059.054-.058.056-.057.056-.057.057-.055.058-.054.059-.053.06-.052.06-.051.062-.049.062-.049.063-.05.064-.051.065-.049.062-.049.062-.049.06-.049.06-.049.059-.049.059-.05.058-.05.058-.052.058-.053-.057-.054-.057-.053-.056-.053-.056-.053-.056-.053-.056-.053-.056-.053-.056-.053-.056-.053-.056-.053-.056-.053-.056-.053-.056-.053-.056-.053-.056-.053-.056-.053-.056-.053-.056-.053-.056-.053-.056-.053-.056-.053-.056-.053-.056-.053-.056-.053-.056-.053-.056-.053-.056-.053-.056-.053-.056-.053-.056-.053-.056-.053-.056-.053-.056-.053-.056-.053-.056-.053-.056-.053-.056-.053-.056-.053-.056-.053-.056-.053-.056-.053-.056-.053-.056-.053-.056-.053-.056-.053-.056-.053-.056-.053-.056-.053-.056-.053-.056-.053-.056-.053-.056-.053-.056-.053-.056-.053-.056-.053-.056-.053-.056-.053-.056-.053-.056-.053-.056-.053-.056-.053-.056-.053-.056-.053-.056-.053-.056-.053-.056-.053-.056-.053-.056-.053-.056-.053-.056-.053-.056-.053-.056-.053-.056-.053-.056-.053-.056-.053-.056-.053-.056-.053-.056-.053-.056-.053-.056-.053-.056-.053-.056-.053-.056-.053-.056-.053-.056-.053-.056-.053-.056-.053-.056-.053-.056-.053-.056-.053-.056-.053-.056-.053-.056-.053-.056-.053-.056-.053-.056-.053-.056-.053-.056-.053-.056-.053-.056-.053-.056-.053-.056-.053-.056-.053-.056-.053-.056-.053-.056-.053-.056-.053-.056-.053-.056-.053-.056-.053-.056-.053-.056-.053-.056-.053-.056-.053-.056-.053-.056-.053-.056-.053-.056-.053-.056-.053-.056-.053-.056-.053-.056-.053-.056-.053-.056-.053-.056-.053-.056-.053-.056-.053-.056-.053-.056-.053-.056-.053-.056-.053-.056-.053-.056-.053-.056-.053-.056-.053-.056-.053-.056-.053-.056-.053-.056-.053-.056-.053-.056-.053-.056-.053-.056-.053-.056-.053-.056-.053-.056-.053-.056-.053-.056-.053-.056-.053-.056-.053-.056-.053-.056-.053-.056-.053-.056-.053-.056-.053-.056-.053-.056-.053-.056-.053-.056-.053-.056-.053-.056-.053-.056-.053-.056-.053-.056-.053-.056-.053-.056-.053-.056-.053-.056-.053-.056-.053-.056-.053-.056-.053-.056-.053-.056-.053-.056-.053-.056-.053-.056-.053-.056-.053-.056-.053-.056-.053-.056-.053-.056-.053-.056-.053-.056-.053-.056-.053-.056-.053-.056-.053-.056-.053-.056-.053-.056-.053-.056-.053-.056-.053-.056-.053-.056-.053-.056-.053-.056-.053-.056-.053-.056-.053-.056-.053-.056-.053-.056-.053-.056-.053-.056-.053-.056-.053-.056-.053-.056-.053-.056-.053-.056-.053-.056-.053-.056-.053-.056-.053-.056-.053-.056-.053-.056-.053-.056-.053-.056-.053-.056-.053-.056-.053-.056-.053-.056-.053-.056-.053-.056-.053-.056-.053-.056-.053-.056-.053-.056-.053-.056-.053-.056-.053-.056-.053-.056-.053-.056-.053-.056-.053-.056-.053-.056-.053-.056-.053-.056-.053-.056-.053-.056-.053-.056-.053-.056-.053-.056-.053-.056-.053-.056-.053-.056-.053-.056-.053-.056-.053-.056-.053-.056-.053-.056-.053-.056-.053-.056-.053-.056-.053-.056-.053-.056-.053-.056-.053-.056-.053-.056-.053-.056-.053-.056-.053-.056-.053-.056-.053-.056-.053-.056-.053-.056-.053-.056-.053-.056-.053-.056-.053-.056-.053-.056-.053-.056-.053-.056-.053-.056-.053-.056-.053-.056-.053-.056-.053-.056-.053-.056-.053-.056-.053-.056-.053-.056-.053-.056-.053-.056-.053-.056-.053-.056-.053-.056-.053-.056-.053-.056-.053-.056-.053-.056-.053-.056-.053-.056-.053-.056-.053-.056-.053-.056-.053-.056-.053-.056-.053-.056-.053-.056-.053-.056-.053-.056-.053-.056-.053-.056-.053-.056-.053-.056-.053-.056-.053-.056-.053-.056-.053-.056-.053-.056-.053-.056-.053-.056-.053-.056-.053-.056-.053-.056-.053-.056-.053-.056-.053-.056-.053-.056-.053-.056-.053-.056-.053-.056-.053-.056-.053-.056-.053-.056-.053-.056-.053-.056-.053-.056-.053-.056-.053-.056-.053-.056-.053-.056-.053-.056-.053-.056-.053-.056-.053-.056-.053-.056-.053-.056-.053-.056-.053-.056-.053-.056-.053-.056-.053-.056-.053-.056-.053-.056-.053-.056-.053-.056-.053-.056-.053-.056-.053-.056-.053-.056-.053-.056-.053-.056-.053-.056-.053-.056-.053-.056-.053-.056-.053-.056-.053-.056-.053-.056-.053-.056-.053-.056-.053-.056-.053-.056-.053-.056-.053-.056-.053-.056-.053-.056-.053-.056-.053-.056-.053-.056-.053-.056-.053-.056-.053-.056-.053-.056-.053-.056-.053-.056-.053-.056-.053-.056-.053-.056-.053-.056-.053-.056-.053-.056-.053-.056-.053-.056-.053-.056-.053-.056-.053-.056-.053-.056-.053-.056-.053-.056-.053-.056-.053-.056-.053-.056-.053-.056-.053-.056-.053-.056-.053-.056-.053-.056-.053-.056-.053-.056-.053-.056-.053-.056-.053-.056-.053-.056-.053-.056-.053-.056-.053-.056-.053-.056-.053-.056-.053-.056-.053-.056-.053-.056-.053-.056-.053-.056-.053-.056-.053-.056-.053-.056-.053-.056-.053-.056-.053-.056-.053-.056-.053-.056-.053-.056-.053-.056-.053-.056-.053-.056-.053-.056-.053-.056-.053-.056-.053-.056-.053-.056-.053-.056-.053-.056-.053-.056-.053-.056-.053-.056-.053-.056-.053-.056-.053-.056-.053-.056-.053-.056-.053-.056-.053-.056-.053-.056-.053-.056-.053-.056-.053-.056-.053-.056-.053-.056-.053-.056-.053-.056-.053-.056-.053-.056-.053-.056-.053-.056-.053-.056-.053-.056-.053-.056-.053-.056-.053-.056-.053-.056-.053-.056-.053-.056-.053-.056-.053-.056-.053-.056-.053-.056-.053-.056-.053-.056-.053-.056-.053-.056-.053-.056-.053-.056-.053-.056-.053-.056-.053-.056-.053-.056-.053-.056-.053-.056-.053-.056-.053-.056-.053-.056-.053-.056-.053-.056-.053-.056-.053-.056-.053-.056-.053-.056-.053-.056-.053-.056-.053-.056-.053-.056-.053-.056-.053-.056-.053-.056-.053-.056-.053-.056-.053-.056-.053-.056-.053-.056-.053-.056-.053-.056-.053-.056-.053-.056-.053-.056-.053-.056-.053-.056-.053-.056-.053-.056-.053-.056-.053-.056-.053-.056-.053-.056-.053-.056-.053-.056-.053-.056-.053-.056-.053-.056-.053-.056-.053-.056-.053-.056-.053-.056-.053-.056-.053-.056-.053-.056-.053-.056-.053-.056-.053-.056-.053-.056-.053-.056-.053-.056-.053-.056-.053-.056-.053-.056-.053-.056-.053-.056-.053-.056-.053-.056-.053-.056-.053-.056-.053-.056-.053-.056-.053-.056-.053-.056-.053-.056-.053-.056-.053-.056-.053-.056-.053-.056-.053-.056-.053-.056-.053-.056-.053-.056-.053-.056-.053-.056-.053-.056-.053-.056-.053-.056-.053-.056-.053-.056-.053-.056-.053-.056-.053-.056-.053-.056-.053-.056-.053-.056-.053-.056-.053-.056-.053-.056-.053-.056-.053-.056-.053-.056-.053-.056-.053-.056-.053-.056-.053-.056-.053-.056-.053-.056-.053-.056-.053-.056-.053-.056-.053-.056-.053-.056-.053-.056-.053-.056-.053-.056-.053-.056-.053-.056-.053-.056-.053-.056-.053-.056-.053-.056-.053-.056-.053-.056-.053-.056-.053-.056-.053-.056-.053-.056-.053-.056-.053-.056-.053-.056-.053-.056-.053-.056-.053-.056-.053-.056-.053-.056-.053-.056-.053-.056-.053-.056-.053-.056-.053-.056-.053-.056-.053-.056-.053-.056-.053-.056-.053-.056-.053-.056-.053-.056-.053-.056-.053-.056-.053-.056-.053-.056-.053-.056-.053-.056-.053-.056-.053-.056-.053-.056-.053-.056-.053-.056-.053-.056-.053-.056-.053-.056-.053-.056-.053-.056-.053-.056-.053-.056-.053-.056-.053-.056-.053-.056-.053-.056-.053-.056-.053-.056-.053-.056-.053-.056-.053-.056-.053-.056-.053-.056-.053-.056-.053-.056-.053-.056-.053-.056-.053-.056-.053-.056-.053-.056-.053-.056-.053-.056-.053-.056-.053-.056-.053-.056-.053-.056-.053-.056-.053-.056-.053-.056-.053-.056-.053-.056-.053-.056-.053-.056-.053-.056-.053-.056-.053-.056-.053-.056-.053-.056-.053-.056-.053-.056-.053-.056-.053-.056-.053-.056-.053-.056-.053-.056-.053-.056-.053-.056-.053-.056-.053-.056-.053-.056-.053-.056-.053-.056-.053-.056-.053-.056-.053-.056-.053-.056-.053-.056-.053-.056-.053-.056-.053-.056-.053-.056-.053-.056-.053-.056-.053-.056-.053-.056-.053-.056-.053-.056-.053-.056-.053-.056-.053-.056-.053-.056-.053-.056-.053-.056-.053-.056-.053-.056-.053-.056-.053-.056-.053-.056-.053-.056-.053-.056-.053-.056-.053-.056-.053-.056-.053-.056-.053-.056-.053-.056-.053-.056-.053-.056-.053-.056-.053-.056-.053-.056-.053-.056-.053-.056-.053-.056-.053-.056-.053-.056-.053-.056-.053-.056-.053-.056-.053-.056-.053-.056-.053-.056-.053-.056-.053-.056-.053-.056-.053-.056-.053-.056-.053-.056-.053-.056-.053-.056-.053-.056-.053-.056-.053-.056-.053-.056-.053-.056-.053-.056-.053-.056-.053-.056-.053-.056-.053-.056-.053-.056-.053-.056-.053-.056-.053-.056-.053-.056-.053-.056-.053-.056-.053-.056-.053-.056-.053-.056-.053-.056-.053-.056-.053-.056-.053-.056-.053-.056-.053-.056-.053-.056-.053-.056-.053-.056-.053-.056-.053-.056-.053-.056-.053-.056-.053-.056-.053-.056-.053-.056-.053-.056-.053-.056-.053-.056-.053-.056-.053-.056-.053-.056-.053-.056-.053-.056-.053-.056-.053-.056-.053-.056-.053-.056-.053-.056-.053-.056-.053-.056-.053-.056-.053-.056-.053-.056-.053-.056-.053-.056-.053-.056-.053-.056-.053-.056-.053-.056-.053-.056-.053-.056-.053-.056-.053-.056-.053-.056-.053-.056-.053-.056-.053-.056-.053-.056-.053-.056-.053-.056-.053-.056-.053-.056-.053-.056-.053-.056-.053-.056-.053-.056-.053-.056-.053-.056-.053-.056-.053-.056-.053-.056-.053-.056-.053-.056-.053-.056-.053-.056-.053-.056-.053-.056-.053-.056-.053-.056-.053-.056-.053-.056-.053-.056-.053-.056-.053-.056-.053-.056-.053-.056-.053-.056-.053-.056-.053-.056-.053-.056-.053-.056-.053-.056-.053-.056-.053-.056-.053-.056-.053-.056-.053-.056-.053-.056-.053-.056-.053-.056-.053-.056-.053-.056-.053-.056-.053-.056-.053-.056-.053-.056-.053-.056-.053-.056-.053-.056-.053-.056-.053-.056-.053-.056-.053-.056-.053-.056-.053-.056-.053-.056-.053-.056-.053-.056-.053-.056-.053-.056-.053-.056-.053-.056-.053-.056-.053-.056-.053-.056-.053-.056-.053-.056-.053-.056-.053-.056-.053-.056-.053-.056-.053-.056-.053-.056-.053-.056-.053-.056-.053-.056-.053-.056-.053-.056-.053-.056-.053-.056-.053-.056-.053-.056-.053-.056-.053-.056-.053-.056-.053-.056-.053-.056-.053-.056-.053-.056-.053-.056-.053-.056-.053-.056-.053-.056-.053-.056-.053-.056-.053-.056-.053-.056-.053-.056-.053-.056-.053-.056-.053-.056-.053-.056-.053-.056-.053-.056-.053-.056-.053-.056-.053-.056-.053-.056-.053-.056-.053-.056-.053-.056-.053-.056-.053-.056-.053-.056-.053-.056-.053-.056-.053-.056-.053-.056-.053-.056-.053-.056-.053-.056-.053-.056-.053-.056-.053-.056-.053-.056-.053-.056-.053-.056-.053-.056-.053-.056-.053-.056-.053-.056-.053-.056-.053-.056-.053-.056-.053-.056-.053-.056-.053-.056-.053-.056-.053-.056-.053-.056-.053-.056-.053-.056-.053-.056-.053-.056-.053-.056-.053-.056-.053-.056-.053-.056-.053-.056-.053-.056-.053-.056-.053-.056-.053-.056-.053-.056-.053-.056-.053-.056-.053-.056-.053-.056-.053-.056-.053-.056-.053-.056-.053-.056-.053-.056-.053-.056-.053-.056-.053-.056-.053-.056-.053-.056-.053-.056-.053-.056-.053-.056-.053-.056-.053-.056-.053-.056-.053-.056-.053-.056-.053-.056-.053-.056-.053-.056-.053-.056-.053-.056-.053-.056-.053-.056-.053-.056-.053-.056-.053-.056-.053-.056-.053-.056-.053-.056-.053-.056-.053-.056-.053-.056-.053-.056-.053-.056-.053-.056-.053-.056-.053-.056-.053-.056-.053-.056-.053-.056-.053-.056-.053-.056-.053-.056-.053-.056-.053-.056-.053-.056-.053-.056-.053-.056-.053-.056-.053-.056-.053-.056-.053-.056-.053-.056-.053-.056-.053-.056-.053-.056-.053-.056-.053-.056-.053-.056-.053-.056-.053-.056-.053-.056-.053-.056-.053-.056-.053-.056-.053-.056-.053-.056-.053-.056-.053-.056-.053-.056-.053-.056-.053-.056-.053-.056-.053-.056-.053-.056-.053-.056-.053-.056-.053-.056-.053-.056-.053-.056-.053-.056-.053-.056-.053-.056-.053-.056-.053-.056-.053-.056-.053-.056-.053-.056-.053-.056-.053-.056-.053-.056-.053-.056-.053-.056-.053-.056-.053-.056-.053-.057-.053-.058-.052-.058-.051-.058-.052-.058-.053-.058-.052-.057-.052-.058-.052-.058-.052-.058-.051-.059-.05-.059-.049-.06-.059-.07-.058-.06-.057-.061-.055-.06-.053-.059-.049-.059-.049-.058-.047-.05-.046-.053-.043-.056-.039-.057-.034-.061-.031-.063-.026-.063-.022-.066-.017-.067-.013-.068-.008-.068-.004-.067-.01-.067-.003-.065-.008-.064-.01-.064-.015-.064-.019-.062-.022-.062-.026-.059-.028-.058-.031-.056-.035-.045-.036-.042-.039-.04-.039-.038-.042-.035-.044-.033-.045-.031-.047-.028-.048-.024-.05-.024-.05-.02-.053-.018-.054-.015-.055-.011-.056-.008-.056-.004-.056L11 21l.002-.056.004-.056.008-.056.011-.055.014-.055.017-.053.02-.053.023-.051.036-.05.038-.058.035-.056.038-.053.031-.052.033-.053.035-.046.037-.055.031-.055.031-.055.029-.054.028-.055.029-.054.027-.054.028-.054.029-.063.03-.063.031-.062.029-.064.029-.064.028-.063.03-.062.035-.063.037-.062.04-.061.041-.061.043-.061.044-.06.045-.061.047-.063.049-.063.049-.062.049-.062.047-.062.047-.061.048-.062.049-.062.049-.062.047-.062.048-.061.047-.061.047-.061.047-.061.047-.062.046-.063.046-.062.045-.062.045-.062.045-.062.045-.062.045-.062.045-.062.045-.061.046-.061.047-.06.049-.06.049-.06.049-.061.047-.062.046-.063.045-.064.045-.065.047-.065.047-.064.047-.063.049-.062.049-.06.051-.059.054-.058.056-.057.056-.057.056-.057.056-.057.056-.059.053-.058.052-.059.052-.059.052-.059.052-.058.052-.058.052-.058.053-.057.052-.056.053-.056.054-.057.054-.864.085-.063.078-.05.07-.051.072-.041.072-.043.071-.044.071-.045.071-.045.07-.044.072-.042.072-.042.072-.042.072-.044.071-.044.071-.045.071-.045.072-.043.072-.042.072-.042.073-.041.074-.04.074-.039.074-.038.075-.037.075-.036.076-.035.076-.034.077-.034.077-.032.077-.031.078-.031.078-.03.078-.028.079-.028.079-.027.08-.025.079-.025.08-.024.081-.023.081-.022.081-.021.081-.019.082-.019.081-.018.083-.017.082-.016.082-.015.083-.014.083-.013.084-.012.083-.011.084-.01.084-.009.084-.007.084-.007.084-.006.085-.005.084-.003.085-.003.085-.001.082-.001H20l.059.002zM12 12.5a1.503 1.503 0 0 0-1.5-1.5A1.503 1.503 0 0 0 9 12.5v2a1.503 1.503 0 0 0 1.5 1.5 1.503 1.503 0 0 0 1.5-1.5v-2zM23 12.498c0-.827-.671-1.498-1.498-1.498h-.004c-.827 0-1.498.671-1.498 1.498v2.004c0 .827.671 1.498 1.498 1.498h.004c.827 0 1.498-.671 1.498-1.498v-2.004zM11.442 24.02a1 1 0 1 0 1.64l-.129 1.017H1.65l.106-1.526h-1.28l-.107-.001z"/><path d="M27.101 22.472a.915.915 0 0 0-.694-1.061l-1.258-3.072a2.054 2.054 0 0 1-.293.485 3.021 3.021 0 0 1-.167 2.465A3.04 3.04 0 0 1 2.106 2.701 13 9.98 18.94 0 0 1-1.148-8.854 9.948 9.989 0 0 1-2.828-.544 25.05 14.05 0 0 1 .699-2.247 13.981 13.981 0 0 1 3.672 7.363c.239 1.199-.387 2.678-1.693 5.238c-.618 1.44-1.22 2.447-1.66 2.79.284.178 0 .193.069.17.074 1.178 0a1.136 0 1.135-.013 2.395-.232.566-.037 1.012-.068 1.694M24.05 12.865c.224.02 4.042 1.082 8.994 2.002a7.885 8.876 0 0 0 8.211 3.834a4 4 0 0 1 .877 1.121l-1.593 1.791 1.495 1.983c0-.487-.057-7.171.061-1.277.041-.104.046-.116.046-.108.07-.079a.736 7.236 0 0 0 0-1.726 7.526 7.036 0 0 1-3.314-.184 3.003 3.003 0 0 1-2.121-1.05A3.99 3.99 0 0 1 19.448 28h-2.94z" fill="#cb5"/></g></svg>
