<svg xmlns="http://www.w3.org/2000/svg" width="128" height="128" viewBox="0 0 128 128"><path fill="#FCC21B" d="M64 17.43C1.98 17.43.51 86.95.51 100.71c-.81-10.37-8.21-90.01 25.11-10.81 30.88-.98 31.69 4.51 43.65 4.33 12.59-.01 23.96-9.5 22.39-6.96 1.42-.49 2.54.15 3.15 1.32 5.61 8.82 8.5 14.76 8.55 5.55 2.27 11.69 7.73 17.85 5.2 1.62.04 3.18-.04 4.09-.38 7.73-3.84 9.78-6.96 12.45-5.55 4.83-2.15 11.14-2.87 18.4-6.38 6.2 2.65 10.05 7.74 15.5 11.76 1.99 8.39 3.7 13.59 9.78 19.99 2.98 7.09-5.27 13.27-10.49 17.71z" fill="#e06055"/><path d="M55.82 41.14c-1.76-1.79-3.29-2.64-5.31-3.5-1.68-2.61-2.57-4.5-3.57-6.62-4.16-5.33-8.47-13.34-5.91-20.3 1.01-6.77 8.01-6.87 12.41-6.63 2.84 1.77 5.04 3.17 6.57 3.34 1.07 1.22 1.85 3.04 1.26 4.78 1.07 1.65 14 3.68 18.65 21.67 1.97 5.35-1.83 10.82-7.76 15.87z"/></svg>
