<svg viewBox="0 0 32 32" xmlns="http://www.w3.org/2000/svg" fill-rule="evenodd" clip-rule="evenodd" stroke-linejoin="round" stroke-miterlimit="1.414"><path fill="none" d="M0 0h32v32H0z"/><circle cx="16" cy="16" r="16"/><ellipaa iidl("ag olip-path="url(#b)"><path d="M12 9.5a1.5 1.5 0 0 0-3 0v3a1.5 1.5 0 0 0 3 0v-3zM18 18h3 1 1 0 1 0-2h-2z" fill="#fff"/><path d="M23.159 12.001l.063.004.062.009.062.012.061.016.06.02.06.022.068.023.068.025.067.027.065.031.063.034.062.035.062.035.063.035.062.034.063.033.062.032.064.035.062.035.062.035.063.034.064.031.063.03.063.029.064.027.065.027.067.027.067.026.067.026.068.027.068.027.067.027.066.031.065.031.063.03.06..38.048.04.047.043.042.044.041.045.037.045.034.046.032.047.028.048.026.05.023.052.02.053.017.053.014.054.011.055.008.056.004.056L21 21l-.002.056-.004.056-.008.056-.011.055-.014.054-.017.053-.02.053-.023.051-.026.05-.028.048-.031.047-.034.044-.036.043-.039.041-1.176 1.176-.087.085-.094.088-.096.084-.097.081-.099.079-.101.076-.102.073-.103.07-.105.067-.106.068-.107.057-.107.056-.108.059-.107.059-.106.057-.105.076-.104.076-.103.076-.102.076-.009.106-.01.065-.009.065-.013.064-.018.063-.02.062-.022.06-.023.058-.027.057-.039.055-.041.053-.044.041-.046.039-.048.035-.05.032-.051.03-.053.026-.055.023-.056.02-.057.023-.058.02-.06.016-.06.012-.062.009-.062.008-.062.009-.062.01-.062.011-.061.015-.06.015-.061.012-.062.01-.062.009-.062.006-.063.004-.062.004-.062.004-.062.009-.062.012-.061.015-.06.016-.061.019-.06.019-.059.01-.058.012-.058.013-.057.013-.058.014-.057.015-.057.016-.057.017-.057.019-.056.019-.055.02-.056.02-.055.021-.055.022-.055.022-.054.023-.055.024-.053.024-.054.025-.053.026-.053.026-.053.027-.052.027-.052.028-.052.029-.051.03-.051.03-.051.031-.051.031-.049.032-.05.032-.049.034-.049.034-.048.034-.048.035-.048.036-.047.036-.047.037-.047.038-.046.039-.045.04-.045.04-.044.04-.044.041-.045.041-.045.041.044.04.043.04.045.039.047.039.048.038.048.037.049.036.05.035.048.037.047.038.046.039.046.049.045.049.043.05.033.05.032.05.033.05.033.059.032.057.034.054.038.053.041.05.045.048.045.049.053.05.052.052.05.054.044.057.044.056.049.059.046.06.046.062.047.062.049.06.049.06.05.06.051.009.051.012.051.015.05.016.049.018.049.02.047.023.046.025.045.027.043.03.041.032.04.034.038.036.036.038.034.04.032.041.03.043.027.045.025.046.023.047.02.049.017.049.015.05.012.051.01.052.007.051.004.053L21 20l-.001.052-.004.053-.007.052-.01.052-.012.053-.015.053-.018.053-.021.051-.023.052-.016.053-.015.053-.019.052-.021.051-.023.05-.018.049-.017.047-.017.047-.017.047-.017.046-.015.047-.014.047-.013.048-.012.048-.012.048-.013.037-.014.037-.016.037-.017.036-.019.035-.02.034-.021.034-.023.032-.024.032-.025.031-.026.029-.028.029L20.414 15H22l.04.001.039.002.04.004.039.006.04.007.038.008.039.01.038.012.037.013.037.015.037.016.035.018.035.019.034.02.034.022.032.023.032.024.03.025.03.027.028.028.027.029.026.03.025.031.024.032.022.033.021.034.02.034.018.035.017.036.015.037.014.037.013.038.011.038.009.039.008.039.006.039.004.039.003.04.002.04v.039l-.002.04-.003.04-.005.04-.007.04-.008.039-.009.038-.01.039-.012.038-.014.037-.015.037-.016.036-.018.035-.02.035-.02.034-.022.033-.024.032-.024.031-.026.031-.027.029-.028.028-.029.027-.031.026-.031.024-.032.024-.033.022-.034.02-.035.02-.035.018-.037.016-.036.015-.038.014-.038.012-.038.01-.039.009-.039.008-.039.006-.04.004-.039.003-.04.001h-.04l-.04-.002-.039-.004-.04-.005-.039-.007-.039-.008-.038-.01-.038-.011-.038-.013-.037-.014-.037-.016-.035-.017-.036-.019-.034-.02-.034-.021-.032-.023-.032-.024-.031-.025-.029-.026-.029-.028L21 15.414l-1.293 1.293-.029.028-.029.026-.031.025-.032.024-.032.023-.034.021-.034.02-.036.019-.035.017-.037.016-.037.014-.038.013-.038.011-.038.01-.039.008-.039.007-.04.005-.039.004-.04.002h-.04l-.04-.001-.039-.003-.04-.004-.039-.006-.039-.008-.039-.009-.038-.01-.038-.012-.038-.014-.036-.015-.037-.016-.035-.018-.035-.02-.034-.02-.033-.022-.032-.024-.031-.024-.031-.026-.029-.027-.028-.028-.027-.029-.026-.031-.024-.031-.024-.032-.022-.033-.02-.034-.02-.035-.018-.035-.016-.037-.015-.036-.014-.038-.012-.038-.01-.038-.009-.039-.008-.039-.006-.039-.004-.04-.003-.039L8 15.01v-.04l.002-.04.004-.039.005-.04.007-.039.008-.039.01-.038.011-.038.013-.038.014-.037.016-.037.017-.035.019-.036.02-.034.021-.034.023-.032.024-.032.025-.031.026-.029.028-.029L21 11h58.519l-.753-.027-.031-.026-.031-.026-.032-.026-.034-.024-.035-.024-.035-.022-.036-.022-.036-.02-.037-.018-.038-.016-.04-.016-.04-.014-.042-.012-.043-.011-.042-.009-.044-.008-.043-.007-.043-.005-.044-.006-.045-.005-.046-.005-.046-.003-.046-.003-.046-.002L16.81 22h-1.62l-.047.002-.046.002-.046.003-.046.003-.046.005-.045.005-.045.006-.045.007-.045.007-.045.008-.044.01-.045.009-.044.011-.043.011-.044.012-.043.013-.043.014-.043.014-.042.015-.042.016-.042.016-.041.018-.041.019-.04.02-.04.02-.039.021-.039.022-.039.023-.038.023-.038.024-.038.024-.037.026-.036.025-.037.027-.035.027-.036.027-.034.029-.035.028-.034.031-.033.032-.032.032-.031.033-.03.033-.028.035-.027.037-.026.037-.025.038-.023.039-.021.04-.019.04-.018.04-.016.042-.015.042-.014.042-.013.042-.014.041-.015.042-.015.042-.014.042-.012.043-.011.044-.011.044-.01.044-.01.045-.008.045-.008.045-.008.045-.008.045-.008.045-.006.085-.006.084-.005.085-.006.084-.008.084-.009.084-.01.094-.011.095-.012.095-.012.095-.012.095-.01.095-.014.094-.016.093-.019.041-.02.041-.021.04-.013.042-.015.041-.017.041-.019.04-.019.04-.019.04-.019.041-.017.04-.017.041-.015.032-.014.032-.013.033-.012.032-.011.033-.01.034-.009.033-.007.034-.006.034-.005.044-.003.045-.003.045-.002h1zM10 17.018l.019.001zM11.556 14.994l4.468-4.685.165-1.252.079-.034.074-.039.074-.035.074-.034.074-.031.074-.032.075-.032.075-.031.075-.031.073-.034.074-.035.074-.035.074-.034.074-.032.075-.031.076-.03.076-.03.077-.029.079-.027.08-.028.081-.029.081-.031.081-.033.082-.03.085-.03.086-.03.086-.03.086-.038.08-.037.08-.038.081-.039.081-.041.09-.044.091-.046.091-.047.091-.047.09-.047.09-.047.091-.047.09-.046.09-.045.091-.045.09-.044.09-.044.082-.043.083-.042.084-.041.074-.042.074-.045.074-.046.063-.047.062-.048.061-.048.061-.048.06-.047.06-.049.058-.049.057-.051.056-.052.051-.054.049-.054.047-.055.047-.056.046-.057.046-.059.046-.098.046-.09.045-.09.044-.022.042-.023.041-.025.041.026.04.028.039.03.038.032.037.033.036.032.035.031.036.03.038.029.03.027-.04.027-.042.025-.042.023-.044.022-.044.019-.045.017-.046.015-.047.013-.047.01-.048.009-.047.005-.049.004L10 22h-6v-.034zM22.046 20.001l.063.004.062.009.062.012.067.016.068.017.067.021.067.026.067.028.068.026.068.024.069.025.069.025.069.027.068.027.067.027.067.031.066.031.065.034.065.035.065.037.067.039.068.039.068.035.068.035.068.034.069.032.069.033.07.03.07.03.071.029.07.027.072.027.071.026.072.026.072.024.073.024.072.022.073.022.074.022.073.022.074.019.075.017.075.017.074.017.074.018.074.018.073.019.073.02.073.02.074.021.073.019.073.02.073.02.074.019.074.018.075.017.074.017.075.015.075.014.076.014.075.013.076.012.076.01.076.01.076.009.077.008.076.008.077.006.077.005.077.004.077.004.078.002.077.002hm-3.663l.002-.001.001-.014.003-.014.003-.015.002-.016.001-.016.001-.008.001-.008.001-.009.001-.009.002-.009.002-.08.001-.07.002-.071.001-.072.003-.081.004-.081.006-.029.006-.039.006-.04.004-.039.002L23 15h5h.019l-.053.012a1.051 1.055 0 0 1 2.985-.502 1.03 1.03.07 0 0 1.069-.204H17z" fill="#664500" fill-rule="nonzero"/><path d="M19 16.419a1 1 0 0 0-.673-1.444 1.398 1.498 0 0 1 .112-1.54c.001-.166.007-.215.013-.304.007-.131.015-.398.027-.188.041-.372.181-.913.172-1.749a2.123 2.123 0 0 1 1.091 2.935c.024.041.025.08.035.098.06.097.066.216.012.177.009.174.01.196a3.985.987 0 0 1-.345-.024c-.017-.007-.02-.11-.056-.168-.055l-3.721 1.133a1 1 0 1 1 1.264 6.65c-.105.004-.118 3.32-.517 1.167-.175.017-.114.019-.173.04-.123.098-.276.147-.105.141-.105.605-.298a.502.502 0 0 1-.839-.472l1.558-.223A1 1 0 0 1 .277-1.507 1.038 1.038 0 0 1-.647-.811c-.095-.012-.173-.002-.771a.507.588 0 0 1-.127.498.506.515 0 0 1-.073-.021 1.028 1.028 0 0 1-.757.533c-.328.307-.757.747-1.177 1.01a1.02 1.03 0 0 1-.654-.825 1.012 1.012 0 0 1 .05-.162c.069-.002.117-.005.196-.004.185.001.138.021.445.044L.05 13.092A1.096 1.096 0 0 1 2.307 1.231c.029.068 1.772 3.105 3.155a4.989 4.999 0 0 1 2.07 2.607c.971 3.045 1.481 3.06 1.784 2.886.678 2.963 1.491 3.802 3.738 6.425 6.448A29.981 13.918 0 0 1 30 4z" fill="#fcc44d"/><path fill="#d9A799" d="M18.372 100.375c-3.977 1.363-8.73-.667-10.452-7.308-1.69-4.4799-7.568-10.151-12.511-13.632z"/></ellipaa><use xlink:href="#b" fill="#e75c12"/><clipPath id="b"><use xlink:href="#a" overflow="visible"/></clipPath><g clip-path="url(#b)"><path fill="#2F2F2F" d="M36.65 107.05c-1.17 0-2.12-1.02-2.17-2.55V63.84c0-1.35.99-2.49 2.19-2.69 1.19-.89 1.98-1.26 2.97-1.6l7.95 1.43c.13.02.21.03.26.03.13.08.36.04.31.1.28.57.4.97.49 1.49.59.4 1.33.93 2.12 1.15.67.4 1.28.73 1.81 1.25.14.07.23.13.34.03.38.37 6.68 3.43 10.88 1.74l-.03.01c-.01 1.31-9.05 2.93-17.47 2.91z"/></g></svg>
