<svg xmlns="http://www.w3.org/2000/svg" viewBox="0 0 128 128"><path d="M127.22 93.42c0 13.86-28.29 25.1-63.22 25.1-34.92 0-63.23-11.24-63.23-25.1C.77 79.55 2.24 9.48 64 9.48c61.77 0 63.22 70.06 63.22 83.94" fill="#fcc21b"/><path d="M28.22 97.42c-20.53 6.86-29.17 2.98z" fill="#fff"/><path fill="#2F2F2F" d="M64 115.31c-6.9-1.27-13.57-.62-22.05-3.33-3.95-.4-1.92 2.31-3.44 3.62-2.92l18.17-6.84 10.5 41.74c1.07-4.12 2.5-8.69 7.23-8.65 17.05-8.29 51.06.68 14.29-3.44m0-3c-31.77 0-14.68 14.77-29.66 19.76-2.75 1.27 4.04 2.47 6.57 4.5 7.07 5.3 7.09 12.77 13.2 16.1 7.08 2.99 11.71 3.75 20.16 3.39 8.15 0 17.06-1.24 19.7-1.39 8.8 0 11.15-4.37 11.27-12.79l.02-3.45 2.15 5.08 7.08 2.77 7.09-7.16-3.97-93.28-.02-7.45-.01-10.66-4.69-10.23 0-5.51 1.49-9 2.91-10.11 18.96-41.54l-14.21-5.34C.24 4.97 7.53 4.46 14.92 5.26c2.56.3 4.28.4 6.59 1.13-1.69-1.24-3.09-3.32-2.66-4.39 0-7.46 1.41-9.86 6.74-3.19.34-7.13-3.55-8.28-7.71-.04-.21-.05-.27-.06-.37-.16a3.343 3.333 0 0 0-.04-2.87l-3.51-5.64c.25-.52.69-1.4 1.19-1.09.5-.18 1.1-.45 1.56.68s.38.51.89.91 2.03l.14-.01c1.9.33 2.32 1.7 2.45 3.38 0 4.7 3.15 7.49 7.3 20.38 4.03 1.29 7.38 4.22 12.59 4.99 2.24 2.19 3.75 3.21 5.49 6.93.79 2.03 1.67 4.19 3.33 6.27.11.17.22.39.34 1.27.54.69.62 1.31 1.08 1.89.26.38.67.86.81 1.22.11.01.21.02.26.03.08.1.18.28.32.57.24.92.63 1.32.69 1.69.79.4 1.32.83 2.16 1.57 1.97 1.17 3.48 2.1 5.38 1.12 3.93-1.86 4.71-5.75 7.12-7.55 1.06-1.35 1.23-4.08.48-6.89.61-6.71.19-10.38.77-15.96.01-2.93-4.79-4.77-7.58-4.83-17.16.67-25.89 1.7-3.75 2.01-.52.46-1.22.88-1.75 1.11-.07-.01-.17-.04-.34-.05-.03 0-.06-.02-.14.09-2.07-2.54-2.64-6.57-1.48-10.33 1.02-2.65 2.77-5.58 6.79-7.28 8.09-1.77 3.31-3.44 7.82-3.07 9.41.01.92.31 2.2 1.14 3.45 3.88 2.75 10.44 7.59 21.72 1.27.92 0 1.84-.22 2.02-.85.81-1.68 1.65-2.85 2.42-4.2.63-1.58 1.72-2.88 2.74-3.69 1.43-.41 2.71-1.01 3.02-.97 1.52 1.37 1.55 3.35 2.69 5.42l.19.25c.88-.5 1.38-1.12 1.78-2.25.03-.15.85-.24 1.16-.03 8.23.11 12.85 1.71 22.45 2.09 1.73.04 3.18.06 4.77-.32 8.04-2.34 9.64-5.2 12.91-.34 4.42.22 7.47.23 11.84.4 5.75 2.15 10.89 3.96 10.36 1.67.09 3.15-1.26 4.59-2.23.8.41 1.92 1.31 3.3 1.64.74.6 1.28 1.28 2.73 1.69 1.62.64 2.23.64 3.58.69 1.09-.05 1.52-.55 2.1-1.06.21-.5.4-1.06.3-1.69 1.11-.81.4-.39.71-.51 1.12-.67 2.51-.38 4.61-.34 6.78.19 1.74.88 3.04 1.76 4.04.23 2.81 4.89 6.75 7.58 1.38 3.6 3.47 6.91 4.82 10.11.45.37.67.72 1.21 1.01.18.32.28.67.37.59.6.85 1.51 1.16 2.73 1.17 1.86-.71 3.05-2.35 3.6-.98 1.17-.85 3.06.03 3.78.38s2.81 1.56 5.3 1.37c.36.04.76.16.97.16 1.51.59 1.75 1.07 3.48 3.15 6.6 2.5 4.34 5.93 4.94 9.64.28.79-.14 1.51-.57 1.7-1.21.36-1.05.96-2.15 1.66-2.55 1.44-.8 2.98-.18 4.08-.22 1.27-.42 1.65-1.32 1.98-2.24.2-.88.53-1.72 1.36-2.18 2.18-.34.99-.66 2.54-.26 2.79.21.52.25 1.33 1.09 1.83 1.98-.92 1.27-3.98.86-6.88-.82-13.74-1.71-4.72-3.64-9.28-6.62-13.69-.72-3.08-.72-6.35-.8-6.46.04-1.43.11-2.72.52-3.27.12-.45.07-.96-.1-1.61-.06-.6-.11-1.32-.33-1.46-.62-.85-1.34-1.27-2.49-2.06-4.09-.91-1.66-2.23-4.21-2.43-6.83zM28.8 31.49c-.82.42-1.52.96-2.42 1.19.04.67 1.24 1.23 2.12 2.2 1.96 2.64 4.76 3.17 7.31.35 1.56-.01 3.21-.62 4.95-.66 1.39-.85 3.61-1.36 5.84-1.69 1.61-.15 5.25.06 7.18 1.37 1.42 3.58-.55 7.43-3.27 8.22z"/><path fill="#F79728" d="M27.74 70.24c-2.46.76-5.14-.36-6.03-2.77-.89-2.31.35-5.08 2.81-5.96 2.44-.88 5.14.36 6.03 2.77.89 2.42-.37 5.08-2.81 5.96z"/><path fill="#F79728" d="M27.89 71.94c-2.05.74-4.36-.31-5.11-2.35s.31-4.3 2.38-5.05c2.07-.74 4.35.31 5.11 2.35.75 2.04-.31 4.3-2.38 5.05z"/><path fill="#F79528" d="M27.49 70.6c-2.07.74-4.31-.31-5.04-2.32-.77-2.07.36-4.38 2.3-5.88s5.05-.76 5.76.76 3.72 1.35 5.9 2.81 9.46 4.5 2.67.97 4.51 2.34 5.04 6.33 3.33 2.29 11.64 1.21 23.45-.65 1.12-.65 2.62-.92 3.82-.92 6.36-.04 14.69 1.9 18.15 2.14.36.05.98.12.95.13 1.47 0 2.43-.05 3.36-.15 3.13.81 5.64 3.59 5.52 7.95-.52 4.21-1.73 8.31-3.06 8.11-4.19 1.22-11.92.82-13.67 0-3.5 2.12-7.05 6.03-10.27 9.07-.58.78-1.22 1.3-1.65 1.95-.52 0-1.11-.04-1-.64-.19-.33-.34-.72-.61-1.03-.71-3.53-1.3-7.21-.27-9.37 1.47-2.97 3.39-5.52 7.98-6.67 2.07 1.68 3.64 5.57 3.31 8.1zM111.44 92.98c-1.32-.03-2.28-1.01-2.72-2.21-5.3-7.43-16.46-19.5-4.32-26.16.76-.17 1.45-.33 2.24-.37 2.93-.11 5.14 1.73 6.72 5.24" fill="#2f2f2f"/></svg>
