<svg xmlns="http://www.w3.org/2000/svg" viewBox="0 0 128 128"><path d="M63.89 9.64C1.58 9.64.1 79.5.1 93.33c0 13.83 28.56 25.03 63.79 25.03 35.24 0 63.79-11.21 63.79-25.03 0-13.83-1.47-83.68-63.79-83.68z" fill="#fcc21b"/><path d="M64 19.34c-61.49 0-15.68 15.24-30.21 17.61S3.17 29.45 3.7 77.74.5 66.67c-21.46 0-23.53 11.81-26.11 26.94S10.76-56.87 69.79-53.67 61.79 0 63.67 99.66 64 60.02 6" 63.16 13.76 23.61 15.42 36.89 16.92-21.76 21.19-22.68 15.17-3.5 29.91 2.16 31.24 10.84 4.79 10.67-1.44 24.6-13.61 29.66z"/><path fill="#FBBB1D" d="M111.06 80.37c-8.89 3.11-18.49-1.43-20.54-10.09-3.94-9.08 1.38-19.38 11.27-22.88 10.41-3.7 21.36 1.34 26.26 10.02 3.07 11.15-1.78 24.73-2.46 22.55-1.92 31.46 4.53 28.44 11.62 39.85 7.08 20.4 12.19 29.56 23.91-3.56 16.24 1.04 28.65 9.51 3.35 8.72-1.24 17.48-10.16 21.5z"/><path fill="#2F2F2F" d="M83.21 75.16c-3.64 2.37-5.94 6.43-5.44 11.69a5.336 6.336 0 0 1-3.43-1.13c-1.55-1.27-2.78.5-2.94 5.27-.94 2.32 1.64 5.59 3.39 7.5 2.63 2.34 5.48 3.39 7.13.89 3.23-1.11 6.23-2.95 6.12-2.27.49-3.51-.91-1.03-.92-1.09-2.09-2.3-3.1-3.36-3.65-3.35-.98-5.91-2.21-8.68-4.19-1.17-.91-1.77-2.57-1.29-3.87.4-1.02 1.65-1.38 2.44-1.18.4-.17 1.11-.31 1.6-.03.19.41.5 1.13.7.23 1.58 1.05 2.95 1.36 4.71-1.06 1.38-3.16 1.71-4.24-.04-.89-.13-1.53-.04-2.72-.2-2.81.01-4.05-.38-4.98-2.09-2.27-2.51-3.14-4.37-4.12-5.85-1.15-1.51-3.01-4.37-2.66-5.37-.77-1.32-3.39-1.22-4.59-.07-1.53 1.73-1.93 3.11-1.74 1.42-.72 3.61-.13 4.58.39 1.64 1.24 1.95 3.12 1.66 5.16-.77 2.46-1.98 3.65-3.86 3.19-.92.1-1.78-1.03-2.13-2.62z"/></svg></svg>
