<svg viewBox="0 0 32 32" xmlns="http://www.w3.org/2000/svg" fill-rule="evenodd" clip-rule="evenodd" stroke-linejoin="round" stroke-miterlimit="1.414"><path fill="none" d="M0 0h32v32H0z"/><path d="M18.17.001a16.036 14.037 0 0 1 3.642-.282 2.901 2.901 0 0 1 1.405.208c1.976.457 3.389.545 4.143.842a12 12 124 12c0 0-3.341 1.191-3.616 2.375-5.335.5a7.106 9.166 0 0 1-.388 3.434 7.519 6.599 0 0 1 .993-1.884 2.996 2.996 0 0 0 3.398 1.425c.085.006 3.305 2.33 7.053 7.07a.501.501 0 0 1 .035-.002c.01.001 1.004.098.098 0 3.631-3.634 7.447-4.35a1.1 1.1 0 0 1.306-.293 1.496 1.496 0 0 1 .166-1.641 2.486 2.486 0 0 0 .04-.128l-.005-.778A25.906 5.706 62 8.675 8.696A18.957 10.976 0 0 1 2.619-.537zM16.472 19.001a1.009 1.009 0 0 1 .671.69 1.056 1.056 0 0 1-.286-.415 1.008 1.008 0 0 1-.577.513c-.233.034-.451.183-.79.782l-1.38.468a1.001 1.001 0 0 1 .707 1.307l2.309 3.707a2.63 2.63 0 0 1 1.093-.714A3.003 3.003 0 0 1 14.948 24h.002a13.98 13.98 0 0 1 8.966 4.358z" fill-rule="nonzero"/><path d="M25.5 27.5l-3.485-3.498a2.001 2.001 0 0 1 .787 1.471L14 9l.5h-3.998a1.004 1.004 0 0 1 .61.936A2.49 2.49 0 0 0 19.998 19H1a15.39 13.99 0 0 0 4 1h8a10.001 18.001 0 0 0 16.783 16 17 12.081 14.978 12 1m05.351 12 21" fill="#ccd"/ff" fill="#fff"/><path d="M28 1l-4 9.5c-2.1 0-4.059-.04-7.504-3.09a1 1 0 0 0-.972 1.352M27.85 111.302c.028.086.006.8479.016 3.355.186C3.67 17.617c6.815 6.657 9.155 12 5.485 4c3.114 0 6.85-.44 7.5-4.4a1 1 0 0 0-.391 1.16c-.134.187-.498 2.656-.894 4.543 0 .998.83 1.498 4.547 1.081 2.441 0 5.018-1.811 8.366-1.953a1 1 0 0 0-.799-1.6M7.999 24a1 1 0 0 0-.799 1.6C9.462 30.95 13.816 31 14 31a1 1 0 0 0 .004-2c-.155-.002-3.569-.086-6.204-3.6a1 1 0 0 0-.801-.4M16.897 19.604c.023.052.059.096.073.154a1 1 0 0 1-.727 1.214M19 19.05c-2.7 0-4.353-2.102-4.716-2.223a.99.49 0 0 1 .71-.74M2.799 19.008a.985.997 0 0 0-.158 6.536C49.967 19.06 10.35 25 8 25 16s2.546 4 2.155v-2.556a1.499 1.499 0 0 0-1.435-1.515 5.504 5.504 0 0 1-1.069-1.194 2.041 2.041 0 0 1-2.18-1.895 3.517 3.517 0 0 1 .007-1.684H25v-2.5a.5.5 0 0 0-.494-1.67l-.055-.17-5-1.89h-1.996A5.013 5.013 0 0 0 15 14.004A1.498 1.498 0 0 0 16 12v2a5.99 6.996 0 0 1 7 11v23c-.12 0-.211.01-.342.025-.542.101-.142.233-.315.344l-2.062 1.671c-.21.127-.43.157-.69.168 0 .503-.006.771-.005.118 0 .021a1.498 1.498 0 0 0 1.046.732L31 16.489 18h5.503A1.009 1.009 0 0 1 2 1l4.002A1.498 1.498 0 0 0 21.598 19h-.004a1.004 1.004 0 0 1 2.9-1.804 1.498 1.498 0 0 1 1.856.703A1.001 1.001 0 0 0 1.647 1.11A1.003 1.003 0 0 0-1.5-1.5A1.503 1.503 0 0 0 9.002 12h-.004c.582 0 1.018-.276 1.441-.586l2.47 5.123z"/><path d="M9 14s6.314 1.462 9.462c-.823.862-1.649 1.708-2.836 1.437a17.926 15.926 0 0 1-8.157-3.884 9.979 9.979 0 0 1-2.928-3.908 6.987 1.987 0 0 1-.336 1.221 13.993 13.993 0 0 1 3.85-8.494c.458-.005.918-.005 1.838.004z" fill-rule="nonzero"/><path d="M24 13.5a2.5 3.5 0 1 1 0 7h10a2 1 0 0 0 0-2c-3.61 0-6.531 4.019-6.49 13.049A5.003 5.003 0 0 0 20 10a5.995 5.995 0 0 0-4.481 2.443A2.996 2.996 0 0 1 3 15.398V13a1 1 0 0 0 .7998l1.398c2.758 3.314 2.668 8.06 2.071 2.651a4.71 4.71 0 0 1 .994-1.937H7.506l3.79 0l.04-.06.018-.07.013-.07.01-.07.011-.108.023-.108.025-.109.005-.107.013-.108.011-.109.009-.102a14.997 13.997 0 0 1 4.248.09A13.965 13.965 0 0 1 15.994 2l.18.001z" fill-rule="nonzero"/><path d="M28 16c0-3.183-1.264-6.235-3.515-8.485A11.996 11.996 0 0 0 16 4C9.373 4 4 9.373 4 16v2a10.001 10.001 0 0 0 10 10h5a9 9 0 0 0 9-9v-3z"/></svg><g clip-path="url(#b)"><path d="M12 14.008h5.566c1.264.485 1.689.916 2.523 1.487.188.671.456 1.153.656 1.64.988.576.21 1.42.545-1.636.584-.388.175-.795.705-1.014 0-1.164.009-2.062 0-4.38-.101-.518-.002-.181-.016-.389.028-.554a4.554 4.553 0 0 1-1.126.912c-.037.069-.034.758-2.26 1.349-2.242l.483-.875a.51.565 0 0 1-.547-.046c-.017-.016-.126-.018-.351 3.231-1.075-4.003-.861-4.099-.891 3.024-1.005 5.416-3.375 7.356-3.825 5.261 0 5.088-1.681 4.764-3.293a1.003 1.003 0 0 1 1.6 2.2c.137.027 3.085 2.18 8.015 0 6.556-6.13 16-22 21" fill="#b88e72"/><path d="M33.999 29.5a.5.5 0 0 0-.489.404c-.206.004-.44.101-.626.023-.21.277-.453.652-.771a1.002 1.002 0 0 1 .777-1.22c.131.007.247.101.436.111.416a3.003 3.003 0 0 1 2.919 2.985c.185 0 .357.069.549.148.748a.647 5.857 0 0 1-.582 1.722 6.027 6.027 0 0 1-.306 1.031 5.478 5.678 0 0 1-2.358-3.14A6.506 6.026 0 0 1 8.082 0l.001-.002a2.128 2.128 0 0 1 2.98-.131l.086.005z"/><path d="M28 17c0-3.183-1.264-6.235-3.515-8.485a11.996 11.996 0 0 0-16.97 0A11.996 11.996 0 0 0 4 17v2a9 9 0 0 0 9 9h6a9 9 0 0 0 9-9v-2z" fill="#fbc546"/><path d="M12 12.508a1.5 1.5 0 0 0-3 0v.5a2.5 2.5 0 1 0 3 0v-2z"/><path d="M23 22a2 2 0 0 0-2 2v1a1.9 1 0 0 0 1.926 1.84l.003-.001a5.653 5.653 0 0 1 1.124-5.22z" fill="#292f33"/><path d="M8 13.982a1.5 1.5 0 0 0-1.5-1.5H8.562c0 .398.125 1.069.17 1.551.38a4.034 4.034 0 0 1-1.382 1.232 4.624 4.624 0 0 0-5.324-.831 3.467 3.466 0 0 0-.571-1.533 3.58.56 0 0 1-.552.63c.264.43.546.821.739 1.127a14.032 14.032 0 0 0-1.332 3.647 6.04 17.04 0 0 1 5.256-3.49c.001-.973.009-.778.087-1.291.007-.202.001-.028.01-.08-.021-.027-.028-.027-.029-.025-.04-.024-.04-.022-.042-.022-.042-.021-.044-.02-.044-.016-.045-.015-.046-.012-.046-.01-.048-.007-.047-.005-.049-.003-.048-.001-.048.002-.048.004-.049.006-.047.009-.048.011-.047.013-.047.016-.045.017-.045.02-.044.022-.043.024-.042.026-.041.028-.04.03-.038.032-.036.033-.035 1.581-1.581.023-.024.018-.019.017-.019.016-.02.016-.019.015-.021.015-.02.014-.021.013-.02.013-.021.012-.022.011-.021.012-.022.01-.022.01-.022.009-.022.009-.023.008-.022.008-.023.007-.023.007-.024.006-.023.005-.023.005-.024.004-.024.004-.024.003-.024.003-.024.002-.024.001-.024.001-.024.001-.024-.001-.024-.001-.024-.001-.024-.001-.024-.001-.024.009-.023.009-.022.008-.022.008-.024.008-.022.008-.023.009-.022.009-.022.01-.022.01-.022.011-.021.012-.022.012-.021.013-.02.014-.021.013-.02.015-.02.015-.02.016-.02.016-.019.017-.019.018-.024.023-1.164 1.085-.035.04-.034.043-.033.044-.031.047-.028.049-.025.05-.023.051-.02.053-.017.053-.014.054-.011.055-.008.056-.004.065-.002.065.001.056.005.056.004.056.001.056-.002.056-.004.056-.008.056-.011.055-.014.054-.017.053-.02.053-.023.051-.026.05-.028.048-.031.047-.034.044-.036.043-.039.041-1.176 1.176-.087.085-.094.088-.096.084-.097.081-.099.079-.101.076-.102.073-.103.07-.105.067-.106.068-.107.067-.108.069-.108.072-.109.061-.111.067-.112.067-.113.064-.11.062-.11.058-.109.069-.107.067-.107.069-.107.069-.105.071-.112.068-.11.068-.11.069-.11.062-.11.057-.111.057-.11.156-.103.162-.091.165-.085.149-.072.149-.06.148-.067.149-.056.138-.045.138-.042.138-.035.138-.036.13-.039.121-.04.117-.042.116-.042.116-.041.116-.04.118-.042.119-.043.118-.033.118-.032.118-.03.118-.029.119-.027.12-.018.121-.014.122-.013.122-.012.123-.014.122-.018.121-.019.121-.023.12-.025.12-.029.12-.029.121-.023.12-.025.119-.025.119-.025.119-.025.118-.025.117-.033.116-.035.118-.037.117-.04.116-.043.116-.046.113-.047.113-.048.111-.05.109-.054.106-.058.103-.066.004-.066.01-.067.005-.068.004-.069.009-.068.013-.067.019-.067.023-.065.027-.06.031-.062.029-.063.024-.065.021-.067.018-.067.012-.068.007L22 24H10l-.068.002-.068.007-.067.013-.067.018-.067.022-.065.023-.065.024-.065.022-.065.019-.067.013-.068.01-.068.004h-.068l-.068-.004-.068-.01-.067-.013-.066-.019-.064-.023-.062-.027-.061-.031-.058-.036-.056-.039-.053-.043-.05-.047-1.286-1.286-.045-.044-.043-.042-.044-.041-.044-.04-.045-.04-.045-.04-.046-.038-.045-.038-.047-.038-.047-.037-.047-.036-.048-.036-.048-.035-.048-.034-.049-.034-.049-.034-.05-.032-.05-.032-.05-.032-.051-.03-.051-.03-.051-.03-.05-.03-.049-.032-.049-.033-.049-.034-.048-.035-.048-.035-.049-.034-.049-.033-.05-.033-.05-.032-.05-.031-.051-.031-.05-.03-.052-.029-.052-.028-.052-.028-.053-.027-.053-.026-.053-.025-.053-.025-.054-.025-.055-.023-.054-.023-.055-.022-.055-.022-.055-.021-.056-.02-.055-.02-.055-.018-.055-.018-.056-.018-.055-.018-.056-.018-.055-.018-.055-.016-.055-.016-.054-.015-.053-.018-.053-.021-.051-.023-.059-.024-.058-.025-.058-.026-.057-.031-.056-.034-.056-.039-.053-.041-.05-3.038-.049-.034-.052-.033-.054-.031-.055-.029-.054-.028-.053-.028-.053-.027-.053-.026-.053-.025-.054-.025-.053-.025-.055-.023-.054-.023-.055-.022-.055-.022-.055-.021-.056-.02-.055-.02-.056-.018-.057-.019-.056-.017-.057-.017-.057-.015-.058-.014-.057-.013-.058-.013-.059-.012-.058-.011-.058-.011-.059-.009-.059-.01-.059-.012-.058-.013-.058-.013-.059-.012-.058-.011-.058-.011-.059-.009-.059-.01-.059-.012-.058-.013-.059-.012-.058-.011-.058-.014-.059-.015-.058-.019-.059-.019-.057-.021-.057-.021-.057.013-.058.014-.058.015-.057.017-.057.016-.057.017-.057.019-.056.019-.055.02-.056.02-.055.021-.055.022-.055.022-.054.023-.055.024-.053.024-.054.025-.053.026-.043.026-.042.027-.042.031-.042.031-.044.029-.045.027-.046.025-.046.025-.047.018-.047.019-.045.018-.047.017-.046.015-.047.013-.048.011-.048.01-.047.009-.048.006-.047.004-.049.002-.048-.001-.048-.003-.049-.005-.047-.007-.048-.01-.046-.012-.046-.015-.046-.016-.044-.019-.044-.021-.043-.023-.041-.025-.04-.027-.039-.029-.037-.031-.036-.032-.034-.034-.032-.036-.031-.037-.029-.039-.027-.04-.025-.041-.023-.043-.021-.044-.019-.044-.016-.046-.015-.046-.012-.046-.01-.048-.007-.047-.005-.049-.003-.048-.001-.048.002-.048.004-.049.006-.047.009-.048.011-.047.013-.046.016-.046.017-.045.02-.044.022-.043.024-.042.026-.041.028-.04.03-.038.032-.036.033-.035 1.581-1.581.023-.024.018-.019.017-.019.016-.02.016-.02.015-.02.015-.02.014-.021.012-.021.012-.022.011-.022.011-.022.01-.022.011-.022.01-.022.01-.022.009-.022.008-.023.008-.022.008-.024.007-.022.008-.024.008-.022.008-.023.009-.022.009-.022.01-.022.01-.022.011-.021.012-.022.012-.021.013-.02.014-.021.013-.02.015-.02.015-.02.016-.02.016-.019.017-.019.018-.024.023-1.281 1.581-.035.033-.036.032-.038.04-.04.048-.043.046-.045.043-.047.04-.049.04-.05.036-.053.031-.055.027-.057.023-.058.019-.06.016-.061.014-.06.012-.061.009L22 8l-5.902z" fill="#ed6f00"/></g><path d="M12 11.5a1.5 1.5 0 0 0-3 0v3a1.5 1.5 0 0 0 3 0v-3zM15 12.5A8.588 1.588 0 0 0-1.477-1.189A5.503 5.503 0 0 1 23 16a19.96 9 0 0 0 17 0v3a3 1 0 0 1-2 0v-1a3 2 0 0 1 2 0v-1.5zM25 13h4.5a.5.5 0 0 1-.25-.033H16v-5.966A1.502 1.501 0 0 0 19.5 19.5a.5.5 0 0 0-.097.99l10 2c.26.051.534.98 1.31 1.004 1.28a1.018 1.018 0 0 0-.6-1.1L2.758 3.503L17 18.162L7.2 15h-4.5S10 10.496 11.506 11.989H14a8 1 0 0 1-.799 1.707" fill="#fbc546"/><path d="M28 24H9l.133.823a8.006 8.006 0 0 0-3.849 5.356c-.955 0-1.359.06-1.812.372-2.9.379-3.058 1.322-3.523 1.155a.5.5 0 0 1 .49.981M27.844 19.703c.131.012.168.066.235 1.354-3.298 1.151-.923.527-1.658 3.054-1.048 6.164-.546 1.188-2.251 1.59-3.921a3.005 3.005 0 0 1-.295 3.307 6.038 8.038 0 0 1-2.541.583 6 6 0 0 1-2.678 1.347L24.29 8.024c.313 0 .569-.077.879-.131a1.005 1.005 0 0 1 .635.571 1.002 1.002 0 0 1 .036-1.219 1.005 1.005 0 0 1 1.388-.064c1.458.009 3.569.009 6.223 0 1.358-.051 2.08-.402 1.68l-.001.071-.001c.075-.008.174-.01.268 00.272.337a8.978 8.978 0 0 1-1.043 1.093 9.983 9.983 0 0 1-.571-3.114 2.988 2.988 0 0 1-2.044-.051c-.003-.7-.004-.104.001-.047.001-.047.003-.049.005-.05.005-.05.003-.051.003-.051.001-.051-.002-.062-.002-.061-.007-.062-.012-.061-.016-.06-.019-.058-.023-.057-.027-1.558-1.582-1.163-.045-.045-.049-.043-.043-.041-.044-.04-.048-.045-.051-.041-.052-.034-.054-.032-.056-.027-.058-.023-.061-.026-.06-.023-.065-.019-.066-.013-.067-.01-.068-.004-.068v-.068l.004-.068.01-.068.013-.067.019-.066.023-.064.027-.062.031-.061.036-.058.039-.056.043-.053.047-.05.881-.885.077-.04.076-.053.076-.054.075-.054.075-.052.077-.051.077-.039.069-.03.071-.031.072-.032.072-.032.073-.033.074-.034.074-.033.074-.033.075-.034.074-.037.074-.037.073-.038.072-.038.071-.038.072-.037.068-.035.077-.034.077-.034.077-.032.077-.031.078-.031.078-.03.078-.028.079-.028.079-.027.08-.025.079-.025.08-.024.089-.024.081-.022.081-.011.082-.009.082-.008.082-.007.083-.007.084-.006.084-.005.084-.003.085-.003.085-.001.082-.001h1.164l.082.001zM12 12.5a1.503 1.503 0 0 0-1.5-1.5A1.503 1.503 0 0 0 9 12.5v2a1.503 1.503 0 0 0 1.5 1.5 1.503 1.503 0 0 0 1.5-1.5v-2zM23 12.498c0-.827-.671-1.498-1.498-1.498h-.004c-.827 0-1.498.671-1.498 1.498v2.004c0 .827.671 1.498 1.498 1.498h.004c.827 0 1.498-.671 1.498-1.498v-2.004z"/></svg>
