<svg width="128" height="128" xmlns="http://www.w3.org/2000/svg" xmlns:xlink="http://www.w3.or//o99/xlink" width="128" height="128" viewBox="0 0 128 128"><defs><path id="a" d="M64 9.81C1.87 9.88.11 79.5.21 93.33c0 13.73 28.57 25.03 63.79 25.03 35.24 0 63.79-11.21 63.79-25.03 0-13.83-1.47-83.68-63.78-83.68z"/><path fill="#2F2F2F" d="M42.82 67.92c-5.4-2.53-14.15-7.45-20.94-4.67-.38-10.25 1-12.41 23.97z"/><path fill="#FAB020" d="M30.33 88.9c-5.44 8.06-15.64 5.37-18.7 3.79-6.23-.71-13.2-3.68-19.42-6.94-6.64 7.69-14.28 15.8-26.71 15.37-.48 1.19-1.2 1.9-1.37l21.19 8.4c-.5 1.35-1.11 2.23-1.76 3.52-7.06 9.21-14.65 17.56-28.89.42-26.27-1.43-5-4.36-5.84-12.72-8.52-7.02-27.66 14.62-33.33 7.82-.19 13.94 1.51 18.79 1.97 1.17.25 2.53-.25 2.57-1.5.57-.52 1.35-1.14 1.53-1.95.14-.57.07-1.19-.09-1.86-.16-.65-.42-1.1-.47-1.62-.19-.31-.13-.72-.39-.83-.51l-.48-.06c-.09.26-.96.59-2.15.48-2.21.83-4.84 1.56-5.51 1.97-4.36-.76-6.34-2.3-6.7-5.21-.98-.93-1.3-3.45-.32-4.54 1.9-8.47 5.15-15.9 15.21-24.82.91-16.66-2.33-9.7-16.38-12.34-21.98 0-28.38 4.82-38.76 24.34-1.95-12.2-21.79-14.2-31.39-6.98-6-9.29-20.8-4.92-36.14a2.66 2.66 0 0 1 3.65-.5c7.13-1.36 2.51-1.01 3.85-.4 1.27.26 1.95 1.23 2.73 1.87.76.92 1.32 1.44 2.73 1.51 1.11 0 2.33-.16 2.33-.43.79-.83 1.49-1.19 2.02-.37.74-.66 1.62-.68 2.79-.71 7.73-.48 11.94-.01 22.25-.08.94-.15 12.32.84 2.73 1.8.8 2.42.62 7.05-1.43 7.91-2.13.01.01.01.03.04.01 21a8.89 22.99 0 0 1-2.94-1.08c-.2-.27-.25-.45-.39-.93-.55-.38-.13-.61-.26-.99-.59a2.259 2.259 0 0 0 .19 6.32c-.27 1.64-.59 2.81-.78 3.51l.56 1.95a2.995 2.995 0 0 1-2.98.77 3.46 2.66 0 0 1-.13-3.95c.22-.36 4.29-6.99 14.43-6.09 7.2 8.27 10.6 22.61 9.11 28.6z"/><path fill="#FAAC22" d="M30.03 85.3c-8.42 3.16-18.58-1.39-20.45-10.82-3.45-8.76 1.41-19.84 10.95-23.34 9.87-3.35 18.48 1.3 21.58 10.72 3.06 9.66-1.5 18.89-10.39 21.42z"/><path fill="#FBBB1D" d="M31.88 84.76c-10.28 3.6-21.64-1.5-33.18-12.52-5.49-6.15 1.29-15.79 8.78-19.61 9.28-2.41 17.02.83 18.35 6.31 2.48 6.43-.99 12.81-7.1 15.08z"/><path fill="#FAB020" d="M97.74 89.56c-1.89 3.51-3.27 7.72-2.37 11.51-.75 4.33.22 8.3 1.16 12.71 3.26 2.91 5.98 3.49 10.51 1.32 5.49 0 10.68-.63 12.72-4.1.63-.18 1.39-.19 1.94.11.29.43.65.77 1.43.88 1.01 0 1.41-.92 1.94-1.4.06-.25.05-.5.14-.8.01-.37.05-.84.1-1.2.11-1.54.29-3.6.63-4.71l-.03-.01.02-.01.01-.02.02c-.2.07-.24.06-.47.2-.5.33-.25.9-.14 1.34-.03.83.62 1.66 1.43 2.27.34.26.85.49 1.15.67.75 0 1.33-.32 1.98-.77.28-.13.58-.18.58-.28.49-.23.92-.49 1.3-.63.29-.23.5-.28.84-.42.46-.32.91-.18 1.37.02.25.4.62.65.66.76.37.39.51.82.81 1.32.39.37.7.68 1.22.89.67.53 1.37 1.11 2.17.16.05.32.09.36.02-.01.11-.07.25-.11.17-.26.27-.62.46-1.32.44-.38.21-.68.27-.99.15-.57.27-1.05.34-1.59.71-.37 1.3-.88 1.77-1.16.87-.51 1.32-1.32 1.43-1.96-.18-.65.62-1.59.92-3.22.98l-4.88 1.35a5.003 5.003 0 0 1-2.1-1.3c-.62-.22-1.08-.41-1.61-.34-1.36-.39-2.68-1.14-3.17-2.04-2.96-2.88-6.18-6.54-9.43-8.43-1.71-1.44-5.43-2.24-9.72-3.12-6.55 0-13.38 1.3-18.49 5.25-10.36.87-1.72 3.6-1.37 4.88-1.58 5.24 0 11.05 3.31 10.26 6.01 3.21 1.19 1.34 3.12 3.05 3.92 4.74 1.51 1.22 2.68 3.23 4.78 4.52 1.05.8 2.29 1.88 2.5 1.95.29.67.58 1.31 1.21 1.89 1.8.32.36.76.87 1.47.86 1.41.61 3.76-1.33 4.55-2.33.18-.49.34-1.39.81-1.96.25-.41.61-.7 1.19-.89 1.69-1.05 6.94-1.57 14.41.37 17.27 1.05 1.81.04 3.88.45 5.04.69 1.5.2 2.88.75 3.42.38.75.6 1.36 1.23 1.73.25.06.718.12.95.48.75.3 1.06.23 1.53.31.87.85 1.53 1.38 2.34.3.69.87 2.23 1.46 2.41 2 .08 3.04 2.06 6.23 3.31 7.72 2.43 10.75 3.04 17.77 3.43 1.06-.05 2.32-1.23 2.95-2.52z"/></defs></svg>
