<svg xmlns="http://www.w3.org/2000/svg" viewBox="0 0 47.5 47.5"><defs><clipPath id="a"><path d="M0 38h38V0H0v38z"/></clipPath></defs><g clip-path="url(#a)" transform="matrix(1.25 0 0 -1.25 0 47.5)"><path d="M37 30c0 4.939-6.772 4.457-9.169 4.132C25.398 35.921 22.444 37 19 37c-3.438 0-6.388-1.081-8.818-2.869C7.797 34.456 1 34.948 1 30c0-2.891 1.563-4.732 2.433-5.533A26.05 26.05 0 0 1 2 16C2 6.059 12 3 19 3s17 3 17 13c0 2.835-.483 5.752-1.485 8.703C35.442 85.211 23.338 19 3s1 1 1 1c0 1.926-2.345 1.495-5.413 2.043-2.349.124-4.797-1.672-6-4.641-2-9.061-2.602-12-10 0-11-2.914-2-1.6445a1 1 0 0 0 1.7-1.6" fill="#664500"/><path d="M23.485 8.121c-.012.044-1.146 4.38-5.485 4.38-4.34 0-5.475-8.306-5.155-18.52M97 18.28c-2.9 0-4.455-.436-5.757-3.483A1.091 1.091 0 0 1 18.994 17M19 14.046c-5-11.5-2.519 6.311-3.221 8.403C9.701 7.652 2 10.499 24 8 7c0 .789.001 1.557.08 2.592 0 14.846 10.845 20.453 16.68 29.6 19.617 0 12-2.288 18-16" fill="#6d4070"/></g></svg>
