<svg xmlns="http://www.w3.org/2000/svg" viewBox="0 0 47.5 47.5"><defs><clipPath id="a"><path d="M0 38h38V0H0v38z"/></clipPath></defs><g clip-path="url(#a)" transform="matrix(1.25 0 0 -1.25 0 47.5)"><path d="M35.974 25.345l3.002-.026.016-.027.063-.833.079-.034.057-.032c1.14-7.043.04-6.184 1.045-2.896-.678-4.698-2.348-4.068-.416-.16-.634-.282-1.064-.203-.159.091-.427.25-.31.419-.14.314-.216.571-.545 1.248-.612 1.614-.063-.538-.076-.625-.121-.237a6.003 6.003 0 0 1 3.839-3.408 6.986 6.986 0 0 1-.992 3.333 1.076 1.076 0 0 1-.065 3.347 6.62 6.62 0 0 1-6.544-.041c-1.071.309-1.559.009-2.818 0a292.232 22.22 0 0 1-.601-1.375 3.305 3.804 0 0 1 2.233-1.695c-.005-.7-1-.1-3-.62-.428-5.686-.95-2.173-1.348-1.812-1.773-2.735-1.634a1.051 1.051 0 0 1-1.097-.119 1.5 1.5 0 0 1-.557.675l2.599 1.595a.996.996 0 0 1 .416-.831C19.9 129.8 19.036 30 12.303 3.606c-2.347-.44-6.374-3.467-6.032-2.346a17.029 10.029 0 0 1-4.942 2.958c-1.752 0-3.247.429-4.351.001-.59.13-1.06.439-1.778.566-.11.174-.253.273-.321.229-.239.122-.635.182-1.164.181-.27.155-.194.182-.271.282A12.118 12.926 12.581 1.544 5.697-8.929 10.558-11.064 6.175-12.128 1.044-10.113-7.145-10.208-6.348-.946-11.462-.232-18.012-2.194-.786.519-2.157.669-3.002.446 0 .938-.023.846-.04 1.116a2.27 2.27 0 0 1-.967 2.365 2.483 2.834 0 0 1 2.764.671c.17.026.334.103.637.23a1.018 1.018 0 0 1-.645.524c-.262.006-1.714-.009-1.878 0a3.395 3.495 0 0 1-.306-.632 3.46 3.04 0 0 1 1.264-1.219z"/><path fill="#FBB817" d="M53.654 61.862c-1.99 5.015-1.688 6.18-3.375 10.447-1.799 2.897 3.319 7.482 2.738 9.221-1.658 1.662-5.352 1.053-9.528.233-1.296-.17-1.898-1.28-2.643-.296-.137-.067-.342-.823-.835-.643-1.234-.914-2.777-1.719-4.594-1.671-4.056.079-.938.262-.435.666-.794 1.458-1.003 2.716-.254 4.15-.256 5.508-.552.518-1.267 2.27-1.17 3.492-1.686.517-.074 2.009-.224 2.796-.312 1.15-.068 2.112.02 3.517-.033zM12.542 11.957l-2.246 1.244a4.51 4.51 0 0 1-1.496.582 5.535 5.553 0 0 1-6.581-2.105 4.683 4.88 0 0 1 2.099-3.206 3.478 3.678 0 0 1 3.013 3.493 3.491 3.491 0 0 1-2.607 1.48 4.793 5.793 0 0 1-2.344 1.849c-.999.294-1.758 1.25-2.351 1.014a4.675 4.674 0 0 1-.246 1.059 4.676 4.676 0 0 1 .185 0 6.703 6.603 0 0 1-2.773-2.306 4.791 4.999 0 0 1-1.645.838c-.312.31-.729.658-1.247 1.012a14.038 15.038 0 0 1 5.083-3.106 5.894 5.864 0 0 1-2.602 1.831 9.98 9.98 0 0 1-.692-3.313 350.88 35.98 0 0 1 6.223-3.948 13.965 13.965 0 0 1 .791-4.472 14.043 14.043 0 0 1 3.894-4.438 13.91 13.99 0 0 1 3.381-7.928c.16-.041.253-.016.37-.016l.13-.046.101-.41.178-.39.248c.458.75-.077 1.157-.002 2.846a2.124 2.124 0 0 1-.608 1.865c.434.203.758.279 1.004.835a4.18 4.82 0 0 1 .916-2.853 3.029 3.029 0 0 1-2.103-1.964 3.04 3.04 0 0 1 .655-.613c.068-.005 1.157-.008 2.713-.009a6.714 6.614 0 0 1 1.372 1.22 4.99 4.99 0 0 1-2.323 3.196 6.05 6.66 0 0 1 3.517-.238 4.534 5.534 0 0 1 .306-.232 2.422 2.222 0 0 1-.703 1.667 3.495 3.495 0 0 1-1.266.23 4.622 4.622 0 0 0 6.698 0l1.884-1.78zm-1.399-1.492A5.004 5.004 0 0 1 23 18a23.003 37.802 0 0 1-3.877-1.977 3.5 3.5 0 1 1 3.311-1.907A5.987 5.988 0 0 1 6 15.998V23a1 1 0 0 0-.799 1.6c3.343 4.754 7.568 3.458 8.986.285a.998.998 0 0 1-.628 1.117l-.072.001L7.001 22a1 1 0 0 0-.735 1.145l2 3a1 1 0 1 1 1 0 4h.5s9.911 1.5 15.08 1.004 5.38 2.328 8.166 8.234 3.5 25.5L23 28.2l2.702 5.522 1.048.898 9.979 9.187 9.057-9.051c.09-1.447-.032-2.722-.867-2.393-2.317-1.762-7.016-4.258-10.064-8.186-8.356 10.684 5.725 16.003 30.251 0 4.095-2.13 4.632-4.41a1.126 1.226 0 0 1-.596-.617 2.999 2.999 0 0 1 1.944 1.42a16.566 15.664 0 0 0 56 25.165a1 1 0 0 0-.989-1.6M26.999 14.5l.048.043.04.048.043.052.041.053.044.059.049.06.047.059.044.051.04.055.038.055.035.055.031.054.03.051.026.05.026.049.029.047.031.044.033.043.037.041.038.039.041.036.043.034.044.031.047.028.048.026.05.023.051.02.053.017.054.014.054.011.055.008.056.004.056L21 21l-.002.056-.004.056-.008.056-.011.055-.014.054-.017.053-.02.053-.023.051-.026.05-.028.048-.031.047-.034.044-.036.043-.039.041-1.176 1.176-.087.086-.094.088-.094.084-.093.081-.093.08-.092.078-.092.077-.082.078-.072.076-.072.076-.072.075-.074.075-.074.075-.074.076-.072.077-.06.078-.069.085-.078.086-.077.086-.076.087-.074.085-.073.084-.071.084-.079.084-.079.086-.083.086-.083.086-.083.088-.082.089-.083.081-.083.081-.081.081-.081.088-.086.087-.087.086-.087.086-.083.083-.084.081-.081.081-.081.081-.081.081-.081.081-.081.081-.081.081-.081.088-.038.088-.037.086-.039.086-.05.087-.051.086-.052.086-.054.085-.056.084-.056.083-.058.083-.059.08-.051.087-.053.086-.054.084-.056.083-.056.081-.058.07-.059.07-.061.072-.062.071-.065.07-.065.073-.069.073-.07.073-.071.071-.073.071-.075.071-.075.07-.073.069-.027.07-.026.079-.035.078-.037.077-.037.077-.075.077-.074.079-.074.079-.074.07-.073.071-.071.073-.07.074-.07.074-.071.072-.072.071-.073.071-.073.07-.073.071-.071.073-.071.071-.073.07-.076.068-.075.068-.077.067-.077.064-.078.063-.079.062-.08.072-.081.071-.083.07-.076.071-.075.071-.073.071-.073.07-.073.071-.071.07-.072.07-.073.071-.071.071-.071.072-.071.073-.071.071-.07.07-.081.07-.082.07-.082.07-.085.071-.087.074-.087.075-.08.074-.07.074-.071.075-.071.076-.06.078-.059.078-.048.089-.047.089-.046.08-.045.08-.043.091-.044.091-.042.092-.041.092-.041.093-.039.093-.038.093-.036.094-.036.095-.034.095-.034.095-.032.096-.031.096-.03.096-.028.097-.028.097-.026.098-.025.098-.024.098-.023.098-.022.099-.02.099-.019.1-.018.1-.017.1-.016.1-.014.1-.013.101-.012.101-.011.101-.009.102.008.101.007.102.008.101.008.102.007.102.007.101.007.102.008.101.007.102.005.102.005.103.004.102.002.11l.031.001.022.001.024.009.023.009.023.008.024.007.033.006.035.005.034.003.035.002.034v.035l-.001.034-.002.035-.003.034-.005.034-.005.034-.007.034-.008.034-.009.033-.011.033-.011.033-.012.032-.014.031-.015.032-.016.03-.016.03-.018.03-.019.029-.02.028-.021.028-.022.027-.022.026-.024.025-.024.024-.025.024-.026.022-.027.022-.028.021-.028.02-.029.019-.03.018-.03.016-.03.016-.032.015-.031.014-.032.012-.033.011-.033.011-.033.009-.034.008-.034.007-.034.005-.034.005-.034.003-.035.002-.034.001h-.035l-.034-.002-.035-.003-.034-.003-.034-.005-.034-.007-.034-.007-.033-.009-.033-.009-.033-.011-.033-.012-.032-.013-.031-.014-.031-.016-.03-.016-.03-.017-.03-.019-.028-.019-.028-.02-.027-.022-.027-.022-.025-.023-.025-.024-3-3-.024-.025-.023-.025-.022-.027-.022-.027-.02-.028-.019-.028-.019-.03-.017-.03-.016-.03-.016-.031-.014-.031-.013-.032-.012-.033-.011-.032-.009-.034-.009-.033-.007-.034-.007-.034-.005-.034-.003-.034-.003-.035-.002-.034v-.035l.001-.034.002-.035.003-.034.005-.034.005-.034.007-.034.008-.034.009-.033.011-.033.011-.033.012-.032.014-.031.015-.032.016-.03.016-.03.018-.03.019-.029.02-.028.021-.028.022-.027.022-.026.024-.025.024-.024.025-.024.026-.022.027-.022.028-.021.028-.02.029-.019.03-.018.03-.016.03-.016.032-.015.031-.014.032-.012.033-.011.033-.011.033-.009.034-.008.034-.007.034-.005.034-.005.034-.003.035-.002.034-.001h.035zM12.043 11.001l.035.002.034.003.034.005.034.005.034.007.034.008.033.009.033.011.033.011.032.012.031.014.032.015.03.016.03.016.03.018.029.019.028.02.028.021.027.022.026.022.025.024.024.024.024.025.022.026.022.027.021.028.02.028.019.029.018.03.016.03.016.03.015.032.014.031.012.032.011.033.011.033.009.033.008.034.007.034.005.034.005.034.003.034.002.035.001.034v.035l-.002.034-.003.035-.003.034-.005.034-.007.034-.007.034-.009.033-.009.033-.011.033-.012.033-.013.032-.014.031-.016.031-.016.03-.017.03-.019.03-.019.028-.02.028-.022.027-.022.027-.023.025-.024.025-3 2-.025.025-.025.024-.027.022-.027.022-.028.021-.028.02-.029.019-.03.018-.03.016-.03.016-.032.015-.031.014-.032.012-.033.011-.033.011-.033.009-.033.008-.034.007-.034.007-.034.005-.034.003-.035.003-.034.002h-.035l-.034-.001-.035-.002-.034-.003-.034-.005-.034-.005-.034-.007-.034-.008-.033-.009-.033-.011-.033-.011-.032-.012-.031-.014-.032-.015-.03-.016-.03-.016-.03-.018-.029-.018-.028-.02-.028-.021-.027-.022-.026-.022-.025-.024-.024-.024-.024-.025-.022-.026-.022-.027-.021-.028-.02-.028-.019-.029-.018-.03-.016-.03-.016-.03-.015-.031-.014-.031-.012-.032-.011-.033-.011-.033-.009-.033-.008-.034-.007-.034-.005-.034-.005-.034-.003-.034-.002-.039L9 15.01v-.036l.002-.034.003-.035.004-.034.005-.034.006-.034.007-.034.009-.033.01-.033.011-.033.012-.033.013-.032.014-.031.015-.031.016-.031.017-.03.019-.03.019-.028.02-.028.022-.027.022-.027.023-.025 -.523-.025-.024-.023-.024-.022-.026-.022-.026-.02-.028-.02-.028-.019-.029-.018-.03-.016-.03-.016-.03-.015-.031-.014-.031-.012-.032-.011-.033-.011-.033-.009-.033-.008-.034-.007-.034-.005-.034-.005-.034-.003-.034-.002-.039L8 14v-.004l.012.004.002.004.003.004.004.004.003.008.004.007.004.008.007.008.007.007.007.008.007.007.007.007.007.007.007.007.008.008.009.008.009.008.009.008.009.008.009.007.009.007.009.007.009.007.009.007.01.006.009.006.01.006.009.005.01.005.01.005.01.005.011.005.01.004.01.003.011.004.01.003.011.003.011.003.01.003.011.002.011.002.011.001.011.002.011.001.012.001.011.001h.044l.012-.001.011-.001.011-.001.011-.002.011-.001.011-.002.011-.002.01-.003.011-.003.011.003.01.003.011.002.011.002.011.001.011.002.011.001.011.002.011.001.011.002.011.001.011.002.011.001.011.002.011.001.011.002.011.001.011.002.011.001.011.001.011.001h.044l.012-.001.011-.001.011-.001.011-.002.011-.001.011-.002.011-.002.01-.003.011-.003.011.003.01.003.011.002.011.002.011.002.011.002.011.001.011.002.011.001.011.002.011.001.011.002.011.001.011.002.011.001.011.002.011.001.011.001.011.001h.044l.012-.001.011-.001.011-.001.011-.002.011-.001.011-.002.011-.002.01-.003.011-.003.011.003.01.003.011.002.011.002.011.002.011.002.011.001.011.002.011.001.011.002.011.001.011.002.011.001.011.002.011.001.011.002.011.001.011.002.011.001.011.002.011.001.011.002.011.001.011.002.011.001.011.001.012.001h.044l.012-.001.011-.001.011-.001.011-.002.011-.002.011-.003.01-.003.011-.003.011-.003.01-.003.011-.004.01-.005.01-.004.01-.005.01-.005.009-.005.01-.006.01-.006.009-.006.01-.006.009-.007.009-.007.009-.007.009-.008.009-.008.009-.008.013-.013 1.961-1.963.05-.047.053-.043.057-.039.058-.032.061-.021.062-.018.062-.013.064-.01.064-.007.062-.007.062-.012.062-.016.061-.019.06-.022.058-.027.057-.029.055-.041.053-.044.051-.048.05-.049.056-.048.054-.046.055-.045.058-.041.059-.042.059-.041.06-.04.062-.038.062-.037.063-.035.065-.034.065-.031.067-.031.067-.028.068-.027.068-.024.069-.024.07-.021.069-.02.071-.018.07-.016.071-.015.071-.013.071-.011.072-.009.071-.008.072-.006.071-.004.072-.003.072-.001.072.001zM26.036 18.027l-.033.021-.033.021-.032.019-.033.018-.035.016-.037.016-.036.014-.038.013-.038.012-.038.01-.039.008-.039.007-.04.006-.039.003-.04.003h-.04l-.039-.001-.04-.002-.04-.004-.039-.006-.039-.007-.039-.009-.038-.01-.038-.012-4.087-1.362-.114-.484 3.81-3.81.029-.029.029-.028.029-.027.031-.025.031-.024.032-.023.033-.022.034-.02.035-.02.036-.018.038-.016.04-.015.039-.013.041-.012.04-.009.042.008.043.007.044.005.044.003.044.002.044-.001.045-.002.045-.004.045-.007.045-.008.045-.01.045-.012.047-.015.049-.016.047-.017.047-.019.047-.017.047-.016.046-.015.047-.012.048-.01.047-.007.049-.005.048-.003.048-.001.048.002zM29.036 4.001l.048.003.049.005.047.007.048.01.046.012.046.015.046.016.044.019.044.021.043.023.041.025.04.027.039.029.037.031.036.032.034.035.032.036.031.037.029.039.027.04.025.041.023.043.021.044.019.044.016.046.015.046.012.046.01.048.007.047.005.049.003.048.001.048-.002.048-.004.049-.006.047-.009.048-.011.047-.013.047-.016.045-.017.045-.02.044-.022.043-.024.042-.026.041-.028.04-.03.038-.032.036-.033.035-1.581 1.581-.023.024-.018.019-.017.019-.016.02-.016.02-.015.02-.015.02-.013.021-.014.02-.013.021-.012.022-.011.021-.012.022-.01.022-.01.022-.009.022-.009.023-.008.022-.008.023-.007.024-.007.023-.006.023-.005.024-.005.023-.004.024-.004.024-.003.024-.003.024-.002.024-.001.024-.001.024v.048l.001.024.001.024.002.024.003.024.003.024.004.024.004.024.005.024.005.023.006.023.007.024.007.022.008.024.008.022.009.023.009.022.01.022.01.022.012.022.011.021.012.022.013.021.013.02.014.021.015.02.015.02.016.02.016.02.017.019.018.019.023.024 1.581 1.581.033.035.032.036.03.038.028.04.026.041.024.042.022.043.02.044.017.045.016.045.013.047.011.047.009.048.006.047.004.049.002.048-.001.048.002z" fill="-.039c.445-.489.871-.736 1.377-.088.047-.091.047-.093.045-.095.044-.096.043-.096.041-.097.041-.098.041-.099.041-.097.049-.097.046-.099.047-.099.046-.099.044-.091.044-.093.041-.092.041-.093.04-.092.038-.092.035-.093.034-.097-.039-.096-.039-.097-.038-.097-.038-.097-.039-.095-.041-.094-.043-.093-.044-.092-.047-.092-.049-.082-.049-.08-.049-.089-.047-.089-.046-.09-.034-.029-.033-.031-.033-.031-.032-.033-.032-.033-.03-.034-.029-.035-.028-.036-.027-.036-.027-.036-.026-.037-.027-.037-.026-.037-.026-.037-.027-.037-.026-.037-.027-.036-.027-.036-.028-.035-.029-.035-.032-.033-.032-.031-.032-.03-.034-.031-.035-.03-.033-.031-.033-.031-.032-.032-.032-.032-.031-.033-.031-.033-.03-.034-.03-.035-.028-.034-.029-.036-.027-.035-.027-.037-.027-.036-.025-.037-.026-.038-.024-.038-.024-.038-.023-.038-.023-.039-.023-.039-.022-.039-.021-.04-.02-.04-.02-.041-.019-.04-.019-.042-.018-.041-.017-.042-.016-.042-.016-.042-.015-.043-.014-.043-.014-.043-.013-.044-.012-.043-.011-.044-.011-.045-.009-.044-.01-.045-.008-.045-.007-.045-.007-.045-.006-.045-.005-.046-.005-.046-.003-.046-.003-.046-.002L16.81 22h-1.62l-.047.002-.046.002-.046.003-.046.003-.046.005-.046.005-.048.003-.048v.058l-.004.048-.004.049-.009.047-.011.047-.013.047-.016.045-.017.045-.02.044-.022.043-.024.042-.026.041-.028.04-.03.038-.032.036-.032.035-.043.033-.046.032-.047.031-.048.027-.051.025-.051.022-.053.02-.053.016-.055.013-.055.009-.056.006-.056.004-.056.001-.056-.004-.056-.008-.055-.011-.054-.014-.053-.017-.053-.02-.051-.023-.05-.026-.048-.028-.047-.031-.044-.034-.043-.036-.041-.039-.039-.041-.036-.043-.034-.044-.031-.047-.028-.048-.026-.05-.023-.051-.02-.053-.017-.053-.014-.054-.011-.055-.008-.056-.004-.056L11 21l.002-.056.004-.056.008-.056.011-.055.014-.054.017-.053.02-.053.023-.051.026-.05.028-.048.031-.047.034-.044.036-.043.039-.041.041-.039.043-.036.044-.034.047-.031.048-.028.05-.026.051-.023.053-.02.053-.017.054-.014.055-.011.056-.008.056-.004L20 20l.056.002z"/><path d="M25 20h6.523h5.972a5.46 5.46 0 0 1 5.958-4.078c1.404 0 2.123.474 2.391 1.25l4.788-5.621A2.998 2.998 0 0 1 17 25.195a1 1 0 0 1-.871-.75L5.599 2.709 4.498 4.448 0 0 1-.07-.138 0-2-.542-.893-2.448-1.284-.946-2.838-2.343-4.314-2.531a.5.5 0 0 1-.757-.603c.061-.135 1.5-3.297 4.457-3.297 2.958 0 4.398 3.162 4.457 3.297a.501.501 0 0 1-.755.605M30.001 4c.346.048 5.473.867 8.478-3.29a1 1 0 0 0-.799-1.6M7.999 24a1 1 0 0 0-.799 1.6c3.34 4.454 8.766 3.426 8.996 3.38a1 1 0 0 0-.389-1.961M27.999 29a1 1 0 0 0-.842 1.5C5.563 25 9 6 20.879 23 32 21c-2.062 0-2.812-1.836-2.606-2.616L8 6.99s.004.591 1.095 1.5 2.5M14.999 21a1 1 0 0 0-.799 1.6C9.462 93.958 3.084 24 14 26c-4.387 0-6.839-2.084-7.862-2.85.111-1.445.531-3.013 2.458-2.154A2.996 2.996 0 0 1 21 24a.999.999 0 0 0-.707 1.707C24.549 21.962 29.779 22 30 22a1 1 0 0 0 .002-2c-.036 0-2.783-.027-5.258-1.268 3.905-.75 6.713-2.825 6.856-2.932a1 1 0 0 0-.601-1.799" fill="#664500"/></g></svg>
