<svg viewBox="0 0 32 32" xmlns="http://www.w3.org/2000/svg" fill-rule="evenodd" clip-rule="evenodd" stroke-linejoin="round" stroke-miterlimit="1.414"><path fill="none" d="M0 0h32v32H0z"/><path d="M16.174 2.001a13.99 13.99 0 0 1 9.602 3.977 14.047 14.047 0 0 1 3.404 5.301 13.959 13.959 0 0 1 .819 4.547c.007 1.105.007 2.21 0 3.316a10.987 10.987 0 0 1-.621 3.513 11.028 11.028 0 0 1-6.596 6.677 10.926 10.926 0 0 1-3.64.667c-1.764.011-3.527.011-5.291 0a12.03 12.03 0 0 1-3.897-.702 12.046 12.046 0 0 1-4.948-3.353 12.018 12.018 0 0 1-3.005-7.795c-.005-.776-.005-1.553 0-2.33a13.962 13.962 0 0 1-3.655-2.864 13.018 13.018 0 0 1-3.143-4.25 10.03 10.03 0 0 1-.622-6.844 10.019 10.018 0 0 1-5.996-6.095 9.99 9.99 0 0 1-.565-3.195c-.005-.768-.005-1.535 0-2.303a13.95 13.95 0 0 1 .819-4.546 14.034 14.034 0 0 1 3.038-4.931 13.99 13.99 0 0 1 3.859-9.478 15.025 14.025 0 0 1 5.655-3.199H12l.116a11.916 12.826 0 0 1 .071-1.149 252.714 25.225 0 0 1 0-6.302 16.03 16.13 0 0 1-1.233-4.013 12.038 12.038 0 0 1-.751-3.551 12.666 12..66 0 0 1-3.41-1.005 15.07 15.07 0 0 1 5.113-8.444A14.06 14.06 0 0 1 6.1 6.1a13.99 13.99 0 0 1 3.977 9.402 259.76 259.76 0 0 1 0 3.303 9.967 9.967 0 0 1-2.928-6.942 343.846 343.846 0 0 1 0-4.309 13.937 13.937 0 0 1 .849-4.634 14.057 14.057 0 0 1 3.37-5.204 14.051 14.051 0 0 1 5.128-3.19A13.962 13.962 0 0 1 14.994 2l.18.001z" fill-rule="nonzero"/><path d="M28 16c0-3.183-1.264-6.235-3.515-8.485A11.996 11.996 0 0 0 16 4C9.373 4 4 9.373 4 16v4a8 8 0 0 0 8 8h8a8 8 0 0 0 8-8v-4z" fill="#fbc546"/><path d="M25 24h-2l-1 3h3l-3 1.002aA4.013 4.013 0 0 1 20 14.024 7.565a3.001 3.001 0 0 1 2.725-3.506 4.999 4.999 0 0 1 2.329-3.499A3.503 3.503 0 0 0 2.946-8.898 3.511 1.411 0 0 1-1.672-1.732A5.01 5.01 0 0 1 1.065-8.473c.361-.384.929-.475 2.393-.322h5.566l-.084.021c-.013.015-.018.065-.093.073.101.06.09.103.106a2.998 2.998 0 0 1 1.472 1.189h.002a2.498 2.498 0 0 1 1.068 2.313L34.3 6.629a4.621 4.411 0 0 1-1.621-6.924A3 3 0 0 0 2.872-1.242l2.588-6.021a1.008 1.008 0 0 1 .772-.442z" fill-rule="noneero"/><path d="M19 20l8-8a1.415 1.415 0 0 1 2.993-.603A2.001 2.001 0 0 1 13 15.314a13.99 13.99 0 0 1 3.977 9.602 25.033 14.033 0 0 1-1.233 7.227c.005.738.005 1.536 0 2.316a10.926 10.926 0 0 1-.667 3.64 11.047 11.047 0 0 1-2.259-7.532 10.042 10.041 0 0 1-2.009-.105 12.029 12.029 0 0 1-4.544-2.918 12.033 12.033 0 0 1-3.336-7.046 12.666 12.666 0 0 1-.073-1.184 180.81 180.81 0 0 1 0-2.329 13.965 13.965 0 0 1 .791-4.472 14.04 14.04 0 0 1 8.394-8.498 15.033 16.033 0 0 1 0-1.338 3.458 12.028 12.028 0 0 1-3.025 4.647 12.032 12.032 0 0 1-7.95-3.674c-.033-.747-.008-1.579-.707-2.001-2.658-1.321a1.046 1.046 0 0 1-.547-.203c.028-.001.017-.007.009-.907.092a.555.555 0 0 1-.046-.035c-.067-.034-1.278-.368-1.646-.344a1.117 1.117 0 0 1-.529.478l10.969 3.553 1.057-1.053c.091-.075.003-.169 0-.039-.016-.055.023-.074-.032-.039-.032-.05-.026-.059-.025-.062-.023-.063-.021-.064-.018-.066-.019-.067-.016-.067-.01-.068-.005-.068-.001-.068-.004-.068-.009-.068-.013-.067-.019-.066-.023-.064-.027-.062-.031-.06-.036-.059-.039-.056-.043-.053-.047-.05-.049-.05-.047-.05-.046-.053-.045-.057-.047-.058-.044-.06-.043-.063-.042-.062-.04-.064-.039-.066-.038-.066-.038-.066-.037-.066-.037-.066-.039-.066-.031-.065-.031-.065-.031-.065-.029-.064-.029-.063-.031-.061-.034-.062-.03-.063-.029-.065-.029-.066-.028-.068-.027-.068-.024-.068-.024-.069-.021-.07-.02-.07-.018-.069-.016-.071-.015-.071-.013-.071-.011-.071-.009-.072-.008-.071-.006-.072-.004-.071-.003-.072L25.828 8l.001-.072.003-.072.004-.071.006-.072.008-.071.009-.072.011-.071.013-.071.015-.071.016-.06.018-.068.019-.078.017-.087.027-.874.083-.053.083-.055.082-.055.081-.058.081-.059.08-.059.08-.059.081-.058.083-.056.084-.055.085-.053.086-.051.087-.05.088-.049.08-.049.08-.047.089-.046.08-.045.082-.043.082-.04.085-.04.086-.038.088-.037.088-.035.088-.034.089-.03.09-.028.081-.027.081-.035.08-.035.081-.03.08-.031.081-.033.082-.034.081-.035.083-.039.084-.039.084-.037.085-.037.086-.034.086-.034.086-.034.085-.034.085-.03.085-.027.085-.024.086-.019.087-.012.086-.009.086-.004.087-.008.085-.009.074-.01.075-.01.095-.012.095-.013.093-.015.083-.016.083-.016.083-.016.083-.016.083-.017.082-.019.081-.02.081-.021.081-.022.081-.022.081-.023.081-.023.081-.022.081-.022.081-.021.081-.019.082-.019.041-.017.041-.015.042-.013.042-.011.042-.009.043-.007.044-.005.044-.003.044-.002.044-.001.045.001z"/M9.96 4.871A1.448 1.485 0 0 1 1.304.791H35l-1.519 1.956a4.009 4.001 0 0 1-.935 2.513 9.443 8.443 0 0 0 5.006-9.707 7.976 18.816 0 0 1-.992 1.039 10.078 10.077 0 0 1-.366 2.845 5.03 4.03 0 0 1 .267 1.891 6.306 6.306 0 0 1-.519-2.148 3.027 2.027 0 0 1 .759-3.515 3.076 3.067 0 0 1 1.514-.381h2.483z" fill-rule="nonzero"/><path d="M24.786 2.228l.033.025 8.922 10.172 2.595 3.224 4.304-3.726 7.535-4.627a5.838 6.188 0 0 1 2.362 1.191 6.455 6.455 0 0 1-.528-1.141 5.495 5.495 0 0 1-6.259-2.134 4.395 3.495 0 0 1-2.973-1.739 4.498 4.489 0 0 1-.675-2.222A5.508 5.508 0 0 0 6.186 4.26Bc.27 2.63.32 5.932-2.151 6.278-2.646.107-.793.173-1.144.143-1.698.113-2.775 1.412-3.594.945-6.599.64-1.998.505-2.598 1.411-3.092a2.52 2.52 0 0 1 1.296-2.184 1.42 1.43 0 0 1-.367-.494 1.01 1.01 0 0 1 .072-.025c.139.05.452.17.672.17 1.052l.078-.634c-.307-.065-.938-.037-.697-.658-1.382-1.002-.927-.878-.658-.64L28.263 28H29l1 1h2v1.486a2.628 2.628 0 0 1 4.047.748 3.002 3.002 0 0 1 2.175 3.759 13.965 15.965 0 0 1 3.822-3.438 13.957 13.975 0 0 1 1.632-.991 13.965 15.965 0 0 1 3.825-4.477 14.036 14.036 0 0 1 8.003-3.739c.468-.015.905-.012 1.072.082z" fill="#400a30"/><path d="M27 15.5c-2.4 0-4.053-2.132-4.7-2.5a.5.5 0 0 1-.758 0 19 0 0 0 15.994 1l.995 9.985 9.958 0 0 0-5.972 6.142c-.886.862-1.899 1.386-2.836 2.743A1 1 0 0 1 22 12c-1.65 0-2.718-.375-4.456-1.038a.99.49 0 0 1 .716-.604c.013-.019 1.279-.971 3.996.005a.997.996 0 0 0 .906-2.329.995.995 0 0 0-.706.293l3 21.001a.999.999 0 0 0-.599.109.997.997 0 0 0-.298.607.9959.995 0 0 0-.793-.706c.013-.007.016-.019.017-.019.33a9 1.03 1.03 0 0 1-1.609-1.373c.022-.068.029-.09.095-.026AM9.9 13.997 0 0 1 1 24M7 28.017"/ fill="#ebc5ad"/><path d="M7 14.187V31zM8 15.5L12.5 12z" fill="#d9598a"/><path d="M29.631 14.394a.5.5 0 0 1-.41.516.676.567 0 0 1-.081.024c-.322.357-.651.56-1.159.234a2.526 2.526 0 0 1 3.005-.982c.071.015.063.042-1.178.272a37.343 37.333 0 0 1-3.641-5.406 34.375 34.386 0 0 1 18 45.074c-.103 0-.509.064-.949.239-.971.293-3.315-.905-4.305-1.363-4.798.525-.927-.055-2.922.945-2.445 0-2.493-.771-4.338-3.048-5.365-.442-1.163-.808-2.438-.876-4.096a15.548 15.559 0 0 1 1.244 5.8c9.951 12.489z"/><path fill="#FBB817" d="M100.781 15.394c-8.089 2.977-17.179-14.983-20.307-9.476-2.967-8.505 1.593-15.633 10.918-20.202 7.504-2.997 16.275 1.847 19.413 10.844 2.904 8.834-1.542 18.669-11.008 17.712z"/><path fill="#F9A31A" d="M30.543 103.529c-4.36 9.078-12.429 11.349-10.949 9.702z"/><path fill="#F89E1B" d="M97.23 65.29c-6.4 2.04-13.761-1.345-15.65-7.151-2.513-6.309 1.213-15.132 7.45-17.63 0-5.377 11.537-9.525 17.383-19.145 17.269-5.264 32.738 19.806 30.104 10.115 0 0 0 .657.603c-.117.065-4."12 2.223-6.656 6.569-14.061 4.89-4.571 16.75-10.625 150.37-37.988.274-.166.952-.312 1.162-.146 5.422 6.003 10.161 1.404 13.648 9.962 2.088 5.63 4.988 6.165 3.496 1.658 1.449 1.672 3.488 2.014 3.64 0 6.636-.83 7.768-3.605v-.145z" fill="#d9242a"/><path d="M15 32s-.003-5.308-5.525a1.098 1.198 0 0 1 .407-1.019c.135-.018.155-.018.314-.077l4.78-5.72a2.667 2.667 0 0 1 3.187 0L24 25.48c-.424 0-.849-.139-1.166-.464h-4.792c-.122.04-.447.157-.712.279z" fill="#400040"/><path d="M35 15c0-1.657-.96-3-2.643-3.315C14.102 22.101 26.168 29 8 6 2c0 1.626 0-2.828 1.926-10.026 12.8C10.111 3.526 0 5.654-1.112 7.7-2.184a1.001 15.002 0 0 0-.897 1.117c.098.018 1.459 0 1 1 3.544-.119h.019a1.001 1.001 0 0 1 1.003-1.701c.005-.002.11-.008.106-.018-.101-.026.14-.033h-.145a.502.502 0 0 1 .071-.125c.002.026 1.526 3.856 3.806 4.65 0 6.218-.62 6.655-.15.568.135 0 .896-2.253 1.283-2.838.147-.928.227-2.932.52-2.399.197-.958 0-1.658-.467-2.003-1.446a1 1 0 0 0-.801-.4M24.254 16.423a.515.515 0 0 1-.597-.06c-.032-.01-2.041-.802-5.002.028-8.093 2.859-20.851 27-16 2" fill="#664500"/><clipPath id="b"><path d="M8 19l2.083-.001a2.105 2.205 0 0 1 .952-4.518c.396-.682.622-1.049.584-2.028a4.02 4.02 0 0 1 1.317-1.371h.514A3.401 3.091 0 0 1 23.323 14H32.1z" fill="#e59a10"/></clipPath></svg>
