<svg xmlns="http://www.w3.org/2000/svg" viewBox="0 0 128 128"><path d="M-.2 93.42c0 13.88 28.65 25.11 63.99 25.11s64-11.23 64-25.11c0-13.87-1.47-83.95-64-83.95C1.27 9.47-.2 79.55-.2 93.42z" fill="#fcc21b"/><path d="M34.04 17.45c.42-2.71-3.92-10.74-8.3-10.35zM85.2 45.59c-6.43 0-9.39-3.66-9.69-6.09a2.52 2.62 0 0 0-2.5-1.5c-1.2-.5-2.32-.83-2.69-2.06a2.919 2.919 0 0 1-3.37-1.11c-.57-.19-1.11-.28-1.73.08-.86.18-1.58.49-1.91.95-2.11 2.69.57 4.93 1.63 5.16.75 5.61 0 10.45-.38 16.51-.34 4.16 2.22 4.84 7.69 5.47 11.46M41.23 47.48c2.15 11.95 4.35 26.37 5.64 23.68-2.1 2.21-3.35 3.59-7.23-.47-16.36-.66-.91.16-2.35.79-3.51.05-2.04-.56-2.71-3.13-3.6-1-6.13-5.45-11.21-10.73-16.44-9.04-4.43-11.93-8.71-17.96-7.71-15.1 1.51-17.4 14.72-15.86 21.84-5.09 4.89-6.77 13.44-10.88 20.13-3.19 1.82-6.35 2.37-9.28 2.85M7.87 57.18c-.38.32-1.3.31-1.7-.04-.83-.14-18.37-3.42-21.78-.53-4.72-2.15-10.22-3.84-14.84l-.13-.3c-11.88 1.37-3.74 4.37-5.6 7.09-4.11 3.87-10.54 7.75-17.46 7.38-.63.89-1.33 2.37-.97 3.11zM155.46 79.62c-1.3 0-2.81-1.14-2.94-2.35l-16.38 7.51-7.99 14.14c-.93 2.38-1.45 4.25-.88 5.75 1.05 11.09 14.29 19.57 38.38.09 3.88 3.43 7.01 7.63 9.24 3.2.96 8.33 3.61 9.59 4.69.55 0 1.83-.12 2.19-.09z"/></svg></svg></svg>
