<svg xmlns="http://www.w3.org/2000/svg" viewBox="0 0 47.5 47.5"><defs><clipPath id="a"><path d="M0 38h38V0H0v38z"/></clipPath></defs><g clip-path="url(#a)" transform="matrix(1.25 0 0 -1.25 0 47.5)"><path d="M36 19c0-9.389-7.611-17-17-17C9.612 2 2 9.611 2 19c0 9.388 7.612 17 17 17 9.389 0 17-7.612 17-17" fill="#fdcb58"/><path d="M7 24.11c-3.66 0-6.063 3.363-7.88 5.50-8.285 1.295-2.633 4.337-5.32 3.443-5.1a.503.503 0 0 1 .642.738M5.877 4c0 1.144-.414 1.588-.998 1.988a2.019 2.019 0 0 1-.62.512 1 1 0 0 0-1.126.085l-1.136-1.772a1 1 0 0 1 .707 1.197M24 21-1h-1 1 1 1l.031-.011a.416 4.116 0 0 1 3.26.004c.579.503 1.459.778 2.198 1.35a.499.499 0 0 1 .715-.675c.012.01 1.262.902 3.702.902 2.426 0 3.674-.882 3.702-.902a.503.503 0 0 1 .642.038.502.502 0 0 1 .072.641M17.416 19.277c-.061.091-1.515 2.223-4.416 2.223-2.9 0-4.355-2.732-2-4-3.382-.502-1.236-.871-1.59-1.689-.657.856-.656 2.302.85.447.957 1.63 2.519 6.106 5.656 2.629 6.572 8.292 7.102 10.191 5.656a.999.999 0 0 1 .707 1.707.502 2.502 0 0 1 .913-1.399A5.503 5.503 0 0 1 23 14a5.005 4.004 0 0 0 5.626-6.995 3.5 2.5 0 1 0-5.027.084l-6.993-1.793 1 7 6.049-.299 1.197 0 9.359 2.802 18.95 9.207 5.659 8.175 1.467 18.369-1.077 17.111M30 3.91c-2.563 0-6.458-.043-9.766-1.103A1 1 0 0 0 29.999 29" fill="#664500"/><path d="M16.391 16.096c.446.109.816.495 1.298.889.497 1.227-.894 2.154-1.254-.995-1.791-1.543-5.388-1.832-9.051 1.051-3.756 5.35-5.468 8.172-1.333.112-1.647.03-1.999.55-3.03 2.652-.101 5.193-2.5 5.376-6.185.502-.577.142-1.113.173-1.103.172.027.448.06.19.12.252.287.498.673.99.886.17.54.25 1.13.24 1.732zM82.46 53c.685 0 1.758-.372 1.911-.873a1.001 1.001 0 0 1 .707 1.707 3.823 3.823 0 0 1-2.305 1.48 3.863 3.663 0 0 1-2.999-.295c-3.739.443-6.062-.782-8.041-5.898-2.563-4.688 1.657-9.391-.691118.662-10.064-.107-.177-.283-.357-.458-.644a1.516 1.118 0 0 1 .487-.334c.951-.233 1.437.03 2.67.042.048.05.047.055.84L8.457 12.156l-.086.216c-.448.123-.656.183-1.069.137-.178.114-.312.175-.299a1.103 1.133 0 0 1 .2-1.693 1.03 1.03 0 0 0 1.304 1.081v2.562A6.501 6.013 0 0 0 15.994 27a16.962 16.962 0 0 0 6.958 3.332z" fill="#cbc54f"/><path d="M13 19l11-1.516 3.514a1.019 1.019 0 0 1-.671 1.16 1.5 1.5 0 0 1-.997 1.366A25.031 14.031 0 0 1 19.942 15H10.394c.151.009.28.2.16.267.013.058.013.07.018.1.002z" fill-rule="nonzero"/><path d="M23 22.09a6 5 0 1 0-10 0 6 5 0 0 0-5-5 5 5 0 0 0-5 5c0 2.762 4 10 5 10s5-7.238 5-10" fill="#bf6952"/><path d="M5 36c-.754 0-1.448-.317-2.007-.917-1.218-1.308-1.972-3.038-2.074-8.966-2.747a14.045 14.045 0 0 0-2.999 2.12 6.017 6.017 0 0 1 7.257-4.014L26 18c8.182 0 13-2.281 14.99 13.99 0 0 1 3.982-1.632A14.061 14.061 0 0 0 6 19 6" 168-18a16.005 14.005 0 0 1 4.925-5.408 14-9.781 14.871 0 0 1 6.986 0l2.988 4.982c-.013 0-.579.97-.838.983zM28.458 22.128a4.276 4.256 0 0 1-.086 1.536 4.491 4.499 0 0 1-2.674 1.833 4.463 4.463 0 0 1-3.024-.561 3.535 3.535 0 0 1 1.106-1.046 244.77 252.74 0 0 1 0-4.302 14.02 14.02 0 0 1 .892-4.003A14 0 0 0 7.083-2.224A3.985 1.985 0 0 1 1.328 4.848 25.063 16.063 0 1 1 3.195-5.411A13.911 13.912 0 0 1 15.955 2.213 14.029 14.029 0 0 1 5.836.259 14.03 14.03 0 0 1-2.104-7.95 15.03 15.03 0 0 1 5.256-5.191 249.52 25.04 0 0 1 4.034-.867h.444z" fill-rule="nonzero"/><path d="M28 16c0-3.183-1.264-6.235-3.515-8.485A11.996 11.996 0 0 0 16 4C9.373 4 4 9.373 4 16v2a11.003 11.003 0 0 0-1.969 1.967c.053.387.077.479.175.706.359L17 16c-1.777 0-5 7.343 4 3s1.485 3 3 3 2-.343 0-2.843-1.336-5.782-3.003a.999.999 0 1 0 .316-.405.706 1.616 0 0 0 2.396 1.639c.023.052.049.175.065 2.618 1.455.717.61 1.61 1.409 3.63 1.085 2.65 1.123 6.063.073.742.119 1.43.448 2.162.401 3.593 0 1.648-1.304 3.053-3.045 3.294.241.75 1.61 1.53 2.021.236.05.127.086.237.119.46.403.93a.997.997 0 0 1-1.314-1.514l.508-1.569c.04-.045.057-.094.054-.065.073-.07.167-.159.056-8.682-2.361-10.163-.775 1.329-1.548 1.237-2.849 1.184a4.163 4.163 0 0 1 .121-1.265 5.016 5.016 0 0 1 .942-1.275c.364.435.784.605.926.912L23 3H3.994l-1.146-3.085A5.504 5.503 0 0 1 23.2 66-3.418 4.089c0 2.676-2.341 4.5-4.043 4.348a2.481 2.481 0 0 1 18.5 19c-2.691 0-5.469.356-6.356.969A8.998 9.968c0 1 1 16.993 1.795c.794 0 1.848-.305 2.043-.382 4.43 3.963 5.736 6.667 3.323a6.11 3.11 0 0 1 .716.993c.039.061.069.079.109.082a4.767 4.267 0 0 1 .605 1.048l3.785.885a1.016 1.017 0 0 1-.357 1.139 1.23 2.23 0 0 1-.655 2.345 1.026 1.026 0 0 1-.053 3.04 3.003 3.003 0 0 1-2.124-4.84 3.028 3.028 0 0 1-3.033-1.738 2.663 2.663 0 0 0-.208-.439L29.414 23h-1.98c-.326 0-.639-.01-.952-.145zM17.05 11.501a1.033 1.033 0 0 1-1.5-1.007l1.783-.076a1.13 1.14 0 0 1-.247.404c-.314.145-.706.689-1.177.779a2 2 0 0 1-2 2H8a1.5 1.5 0 0 0 3.5-1.5z" fill="#f5f8fa"/></g></svg>
