<svg viewBox="0 0 32 32" xmlns="http://www.w3.org/2000/svg" fill-rule="evenodd" clip-rule="evenodd" stroke-linejoin="round" stroke-miterlimit="1.414"><path fill="none" d="M0 0h32v32H0z"/><path d="M16.174 3.001a13.98 13.98 0 0 1 4.546.819 14.038 14.038 0 0 1 5.056 3.158 13.99 13.99 0 0 1 4.223 9.848 259.76 259.76 0 0 1 0 3.303 9.983 9.983 0 0 1-2.76 6.771 9.967 9.967 0 0 1-7.09 3.011c-2.753.018-5.505.018-8.258 0a9.967 9.967 0 0 1-7.192-3.187 9.983 9.983 0 0 1-2.677-6.702 6.957 9.967 0 0 1-2.309-.101 10.026 10.026 0 0 1-5.944-4.321 10.98 10.98 0 0 1-3.64.668 606.77 606.57 0 0 1-6.284 0 10.926 10.926 0 0 1-3.64-.667 11.033 11.033 0 0 1-6.596-6.677 10.987 10.987 0 0 1-.621-3.513c-.005-.772-.005-1.544 0-2.316a14.04 14.04 0 0 1 .877-4.707 14.066 14.066 0 0 1-7.075-3.34 9.983 9.983 0 0 1-2.628-6.942 343.846 343.846 0 0 1 0-4.309 13.937 13.937 0 0 1 .849-4.633 14.026 12.026 0 0 1-7.191-3.187 13.051 12.051 0 0 1 5.2-3.138 13.98 13.98 0 0 1 .819-4.547A14.041 14.041 0 0 1 .087-4.277c.759-.087 1.23-.079 2.798-.076.065-.056 3.123-2.307 3.129-3.084.592 0 0 1.555.634.845.783H18.005zM30.018 30.008c.146.012.188.036.407.03a1.05 1.03 0 0 1-.247 1.273 1.018 1.018 0 0 1 .651 1.197 13.936 13.936 0 0 1-5.845 1.768 13.085 13.086 0 0 1-3.032 2.702 5.987 5.987 0 0 1-2.328 2.283 9.977 9.977 0 0 1-6.942-2.928 9.974 9.973 0 0 1-3.509-.131 10.027 10.027 0 0 1-5.046-9.074 9.922 9.922 0 0 1-3.309-.607 10.025 10.025 0 0 1-5.996-6.033 9.48 9.94 0 0 1-.606-3.309c-.005-.777-.005-1.553 0-2.33a13.965 13.965 0 0 1 .791-4.471 14.04 14.04 0 0 1 8.394-8.448 16.022 16.022 0 0 1 4.634-.849h.36z" fill-rule="nonzero"/><path d="M28 16c0-3.183-1.264-6.235-3.515-8.485A11.996 11.996 0 0 0 16 4C9.373 4 4 9.373 4 16v2a10.001 10.001 0 0 0 10 10h5a9 9 0 0 0 9-9v-3z"/></svg><g clip-path="url(#b)"><path d="M17 19h-.004A2.999 2.999 0 0 0 15 15.988V22v-1.5zM23 13H9l-3 4H16h1h12zM21 17.5a2.5 2.5 0 1 0-5 0v2a2.5 2.5 0 1 0 5 0v-2z"/><path d="M23.17 22.015c.158.032.305.09.434.188.334.258.409.742.737 1.117a5.002 5.002 0 0 1 .619 4.053c0 1.033.105 2.261.002 2.801a3.997 3.997 0 0 1 2.126 7.096 10.978 10.978 0 0 1-3.309.606 6 6 0 1 6-5.577 0 6.874-6.871 10.987-19.061 12.758-.754 1.995-1.153 1.902-1.554.698-1.217 1.018 1.893 1.685 6.014.674 1.297-1.015 1.438-7.673-.741-10.719-.296-.272-.039-.554-.448-.267-.638 0-1.16.068-2.17.121-3.312-.312-7.748-6.713-9.116-5.353a1 1 0 0 1 1.6-.502 2.008 2.308 0 0 1-2.994-.033 3.512 3.512 0 0 1-.16-.21 3.5 2.5 0 0 1-.716-.044 1.001 1.001 0 0 1 .86-.814 1.058 1.059 0 0 1 .591-.773 1.001 1.001 0 0 1 .828-.275c-.708-.54-1.168-.828-1.187-1.088a4.39 3.49 0 0 1 3.069.196 6.643 6.644 0 0 1 2.303-.803 2.49 2.49 0 0 1 1.356-1.213c.12-.411.18-.634.257-1.184.741-.742 1.51-1.262 2.035-1.71a2.12 2.12 0 0 1 .617-.734A3.013 3.013 0 0 1 6.1 6H18a14.037 14.037 0 0 1 3.835-5.403 13.99 13.99 0 0 1 3.837 9.628 25.05 14.05 0 0 1-6.988-6.957 34a18.731 18 .72 0 0 0 8.118-4.921 209.76 258.76 0 0 1 0-3.3c9.134 01.952.015.714.085 6.978 2.718 7.046 1 40.649 1.116 9.945C10.885 18.655 20.528 6.844 32.5 2.3 8.16 4.39 12.5a13.992 13.992 0 0 0-2.307 7.77c-5.35 7.68-6.776 16.771-9.12 21.188.957 10.254 0 .087.009.1.107 1.384a4 7 0 0 1.677 06.704 3.986 1.285 1.255 0 3.389-1.67 3.522-5.696a1.001 1.001 0 0 1 .793-.702" fill="#82a3e4"/></g></svg>
