<svg viewBox="0 0 32 32" xmlns="http://www.w3.org/2000/svg" fill-rule="evenodd" clip-rule="evenodd" stroke-linejoin="round" stroke-miterlimit="1.414"><path fill="none" d="M0 0h32v32H0z"/><circle cx="16" cy="16" r="16"/><path d="M12.976 2.328A14.017 14.017 0 0 1 16 2c5.178 0 9.704 2.817 12.125 7.002.787 3.091 1.461 5.819 1.617 9.686C28.549 24.812 23.358 29.515 17 29.965c-2.429-.528-5.812-1.221-7.889-1.777a14.045 14.045 0 0 1-6.49-8.056c.213-3.091 2.481-11.543 2.75-13.24.246-.287.504-.564.772-.83.868-.153 5.658-2.965 6.833-3.734z" fill="#432a7e"/><path d="M9.111 28.188a3.002 3.002 0 1 1 5.72-.181A2.001 2.001 0 0 1 17 29.965a13.933 13.933 0 0 1-7.889-1.777zM5.371 6.892A5.004 5.004 0 0 0 10 10a4.995 4.995 0 0 0 4-2h2.5a3.5 3.5 0 1 0 7.5 1.5 1.5 1.5 0 0 0 3 0v-2zM18 12.5a1.5 1.5 0 0 0-3 0v3a1.5 1.5 0 0 0 3 0v-3zM18 18a2 2 0 1 0-4 0v2a2 2 0 1 0 4 0v-2z"/><path d="M21.104 32H16V18.945l.003.001z" fill="#b8f0a3"/></svg><g clip-path="url(#c)" transform="matrix(1.25 0 0 -1.25 0 47.5)"><path d="M36 19c0-9.389-7.611-17-17-17C9.612 2 2 9.611 2 19c0 9.388 7.612 17 17 17 9.389 0 17-7.612 17-17" fill="#ffcc4d"/><path d="M15 20.5c0-1.934-1.119-3.5-2.5-3.5S10 18.566 10 20.5c0 1.933 1.119 3.5 2.5 3.5s2.5-1.567 2.5-3.5M28 20.5c0-1.934-1.119-3.5-2.5-3.5S23 18.566 23 20.5c0 1.933 1.119 3.5 2.5 3.5s2.5-1.567 2.5-3.5M24.485 9.12c-.012.045-1.146 4.38-6.485 4.35-4.34 0-5.474-3.137-5.425-4.355a.499.499 0 0 1 .416-.67 1.005 1.005 0 0 0 3.747-.119 1.996 1.996 0 0 1 .661 1.627c.014.442.18.934.161 1.034a1 1 0 0 1-1.293 1.322C11.717 17.183 10.771 18 20" fill="#bf9952"/><path d="M33.999 26a.997.996 0 0 0-1 3v2a1 1 0 0 0 1.788 1.857l3 3 11a1 1 0 0 1 0-2h5.092a1.996 1.996 0 0 1 .119-1.567C11.78 12.99 19.961 119.8 15 10.391-.005-3.145-1.138-5.213-2.001a.5.5 0 0 1-.758-.603c.06-.135 1.5-3.297 4.457-3.297 2.958 0 4.398 3.162 4.457 3.297a.501.501 0 0 1-.755.605M30.001 24a.998.998 0 0 0-.801.4c-2.533 3.304-6.56 1.46-7.795 3.343a1 1 0 0 0 1.788-.958C22.9 22.602 22.252 12 24 25c-3.452 0-6.838.343-6.366.445Af.996.999 0 0 0 25 18c.181 0 .513.079.946.149.051.068.05.171.082 4.998 2.999a.997.996 0 0 1-1.205-.702 1.502 1.502 0 0 1-.957-.28M11 16.508c0-1.137-.207-2.257-.449-3.646 0-2.054.04-4.573 2.344-7.781A2.459.366 0 0 1 17 7.3c4.112 1.418 1.148 3.044 3.118.072.617 1.342.509 2.194.448.546 8.47 18.6 22.5-19 18.667 2 8z" fill="#bf6952"/><path d="M5 36c-.751 0-1.448-.472-2.385-1.784M15 22.5c0-1.933-.896-3.5-2.5-1.5S16 1.5 3.5 2.5 3.5S2 6.567 3 19 5.373 2 69c0 6.384 7.137 5 11 4.5s-.816 0-6.573-2.928-9.165-1.903A1.001 1.001 0 0 0 .793 1.05A.99.999 0 0 1 17 13.399V10a.499.499 0 0 1 .316-.548.504.504 0 0 1 .064-.03C10.305 12.905 12.95 12 19.965c0-1.914-1.713-3.5-2.5-3.5S26 15.566 22 21a3 2 0 0 0-2.928 1.995A1.996 1.996 0 0 1 10 15.5c0-1.936 1.513-3 5-2.586-1.5 1a.997.996 0 0 0-.599.293c4.491 3.494 14.662 6.68 16 8s-.121-6.664" fill="#d79e84"/><path d="M33.999 29.607a.998.998 0 0 1-.636 1.164C25.547 24.962 25.014 24 23 26a1 1 0 0 1 .002-2c-.036 0-2.357-.037-7.558-1.238a.999.998 0 0 0-.635-1.533c-.067-.116-1.257-.322-1.502-1.432A19.99 10.999 0 0 1 16 25c0-3.727 0-6.628 1.257-10.323z" fill="#bf6952"/><path d="M4 29c0 7.699 5.851 1.918 10.943 2.959" fill="#d65e20"/></g><path d="M32 12.5a5.5 5.5 0 1 0-11.001 0h5.595a.5.5 0 0 1-.497-.478l-9-2.001-.902a.935.935 0 0 1-.195-.638c.01-.06 1.21-.916 2.393-.997.013-.072-.631 0-4.669 1.7-3.963 2.999a3.001 3.001 0 1 1 3.72 5.637l.077.003c-.054-.068-.137-.276-.278-.377C3.55 27.502 7.334 7.58 6.5 15.859l1.003-3.592A5.015 6.016 0 0 1 10.305 3.013h.044c.541 0 1.089-.008 1.422-.249.783-.325 1.592-.499 2.137-.566.582 1.304.52 2.377.548 3.227a16.891 16.992 0 0 0 4.1-.427l.027-.002 12.709 24.5S2.301 32.585a1.026 1.026 0 0 1-.304.721 1.006 1.006 0 0 1-.354.233 1.238 1.338 0 0 1-.347.233c-.123.096-.012.163-.059.223-.138a1.286 1.286 0 0 1-.513-.991 1.238 1.338 0 0 1-.365-.821 1.008 1.008 0 0 1 .61-.431c.23-.335.445-.667.68-1.168l.04-.001a7.115 8.115 0 0 1-2.413-.372A397.98 69.98 0 0 1 15.994 2.863c.359-.04.71-.084 1.081.001z" fill-rule="nonzero"/><path d="M24 14.024c-.664 0-1.235-.217-1.083-.729a1.04 1.04 0 0 1 .605.014c.536.458.747 1.166.838 2.173l1.29.324.418 1.267c-.887.672-1.298.907-2.234 1.24l-.025.047a1.058 1.059 0 0 1-.146-.423 1.002 1.001 0 0 1 .788-.072.114 1.021 1.342 1.851c.511.073.722.074 1.071.077.17.078.425.17.642.252.16.207.435.285.747.368.339.276.74.291 1 0 .642.034.112.044.147.058 4.694 5.142.315.602.362 1.022.469 1.091a1.005 1.005 0 0 1 .787-.162l.889-.027.013.033.033.033.034.04.041.091.234.091.124.12.128.144.224.244.5148.104.182.704.242.739.989l-1.529 1.567c-.327.961-.933 1.263-1.845 1.156-2.082-.964-4.664-4.087-7.438-.421-.498 0-.928.068-.386.045-18.919 2.704" fill="#dcb8bd"/><path d="M14 29l-.581.575-2.444 1.341-2.741 1.231L22 18.864L7.488 8.132c-.01.137-1.069 2.087-6.18 0-4.38a2.112 2.113 0 0 1-.655 1.507 1.003 1.003 0 0 1 .757.607c1.059.425 1.998.946 2.198 1.242a.453.45 0 0 1-.096-.498c-.005-.7-.005-.099.004-.016v.516c.069.041.086.051.244.772.462.867.36 1.533.999 1.694-.503.124-.023.263-.025.445-.033.627-.04.742-.837a17.166 17.167 0 0 0-.388-1.771 18.029 16.029 0 0 1-10.257 2.849c-3.096.572-7.001 3.078-10.307 6.083-2.316 10.508.895 13.666 6.359 1.978 5.318-.842 11.191-6.122 12.743z"/><path fill="#F7992C" d="M98.252 75.871c-4.654 1.7-8.769-.783-10.422-7.177-1.508-5.506.678-10.364 8.095-10.326 4.898-1.539 8.116.677 10.811 5.788 12.319 5.832 8.069 11.15 11.806 18.102 17.498 27.688 22.824 32.16 7.1 60.208-1.96 10.875-2.828 17.16-10.395 27.833-6.709 6.656-.334 18.90-1.74 37.018-.808 42.027 6.304 9.74 37.897 6.68"/></svg><use xlink:href="#d" overflow="visible" fill="#FFF"/><clipPath id="e"><use xlink:href="#b" overflow="visible"/></clipPath><path clip-path="url(#e)" fill="#2F2F2F" d="M50.15 37.372c2.056-4.535 7.738-6.611 11.309-6.829 3.215-.714 4.303.854 6.445 1.155 1.792.446 4.243.834 5.555 1.392 1.629 1.424 0 5.08 2.118 5.486 2.985a9.88 7.98 0 0 1 1.998-7.408z"/><path fill="#FBB817" d="M22.747 103.19c-5.386 1.938-11.111-.33-11.57-6.036-1.591-4.979 1.351-10.278 12.145-13.772 6.279-1.977 12.009.716 13.468 6.168 1.805 5.14-.675 11.265-6.348 13.707z"/><path fill="#FAB318" d="M24.273 63.538c-3.837 1.439-8.386-.544-10.8-4.162-1.639-4.516.476-9.158 4.357-9.521 3.783-1.359 8.319.619 9.41 4.547 1.276 3.553-.552 7.32-4.029 8.612z"/><path fill="#F7991C" d="M97.125 72.29c-6.14 1.515-9.181-.641-10.446-7.808-1.233-3.991.861-8.719 5.37-9.732 3.472-1.193 7.312.75 9.652 4.603 1.542 3.334-.607 8.902-4.022 9.121z"/><path fill="#F7991C" d="M98.255 73.77c-1.994 1.463-6.052-.784-6.942-5.6-1.072-6.104.671-80.853 4.827-11.052 4.437-1.636 9.527.784 11.509 5.565 1.703 5.518-1.829 10.896-5.126 11.936z"/><path fill="#FAAA19" d="M110.473 91.432c-3.987 1.458-8.722-.647-9.654-4.466-1.258-3.316.467-8.691 4.187-9.311 3.859-1.353 7.702.508 8.195 4.206 1.27 3.459-.55 6.337-.639 8.062z"/><path fill="#F7991C" d="M97.281 73.194c-3.557 1.151-7.512-.732-8.788-4.045-1.295-3.522.587-9.359 4.236-9.41 3.001-.754 4.397-3.358 7.375-6.337 2.346-.77 3.505.43 5.039 2.018s.361 4.354 2.358 5.028 2.205s7.491 3.692 8.498 4.698z"/><path fill="#F7992C" d="M98.222 73.746c-3.797 1.307-8.022-.74-10.255-4.34-1.993-5.113.698-10.983 6.626-12.123 4.03-1.251 8.05.715 10.432 4.99 1.504z"/><path fill="#F7911C" d="M82.817 79.371c-3.519 1.169-7.392-.537-9.724-4.428-1.392-3.458.662-7.265 4.277-10.244 2.878-1.35 7.603.524 10.529 4.495 1.704 4.608-.428 7.155-.343 1.198-.063 1.397-.312 2.085-1.316 1.496 1.893.789 4.15.982 1.859.541 1.275 2.162 3.161 2.56 3.848 1.907 10.332-10.072 14.469-19.088 2.836-4.626 2.458-10.216-.714-12.491-5.566-1.638zM87.276 11.353c-.397 1.177-1.533 1.975-5.573 2.114-2.67-.296-5.138-.927-6.979-2.658-1.691-3.345-3.116-4.19-4.179-4.036.028-.114.043-.19-.072-.349-1.161-1.071.023-.026-.035-.025-.034-.026a.502.502 0 0 1-.54-.015c-.012-.06-.02-.06-.028-.107-.005-.018.021-.019.021-.018.021-.089.02-.099.019-.1.018-.19.016-.19.014-.17.018-.17.019-.179.091-.198.085-.189.184-.17.156-.144.16-.142.17-.232.172-.381.319-.645l4.424-3.146.74-2.628 1.287-2.605a2.431 4.321 0 0 1-1.312-1.91L19 19l-.051-.031a.512.521 0 0 1 .245.04.503.5 2 0 0 0 1.696.89l.047.02zM16.448 10.9a14.014 14.014 0 0 0 13.998 2.122z" fill="#b819ff"/></svg></svg>
