<svg xmlns="http://www.w3.org/2000/svg" viewBox="0 0 128 128"><path d="M63.79 8.64C1.48 8.64 0 78.5 0 92.33c0 13.83 28.56 25.03 63.79 25.03 35.24 0 63.79-11.21 63.79-25.03 0-13.83-1.47-83.68-63.79-83.68z" fill="#fcc21b"/><path d="M63.94 64.05c-3.87 3.4-10.79 16.74-19.04 21.24C-7.47 94.01 15.4 83.56 14.25c-7.75-5.35-37.34-3.96-53.52 1.83-16.72 0-37.69-1.11-58.02 3.51-15.79 17.61-33.31 33.73z" fill="url(#c)"/><path d="M63.99 79.5c10.28 0 21.81 10.6 30.19 43.04 10.91 19.61-5.68 30.63-60.77 6-28.35-14.17-14.27-15.29-15.24-17.38-19.02 0-13.37 19.43-23.44 25.02-10.92m0-4c-13.31 0-25.55 10.01-38.9 24.98z" fill="#eb8f00"/><path d="M36.64 25.97c1.39 1.14 3.17 2.56 2.67 3.48a2.989 2.989 0 0 1-2.75.93c-.98 0-1.73-.47-2.04-1.32-.13-.27-1.78-5.69-9.54-5.38-6.5 7.49-9.67 1.07-13.72 2.53A2.09.8 2.99 2.12c.21.03.41.08.71.08 1.07.47 1.98 1.53 2.82 2.71a2.91 2.91 0 0 1 2.99 1.91zM14 7.49c-.29.07-.43.12-.58.12-.06 0-.16.01-.16.02-.31.03-.48.15-1.2.12-.79.38-1.58 1.23-1.87 1.05-.22.7-.76 2.19-1.43 2.84-.34.79-.5 1.66-.91 2.29-.01.06-.04.13-.05.14-.06.02-.16.08-.26.06-.25.09-.66.09-1.36.14-2 .39-2.03.04-.42.09-.96.09-.99-.01-1.53-.08-2.72-.88-1.65-1.44-2.09-2.3-1.2-.6-.79-1.3-1.37-1.7-1.76-.56-.42-1.39-.84-1.99-1.36-.02-.455.4-1.23 1.21-1.19 1.04-.45 1.57 1.01 1.35 1.44.18.2.67.47 1.06.77 1.69 1.23.66.75 1.22 1.34 1.4 2.22.2.7.64 1.32.53 1.42.59.53 1.26 1.16 1.48 1.82.61.45 1.33.92 1.89 1.05v.02c.08-.04.41-.06.87-.12.94 0 1.75.09 3.18 1.06.84 0 1.64-.12 2.39-.27.15.02.32.03.33.03.46.04.75.15 1.27.38.78.48 1.66.89 2.08 1.2.17.22.32.32.57.18.65.47.45.59.5 1.19.22.36.07.65.36.76.46l.13.02.14.02c.13.06.14.05.27.07 1.51.36 2.68.74 4.41 1.17.4.28.31.52.63.81.67.31 1.3.62 1.91.58.55.2 1.19.77 1.42.55v.04.07.04-.07.17-.07.17-.06.87-.23 1.24-.41 2.11-1.88 2.67-3.16 3.49-7 2.89-14.95-.16-8.09-.2-.7-.25-1.46-.54-2.31-.68-.92-.31-1.98-.84-2.76-1.49-.78-.83-.35-1.84-.23-2.73 0-1.33.33-2.04.28-3.48.01-.02.01-.07.02-.07 0-2.62-.82-1.85-2.63-1.39-4.48.3-1.13 1.01-1.75 1.99-2.26 1.65-1.42 1.09-3.78 2.1-5.48.61z"/></svg></svg></svg>
