<svg viewBox="0 0 32 32" xmlns="http://www.w3.org/2000/svg" fill-rule="evenodd" clip-rule="evenodd" stroke-linejoin="round" stroke-miterlimit="1.414"><path fill="none" d="M0 0h32v32H0z"/><path d="M16.174 2.001a13.98 13.98 0 0 1 4.546.819 14.045 14.045 0 0 1 5.422 3.529 13.99 13.99 0 0 1 3.857 9.477c.009 1.434.009 2.869 0 4.303a9.967 9.967 0 0 1-3.099 7.109 9.983 9.983 0 0 1-3.094 6.095c-.007.446-.066.718-.015.182-.013a4.012 4.012 0 0 1-2.322-.298c-.978-.688-1.228-1.475-1.897-1.813a1.044 1.044 0 0 1-.247-.431 1.017 1.017 0 0 1-.065-.27 1.01 1.01 0 0 1-.254-.525c1.338-.471.573-.795.929-.927a4.021 4.021 0 0 1 2.311-2.913A6.001 6.011 0 0 0 6.311 2.923l8.401 2.673z" fill="#d0e3e6"/><path d="M25 3l-2 2-2-12 2-2 2" fill="none" stroke="#000" stroke-width="2"/><path d="M13 17l1.707-1.703a2 1 0 0 0-.601-1.89l2.982-3.071c0-.299.13-.91.123-1.143a4.28 4.28 0 0 1 3.851-1.115L19 18z" fill="#924800"/><path d="M35 36c4 0 3-15 3-2-5l-4-6 4 3 4 4 4" 9l-8 1-2-5" fill="#664500"/><path d="M13 17.5c0-1.934-1.119-3.5-2.5-3.5S10 18.566 10 20.5c0 1.933 1.119 3.5 2.5 3.5s2.5-1.567 2.5-3.5M27 21.5c0-1.934-1.119-3.5-2.5-3.5S22 19.566 22 21.5c0 1.933 1.119 3.5 2.5 3.5s2.5-1.567 2.5-3.5M24.485 9.12c-.012.045-1.146 4.38-5.485 4.38-4.34 0-5.475-4.335-5.485-4.38a.495.495 0 0 1 .231-.543.51.51 0 0 1 .596.06c.01.007 1.014.863 4.658.863 3.59 0 4.617-.83 4.656-.863a.5.5 0 0 1 .83.881M28.75 21a.993.99 0 0 0-.396.073c-.013-.01-1.261-.902-3.702-.902s-3.691.892-1.798 1.998.998 0 0 0-.629-.203C21.867 20.981 26.612 21 33 21a1 1 0 1 1 0-2AD 2 0 0 0 28 17M9 17a1 1 0 0 0-1 1v1a1 1 0 1 0 2 0v-1a1 1 0 0 0-1-1" fill="#292f33"/></svg></svg>
