<svg xmlns="http://www.w3.org/2000/svg" xmlns:xlink="http://www.w3.org/1999/xlink" width="128" height="128" viewBox="0 0 128 128"><path fill="#FCC21B" d="M64 17.43C1.98 17.43.51 86.95.51 100.71c-.95 0-1.88-.47-2.25-1.37.84-1.76 3.63-3.27 3.27-3.6.45 0-.78-.23-1.29-.49-.36-.3-.95-.7-.4-.72-.14-1.36-.11-1.85-.16-.57-.09-1.14-.14-1.6-.17-1.17.02-2.26-.34-2.76-.76-.86-.32-1.54-.5-2.34-.19-.79-.79-1.58-1.28-1.94-1.84-1.02-2.72-2.35-4.77-3.61-6.61-2.11-.37-.08-.85-.17-1.25-.41-.31-.06-.6-.25-.75-.36-.15-.12-.25-.17-.37-.25-1.21-.26-2.45-.23-3.87.52s-.65.46-1.43.65c.35.01.71.1.97.17.51 0 .03.01.18 0-.41 0-.01.01s.14.21.23.3c.03.04.28.13.39.23.9.2 1.57.5 2.48.71 3.4 1.16 1.66 1.37 3.48 2.02 4.94.7 1.25.29 2.7-.9 3.48-.17.26-.41.54-.89 1.19-.31.28-.63.46-1.06.45-1.52 1.51-3.88 3.17-5.66 3.71-1.08.35-2.17.68-3.04.64-1.23 0-2.61-.91-4.08-1.65-1.25-.32-2.64-.71-3.88-.67s1.5-1.5 2.6-1.2c.46-.08.91-.44 1.55-.38 2-.03 3.08-.94 3.72-.26.31-.05.64-.09.94.02.58 8.62 4.13 93.83 2.62 12.96 0 18.32-6.25 20.36-10.24.1-.37.4-1.47.62-2.37.15-.13.32-.24.48-.41.51-.31 1.11-.41 1.56-.39.59 0 .99.45 1.73.75.53.02 1.06.07 1.69.07.42.66.83.85 1.32.18.35.22.52.29.66.06.04.11 0 .37.21.76.47 1.66.54 3.06.93.99.9.93 1.97 1.37 2.71.69.78 1.32 1.31 2.07 1.49.26 0 .43-.03.68-.12.05-.05.18-.18.25-.18 1.79-.5 2.78-1.56 4.22-1.21 7.64 3.98 9.65 13.38 6.54 18.55 2.34.66 1.32.82 2.2-.9 4.16-1.01 10.41-10.11 15.58-24.36-.19-1.44-1.27-2.54-1.26-4.87z" fill="#242424"/></svg></svg>
