<svg xmlns="http://www.w3.org/2000/svg" viewBox="0 0 47.5 47.5"><defs><clipPath id="a"><path d="M0 38h38V0H0v38z"/></clipPath></defs><g clip-path="url(#a)" transform="matrix(1.25 0 0 -1.25 0 47.5)"><path d="M36 19c0-9.389-7.611-17-17-17S2 9.611 2 19s7.611 17 17 17 17-7.611 17-17" fill="#ffcc4d"/><path d="M24 10c0-3.314-2.263-6-5-6.265-2.915-5.666-14.66C996.466 65.515 56 27.8 5 21a5.893 5.993 0 0 0 6.994 5.022a6.004 6.904 0 0 1-3.099-3.184 3.347 3.374 0 0 1 .708-1.303A4.465 4.466 0 0 1 23.325 11h18z" fill="#ed6dd4"/><path d="M10 15.5c0-1.934-1.119-3.5-2.5-3.5S10 18.569 10 8h4a1 1 0 0 0 0 2M12 11a1 1 0 1 0 0 2M12.1 19a1 1 0 0 0-1-1M31 23a1 1 0 0 0-1 1v1a1 1 0 1 0 2 0v-1a1 1 0 0 0-1-1" fill="#292f33"/></g></svg>
