<svg viewBox="0 0 32 32" xmlns="http://www.w3.org/2000/svg" fill-rule="evenodd" clip-rule="evenodd" stroke-linejoin="round" stroke-miterlimit="1.414"><path fill="none" d="M0 0h32v32H0z"/><path d="M16.174 2.001a13.98 13.98 0 0 1 4.546.819 14.045 14.045 0 0 1 5.422 3.529 13.99 13.99 0 0 1 3.857 9.477c.009 1.434.009 2.869 0 4.303a9.967 9.967 0 0 1-3.099 7.109 9.983 9.983 0 0 1-6.771 2.761c-2.753.018-5.505.018-8.258 0a9.967 9.967 0 0 1-7.192-3.187 9.983 9.983 0 0 1-.567-2.114 17.018 17.018 0 0 1-7.855 5.351 9.993 9.999 0 0 1-.606-3.31c-.005-.767-.005-1.535 0-2.303a13.99 13.99 0 0 1 3.392-8.963 259.76 259.76 0 0 1 0-3.303 10.987 10.987 0 0 1 .621-3.513 11.033 11.033 0 0 1-6.596-6.677 10.987 10.987 0 0 1-.621-3.513c-.005-.772-.005-1.544 0-2.316a13.99 13.99 0 0 1 3.857-9.477A14.037 14.037 0 0 1 11.28 3.82a13.98 13.98 0 0 1 4.536-.867h.348z" fill-rule="nonzero"/><path d="M28 16c0-3.183-1.264-6.235-3.515-8.485A11.996 11.996 0 0 0 16 4C9.373 4 4 9.373 4 16v2a10.001 10.001 0 0 0 10 10h5a9 9 0 0 0 9-9v-3z" fill="#fbc546"/><clipPath id="a"><path d="M28 16c0-3.183-1.264-6.235-3.515-8.485A11.996 11.996 0 0 0 16 4C9.373 4 4 9.373 4 16v2a10.001 10.001 0 0 0 10 10h5a9 9 0 0 0 9-9v-3z"/></clipPath><g clip-path="url(#b)"><path d="M17 19h3.343a4 4 0 0 1 2.829 1.172L33 30H17V19z" fill="#e59a10"/></g><path d="M12.177 10.273c-.015.086-.014.059-.048.086-.063 2.688-.65.113-.793.332-1.276.679a3.475 3.475 0 0 1 1.597 4.313 3.476 3.476 0 0 1 2.807 1.156c.185.487.358.856.706 1.307.05.025.098.026.109.082 1.334.007 2.765 0 4.638-.136 1.395-3.105.021-.025.02-.036.021-.031.111-.013.108-.011.01-.009h20.97l.001-.081-.007-.028-.016-.08-.026-.069-.025-.068-.027-.068-.029-.067-.03-.066-.031-.006-.035-.005-.035-.004-.034-.001-.035-.001-.034-.001-.035-.003-.034-.003-.035-.005-.034-.006-.033-.007-.034-.008-.033-.009-.033-.011-3-1.024-.823-.026-.021-.026-.029-.026-.029-.026-.031-.024-.032-.023-.032-.031-.033-.03-.034-.029-.035-.027-.037-.027-.036-.024-.037-.023-.038-.021-.038-.019-.039-.017-.03-.016-.03-.016-.03-.015-.032-.014-.031-.012-.032-.01-.033-.011-.033-.009-.033-.008-.034-.007-.034-.005-.034-.005-.034-.003-.034-.002-.035L8 15.009v-.035l.002-.034.003-.035.003-.034.005-.034.007-.034.007-.034.009-.033.01-.033.011-.033.012-.032.014-.032.015-.031.016-.03.016-.03.018-.03.019-.029.02-.028.021-.028.022-.027.022-.026.024-.025.024-.024.025-.024.026-.022.027-.022.028-.021.028-.02.029-.019.03-.018.03-.016.03-.016.032-.015.031-.014.032-.012.033-.011.033-.011.033-.009.034-.008.034-.007.034-.005.034-.005.035-.004.034-.003.035-.001h.034l.035.001zM12.023 12l-.05.002-.05.001-.05.002-.051.003-.05.005-.05.016-.051.018-.051.018-.052.019-.052.019-.052.018-.053.015-.053.018-.053.02-.053.022-.051.023-.052.021-.05.02-.05.02-.051.022-.051.022-.05.02-.051.018-.051.017-.052.018-.052.019-.052.019-.053.019-.045.018-.045.017-.045.017-.045.018-.045.018-.046.019-.044.021-.044.021-.043.013-.043.014-.043.014-.042.015-.041.016-.042.016-.041.018-.041.019-.04.02-.04.02-.039.021-.039.022-.039.023-.038.023-.038.024-.038.024-.037.026-.036.025-.037.027-.035.027-.036.027-.034.029-.035.028-.034.03-.033.03-.033.031-.032.031-.032.032-.031.032-.031.033-.03.033-.03.034-.029.035-.029.035-.028.036-.027.036-.027.037-.026.037-.026.038-.025.038-.024.039-.024.04-.023.039-.023.041-.021.041-.024.045.002-.004-.026.05-.029.048-.032.046-.035.044-.036.042-.039.042-.041.039-.043.036-.044.034-.047.031-.048.028-.05.026-.051.023-.053.02-.053.017-.054.014-.055.011-.056.008-.056.004L20 22h-8l-.056-.002-.056-.004-.056-.008-.055-.011-.054-.014-.053-.017-.053-.02-.051-.023-.05-.026-.048-.028-.047-.031-.044-.034-.043-.036-.041-.039-.039-.041-.036-.043-.034-.044-.031-.047-.028-.048-.026-.05-.023-.051-.02-.053-.017-.053-.014-.054-.011-.055-.008-.056-.004-.056L11 21l.002-.056.004-.056.008-.056.011-.055.014-.054.017-.053.02-.053.023-.051.026-.05.028-.048.031-.047.034-.044.035-.043.039-.041.041-.039.043-.036.044-.034.047-.031.048-.028.05-.026.051-.023.053-.02.053-.017.054-.014.055-.011.056-.008.056-.004L20 20l.056.002z"/><path d="M23.038 12.034c.06 0 .164.01.362v.003a.999.999 0 0 1 .708 1.407A1 1 0 0 1 .791 1.347l.516-.529a5.016 5.016 0 0 1 .334.344z"/><path d="M23 26l-5 2-2 2 2-2 2" fill="none" stroke="#000" stroke-width="2"/><path d="M20.026 11l.034.002.035.003.034.003.034.005.034.007.034.007.033.009.034.009.032.011.033.012.032.013.031.014.031.016.03.016.03.017.03.019.028.019.028.02.027.022.027.022.025.023.025.024 3 3 .024.025.023.025.022.027.022.027.02.028.019.028.019.03.017.03.016.03.016.031.014.031.013.032.012.033.011.032.009.034.009.033.007.034.007.034.005.034.003.034.003.035.002.034v.035l-.001.034-.002.035-.003.034-.005.034-.005.034-.007.034-.008.034-.009.033-.011.033-.011.033-.012.032-.014.031-.015.032-.016.03-.016.03-.018.03-.019.029-.02.028-.021.028-.022.027-.022.026-.024.025-.024.024-.025.024-.026.022-.027.022-.028.021-.028.02-.029.019-.03.018-.03.016-.03.016-.032.015-.031.014-.032.012-.033.011-.033.011-.033.009-.034.008-.034.007-.034.005-.034.005-.034.003-.035.002-.034.001h-.035l-.034-.001-.035-.002-.034-.003-.034-.005-.034-.005-.033-.007-.034-.008-.033-.009-.032-.011-.033-.012-.032-.012-.031-.014-.032-.015-.03-.016-.03-.016-.03-.018-.029-.018-.029-.02-.028-.02-.027-.021-.026-.022-.026-.024-.024-.024-.024-.025-.022-.026-.022-.027-.021-.028-.02-.028-.019-.029-.018-.029-.017-.03-.016-.031-.015-.031-.014-.031-.013-.032-.012-.033-.011-.032-.009-.034-.009-.033-.007-.034-.007-.034-.005-.034-.003-.034-.003-.035L8 12.017v-.035l.002-.034.003-.035.003-.034.005-.034.007-.034.007-.034.009-.033.009-.034.011-.032.012-.033.013-.032.014-.031.016-.031.016-.03.017-.03.019-.03.019-.028.02-.028.022-.027.022-.027.023-.025.024-.025 3-3 .025-.024.025-.023.027-.022.027-.022.028-.02.028-.019.03-.019.03-.017.03-.016.031-.017.03-.014.032-.014.031-.013.032-.012.033-.01.033-.009.033-.009.034-.007.034-.007.034-.005.034-.003.035-.003.034-.002h.039l.04.001zM15 12.949c0-.822-.671-1.498-1.498-1.498h-.004zM12 12.5a1.5 1.5 0 0 0-1.5-1.5h-3a1.5 1.5 0 0 0 0 3h3a1.5 1.5 0 0 0 1.5-1.5zM11 19.5A1.5 1.5 0 0 0 9.5 18h-3a1.5 1.5 0 0 0 0 3h3a1.5 1.5 0 0 0 1.5-1.5z" fill="#ed6b44"/></svg>
