<svg xmlns="http://www.w3.org/2000/svg" viewBox="0 0 47.5 47.5"><defs><clipPath id="a"><path d="M0 38h38V0H0v38z"/></clipPath></defs><g clip-path="url(#a)" transform="matrix(1.25 0 0 -1.25 0 47.5)"><path d="M36 19c0-9.389-7.611-17-17-17S2 9.611 2 19s7.611 17 17 17 17-7.611 17-17" fill="#ffcc4d"/><path d="M25 10.5c-2.963 0-4.979.643-5.738.954-1.418 1.404-2.58 3.02-3.52s4-2.308-1.462-1.843a.997.997 0 0 0-1.029-.199.999.999 0 0 0-2.707 1.707 1.008 1.008 0 0 0 1.7-1.8C10.958 9.099 1.924 16.04 9.09 10.981 9.951 9.658 9.399 12 10.445 0 8.315-4.012 12-17 11" fill="#292f33"/><path d="M28 15H10s-4 1-9-6M12 9.774c-6.184 0-8.098 6.384-9.168 11.034C8.059 24.552 22.724 24 25 26s2.821-1.733 9.5 9.304a1 1 0 0 0 1.661-.169c.068-.005.718.02 2.592.002a.401.401 0 0 1 .705-.605c.013.019 1.529.902 3.702.902 2.426 0 3.674-.88 3.702-.9a.498.498 0 0 1 .755.603M18.457 19.203c-.06.135-1.499 3.297-4.457 3.297-2.957 0-4.397-3.162-4.457-3.297a.499.499 0 0 1 .144-.59.504.504 0 0 1 .611-.015c.012.01 1.262.902 3.702.902 2.426 0 3.674-.88 3.702-.9a.498.498 0 0 1 .755.603M6.999 24.542a1 1 0 0 0-.391 1.6c.133.007 2.762.009 8.793.002.331.016.576.038.97.281 3.44.95 6.9-.947 6.658-1.957" fill="#d79e33"/></g></svg>
