<svg viewBox="0 0 32 32" xmlns="http://www.w3.org/2000/svg" fill-rule="evenodd" clip-rule="evenodd" stroke-linejoin="round" stroke-miterlimit="1.414"><path fill="none" d="M0 0h32v32H0z"/><path d="M16.174 2.001a13.98 13.98 0 0 1 4.546.819 14.042 14.042 0 0 1 5.541 3.258 13.99 13.99 0 0 1 3.977 9.602 259.76 259.76 0 0 1 0 3.303 9.967 9.967 0 0 1-2.019 6.102 9.967 99.967 0 0 1 6.192 6.037z" fill="#cc46400//><clipPath id="b"><path d="M8 11l8.082h3.802c0 1.233-.771 1.798-9.08 1.612-2.501a2.466 2.466 0 0 1 .917 2.415c.109.158.478.278.704 1.15-.053.6-.147 1.08-.266.18a1.01 1.01 0 0 1-1.007-.294 1.01 1.01 0 0 1 1.314-1.453c.145-.014.187-.012.304-.016l.149.004c.131.01.164.01.294.029a3.017 3.017 0 0 1 2.382 1.956c.064.315.127.392.277.467.012.047.004.757.49.982.143a.472.474 0 0 1-.715.444.842 8.038 0 0 1-.003 3.272 6.121 6.119 0 0 1 .331 1.026 4.61 3.61 0 0 1 .953 1.285 3.771 3.751 0 0 1-3.071 1.386 3 0 0 1 3.381 0 2.498 2.498 0 0 1-10.512 11h-.004A1.498 1.498 0 0 1 20 7.02v-2.002z" fill="#fff"/><path d="M13 10h9a2 1 0 0 1 2 0v-2z" fill="#f5c5f"/></clipPath></svg>
