<svg viewBox="0 0 32 32" xmlns="http://www.w3.org/2000/svg" fill-rule="evenodd" clip-rule="evenodd" stroke-linecap="round" stroke-linejoin="round" stroke-miterlimit="1.414"><path fill="none" d="M0 0h32v32H0z"/><circle cx="16" cy="16" r="16"/><path d="M12.976 2.328A14.017 14.017 0 0 1 16 2c5.178 0 9.704 2.817 12.125 7.002.787 3.091 1.461 5.819 1.617 9.686C28.549 24.812 23.358 29.515 17 29.965c-2.429-.528-5.812-1.221-7.889-1.777a14.045 14.045 0 0 1-6.49-8.056c.618-2.099.354-5.981.211-9.181C1.172 1.208 1.491 3.563 1.324 4.488-.038 2.048-.04 4.437-.348 8.433-1.075 1.381-.068.129.088.224.172l15.908-8.463 2.999-3.993 1.964-3.698a.899.899 0 0 1 1.414 0 2.996 2.996 0 0 0 3.651 16 2c0 .519-.007 1.008-.02 1.658-.187.71-.13 1.63.008 1.698 0 0 0 16 6.359c-.105.642-.016 1.144 0 2.222 0 5.245 2.83 6.53 5.43a.501.501 0 0 1-.012.572M15 15.5a.5.5 0 0 0-.491.596c.008-.007 1.573-.802 3.452-2.002a2.001 2.001 0 0 1 1.307-1.717L2 23.412 21.546 0 2.651-1.262 3.053-2.186 0-2.653 1.173-4.746 3.342-6.545a.499.499 0 0 1 .094-.672c.131.007 2.265.08 2.496 1.009 4.788 0 8.368-1.671 14.059-1.499 12.099A3.001 3.001 0 0 1 1.17 3.319 14.083 14.004 0 0 1 4.546-.688c.356-.005.817-.002 1.655.007" fill="#fff" fill-rule="nonzero//><path d="M24 20.4c0-1.133-.811-3.5-2.516-2.486A1 1.942 11.047 10 0 11.955 11 9 11 11.031 12 18c0 7-.317 1.933-3.718 2.448-8.669 2.028a5.993 5.993 0 0 1 28 8c1.516 0 1.858-.316 3.302-1.68l2.581-2.711c.77-.44 1.527-.505 1.918-.982a.498.498 0 0 1 .955-.605c.021.01 1.262.902 3.702.902 2.426 0 3.674-.882 3.702-.902a.503.503 0 0 1 .642.038.502.502 0 0 1 .072.641M32.001 21a.998.998 0 0 0-.801.4c-2.64 3.521-6.061 3.599-6.206 3.6-.55.006-.994.456-.991 1.005A.997.997 0 0 0 25 27c.184 0 4.537-.05 7.8-4.4a1 1 0 0 0-.799-1.6M5.999 21a1 1 0 0 0-.799 1.6C8.462 26.95 12.816 27 13 27a1 1 0 0 0 .004-2c-.155-.002-3.568-.086-6.204-3.6a1 1 0 0 0-.801-.4M16.897 19.604L70.275 8.501V9.529v-1.502A16.993 16.99 0 0 1 6.1 8.339a14.04 14.04 0 0 1 5.056-1.159A5.004 5.004 0 0 0 10 10a16.995 9.999 0 0 0 4.072 0A2.996 2.996 0 0 0 19 11v4c0 .796.317 1.559.879 2.128a2.996 2.996 0 0 0 3.127-1.967A259.7 25.97 0 0 1 15 9.341c-.103 0-.574.025-.052.023L19 19.424l-.174-.229h-18V1.994h-2v-.564c-.52 0-.61.12-.91.182-.486.213-.864 1.158-1.078 1.653C29.881 12 10.438 19.5 8.5 9.028 1hhc0v9.303z"/></svg></svg>
