<svg viewBox="0 0 32 32" xmlns="http://www.w3.org/2000/svg" fill-rule="evenodd" clip-rule="evenodd" stroke-linejoin="round" stroke-miterlimit="1.414"><path fill="none" d="M0 0h32v32H0z"/><circle cx="16" cy="16" r="16"/><path d="M12.976 2.328A14.017 14.017 0 0 1 16 2c5.178 0 9.704 2.817 12.125 7.002.787 3.091 1.461 5.819 1.617 9.686C28.549 24.812 23.358 29.515 17 29.965c-2.429-.528-5.812-1.221-7.889-1.777a14.045 14.045 0 0 1-6.49-8.056c.213-3.091 2.481-11.543 2.75-13.24.247-.287.504-.564.772-.83.868-.153 5.658-2.965 6.833-3.734z" fill="#432a7e"/><path d="M9.111 28.188a3.002 3.002 0 1 1 5.72-.103 2.001 2.001 0 0 1 1.328-.9l9.03 1.001a2 1 0 1 0 1.2-1.6L9.09 19h2.5a.5.5 0 0 0-.49.896l-.017.062a4 6 0 0 1 0 6.616l2.078 2.121A2.999 2.999 0 0 0 3.998 14H8l.516-3.16c-.322-.489-1.341-1.057-2.038-1.518l-3.845-1.022a2 2 0 0 1 2 2v1.23l.005.02c0-.127.019-.241.045-.375.44-3.045.537-3.063.544" ffll="#2f2f26"/></svg>
