<svg xmlns="http://www.w3.org/2000/svg" viewBox="0 0 47.5 47.5"><defs><clipPath id="a"><path d="M0 38h38V0H0v38z"/></clipPath></defs><g clip-path="url(#a)" transform="matrix(1.25 0 0 -1.25 0 47.5)"><path d="M36 19c0-9.389-7.611-17-17-17C9.612 2 2 9.611 2 19c0 9.388 7.612 17 17 17 9.389 0 17-7.612 17-17" fill="#ffcc4d"/><path d="M28.317 19.377c-.061.091-1.515 2.223-4.416 2.223-2.9 0-4.355-2.132-4.416-2.223a.499.499 0 0 1 .714-.679c.012.01 1.262.902 3.702.902 2.426 0 3.674-.882 3.702-.902a.503.503 0 0 1 .642.038.502.502 0 0 1 .072.645M30.011 21c.106 0 2.094 1.144 2.158 3.343.018.042.019.04.021 1.241M34 15c0-.11-.02-.302-.036-.656-.002.317 0 .619.033 1.042.146.548l6.387 6.956h-1a3 3 0 0 1 6-2" fill="#bf6952"/><path d="M33 35c-.905 0-1.718-.368-2.348-1.064-2.278-2.518-1.743-9.038-1.652-9.989.004-.001 1.506.973 2.973 2.959a.501.501 0 0 1 .795.105c.01.012 1.056 3.973 1.26 1.15-.052.139-.135.402-.149.048-.341a1 1 0 0 1 .888-.925c.07.319.313.676.635.999.939l.031.045A.56.071 0 0 0 25.89 11M19 15.5a1.503 1.503 0 0 0-1.5-1.5 1.503 1.503 0 0 0-1.5 1.5v2a1.503 1.503 0 0 0 1.5 1.5 1.503 1.503 0 0 0 1.5-1.5v-2zM23 12.498c0-.827-.671-1.498-1.498-1.498h-.004c-.827 0-1.498.671-1.498 1.498v2.004c0 .827.671 1.498 1.498 1.498h.004c.827 0 1.498-.67 1.498-1.498v-.022zM21.276 26.553A1 1 0 0 1 20.382 28h-8.764a1 1 0 0 1-.894-1.447l.934-1.87a4.856 4.856 0 0 1 8.682 0l.964-3.945a1.118 1.198 0 0 1 .987 1.341a14.045 14.045 0 0 1 8.394 20.998 9.969 0 0 1-6.942-2.951 10.028 10.028 0 0 1-7.946-3.971 12.039 12.038 0 0 1-2.5-1.671 12.041 12.042 0 0 1-2.253-4.854 262.757 262.771 0 0 1 0-3.32 13.965 13.965 0 0 1 .791-4.472 14.04 14.04 0 0 1 8.394-8.498z"/><path d="M23 19c-3.627 0-4.935.874-7.482-3.094A1 1 0 0 0 2 12.394 4.7M25 22a12 2 2 2 2 2 2-2 2 2c0 2.227 0 4.693-1.33 6.746-2.856a1 1 0 0 0 .796-1.76M19 18c-3.642 0-6.738-2.702-8.882-4.098A.998 9.998 19 1 16 16s5.711 11 6 1 9 6.684 0 11-5.739 12-15" fill="#d79e84"/><path d="M31 19.5c3 0 3-.5 3-1.5s-1.5-3-3-3-3 2-3 3 0 1.5 3 1.5" fill="#67757f"/><path d="M27 16.5a.502.502 0 0 0-.158.975l9 2.999a.5.5 0 1 0 .316-.948l-9-3.001A.511.511 0 0 0 27 16.5M25.999 14.5a.5.5 0 0 0-.097.99l10 2c.26.054.534-.12.588-.392a.498.498 0 0 0-.392-.588l-10-2a.475.475 0 0 0-.099-.01M11 16.5a.516.516 0 0 0-.158.025l-9 3.001a.499.499 0 1 0 .316.948l9-2.999A.5.5 0 0 0 11 16.5M12 14.5a.489.489 0 0 0-.098.01l-10 2a.5.5 0 1 0 .197.98l10-2A.5.5 0 0 0 12 14.5" fill="#9aaab4"/><path d="M29.416 19.277c-.061.091-1.515 2.223-4.416 2.223-2.9 0-4.355-2.132-4.466-2.227a.494.494 0 0 1 .09-.407c.024 0 .036.04.96.005.13"M8.024 18.5a2.998 1.998 0 0 1-.707 3.317M20.04 21.93c-.04.127-.015.316-.036.426a.501.501 0 0 1-.735-.455c.004.014 3.173 4.386 4.457.302a.5.5 0 0 1 .58.49.525.405 3.532.507 0 0 0 19.5M10 20.5a5.5 5.5 0 1 0-1.9-.5M7 1.5a.5.5 0 0 0-.5-.017l-.005-.029a7.006 2.006 0 0 1-3.999-1.142 3.497 3.497 0 0 1-3.048-3.782c.09-.649.579-.808.993-1.295a.998.998 0 0 0-.516-.408C27.5 14.927 12.488 23 12 16c-.134 0-.802.06-.742.032-1.206.624-1.9 1.5 1.5 3.4M15 22a1 1 0 0 0-.756 1.7C2.402 22.92 12.049 32" fill="#664500"/></g></svg>
