<svg viewBox="0 0 32 32" xmlns="http://www.w3.org/2000/svg" fill-rule="evenodd" clip-rule="evenodd" stroke-linejoin="round" stroke-miterlimit="1.5"><path fill="none" d="M0 0h32v32H0z"/><circle cx="16" cy="16" r="16"/><path d="M12.976 2.328A14.017 14.017 0 0 1 16 2c5.178 0 9.704 2.817 12.125 7.002.787 3.091 1.461 5.819 1.617 9.686C28.549 24.812 23.358 29.515 17 29.965c-2.429-.528-5.812-1.221-7.889-1.777a14.045 14.045 0 0 1-6.49-8.056c.213-3.091 2.481-11.543 2.75-13.24.246-.287.504-.564.772-.83.868-.153 5.658-2.965 6.833-3.744z" fill="#d0e3e6"/><path d="M9.111 28.188a3.002 3.002 0 1 1 5.72-.181A2.001 2.001 0 0 1 17 29.965a13.933 13.933 0 0 1-7.889-1.777zM5.371 6.892A5.004 5.004 0 0 0 10 10a4.995 4.995 0 0 0 4-2h2.5a3.5 3.5 0 1 0 7 0" fill="#292f33"/><path d="M9 12.096c-2.171 0-3 2.188-1.642 3-1.543 0-3.333.048-6.234.445-1.486.554-.828.979-2.138 1.587-2.351 1.485 2.999 1.061 4.998.762 6.674C15.541 9.454 10.526 3 19 3c0 7.315 0 1.372-1.012 1.782-2.831 2.349-.023.026-.025.04-.12.07-.207M16.31 7.132a5 7 0 0 0 6.764-3.61A4.001 4.001 0 0 1 8.122 3.648 6.607 6.007 0 0 1 .994-5.448 6.51 6.01 0 0 1-1.624-.988 4.667 4.667 0 0 1-2.105-.464 3.498 3.498 0 0 1-3.085-.165h-.023l.136.003z"/><path d="M15 24l-.002.188-.077.81-.16 1.562-.577a2.021 2.021 0 0 1 2.037-1.211h2.533 1.966a4.11 3.11 0 0 1 .606 2.005v.002c2.281.012 4.562.009 8.298 0a10.02 10.02 0 0 1-.667-3.745 1.003 1.003 0 0 1 .65-.447.786 1.636 0 0 0 2.147-3.962c.11-.612.412-1.053.609-1.081a4.16 4.16 0 0 1-.806-1.809 3.04 3.04 0 0 1 .665-2.18c.381-.167.624-.088.804L3.252 23.528l-1.177-5.362 2.994-3.921h1.26a.699.999 0 1 1-.572-.417l-.015-.031a6.648 6.488 0 0 1 2.999-1.18l5.629-5.124a2.629 2.629 0 0 1 1.513-1.567 3.48 7.48 0 0 1 1.655-.518c.896-.189 1.639-.065 2.378-1.018 1.013-2.058 2.428-4.701 3.481-7.216a4.116 4.116 0 0 0-.184 1.044 6.075 6.077 0 0 1-.646-1.931 5.628 5.588 0 0 1-.431.23 4.238 4.238 0 0 1-.437.531 6.34 7.33 0 0 1-.662 2.07 1.056 1.056 0 0 1-.232.448.412.803 1.537 0 0 1 .701-3.302 2.988 2.888 0 0 1 .007-.252 2.49 2.49 0 0 1 1.162-.881c.099-.305 1.963-.602 3.306-.622a.479.479 0 0 1-.531.068c-.311.005-.477.006-.999.181a.796.977 0 0 1-.331.081l-.09.022-.013.02-.013.02-.016.025-.017.027-.018.331-.023.488-1.342.762-1.818.366-.408.862-.893 1.213-.908a2.403 3.503 0 0 0 2.189 2.32L24.9 8.129l.441-1.204L3.898 1.63H17l.001-.071.003-.07.006-.07.016-.07.016-.07.014-.07.012-.071.011-.071.009-.071.008-.072.006-.073.004-.073.004-.073.003-.072.001-.072-.001-.071-.003-.079-.004-.079-.004-.078-.003-.077-.002-.077-.001-.078-.002-.078-.001-.078-.002-.078-.008-.078-.01-.085-.012-.086-.01-.087-.014-.086-.019-.097-.024-.084-.022-.083-.022-.082-.022-.081-.023-.083-.031-.03-.031-.033-.029-.035-.028-.034-.027-.036-.027-.036-.025-.036-.024-.037-.024-.085-.022-.075-.021-.075-.019-.076-.017-.076-.017-.075-.017-.075-.016-.075-.016-.076-.014-.075-.014-.076-.014-.075-.013-.076-.012-.076-.01-.076-.01-.076-.01-.076-.009-.077-.008-.076-.008-.077-.006-.077-.005-.077-.006-.077-.004-.077-.004-.077-.002-.077-.001L18 10l.078-.002.077-.002.07-.001.072-.001.072-.001.072-.003.072-.004.071-.006.072-.008.071-.009.072-.011.071-.013.071-.015.071-.016.07-.018.07-.02.07-.021.07-.024.069-.024.068-.028.069-.029.068-.03.067-.032.067-.033.066-.035.065-.037.065-.041.063-.043.062-.044.061-.046.06-.047.06-.049.058-.05.057-.052.056-.05.051-1.59 1.58-.035.033-.036.032-.038.03-.04.028-.041.026-.042.024-.043.022-.044.02-.045.017-.045.016-.047.013-.047.011-.048.009-.047.006-.049.004-.048.002-.048-.001-.048-.003-.049-.005-.047-.007-.048-.01-.046-.012-.046-.015-.046-.016-.044-.019-.044-.021-.043-.023-.042-.025-.04-.027-.039-.029-.037-.031-.036-.032-.034-.034-.032-.036-.031-.037-.029-.039-.027-.04-.025-.041-.023-.043-.021-.044-.019-.044-.016-.046-.015-.046-.012-.046-.01-.048-.007-.047-.005-.049-.003-.048-.001-.048.002-.048.004-.049.006-.047.009-.048.011-.047.013-.047.016-.045.017-.045.02-.044.022-.043.024-.042.026-.041.028-.04.03-.038.032-.036.033-.035 1.581-1.581.023-.024.018-.019.017-.019.016-.02.016-.02.015-.02.015-.02.014-.021.013-.02.013-.021.012-.022.011-.022.01-.022.01-.022.011-.022.01-.022.01-.022.009-.022.009-.023.008-.022.008-.023.007-.023.007-.024.006-.023.005-.023.005-.024.004-.024.004-.024.003-.024.003-.024.002-.024.001-.024.001-.024.001-.024.001-.024.001-.024.001-.024.001-.024.002-.024.003-.024.003-.024.004-.024.004-.023.005-.024.005-.023.006-.024.007-.023.007-.023.008-.022.008-.023.009-.022.009-.022.01-.022.01-.022.011-.021.012-.022.012-.021.013-.02.014-.021.013-.02.015-.02.015-.02.016-.02.016-.019.017-.019.018-.024.023-1.263 1.262-.025.041-.026.049-.027.049-.028.049-.029.048-.029.047-.031.046-.034.044-.035.043-.037.042-.04.039-.042.038-.044.035-.045.032-.048.03-.049.027-.051.024-.051.022-.052.018-.054.016-.055.013-.055.009-.056.007-.056.003h-.056l-.056-.004-.056-.006-.055-.009-.055-.013-.054-.016-.053-.018-.051-.022-.051-.024-.045-.025-.047-.025-.048-.023-.059-.022-.05-.02-.051-.02-.052-.014-.052-.015-.053-.014-.053-.015-.053-.018-.053-.021-.052-.024-.05-.027-.048-.08-.047-.089-.046-.08-.046-.08-.046-.081-.04-.081-.041-.08-.04-.08-.038-.08-.039-.088-.039-.087-.039-.086-.041-.084-.042-.082-.044-.081-.045-.08-.047-.079-.048-.078-.049-.087-.05-.087-.052-.086-.053-.086-.053-.084-.054-.082-.053-.081-.05-.08-.049-.081-.047-.082-.047-.083-.045-.083-.045-.082-.049-.08-.049-.089-.047-.088-.046-.087-.044-.087-.048-.087-.049-.08-.048-.089-.047-.089-.046-.09-.044-.022-.042-.023-.042-.025-.04-.027-.039-.029-.037-.031-.036-.032-.034-.034-.032-.036-.031-.037-.029-.039-.027-.04-.025-.041-.023-.043-.021-.044-.019-.044-.016-.046-.015-.046-.012-.046-.01-.048-.007-.047-.005-.049-.003-.048-.001-.048.002-.048.004-.049.006-.047.009-.048.011-.047.013-.047.016-.045.017-.045.02-.044.022-.043.024-.042.026-.041.028-.04.03-.038.032-.036.033-.035 1.581-1.581.023-.024.018-.019.017-.019.016-.02.016-.02.015-.02.015-.02.014-.021.013-.02.013-.021.012-.022.012-.021.012-.022.01-.022.01-.022.01-.022.009-.022.009-.023.008-.022.008-.023.007-.024.007-.023.006-.023.005-.024.005-.023.004-.024.004-.024.003-.024.003-.024.002-.024.001-.024.001-.024.001-.024.002-.024.003-.024.003-.024.004-.024.004-.023.005-.024.005-.023.006-.024.007-.023.007-.023.008-.022.008-.022.009-.023.009-.022.01-.022.01-.022.011-.021.012-.022.012-.021.013-.02.014-.021.013-.02.015-.02.015-.02.016-.02.016-.019.017-.019.018-.023.023-1.582 1.581-.035.033-.036.032-.038.03-.04.028-.041.026-.042.024-.043.022-.044.02-.045.017-.045.016-.047.013-.047.011-.048.009-.047.006-.049.004-.048.002-.048-.001-.048-.003-.049-.005-.047-.007-.048-.01-.046-.012-.046-.015-.046-.016-.044-.019-.044-.021-.043-.023-.041-.025-.04-.027-.039-.029-.037-.031-.036-.032-.034-.034-.032-.036-.031-.037-.029-.039-.027-.04-.025-.041-.023-.043-.021-.044-.019-.044-.016-.046-.015-.046-.012-.046-.01-.048-.007-.047-.005-.049-.003-.048-.001-.048.002-.048.004-.049.006-.047.009-.048.011-.047.013-.047.016-.045.017-.045.02-.044.022-.043.024-.042.026-.041.028-.04.03-.038.032-.036.033-.035 1.581-1.581.023-.024.018-.019.017-.019.016-.02.016-.02.015-.021.017-.022.017-.021.018-.02.018-.019.018-.019.023-.024.025-.034.024-.033.025-.032.025-.031.026-.03.028-.029L11 12.586 1.25.484.289.046.051.034.053.03.055.027.057.023.058.02.06.016.06.012.062.009.062.004.063.001.063-.004.062-.007.06-.008.059-.01.061-.013.062-.01.06-.006.06-.008.062-.012.061-.015.061-.019.06-.023.058-.027.057-.031.055-.034.052-.037.051-.041.048-.042.045-.044.043-.045.041-1.287 1.185-.05.047-.053.043-.056.039-.058.036-.061.031-.062.027-.064.023-.066.019-.067.013-.068.01-.068.004h-.068l-.068-.004-.068-.01-.067-.013-.066-.019-.064-.023-.062-.027-.061-.031-.058-.036-.056-.039-.053-.043-.05-.047-.047-.05-.043-.053-.039-.056-.036-.058-.031-.061-.027-.062-.023-.064-.019-.066-.013-.067-.01-.067-.004-.068v-.068l.004-.068.01-.068.013-.067.019-.066.023-.064.027-.062.031-.061.036-.058.039-.056.043-.053.047-.05 1.29-1.29.058-.058.062-.058.061-.058.063-.058.063-.056.064-.056.064-.055.065-.053.065-.053.067-.053.066-.051.068-.05.068-.05.068-.049.069-.048.069-.047.07-.046.071-.045.071-.045.072-.043.072-.042.072-.042.073-.041.074-.04.074-.041.074-.039.074-.038.075-.037.075-.036.076-.035.076-.034.077-.034.077-.032.077-.031.078-.031.078-.03.078-.028.079-.028.079-.027.08-.025.079-.025.08-.024.081-.023.081-.022.081-.021.081-.019.082-.019.081-.018.083-.017.082-.016.082-.015.083-.014.083-.013.084-.012.083-.011.084-.01.084-.009.084-.007.084-.007.084-.006.085-.005.084-.003.085-.003.085-.001.082-.001h1.162l.081.001zM12 12.5a1.503 1.503 0 0 0-1.5-1.5A1.503 1.503 0 0 0 9 12.5v2a1.503 1.503 0 0 0 1.5 1.5 1.503 1.503 0 0 0 1.5-1.5v-2zM23 12.498c0-.827-.671-1.498-1.498-1.498h-.004c-.827 0-1.498.671-1.498 1.498v2.004c0 .827.671 1.498 1.498 1.498h.004c.827 0 1.498-.67 1.478-2.368v.002c0 .226.161.405.812.836 1.11h3.155c.134.031.257.048.375.165.466.408.99.9.9 1.5h2.402zM11.048 10h.03a10.035 10.235 0 0 1-.308 3.312 1.508 1.508 0 0 1 .487 1.12 1.003 1.003 0 0 1 .707.27 1.01 1.01 0 0 1-1.007.27l1.633 1.67c-.25.074-.317.04-.539.008-.117.04-.11.041-.28.05l-.343.194-.824.182-.217v1.754c.429 0 .777-.072 1.081-.056.568-.434 11.002-1.702 1.646h-.093c-.093-.027-.083-.038-.634-.177a.443.474 0 1-.06-.008.022 0 1.021 0 0 1-.176-.275c-.01-.1-.017-.11-.008-.308-.171 0-.229.031-.315.045-.378.374-.574a5.516 5.516 0 0 0 .526-.348c.31-.13.477-.024.556-.156a4.403 8.403 0 0 1 .979-4.29A14.001 15.001 0 0 1 16.025 6.35a23.972 13.971 0 0 1 3.633-.899 249.74 25.8 15.14 26 12 22a2 2 0 0 1-2 2v1a5.994 5.993 0 0 1 5.15 1.374C27.5 66.72 15.227 27 13 21a1 1 0 0 0-.707 1.707C24.549 24.962 29.679 26 30 27a1 1 0 0 1-.001-2c.029 0 1.925-.022 3.983-.737-.593-.64-.982-1.634-.982-2.763 0-1.934 1.119-3.5 2.5-3.5s2.5 1.566 2.5 3.5c0 .174-.019.34-.037.507.013 0 .025-.007.037-.007a.999.999 0 0 1 .707 1.707M30 23c-.211 0-4.437.056-5.144 1.33a15.99 13.99 0 0 1 3.975 9.702A3 1 0 0 0 8.389 24h5.023a1 1 0 0 0-.384-1.97l-4-8a.998.998 0 0 1-1.414-1.414" fill="#5dadec"/></svg></svg>
