<svg xmlll="#00c400"><path d="M96.35 73.242c-.01.137-.014.178-.03.18a1.008 1.008 0 0 1 .79 1.167c1.093.706 1.979 1.807 2.522 2.402a4.065 4.066 0 0 1 2.334 2.45c.001.153.037.161.037.115.135.123.13.197.157.631 1.532c1.319 0 2.433-.325 3.09-.989a2.001 2.001 0 0 1 1.352-1.019 1.525 1.835 0 0 1 .119-1.049 1.001 1.001 0 0 1 1.12-1.675c.02-.046.04-.099.103-.108a2.105 2.105 0 0 1 .658 1.387zM34.034 7.001a4.814 4.814 0 0 1 .22 5.017c.09.642.056.982.105 1.342.084a2.522 2.522 0 0 0 1.318-1.695c.182-.019.287-.043.356-.036.417-.003.184-.005.287-.005h.077l.167.007c.05.029.07.03.108.017.029.025.04.023.04.02.041.017.041.015.041.015.042.014.042.012.043.01.043.008.043.008.043.003.042.003.045.002.044.001h.045l.04.001zM19.046 10.001l.082.001.083.001.084.003.084.003.083.004.082.007.081.007.08.009.08.01.08.012.079.014.079.014.079.017.078.017.077.019.077.02.077.021.077.022.075.024.076.026.075.026.074.028.074.029.073.03.072.031.072.033.072.034.071.035.07.036.069.037.069.039.068.04.068.041.077.042.076.044.075.045.074.046.074.046.074.045.074.045.074.045.074.045.074.045.074.046.074.045.074.043.075.043.076.042.077.041.079.031.079.03.07.038.07.036.071.035.07.036.069.037.069.039.068.048.068.047.068.046.068.045.067.043.069.042.069.041.069.04.06.039.06.037.065.035.065.033.065.032.067.031.067.029.068.027.068.024.069.021.07.02.07.018.07.016.07.015.071.013.071.011.071.009.072.008.071.006.072.004.071.003.072.001.072-.001.072-.003.072-.004.072-.006.072-.008.071-.009.072-.011.071-.013.071-.015.071-.016.07-.018.07-.02.07-.021.07-.024.069-.024.068-.027.069-.029.067-.03.067-.031.067-.033.066-.035.065-.037.064-.037.063-.039.061-.041.069-.041.069-.043.069-.042.069-.04.069-.028.069-.027.069-.025.068-.024.069-.023.069-.022.07-.022.069-.02.071-.018.07-.016.07-.015.071-.013.071-.011.072-.009.072-.007.071-.006.072-.006.072-.005.072-.003.071-.003.072-.001.072-.001.072-.001.072-.003.072-.004.071-.006.072-.007.071-.01.073-.013.072-.012.072-.014.073-.014.072-.012.073-.011.074-.01.073-.01.073-.01.075-.009.072-.008.072-.007.072-.006.072-.006.072-.006.072-.006.072-.005.072-.003.071-.003.072-.001.072-.001.072-.001.072-.003.072-.004.072-.006.072-.008.071-.009.072-.011.071-.013.071-.015.071-.016.07-.018.07-.02.07-.021.07-.024.069-.024.068-.027.069-.029.067-.029.066-.029.066-.039.065-.039.065-.039.065-.041.064-.041.064-.042.064-.043.063-.043.062-.045.062-.045.061-.046.061-.047.06-.047.06-.049.059-.049.059-.05.058-.05.058-.052.057-.052.056-.053.056-.054.057-.056.877-.857.047-.059.049-.057.05-.058.052-.056.053-.057.052-.058.05-.058.049-.067.049-.067.05-.067.051-.067.055-.067.055-.065.056-.064.059-.063.053-.064.05-.061.053-.061.053-.069.047-.069.049-.067.05-.067.052-.066.055-.064.056-.064.056-.064.057-.063.058-2.062.085-.061.086-.05.086-.05.089-.049.08-.049.08-.047.08-.046.08-.045.082-.035.082-.033.082-.03.081-.03.08-.03.08-.03.089-.03.089-.038.088-.037.087-.036.087-.036.087-.034.087-.032.088-.03.089-.03.081-.035.08-.036.088-.038.088-.039.086-.041.085-.042.082-.043.081-.045.08-.045.089-.048.089-.05.088-.049.089-.047.089-.046.09-.044.092-.042.092-.041.092-.042.092-.041.091-.04.09-.041.09-.042.091-.044.091-.045.091-.045.091-.045.091-.044.091-.042.091-.041.092-.041.093-.039.093-.038.093-.036.094-.036.095-.032.095-.032.095-.032.095-.031.095-.025.093-.025.094-.027.042-.031.043-.03.044-.027.045-.025.047-.023.049-.02.049-.017.05-.015.051-.012.052-.01.051-.008.053-.004.051-.003.053-.001.041v.04l-.001.042-.003.041-.005.04-.007.041-.008.04-.009.04-.012.038-.013.038-.014.037-.016.037-.017.035-.019.036-.02.034-.021.034-.023.032-.024.032-.025.031-.026.029-.028.029L20.414 15H22l.04.001.039.002.04.004.039.006.04.007.038.008.039.01.038.012.037.013.037.015.037.016.035.018.035.019.034.02.034.022.032.023.032.024.03.025.03.027.028.028.027.029.026.03.025.031.024.032.022.033.021.034.02.034.018.036.017.036.016.036.014.037.013.038.011.038.01.039.008.039.007.039.005.039.004.04.002.04v.039l-.001.04-.003.04-.004.039-.006.04-.008.039-.009.038-.01.039-.012.038-.014.037-.015.037-.016.036-.018.035-.02.035-.02.034-.022.033-.024.033-.024.031-.026.03-.027.029-.028.028-.029.027-.031.026-.031.024-.032.024-.033.022-.034.02-.035.02-.035.018-.037.016-.036.015-.038.014-.038.012-.038.01-.039.009-.039.008-.039.006-.04.004-.039.003-.04.001h-.04l-.04-.002-.039-.004-.04-.005-.039-.007-.039-.008-.038-.01-.038-.011-.038-.013-.037-.014-.037-.016-.035-.017-.036-.019-.034-.02-.034-.021-.032-.023-.032-.024-.031-.025-.029-.026-.029-.028L21 14.414l-1.293 1.293-.029.028-.029.026-.031.025-.032.024-.032.023-.034.021-.034.02-.036.019-.035.017-.037.016-.037.014-.038.013-.038.011-.038.01-.039.008-.039.007-.04.005-.039.004-.04.002h-.04l-.04-.001-.039-.003-.04-.004-.04-.006-.039-.008-.039-.009-.038-.01-.038-.012-.038-.014-.036-.015-.037-.016-.035-.018-.035-.02-.034-.02-.033-.022-.032-.024-.031-.024-.031-.026-.029-.027-.028-.028-.027-.029-.026-.031-.024-.031-.024-.032-.022-.033-.02-.034-.02-.035-.018-.035-.016-.037-.015-.036-.014-.038-.012-.038-.01-.038-.009-.039-.008-.039-.006-.039-.004-.04-.003-.039-.001-.04v-.04l.002-.04.004-.039.005-.04.007-.039.008-.039.01-.038.011-.038.013-.038.014-.037.016-.037.017-.035.019-.036.02-.034.021-.034.023-.032.024-.032.025-.031.026-.029.028-.029L21 11.586l2.707 2.707z"/><path d="M15 18l4 2-2 2 2 2-4 2" fill="none" stroke="#000" stroke-width="2"/></svg>
