<svg xmlns="http://www.w3.org/2000/svg" viewBox="0 0 128 128"><path d="M53.39 9.64C1.68 13.88 7.81 12.97 7.18 25.18c0-15.14 19.37-30.14 17.89a6.87 6.97 0 0 1-6.87-4.17C24.57 24.32 19 42.65 101 28.35 36.18 167 45.31c-11.39 3.35-28.67 5.34-39.65 7.64-6.66-21.06-6.65-19.64 2.06-30.21 7.97-6.23 30.8 8.21 46.97 45.33 30.74 69.09 0 16.47-.88 15.5-1.1 21.75 0 4.95 3.15 9.38 8.37 9.92 5.24 11.97 11.69 33.55l102.91-46.4z" fill="#b8b8bb"/><path d="M34.44 17.9l-1.4 1.35c.38 1.24.96 2.62.89 3.47-.5 1.17-1.74 2.74-3.02l3.73-17.7c.35-.16.65-.27 1.08-.23.29.06.41.12.72.15.54.46 1.19.77 1.32.98.55 1.1.64 2.35.66 1.94-.37 2.99-1.33 5.57-1.18 11.73 0 1.95 1.1 1.94 3.15.21.76.97 1.02 1.47 1.84.6.31 1.26.73 1.89 1.16.31.31.85.67 1.21.82.55.46 1.07 1.06 1.09.72.3.4.68.71.81.72.49-.04.97-.11 1.36-.25 1.63-.12.7 0 1.33.03 1.95.13 1.06.03 2.28 0 5.13-.17 12.67-1.61 8.73-4.08.46-31.19-2.04-6.42-3.42-13.11-24.07-10.09-1.33-.39-2.94-1.34-5.93-2.88-1.38-.32-2.24-.76-3.7.86-1.47 1.24-2.88 2.8-3.75 3.78-2.62 20.91.45 9.92-6.04 6.65-7.65 2.64-15.41-.5-24.48-2.08-2.02-2.39-3.5-8.43-.8-12.9z"/><path fill="#2F2F2F" d="M81.85 62.01c6.49-.4 9.3-2.24 14.12-2.82 2.89-5.13 4.79-8.48 3.37-1.7-.22-2.49-.42-3.47-.62-2.04-.34-4.16-.73-6.31-.85-1.33-.51-2.24-1.12-3.03-1.75-1.15-.48-2.17-.91-3.57-.76s-.46-.81-.57-1.8c.2-.51 3.08-.75 3.78.71.89 1.51 1.17 2.79 1.86 2.31 2.66.82 4.55 2.63 6.49 3.43 2.85 8.31 4.36 10.28 17.86.57.69 1.22 1.31 1.78 1.74.69-.61 1.72-2.28.3-3.39z" fill="#2f2f2f"/><g><path d="M64 93.35c-19.7 0-35.69-10.78-42.56-14.16-.01-.01-.05-.04-.07-.04z"/></g></svg>
