<svg xmlns="http://www.w3.org/2000/svg" viewBox="0 0 128 128"><path d="M117.64 63.88c-.61 0-3.01-.62-3.02-2.07-1.7-1.37-2.54-2.89-2.48-4.9.17-1.2 1.42-1.67 3.12-1.29 1.1 1.35 1.56 3.32.75 5.92-.7 5.47-4.26 10.28-6.63 11.4-4.6 4.74-4.47-1.52-9.7-8.46-16.22-1.01-7.98.11-11.29.62-16.39.34-3.72.77-6.57.3-6.46-1.51-2.72-2.31-4.62-4.77-6.91-6-.81-1.11-1.23-3.08-2.22-4.72-3.3-3.83-4.84-5.45-10.14-5.54-14.25 4.27-1.54 10.42.75 11.78 1.75 2.53 4.55 2.29 10.64-.34 10.54-12.03 19.48-3.58 4.75-5.2 5.09-7.46 0-50.62-2.93-4.85-5.86-4.06-9.26zM23.81 39.1c.45-2.79-.13-5.47-1.42-7.67z"/><path fill="#2F2F2F" d="M64 68.33c-1.15.68-2.49 1.3-4.28 1.03-1.18 0-2.7-.14-3.04-.68l-1.5-1.33c.31-1.64 1.21-2.85 2.5-3.06l.38.1c-9.56 0-14.09 1.19-26.76 2.6-7.1 2.16-12.43 7.71-27.88 7.62-8.19 0-10.26-4.79-10.29-12.42.1-.77.53-1.56 1.09-1.49 2.72-.01 1.34.73 1.97 2.69.86 1.48-1.05 3.18-.83 4.74-5.34 10.18-16.38 22.64-15.65m01.01-.04.01-.03.01-.03.01-.06 0-.09-.03-.21-.1-.15-.11-.6-.17-1.13-.22-1.73-.24-1.47-.44-2.66-1.64-3.41-2.85-1.25-1.73-2.22-2.85-1.84-4.22.1-.21 4.08-1.47 5.73-.48 7.57 0 11.38-4.45 13.34-9.62 4.31-1.44 5.21-3.38 8.4-3.43 12.5.21 17.25 3.91 21.59 12.89s62.96 7.98 62.66 22.69c37.96 0 37.22-10.72 49.21-26.03 0-6.49-1.24-8.24-10.38-.69-9.57 0-17.7 2.87-25.72 7.51a2.95 2.94 0 0 0-2.48-1.3c-1.29-.35-2.15-.46-3.26-1.11l-6.17-7.65-3.63 46.22c.07 11.67 11.61 22.78 15.75 28.74 0 47.31-6.63 14.09-17.72 22.77l-.08.22c-19.98 1.91-32.13-.84-25.46-6.28-1.32-.52-1.74-1.31-3.17-1.74-1.47-.44-2.78-.76-3.7-.91-2.41.31-4.3.91-7.05.91-.93-.16-1.91.07-2.46 1.25-.19 1.17.63 2.21 1.73 2.75 3.8 1.35 13.62-1.73 18.9-1.24 3.23-.51 5.73-.74 7.36.12 1.75-.78 3.28-2.05 3.99-3.9.32-.54.21-1.06.3-1.85.61-.53 1.84-.34 18.35 6.03 8.5 24.65 28.64 37.91 29.22 39.43 28.31 16.9 25.68 37.98 38.6 28.71 29.9 25.74 26.67 0 35.81-8.8 38.1-33.21 42.65-3.99 35.05 1.77 38.64 1.45 6.31-7.85 8.22-28.69 8.98-24.04 18.61-39.64 3.41-35.48-2.36-5.81-16.62-4.27-23.7 5.61-3.88 24.8-5.49 38.79-2.04 21.64 0 37.77 2.85 4.71 13.23.61 1.19.6 3.15.48 4.11-.22 5.67-2.27 10.74-6.62 14.01-10.03 1.31-9.28 2.12-12.41-.29-22.07-4.32-3.77-12.36-1.4-21.31-2.28M69 41.53c-.67-.01-1.18-.05-1.84-.66-1.57-.89-3.13-1.71-4.99-2.2-3.58 1.11-5.68 7.06-7.67 10.14.43 12.79 1.91 34.47 8.06 41.28 7.97 9.57-.02 15.16-.34 22.65 0 .44.01-.04.04z"/><path fill="#2F2F2F" d="M77.17 65.8c-.39-.22-.74-.5-1.46-.81-.56-.21-1.02-.55-1.5-1.11-.48-.31-1.26-.29-1.9-.04-.23-.01-.67.08-1.24.62-1.81 1.05-2.4.98-5.08.88-10.84 0 0 0-2.96-.41-3.87-1.47-5.82-.88-1.41-.54-3.18-.81-3.75-.34-1.34 0-2.35.33-2.51.76-1.07 3.32-4.18 5.24-6.86.03-.34.13-.32.37-.44.11-.64.23-.92.27-.32.28-.52.44-.82.57-.16.67-.3 1.33-.4.46-.04.88-.16 1.37-.44 1.52-.05.51-.14 1.16-.14 1.66.03.31.15.67.26.97.17l.33.16c.2.1.3.31.58.34.58l.02.03c-2.59-.14-5s.31-4.34-8.04-4.48-.63-1.37-2.2-1.1-4.27-.45-.99.78-1.41 1.63-1.86 2.22-.21.98.52 3.3 1.24 4.11 1.77 1.84 2.24 3.88 5.03 5.07.52 1.2.6 2.71.01 4.01-.1.58-.31 1.39-.46 1.4.68 1.55 3.98 2.63 5.21 3.79.86.41 1.34.62 1.79.95 1.55.34 2.81.68 4.75.84.99 1.26.28 2.7-.3 4.21-.37.48-.82.81-1.49.85v.01c-.77-.01-1.48-.43-1.65-.69-.39-.1-.73-.17-.65-.18-.32-.16-.83-.57-1.26-.26-.53-.23-1.12.05-1.69.12-.35.31-.72.46-1.2.67-.34.21-.7.4-1.15.67-1.58.49-4.63-.72-13.1-1.24-.41-.3-.63-.68-.94-.72-.06-.24-.18-.45-.2-.67-.15-.57-.27-1.07-.67-1.54-.41-.31-.47-.69-.64-1.2.05-.34.35-.66.54-1.2.27-.46.2-1.23.4-1.9.45-.58.75-1.15.86-1.85.71-.84 1.44-1 2.69-1.98l.12-1.68c-.12-.26-2.46-3.52-9.17-2.51-5.82 0-8.28 1.71-14.64 5.84a2.75 2.75 0 0 0-3.46 1.47c-.91.11-1.69.65-1.85.85-.58.25-1.1.39-1.08l2.47-1.3c.96.09 1.99.18 2.59.82l3.56.14c4.49.14 11.04 4.13 1.63 8.38.37.95.9 1.32 1.47 2.4.66.3.93 1.11 1.47 1.64 2.5-.03 1.05.53 1.9 1.28.49.66.96 1.37.89 2.12-.5.5-2.25.39-3.04.11z" fill="#2f2f2f"/><g><path d="M64 9.62C1.59 9.62.12 79.58.12 93.42c0 13.86 28.59 25.08 63.88 25.08 35.28 0 63.88-11.22 63.88-25.08-.01-13.84-1.48-83.8-63.88-83.8z" fill="#fcc21b"/><g fill="#2f2f2f"><path d="M106.33 71.01c-10.68 0-20.68-12.05-32.66-11.66a3.313 3.113 0 0 0 1.39 4.29l-37-8.98c-.94-.16-1.85.43-1.74 1.65l-3.48 18.76c-.33.08-.64.02-1.15.08-1.52.22-1.76.46-3.36-1.11-1.49-3.51-1.61-7.51-1.42-10.63 1.27-1.24 5.33-1.27 7.43-.5.55 1.3 1.1 1.65 1.68.75.3 1.86.45 2.81.21 1.69 0 1.89-.98 2.12-1.7.73-.51 1.38-1.32 1.66-2.25 3.04-1.88 7.78-.81 10.53 1.47 8.94 3.98 13.55 14.41 18.05 19.91.14 27.26-1.28 3.53-3.73 1.49-1 1.82 1.33 3.45 1.48 5.54 1.05 2.42 0 6.63-.73 6.59-2.61a1.346 1.246 0 0 1-.49-.17c-.51-.37-.62-1.09-.36-1.66-.04-.18-.04-.39-.07-.47z"/></g></g></svg>
