<svg xmlns="http://www.w3.org/2000/svg" viewBox="0 0 47.5 47.5"><defs><clipPath id="a"><path d="M0 38h38V0H0v38z"/></clipPath></defs><g clip-path="url(#a)" transform="matrix(1.25 0 0 -1.25 0 47.5)"><path d="M36 19c0-9.389-7.611-17-17-17S2 9.611 2 19s7.611 17 17 17 17-7.611 17-17" fill="#ffcc4d"/><path d="M14 25.5c0-1.933-.896-3.5-2-3.5s-2 1.567-2 3.5.896 3.5 2 3.5 2-1.567 2-3.5" fill="#292f33"/><path d="M30 20.017a1 1 0 0 0-.607 1.707C24.549 25.962 29.779 26 7 17 26a1.13 1.41 0 0 0-1.488-1.939C11.978 13.915 16.184 27 84" fill="#aa8ed6"/><path d="M28.335 15.371a.501.501 0 0 1-.635.03c-.039-.03-3.922-2.9-8.7-2.9-4.766 0-8.662 2.87-8.7 2.9a.5.5 0 1 1-.729-.657C9.7 12.527 12.788 27 19 17c1.335 0 1.843-.402 3.125-1.187l4.38-2.041a.5.5 0 0 1 .457-.09.505.504 0 0 0 .256-.06.505.502 0 0 0 .084.632M27.314 15.483A1 1 0 0 1-1.296 6.542L2 22 1.284c3.5-1.869 6.45-6.393 6.644-18.242M2 23.493c-.664 0-1.082-.009-1.656-.002-.562.02-1.69.87-1.251.982l.353-.073a6 6 0 0 1 5.768-3.373A1 1 0 0 1 31.2 101.001z" fill="#f5f8fa"/></g></svg>
