<svg viewBox="0 0 32 32" xmlns="http://www.w3.org/2000/svg" fill-rule="evenodd" clip-rule="evenodd" stroke-linejoin="round" stroke-miterlimit="1.414"><path fill="none" d="M0 0h32v32H0z"/><circle cx="16" cy="16" r="16"/><circle cx="16" cy="16" r="14" fill="#d0e3e6"/><path d="M7 11.171V11c0-.796.316-1.559.879-2.121a2.996 2.996 0 0 1-4.242 0c.063.121.17.25.231.358a.497.498 0 0 1 .072-.041.6.2 0 0 1 .308-.101l.934.507 4.317 2.371zm-1.271 1.581c-.411.244-.529.273-1.007.3a1.1 1.09 1.04 1.04zM24.075 20.12c.172.081.501 2.157.005 3.656.004.758 2.123 5.567.083.11.241.242.767a#.571 1.571 16.156c.012.186-.012.179-.058.386-.181h.148l-.166.062c-.311.044-.982.133-1.291.124a4.035 4.035 0 0 1 .798-1.202 3.593 3.593 0 0 1 2.859.771c.036.005.038 1.27.238 1.374a4.17 4.17 0 0 1 .295 1.899 6.017 6.017 0 0 1 2.312 2.016c.009-.12.011-.395 0a2.133 2.133 0 0 1-.712 1.05L30.999 18h-.001l.017.012.008.013.007.013.007.014.007.013.007.014.007.013.007.014.007.013.008.012.006.013.007.012.007.012.007.012.007.012.007.012.007.012.007.012.007.012.007.012.007.012.007.012.007.01.006.02.006.02.006.02.005.03.005.024.074.024.073.022.073.022.074.021.073.02.074.019.074.018.075.017.074.017.075.015.075.014.076.014.075.013.076.012.076.01.076.01.076.009.077.008.076.008.077.006.077.005.077.004.077-.003.077-.003.077-.002.077-.006.076-.002.076-.003.076-.002.076-.001.076-.001.077-.001.077-.002.077-.004.077-.004.077-.005.077-.006.076-.008.077-.008.076-.009.076-.01.076-.01.076-.012.075-.013.076-.014.075-.014.075-.015.074-.017.075-.017.074-.018.074-.018.072-.019.073-.02.074-.021.073-.022.072-.022.073-.024.072-.024.072-.026.071-.026.072-.027.07-.027.071-.029.07-.03.07-.03.069-.031.068-.035.06-.035.063-.037.064-.037.064-.038.063-.04.063-.042.061-.044.06-.046.06-.047.058-.049.058-.051.056-.052.061-.059 1.167-1.167.041-.039.043-.036.044-.034.047-.031.048-.028.05-.026.051-.023.053-.02.053-.017.054-.014.055-.011.056-.008.056-.004L20 20l.056.002z"/><path d="M25 20.5a1.5 1.5 0 0 0-1.5-1.5h-3a1.5 1.5 0 0 0 0 3h3a1.5 1.5 0 0 0 1.5-1.5zM11 19.5A1.5 1.5 0 0 0 9.5 18h-3a1.5 1.5 0 0 0 0 3h3a1.5 1.5 0 0 0 1.5-1.5z" fill="#ed6b44"/><path d="M23.707 11.293l.028.029.026.029.025.031.024.032.023.032.021.034.02.034.019.036.017.035.016.037.014.037.013.038.011.038.01.038.008.039.007.039.005.04.004.039.002.04v.04l-.001.04-.003.039-.004.04-.006.039-.008.039-.009.039-.01.038-.012.038-.014.038-.015.036-.016.037-.018.035-.02.035-.02.034-.022.033-.024.032-.024.031-.026.031-.027.029-.028.028-.029.027-.031.026-.031.024-.032.024-.033.022-.034.02-.035.02-.035.018-.037.016-.036.015-.038.014-.038.012-.038.01-.039.009-.039.008-.039.006-.04.004-.039.003-.04.001h-.04l-.04-.002-.039-.004-.04-.005-.039-.007-.039-.008-.038-.01-.038-.011-.038-.013-.037-.014-.037-.016-.035-.017-.036-.019-.034-.02-.034-.021-.032-.023-.032-.024-.031-.025-.029-.026-.029-.028L21 14.414l-1.293 1.293-.029.028-.029.026-.031.025-.032.024-.032.023-.034.021-.034.02-.036.019-.035.017-.037.016-.037.014-.038.013-.038.011-.038.01-.039.008-.039.007-.04.005-.039.004-.04.002h-.04l-.04-.001-.039-.003-.04-.004-.039-.006-.039-.008-.039-.009-.038-.01-.038-.012-.038-.014-.036-.015-.037-.016-.035-.018-.035-.02-.034-.02-.033-.022-.032-.024-.031-.024-.031-.026-.029-.027-.028-.028-.027-.029-.026-.031-.024-.031-.024-.032-.022-.033-.02-.034-.02-.035-.018-.035-.016-.037-.015-.036-.014-.038-.012-.038-.01-.038-.009-.039-.008-.039-.006-.039-.004-.04-.003-.039L8 15.01v-.04l.002-.04.004-.039.005-.04.007-.039.008-.039.01-.038.011-.038.013-.038.014-.037.016-.037.017-.035.019-.036.02-.034.021-.034.023-.032.024-.032.025-.031.026-.029.028-.029L11 11.586l2.707 2.707z"/><path d="M15 18l4 2-2 2 2 2-4 2" fill="none" stroke="#000" stroke-width="2"/><path d="M23.786 11.732L5.788 9.001a5.658 5.658 0 0 1-7.059 3.043c-.881.267-1.642 1.052-2.621 1.587l-.853.171L6.274 11h.42a1.5 1.5 0 0 1-.667.292c1.327.472.549.634 1.117.744l1.889-1.702 2.944 2.144a.5.5 0 0 1-.357-.403c.131-.155.673-.398.844-.417a1.008 1.008 0 0 1 .61-.405c.013-.018 1.279-.441 2.345-.022.071-.025.05-.029.057-.458.044-1.156.674-1.21.108a.499.499 0 0 1 .07-.206.676.637 0 0 1-.074-.041c-.01-.002-.016-.005-.021-.007a.433.473 0 0 1-.047-.118c-.075-.028-.075-.069-.075.087-.076.076-.075.079-.07.147-.773l2.48 2.166c.422 3.235 0 6.069-.604 9.684-.889.766 0 16.348 16.65 23.699 6.025l11.376.802a1.032 1.032 0 0 0 .601-1.702 3.582 3.68 0 0 0 8.308.084a2.146 2.146 0 0 0 2.431-1.19l.065-.002c-.014-.007-.024-.008-.031-.011-.02-.014-.021-.014-.02-.014-.021-.016-.021-.017-.02-.018-.019-.02-.018-.021-.017-.029-.016-.03-.015-.031-.014-.031-.013-.032-.012-.033-.01-.033-.01-.033-.008-.033-.007-.034-.005-.034-.005-.034-.003-.034-.002-.035L9 14.009v-.035l.002-.034.003-.035.003-.034.005-.034.007-.034.007-.034.009-.033.009-.034.011-.032.012-.033.013-.032.014-.031.016-.031.016-.03.017-.03.019-.03.019-.028.02-.028.022-.027.022-.027.023-.025.024-.025 3-3 .025-.024.025-.023.027-.022.027-.022.028-.02.028-.019.03-.019.03-.017.03-.016.031-.016.031-.014.032-.013.033-.012.032-.011.034-.009.033-.009.034-.007.034-.007.034-.005.034-.003.035-.003.034-.002h.035l.034.001z"/></svg>
