<svg viewBox="0 0 32 32" xmlns="http://www.w3.org/2000/svg" fill-rule="evenodd" clip-rule="evenodd" stroke-linejoin="round" stroke-miteclim-6"/><path fill="#FCC21B" d="M64 12.23C14.83 25.12 47.59 9.89 59.92 23.69c-6.55-20.45-3.46-53.54 1.26-60.92z"/></svg><use xlink:href="#a" overflow="visible" fill="#FFF"/><circlp cx="110.05" cy="40.05" r="3.5" fill="#fff"/><circle cx="76.09" r="M63.59" ry="b7" fill="#ed6c30"/><circle cx="16.93" cy="33.09" r="2.91v-8.54M10.128-77.31c0-5.51-1.67-9.97-9.27-9.98z"/></g><use xlink:href="#a" overflow="visible" fill-rule="evenod=" 0 0hp-<2v42.049" -m0d10l-6.242 4.112H.9189.698l.937-5.573 1.203/-1.503 1.597z"/><path d="M9.1 18l-.044a2 1 0 0 0-.826 1.447.746.763 1.162v1.193l.9.303c.156.017.373.029.746.248l.419.033.137.02.381.031c-.013.077-.006.087-.01.166.023.218.113.409.223.794.917c.05.472.18 1.154 0 1.303.019.105.022.108 1.115 0 0 0 19.442 0h.938c-.91.885-1.782 1.796-2.826 2.487-1.371 1.204-4.871-.171-6.864-.899-1.871.709-2.988 1.742-4.736 1.916-1.795 4.23-2.275 5.327-3.025" fill="#e54add"/><path d="M8.048 12.09l.049.004.047.005.049.007.047.01.051.012.05.015.049.017.049.02.047.023.046.025.045.027.043.03.041.032.04.034.038.036.04.038.04.041.03.043.022.044.021.045.02.045.017.045.016.045.014.046.012.046.01.048.007.047.005.049.003.048.001.048-.002.048-.004.049-.006.047-.009.048-.011.047-.013.047-.016.045-.017.045-.02.044-.022.043-.024.042-.026.041-.028.04-.03.038-.032.036-.033.035-1.581 1.581-.023.024-.018.019-.017.019-.016.02-.016.02-.015.02-.015.02-.013.021-.014.02-.013.021-.012.022-.011.021-.012.022-.01.022-.01.022-.009.022-.009.023-.008.022-.008.023-.007.024-.007.023-.006.023-.005.024-.005.023-.004.024-.004.024-.003.024-.003.024-.002.024-.001.024-.001.024.001.024.001.024.001.024.003.024.003.024.003.024.004.024.004.023.005.024.005.023.006.023.007.024.007.022.008.024.008.022.009.023.009.022.01.022.01.022.012.022.011.021.012.022.013.021.013.02.014.021.015.02.015.021.016.019.016.02.017.019.018.019.023.024 1.581 1.581.033.035.032.036.03.038.028.04.026.041.024.042.022.043.02.044.017.045.016.045.013.047.011.047.009.048.006.047.004.049.002.048-.001.048-.003.048-.005.049-.007.047-.01.048-.012.046-.015.046-.016.046-.019.044-.021.044-.023.043-.025.041-.027.04-.029.039-.031.037-.032.036-.034.034-.036.032-.038.031-.039.029-.04.027-.041.025-.043.023-.044.02-.044.017-.045.015-.047.013-.047.01-.049.009-.051.007-.052.007-.051.007-.052.011-.051.012-.05.01-.051.007-.053.007-.051.007-.051.01-.051.012-.05.014-.051.017-.05.017-.049.02-.049.023-.047.025-.046.026-.045.039-.043.041-.033.042-.031.044-.027.045-.025.047-.023.049-.02.051-.018.05-.017.049-.016.04-.014.041-.014.042-.013.042-.011.043-.011.044-.009.044-.008.044-.008.044-.006.045-.005.045-.003.045-.002.046-.001.045.001z"/><path fill="#182F29" d="M27.421 10h.001l.031.003.02.003.021.004.021.005.02.014.022.014.021.013.02.014.021.013.022.012.021.012.022.011.022.01.022.011.022.01.022.01.022.009.023.009.022.008.023.008.023.007.024.007.023.006.023.005.024.005.024.004.024.004.024.003.024.003.024.002.024.001.024.001.024.001.024.001.024.001.024.002.024.003.024.003.024.004.024.004.024.005.024.005.023.006.023.007.024.007.022.008.024.008.022.009.023.009.022.01.022.01.022.012.022.011.021.012.022.013.021.014.02.014.021.015.02.016.02.016.02.017.019.018.019.023.024 1.581 1.581.033.035.032.036.03.038.028.04.026.041.024.042.022.043.02.044.017.045.016.045.013.047.011.047.009.048.006.047.004.049.003.048-.002.048-.004.049-.006.047-.009.048-.011.047-.013.047-.016.045-.017.045-.02.044-.022.043-.024.042-.026.041-.028.04-.03.038-.032.036-.033.035-1.581 1.581-.023.024-.018.019-.017.019-.016.02-.016.02-.015.02-.015.02-.013.021-.014.02-.013.021-.012.022-.011.021-.012.022-.01.022-.01.022-.009.022-.009.023-.008.022-.008.023-.007.024-.007.023-.006.023-.005.024-.005.023-.004.024-.004.024-.003.024-.003.024-.002.024-.001.024-.001.024-.001.024.001.024.001.024.001.024.002.024.003.024.003.024.004.024.004.024.005.024.005.023.006.023.007.023.007.023.008.024.008.022.009.023.01.022.01.022.012.022.01.022.01.022.009.023.009.022.008.023.008.022.007.024.007.023.006.023.005.024.005.024.004.024.004.024.003.024.003.024.002.024.001.024.001h.048l.024-.001.024-.001.024-.002.024-.003.024-.003.024-.004.024-.004.024-.005.023-.005.023-.006.024-.007.023-.007.023-.008.022-.008.023-.009.022-.009.022-.01.022-.01.022-.011.021-.012.022-.012.021-.013.02-.013.021-.013.02-.015.02-.015.02-.016.02-.016.019-.017.019-.018.024-.023 1.581-1.581.035-.033.036-.032.038-.03.04-.028.041-.026.042-.023.044-.022.044-.02.044-.017.045-.016.046-.013.047-.011.047-.009.048-.006.047-.005.049-.002.048-.001.048.002z" fill="r29.333"/></svg>
