<svg xmlns="http://www.w3.org/2000/svg" viewBox="0 0 47.5 47.5"><defs><clipPath id="a"><path d="M0 38h38V0H0v38z"/></clipPath></defs><g clip-path="url(#a)" transform="matrix(1.25 0 0 -1.25 0 47.5)"><path d="M36 19c0-9.389-7.611-17-17-17C9.612 2 2 9.611 2 19c0 9.388 7.612 17 17 17 9.389 0 17-7.612 17-17" fill="#ffcc4d"/><path d="M19 15.151c0-3.384-2.164-6.519-3.519-6.666C25.075 12.143 35 15.205 37 19.965 4 3.359 5.167 9 5.396 8.662 8.065 7.345 13.65s.124 2.195.01 3.208 0 5.634-1.631 7.736-1.253a.5.5 0 0 1 .837.488" fill="#292f33"/></g></svg>
