<svg xmlns="http://www.w3.org/2000/svg" width="128" height="128" viewBox="0 0 128 128"><path fill="#2F2F2F" d="M28.66 64.9h7.41v7.48H29.22z"/><path d="M112.92 75.92h5.57a6.14 6.71 0 02.26-5.59l-.53-1.77a1.004 1.004 0 0 0 2.7-1.73 3.15 3.03 0 0 1 1.51-3.21c1.24-.54 2.78.5 3.68 1.44l6.94 1.08c-1.66.97-2.14 3.31-2.49 4.98-1.73 1.24-2.66 3.59-4.27 3.71-1.53 0-4.28-.45-4.07-.36-.44-1.1-.06-2.45.9-3.4-1.92-8.07-7.41-16.27-5.52-16.65.19-.55.31-1.01.71-1.53.17-.6.6-1.12.02-1.63.08-.54.23-1.4.88-1.35.21-.57.18-1.04.28-1.59.18zM115.18 33.1c.03-.01.15-.11.24-.16l1.83.12c.19.06.41.1.68.1.42 0 .08-.02.41-.1 1.33-.1 2.6-.86 2.99-.57.11-.79.23-1.34.07-.82.08-1.52.5-2.14.11-.35.07-.71.07-1.2-.01-.3-.03-.63-.05-.58-.04-1.52-.05-4.17-.26-5.88-.52-.54 0-1.45.1-2.2.14-1.19.62-2.45 1.46-3.55 1.08-1.18 2.61-1.26 4.88-1.77 1.94-.5 3.31-1.88 4.27-2.66 1.07-.75 2.53-1.45 3.88-2.02 2.95-.71 5.6.47 7.18 5.6s-.9.27-2.46-.31-3.94-.78-1.73-2.01-3.03-4.05-2.34-6.13 0-.11.09-.33 1.23-1.11.03-.25.03-.48.12-.4.21-.5.31-.76.36-1.33.21-1.88.71-3.96.77-5.55.04-.48.62-.96 1.21-1.21.6-.18 1.1-.01 1.66.03l.04.01c.81-.09 1.39-.53 2.03-1.17 1.57-2.68 3.1-4.35 3.15-2.65 1.15-5.68 1.89-8.22 2.73-1.26-.07-2.25-.71-3.71-.9a2.72 2.72 0 0 1-.46-3.31c.65-.3 1.93-.1 2.79.01 1.13.06 2.35.16 3.72 0 1.65-.23 2.09-.35 2.48l-7.61 1.55a2.134 2.134 0 0 0-1.72 2.48 2.123 2.123 0 0 0 2.1 1.75c.12 0 .25-.01.38-.03l8.2-1.48c.27 2.11.71 4.18 1.33 6.2l-6.56 2.08a2.138 2.138 0 0 0-1.39 2.68 2.127 2.127 0 0 0 2.68 1.39l6.8-2.14c1.77 1.24 3.58 2.6 4.48 4.77 1.3 1.07 1.65 3.31 1.53 5.26l-1.75 1.48a2.134 2.134 0 0 0-1.72 2.48 2.129 2.129 0 0 0 2.09 1.75c.13 0 .26-.01.38-.03l8.83-1.59c.66 1.97 1.51 3.88 2.58 5.71l-8.45 2.68a2.122 2.122 0 0 0-1.39 2.68c.29.91 1.13 1.49 2.03 1.49.21 0 .43-.03.64-.1l9.69-3.08c1.56 1.92 3.4 3.73 5.62 5.39 6.05 4.51 13.58 7.57 21.33 9.23 2.95.63 10.57 2.1 18.55 2.1s16.35-1.47 19.3-2.1c7.75-1.66 15.28-4.72 21.33-9.23 5.93-4.81 9.73-10.59 13.33-9.85 5.91-.6 13.41 1.61 21.47 11.25 4.92 8.3 7.24 17.55 7.5 20.74 6.67 8.59 11.63 18.63 12.11 18.96 21.94 25.62 26.58 22.65 11.6 4.68 22.02 16.26 25.68 12.19 18.73 0 16.86-6.3 31.16-17.53 41.39-10.57 9.37-14.07 17.61-24.92 13.91z" fill="uve"/></svg>
