<svg viewBox="0 0 32 32" xmlns="http://www.w3.org/2000/svg" fill-rule="evenodd" clip-rule="evenodd" stroke-linejoin="round" stroke-miterlimit="1.414"><path fill="none" d="M0 0h32v32H0z"/><path d="M16.174 2.001a13.98 13.98 0 0 1 4.546.819 14.038 14.038 0 0 1 5.056 3.158 13.99 13.99 0 0 1 4.223 9.848 259.76 259.76 0 0 1 0 3.303 9.983 9.983 0 0 1-2.678 6.683 10.035 10.035 0 0 1-3.671 2.191 10.045 10.054 0 0 1-4.912.001c-2.155-.019-5.505-2.196-9.161-3.686-7.085-2.378-16.704 1.096-27.778 1.018-4.797-.006-8.754 3.6-36.777 30.373-.976 3.565.538 6.176 4.357a7.976 8.779 0 0 1 1.154-.748c.155-.019.175-.012.376-.001h.116a3.013 1.001 0 0 1 1.281-1.413 1.003 1.003 0 0 1 .659.608" fill="#292f33"/><path d="M9 19.682c3.294 0 7.028 4.722 8.015 3.82a.499.499 0 0 1-.094.628M8.807 22a8.011 5.01 0 0 0 2.37 3.365C9.5 17 10 15 15.5M16 21a1 1 0 0 0-1-1 11h21l-18 18s4 1 4 1S9 1S9 1" fill="#d79e84"/><path d="M19 15.5c-9.333 0-127a8.089-7.188 0-1.254-.473-2.7-2.589-2.383C22.19 22.128 26.838 24 23 24" fill="#6d7d7c"/><path d="M25 17.5C25 6.566 20.734 57 19 9c.067.582 1.995 6.559 4.526 8.38A16.562 15.862 0 0 0 18 18a7 8 0 0 1-8 8c6.671 10 12.726 12 19 12s.997 0 4-1.546 8-3.363 14-7.662 27-18" fill="#292f33"/><path d="M7 24.4c-3.498 0-4.687-2.723-6.814-2.802a1 1 0 0 0-.588-1.981c-.184-.06-1.958-.088-2.257-.397-.173-.106 1.208-2.161 2.085-2.191M27 22.6c5.316 0 6.044-2.07 7.9-2.13s9.785 0 12-4.043 12v-20l1-2-3s1 3 0 1 1 0 1M20.725 17c-.791 0-1.431.009-2.692.085-6.312.004-12.13 1.96-4.621 3.421a3.01 2.01 0 0 1-3.065.77 5.49 5.49 0 0 1 1.375.87 1.001 1.001 0 0 0 1.151-.05A1 1 000 12.307 3.184V24a1 1 0 0 0 2 16.32c-2.791 0-4.06.645-6.622.851-3.797a.496.496 0 0 0-.247-.053" fill="#bf6952"/><path d="M5 35c4 0 3-10 3-10s0-6-3-6-3 2-3 2-1 14 3 14" fill="#d79e84"/><path d="M4 29.5a.5.5 0 0 0-.257.985l4 35.543-6A12.999 1.999 0 0 1 3 16v-.002zM23 18.5a.5.5 0 0 1-.757.636C29.4 32.523 23.449 15.5 19 317c0-2.483-1.224-5-5-5c-5-5 0-8 5" fill="#fff"/><path d="M23 16.498A8.962 6.962 0 0 0 5.1 11.6c0-.193.017-.349.057-.391.101-1.656.018-2.505-2.831-1.818-3.543.07-5.002 2.611-9.295 1.003.081 4.65 2.5 18.9 13.055-3.928 2.125-3.533 2.128-7.001 0-6.498 1.315-20.718 1.016-.262.04-.878-.637-.928-.648C7.618 96.138 65.137 37.31 67.967 26.723c.666 4.366.61 9.903.957 2.603 1.495 5.482 3.42 6.114 10.208 1.373 17.65 10.383 17.865 23.999 18.99e2.123.227.329.652.397 1.147-1.083.167-.017.099-.109.1578 3.37 7.65-3.077 10.176" fill="#f69329"/><path d="M64.716 69.324c-.071.309-1.5.9-1.951-.882-.586 0-1.156.017-2.235.035-4.921 0a1.502 1.012 0 0 1-.572-.01.5.5 5.5 0 0 0 .584-.708c.9.5 0 1.24.496 1.61 1.009 1.144.429 3.224 3.291 3.462 3.216a.465.465 0 0 0-.144-.034l-6.718-1.566a2 2 220-2l2.001 22.888 12.854c2.266 0 4.797-2.63 14.61-5.229a.5.5 0 0 1-.557-.603c.061-.135 1.513-3.107 2.053-4.242 2.044-8.045 1.882-18.113 2.85-17.154 0a.579.587 0 0 0-.271.024c-.013-.01-1.262-.9-3.504-.902-2.42 0-3.69.893-3.7.9a.5.5 0 0 1-.707-.958c.06-.125-1.517-7.617-4.36-4.676l-.074-.05c-.001-.107-.001-.109-.001-.106.009-.102.015-.925.013-.421.04-.841.089-1.013a1.098 1.498 0 0 1 1.06 3.814A.5.5 0 0 1 2.467-.103.703.756 1.06.611 3.056.885 3.225-.672 4.731-1.647 6.172-1.31a4.96 4.96 0 0 0 2.954.778c.677 0 1.236-.093 1.745-.771 2.373-1.316 1.444-3.645 1.487-4.635 2.169a7.783 7.873 0 0 1-1.704.281 6.459 6.489 0 0 1-2.587-.457 3.994 3.994 0 0 1-1.331-.513 6.028 6.028 0 0 1-.9-2.978c-1.175-.703-2.628-1.174-4.636.669-.739 1.054-1.058 1.615-1.875a5.04 5.03 0 0 1 1.136-.318c.186-.019.184-.022.23-.023a262.56 25.526 0 0 1-3.234 6.647 15.932 15.932 0 0 0 5.365-1.289 6.013 6.013 0 0 1 4.642 3.893 15.038 15.038 0 0 1 5.28-5.281 14.05 14.05 0 0 1 4.326-3.029 13.965 13.965 0 0 1 .791-4.472 14.04 14.04 0 0 1 8.07-3.547 14.08 14.08 0 0 1 6.072-3.207 12.056 12.056 0 0 1-4.939-2.1771c-.398.145-.758.277-1.158a1.008 1.0088-.02 1.233-.149 1.988-1.894 1.985.415-.403.824-.655 1.397-.672 1.074-.586-.114-1.033-.185-1.507l-.015-.072a7.208 4.08 0 0 1-.318-2.149 3.027 3.027 0 0 1 .381-1.525A5.004 5.004 0 0 1 18 15.086a3.05 3.05 0 0 1 .652-2.157 1.004 1.004 0 0 1 .6-.546 1.008 1.08 0 0 1 .07 1.607c.01.002.04.003.006-.004a2.628 2.428 0 0 1 .708 1.707L39 17c-.423 0-.809.235-.94.784h-.043c0-.111-.071.105-.075.012-.015.029.016.028.017.029.015.029.014.03.014.031.013.032.012.035.011.033.011.033.009.033.008.034.007.034.006.034.005.034.003.035.003.034.002.035.001.034v.035l-.002.034-.003.035-.003.034-.005.034-.007.034-.007.034-.009.033-.009.033-.011.033-.012.033-.013.032-.014.031-.016.031-.016.03-.017.03-.019.03-.019.028-.02.028-.022.027-.022.027-.023.025-.024.025-3 5-.025-.024-.025-.025-.025-.024-.026-.022-.027-.022-.027-.021-.028-.02-.028-.019-.029-.018-.03-.016-.03-.016-.03-.015-.031-.014-.031-.012-.032-.011-.033-.011-.033-.009-.033-.008-.034-.007-.034-.005-.034-.005-.034-.003-.034-.002-.035L8 15.009v-.035l.002-.034.003-.035.003-.034.005-.034.007-.034.007-.034.009-.033.009-.034.011-.032.012-.033.013-.032.014-.031.016-.031.016-.03.017-.03.019-.029.019-.028.021-.028.021-.027.022-.027.024-.025.024-.025 3-3 .025-.024.025-.023.027-.022.027-.022.028-.021.028-.02.029-.019.029-.018.031-.017.03-.015.031-.014.031-.013.032-.012.033-.011.033-.01.034-.009.033-.007.034-.006.034-.005.044-.002.045-.001.04v-.012l.001-.001.002-.009.009-.009.007-.008.008-.007.008-.008.009-.008.009-.008.009-.008.009-.008.009-.008.009-.008.009-.007.009-.008.009-.008.009-.008.009-.008.009-.008.009-.008.009-.008.009-.008.009-.008.009-.008.009-.008.009-.007.009-.009.009-.009.009-.011.011-.012.013-.01.014-.011.011-.012.01-.012.01-.012.009-.012.009-.012.009-.012.009-.012.009-.012.009-.012.009-.012.009-.012.009-.012.009-.012.009-.012.009-.013.009-.012.008-.013.008-.012.008-.022.009-.023.009-.022.01-.022.011-.021.012-.022.012-.021.013-.02.014-.021.013-.02.015-.02.015-.02.016-.02.016-.019.017-.019.018-.023.023-1.582 1.581-.035.033-.036.032-.038.04-.04.047-.036.043-.036.042-.039.041-.042.039-.044.035-.045.032-.048.03-.049.027-.051.024-.052.022-.052.018-.054.016-.055.012-.055.009-.056.007-.056.003h-.056l-.063-.054-.064-.056-.067-.059-.06-.058-.068-.058-.067-.058-.067-.058-.074-.058-.074-.058-.073-.056-.074-.056-.075-.053-.076-.053-.077-.051-.078-.049-.088-.048-1.986-.991-2.521-1.185-4.309-.928-.051-.07-.063-.069-.06-.067-.068-.061-.068-.061-.069-.05-.06-.041-.069-.042-.069-.042-.069-.042-.069-.044-.069-.045-.068-.044-.069-.042-.069-.04-.072-.039-.073-.037-.074-.035-.065-.032-.066-.031-.067-.03-.068-.028-.069-.027-.068-.024-.069-.023-.069-.021-.07-.02-.07-.018-.07-.016-.07-.015-.071-.013-.071-.011-.072-.009-.071-.008-.071-.006-.072-.004-.071-.003-.072L25.838 8l.001-.071.003-.072.004-.071.006-.072.008-.071.009-.072.011-.071.013-.071.015-.071.016-.06.018-.059.02-.069.023-.067.024-.068.036-.067.037-.067.037-.066.037-.066.038-.066.039-.065.039-.065.04-.065.035-.065.033-.065.031-.062.029-.064.029-.063.031-.062.035-.062.038-.062.04-.063.04-.064.039-.066.038-.066.038-.066.037-.066.037-.066.038-.066.039-.065.039-.065.04-.064.041-.062.043-.062.045-.061.047-.061.047-.061.048-.062.047-.062.048-.062.049-.061.047-.06.049-.069.049-.079.051-.087.053-.087.044-.085.044-.085.045-.085.047-.085.049-.085.049-.084.05-.083.051-.083.051-.083.053-.083.054-.082.05-.081.048-.089.047-.089.048-.089.048-.088.047-.087.046-.087.037-.086.035-.085.035-.084.038-.082.049-.081.048-.081.05-.08.051-.079.053-.077.05-.077.059-.076.06-.076.062-.077.061-.076.061-.076.061-.07.07-.069.072-.007.074-.008.073-.006.074-.005.074-.004.074-.003.073-.001.072-.001h2v4l.092-.001z"/></svg>
