<svg viewBox="0 0 32 32" xmlns="http://www.w3.org/2000/svg" fill-rule="evenodd" clip-rule="evenodd" stroke-linejoin="round" stroke-miterlimit="1.414"><path fill="none" d="M0 0h32v32H0z"/><path d="M16.174 3.001a13.98 13.98 0 0 1 4.546.819A14.045 14.045 0 0 1 25.9 6.1a13.99 13.99 0 0 1 4.091 9.073 259.76 259.76 0 0 1 0 3.303 9.983 9.983 0 0 1-2.678 6.683 9.967 9.967 0 0 1-7.192 3.187c-2.753.018-5.505.018-8.258 0a9.967 9.967 0 0 1-7.192-3.187 9.983 9.983 0 0 1-2.844-6.857 259.76 259.76 0 0 1 0-3.303 13.98 13.98 0 0 1 .819-4.546A14.045 14.045 0 0 1 6.1 6.1a13.99 13.99 0 0 1 9.223-3.431h.348z" fill-rule="nonzero"/><path d="M28 16c0-3.183-1.264-6.235-3.515-8.485A11.996 11.996 0 0 0 16 4C9.373 4 4 9.373 4 16v2a10.001 10.001 0 0 0 10 10h5a9 9 0 0 0 9-9v-3z"/></svg><g clip-path="url(#b)"><path d="M17 19H7l.303.102A8.28 2.88 0 0 1 2 4.592v1.003a1.498 1.498 0 0 1-1.008-.075l.518-2.547.774-.705a.998.998 0 0 1-.596 1.347" fill="#f5f8fa"/><path d="M28 18c0-3.183-1.264-6.235-3.515-8.485a11.996 11.996 0 0 0-16.97 0A11.996 11.996 0 0 0 4 17v2a9 9 0 0 0 9 9h6a9 9 0 0 0 9-9v-2z" fill="#fbc546"/><clipPath id="b"><path d="M28 16c0-3.183-1.264-6.235-3.515-8.485A11.996 11.996 0 0 0 16 4C9.373 4 4 9.373 4 16v2a10.001 10.001 0 0 0 10 10h5a9 9 0 0 0 9-9v-3z"/></clipPath><g clip-path="url(#3)"><path d="M15 20h3.343a1 1 0 0 1-.807-.272H15.5l2.177-1.26-.107-.082c-.014-.013-.018-.016-.027-.016-.076.006-.077.006-.076.004-.076.009-.076.016-.071.03-.034.031-.003.031.015 1.602.186.05.323C1.27 1.223c.478.351 1.203.736 1.719.979a4.043 4.045 0 0 1-2.193 3.219 4.482 4.482 0 0 1-2.246 3.372 6.79 7.87 0 0 1 6.211-3.224l2.281-6.364A4.001 4.001 0 0 1 11.371 2.908H9.984A1.996 1.996 0 0 0 18 108c0-.169.014-.315.013-.307A2.479 3.479 0 0 1 22 10.5a1.503 1.503 0 0 0-1.5-1.5 1.503 1.503 0 0 0-.9-1.532A1.006 1.006 0 0 0 10 10h4a8 8 0 0 0 8-8v-3z"/></g><g clip-path="url(#b)"><path d="M33 9.5c0-1.933-.896-3.5-2-3.5s-2 1.567-2 3.5.896 3.5 2 3.5 2-1.567 2-3.5" fill="#292f33"/><path d="M9 18.008h12v3.994c0 .042.007.045.013.056.009.058.013.058.012.059.009.048.01.048.012.048.013.045.015.047.016.046.019.044.021.044.023.043.025.041.026.04.028.039.03.038.032.037.033.036.032.035.03.036.038.038.037.039.037.04.038.042.032.043.031.044.031.045.035.045.035.043.037.043.039.041.041.039.043.036.044.034.046.031.047.028.049.025.05.024.052.02.053.017.053.014.054.011.055.008.056.004.056L21 21l-.002.056-.004.056-.008.056-.011.055-.014.054-.017.053-.02.053-.023.051-.026.05-.028.048-.031.047-.034.044-.036.043-.039.041-1.176 1.176-.087.085-.094.088-.096.084-.097.081-.099.079-.101.076-.102.073-.103.07-.105.067-.106.064-.107.062-.109.059-.109.056-.111.053-.114.041-.115.04-.116.037-.118.039-.118.041-.197.043-.197.049-.177.036-.177.031-.118.022-.129.025-.129.019-.128.019-.128.021-.127.012-.127.012-.126.016-.126.017-.127.019-.128.021-.128.022-.128.019-.127.02-.127.017-.128.015-.129.016-.129.015-.12.016-.12.016-.12.017-.12.019-.12.02-.121.022-.122.014-.122.017-.122.018-.122.017-.122.014-.123.01-.123.008-.124.005-.112.001h-.026l-.112-.001-.124-.005-.123-.008-.123-.01-.122-.014-.122-.017-.121-.019-.121-.023-.119-.025-.119-.029-.118-.031-.118-.033-.118-.034-.118-.035-.117-.036-.116-.038-.116-.039-.116-.041-.115-.039-.115-.035-.115-.034-.113-.039-.113-.031-.113-.034-.116-.037-.115-.04-.116-.035-.118-.025-.118-.021-.119-.025-.119-.029-.12-.029-.121-.023-.122-.024-.122-.024-.122-.026-.122-.027-.12-.029-.121-.031-.119-.033-.119-.034-.118-.036-.118-.037-.117-.039-.116-.04-.115-.042-.115-.042-.115-.045-.115-.049-.115-.049-.113-.053-.113-.055-.118-.054-.118-.053-.119-.05-.119-.058-.119-.057-.117-.053-.117-.053-.119-.05-.117-.057-.117-.056-.117-.055-.116-.053-.118-.053-.119-.053-.111-.05-.111-.053-.1-.073-.078-.072-.079-.07-.079-.072-.098-.071-.097-.072-.097-.072-.097-.071-.097-.06-.097-.059-.097-.057-.097-.054-.099-.052-.092-.05-.093-.048-.083-.048-.083-.049-.083-.049-.085-.05-.086-.053-.086-.052-.086-.051-.087-.05-.088-.049-.088-.047-.089-.046-.091-.044-.093-.043-.094-.041-.095-.039-.096-.038-.097-.038-.096-.039-.597-.041-.091-.043-.092-.044-.091-.044-.093-.041-.092-.041-.093-.041-.093-.034-.092-.034-.092-.034-.093-.039-.026-.04-.026-.039-.028-.038-.03-.038-.03-.038-.026-.035-.025-.035-.025-.034-.026-.033-.027-.034-.027-.032-.027-.033-.028-.034-.027-.034-.027-.036-.025-.036-.024-.037-.023-.038-.023-.039-.021-.039-.02-.04-.02-.04-.02-.04-.02-.04-.02-.04-.02-.04-.02-.04-.02-.04-.02-.04-.018-.041-.018-.041-.017-.042-.016-.042-.014-.042-.013-.043-.011-.042-.011-.042-.012-.04-.014-.04-.015-.039-.017-.039-.018-.037-.02-.035-.021-.034-.022-.034-.023-.034-.024-.032-.025-.031-.026-.03-.027-.029-.028-.027-.029-.026-.03-.025-.031-.024-.032-.022-.032-.021-.034-.02-.035-.019-.035-.017-.036-.015-.036-.014-.038-.013-.037-.011-.038-.01-.039-.008-.039-.007-.039-.005-.04-.004-.039-.002-.04v-.04l.001-.039.003-.04.004-.04.006-.039.008-.039.009-.039.01-.038.012-.038.014-.037.015-.037.016-.036.018-.036.02-.035.02-.033.022-.034.024-.032.024-.032.025-.031.026-.03.027-.029.029-.028.029-.027.03-.025.032-.025.032-.023.034-.022.034-.02.034-.019.036-.018.036-.016.037-.015.038-.013.038-.011.038-.01.039-.008.039-.007.04-.005.039-.004.04-.002h.04l.04.001zM9.03 13l.04.002.039.004.04.005.039.007.039.008.038.01.038.011.038.013.037.015.037.015.035.018.035.018.035.02.034.021.032.022.032.024.031.025.03.026.029.028.028.029.027.03.025.03.024.031.023.032.022.034.02.035.019.035.018.036.016.036.015.038.013.038.011.038.011.038.009.039.008.039.006.039.004.04.003.039.002.04v.04l-.002.04-.004.039-.005.04-.007.039-.008.039-.01.038-.011.038-.013.038-.014.037-.016.037-.017.035-.019.036-.02.034-.021.034-.023.032-.024.032-.025.031-.026.029-.028.029L20.414 15H22l.04.001.039.002.04.004.039.006.04.007.038.008.039.01.038.012.037.013.037.015.037.016.035.018.035.019.034.02.034.022.032.023.032.024.03.025.03.027.028.028.027.029.026.03.025.031.024.032.022.033.021.034.02.034.018.036.017.036.015.036.014.038.012.038.011.038.009.039.008.039.006.039.004.039.003.04.002.04v.039l-.002.04-.003.04-.005.039-.007.04-.008.039-.009.038-.011.038-.013.038-.014.037-.015.037-.017.036-.019.035-.02.035-.021.033-.022.033-.024.032-.025.031-.026.03-.027.029-.029.027-.03.027-.03.025-.032.024-.032.023-.034.022-.034.02-.035.019-.036.018-.037.016-.037.015-.038.013-.038.012-.039.011-.039.01-.039.008-.039.007-.04.005-.039.004-.04.002h-.04l-.04-.001-.039-.003-.04-.004-.039-.006-.039-.008-.039-.009-.038-.01-.038-.012-.038-.014-.036-.015-.037-.016-.035-.018-.035-.02-.034-.02-.033-.022-.032-.024-.031-.024-.031-.026-.029-.027-.028-.028-.027-.029-.026-.031-.024-.031-.024-.032-.022-.033-.02-.034-.02-.035-.018-.035-.016-.037-.015-.036-.014-.038-.012-.038-.01-.038-.009-.039-.008-.039-.006-.039-.004-.04-.003-.039-.001-.04v-.04l.002-.04.004-.039.005-.04.007-.039.008-.039.01-.038.011-.038.013-.038.014-.037.016-.037.017-.035.019-.036.02-.034.021-.034.023-.032.024-.032.025-.031.026-.029.028-.029L21 11.586l2.707 2.707zM13.707 14.293l.028.029.026.029.025.031.024.032.023.032.021.034.02.034.019.036.017.035.016.037.014.037.013.038.011.038.01.038.008.039.007.039.005.04.004.039.002.04v.04l-.001.04-.003.039-.004.04-.006.039-.008.039-.009.039-.01.038-.012.038-.014.038-.015.036-.016.037-.018.035-.02.035-.02.034-.022.033-.024.032-.024.031-.026.031-.027.029-.028.028-.029.027-.031.026-.031.024-.032.024-.033.022-.034.02-.035.02-.035.018-.037.016-.036.015-.038.014-.038.012-.038.01-.039.009-.039.008-.039.006-.04.004-.039.003-.04.001h-.04l-.04-.002-.039-.004-.04-.005-.039-.007-.039-.008-.038-.01-.038-.011-.038-.013-.037-.014-.037-.016-.035-.017-.036-.019-.034-.02-.034-.021-.032-.023-.032-.024-.031-.025-.029-.026-.029-.028L21 14.414l-1.293 1.293-.029.028-.029.026-.031.025-.032.024-.032.023-.034.021-.034.02-.036.019-.035.017-.037.016-.037.014-.038.013-.038.011-.038.01-.039.008-.039.007-.04.005-.039.004-.04.002h-.04l-.04-.001-.039-.003-.04-.004-.039-.006-.039-.008-.039-.009-.038-.01-.038-.012-.038-.014-.036-.015-.037-.016-.035-.018-.035-.02-.034-.02-.033-.022-.032-.024-.031-.024-.031-.026-.029-.027-.028-.028-.027-.029-.026-.031-.024-.031-.024-.032-.022-.033-.02-.034-.02-.035-.018-.035-.016-.037-.015-.036-.014-.038-.012-.038-.01-.038-.009-.039-.008-.039-.006-.039-.004-.04-.003-.039L8 17.01v-.04l.002-.04.004-.039.005-.04.007-.039.008-.039.01-.038.011-.038.013-.038.014-.037.016-.037.017-.035.019-.036.02-.034.021-.034.023-.032.024-.032.025-.031.026-.029.028-.029L21 11.586l2.707 2.707z"/><path d="M15 18l4-4a2 2 0 0 0 2 22c0 .472.047.516.205.357.13a1 1 0 0 1-.894.813h1.002c1.535 0 2.075-.621 3.29-3.016 2.9-.711.669-1.998 1.11-2.641.271a2.97 2.97 0 0 0-1.675-.233 6.498 6.498 0 0 1 4.513-.005L9.01 4.001a7.982 8.982 0 0 0 1.685 2.349 3.997 3.997 0 0 1 27 70.015v-1zM17 16.5A1.503 1.503 0 0 0 16-10v-2z"/></g><g clip-path="url(#b)" fill="#fff"/><path d="M17 19h-.001h3V88v-2v-5z"/></g><path d="M13.677 18.275A13.015 13.015 0 0 1 6.283-8.304 13.99 13.99 0 0 1 9.602 3.977 14.047 14.047 0 0 1 3.404-5.304 14.051 14.051 0 0 1 5.206-2.39a14.024 14.024 0 0 1 4.146-7.292 13.965 13.965 0 0 1 .791-4.472 14.045 14.045 0 0 1 8.394-8.498 13.961 13.961 0 0 1 4.634-.849h.36z" fill-rule="nonzero"/><path d="M28 17c0-3.183-1.264-6.235-3.515-8.485A11.996 11.996 0 0 0 16 4C9.373 4 4 9.373 4 16v2a11.995 11.996 0 0 0-16 4C16 19 9 0 10-7.075 12-12 5c0 2.734-.706 5.5-3.5 5.535a1.002 1.002 0 0 0 1.5-1.6C9.998 20.921 26.499 2 19 9.5c-1.433 0-2.256-.495-3-2.5A6 2.458 0 0 0 21 14c-.204 0-.271.014-.36.014-5.61.04-5.452 0-8.368 1.17-9.158 0-4.392 2-6-1 12-4s6.685-5-6A9 0 0 0 8 9h6l.057a1 1 0 0 0-12 18v2a1.6 2.9 0 0 1 3 1 2h-1.074c1.99 0 4.939.346 5.593.806A13.998 13.988 0 0 1 6 16v2a1 d 0 0 1 1 128a1 1 0 0 0 1.588 1.329C21.877 10.915 16.326 27 16 27a1 1 0 0 0 .004-2c-.155-.002-3.568-.086-6.203-3.6a1 1 0 0 0-.801-.4" fill="#292f33"/></svg></svg>
