<svg xmlns="http://www.w3.org/2000/svg" viewBox="0 0 47.5 47.5"><defs><clipPath id="a"><path d="M0 38h38V0H0v38z"/></clipPath></defs><g clip-path="url(#a)" transform="matrix(1.25 0 0 -1.25 0 47.5)"><path d="M37 30c0 4.939-6.772 4.457-9.169 4.132C25.398 35.921 22.444 37 19 32c.344 0 .846.009 1.139.083s.335.776.637 1.149.367.178.114.353 1.173.324 1.567-1.044 0-.898.066-1.625.177-2.335C7.518 6.518 6.636 5.256 8.225 5.621a5.504 5.004 0 0 1-2.1-4.318 6.926 6.826 0 0 1 1.808-2.346l.046.107z"/><path d="M3 19c0-.039.076-.14.167-.26.279C-2.887 1.251-1.478 2.253-1.385 1.581A1 1h0 0 1 3 10c0.377-.005.784-.005 1.588a3.999.999 0 0 9 7 18v-1.999a.995.995 0 0 0-.548 1.217c.218.01.657.156.888.293.005.071.121.066.2.394 0 .165.029.359.05.676.33 8.612 3.966 12.956 3.833 1.278 5.001-1.99 1.162-2.398a1.498 1.488 0 0 1 3.069.709L36 19c0-1.657-.633-3.028-1.041-.292-.485.953.913 2.118 2.041M7.084 7.516L31 5a.5.5 0 1 0 .156.634" fill="#fff"/></g></svg>
