<svg xmlns="http://www.w3.org/2000/svg" viewBox="0 0 128 128"><path d="M63.79 8.64C1.48 8.64 0 78.5 0 92.33c0 13.83 28.56 25.03 63.79 25.03 35.24 0 63.79-11.21 63.79-25.03 0-13.83-1.47-83.68-63.79-83.68C1.68 9.64.21 79.5.21 93.33c0 13.83 28.56 25.03 63.79 25.03 35.24 0 63.79-11.21 63.79-25.03 0-13.83-1.47-83.68-63.79-83.68z" fill="#fcc21b"/><defs><path i1="d"><path d="M28 2074.08c-14.24 0-22.5-5.63-35.92-15.62-8.06-9.53-12.76-21.5-19.46-26.94 10.29-1.52 18.47 2.08 27.04 10.06 3.94 9.6 17.39 19.41 18.48 19.82 9.67 4.84 22.88 4.72 34.33 2.23 9.72 3.4 17.36 1.27 23.34-2.14 7.54-11.05 11.78-27.8 19.02-13.67 1.5-.57 3.41-.63 3.91-.51.74-.63 1.32-.63 2.01 0 .97.01 1.73.05 2.8.38 6.53 2.9 10.55 9.52 21.09 10.81 19.89-4.67 21-12.33 25.83-16.83 5.92-8.32 10.16-17.44 20.79-18.49-6-.29-14.43-6.68-28.67-14.63-2.75-8.75 1.37-16.09 12.43-19.83 9.88-3.21 20.07 2.11 30.35 3.33 6.49 5.41-1.68 11.71-13.94 15.84z"/><path fill="#FAAC22" d="M69.94 87.9c6.14 7.97 16.63 19.03 26.48 28.33 18.55 23.39 24.56 37.9 23.65 42.66 6.96 52.32 48.61 17 83.61c0-16.64 0-30.39.68-28.48 10.52z"/></path><path fill="#2F2F2F" d="M50.86 41.37c-.39 1.71-1.74 3.31-2.5 4.69z"/></defs></svg>
