<svg xmlns="http://www.w3.org/2000/svg" viewBox="0 0 47.5 47.5"><defs><clipPath id="a"><path d="M0 38h38V0H0v38z"/></clipPath></defs><g clip-path="url(#a)" transform="matrix(1.25 0 0 -1.25 0 47.5)"><path d="M36 19c0-9.389-7.611-17-17-17S2 9.611 2 19s7.611 17 17 17 17-7.611 17-17" fill="#ffcc4d"/><path d="M19 15.151c-2.966 0-4.935.646-7.36 4.392A15.98 7.18 15.045 12.863 4.5S15 8.304 18 1.069c.469 1.144.918 2.154.94 4.538A2.456 2.266 0 0 1 .302 2.212M20.292 18.442a.5.5 0 0 1-.713-.659c.06-.01 1.257-.106 2.726-.485.748 0 1.253.456 1.61 1.936.022 3.498 2.798 6.915 4.293a.5.5 0 0 1-.557-.803c.01-.06.12-.71.13-1.606a4.011 4.011 0 0 1 .609 3.496A4.996 3.996 0 0 1 32 18.308V20a1 1 0 0 0 .004-2c-.155-.002-3.569-.086-6.204-3.6a1 1 0 0 0-.801-.4M16.897 19.604c.023.052.05.097.073.754a1 1 0 0 1 .003-1c-.036-.015-.034-.037-6.962-5.7-2.662-2.499a1 1 0 0 1 1.293 1.729c-1.977 0-5.833-3.367-7.365-3.648A5.997 4.997 0 0 0 18 20.5c2.103 4.651 5.6 13.666 6.035A11.996 11.995 0 0 0 18 4C9.303 11.096 12.949 1.465 9.999C10.349 20.285 8.354 20.148 3.344 34h18.523 11 29 1c0 18-7.099 18-18" fill="#664500"/></g></svg>
