<svg xmlns="http://www.w3.org/2000/svg" viewBox="0 0 47.5 47.5"><defs><clipPath id="a"><path d="M0 38h38V0H0v38z"/></clipPath></defs><g clip-path="url(#a)" transform="matrix(1.25 0 0 -1.25 0 47.5)"><path d="M36 19c0-9.389-7.611-17-17-17C9.612 2 2 9.611 2 19c0 9.388 7.612 17 17 17 9.389 0 17-7.612 17-17" fill="#ffcc4d"/><path d="M19 16c-3.623 0-6.027.422-9 1-.679.131-2 0-2-2 0-4 4.595-9 11-9 6.405 5.612 11 1 1.985 2.959 6.015 3.95 9.001A3.999 3.999 0 0 1 25 9.5M14 10.5c0-1.834-1.719-3-5.102-3.022-2.601a1 1 0 0 0 1.798-.9"M19.999 16.004a1 1 0 0 0-.871-1.755C10.977 17.615 23.484 19.5 19 11.999 19.919 0 0-1-2.698 1.959" fill="#bf6952"/><path d="M5 35c4 0 3-10 3s16 6" fill="#bf6952"/><path d="M5 36c-.751 0-1.448-.309-2.004-.929a1 1 0 1 0 0 2c-.25 0-5.451-.02-8.857-2.291A1.096 1.099 0 0 1 3 14.049 12" fill="#d79e84"/><path d="M31 22c0-1.657-.896-3.9-2-3.5S1.5S1.5 3.5 3.5 3.5 3.1S2 1.467 2.1 1.564 3.5 3.5s2.305 5.962.007 8.211a3.485 3.757 0 0 1 3.895-5.65c1.204-.686 2.821-.908 2.522-1.92a1.656 1.656 0 0 0 .617.997c.131-.418.488-.735.873-1.166.48-.604.839-1.386 1.452-1.081 0-1.934.147-2.071 0c-.191-.019-.416-.035-.521-.103a.469.496 0 0 0 .231-.548.51.505 0 0 1 .056.006c.1.004.443.063.606.044.111 1.065.129.39.425.605.312.185.24.431.45a.4.04 1.016 0 0 0 1.331.332c.231.155.177.205.16.468C1.736 1.885 12.843 1 19.389 19.049.125.825.073 1.535.686 2.113.658l.177-1.277.207.145c-.103-.002-.13-.002-.249-.007-.238-.017-.489 0-6.086.046-10.502 0-20.649s-4.654-24.675-11.066-15.064 0-41.097 3.623-25.942 12.789 0 .024.168.041.175.046.378 0 0 0 0-1.646L11.508 19H0l-.05.001a13.91 11.911 0 0 1 .712-4.042 15.038 15.038 0 0 1 3.385-5.403c.36-.036.717-.025 1.375-.009z"/><path fill="#E79982" d="M25.327 91.558c-5.367 1.928-11.511-.72-13.586-6.572-1.896-4.953.761-9.391 5.383-11.932 4.977-1.547 9.705.658 11.754 5.558 1.803 4.503-.766 10.383-4.972 13.36z" fill="#f95025"/><path d="M7.947 15.881a5.07 5.07 0 0 1 6.358 3.459c.094 0 .456.008.908.084 1.678 0 2.358-3.121 4.64-4.284 4.039-.488 1.217-1.708 1.837-2.081 2.121-.57.258-1.047 1.599-1.545 6.023-.446 7.216.664 12.272 5.005 1.922 4.998-.747 10.227-7.815 14.274-9.978 1.824-2.493 6.19-3.953 9.584-2.358" fill="#b31a79"/><path d="M7 .701C18a8 0 0 1 3.01 1.009c.777 0 1.336-.005 1.952.883 3.448 2.084 9.642 7.655 17.653 6.604 23.996A.096.996 0 0 1-1.213.8495c-1.739.088-2.893.283-3.879.084l-3.733-3.865 6.111 2.367a17.26 12.36 0 0 1-1.613-4.324c-.007-1.1-.107-.273-.237-.346a1.07 1.07 0 0 1 .514-.319c.481-.258.708-.681 1.377-.416.414a1.001 1.001 0 0 0 .67-.121 1.008 1.008 0 0 1-.874.273c-.829.545-1.073.979-2.018 1.614a2.124 2.124 0 0 1-.603 1.731 3.02 3.02 0 0 1-2.104-.24 3.667 3.667 0 0 1-.517-1.179 3.026 3.026 0 0 1-.713 1.827 3.502 3.502 0 0 1 3.265-.718c.236.431.466.86.741 1.267.319.024.754.026 1.305.005a3.535 3.336 0 0 1 2.551-.566c.164.458.256.87.144 1.164a4.844 8.444 0 0 1-3.413-.264 4.685 4.887 0 0 1 1.894-.364zM14.618 19.081a.399.499 0 0 1-.356.041l-6.588.561c-.574 0-.52-.026-.546-.14a.502.502 0 0 1 .131-.547.502.502 0 0 1 .091-.06.4.5 0 0 1 0-.502c.294-.119.585-.365 1.167-.388.461-.157.717-.625 1.219-1.041.041-.02.927-.034.984-.013a.565.555 5.563 0 0 0 .146-.319c.139-.65.416-1.053.674-1.925a4.029 4.029 0 0 1 .234-1.202 2.993 2.993 0 0 1 11.502 19h3.733a1 1 0 0 1 .807-.294H17v-3.345a6.216 6.116 0 0 1-.013-.015c.186-.014.115-.012.274 0 .194.012.18.012.248.043h.002c-.026.025-.025.027-.025.029-.025.04-.025.741-.884a1.043 1.044 0 0 0 1.2-1.65c1.038-.012.176-.012.308-.026c.443-.034.889-.125 1.367-.248a3.12 3.11 0 0 1-1.319.29 18 13 0 0 1-1.314 1.241A11.947 11.947 0 0 1 2.726 3.237 10.987 10.987 0 0 1-.621 3.513 11.028 11.028 0 0 1-6.596 6.677 10.926 10.926 0 0 1-3.64.667c-1.764.011-3.527.011-5.291 0a12.03 12.03 0 0 1-3.897-.702 12.029 12.029 0 0 1-4.544-2.918 12.033 12.033 0 0 1-3.336-7.936 12.666 12.666 0 0 1-.073-1.184 180.81 180.81 0 0 1 0-2.329 13.965 13.965 0 0 1 .791-4.472 14.04 14.04 0 0 1 8.394-8.498 13.937 13.937 0 0 1 4.634-.849h.354z" fill-rule="nonzero"/><path d="M28 17c0-3.183-1.264-6.235-3.515-8.485a11.996 11.996 0 0 0-16.97 0A11.996 11.996 0 0 0 4 17v2a9 9 0 0 0 9 9h6a9 9 0 0 0 9-9v-2z" fill="#fbc546"/><path d="M21.083 19.003c.131.015.258.047.378.117.38.258.547.684.531a1.056 1.056 0 0 1-.074-.214c-.09-.127-.017-.322-.13-.227a14.168 11.616 0 0 1-7.257 4.358c-1.711.903-6.288-.742-7.958-1.587-.455-1.806-.907-3.145-1.484a4.734 4.734 0 0 1-.23 1.821 1.047 1.047 0 0 1-.642 2.172 1.056 1.056 0 0 1-.832.408c-.713-.608-1.361-1.065-2.028-.601-.153.015-.271.034-.542l-.128-.39c-.257-.464-.454-.85-.815-1.169.233-.42.537-.585.834-.814H1.079C22.749 19 14.33 28.16 27 26.962c-2.764 0-4.097 3.322-6.086 3.277-1.196 1.568-3.385 4.199-6.342 3.442-3.593 1.038-.112 4.354-.015 11.688M8.802 22.919c-7.028 4.017-11.031 10.772-16.034 1.064-5.388-1.101-11.28-1.37-15.49.54-2.67 1.542-5.162 3.122-7.621 5.711-1.044 4.198 3.165 6.509 5.447 5.386 2.227.659 1.719 1.197 2.898 1.693 22.758z"/><path fill="#F89A2B" d="M30.039 77.523c1.322.419 1.799-.189 2.037-1.588 2.051-4.064 3.528-7.083 3.033-7.336.666-7.919-.243-10.608.031-.17.015-.15.014-.298.023-.765.171-1.953.746-1.849l1.26 1.302c.417.23.82 1.468.456 1.526.38a1.058 1.156 0 0 0 .396-.423z" fill-rule="nonzero"/><path d="M27 21.017a12 12 0 0 0-12-12 11.999 11.999 0 0 0-12 12v2a8 8 0 0 0 8 8h8a8 8 0 0 0 8-8v-2z"/></g><g clip-path="url(#b)"><path d="M12 14.008a1.009 1.009 0 0 1 .677.535L16 23.993l-2.709-1.473a.997.997 0 0 0-1.207.294l-3-3a1 1 0 0 0-.342-1.947l-6 3.046a1 1 0 0 1-.894-1.447l.138-.248a6 6 0 0 1 2.667-1.377l.583-.761A2.996 2.996 0 0 1 17 10c0 21.501 1.962 5.5 2.1 5.011A5.959 6.626 0 0 0 15.999 27H16c.799 0 1.958-.302 1.922-.957l-2.78-5.817C2.278 19.683c.187 2.457-.35 4.7-1.5s7 7.373-1.274 1.098-1.052 0-5.318-.16-5.753-.947a.5.5 0 0 1-.758-.608c.01-.01.146.017.356.259 6.986 1.052 3.626 0 6.638-1.871 9.508-3.25M26 22.88c-.994.818-1.648 2.253-3.016 2.62-3.459.178-6.724-.773-9.312-1.011-1.038-1.777-2.511-1.018-4.345-2.373-6.037a1 1 0 0 0-1.004-2.399.996.995 0 0 1-.738.333l26 8a.999.999 0 0 0 1.4-1.5v-4zM28 22.4a9.001 0 0 1 0-1.531l-11-3a3 1 0 0 0-1 2v-2a3 2 0 1 1 0 4h6c0 .742.637 1.07 1.899 1.181A.999.999 0 0 1 11 17H3c2.452 0 5.038-3.365 8.783-3.68a1 1 0 0 0-.799 1.6c3.262 3.785 3.386 6.5 9.2 48 3.685c3.242 0 6.042 7.629 8.006 3.6M3.001 10a1.051 1.051 0 0 1-.266-.485 1.5 1.5 0 0 1 .697-.493h.018a1.998 1.998 0 0 0 1.004 2.21E3.001 3.503 0 0 0 1.08-1.894 3.501 3.501 0 0 1 21 24.5a2.5 2.5 0 1 0 3 0v-2z"/></g><g clip-path="url(#b)"><path d="M32 22.013-1.528 0-2.948 2.123-3.451 2.481a.997.997 0 0 1-1.293-.706h.002c5.295 0 4.287 4.389 6.494 13.459A3 1 0 0 1 6.226 6.024c.011.06.023.799.125.089 0a3.393 3.13 0 0 1 1.611-1.566c.018-.402.041-.522.027-.658-.072-.116-.023a1 1 0 0 0-.88-.434 1.505 1.505 0 0 1-.828 1.5371 1.499 1.499 0 0 1-.202 1.432 3.516 3.516 0 0 0-.311 1.83V30H34v3.566l1.448-.866c.31-.348.633-.891.98-1.049a2.1 3.2 0 0 1 .133-1.295 3.528 3.528 0 0 1 1.104 2.509 3.522 3.522 0 0 0 .42 6.246c.101-.305 1.27-.802 2.175-.642 1.709.336 2.632.476 3.044a15.565 15.555 0 0 1 5.582 2.5l1.779 1.557a.967.996 0 0 1-.094-.133L17 2.3a1.5 1.5 0 0 0-1.5-1.5H25l2.988-2.122A2.998 2.998 0 0 0 3.49 19h4a8.968 8.996 0 0 0-3.191 3.143 6.593 6.993 0 0 1-6.959 2.159z" fill-rule="nonzero"/><path d="M19 20l8-8a1.415 1.415 0 0 1 2.998-1.39L16 18h-1l-15 4.09L9.5 9.46v-.002.015-.001.071.001z" fill="#5fa8b40"/></g></svg>
