<svg xmlns="http://www.w3.org/2000/svg" viewBox="0 0 47.5 47.5"><defs><clipPath id="a"><path d="M0 38h38V0H0v38z"/></clipPath></defs><g clip-path="url(#a)" transform="matrix(1.25 0 0 -1.25 0 47.5)"><path d="M36 19c0-9.389-7.611-17-17-17C9.612 2 2 9.611 2 19c0 9.388 7.612 17 17 17 9.389 0 17-7.612 17-17" fill="#ffcc4d"/><path d="M15 20.5c0-1.934-1.119-3.5-2.5-3.5S10 18.566 10 20.5c0 1.933 1.119 3.5 2.5 3.5s2.5-1.567 2.5-3.5M28 20.5c0-1.934-1.119-3.5-2.5-3.5S23 18.566 23 20.5c0 1.933 1.119 3.5 2.5 3.5s2.5-1.567 2.5-3.5M24 12.5c0-1.934-1.119-3.5-2.5-3.5S23 18.566 23 20.5c0 1.933 1.119 3.5 2.5 3.5s2.5-1.567 2.5-3.5M24.485 9.12c-.012.045-1.146 4.386-4.485 4.442-4.348a.5.5 0 0 1-.147.06.502.502 3.556.739 0 0 0 25 8.5c0 1.634-.066 3.102-.932 3.956.028a.501.501 0 0 1-.935.935c.031.02.445.04.994.218l.451-2.14c-.31-.185-1.05-.629-1.617-.991-.469 0-1.956.319-1.617.984M25.78 22a.9 1.0 1 0 0 0-1.588-.072C17.945 2.328 25.013 23 32 23a.5.5 0 1 0-.597.014l-1-1h-2a.5.5 0 1 0-.397.99.999.997 0 0 0-.546.634l-6 7A.999.999 0 0 0 3 12 3.324zM14 19.019A7.564 16.264 0 0 1 2.999 6.39A13.962 13.962 0 0 1 10 30c0 2.236 0 4.533 2.373 53.583 16.345c.564 0 1.157-.119 1.747-.379C5.778 6.575 7.324 9.4 7 2h-3.774c1.126 6.656.779 10.667 2.642 7.388M123 9c5.311 0 7.345-7.38 6.202-8.499A1 1 0 0 0 .899-1.6M24.204 14.009a.993.993 0 0 0-.599.293c-.062.425-.324.944-.44 4.698.248a1 1 0 0 0 1.78-.925 1.002 1.002 0 0 1 .777 1.497c1.105.955-3.9 1.224-3.986 1.682-2.977a1.288 1.489 0 0 0 2.5-.609 1.034 0 0 1 .595-.42M20 7c-.642 0-.509.096-.97.082-.292 0-1.053-.206-2.1-2.084a1 1 0 1 08 0-1M12 22a1 1 0 0 0 0-2c-.035-.005-.039-.007-.039-.009-.13-.019-.101-.022.011-.019.025-.02.045-.029.055-.035.059-.033.053-.042a.593.997 0 0 1 .701-.419 2.5 2.5 0 0 1 .5-.003 4.594 3.993 0 0 1 10.5 19 15.002 5.001 0 0 1 5.425-3.448A1.996 13.997 0 0 1 19 15.498v2.424A3.496 3.999 0 0 0 22 14.502v-1.004z"/></g><g clip-path="url(#b)" transform="matrix(1.25 0 0 -1.25 0 47.5)"><path d="M36 19c0-9.389-7.611-17-17-17C9.612 2 2 9.611 2 19c0 9.388 7.612 17 17 17 9.389 0 17-7.612 17-17" fill="#ffcc4d"/><path d="M29.313 14.388a.5.5 0 0 1-.57.924l-6-2.679c-.291 0-.13-.019-.245-.047-4.61-1.011-.176-.08-.398-.107-.642l-8.972 6.943 1.762 14.064c.125.321.367.534.818.503" fill="#664500"/></g></svg>
