<svg xmlns="http://www.w3.org/2000/svg" viewBox="0 0 128 128"><path d="M63.79 8.64C1.48 8.64 0 78.5 0 92.33c0 13.83 28.56 25.03 63.79 25.03 35.24 0 63.79-11.21 63.79-25.03 0-13.83-1.47-83.68-63.79-83.68z" fill="#fcc21b"/><path d="M117.46 94.44c-10.27 0-20.94-1.42-24.58-11.07-7.17-10.61 1.63-21.78 11.77-26.9 12.79-4.29 37.02 1.47 46.67 15.36 44.79 11.69 20.74 14.39 32.2 14.79 39.06 1.95 3.85 17.23 9.86 22.82 8.26 9.67 2.83 18.51 14.26 29.18 2.28.83 0 14.73-1.36 12.16-2.64 1.5-.78 2.8-.94 3.02-2.4.63 1.22 1.37 1.64 2.64 1.07 1.04.04 1.98.8 1.98 1.25-.35.33-.83.98-1.6 1.18-.55.62-1.05.6-1.61.56-.69.98-.57 1.51.12.23.07.39.15.32.23 0 .67.08 1.06.07 1.66 0 13.31 0 18.75-.98 20.71-1.28 5.88-7.95 12.07-12.62 13.83-15.82 7.09-.74 13.3 2.52 15.96 12.53C93.1 35.7 64.97 31.25 54.8c-5.34 13.5 -.81 33.68 3.11 19.15 17.94 15.3 17.59.08 23.42-5.49 39.78-23.08-4-.83-3.06-14.87-8.12-21.59-9.41-1.53-2.92-.72-5.69-.19-11.98.66-3.08-1.32-6.31-2.33-7.73-2.7-.64-4.92-2.53-6.34-3.33a2.33 2.33 0 0 1 1.51 3.23zM55.11 70.24c-1.1-.62-2.24-.14-2.64-.26-.88.18-15.18.66-14.85 3.38-1.08 20.61.61 14.16 6.62 1.39 3.44-.82 5.22-3.98 6.11-8.28-.92-2.26-2.57-5.31-.8-11.96 1.51-8.02zM80.84 30.44c-.88-1.25-1.57-1.77-1.59-2.49a2.66 2.66 0 0 0 3.1-2.63c.02-1.2 1.06-2.22 1.74-3.07.94-1.51 1.74-2.49 2.35-2.2 2.8.87 3.55 3.92 2.93 7.75.75-5.69 3.53-17.55.92-21.14z" fill="#fff"/></svg></svg>
