<svg xmlns="http://www.w3.org/2000/svg" viewBox="0 0 47.5 47.5"><defs><clipPath id="a"><path d="M0 38h38V0H0v38z"/></clipPath></defs><g clip-path="url(#a)" transform="matrix(1.25 0 0 -1.25 0 47.5)"><path d="M36 19c0-9.389-7.611-17-17-17C9.612 2 2 9.611 2 19c0 9.388 7.612 17 17 17 9.389 0 17-7.612 17-17" fill="#fdcb58"/><path d="M26.717 19.378c-.061.03-6.159-2.77-9.165-4.29-2.177 0-4.359 1.02-4.762 4.098-.906 21.359 1.424 23.999 10.342 30.74 7.025 7.021 1.081 15.653 1.89 25.095 6.502 5.205 10.849 15.559 60.205 22.685c-2.091 4.895-2.026 5.952-5.304.521-3.516 2.343-5.207 3.319-3.507.556-4.608.863-6.863 3.241-7.026 7.536-2.231 1.244-.05.488.145.664.305 3.109 3.345 7.411 3.703 10.486-.563 1.996-1.952 3.377-1.319 6.574 0 .578.106 1.052.229 1.507" fill="#ffcc4"/><path d="M19.617 15.184c-.069.031-1.515 2.223-4.416 2.423-2.926 1.005-6.452.272-8.429 1.15-2.737 0-5.03-.422-7.382-2.638-.836-.097-.63-4.002-1.871-4.678.545-.497 1.557-1.501 2.018-.978a4.525 5.025 0 0 1 1.867-2.36c.42-.438.805-.835 1.344-1.02l4.66-1.14.694-.895 1.539c2.828-.614 4.757-1.302 5.73-4.63.276-.672.07-1.254-.119-2.2.517z"/><path d="M39.035 18.714a3.47 3.47 0 0 1-3.16.404c-.979-.558-1.628-1.703-2.373-1.71-1.346.152-.723.348-1.16.915-2.135.586-3.56 9.779-2.317 5.338.689 1.01 1.402 2.507 1.919 4.216 2.058 5.313 4.987 8.374 5.406 5.486 0 9.669-5.357 8.386-15.619a1.5 1.5 0 0 1 .637-.842c.106-.013.23-.016.376-.026l.108-.005 1.182l.147-1.503z" fill="#d0e3e6"/><path d="M9.111 28.188a3.002 3.002 0 1 1 5.72-.181A2.001 2.001 0 0 1 17 29.965a13.933 13.933 0 0 1-7.889-1.777zM5.371 6.892A5.004 5.004 0 0 0 10 10a4.995 4.995 0 0 0 4-2h2.5a3.5 3.5 0 1 1 0 7h-.173l.025.021A3.001 3.001 0 1 0 16 21a3.001 3.001 0 0 0 2.781-1.875 2.999 2.999 0 0 1 19 18c0-.796-.018-.5-1.029-1.002-.02-.01-.231-.024-.207-.036-.133.117-1.367 4.448-1.741 3.356.026.642.162.631.12.931.173 1.169.616 1.623 1.075.14.05.185.024.318.025.149.084.234.165v2.007z" fill="#fff"/><path d="M8.016 11.107l.165.003.113.006.113.008.11.002.1.012.019.01.09.018.091.018.091.017.09.017.09.016.09.016.08.015.07.013.07.011.071.01.072.008.072.008.072.008.073.007.071.006.072.005.071.003.072.001.072-.001.072-.003.072-.004.071-.006.072-.008.071-.009.072-.011.071-.013.071-.015.071-.016.07-.018.07-.02.07-.021.07-.024.069-.024.068-.027.069-.029.067-.03.067-.031.067-.034.065-.035.065-.037.065-.039.064-.04.063-.042.062-.044.061-.046.06-.047.059-.049.058-.05.057-.052.056-.05.051-1.59 1.59-.035.033-.036.032-.038.03-.04.028-.041.026-.042.024-.043.022-.044.02-.045.017-.045.016-.047.013-.047.011-.048.009-.047.006-.049.004-.048.002-.048-.001-.048-.003-.049-.005-.047-.007-.048-.01-.046-.012-.046-.015-.046-.016-.044-.019-.044-.021-.043-.023-.041-.025-.04-.027-.039-.029-.037-.031-.036-.032-.034-.034-.032-.036-.031-.037-.029-.039-.027-.04-.025-.041-.023-.043-.021-.044-.019-.044-.016-.046-.015-.046-.012-.046-.01-.048-.007-.047-.005-.049-.003-.048-.001-.048.002-.048.004-.049.006-.047.009-.048.011-.047.013-.047.016-.045.017-.045.02-.044.022-.043.024-.042.026-.041.028-.04.03-.038.032-.036.033-.035 1.581-1.581.023-.024.018-.019.017-.019.016-.02.016-.02.015-.02.015-.02.014-.021.013-.02.013-.021.012-.022.011-.021.012-.022.01-.022.01-.022.009-.022.009-.023.008-.022.008-.024.007-.022.007-.024.006-.023.005-.023.005-.024.004-.024.004-.024.003-.024.003-.024.002-.024.001-.024.001-.024.001-.024.002-.024.003-.024.003-.024.004-.024.004-.023.005-.024.005-.023.006-.024.007-.023.008-.023.008-.022.009-.023.019-.022.021-.023.021-.023.021-.023.022-.023.024-.022.024-.023.026-.022.027-.021.028-.02.028-.02.029-.018.03-.018.03-.016.031-.016.031-.014.032-.013.033-.012.032-.011.034-.009.033-.009.034-.007.034-.007.034-.005.034-.003.035-.003.034-.002h.035l.034.001z"/><path d="M27 28.018a1.022 1.022 0 0 1-4.007.002A2.23 2.23 0 0 0 2.4-.033l.008-.001A1.11 1.291 0 0 1 10.502 16h-.002A1.498 1.498 0 0 0 20 6.772L27 26v-7 2h.719a3 4 0 0 1 2.362 6.644L7 .597v1a2 d 0 0 1 2 0v-1.314zM13 15.9a1.503 1.503 0 0 0-1.5-1.5 1.503 1.503 0 0 0-1.5 1.5v1a1.503 1.503 0 0 0 1.5 1.5 1.503 1.503 0 0 0 1.5-1.5v-2zM23 12.498c0-.827-.671-1.498-1.498-1.498h-.004c-.827 0-1.498.671-1.498 1.498v2.004c0 .827.671 1.498 1.498 1.498h.004c.827 0 1.498-.671 1.498-1.498v-2.004zM11.442 24.023a1 1 0 0 1-1.266-1.376A11.992 11.992 0 0 1 1.105-4.319c.094-.793.091-1.439.106-2.23 0a1.048 1.038 0 0 1-.702-.495 1.477 1.477 0 0 1-1.691-.195 3.013 3.013 0 0 1-3.081-.225 3.526 3.526 0 0 1-2.581-1.596 3.029 3.021 0 0 1-2.226-.595 3.031 3.03 0 0 1 3.049-.321c.098.005.077.003.175.038.407a12.127 11.221 0 0 1-.621 3.596 11.98 11.98 0 0 1-.304 1.105c-.035.178-.147 1.71-.48 2.596-.3.504 0a2.234.08 2.424 0 .962-.068 1.306-.052.728.038.503.027.125.022.161.031.317.024c-.154.009-.13.007-.24.026-.486.283-.99.241-1.166.568-1.649.156-.085.316-.034.453-.062.07-.062.17-.042.113c.016.126.021.183.022.181.021.285.025.388.104.978.51 1.414 1.045 1.095 2.015 1.625.02.112.027.141.085.415.105.122.023.234.09.14.103.12.15.16.268.234.358l.442.875-.303.523-.498.991-.658 1.542-.597.388-.685.819-.695 1.515-.304.229-.32.475-.684.562-.508a2.308 2.008 0 0 1 1.312.931 4.81 4.81 0 0 1-.06.216c-.929-2.005-3.009-1.694-4.297-2.071-1.064-2.316-.418-4.847-.661-5.875-.748-1.271-.914-1.881-1.742-1.681-5.052-.917-1.751.574-3.019.944-3.243 1.016-.775 2.044-.919 3.708.504 2.117.542 4.379 2.907 4.797 1.188 2.179 1.419 4.228 2.665 4.278 2.088 6.015 3.552 9.106 2.509 3.448-1.205 7.536-2.216 8.584-.746 1.573-.166 3.422.431 4.616 2.008.542 1.997 1.212 2.758.661 3.018 1.458 1.125 0 5.035-.029.843-.756 1.979-1.302 2.862-1.091 5.325-1.315 4.133.566 7.468 5.122 8.194 3.001 2.719-1.613 5.042-2.675 5.792-2.727a1.298 1.498 0 0 1 3.073-1.016zM9.317 23.058c.55.03 1.134.078 1.271.303.302.187.629.479.889.5a1.47 2.436 0 0 1 2.007 1.596 6.02 6.02 0 0 1 2.324 1.864c.641.709 1.342 1.507 1.607 2.05 1.055 1.005 4.621.184 6.464-3.318 1.047 1.095 2.085 3.125 2.895 7.485.585.588.99 1.26 1.332 2.204l.126-1.28z"/><path d="M13 19l4 6h18.014A7.513 16.903 0 0 0 2 19c0-6.487 0-11.544 0-30.085 1.585-50 32a1 1 0 0 0-.794 1.6l4.501 3.501 1.001.101a.492.492 0 0 1 .706.746M6.307 22.301a.997.997 0 0 1-1.207-.207.504.594 0 0 1 .594-.581.998.998 0 0 1-2.424 1.364.28.763 3.391 3.092 3.491 3.5 19 5.419 0 5.685-5.633 9.168-6.565 12.197a4.011 4.001 0 1 0-.687 1.442l-.093.021c.013-.018-.03-.018-.03-.01a.501.501 0 0 1-.5-.1M5.999 9.001a1.091 1.191 0 0 0 1.928 2.898c.081.01.163.046.117.04a16.987 16.987 0 0 1 2.996-5.948 14.038 14.038 0 0 1 5.08-8.023 13.99 13.99 0 0 1 10.5 4.132a14.048 14.048 0 0 1 30.85 36.028a14.024 14.024 0 0 1 8.14-3.673c.458-.045.918-.065 1.378-.068l.18.001z" fill-rule="nonzero"/><path d="M28 16c0-3.183-1.264-6.235-3.515-8.485A11.996 11.996 0 0 0 16 4C9.373 4 4 9.373 4 16v4a10.001 10.001 0 0 0 10 10h5a9 9 0 0 0 9-9v-3z"/></g><g clip-path="url(#b)"><path d="M12 9.5a1.5 1.5 0 0 0-3 0v3a1.5 1.5 0 0 0 3 0v-3zM18 18a2 2 0 1 0-4 0v2a2 2 0 1 0 4 0v-2z"/><path d="M23.27 20.014c.1.014.11.016.15.024.113.023.131.02.176.019.151.037.185.039.136h.06c.037.062.071.05.159.022.131.013.182.032.171.041.17.058.417.112.126.14.142.127.122.139.127.339.706h-.32c-.15.006-.431 1.29-.547 2.187-.643 1.255-.905 3.008-.974 5.211-.506 1.774.308 3.269 2.019 4.198.578 1.01 1.679 1.705 3.19 3.051 1.075 6.902 2.731 7.513.507.509.116.912.222 1.224z"/><path d="M23.67 23.073a2 2 0 0 0-2 0v-2a1 1 0 0 0-1-1M23 22a1 1 0 0 0 0 2h11a1 1 0 0 0 1-1z" fill="#6fe84d"/></g></svg>
