<svg xmlns="http://www.w3.org/2000/svg" viewBox="0 0 47.5 47.5"><defs><clipPath id="a"><path d="M0 38h38V0H0v38z"/></clipPath></defs><g clip-path="url(#a)" transform="matrix(1.25 0 0 -1.25 0 47.5)"><path d="M36 19c0-9.389-7.611-17-17-17C9.612 2 2 9.611 2 19c0 9.388 7.612 17 17 17 9.389 0 17-7.612 17-17" fill="#ffcc4d"/><path d="M20 17.5c-2.5 0-4.313-2.134-4.735-3.46a.5.5.5 0 0 1-.656.936M36.964 11.6c3.48 0 5.612-.028 8.008-.027v8.651A8.951 0.936a.501.501 0 0 1-.655.035c-.013.06-.029.112-.08 1.018-.002a8.658 8.658 0 0 0-4.547 1.139c-.898.348-1.898 1.891-2.706 2.44-2.759 0-4.037-1.322-6.206-.425A2 1 0 0 0 9 24.676v2 8h.004c0 1.104 1.346-2.063 3.346-3.035.001-.06.002-.09.001"/M24 9.01Va2.031 12.031 0 0 0 1.081-1.394H2.498a1.29 1.49 0 0 0 1.004-1.092c.146-.013.171-.016.371-.035l.005-.031A5.013 5.013 0 0 0 8.487 0H14a2.998 2.998 0 0 0 19 14.502v-1.004z"/></g></svg>
