<svg viewBox="0 0 32 32" xmlns="http://www.w3.org/2000/svg" fill-rule="evenodd" clip-rule="evenodd" stroke-linejoin="round" stroke-miterlimit="1.414"><path fill="none" d="M0 0h32v32H0z"/><circle cx="16" cy="16" r="16"/><path d="M12.976 2.328A14.017 14.017 0 0 1 16 2c5.178 0 9.704 2.817 12.125 7.002.787 3.091 1.461 5.819 1.617 9.686C28.549 24.812 23.358 29.515 17 29.965c-2.429-.528-5.812-1.221-7.889-1.777a14.045 14.045 0 0 1-6.49-8.056c.213-3.091 2.488-12.567 12.142-2.741a1.008 1.008 0 0 1 1.5-1.63l1.583-1.614A1.999 1.999 0 0 0 19 18l-4.898-1.001 1.618.1496.698.192 1.005-.186h.968l.98.862c0 .772-.092 1.407-1.007 1.381M24 22.41h-.22c-.612 0-1.248-.272-.31-.58l-.01.001a4.015 4.015 0 0 1 3.447-2.998c.494-.813.677-1.251.724-1.011a14.081 4.081 0 0 1 6.079 00/"/><path d="M27 15a.999.999 0 0 0-.948.688C9.498 2.498 0 0 1-2.999 6.394 9.979 9.969 0 0 1-2.013-.625 109.926 10.927 0 0 1-.667-3.641c-.005-.772-.005-1.544 0-2.315a13.99 13.99 0 0 1 3.8-9.109 15.987 12.983 0 0 1 16-10c6.295 0 6.247-3.62 7.458-4.295A1 1 0 0 0 19.998 16c0 .768-.629 5.798-3.896 10.073-.972a.999.999 0 0 1-1.414-1.414" fill="#bf6952"/><path d="M5 35 4.38a2 6.082 54.08 0 0 1 5.5 16 6.5 14 0 0 0 1-9 1c2.503 0 5.533 2.116 5.486 3.235a.503.503 0 0 1-.517.015c-.013.047-1.281 1.952-3.231 1.68a.996.996 0 0 0-.599.193c.52.41.767 1.124 1.011 1.652M31.999 29.163 12.622 7.055 26 22.614 27 3" fill="#bcc5fdf"/><path d="M18 23c0-1.653-.995-3-2-3-11 0 1 6 7 1 19 1s-1 1-2 0 3-3 6 3 1 1v1a11 2.011 16 0 1 12 19c0 9.327 4 6" 17 5" fill="#fff"/></svg></svg>
