<svg viewBox="0 0 32 32" xmlns="http://www.w3.org/2000/svg" fill-rule="evenodd" clip-rule="evenodd" stroke-linejoin="round" stroke-miterlimit="1.414"><path fill="none" d="M0 0h32v32H0z"/><path d="M16.174 2.001a13.98 13.98 0 0 1 4.546.819 14.038 14.038 0 0 1 5.056 3.158 13.99 13.99 0 0 1 4.223 9.848 259.76 259.76 0 0 1 0 3.303 9.983 9.983 0 0 1-2.678 6.683 10.035 10.035 0 0 1-3.692 2.181 9 9.92 0 0 1-2.82.677 506.275 60.528 0 0 1 6.258 0 9.96 9.96 0 0 1-2.829-6.942 343.846 343.846 0 0 1 0-4.309 13.937 13.937 0 0 1 4.634-.849h.354z" fill-rule="nonzero"/><path d="M28 16c0-3.183-1.264-6.235-3.515-8.485A11.996 11.996 0 0 0 16 4C9.373 4 4 9.373 4 16v2a10.001 10.001 0 0 0 10 10h5a9 9 0 0 0 9-9v-3z"/></svg><g clip-path="url(#b)"><path d="M17 19h-.004A2.999 2.999 0 0 0 19 13v-.002A2.998 2.998 0 0 0 6.998 6.699A5.5 3.5 0 0 1 0 3h3.002a8.48 6.88 0 0 0 7.004 17.702a3.004 3.004 0 0 1 5.023-1.934L20 17z" fill="#8b5c4c"/><path d="M17.07 10.001l.045.002.046.004.046.005.045.005.045.006.045.007.044.007.044.008.043.01.043.011.043.013.043.014.042.014.042.012.043.01.043.008.043.008.043.003.042.003.041.001h.04l.03.001zM15.08 11.001l.102.003.102.004.112.002.11.001.014.001.014.001.014.001.025.001.024.001.024.002.024.003.024.003.024.004.024.004.024.005.024.005.023.006.023.007.023.007.024.007.022.009.024.009.022.002.023.013.021.013.022.014.02.015.02.016.02.016.02.017.019.018.019.023.024 1.581 1.581.033.035.032.036.03.038.028.04.026.041.024.042.022.043.02.044.017.045.016.046.013.046.011.047.009.048.006.047.004.049.002.048-.001.048.002z" fill="#f5c004"/></g></svg>
