<svg xmlns="http://www.w3.org/2000/svg" viewBox="0 0 128 128"><path d="M.21 93.33c0 13.83 28.55 25.03 63.79 25.03 35.24 0 63.79-11.21 63.79-25.03 0-13.83-1.47-83.68-63.79-83.68z" fill="#fcc21b"/><path d="M63.91 98.82c-23.42 0-40.78-14.5-47.21-47.5S3.2 6 46.28 93.8 64 93.35s13.79 5.59 27.96 30.19c0 13.68-8.4 21.73-12.86 25.03-15.05 15.31-4.82 31.74 1.45 43.37 11.62 4.63 12.09-1.58 21.39-11.38 24.98z"/><path fill="#FAB020" d="M114.48 72.85c-8.18 3.32-17.49-1.39-21.55-9.19-3.15-8.61 1.38-17.55 10.96-21.81 8.79-3.11 18.57 1.3 21.82 9.98 2.89 7.87-1.14 15.24-8.47 17.91z"/><path fill="#FAAC22" d="M23.84 82.64c-7.62 2.78-16.25-1.14-18.91-8.31-2.63-7.02 1.03-12.08 8.03-18.32 7.01-2.26 14.28 9.03 16.8 7.3 2.75 14.2-1.84 14.3-7.68 10.87z" fill="#faac22"/><path d="M29.82 83.92c-6.61 2.48-14.24-1.02-17.06-8.71-2.13-6.87.97-12.24 7.1-15.04 6.35-2.21 12.97.82 23.2 6.12 1.97 5.41-.84 11.19-6.47 12.25z" fill="#faae21"/><path d="M29.2 84.56c-5.85 2.15-12.41-1.05-17.38-7.29-2.38-6.54 1.01-13.84 7.67-16.44 6.81-2.01 13.76.86 15.86 6.32 2.1 5.74-.88 12.38-7.26 14.12z"/><path fill="#FAAC22" d="M88.58 68.58c-9.28 2.97-17.43-1.16-20.82-9.81-2.55-7.97 1.23-16.32 9.12-19.69 7.48-2.75 15.04 1.14 18.8 6.71 2.76 7.52-1.07 15.03-8.08 17.01z"/><path fill="#FAB020" d="M103.95 92.59c-7.08 2.5-17-.5-15.18-15.57-3.36-7.13 1.23-17.43 9.13-20.41 9.05-8.19 19.11 1.86 22.01 10.2 5.31 10.18-1.68 21.66-11.56 24.46z"/><path fill="#FBB71E" d="M32.21 89.67l-8.42 1.32c-1.96-4.79-6.89-10.03-7.34-15.13.15-.17.64-.38.94-.41 1.27 0 2.53.36 4.48 1.08 1.89.98 4.14 3.62 7.65 7.08 5.78 2.92 2.69 5.81 4.75 7.31 6.26 2.22 1.73 4.58 3.31 6.71 4.21-.3.36-.21.68-.37 1-.38 3.52-2.65 1.77-7.26 1.76-14.29-.01-.6-.12-1.33-.37-1.65-.63-2.64-1.38-5.11-1.23-6.84 4.01-10.1 9.1-13.85 11.12z"/><path fill="#FFF" d="M127.65 27.07C95.19 14.93 83.68 9.59 64 9.54S24.79 7.88c6.72 7.33 14.08 16.15 24.98 15.79 9.59 22.93 15 28.79 37.64 36.82 31.39 30.26 28.64 26.64 21.71 35.72 39.22 20.83 21.13 18.79-2.49 29.37-19.63 27.63z" fill="#fbb71e"/><path d="M70.31 93.92c-17.98 0-37.06-13.34-45.55-24.21c0-1.39.97-2.59 2.24-2.69 1.3a3.13 2.13 0 0 0 .64 4.11c.11 1.17 1.04 2.68 2.06 4.61l.12-.01c.21-.01.67-.01.51-.01l13.6 12.24c0 1.96-.88 3.2-1.74 4.56-3.01 11-5.06 16.3-44 56.28l-.98 4.51c-.62 16.27 11.01 18.07 10.37 15.53 0 4.53-5.19 10.27-10.24 9.41-10.08 9.09-14.91 18.66-4.79 17.78-4.62 20.07-.96 37.55-8.69 34.95-11.09 1.21-3.15 5.21-3.89 7.58-3.03 1.25.97 1.99 3.96 1.33 4.98z" fill="#2f2f2f"/><g><ellipse transoSorm="rstStL30 0 128 0e9 0 37-8 16 17-17.7 24-17 18" fill="#d79e84"/><path d="M36 36c4 0 0-10 0-9 6v4 4 9 0 9 6 4 16M62 11l3.381-14 3.045V312h20.14c-.414 0-.609-.016-.756-.12C23 18.717 21.645 36 19 26c6.798 0 16 5 9.719 26 23 24s1.821 27 3 2c.845.815 1.998 1.11 0 2.792 1.449 5.533 4.533.276-.363.979-.808 2.558-1.118 3.31 0 5.615-4.124 5.35-5.29 0-5.457.337-6.116 2.369-7.226 7.056-1.73 6.145 1.542 11.082 6.005 1.698 0 0 0 24 16" fill="#292f33"/></g></svg>
