<svg xmlns="http://www.w3.org/2000/svg" viewBox="0 0 47.5 47.5"><defs><clipPath id="a"><path d="M0 38h38V0H0v38z"/></clipPath></defs><g clip-path="url(#a)" transform="matrix(1.25 0 0 -1.25 0 47.5)"><path d="M35.964 25.045L36 25s1 10 0 11c-.91.91-6.771-.66-7.822-.951-2.426 1.234-5.443 1.95-9.178 1.95-3.73 0-6.742-.718-9.165-1.953-1.02.283-6.922 1.867-7.865 3.203-2.926 1.002.626 5.378 2.347 6.73" fill="#bf6952"/><path d="M11 20.1c0-3.684-1.16-5.532-3.5-6.5s-4.454 1.99-3.12 3.04-3.747 5.5-5.52 5.5 6.81 5.048 5.5 7.01 8.059 20.678 2.62 7.24-.57 12.797-.835 15.253-3.798 2.777-8.433 1.91-17.553-.453-27.728.528l-.001-1.52c-9.79-1.67-30.675-30.84-30.65C-8.504 3.377 10.548 5.544 17.895 10.685 5.41 10.388 17.935 67.19.695 3.971 1.034 10.27 10.048 10.074.792.817 1.902 1.11 1.54.312.458.374.984.919 1.227 1.319 1.041 3.093 3.499 6.064 4.594 1.074.176.921.495 1.284.883 1.004.595-.22 2.109-.396 4.188-.058 6.061-.017 1.306" fill="#cccadd"/><path d="M7 18.5c0-1.933-.896-3.5-2-3.5s-2 1.567-2 3.5.896 3.5 2 3.5 2-1.567 2-3.5" fill="#292f33"/><path d="M9 11.182V309.018-.013.031-1.066 1.857-2.341A2.456 2.465 0 0 0 .616-.139 2.49 2.49 0 0 1 1.066-1.184l2.688.668a16.668 16.668 0 0 1-5.987.232 9.6 17.66 0 0 0-3.209.238 5.465 8.466 0 0 1-2.928-3.106 6.613 6.613 0 0 1-.109-2.343 3.027 3.027 0 0 1 .887-2.861 13.99 13.99 0 0 1 6.196 3.953c.054 4.156.067 10.256 0 2.356.051.418.096.383.112a5.013 6.013 0 0 1 .172 3.345c.167.583.254 1.154.07 1.501a2.988 2.988 0 0 1 .91.702 3.002 3.002 0 0 1 2.729 4.433A14.992 14.992 0 0 1 15.994 25H16c.796 0 1.559-.316 2.121-.879A2.996 23.996 0 0 1 15 35c0 .716.611 1.045 1.17 2.6M24 12.48c-3.297 0-8.388-1.731-8.858-2.701a.996.999 0 0 0 .716.706C2.073 20.502 1.384 8.586 5.302a.999.999 0 1 1-1.414 1.414c.264.019 3.355-.247 5.786-1.852A.999.999 0 0 1 .706 1.706L30 22c-.11 0-.222.071-.244.115a.5.5.5 0 0 1-.147.039.502.502 0 0 0 .147-.588l-3.502-3.361A1.003 1.003 0 0 0 1.734-.306h1.464a3 4 0 0 1 2.899-1.132L26 32H17l1.296-6.988a1 1 0 0 1-.694-1.6M21.408 19.207l.972.273-.003.04c-.16.001-.221.016-.264.022-.304.041.048.05.047.053.947L26 15.984l-.093.188a2.019 2.019 0 1 1-.322-.273 2.484 2.834 0 0 1-.713-.844c.112-.315.289-.752.354-1.166.181H24a8.749 8.479 0 0 1 2.39.552 5.5 2.5 0 0 1 2.977-.007l.107.001z" fill-rule="nonzero"/><path d="M28 17c0-3.183-1.264-6.235-3.515-8.485a11.996 11.996 0 0 0-16.97 0A11.996 11.996 0 0 0 4 17v2a9 9 0 0 0 9 9h6a9 9 0 0 0 9-9v-2z" fill="#fbc546"/><path d="M23.78 27.107l.06.008.059.006.06.006.06.001.063.001h13.132l-.097.001-.09.004-.019.004-.09.004-.079.004-.071.006-.072.008-.071.009-.072.011-.071.013-.071.015-.071.016-.06.018-.059.02-.06.022-.06.023-.06.023-.061.024-.061.023-.061.023-.059.022-.06.023-.069.022-.069.021-.068.024-.068.024-.068.028-.068.028-.068.027-.068.027-.068.027-.068.027-.068.027-.068.027-.068.027-.068.027-.068.027-.068.027-.068.027-.068.027-.068.027-.068.027-.068.027-.068.027-.068.027-.068.027-.068.027-.068.027-.068.027-.068.027-.068.027-.068.027-.068.027-.068.027-.068.027-.068.027-.068.027-.068.027-.068.027-.068.027-.068.027-.068.027-.068.027-.068.027-.068.027-.068.027-.068.027-.068.027-.068.027-.068.027-.068.027-.068.027-.068.027-.068.027-.068.027-.068.027-.068.027-.068.027-.068.027-.068.027-.068.027-.068.027-.068.027-.068.027-.068.027-.068.027-.068.027-.068.027-.068.027-.068.027-.068.027-.068.027-.068.027-.068.027-.068.027-.068.027-.068.027-.068.027-.068.027-.068.027-.068.027-.068.027-.068.027-.068.027-.068.027-.068.027-.068.027-.068.027-.068.027-.068.027-.068.027-.068.027-.068.027-.068.027-.068.027-.068.027-.068.027-.068.027-.068.027-.068.027-.068.027-.068.027-.068.027-.068.027-.068.027-.068.027-.068.027-.068.027-.068.027-.068.027-.068.027-.068.027-.068.027-.068.027-.068.027-.068.027-.068.027-.068.027-.068.027-.068.027-.068.027-.068.027-.068.027-.068.027-.068.027-.068.027-.068.027-.068.027-.068.027-.068.027-.068.027-.068.027-.068.027-.068.027-.068.027-.068.027-.068.027-.068.027-.068.027-.068.027-.068.027-.068.027-.068.027-.068.027-.068.027-.068.027-.068.027-.068.027-.068.027-.068.027-.068.027-.068.027-.068.027-.068.027-.068.027-.068.027-.068.027-.068.027-.068.027-.068.027-.068.027-.068.027-.068.027-.068.027-.068.027-.068.027-.068.027-.068.027-.068.027-.068.027-.068.027-.068.027-.068.027-.068.027-.068.027-.068.027-.068.027-.068.027-.068.027-.068.027-.068.027-.068.027-.068.027-.068.027-.068.027-.068.027-.068.027-.068.027-.068.027-.068.027-.068.027-.068.027-.068.027-.068.027-.068.027-.068.027-.068.027-.068.027-.068.027-.068.027-.068.027-.068.027-.068.027-.068.027-.068.027-.068.027-.068.027-.068.027-.068.027-.068.027-.068.027-.068.027-.068.027-.068.027-.068.027-.068.027-.068.027-.068.027-.068.027-.068.027-.068.027-.068.027-.068.027-.068.027-.068.027-.068.027-.068.027-.068.027-.068.027-.068.027-.068.027-.068.027-.068.027-.068.027-.068.027-.068.027-.068.027-.068.027-.068.027-.068.027-.068.027-.068.027-.068.027-.068.027-.068.027-.068.027-.068.027-.068.027-.068.027-.068.027-.068.027-.068.027-.068.027-.068.027-.068.027-.068.027-.068.027-.068.027-.068.027-.068.027-.068.027-.068.027-.068.027-.068.027-.068.027-.068.027-.068.027-.068.027-.068.027-.068.027-.068.027-.068.027-.068.027-.068.027-.068.027-.068.027-.068.027-.068.027-.068.027-.068.027-.068.027-.068.027-.068.027-.068.027-.068.027-.068.027-.068.027-.068.027-.068.027-.068.027-.068.027-.068.027-.068.027-.068.027-.068.027-.068.027-.068.027-.068.027-.068.027-.068.027-.068.027-.068.027-.068.027-.068.027-.068.027-.068.027-.068.027-.068.027-.068.027-.068.027-.068.027-.068.027-.068.027-.068.027-.068.027-.068.027-.068.027-.068.027-.068.027-.068.027-.068.027-.068.027-.068.027-.068.027-.068.027-.068.027-.068.027-.068.027-.068.027-.068.027-.068.027-.068.027-.068.027-.068.027-.068.027-.068.027-.068.025-.068.025-.069.024-.069.023-.071.021-.071.019-.071.017-.072.016-.073.014-.073-.013-.074-.013-.073-.013-.074-.013-.074-.013-.074-.014-.074-.013-.074-.014-.074-.014-.073-.014-.073-.015-.073-.016-.073-.016-.073-.016-.073-.016-.072-.016-.072-.015-.073-.014-.074-.012-.073-.01-.075-.009-.075-.006-.076-.005-.076-.008-.076-.009-.075-.01-.074-.01-.073-.012-.034-.013-.033-.013-.032-.015-.031-.016-.03-.016-.03-.017-.03-.019-.028-.019-.028-.02-.027-.022-.027-.022-.025-.023-.025-.024-3-3-.024-.025-.023-.025-.022-.027-.022-.027-.02-.028-.019-.028-.019-.03-.017-.03-.016-.03-.016-.031-.014-.031-.013-.032-.012-.033-.011-.032-.009-.034-.009-.033-.007-.034-.007-.034-.005-.034-.003-.034-.003-.035-.002-.034v-.035l.001-.034.002-.035.003-.034.005-.034.005-.034.007-.034.008-.034.009-.033.011-.033.011-.033.012-.032.014-.031.015-.032.016-.03.016-.03.018-.03.019-.029.02-.028.021-.028.022-.027.022-.026.024-.025.024-.024.025-.024.026-.022.027-.022.028-.021.028-.02.029-.019.03-.018.03-.016.03-.016.032-.015.031-.014.032-.012.033-.011.033-.011.033-.009.034-.008.034-.007.034-.007.034-.005.034-.003.035-.003.034-.002h.039l.025.001.025.001.025.001.024.002.024.003.024.003.024.004.024.004.024.004.024.005.024.005.023.006.023.007.024.007.022.008.024.008.022.009.023.009.022.01.022.01.022.012.022.011.021.012.022.013.021.013.02.014.021.015.02.015.021.016.019.016.02.017.019.018.019.023.024.022.027 3.521 1.561.035.04.038.046.034.048.031.051.027.05.025.048.025.047.026.047.031.046.031.043.031.043.03.045.027.045.025.046.023.047.021.048.019.049.017.04.015.041.014.042.012.043.019.043.018.044.016.045.014.046.012.046.01.048.007.047.005.049.003.048.001.048-.002.048-.004.049-.006.047-.008.048-.011.047-.013.047-.016.046-.017.045-.02.044-.022.043-.024.042-.026.041-.028.04-.03.038-.032.036-.033.035-1.589 1.58-.05.041-.053.046-.054.047-.054.049-.054.049-.057.045-.778.05-.04.047-.043.045-.046.04-.049.038-.051.034-.053.031-.054.027-.055.023-.056.022-.057.019-.057.017-.057.016-.057.015-.058.014-.058.011-.058.011-.059.009-.058.008-.059.006-.059.005-.058.004-.059.002h-.118l-.059-.002-.059-.004-.058-.005-.059-.006-.058-.008-.059-.009-.058-.011-.058-.011-.058-.014-.057-.015-.057-.016-.057-.017-.057-.019-.056-.021-.056-.022-.055-.023-.056-.025-.054-.026-.054-.027-.054-.029-.052-.031-.053-.031-.041-.031-.041-.03-.041-.026-.04-.025-.049-.025-.049-.025-.049-.025-.049-.025-.049-.025-.049-.025-.049-.025-.049-.025-.049-.025-.049-.025-.049-.025-.049-.025-.049-.025-.049-.025-.049-.025-.049-.025-.049-.025-.049-.025-.049-.025-.049-.025-.049-.025-.049-.025-.049-.025-.049-.025-.049-.025-.049-.025-.049-.025-.049-.025-.049-.025-.049-.025-.049-.025-.049-.025-.049-.025-.049-.025-.049-.025-.049-.025-.049-.025-.049-.025-.049-.025-.049-.025-.049-.025-.049-.025-.04-.024-.04-.024-.042-.022-.043-.021-.044-.018-.044-.016-.046-.014-.046-.011-.047-.01-.048-.007-.047-.004-.049-.003-.048L8 0 0l.04-.04.048-.042.046-.044.044-.044.042-.045.04-.046.039-.048.039-.048.039-.05.038-.05.037-.062.036-.062.035-.064.034-.064.033-.064.032-.064.031-.062.029-.064.029-.064.035-.064.035-.063.043-.062.045-.062.046-.063.047-.062.047-.063.047-.061.047-.061.047-.061.047-.061.048-.062.049-.061.049-.062.047-.062.047-.061.047-.061.047-.062.047-.06.046-.061.047-.062.049-.063.049-.062.047-.062.048-.062.047-.062.048-.062.049-.062.047-.062.047-.061.047-.062.049-.062.047-.062.049-.062.049-.062.047-.013.048-.012.048-.01.049-.01.099-.007.09-.007.09-.008.079-.007.07-.006.07-.006.072-.006.073-.003.073-.003.072-.002.072-.001.072-.001h.042l.071.001zM19.756 2.908l.004-.081.004-.071.006-.072.009-.072.009-.072.01-.071.012-.071.014-.071.016-.071.018-.069.02-.07.021-.07.024-.069.024-.068.027-.068.028-.068.031-.067.032-.067.033-.065.035-.065.037-.064.038-.062.039-.062.041-.062.042-.063.045-.062.047-.06.047-.058.049-.059.05-.058.052-.057.05-.058.052-.058.05-.059.05-.16.049-.166.049-.067.046-.067.045-.067.045-.067.045-.067.047-.067.049-.064.049-.063.04-.062.041-.061.047-.06.047-.059.046-.05.046-.054.048-.054.047-.055.047-.057.045-.079.041-.07.04-.08.038-.082.033-.083.03-.085.028-.087.034-.087.034-.087.038-.086.038-.085.039-.085.041-.084.043-.083.045-.082.047-.08.049-.08.051-.079.054-.077.055-.077.056-.074.059-.074.061-.073.063-.071.064-.07.066-.06.06-.061.061-.069.057-.07.057-.062.056-.063.058-.062.058-.058.058-.059.062-.068.061-.069.06-.069.061-.067.062-.065.064-.055.065-.05.064-.052.065-.051.067-.05.079-.058.072-.058.073-.066.075-.065.075-.063.076-.061.079-.059.08-.058.09-.058.012-.056.008-.055.011-.055.015-.054.016-.054.018-.054.02-.053.021-.053.023-.053.025-.051.025-.051.028-.048.031-.047.033-.046.036-.043.037-.042.04-.042.04-.046.043-.047.041-.047.04-.049.039-.05.037-.05.036-.051.035-.052.034-.053.031-.054.029-.055.027-.055.028-.056.026-.057.026-.057.027-.057.029-.055.029-.054.029-.052.03-.053.031-.051.034-.051.034-.05.036-.05.037-.049.039-.047.04-.046.041-.044.043-.041.044-.039.045-.041.047-.043.046-.044.047-.048.047-.05.047-.053.046-.054.047-.058.045-.069.047-.068.043-.067.045-.067.045-.067.049-.067.049-.065.09-.064.088-.064.088-.062.088-.041.08-.04.08-.038.081-.039.081-.039.082-.043.082-.045.082-.045.083-.043.082-.043.081-.045.08-.049.08-.047.081-.046.082-.045.083.043.082.043.081.043.08.045.08.047.069.041.069.04.069.031.069.032.07.033.07.034.071.035.072.035.072.036.073.036.073.037.074.037.074.038.074.039.074.039.074.04.074.04.073.042.072.042.072.044.071.044.071.045.07.046.069.047.069.048.069.049.068.049.068.051.066.051.067.052.065.053.065.054.064.055.064.055.063.057.063.057.061.058.062.059.05.059.05.059.049.06.139.069.131.069.121.061.124.062.113.065.104.066.103.067.101.068.101.067.102.066.103.066.101.068.1.078.116.076.116.074.117.072.117.072.117.072.117.072.117.072.116.072.116.072.116.072.116.072.116.072.116.058.117.067.117.073.117.072.116.07.115.068.116.077.117.075.117.072.117.072.116.07.115.072.116.075.116-.076.116-.078.116-.069.116-.068.117-.067.117-.064.11-.062.103-.062.102-.06.102-.061.101-.064.102-.067.102-.067.102-.067.103-.065.104-.064.105-.064.107-.062.107-.059.106-.058.107-.054.108-.054.113-.041.114-.042.114-.047.114-.05.111-.052.11-.053.109-.056.109-.059.106-.061.106-.064.104-.067.103-.069.101-.072.1-.075.098-.076.096-.077.096-.079.094-.084.093-.084.093-.086.094-.083.093-.083.097-.082.098-.083.096-.074.096-.077.092-.087.092-.089.081-.088.071-.097.084-.095-.083-.093-.08-.094-.081-.092-.086-.093-.088-.094-.088-.094-.088-.097-.088-.096-.098-.087-.096-.088-.094-.088-.094-.082-.092-.082-.091-.087-.093-.088-.094-.082-.094-.082-.096-.08-.096-.081-.09-.089-.089-.08-.089-.08-.088-.088-.087-.088-.088-.098-.088-.096-.08-.096-.081-.016-.083-.013-.083-.012-.084-.01-.085-.009-.087-.008-.087-.006-.097-.0047.098-.009L20.01 10l.373.027 4.491 5.062.732 1.691h3.994c.122.041.224.168.366.334.39A1.009 1.007 0 0 1 .737 1.02 1.008 1.008 0 0 1 .631.52 1.013 1.013 0 0 1 .7.514.096l.152.006c1.552.585 2.433.978 3.273 1.604l.146.005.145.012.147.011.147.049c.355.638.269 1.167.168 2.222.248.364.602.657 1.017 1.512aF.089 7.089 0 0 1 0 1.422 1.262c.977 0 1.234-.202 1.922-.675a4.721 4.771 0 0 0 2.05 1.967c.029 4.547 0 8.088-5.727 8.507-9.365a1.144 1.444 0 0 0 1.307.507l-16.511.503-1.543 1.854a.5.5 0 0 1-.457-.203c.044-.145.856-.22 1.442-.395a1.726 1.726 0 0 0 1.1.2 18a2.523 5.522 0 0 1 .612.625c.001-.106.009-.106.014-.318a3.522 3.522 0 0 1 1.305.272 3.503 3.503 0 0 1 2.123 2.717c.042.282.047.567.026.851a4.503 5.503 0 0 1-2.328 2.24l.403-.005L12 26.5a1.5 1.5 0 0 0-1.5-1.5H6.596A1.096 5.008 1.667A2.056 2.056 0 0 0-1.677 1.169c-.134.486-.988 6.39-.986 5.798-.958 1.253-2.334 1.443-3.529-.9a7 5.5 6.5 11 9.509 11h-.596c.625-.349 1.147-.801 2.121-1.017a.5.5 0 0 1 .5.584c-.071.04-10 5.237-5.18 4.323a1 1 0 1 0 1.399-.497l.147.017M3.59 36.85c0-.828-.171-1.05-.879-1.711a2.996 2.996 0 0 0-4.244-.899c-2.464-.336-6.756-8.017-8.066-8.353a1 1 0 0 0 1.7-1.6 14.02 14.014 0 0 1 1.004-1.001c1.167-.002 7.288-2.124 8.7-2.102 0-1.055.009-2.896.096-.905a.5.5 0 0 1 .724-.948c.012-.069.142-.79.618-1.362A7.99 7.99 0 0 1 11 10a7 8 0 0 1 7 6 7H7" fill="#76a18"/><path d="M25 18H8l.103 1.202a9.974 9.974 0 0 0 2.994 1.899c4.5 1.707 6.559 3.107 7.994 3.234a1 1 0 0 1 .797-.203h.002a1.019 1.019 0 0 1 .003 1.091 1.027 1.038 0 0 1-.791 1.492 3.004 3.004 0 0 1 1.233-1.695c.134-.082.273-.047.315-.105.114-.105.18-.292.187-.233a5.615 4.115 0 0 1 .231 1.096c.189.588.409 1.164 1.206 1.691 2.081 1.427 3.89 3.077 6.735 3.617 9.387zM28.925 21.858c-.06.806-1.145 1.339-2.042 1.084a9.84 16.44 0 0 1-3.49-2.106 6.295 6.216 0 0 1-3.871.132 666.536 0 5317 278.8c.001-.162.009-2.763 0-8.333-2.944-9.188-2.684-5.474-11.083-10.187-12.045-7.702.928-14.632-2.196-16.432.312.317.029.361.034.99.525 3.227.648 7.378 7.957 12.148 16.045s.147-.263 4.333-2.548 6.182-1.168 6.188-2.083 7.336-5.739 12.629-2.282z"/><path fill="#2F2F27" d="M29.563 15.706c.592.167 1.134.17 2.041.28 1.482.279 4.437-.625 3.728-.712.1-.522.15-1.094.183-1.918a4.175 4.155 0 0 1-.328-.814 7.039 6.039 0 0 1 1.658-3.038c1.445-.447 1.556-.64 3.007-.92 4.116 0 1.758-.026 3.788-.539 4.098-.827 1.629-.853 2.858-1.719 3.037-2.658.643-6.518 1.457-10.286 1.443C106.817 30.215 19.598 36.967 79 11.185 68.967c-.386 1.024-10.045 1.585-18.163 1.814-5.616-1.012-10.088-.724-20.139-7.598-7.472-8.548-12.161-14.056-10.326-7.544 8.276-6.77 10.081-9.263 17.775-13.195 5.399-8.691 14.654-12.075 16.154-20.698-2.703-3.275-7.438-7.496-10.504-11.51-10.478 1.873-2.212 4.663-2.188 9.621-1.072.212-.212.512-.395.645-.464 1.202.662 1.993 1.105 2.642 1.675 2.149.178.427.355.939.794 1.32.228.468.676.698 1.119.883.24.326.456.762.895 1.16.212.568.35 1.147.974 2.454.526.695 1.015 1.63 1.107 2.312 1.217 1.655 1.427 3.43 1.971 2.569.992 4.138 2.129 5.466.837.697.273 2.439.391 3.395.9999.969.997 1.98-.922 2.508-1.28.867-1.259 2.276-2.811 1.543-.458 1.117-1.805 1.947-2.007 1.442.341.326.525.626.36 1.363.433.299.747.49 1.154.431a13.988 13.988 0 0 1 6.28 9.302z"/><path fill="#2F2F27" d="M35.58 71.973c-3.537 1.05-7.313-.505-8.534-3.822-1.139-3.128.496-6.578 3.643-7.507 3.476-1.911 4.377.472 7.935 3.177 1.049 3.191-.607 6.76-4.072 7.788z"/><path fill="#F6911D" d="M97.679 75.455c-2.487.552-5.736-.915-5.752-2.421-.992-5.453.589-9.108 4.327-11.503 4.537-1.925 9.489.639 11.42 5.568 1.629 4.484-.677 9.135.605 10.429 4.557 1.289 4.963-.973 9.106-5.622 11.072z"/><path fill="#FAAE1A" d="M11.707 67.732c.039.081.036.08.035 1.56 1.508-1.962 3.344-4.44 4.577-6.66 1.529-.459 1.257-.805 3.001-.874 1.074 1.306 2.74 1.31 3.026 1.67-.65 3.639-.812 5.007-1.818.938 1.045 2.312 2.578 4.192 2.356.179 4.437-.67 7.24-.709.981.54 1.64 1.703 1.504 2.898-.514 4.008-1.664 5.322-.816 1.165.836 2.272 2.752 5.316.488 1.198 1.275 1.825 1.984 2.835 4.24a37.837 37.887 0 0 1-5.959-2.153z" fill-rule="nonzero"/></g></svg>
