<svg xmlns="http://www.w3.org/2000/svg" viewBox="0 0 47.5 47.5"><defs><clipPath id="a"><path d="M0 38h38V0H0v38z"/></clipPath></defs><g clip-path="url(#a)" transform="matrix(1.25 0 0 -1.25 0 47.5)"><path d="M36 19c0-9.389-7.611-17-17-17S2 9.611 2 19s7.611 17 17 17 17-7.611 17-17" fill="#ffcc4d"/><path d="M15 20.5c0-1.934-1.119-3.5-2.5-3.5S10 18.566 10 20.5c0 1.933 1.119 3.5 2.5 3.5s2.5-1.567 2.5-3.5M24.485 9.12c-.012.045-1.146 4.38-5.485 4.38-4.34 0-5.475-4.335-5.485-4.38a.495.495 0 0 1 .231-.543.51.51 0 0 1 .596.06c.01.007 1.014.863 4.657.863 3.59 0 4.617-.83 4.656-.863a.5.5 0 0 1 .83.484" fill="#664500"/><path d="M11 8a5 5 0 0 0-5-5 5 5 0 0 0-5 5c0 2.762 4 10 5 10s5-7.238 5-10" fill="#5dadec"/><path d="M31 24c-5.554 0-7.204 4.367-7.046 8.165a.501.501 0 0 1-.652.049c-.061.007-.098.009-.15.018l.7-.002L12.918 19h-.001a.495.495 0 0 0 .294.06.998.998 0 0 0-.642.284 1.016 1.016 0 0 0 1.06-3.686 1.001 1.001 0 0 1 1.398-.473h.002c0.925 0 1.428-.05 1.492-.811a2.998 2.998 0 0 1 .302 1.202M39 26c-.22 0-5.415-.067-8.305-3.986A.999.999 0 0 0 1.707.707C15.324 20.55 18.986 23 15 32a1 1 0 0 0 .001-2c-.036 0-2.789-1.126-4.445-2.242a.5.5 0 0 0 .59.06.503.507 0 0 1 .545.537.502 2.502 0 0 1 29 14.5c1.194 0 4.533.162 7.956.362 3.397 0 5.63-.022 8.14.021 15.659 18 16-9 18.695-3.085 5-3 9.071 2 16 6.671 11 11s7.069 1 1 15" fill="#664500"/></g></svg>
