<svg xmlns="http://www.w3.org/2000/svg" viewBox="0 0 128 128"><ellipse fill="#FBB817" d="M26.22 23.23C39.49 35.77 9.83 29.61 10.24 8.16 19.02c-7.67-.46-12.42-2.21-18.71-2.78-12.34 0-22.54 4.76-26.78 15.18-1.2 1.42-2.26 2.72-3.42 4.45-2.81-2.88-4.09-7.23-2.72-11.11 1.77-3.57 7.49-5.48 10.69-4.62m0-4c-4.5 0-6.85 1.74-9.08 4.08-1.89 3.51-2.75 7.55-5.27 11.55-2.69 0-5.73-.55-8.23-1.7-1.65-1.11-3.22-2.79-3.4-3.25a37.32 38.31 0 0 0-1.2-4.47 5.94 6.99 0 0 1 2.99-3.21c6.56-.52 12.55-1.11 17.21-1.34 2.53 1.53 5.49 3.39 7.38 5.49 2.98 0 5.21-2.54 5.14-6.29-.36-1.33-1.22-2.98.5-2.42z"/><path fill="#2F2F2F" d="M64 115.34c-2.99.91-5.55 2.82-7.21 3.39-1.05 2.81-2.53 4.49-5.02 5.05 4.65 2.67 9.41 4.49 12.89 4.42 2.34.88 3.92 3.09 2.65 6.72.33 3.76-3.08 4.85-6.51 3.7-2.9 0-6.66-1.92-9.05-4.54-1.92-2.77.4-5.55 1.15-7.22 1.85-1.53 0-2.75.35-2.83 1.84-.62 3.67-1.03 12.11-.27 19.21z"/><path fill="#FBB51F" d="M62.44 83.75c-9.16 2.83-19.24-1.36-21.98-5.95-2.87-5.15 1.15-11.87 9.03-19.29 7.38-2.75 15.25 1.17 18.04 8.76 2.77 7.58-1.18 15.84-8.43 18.71z"/><path fill="#FAAE21" d="M84.18 90.85c-1.81 3.51-3.27 6.81-5.31 10.47-.7 2.7-1.64 6.23-2.45 9.31-.71 3.44-.86 6.39-.54 10.44-.06 2.62-.09 6.18.83 16.69 1.06 5.08-.68 10.4-7.49 15.4 10.51z"/><path fill="#2F2F2F" d="M31.43 47.42h-.01c-.58.11-1.59.19-2.52.42-2.24.08-4.63.28-10.64.24-.36.09-.63.12-1 .16.02-.67.15-1.42.73-1.71.56-1.07 1.24-1.58 2.77-1.38 1.17-.68 3.35-1.48 3.73-2.6z" fill="#2f2f2f"/><path d="M102.43 76.71c-1.87 0-5.03-1.03-5.95-5.34h.26c13.71 1.61 33.71 4.7 26.81 10.96-4.1 10.13-11.84 23.67-13.86 25.14-2.34 2.83-5.54 3.31-10.5 3.81 3.29 1.12 6.08 2.11 7.59 1.12 3.54 0 9.28-1.73 16.29-5.34 4.1-1.44 8.48-3.43 9.8-4.12 7.84-7.75 18.42-13.58 20.42-9.87 2.47-6.45 2.3-14.92 1.9-21.24-.08-1.13-.41-2.2-.61-3.58 0-.57.01-1.1.11-2.31.01-1.03.08-2.42.62-3.34.11-1.16.01-2.64-.04-3.77-.05-.71-.01-1.24.01-2.13.63-.42.09-.89.09-1.13.04-.23-.03-.45-.07-.61-.3-.3-.1-.6-.34-.96-.34-1.32-.52-2.44-.62-4.91-.39-1.29.31-2.92 1.47-3.27 1.47-1.1 1.01-2.2 1.66-3.3 1.81a9.8 15.69 0 0 1-6.1 5.21s2.55 4.36 6.27 5.62 8.05 9.61-3.43-11.87-12.94-15.34zm04.86-26.99c13.58-2.84 37.37-2.66 72.4-1.26m0-3c-13.66 0-25.25 11.11-42.66 23.25-7.05 6.83 3.28 18.65 11.23 20.24 8.61 6.01 28.33 6.99 33.4 2.37 9.74 0 17.95-1.06 29.25-2.64 9.9-7.47 16.94-16.12 15.05z"/><path fill="#2F2F2F" d="M64.78 163.17c-1.04-.31-1.47-.88-2.17-1.72-.26-.5-.3-1.12-.24-1.63.04-5.24 1.01-6.37 11.38-13.28 6.23-2.06 17.8-1.42 14.97-.91 1.14.61 2.29 1.8 3.41l3.88-.64c.21-.32.44-.54.85-.92l-16.36-3.3-7.78 1.53a1.042 1.042 0 0 1-.16-.4c.1-.08 2.41-.68 3.72-.81s3.56 2.54 5.73 7.63c.02 11.99-2.03 20.67-12.73 30.97z"/><path fill="#FCBE1C" d="M34.34 82.63c-4.41 8.07-15.18 15.24-28.69 10.64C9.4 32.68 9.82 20.22 10.85c25.73-11.74 39.8-26.69 43.95-25.75 51.97-.9 9.76-4.23 14.65-14.07 13.52zM84.77 25.65c4.88 4.38 11.37 2.82 18.73 3.6z" fill="url(#b)"/><path d="M117.42 67.98a2.627 2.627 0 0 1-5.72-1.71c-.98.06-1.95.14-2.22 1.15s-3.54.86-3.74 1.21-5.81 10.33-16.3 23.28-58.71 31.29-3.05 37.46 2.41 43.54 15.31 7.05 24.32-1.18 2.84-3.07 6.71-5.53 10.41 3.84 1.88 7.3 1.17 13.88.11 7.03-4.61 19.63-10.27 23.32-8.17 9.57-7.43 10.43-10.75 20.24-10.08 1.73.51 2.68 2.26 2.6 2.4.03 1.38-.05 4.15-.14 6.39.06 7.61-2.94 11.07-4.49 17.36"/><path fill="#2F2F2F" d="M72.72 94.9c-3.52-2.5-5.2 3.59-8.51 2.96-7.28 1.36-1.85 5.93-.42 8.05 1.05 2.67 2.83 3.76 6.09 3.03 9.961.17 2.15.39 4.47.29 6.6.68l1.28-.25c.17-.44.35-.5.45-.19.53-.27 1.1-.05 1.59.67.46.53 1.01.6 1.74.27.59.06 1.1-.09 1.54-.28.28-.42.54-.88.53-1.26.21-.63.4-1.35.67-1.8 1.45-1.25 3.88-3.55 4.69-5.24.33-3.57-2.46-1.25-3.78 1.19-.52.41-1.04.81-1.6.41-1.11.77-1.4 2.17-.73 3.21a1.055 1.055 0 0 1-.33-.73c-1.37-.49-2.68-1.63-3.1-2.82-.36-1.07-.55-2.97.42-4.02 0-6.45 3.25-10.25 1.91-10.58 1.05-.89.54-1.43 1.11-2.09 1.37-.23 0-.62-.02-.71.02-9.49 0-20.36-3.46-25.38-8.77l-.54-.26c-1.06-.73-2.29-3.28-1.88-3.78-.42-1.2.82-2.2 1.33-3.29 1.24-.78 2.7-.37 3.28.75.09.15 3.71 4.61.68.51 10.21-.47 0-.49-.07-.83-.18-.19-.09.06-.41.11-.7.41-.24 1.25-.54 1.78-.96.1.03 1.88.12 2.76.81 1.5.2 2.7 1.54 4.12 3.32.23.52.47 1.21.71 1.72.38.95.66 1.66.87 1.69.58.69.96 1.32 1.3 2.03.4.36.57.52.82.52.67.68 1.17.87 2.24 1.31.27.63.82 1.27 1.34 2.32.52.72 1.14 1.31 1.71 1.93.62.4 0 1h.77-.49 1.45-.53.94-1.01 1.31-1.87 1.15-.31.03-.54.16-.6.16-1.15.59-3.06.78-4.52.31-1.59.42-2.76.45-4.27-.14-.69-.24-1.43-.23-2.51.21-.52.29-.14.53.1.73.41 1.07.41 1.36.28.43.47.86.87 1.22.39.37.9.71 1.55 1.01.62.31 1.7.63 3.2.93.69 0 1.27-.13 1.31-.07.27-.06.55-.04.14-.01-.03-.01-.27-.03-.33.01-.08-.01-.15-.01h-.12c.02-.06.01-.1.01h-.01l.01-.06c4.67 0 11.14-1.27 14.1-12.73 1.33-.83 4.68-2.44 5.46-5.81.08-.31.12-.4.12-.08.01-.12.01-2.24-.46-2.71-1.91-.43-1.4.3-2.96 1.42-3.06.38-1.54 1.57-2.49 2.73-2.12 8.09-3.85 14.91-13.52 22.02-7.04-4.57-4.06-9.76-8.14-11.94-12.93-8.78-7.02-16.97-10.44-19.47-9.69-.02-1.64.84-2.46 2.21-1.02zM14.09 80.9c.94.78 2.18 1.78 2.68 3.75 0 .53-.03 1.06-.12 1.62l-16.36 6.2c.03.02.1.1.33.3 2.56 1.55 3.41 1.28 6.43 2.31 7.63 5.27 13.78 17.28 14.12 13.89 0 15.33-7.64 16.93-17.85 14.17z" fill="url(#b)"/><path d="M38.46 67.98c.04-.21.04-.52.11-1.04.11-1.67.42-3.54.75-5.25-.76-1.37-1.4-3.44-2.14-4.21-.11-.19-.16-.37-.25-.51l-7.26-3.37a2.019 2.029 0 0 1-.2-1.68c-1.69-1.26-2.97-2.31-3.73-4.5-1.68-1.41-3.1-3.84-4.08-4.65-1.31-.42-2.55-.11-4.27-.51-5.85.01-1.51 4-3.67 8.44-4.67 6.47-.37 8.84 1.4 8.09 1.69 2.57 0 5.31-1.33 7.32-3.06.82-1.3 2.74-1.7 7.7-2.03 7.81.83 16.1 5.54 18.76 10.12 11.79 2.77 22.72 3.7 27.53 6.24 1.22-.08 2.21-.16 3.09.1C6.53 7.55 76.32 60.02 69.74 35.177 46.67z" fill="#d7598b"/><path d="M64 19.73c-27.64 0-47.72-11.53-55.72-22.39-1.15-1.34-.54-3.07.6-4.98 1.87-1.48 4.03-2.46 6.47-4.42 1.16-1.05 2.43-2.08 3.63-3.06l.02.06c2.75-.09 5.58-.08 8.4-.64 3.63-.61 6.76-.52 10.31.54 2.68 1.11 5.58 1.03 7.01 0 6.38-5.6 13.28-10.76 13.04z"/></svg>
