<svg viewBox="0 0 32 32" xmlns="http://www.w3.org/2000/svg" fill-rule="evenodd" clip-rule="evenodd" stroke-linejoin="round" stroke-miterlimit="1.414"><path fill="none" d="M0 0h32v32H0z"/><circle cx="16" cy="16" r="16"/><path d="M12.976 2.328A14.017 14.017 0 0 1 16 2c5.178 0 9.704 2.817 12.125 7.002.787 3.091 1.461 5.819 1.617 9.686C28.549 24.812 23.358 29.515 17 29.965c-2.429-.528-5.812-1.221-7.889-1.777a14.045 14.045 0 0 1-6.49-8.056c.213-3.091 2.481-11.543 2.75-13.24.246-.287.504-.564.772-.83.568-.176.174-.244 6.656-.541 5.078.681.566 2.38 3.152 4.393 4.24A7.1 1.01 0 0 1.596-.303A5.025 6.024 0 0 1 11.14 32.182a3.5 2.5 0 1 1 2.307-.154l.519-.523z" fill-rule="nonzero"/><path d="M28 17c0-3.183-1.264-6.235-3.515-8.485a11.996 11.996 0 0 0-16.97 0A11.996 11.996 0 0 0 4 17v2a9 9 0 0 0 9 9h6a9 9 0 0 0 9-9v-2z" fill="#fbc546"/><path d="M23.782 17.004l.078.01.066.01.067.013.067.019.066.023.065.027.063.03.061.034.057.034.056.041.053.043.049.047.047.05.044.053.039.056.031.058.031.06.031.062.029.063.023.065.019.066.013.067.01.068.004.068v.068l-.004.068-.01.068-.013.067-.019.066-.023.064-.027.062-.031.061-.036.058-.039.056-.043.053-.047.05-.881.881-.071.07-.073.071-.075.07-.075.069-.076.068-.076.067-.077.068-.078.068-.078.068-.078.069-.079.069-.08.073-.08.073-.081.072-.082.07-.079.08-.089.073-.081.072-.083.079-.084.05-.083.049-.083.048-.084.048-.085.049-.085.049-.085.041-.083.043-.083.045-.082.047-.081.049-.08.051-.079.054-.077.055-.077.056-.074.059-.074.061-.073.063-.071.063-.07.075-.079.076-.068.026-.068.028-.067.03-.066.031-.066.034-.066.035-.065.036-.063.038-.062.038-.062.039-.062.04-.064.042-.063.043-.06.046-.069.047-.068.049-.067.05-.068.051-.066.053-.067.053-.065.053-.065.053-.064.055-.065.055-.064.055-.064.055-.063.057-.062.056-.061.058-.058.058-.058.058-.057.057-.057.059-.055.059-.053.058-.049.064-.05.063-.058.061-.059.06-.047.059-.047.059-.046.061.044.062.042.062.04.062.039.064.037.065.035.065.034.065.031.067.03.067.029.068.027.069.022.07.023.069.022.07.02.07.018.07.016.071.015.071.013.072.011.071.01.072.007.072.006.072.004.072.002.072.001.072.001zM20.072 19.002l.057.005.056.008.055.011.055.015.054.017.054.019.053.02.051.023.052.021.05.029.058.028.057.028.057.026.058.026.058.025.057.026.057.028.056.028.055.029.055.03.055.032.055.032.053.033.052.033.052.031.052.031.053.031.053.031.053.031.053.031.053.031.053.031.053.031.053.031.053.031.053.031.053.031.053.031.053.031.053.031.053.03.053.029.054.029.055.03.056.034.058.032.06.033.06.031.071.035.06.031.069.026.069.028.068.027.068.027.068.027.068.027.067.027.066.028.065.031.065.033.065.032.063.034.062.035.062.035.062.035.063.035.064.037.063.038.063.04.063.042.061.044.06.046.06.047.058.049.057.05.056.052.051.05 1.59 1.59.035.035.033.036.03.038.028.04.026.041.024.042.022.043.02.043.017.044.016.046.013.046.011.047.01.048.007.047.004.049.003.048v.048l-.003.048-.004.049-.007.047-.01.048-.012.046-.015.046-.016.046-.019.044-.021.044-.023.043-.025.041-.027.04-.029.039-.031.037-.032.036-.034.034-.036.032-.037.031-.039.029-.04.027-.041.025-.043.023-.044.021-.044.019-.045.016-.047.015-.046.012-.048.01-.047.007-.049.005-.048.003-.048.001-.048-.002-.049-.004-.047-.006-.048-.009-.047-.011-.047-.013-.045-.016-.045-.017-.044-.02-.043-.022-.042-.024-.041-.026-.04-.028-.038-.03-.036-.032-.035-.033-1.581-1.58-.035-.043-.03-.046-.03-.047-.027-.049-.024-.051-.022-.051-.019-.052-.016-.054-.013-.055-.01-.055-.007-.056-.004-.056L11 21l-.002-.025-.005-.024-.007-.023-.007-.022-.008-.024-.008-.022-.009-.023-.009-.022-.01-.022-.01-.022-.012-.022-.011-.021-.012-.022-.013-.021-.014-.02-.013-.021-.015-.02-.015-.02-.016-.02-.016-.02-.017-.019-.018-.019-.023-.024-1.581-1.581-.033-.035-.032-.036-.03-.038-.028-.04-.026-.041-.024-.042-.022-.043-.02-.044-.017-.045-.016-.045-.013-.047-.011-.047-.009-.048-.006-.047-.004-.049L16 5.012l.001-.048.003-.048.005-.049.007-.047.01-.048.012-.046.015-.046.016-.046.019-.044.022-.043.023-.041.027-.04.027-.039.029-.038.029-.037.03-.036.038-.035.036-.034.037-.033.037-.032.038-.031.039-.029.04-.027.041-.026.041-.023.049-.022.048-.021.05-.018.051-.017.05-.017.049-.014.048-.013.047-.013.048-.016.045-.017.045-.019.045-.013.045-.015.043-.016.042-.016.042-.018.04-.02.049-.022.091-.023.091-.023.09-.025.088-.027.086-.029.087-.03.086-.032.085-.034.084-.035.082-.038.08-.039.081-.039.081-.04.082-.042.082-.043.082-.044.081-.045.08-.049.08-.041.079-.044.07-.045.07-.045.071-.045.072-.042.072-.042.073-.041.074-.04.074-.039.074-.038.075-.037.075-.036.076-.035.076-.034.077-.034.077-.032.077-.031.078-.031.078-.03.078-.028.079-.028.079-.027.08-.025.079-.025.08-.024.081-.023.081-.022.081-.021.081-.019.082-.019.081-.018.083-.017.082-.016.082-.015.083-.014.083-.013.084-.012.083-.011.084-.01.084-.009.084-.007.084-.007.084-.006.085-.005.084-.003.085-.003.085-.001.082-.001h1.164l.082.001zM12 12.5a1.503 1.503 0 0 0-1.5-1.5A1.503 1.503 0 0 0 9 12.5v2a1.503 1.503 0 0 0 1.5 1.5 1.503 1.503 0 0 0 1.5-1.5v-2z"/></svg></svg>
