<svg xmlns="http://www.w3.org/2000/svg" viewBox="0 0 128 128"><path d="M63.79 8.64C1.48 8.64 0 78.5 0 92.33c0 13.83 28.56 25.03 63.79 25.03 35.24 0 63.79-11.21 63.79-25.03 0-13.83-1.47-83.68-63.79-83.68z" fill="#fcc21b"/><g fill="#2f2f2f"><path d="M41.99 65.96c-4.49.04-8.17-4.27-8.22-9.62-.05-5.37 3.55-9.75 8.04-9.79 4.48-.04 8.17 4.27 8.22 9.64.04 5.36-3.56 9.73-8.04 9.77zM-83.23 57.97c1.62-1.47 1.72-3.511.36-5.97a1.276 1.276 0 0 1-.41-2.33c-.11-1.16-1.29-1.95-2.42-2.05l-47.51 8.25c-1.2 3.78-4.79 7.61-8.37 7.51s-9.52-4.18-7.57-7.96"/></g></svg>
