<svg viewBox="0 0 32 32" xmlns="http://www.w3.org/2000/svg" fill-rule="evenodd" clip-rule="evenodd" stroke-linejoin="round" stroke-miterlimit="1.414"><path fill="none" d="M0 0h32v32H0z"/><path d="M19.141 3.001A13.99 13.99 0 0 1 6.9 13.102 11.05 11.05 0 0 1-.76-3.461 2.967 2.967 0 0 1 .066-.181c-.007-.027-.018-.075-.032-.745-.031-.669-.034-.935-.353-.672-1.134-1.105-1.898-1.081a2.22 2.22 0 0 0-1.394-.85c-.008-.002-.023-.037-.023-.07a9.935 9.935 0 0 0-3.844.268 6 6 9.688 0 6-6-1-1.267-5.388-1.602-1.153 0-2.33.899 3.702 2.302 2.741 0 5.344-2.249 6.672-7.326 7.175a.854.964 0 0 1 .067-.603.5.5.55 0 0 1 .545.521l-40-.011z" fill="#fbc546"/><path d="M25 19H7l.303 1.87A6.611 6.011 0 0 0 19.996 19h.042a6.008 6.008 0 0 0-1.992-1.325A3 3 0 0 1 2.626 0l14 18.5a1.5 1.5 0 0 0 1.5-1.5z" fill="#fbc546"/><path d="M23.707 14.293l.028.029.026.029.025.031.024.032.023.032.021.034.02.034.019.036.017.035.016.037.014.037.013.038.011.038.01.038.008.039.007.039.005.04.004.039.002.04v.04l-.001.04-.003.039-.004.04-.006.039-.008.039-.009.039-.01.038-.012.038-.014.038-.015.036-.016.037-.018.035-.02.035-.02.034-.022.033-.024.032-.024.031-.026.031-.027.029-.028.028-.029.027-.031.026-.031.024-.032.024-.033.022-.034.02-.035.02-.035.018-.037.016-.036.015-.038.014-.038.012-.038.01-.039.009-.039.008-.039.006-.04.004-.039.003-.04.001h-.04l-.04-.002-.039-.004-.04-.005-.039-.007-.039-.008-.038-.012-.038-.011-.038-.012-.037-.016-.037-.016-.036-.017-.036-.019-.034-.02-.034-.021-.032-.023-.032-.024-.031-.025-.029-.026-.029-.028L21 14.414l-1.293 1.293-.029.028-.029.026-.031.025-.032.024-.032.023-.034.021-.034.02-.036.019-.035.017-.037.016-.037.014-.038.013-.038.011-.038.01-.039.008-.039.007-.04.005-.039.004-.04.002h-.04l-.04-.001-.039-.003-.04-.004-.039-.006-.039-.008-.039-.009-.038-.01-.038-.012-.038-.014-.036-.015-.037-.016-.035-.018-.035-.02-.034-.02-.033-.022-.032-.024-.031-.024-.031-.026-.029-.027-.028-.028-.027-.029-.026-.031-.024-.031-.024-.032-.022-.033-.02-.034-.02-.035-.018-.035-.016-.037-.015-.036-.014-.038-.012-.038-.01-.038-.009-.039-.008-.039-.006-.039-.004-.04-.003-.039-.001-.04v-.04l.002-.04.004-.039.005-.04.007-.039.008-.039.01-.038.011-.038.013-.038.014-.037.016-.037.017-.035.019-.036.02-.034.021-.034.023-.032.024-.032.025-.031.026-.029.028-.029.029-.027.03-.026.031-.025.032-.024.033-.022.034-.02.035-.02.035-.018.037-.016.036-.015.038-.014.038-.012.038-.01.039-.009.039-.008.039-.006.04-.004.039-.003.04-.001h.04z"/></svg>
