<svg width="128" height="128" xmlns="http://www.w3.org/2000/svg" xmlns:xlink="http://www.w3.or//29996"><-.026-.093-.023-.093-.023-.091-.021-.099-.02-.099-.019-.099-.02-.099-.02-.099-.026-.1-.025-.1-.028-.11-.029-.119-.03-.118-.032-.119-.034-.118-.033-.118-.033-.118-.035-.117-.036-.118-.039-.116-.04-.115-.042-.115-.042-.114-.045-.113-.045-.113-.047-.112-.048-.111-.05-.111-.05-.11-.048-.11-.047-.11-.045-.117-.043-.118-.031-.118-.029-.118-.029-.119-.03-.12-.03-.119-.032-.119-.033-.119-.034-.118-.036-.117-.037-.117-.039-.116-.04-.115-.042-.115-.042-.114-.045-.113-.045-.113-.047-.112-.048-.111-.05-.109-.052-.1-.053-.017-.045-.015-.047-.013-.047-.011-.048-.01-.049-.007-.05-.006-.05-.004-.051-.003-.051-.002-.052-.002-.051-.002-.052-.001H10l-.001.001-.003.009-.004.007-.004.007-.004.007-.004.008-.004.009-.004.009-.003.009-.003.009-.003.009-.003.08-.001.083.002zM15.805 23.998l-.078-.02-.079-.018-.087-.016-.087-.017-.087-.017-.086-.017-.096-.017-.097-.017-.097-.015-.098-.012-.098-.009-.088-.007-.087-.007-.087-.004-.088-.002-.089.001-.099-.004-.099-.006-.098-.009-.098-.011-.098-.012-.097-.017-.097-.018-.096-.025-.096-.025-.096-.022-.096-.018-.097-.017-.096-.018-.096-.02-.096-.02-.096-.02-.097-.02-.097-.017-.097-.017-.097-.019-.097-.02-.097-.023-.098-.024-.098-.025-.097-.027-.097-.028-.096-.028-.096-.03-.096-.031-.016-.031-.015-.032-.014-.031-.013-.032-.011-.032-.01-.034-.009-.033-.009-.033-.007-.034-.007-.034-.005-.034-.003-.034-.003-.035-.002-.034v-.035l.001-.034.002-.035.003-.034.005-.034.005-.034.007-.034.008-.034.009-.033.011-.033.011-.033.012-.032.014-.031.015-.032.016-.03.016-.03.018-.03.019-.029.02-.028.021-.028.022-.027.022-.026.024-.025.024-.024.025-.024.026-.022.027-.022.028-.021.028-.02.029-.019.03-.018.03-.016.03-.016.032-.015.031-.014.032-.012.033-.011.033-.011.033-.009.034-.008.034-.007.034-.005.034-.005.034-.003.035-.002.034-.001h.035zM12.043 11.001l.035.002.034.003.034.005.034.005.034.007.034.008.033.009.033.011.033.011.032.012.031.014.032.015.03.016.03.016.03.018.029.019.028.02.028.021.027.022.026.022.025.024.024.024.024.025.022.026.022.027.021.028.02.028.019.029.018.03.016.03.016.03.015.032.014.031.012.032.011.033.011.032.009.033.008.034.007.034.005.034.005.034.003.034.002.035.001.034v.035l-.002.034-.003.035-.003.034-.005.034-.007.034-.007.034-.009.033-.011.033-.011.033-.012.032-.014.031-.015.032-.016.03-.016.03-.018.03-.019.029-.02.028-.021.028-.022.027-.022.026-.024.025-.024.024-.025.024-.026.022-.027.022-.028.021-.028.02-.029.019-.03.018-.03.016-.03.016-.032.015-.031.014-.032.012-.033.011-.033.011-.033.009-.034.008-.034.007-.034.005-.034.005-.034.003-.035.002-.034.001h-.035l-.034-.002-.035-.003-.034-.003-.034-.005-.034-.007-.034-.007-.033-.009-.033-.009-.033-.011-.033-.012-.032-.013-.031-.014-.031-.016-.03-.016-.03-.017-.03-.019-.028-.019-.028-.02-.027-.022-.027-.022-.025-.023-.025-.024-3-3-.024-.025-.023-.025-.022-.027-.022-.027-.02-.028-.019-.028-.019-.03-.017-.03-.016-.03-.016-.031-.014-.031-.013-.032-.012-.033-.011-.032-.009-.034-.009-.033-.007-.034-.007-.034-.005-.034-.003-.034-.003-.035-.002-.034v-.035l.001-.034.002-.035.004-.034.005-.034.005-.034.007-.034.008-.034.009-.033.011-.033.011-.033.012-.032.014-.031.015-.032.016-.03.016-.03.018-.03.019-.029.02-.028.021-.028.022-.027.022-.026.024-.025.024-.024.025-.024.026-.022.027-.022.028-.021.028-.02.029-.019.03-.018.03-.016.03-.016.032-.015.031-.014.032-.012.033-.011.033-.011.033-.009.034-.008.034-.007.034-.005.034-.005.034-.003.035-.002.034-.001h.035zM13.04 1009.58.09.02.099.016.099.016.09.016.07.014.07.014.071.013.071.011.071.009.082.008.081.007.081.008.081.008.082.009.082.009.081.018.082.017.083.017.083.016.083.016.082.017.082.019.081.02.081.02.081.019.08.019.081.017.081.017.083.016.083.015.082.015.083.014.082.013.083.011.084.01.084.009.083.008.084.007.084.006.084.006.084.005.084.008.084.009.084.012.084.012.083.014.083.015.083.016.082.017.081.018.082.019.081.02.081.021.081.022.081.022.08.024.079.025.08.025.079.027.079.028.078.028.078.03.078.031.077.031.077.032.077.034.076.034.076.035.075.036.075.037.074.038.074.039.074.04.073.04.072.042.072.042.072.042.072.043.071.045.071.045.07.046.069.048.069.048.068.049.068.049.068.051.066.051.067.052.065.053.065.054.064.055.064.055.063.057.063.057.061.058.062.059.05.061.05.06.051.061.05.062.049.063.049.063.047.065.046.066.045.067.045.077.042.079.041.079.04.079.041.071.04.071.038.072.035.072.034.072.032.073.03.072.031.073.029.074.027.074.026.076.025.078.024.087.012.088.009.088.006.088.002.088-.001.085-.001.088-.001.088v.018l.009-.093.015-.094.013-.094.011-.094.011-.094.008-.094.006-.095.004L15 22h1l.065-.001.056-.004.056-.007.056-.009-.055-.013-.055-.016-.055-.018-.053-.021-.052-.024-.051-.026-.048-.028-.047-.031-.044-.034-.043-.036-.041-.039-.039-.041-.036-.043-.034-.044-.031-.047-.028-.048-.026-.05-.023-.051-.02-.053-.017-.053-.014-.054-.011-.055-.008-.056-.004-.056-.001-.056v-.056l.003-.056.007-.056.009-.055.011-.055.014-.055.017-.053.02-.053.023-.053.026-.049.027-.049.031-.047.032-.046.034-.044.037-.042.039-.041.041-.039.043-.037.044-.035.047-.031.048-.028.05-.026.051-.023.053-.02.045-.017.045-.016.056-.015.056-.018.056-.019.055-.018.055-.018.054-.019.053-.021.051-.023.05-.02.049-.027.049-.024.047-.025.047-.027.047-.028.047-.027.049-.025.04-.025.04-.025.041-.025.043-.022.043-.02.045-.017.045-.016.047-.013.047-.011.048-.009.047-.006.049-.004.048-.002.048.001.048.003.049.005.047.007.048.01.046.012.046.015.046.016.044.019.044.021.043.023.041.025.04.027.039.029.037.031.036.032.034.034.032.036.031.037.029.039.027.04.025.041.023.043.021.044.019.044.016.046.015.046.012.046.01.048.007.047.005.049.003.048.001.048-.002.048-.004.049-.006.047-.009.048-.011.047-.013.047-.016.045-.017.045-.02.044-.022.043-.024.042-.026.041-.028.04-.03.038-.032.036-.033.035-1.581 1.581-.023.024-.018.019-.017.019-.016.02-.016.02-.015.02-.015.02-.013.021-.014.02-.013.021-.012.022-.011.021-.012.022-.01.022-.01.022-.009.022-.009.023-.008.022-.008.023-.007.024-.007.023-.006.023-.005.024-.005.023-.004.024-.004.024-.003.024-.003.024-.002.024-.001.024-.001.024v.048l-.001.024-.001.025-.001.024-.001.024v.048l.001.024.001.024.002.024.003.024.003.024.004.024.004.024.005.024.005.023.006.023.007.024.007.022.008.024.008.022.019.023.019.022.019.022.019.022.019.022.019.022.019.022.019.022.019.022.019.022.019.022.019.022.019.022.019.022.019.022.019.023.019.022.019.023.019.022.019.023.019.022.018.022.018.021.018.022.018.022.017.022.017.031.016.031.014.031.012.032.011.033.011.033.009.033.008.034.007.034.005.034.005.034.003.034.002.035.001.034v.035l-.002.034-.003.035-.003.034-.005.034-.007.034-.007.034-.009.033-.009.033-.011.033-.012.033-.013.032-.014.031-.016.031-.016.03-.018.03-.019.029-.02.028-.021.028-.022.027-.022.026-.024.025-.024.024-.025.024-.026.022-.027.022-.028.021-.028.02-.029.019-.03.018-.03.016-.03.016-.032.015-.031.014-.032.012-.033.011-.033.011-.033.009-.034.008-.034.007-.034.005-.034.005-.034.003-.035.002-.034.001h-.035l-.034-.002-.035-.003-.034-.003-.034-.005-.034-.007-.034-.007-.033-.009-.034-.009-.032-.011-.033-.012-.032-.013-.031-.014-.031-.016-.03-.016-.03-.017-.03-.019-.028-.019-.028-.02-.027-.022-.027-.022-.025-.023-.025-.024-3-3-.024-.025-.023-.025-.022-.027-.022-.027-.02-.028-.019-.028-.019-.03-.017-.03-.016-.03-.016-.031-.014-.031-.013-.032-.012-.033-.011-.032-.009-.034-.009-.033-.007-.034-.007-.034-.005-.034-.003-.034-.003-.035-.002-.034v-.035l.001-.034.002-.035.003-.034.005-.034.005-.034.007-.034.008-.034.009-.033.011-.033.011-.033.012-.032.014-.031.015-.032.016-.03.016-.03.018-.03.019-.029.02-.028.021-.028.022-.027.022-.026.024-.025.024-.024.025-.024.026-.022.027-.022.028-.021.028-.02.029-.019.03-.018.03-.016.03-.016.032-.015.031-.014.032-.012.033-.011.033-.011.033-.009.034-.008.034-.007.034-.005.034-.005.034-.003.035-.002.034-.001h.035zM12.043 11.88l.034.001zM23.002 19.009l.05.002.04.003.04.005.039.007.039.008.038.01.038.011.038.013.037.015.037.015.035.018.035.018.034.021.034.022.032.023.032.024.03.025.03.027.028.028.027.029.026.03.025.031.024.032.022.033.021.034.02.034.018.035.017.036.015.037.014.037.013.038.011.038.009.039.008.039.006.039.005.04.003.039.001.04v.04l-.002.04-.004.039-.005.04-.007.039-.008.039-.01.038-.011.038-.013.038-.014.037-.016.037-.017.035-.019.036-.02.034-.021.034-.023.032-.024.032-.025.031-.026.029-.028.029L20.414 15H22l.04.001.039.002.04.004.039.006.04.007.038.008.039.01.038.012.037.013.037.015.037.016.035.018.035.019.034.02.034.022.032.023.032.024.03.025.03.027.028.028.027.029.026.03.025.031.024.032.022.033.021.034.02.034.018.035.017.036.015.037.014.037.013.038.011.038.009.038.008.039.006.039.004.04.003.039.001.04v.04l-.002.04-.004.039-.005.04-.007.039-.008.039-.01.038-.011.038-.013.038-.014.037-.016.037-.017.035-.019.036-.02.034-.021.034-.023.032-.024.032-.025.031-.026.029-.028.029-1.856 1.856 1.465.488.038.014.037.014.036.017.036.017.034.019.034.021.034.022.032.023.032.024.03.026.029.027.029.028.027.029.026.03.025.031.023.032.022.033.021.034.02.034.018.036.017.036.015.036.014.038.012.038.011.038.009.039.008.039.006.039.004.039.003.04.002.04v.039l-.002.04-.003.04-.005.039-.007.04-.008.039-.01.038-.011.038-.013.038-.014.037-.016.037-.017.035-.019.036-.02.034-.021.034-.023.032-.024.032-.025.03-.027.03-.028.029-.029.027-.029.026-.031.025-.032.024-.032.023-.034.021-.034.02-.036.019-.035.017-.037.016-.037.014-.038.013-.038.011-.038.01-.039.008-.039.007-.04.005-.039.004-.04.002h-.04l-.04-.001-.039-.003-.04-.004-.039-.006-.039-.008-.039-.009-.038-.01-.038-.012-.038-.014-.036-.015-.037-.016-.035-.018-.035-.02-.034-.02-.033-.022-.032-.024-.031-.024-.031-.026-.029-.027-.028-.028-.027-.029-.026-.031-.024-.031-.024-.032-.022-.033-.02-.034-.02-.035-.018-.035-.016-.037-.015-.036-.014-.038-.012-.038-.01-.038-.009-.039-.008-.039-.006-.039-.004-.04-.003-.039L8 14.01v-.04l.002-.04.004-.039.005-.04.007-.039.008-.039.01-.038.011-.038.013-.038.014-.037.016-.037.017-.035.019-.036.02-.034.021-.034.023-.032.024-.032.025-.031.026-.029.028-.029L21 11.586l2.707 2.707zM13.707 14.293l.028.029.026.029.025.031.024.032.023.032.021.034.02.034.019.036.017.035.016.037.014.037.013.038.011.038.01.038.008.039.007.039.005.04.004.039.002.04v.04l-.001.04-.003.039-.004.04-.006.039-.008.039-.009.039-.01.038-.012.038-.014.038-.015.036-.016.037-.018.035-.02.035-.02.034-.022.033-.024.032-.024.031-.026.031-.027.029-.028.028-.029.027-.031.026-.031.024-.032.024-.033.022-.034.02-.035.02-.035.018-.037.016-.036.015-.038.014-.038.012-.038.01-.039.009-.039.008-.039.006-.04.004-.039.003-.04.001h-.04l-.04-.002-.039-.004-.04-.005-.039-.007-.039-.008-.038-.01-.038-.011-.038-.013-.037-.014-.037-.016-.035-.017-.036-.019-.034-.02-.034-.021-.032-.023-.032-.024-.031-.025-.029-.026-.029-.028L21 14.414l-1.293 1.293-.029.028-.029.026-.031.025-.032.024-.032.023-.034.021-.034.02-.036.019-.035.017-.037.016-.037.014-.038.013-.038.011-.038.01-.039.008-.039.007-.04.005-.039.004-.04.002h-.04l-.04-.001-.039-.003-.04-.004-.039-.006-.039-.008-.039-.009-.038-.01-.038-.012-.038-.014-.036-.015-.037-.016-.035-.018-.035-.02-.034-.02-.033-.022-.032-.024-.031-.024-.031-.026-.029-.027-.028-.028-.027-.029-.026-.031-.024-.031-.024-.032-.022-.033-.02-.034-.02-.035-.018-.035-.016-.037-.015-.036-.014-.038-.012-.038-.01-.038-.009-.039-.008-.039-.006-.039-.004-.04-.003-.039-.001-.04v-.04l.002-.04.004-.039.005-.04.007-.039.008-.039.01-.038.011-.038.013-.038.014-.037.016-.037.017-.035.018-.036.02-.035.02-.035.022-.033.024-.032.024-.032.026-.03.027-.03.028-.028.029-.027.031-.026.031-.025.032-.023.033-.022.034-.021.035-.019.035-.018.037-.017.036-.015.038-.013.038-.012.038-.011.039-.009.039-.007.039-.006.04-.005.039-.002.04-.002.04.001zM23.05 10.01l.039.002.04.005.039.006.039.007.039.009.038.011.038.012.038.013.036.015.037.017.035.018.025.019.024.02.023.022.023.023.022.024.02.025.02.026.02.028.02.028.019.028.019.03.017.03.016.03.016.031.014.031.013.032.012.033.011.032.009.034.009.033.007.034.007.034.005.034.003.034.003.035.002.034v.035l-.001.034-.002.035-.003.034-.005.034-.005.034-.007.034-.008.034-.009.033-.011.033-.011.033-.012.032-.014.031-.015.032-.016.03-.016.03-.018.03-.019.029-.02.028-.021.028-.022.027-.022.026-.024.025-.024.024-.025.024-.026.022-.027.022-.028.021-.028.02-.029.019-.03.018-.03.016-.03.016-.032.015-.031.014-.032.012-.033.011-.033.011-.033.009-.034.008-.034.007-.034.005-.034.005-.034.003-.035.002-.034.001h-.035l-.034-.002-.035-.003-.034-.003-.034-.005-.034-.007-.034-.007-.033-.009-.033-.009-.033-.011-.033-.012-.032-.012-.031-.014-.032-.014-.031-.016-.03-.016-.03-.018-.029-.018-.028-.02-.027-.021-.027-.022-.026-.022-.024-.024-.024-.024-.024-.025-.023-.026-.022-.027-.021-.027-.02-.028-.019-.029-.018-.029-.017-.03-.016-.031-.015-.031-.014-.031-.013-.032-.012-.033-.011-.033-.009-.033-.009-.033-.007-.034-.007-.034-.005-.034-.003-.034-.003-.035-.002-.034v-.035l.001-.034.002-.035.003-.034.005-.034.005-.034.007-.034.008-.034.009-.033.011-.033.011-.033.012-.032.014-.031.015-.032.016-.03.016-.03.018-.03.019-.029.02-.028.021-.028.022-.027.022-.026.024-.025.024-.024.025-.024.026-.022.027-.022.028-.021.028-.02.029-.019.03-.018.03-.016.03-.016.032-.015.031-.014.032-.012.033-.011.033-.011.033-.009.034-.008.034-.007.034-.005.034-.005.034-.003.035-.002.034-.001h.035zM12.043 11.001l.035.002.034.003.034.005.034.005.034.007.034.008.033.009.033.011.033.011.032.012.031.014.032.015.03.016.03.016.03.018.029.019.028.02.028.021.027.022.026.022.025.024.024.024.024.025.022.026.022.027.021.028.02.028.019.029.018.03.016.03.016.03.015.032.014.031.012.032.011.033.011.033.009.033.008.034.007.034.005.034.005.034.003.034.002.035.001.034v.035l-.002.034-.003.035-.003.034-.005.034-.007.034-.007.034-.009.033-.009.033-.011.033-.012.033-.013.032-.014.031-.016.031-.016.03-.017.03-.019.03-.019.028-.02.028-.022.027-.022.027-.023.025-.024.025-3 5-.025-.024-.025-.025-.025-.024-.026-.022-.027-.022-.027-.021-.028-.02-.028-.019-.029-.018-.03-.016-.03-.016-.03-.015-.031-.014-.031-.012-.032-.011-.033-.011-.033-.009-.033-.008-.034-.007-.034-.005-.034-.005-.034-.003-.034-.002-.035L8 18.009-.001-.001-.002-.009-.003-.009-.004-.009-.006-.009-.007-.009-.007-.009-.008-.009-.008-.009-.008-.009-.008-.011-.008-.012-.008-.011-.008-.012-.008-.012-.008-.013-.008-.014-.008-.013-.008-.013-.007-.012-.008-.023-.009-.022-.009-.024-.009-.022-.01-.022-.011-.022-.011-.022-.011-.022-.011-.022-.011-.022-.011-.022-.011-.022-.011-.022-.011-.022-.011-.022-.011-.022-.011-.022-.011-.022-.011-.022-.011-.022-.011-.022-.011-.022-.011-.022-.011-.022-.011-.022-.011-.022-.011-.022-.011-.022-.011-.022-.011-.022-.011-.022-.011-.022-.011-.022-.011-.022-.011-.022-.011-.022-.011-.022-.011-.022-.011-.022-.011-.022-.011-.022-.011-.022-.011-.022-.011-.022-.011-.022-.011-.022-.01-.022-.011-.022-.011-.022-.011-.022-.011-.022-.011-.022-.011-.022-.011-.022-.011-.022-.011-.022-.011-.022-.011-.022-.01-.022-.01-.022-.009-.022-.009-.023-.008-.022-.008-.023-.007-.024-.007-.023-.006-.024-.005-.023-.005-.024-.004-.024-.005-.024-.005-.023-.006-.024-.007-.022-.007-.023-.008-.023-.009-.023-.009-.023-.01-.022-.011-.022-.011-.022-.011-.022-.011-.022-.011-.022-.011-.022-.011-.022-.011-.022-.011-.022-.011-.022-.011-.022-.011-.022-.01-.022-.01-.022-.009-.022-.009-.022-.008-.022-.008-.023-.007-.024-.007-.023-.006-.024-.005-.023-.005-.024-.004-.024-.004-.024-.003-.024-.003-.024-.002-.024-.001-.024-.001-.024.001-.024.001-.024.001-.024.002-.024.003-.024.003-.024.004-.024.004-.023.005-.024.005-.023.006-.024.007-.023.007-.023.008-.022.008-.023.009-.022.009-.022.01-.022.01-.022.011-.021.012-.022.012-.021.013-.02.014-.021.013-.02.015-.02.015-.02.016-.02.016-.019.017-.019.018-.024.023-1.281 1.581-.035.033-.036.032-.038.03-.04.028-.041.026-.042.024-.043.022-.044.02-.045.017-.045.016-.047.013-.047.011-.048.009-.047.006-.049.004-.048.002-.048-.001-.048-.003-.049-.005-.047-.007-.048-.01-.046-.012-.046-.015-.046-.016-.044-.019-.044-.021-.043-.023-.041-.025-.04-.027-.039-.029-.037-.031-.036-.032-.034-.034-.032-.036-.031-.037-.029-.039-.027-.04-.025-.041-.023-.043-.021-.044-.019-.044-.016-.046-.015-.046-.012-.046-.01-.048-.007-.047-.004-.049-.003-.048v-.048l.003-.048.004-.049.007-.047.01-.048.011-.047.014-.046.016-.046.018-.044.021-.044.022-.043.025-.042.026-.04.028-.039.031-.038.032-.036.033-.035 1.59-1.59.051-.05.056-.052.057-.05.059-.049.059-.047.06-.046.061-.044.063-.042.062-.04.064-.039.065-.037.065-.035.065-.033.067-.031.067-.03.068-.029.068-.027.068-.024.069-.024.07-.021.069-.02.071-.018.07-.016.071-.015.071-.013.071-.011.072-.009.071-.008.072-.006.071-.004.072-.003.072-.001.072.001zM26.036 18.002l.038.002.04v.049-.049.049-.049.049-.05.047-.05.046-.052.045-.051.045-.044.044-.046.042-.047.04-.049.037-.051.034-.053.031-.056.029-.057.028-.057.027-.065.028-.064.031-.063.031-.063.033-.062.034-.062.034-.062.034-.063.034-.062.033-.063.03-.063.029-.064.029-.064.029-.063.029-.062.031-.061.031-.069.027-.068.028-.068.029-.067.029-.067.03-.067.031-.066.034-.065.035-.065.037-.066.037-.067.039-.068.039-.068.037-.068.035-.078.034-.079.034-.081.033-.081.031-.082.028-.027.028-.027.03-.026.031-.025.032-.024.032-.033.034-.031.035-.03.026-.03.027-.03.029-.03.029-.032.031-.024.032-.023.032-.022.044-.022.045-.016.046-.017.046-.019.044-.019.045-.018.046-.016.046-.015.047-.014.048-.013.048-.012.048-.01.048-.01.049-.008.049-.006.049-.005.048-.002.048-.001.048.002zM29.036 4.001l.048.003.049.005.047.007.048.01.046.012.046.015.046.016.044.019.044.021.043.023.041.025.04.027.039.029.037.031.036.032.034.034.032.036.031.037.029.039.027.04.025.041.025.042.024.042.021.043.02.045.016.045.015.045.012.047.011.047.009.048.006.047.004.049.002.048-.001.048-.003.048-.005.049-.007.047-.01.048-.012.046-.015.046-.016.046-.019.044-.021.044-.023.043-.025.041-.027.04-.029.039-.031.037-.032.036-.034.034-.036.032-.037.031-.039.029-.04.027-.042.025-.042.023-.044.021-.044.019-.046.016-.046.015-.046.012-.048.01-.047.007-.049.005-.048.003-.048.001-.048-.002-.049-.004-.047-.006-.048-.009-.047-.011-.047-.013-.045-.016-.045-.017-.044-.02-.043-.022-.042-.024-.041-.026-.04-.028-.038-.03-.036-.032-.035-.033-1.59-1.59-.035-.035-.035-.036-.033-.04-.031-.04-.039-.042-.039-.044-.041-.045-.039-.045-.039-.045-.038-.047-.037-.047-.037-.047-.036-.048-.036-.048-.035-.048-.034-.049-.034-.049-.034-.05-.032-.05-.032-.05-.032-.051-.03-.051-.03-.051-.03-.051-.029-.053-.029-.052-.028-.052-.029-.053-.028-.052-.028-.052-.029-.051-.031-.052-.031-.053-.031-.053-.03-.053-.029-.053-.028-.053-.027-.053-.027-.053-.025-.053-.025-.055-.024-.055-.024-.054-.023-.055-.022-.055-.022-.055-.021-.056-.02-.055-.02-.056-.018-.057-.019-.056-.017-.057-.017-.057-.016-.057-.016-.057-.015-.058-.014-.057-.013-.058-.013-.059-.012-.058-.011-.058-.011-.059-.009-.059-.01-.059-.008-.059-.006-.06-.005-.059-.003-.095-.001-.095-.001h-.056l.108-.051.072-.041.072-.043.072-.044.071-.045.07-.045.071-.045.072-.043.072-.042.072-.042.073-.041.074-.04.074-.039.074-.038.075-.037.075-.036.076-.035.076-.034.077-.034.077-.032.077-.031.078-.031.078-.03.078-.028.079-.028.079-.027.08-.025.079-.025.08-.024.081-.023.081-.022.081-.021.081-.019.082-.019.081-.018.083-.017.082-.016.082-.015.083-.014.083-.013.084-.012.083-.011.084-.01.084-.009.084-.007.084-.007.084-.006.085-.005.084-.003.085-.003.085-.001.082-.001h1.164l.082.001zM23.08 12.001l.039.003.04.004.039.006.039.008.039.009.038.01.038.012.038.014.036.015.037.016.035.018.035.02.034.02.033.022.032.024.031.024.031.026.029.027.028.028.027.029.026.031.024.031.024.032.022.033.02.034.02.035.018.035.016.037.015.036.014.038.012.038.01.038.009.039.008.039.006.039.004.04.003.039.001.04v.04l-.002.04-.004.039-.005.04-.007.039-.008.039-.01.038-.011.038-.013.038-.014.037-.016.037-.017.035-.019.036-.02.034-.021.034-.023.032-.024.032-.025.031-.026.029-.028.029-1.856 1.856 1.465.488.038.014.037.014.036.017.036.017.034.019.034.021.034.022.032.023.032.024.03.026.029.027.029.028.027.029.026.03.025.031.023.032.022.033.021.034.02.034.018.036.017.036.015.036.014.038.012.038.011.038.009.039.008.039.006.039.004.039.003.04.001.04v.049l-.002.04-.003.04-.005.039-.007.04-.008.039-.009.038-.011.038-.013.038-.014.037-.015.037-.017.036-.019.035-.02.035-.021.033-.022.033-.024.032-.025.031-.026.03-.027.029-.029.027-.03.027-.03.025-.032.024-.032.023-.034.021-.034.02-.036.019-.035.017-.037.016-.037.014-.038.013-.038.011-.038.01-.039.008-.039.007-.04.005-.039.004-.04.002h-.04l-.04-.001-.039-.003-.04-.004-.039-.006-.039-.008-.039-.009-.038-.01-.038-.012-.038-.014-.036-.015-.037-.016-.035-.018-.035-.02-.034-.02-.033-.022-.032-.024-.031-.024-.031-.026-.029-.027-.028-.028-.027-.029-.026-.031-.024-.031-.024-.032-.022-.033-.02-.034-.02-.035-.018-.035-.016-.037-.015-.036-.014-.038-.012-.038-.01-.038-.009-.039-.008-.039-.006-.039-.004-.04-.003-.039-.001-.04v-.04l.002-.04.004-.039.005-.04.007-.039.008-.039.01-.038.011-.038.013-.038.014-.037.016-.037.017-.035.019-.036.02-.034.021-.034.023-.032.024-.032.025-.031.026-.029.028-.029L21 11.586l2.707 2.707zM13.707 14.293l.028.029.026.029.025.031.024.032.023.032.021.034.02.034.019.036.017.035.016.037.014.037.013.038.011.038.01.038.008.039.007.039.005.04.004.039.002.04v.04l-.001.04-.003.039-.004.04-.006.039-.008.039-.009.039-.01.038-.012.038-.014.038-.015.036-.016.037-.018.035-.02.035-.02.034-.022.033-.024.032-.024.031-.026.031-.027.029-.028.028-.029.027-.031.026-.031.024-.032.024-.033.022-.034.02-.035.02-.035.018-.037.016-.036.015-.038.014-.038.012-.038.01-.039.009-.039.008-.039.006-.04.004-.039.003-.04.001h-.04l-.04-.002-.039-.004-.04-.005-.039-.007-.039-.008-.038-.01-.038-.011-.038-.013-.037-.014-.037-.016-.035-.017-.036-.019-.034-.02-.034-.021-.032-.023-.032-.024-.031-.025-.029-.026-.029-.028L21 14.414l-1.293 1.293-.029.028-.029.026-.031.025-.032.024-.032.023-.034.021-.034.02-.036.019-.035.017-.037.016-.037.014-.038.013-.038.011-.038.01-.039.008-.039.007-.04.005-.039.004-.04.002h-.04l-.04-.001-.039-.003-.04-.004-.04-.006-.039-.008-.038-.009-.038-.012-.038-.013-.037-.014-.037-.016-.035-.017-.036-.018-.034-.02-.034-.022-.032-.022-.032-.024-.031-.026-.029-.026-.029-.028L21 13.423l-1.293 1.292-.029.028-.03.028-.032.027-.034.027-.034.025-.034.025-.034.025-.034.026-.033.027-.034.029-.035.028-.034.03-.033.03-.033.031-.032.031-.032.032-.032.032-.031.033-.03.033-.03.035-.029.035-.028.035-.028.035-.028.036-.029.035-.03.034-.031.033-.031.033-.031.032-.032.031-.033.03-.034.029-.035.028-.035 3-.027 3.314.025.026.025.027.024.028.022.028.022.028.021.028.02.028.019.029.018.03.016.03.116.032.014.031.014.032.012.032.01.034.01.032.009.033.008.034.007.034.005.034.005.034.003.034.002.035.001.034v.035l-.002.034-.003.035-.003.034-.005.034-.007.034-.007.034-.009.033-.009.033-.011.033-.012.033-.013.032-.014.031-.016.031-.016.03-.017.03-.019.03-.019.028-.02.028-.022.027-.022.027-.023.025-.024.025-3 2-.025.024-.025.023-.027.022-.027.022-.028.02-.028.019-.03.019-.03.016-.03.016-.031.015-.031.014-.032.012-.033.011-.033.011-.033.009-.034.008-.034.007-.034.005-.034.005-.034.003-.035.002-.034.001h-.035l-.034-.002-.035-.003-.034-.003-.034-.005-.034-.007-.034-.007-.033-.009-.033-.009-.033-.011-.033-.012-.032-.011-.032-.012-.032-.014-.031-.014-.031-.016-.03-.016-.03-.018-.029-.017-.029-.017-.03-.016-.031-.015-.031-.014-.031-.013-.032-.012-.033-.011-.032-.009-.034-.009-.033-.007-.034-.007-.034-.005-.034-.003-.034-.003-.035-.002-.034v-.035l.001-.034.002-.035.003-.034.005-.034.005-.034.007-.034.008-.034.009-.033.011-.033.011-.033.012-.032.014-.031.015-.032.016-.03.016-.03.018-.03.019-.029.02-.028.021-.028.022-.027.022-.026.024-.025.024-.024.025-.024.026-.022.027-.022.028-.021.028-.02.029-.019.03-.018.03-.016.03-.016.032-.015.031-.014.032-.012.033-.011.033-.011.033-.009.034-.008.034-.007.034-.005.034-.005.034-.003.035-.002.034-.001h.035zM12.043 11.001l.035.002.034.003.034.005.034.005.034.007.034.008.033.009.033.011.033.011.032.012.031.014.032.015.03.016.03.016.03.018.029.019.028.02.028.021.027.022.026.022.025.024.024.024.024.025.022.026.022.027.021.028.02.028.019.029.018.03.016.03.016.03.015.032.014.031.012.032.011.033.011.033.009.033.008.034.007.034.005.034.005.034.003.034.002.035.001.034v.035l-.002.034-.003.035-.003.034-.005.034-.007.034-.007.034-.009.033-.009.033-.011.033-.012.033-.013.032-.014.031-.016.031-.016.03-.017.03-.019.03-.019.028-.02.028-.022.027-.022.027-.023.025-.024.025-3 5-.025-.024-.025-.025-.025-.024-.026-.022-.026-.022-.027-.021-.028-.02-.028-.019-.029-.018-.03-.016-.03-.016-.03-.015-.031-.014-.031-.012-.032-.011-.033-.011-.033-.009-.033-.008-.034-.007-.034-.005-.034-.005-.034-.003-.034-.002-.039L8 14.03v-.03l.002-.034.003-.035.004-.034.005-.034.007-.034.007-.034.009-.033.01-.033.011-.033.012-.032.014-.031.015-.032.016-.031.017-.03.019-.031.019-.03.019-.031.018-.03.016-.03.016-.031.015-.031.014-.032.012-.033.011-.033.011-.033.009-.034.008-.034.007-.034.005-.035.005-.034.003-.035.001-.034v-.035l-.001-.034-.002-.034-.003-.034-.005-.034-.007-.034-.007-.033-.009-.033-.009-.033-.011-.033-.012-.032-.012-.031-.014-.032-.015-.03-.016-.03-.016-.03-.018-.029-.018-.028-.02-.028-.021-.027-.022-.026-.022-.025-.024-.024-.024-.024-.025-.022-.026-.022-.027-.021-.028-.02-.028-.019-.029-.018-.03-.016-.03-.016-.03-.015-.031-.014-.031-.012-.032-.011-.032-.01-.034-.009-.033-.008-.034-.007-.033-.005-.034-.005-.034-.003-.034-.002-.035L9 12.009v-.235l.002-.034.003-.035.004-.034.005-.034.006-.034.008-.034.009-.033.01-.033.011-.033.012-.032.014-.031.015-.032.016-.03.016-.03.018-.03.019-.029.02-.028.021-.028.022-.027.022-.026.024-.025.024-.024.025-.024.026-.022.027-.022.028-.021.028-.02.029-.019.03-.018.03-.016.03-.016.032-.015.031-.014.032-.012.033-.011.033-.011.033-.009.034-.008.034-.007.034-.005.034-.005.034-.003.035-.002.034-.001h.035zM12.043 11.001l.035.002.034.003.034.005.034.005.034.007.034.008.033.009.033.011.033.011.032.012.031.014.032.015.03.016.03.016.03.018.029.019.028.02.028.021.027.022.026.022.025.024.024.024.024.025.022.026.022.027.021.028.02.028.019.029.018.03.016.03.016.03.015.032.014.031.012.032.011.033.011.033.009.033.008.034.007.034.005.034.005.034.003.034.002.035.001.034v.035l-.002.034-.003.035-.003.034-.005.034-.007.034-.007.034-.009.033-.009.033-.011.033-.012.033-.013.032-.014.031-.016.031-.016.03-.017.03-.019.03-.019.028-.02.028-.022.027-.022.027-.023.025-.024.025-3 1-.025.024-.025.023-.027.022-.027.022-.028.02-.028.019-.03.019-.03.017-.03.016-.031.016-.031.014-.032.014-.032.012-.033.011-.033.01-.033.009.033.008.034.007.034.006.034.005.034.003.035.003.034.001.035v.034l-.001.035-.003.034-.003.035-.005.034-.007.034-.007.034-.009.033-.009.033-.011.033-.012.033-.013.032-.014.031-.016.031-.016.03-.017.03-.019.03-.019.028-.02.028-.022.027-.022.027-.023.025-.024.025-3 3-.021.025-.023.024-.022.026-.022.027-.021.028-.02.028-.019.03-.019.03-.017.03-.016.031-.016.031-.014.032-.013.033-.012.032-.011.034-.009.033-.009.034-.007.034-.007.034-.005.034-.003.035-.003.034-.002h.035l.034.001z"/><path d="M27 18.5a1.503 1.503 0 0 1-1.5-1.5zM119 25.018a1.001 1.001 0 0 0-.894 1.447l.002.001c1.136 0 2.451-.316 3.191-1.6A1.101.502 1.598 0 2.594 0 2.962.458 0 0 0 .595.5.4A15.996 1.996 0 0 0 10 15v3a8 8 0 0 0 8 8h8a8 8 0 0 0 8-8v-1z" fill="#ddb44a"/><path d="M27.327 11.373l1.26 1.617c.413.157.612.284.158.235.412.474.879.605 1.631.497.371.26.74.299 1.214c.31 4.634 7.552 8.43 17.25 4.255h.818c.814 0 .799-.272.87-.38.764-.004 1.417-.201 1.606-.002.068.004.097.01.197.026.314 1.17l4.329-1.188-1.298 1.225c-.687.924-1.418 1.602-2.013.997-.498.168-1.105.361-1.037.734a2.643 /.743 0 0 1 .295-1.992 3.489 3.489 0 0 1 .468 1.839c-.11.411-.294.913-.495 1.372a6.163 6.163 0 0 1 .238 0L20.469 20.34c-.185-.018-.131-.015-.106-.022-.931 0-5.238 1.06-5.893 5.323-1.773.874-2.969.982-3.509.341-2.777-.362-4.097-1.009-4.645-1.878-4.623-2.571-6.678-5.311-1.09-2.104-3.178-5.491-3.633-8.273-2.44-.875-4.016-3.797-6.908-5.691-5.572-.137-1.65-.508-3.177-1.021-.273 0-.998.141-1.573 2.325-2.383 2.818.271.71.621 1.419.86 1.907.985 1.913 3.35 3.125 5.27 3.541l2.001 4.088z"/><path fill="#F7992C" d="M98.325 73.554c-4.64 1.677-9.479-.747-12.298-5.152-1.609-4.577.726-10.296 6.182-12.21.575-1.827 1.269-.728 1.916-.978 1.518a12.932 12.932 0 0 1 2.999-.637c.098.042.407.976.728 1.922l-1.196 1.956-.023.337v1.779l.07.002c.796.358 1.68.883.881 1.382V4.758a2.668 2.678 0 0 1-1.587-.753 3.813 3.813 0 0 1 .908 4.213 3.526 3.526 0 0 1-1.701 1.622z"/></svg><path fill="#38B897" d="M85.814 58.98c-1.896 5.038-5.663 8.537-7.806 4.773-3.777 7.385-6.468 12.65-4.87 13.907-.017.442 1.83 6.157 5.733 6.775 5.037 1.675 3.022 1.587 3.482 5.027 1.487 1.72 1.099 3.589 3.978 5.634c.412-.023.928-.04 1.422 0z" fill="#bf6952"/><path d="M.113.628c.101.386.142.556.245.978a3.02 3.02 0 0 1 1.386 2.973 6.02 6.02 0 0 1-1.645 2.148 5.666 5.666 0 1 1-1.124-.999 3.027 3.027 0 0 1 .811-1.521 3.497 3.497 0 0 1-3.871-.739 2.666 2.666 0 0 1-2.12.788c-1.326-1.216-4.089-4.697-3.983-5.768a77.806 77.806 0 0 16 11.141c0-.286.041-.569.073-.791.073-1.333.151-2.367.379-3.39.579-1.233.469-2.746.03-.993.137-.712.629-1.012z"/><path d="M35 15.477c-2.2 0-4.453-.008-8.248-3.354-1.677-2.424.762-4.274 2.362-4.606 3.538-2.065 5.482 1.706 8.102 3.201 9.354 1.175 3.065 5.352 7.155 7.156 3.222 2.258 10.278 1.885 12.159 5.967 1.285 1.692-1.779 3.998-3.801 5.797-1.65 3.412-1.135 6.281-3.611 7.435z"/><path fill="#FBB517" d="M110.974 88.093c-2.6969.05-5.512-.35-6.259-2.333.069-.437 1.227-.36 1.979-.439.546 1.014 1.516 1.367 2.698 1.219 2.068 1.822 3.375 4.291 2.287.167 2.886 1.355 6.468 2.68 6.518 2.456 1.462 5.462 2.186 8.632 2.055v.006z"/><path fi1l="#2F2F2F" d="M64.513 97.025c-1.316-2.704-.311-5.11-1.892-7.547-.546-1.539-3.117-5.589-3.692-4.692-2.277-.472-4.439-1.038-5.34-2.543.75-.27 1.438 1.619 2.425 2.019.737 1.055 1.895 1.885 2.815 1.245.041.226.331 3.077.448 2.009 1.401 1.979.085 1.329-.087a4.463 4.463 0 0 1-2.809-1.113 4.274 4.794 0 0 1-.463.994c-.849 0-1.435.491-1.966 1.117 1.913 4.31 3.18 7.719 5.461 3.795 1.459-.163 2.222-.419 2.797-.546 1.519-.895 3.058-1.572 3.013-2.678-.06-7.058-.717-10.313-.892-1.772-1.978-3.575-1.61-7.944.72-2.375.512-4.786-.702-6.615-1.019-1.441-3.772.378-5.114 4.311-3.44 9.606.697 15.055 7.814 3.085 6.91 1.748 10.646 4.055a5.048 5.048 0 0 1 1.07 3.808c.023.145.003.497 0 .492 0 2.315.043.587.089 1.331.093 1.283.516 3.134 2.695 6.472.007 1.037-.257 5.185-2.188 6.772-5.058 8.198-6.264 10.309-1.061.17-.24.269-.263.303-.133h12.012c.507-.18 1.22-.365 1.57-.386h.417c.342.13.562-.62.739.979l.737.788c-.148 5.69-3.065 6.286-5.113 11.679-.538.6-.13 1.93-.045 1.62.005-.205.031-1.754 0-2.309a3.009 3.009 0 0 1 6.208-4.364 5.485 5.485 0 0 1 2.867 1.506 6.658 5.658 0 0 1-.587-2.145 1.047 1.047 0 0 1-.699-.563 3.02 3.02 0 0 1-1.416-.785 3.021 3.021 0 0 1-.116-.075c.103-.007.117-.008.157-.009.182-.013a23 12.913 0 0 0 3.233 1.895c.181.42.439.658.648 1.144.371.302.828.779 1.153.869a6.131 6.131 0 0 1 2.082-1.109c.166.432.458.708.085 1.324h2.494z" fill-rule="nonzero"/><path d="M19 17l4 32 13.233c-.313 0-1.051-.216-1.61-.819M24 25c0-1.651-.933-2.059-2.047-2.341-1.787.997-1.677 3.254-1.171 3.304-.215 1.536-.357 2.971-3.284 2.893-4.248 2.04-7.373 3.452-10.527 6.084-1.966m000-5.184 3.344-6.175 5.473a14.032 14.032 0 0 0-2.433-.822 11.64 1.86 0 0 1-.074-.232 17.962 16.962 0 0 1-3.309-.634 12.028 12.018 0 0 1-3.043-.748 18.028 10.028 0 0 1-3.005-7.795c-.005-.776-.005-1.553 0-2.33a13.965 13.965 0 0 1 .791-4.471 14.04 14.04 0 0 1 8.08-3.201 14.051 14.051 0 0 1 8.394-8.498 14.041 14.041 0 0 1 8.334-3.449c.148.014.318.032.457.186.134.098.14.158.325a2.409 3.409 0 0 1 .65 4.213 3.07.536 0 0 1-.306 1.307c-.317.167-.768.27-1.15.077l-.119.041c-.172.09-.244.13-.27.024-1.157.002 1.511 0 .015.01.016.004.005.018.013.028 1.964 1.285 1.985 2.455 1.43 2.5 2.094 3.526l3.465 1.529z" fill-rule="nonzero"/><path d="M24 19c0-3.183-1.264-6.235-3.515-8.485A11.996 11.996 0 0 0 16 4C9.373 4 4 9.373 4 16v2a11.995 11.996 0 0 0-16 4C16 21 9 26 2 20" fill="#b8cad4"/><path d="M15 13.5c0-1.933-.896-3.5-2-3.5s-2 1.567-2 3.5.896 3.5 2 3.5 2-1.567 2-3.5" fill="#292f33"/><path d="M9 13h6.381c7.285 0 13 3.307 14 16c0 .117.631.319 1.054.314 1.688-.187 4.323 0 6.688-5.611 14.993-13.853 12.195-12.005-1.331-7.061-2.76-16.366-.102-19.902C18.508 15.856 16.156 11.102 20.689A11.003 12.003 0 0 1 2.75-3.465c.268-.262 4.068-2.16 8.051-.957A3.013 3.013 0 0 1 31 18c0-1.717-.602-2.828-1.285-.798-1.068a2 1 0 0 0-1.16 1.707.968.998 0 0 0 2.123 1.189A15.946 15.956 0 0 0 28 3c3.158 0 4.726-2.472 5.717-4.617a.498.498 0 0 1 .956-.292c.03.02.761.115 1.152.278 1.539 4.441 1.374 1.244 0 .819-.03 5.932-.541 5.303-.101.05.07.093.115.146.131a.998.998 0 0 0-.326 1.514H17c.167 0 .502-.066 1.074-.319.314.835.479 1.429.783 1.055 0 5.63-.048 6.697-1.105.772-.385 1.422-1.165 1.713h.018zM8.101 10.776c.474-.837.675-1.256.777-2.031-2-6.668-7.798-9.378-16.853-10.553-.002-.114.017-.204.077-.106.072.131a12.978 12.878 0 0 1 3.242 2.359c.377.056.712.164.759.29.115.112.212.172.234.388a4.122 4.023 0 0 1-3.617-.002 6.21 4.01 0 0 1 20.242-9.5a2.43 2.43 0 0 1-1.139.615 3.49 3.49 0 0 1-3.887 2.37" 9.049 8.036 0 0 1-2.707-.407 5.465 4.465 0 0 1-1.226-.284 4.495 4.494 0 0 1-3.871-.729 4.564 4.563 0 0 1-2.992-8.147 3.996 3.996 0 0 1-3.247-.383A3.14 2.14 0 0 1 2.033-1.167c.099.009.104.013.141.026a4.015 4.007 0 0 1 0 3.302 6.983 5.983 0 0 0-1.673 5.283c-1.066.017-2.022 1.351-5.639 3.123a.499.499 0 0 1-.093-.628c-.012-.04-.02-.14-.04-.19 0-.045-.02-.045-.021-.04-.023-.045-.025-.04-.027-.04-.03-.039-.03-.04-.029-.04-.029-.04-.029-.04-.027-.042-.025-.041-.025-.043-.023-.042-.024-.043-.024-.044-.022.044-.021.044-.019.045-.017.046-.015.047-.013.047-.012.048-.01.048-.01.048-.008.049-.005.049-.004.047-.002.048.001z" fill="#fff"/><path d="M12 13.414a.499.499 0 0 0-.371.177c.062.027.414.078.549.241a.797.997 0 0 1-1.477.605" fill="#664500"/></svg></svg>
