<svg xmlns="http://www.w3.org/2000/svg" viewBox="0 0 128 128"><path d="M100.5 72.62c-.92 0-1.81-.91-1.95-2.31l-6.8-1.77c-1.12-.73-1.89-1.73-.97-2.96 0-1.66.28-2.61.83-3.77 1.78-6.38 3.27-11.78 3.72-16.05.08-3.72 1.71-5.14 6.32-7.44 11.12-1.77 3.4-.87 6.07-.17 9.69.64 9.65 2.14 28.45 5.54 39.4 2.24 3.54.52 7.78 1.4 13.31 1.29 3.45.11 6.53-1.43 9.8-2.23.2-.46.47-.78.7-1.1.28-.33.6-.67 1.21-1.25.62-.61.98-1.3 1.59-1.25.93-.53 1.87-.88 2.77-.7l19.38 17.96 14.12-.17c.23.02.85.04.95.03l.02.01c.27 0 .4-.21.65-.45l.63-.2c-.09.33-.33.51-.37.58-.5 1.16-.81 2.53-1.28.4-.36.83-.6 1.21-.81.79-.53 1.38-.73 2.01-1.1-.08-2.55-.36-4.27-.04-4.91-1.01-8.15-2.06-8.33-3.92 0-.93.18-1.8.33-2.51 1.16-.83 2.79-.18 4.12-.84.83 0 1.36-.34 1.92-.77.38-.3.96-.57 1.33-.9.44-.32 1.39-.67 3.04-1.05 1.15-.45 3.51 1.05 5.51 2.23 1.1.37.36.31.35.58.56 1.06.47 2.06-.52 2.57-1.28 3.09-4.85 2.97-9.57a3.23 2.33 0 0 1-3.45-.05l-1.66-.36-3.2 3.51-1.72 5.41 1.13 12.05M10.34 30.44-.08h-5.49c-.54-1.29-.26-2.14.52-3.24 1.11-9.87 12.13-11.63 17.68z" fill="#fcc21b"/><path d="M64 6.57c-4.11 0-6.51-3.04-7.7-7.09s-.03-5.59 3.04-7.55 10.14c-.47 4.7 .2 6.74 3.51.7 4.21-1.34 8.26-5.02l8.06-3.56c1.27-.29 2.84.52 3.31 1.42 1.61 1 3.6-1.16 5.32-3.68 4.91-7.18 3.65-9.07 5.14-11.5 1.31-1.71 5.11-3.78 8.21-3.46 13.94z" fill="#fcc21b"/><path d="M34.94 95.02c.29 2.11-.73 4.53-1.46 5.56-.7.96-1.21 3.45-1.18 4.29.48.65.92.61 2.4-.29 2.78-.22 3.42-1.58 7.37-2.39 12.38-2.46zM47.72 82.26c.53-.15 1.31-.32 1.69-.39.15.02 1.83.48 3.26.66 1.6.4 2.92 1.1 4.68 1.15-.42.01-.85.14-1.1 0-1.11-.39-2.16-.43-3.28-.18-1.06.03-2.29.04-3.39.05-1.08.04-2.62 1.07-2.79 2.06-.25.18-.48.42-.79.8-.02.19-.06.38.08.53.08.05.09.14.23.22.36.05.44.1.33.21.37.3.88.32.57.28.67.26 1.17.21.38.1.7.12.99.11.35.09.8.15 1.34.28.26.03.38.04.57.01 1.06.09 2.52.07 4.7-.14 6.49-1.27 11.62-1.18 5.21-.34 8.84-.89 1.92.69v3.15h-.08c-.12-.17-1.75-3.68-10.33-5.08-7.47 4.37-11.34 11.3-13.54 19.14-1.75.81-3.94.4-5.95-.79-2.17-1.64-.89-3.74-.76-7.71 1.52-6.67 9.36-7.63 14.01-1.98 9.04 4.05 14.02 5.44 33.47 2.2 7.56 7.19 14.78 9.53 21.13 9.51 3.89 17.77 13.63 18.43 20.56.09.78.76 1.34 1.27 2.07.93 1.57 1.24 3.16 1.93 4.88 1.31 3.33 1.37 7.44.35 11.74-1.71 3.61-4.59 2.06-8.2-1.15-2.54-1.38-4.73-2.78-4.68-7.19zM101.45 59.09c-.35-2.71-.41-6.39.41-9.36.93-1.64 1.71-3.26 3.47-4.57 1.01-1.52 2.33-2.16 4.12-4.02 6.66-6.19 2.31-14.41 1.75-19.89 1.61zm-5.09-5.32a1.039 1.039 0 0 1-.73 1.78c-1.75.65-3.23-1.11-4.3-1.94-1.02-2.07-2.3-3.22-3.55-3.65C48.5 25.23 25.3 43.91 24.32c-1.28-.67-1.57-3.58.43-6.82 1.54-7.7 7.88-6.37 14.71 2.57z" clip-path="url(#d)" fill="#b4e30"/><g><defs><path id="a" d="M125.94 40.25c-12.33 5.08-18.34 14.66-28.67 13.31-7.4 16.85-18.84 3.84-25.79 2.21z" cfil-rule="evenodd" stroke-linejoin="round" stroke-linejoin="round" stroke-linejoin="round" stroke-linejoin="round" stroke-miterlimit="10"/><path d="M-64"-88.06-83.8C"/></defs><clipPath id="b"><use xlink:href="#a" overflow="visible"/></clipPath><path d="M75.25 82.73c-.55-6.77 6.3-8.94 62-9.64 11.44 4.31 25.21 18.4 47.48 0 42.71-8.04 51.23-19.94 5.61-5.75 8.55-10.56 15.71-3.39 21.79 2.09 5.34 8.89 5.77 14.25-.99 1.71-1.42 3.16-2.12 5.59-2.04 12.42 1.88 22.75 12.99 2.92 10.84-.53 17.78-2.82 15.72-3.44 4.34-1.78 7.46-3.09 10.41-3.21 6.54-.61 9.98-5.02 14.07-5.38.85-1.45 1.03-3.11 1.5-4.62-1.31-4.73-2.37-9.08-3.68-13.48.64-3.11 3.99-4.05 12.9-.22.29.53.71 1.12.21 1.73zM73.25 54.17c-.36-.11-.69-.27-1.04-.31-.46-.09-.99-.14-1.47-.44-7.43-5.11-15.1-11.01-16.53-5.64-5.98-3.11 13.78-1.16 20.49 5.37 4.08 13.55 2.9 18.65 2.34.36-.01.8-.33 1-.27 0 5.23-1.34 11.91-11.97 13.56z"/></g><use xlink: r="6" cx="10.839" cy="66.81" r="2.5" fill="#e06055"/><defs><path id="1" d8"M98.83 75.58c-23.18-.13-34.31-14.9-59.02-24.08C-1.27 64.46 2.4 8.58 5.53z" f9a79.42 8.28z" 0 0 0-21.02 8.03c-2.25-.08-4.76-1.78-8.24-5.27.4-1.27 2.48-1.82 4.49-1.01 1.23-.48 2.14-1 .8.45-2.49-1.46-2.31-1.84-4.06-2.76-1.4-1.45-2.02-3.02-2.69-30.03-3.01-5.49-9.17-9.48-10.61-12.83-8.78-8.52-13.96-16.05-14.49-21.72 2.54-20.25 28.07-30.52 21.08-4.66 3.83.6 10.42 5.48 15.46 6.45 1.31.54 1.77 1.71.16 1.45-1.44 9.71-6.37 17.85-5.62 15.89-.38 21.82 2.94 31.07 12.94 1.58 5.39-.83 10.99-5.71 12.33z"/><path fill="#FAAC22" d="M69.61 97.18c6.43 4.63 19.65 8.37 22.79 9.23 2.69.53 5.25-1.13 7.55-2.8 2.48-2.01 3.59-4.37 4.19-8.16 1.31-2.71 1.03-4.85.01-5.07 0-5.01-2.37-7.75-7.23-9.95-2.4-1.92-4.37-3.61-6.79-4.95-2.67 0-5.04 1.76-5.53 2.74a2.633 2.732 0 0 1-3.87.16c-1.16-.39-1.79-1.89-.99-2.97l2.43-17.76c.11-.39.52-.54.77-.89c.03.02.45.03.7-.32.98-.61 1.49-.65 2.2-1.11 3.16-.58 5.93-1.31 7.02-2.61 1.4-.81 2.72-1.35 3.82-1.55 1.31-.67 2.75-.41 3.65-.55 1.57-.39 3.54-1.08 3.22-1.14.05-.16.06-.3.11-.5.37-.26.21-.46.33-.68.51 0 .18.03.34.06.41.06.11.21.26.09.06v.61l8.97-1.37-10.38 9.89c-.97.95-1.84 1.06-2.78 1.87-.12.1-.17.25-.38.41-.92 5.93-4.51 1.2-11.4 1.35-14.2z"/><path d="M123.52 93.98a2.67 2.67 0 0 1-2.65 2.46c-.74 1.16-1 2.35-2.31 1.47l.36.36c5.39-2.15 5.01-6.85 5.03-7.68z"/><path fill="#ED6C30" d="M60.4 104.95c-.51.13-1.58.28-2.61.18-2.42.02-5.69.06-10.92-.31-3.64.01-6.29.39-9.3.52-4.12-.9-7.61-.81-10.49-.72-3.13-1.14-6.79-.11-9.64-.43-3.54 1.45-8.22 1.97-9.52 1.64-3.67 5.24-5.08 10.19-.91 4.72 2.56 3.88 9.3.38 16.5z"/><path fill="#F9A723" d="M29.36 88.21c-4.15 6.82-11.87 12.14-16.51 13.25z" fill="#e59c25"/><path d="M63.99 73.06c.07 1.11.98 2.71 2.16 2.72l48.92 9.82c-.25.41-.52.73-.84 1.32-.47.33-.9.93-1.38 1.44-.07.01-.1.01-.11.01-1.52.01-2.72.06-3.42 0-1.67.02-2.82.06-4.48-.31-7.38-1.53-10.18-4.89-10.49-.62.69-1.04 1.91-1.27 2.54-.01.06-.05.1-.07.12-.07.23-.14.52-.16.6-.01 1.64-.9 2.08-.2.08-.2.18-.23.21-.42.28-.8.59-1.29 1.11-.74 2.58-.67 3.6.62l10.87 10.97a1.044 1.044 0 0 1-.66 3.01L7.59 9.31c-.31-.16-.78-.2-1.17-.18-.95-.32-1.94-.56-2.73-.86-1.77-.83-4.15-1.86-5.93-2.8-.78-.79-1.56-1.59-2.17-2.31a68.82 68.88 0 0 0-1.8-5.45 9.833 9.833 0 0 0-2.97-3.15zm-5-5-3-8-10.31-5.83-30.56-10.63-30.27-5.42-5.42 20.63-15.25 52.42 0 34.28-2.82 38.04-14.96 3.44-10.08 4.64-24.73 4.83a2.738 2.738 0 0 1-3.35-1.7c-1.43 0-2.77.26-3.92.54-2.58 1.94-5.14 6.42-3.71 8.19.1 1.91 1.38 2.44 3.15 1.6 9.27-.07 13.38-7.59 16.84-21.39 2.66-5.37 4.14-10.23 8.34-10.12 1.24 2.64 2.54 3.43 4.48 3.04 1.54.87 3.12 3.36 2.28 5.71-.16 2.64-1.45 4.55-2.17 7.75-3.05 1.4-.65 3.52-1.13 5.03-1.17 1.67-1.27 3.09-3.48 5.72-2.58 1.87-4.29 2.68-9.4 2.58-4.12 0-7.39-3.71-7.37-7.5 0-4.58 3.1-5.86 7.29-7.25 9.82-2.55 3.24-11 5.72-16.36 1.02-5.34-1.13-9.05-6.48-13.3-1.72 0-5.38.11-5.91.3-2.72 1.74-3.08 4.82-3.06 7.12-.77 0-5.48-1.16-5.3-1.35-2.15-.1-5.04.28-9.2.29-1.66.53-2.47.69-4.13-.06-1.17-.35-2.54.33-3.52 1.11-.21.32-.26.65-.24.86-.41.59-.39 1.19-.47 1.72-1.05 3.22-1.14 6.78-.69 8.38-.74 7.54-.6 13.48 1.54 18.69 17.94 17.17 3.59 17.35 6.14 31.41 3.63 15.49z"/><path fill="#F79329" d="M125.08 92.17l-10.3-1.86c.31-1.64.52-3.3.63-4.98l9.81-1.46a2.14 2.14 0 0 0 1.8-2.42 2.134 2.233 0 0 1-1.93-2.43c-.66-.24-1.37-.3-2.29-.04-1.37-.14-2.73-.78-4.28-.98-7.01.31-13.85-3.5-14.67-5.6-11.1-1.12-2.27-2.26-2.36-4.89-.82-3.38-1.03-7.05.28-9.35.32-2.63.38-6.31-.02-8.45-3.79-8.44-10.62-11.64-23.34-13.91-41.48-.69-10.76 1.95-24.77 2.43-1.3-.08-2.17-.33-4.07-.32-8.31-5.61-30.03-8.24-30.96-.45-.79-.79-.99-1.57-.79-.91.59-1.27 3.44-.96 4.29 3.41.7 9.39 1.97 16.69 5.78 5.58 5.09 12.19 10.55 17.3 15.56s24.89 1.22 14.83-14.35 29.62z" fill="#fff"/></defs></svg>
