<svg xmlns="http://www.w3.org/2000/svg" viewBox="0 0 128 128"><path d="M100.5 72.62c-.32-5.7 6.31-7.66 12.17-7.52 12.04-1.1 2.81-3.3 8.3-5.4 1.57zM84.07 75.55c4.48-7.42 6.24-18.04 8.52-20.24l-3.49 1.82c-1.65.12-2.97-.2-3.85-.76-1.65-.86-2.49-1.74-2.98-2.88-.47-1.2-1.5-2.54-1.77-4.05-.16-.19-.79-.31-1.26-.41-.36-.1-.77-.18-.92-.31-.11-.02.06-.05.11-.07 1.63-1.86 2.23-3.78 2.85-5.31.95-2.04.52-4.68-1.01-5.93-3.69-1.37-12.37 2.09-12.16 3.59-.72.83-1.27 1.72-1.79 2.33-.43.97-1.03 1.69-1.57 1.59-.31.16-.63.3-.9.17-2.38.54-3.78 1.18-5.52 3.54-.96 1.81.74 3.39 1.43 4.06.97 1.27 2.41 2.56 3.34.58.69.96 1.31 1.25 2.07.37.67.49 1.38.7 1.31 1.17.59 2.05 1.29 2.52 1.87.74.63 1.52 1.32 2.57 2.7.6.14.27.34.85.63 1.22.18.43.45.85.71 1.32.29.4.75.71 1.11.81.13.02.25.04.38.09 1.09.66 3.39 1.33 4.07 1.09 4.89 1.19 13.36 2.71 11.93 3.85 2.42 1.78 4.62 3.56 7.93 3.16 3.43-.82 5.3-3.33 5.95-6.96.82-3.29-2.51-5.08-7.18-4.09-5.3 1.61-6.75 6.42-5.09 8.64 0 .48 3.3 2.54 5.06 7.33 1.87 2.32 1.74 5.22-.17 10.35-.64 17.16 6.55 15.65 8.53 20.57z" fill="#2f2f2f"/><g><path d="M86.84 73.78c-.57 0-1.13-.49-1.46-1.38-.37-1.15.35-2.42 1.18-2.18 9.09-6.41 2-.95-4.17-5.32-6.8a2.95 2.95 0 0 1 3.35.36c.23.42 6.85 7.47 7.61 10.33 3.88 1.47-.04 3.22-1.07 4.97-1.71a68.986 58.987 0 0 0-2.92-2.58zm-5.46-17.66c-.12-.05-.38-.13-.5-.25l-68.3-1.47c-.77-2.62.25-5.35.87-7.07 0 3.46-1.55 7.14-2.38 8.58zm50.5-4.94c-.27-.01-.47-.08-.61-.12-8.81-5.43-20.17-14.07-31.21-11.94 0-20.99 11.1-31.69 14.25-14.71.31-25.32-7.52-28.48-10.71-3.3-3.2 1.04-12.35 1.96-17.37 4.55-6.73 12.31-8.38 25.44-5.75 19.54-2.63 30.48 1.57 48.57 4.54 35.25-5.1 5.81-56.3 3.89-39.51-2.33-4.82-9.71-3.42-14.42 1.96-11.98 5.35-5.43 12.14-4.77 13.64-.53 1.01 1.15 1.54 2.34 1.86 2.56 1.55 5.75 3.29 7.49 4.12 3.08.83 5.07.53 7.96-1.21 1.79-1.18 2.44-2.89 3.23-3.62 3.41-7.51 3.38-16.75.01-24.26-.01-.4-.02-.72-.12-1.02-.63-.47-1.25-.93-1.79-1.1a17.029 17.029 0 0 0 6.59 1.73h15.79c1.52-1.35 3.12-1.75 3.82-2.63l6.12 1.56c.23.02.46.08.69.13l.76.15c.11.01.21.03.33.03.11.05.14.05.21.07.01.01.01-.05-.01.01-.01.01-.03 0-.03.01-.06.01-.1.21-1.61-2.53-9.59-5.93-16.52-5.49-5.71-.81-13.45-1.26-19.25-1.6-1.38.5-2.49 1.04-3.48 1.61-.92-.02-1.88-.27-2.83-.86z" fill="#ed6c30"/></g></svg>
