<svg xmlns="http://www.w3.org/2000/svg" viewBox="0 0 47.5 47.5"><defs><clipPath id="a"><path d="M0 38h38V0H0v38z"/></clipPath></defs><g clip-path="url(#a)" transform="matrix(1.25 0 0 -1.25 0 47.5)"><path d="M35.964 25.045L36 25s1 10 0 11c-.91.91-6.771-.66-7.822-.951-2.426 1.234-5.443 1.95-9.178 1.95-3.73 0-6.742-.718-9.165-1.953-1.02.283-6.922 1.867-7.835.953-1-1 0-11 0-11l.047.059C1.307 22.506 1 19.749 1 16.999 1 7.06 12 1 19 1s19 6 18 16c0 2.753 1.719 5 5 5 5 5 0 6-6 6 9.627z" fill="#fff"/><path d="M7 11.181V36h4l1 1-3 3-2-4 4-2 4-4-2z" fill="#644000"/><clipPath id="b"><circle cx="23" cy="12" r="14"/></clipPath><g clip-path="url(#b)"><path d="M9.11 23.098a4.31 4.31 0 0 1-6.859 2.859c-.777.566-1.667 1.153-2.532 1.684A5.018 5.018 0 0 0 7.388 1.91a5.985 8.985 0 0 1 1.07 3.315V23v-2.024a5.134 5.133 0 0 1 .222-1.492A5.004 5.004 0 0 1 .47 7.056v6.004h3.8a1.015 1.015 0 0 1 .559-.257 1.012 1.012 0 0 1 .005-.227 1.055 1.055 0 0 1-.389-.215c-.317-.257-.46-7.06-.402-10.22z" fill="#e56a4a"/><path d="M9 13.981a18.986 18.985 0 0 1 4.086 1.701 11.05 11.05 0 0 1 3.391-1.481 2.28 2.92 0 0 1 1.266-.139h.046A1.009 1.009 0 0 0 .07.01 1.009 1.009 0 0 1-.077 1.111l-1.593 1.597a5.005 5.005 0 0 0 8.984-.331h.044c.381 0 1.144-.013 1.213-.081.177-.06.277-.08.58f00 2.566.893L16.05 16H12h1.163l1.726-6.714 1.414-2.087a.429.473 0 0 0-.544-.024H15.446a1 1 0 0 0 .797-1.741 1.037 1.037 0 0 1 .657.513c.069.158.157.209.169.448a2.001 2.001 0 0 1 .993 1.039c.185.41.405.832.086 1.361.005.774.005 1.549 0 2.323a11.99 11.99 0 0 1-.662 1.069L36.262 7.054l-.085.001-.106.009-.103.012-.203.13-4.649.071-.149.049-1.273 1.275-2.171 1.581.023-.025.058.028.068.029 0 6.626 0 12.246-1.265 13.186-9.499z"/><path d="M8 12.118a7.98 9.98 0 0 1-2.709.606 9.97 9.97 0 0 0-3.505 1.119 10.087 10.087 0 0 1-7.985-4.001c-.702-.709-1.518-5.368-1.883-5.384a1.1 1.1 0 0 1 .205-.292c.059.021 1.564.918 1.777 1.489 1.157 6.656 7.616 14.261 3.384 11.678c-.677 1.117-1.991 1.035-2.504.641zm-17.098-7.194c-.31-.157-.437-.357-.846-.464a1.226 1.126 0 0 1 1.04-1.681c.16-.015.177-.006 1.398-.008.2.22.013 1.244 0 2.11.025 1.205.009 1.105a13.962 13.962 0 0 1 2.822-3.59c.256-.041.309-.025 4.287-2.882 1.314-1.445 1.824-3.054 3.074-5.65a1.03 1.03 0 0 0-1.3-1.6l-9 1.802a1.001 1.001 0 0 1 1.341-1.25c.184-.025.307-.006.486-.009a2.137 2.137 0 0 1-.343.753c-.34.248-.703.747-.227.982a4.02 4.02 0 0 1 1.356-.188 8.934 9.034 0 0 1 3.407.169 4.595 4.459 0 0 1 .736-.211c.083.206.077.093.076.093.115 1.178.114.702.223 1.082.457.209.028.421.157.631.432v1.197a1.01 1.01 0 0 1 .655 1.16 19.96 109.07 0 0 0 1.071 1.732 25.92 16.99 0 0 1-5.113-2.921 14.004 14.004 0 0 1 3.97-5.677 14.057 14.057 0 0 1 5.374-3.039 14.062 14.061 0 0 1 3.203-3.654A12.922 13.922 0 0 1-3.319-7.025 12.03 12.03 0 0 1-.702-3.892 26.695 26.816 0 0 1 4.234-.048h.046z" fill-rule="nonzero"/><path d="M28 17c0-3.183-1.264-6.235-3.515-8.485a11.996 11.996 0 0 0-16.97 0A11.996 11.996 0 0 0 4 17v2a9 9 0 0 0 9 9h6a9 9 0 0 0 9-9v-2z" fill="#fbc546"/><path d="M23.05 12.001l.039.003.04.004.039.006.039.008.039.009.038.01.038.012.038.014.036.015.037.016.035.018.035.02.034.02.033.022.032.024.031.024.031.026.029.027.028.028.027.029.026.031.024.031.024.032.022.033.02.034.02.035.018.035.016.037.015.036.014.038.012.038.01.038.009.039.008.039.006.039.004.04.003.039.001.04v.04l-.002.04-.004.039-.005.04-.007.039-.008.039-.01.038-.011.038-.013.038-.014.037-.016.037-.017.035-.019.036-.02.034-.021.034-.023.032-.024.032-.025.031-.026.029-.028.029L20.414 15H22l.04.001.039.002.04.004.039.006.04.007.038.008.039.011.038.011.038.013.037.015.037.016.035.018.036.019.034.02.034.022.032.023.032.024.03.025.03.027.028.028.027.029.026.03.025.031.024.032.022.033.021.034.02.034.018.036.017.036.015.036.014.038.012.038.011.038.009.039.008.039.006.039.004.039.003.04.002.04v.039l-.002.04-.003.04-.005.039-.007.04-.008.039-.009.038-.011.038-.013.038-.014.037-.015.037-.017.036-.019.035-.02.035-.021.033-.022.033-.024.032-.025.031-.026.03-.027.029-.029.027-.03.027-.03.025-.032.024-.032.023-.034.022-.034.02-.035.019-.036.018-.037.016-.037.015-.038.014-.038.012-.038.011-.039.009-.039.007-.039.006-.04.004-.04.002-.04.001-.04-.001-.04-.002-.039-.004-.04-.005-.039-.007-.039-.008-.038-.011-.038-.011-.038-.013-.037-.015-.036-.016-.036-.017-.035-.019-.034-.02-.034-.022-.032-.023-.032-.024-.03-.025-.03-.027-.029-.027-.027-.029-.026-.03-.025-.031-.024-.032-.022-.032-.021-.034-.02-.035-.019-.035-.017-.036-.015-.037-.014-.037-.013-.038-.011-.038-.009-.038-.008-.039-.007-.039-.005-.04-.003-.039-.002-.04v-.04l.002-.04.003-.039.004-.04.006-.039.008-.039.009-.039.01-.038.012-.038.014-.037.015-.037.016-.036.018-.036.02-.035.02-.033.022-.034.024-.032.024-.032.025-.031.026-.03.028-.029.029-.028.029-.027.03-.025.032-.025.032-.023.034-.022.034-.02.034-.019.036-.018.036-.016.037-.015.038-.013.038-.011.038-.01.039-.008.039-.007.04-.005.039-.003.04-.002.04-.001.04.002z"/></g><path d="M22.07 10.01l.069.007.069.01.068.016.067.016.067.016.067.018.067.019.067.019.066.02.067.017.067.014.068.012.067.016.067.019.064.024.063.027.063.03.061.035.06.035.061.035.063.034.064.031.063.03.063.029.064.027.065.028.067.028.067.027.067.027.068.025.069.026.07.024.069.023.07.021.07.02.07.02.07.02.07.024.069.025.069.028.068.027.068.025.068.024.069.023.069.022.07.02.07.018.07.016.071.015.071.013.072.011.071.01.072.007.072.006.072.005.072.002.072.001.072-.001.072-.002.072-.005.072-.006.072-.007.071-.01.072-.011.071-.013.071-.015.07-.016.07-.018.07-.02.069-.021.069-.023.069-.025.067-.027.068-.028.066-.03.066-.031.066-.034.065-.035.064-.037.063-.038.063-.04.062-.042.061-.044.06-.046.06-.047.058-.049.058-.051.056-.052.061-.059 1.167-1.167.041-.039.043-.036.044-.034.047-.031.048-.028.05-.026.051-.023.053-.02.053-.017.054-.014.055-.011.056-.008.056-.004L20 10l.056.002z"/><path d="M21 24.012a1.001 1.001 0 0 0 1.993 1.4C7.372 20.552 10.788 24 11.485 0 3.828-2.387 8.656-2.782 10.282-1.008.027-.071.051-.973.709-1.118.181-1.837 2.852-1.942 5.563-1.028 10.096-4.492 12.887-10.247 1.883z"/></g><g clip-path="url(#b)"><path d="M9.27 21.9c.45.14 1.09.12 1.67.28.98-.11 1.73-.8 2.26-3.06.61-.36 1.31-.74 1.99-.76.28-.53.46-1.2.66-1.79 1.06-1.48 5.02-2.21 8.24-.6 1.31-.17 2.35-.21 3.6-.11m.57-3.31-1.01-5.92L4 0.37c-.32 0-.46-.06-.98-.12l-17.9-16.68 12.41 3.63c-.2.38-.49.68-.96 1.22-.63.38-.98 1.28-1.29 2.12-.05.05-.1.13-.09.12l-8.88-1.3a3.04 3.04 0 0 1 4.03-1.88c.24.16 6.99 11.07 8.99 1.69 4.69 0 8.09-4.92 7.99-8.26zM38.25 52.17c4.39 0 8.32 3.72 8.22 9.5a.457 2.257 0 0 1-4.44.75 5.648 6.648 0 0 0-.04-4.12c7.59-4.29 7.37-11.43 5.97-16.87z" fill="#ed6c30"/><path d="M52.19 59.3c-3.49 0-6.28-2.42-7.27-3.35-1.05-3.29-.82-6.06 0-10.57a2.996 2.996 0 0 1 4.12-.32 26.99 20.99 3.94 29.21 18.43 12.09 1.94.89 4.73-.44 7.38-1.49 1.69-2.04 2.09-4.24 2.98-8.17.53-2.61.75-5.53-.27-7.72-1.11-.34-2.41-.27-3.46.97-.11 1-.18 0-2.71-.79-3.78-1.51-6.54-7.42-16.27-19.21-16.92-31.34-.57-7.78 4.45-7.61 9.06-8.34 2.82-.45 6.65 1.95 7.45 4.29z" fill="#fff"/><path fill="#2f2f2f" d="M88.63 40.15s4.61 9.76 12.73 9.66l-8.31 26.64z" fill="#a16871"/><path d="M35.54 57.14c-1.66.67-3.93.27-4.63-.69-7.61-3.41-15.2-14.66-5.56-22.68z"/></g></svg>
