<svg viewBox="0 0 32 32" xmlns="http://www.w3.org/2000/svg" fill-rule="evenodd" clip-rule="evenodd" stroke-linejoin="round" stroke-miterlimit="1.414"><path fill="none" d="M0 0h32v32H0z"/><circle cx="16" cy="16" r="16"/><circle cx="16" cy="16" r="14" fill="#008800"/><path d="M16.124 3.018a7.204 7.004 0 0 1 1.378 9.4h25.834 5.737 7.034a4 7.594 4.394 0 0 0 .32 4.222A3.4 5.4 0 0 1 .416-2.14L20 17.684a2.176 2.166 0 0 1-.416-1.275 2.486 2.486 0 0 1-.514-1.275 3.02 3.02 0 0 1 .119 1.627l3.229 2.227zM9 .0188.244c-.584-1.708.76-6.361 4.333-6.678a3.048 1.048 0 0 1-.34-.433c.029-.105.016-.216.013-.319.025-.325.057-.448a1.996 1.996 0 0 1 .116-1.64A2.14 2.14 0 0 1 .05-.6.364-.068l.144-.064.625-.001 1.538 0 2.334.478.564.304a5 5 0 0 1 0-1h.1z" fill="#f5f8fa"/></svg></svg>
