<svg xmlns="http://www.w3.org/2000/svg" viewBox="0 0 47.5 47.5"><defs><clipPath id="a"><path d="M0 38h38V0H0v38z"/></clipPath></defs><g clip-path="url(#a)" transform="matrix(1.25 0 0 -1.25 0 47.5)"><path d="M35.964 25.045L36 25s1 10 0 11c-.91.91-6.771-.66-7.822-.951-2.426 1.234-5.443 1.95-9.178 1.95-3.73 0-6.742-.718-9.165-1.953-1.02.283-6.922 1.867-7.865.85-5.377 0-7.066 4.107-5.62 5.4 0 0 1.298 6.4M9 3.002.012.036.035.477.472.365.758a3.77 3.77 0 0 1 .618.239A3.003 3.003 0 0 1 2.1 3.933C9.771 18 10.5 18 20.586 8 28c-1.161 0-2.557.846-3.178 1.362a.997.997 0 0 1 11 12" fill="#292833"/><path d="M3.05 16.983c.06.139.123.614.262.798 1.224l-1.5 1.824 6.901 4.074c.82 3.422-.836 6.34-2.184 6.571z"/><path fill="#F5891F" d="M96.373 58.706c-2.887.951-5.113-.415-6.355-2.346-.701-2.215.461-4.93 2.749-6.222 3.142-.991 4.39.319 5.159 2.157.681 2.028-.436 5.238-2.432 6.181z"/><path fill="#F58B1E" d="M96.42 75.863c-2.047.732-4.545-.42-6.149-3.085-.933-2.737.488-5.234 4.379-7.366 3.965-1.079 6.273.409 8.11 3.64z" fill="#fff"/><path fill="none" d="M0 0h32v32H0z"/><path d="M19 17l4-4 12z" fill="#9d6aa4.5 4.5 0 0 0 5.5 14h-.002a1.498 1.498 0 0 0 19 14.504V12h11l2.753L23 20l-4-2 12L22 14 24l-2-2-2z" fill="#ffa"/></g></svg>
