<svg xmlns="http://www.w3.org/2000/svg" viewBox="0 0 47.5 47.5"><defs><clipPath id="a"><path d="M0 38h38V0H0v38z"/></clipPath></defs><g clip-path="url(#a)" transform="matrix(1.25 0 0 -1.25 0 47.5)"><path d="M35.964 25.045L36 25s1 10 0 11c-.91.91-6.771-.66-7.822-.951-2.426 1.234-5.443 1.95-9.178 1.95-3.73 0-6.742-.718-9.165-1.953-1.02.283-6.922 1.867-7.835.954-1-1 0-11 0-11l.047.059C1.307 22.506 1 19.749 1 16.999 1 7.669 12 12.799 1 10-9.664 18-18 16" fill="#6d4500"/><path d="M25 15a.999.999 0 0 0-.948-.804C9.291 19.451 19.769 25 10 29a1 1 0 0 0-.001-2c.026 0 1.558-.016 3.36-.536A1.492 1.492 0 0 1 11 12.5c0-.123.019-.241.047-.356-2.716-.918-4.533-2.258-4.647-2.344a1 1 0 0 1 1.2-1.6c.037.028 3.787 2.8 8.4 2.8a1.002 1.002 0 0 1 .707 1.407" fill="#d79e84"/><path d="M34 3l-5 4-6-4 3-4 4z" fill="#fff"/></g></svg>
