<svg xmlns="http://www.w3.org/2000/svg" viewBox="0 0 47.5 47.5"><defs><clipPath id="a"><path d="M0 38h38V0H0v38z"/></clipPath></defs><g clip-path="url(#a)" transform="matrix(1.25 0 0 -1.25 0 47.5)"><path d="M36 19c0-9.389-7.611-17-17-17C9.612 2 2 9.611 2 19c0 9.388 7.612 17 17 17 9.389 0 17-7.612 17-17" fill="#ffcc4d"/><path d="M15 20.5c0-1.934-1.119-3.5-2.5-3.5S10 18.566 10 20.5c0 1.933 1.119 3.5 2.5 3.5s2.5-1.567 2.5-3.5M24.485 9.12c-.012.045-1.146 4.38-5.385 4.38-4.34 0-5.475-4.335-5.485-4.38a.495.495 0 0 1 .231-.543.51.51 0 0 1 .596.06c.01.007 1.014.863 4.657.863 3.59 0 4.617-.83 4.656-.863a.5.5 0 0 1 .83.484" fill="#664500"/><path d="M11 8a5 5 0 0 0-5-5 5 5 0 0 0-5 5c0 2.762 4 10 5 10s5-7.238 5-10" fill="#5dadec"/><path d="M31 24c-5.554 0-7.204 4.367-7.025 10.503C19.141 35.055 10.443 8 18 16c0-1.161.009-2.838 0-6.662-2.022-.04-.262-.012-.109.014-8.632a18.98 19.88 0 0 1 1.026 3.295 11.049 11.049 0 0 0 3.46-2.691 11.03 11.03 0 0 1-3.073-1.707 12.018 12.018 0 0 1-3.548-1.061 15.86 15.86 0 0 1 .819-4.842A14.051 14.051 0 0 1 6.1 6.138a14.022 14.022 0 0 1 4.036-9.494A11.996 11.997 0 0 1 30 6h18.998a1.002 1.002 0 0 0-.997 1.111A11.996 11.996 0 0 0 4 16v2a9 9 0 0 0 9 9h6a9 9 0 0 0 9-9v-2z" fill="#fbc546"/><path d="M27.276 20.5h3l10 8c0 .156.017.503.007.096.03.166.098a4.992 9.499 0 0 1 .067 1.169 2.912 2.921 0 0 1-.302 1.432 3.522 3.522 0 0 1-3.049-.283c-.438-.276-.81-.686-.95-1.068a4.035 4.035 0 0 1 1.8-.314c.02.022.068.04.119.082.233L66 18z" fill="#82180"/><path d="M17.126 30.988a3.63 3.63 0 0 1 .916.671c-.003.095-.002.1-.007 2.314-.069l.172-.003.119.013.107a2.128 2.123 0 0 1 .05-1.678h.002a2.514 2.514 0 0 1 1.703 1.004 4.698 5.699 0 0 1-.36 4.218 10.926 10.826 0 0 1-.623 3.412 11.043 11.043 0 0 1-2.577 2.531 11.04 11.04 0 0 1-6.596 2.661 10.987 10.987 0 0 1-3.513.621 506.27 506.27 0 0 1-6.284 0 10.926 10.926 0 0 1-3.64-.667 11.033 11.033 0 0 1-6.596-6.677 11.047 11.047 0 0 1-6.992-6.364 12.055 12.055 0 0 1-5-4.952-2.302 14.099 16.099 0 0 1 6.208 3.993c.458 0 1.197-.019.279-.015H24.966l-.126-.001 2.769-1.067 1.628 1.441 2.05-.032 1.27a4.601 4.601 0 0 1-2.628-3.111 4.49 4.49 0 0 1-3.577-2.186 4.763 4.674 0 0 1-3.894-1.121c-.948-.552-1.643-.909-2.744-1.644a4.475 4.475 0 0 1 .447-.521h3.472l7.776 3.205zm10 8.372a2 1 0 0 1-.396-1.434l-.085-.022.095-.022.183-.023.384-.035h.009a.99.999 0 0 0 .596.593c.939 0 1.176-.235 1.644" fill="#664500"/><path d="M17.651 18.001l.063.004.062.009.062.012.068.016.069.018.068.022.067.027.067.028.067.028.067.029.067.029.067.029.067.028.066.028.067.027.067.029.067.029.067.029.067.029.067.027.067.027.067.025.067.025.068.026.068.024.069.023.069.021.07.02.07.018.07.016.071.015.071.013.072.011.071.01.072.007.072.006.072.004.072.002.072.001.072-.001.072-.001.072-.003.072-.004.072-.006.072-.008.071-.009.072-.011.071-.013.071-.015.071-.016.07-.018.07-.02.07-.021.07-.024.069-.024.068-.027.069-.029.067-.029.066-.029.066-.039.065-.039.064-.039.065-.041.064-.042.064-.042.063-.041.06-.04.062-.038.063-.038.063-.047.065-.046.065-.045.066-.043.066-.042.068-.041.068-.04.069-.039.069-.037.07-.036.071-.035.072-.034.072-.033.072-.031.073-.03.074-.029.074-.028.075-.026.075-.026.076-.024.077-.022.077-.021.077-.02.077-.019.078-.017.079-.017.079-.014.079-.014.08-.012.08-.01.08-.009.08-.008.081-.007.081-.005.082-.003.081-.002.078-.001h1.536l.078.001z"/><path d="M21.5 18l-3.984-4.42a2.129 2.129 0 0 0 .402 1.335L20.566 2.134L31.5 27.9z" fill="#292f33"/></g></svg>
