<svg xmlns="http://www.w3.org/2000/svg" viewBox="0 0 128 128"><path d="M-127.7-84.34c-.61.06-1.57.19-2.24.52l-4.69 5.3-7.78 1.33c-1.02.42-1.77.46-2.98.7-1.97 0-3.58-1.28-5.98-2.63-1.29-1.21-2.27-3.49-2.26-4.79-5.31-8.23-13.47-16.65-13.2-23.3 2.15-8.46 1.97-13.31 7.86-19.61 10.03-.12 18.69-1.03 18.4-.1 7.57 1.37 10.07 7.72 15.7 7.49z" fill="url(#c)"/><ellipse cx="7.27" cy="64.09" rx="16.96" ry="111.17"/><path d="M105.63 100.97c-.03.4-.28.65-.39.98-.42.6-1.45 1.51-1.49 2.27-2.11 5.14-5.59 10.93-7.75 14.16z"/></svg></svg>
