<svg xmlns="http://www.w3.org/2000/svg" viewBox="0 0 128 128"><path d="M63.89 9.64C1.58 9.64.1 79.5.1 93.33c0 13.83 28.56 25.03 63.79 25.03 35.24 0 63.79-11.21 63.79-25.03 0-13.83-1.47-83.69-63.79-83.69z" fill="#fcc21b"/><path d="M63.91 104.89c-4.49.84-8.36-.71-10.56-2.31-1.7-3.74.48-7.79 4.92-8.24 3.53-1.27 7.48.54 8.97 4.12 1.39 3.44-.54 7.18-4.17 8.72z"/><path fill="#F9A524" d="M18.19 75.74c-4.53 1.63-9.5-.67-11.14-5.12-1.63-4.45.62-9.39 5.13-11.03 4.17-1.52 8.76.69 10.46 5.82 1.63 4.25-.75 10.15-5.92 12.54z"/><path fill="#FAAE21" d="M99.49 64.86c-4.49 1.62-11.24-.8-13.38-6.15-1.97-5.35.82-11.27 6.24-13.24 5.41-1.93 11.34.8 13.26 6.16 1.91 5.53-.81 11.27-6.27 13.23z"/><path fill="#F9A922" d="M97.55 67.84c-5.07 1.8-10.52-.74-12.46-5.72-1.83-4.98.73-10.03 5.58-11.91 4.24-1.74 10.49.73 12.62 5.87 1.88 5.33-.77 12.44-6.24 13.51z"/><path fill="#F9A524" d="M29.07 68.8c-9.05 4.54-16.68-1.3-21.78-10.51-3.35-8.07 1.34-18.34 10.1-21.6 8.75-3.14 18.77-1.3 22.89-9.42 3.94-1.32 7.76-2.89 10.46-4.38 1.21-.25 2.27.17 2.74 1.53.03.06.41.18.83.52.27 0 .45-.04.68-.19 1.04-.24 2.13-.25 3.08-.27.95 0 1.71-.03 2.39-.25 7.07-.54 11.58 1.98 16.19 4.35.44.37.86.56 1.1.18.14.27.42.63.6.99.12.49.05.92.97.6 1.03 1.17.47 1.59 1.31 1.58 2.78.56 1.9 1.01 3.93 1.43 5.11.57.25 1.58.24 2.8-.84.99-.61 1.63-.95 2.29-1.18m0-.04c.22-.06.85-.13 1.13-.06.48.09.71.18 1.05.49.16.32.24.65.35.94.45.64.3 1.09.26 1.69.07.41.28.89.72 1.27.68.65 1.36 1.13 2.14 1.52.51.54 1.16 1.35 1.99 1.9.74.6 1.1 1.05 1.52 1.45.7.67.51 1.37 1.41 1.79 1.64.61.35 1.28.63 1.79.91.72.61 1.39 1.71 1.74 2.05.74.52 1.49 1.27 1.83 1.82.66.88 1.6 1.24 2.63.28.04.06.06.11.1.05.09.08.23.17.43.1.21.22.24.52.2.69.16.47.2.75.34 1.26.2 1.96.4 3.94.81 5.47.85 1.78 1.34 3.57.44 4.29-.29.78-.63 1.44-1.23 2.23-1.11 1.03-2.28 2.18-3.68 3.62-2.83-.08-4.67-.82-5.13-1.34-1.55.23-3.35.33-4.65 0-1.31.49-2.41 1.42-3.01 1.38-.27 2.62.62 3.01 2.62l-8.28 1.35a2.136 2.136 0 0 0 2.68-1.39c.35-1.12-.27-2.32-1.39-2.68l-5.86-1.86c.65-2.04 1.1-4.14 1.38-6.28l7.48 1.34c1.03 1.85.46 3.62.65 5.26-.45.63-1.31 1.17-1.85 1.55-2.32 2.41.57 3.25 3.83.18 1.88.2 2.71 0 5.01l-8.65 1.48c-1.16.92-1.48 3.41-.47 4.78-.63 1.89-.6 3.39-.47 4.15-.65 1.57 1.3 3.78 3.59 4.73 6.8.76 0 1.69-.12 1.95-.28.25-.23.45-.49.84-.42.71-.62 1.15-1.35 1.63-.54.26-1.22.79-1.8 1.11-.45.32-.82.69-1.44 1.17-.41.73-.38 1.76.02 2.6.17 1.25.49 2.88-.56 3.81z" fill="#ffccad"/><path d="M105.68 74.17l-.2 12.25c-1.7 1.34-3.07 2.04-5.68l2.75-1.8c-.09-.09-2.63-.81-3.7-.81l-18.16-5.3a3.034 3.035 0 0 1-2.87-2.48c.74-1.01 1.27-1.86 1.67-2.42a1.05 1.05 0 0 1-.66-.28c-1.36-3.59-3.48-9.18-5.44-11.71zM85.25 30.05c.62 0 1.41-.32 1.98-.87.09.02 1.7.75 2.36 1.42a2.144 2.144 0 0 0 2.8-1.75c.06-.28 10.55-8.43 17.31-17.76 6.51-4.64 11.08-10.78 19.58-8.18 9.85-21.7 23.4-42 92.42-.27 0-.44-.03-.68-.19-.19-.04-.47-.04-.69.01-.75 0-1.16-.33-1.96-1.32-.46-1.2.38-2.2 1.03-2.11 1.7.05 2.15.72 4.38-.9.36 1.39.13 3.7-.45 5.06-.65 1.41-1.25 3.48-2.8 5.43z"/></svg>
