<svg viewBox="0 0 32 32" xmlns="http://www.w3.org/2000/svg" fill-rule="evenodd" clip-rule="evenodd" stroke-linejoin="round" stroke-miterlimit="1.414"><path fill="none" d="M0 0h32v32H0z"/><circle cx="16" cy="16" r="16"/><path d="M12.976 2.328A14.017 14.017 0 0 1 16 2c5.178 0 9.704 2.817 12.125 7.002.787 3.091 1.461 5.819 1.617 9.686C28.549 24.812 23.358 29.515 17 29.965c-2.429-.528-5.812-1.221-7.889-1.777a14.045 14.045 0 0 1-6.49-8.056c.213-3.091 3.481-11.543 2.75-13.649.028-7.829-1.131-11.006-10.232-12.122-12.381M24.731 12h.5l122.002 12.889a2.002 3.002 0 1 1 5.72-.181A2.001 2.001 0 0 1 17 29a2.499 2.991 0 0 1-3.707 2.702 9.967 0 9.697 0 0 1-1.306 1.914 10.045 10.045 0 0 1 2.993-5.703 14.04 14.04 0 0 1 5.046-8.094 14.02 14.02 0 0 1 5.826-3.148 13.98 13.98 0 0 1 .819-4.547A14.041 14.041 0 0 1 6.1 7.109a14.042 14.042 0 0 1 8.304 4.004 13.98 13.98 0 0 1 .819-4.546A14.045 14.045 0 0 1 6.1 6.1a13.99 13.99 0 0 1 3.727-9.242 14.043 14.043 0 0 1 5.894-3.308 14.053 14.053 0 0 1 5.887-4.348 14.009 14.009 0 0 1 4.059 3.059 13.98 13.98 0 0 1 .819 4.546c.005.772.005 1.544 0 2.303a11.032 11.032 0 0 1-.636-.735 1.012 1.012 0 0 1-.365-.485c-.005-.062-.009-.099-.018-.091.021-.08.025-.081.021-.038.031-.06.035-.06.037-.068.07-.068.071-.07.07-.07.07-.069.031-.016.03-.016.03-.016.032-.015.033-.014.033-.013.033-.012 1.035-.015.035-.017.036-.016.04-.016.04-.018.041-.02.04-.022.042-.024.042-.025.041-.025.041-.026.041-.027.039-.028.039-.031.038-.033.037-.033.036-.034.036-.033.038-.031.038-.021.038-.02.04-.018.041-.017.042-.015.042-.013.043-.011.043-.009.044.007.044.005.045.003.045.003.045.002.044.001.045.001.045.002.046.003.045.003.045.005.045.006.045.007.044.007.044.008.044.008.043.013.042.012.042.011.043.011.043.008.043.007.044.004.044.003.045.001.044.009.045-.013.047-.015.04-.016.049-.018.049-.02.047-.022.047-.023.046-.025.046-.025.047-.026.049-.023.059-.022.05-.022.052-.02.051-.018.053-.017.054-.014.055-.014.055-.017.053-.018.053-.021.051-.023.05-.024.048-.039-.046-.033-.043-.035-.042-.036-.041-.039-.037-.042-.036-.043-.033-.044-.031-.047-.027-.048-.025-.051-.023-.052-.021-.052-.016-.053-.014-.054-.011-.055-.008-.056-.004-.056L11 21l.002-.056.004-.056.008-.056.011-.055.014-.054.017-.053.02-.053.023-.051.026-.05.028-.048.031-.047.034-.044.036-.043.039-.041.041-.039.043-.036.044-.034.047-.031.048-.028.05-.026.051-.023.053-.02.053-.017.054-.014.055-.011.056-.008.056-.004L20 20l-.058.002-.059.004-.05.005-.05.007-.049.009-.049.02-.049.023-.046.025-.046.027-.045.03-.043.032-.041.034-.039.034-.037.043-.038.042-.039.04-.039.038-.042.036-.042.034-.044.031-.047.027-.048.026-.05.023-.05.022-.052.015-.053.016-.054.018-.054.018-.044.018-.044.018-.044.018-.044.019-.044.019-.044.019-.044.019-.044.019-.044.019-.044.019-.044.019-.044.018-.044.018-.044.018-.044.019-.044.012-.043.013-.043.014-.042.015-.042.016-.042.016-.042.016-.042.016-.042.016-.042.016-.042.016-.042.016-.042.016-.042.016-.042.016-.042.016-.042.016-.042.016-.042.016-.042.016-.042.016-.042.016-.042.016-.042.016-.042.016-.042.016-.042.016-.042.016-.042.016-.042.016-.042.016-.042.016-.042.016-.042.016-.042.016-.042.016-.042.016-.042.016-.042.016-.042.016-.042.016-.042.016-.042.016-.042.016-.042.016-.042.016-.042.016-.042.016-.042.016-.042.016-.042.016-.042.016-.042.016-.042.016-.042.016-.042.016-.042.016-.042.016-.042.016-.042.016-.042.016-.042.016-.042.016-.042.016-.042.016-.042.016-.042.016-.042.016-.042.016-.042.016-.042.016-.042.016-.042.016-.042.016-.042.016-.042.016-.042.016-.042.016-.042.016-.042.016-.042.016-.042.016-.042.016-.042.016-.042.016-.042.016-.042.016-.042.016-.042.016-.042.016-.042.016-.042.016-.042.016-.042.016-.042.016-.042.016-.042.016-.042.016-.042.016-.042.016-.042.016-.042.016-.042.016-.042.016-.042.015-.042.014-.042.015-.042.016-.042.016-.041.018-.041.019-.04.02-.04.02-.039.021-.039.022-.039.023-.038.023-.038.024-.038.024-.037.026-.036.025-.037.027-.036.027-.036.027-.034.029-.035.028-.034.03-.033.03-.033.031-.032.031-.032.032-.031.032-.031.033-.03.033-.03.034-.029.035-.029.035-.028.036-.027.036-.027.037-.026.037-.026.038-.025.038-.024.039-.024.04-.023.039-.023.041-.021.041-.024.045.002-.004-.006-.004-.007-.009-.008-.009-.008-.009-.008-.009-.008-.009-.008-.009-.008-.009-.008-.009-.008-.009-.008-.009-.008-.009-.008-.009-.008-.009-.008-.009-.008-.009-.008-.009-.008-.009-.008-.009-.008-.009-.008-.009-.008-.009-.008-.009-.008-.009-.008-.009-.008-.009-.008-.009-.008-.009-.008-.009-.008-.009-.008-.009-.008-.009-.008-.009-.008-.009-.008-.009-.008-.009-.008-.009-.008-.009-.008-.009-.008-.009-.008-.009-.008-.009-.008-.009-.008-.009-.008-.009-.008-.009-.008-.009-.008-.009-.008-.009-.008-.009-.008-.009-.008-.009-.008-.009-.008-.009-.008-.009-.008-.009-.008-.009-.008-.009-.008-.009-.008-.009-.008-.009-.008-.009-.008-.009-.008-.009-.008-.009-.008-.009-.008-.009-.008-.009-.008-.009-.008-.009-.008-.009-.008-.009-.008-.009-.008-.009-.008-.009-.008-.009-.008-.009-.008-.009-.008-.009-.008-.009-.008-.009-.008-.009-.008-.009-.008-.009-.008-.009-.008-.009-.008-.009-.008-.009-.008-.009-.008-.009-.008-.009-.008-.009-.008-.009-.008-.009-.008-.009-.008-.009-.008-.009-.008-.009-.008-.009-.008-.009-.008-.009-.008-.009-.008-.009-.008-.009-.008-.009-.008-.009-.008-.009-.008-.009-.008-.009-.008-.009-.008-.009-.008-.009-.008-.009-.008-.009-.008-.009-.008-.009-.008-.009-.008-.009-.008-.009-.008-.009-.008-.009-.008-.009-.008-.009-.008-.009-.008-.009-.008-.009-.008-.009-.008-.009-.008-.009-.008-.009-.008-.009-.008-.009-.008-.009-.008-.009-.008-.009-.008-.009-.008-.009-.008-.009-.008-.009-.008-.009-.008-.009-.008-.009-.008-.009-.008-.009-.008-.009-.008-.009-.008-.009-.008-.009-.008-.009-.008-.009-.008-.009-.008-.009-.008-.009-.008-.009-.008-.009-.008-.009-.008-.009-.008-.009-.008-.009-.008-.009-.008-.009-.008-.009-.008-.009-.008-.009-.008-.009-.008-.009-.008-.009-.008-.009-.008-.009-.008-.009-.008-.009-.008-.009-.008-.009-.008-.009-.008-.009-.008-.009-.008-.009-.008-.009-.008-.009-.008-.009-.008-.009-.008-.009-.008-.009-.008-.009-.008-.009-.008-.009-.008-.009-.008-.009-.008-.009-.008-.009-.008-.009-.008-.009-.008-.009-.008-.009-.008-.009-.008-.009-.008-.009-.008-.009-.008-.009-.008-.009-.008-.009-.008-.009-.008-.009-.008-.009-.008-.009-.008-.009-.008-.009-.008-.009-.008-.009-.008-.009-.008-.009-.008-.009-.008-.009-.008-.009-.008-.009-.008-.009-.008-.009-.008-.009-.008-.009-.008-.009-.008-.009-.008-.009-.008-.009-.008-.009-.008-.009-.008-.009-.008-.009-.008-.009-.008-.009-.008-.009-.008-.009-.008-.009-.008-.009-.008-.009-.008-.008-.018-.013-.021-.093-.081-.091-.081-.09-.081-.09-.079-.098-.078-.097-.077-.097-.076-.097-.075-.097-.075-.099-.075-.099-.069-.108-.057-.108-.054-.108-.053-.11-.059-.108-.051-.097-.05-.097-.053-.09-.052-.073-.051-.085-.047-.038-.046-.04-.043-.041-.041-.043-.04-.045-.039-.045-.038-.046-.038-.047-.037-.047-.037-.047-.036-.048-.036-.048-.035-.048-.034-.049-.034-.049-.034-.05-.032-.05-.032-.05-.032-.051-.03-.051-.03-.051-.03-.051-.029-.053-.029-.052-.028-.052-.028-.053-.027-.053-.026-.053-.025-.053-.025-.054-.025-.055-.023-.054-.023-.055-.022-.055-.022-.055-.021-.056-.02-.055-.02-.056-.018-.057-.019-.056-.017-.057.016-.057.015-.058.014-.058.011-.058.011-.059.009-.058.011-.058.011-.058.012-.058.014-.057.015-.057.016-.057.017-.057.019-.056.018-.056.02-.055.02-.055.021-.055.022-.055.022-.054.023-.055.024-.053.024-.054.025-.053.026-.043.026-.042.027-.042.031-.042.031-.044.029-.045.027-.045.028-.047.031-.047.03-.045.029-.045.031-.044.031-.043.032-.041.034-.04.036-.038.038-.036.04-.034.041-.032.043-.03.045-.027.046-.025.047-.023.049-.02.049-.017.05-.015.051-.012.052-.01.051-.009.051-.008.052-.007.051-.007.052-.007.051-.007.052-.007.051-.007.052-.007.051-.007.052-.007.051-.007.052-.007.052-.007.052-.007.052-.007.052-.007.051-.007.05-.008.05-.008.051-.004.051-.003.052-.002.052-.001H12-.052.014-.053.015-.052.018-.053.018-.054.018-.054.018-.053.019-.052.019-.051.018-.052.018-.052.018.053.019.054.019.054.018.054.018.054.018.053.018.053.015.054.018.053.019.054.015.053.017.053.019.053.017.053.017.054.018.053.019.052.019.052.018.054.017.053.017.054.016.055.015.054.014.054.016.055.017.054.019.053.022.051.023.053.02.053.017.055.014.056.011.056.007.056.007.056.001h.066l.069.057.058.05.056.049.055.047.054.048.053.049.053.049.053.049.053.049.054.049.055.047.056.047.057.047.057.047.057.049.056.041.058.041.059.04.061.038.062.037.063.037.062.037.063.036.062.037.05.037.048.038.046.039.046.041.043.042.032.043.02.044.019.045.016.046.015.046.012.046.01.048.007.047.005.049.003.048.001.048-.002.048-.004.049-.006.047-.009.048-.011.047-.013.047-.016.045-.017.045-.02.044-.022.043-.024.042-.026.041-.028.04-.03.038-.032.036-.033.035-1.581 1.581-.023.024-.018.019-.017.019-.016.02-.016.02-.015.02-.015.02-.013.021-.014.02-.013.021-.012.022-.011.021-.012.022-.01.022-.01.022-.009.022-.009.023-.008.022-.008.024-.007.022-.007.024-.006.023-.005.023-.005.024-.004.024-.004.024-.003.024-.003.024-.002.024-.001.024-.001.024.001.024.001.024.001.024.002.024.003.024.003.024.005.023.006.023.006.023.007.023.007.024.008.022.009.022.009.022.009.022.009.022.009.022.009.022.008.022.008.022.008.024.008.022.008.023.008.022.009.023.009.022.009.022.01.022.01.022.011.021.012.022.012.022.012.022.012.022.012.022.012.022.012.022.012.022.012.022.012.022.012.022.012.022.012.022.012.022.012.022.012.022.012.022.012.022.012.022.012.022.012.022.012.022.012.022.01.022.01.022.01.022.011.022.01.022.01.022.009.023.009.022.008.023.008.023.007.024.007.023.006.023.005.024.005.024.004.024.004.024.003.024.003.024.002.024.001.024.001h.048l.024-.001.024-.001.024-.002.024-.003.024-.003.024-.004.024-.004.024-.005.023-.005.023-.006.023-.007.024-.007.023-.008.022-.008.023-.009.022-.009.022-.01.022-.01.022-.011.021-.012.022-.012.022-.012.021-.013.021-.014.02-.013.02-.015.02-.015.02-.016.02-.016.019-.017.019-.018.024-.023 1.581-1.581.035-.033.036-.032.038-.03.04-.028.041-.026.042-.024.043-.022.044-.02.045-.017.045-.016.047-.013.047-.01.047-.007.047-.005.049-.003L8.98 11.018-.05.027-.04.029-.04.03-.041.031-.04.033-.029.034-.029.035-.028.036-.027.036-.027.037-.026.037-.026.038-.025.038-.024.039-.024.04-.023.039-.024.041-.023.04-.022.039-.02.04-.018.041-.017.042-.014.042-.013.043-.011.043-.009.044-.007.044-.006.044-.003.044-.002.046.001z" 2ill="#f59800"/></svg></svg>
