<svg xmlns="http://www.w3.org/2000/svg" viewBox="0 0 128 128"><path d="M63.79 8.64C1.48 8.64 0 78.5 0 92.33c0 13.83 28.56 25.03 63.79 25.03 35.24 0 63.79-11.21 63.79-25.03 0-13.83-1.47-83.68-63.79-83.68z" fill="#fcc21b"/><g fill="#2f2f2f"><path d="M38.34 76.67c-3.87 0-6.82-3.01-8.27-8.09 0-4.28 3.37-7.06 7.72-7.07 2.87 0 5.61 3.61 5.73 6.69 0 2-3.86 2.39 3.86 4.99 2.96 2 2.96 1.29 4.54.74 6.62 3.48 1.17 9.63-.04 23.74-1.38 7.69-3.95 1.69 2.52.82 3.52 1.19.8.34-.01.17-.02.41-.15 1.36-.73 2.51-2.88 2.83-.52.17-1.02.28-1.56.18-.54.27-1.08.42-1.66.29-.22.5-.14 1.36-.38 1.91.04 1 1.79 1.27 1.98 1.87 1.87 3.44 2.28 5.72 2.45 1.84.93 3.82 2.08 4.63.8.48 1.83 1.01 2 2.73 2.24 2.95 3.94 4.58 6.94 6.51 8.69.5.39.67.46 1.51.19 2.49.01.61-.5 1.28-.91 1.66-.32.06.45-.06.63-.25 1.06-.27 2.18-.37 3.27.21.17.55.39 1.11.47 1.4-.01.06-.44-.15-.67-.24-.57-.54-1.08-.92-1.71-1.27-.4-.64-.41-1.29.39-1.96.16-.63.38-1.1.49-1.61.79-.74.79-1.4 1.14-1.5 1.09-.44.31-.58.6-.71.69z"/><path d="M27.91 67.27c-.34.26-.71.3-1.32.2-.58.17-1.19.18-1.67.28-.74.53-1.76.93-2.62 1.31-.32.6-.18 1.03.08 1.5.1 1.45 1.35 2.68 2.45 3.69 2.39 2.54 5.77 3.71 10.47 3.71 1.69.53 3.11 1.08 4 .09 1.66 1.42-.09 2.55-.98 3.32-1.8.76-.58 1.44-1.53 1.56-2.28z"/><path fill="#2F2F2F" d="M71.24 79.63c-1.24.5-2.99-.2-3.27-1.61-.43-1.17.07-2.3.68-3.39 1.21-.83 2.41-.78 3.81.84.12.32 3.54 6.81 5.45 9.16 2.67 1.43 6.78 1.65 7.51 1.91 1.61 2.3 3.22 3.86 4.39 5.29 8.69 6.23 39.68 7.59 8.32-6.06 7.87-17.17-.83z" fill="#f8c579"/><path d="M64 98.36c-1.6 0-2.95-1.01-3.55-2.25v-5.66c0-2.32 1.36-5.75 5.81-7.78h10.54zM64.55 98.06c1.89 1.34 3.71 3.27 5.47 6.59 4.71 14.33 10.85 23.63 19.3 27.45 31.24 37.43 28.74 37.37 26.93 35.5 0 26.38-5.89 41.25-18.74 31.24-1.67 3.88-5.84 6.89-5.19 12.69-1.19 9.68-4.63 14.5-8.25 15.9z"/><path fill="#2F2F2F" d="M91.85 40.67c-.88 0-1.43-.35-2.12-1.37.1-.25-.75-.44-1.24-.41-1.73-.13-4.12.82-6.41 1.53-.34.1-.67.45-.68.59-.22.23-.37.46-.58.66-.48.15-.8.22-1.26.34-.56.25-.92.52-1.2.65-.44.29-.91.37-1.39.57-.44.08-.99.23-1.5.31-.61.19-1.15.49-1.63.99-.55.31-1.04.2-1.56.03-.55.28-1.23.32-1.71.18-.54.26-1.04.29-1.56.18-.56.19-1.29.62-1.89.56-1.05 1.01-1.97 1.9-2.25.02-.68.18-1.49.2-1.69.16-.83.31-1.7.68-2.35.98-1.07-.31-1.68-1.3-1.34-2.11-.38-.9-.43-1.44-.62-2.18zM125.67 34.1c-.31-.66-.52-1.24-.24-1.85.01-.51.01-1.17.05-1.68.12-1.1.34-2.43 1.03-3.48 2.03-1.12.83-2.2 1.36-3.53 1.83-1.18.69-1.87 1.43-2.54 1.37-.21.07-.26.16-.43.16-.81.33-1.6.59-2.35.43-2.5-.04-5.06-.55-6.3-.43-.66-.02-1.32-.13-2.05-.22-.57-.14-1.17-.45-1.71-.8-.67-.24-1.37-.5-1.94-.84-.85-.89-1.41-2.08-1.46-3.05-.43-.22-.83-.44-1.3-.74-.41-.27-.7-.65-1.52-.81-.73.02-1.45.15-2.26.68-1.08 0-2.09.37-1.57 1.36-.48.69.6 1.36 1.32 1.77.68.53 1.35 1.11 2 1.78.63.52 1.26 1.09 1.83 1.52.63.47 1.28 1.09 1.45 1.63.57.59 1.18 1.11 1.71 1.51.78.48 1.48.68 2.15.26 1.96.53 3.07 1.04 4 .04 3.11a12.36 14.26 0 0 1-3.88.12-5.19 1.01-1.55.67-3.53.69-5.2-.06-1.34-1.78-2.67-2.22-4.83-.58-1.4-1.2-2.97-1.54-4.23-.11-.11-.19-.2-.28 0-.11-.05-.02-.1-.12-.31-.23-.52-.47-.83-.91-1.03l-.17-.1c-.16-.19-.16-.32-.15-.52-.24-.22-.26.27-.53.36-.21.11-.3.25-.6.34-.94.42-.66.55-1.46 1.1-1.59.06-.15.1-.32.1-.37.17-.32.33-.62.46-.99.72-.62 3.48-.68 4.16.19.76.61 1.31 1.74 1.89 1.94.21.86.47 1.7.68 1.95.15 1.42.68 1.86 1.43 2.72.23 1.05-.77 2.02-1.33 3.29-2.19 1.13-.96 2.71-2.33 3.22-3.8.65-.2 1.29-.33 2.24-.78 1.19-1.15 2.59-2.23 3.57-3.38 2.63-1.41 5.05-2.86 7.49-3.13 1.15-.73 2.34.19 2.62 3.3 1.69 6.28-1.2 13.27-1.38 20.66-1.49 4.21-1.68 10.74-4.44 14.44z"/><path fill="#2F2F2F" d="M112.47 80.27c-.32-.46-.52-.94-.7-1.11-1.87-1.4-1.65-3.51-2.22-3.61-3.81-2.91-7.04-7.41-11.52-10.82-13.24-13.97-3.31-2.07-8.64 2.23-11.81 2.45-1.26-.19-2.3.39-3.02 3.48-2.81 1.84-4.05 2.87-7.49 3.53-3.89 1.03-6.84 1.76-8.22 2.08zM35.32 61.3c-3.12 2.51-7.25 3.45-10.61 3.66-.4.09.79.1.69.4.48l.76-.22c-1.29-1.38-1.64-4.36-.27-6.62.13-.61.19-1.37.33-2.14.55-2.38-.98-3.03-1.97-1.35-1.4-1.12-2.97-1.24-4.27-.32-.84-.83-1.54-1.21-2.64-.74-.98-1.84-1.76-2.16-2.27-.4-.86-.73-1.45-1.74-1.54-1.19-1.01-2.02-3.29-2.46-3.65-1.31-.47-2.85-.81-3.73.77.94 1.74 1.33 4.16 1.82 6.11.67 1.75 1.23 3.6 2.51 5.16.94 1.17 2.24 1.73 3.1 1.65 2.42.86 3.97 1.3 5.21.5.77.31 1.54.24 2.4-.76.82-1.52 1-2.51 1.77-.14 1.58 0 2.08.07 1.01 1.65.04.31.1.4.74.12.69.3.2.17.5.54.88.72.17.31.33.82.45 1.1.07.31.16.69.1.59.4.2.74.62 1.02 1.22 1.09 1.04.68 1.21 1.57 1.5 3.06.67.9 1.3 1.55-2 2.78z"/></g><g clip-path="url(#b)"><path fill="#2F2F2F" d="M78.81 95.95c-1.58-5.72-4.08-16.14-6.48-12.92z"/></g><use xlink:href="#c" overflow="visible" fill="#FFF"/><clipPath id="b"><use xlink:href="#a" overflow="visible"/></clipPath><g clip-path="url(#b)"><path fill="#2F2F2F" d="M34.78 71.72c-3.63 0-6.94-.45-9.25-2.3-.81-3.78-.42-5.72 2.21-6.16 1.7.52 2.6 1.41 4.61 4.78-1.75-.11-.67-.2-1.27-.3-1.96-1.37-2.23-2.51-2.47-4.25 3.77-4.34 31.54.71 23.49 1.61 9.34 1.92 23.45-.84 25.39-1.72 1.81.18 3.55 1.45 4.55 1.3 1.11 2.72 1.78 4.51.93 1.97 2.06 3.04 3.25 4.46 4.18 2.26 9.01 2.88 14.71 3.62.85.07 1.41-.12 2.29-.23 8.06-.91 17.4-1.9 27.58-2.88 4.75-2.63 5.83-9.4 5.6-15.21 1.81-14.79-13.22-17.37-13.28-4.25-22.02.8-13.9-3.61-29.84-13.42-23.33zM96.46 67.94c-9.37 0-17.27-7.34-17.31-11.24a7.417 7.727 0 0 1-.23-7.27-5.14l9.95-11.19c-9.68-1.6-16.77-5.71-16.46-13.78-.23-.64-.19-1.43-.45-2.31-.13-.08-.03-.15-.12-7.62-5.74-2.07-2.4 0-4.67.97-5.53 2.98l-4.49 5.76c-.33.05-.76.09-.74.14l-7.23 12.34c-1.61 1.16-3.3 1.27-3.65 2.24-6.81 6.7-6.79 13.44-12.4 17.5-9.27.62-1.78 1.51-3.71 2.3-4.31 1.11-.49 1.74-1.09 2.64-.9.58.16 1.1.17 1.76.28.38-.7.88-1.36 1.23-2.08.4-.18.78-.31 1.15-.31.31-.02.76-.37 1.22-.41.62-.38 1.17-.88 1.57-1.05.65-.3 1.67-.58 2.43-.85.95-.28 1.8-.48 2.49-.3.6-.18 1.38-.24 1.73.02.91.6 1.1 1.05 1.89 1.88 1.62 2 2.18 1.27 2.87 2.25 6.33 2.34 1.54 8.35-1.36 16.41-12.21.77-9.67-.07-15.55-12.02-47.37-4.83-34.3 2.06-12.04 1.56-18.17z"/><path fill="#2F2F2F" d="M112.96 88.4c-3.54-2.6-9.51-.69-12.87-7.3-2.63-7.43 1.03-12.38 7.28-14.67 6.42-2.03 12.51.85 14.26 6.18.66 6.81-1.31 13.68-18.04 15.17z"/><path fill="#F89E26" d="M97.04 71.54c-1.99.71-3.68-.21-4.11-1.71-.63-1.66.26-3.51 1.97-4.12 1.76-1.65 3.72-2.55 5.26-2.82 3.83 1.74 7.06 3.74 9.85 4.31.28 1.51 2.41 3.71 2.79 4.9.87.97 1.91 2.2 3.38 3.13 1.2 1.08 2.25 1.73 3.69 2.81 1.63 1 3.19-1.32 5.17-2.28 6.23-2.21 20.87-1.42 20.61 2.57.81 1.49.63 3.33-1.25 3.22zM39.55 57.54c-4.43-8.46 5.04-11.76 3.74-16.35 2.37-5.34 5.31-3.84 13.87 2.66 11.86 17.07 12.56 17.48 0 25.43-13.66 28.3-46.37.04-.27.05-.53.13-.7.11-1.53.31-3.04.43-4.98 2.11-5.26 8.54-7.43 14.47-14.74 14.53-13.4 1.01-1.27 2.36.45 3.57 1.41.32 1.13-.76 1.78-2.22-.99-2.27-1.54-7.46-2.25-9.73-3.62-4.22-3.09-9.86-12.74-16.15-18.18-.72-.28-2.86-1.48-4.31-2.37-1.78-3.52-2.65-6.69-5.05-8.46-.75-2.17-1.74-6.08-.28-10.33 1.47-1.66 3.31-3.01 3.39-4.7.04-.41-.01-.8-.14-1.25-.17-.35-.18-.62-.29-.94-.31-.51-.37-.76-.63-1.33-.16-.69-.14-1.31-.35-2.12-.67-.99-.96-1.5-1.36-2.24-.41-.27-.98-.55-1.44-.82-.78.18-1.19.42-1.81.6-1.07 1.31-1.04 2.97-.67 3.75-.16.84-.51 1.68-.81 2.56.21.68.07 1.67.07 2.3-.02.83-.38 1.42-1.3 1.04-.04.01-.09.01-.17.01-.25.02-.58.07-.45.1-.14.08-.22.13-.35.17-.91.38-1.6.55-3.35.79-1.06-.57-1.28-1.25-1.49-2.62-.09-.1.01-.29.02-.12.01-1.51.06-3.62.07-5.64-.23-1.38-.14-2.73-.21-3.87-.01-.57-.01-1.03-.15-1.55-1.14-.49-.39-1.13-.52-1.85-.77-1.56-.89-2.34-1.37-2.98-2.38-.28-1.47-.33-2.64-1.1-3.35-3.45 1.09-1.35 3.1-1.97 4.18-4.02 20.97-5.96 20.75 3.54 25.82 10.55 31.87 2.93 16.83 2.28 25.45.89 4.69 4.33 7.65 12.3 8.52 20.54-3.2 28.84-9.83 32.15-12.99 37.35-29.06 6.9-25.75 9.8-28.66 15.71-15.01 19.58-3.41 4.84-6.92 9.34-11.12 13.82-1.93 5.72-1.91 10.45 4.58 11.58 8.44 1.99 8.34-2.5 14.06-15.56 14.54-15.11-.69-8.08-4.71-13.74-4.42-20.53 0-6.73 3.71-8.65 7.83-9.56 4.46 1.77 9.26 4.98 11.78 7.73 2.64.15 4.42.7 7.5.63 10.46 2.53 2.38 5.08 2.85 10.37 2.93 7.32-7.12 16.44-18.4 14.81-8.82.68-.28 1.71-.09 1.65 0l15.64 8.3 21.14 36.56c2.19 1.16 1.91 3.35 2.12 4.99 0 2.6-2.86 4.69-5.23 5.66H24.35c-4.57 0-7.86-3.71-9.36-8.09zM60.66 48.07c-8.08 2.97-19.31-1.35-22.75-10.44-3.36-9.44 1.41-19.84 10.94-22.11 9.86-3.54 18.55 1.41 21.41 10.43 3.28 8.98-1.49 11.55-11.33 2.45-24.71-1.59-41.22-12.82z"/><path fill="#2F2F2F" d="M85.27 90.23v-2.61c-.44 0-.77.18-1.07.24-1.07.46-2.16.34-3.29-.24-1.39-.33-2.61-1.34-3.12-1.44-1.25-.32-2.28-.34-3.74-.95-1.55-.91-3.4-1.71-3.77-1.74-1.39-.36-2.74-.72-4.22-.94-2.17-.91-5.25-1.49-8.93-2.1-5.35.12-10.28-3.44-13.78-5.3-.48-1.37-.3-3.04.04-.57-.49-.93-1.01.19-1.49.06-.18.17-.34.35-.51.58-.52 1.11-1.11 1.61-1.41.27-.39.53-.67.68-1.22.23-.63.4-1.34.6-1.69 1.05-.48.62-.95 1.49-.42 2.05z"/><path fill="#2F292F" d="M60.5 47.1c6.03 1.75 9.08 2.04 14.17 2.29 2.86 8.34 2.71 14.48 3.46 7.1 6.69 16.08 13.43 18.01 19.92.08 16.6-2.49 19.78-22.98.01-4.7-7.71-7.79-16.17-5.91-11.84 2.78-8.62 12.78-7.61 20.84 7.37 4.83 13.68 12.12 3.47 23.91z"/><path fill="#FBB71E" d="M35.33 87.51c-17.93 2.34-37.7-1.91-41.82-19.18-6.05-13.42 1.56-26.96 14.23-32.71 21.08 0 41.15 19.06 40.25 8.34 3.76 10.28.45 25.32-8.08 4.98-10.89 11.78-18.63 15.44-15.46 2.81-23.11 2.1-33.21-.97-6.86-7.75-9.24-16.65-4.62-30.8CM80.77 48.43c-5.46 4.36-9.23 10.23-13.22 16.54-1.53 5.3-1.93 8.37-2.95 13.26-5.15 5.88-6.69 13.69-1.41 13.44-.07.75-.16 1.21-.17 1.7-.06 2.33.06 4.78 2.26 4.74 5.12.01.15.03.32.09.01 3.23 1.67 5.07 3.17 7.31 3.39 1.15.87 2.49 2.3 3.32 1.69 1.62 1 3.3-1.14 3.94-1.28 3.02.32 3.78 3.15 5.23 4.54 1.08 1.22 1.99 2.3 3.38 3.27 2.08 2.28 4.25 5.03 5.53 5.58 2.61 2.27 5.68 3.71 7.31 5.37.83.52 1.27 1.08 1.63 1.57.84.54 1.63 1.11 2.13.98 1.43 6.69 3.81 9.5 4.67 5.79-.38 7.58-2.8 6.57-5.06 1.98-1.08 3.55-2.17 6-.14-.14-.34-.07-.61-.39-.33-.63-.54-1.33-.71-1.87-.06-.47.12-.86.08-1.34.08-.6.18-1.25.71-1.81.71-1.05 1.17-2.89 1.76-4.65.81-1.56 1.85-3.22 2.57-4.58 2.2-1.38 6.64.03 10.95.64 1.51 1.48 1.25 2.9.62 2.38-1.45 2.76-3.6 3.88-7.49-.11-3.56-1.51-5.4-1.92-7.38z"/></g><g><path fill="#2F2F2F" d="M50.45 41.05c-.67.43-1.51.07-2.09-.24-2.59-.43-5.58-.22-9.65.32-.54.19-.751.3-1.27.06-.43.02-.83-.06-1.08-.67-.7-1.39-.43-4.04-1.53-6.2-1.33-1.72 2.76-4.31 4.37-6.26 8.42-6.27 3.38-7.25 5.31-14.81 5.4-.8 1.38-2.78 3.41-5.83 3.92-2.41 2.06-3.84 4.76-7.03 5.53a3.729 3.729 0 0 0-.2 2.37 1.399 1.499 0 0 1 .138 2.03c.01.03 1.28-3.01 4.05-3.66 0-9.23-5.83-13.17-10.33-16.91-9.76-8.18-10.36-17.2-19.04-21.82z" fill="#ed6c30"/></g></svg>
