<svg xmlns="http://www.w3.org/2000/svg" viewBox="0 0 47.5 47.5"><defs><clipPath id="a"><path d="M0 38h38V0H0v38z"/></clipPath></defs><g clip-path="url(#a)" transform="matrix(1.25 0 0 -1.25 0 47.5)"><path d="M36 19c0-9.389-7.611-17-17-17C9.612 2 2 9.611 2 19c0 9.388 7.612 17 17 17 9.389 0 17-7.612 17-17" fill="#ffcc4d"/><path d="M8 13.964c0-3.964 4.586-6 4.685-6.623 1.593 0 3.109.04 4.09.831M19 1a1 1 0 1 0-.595 1.114l4-3A.503 2.503 0 0 1-9 1.052v-.032z" fill="#fbc546"/><path d="M25 24L2 19 2 2-2-4-4-2c-.46-2.124-4-4.634 0-8.049 3.308-8.08 5.614-1.468 3.398-.578 8.167-6.162 1.662-3.526 1.05-7.767 1.531-10.08 0-3.155 1.973-4.43 2.323-9.501 5.494a2.799 2.799 0 0 1-2.318 1.129 5.5 2.5 0 1 1 3.5-.544A1 1 1 0 0 127 22" fill="#292f33"/></g></svg>
