<svg xmlns="http://www.w3.org/2000/svg" viewBox="0 0 128 128"><path d="M52.39 52.14c-.69.44-1.56.57-2.37.55-2.05-.01-5.03-.89-6.69.62-1.34 1.24-1.67 3.52-1.2 5.19.69 2.58 3.18 2.51 5.13 3.73.5.3.69.98.52 1.5-.06.2-.07.26-.17.36-.18.36-.33.76-.34 1.16-.65 2.72-.45.57-.3 9.2-3.67 16.38-5.71 6.15-.53 13.7 1.08 21.89 11.15 3.37 2.91 6.44 12.38 10.34 16.32 23.61 21.78 21.05 18.58 4.51 32.79 4.54 7.12.39 1.17.81 2.25 1.33 3.47.59.67 1.26 1.29 2.13 1.96.79.4 1.42.84 2.29 1.26.6.38 1.73.62 2.51.66.58.1 1.16.2 1.74.18.26.03.64.17.72.32.32-.01.45-.02.6-.04z"/></svg>
