<svg viewBox="0 0 32 32" xmlns="http://www.w3.org/2000/svg" fill-rule="evenodd" clip-rule="evenodd" stroke-linejoin="round" stroke-miterlimit="1.414"><path fill="none" d="M0 0h32v32H0z"/><path d="M26.17 2.001A3.99 3.99 0 0 1 14.994 15h.002a7.28 8.27 0 0 1 6.541 4.024l.765 1.529c.139.041.098.065.245.125a5.519 5.597 0 0 0 0 11.796V23.4a3.5 3.5 0 0 1 3.5 3.5zM9 15.509h10h-1v1zM17 17.508c0-.827-.675-1.498-1.498-1.498h-.004C9.661 15 9.961 19.767 20 7 2.1a.499.499 0 0 0-.679.014l-.004-.006a7.528 7.527 0 0 1-.306.122 4.61 4.61 0 0 1-2.828-3.111 4.99 4.99 0 0 1-.72-3.257 3.478 3.478 0 0 1 .95-4.67A2.998 2.998 0 0 1 11.308 2.82a1.00 1.001 0 0 0 .187-1.619 1.02 1.02 0 0 1 .605-.684L15 17.508V10h-.002a7.28 8.27 0 0 1 0-.586c0-.626-.017-.659.008-1.247.116-.486.284-.745.784-1.121l-.186-.369z"/><path d="M31.5 5.017l-1.281 1.986a.993.993 0 0 1-1.517-.891c-.075-.007-.099-.009-.11-.007-.018-.005-.029-.007-.039-.008-.039-.086-.039-.085-.051-.084-.053-.083-.045-.083-.045-.082-.049-.08-.049-.088-.047-.088-.046-.087-.046-.089-.048-.082-.043-.082-.045-.081-.045-.083-.043-.082-.04-.08-.041-.08-.044-.08-.045-.08-.047-.089-.048-.088-.05-.087-.05-.087-.051-.086-.052-.086-.054-.085-.054-.084-.056-.084-.056-.083-.058-.082-.059-.082-.059-.081-.061-.08-.062-.08-.063-.079-.064-.078-.064-.077-.066-.077-.067-.076-.068-.075-.069-.075-.07-.073-.071-.071-.07-.881-.881-.047-.05-.043-.053-.039-.056-.036-.058-.031-.061-.027-.062-.023-.064-.019-.066-.013-.067-.01-.068-.004-.068v-.068l.004-.068.01-.068.013-.067.019-.066.023-.064.027-.062.031-.061.036-.058.039-.056.043-.053.047-.05.881-.887.05-.056.054-.056.064-.057.063-.058.061-.059.059-.058.058-.057.058-.057.058-.057.058-.055.058-.054.057-.054.058-.053.058-.051.06-.051.061-.049.061-.048.063-.048.063-.048.064-.047.065-.046.065-.045.067-.044.067-.042.068-.041.069-.04.069-.039.069-.037.07-.036.071-.035.072-.034.072-.033.072-.03.074-.031.074-.029.074-.029.074-.028.075-.027.075-.026.075-.024.076-.022.077-.021.077-.02.077-.019.078-.017.079-.017.079-.014.079-.014.08-.012.08-.01.08-.009.08-.008.081-.007.081-.005.082-.003.081-.002.078-.001h1.536l.078.001zM12 13.5a1.503 1.503 0 0 0-1.5-1.5A1.503 1.503 0 0 0 9 12.5v2a1.503 1.503 0 0 0 1.5 1.5 1.503 1.503 0 0 0 1.5-1.5v-2zM23 12.498c0-.827-.671-1.498-1.498-1.498h-.004c-.827 0-1.498.671-1.498 1.498v2.004c0 .827.671 1.498 1.498 1.498h.004c.827 0 1.498-.671 1.498-1.498v-2.004zM11.442 19.001l.019.001zM9.036 14.048A1.004 2.104 0 0 0 1.983 1.322H17v3.5h6.779a.999.999 0 0 1-.747.204c-.271.03-.441.047-.593.272l-.056.075c0-.334-.076-.709 1.111L15.216 17.801l3.194-3.024 1.881 2.862c.447-.073.623-.09.74-.33.166-.002.099-.016.313-.103.303-.139.04-.307.007-.017-.008-.331a1.23 2.13 0 0 0-1.514 1.094 1.057 1.057 0 0 1-.542.278c-.326.015-.753.03-1.42.022-.223.052-.268.078-.371.079-1.072.009-2.269.009-4.298 0a11.974 11.974 0 0 1-.702 3.897 12.052 12.052 0 0 1-4.517 2.546 12.031 12.031 0 0 1-3.759-.653 12.038 12.038 0 0 1-4.471-2.756 12.029 12.029 0 0 1-3.547-7.257 12.666 12.666 0 0 1-.073-1.184 180.81 180.81 0 0 1 0-2.329 13.965 13.965 0 0 1 .791-4.472 14.04 14.04 0 0 1 8.394-8.498 13.937 13.937 0 0 1 4.634-.849h.354z" fill-rule="nonzero"/><path d="M28 16c0-3.183-1.264-6.235-3.515-8.485A11.996 11.996 0 0 0 16 4C9.373 4 4 9.373 4 16v2a10.001 10.001 0 0 0 10 10h5a9 9 0 0 0 9-9v-3z" fill="#fbc546"/><clipPath id="a"><path d="M28 16c0-3.183-1.264-6.235-3.515-8.485A11.996 11.996 0 0 0 16 4C9.373 4 4 9.373 4 16v2a10.001 10.001 0 0 0 10 10h5a9 9 0 0 0 9-9v-3z"/></clipPath><g clip-path="url(#b)"><path d="M17 19h3.341a7.23 6.23 0 0 1 1.602 1.059c.135.42.409.856.121.157l1.186 1.384 1.819 2.132.702.228a.482.463 0 0 1-.735.523.736.473 0 0 1 .211-.164h.502L2.901 23.657a.997.997 0 0 1-1.209.702c-.923 0-1.259-.305-1.228-.886L15.8 118l-1 1-.05 1.216 0 1.958.395 1.527 1.25a4.473 4.473 0 0 1 .22 4.206 7.929 7.039 0 0 0-2.828 3.249 6.03 6.03 0 0 1-3.509 2.142 4.582 4.583 0 0 1-2.048-3.113c.109-.41.137-.929.119-.171a2.998 2.998 0 0 1-.288 7.445c.009 1.438.009 2.358 0 4.332a1.09 1.99 0 0 0-1.008 2.21V108h2.126a1 1 0 0 1-.826-.473l-.087-.001a2.15 2.14 0 0 1 1.376.234c.136.062.267.078.376.119.38.253.662.598.647.883a6.553 6.553 0 0 1 2.859 3.205c.185.683.407 1.053.176 1.582a3.51 3.51 0 0 1 .956 2.215 3.076 3.167 0 0 1 1.157.238c.034.06.125.056.216 1.057.465 1.072.774 1.563.737 2.079 1.47 1.018 4.65 1.177 6.773a5.148 4.498 0 0 1-.264 2.378 7.056 7.056 0 0 1-1.518 4.09l7.855 5.856 12.359-6.906z" fill="#d92082"/><path d="M16.569 16.002c.335.031.777.089 1.351.15a1.008 1.008 0 0 1 .498-1.021 1.005 1.005 0 0 0 2.674 1.365H2.999 2.991 1.987.903 2.702 1.447 5.361.424a2.402 3.092 0 0 1 2.677 1.191 2.003 2.003 0 0 1 .718 2.847 14.065 14.066 0 0 0 3.282 2.914 6.004 6.004 0 0 1-2.323 3.274 6.034 6.043 0 0 1 .227-1.216l.044-.001a2.958 2.958 0 0 1-3.877 1.386c-1.712.706-3.771-.209-3.859-2.157.084-5.704 4.957-10.279 5.442-1.178a2.648 2.648 0 0 1-3.049-.185c.314-.26.439-.52.546-.746l.18-.386c.312-1.634.443-5.264.695-6.561a4.816 4.116 0 0 1-.431 1.05 4.81 3.81 0 0 1-7.251-2.614 6.004 6.004 0 0 1-2.323-.482A49 4.946 4.486 0 0 1-3.328.571 6.024 6.024 0 0 1-1.292-3.247 4.657 4.676 0 0 1 .996-2.851 4.037 4.037 0 0 1 1.337-1.621c.431-.353.805-.705.94-.929a4.001 4.001 0 0 1 5.223 3.247c.013.253.096.478.024.13.071.178.052"M70.775 10.394a1.427 1.427 0 0 1 .727-.418c.948-.025.753.04 1.343.092 2.049.146.727 1.388 1.635 1.819 1.071.424 1.267-.087 2.151-1.384.997-.744.629-1.307 1.679-1.501 1.812 0 0 0 1.689-1.14M12 18.5a1.5 1.5 0 0 0-1.5-1.5H25l-1 1v1l1 1h.5a1.5 1.5 0 0 0 1.5-1.5zM11 19.5A1.5 1.5 0 0 0 9.5 18h-3a1.5 1.5 0 0 0 0 3h3a1.5 1.5 0 0 0 1.5-1.5zM11.001 20.001l.081.002.08.001z" fill="#6e4e40"/></g></svg>
