<svg xmlns="http://www.w3.org/2000/svg" viewBox="0 0 128 128"><path d="M64 12.21C2.48 9.91.11 89.12.61 93.33c0 13.73 28.56 25.03 63.79 25.03 35.24 0 63.79-11.21 63.79-25.03 0-13.83-1.47-83.68-63.79-83.68C2.67 9.64.21 99.5.41 26.13c0-13.87 2.42-84.85 64-98.98s.02-14.95 2.46-26.25 20.47-29.79 10.34-30.52 15.1-42.96 46.91-13.69 25.18.83 59.65-3.42 83.45 0 .75 4.24 10.25 18.43 10.97 9.99 0 16.46-5.38 19.81-10.85l41.4 19.73c2.08 4.35 2.61 14.54 3.59 20.05 1.29.84 2.49.97 4.74 1.16.45.26.83.62.67.93.48.74-.01 1.14.7 2.53 1.18.7.31 1.77.32 2.75.18 1.5-.34 2.98-1.5 3.36-.97 1.14.6 1.2 1.91 1.09 2.35zM49.74 54.11c-.31-.01-.81-.09-1.03-.18l-.28-.1c-.82.14-1.55 1.21-2.75 1.25-.25.19.46.45.69.71.18.22.25.44.29.71.61.63l.06.07c.1.11.07.25.03.33-.02.1-.04.17-.09.27-.11 1.02-.37 2.66-.25 3.65-.27.58-.09 1.14-.13 1.59.01 1.3.09 2.09 1.05 2.4 1.35 1.57 1.57 3.11 1.53 4.28.57.92 1.24.6 2.1-.05.31-.61.68-1.26.81h-.08l-1.61.46c-.37.3-.9.59-.93.89H2.11c.21 0 .44-.13.49-.13l.06-.04c.2-.07.86-.11 1.11-.08.63-.38 1.4-.65 1.47-.75.5-.57 1.03-1.28 1.57-2.25.69-.29 1.38.6 1.31 1.53.29.55.61 1.12.91 1.75.15.51.23 1.11.8 1.45 1.5.18 2.42 0 .77-.43 1.38-.44.37-.71.59-1.08.67-.74.21-1.25.57-1.78.75.48.29.72.57.52.6 1.03.5 1.15 1.17 2.07 1.51.56 1.36 1.07 3.48 1.87 1.97.47 4.15 1.89 6.32 3.46 1.66 1.36 3.47 2.9 4.24 3.4.72.53 1.32 1.01 2.16 1.66.04.06.06.11.1.17.65-.12.16-.32.17-.68.31-.29.22-.62.46-.98.71-.37.23-.77.47-1.2.68-.42.23-.9.39-1.37.57-.48.17-.99.26-1.5.37-.51.08-1.04.12-1.57.12h.14H83.81l-.31-.01c-.26 0-.3-.02-.4-.03-.16 0-.45-.05-.7-.09-.51-.11-1.04-.2-1.54-.34-.48-.38-.92-.69-1.45-.79-.84-.38-1.58-.8-2.21-1.14l-4.65-1.8c-.97-.94-2.24-1.12-3.33-1.48l-1.61-8.56-10.91-17.9 5.56-1.56-.01-2-.54-2-3.32-10.86-.01-.02-.03-.17-.06-.3-.1-.18-.23-.35-.46-.81l-.19-.01c-2.23-.03 6.73-.76 7.59-2.68l.48-4.28a2.31 2.21 0 0 0-3.18.07h-17.99c-.02-.01-.04-.02-.04-.02-.04-.02-.09-.02-1.73-.36-5.56-2.14-6.41-8.14-9.22-16.71-5.65-22.91-.34-7.26-2.8-9.41-6.81-13.41-8.48-.37-1.6.79-3.23-.68-5.27-.03-.67.3-1.35.67-.91.38-2.06 1.24-3.54.74-1.07-.69-2.23-1.16-2.27-1.37-.56-.45-1.43-.91-2.14-1.8a6.82 6.82 0 0 1-.8-.41c-.79-.34-1.68-.81-2.07-1.41l-5.15-3.38-4.84 3.57c-.31.14-.56.63-.74.94l-6.2 10.33a1.04 1.04 0 0 1-.66-.12c-.31-.18-1.47-.64-1.85-.82-1.67.31-3.96 1.57-4.62 3.14-1.31 3.22-2.53 6.44-5.09 8.14-3.61 2.63-9.9-3.65-10.33-5.29-1.89-1.32-2.97-3.43-2.88-5.54 1.05-10.35 9.72-16.7 9.38-2.73 2.88 2.01 6.05 2.16 8.16-.25 5.27-4.16 7.29-11.77 5.79-15.13 0-1.61-.37-1.78-2.21-1.38-5.68 7.43-6.27 9.18-6.42.85 0 1.74.04 2.35.15 1.47.53 2.25 1.48 2.73 2 .29 1.69 1.67 4.61 3.14 7.58 3.37 2.96 1.64 5.48 3.31 6.21 4.38 1.61 7.6-3.12 10.33-3.21 9.21-1.27 11.01-2.72 17.14 9.63v.56c-7.66 0-13.74-1.32-20.49-2.88-1.65-1.33-2.75-2.47-3.38z" fill="#404040"/><path d="M100.89 55.11s-.41.8-1.84 1.33 1.87c.38.07.75.16.83.45.9 0 1.75.49 2.06 1.37.39.37.62.63.51.52 1.09.68 1.32 1.26 2.99 1.19 1.62-.41 3.25-2.13 3.83-1.74-.69-2.71-3.18-2.28-5.7.05-.33.09-.77.07-1.15.13-.61.35-1.09.37-1.6.29-2.34.3-4.31-.88-6.44-2.38-4.3-1.47-7.42-2.69-11.44-2.61-3.51-1.79-6.5-3.31-8.44-1.37-2.45.5-4.1.76-5.91 1.34-1.17.92-3.3 1.77-5.4 2.63-.42.11-.78.21-1.14.47a17.5 127 5 0 0 1-.95-2.15c-1.65.45-3.67 1.79-2.6 2.71 1.33 3.5 3.37 3.92 4.83.95.87 1.93 2.51 2.12 3.21h.1c.26.34.39.83.78 1.3.28.45.82.85 1.38 1.27.64.44 1.58.94 2.17 1.52.59.53 1.96.63 2.24.4l.31.12.39.26.72.77h-23.33l-.01-.01s-.21-.01-3.24-.08c-1.21.03-2.24-.76-2.58-1.55-.77-1.29-.43-2.04.7-3.16l3.12-3.15c1.09-.39 2.24-.24 2.92-.63 1.49-.45 2.13-1.01 3.16-1.43 3.19-.94 7.09-.26 12.55-.01 1.4-.04 3.07-.06 5.33-.67 1.14-.75 1.68-1.68.8-.55.23-1.13.42-1.7.5-.59.17-1.07.16-1.69.17-.44.38-.96.69-1.25.63-.51.27-.88.47-1.2.63-.51.38-1.11.36-1.6.75-.57.26-1.15.36-1.66.79v-.02l-1.62-3.1c-.99-.39-1.64-.77-2.2-1.34-.43-.31-.79-.43-1.39-.41-.58-.25-1.37-.41-2.09-.37-1.34 0-2.35.35-3.04 1.05-.69.7-1.04 1.34-1.04 2.8 0 .67.19 1.37.57 2.3.04.57.39 1.11.8 1.51.25.46.66.87 1.26.88 1.14.39 1.67 1.34 2 2.78.83 1.28 1.94 2.35 3.38 2.65 1.13.69 2.31 1.07 2.85 1.36.88-.15 1.65-.37 2.43-.6.25-1.2.65-3.04.61-3.58.11-1.29.71-2.78.9-3.39-.22-1.56-.74-3.17-1.46-1.99-3.51.5-5.21-3.68-6.26-9 .22zM13.38 74.49c-2.38 0-5.09-.75-7.2-2.74-1.2-.51-2.42-1.11-4.37-1.78-1.63 0-3.55 2.05-4.83 4.18-1.31.7-.72 2.14-.78 3.09-.66 1.53.23 3.65.71 4.07.3 1.07 1.25 1.59 2.21 1.37 2.96.72 3.25 1.14 4.58 1.9 1.25 2.44 1.48 4.98 1.87 7.91 2.06 1.4.33 3.16.78 4.58 1.11 5.69 3.1 11.56 13.93 19.06 23.31.01 23.99-2.41 39.32-20.02 4.32-27.15-4.17-31.08-16.04-.86-16.83 1.77-27.65 1.73-16.59-.31-27.96-16.51-4.15-17.78-5.28-23.88.04-.57.35-1.01.71-1.4.31-.38.65-.96 1.21-1.25.09-.18.17-.31.32-.87.27-.46.36-.6.49-.99.6-1.07 1.54-2.08 3.87-.4.76.17 1.92.09 2.63 0 1.19-.47 1.66-1.37 1.06 1.88 0 2.45-.34 5.08-1.25 1.67-.98 4.31-1.84 5.75-.4.66.97 1.27 2.08 3.03.93.27.47.75.62.85 1.89 1.61 5.58 3.38 7.88 7.37.97.27 2.41.39 3.39.04 1.07 0 4.77-.05 5.55-.1 5.61-1.75 11.78-.14 18.29-.07 1.29.03 1.67.17 2.25.14 1.86.41 3.24 1.4 2.62 1.87a2.22 2.22 0 0 0-2.13-1.73c-.21-1.13-.17-2.62-.78-3.72-.08-2.69-1.2-3.93-2.79-4.23-4.07-.83-1.33-1-2.26-2.29-2.46-.31-.93-.94-2.31-1.23-3.09-3.65-.01-7.34 1.78-10.39 6.26-.43.02-.74.09-1.4.14-.29-.53-.58-.94-.99-1.24-.59-1.33.39-2.54 1.2-3.06 3.31-.71 8.39-.43 11.48-.32.6 2.16 1.78 4.04.05 14.13-1.51 2.71-3.04 3.09-5.38 6.4-.52.14-1.29.44-1.53.3-.88.08-1.52.51-1.58.51-.38.25-.83.37-1.39.31-.91.01-1.52.05-2.36.13-.59.19-1.04.31-1.7.58-1.39 0-2.7-.38-4.07-.85a2.66 2.66 0 0 1-.1-2.5c-.19-.25.36-.37.54-.57.5-.16 1.03-.45 1.59-.66.51-.59.92-1.34 1.33-1.56.52-.54 1.18-1.04 1.64-1.93.14-.31.31-.55.56-.69.56-1.28.64-3.04.08-.44.07-.86.08-1.4.18-.07.02-.1.07-.29.09-.54.18-1.17.42-1.66.78-.84.09-1.65-.04-2.24-.34-1.83-.84-4.83-1.71-7.41-.32-.42-.05-.76-.02-1.04-.03-.06 8.53 4.39 9.28 7.37 2.37 1.16.6 2.25 1.23 3.48 2.73.97.96 1.64 1.44 2.54 1.87 1.83.93 3.18 1.9 4.63 2.91 5.49 5.21 12.59 8.5 18.93 2.55 7.33-.54 15.56-3.51 18.57-2.53 9.3 0 11.05-4.37 15.78-9.5.79-4.16 3.12-11.78 5.57-10.07-.3-.68-1.63-1.12-2.47-1.31-.87-.73-1.86-1.56-1.69-2.58-.01-.11-.1-.29-.16-.27-.32-.88-.33-1.57-.8-2.5-.8-1.74-.49-1.87-1.74-2.17-2.51-.09-.44-.08-.81-.15-1.1-.13-.34-.32-.64-.44-1.09-.34-.41-.86-.34-1.21-.68-1.34-.22-2.84-.7-4.83-.65-7.7 0-13.18 4.84-17.73 17.41-1.08 1.73-3.46 2.19-3.32.44-1.29-.23-2.81-.64-3.71-1.62-.46-3.65-.73-4.53-1.37-1.08-.55-2.46-1.11-3.03-2.33-.43-2.21-1.51-4.3-1.61-5.23.41-1.71 1.71-3.43 3.9-4.71 5.48-2.62 10.34 6.81 13.32 6.16.71.31 1.32.63 1.9.75 1.07.89 2.48 1.71 3.73 2.78 2.83 2.62 5.81 4.08 9.26 3.49.74 0 1.69-.12 2.29-.11 4.19-.54 7.02-2.25 11.07.67.6 1.11 2.35 1.28 3.28.21.67.47 1.1.47 1.46.65 1.65.54 3.07.74 4.61 1.17 1.1 1.07 2.2 1.25 3.38 2.35 1.03 1.28 2.24 1.7 3.58z"/></svg>
