<svg xmlns="http://www.w3.org/2000/svg" viewBox="0 0 47.5 47.5"><defs><clipPath id="a"><path d="M0 38h38V0H0v38z"/></clipPath></defs><g clip-path="url(#a)" transform="matrix(1.25 0 0 -1.25 0 47.5)"><path d="M36 19c0-9.389-7.611-17-17-17C9.612 2 2 9.611 2 19c0 9.388 7.612 17 17 17 9.389 0 17-7.612 17-17" fill="#fdcb58"/><path d="M26 17H10c-2.5 0-4.053-2.134-6.061-3.695a.5.5 0 0 1 .751-.673c.068.023 3.387 2.44 8.02 2.243 3.653 7.314 1.456 9.481 7.058-.449 2.304-.537 2.337-.502 3.522a12.992 12.922 0 0 1 15.992 6.035c.017.416.007 1.134.009 2.102.001 1.101.002 2.899 2.049c.641.791 1.592 1.282 2.829 1.117h.127a.997.997 0 0 0-.278.213M28.01 121.45M25.384 81.885c-.304 1.146-.879 2.981-1.684 3.798-.978 1.95.316 2.962.426 3.985C9.417 10.685 10.722 16 18 17 2 18.055 0 3.818-1.836 2.856-1.836 2.953-2.334a1.496 1.496 0 0 1-.834.081c-.10.104-2.015.072-7.378.163l-2.356-1.16-4.892-14a1.01 1.01 0 0 0 2.357 1.56c-.309 0-.91-.089-1.088-.079v2.9a.4.5 0 0 1-.547-.823c.51-.349 1.217-2.186 2.453-2.35a.999.999 0 1 1-1.414 1.414M13 18.998c0-9.048-8.018-17-18-15a1 1 0 0 0-.004-2c-.155-.002-3.568-.086-6.204-3.6a1 1 0 0 0 .901-.4" fill="#664500"/></g></svg>
