<svg xmlns="http://www.w3.org/2000/svg" viewBox="0 0 128 128"><path d="M64 12.36C1.68 9.61.11 79.58.12 93.3cc0 13.88-28.69 25.08-63.06 25.97S30.31 10.86 21.18 24.63l-.93.27z" fill="#c1272d"/><path d="M112.17 106c-.2 1.07-1.65 1.81-2.46 1.72-1.25.93-3.26.21-4.49-.49-2.31.11-3.03 1.48-4.6 2.41-.65.96-2.11 1-3.44 1.91-2.62-.53-5.08-.54-7.89.82-2.07 1.3-3.45 1.91-4.22 1.87-.85 0-1.49-.04-2.25-.25-1.3-.04-2.87.81-3.56 1.21-.58.69.09 1.3.65 1.42 1.37.69 1.53 1.95 2.43 3.15 1.37 2.44 2.36 5.25 1.52 6.01.55 1.07 2.19 1.84 4.58.22 1.27.98 1.65 2.51 1.32 3.89h-8.78c1.05-2.04 2.16-2.34 3.33-1.51 1.31.61 2.5 1.11 2.73 2.71 3.6 2.43 6.38 3.91 9.48 4.12 2.26.59 6.34 1.95 8.42 3.57-.53.88-1.11 1.28-1.89 1.89-.92.71-.39 1.79-.38 2.46.02.79.66 1.38 1.13 2 2.78.68.9 1.3 1.29 2 .49 0 .69-.28 1.3-.68 1.9-1.12-1.95-4.02-3.39-7.11-6.14-13.19-5.08-6.35-10.06-10.05-9.64-7.9-.74-9.18 1.73-11.48 5.28-16.68 3.27-.86.83-1.93 2.32-1.89 3.77 1.3 1.95 3.7 2.54 4.65 3.78 1.7.9 2.89 2.83 5.01 4.53 3.3 4.48 9.28 5.9 11.41 6.27 2.59.7 8.3 1.13 14.1 1.15 3.12-1.1 6.33-2.32 8.7-.14.92-.51 1.99-.31 2.85.38.95.25 1.63 1.06 1.9 1.25 2.1 1.06 3.42 2.76 3.2 5.61.75 2.09 2.14 3.74 3.33 1.89.3.21 1.89 1.43 1.97 2.42-2.51 6.29-6.59 14.4-13.82 15.13-1.38.31-3.17.42-6.31-.68-2.08-.33-4.17-.68-4.95-2.08-1.77-1.24-3.17-3.49-2.47-6.12.55-1.66 1.7-3.65 3.01-5.36.78.38 2.54.78 3.4.51.69 0 1.31-.03 1.95-.26 8.03-.67 16.52-10.38 14.97-5.38 3.11-10.17 11.71-16.39 9.79-.33.09-.66.07-1.07.01zM54.93 12.95c-.43 4.43-2.98 5.87-6.51 5.61-2.06 1.27-4.65 2.87-5.83 2.44a2.61 2.61 0 0 1 .18-4.64 2.31 24.11 0 0 1 3.34-.15c19.48-16.16 44.76-49.06 55.63-22.36 5.55-20.11 19.46-4.72 31.74-5.34 6.7 5.61 3.38 15.15 1.05 30.27-.68 5.82-2.39 1.07-6.54 1.74-12.26 1.08-1.48 0-2.84-.34-4.15-.78h-7.4c-.34 1.5.39 3.04.42 4.04.08 2.06 1.69 3.2 2.39 3.2.66 0 1.66-.32 2.15-1.23.36-.04.62-.11.88.02.92 1.78 1.4 3.43 1.55 5.11.17 1.49.06 3.77-.04 5.76-.66 1.44-1.54 2.3-3.25 3.1z" fill="#eb8f00"/><circle cx="16.93" cy="33.98" r="3.93" fill="#e0e0e0"/><circle cx="110.05" cy="43.07" r="3.93" fill="#e0e0e0"/></svg>
