<svg xmlns="http://www.w3.org/2000/svg" viewBox="0 0 128 128"><path d="M117.68 31.69c-2.88 5-4.42 8.93-7.53 12.44 1.34 3.11.87 6.28 1.55 1.36.68 1.96 1.07 1.83 1.45 2.64 1.54 5.08 1.75 7.82a24.37 34.37 0 0 1-7.27-3.04c-2.15 1.56-2.62 5.19-1.65 8.43 1.32 2.98 5.89-.54 7.25-.25 1.1.35 1.97 1.86 1.43 3.4-.74 2.44-6.11 4.73-10.59 1.41-1.04-3.03-3.13-4.65-3.3-2.33-.4-4.85 1.75-5.83 2.91-1.12 2.69.87 4.72 2.56 6.27 2.38 3.6 3.08 6.83 4.81 12.63-2.51 9.3-12.35 15.97-25.68 11.83-15.53-.08-20.5-4.18-30.28-10.04v-.35-1.39.63-2.53 1.63-3.52l12.31 7.13 11.59 16.16a12.542 15.462 0 0 0-3.1 5.37l-.05-.01c.04 0 .01-.02.01.02.01.02.01.01.01.02.01.01.01-.02.01.01.01 0-.01.01-.01 0-2.61 1.76-3.38 3.79-.77 3.2-2.31 4.2-3.73 5.28-2.91 2.14-5.13 4.15-8.76 5.19-1.19.15-2.62.47-4.65.66a7.81 7.81 0 0 1 6.5 9.05c-.15.25-.28.43-.57.46-1.17.99-2.5 1.5-3.52.3-.85.91-1.87 1.3-1.42.56-.31 1.3-.37 1.79-.36.83.07 1.62.29 1.81.25.74.47.97 1.26.76 1.99.57.58 1.18 1.29 1.81 1.63.61.49 1.19 1.3 1.94 1.49.66.45 1.25.67 2.25.42a14.08 14.08 0 0 1 4.23-6.23c.79-.94 1.75-.48 2.74.06l4.46 8.41 7.64-1.77a2.13 2.13 0 0 1-3.96.03c-.28-.01-4.4.7-9.05 7.03-11.81zM34.98 111.36a2.66 2.66 0 0 0-2.33-1.83c-.29-.37-.42-.73-.82-1.07l2.47-14.3c.25-.44.12-1.08.12-1.61.06-.81.18-1.14.24-1.41.34-.38.29-.63.49-.93.54-.48 1.19-.27 1.79.61a5.94 5.754 0 0 0 2.19 7.48 2.289 2.289 0 0 1-.19-3.38c.2-1.14-.57-2.24-1.73-2.45zM54.25 90.2c-.1.97-.43 1.67-.71 1.67-.32.98-.14 1.84..48 1.81 1.84-.21 3.07-.55 3.9-.88 1.1-.74 2.43-1.38 3.79-2.63 1.65-1.22 3.69-2.69 4.33-4.9.33-.95.97-2.25.94-3.48-.14-1.51-1.01-2.27-.73-1.12 0-2.32.04-3.39.87-6.51 2.88-9.21 7.71-24.01 4.64-8.32-6.05-10.04-10.02-10.05-20.84 4.18-6.27 14.31-8.46 21.54-2.83 9.64 1.37 23.41 5.61 30.41 11.07 18.04 9.78 29.81 28.65 23.62 21.68 11.69 21.79 24 53.39 2.68 61.46 0 30.78-11.01 29.3-22.48.21-.49.06-1.31 0-12.91 0-20.69-5.42-30.41-11.51-4.49-.05-12.49 1.93-18.47 2.96 1.38 1.38 1.67 3.71 1.65 5.11.35 2.35-.67 3.59-1.87 5.51-.54 1.67-2.04 3.4-3.16 3.29-2.15.09-3.86-1.44-5.45-3.27a2.803 2.803 0 0 1-3.87-1.71z"/></svg></svg></svg>
