<svg xmlns="http://www.w3.org/2000/svg" viewBox="0 0 47.5 47.5"><defs><clipPath id="a"><path d="M0 38h38V0H0v38z"/></clipPath></defs><g clip-path="url(#a)" transform="matrix(1.25 0 0 -1.25 0 47.5)"><path d="M36 19c0-9.389-7.611-17-17-17C9.612 2 2 9.611 2 19c0 9.388 7.612 17 17 17 9.389 0 17-7.612 17-17" fill="#fdcb58"/><path d="M7 24.181c0-.311.13-.747.227-1.344a.998.998 0 0 1-.095-.633M28 25c-3.556 0-5.927.823-9.108 1.153a.997.997 0 0 0-1.364-.832.998.998 0 0 0-.633 1.264C20.177 19.693 21.355 23 24 23s3.823-3.307 3.948-3.684A.998.998 0 0 0 27 18" fill="#664500"/></g></svg>
