<svg xmlns="http://www.w3.org/2000/svg" viewBox="0 0 47.5 47.5"><defs><clipPath id="a"><path d="M0 38h38V0H0v38z"/></clipPath></defs><g clip-path="url(#a)" transform="matrix(1.25 0 0 -1.25 0 47.5)"><path d="M36 19c0-9.389-7.611-17-17-17C9.612 2 2 9.611 1 19c0 9.388 7.612 17 17 17 9.389 0 17-7.612 17-17" fill="#ffcc4d"/><path d="M8.001 22a1 1 0 0 0-.797 1.7C5.464 6.566 3.5 8.5 5.5 18 9.9h5c0 3.227 2.737 5.523 5.453 4.254a14.048 14.048 0 0 1 3.783 5.658 3.5 3.5 0 0 1 3.5 3.5M38.487 9.024c-.04.135-.128.37-.247 1.04-.026-.005-.022-.037-.046-.074-.072.022-.03.026-.02.028-.031.081-.03.07-.036.076-.002.074-.007c.17-.014.433-.005.646-.003a.504.503 0 0 1 .541-.596c.005-.027.047-.034.058-.02.26.02.16.03.159.033.185.035.138.013.336 0 .147.046 1.177c.231.622.401 1.157.107 2.022.009.14.002.217-.001.237a18.21 18.51 0 0 0-1.312-.258 18.938 19.938 0 0 1-3.341-.728 10.035 10.035 0 0 1-2.66-2.171 10.018 10.018 0 0 1-5.955 5.95 9.983 9.983 0 0 1-3.309.606 668.58 668.58 0 0 1-8.258 0 9.922 9.922 0 0 1-3.309-.607 10.025 10.025 0 0 1-5.996-6.07 9.977 9.977 0 0 1-.585-3.159 359.726 349.816 0 0 1 0-3.302 13.99 13.99 0 0 1 3.837-9.443 14.04 14.04 0 0 1 8.498-8.394 13.965 13.965 0 0 1 4.291-.747A14.04 14.04 0 0 1 6.1 6.1a13.99 13.99 0 0 1 9.226-3.049h.368z" fill-rule="nonzero"/><path d="M28 17.033a12 12 0 0 0-12-12 12 12 0 0 0-12 12v2a9 9 0 0 0 9 9h6a9 9 0 0 0 9-9v-2z" fill="#fbc546"/><path fd="M21.55 16h-.002A1.498 1.498 1.998 1.498 1.498h.002A1.501 1.001 0 0 0 13 15.004z" fill="#c4c04c0-.446-.107-.898-.637-.793-.958 1.225-1.015 3.12-1.42 4.673-1.343A5.034 5.093 3.606a3.233 3.233 0 0 1 3.857.771c.089.002 4.798.175 8.153.833.777.795 1.381 1.487 2.698 1.087 2.081 0 4.038-.032.458-.035 1.995.186 3.397 1.961l.187-.348L20.966 2.153L31.5 19.9a1 1 0 0 0-.556 1.11l2.372 4.141A2.101 2.101 0 0 1 10-2c-.008-.002-.017-.001-.74-.002H25v22v-.001zM9.607 19c.347.411 1.934.419 2.668.498h.005c.745 0 1.559-.214 1.398-.483.048-.025-.01-.035-.05-.047a.466.446 0 0 1-.071-.064H15.5l4.267a4.001 4.001 0 1 1 3.923-5.982 2.968 2.987 0 0 1 1.872 1.806 3.001 3.001 0 0 1 2.685-3.385 3.024 3.024 0 0 1 3.641-9.126c.41-.341.55-.695.986-1.141a2.965 2.965 0 0 1-.706-.712 3.869 3.866 0 0 0-.5-.533 1.247 0 0 1-.145-.548 1.01 1.01 0 0 1-1.31-.785 1.04 1.04 0 0 1 .093-.05.468.43 0 0 0 .771-.014c-.634-.014-1.743-.005-3.36-.006-.208-.019-.419a2.413 2.813 0 0 1 3.008-1.182c.146-.015.168-.018.304-.078l7.268 6.494 12.244 2.1a1.1 1.1 0 0 0 1.894 14h-2.992z"/><path d="M11.877 10.982a4.475 4.475 0 0 1-.546-2.228 4.472 4.472 0 0 1-4.544-1.591 4.654 4.464 0 0 1-2.822-1.394 3.495 3.495 0 0 1-.665-2.191 2.466 2.046 0 0 1-1.591-1.306 7.085 7.086 0 0 1-2.818-1.151c-.314-.761-.169-1.359-.285-1.69L89.1 15.694l.034-.025c.045.058.808.067 13.156 0 3.321-1.08 3.713-2.608-.105-.293.064-.499.067-.633.11-.213.152-.29.224-.405.001-.039.037-.147.089-.441.29-.336.276-.04.854-.541.942-.464a2.21 2.21 0 0 0-.665-2.073 1.41 1.49 0 0 1-.375-.271c-.388-.274-.472-.664-.72-.869h1.74z" fill-rule="nonzero"/><path d="M24 13.5a1.503 1.503 0 0 0-1.5-1.5A1.503 1.503 0 0 0 9 12.5 1.5 1.503 1.503 0 0 0 1.5-1.5v-1z"/></g></svg>
