<svg viewBox="0 0 32 32" xmlns="http://www.w3.org/2000/svg" fill-rule="evenodd" clip-rule="evenodd" stroke-linejoin="round" stroke-miterlimit="1.414"><path fill="none" d="M0 0h32v32H0z"/><clipPath id="a"><path d="M0 0h32v32H0z"/></clipPath><g clip-path="url(#a)"><path d="M12 9.5a1.5 1.5 0 0 0-3 0v3a1.5 1.5 0 0 0 3 0v-3zM18 18a2 2 0 1 0-4 0v2a2 2 0 1 0 4 0v-2z"/><path d="M21.154 12l.044.002.045.004.044.007.044.008-.043.01-.043.012-.042.013-.042.015-.041.017-.042.018-.04.019-.039.021-.039.022-.039.024-.037.025-.036.027-.035.027-.034.029-.035.028-.034.03-.033.03-.033.031-.032.031-.032.032-.031.032-.031.033-.03.033-.03.034-.029.035-.029.035-.028.036-.027.036-.027.037-.026.037-.026.038-.025.038-.024.039-.024.04-.023.039-.023.041-.021.041-.024.045.002-.004-.026.05-.029.048-.032.046-.035.044-.036.042-.039.042-.042.035-.043.035-.046.039-.048.031-.049.034-.05.034-.052.031-.054.031-.055.034-.055.032-.055.032-.057.031-.058.029-.064.028-.064.028-.064.033-.065.032-.066.034-.067.038-.066.038-.066.038-.065.039-.065.04-.064.041.063.042.062.042.062.04.063.038.063.83.068.027.068.022.069.02.067.018.068.017.067.016.067.016.064.019.064.024.062.028.061.031.058.036.056.039.053.043.05.047 1.964 1.963.014.013.009.008.009.008.009.008.009.007.009.007.009.007.01.006.009.006.01.006.009.005.01.005.01.005.01.004.011.005.013.004.02.003.024.004.024.002.024.001.024.001h.048l.024-.001.024-.001.024-.002.024-.003.024-.003.024-.004.024-.004.024-.005.023-.005.023-.006.024-.007.023-.007.023-.008.022-.008.023-.009.022-.009.022-.01.022-.01.022-.011.021-.012.022-.012.022-.012.022-.012.022-.012.022-.012.022-.012.022-.012.022-.012.022-.012.022-.012.022-.012.022-.011.022-.01.022-.009.022-.009.023-.008.022-.008.023-.007.023-.007.024-.006.023-.005.024-.005.023-.004.024-.004.024-.003.024-.003.024-.002.025-.001.024v.018l-.001.024-.001.024-.002.024-.003.024-.003.024-.004.024-.004.024-.005.024-.005.023-.006.023-.007.024-.007.023-.008.022-.008.023-.009.022-.009.022-.01.022-.01.022-.011.021-.012.022-.012.021-.013.02-.014.021-.013.02-.015.02-.015.02-.016.02-.016.019-.017.019-.018.024-.023 1.581-1.581.035-.033.036-.032.038-.03.04-.028.041-.026.042-.024.043-.022.044-.02.045-.017.045-.016.047-.013.047-.011.048-.009.047-.006.049-.004.048-.002.048.001.048.003.049.005.047.007.049.01.046.012.046.015.046.016.044.019.044.021.043.023.041.025.04.027.039.029.037.031.036.032.034.034.032.036.031.037.029.039.027.04.025.041.023.043.021.044.019.044.016.046.015.046.012.046.01.048.007.047.005.049.003.048.001.048-.002.048-.004.049-.006.047-.009.048-.011.047-.013.047-.016.045-.017.045-.02.044-.022.043-.024.042-.026.041-.028.04-.03.038-.032.036-.033.035-1.58 1.59-.051.05-.056.052-.057.052-.058.05-.059.049-.06.049-.06.047-.06.047-.062.046-.063.047-.064.047-.064.047-.062.049-.061.049-.062.049-.062.047-.062.048-.062.047-.063.047-.062.047-.061.047-.061.047-.062.046-.063.045-.064.045-.064.045-.065.046-.065.047-.064.058-.063.06-.062.06-.051.062-.051.06-.049.06-.049.06-.047.06-.046.061-.044.063-.042.062-.04.064-.039.065-.037.066-.035.066-.034.066-.031.067-.03.068-.029.068-.027.068-.024.069-.024.07-.021.069-.02.069-.018.068-.014.067-.018.067-.023.064-.027.063-.031.061-.036.058-.039.056-.043.053-.047.05-.05.047-.053.043-.056.039-.058.036-.061.031-.062.027-.064.023-.066.019-.067.013-.068.01-.068.004h-.068l-.068-.004-.068-.01-.067-.013-.066-.019-.064-.023-.062-.027-.061-.031-.058-.036-.056-.039-.053-.043-.05-.047-.047-.05-.043-.053-.039-.056-.036-.058-.031-.061-.027-.062-.023-.064-.019-.066-.013-.067-.01-.067-.004-.068v-.069l.004-.068.01-.068.013-.066.019-.066.023-.064.027-.062.031-.061.036-.058.039-.056.043-.053.047-.05.05-.047.053-.043.056-.039.058-.032.061-.021.062-.016.062-.012.062-.009.062-.004.063-.001.063-.004.062-.009.062-.012.062-.016.061-.02.061-.023.061-.023.061-.025.06-.026.06-.027.058-.027.057-.031.055-.042.053-.047.052-.049.05-.051.04-.053.047-.056.043-.058.032-.059.029-.06.027-.062.026-.063.023-.066.019-.067.013-.068.01-.068.004h-.068l-.068-.004-.068-.01-.067-.013-.066-.019-.064-.023-.062-.027-.061-.031-.058-.036-.056-.039-.053-.043-.05-.047-.047-.05-.043-.053-.039-.056-.036-.058-.031-.061-.027-.062-.023-.064-.019-.066-.013-.067-.01-.068-.004-.068v-.068l.004-.068.01-.068.013-.067.019-.066.023-.064.027-.062.031-.06.037-.058.039-.056.043-.054.048-.049.04-.06.94" fill="#fff"/><path d="M13.04 11.001l.035.002.034.003.034.005.034.005.034.007.034.008.033.009.033.011.033.011.032.012.031.014.032.015.03.016.03.016.03.018.029.019.028.02.028.021.027.022.026.022.025.024.024.024.024.025.022.026.022.027.021.028.02.028.019.029.018.03.016.03.016.03.015.032.014.031.012.032.011.033.011.033.009.033.008.034.007.034.005.034.005.034.003.034.002.035.001.034v.035l-.002.034-.003.035-.003.034-.005.034-.007.034-.007.034-.009.033-.009.033-.011.033-.012.033-.013.032-.014.031-.016.031-.016.03-.018.03-.019.029-.02.028-.021.028-.022.027-.022.026-.024.025-.024.024-.025.024-.026.022-.027.022-.028.021-.028.02-.029.019-.03.018-.03.016-.03.016-.032.015-.031.014-.032.012-.033.011-.033.011-.033.009-.034.008-.034.007-.034.005-.034.005-.034.003-.035.002-.034.001h-.035l-.034-.002-.035-.003-.034-.003-.034-.005-.034-.007-.034-.007-.033-.009-.033-.009-.033-.011-.033-.012-.032-.013-.031-.014-.031-.016-.03-.016-.03-.017-.03-.019-.028-.019-.028-.02-.027-.022-.027-.022-.025-.023-.025-.024-3-3-.024-.025-.023-.025-.022-.027-.022-.027-.02-.028-.019-.028-.019-.03-.017-.03-.016-.03-.016-.031-.014-.031-.013-.032-.012-.033-.011-.032-.009-.034-.009-.033-.007-.034-.007-.034-.005-.034-.003-.034-.003-.035-.002-.034v-.035l.001-.034.002-.035.003-.034.005-.034.005-.034.007-.034.008-.034.009-.033.011-.033.011-.033.012-.032.014-.031.015-.032.016-.03.016-.03.018-.03.019-.029.02-.028.021-.028.022-.027.022-.026.024-.025.024-.024.025-.024.026-.022.027-.022.028-.021.028-.02.029-.019.03-.018.03-.016.03-.016.032-.015.031-.014.032-.012.033-.011.033-.011.033-.009.034-.008.034-.007.034-.005.034-.005.034-.003.035-.002.034-.001h.035zM12.043 11.001l.035.002.034.003.034.005.034.005.034.007.034.008.033.009.033.011.033.011.032.012.031.014.032.015.03.016.03.016.03.018.029.019.028.02.028.021.027.022.026.022.025.024.024.024.024.025.022.026.022.027.021.028.02.028.019.029.018.03.016.03.016.03.015.032.014.031.012.032.011.033.011.033.009.033.008.034.007.034.005.034.005.034.003.034.002.035.001.034v.035l-.002.034-.003.035-.003.034-.005.034-.007.034-.007.034-.009.033-.009.033-.011.033-.012.033-.013.032-.014.031-.016.031-.016.03-.017.03-.019.03-.019.028-.02.028-.022.027-.022.027-.023.025-.024.025-3 5-.021.025-.023.026-.022.027-.021.028-.02.029-.019.029-.018.031-.017.03-.016.031-.015.032-.014.032-.013.032-.012.033-.011.033-.009.033-.009.034-.007.034-.007.034-.005.034-.003.035-.003.034-.002h.045l.004-.051.004-.043.003-.043.004-.043.004-.043.004-.043.004-.042.004-.042.004-.042.004-.042.005-.042.006-.042.007-.042.007-.041.008-.041.009-.041.009-.042.01-.041.012-.042.014-.042.014-.042.014-.042.014-.042.015-.042.016-.042.016-.041.017-.042.018-.04.019-.041.019-.04.02-.04.02-.039.021-.039.022-.039.023-.038.023-.038.024-.038.024-.037.026-.036.025-.037.027-.036.027-.036.027-.034.029-.035.028-.034.03-.033.03-.033.031-.032.031-.032.032-.031.032-.031.033-.03.033-.03.034-.029.035-.029.035-.028.036-.027.036-.027.037-.026.037-.026.038-.025.038-.024.039-.024.04-.023.039-.023.041-.021.041-.024.045.002-.004-.026-.05-.029-.05-.03-.051-.03-.051-.031-.052-.033-.052-.034-.052-.034-.053-.034-.054-.032-.055-.03-.058-.038-.05-.037-.05-.037-.05-.037-.05-.038-.052-.039-.053-.041-.053-.041-.053-.037-.053-.038-.051-.036-.051-.035-.052-.034-.053-.031-.053-.031-.05-.03-.051-.028-.052-.029-.052-.028-.052-.028-.053-.027-.053-.026-.053-.025-.053-.025-.054-.025-.055-.023-.054-.023-.055-.022-.055-.022-.055-.021-.056-.021-.055-.021-.055-.02-.056-.018-.057-.019-.056-.017-.057-.017-.057-.016-.057-.016-.057-.015-.058-.014-.057-.013-.058-.013-.059-.012-.058-.011-.058-.011-.059-.009-.059-.01-.059-.008-.059-.006-.06-.006-.059-.005-.06-.004-.06-.003-.06-.003-.06-.001-.06-.002H15.361l-.06.002-.06.001-.06.003-.06.003-.06.004-.059.005-.06.006-.059.006-.059.007-.059.008-.059.008-.059.009-.059.01-.058.011-.058.011-.059.012-.057.013-.058.013-.058.014-.057.015-.057.016-.057.017-.057.019-.056.019-.056.02-.055.02-.055.021-.055.022-.055.022-.054.023-.055.024-.053.024-.054.025-.053.026-.053.026-.053.027-.052.027-.052.028-.052.029-.051.03-.051.03-.051.031-.051.031-.049.032-.05.032-.049.034-.049.034-.048.034-.048.035-.048.036-.047.036-.047.037-.047.038-.046.038-.045.038-.045.04-.046.041-.045.041-.046.041-.045.041.044.04.042.042.042.042.042.042.042.04.045.036.046.035.046.038.047.039.048.041.048.043.046.035.043.037.042.04.049.043.046.045.044.047.041.049.837.05.036.053.034.054.031.055.027.057.023.058.02.06.018.062.015.062.012.062.008.062.004.063v.062l-.004.063-.008.062-.012.062-.016.061-.019.06-.023.058-.027.057-.03.055-.034.053-.037.051-.04.048-.043.046-1.59 1.59-.099.097-.106.098-.108.096-.11.092-.112.09-.114.086-.116.084-.118.081-.12.078-.122.074-.123.072-.124.068-.127.066-.128.062-.129.059-.131.056-.131.054-.131.046-.13.049-.131.043-.124.043-.114.042-.115.041-.117.035-.118.034-.118.031-.119.029-.12.025-.121.023-.121.019-.121.02-.123.018-.121.016-.12.013-.12.01-.119.008-.12.004-.1.002-.12-.003-.12-.004-.119-.008-.12-.01-.119-.013-.119-.019-.118-.021-.118-.025-.117-.027-.117-.03-.117-.033-.115-.035-.115-.039-.115-.052-.11-.054-.108-.057-.107-.058-.106-.057-.105-.058-.105-.058-.106-.058-.106-.058-.106-.058-.107-.057-.107-.056-.109-.055-.109-.053-.111-.05-.112-.048-.112-.045-.114-.043-.113-.04-.116-.035-.116-.037-.117-.039-.115-.04-.11-.042-.119-.044-.118-.045-.117-.044-.117-.044-.116-.045-.113-.045-.113-.048-.112-.048-.111-.051-.11-.054-.109-.056-.107-.058-.105-.061-.104-.064-.103-.067-.101-.069-.1-.072-.098-.074-.096-.077-.094-.079-.092-.082-.092-.084-.089-.087-.086-.089-.084-.09-.082-.093-.081-.091-.081-.099-.07-.097-.071-.097-.072-.097-.072-.098-.072-.099-.072-.1-.068-.1-.067-.118-.064-.117-.062-.119-.05-.192-.049-.109-.047-.109-.044-.102-.045-.102-.046-.102-.046-.102-.045-.092-.044-.093-.043-.096-.042-.067-.038-.067-.038-.068-.037-.068-.035-.061-.035-.063-.035-.063-.035-.064-.035-.063-.037-.062-.037-.061-.037-.069-.035-.058-.035-.058-.037-.059-.036-.061-.038-.062-.035-.062-.035-.063-.035-.063-.035-.063-.037-.062-.037-.061-.038-.061-.038-.06-.037-.057-.038-.056-.039-.055-.041-.053-.038-.051-.038-.059-.038-.066-.04-.066-.042-.065-.042-.064-.041-.065-.043-.065-.042-.065-.041-.065-.04-.065-.039-.065-.039-.066-.038-.066-.037-.067-.037-.068-.035-.068-.035-.067-.035-.065-.037-.065-.039-.064-.041-.062-.047-.06-.047-.059-.047-.059-.049-.057-.05-.056-.052-.051-.05-1.59-1.59-.033-.035-.032-.036-.03-.038-.028-.04-.026-.041-.024-.042-.022-.043-.02-.044-.017-.045-.016-.045-.013-.047-.011-.047-.009-.048-.006-.047-.004-.049L16 5.012l.001-.048.003-.048.005-.049.007-.047.01-.048.012-.046.015-.046.016-.046.019-.044.022-.043.023-.041.027-.04.027-.039.029-.038.031-.037.032-.036.034-.034.036-.032.037-.031.039-.029.04-.027.041-.025.043-.023.044-.021.044-.019.045-.016.047-.015.046-.012.048-.01.047-.007.049-.005.048-.003.048-.001.048.002zM29.036 4.001l.048.003.049.005.047.007.048.01.046.012.046.015.046.016.044.019.044.021.042.023.042.025.04.027.039.029.037.031.036.032.034.034.032.036.031.037.029.039.027.04.025.041.023.043.021.044.019.044.016.046.015.046.012.046.01.048.007.047.005.049.003.048.001.048-.002.048-.004.049-.006.047-.009.048-.011.047-.013.047-.016.045-.017.045-.02.044-.022.042-.024.042-.026.041-.028.04-.03.038-.032.036-.032.533-1.5 2.59-3.26.038-.036.039-.036.038-.039.036-.041.034-.041.032-.043.03-.045.027-.046.025-.047.023-.047.02-.049.027-.051.024-.051.022-.053.018-.054.016-.055.013-.055.009-.056.006-.056.004h-.056l-.056-.002-.056-.004-.056-.008-.056-.011-.055-.014-.055-.017-.053-.02-.052-.023-.05-.026-.049-.028-.057-.031-.056-.034-.055-.035-.053-.03-.051-.03-.051-.029-.052-.028-.052-.027-.053-.027-.053-.025-.053-.025-.054-.024-.055-.024-.054-.023-.055-.022-.055-.022-.055-.021-.056-.02-.055-.021-.057-.019-.055-.018-.056-.015-.056-.014-.056-.011-.057-.009-.056-.007-.056-.004-.056-.001-.056.003-.056.005-.056.009-.055.011-.055.015-.054.018-.053.021-.052.024-.051.009-.048.097-.047.094-.047.093-.045.093-.043.093-.043.094-.042.095-.041.096-.03.096-.028.097-.027.098-.025.098-.023.098-.022.099-.022.091-.022.091-.027.09-.028.088-.027.086-.027.086-.032.086-.031.085-.032.085-.034.084-.036.084-.037.083-.038.083-.038.082-.038.07-.038.079-.03.17-.027.317-.026.127-.025.182-.023.083-.02.084-.02.084-.01.084-.01.084-.01.094-.01.094-.01.094-.01.094-.01.092-.011.092-.012.092-.015.092-.017.092-.018.092-.019.092-.019.092-.019.041-.017.041-.017.041-.015.042-.015.042-.015.042-.017.042-.019.04-.019.04-.019.04-.017.041-.017.042-.015.042-.015.042-.015.042-.017.042-.019.04-.02.04-.021.038-.023.038-.024.037-.027.036-.027.034-.029.033-.031.032-5 5-.032.031-.033.029-.035.028-.035.026-.037.025-.038.023-.039.021-.039.021-.04.019-.041.017-.042.016-.042.015-.042.014-.042.012-.043.011-.043.011-.044.009-.044.008-.043.007-.044.006-.043.006-.043.008-.042.009-.041.01-.04.012-.04.013-.04.013-.042.013-.042.011-.042.01-.042.012-.04.014-.04.016-.039.017-.038.018-.037.02-.037.022-.036.023-.035.025-.034.026-.032.026-.032.028-.033.02-.034.021-.035.023-.034.023-.034.025-.033.026-.033.027-.032.029-.03.029-.029.031-.028.032-.027.033-.025.034-.025.035-.023.037-.022.038-.02.028-.019.03-.019.03-.017.03-.016.031-.016.031-.014.032-.013.033-.012.032-.011.034-.009.033-.009.034-.007.034-.007.034-.005.034-.003.035-.003.034-.002h.035l.034.001z"/></g></svg>
