<svg xmlns="http://www.w3.org/2000/svg" viewBox="0 0 128 128"><path d="M64 12.21C2.78 9.01 10.82 8.8 10.04 8.36c2.73 12.22 4.38 17.56 3.55 24.26l-10.33 5.45z" fill="#404040"/><path d="M64 9.67C1.78 9.61.11 79.5.1 93.39c0 13.75 28.45 25.04 63.89 25.08 35.28 0 63.88-11.22 63.88-25.08 0-13.84-1.47-83.8-63.88-83.8C1.5 93.56z" fill="#ed6c30"/><path d="M110.97 85.63c-1.44 1.36-2.59 2.45-4.23 1.7-.68 1.32-1.33 2.09-1.78 1.17-.45 1.94-.96 2.74-1.38.3-.16.65-.39.93-.41.51-.32 1.11-.49 1.79-.8 1.55.54 1.97 3.62.78 5.67z"/></svg>
