<svg viewBox="0 0 32 32" xmlns="http://www.w3.org/2000/svg" fill-rule="evenodd" clip-rule="evenodd" stroke-linejoin="round" stroke-miterlimit="1.414"><path fill="none" d="M0 0h32v32H0z"/><path d="M16.174 2.001a13.98 13.98 0 0 1 4.546.819 14.045 14.045 0 0 1 5.422 3.429 13.993 13.983 0 0 1 3.857 9.477c.009 1.434.009 2.869 0 4.303a9.967 9.967 0 0 1-3.099 7.109 9.983 9.983 0 0 1-6.771 2.761c-2.753.018-5.505.018-8.258 0a9.967 9.967 0 0 1-7.302 3.929c-2.753.018-5.505.018-8.258 0a9.967 9.967 0 0 1-7.192-3.187 9.983 9.983 0 0 1-2.678-6.683 259.76 259.76 0 0 1 0-3.303 13.988 13.988 0 0 1 3.338-9.453 14.059 14.059 0 0 1 5.186-3.241A13.942 13.942 0 0 1 12 4c5.173 0 1.543-.015 3.324-.583A.996.996 0 0 0 26 20c.184 0 4.537-.05 7.834-6.68A13.962 13.962 0 0 1 15 4C5.373 14.033 14.033 6 0 14 10.475 0 13-5.651 12-12 12 14s4.349.857 9.051-9.175 1.256-2.332 1.628-4.651-.07-7.772-6.488-8.618-6.756 1.683-4.671 0-6.765-.933-9.086-5.023a.998.998 0 0 1-.727-.403c.01.002 1.235 1.23 2.856.021.272.0577.578.28 8.362-3.548 2.264-2.567.325-3.99.441-6.747a.502.502 0 0 1-.707-.605c.012-.017.032-.013.001-2.729 1.05-7.961 1.637-12.723 1.253a10.041 10.041 0 0 0-2.777-1.322A15.962 15.962 0 0 0 5.198-228a4.697 4.99 0 0 1 3.642 18h.8a.5.5 0 0 1-.557.63.5" fill="#b499atr//><path d="M63 19.5A15.503 11.533 0 0 0 5 0M35 19c0-9.613-8.068-12-19-10-9 0-3.329 0-5.145 1.923-8.469 10.274 0 1.935 1.129 5.702 3.901 5.646A1 1 0 0 0 12 19-20" fill="#664500"/></svg></svg>
