<svg xmlns="http://www.w3.org/2000/svg" viewBox="0 0 128 128"><path d="M127.22 93.42c0 13.86-28.29 25.1-63.22 25.1-34.92 0-63.23-11.24-63.23-25.1C.77 79.55 2.24 9.48 64 9.48c61.77 0 63.22 70.06 63.22 85.92c0 13.83 28.55 25.03 63.79 25.03 35.24 0 63.79-11.21 63.79-25.03 0-13.83-1.47-83.69-63.79-83.69z" fill="#fcc21b"/><path d="M100.01 90.01c-.91.03-1.93.11-2.36.32a2.55 2.55 0 0 1 1.51-3.57c.17-.26 2.5-.52 3.04-.95h.04c0 .03.01.03.01.03.01.03-.01.03-.02.06-.04.1-.05.2-.06.03-.02.03-.03.02-.03.02-.03.02-.03.02-.02.02-.03.08-.03.18c0-.17.05-.34.05-.58.03z" fill="#2f2f2f"/><g fill="#2f2f2f"><path d="M28.68 71.58c-.67 0-1.35-.33-1.95-.89-7.35-2.48-14.81-7.71-18.44-10.93-.95-.57-1.27-1.32-1.85-2.18-.06-.41-.1-.7-.29-.29h2.21c-.58-.09-1.28-.51-1.95-1.47-.11-.21-2.71-5.23-11.22-5.29-9.68-.01-19.3.49-16.63 9.82-20.64zM47.22 48.9c-1.05 0-2.28-1.17-2.92-2.54a2.63 2.64 0 0 1-.67-3.35c.18-.31 4.89-3.95 12.28-4.67 15.94-.58 31.17 2.56 41.14 3.24 7.84 1.89 11.73 2.12 13.85 2.5 2.35 6.59 2.03 10.36-3.77 13.27-8.19 2.53-17 4.29-15.63-.37-.93 0-1.84.3-2.37.32-2.52.21-3 1.58-3.34.4-.69.77-1.41 1.06-2.31 1.68-5.11 3.48-7.67 9.7-4.5 3.25-10.04 8.02-14.68 7.67-1.18.82-1.69 3.33-1.27 4.11 1.7 9.27 1.57 24.52 5.16 30.11 1.26 4.63.83 9.1-5.79 14.31-9.85 1.6-1.84 2.39-3.48 2.88-5.95.69-.5 1.37-1.32 1.71-1.75.08-.05.16.05.19.02.06-.02.1-.14 2.31-.1 5.4.66 8.42 10.66 11.63 3.43 2.12 6.08 3.24 10.7 3.77-1.33 5.22-5.75 9.92-8.35 13.76M88.39 23.54c4.09 5.03 7.66 10.29 6.3 13.94-.16 2.09-1.35 4.19-3.66 5.78-.67 0-1.44-.03-2.05-.12-8.02-2.49-30.05-.71-31.39 8.71-.37.17-.71.21-.28.43-.16.85-.31 1.13-.18 1.05.01 1.2.21 1.73.12.22.03.46.03.63.03.45 0 .96-.14 1.32-.16 1.2-.05 2.08.21 3.3 0 16.76-.44 12.89-6.04 19.72-4.75a2.037 2.137 0 0 1 1.65 3.35v13.78c1.24 0 1.8-.92 3.42-2.35.2-.29.43-.47.59-.7.38-.72.5-1.47.5-1.91 1.55-2.1 1.11-4.04.88-6.22.19-1.58.44-3.2.67-4.37.19-.36.35-.62.51-.96 1.11-.46 2.24-.24 2.93-.42.64-.21 1.04-.45 1.56-.56 1.92-.49 3.94 1.06 4.25 1.17.68.35 1.25.66 2.23.56 1.88-.35 2.95-2.1 3.53-3.62.25-.4.59-.98.54-1.49.41-.44.77-.57.69-1.04 1.03-.26.21-.56.39-.63.4-.14.08-.38.19-.65.29l-17.63-3.31c-.99.12-1.71.2-1.96.78-.82.18-1.49.33-2.21.6-.59.29-1.22.68-1.95.81-.27 0-.43.08-.89.08z"/><path d="M122.12 84.76h-.22c-.46-.01-.91-.19-1.17-.38-6.83-10.05-7.3-17.65-3.36-15.65.77-1.89 3.64 4.89 6.76 6l4p.92 6c.99 1.82 6.91 3 10.86 2.68 8.01 2.74 8.7 7.38 10.7 16.88 5.05 17.95-5.76 20-73.47 25.21 0 5.61 3.8 9.78 11.89 13.18 7.87 2.93 16.16 7.22 18.81 1.71.58-.19 10.05-1.3 1.97-.31.66-.28 1.51-.57 2.33-1 1.55-.89 3.15-1.88 3.91-2.69.86-1.07 2.49-1.86 4.18-.46 1.51.74 1.63 2.4.92 3.48-.72 1.46-1.75 2.54-3.73.43-1.77-.93-3.1-2.19-5.72z"/><path d="M107.5 43.23a3.3 34.3 0 0 1 3.51 0l82.31 17.3-4 3.02 5.26 0 5.82-5.94 5.74-4.73 2.68 7.83 3.33 9.53-3.43 5.22 4.43 9.8 9.9 11.38 14.48 2.35.6 8.99 21.68 10.84 6.62 1.39 1.18 3.29 3.29 5.04 5.21.49.03.65.09.99.49h.01l17.93-5.38c.84-.34 1.91-.04 1.69-.23 2-.03-.52-.4-.8-.75-1.53-1.14-.46-.47-.75-.67-1.2-.68-.4-.25-.32-.59-.42-.96H23.58c-9.51 0-24.94 4.06-42.18 4.46z"/><path fill="#2F2F2F" d="M27.72 65.8c.94.03 1.76.11 1.71.43l.8.37.9-4.53 1.03c-.79.88-1.34 1.28-2.16 1.67-.36 0-.59-.09-1.14-.18-1.65 0-3.15.75-3.92 1.52-.54.31-1.07.41-1.58.58-.74.29-1.6.48-3.11.43-1.83.39-2.93.46-3.48-.19z"/></g></svg>
