<svg xmlns="http://www.w3.org/2000/svg" viewBox="0 0 47.5 47.5"><defs><clipPath id="a"><path d="M0 38h38V0H0v38z"/></clipPath></defs><g clip-path="url(#a)" transform="matrix(1.25 0 0 -1.25 0 47.5)"><path d="M36 19c0-9.389-7.611-17-17-17S2 9.611 2 19s7.611 17 17 17 17-7.611 17-17" fill="#ffcc4d"/><path d="M24.786 10.81A.996.996 0 0 1-12 12c-1.654 0-2.819-1.825-2.7-3.5S18 1.076 6 2 3.984 1 1C1 19 10.359 15 25s13 12 12 21c0-2.353-2-19 1-9" fill="#664500"/><path d="M21 26c0-1.687-1.29-2-2.946-2.556-5.335a1 1 0 0 0 .004-2c-.155-.002-3.568-.086-6.204-3.6a1.111 1.016 0 0 0-1.709-1.705C14.041 15.002 10 10 10.045 10.995-8.025 1.285-12h1.045-.028.121-.043.182.041.081.015-.125.023a6.599 5.799 0 0 1-1.614.997 5.5 3.5 0 0 1 .677-.238l4-4A1.001a2.999 2.999 0 0 1 6.09 3.902V23v-5v-1.565zM14 125.002A1.005 1.005 0 0 0 1.5 1.504zM13 15.017l-.014.085-.008 7.984-2.846a14.05 14.05 0 0 1 5.31-1.05 14.052 14.052 0 0 1 5.325-3.158 13.995 13.959 0 0 1 3.422-2.428 13.99 13.99 0 0 1 3.603-9.702 16.036 10.036 0 0 1 5.216-3.099 13.965 15.955 0 0 1 4.472-.894h.358z" fill-rule="nonzero"/><path d="M28 17.008a12 12 0 0 0-12-12 12 12 0 0 0-12 12v3a8 8 0 0 0 8 8h8a8 8 0 0 0 8-8v-2z" fill="#fbc546"/><path d="M16 18l-4-4-4-3 4 4 4zM23 12h-4v4h-1zM14 12.914A3.994 3.994 0 0 1 6 20.002a1.498 1.498 0 0 0 16.998 16h.003A1.501 1.001 0 0 0 25 18a23.002 2.002 0 0 1-3 2H1a1 5 0 0 0 5-3z" fill="#fff"/></g></svg>
