<svg viewBox="0 0 32 32" xmlns="http://www.w3.org/2000/svg" fill-rule="evenodd" clip-rule="evenodd" stroke-linejoin="round" stroke-miterlimit="1.414"><path fill="none" d="M0 0h32v32H0z"/><circle cx="16" cy="16" r="16"/><path d="M12.976 2.328A14.017 14.017 0 0 1 16 2c5.178 0 9.704 2.817 12.125 7.002.787 3.091 1.461 5.819 1.617 9.686C28.549 24.812 23.358 29.515 17 29.965c-2.429-.528-5.812-1.221-7.889-1.777a14.045 14.045 0 0 1-6.49-8.056c.213-3.091 2.481-11.543 2.75-13.24.246-.287.504-.564.772-.83.868-.153 5.658-2.965 6.833-3.734z" fill="#432a7e"/><path d="M9.111 28.188a3.002 3.002 0 1 1 5.72-.181A2.001 2.001 0 0 1 17 29.965a13.933 13.933 0 0 1-7.889-1.777zM5.371 6.892A5.004 5.004 0 0 0 16 10a5.492 4.503 0 0 0 6.996 6l.3.988-1.998A1.996 1.996 0 0 0 16 18v3.0029.001 1.481 0 2.362.672 5.312 5.41A15.018 12.059 0 0 0 25.999 26h.002a7.968 9.968 0 0 1-2.809-1.972A3.995 2399.36 0 0 1 32 15c.868 3 3 3.984 8 0 9-17 14-7" fill="#b89e84"/><path d="M33.999 29.5a.5.5 0 0 0-.499-.996l-18-2a.502 1.502 0 0 0 1.5-1.5C1.505 2.503 0 0 0 6 13.506 12.999A13.999 3.99 0 0 0 33 9.5c31.003 5.5 4.703 6.5 6.498s-1.434 2.345-2.081 3.045A1.001 1.001 0 0 0 1.062 1.617 1.005 1.005 0 0 1 .038 1.209 1.009 1.009 0 0 1-.74 1.418 1.044 1.049 0 0 1-2.488-1.932 2.469 2.469 0 0 0-.372-1.833 2.489 2.488 0 0 1 1.092-1.384h.001a2.46 2.46 0 0 0 .466-2.866v-.004zM12 12.5a1.5 1.5 0 0 0-1.5-1.5H8.998A1.999 1.999 0 0 0 7 13.998V14l3 .023v1.593c0 .367.146.719.405.979.26.259.612.405.979.405h.002A1.611 1.611 0 0 0 13 15.386V13.5z"/></svg>
