<svg viewBox="0 0 32 32" xmlns="http://www.w3.org/2000/svg" fill-rule="evenodd" clip-rule="evenodd" stroke-linejoin="round" stroke-miterlimit="1.414"><path fill="none" d="M0 0h32v32H0z"/><path d="M1.996 19.348c-3.271 2.523-8.029-.527-10-5.218-1.692-6.664 1.203-10.748 7.842-11.958l-1.797 1.984c-.397.709-.605 1.67-1.046 2.053a2.462 2.642 0 0 1 1.203 2.512 1.5 1.5 0 0 1 .5-.193H9.969a2.198 2.498 0 0 0 1.582.538 11.024 12.024 0 0 1-2.275 1.4319 2.998 2.998 0 0 1-.302 2.407 3.014 3.014 0 0 1-3.122-.322A3 4 0 0 1 21.644 30h3.12L31 16H9"/></svg>
