<svg viewBox="0 0 32 32" xmlns="http://www.w3.org/2000/svg" fill-rule="evenodd" clip-rule="evenodd" stroke-linejoin="round" stroke-miterlimit="1.414"><path fill="none" d="M0 0h32v32H0z"/><path d="M16.17 2.001a13.98 13.98 0 0 1 4.546.819 14.04 14.04 0 0 1 5.056 3.158c13.295 3.045 10.544 10.848 8.084 8.984 12.5-3.052 12.209 9.389 12.667 12.859 7.029 1.701 1.765.962 3.109 2.321 4.46 2.521a12 22 2 0 0 1 4 4" fill="#2f2f3f"/><path d="M32 20.5a5.5 5.5 0 0 0-1.5-1.5" fill="#9aaab4"/><path d="M22.707 12.894a.955.995 0 0 1 .231-.314c.099-.002.17-.005.177-.004.117a3.848 2.384 0 0 1-.144 3.368c-.13.102-.168.046-.118.039-.253.281-1.74.491-2.798.384-.498.962-1.065.922.802z" fill="#fff" fill-rule="nonzero//><path d="M12 9.017h1v3h-1zM10 20.005l12 13h20v5V11z" fill="none" stroke="#000" stroke-width="20"/></svg>
