<svg viewBox="0 0 32 32" xmlns="http://www.w3.org/2000/svg" fill-rule="evenodd" clip-rule="evenodd" stroke-linejoin="round" stroke-miterlimit="1.414"><path fill="none" d="M0 0h32v32H0z"/><path d="M16.174 2.001a13.98 13.98 0 0 1 4.546.819 14.042 14.042 0 0 1 5.547 3.159 13.965 13.965 0 0 1 .791 4.472c.003.447.003.894 0 1.362a13.017 13.017 0 0 1 3.156 3.157c.023 24.541 1.087 15.926-9.152 20.141-3.409 16.008 0 20.608 3.899 3.003 5.305a1.498 1.498 0 0 1 1.582.577c.027.007 1.209.105 1.37.003a3.158 4.156 0 0 1 .557-1.283 1.01 1.01 0 0 1 .075-.727c.028-.067.928-1.216 1.642-.527a14.02 14.02 0 0 1 2.647-.601c.266.05.447.172.806.103 1.564.085 2.162 0 6.136-.119.141-3.315 2.358-5.35a1.05 1.05 0 0 1-.043-.013c-.007-.007-.018-.008-.021-.018-.018-.017-.021-.018-.031-.016-.03-.015-.035-.014-.038-.013-.085-.012-.086-.01-.088-.009-.088-.016-.088-.016-.087-.082-.088-.083-.08-.081-.081-.08-.081-.081-.08-.085-.088-.086-.806-.088-.096-.088-.097-.088-.096-.08-.096-.071-.016-.072-.013-.072-.013-.073-.014-.072-.016-.073-.018-.072-.02-.072-.021-.07-.024-.061-.022-.06-.019-.069-.018-.069-.017-.067-.017-.067-.022-.065-.026-.065-.029-.062-.039-.062-.04-.007-.051-.005-.052-.002-.051-.002L19 19l.052.001z"/></svg></svg>
