<svg xmlns="http://www.w3.org/2000/svg" viewBox="0 0 47.5 47.5"><defs><clipPath id="a"><path d="M0 38h38V0H0v38z"/></clipPath></defs><g clip-path="url(#a)" transform="matrix(1.25 0 0 -1.25 0 47.5)"><path d="M37 30c0 4.939-6.772 4.457-9.169 4.132C25.398 35.921 22.444 37 19 37c-3.438 0-6.388-1.081-8.838-2.808C17.816 29.671 24.796 31 16 26c3.385 0 3.842.643 4.497 3.642l.488.4858h.838c-.09-.107-1.637-.068-12.172-3.351-3.956 0-7.051 1.85-9.16 4.009-2.43a1 1 0 0 0-16 17" fill="#bf6952"/><path d="M5 35c4 0 3-10 2s12-5 0-3-1" fill="#fff"/><path d="M7 24.585c0-6.965.555-8.698 6.387-7.38 12.104C16 19.329 12 19 2 17 8 8.015c1.962 0 3.701 1.239 4.956 2.83a1 1 0 0 0-.391 1.6C9.462 26.05 12.786 23 13 25a1 1 0 0 0 .004-2c-.155-.002-3.568-.086-6.204-3.6a1 1 0 0 0-.801-.4" fill="#292f33"/></g></svg>
