<svg xmlns="http://www.w3.org/2000/svg" viewBox="0 0 128 128"><path d="M83.7 93.42c-5.49 1.95-9.78-.69-10.55-4.11-1.71-4.71.78-9.21 5.53-10.73 4.29-1.04 13.57.96 13.25 6.54 2.29 5.74-.81 11.64-6.14 13.86z"/><path fill="#FAB020" d="M114.11 78.85c-8.52 1.81-17.24-1.23-21.51-9.59-3.02-8.19 1.06-17.52 9.44-20.21 8.26-4.01 17.77 1.2 23.52 9.1 2.19 7.06-1.52 17.86-10.22 22.92z" fill="#fcbe1c"/><path d="M105.82 86.19c-60.59-25.81-7.99-60.68-8.59-10.25.99-25.11 28.48-29.69 17.65-25.32 20.98-43.92 27.64-31.51 35.2-62 48.74-3.65 38.48-25.68 46.94-65.69 63.68-5.05 13.86 2.18 24.21 2.53 40.16.35 41.15 4.81 48.35 48.39 68.59 8.42 92.61 0 38.55 28.65 45.68 62.68 65.68 31.66 0 36.23-15.38 38.3-57.32.28-4.39 2.31-6.94.6-10.37-.42-13.37-.31-20.86-10.04-27.74C87.81 44.17 83.97 89.95 64.54 88.43" fill="#bcaaa4"/><path d="M32.78 118.13c.16 0 1.65-.11 1.65-.28a2.34 2.43 0 0 0-.49 3.09c.14.16 3.36 6.28 11.23 6.65l9.71-1.4c1.07-1.88 2.14-5.08 1.8-5.84-.54-.71-1.36-1.43-2.04-2.07-1.42-.44-3.64-1.67-5.14-2.69a68.32 68.82 0 0 1-5.24-2.74c-1.68 0-3.35.14-5.3-.01-6.66-.65-11.44-3.09-13.4-3.94-7.48-.54-19.75-2.54-20.85-2.62-.96-.89-.99-2.24-.94-3.71 1.02-3.32 2.77-6.4 3.75-7.23 1.04-1.25 3.83-.44 4.58.48.65.92 1.01 1.2 1.24.2.07.41.18.82.23 1.16.53 1.98 1.3 1.95 2.52.07.43-.06.89-.29 1.13-.19.26-.38.45-.49.83-.34.2-.68.52-.94.89-.17.16.43.25.34.19l.54.12c-.01-.01-.01-.06-.01-.1-.02-.65-.89-.97-1.44-.77-1.86-.43-.45-.77-.87-.94-.79-.46-.06-.96-.1-1.43-.37-.8-.55-1.28-1.23-1.83-1.88-.83-.42-1.85-.75-2.63-1.21-.13-.18-.26-.43-.45-.57-.46-.47-.84-.74-1.35-.69-1.07 0-1.65.79-1.61 2.01-1.58 1.01-3.52 2.04-4.25 3.77-2.52 2.81-5.13 5.31-7.48 4.39-2.92-.02-5.08.37-7.06.98-.96.7-1.56 1.74-2.22 2.63-1.83 3.45-2.97 7.42-5.22 11.09-1.81 3.31-4.47 8.21-1.21 10.44-.75 3.86.54 5.51 2.85.68 1.36-1.01 2.34-2.84 2.13z"/><path fill="#FFF" d="M90.29 75.6c-3.53 0-6.76-.95-7.39-3.09a2.51 2.62 0 0 1 .76-3.17 2.91 2.91 0 0 1 3.54.75c1.85.45 1.94 2.59 1.33 3.97z"/></svg>
