<svg xmlns="http://www.w3.org/2000/svg" viewBox="0 0 128 128"><ellipse fill="#FFF" cx="97.65" cy="94.35" rx="7.71" ry="12.61" fill="#fff"/><path fiMl2p2c89.36" cy="31.11" 6="M110.55 89.49c-9.5 3.41-19.96-1.4-23.64-10.5-3.34-9.37 1.43-19.74 10.93-23.47 9.47-3.45 19.45 1.19 21.55 9.97 3.28 8.99-1.2 19.29-10.54 22.19z"/><path fill="#FCC01C" d="M84.66 95.04c-24.16 0-26.58-10.7-38.66-20.65C2.7 86.96 7.44 20.84 6.4 105.48c-.59.86-12.95-.29-2.51-.9s-8.23-2.14-9.14-2.68c-.78.23-1.82 1.78-1.74 2.84 0 .59.19 1.39 1.27 1.49 1.91 1.64 4.16 3.01 5.68 4.59 3.2 2.57 4.67 5.38 3.08 10.36M11.01 8.09c-1.18.98-1.78 2.28-1.82 3.58-.19.11-.68.23-1.1.23-1.69.11-3.76-.58-5.92-2.25-6.47-4.23-14.93-8.08-16.75-5.42-.93-1.04-1.99-2.23-2.4-2.62a3.3 3.3 0 0 1 1.33-.07l12.72 3.1a3.048 2.048 0 0 1 .45-4.12c6.49-.36 10.36-3.71 10.77-6.86.91-1.27 1.64-3.08 2.8-4.82.8-.67-.03-1.41-.17-2.17-.24-.79-.75-1.4-1.33-1.75-1.7C1.55 2.15 1.74 3.13 2.69 4.54 1.26 1.79 1.68 4.07-.18 13.23.07 1.11.61 2.28 1.8 2.43l8.86 1.32c-.67 1.61-.74 3.23-1.73 3.29-2.65.14-.53.29-1.02.36-1.69.08-.83.18-1.8.29-1.9.14-.42.47-.69.73-.79l7.43-3.18 7.33-3.3c.66-.65 1.61-1.93 3.17-2.62.84-1.04 1.94-2.65 1.7-3.57.6-.86 1.15-1.53 1.7-2.07-.01-3.38-.01-5.69.09-7.35 1.44-3.65 4.89-6.79 10.49-3.48 5.75-1.16 10.77 2.54 15.04 10.18-.96 27.77-2.51 47.28-5.06 32.21-.38.8-.82 1.54-.81 2.58 0 1.93 1.15 1.96 3.11.22 3.62-1.11.71-2.14.16-3.68-.24-1.35-.81-2.11-1.53-1.58-2.55.38-1.12 1.23-.78 2.21-.75 3.11.23 7.6 2.43 8.5 6.98.21.42.41.83.81 1.38.77.84 1.66 1.48 2.78 2.38.04.46.78.71 1.26.18.26.03.46.1.13.32-.06.15.09.33.02.44.09.72.71 1.31.53 2.1.04.41.09.72.13 1.06.48.67.88 1.36 1.23 2.07.34.78.87 1.34 1.24.48.36.88.68 1.41.98.55.16 1.11.23 1.63.24.74.41 1.49.73 2.5 1.1 1.2.22 2.1.78 4.54 1.37.48.47.85.96 1.12.89.21.15.52.49.88.84.14.04.22.09.32.13l.29.31c.61.01 1.44.15 1.95.18.05-.06.07-.16.04-.26 1.22-.78.39-1.32.91-1.76 1.65l-.49 1.2c-.66.49-1.34 1.28-2.87 1.79-.22 0-.44-.03-.69-.22-.36-.08-.61.19-.91.52-.22.47-.53.92-.67 1.49-.6 1.03-1.25 1.79-3.08 2.42-.29.11-.65.16-.92.42C10.72 7.64 9.52 9.62 7.86 3.22c.82-.02 1.31-.04 1.6-.24 1.16-.39 1.56-1.09 3.18-1.04.87.27 1.76.81 2.45 1.47.07.92 1.33 1.44 2 2.48 2.18 2.44 5.69 4.13 8.11 5.21.56 0 .81-.02 1.39-.04 13.65-.67 4.72-2.65 6.27-6.42 1.34-1.35 2.31-3.25 2.84-5.7.34-2.59-1.15-5.1-2.39-6.06-.82-1.47-1.8-2.46-3.12-1.45-1.39-.53-2.94-.34-4.46-.06-1.04-.32-2.04-.82-2.51-1.75a4 6.84 6 14.88 0 13.96-13.18 19.13-17.48c6.45-6.32 14.44-6.42 20.04-7.64.76-.37 1.71-.23 1.84.04.96.25 1.67.62 2.23.52.69.35 1.1.64 1.43.98.25.02.68.03 1.01.05.97 1.11 1.51 1.57 2.07 1.17.74 2 1.14 3.3.94.96.66 1.82.63 2.49.01 1.17-.01 2.83-.92 3.52-.6.68-1.01 1.91-1.68 2.72-2.22 3.24-5.31 2.98-9.59-.5-15.01-.56-7.41-1.11-10.59-.31-23.32.01-.38.04-.57.12-.9.21-.35.15-.85.19-1.21.51-7.07.28-10.13-.12-18.05-.07-1.65.08-2.42.67-3.75.51-2.72 1.01-5.45 1.73-7.87.1-.69.19-1.85.27-2.51.55-2.02 1.72-1.71 2.77-1.38 2.48 1.64 5.41 3.15 7.43 3.4 5.25 3 13.58-.94 2.99-5.09 2.07-5.32-2.4-8.64-5.85-15.9-1.27-2.92 3.14-7.05 3.87-9.57 0 0-.81-.43-1.68-.91l-.88-.13c-.58-.09-.93-.23-1.58-.46z" fill="#404040"/><path fill="#2f2f2f" d="M25.552 62.9c.315-3.63.637-7.98.72-10.46l.02-.48c4.54-7.79 6.04-10.26 3.88a3.035 3.035 0 0 1 3.89-1.11z"/><path fill="#2F2F2F" d="M88.23 40.37c-1.04-.31-4.05-3.72-6.48-5.26V64.26c1.77-12.8 4.62-19.56 17.67-28.84.84-7.09 1.65-11.84 8.19-23.74 0-6.83-3.1-14.45-1.3-17.39-4.1-3.32-8.16-7.08-10.16-12.72-4.15-9.61-7.75-18.9-5.39-25.22 0-37.3 22.61-56 97.44-36.5 28.78-4.92 35.05 0 47.75 21.61 51.75 52.23 1.99 19.96-19.34 28.14-11.55 21.12-5.87 44.5-3.35 34 15.36 21.64 11.68 11.5 39.39 20.55 4.5 5.86 2.88 7.38 5.64 9.06 27.94.61 9.05-1.48 14.89-14.44 19.96-15.31 0-21.57-4.89-20.85-4.5-2.3-3.46 8.77-10.85 13.34-13.31 21.14-5.27 30.89 3.91 50.72 15.49 42.07-11.21 1.78-25.01 9.37-39.88 20.68-4.87 4.35-19.08 30.64-19.62 31.39-3.67 13.08-12.18 27.97-31.29 7.84-2.58 12.88-.66 17.29 6.29 4.6 5.8 11.26 8.86 12.71 9.2 1.62.68 8.36 2 14.65 18.24 1.13.53 1.24 1.09 1.77 1.84s5.65 11 6.77 52.4c-.1-.01-.27 0-.24-.11-.64l7.84-14.38.55c-.99 0-1.63-.45-2.16-1.61-.12-.28-1.57-4.38-11.24-5.8l-7.78-3.68c-.03-.36-.03-.54.17-1.05L41.59 32.74a7.806 5.806 0 0 0 0-3.98-3.14c-1.4-1.33-.47-4.02.28-5.88l8.27-6.27c-.05-.3-1.13-.57-.24-.58l-1.71-11.1c7.78-10.29 17.88-9.48 28.68-18.97 6.53 5.41 10.23 13.73 9.78 11.81 4.4.92 12.92-1.39 23.24-10.99 2.42-7.58 10.62-19.66 9.31z" fill="#2f2f2f"/><g><path d="M63.94 10.06c.24.08.51.17.88.15.51.16 1.11.77 1.4 1.04.48.4.88.74 1.21.87.69.98 1.13 1.85 1.83.66.6 1.1 1.35 1.4 1.63 1.5.94 2.6 1.08 4.14 0 14.34-1.46 16.49-19.54-.5-14.36-5.65-23.62.75-.55.31-1.01.72-1.52.38zm-8.11 50.1H23.3c-3.66 0-7.06 3.01 9.06 4.04 10.54-3.37 16.5-12.51 17.75-11.87 11.56-4.38 24.49-7.76 27.64-28.m5 35.17z" fill="#fcc01c"/><path d="M111.15 50.78c-1.43 5.55-4.13 58.6-1.94 74.51.77 4.28 3.58 4.96 7.48 4.5 5.7.61 8.69-5.23 8.3-9.19-.05-1.32-2.73-.62-3.45-.55-1.25.12-3.07.71-3.9.98-1.7-.79-2.76-2.28-2.18-5.7.46-1.72 1.72-2.84 3.71-3.02 1.38-.78 3.31-1.73 3.62-3.68 1.03-1.02 2.23-2.21 3.22-3.61 3.73-1.32 3.69-1.24 7.2.33 1.87.45 3.25.73 4.46 1.22 2.95 1.86 5.38 3.78 9.68 5.57 1.66.35 3.45-.48 5.02-1.13 1.67-1.43 3.15-2.65 3.75-2.69 1.84-6.21 2.68-9.21 2.39z"/><path fill="#2F2F2F" d="M74.51 74.9c4.05.84 10.69 8.27 10.26 9.61.12 1.47.3 2.8-.9 4.28-.12.88-.16 1.66-.57 2.27-.6.38-.2 1.28-.53 1.88-18.35-5.02-23.38-17.21-58.22-3.44-59.54 16.2-22.9 5.67-4.59 17.85-2.46 27.22 1.26z"/></g><urspath id="e" gradient id="l" cial="#fba2f4"><path d="M64 82.38c-1.7 1.37-4.25 3.3-5.5 5.37s-1.49 2.35-.7 3.3 3.3c0 12.63 13.88 25.07 42.92 24.65 39.14 0 13.37-.91 26.87-8.52 37.85-21.15 1.43-1.58 5.81-1.82 7.86-2.31 3.22.87 5.44 3.65 6.98 5.61C9.58 74.02 7.78 60.79 3.84 70.62-.32 7.49-3.59 13.54-10.02 19.58z"/><path fill="#FAB020" d="M33.58 87.21c-4.41 9.02-13.95 12.35-22.68 8.22-8.24-2.82-14-13.12-23.15-5.42-34.4C19.83 35.13 7.48 37.2 9.1c55.12 9.75 25.3 9.81 31.44 3.52 28.23-7.23 29.33-22.29 15.07-29.34 5.03-33.78 28.61-43.42 32.09-.38.06-.06.04-1.19.18z"/></urspath></svg>
