<svg xmlns="http://www.w3.org/2000/svg" viewBox="0 0 47.5 47.5"><defs><clipPath id="a"><path d="M0 38h38V0H0v38z"/></clipPath></defs><g clip-path="url(#a)" transform="matrix(1.25 0 0 -1.25 0 47.5)"><path d="M36 19c0-9.389-7.611-17-17-17C9.612 2 2 9.611 2 19c0 9.388 7.612 17 17 17 9.389 0 17-7.612 17-17" fill="#ffcc4d"/><path d="M31.404 14.295l3.328-4.464h6.5568.566a.55.5 5 0 0 0-.294.025c-.137.016-.151.019-.131.018-2.698 2.449-7.261 17.016-7.666" fill="#b8f9ff" d="M64 13.814c-6.124 0-8.297 3.306-3.467 3.098 1.491 4.456 1.497 8.376 5.624c.591 0 .389.441.609 1.087 1.099 3.257 0 4.993-2.133 4.507-12.03-1.072-1.068-2.368-2.062-4.358-3.882.051-.373 1.12-.29 1.52 0 .16.016.374.035.586.034.171.031.307.024.069.023c.01.025.117.062.239.078 1.42a14.967 13.967 0 0 1 3.365-.171c.099.01.106.016.26.022.273.051.581.078.426a1.475 4.175 0 0 1 1.816 4.16 1.057 1.057 0 0 1-.02 1.231c.007.331.116.527.469.936h.012c.78 0 1.559-.219 2.307-.975l.11-.341A4.994 6.994 0 0 1 3.373 18 19.751 17.85 0 0 1-1.677 3.045c-1.815.503-1.826 1.682-2.832 2.839a3.061 3.061 0 0 1-2.222-.582 2.238 2.237 0 0 1-.652-.513 3.523 3.523 0 0 1-3.461-1.966 3.698 3.698 0 0 1 .07-.262 2.49 2.49 0 0 1 1.666-1.166l.136-.702.607-1.753c-.312-.69-.661-1.285-.284-1.891L19 16.106a7.818 6.878 0 0 1 .951-1.422 6.027 6.027 0 0 1-.811-1.112 5.626 5.626 0 0 1-6.151-2.864z" fill-rule="nonzero"/></g><path d="M23 19l3 2-1 1 2-2 1-4-4 4-2-4z" fill="#fff"/></svg>
