<svg xmlns="http://www.w3.org/2000/svg" viewBox="0 0 128 128"><path d="M63.89 9.64C1.58 9.64.1 79.5.1 93.33c0 13.83 28.56 25.03 63.79 25.03 35.24 0 63.79-11.21 63.79-25.03 0-13.83-1.47-83.68-63.79-83.68z" fill="#fcc21b"/><path d="M63.91 103.86c-3 1.49-21.89-19.58-29.14-23.19-8.39-11.5 11.66-24 21.62-25.9 25.84-4.62 61.3 6.22 63.64 15.91 65.77 0 64.78-8.58 63.82-20.67 0-13.73-1.47-83.63-63.59-83.36z" fill="#fcc21b"/><path d="M63.94 65.53c-8.38 0-17.11-3.41-91.81-24.29C95.66 34.71 122 41.6 11 102c0-15.94-14.3-22.64-22.34-12.92C10.23 37.86 82.1 75.62 81 67c0-17.54 5.86-20.59 16.91-20.63m0-3c-31.16 0-50.72 00-57.59 00a57.58 55.75 0 0 1-7.85 0z" fill="#e59/06"/><d5fss<pach d="M66.29 109.64c.01 5.47-.01 8.71-.71 8.59-2.42 2.61-5.86 3.91-10.85 3.81-1.91 0-2.87 1.2-3.94 2.73-.6.6-1 1.37-1.85 1.37-2.55.21-.54.31-1.06.77-1.76.16zM92.37 117.03c-3.12 0-4.02-2.82-3.92-4.38v34.2c5.78 0 11.04 3.12 11.38 3.54 1.58 7.39-1.36 14.25-7.81 15.1z"/><path fill="#FBB71E" d="M31.21 89.23c-8.03 8.17-17.49-1.39-22.59-10.51-3.36-9.13 1.4-19.25 10.65-22.39 8.75-3.42 18.47 1.3 21.65 9.92 3.15 8.62-1.35 18.63-10.04 21.26z"/><path fill="#FAB020" d="M84.63 90.8c-8.8 3.51-20.8-1.45-24.16-11.15-3.55-9.65 1.48-20.35 11.27-23.88 9.77-3.51 20.59 1.46 24.17 11.13 3.54 9.66-1.51 20.36-11.28 23.86z"/><path fill="#FAB020" d="M113.48 75.96c-10.25 3.88-22.64-1.89-35.23-10.8-4.69-10.29 1.63-22.8 18.41-25.74 11.18-4.79 22.65 1.76 27.06 12.46 3.95 10.82-1.89 22.01-12.41 28.51z"/><path fill="#FAB020" d="M84.39 90.88c-8.8 3.51-20.6-1.45-24.16-11.11-3.55-9.65 1.48-20.35 11.27-23.98 9.77-3.51 20.53 1.46 24.61 10.5 3.06 8.41-1.29 8.58-10.27 21.96-20.58 14.96-12.27 18.05-4.14 31.07-4.8 38.38-2.82 3.24.03 6.55 1.15 7.59 2.72l.06.05c3.43 1.36 5.45 6.36 7.78 10.04 1.26 1.89 1.43 3.42 1.45 5.51 5.07 20.6 6.98 32.5 8.05 4.08 8.94 3.9 16.87.65 17.81z"/><path fill="#F99329" d="M21.32 66.72c-2.96 4.07-8.49 8.74-14.29 6.51 4.81.25 13.64-2.58 19.01-2.92 21.08-9.61 28.5-32.28.56-.89.96-1.93 1.69-3.25l11.62 36.4 2.99 49.21c-.01 4.42-1.18 6.64-2.85 7.59-4.26 2.15-10.44 11.48-37.57 7.83z" fill="-.32c9.221" 0 0 0 0-2.62 6.217 5.426 0 0 1 7.5 7.19c.68.1 1.28.24 1.91.23.73 0 1.31.07 1.04.07.02.71.38.91.71.74 1.62 1.48 5.5 2.52 17.89 15.64 28.96 21.65 45.56 31.7 68.58 1.11 1.24.25 2.63-.92 3.55C87.2 76.95 55.71 62.7 60.86 93.4c.26 0 .25-.01.38-.02.05-.06.14-.15.24-.22.48-.23.8-.51 1.49-.31.39-.58.66-.79 1.31-.13.09-.31.13-.5.11-1.57 2.35-8.13 6.76-13.17 7.58-.72 0-1.44-.04-2.05-.12-.95-.34-1.76-.86-2.4-.84-1.07 0-1.95.63-2.64 1.47-.21.15-.2.25-.32.33-.25.14-.52.27-.83.54l-.18.3c-1.04.81-3.29 2.06-5.62.3-.39.19-.78.39-.99 1.19-.74 4.53-.75 4.34-.7.68.27 1.56.63 2.4.85 1.41.61 2.32 1.04 3.15 1.95 1.11.66 2.35 1.21 3.24 1.81 3.45 2.1 5.21 3.91 9.68 3.92 3.46.18 7.3-.54 9.02-1.01 1.32-1.99 1.46-4.54 1.71-1.51.31-3.13-.21-4.53-1.61-1.03-.31-3.06-.57-3.9.63c00.2 3.72.91 5.4 1.06.41.42 1.38.71 2.25 1.17.62 1.52 1.04 3.02.94 3.89-.18.38-.63.89-1.11 1.31-.39.32-.6.48-.9.79-.25 1.32-.81 2.09-1.37.26-.11.55.13.54.16.14.09.23.13.26.03.06.18.21.26.15.05.05.1.13.1.26-.14.01.015.05.03.05.03.05.03.05.04.05.04.05.04.051.04.051.03.051.04.051.04.051.04.051.034.051.036.05.037.054.04.054.043.055.041.057.037.061.031.063.026.062.022.065.019.066.013.068.01.068.004h.068l.068.004.068.01.067.013.066.019.064.023.062.027.061.031.058.036.056.039.053.043.05.047.047.05.043.053.039.056.036.058.031.061.027.062.023.065.019.066.013.066.01.068.004.068v.068l-.004.068-.01.068-.013.067-.019.066-.023.064-.027.063-.031.06-.036.059-.039.056-.043.053-.047.049-.05.047-.053.043-.056.04-.058.038-.06.031-.062.028-.063.023-.064.019-.067.015-.067.01-.068.007h-.068l-.068-.002-.068-.007-.067-.012-.065-.016-.065-.021-.064-.027-.062-.031-.061-.036-.058-.039-.056-.035-.053-.036-.052-.038-.05-.041-.039-.043-.035-.044-.037-.041-.039-.039-.041-.036-.043-.034-.044-.031-.047-.028-.048-.026-.05-.023-.051-.02-.053-.017-.053-.014-.054-.011-.055-.008-.056-.004-.056L11 21l.002-.056.004-.056.008-.056.011-.055.014-.054.017-.053.02-.053.023-.051.026-.05.028-.048.031-.047.034-.044.036-.043.039-.041.041-.039.043-.036.044-.034.047-.031.048-.028.05-.026.051-.023.053-.02.053-.017.054-.014.055-.011.056-.008.056-.004L20 20l.056.002z"/><path d="M27 19.5a1.5 1.5 0 0 0-1.5-1.5h-3a1.5 1.5 0 0 0 0 3h3a1.5 1.5 0 0 0 1.5-1.5zM11 19.5A1.5 1.5 0 0 0 9.5 18h-3a1.5 1.5 0 0 0 0 3h3a1.5 1.5 0 0 0 1.5-1.5z" fill="#ed6b44"/><path d="M23.707 11.293l.028.029.026.029.025.031.024.032.023.032.021.034.02.034.019.036.017.035.016.037.014.037.013.038.011.038.01.038.008.039.007.039.005.04.004.039.002.04v.04l-.001.04-.003.039-.004.04-.006.039-.008.039-.009.039-.01.038-.012.038-.014.038-.015.036-.016.037-.018.035-.02.035-.02.034-.022.033-.024.032-.024.031-.026.031-.027.029-.028.028-.029.027-.031.026-.031.024-.032.024-.033.022-.034.02-.035.02-.035.018-.037.016-.036.015-.038.014-.038.012-.038.01-.039.009-.039.008-.039.006-.04.004-.039.003-.04.001h-.04l-.04-.002-.039-.004-.04-.005-.039-.007-.039-.008-.038-.01-.038-.011-.038-.013-.037-.014-.037-.016-.035-.017-.036-.019-.034-.02-.034-.021-.032-.023-.032-.024-.031-.025-.029-.026-.029-.028L21 14.414l-1.293 1.293-.029.028-.029.026-.031.025-.032.024-.032.023-.034.021-.034.02-.036.019-.035.017-.037.016-.037.014-.038.013-.038.011-.038.01-.039.008-.039.007-.04.005-.039.004-.04.002h-.04l-.04-.001-.039-.003-.04-.004-.039-.006-.039-.008-.039-.009-.038-.01-.038-.012-.038-.014-.036-.015-.037-.016-.035-.018-.035-.02-.034-.02-.033-.022-.032-.024-.031-.024-.031-.026-.029-.027-.028-.028-.027-.029-.026-.031-.024-.031-.024-.032-.022-.033-.02-.034-.02-.035-.018-.035-.016-.037-.015-.036-.014-.038-.012-.038-.01-.038-.009-.039-.008-.039-.006-.039-.004-.04-.003-.039-.001-.04v-.04l.002-.04.004-.039.005-.04.007-.039.008-.039.01-.038.011-.038.013-.038.014-.037.016-.037.017-.035.019-.036.02-.034.021-.034.023-.032.024-.032.025-.031.026-.029.028-.029L21 11.586l2.707 2.707zM13.707 14.293l.028.029.026.029.025.031.024.032.023.032.021.034.02.034.019.036.017.035.016.037.014.037.013.038.011.038.01.038.008.039.007.039.005.04.004.039.002.04v.04l-.001.04-.003.039-.004.04-.006.039-.008.039-.009.039-.01.038-.012.038-.014.038-.015.036-.016.037-.018.035-.02.035-.02.034-.022.033-.024.032-.024.031-.026.031-.027.029-.028.028-.029.027-.031.026-.031.024-.032.024-.033.022-.034.02-.035.02-.035.018-.037.016-.036.015-.038.014-.038.012-.038.01-.039.009-.039.008-.039.006-.04.004-.039.003-.04.001h-.04l-.04-.002-.039-.004-.04-.005-.039-.007-.039-.008-.038-.01-.038-.011-.038-.013-.037-.014-.037-.016-.035-.017-.036-.019-.034-.02-.034-.021-.032-.023-.032-.024-.031-.025-.029-.026-.029-.028L21 14.414l-1.293 1.293-.029.028-.029.026-.031.025-.032.024-.032.023-.034.021-.034.02-.036.019-.035.017-.037.016-.037.014-.038.013-.038.011-.038.01-.039.008-.039.007-.04.005-.039.004-.04.002h-.04l-.04-.001-.039-.003-.04-.004-.039-.006-.039-.008-.039-.009-.038-.01-.038-.012-.038-.014-.036-.015-.037-.016-.035-.018-.035-.02-.034-.02-.033-.022-.032-.024-.031-.024-.031-.026-.029-.027-.028-.028-.027-.029-.026-.031-.024-.031-.024-.032-.022-.033-.02-.034-.02-.035-.018-.035-.016-.037-.015-.036-.014-.038-.012-.038-.01-.038-.009-.039-.008-.039-.006-.039-.004-.04-.003-.039-.001-.04v-.04l.002-.04.004-.039.005-.04.007-.039.008-.039.01-.038.011-.038.013-.038.014-.037.016-.037.017-.035.019-.036.02-.034.021-.034.023-.032.024-.032.025-.031.026-.029.028-.029L11 11.586l2.707 2.707z"/><path d="M17.102 18.6l1.26 1.284c0 .877-.012 1.559-.129 1.502a2.996 2.996 0 0 0 4.117-2.99L25.698 14h-2.99l-.002.002a2.662 2.662 0 0 0 1.203-.704h.002a2.48 2.49 0 0 1 2.164 6.675l.018.001z" fill-rule="nonzero"/><path d="M19.945 5.001a2.254 2.254 0 0 0 .641 2.485c.019.062.035.07.037.175.385c.454.288.784.709 1.152.379a4.02 3.01 0 0 1 .119.527 1.259 1.459 0 0 1-.547.298c.136.307.434.15.709.218a6.05 6.05 0 0 1-1.398 2.428 4.667 4.667 0 0 1-2.588 1.971 9.926 9.826 0 0 1-3.613-.131 9.438 9.928 0 0 1-.46-3.213 3.017 3.017 0 0 1 1.211-1.56c.124-.403.267-.022.713 0 1.346.459 2.061.769 1.521a1.04 1.04 0 0 1-.247-.435 1.01 1.01 0 0 1 .205-.294 1.01 1.01 0 0 1 1.326.302c.17.005.313.005.418.023a2.04 2.04 0 0 1-.659-.484z"/><path d="M28 18c0-6.18-5.518-12-1.01-4.001-1.688C1.67 17 10 11.877 27 15c0 9.918 4.979 18 18 16a.797 9.937 0 0 1-3.998 6.159c.013.441.087.979.08 1.431M24 2.358c.247.93.501 1.928.873 2.768.248 7.068 1.413 9.925-.977 3.622.858a6.666 6.666 0 0 0 25.784 0L24 26z"/></svg>
