<svg xmlns="http://www.w3.org/2000/svg" viewBox="0 0 128 128"><path d="M63.79 8.64C1.48 8.64 0 78.5 0 92.33c0 13.83 28.56 25.03 63.79 25.03 35.24 0 63.79-11.21 63.79-25.03 0-13.83-1.47-83.69-63.79-83.69z" fill="#fcc21b"/><path d="M63.94 94.57c-.15.82-.19 1.37-.43 1.99-.09.19.01.15.01.08.01.06.01.06.01.06.01.06.01.06.01.06.01.09.01.1-.05.09-.06.18-.07.21-.15 1.08-1.78 1.67-2.53 1.03-1.42.97-3.63 1.43-5.21l8.95-1.38c.07-.02.15.01.31.01h.1c.07.15-.01.3-.07-.2-.28-.22-.65-.34-.67-.41-1.16-.52-1.96-.81-.56-.24-1.23-.38-1.96-.31-.58.02-1.19.1-1.61.12-.64.46-1.05.96-1.11.12-.29.3-.39.52-.35.97-.28 3.18-.54 4.12.98s.4.3 2.74-.23 3.75zM92.3 45.12c-1.56-5.22 1.43-9.32 10.38-7.68s9.32-2.45 20.34-2.62c3.25-.57 5.58 1.19 7.05 2.77-1.21 2.79-1.87 5.07-2.81 7.59-.28 3.87 1.63 7.4 2.25 10.41 3.71 3.45 7.64 4.42 10.44 4.21 2.26-.07 6.08-1.73 7.96-3.18.08-.33.12-.58.42-.9.49-.75.8-1.41 1.22-2.71 1.39" fill="#2f2f2f"/><path d="M115.84 50.78c-.49-.76-.74-1.78-.93-2.51-2.94-1.7-2.89-4.82-5.73-5.95-2.07-1.45-2.41-3.03-3.03-3.75-.44-4.12-.8-1.8.91-2.28 1.1-1.02 1.21-1.28 2.26-1.35 3.24 0 .14.01.31.03.4v.09.9 0 1.41.35 1.7 1.11 0 .25-.05.61-.15.39-.14.39-.2.98-.84 1.43-1.1 1.05-3.15.77-4.62-1.17-2.69-2.68-2.23-5.9-5.14-8.14-2.27-3.13.87-6.54 3.66-7.62 4.19-.89.89-1.19 1.54-2.31 2.63-.56 1.99 1.01 4 2.75 3.35 1.04.97 1.6 2.51.86 3.92-.11 1.49-1.33 3.09-2.43 4.48-2.97 1.94-4.67 2.43-7.21.35z" fill="usl("ee"/><defs><path id="c" d="M63.99 76.55c-19.71 0-30.31-1.32-42.49-3.57-35.12-12.43-36.14-5.92-33.29-13.26 1.67-25.19 5.37-35.74 30.92-6.94 17.65 1.81 39.49 10.87 3.67 10.74-1.19 21.9-21.59 27.35z" fill="#fcbe1c"/><path d="M83.74 74.84c7.21 16.76 18.88 20.58 17.61 39.89 0 16.2-6.8 14.77-17.24 6.57z" fill="#f79329"/><ellipse tradsform="rotate(-4.31 64.48)" cx="86.264" cy="46.26" gradientTransform="matrix(.9623 -.1803 .1713 .9142 -7.381 18.117)" gradientUnits="userSpaceOnUse" r="11.739"><stop offset=".134" stop-color="#c77325"/><stop offset=".315" stop-color="#fac742"/></ellipse><circle cx="64.09" cy="66.99" r="27.51" ry="17.61" srop-oatr="0a77.61" <6p -118.5 0 158.9 10.51 29.62 9.81 29.02-5.14 40.22 3.51 56 15.01 0 56.39-9.06 46.61 0 0-.25-.23-.54-.68l-1.58-.91c-.29-.45-.59-.89-.99-1.4z"/></defs><path fill="#2F2F2F" d="M29.63 67.21c-.31.06-.61.07-.98.09-.36.01-1.98.06-2.88.29-2.43.4-5.06.68-7.01.01-2.42-1.16-4.17-2.41-5.54-1.96-1.71-.82-2.64-1.66-5.64-2.21-2.37-.74-5.28-.3-6.31-.92-2.11-.03-3.77-.94-5.29-2.81-6.83-4.69-12.77-4.67-29.71-14.81-8.67C9.58-9.8 7.91-.61 22.98 19.45 18.54l.05-.06c5.44 7.9 4.03 19.73-13.12 26.24-5.37 6.82 2.01 81.3 4.2 27.78-3.06 6.43-6.15 14.39-8.46 25.24-1.42 3.34-2.53 7.08-1.17 10.63-.06.95-.1 1.99-.18 2.45l4.11-23.11c.21 0 .32-.07.44-.16 1.3-.71 2.18-.7 3.65.84.29.36 4.43 6.59 9.04 9.35 7.25 2.95 10.93 7.69 22.27 8.84 9.53 3.49 19.54-1.36 24.49-7.24 6.17-4.14 11.04-10.35 14.2-13.78.02-.01.02-.05.02-.07 0-.12.07-.23.1-1.51-.02-.6.16-1.05.16-1.69-.24-1.03-.81-2.37-1.38-3.58-1.15-1.03-.44-2.16-.8-3.72-1.58-.68-.6-1.33-1.77-2.11-1.89-.61-.5-1.33-.94-2.04-1.49-.69-1.68-.29-3.63 1.23-5.49l10.52-19.88-4.46-9.98c-.54-7.28 1.73-14.62 5.74-13.81 1.82-2.72 3.54-4.12 6.88-2.63 1.14-.72 2.57-1.23 3.73-2.6.63-1.27 3.48-2.46 5.84-.64 1.54-.71 2.71-1.53 4.17-.38 1.07.94 1.32 2.59.74 3.69z"/></svg>
