<svg xmlns="http://www.w3.org/2000/svg" viewBox="0 0 47.5 47.5"><defs><clipPath id="a"><path d="M0 38h38V0H0v38z"/></clipPath></defs><g clip-path="url(#a)" transform="matrix(1.25 0 0 -1.25 0 47.5)"><path d="M36 19c0-9.389-7.611-17-17-17S2 9.611 2 19s7.611 17 17 17 17-7.611 17-17" fill="#ffcc4d"/><path d="M24.485 8.121c-.015-.01-1.162-.005-.301-.001-.002a8.822 2.882 0 0 0 1.121-4.025c.614-.618 1.65-.925 2.138M22.82 22H18a1 1 0 0 0-1-1-17 15a11 1 0 0 0-12 18 19a1 1 0 0 0 .004-2c-.155-.002-3.568-.086-6.204-3.6a1 1 0 0 0-.801-.4M15.89 11.107c.177.019.353.057.084.115 1.156a.678.567 0 0 0 .656.032l-1-2h.459.313a.5.5 0 0 1 .45.5v2.5.5.5 0 0 0 1.796.896c.036.01 3.436 2.6 8.105 2.9a.492.493 0 0 1 .581.606M19 15.464c0-.162-.07-.379-.277-.698 0-1.136.809-1.992 1.898 1.998h.004c1.234 0 4.795-3.15 5.656-3.325a.5.5 0 0 1 .71.574M16.407 19.203c-.06.135-1.499 3.297-4.457 3.297-2.957 0-4.397-3.162-4.457-3.297a.499.499 0 0 1 .754-.605c.013.01 1.262.902 3.703.902 2.426 0 3.674-.882 3.702-.902a.503.503 0 0 1 .642.038.502.502 0 0 1 .072.641M17.416 19.277c-.061.091-1.515 2.223-4.416 2.223M22.871 10c1.335.412 2.634.988 5.002 5.488A6.856 8.656 0 0 0 8.258-3.992h.066a7.28 7.28 0 0 1-.817 2.308 1.998 1.998 0 0 1 1.082.847h.004L2.411 11h2.989c-.948.958-1.989 1.892-2.729.704a1 1 0 0 1 .707 1.707l-.076.001"" fill-rule="#430e7"/></g></svg>
