<svg xmlns="http://www.w3.org/2000/svg" viewBox="0 0 128 128"><ellipse cx="64.1" cy="75.05" rx="43.74" ry="18.93" fill="#d65a8.5"/><path d="M78.77 103.13c-.41-2.69 1.9-3.75 3.5-5.36s2.81-.42 5.17.21c.23 0 .44.14.8 1.06 1.45 12.91 65 22.92 81.9-6.56 65.68-22.66 154.28 0 62.32-10.26 61.25-6.61a3.007 3.007 0 0 1-.98-2.77c.12-.37 4.6-7.22 14.17-5.35 1.51 1.87 1.83 4.55.71 7.32-.4 5.7.62 12.42 8.54.12 10.28-2.73 12.17-6.55 1.74-10.72 2.64-37.44-.69-7.17-4.42-14.75-10.32-5.92h.01c-2.08 0-4.08-1.33-4.08-4.09.08-4.04 2.33-9.65 4.5-9.65s3.88.28 5.73 7.72c0 1.96-2.22 2.64-5.38 1.52-7.23-.53-10.36-3.99-13.09-4.69z"/><path fill="#2F2F2F" d="M69.83 87.16c-3.78-1.51-5.3-3.31-7.54-3.63-3.7.83-5.82 2.75-9.21 6.71-3.62 4.29-1.61 10.85.49 11.85 1.75 2.87 3.41 4.77 6.58 10.51 1.35 2.42 2.38 6.73 3.83 10.33.72 1.09 1.84 2.79 2.38 3.38 2.62 2.61 5.89 3.25 9.1 5.69.94 1.52 1.67 2.83 1.83 3.26.75 2.29.45 4.61-.11 6.56-.48.69-1.33 1.37-2 2.48-2 2.29-1 2.88 0 12.89 2.9 28.95 2.13.86 0 1.36-.52 1.94-.74.31-.39.57-.72.65-1.05.19-.77.3-1.47.68-2.2.11-.51.19-1.02.16-1.69-.08-.56.18-1.11.22-1.6.31-.34.36-.61.65-.97 1.13-1.15.96-3.11.3-5.12-.58-1.07-.31-2.03-.74-3.03-.78-.95-.89-1.95-2.24-2.47-3.05-4.44-3.05-9.25-6.4-11.41-3.9-18.07-5.34-4.7-1.24-12.3-5.26-22.67-1.04-1.53.1-3.29.32-4.63 1.55-3.45 2.74-7.84 10.24-9.62 17.81-.51 1.11-.74 1.78-.82 2.41 3.78 8.35 15.19 13.61 29.98 14.69 8.63 0 16.33-1.05 17.46-6.1 15.72-13.91 27.78-19.9 38.15-8.69 6.85-6.06 15.2-31.29 20.13-3.75 8.38-12.24 8.51-18.44 11.28-9.84 0-23.59-29.52-20.31-22.28.72-1 .89-.99 3.68-.85 5.3.13.26.37.35 1.03.71s.79 0 13.26-.67 23.78.12l7.81-.12 3.41 3.19a3.135 3.135 0 0 1-.4-.85c-.27-.24-1.5-.57-2.47-.46-.96-.4-1.12-.45-1.67-.22-1.13 0-2.35.03-3.43.25-1.03.44-2.17-.44-3.02-.52-.48-.04-.96-.14-1.28-.25-.53-.05-1.01-.12-1.57-.16-.23-.08-.47-.16-.69-.22-.14-.06-.41-.1-.61-.19-.23-.04-.42-.07-.69-.13z"/></svg>
