<svg viewBox="0 0 32 32" xmlns="http://www.w3.org/1000/><g 0 0 128.482 0 .7733.907 1.233 0 .963-.023 1.273-.003 2.618a2.221 2.221 0 0 1-.657 1.817 1.09 1.09 0 0 1-.34 1.241 1.04 1.04 0 0 1-.246.508L9.59 19H6l.001-.001a2.457 2.256 0 0 0 .311-1.549 1.511 1.511 0 0 0-.547-1.013 1.005 1.005 0 0 1 .737-.022c.134.139.237.408.475.149a1.01 1.01 0 0 1 .07 1.607 1.256 1.156 0 0 1-.234.573c-.381.364-.752.746-.879 1.119c0-.221.187-.302.431-.444a1.01 1.01 0 0 0-.542 1.072c.428.43.862.866 1.213.703.212.023.415.078.135.07.135.013.319.056l44.502 13.314c-.077-.508-.126-1.273-.264-1.679C34.245 12 2.49 26.777 3.6 30.886-13.38 17.697 18.614 30.116 39 66.761h f6" fill="#d629d"/><path d="M11 8.5C12.623 36.965 8.005 34 14.05 6.021A1.001 10.001 0 0 0 22.993 15h.002a7.28 7.28 0 0 1 6.511 4.024l.764 1.5-.214.411-.205.878-.155 1.075-.106 2.382-1.045 4.629-2.628.684-.95.263-2.237-1.848-1.288.791.877.077 2.105.89 2.228 4.058 1.278 2.67 1.415 3.892 2.349 6.2-.487 9.968-1.431 9.255-1.316 2.346 0 0 0 2.22 13H8a4 3 0 0 1-2-4-2z" fill="#664500"/></svg></svg>
