<svg viewBox="0 0 32 32" xmlns="http://www.w3.org/2000/svg" fill-rule="evenodd" clip-rule="evenodd" stroke-linejoin="round" stroke-miterlimit="1.414"><path fill="none" d="M0 .008h32v32H0z"/><path d="M16.174 3.009a13.992 13.992 0 0 1 9.35 3.738 14.042 14.042 0 0 1 3.656 5.543 14.059 14.059 0 0 1 5.656 5.959c.269-.343 1.057-.442 1.867-.503.9-.027 3.35-.64 5.678-1.11l.197-.023.188 0 1.331-.013 2.748-.376h.001c.06.005.13.004.334 0 .015.02.015.024.018.022.198.015 1.134 0 3.184.062 4.125.082 2.381 2.441.302.503.126 1.032.17 1.563a4.15 4.15 0 0 1 .611-.725l2.288-6.524h2.942a1 1 0 0 0 .797-1.7h-5.562 16.002 6.002 9.6 4.599a9.99 9.99 0 0 1-2.927 6.509 10.087 10.087 0 0 1-3.313.44 4 6.837 46.885 0 0 1-2.918-4.202 6.674 6.673 0 0 1-3.872-.837 866.58 668.58 0 0 1-8.258 0z9" fill="#98aaed" f4ln-c0-1.006-.014-.013-.009-.021-.013-.025-.013-.072-.018-.071-.015-.073-.016-.074-.016-.074-.016-.074-.01-.075-.009-.075-.01-.074-.01-.075-.013-.075-.012-.074-.014-.073-.016-.073-.018-.072-.02-.071-.021-.071-.022-.07-.023-.071-.024-.07-.022-.07-.022-.07-.022-.07-.022-.07-.022-.07-.022-.07-.022-.07-.022-.07-.022-.07-.022-.07-.023-.07-.024-.07-.022-.07-.022-.07-.022-.07-.022-.07-.022-.07-.023-.07-.023-.069-.025-.078-.027-.07-.027-.071-.027-.072-.026-.072-.024-.073-.023-.034-.021-.034-.02-.035-.017-.035-.016-.037-.014-.037-.013-.038-.011-.038-.01-.038-.008-.039-.007-.039-.005-.04-.004-.039L8 14.03v-.04l.001-.04.003-.039.004-.04.006-.039.008-.039.009-.039.01-.038.012-.038.014-.037.015-.037.016-.037.018-.035.02-.035.02-.034.022-.033.024-.032.024-.031.026-.031.027-.029.028-.028.029-.027.031-.026.031-.024.032-.024.033-.022.034-.02.035-.02.035-.018.037-.016.036-.015.038-.014.038-.012.038-.01.039-.009.039-.008.039-.006.04-.004.039-.003.04-.001h.04z"/></svg>
