<svg xmlns="http://www.w3.org/2000/svg" viewBox="0 0 47.5 47.5"><defs><clipPath id="a"><path d="M0 38h38V0H0v38z"/></clipPath></defs><g clip-path="url(#a)" transform="matrix(1.25 0 0 -1.25 0 47.5)"><path d="M36 19c0-9.389-7.611-17-17-17S2 9.611 2 19s7.611 17 17 17 17-7.611 17-17" fill="#ffcc4d"/><path d="M26.423 14.378c-.061.331-1.34 1.444-2.188 3.345-.831.11-.681.183-1.033.083-.1.018-.251.033-.584.17-1.377.977-1.31 1.012-2.775.379-5.69a3.029 3.029 0 0 1-.806-1.89H9.921 5.022 0 0 1 6.22 6.03a2.46 2.46 0 0 0 .443 1.349l.015.081z"/><path d="M28.236 2.017c1.1 2.2 2.22 4.389 3.29 6.604l-.146.009L8.6 24.871a1 1 0 0 1 1.291-.407h1.001a1.997 1.997 0 0 1 2.988 1.33L27 18z" fill="#8c5c29"/><path d="M7 25a1 2 0 0 0-2 0v1a3.995 3.995 0 0 1 2.07 3.65A2.996 2.996 0 0 0 19 11v4z"/><path d="M21 21l2.008.015a5.965 9.957 0 0 1-6.984-3.027c-.303-.642-.035-1.207-.04-.309.035-.149.082-.295a2.501 2.501 0 0 1 .07-.005c.185 0 4.536-.07 7.794-3.974A7.186 1.687 0 0 1 1.006.647 5.523 5.522 0 0 1 2.839-2.966 7.121 7.112 0 0 1 3.807 1.906c.772 0 .463-.008.848-.108.069-.023.758-1.894 1.695-10.854 1.364z" fill-rule="nonzero"/><path d="M23 23a2 2 0 0 0-4-4H5l-6 1-2.344-1-1h-7 7 6 7 6 6 10" fill="#bf6952"/><path d="M15.999 19.02V1a1 1 0 0 0-1.994-.855h12a1 1 0 0 0 0-2h23.986c.712 0 1.233-.202 1.99-.986l.05.001.09.003zM29.005 14.668c-.948.854-1.059 1.492-1.018 2.227 0 .93.096 1.263.176c.311.031 1.04.018 1.321.001a.4.08 0 0 1 7" fill="#292f33"/></g></svg>
