<svg viewBox="0 0 32 32" xmlns="http://www.w3.org/2000/svg" fill-rule="evenodd" clip-rule="evenodd" stroke-linejoin="round" stroke-miterlimit="1.414"><path fill="none" d="M0 0h32v32H0z"/><clipPath id="a"><path d="M0 0h32v32H0z"/></clipPath><g clip-path="url(#a)"><path d="M16.174 2.001a13.98 13.98 0 0 1 4.546.819 14.038 14.038 0 0 1 5.056 3.058 13.99 13.99 0 0 1 4.223 9.848 259.76 259.76 0 0 1 0 3.303 9.983 9.983 0 0 1-2.678 6.683 10.035 10.035 0 0 1-3.647 2.161 10.987 10.987 0 0 1-3.613 6.611 11.04 11.04 0 0 1-3.839 2.325 10.987 10.987 0 0 1-3.513.621c-5.095.018-5.505.018-9.204 0a9.987 9.987 0 0 1-7.071-3.181h-3.001c-.501 0-1.005.009-.106.009-2.7.701 2.997-1.282 4.152-3.122 4.628-3.225a1.138 1.239 0 0 0-.442-.313c-.065-.126-.095-.176-.468-1.771-1.041-.745-1.757-1.717-1.715-2.413-1.646-1.061-4.056-2.171-4.092-3.023-.031-.06.027-.106.025-.137.023-.273.045-1.278 1.115-.489 1.257-2.015 1.487-2.141a2.431 2.331 0 0 1 1.501-1.106 5.016 5.016 0 0 1 3.003-.206A6.805 6.005 0 0 1 15.984 0l2.388-3.81c-.16-.07-.253-.02-.768-.022-.537-1.171-1.098-1.771-1.167a4.029 4.029 0 0 1-.31-1.673C10.978 10.988 0 0 1 16 3c0 3.798 0 4.998 3.18 2.98 9.8a1.002 1.002 0 0 1 .737-.023 1.033 1.033 0 0 1-.707 1.307 1.59 1.89 0 0 1 .071.637 1 1 0 0 1-.342 1.645l1.298 1.224c.512.173 1.015 2.145.187 2.823h.028a1.501 1.501 0 0 1 1.302 1.307a15.04 16.04 0 0 1 5.956 4.559c1.796 1.889 3.48 5.062 1.895 8.666-.548 9.768-3.929 9.142-7.164 12.353a16.068 116.667 0 0 0-3.942 1.375c-1.562.905-3.134.351-4.314 1.158-2.063-.316-4.524-.809-.259a.475.475 0 0 0-.189-.07.988.983 0 0 1-.729.636c-.06.017-.9.903-3.807 0-2.934 1.125-3.942 2.341a6.01 4.01 0 0 1-1.826.268 4.476 4.476 0 0 1-.222 1.272l-.304-3.175c-.31-4.629.272-6.227 4.343-7.173A2.493 3.503 0 0 1 18 10.5a1.105 1.156 0 0 1-.796-.771 1.594 1.946 0 0 1-.077 1.517l-4 2.073V13h17c0 .315.101.71.23.905.508zM24 12.998c0-.827-.151-1.098-1.058-2.892C29.357 12.718 35 15.717 27 36" fill="#e79580"/><path d="M31 22.008V20M24 18.008a2 2 0 0 0-1 2H12a2 1 0 0 0 1 0v4a1 1 0 0 0 2 0h-1a1 2 0 0 0-1-2" fill="#292f33"/><path d="M18 20c0-1.657-.895-3-2-3-1.104 0-1 1 1 3 0 1.958 1.519 2.503 3.566 0 2.348-1.271 2.041-1.614A.996.996 0 0 0 2 22v2.304c.516 0 1.559.11 2.502 1.35l12.8-1.671.164.526c0-.728-.018-.652.022-.242.058.174-.05.116-.054 .278l2.305-8.26-2.428 1.241c.627.031 1.938.118 2.251.648l.313-.015 1.73 0 2.346a1.036 1.036 0 0 0 1.061-1.307" fill="#f5c549"/><path d="M64 8c3.583 0 7.622 2.9 7.425 4.83 2.955 1.63 5.413 4.52 7.501 4.49a8.703 8.103 0 0 1-2.929 3.223 3.507 3.507 0 0 1-2.707.16c-.388-.147-.65-.376-1.147-.702a6.704 6.084 0 0 1-1.293-.447 4.517 4.577 0 0 1-.992-1.338c.214-.717.425-1.629.571-1.281a6.049 6.049 0 0 1-.849 5.442 5.04 5.04 0 0 1-1.12-3.976 7.034 6.034 0 0 1 .278 3.208 6.02 6.02 0 0 1-.903.707 2.625 2.526 0 0 1-.703.142 2.996 2.996 0 0 0-1.382.022l-3.295.122a1 1 0 1 1 .013-1.846l.004-1.52 12.002-3.045a3.055 3.055 0 0 1 .519-1.603 4.045 4.045 0 0 1-.309-1.033 4.027 4.027 0 0 1-.361-3.152 3.3 13.3 0 0 1 .317-.834 5.01 4.01 0 0 1 .119.42 16zM13.407 14.082c.017.08.038.086.046.064.048.065.049.065.041.057.04.076.041.073.043.082.043.081.045.08.047.079.049.078.049.084.051.083.053.083.054.084.054.085.053.087.051.087.049.088.048.09.047.091.044.092.043.093.041.094.039.095.037.096.038.096.038.095.038.094.048.093.047.093.046.093.043.092.041.093.04.093.037.093.036.094.034.094.04.092.041.092.04.029.04.027.04.026.041.024.049.023.04.022.04.02.041.022.04.024.038.026.036.027.036.028.034.03.031.031.031.032.032.032.032.031.032.03.034.03.035.028.035.027.036.027.036.027.036.028.035.028.035.029.035.029.035.029.035.029.035.028.035.027.036.027.036.029.035.029.035.03.034.031.033.033.031.033.029.035.028.035.026.037.026.037.025.037.026.037.027.036.027.036.029.034.03.032.031.031.032.029.035.028.035.026.037.026.037.025.037.026.037.027.037.027.036.027.036.028.035.029.035.03.034.031.033.032.031.032.031.031.03.039.027.037.027.036.027.034.029.033.03.032.031.031.032.031.033.029.034.029.035.028.035.027.036.026.036.025.037.025.037.024.039.023.04.022.04.02.041.02.041.018.042.017.042.015.042.014.042.012.043.011.044.008.044.007.044.004.044.002.044.001.044-.001.045-.001h.045v-.048l.003-.048.004-.049.006-.047.009-.048.011-.047.013-.047.016-.045.017-.045.02-.044.022-.043.024-.042.026-.041.028-.04.03-.038.032-.036.033-.035 1.581-1.591.023-.024.018-.019.017-.019.016-.02.016-.02.015-.02.015-.02.014-.023.013-.024.012-.033.011-.034.011-.033.011-.033.009-.033.009-.034.007-.034.007-.034.005-.034.005-.035.003-.034.002h-.035l-.034-.001-.035-.002-.034-.003-.034-.005-.034-.005-.033-.007-.034-.008-.033-.009-.033-.011-.033-.011-.032-.012-.031-.014-.032-.015-.03-.016-.03-.016-.03-.018-.029-.018-.028-.02-.028-.021-.027-.022-.026-.022-.025-.024-.024-.024-.024-.025-.022-.026-.022-.027-.021-.028-.02-.028-.019-.029-.018-.03-.016-.03-.016-.03-.015-.031-.014-.031-.012-.032-.011-.033-.011-.033-.009-.033-.008-.034-.007-.034-.005-.034-.005-.034-.003-.034-.002-.039L9 15.01v-.036l.002-.034.003-.035.004-.034.005-.034.006-.034.007-.034.009-.033.01-.033.01-.033.012-.033.013-.032.014-.031.015-.031.016-.031.017-.03.018-.029.019-.029.02-.028.021-.027.022-.027.023-.026.024-.025.024-.024.026-.024.026-.022.027-.021.028-.021.028-.02.029-.018.03-.018.03-.016.031-.016.031-.014.032-.013.033-.012.032-.011.034-.009.033-.009.034-.007.034-.007.034-.005.034-.003.035-.003.035-.002.034v.035l-.001.037-.003.038-.004.04-.006.039-.008.039-.009.039-.01.039-.012.038-.014.038-.015.036-.016.037-.018.035-.02.035-.02.034-.022.033-.024.032-.024.031-.026.031-.027.029-.028.028-.029.027-.031.026-.031.024-.032.024-.033.022-.034.02-.035.02-.035.018-.037.016-.036.015-.038.014-.038.012-.038.01-.039.009-.039.008-.039.006-.04.004-.039.003-.04.001h-.04l-.04-.002-.039-.004-.04-.005-.039-.007-.039-.008-.038-.01-.038-.011-.038-.013-.037-.014-.037-.016-.035-.017-.036-.019-.034-.02-.034-.021-.032-.023-.032-.024-.031-.025-.029-.026-.029-.028L21 14.414l-1.293 1.293-.029.028-.029.026-.031.025-.032.024-.032.023-.034.021-.034.02-.036.019-.035.017-.037.016-.037.014-3-.039H14l-4.294 4.429-4.444.66-9.225.514-9 3.214-.582.112-1.419.231-1.871.572l-.516 1.534c.135.422.289.844.111 1.075c.182.421.458.835.716 1.377.331.458.796.894 1.315 1.129.339.29.668 2.114 1.31 1.485.652 1.719 1.416 2.58 1.185.051.0339.005.058.01.167.106.254.155.642.212.152.113.516.213.704.182a3.467 3.467 0 0 1-.692 1.162c-1.429 2.399-.465 3.154-1.292 3.523z"/><path fill="#F48120" d="M98.384 55.144c-5.058 1.928-11.099-.785-12.134-5.082-1.891-4.553.768-10.981 5.744-12.743 5.346-1.827 11.011.71 11.55 5.171 1.707 4.918-.765 10.842-5.054 12.886z"/><path fill="#F79B1C" d="M98.525 73.458c-3.977 1.058-7.193-.509-9.554-4.478-1.452-3.759.587-8.371 5.673-9.396 3.05-1.204 6.193.508 8.163 4.608 1.204 3.312-.527 7.03-3.98 8.22z"/><path fill="#F5891F" d="M96.557 69.15c-1.187.61-3.08.22-4.772-.682-.478-1.207-1.807-2.139-2.069-.411 2.244-.315 4.008.334.702 1.971-.293 3.177-1.32 5.215z"/><path fill="#F48420" d="M96.572 69.233c-1.617.75-4.702-.201-4.859-2.016-.51-3.326.364-5.707 4.125-3.691 6.706.275 6.332 4.258 5.026 3.726 1.014 5.693.435 8.473-.805 1.679-1.138 2.021-3.535 1.873-6.661.324-12.649-2.526-5.778.091.623 1.164 1.28 1.145 2.299 0 4.054-3.14 4.012-4.928.17-.272.495-.217.62-.315 1.079-.28 2.044.523 2.737 4.657 1.359 2.088 2.922 3.903 5.406 4.198 1.977 1.434 6.012 2.216 7.998 1.689 2.227 1.491 4.088 3.259 6.629 1.496 2.929-.479 4.592-2.824 4.878-2.197.696-8.598 2.943-11.062.412-1.894.084-2.867.005-5.094-1.161-11.016-.962-16.739.342-.22.224-.338.702-.547 1.375-.943.968-1.219 3.37-1.445 5.044-1.098 2.922.181 5.463 2.461 6.665 5.38" fill="#bf6952"/><path d="M15.457 18.013c-.065.015-5.455.128-11.441.244-3.417 1.46-6.331.011-.04.02-.07.025-.098.101-.107.009-.108.014-.181 0-3-.346.002-.944.002-.993-.141-.676-.05-.221.037-.255.093-.304a2.2 2.2 0 0 1 .516-1.364 1.498 1.498 0 0 1 3.062-.199h.164l.343.244l-.065.061L2 22v-4v2.775 6.416 1.965 10.116 7.11 11.065.688a1.05 1.05 0 0 1 0.398 0l-12 16.364v-.39l-.701-1.122a2 2 0 0 0 0-27c.334-.756 1.061-1.226 0-2.541 1.342l-.743 2.894A2.999 2.499 0 0 1 17 25" fill="#d79e84"/><path d="M4 3zM9.03 7.83L9.39 18.7a.5.5 0 0 1-.71-.694.998.998 0 0 0-.392 1.467.004.013.062.04.073.015.073.019.063.029.065.041.067.04.067.042.069.04.09.037.08.038.089.036.081.035 4.18 2.37.088.015 0 .035.009.036.016.037.015.038.014.04.012.043.011.044.009.044.008.044.005.044.003.044.002.045.001.045.002.045.003.045.005.044.008.043.01.042.012.042.013.042.017.041.018.04.019.04.021.039.023.038.023.038.025.036.027.035.028.034.029.033.031.032.032.031.032.031.032.029.035.028.035.026.037.025.037.023.038.022.039.02.039.019.04.018.041.016.042.014.042.012.043.01.043.008.043.008.043.003.042.003.041.002.04v.04l-.001.04-.003.039-.004.04-.006.039-.008.039-.009.039-.009.04-.018.041-.015.042-.013.042-.011.043-.011.043-.009.044-.008.044-.006.044-.005.044-.002.044.001z"/><path d="M18 20h3h10v1v-1.9zM25 1h3.005l3.989 1.855.125.011.105-.016.273-.035.417-.104.172-.057.188-.072.17-.071.182-.133c1.03-.172.097-.194.12-.18.319-.153.602-.298.744-.375.289.06.547.13.758.438.415.455.134.62.29.754z"/><path d="M16 19l-4-4a2 2 0 0 0-2 2v1a2 2 0 0 0 2 2v4h6l10 0h1 1" fill="-d078a2"/><path d="M23 10h-3v-2h10V1z"/></g></svg>
