<svg xmlns="http://www.w3.org/2000/svg" viewBox="0 0 47.5 47.5"><defs><clipPath id="a"><path d="M0 38h38V0H0v38z"/></clipPath></defs><g clip-path="url(#a)" transform="matrix(1.25 0 0 -1.25 0 47.5)"><path d="M36 19c0-9.389-7.611-17-17-17C9.612 2 2 9.611 2 19c0 9.388 7.612 17 17 17 9.389 0 17-7.612 17-17" fill="#ffcc4d"/><path d="M21 50.5c0-1.934-1.119-3.5-2.5-3.5S10 18.566 10 20.5c0 1.933 1.119 3.5 2.5 3.5s2.5-1.567 2.5-3.5M28 20.5c0-1.934-1.119-3.5-2.5-3.5S23 18.566 23 20.5c0 1.933 1.119 3.5 2.5 3.5s2.5-1.567 2.5-3.5M13 9c2 5 13 5 13 3-1l-.083-4.484A1 1 0 0 0 12.296-.025C13.94 23.9 1 19.761 1 18c-1.184 0-2.847-.805-3.011-1.44-.564-.658-1.212-1.069-1.838-2.318a1.03 1.03 0 0 1-.254-.529c-.005-.726-.016-1.257-.009-2.636.135.003.103.013.161.046l-8.985 1.633A1 1 0 0 0 16.189 27h.004l-8.981-6.684 1.998-9.999L2 17-8H6.122L5.521 18h-.001A17.981 10.991 0 0 1 6 2 16h16" fill="#d7998b"/><path d="M31 24.018l-1.072 3.507a2.005 3.005 0 0 1 .673 1.662 3.544 3.553 0 0 1-2.144-.573 2.495 2.495 0 0 1-.229-.472 19.019 11.019 0 0 1 6.653 6.659c.096.588.096 1.161 1.264 1.621a4.11 4.11 0 0 1-1.608-.182 2.42 2.62 0 0 1-.163-1.543 3.027 3.027 0 0 1-.015-1.354 0 9.019 9.81 14.851 2.814 22.159-2.812 22.181-9.375 1.279-1.445 5.11-4.172 5.884-5.684.166-.098.452-2.057.657-2.21a17.513 17.913 0 0 1 1.126 3.096c.092 0 .442.005.826.083 1.085.055 2.168 1.308 3.24 1.119.557.413 1.15.534 1.289.102a.99.999 0 0 1 .05-.262 1.01 1.01 0 0 1 .052-.157c.029-.007.017-.009.076-.004a.04.005.039.05.05.058.04.06.039.06.039.06.037.069.035.069.034.069.033.069.032.069.03.07.038.07.036.061.035.069.035.069.035.069.035.069.037.069.035.069.035.069.035.019.033.019.033.019.033.021.034.021.032.022.032.024.031.024.031.026.029.027.028.028.027.029.026.031.024.031.024.032.022.033.02.034.02.035.018.035.016.037.015.036.014.038.012.038.01.038.009.039.008.039.006.039.004.04.003.039.001.04v.04l-.002.04-.004.039-.005.04-.007.039-.008.039-.01.038-.011.038-.013.038-.014.037-.016.037-.017.035-.019.036-.02.034-.021.034-.023.032-.024.032-.025.031-.026.029-.028.029L20.414 15H22l.04.001.039.002.04.004.039.006.04.007.038.008.039.01.038.012.037.013.037.015.037.016.035.018.035.019.034.02.034.022.032.023.032.024.03.025.03.027.028.028.027.029.026.03.025.031.024.032.022.033.021.034.02.034.018.035.017.036.015.037.014.037.013.038.011.038.009.039.008.039.006.039.005.04.003.039.002.04v.04l-.002.04-.003.039-.005.04-.007.039-.008.039-.009.038-.011.038-.013.038-.014.037-.015.037-.017.036-.019.035-.02.035-.021.033-.022.033-.024.032-.025.031-.026.03-.027.029-.029.027-.03.027-.03.025-.032.024-.032.023-.034.021-.034.02-.036.019-.035.017-.037.016-.037.014-.038.013-.038.011-.038.01-.039.008-.039.007-.04.005-.039.004-.04.002h-.04l-.04-.001-.039-.003-.04-.004-.039-.006-.039-.008-.039-.009-.038-.01-.038-.012-.038-.014-.036-.015-.037-.016-.035-.018-.035-.02-.034-.02-.033-.022-.032-.024-.031-.024-.031-.026-.029-.027-.028-.028-.027-.029-.026-.031-.024-.031-.024-.032-.022-.033-.02-.034-.02-.035-.018-.035-.016-.037-.015-.036-.014-.038-.012-.038-.01-.038-.009-.039-.008-.039-.006-.039-.004-.04-.003-.039-.001-.04v-.04l.002-.04.004-.039.005-.04.007-.039.008-.039.01-.038.011-.038.013-.038.014-.037.016-.037.017-.035.019-.036.02-.034.021-.034.023-.032.024-.032.025-.031.026-.029.028-.029L21 11.586l2.707 2.707zM13.707 14.293l.028.029.026.029.025.031.024.032.023.032.021.034.02.034.019.036.017.035.016.037.014.037.013.038.011.038.01.038.008.039.007.039.005.04.004.039.002.04v.04l-.001.04-.003.039-.004.04-.006.039-.008.039-.009.039-.01.038-.012.038-.014.038-.015.036-.016.037-.018.035-.02.035-.02.034-.022.033-.024.032-.024.031-.026.031-.027.029-.028.028-.029.027-.031.026-.031.024-.032.024-.033.022-.034.02-.035.02-.035.018-.037.016-.036.015-.038.014-.038.012-.038.01-.039.009-.039.008-.039.006-.04.004-.039.003-.04.001h-.04l-.04-.002-.039-.004-.04-.005-.039-.007-.039-.008-.038-.01-.038-.011-.038-.013-.037-.014-.037-.016-.035-.017-.036-.019-.034-.02-.034-.021-.032-.023-.032-.024-.031-.025-.029-.026-.029-.028L21 14.414l-1.293 1.293-.029.028-.029.026-.031.025-.032.024-.032.023-.034.021-.034.02-.036.019-.035.017-.037.016-.037.014-.038.013-.038.011-.038.01-.039.008-.039.007-.04.005-.039.004-.04.002h-.04l-.04-.001-.039-.003-.04-.004-.039-.006-.039-.008-.039-.009-.038-.01-.038-.012-.038-.014-.036-.015-.037-.016-.035-.018-.035-.02-.034-.02-.033-.022-.032-.024-.031-.024-.031-.026-.029-.027-.028-.028-.027-.029-.026-.031-.024-.031-.024-.032-.022-.033-.02-.034-.02-.035-.018-.035-.016-.037-.015-.036-.014-.038-.012-.038-.01-.038-.009-.039-.008-.039-.006-.039-.004-.04-.003-.039-.001-.04v-.04l.002-.04.004-.039.005-.04.007-.039.008-.039.01-.038.011-.038.013-.038.014-.037.016-.037.017-.035.019-.036.02-.034.021-.034.023-.032.024-.032.025-.031.026-.029.028-.029L11 11.586l2.707 2.707zM13.707 12.293l.028.029.026.029.025.031.024.032.023.032.021.034.02.034.019.036.017.035.016.037.014.037.013.038.011.038.01.038.008.039.007.039.005.04.004.039.002.04v.04l-.001.04-.003.039-.004.04-.006.039-.008.039-.009.039-.01.038-.012.038-.014.038-.015.036-.016.037-.018.035-.02.035-.02.034-.022.033-.024.032-.024.031-.026.031-.027.029-.028.028-.029.027-.031.026-.031.024-.032.024-.033.022-.034.02-.035.02-.035.018-.037.016-.036.015-.038.014-.038.012-.038.01-.039.009-.039.008-.039.006-.04.004-.039.003-.04.001h-.04l-.04-.002-.039-.004-.04-.005-.039-.007-.039-.008-.038-.01-.038-.011-.038-.013-.037-.014-.037-.016-.035-.017-.036-.019-.034-.02-.034-.021-.032-.023-.032-.024-.031-.025-.029-.026-.029-.028L11 17.414l-1.293 1.293-.029.028-.029.026-.031.025-.032.024-.032.023-.034.021-.034.02-.036.019-.035.017-.037.016-.037.014-.038.013-.038.011-.038.01-.039.008-.039.007-.04.005-.039.004-.04.002h-.04l-.04-.001-.039-.003-.04-.004-.039-.006-.039-.008-.039-.009-.038-.01-.038-.012-.038-.014-.036-.015-.037-.016-.035-.018-.035-.02-.034-.02-.033-.022-.032-.024-.031-.024-.031-.026-.029-.027-.028-.028-.027-.029-.026-.031-.024-.031-.024-.032-.022-.033-.02-.034-.02-.035-.018-.035-.016-.037-.015-.036-.014-.038-.012-.038-.01-.038-.009-.039-.008-.039-.006-.039-.004-.04-.003-.039-.001-.04v-.04l.002-.04.004-.039.005-.04.007-.039.008-.039.01-.038.011-.038.013-.038.014-.037.016-.037.017-.035.019-.036.02-.034.021-.034.023-.032.024-.032.025-.031.026-.029.028-.029L21 11.586l2.707 2.707zM13.707 14.293l.028.029.026.029.025.031.024.032.023.032.021.034.02.034.019.036.017.035.016.037.014.037.013.038.011.038.01.038.008.039.007.039.005.04.005.039.002.04v.04l-.001.04-.003.039-.004.04-.006.039-.008.039-.009.039-.01.038-.012.038-.014.038-.015.036-.016.037-.018.035-.02.035-.02.034-.022.033-.024.032-.024.031-.026.031-.027.029-.028.028-.029.027-.031.026-.031.024-.032.024-.033.022-.034.02-.035.02-.035.018-.037.016-.036.015-.038.014-.038.012-.038.01-.039.009-.039.008-.039.006-.04.004-.039.003-.04.001h-.04l-.09-.001-.102-.002-.102-.003-.102-.003-.102-.003-.102-.002-.102.001-.024-.001-.025-.001-.024-.001-.024-.001-.024.009-.023.008-.022.008-.023.008-.024.008-.022.008-.023.009-.022.009-.022.01-.022.01-.022.011-.021.012-.022.012-.021.014-.021.013-.021.013-.021.013-.02.015-.02.015-.02.016-.02.016-.019.017-.019.018-.023.023-1.282 1.581-.035.033-.036.032-.038.04-.04.048-.043.046-.046.043-.047.04-.051.038-.052.035-.054.037-.056.034-.058.031-.061.027-.062.023-.062.019-.064.019-.064.019-.064.017-.064.017-.062.028-.062.029-.062.03-.063.031-.062.034-.062.031-.063.037-.062.038-.062.039-.061.04-.062.04-.064.039-.066.037-.066.035-.066.034-.066.031-.067.03-.068.029-.068.027-.068.025-.068.024-.068.024-.069.024-.07.023-.07.022-.07.023-.071.021-.071.021-.072.019-.071.019-.072.017-.072.017-.072.015-.073.013-.075.011-.075.009-.075.008-.076.007-.075.006-.075.006-.075.006-.075.006-.076.004-.077.004-.077.002-.077.001-.078.001-.085v-1.967l-.007-.009-.07-.01-.06-.008-.062-.009-.062-.01-.062-.012-.061-.013-.06-.012-.06-.013-.061-.012-.06-.012-.061-.019-.06-.019-.061-.018-.059-.017-.059-.015-.058-.014-.058-.013-.057-.013-.058-.013-.058-.011-.058-.011-.059-.009-.059-.01-.059-.01-.059-.01-.058-.011-.058-.011-.059-.009-.059-.01-.059-.008-.059-.008-.059-.007-.059-.006-.06-.005-.07-.003-.071.001-.072.001-.072-.001-.072-.003-.071-.004-.072-.006-.071-.008-.072-.009-.071-.011-.071-.013-.071-.015-.07-.016-.071-.018-.069-.02-.07-.021-.069-.024-.068-.024-.068-.027-.068-.029-.067-.03-.066-.031-.066-.035-.065-.035-.065-.037-.064-.039-.062-.04-.063-.042-.061-.044-.06-.046-.059-.047-.059-.049-.057-.05-.056-.052-.051-.05-1.59-1.59-.033-.035-.032-.036-.03-.038-.028-.04-.026-.041-.024-.042-.022-.043-.02-.044-.017-.045-.016-.045-.013-.047-.011-.047-.009-.048-.006-.047-.004-.049L16 5.012l.001-.048.003-.048.005-.049.007-.047.01-.048.012-.046.015-.046.016-.046.019-.044.022-.043.023-.042.025-.041.027-.04.029-.039.031-.037.032-.036.034-.034.036-.032.037-.031.039-.029.04-.027.041-.025.043-.023.044-.021.044-.019.045-.016.047-.015.046-.012.048-.01.047-.007.049-.005.048-.003.048-.001.048.002zM29.036 4.001l.048.003.049.005.047.007.048.01.046.012.047.015.045.016.044.019.044.021.043.023.041.025.04.026.039.028.038.03.038.032.036.033.035 1.591 1.581.051.036.053.024.055.028.054.028.054.029.052.031.053.031.053.034.052.034.053.034.054.031.056.029.057.028.058.026.06.026.06.023.06.022.06.019.061.017.062.012.062.012.06.015.06.016.06.012.062.012.062.011.061.014.06.019.057.023.057.027.055.028.055.028.054.027.054.027.054.027.054.027.054.027.054.027.054.027.053.027.053.026.054.025.055.025.055.025.056.024.057.023.057.022.057.021.059.019.058.019.059.019.059.02.058.023.057.025.057.027.055.027.055.028.054.027.054.027.053.028.053.028.052.029.051.034.05.034.052.03.054.03.053.024.054.022.056.02.056.017.058.012.058.009.059.006.059.004.059.002.059-.001.059.004.059.006.059.008.058.028.057.028.056.028.055.029.055.03.055.032.055.034.053.035.052.037.053.04.055.042.058.031.06.03.06.026.061.023.062.021.062.019.062.019.062.019.063.019.062.017.063.016.064.013.064.007.066.004.065L9 36l.002-.063.007-.063.007-.062.01-.062.012-.061.018-.06.02-.058.023-.067.024-.067.028-.065.03-.062.037-.061.041-.061.044-.06.046-.059.047-.058.048-.057.047-.057.049-.056.049-.055.049-.054.049-.053.051-.052.051-.052.052-.053.054-.057.044-.06.043-.06.043-.059.046-.057.046-.056.047-.055.049-.054.05-.053.05-.052.051-.051.051-.05.053-.049.053-.04.052-.042.052-.044.051-.045.049-.046.049-.045.05-.046.05-.047.05-.049.053-.049.054-.048.054-.048.055-.048.055-.046.057-.045.057-.045.057-.045.058-.044.069-.045.068-.049.068-.048.068-.049.069-.048.069-.047.07-.046.071-.045.071-.045.072-.043.072-.042.072-.042.073-.041.074-.04.074-.041.074-.039.074-.038.075-.037.075-.036.076-.035.076-.034.077-.034.077-.032.077-.031.078-.031.078-.03.078-.028.079-.028.079-.027.08-.025.079-.025.08-.024.081-.023.081-.022.081-.021.081-.019.082-.019.081-.018.083-.017.082-.016.082-.015.083-.014.083-.013.084-.012.083-.011.084-.01.084-.009.084-.007.084-.007.084-.006.085-.005.084-.003.085-.003.085-.001.082-.001h1.164l.082.001zm/><path d="M13 20a8 6 0 0 1 0 6h-2a.5.5 0 0 0-.692-.9l-4 6.962V11.5a1.5 1.5 0 0 1 3 0 3.999a2.5 2.5 0 1 1 2 0v-1.516zM19 16.998l2.038-1.493A1.008 1.008 0 0 1 3 14.408a1.998 1.998 0 0 0 16 18v3.003z" fill="#fbc546"/><path d="M20 12.007a12 12 12 0-12A12 12v3 0 0-12 12v1a1 1 0 0 0 1 1l" fill="#bf6952"/><path d="M6.999 29a.996.996 0 0 0-.798 1.707c.013 00.015.081.014 0 5.619 0 12-6.079 12" fill="#664500"/></g></svg>
