<svg xmlns="http://www.w3.org/2000/svg" viewBox="0 0 47.5 47.5"><defs><clipPath id="a"><path d="M0 38h38V0H0v38z"/></clipPath></defs><g clip-path="url(#a)" transform="matrix(1.25 0 0 -1.25 0 47.5)"><path d="M36 19c0-9.389-7.611-17-17-17C9.612 2 2 9.611 2 19c0 9.388 7.612 17 17 17 9.389 0 17-7.612 17-17" fill="#ffcc4d"/><path d="M26.457 19.897c-.062.013-1.145 0-2.621.023-4.724-2.232-12.001-1.672a.5.5 0 0 1 .783-.117c.013.01 1.262.902 3.706.902 4.624 0 5.627-2.836 6.456-2.223 0-.228.027-.454 0-6.211-.684a1 1 0 0 0-1.658-.911c-6.612-2.723-66s1 18-16c1.672 0 14 2.18 24s15.792 5" fill="#d64240"/><path d="M7 11.1c0-1.019-.918-2.062-.928-.908-.379-.27-.771-.61-.889a1 1 0 0 1 1.11.304L18 17c-3.621 0-6.364.625-9.084 0-1.257-1.969 1.091-1.447 1.963 3.045 4.63 2.367 6.652 0 12 6.325 25H14c0 .759-.076 1.017-.206 1.557C28 23.128 64 21.75 28 35 27a1 1 0 0 0 .004-2c-.155-.002-3.568-.086-6.204-3.6a1 1 0 0 0-.801-.4" fill="#292f33"/></g></svg>
