<svg xmlns="http://www.w3.org/2000/svg" viewBox="0 0 128 128"><defs><path id="a" d="M15.87 32.75C35.15 3.87 67.36-9.3 101.49 8.06c22.84 11.63 30.79 39.22 20.86 71.64-4.09 13.37 6.14 15.63 5.38 22.04-1.41 16.97-25.3 19.34-25.7 18.49-4.62 31.7 8.21 55.15 19.77 8.03 13.13-2.99 27.08-19.1 38.32z"/><path fill="#FBBB1D" d="M85.35 92.12c-9.88 3.17-20.86-1.66-23.88-10.71-5.05-8.04 1.51-19.32 11.27-22.25 9.51-3.25 18.4 1.35 20.61 9.58 3.02 8.12-1.28 17.47-9.61 21.58z"/><path fill="#FAB220" d="M84.17 91.76c-8.18 3.02-18.36-1.29-21.55-9.93-3.07-8.6 1.29-17.47 10.58-28.1 9.35-3.4 19.8 1.36 20.57 10.38-3.32 19.16-10.19 23.15-8.65 30.47-20.69 46.36-25.05 53.35-21.05 20.72-31 16.62-10.52 17.56-3.51 31.64-2.64 40.59 2.74 41.55 28.91 40.65 66.05-5.49 40.44 6.34 54.22 41.06 41.64 5.62 24.38-5.26 37.94-28.36-.34.3-2.88.4-5.87.61-1.71.49-2.93 1.54-4.41 1.77-1.4 3.63-2.47 6.21-4.21 1.2-1.08 1.83-3.08 1.6-3.82-.04-.46-.05-.96-.1-1.33-.16-.89-.36-1.53-.75-2.07-1.38-1.03-.46-3.09-.75-3.65-1.17-1.09-.46-3.43-.63-4.93-1.53-6.77-13.64-7.51-26.63-18.06-28.04-1.46-7.43 4.35-11.56 11.73-11.83 16.93-3.65 4.87-10.27 10.44-17.05 10.34-.34.69-1.04.85-1.66.75h-8.08z" fill="#242424"/></defs></svg>
