<svg viewBox="0 0 32 32" xmlns="http://www.w3.org/2000/svg" fill-rule="evenodd" clip-rule="evenodd" stroke-linejoin="round" stroke-miterlimit="1.414"><path fill="none" d="M0 0h32v32H0z"/><circle cx="16" cy="16" r="16"/><path d="M12.976 2.328A14.017 14.017 0 0 1 16 2c5.178 0 9.704 2.817 12.125 7.002.787 3.091 1.461 5.819 1.617 9.686C28.549 24.812 23.358 29.515 17 29.965c-2.429-.528-5.812-1.221-7.889-1.777a14.045 14.045 0 0 1-6.49-8.056c.213-3.091 3.481-11.843 5.772-16.154 0-1.278-1.434-3.057-2.081-7.664-1.075-2.337.048-6.777.223-7.203.121-2.406-2.336-5-4.943-1.663-2.974-1.178-4.792-2.308-9.275-8.357a1 1 0 1 0 1.6-1.26c.021-.047.04-.651.679-1.23.278a.997.997 0 0 1-1.205-.725 1.018 1.018 0 0 1 .073-1.517 1.501 1.502 0 0 0-.547-1.213 1.01 1.01 0 0 1-1.24-.685 1.998 1.998 0 0 1 1.917.702a1.05 1.05 0 0 1-2.39 1.329 11.996 11.996 0 0 0-16.998 16h.14v-.002A1.997 11.999 0 0 1 18 10v-2z" fill="#fbc546"/><path d="M20 21.017a3.501 3.501 0 0 1 2.777-1.631A5.004 5.004 0 0 1 9 18a2.001 2.001 0 0 0 1.621-4.924A2.996 2.996 0 0 0 3 21c.184 0 4.077 5.076 6.685 0 9.655-.42 8.176-5.606 12.352-.023.045-.025.045-.037.045-.039.04-.039.04-.038.04-.036.04-.035.041-.034.043-.032.043-.03.045-.027.046-.025.047-.023.049-.02.049-.017.05-.015.051-.012.052-.01.051-.009.071-.008.072-.009.071-.009.082-.011.081-.012.083-.013.082-.014.083-.015.082-.016.083-.016.083-.015.082-.015.083-.014.083-.014.083-.013.084-.012.083-.011.084-.01.084-.009.084-.007.084-.007.084-.006.085-.005.084-.003.085-.003.085-.001.082-.001h1.164l.082.001zM12 12.5a1.503 1.503 0 0 0-1.5-1.5A1.503 1.503 0 0 0 9 12.5v2a1.503 1.503 0 0 0 1.5 1.5 1.503 1.503 0 0 0 1.5-1.5v-2z"/></svg>
