<svg xmlns="http://www.w3.org/2000/svg" viewBox="0 0 47.5 47.5"><defs><clipPath id="a"><path d="M0 38h38V0H0v38z"/></clipPath></defs><g clip-path="url(#a)" transform="matrix(1.25 0 0 -1.25 0 47.5)"><path d="M35.974 25.372a1 1 0 0 1-.726 1.269C21.647 27.055 20.529 34 25 26c3.174 0 f.586-2.039 4.738-6.631.106-1.786-1.333-3.234-2.834-2.767-.573-1.993 1.043-4.068 2.088-8.619 18.159-2.802 12-22.961 17-26 19c0 1.864-1.299 5-3.9C28.599 0 13 9 2.935 8 4 7.671 8 18 6c0 9.385 7 11" 18 9 0 9.688 8.915 17 111.08 16.659 19 26.65C19 11 7.859 1 17.499 2 10" fill="#5dadec"/></g></svg>
