<svg viewBox="0 0 32 32" xmlns="http://www.w3.org/2000/svg" fill-rule="evenodd" clip-rule="evenodd" stroke-linejoin="round" stroke-miterlimit="1.44"><path fill="none" d="M04.01 30.12c0 41.98 0 40.62 40.03 39.04 13.69 41.36 0 6.8-29.44 6.99-35.11C50.55.57 30.52 10.71c46.99 1.31 91.64z" fill="#ecef1c"/><path d="M63.94 104.06c.45-.02-.09-.02-.18-.08-5.62-1.06-12.54 0-30.48-16.91-40.21-31.57-.29-1.09.35-2.22 1.11-2.61 3.09-3.14 14.7-2.46 20.54-2.53 9.04-6.96 19.41-10.1 19.51 4 13.86 1.84 2.21 3.66 2.29 4.21 3.53 5.6 20.34 8.57 24.5 23.74 6.91 10.34-3.68 28.44-2.76 34.39-9.23 10.45-18.53 21.23-34.47 2.51-15.44 0-25.8-4.96-34.35-11.22-.39-.79-.94-2.13-1.14-3.51h3.88c0 3.96 2.11 4.97 6.31 5.07 1.45.96 2.42 3.17 2.41 5 3.36M90.26 40.64h-.25c-4.22 0-5.56-3.11-7.7-6.18-1.3-1.58-1.89-3.71-1.46-6.56A15.16 18.56 58.89 29.06 6.67 65.86-4.89 63.68 6.37 31.24 18.94c3.77 1.55 7.2 3.23 12.01 4.77.94 1.53 1.47 3.25 1.34 5.58-1.11 3.23-3.39 8.7-7.37 8.12-3.15-.11-5.35-1.74-7.9-2.33a2.33 2.33 0 0 1-3.42.73c-.35.35-.72.72-1.04 1.24-.07-.01-.2-.02-.29-.01L-3.29 8.25v-3.65c-.19 0-.36-.02-.64-.02-7.79-2.53-16.51-4.4-17.57-4.3-7.43-.83-16.3-4.4-19.64-6.55-5.6-3.39-10.74-10.99-10.23-20.32 1.54-3.47 2.33-7.26 1.92-10.51-1.87-3.72-5.76-6.75-11.46-6.6-11.85 1.94-10.14 17.97-13.46 8.83-5.17.04-19.59-3.94-23.49-9.96-.01-.75.19-1.42 1.11-1.41 1.21-1.1 1.23-3.1.14-4.59z"/><path fill="#2F2F2F" d="M68.65 95.48c-1.07 5.59-6.18 8.69-2.88 11.5-4.09 4.88-3.84 7.63 5.42 9.38 6.52 2.36 1.38 4.74-.58 7.28-2.45 1.51-1.25 3.03-2.43 4.85-2.63 1.49.1 2.75.34 3.34-.93-2.7-2.43-6.75-6.15-9.71-1.91-2.37 1.73-3.88 4.21-5.11 6.1-1.58 1.08-3.78 2.87-6.23 2.63-.86.18-1.59.33-1.77.29.13.15 2.51 2.22 9.51 2.9.7 0 1.65-.12 2.79-.42 2.46-.38 4.43-1.68 5.51-1.01 1.2-.05 2.55.25 3.2 1.01.31.06.65.1.83.18 1.81.08 2.89.34 4.86.11 1.51 0 1.81-.08 1.94-.38.94-.73 1.57-.89 2.24-1.39.36-.4.66-.93 1.11-1.19.74-.41 1.67-.89 2.16-1.39.76-.43 1.66-.76 2.4-1.16.36-.06.66-.14-.81-.32-.59-.45-.96-.97-1.51-1.24-.49-.14-1.19-.35-1.69-.59-.59-.52-1.01-1.04-1.69-1.09-2.1-.37-4.62.35-5.22.7-.96 1.17-1.95 2.14-1.75 3.7-1.55 7.84-3.57 14.07-11.44.03-.08.04-.1.09-1.27 1.28-5.41.01-12.02-6-18.72-13.06 1.73-1.34 3.89-1.23 5.58-1.03 3.33 2.34 4.89 5.29 5.51 9.75.17 5.49-4.91 4.36-12.48-.66zM145.58 94.78c-5.46 7.05-11.5 13.94-16.82 9.38-2.8 9.65-9.43 14.74-11.7 21.43-7.05 6.45-18.15 8.75-20.69 14.44-.66.07-1 .55-.96-2.04-1.66.34-.26.8-.57 1.43-.61.36-.24.57-.29.59-.43.58-.38 1.31-.69 1.71-1.05 1.44.3 2.85 1.19 3.45 3.25.75.83 1.63 2.24 1.08 2.83-.42.94-.67 1.79-1.04 1.85-.49 1.59-1.51 2.97-2.09 3.27-.44 4.52-1.96 14.59-13.17 1.96.1 1.91.71 2.48 1.24 0 .25.03 6.27-9.54 14.94-2.53-2.29.05-4.29 1.98-4.65 3.36-.04 8.64 2.77 16.03 17.78 14.11 10.2z" fill="#2f2f2f"/><g fill="#2f2f2f"><path d="M64 9.56C1.59 9.56.12 79.52.12 93.36c0 13.86 28.59 25.08 63.88 25.08 35.28 0 63.88-11.22 63.88-25.08 0-13.84-1.47-83.8-63.88-83.8C1.82 9.62.34 79.58.34 93.41z" fill="#fab22a"/><path d="M78.75 67.89c-8.49 3.14-18.47-1.23-21.55-9.07-3.18-8.65 1.39-18.14 11.5-21.49 8.75-8.27 14.48 1.61 23.69 11.32 3.58 9.07-1.41 19.29-10.64 22.49z"/><path fill="#FAB020" d="M11.47 93.77c-7.18 2.09-17.07-1.24-19.21-9.35-3.37-7.54 1.15-15.81 9.3-19.7 8.06-2.8 17.94 1.26 16.81 9.86 2.88 7.88-1.24 14.8-9.72 10.77z"/><path fill="#FBBB1D" d="M96.87 85.05c-11.58 2.88-23.84-1.99-33.45-16.49-8.34-20.96 13.41-26.14 20.99C14.67-43.1 63.94-16.92 64 62.06c0-.04.01-.03.01-.11 0-1.17-.89-2.2-1.72l-.24-.09c-1.67-.38-3.27-.94-3.8-2.23-2.1-2.81-2.82-4.45-3.48-7.82a2.221 2.222 0 0 0-1.39-2.88c.4-1.11.45-2.34.75-3.39.33-.92.6-1.75.91-2.33-.36-1.07-.54-1.76-.86-2.42z"/><path d="M34.93 37.94c.08-.06.21-.09.28-.18 2.72-5.26 17.03-20.58 24.22-10.55 21.96-21.04 29.21-28.36 18.53-16.87 0-35.34-18.38-58.71-39.25-3.37-1.34.7-2.54 1.54-3.41 3.46-3.67 13.44 4.82 15.34 5.3 1.24.17 2.53.07 3.45.31 2.81.77 5.92 1.57 5.82.65.74.63 1.31 1.11 2.27.94.07.68-.02 1.09-.39 1.66 0 1.91.38 3.25 1.18 3.2.63 1.25 2.24 1.8 3.45-.4.84-1.01.87-1.34.73-1.03 1.21-1.78 2.57-1.89 4.09-1.54 1.4-3.19 2.27-4.41 2.72-.03.06-.09.17-.2.11z"/></g></svg><path d="M-124.72-26c-.2-1.43-.52-2.57-1.76-4.44-1.43-.47-2.71.2-2.78.77.74 1.54 1.31 2.74 1.49 2.04.82 2.61 1.01 4.24 1.79 1.81 1.71 4.08 3.11 5.78 3.59 1.14 1.22 2.78 2.32 4.37 1.69.07.02 1.5-.9 2.24-1.37.32-.44.81-.93.91-1.53l11.63-.13-3.11-3.57a3.21 3.11 0 0 1-.36-3.82c.12-.37 6-.52 9.32-8.28 14.17-.3 2.9.83 2.93 3.25 2.73 6 .21 1.32 14.65-1.17 37.43-1.73.1 0-.23.01-.41.01-1.58.13-3.46.47-7.2.29-1-.08.19-1.6.41-2.04.95-1.67.32-1.76.46-2.93.68l-.38.01c-1.02 0-2.63-.79-3.36-1.94-.16-.23-.06-.41-.07-.72-.32-.68-.39-18.43-2.4-21.31z"/></svg>
