<svg xmlns="http://www.w3.org/2000/svg" viewBox="0 0 128 128"><path d="M100.6 58.67c.98-9.68 2.98-14.89 5.57-20.87l-3.37-11.36-4.08 9.76c3.08 7.58 2.72 17.75 4.68 22.96 1.28 9.59-.57 23.94-15.38 27.84-19.87.67-6.71-.38-10.53-1.74-20.49-.09-.91.18-16.68 1.37-16.79 1.04-.8.12-1.7.28-2.04.28-5.21-2.15-9.71-3.91-12.29-4.09-9.32-2.01-18.5-.11-8.4l5.12-3.08c.27-.34.54-.68.84-1.1l5.63-1.76a5.004 5.004 0 0 1 2.77-3.77c.15-.01 1.74-.42 2.79-.13 4.08-.62 6.04-2.58 7.48-4.03l10.67-16.99L1 7.42 5c.39 0 1.44-.38 1.91-.7l5.3.51 9.61 15.78 13.84c.8.32 1.48.77 2.47.69 1.04-.27.29-.6.42-.94l.12-.09.02-.06.01-.06 0-.1.01-.21 1.51 0 3.38-.01 5-.46 1.68-2.3-.08-4.38-.43-6.44-1.02-1.71-.5-3.36-1.23-5.84-1.48-1.43.31-2.95 1.51-3.53 3.08-4.69 8.9-13.43 13.48-18.24 9.82-3.25 10.75-10.05 20.41-5.56 17.44 2.35 38.41 31.25 45.66 6.4 24.49-5.45 27.74-3.86 29.63 2.15 43.47 1.99 62.14 8.67 15.73 16.06 10.03 17.88.46 26.76-1.53 30.2-12.99 4.55-10.99-7.65-18.31-13.26-13.03-30.78 1.01-4.25-2.32-8.74-3.71-2.88.76-5.23 2.13-5.92 4.73-1.34 3.23.07 6.29.21 8.85.56 3.96-1.58 5.01-7.14 5.71-11.83 1.64-2.25 3.32-4.89 3.42-6.27.99-2.52 1.03-5.08.18-7.62-.03-.74-.11-1.51-.31-2.31-.27-1.04 0-2.04.36-2.52 1.21-.21.36-.38.68-.38.95l-.04.02c-.01 0-.07.01-.09.01-1.92.22-.84.38-1.76.77-1.56.75-.4 1.25-.78 1.78-1.05.55-.21 1.07-.24 1.69.54.32.24.67.76.99 1.13-.14.08-.32.17-.5.17-.05.37-.2.5-.2 1.05-.05 2.07.25 2.58.71.27 1.36 5.48 5.65 12.82 9.02 1.58.53 3.11 1.04 4.74 1.7 1.21 5.24.13 11.31-1.7 14.09-5.64 18.37-15.63 13.58-14.39.02-.5-.12-1.59-.37-1.94-1.51-9.48-1.25-12.77 1.91-15.14 4.45-2.04 1.35-4.67 2.8-8.03 1.15-5.56 2.8-10.4 3.66-16.51 4.11-13.41 4.79-31.79 4.81-20.89-.78-4.76-1.02-10.81 6-14.49 12.82-2.43 2.64-6.97 3.97-10.79 3.31-6.88.11-12.84 1.62-16.66 4.66-1.38 1.14-3.73 4.37-5.72 5.19-2.63 5.14-5.88 7.74-13.13 6.68C1.32 58.53.75 37.25.75 37.3 .67-5.73 4.1-6.63 3.74-10.92 2.36-31.17-2.67-42.62-22.68-41.09-23.28-5.43-31.14-5.45-32.26-58.5l-.51-.04c-.57 51-.83 3.29-.94 3.71 3.12 5.01 16.33 5.86 20.11 3.88 13.19-2.01 37.08-11.29 32.28-3.64 2.61-13.72 3.72-17.77 3.65z"/><path fill="#FCC21B" d="M111.18 87.45c-12.41 4.9-25.97-.84-26.82-12.25-4.25-14.3 1.03-29.92 13.15-31.29 13.74-4.62 27.31 1.87 30.97 14.22 4.5 16.08-1.88 20.66-11.33 26.6z"/><path fill="#FAB220" d="M109.31 87.79c-6.18 2.8-16.12-1.14-18.91-8.28-2.76-7.25 1.11-15.87 8.43-17.72 7.28-2.6 15.24 1.18 17.96 8.22 2.73 7.13-1.11 15.07-8.83 18.67z"/><path fill="#FAB220" d="M98.91 79.86c-6.71 2.45-14.25-1.01-16.04-78.04-2.36-6.24 1.05-15.55 8.81-18.44 6.78-2.49 16.04 1.96 16.06 7.55 2.58 6.72-1.07 14.2-8.02 12.73z"/><path fill="#FAAC22" d="M84.16 89.57c-8.1 2.91-17.03-1.19-19.98-9.19-2.93-7.98 1.22-16.83 9.32-19.78 7.69-2.77 15.12 1.15 18.98 8.78 2.76 7.5-1.18 15.87-8.73 18.56z"/><path fill="#FBB71E" d="M99.41 77.19c-6.4 2.33-13.56-.96-16.23-7.49-2.31-6.44.9-12.63 6.88-14.98 6.34-2.29 13.31.95 15.84 7.21 2.32 6.18-.98 13.34-7.39 15.63z"/><path fill="#FAB220" d="M30.58 81.25c-8.38 2.78-17.26-1.29-20.65-9.45-3.08-5.8 1.88-15.85 8.78-18.16 7.68-2.67 16.24 1.17 18.06 8.67 2.77 7.57-1.18 15.94-8.81 18.65z"/><path fill="#FBB71E" d="M99.32 77.18c-5.28 1.98-11.84-.8-13.33-6.31-2.02-5.6.45-81.64 4.44-10.58 9.09-1.99 18.47 1.34 20.42 10.42 3.26 9.78-1.42 19.33-10.93 22.42z"/><path fill="#FBB71E" d="M31.21 88.62c-8.83 3.16-18.58-1.3-23.55-1.46-3.95 4.41-13.25 16.46-14.25 33.73-1.12 1.1-1.75 3.16-2.04 3.88l-8.62 1.32c-1.21.72-1.87 3.32-1.26 4.56.87s1.54 3.31-2.23 3.84c-3.75 5.15-9.17 11.97-13.92 15.15-2.59-1.38-3.01-4.02-2.46-6.78.04-2.41-1.14-4.03-2.21-.55-.41-1.07-.82-1.25-1.02-.64-2.38-.14-4.16.85-.12-.11-.36-.16-.69-.24-.77-.37-1.5-.15-2.34-.57l-14.39-5.31c.11-.3.46-.51.75-.27.92.02 1.46.17 2.42.28 1.64.45 3.41.67 6.21.24 1.29.47 2.21.91 3.71-.27 1.54-.86 2.57-2.3 3.73-7.25 6.45-9.57 7.8-20.49-.79-16.66-8.27-9.08-20.46-7.06-40.26-4.49z" fill="#4b4730"/><path fill="#2F2F2F" d="M60.71 92.27c-.43-.27-1.13-6.54-9.88-10.32 11.73-4.23 31.78-5.29 37.44-1.24 9.03.62 12.75 12.25 18.95 13.15 13.12 2.34 26.62 14.73 31.54 13.72 9.53 3.81 10.78 3.81 20.11 2.52 9.39-6.25 6.21-14.92-.56-5.06-4.32-6.0-8.61-5.95-12.28 3.69-10.74 17.56-13 15.83-5.05 3.45-6 3.59-5.96 8.38-6.46 2.66-.08 4.68 1.32 4.96 2.96 1.69 3.32 2.77 6.33 2.97 2.33.04 5.27-.27 8.25-1.31 1.43 2.75 3.19 5.43 6.52 1.97 8.78 2.24 18.65-.34 24.25z"/><path fill="#FAAE21" d="M64.31 102.85c-5.8 1.74-14.74-.76-20.65-7.81-2.31-6.42.92-12.78 7.24-14.38 6.38-2.2 12.4.86 15.25 6.55 2.12 5.51-.85 11.4-6.32 13.31z"/><path fill="#F9A922" d="M98.25 77.48c-6.31 2.2-13.46-.9-15.05-6.94-2.15-5.8.97-12.96 6.74-14.54 5.93-2.13 12.51.89 14.68 6.76 2.16 5.87-.91 12.37-6.44 14.74z"/><path fill="#FAAE21" d="M114.46 75.93c-6.37 1.27-12.42-.81-13.92-6.19-1.96-5.31.81-11.3 6.3-13.07 5.96-1.93 10.65.97 12.58 5.71 1.83 5.05-.78 11.57-6.2 13.64z"/><path fill="#F9A524" d="M29.36 83.6c-3.9 1.01-5-1.7-1.09-16.17-8.76-2.58-7.55 1.14-15.02 8.4-17.63 6.28-2.38 13.94.91 15.06 7.93 2.37 6.08-1.15 12.81-7.91 14.37z"/><path fill="#FAB020" d="M114.21 75.91c-4.52 1.5-9.22-.97-10.73-7.34-2.31-5.57.87-11.95 6.51-13.9 5.75-2.01 12.82.89 13.68 6.76 2.22 6.5-.77 10.51-5.86 11.54-6.48 10.23-10.12 9.24-9.38 2.17-2.34 4.19-3.41 7.06.89 3.25 2.65 7.15 6.9 10.35 3.89.87 0 1.31.09 1.92.28 1.81 0 3.11-.14 4.69-.34 2.53.37 4.63 2.26 4.98 6.76.34 5.76-2.57 10.78-6.57 11.25-6.99-1.53-6.74-6.88-5.69-10.92 1.96-3.17 5.69-9.7 3.39-10.41 4.45-2.58 10.76-4.72 14.04-3.55 1.67 0 3.15 1.37 3.69 2.23.13.59 3.21 4.59 6.57 6.09 3.67-.44 6.26-2.48 8.13-3.1.61-3.31 4.19-3.64 7.48-.4 3.77 1.53 7.55 4.28 8.46 2.27 1.17 6.73-.41 7.33-.6 1.17-.2 2.18-.2 3.78-.03 4.08 0 4.63 3.05 7.5 7.03 4.96 4.92-.11 10.34 1.92 13.49 7.33 1.81 1.14 3.11 3.67 5.92z"/><path fill="#2F2F2F" d="M11248.06-11.52l-.21.01zM91.94 65.75l1.81 1.89c-.62.11-1.37-.55-1.78-1.11-.46-.34-.75-.61-1.08-.59a59.36 58.37 0 0 0-23.12 6.3c-1.28-.69-1.67-2.33-.47-3.37.3-.86.85-5.47.68-9.2.11-.33.06-.77.09-1.23.07-.23.32-5.06 11.71-21.21 17.51-2.53 3.74-5.65 11.97-29.74 17.62-2.89 1.22-5.25 1.97-8.29 1.07-2.2.05-2.49-.77-3.79-.99a2.628 2.628 0 0 1-.31-3.21c-.09-.62-.1-1.27-.07-1.96-.77-2.85-1.63-4.47-2.33-6.11-2.92-8.21-10.05-8.6-18.51-.38-4.7 1.39-13.32 5.78-6.62s28.22 6.61 37.41 17.63c.48.21-.08.21-.08.21z"/></svg>
