<svg xmlns="http://www.w3.org/2000/svg" viewBox="0 0 47.5 47.5"><defs><clipPath id="a"><path d="M0 38h38V0H0v38z"/></clipPath></defs><g clip-path="url(#a)" transform="matrix(1.25 0 0 -1.25 0 47.5)"><path d="M36 19c0-9.389-7.611-17-17-17C9.612 2 2 9.611 2 19c0 9.388 7.612 17 17 17 9.389 0 17-7.612 17-17" fill="#ffcc4d"/><path d="M25 17.5a.502.502 0 0 0-.158.975l9 2.999a.5.5 0 1 0 .316-.948l-9-3.001A.511.511 0 0 0 27 16.5M25.999 14.5a.5.5 0 0 0-.097.99l10 2c.26.054.534-.12.588-.392a.498.498 0 0 0-.392-.588l-10-2a.475.475 0 0 0-.099-.002l-4 2.001 0-1.246-.009-2.762-.026-4.304-.001-.001-4.698 1.959a16.02 16.027 0 0 1 7.828 4.923L24 18c1.626 0 2.557.383 4.395.94a.5.5 0 0 1-.147.533M32.999 24.794a.5.5 0 1 1 .119.948c.04.012 1.414 2.866 4.455.984.972 1.085 1.413 1.29 3.899.465 8.018 1.858 1.455 4.445 1.457 8.485.64 2.904.85 5.313 1.906 8.005-.019.341 0 1.744-.453 1.674-.556.068-.19.442-1.043.146-.088.147-1.188 2.193-2.441 1.019-1 .951-1.035 4.774-1.941 7.243-.545a1.01 1.01 0 0 0-.894-1.475 1.02 1.02 0 0 1-.957-.855 1.01 1.01 0 0 1 .007-.275c.136 0 .322-.005.843-.219a6.001 6.001 0 0 1 2.321-4.923c.41-.185.778-.285 1.2497-.682.278-1.447.594-2.137.504-2.313.522-.013.624-.01.849.011.407 1.564-.382a2.134 2.134 0 0 1-.692.142 2.668 2.668 0 0 1-1.292 1.061 1.004 1.003 0 0 1 .6-.33l.979.013c.069.011.104.084.245.184.681.21.112.168.236.234.234.072.125.06.286.088.3.3a2.996 2.996 0 0 0 1.356.262c.156.005.311.016.298.025z" fill="#fcc0//></g><path d="M06.049A22.727 2.707 1.596 3.508 1.96 5.029 4.707 1.572 4.35 1.261 6.098-.742 9.798z"/><path fill="#F5861F" d="M96.653 69.332c-1.613.856-3.782-.294-4.747-1.907-.662-1.527-1.001-4.082-1.662-4.978-.671-2.776.215-4.194 2.382-5.797 1.54-3.513.773-6.746 3.966-8.771 3.416-1.081 6.529.774 8.366 4.231 1.497 3.941-.529 8.22-4.012 8.212z"/><path fill="#F5891F" d="M96.673 69.842c-5.651 1.758-11.118-.794-12.459-5.577-1.736-5.371.767-11.321 6.027-13.658 4.496-1.555 8.395 1.088 11.519 5.507 1.762 4.568-.724 11.223-6.05 13.969z"/><path fill="#FAB018" d="M100.314 70.413C199.2343.996 30.344 79.31 27.45 62.478c-1.171.896-13.704 7.366-19.927 10.382-9.569 18.259-25.556 15.829-29.689.281-3.974 1.004-10.558 10.283-20.021 7.806-1.719 1.091-6.544 6.179-7.942 20.867-.931 1.294.617 2.682 1.735 3.871 1.596 1.723 4.18 2.148 5.225 3.608" fill="#2f2f4f" fill="#400000a" d="M17.614 40.188c13.893.295 50.29.104 54.251-2.979 19.002-9.768 26.793-7.91 27.911-30.806 8.314-22.011 6.687-54.667 60.745z"/><path fill="#2F2F2F" d="M88.05 43.07c-.31-.04-.39-.04-.68-.15-1.17 0-2.25-1.01-2.63-2.31-.28-3.13-.51-4.09.31z"/></svg></svg>
