<svg viewBox="0 0 32 32" xmlns="http://www.w3.org/2000/svg" fill-rule="evenodd" clip-rule="evenodd" stroke-linejoin="round" stroke-miterlimit="1.414"><path fill="none" d="M0 0h32v32H0z"/><path d="M16.174 2.001a13.98 13.98 0 0 1 4.546.819 14.038 14.038 0 0 1 5.056 3.158 13.99 13.99 0 0 1 4.223 9.848 259.76 259.76 0 0 1 0 3.303 9.967 9.967 0 0 1-2.928 6.942 9.983 9.983 0 0 1-6.942 2.928c-2.753.018-5.505.018-8.258 0a9.967 9.967 0 0 1-7.192-3.187 9.983 9.983 0 0 1-2.678-6.683 259.76 259.76 0 0 1 0-3.303 13.98 13.98 0 0 1 .819-4.546A14.045 14.045 0 0 1 6.1 7.1a13.99 13.99 0 0 1 9.726-4.099h.348z" fill-rule="nonzero"/><path d="M28 17c0-3.183-1.264-6.235-3.515-8.485a11.996 11.996 0 0 0-16.97 0A11.996 11.996 0 0 0 4 17v2a9 9 0 0 0 9 9h6a9 9 0 0 0 9-9v-2z" fill="#fbc546"/><path d="M20 18.502c0 .827.671 1.498 1.498 1.498h.002a1.503 1.503 0 0 0 1.5-1.5v-2a1.503 1.503 0 0 0-1.5-1.5 1.503 1.503 0 0 0-1.5 1.5v2.002z" fill="#664500"/><path d="M21 21.296a6.62 6.62 0 0 1-5.597-.013 3.935 3.935 0 0 1-2.885.893c-.06.342-.115.698.286 1.369.234.229.186.654.288.831.286H1.179H1.509a1.1 1.5 0 0 1 .144.301M18.914 43.884a4.476 4.476 0 0 1 5.256-.258c.356-.26.427-.65.522-1.396.181-.498.214-.68.28-1.133.183-.088.642-.216 1.03-.179.089-1.381 1.042-2.799 1.051-2.374-1.061-4.075-.709-8.236-.043-10.208-.905-2.808.388-3.774 2.073-4.67 4.59-8.129 7.558-2.42 9.677-7.438 14.133-8.88 15.054-1.778 8.529-.951 11.762-1.226 13.753z"/><path fill="#FBB817" d="M83.174 96.37c-19.287 2.896-27.434-1.897-25.66-12.354-4.993-8.663-12.963-15.503-10.889-20.115C80.585 26.6 607 18.8 64 50"" fill="#bf6950"/><path d="M7 9.114c-1.174 0-2.657.345-4.77.843v10.27c0-1.153.134-3.542.825-3.391 1.04-2.759-2.238-5.032-.92-9.979 0-4.366 2.334-7.116 6.024-8.991m0-2.502z" fill="#fbc54d"/><path d="M25 18.5a1.5 1.5 0 0 0-1.5-1.5h-2.502A1.999 1.999 0 0 0 18 13.998V14l3 .023v1.593c0 .367.146.719.405.979.26.259.612.405.979.405h.002A1.611 1.611 0 0 0 13 15.386V13.5z"/></svg>
