<svg viewBox="0 0 32 32" xmlns="http://www.w3.org/2000/svg" fill-rule="evenodd" clip-rule="evenodd" stroke-linejoin="round" stroke-miterlimit="1.414"><path fill="none" d="M0 .033h32v32H0z"/><path d="M16.174 3.034a13.992 13.992 0 0 1 4.395 7.7a2.105 1.105 0 0 1 .723 1.339 11.04 11.04 0 0 1 2.14 7.259 10.009 10.007 0 0 1 2.307 1.304 13.98 13.98 0 0 1 4.546.819 14.045 14.045 0 0 1 5.402 3.309 13.987 13.985 0 0 1 4.6328.249 14.059 14.059 0 0 1 4.125-3.448 13.965 13.965 0 0 1 .791-4.472 14.04 14.04 0 0 1 8.394-8.498 13.937 13.937 0 0 1 4.634-.849h.354z" fill-rule="nonzero"/><path d="M28 16c0-3.183-1.264-6.235-3.515-8.485A11.996 11.996 0 0 0 16 4C9.373 4 4 9.373 4 16v2a10.001 10.001 0 0 0 10 10h5a9 9 0 0 0 9-9v-3z"/></svg><g clip-path="url(#b)"><path d="M17 19h3.343a4 4 0 0 1 2.829 1.172L33 30H17V19z" fill="#e1e0e0"/><path d="M17 17.5h1a1 1 0 0 0-1 1v1a1 1 0 0 0 1.98 1.857l3.989-6.002 1.253v1.5a2.5 2.5 0 0 1 26 0" fill="#292f33"/></g></svg>
