<svg xmlns="http://www.w3.org/2000/svg" viewBox="0 0 47.5 47.5"><defs><clipPath id="a"><path d="M0 38h38V0H0v38z"/></clipPath></defs><g clip-path="url(#a)" transform="matrix(1.25 0 0 -1.25 0 47.5)"><path d="M36 19c0-9.389-7.611-17-17-17S2 9.611 2 19s7.611 17 17 17 17-7.611 17-17" fill="#ffcc4d"/><path d="M21.001 10.942l-.075.436M14.332 45.46a.5.5 0 0 1-.557.074c-.014.065-2.062 2.347-4.136 3.14-3.527 0-5.03-7.209-5.425-58.325a4.449 4.449 0 0 0-.447-.313 7.012 6.032 0 0 1-1.504-1.189 15.024 16.024 0 0 1 2.96-3.119 6.027 6.027 0 0 1 2.681-1.01c.136.007.207.005.578.005l1.178.003zM13.707 11.2a1.09 1.09 0 0 1 .299-.065c.15-.012.177-.005.317"-.001a5.012 6.012 0 0 1 0 1.672.182h2.46l.906 1.503z" fill="#e59a10"/></g><path d="M12.58 24.581l1.408-1.982c.134-.488.173-.771.171-1.057a4.007 4.007 0 0 1-3.078 3.743 4.989 4.999 0 0 1-3.325 3.243 6.693 6.893 0 0 1-3.819-.652 4.676 4.677 0 0 1 .491-1.431z" fill="#b89970"/><path d="M32.999 23.697c-.062.016-.015.018-.018.015-.027.041-.07.041-.081.04-.089.013-.098.021-.098.015.097.016.095.019.094.021.094.025.093.026.094.028.093.03.095.024.087.012.087.006.088.007.087.009.087.012.086.012.086.012.086.014.085.014.084.014.083.017.083.019.082.02.083.02.085.02.084.01.085.009.085.008.084.007.084.007.084.006.084.006.084.005.084.008.084.009.084.01.083.01.085.009.084.008.084.008.084.008.084.009.083.01.084.012.083.013.083.014.082.015.082.016.083.017.081.018.082.019.081.019.081.021.081.022.081.023.08.024.079.025.08.025.079.027.079.028.078.028.078.03.078.031.077.031.077.032.077.034.076.034.076.035.075.036.075.037.074.038.074.039.074.04.073.04.072.042.072.042.072.042.072.043.071.045.071.045.07.046.069.048.069.048.068.049.068.049.068.051.066.051.067.052.065.053.065.054.064.055.064.055.063.057.063.057.061.058.062.059.05.059.05.058.049.06.097.068.097.068.097.067.098.064.098.062.09.051.1.171.116.171.116.171.115.172.118.162.118.112.118.111.119.095.181.124.181.134.14.134.136.132.138.138.333.133.844.184.135.093.136.046.126.04.114.048.114.046.116.044.117.041.117.049.117.048.117.048.116.048.116.047.117.044.118.041.117.04.117.037.116.04.11.049.108.047.107.044.108.041.109.058.11.059.111.06.111.062.11.064.11.067.11.069.11.067.11.068.103.068.103.066.104.064.106.062.106.061.107.069.107.068.107.064.106.065.106.058.108.057.108.055.107.053.107.051.106.05.106.068.11.067.11.067.11.067.11.062.103.06.102.007.102.007.102.005.104.003.102.002.103.001h.035l.025.001zM12.053 14l.002.052.004.051.007.052.007.051.009.052.012.051.014.05.016.049.017.049.02.047.023.046.025.045.027.043.03.041.032.04.034.038.036.036.038.034.04.032.041.03.043.027.045.025.046.023.047.02.049.017.049.015.05.012.051.01.052.007.051.004.053L14 24l-.012.052-.014.053-.019.053-.022.054-.025.053-.028.053-.03.041-.032.04-.032.039-.034.04-.034.041-.035.041-.036.041-.035.038-.035.038-.036.038-.037.038-.037.038-.037.039-.037.04-.038.04-.039.04-.041.039-.043.037-.044.035-.045.032-.047.031-.048.028-.05.026-.051.023-.053.02-.053.017-.054.014-.055.011-.056.008-.056.004L12 25l-.056-.002-.056-.004-.056-.008-.055-.011-.054-.014-.053-.017-.053-.02-.051-.023-.05-.026-.048-.028-.047-.031-.044-.034-.043-.036-.041-.039-.04-.031-.04-.031-.041-.03-.041-.029-.043-.021-.044-.019-.044-.016-.045-.016-.044-.018-.044-.021-.044-.022-.043-.024-.042-.025-.041-.027-.04-.027-.039-.028-.039-.03-.038-.03-.038-.031-.037-.032-.035-.032-.036-.033-.034-.033-.03-.035-.031-.035-.03-.035-.03-.032-.031-.033-.031-.032-.031-.032-.031-.031-.032-.031-.033-.031-.033-.031-.033-.031-.033-.031-.033-.031-.033-.031-.033-.031-.033-.031-.032-5.832-2.934-.035-.051-.037-.049-.038-.047-.038-.047-.036-.048-.036-.048-.036-.048-.035-.048-.034-.049-.034-.049-.034-.05-.032-.05-.032-.05-.032-.051-.03-.051-.03-.051-.03-.051-.029-.053-.028-.052-.027-.053-.027-.053-.027-.053-.025-.053-.025-.054-.024-.055-.024-.054-.023-.055-.022-.055-.022-.055-.021-.056-.02-.055-.02-.056-.018-.057-.019-.056-.017-.057.016-.057.015-.058.014-.058.011-.058.011-.059.009-.058.008-.059.006-.059.005-.058.004-.059.002h-.118l-.059-.002-.059-.004-.058-.005-.059-.006-.058-.008-.059-.009-.058-.011-.058-.011-.058-.014-.057-.015-.057-.016-.057-.017-.057-.019-.056-.021-.056-.022-.055-.023-.055-.025-.054-.026-.054-.027-.054-.029-.052-.031-.053-.031-.051-.034-.051-.034-.05-.036-.049-.039-.047-.04-.046-.043-.043-.046-.039-.047-.037-.051-.035-.053-.03-.053-.029-.054-.028-.055-.028-.056-.025-.057-.022-.057-.021-.057-.018-.059-.018-.06-.018-.059-.017-.059-.015-.057-.015-.058-.014-.057-.013-.058-.013-.059-.012-.059-.01-.158-.018-.158-.017-.137-.016-.138-.013-.138-.013-.138-.01-.14-.009-.131-.011-.13-.013-.122-.014-.122-.017-.121-.019-.121-.023-.12-.023-.12-.025-.12-.027-.12-.029-.121-.031-.119-.032-.119-.033-.119-.034-.118-.036-.117-.037-.117-.039-.116-.04-.115-.042-.115-.042-.114-.045-.113-.045-.113-.047-.112-.048-.111-.05-.111-.05-.11-.048-.112-.045-.114-.043-.114-.042-.115-.04-.116-.039-.116-.037-.117-.036-.118-.037-.118-.034-.118-.031-.118-.029-.118-.027-.12-.027-.12-.024-.12-.023-.12-.023-.12-.029-.121-.031-.119-.033-.119-.035-.118-.037-.116-.04-.116-.039-.117-.039-.117-.039-.115-.04-.114-.042-.113-.045-.112-.048-.11-.051-.11-.053-.109-.056-.108-.057-.107-.057-.107-.055-.107-.053-.11-.051-.11-.049-.111-.047-.113-.046-.114-.044-.114-.042-.115-.04-.116-.039-.117-.037-.117-.036-.118-.039-.116-.04-.109-.042-.1-.043-.109-.044-.108-.044-.107-.045-.107-.048-.109-.041-.118-.042-.116-.044-.115-.045-.114-.045-.113-.047-.112-.058-.108-.065-.098-.064-.098-.063-.099-.062-.09-.062-.1-.071-.079-.07-.078-.072-.077-.073-.077-.075-.077-.075-.077-.074-.078-.074-.079-.071-.079-.072-.098-.072-.097-.074-.097-.075-.097-.075-.097-.076-.097-.075-.099-.074-.099-.071-.099-.079-.101-.077-.104-.075-.103-.073-.173-.077-.188-.075-.182-.072-.182-.07-.189-.059-.179-.053-.162-.053-.171-.068-.127-.068-.127-.069-.128-.062-.127-.063-.129-.063-.129-.062-.129-.059-.129-.057-.128-.053-.126-.05-.124-.049-.125-.045-.125-.047-.125-.058-.12-.058-.103-.056-.105-.055-.108-.053-.11-.05-.11-.053-.11-.054-.118-.053-.117-.053-.11-.054-.108-.055-.107-.055-.107-.055-.108-.052-.11-.051-.11-.042-.111-.043-.111-.041-.112-.04-.11-.048-.119-.047-.119-.045-.118-.042-.117-.041-.117-.039-.116-.04-.11-.041-.11-.042-.11-.043-.11-.044-.118-.046-.118-.037-.118-.034-.117-.033-.116-.033-.116-.035-.115-.035-.117-.033-.118-.032-.119-.031-.118-.029-.119-.029-.119-.03-.12-.008-.125-.014-.127-.015-.127-.019-.126-.02-.127-.023-.126-.025-.125-.027-.125-.029-.115-.031-.115-.034-.115-.033-.115-.038-.116-.041-.115-.042-.115-.042-.115-.042-.115-.045-.115-.045-.113-.045-.113-.045-.113-.045-.113-.045-.113-.045-.113-.045-.113-.047-.112-.045-.111-.047-.11-.049-.109-.051-.107-.054-.106-.054-.105-.053-.104-.054-.104-.056-.103-.056-.103-.056-.102-.055-.101-.056-.108-.056-.106-.057-.104-.059-.102L29 2.017l.063.004.062.009.062.012.061.016.06.02.06.023.068.024.068.027.067.039.065.042.065.041.062.042.062.04.063.038.063.037.064.037.065.036.067.035.067.031.067.031.065.029.065.029.065.038.066.037.066.037.067.037.068.035.068.035.068.034.069.033.06.031.062.028.063.023.065.021.067.016.067.012.067.007L11 23H9a.997.993 0 0 0-.592.188v-2.892zM12.042 18.001l.019.012.018.022.118.017.117.018.117.022.118.025.117.027.118.025.117.022.118.021.118.019.119.027.119.015.121.013.122.013.122.014.122.015.121.014.122.013.121.012.122.014.122.016.122.017.122.018.123.016.122.016.122.016.122.016.122.017.122.018.123.019.122.02.123.012.123.015.122.018.121.017.122.016.122.014.124.012.122.01.123.012.122.014.122.017.122.018.122.016.122.014.122.013.121.012.122.014.121.013.121.012.122.011.121.012.122.014.122.017.122.017.122.017.122.017.122.016.122.013.122.014.122.016.122.017.122.018.123.019.122.021.123.023.123.025.124.026.123.026.123.029.123.031.131.033.112.033.111.032.111.038.111.039.111.039.102.038.013.037.015.037.016.037.017.035.019.034.02.034.022.032.023.032.025.03.025.029.027.028.028.027.029.026.03.025.031.023.032.022.033.021.034.02.034.018.036.017.036.015.036.014.038.012.038.011.038.009.039.008.039.006.039.004.039.003.04.001.04v.049l-.002.04-.003.04-.005.039-.007.04-.008.039-.009.038-.011.038-.013.038-.014.037-.015.037-.017.036-.019.035-.02.035-.021.033-.022.033-.024.032-.025.031-.026.03-.027.029-.029.027-.03.027-.03.025-.032.024-.032.023-.034.022-.034.02-.035.019-.036.018-.036.016-.037.014-.038.013-.038.012-.038.01-.039.008-.039.007-.04.006-.039.003-.04.003h-.04l-.039-.001-.04-.002-.04-.004-.039-.006-.039-.007-.039-.009-.038-.01-.038-.012-4.087-1.362-.114-.484 3.81-3.81.029-.029.029-.028.029-.027.031-.025.031-.024.032-.023.033-.021.034-.02.036-.019.035-.018.037-.016.037-.015.038-.014.038-.012.038-.01.039-.009.039-.008.039-.006.04-.004.039-.003.04-.001h.04z"/></svg>
