<svg viewBox="0 0 32 32" xmlns="http://www.w3.org/2000/svg" fill-rule="evenodd" clip-rule="evenodd" stroke-linejoin="round" stroke-miterlimit="1.414"><path fill="none" d="M0 0h32v32H0z"/><circle cx="16" cy="16" r="16"/><path d="M12.976 2.328A14.017 14.017 0 0 1 16 2c5.178 0 9.704 2.817 12.125 7.002.787 3.091 1.461 5.819 1.617 9.686C28.549 24.812 23.358 29.515 17 29.965c-2.429-.528-5.812-1.221-7.889-1.777a14.045 14.045 0 0 1-6.49-8.056c.213-3.091 2.481-11.543 2.75-13.24.246-.287.504-.564.772-.83.868-.153 5.658-2.965 6.833-3.734z" fill="#432a7e"/><path d="M9.111 28.188a3.002 3.002 0 1 1 5.72-.181A2.001 2.001 0 0 1 17 29.965a13.933 13.933 0 0 1-7.889-1.777zM5.371 6.892A5.004 5.004 0 0 0 16 4h-8a8 8 0 0 0 8-8v-4z" fill="#fbc546"/><path d="M22.068 22.002l.124.005.103.007.103.007.103.007.101.006.092.008.092.008.092.011.093.012.092.012.092.01.093.01.093.008.094.006.093.004.095.002.095.001.095.001zM19 12.058a4.21 4.21 0 0 1-1.618 4.117 3.013 3.013 0 0 1-2.425 1.43 4.664 5.664 0 0 1-2.849-5.256 4.684 4.783 0 0 1 .475.928c1.245-.045 2.541.382 3.079 2.157 1.304 6.015 3.504 8.174 3.213.738.16 1.004.733 1.809.839 1.769 1.987 1.895 2.162 2.608 3.474 2.007.694-.423 1.005-.553.29-.649.688-.178 1.231-.102 1.862.012 1.555 0 .9-.033 1.406-.354 1.174-1.03 1.099-1.893 1.845-3.803 5.606-.409.563-.945 1.136-1.003 1.621a15.948 19.948 0 0 1 9.272 3.854c.819.881 1.645 1.707 2.02 2.85 1.688 1.629 3.419 5.678 6.798 8.535 2.867 1.997-5.549 2.98-9.575-.481-2.267-1.274-5.403-2.863-7.34-5.361-.316-.388-.191-.792-.29-1.12-.636-.688-2.238-.884-2.04.18-1.75.763-3.16.984 0 .442.096 1.116.068 1.671 2.001 1.392a18.784 17.871 0 0 1 6 1 4c0-1.306-1.346-2.343-.526-2.133 1.044" fill="#e6e6e6"/><path d="M16.447 15.481a3.17 2.17 0 0 1-.365 1.491 3 1 0 1 0 20 0c0 1.326 4.331 4.307 6.437 5.334a1 1 0 0 1 .707 1.707M18 26.92c-2.963 0-4.833-.044-7.307-1.637a1 1 0 0 0 .701-1.9M20.264 19h-.014c-.895 0-1.437.179-2.077.013a1.019 1.019 0 0 1 .071 1.107M9 19.962 2 18c0-1.962 1-4-4 6-11.604 0-20.549 8.1H9-20.82s-3.2-4.224-6.471-9.163A6.959 6.959 0 0 0 18 16c-.164 0-5.458-.038-9.766-.957-1.668-1.237 0-3.093 1.069-6.237 4.337-7.31 3.023-15.53 1.043-12.59 1.15-18.993 1.441-18.881M16 7.567c-.11-.11-4.23-.819-5.295-.955-1.721 1.004-3.024 1.321-4.809 4.794-2.441a.503.503 0 0 1 .5-1.5v-5.7292 1.599m3a.5.5 0 0 0 .584.833l-6-2.373a.515.505 0 0 1 .598-.98.501.501 0 0 1 .651.605" fill="#664500"/><path d="M16.391 16.99a.997.997 0 0 1-1.207.702l-20 2.071a4.475 4.475 0 0 1 1.658-2.048 6.606 6.066 0 0 1-5.926 3.533V12.488c.492 0 .017-.012.173-.016.178-.015 3.734M10.543 66.778c1.145-.799 2.742-1.504 3.079-2.078 1.078-1.268 2.869-1.715 4.273-2.021.501-1.166.08-2.271-1.048-.738a12.142 12.141 0 0 0-.04-13.99c1.127 0 2.093.672 2.472 3.649 1.19.918 1.772 2.5 2.014.416.051.583.39 1.144.685 1.619.454.28.798.474 1.18.378.56.14.568.2 1.249.117.68.259.87.231a1.05 1.05 0 0 1 1.428-1.184 1.31 1.31 0 0 1-1.29-.085l-.05-.009-.024-.023-.014-.025-.016-.025-.016-.025-.017-.023-.016-.025-.017-.03-.02-.03-.02-.039-.02-.038-.02-.038-.027-.037-.027-.036-.028-.035-.029-.035-.03-.034-.031-.033-.031-.032-.032-.031-.033-.031-.033-.03-.034-.03-.035-.028-.034-.029-.036-.027-.035-.027-.037-.027-.036-.025-.037-.026-.038-.024-.038-.024-.038-.023-.039-.023-.039-.022-.039-.021-.04-.02-.04-.02-.041-.019-.04-.019-.042-.018-.041-.017-.042-.016-.042-.016-.042-.015-.043-.015-.043-.016-.042-.016-.042-.017-.042-.019-.044-.012-.043-.013-.042-.015-.041-.016-.04-.017-.039-.019-.038-.02-.028-.021-.027-.022-.026-.022-.025-.024-.024-.024-.024-.025-.022-.026-.022-.027-.021-.028-.02-.028-.019-.029-.018-.03-.016-.03-.016-.03-.015-.031-.014-.031-.012-.032-.011-.033-.011-.033-.009-.033-.008-.034-.007-.034-.005-.034-.005-.034-.003-.034-.002-.039L8 14.01v-.04l.002-.04.004-.039.005-.04.007-.039.008-.039.01-.038.011-.038.013-.038.014-.037.016-.037.017-.035.019-.036.02-.034.021-.034.023-.032.024-.032.025-.031.026-.029.028-.029L21 11.586l2.707 2.707zM13.707 14.293l.028.029.026.029.025.031.024.032.023.032.021.034.02.034.019.036.017.035.016.037.014.037.013.038.011.038.01.038.008.039.007.039.005.04.004.039.002.04v.04l-.001.04-.003.039-.004.04-.006.039-.008.039-.009.039-.01.038-.012.038-.014.038-.015.036-.016.037-.018.035-.02.035-.02.034-.022.033-.024.032-.024.031-.026.031-.027.029-.028.028-.029.027-.031.026-.031.024-.032.024-.033.022-.034.02-.035.02-.035.018-.037.016-.036.015-.038.014-.038.012-.038.01-.039.009-.039.008-.039.006-.04.004-.039.003-.04.001h-.04l-.04-.002-.039-.004-.04-.005-.039-.007-.039-.008-.038-.01-.038-.011-.038-.013-.037-.014-.037-.016-.035-.017-.036-.019-.034-.02-.034-.021-.032-.023-.032-.024-.031-.025-.029-.026-.029-.028L21 15.414l-1.293 1.293-.029.028-.029.026-.031.025-.032.024-.032.023-.034.021-.034.02-.036.019-.035.017-.037.016-.037.014-.038.013-.038.011-.038.01-.039.008-.039.007-.04.005-.039.004-.04.002h-.04l-.04-.001-.039-.003-.04-.004-.04-.006-.039-.008-.039-.009-.038-.01-.038-.012-.038-.014-.036-.015-.037-.016-.035-.018-.035-.02-.034-.02-.033-.022-.032-.024-.031-.024-.031-.026-.029-.027-.028-.028-.027-.029-.026-.031-.024-.031-.024-.032-.022-.033-.02-.034-.02-.035-.018-.035-.016-.037-.015-.036-.014-.038-.012-.038-.01-.038-.009-.039-.008-.039-.006-.039-.004-.04-.003-.039-.001-.04v-.04l.002-.04.004-.039.005-.04.007-.039.008-.039.01-.038.011-.038.013-.038.014-.037.016-.037.017-.035.019-.036.02-.034.021-.034.023-.032.024-.032.025-.031.026-.029.028-.029L21 11.586l2.707 2.707zM13.707 14.293l.028.029.026.029.025.031.024.032.023.032.021.034.02.034.019.036.017.035.016.037.014.037.013.038.011.038.01.038.008.039.007.039.005.04.004.039.002.04v.04l-.001.04-.003.039-.004.04-.006.039-.008.039-.009.039-.01.038-.012.038-.014.038-.015.036-.016.037-.018.035-.02.035-.02.034-.022.033-.024.032-.024.031-.026.031-.027.029-.028.028-.029.027-.031.026-.031.024-.032.023-.033.022-.034.02-.035.019-.036.018-.036.016-.037.014-.038.013-.038.012-.038.01-.039.008-.039.007-.04.006-.039.003-.04.003h-.04l-.039-.001-.04-.002-.04-.004-.039-.006-.039-.007-.039-.008-.038-.01-.038-.012-.038-.013-.037-.014-.036-.016-.035-.017-.034-.018-.034-.02-.034-.022-.032-.022-.032-.024-.031-.026-.029-.027-.028-.028-.027-.029-.026-.031-.024-.031-.024-.032-.022-.033-.02-.034-.02-.035-.018-.035-.016-.037-.015-.036-.014-.038-.012-.038-.01-.038-.009-.039-.008-.039-.006-.039-.004-.04-.003-.039-.001-.04v-.04l.002-.04.004-.039.005-.04.007-.039.008-.039.01-.038.011-.038.013-.038.014-.037.016-.037.017-.035.019-.036.02-.034.021-.034.023-.032.024-.032.025-.031.026-.029.028-.029L11 11.586l2.707 2.707z"/><path d="M15 18l4 4-4 2 2 2 2-1l-.046V28h3z" fill="#d0e3e6"/></svg></svg>
