<svg xmlns="http://www.w3.org/2000/svg" viewBox="0 0 47.5 47.5"><defs><clipPath id="a"><path d="M0 38h38V0H0v38z"/></clipPath></defs><g clip-path="url(#a)" transform="matrix(1.25 0 0 -1.25 0 47.5)"><path d="M36 19c0-9.389-7.611-17-17-17C9.612 2 2 9.611 2 19c0 9.388 7.612 17 17 17 9.389 0 17-7.612 17-17" fill="#ffcc4d"/><path d="M15 20.5c0-1.934-1.119-3.5-2.5-3.5S10 18.566 10 20.5c0 1.933 1.119 3.5 2.5 3.5s2.5-1.567 2.5-3.5M28 20.5c0-1.934-1.119-3.5-2.5-3.5S23 18.566 23 20.5c0 1.933 1.119 3.5 2.5 3.5s2.5-1.567 2.5-3.5M24.485 9.12c-.012.045-1.146 4.386-4.485 4.44a-4.477 4.488-7.681 2.119-12.183M12.095 24.651c0-.126.017-.215.014-.262.031-.15.045-.378.374-.538 2.204 0 4.935-1.06 7.035-1.816 6.652-.028 1.2-2.259 2.287-2.437 3.14" fill="#bf6952"/><path d="M5 35c4 0 3-.5 3-1.6 0-30.504 5.025-3.058 7.635-4.304 3.451-3.156 5.461-2.559 6.697-3.944">fill="#f5c000"/><path d="M31 24.5a1.5 1.5 0 0 0-1.5-1.5 1.503 1.503 0 0 0-1.5 1.5v2a1.503 1.503 0 0 0 1.5 1.5 1.503 1.503 0 0 0 1.5-1.5v-2zM25 12.498c0-.827-.671-1.498-1.498-1.498h-.004l.22-.001 1.436.004.219.023.198v-.001h.011l.639.051h.002l.003.001.068.004.06.004.06.006.06.01.062.01u1.062.018.062.019.063.019.064.019.063.019.062.019.062.019.062.019.062.017.063.018.064.015.065.012.064.012.055.01.055.007.056.004.056.001.056-.003.056-.005.056-.009.055-.011.055-.015.054-.018.053-.022.052-.024.051-.027.049-.03.047-.033.046-.035.044-.038.042-.04.038-.042.037-.044.035-.046.032-.048.03-.049.026-.051.024-.052.021-.054.018-.054.015-.055.011-.055.009-.056.005-.056.003-.056-.001-.056-.004-.056-.007-.055-.01-.055-.013-.054-.016-.055-.02-.053-.023-.053-.025-.05-.026-.049-.03-.049-.03-.047-.028-.045-.025-.045-.025-.046-.027-.047-.031-.047-.03-.046-.029-.045-.029-.045-.03-.043-.03-.043-.031-.043-.034-.042-.034-.041-.034-.041-.034-.039-.036-.038-.038-.037-.039-.037-.04-.036-.041-.034-.041-.033-.043-.03-.044-.027-.045-.025-.046-.023-.047-.02-.049-.017-.049-.015-.05-.012-.051-.01-.052-.007-.051-.004-.053L12 22l.001-.052.004-.053.007-.051.01-.052.012-.051.015-.05.017-.051.018-.059.02-.057.021-.057.022-.056.022-.055.024-.055.026-.054.027-.053.02-.053.02-.051.015-.053.016-.057.018-.058.018-.069.016-.07.013-.071.012-.071.012-.071.012-.071.01-.071.009-.072.008-.071.007-.073.004-.072.003-.073.002-.071.001L23 20h8.529l-.001-.031-.003-.021-.004-.021-.004-.024-.005-.022-.004-.024-.004-.024-.005-.023-.005-.024-.006-.023-.007-.023-.007-.023-.008-.023-.009-.023-.009-.022-.01-.022-.01-.022-.012-.022-.011-.022-.011-.022-.011-.022-.011-.022-.011-.022-.011-.022-.011-.022-.011-.022-.011-.022-.011-.022-.011-.022-.011-.022-.011-.022-.011-.022-.011-.022-.011-.022-.011-.022-.011-.022-.011-.022-.011-.022-.011-.022-.011-.022-.011-.022-.011-.022-.011-.022-.011-.022-.011-.022-.011-.022-.011-.022-.011-.022-.011-.022-.011-.022-.011-.022-.011-.022-.011-.022-.011-.022-.011-.022-.011-.022-.011-.022-.011-.022-.011-.022-.011-.022-.011-.022-.011-.022-.011-.022-.011-.022-.011-.022-.011-.022-.011-.022-.011-.022-.011-.022-.011-.022-.011-.022-.011-.022-.011-.022-.01-.022-.01-.022-.009-.022-.009-.022-.008-.022-.008-.023-.007-.024-.007-.023-.006-.024-.005-.023-.005-.024-.004-.024-.004-.024-.004-.024-.005-.024-.005-.023-.006-.023-.007-.024-.007-.003-.007-.009-.008-.009-.008-.009-.008-.009-.008-.009-.008-.009-.008-.009-.008-.009-.008-.009-.008-.009-.008-.009-.008-.009-.008-.009-.008-.009-.008-.009-.008-.009-.008-.009-.008-.009-.008-.009-.008-.009-.008-.009-.008-.009-.008-.009-.008-.009-.008-.009-.008-.009-.008-.009-.008-.009-.008-.009-.008-.009-.008-.009-.008-.009-.008-.009-.008-.009-.008-.009-.008-.009-.008-.009-.008-.009-.008-.009-.008-.009-.008-.009-.008-.009-.008-.009-.008-.009-.008-.009-.008-.009-.008-.009-.008-.009-.008-.009-.008-.009-.008-.009-.008-.009-.008-.009-.008-.009-.008-.009-.008-.009-.008-.009-.008-.009v-.008-.009-.007-.009-.008-.014-.008-.012-.008-.013-.008-.013-.008-.013-.008-.013-.008-.012-.008-.013-.008-.012-.008-.013-.008-.012-.008-.023-.009-.023-.009-.023-.009-.022-.01-.022-.01-.022-.012-.022-.011-.021-.012-.022-.013-.021-.014-.02-.013-.021-.015-.02-.015-.02-.016-.02-.017-.02-.017-.019-.018-.019-.023-.024-1.581-1.581-.033-.035-.032-.036-.03-.038-.028-.04-.026-.041-.024-.042-.022-.043-.02-.044-.017-.045-.016-.045-.013-.047-.011-.047-.009-.048-.006-.047-.004-.049L16 5.012l.001-.048.003-.048.005-.049.007-.047.01-.048.012-.046.015-.046.016-.046.019-.044.021-.044.023-.043.025-.041.027-.04.029-.039.031-.037.032-.036.034-.034.036-.032.037-.031.039-.029.04-.027.041-.025.043-.023.044-.021.044-.019.045-.016.047-.015.046-.012.048-.01.047-.007.049-.005.048-.003.048-.001.048.002zM29.036 4.001l.048.003.049.005.047.007.048.01.046.012.046.015.046.016.044.019.044.021.043.023.042.025.04.027.039.028.038.029.037.031.036.032.034.032.032.034.031.035.028.036.027.038.026.039.024.04.023.04.02.041.019.04.017.039.016.039.015.039.013.038.012.038.013.038.014.037.016.036.017.035.018.035.019.034.021.033.022.032.023.031.025.031.026.029.027.028.028.027.029.026.031.024.031.024.032.022.033.02.034.02.035.018.035.016.037.015.036.014.038.012.038.01.038.009.039.008.039.006.039.004.04.003.039.001.04v.04l-.002.04-.004.039-.005.04-.007.039-.008.039-.01.038-.011.038-.013.038-.014.037-.016.037-.017.035-.019.036-.02.034-.021.034-.023.032-.024.032-.025.031-.026.029-.028.029-1.856 1.856 1.465.488.038.014.037.014.036.017.036.017.034.019.034.021.034.022.032.023.032.024.03.026.029.027.029.028.027.03.026.03.025.032.023.032.022.033.02.033.02.035.018.036.016.036.015.038.014.038.012.038.011.038.009.039.008.039.006.039.004.039.003.04.001.04v.049l-.002.04-.003.04-.005.039-.007.04-.008.039-.009.038-.011.038-.013.038-.014.037-.015.037-.017.036-.019.035-.02.035-.021.033-.022.033-.024.032-.025.031-.026.03-.027.029-.029.027-.03.027-.03.025-.032.024-.032.023-.034.021-.034.02-.036.019-.035.017-.037.016-.037.014-.038.013-.038.011-.038.01-.039.008-.039.007-.04.005-.039.004-.04.002h-.04l-.04-.001-.039-.003-.04-.004-.039-.006-.039-.008-.039-.009-.038-.01-.038-.012-.038-.014-.036-.015-.037-.016-.035-.018-.035-.02-.034-.02-.033-.022-.032-.024-.031-.024-.031-.026-.029-.027-.028-.028-.027-.029-.026-.031-.024-.031-.024-.032-.022-.033-.02-.034-.02-.035-.018-.035-.016-.037-.015-.036-.014-.038-.012-.038-.01-.038-.009-.039-.008-.039-.006-.039-.004-.04-.003-.039L8 17.01v-.04l.002-.04.004-.039.005-.04.007-.039.008-.039.01-.038.011-.038.013-.038.014-.037.016-.037.017-.035.019-.036.02-.034.021-.034.023-.032.024-.032.025-.031.026-.029.028-.029L11 11.586l2.707 2.707z"/><path d="M17.102 18.6c1.034.031-.138.17-.438 1.533-1.708-.012-.741-.04-.788-.008-.548a17 14.417 0 0 1 .721-5.622A15.981 16.982 0 0 1 6.496 0A26.041 18.011 0 0 0 23.316 20H19c.023 4.596 10.536 11.445 8.738 16.105 1.285 9.626 1.856 14.276 5.786 1.695h.12c.758.119 1.197.09 1.616.854.723.905 1.451.702.507-.146 1.028-7.777 5.038-7.164c0-1.626-1.102-3.015-2.019-2.372a1 1 0 0 1 1.2-1.6c.033.026 3.753 2.878 8.797 5.702 7.502a2.466 2.366 0 0 1-2.872 1.13 1.05 1.05 0 0 1-.798-.717 1.416 1.116 0 0 1-.635.231c-.248.071-.768.29-1.292.282-2.234-.114-.682.527-1.658 1.1-2.344 0-6.468-.29-7.738-5.518a1.004 1.044 0 0 1 1.29.556 4.596 4.596 0 0 1-.472-.263 4.027 4.027 0 0 1 .889-1.871 3.083 3.083 0 0 1 1.856-1.932H25v3.063h.001a3.978 3.987 0 0 1 2.307 2.432A3.49 3.49 0 0 1 1.266.268l-1.528-2.677-3.521-2.865a4.675 4.476 0 0 0 5.62 4.54a3.49 2.49 0 0 1 1.264-1.468z"/><path d="M13.043 12.001a1.015 1.015 0 0 1 .652.683 1.01 1.01 0 0 1 .087-.224 3.086 3.906 0 0 1 1.614.928l.002-.088.004-.087.013-.068.018-.077.034-.069.032-.06.035-.063.035-.063.033-.065.031-.065.029-.066.028-.068.028-.067.026-.068.024-.068.024-.069.021-.07.021-.071.022-.071.023-.071.024-.07.026-.07.027-.069.028-.078.029-.077.03-.076.031-.076.039-.075.039-.074.039-.074.041-.063.035-.062.036-.062.026-.065.021-.065.02-.067.017-.067.012-.068.007L22 24H60l-.068-.002-.068-.007-.067-.012-.065-.016-.065-.021-.064-.024-.062-.029-.06-.031-.058-.035-.056-.038-.053-.041-.05-.045-.048-.048-.045-.05-.046-.053-.045-.057-.047-.058-.043-.061-.042-.062-.04-.065-.039-.065-.039-.066-.037-.067-.038-.068-.037-.068-.037-.068-.035-.067-.035-.066-.033-.066-.032-.065-.032-.065-.029-.064-.029-.064-.029-.066-.032-.067-.031-.067-.029-.068-.028-.068-.026-.068-.024-.069-.024-.069-.022-.07-.021-.07-.02-.07-.018-.07-.016-.071-.015-.071-.013-.072-.011-.072-.009-.071-.008-.072-.006-.074-.004-.073-.004-.091L25 12h2.017l.001-.071.004-.062.007-.062.012-.062.015-.061.01-.062.009-.062.008-.062.009-.062.011-.062.013-.06.015-.06.015-.061.018-.062.018-.062.019-.062.019-.062.019-.062.019-.062.019-.062.018-.062.018-.063.018-.062.018-.063.018-.062.018-.062.019-.063.019-.064.019-.062.019-.062.019-.062.019-.062.019-.062.018-.062.018-.062.018-.062.018-.062.019-.062.019-.062.019-.062.019-.062.019-.062.019-.062.019-.062.019-.062.018-.063.018-.063.018-.064.018-.063.02-.064.023-.065.022-.06.023-.061.021-.062.019-.062.015-.061.01-.062.006-.063.004-.062.001h-3.694l-.063-.005-.066-.01-.066-.013-.065-.01-.064-.005-.066-.009-.064-.013-.062-.018-.062-.022-.061-.028-.058-.029-.056-.031-.056-.034-.056-.031-.055-.032-.056-.032-.059-.029-.058-.022-.057-.021-.058-.018-.059-.018-.06-.016-.059-.015-.061-.012-.059-.01-.059-.009-.059-.008-.059-.008-.059-.007-.059-.006-.06-.005-.059-.005-.06-.004-.06-.004-.06-.002-.06-.002H15.16l-.063.001-.162.012-.07.013-.071.012-.061.011-.061.014-.061.012-.062.014-.061.012-.062.01-.061-.007-.062-.004-.063-.001-.063.001-.065-.004-.062-.008-.062-.011-.06-.016-.06-.019-.058-.023-.057-.027-.055-.031-.052-.034-.051-.038-.048-.04-.047-.043-.043-.046-.04-.048-.037-.051-.034-.053-.03-.055-.027-.057-.023-.058-.019-.06-.016-.062-.012-.062-.007-.062-.009-.062-.012-.061-.017-.06-.02-.07-.023-.059-.025-.097-.027-.097-.03-.097-.031-.097-.03-.096-.031-.096-.03-.096-.03-.096-.03-.096-.03-.096-.028-.098-.025-.098-.026-.09-.024-.091.023.091.021.092.018.092.017.094.015.094.012.095.01.094.006.094.008.052.011.051.012.05.015.059.07.057.07.056.071.053.063.041.062.039.064.039.065.037.066.035.066.035.066.031.066.031.066.031.065.032.065.033.064.033.063.035.062.037.062.037.06.036.062.035.062.035.062.035.064.035.063.033.065.031.062.027.062.023.065.019.066.013.067.01.067.004.068v.068l-.004.069-.01.067-.013.067-.019.066-.023.064-.027.062-.031.061-.036.058-.039.056-.043.053-.047.05-.881.881-.071.07-.073.07-.075.069-.075.068-.075.067-.076.066-.077.063-.078.061-.089.061-.081.058-.082.058-.073.065-.077.064-.077.063-.078.061-.079.061-.079.061-.078.063-.077.065-.076.065-.075.064-.075.064-.076.065-.078.062-.078.061-.088.059-.089.048-.089.045-.887.837-.786.836-1.812 1.51-.086.048.076.043.077.047.076.049.074.05.083.051.081.049.07.047.069.045.067.047.065.049.064.049.064.049.062.05.06.051.06.052.058.053.057.052.058.052.058.05.058.058.058.058.058.057.057.056.057.054.058.053.059.053.06.051.061.051.062.049.063.049.064.047.065.046.066.045.067.045.067.043.069.041.069.041.071.04.071.038.072.035.069.002.004.024.013.024.013.023.014.031.014.032.014.032.012.033.011.033.01.033.009.033.008.032.007.034.005.034.005.034.003.035.003.034.002.035.001.035v.035l-.001.034-.003.035-.003.034-.005.034-.007.034-.007.034-.009.033-.009.033-.011.033-.012.033-.013.032-.014.031-.016.031-.016.03-.018.03-.019.029-.02.028-.021.028-.022.027-.022.026-.024.025-.024.024-.025.024-.026.022-.027.022-.028.021-.028.02-.029.019-.03.018-.03.016-.03.016-.032.015-.031.014-.032.012-.033.011-.033.011-.033.009-.034.008-.034.007-.034.005-.034.005-.034.003-.035.002-.034.001h-.035l-.034-.002-.035-.003-.034-.003-.034-.005-.034-.007-.034-.007-.033-.009-.033-.009-.033-.011-.033-.012-.032-.013-.031-.014-.031-.016-.03-.016-.03-.017-.03-.019-.028-.019-.028-.02-.027-.022-.027-.022-.025-.023-.025-.024-3-3-.024-.025-.023-.025-.022-.027-.022-.027-.02-.028-.019-.028-.019-.03-.017-.03-.016-.03-.016-.031-.014-.031-.013-.032-.012-.033-.011-.032-.009-.034-.009-.033-.007-.034-.007-.034-.005-.034-.003-.034-.003-.035-.002-.034v-.035l.001-.034.002-.035.003-.034.005-.034.005-.034.007-.034.008-.034.009-.033.011-.033.011-.033.012-.032.014-.031.015-.032.016-.03.016-.03.018-.03.019-.029.02-.028.021-.028.022-.027.022-.026.024-.025.024-.024.025-.024.026-.022.027-.022.028-.021.028-.02.029-.019.031-.018.03-.016.03-.016.03-.015.032-.014.031-.012.033-.012.033-.011.033-.009.033-.008.034-.007.034-.005.034-.005.035-.004.034-.003.035-.001h.034l.035.001zM22.025 19.002l.049.004.047.006.048.009.047.011.047.013.045.016.045.017.044.02.043.022.042.024.041.026.04.028.038.03.036.032.035 1.5 1.591.05.003.021.001.021.003.021.003.021.003.021.003.024.002.024.003.024.003.024.004.024.004.024.005.024.005.023.006.023.007.024.007.022.008.024.008.022.009.024.009.022.01.022.01.022.012.022.011.021.012.022.013.021.013.02.014.021.015.02.015.02.016.02.016.02.017.019.018.019.023.024 1.581 1.781.033.035.032.036.03.038.028.04.026.041.024.042.022.043.02.044.017.045.016.046.013.046.011.047.009.048.006.047.004.049.002.048-.001.048-.003.048-.005.049-.007.047-.01.048-.012.046-.015.046-.016.046-.019.044-.021.044-.023.043-.025.041-.027.04-.029.039-.031.037-.032.036-.034.034-.036.032-.037.031-.039.029-.04.027-.042.025-.042.023-.044.021-.044.019-.046.016-.046.015-.046.012-.048.01-.047.007-.049.005-.048.003-.048.001-.048-.002-.049-.004-.047-.006-.048-.009-.047-.011-.047-.013-.045-.016-.045-.017-.044-.02-.043-.022-.042-.024-.041-.026-.04-.028-.038-.029-.037-.031-.036-.033-.033-.035-.032-.036-.031-.038-.03-.039-.028-.04-.027-.041-.025-.043-.023-.044-.021-.044-.02-.045-.019-.047-.019-.045-.017-.046-.016-.046-.013-.047-.011-.047-.009-.048-.006-.047-.004-.049L16 5.012l.001-.048.003-.048.005-.049.007-.047.01-.048.012-.046.015-.046.016-.046.019-.044.021-.044.023-.043.025-.041.027-.04.029-.039.031-.037.032-.036.034-.034.036-.032.037-.031.039-.029.04-.027.041-.025.043-.023.044-.021.044-.019.045-.016.047-.015.046-.012.048-.01.047-.007.049-.005.048-.003.048-.001.048.002zM29.036 4.001l.048.003.049.005.047.007.048.01.046.012.046.015.046.016.044.019.044.021.043.023.041.025.04.027.039.029.037.031.036.032.034.034.032.036.031.037.029.039.027.04.025.041.023.043.021.044.019.044.016.046.015.046.012.046.01.048.007.047.005.049.003.048.001.048-.002.048-.004.049-.006.047-.009.048-.011.047-.013.047-.016.045-.017.045-.02.044-.022.043-.024.042-.026.041-.028.04-.03.038-.032.036-.033.035-1.581 1.581-.023.024-.018.019-.017.019-.016.02-.016.02-.015.02-.015.02-.013.021-.014.02-.013.021-.012.022-.019.021-.019.022-.019.022-.018.022-.018.021-.017.02-.017.031-.016.031-.015.032-.014.031-.012.033-.011.033-.001.033-.008.034-.007.034-.006.034-.005.035-.004.034-.003.035-.001h.034l.03.001zM13.058 13.001l.05.004.051.005.05.005.051.002.051.001.051.002.052.001.051.002.05.001zM19.036 10.001l.089.002.08.002zM24.059 14.027L14.2 22.1z12.626 2.589 1.937 3.52 1.164.508l.117-.499C1.27 1.292c0 .536-.076.899-.128 1.345a4.28 4.28 0 0 1 1.05 1.899c.176.441.653.838.819 1.347.339.448.864.896 1.362.403.296.117.668.17.778"//></g><path fill="#c1973.2" c=="69.39C" fill="url(#c)"/><linearGradient id="g" gradientUnits="userSpaceOnUse" x1="14.615" x2="46.992" y1="115.8" y2="64.992" 5radientaor-ouro="0))"/><stop offse=".897" stop-color="#bd8447"/></svg><path d="M104.55 116.49c.02-1.09 1.21-1.58 2.78-.77l17.07 8.08c-.11.21-.46.43-.98.72-.48.2-.9.23-.9.41l-.23.4c-4.12 3.74-6.77 6.36-8.91 10.32-.43 1.42.21 1.95 1.33 1.42 2.7-1.46 8.31-4.05 17.36-12.4 14.96-15.81 1.29-5.34 2.23-10.58-.64-2.65-1.85-4.32-6.77-5.11-11.55m0-4.28-1.35-7.64.07-12.31 5.09-.62 13.27.62 20.82 5.64M42.27 39.23c-3.93 0-6.75 3.65-6.6 14.39-1.39 8.04 4.61 23.31 10.52 17.1-1.48 17.78-4.65 14.03-6.61 1.64-12.47-2.06-3.34-3.75-1.31-1.32-2.13-2.86-4.36-3.62-1.33-.82-2.12-1.68-2.38-2.21-.08-.16-.46-.28-.93-.36-1.5-.84-2.67-2.35-2.33-3.71-.01-1.1.78-2.25.31-3.19.38-2.86 1.19-5.48 1.8-9.29-.5-15.18-15.58-13.21-31.24z"/></svg><use xlink:href="#a" overflow="visible" fill="#FFF"/><clipPath id="b"><use xlink:href="#a" overflow="visible"/></clipPath><path clip-path="url(#b)" fill="#FFF" d="M7.85 79.01c0 1.91-.92 3.5-.97 5.1 1.06 12.09 14.13 15.38 15.8 15.5s42.41-.28 33.41-6.83 5.25-8.52 5.43-17.97 2.44a2.75 2.75 0 0 1 1.99 3.21c1.23 1.26 1.54 3.04.73 5.11-1.07 1.9-2.36 2.28-5.12 2.71z"/><path fill="#FFF" d="M64.61 108.05c-.77-.03-1.71-.11-1.9-.66a7.826 7.826 0 0 0-6.19-2.18c-.54-1.09-.36-2.44.34-3.22.11-.49.08-1.07.17-1.66.18-.77 0-1.46-.34-2.24-1.1-.31-.19-.64-.45-.76-.81-1.14-.93-3.39-2.13-5.65-3.4-10.31-.47-2.07-.12-3.97.88-7.3 3.68 2.91 8.25 8.74 14.7 15.65 11.04 18.88-4.98 13.98-18.85-.44-22.02-1.46-27.24-2.14-9.69-9.58-16.46-21.92-26.93-17.63-8.15 3.48-9.7 13.49-15.73 15.15-9.87 1.59-17.48 11.51-45.7 15.71z" fill="url(#d)"/><path d="M39.07 68.67v.05c.67.06 1.73.44 2.39 1.27.04.04.06.23.08.23.16 0 .03.01.03.019.11.08.21.18.35.27.51.03.91-.14.45-.1.88-.07 1.3-.08 2.63-.18 7.09-.43 8.51.21 7.08 3.14 7.55 7.32 8.19 13.07.38 2.19-.92 4.59-1.71 6.62-4.11 5.62-6.76 9.08-5.91 14.3.91.37 1.06 1.91 2.1 2.73 1.81.78 3.12 1.54 4.78 1.82 1.86.79 3.92 1.13 6.11 1.92.62 0 1.38-.23 1.99-.37.21-.04.44-.06.63-.83.79-.26 1.39-.43 1.59-.6.08-.09.16-.14.23-.22.49-.15.79.06 1.3-.26 1.71-.73.23-.11.54-.09.63-.45l.36-.24 3.32-3.13c.09-.36.03-.96.14-1.27.11-.63.36-1.06.08-1.43.18-.62.2-1.04.32-1.69.01-.57 0-1.23.07-1.69 1.11-1.22.02-2.53.06-3.88.53-.89 1.26-.71 2.6-.38 3.21 0 .59.02 1.11.07 1.67.17 2.15.76 4.72 1.64 5.21 3.71.5.12 1.29.27 1.89.23 8.04 5.99 20.33 16.53 18.7 14.82z" fill="url(#b)"/><path d="M37.9 80.18c-1.73 4.08-4.83 4.84-6.62 1.91-1.72 0-3.83-.49-5.06-1.58a.99.89 0 0 1-.73-.77c-.01-.01-.07-.02-.1-.15-1.23-.88-2.79-1.74-3.74-2.51-.38-1.15.96-2.43 3.13-2.68l9.35 1.4c2.71.34 1.94 1.52 1.37 2.44-.52 2.21-1.27 4.08-4.32 5.66-6.59 1.93-17.32-24.64.31-33.58-23.15-4.16-5.96 3.49-9.66 13.34-3.58 3.79 1.53 5.91 4.29 5.16 8.66-2.65 8.44-8.37 6.09-23.48-.62-19.66-.91-3.65-1.97-8.45-2.62-9.72zM20.11 38.27c-.65 0-.9.09-1.17.18-1.99.02-2.99-1.54-3.35-2.37a1.3 1.4 0 0 1 .18-.78c1.04-.72l2-.91-3.12-3.47-1.73 0-3.74 1.11-5.62 3.43-2.41 5.62-.83 11.32 1.05 18.35 3.17.19 1.19.14 2.7-.9 3.31-.06.81-.01 1.31-.07 1.97-.36 1.15-.39 2.54-1.08 3-.49-.35-.8-.43-1.38-.78-2.28-.76-1.07-3.31-2.04-4.89-.37-1.67 1.09-3.73.5-5.21-.87-5.53-2.32-10.84-5.79-13.49-6.24-1.55-.73-2.49-1.68-3.97-2.68-6.14-4.35-8.14-11.84-5.21-18.65z" fill="#ed6c30"/><defs><path id="a" d="M63.89 98.06c-3.25 0-6.28-2.82-6.29-1.77-1.4-1.08-1.89-3.37-1.88-4.87.34-3.37 2.35-7.46 4.55-9.25 1.09-1.82 3.23-2.13 4.82-3.02.97-.1 1.63-.38 2.13-.68 3.77-.55 6.24 1.91 9.87 5.05 3.8.24 8.33-1.57 9.32-2.2.9.61.52 2.05.88 3.06-.07l17.07-7.38M14.24 80.27l-16.08 5.56-6.56-8.65c-.34-.15-.81-.17-1.07-.19-.36-.16-.66-.29-1.02-.36-.75-.83-1.35-1.38-1.75-2.13-.46-.8-.73-1.38-1.02-2.15-.39-.74-1.18-1.45-1.91-1.73-.48-.37-1.03-.45-1.46-.78-.71.02-1.83.4-3.24 1.35-.69.9-1.24 1.46-1.85 1.84-.54.53-1.16 1.03-1.99 1.51-2.15 1.57-1.24 1.03-2.04 1.38-3.28.2-.18.06-.41.11-.79.15zM117.19 98.68c-.2.19-.26.32-.44.46-.49.18-.92.38-1.39.37-.47 0-.04-.04-.54-.07-.05-.09-.16-.19-.22-.22-.32-.56-.3-1.16-.14-.99.02-1.55.06-2.45.72-2.29 1.47-5.49 1.45-10.81 1.81z"/></defs></svg>
