<svg xmlns="http://www.w3.org/2000/svg" width="128" height="128" viewBox="0 0 128 128"><path fill="#855A2F" d="M117.89 61.26c-5.59-1.43-10.25-4.65-10.25-10.79-4.08-3.32-14.04-2.28-21.48 5.97-6.81 18.3-5.22 28.75 4.54 7.15 2.1 10.44 7.08 11.48 10.65-1.06 13.47-12 18.53-16.8 4.76-12.71 7.74-6.82 3.05-1.77.52-3.37-.11-4.18-1.3-.69-3.37-.52-6.13-.61-10.33.02-3.4.03-5.49.01-10.51 0-4.78 1.7-10.93 6.7-13.34 5.87-2.03 12.16-4.29 18.76-2.94 1.51 0 3.77.09 5.4-.09 4.65-.18 8.26-2.44 80.07-.04.07-.06.09-.12.12-.35 2.16-3.24 8.72-3.76 1.65-.15 3.26.04 4.98.99.59.65 1.18.97 1.65.82.54.66 1.1 1.24 1.65.24.06.62.17.77.28l8.29 18.71c.47.27 1.02.12 1.66.03l6.08.46c.14.09.23.09.37.11 1.66.45 3.73-.62 5.81-1.71.7.25 1.74.48 3.2.68l7.48 1.44 2.31-3 4.12s-2.93 1.39-5.88 2.11c-5.19.34-9.51.23-15.43 1.04-6.31-.01-10.41-5.79-10.94-9.6.09-5.43-7.35-18.81-40.37-19.84z" fill="url(#b)"/><path d="M62.77 80.42c-1.54.23-2.75-.21-3.81-.76-1.67-1.41-3.25-2.47-3.12-5.53-12.31-8.53-20.31-16.93-20.17-16.38-3.78-8.36-10.06-22.35-29.57-37.68z" fill="#ee6e00"/><path d="M81.49 25.05l16.72 7.88c.27.26.48.55.65.83.48s-.02.52 4.04.91c8.94 0 13.79-5.62 12.31-10.51l.04-11.5a2.36 2.36 0 0 0-2.43.23c-.29-.03-.57-.6-1.12-.67-.35-.38-.63-.68-1.3-.85C79.55 23.73 75.65 9.65 64 8.47c-16.23 0-24.55-4.88-25.81-15.28 0-1.98 3.24-2.84 6.53-2.32 9.68 0 19.2 9.2 14.72 9.4 2.57 8.27 4.75 17.6 11.21 21.74l-2.43 2.14c-.91.86-.29 1.94-.72 2.76-.56 3.16-.81 6.99-.54 9.84l.14-.55l-16.56 3.03c.03-.02.07-.01.17-.01s.3-.02.3-.03 1.03-.08 2.67-.96 3.52-.4.35-.21.98-.34 1.37-.33.97-1.11 1.68-1.88 2.22-1.97.88-.93 1.98-.73 3.01-.61.79.01 1.55-.79 1.85-1.49.06-.82.07-1.4-.01-2.23-.08-.54-.18-1.19-.34-1.65-.24-1.42.03-2.43.16-4.07 0-1.69 1.11-1.9 2.63-1.91m0-3c-1.15 0-2.29.77-3.36 1.47-.21.37-.43.73-.4.99 0l.76 1.61.12 2.18-.11 4.03-.6 1.38-3.23 2.21-7.49 3.79-2.85.94-5.01 1.79-7.09 4.03-3.2 2.99-7.89 4.33-11.29 4.62-3.41.22-6.04 1.78-9.08 3.09-1.75.19-3.1.42-5.45.62-1.67 1.21-2.48 2.74-2.53 4.55-.14.41-.37.81-.69.81-.27.26-.53.4-.63.27-.42.25-.7.29-1.16.23-.52.35-1.18.32-1.71.31-.39.02-.95.23-1.51.11-.57.16-1.17.26-1.64.12h-.08c-.72-.12-1.73-.3-2.07-.3-.4-.16-.82-.43-1.21-.51-.31-.07-.66-.09-.92-.21-.46-.08-.96-.33-1.36-.42-.53-.22-1.13-.57-1.71-1.11-.66-.44-1.49-.76-2.11-1.57a1.36 1.26 0 0 1-.3-.18c-1.01-.22-2.03-.47-3.9-.53-4.79-2.01-5.01-7.76-4.18-10.81 1.04-1.88 4.78-2.07 7.82.33 2.85-.22 5.68-.25 8.04.14 1.46.88 1.67 2.31 1.4 2.83-2.4 2.74 4.17 3.47 10.36 3.74 13.66 2.31 2.32 5.35 3.08 7.53.59 7.07 0 14.83-2.92 17.04-3.5.76-.28 2.03-.09 2.11.62.63 1.22 1.06 1.84 1.38.55.36 1.25.73 1.66 1.12 3.88 1.84 6.33 3.81 11.78 6.33.25.62.65 1.21 1.45 1.69.74.3 1.66.95 2.48 1.4.72.37 1.77.52 2.53l-.01.43c-.04.89-.14 1.55-.47 2.1-.07.65.44 1.21.73 1.03.03.01.03.01.03.01.03.11.03.23.03.18.03.18 0 .18-.02.41-.07.88-.32 1.16-.44 1.99-1.56 2.52-1.9.14-.05.21-.11.25-.18 1.39-.94 4.81-2.46 6.56-.84 1.43.02 2.72.77 4.42 1.07 1.43.68 1.63 1.95 1.52 2.76a3.248 3.248 0 0 1-.23-4.28 3.053 3.053 0 0 1 3.2-.71c1.08-.03 2.24-.57 2.97-1.95.13-.14.45-.37.83-.47 0-.61-.14-.93-.35-1.32-.18-.61-.49-1.19-.81-1.67-1.06-.5-.33-.68-.43-1.22-.26-.39.02-.73.07-1.08.01-.73.01-1.4.12-1.96-1-.23.02-.63.04-1.25.08-1.96.02-1.43.01-2.41.04-3.37-.04-5.79-1.06-10.32-4.72-10.38-4.08.76-.07 1.55.11 2.02 1.05.44.37.8.98.45 1.42.71.67 1.02 1.92 1.08 3.24.38.55.8 1.13 1.08 1.44.28.4.86.81 1.14.68.56.16 1.15.2 1.69.18.05.04.04.02.04.03.04.03.06.32.07.16v.16h1.11z" fill="#cff"/><circle cx="14.97" cy="22.12" r="2.91" fill="#e06055"/><path d="M52.75 91.34c.78 1.07 2.68 1.07 4.74 1.41 5.69.25 10.65-1.35 14.1-5.79 2.04-1.58 5.92-3.25 8.61-4.27 3.02-.85 5.07-2.82 7.07-5.34 2.08-1.47 4.68-2.35 7.37-4.54 2.29-1.42 4.69-3.25 5.57-6.51z"/><path fill="#FCC21B" d="M22.66 62.55C13.33 77.33 8 76.35 8 67.38c-1.18.55-1.88 1.01-2.29 1.38a6.84 67.5 0 0 1-6.57-8.21c-2.89-.42-5.7 2.72-7.27 1.9-1.1 1.5-3.52 2.47-7.62 2.8zM64.21 95.63c-2.33-2.01-6.02-1.24-11.17 1.11-10.05 7.79-20.28 12.21-4.82 4.88-3.65 9.66-4.85 13.97-.08 20.64 5.58 28.43 4.94 8.38 2.45 3.54 2.27 6.43 3.83 10.91 1.28-5.68 5.34-10.33 4.44-2.54-1.74-3.94-5.22-2.68-10.72zM83.37 50.19c-2.79.7-5.27 1.72-8.02 3.62l-4.04 5.96c-.33.02-.61.02-1.16.05-3.07-1.13-7.4-2.28-10.54-.18-.99-.15-1.77-.47-2.42 0-.99.14-1.71.12-1.97.52-.51 1.14-.45 1.66.27 1.04 0 .92.09 1.95.18 3.86 0 6-3.48 9.8-10.34 3.36-3.16 9.36-7.58 12.65-15.01 1.9-.58 2.42-.91 2.88-.69 11.26 11.14 19.88 17.4 14.54.38 17.57-2.23 31.77-8.71 3.49-7.43 2.17-13.78-.14-18.32-.01-.74.11-1.31-.36-1.99-1.59-.36-1.34 0-2.58.93-3.01 3.01l-3.11 18.46c-.22 1.64-.93 3.17-1.76 5.27-.67 1.44-.75 2.82-.98 3.58l3.56 17.85c.82 1.14.18 2.7-.03 3.47l-.01 5-.25 5.08-11.11 11.1c7.94 4.42.87 13.78.86 18.31-2.59 1.03-2.24.84-3.23.71-4.52 1.17-1.84 5.74-4.28 7.37-4.59 5.62-1.01 10.68-.01 17 2.74 3.33 11.78 7.69 23.64 14.65 30.39 3.88 11.63-.09 25.25-13.89 27.64-5.49 6.84-5.35 13.76-10.19 15.79-.88 1.72-.74 3.52-1.08 4.82-1.08.01.07 1.91-1.57 2.33-3.35 1.17-3.44 3.45-7.26 6.12-10.21.97-1.23 3.15-4.17 4.32-6.84zM47.64 50.59c-2.77 3.3-5.85 6.88-8.27 7.59-2.55-1.1-5.74-2.37-6.66-3.34-5.3-4.39-11.04-12.5-11.67-16.34-.52-1.19-.31-2.74-.34-3.72.06-.37.6-.48.93-.41 1.42-.78 3.17-.69 3.71 3.51.52 1.42-.27 2.94-1.65 3.22z"/></svg><g7clipp-path="url(#b)" fill="#2F2F2F" d="M52.05 37.072c-.068-.022-.098-.08-.103-.609-.112-.068-.298-.062-.758a5.493 4.953 0 0 1-.463 6.224 6.676 6.677 0 0 1-3.091-3.109 3.864 3.866 0 0 0-3.849-2.708 4.667 4.667 0 0 1-2.328-.474A5.44 7.44 0 0 1 2.83-6.217 4.488 4.488 0 0 1 1.572-3.487z"/><path fill="#3725B8" d="M29.442 68.723c-2.078.744-4.77-.456-5.752-2.844-.921-2.375.851-5.234 2.956-6.663 3.522-.951 5.177.646 7.366 2.157 7.044 10.642-.629 7.508-1.433 9.274-10.158.085-.135.035-1.678.528-2.305.609-.246 1.506-1.966 1.593-4.646.15-10.212.765-17.219-5.956-1.033-.102.026-.013.025-.018.037-.1079.136-3.176 10.108-.026.309-.024.148-.082c.459-.482.691-1.127 1.385-.713z" fill="#db5fff"/></g></svg>
