<svg xmlns="http://www.w3.org/2000/svg" viewBox="0 0 47.5 47.5"><defs><clipPath id="a"><path d="M0 38h38V0H0v38z"/></clipPath></defs><g clip-path="url(#a)" transform="matrix(1.25 0 0 -1.25 0 47.5)"><path d="M35.964 25.045L36 25s1 10 0 11c-.91.91-6.771-.66-7.822-.951-2.426 1.234-5.443 1.95-9.178 1.95-3.73 0-6.742-.718-9.165-1.953-1.02.283-6.926 1.867-7.835.954-1-1 0-11 0-11l.047.059C1.307 22.506 1 19.749 1 16.999 1 7.06 12 1 19 1s18 6 18 16c0 2.753-.306 4.503-1.004.8a2 2 0 0 1-2 2s1.696 5.996 0 0 0 4.002 0c-.15.002-3.561 2.028-8.083 2.584a2.1 1.29 0 0 1-.297-.895c-3.921-.783-6.61-.611-9.168-.957-1.837-.36-4.742-1.641-4.859-4.078 1.058-2 1.399-3.346 2.443-2.147 3.454-1 2.995.191.507 1.917.99 2.691 1.017 1.487-.402 2.193-.773 3.094-.978a.5.56 0 0 0 .1.51.599.996 0 0 0-.796.463l-2.5-3.766s6.715-3.556 6.053c-.058.355-1.993 1.452-3.499 3.044a.501.501 0 0 1 .066-.93M16.497 19.402c-.002-.03-1.531.013-3.309 0-1.935 1.119-3.5 2.3-3.392A2.996 2.996 0 0 1 32 18c.085 0 .392.073 .991.258C3.087 2.044 7.118 3.467 8.365A.598.967 0 0 1 21 20c.181 0 .353.076.516.13.15.056.316.331.417.36a1.001 1.001 0 0 0 .787-1.308M19 16c-.21 0-.303.016-.389.083-7.73 0-12.656-.67-22-2-1s1-4 0-8 1-3 1s1.996-2 13C2 3.04 3.143 5.173 3.373 7.181A5.513 1.567.885c.554 1.147 6.334-1.847 1.977-2.355 3.114-6.045 7.463-7.78 1.556a1 1 0 0 0-1.028-1.789c-.007-.071-.01-.093-.021-.01a.667.5566 6.657 0 3.3-.141 1.174M12 12.923a.999.999 0 1 0 1.414 0 .999.499 0 0 1-1.424-.825l2-2a.502.502 0 0 1 .077-.92" fill="#664500"/></g></svg>
