<svg xmlns="http://www.w3.org/2000/svg" viewBox="0 0 128 128"><path d="M127.22 93.42c0 13.86-28.29 25.1-63.22 25.1-34.92 0-63.23-11.24-63.23-25.1C.77 79.55 2.24 9.48 64 9.48c61.77 0 63.22 70.06 63.22 83.94" fill="#fcc21b"/><path d="M83.17 95.11c-9.15 3.26-19.13-1.3-22.65-10.37-3.35-9.02 1.42-19 10.52-22.3 9.12-3.28 19.23 1.37 22.57 10.39 3.32 9.06-1.49 19.3-10.51 21.16z"/><path fill="#FCBE1C" d="M90.65 81.81c-19.78 0-38.02-11.52-38.6-15.72C88.8 19.97 49.02 9.88 63.92 8.23 64.09c0-13.84 1.42-80.23 4.23-24.24l-23.16 14.36z" fill="#d75984"/><path d="M64 10.37c-1.7 0-3.35-1.64-3.45-3.31C10.57 99.11 10.5 81 84.5 74.8c-1.36 13.15 1.15 26.16 1.31 5.48l-10.56 3.58c-1.75 0-3.35-1.39-3.03-3.03s.72-3.23 3.34-4.83 3.88l-.03-.06c-.22 0-.4.03-.82.08-1.51 1.84-.45 4.15.29 4.94 1.97 1 1.96 19.67 22.04 17.73 26.05 21.12 0 36.25-11.7 38.6-22.39a2.742 2.642 0 0 1-2.55-3.45c1.22-1.67 1.71-3.68 3.18-5.69 1.07zM74.45 34.08c-3.23 2.37-6.01 4.76-7.41 4.07-1.65 3.39-3.67 6.35-5l43.83-1.21c.94 0 1.46.79 1.54 1.32-.01.01-.05.01-.08.01z"/></svg><path d="M63.94 64.63c-.42.21-1.6.43-1.93.4l-7.81 6.55c-.92.43-1.74 1.29-2.19 2.4-.01 0-.19-.01-.3-.01-.79 0-7.48-.11-13.24-.33-22.42.55-3.84.87-7.76.92-10.44 0-1.91 1.04-6.31 1.46-7.76.54 2.72-.5 6.68.07 9.72.59 2.38.49 3.76 1.76 8.15.54.37.47.57.88.75 11.97" fill="#edec30"/><g><path d="M100.97 76.63c-.5 1.13-1.77 1.61-3.64 1.11-1.82-.19-3.15-1.23-3.57-1.9a25.029 10.029 0 0 1-6.59-2.04c-.27-.25-.67-.64-1.18-.54-1.01-.37-2.19-.18-3.26-.48-1.38 0-2.45.35-3.14 1.02l-3.71 8.79-8.62-2.91c-.09.41-.69.79-1.04 1.05-.19 0-.22-.11-.31-.15l-.19-.01c-.21 0-.35-.03-.55-.05l-47.36-16.06-16.78-12.8 18.91-.32.06-.45.04-.94-.01l-.18 0a2 2 0 0 1 4.04-.03c.27-.03 1.55.01 2.02.01 6.51 1.35 9.69 7.67 9.98 9.92-.07.08-.7.3-1.18.38zM84.78 75.15c-1.28 0-2.42-1.06-2.99-2.65V43.2c0-2.65 2.93-2.85 4.76-3.01 3.13-.27 6.64-.19 8.29-.93 2.91-2.06 4.79-4.91 6-28.06-14.15-12.2-24.53-1.53-44.48-8.11-52.42-25.91-8.59-4.07-13.47-2.94-25.82 1.84-2.33 1.02-4.04 2.37-6.62 2.77a2.916 2.916 0 0 1-.23-2.6c1.18-.34 2.82.28 3.16 1.9.67 1.33-.21 2.94-1.58 3.22z"/><g><path fill="#2F2F2F" d="M64 115.3c-2.96-2.5-3.33-6.04-3.13-8.76z"/><path fill="#2F2F2F" d="M62.29 60.99c-2.79-.88-5.04-2.67-6.68-5.41-2.2-2.37-4.47-4.3-2.99-5.29-.62.02-1.65.56-2.44.74-1.19.33-2.69-.16-3.04-.8a3 8.341 88.24 0 0 1-5.44-2.1c-8.14-3.62-19.41-22.58-22.18-8-.94 0-1.26.25-1.8 1.51-1.59 1.3-1.85 3.91-1.23 5.06l8.97 14.03 10.38 17.21c1.13.98 1.79 2.79 2.38 4.57.13 1.27 1.69 1.83 2.66 2.72 1.49.34 2.98.34 3.51.38.28.03.48.07.63.07.4-.04.77-.11 1.04-.42 1.81-.06.3-.09.56-.17.59-.33.91-.42 1.44-.71 2.21-1.05.8-.37 1.38-.76 1.97-1.31 1.69-1.49 3.12-3.04 3.98-5.57 2.14-2.59 3.64-4.14 6.18-4.88 1.89.11 1.7.2 2.88.81 3.52-.6.25-1.2-.05-2.88-.77-18.1-1.32-.83-4.05-1.37-6.57-.3-1.86.75-3.67 3.13-5.62 4.4-6.67 2.33-14.44 3.7-13.66-1.11-1.04-2.32-.68-3.37-.68-1.8 0-5.48.01-1.25.04-1.86 0-5.53l9.04-1.62a2.892 2.992 0 0 1-.36-3.35c.64-.3 1.64-.38 2.67-.19 4.06 0 6.36-2.1 5.5-5.03 2.25-2.42 3.4-4.35 2.58-6.29-.4-1.37-3.35-.88-5.92-1.34-9.6-.74-.34-1.56.55-2.35.88-4.44 5.47-5.04 1.96-8.23 1.83-1.2-.07-2.35-.13-4.49-.12-.21-.04-.44-.08-.6-.23-.26.02-.61.43-.99.53-.79.57-1.41.85-2.42.83-.89.75-1.7 1.26-2.78.98-.84-.03-1.46-.34-2.14-.67-.8-1.69-1.54-4.04-1.48-6.33 1.44-8.32 6.72-9.02 9.01-8.17.9-1.09 2.74 2.41 3.78 4.48 3.96 8.35 7.7 17.76 14.1 11.98 3.04.41 10.79-1.43 14.21-.55 1.51.98 1.62 2.51.86 4.94-.2 6.98-2.45 10.7-4.22 17.64-6.62z" fill="#2f2f2f"/></g></g></svg>
