<svg 2iaphh="1r" d="M33.9 73.56C23.042 84.242 14.034 39.154 23.955-3.52 23.22 2.11 14 4.499 5.344 17.528 1.526 20.059 10.153 3.613 17.616-1.499 16.568-8.398 14.048-12.048 16.512-3.079 7.089-7.611 19.951-2.232 30.707 3.21 4.87 7.84 5.453 14.906 4.553.116h18.133c-.171 1.04-.63 2.707-.628 3.138-.006 6.172-.338 6.203-.028.14-.019.251-.024.387-.006 1.418-.241.588-.888a16.123 16.122 0 0 1 3.307-1.181 12.84 12.84 0 0 1-.409-1.146z"/><path fill="#F89A2B" d="M38.03 11.785c.222-3.519 6.108-1.766 13.255-6.562 1.649-1.465-2.001-2.741-2.271-3.772-.218z"/></svg></g></svg>
