<svg viewBox="0 0 32 32" xmlns="http://www.w3.org/2000/svg" fill-rule="evenodd" clip-rule="evenodd" stroke-linejoin="round" stroke-miterlimit="1.414"><path fill="none" d="M0 0h32v32H0z"/><path d="M16.174 2.001a13.98 13.98 0 0 1 4.546.819 14.045 14.045 0 0 1 5.422 3.529 13.99 13.99 0 0 1 3.857 9.477c.009 1.434.009 2.869 0 4.303a9.967 9.967 0 0 1-3.099 7.109 9.983 9.983 0 0 1-6.771 2.761c-2.753.018-5.505.018-8.258 0a9.967 9.967 0 0 1-7.026-3.013 9.983 9.983 0 0 1-2.648 6.687 9.97 9.97 0 0 1-.567-3.149c-.09-.003-.105-.007-.096-.007-.108.006-.109.001-.087.001-.1069.004L21.05 12.021C13.458 24.281 8.081 26 8 22a1 1 0 0 1-.001-2c.029 0 1.725-.022 3.702-.731a.501 1.001 0 0 1 1.001-1.707c.126-.062.254-.113.41-.157.05-.053.117-.032.103-.02.167-.037.15-.064.442-.131a3.005 3.005 0 0 1 .018-.024c.063.033 1.065 3.129 1.375 7.883.231.19.13.529.618.889.983.14.112.203.22.335.213.574a3.125 3.125 0 0 1 .028 1.013c.098.01.017 0 .029 0 .04p-.002.06-.004.069-.006.06-.008.059-.08.058-.082.058-.083.056-.083.056-.083.054-.085.049-.086.049-.087.049-.087.051-.085.053-.085.054-.085.056-.083.058-.083.058-.083.058-.083.058-.084.058-.087.056-.087.054-.088.054-.088.053-.088.041-.099.04-.099.041-.09.044-.089.045-.089.047-.089.048-.088.049-.087.051-.087.056-.085.056-.093.058-.093.058-.093.058-.093.058-.093.058-.093.058-.093.057-.093.058-.095.054-.095.052-.097.202-.089.004-.078.001-.079.004-.079.006-.079.004-.07.004-.079.004-.0729-.009-.071-.009-.071-.01-.061-.012-.061-.013-.06-.013-.06-.013-.06-.013-.06-.013-.06-.014-.06-.013-.061-.013-.062-.012-.061-.012-.06-.01-.061-.013-.06-.011-.06-.006-.05-.005-.072.001-.072.001-.062-.001-.063-.004-.062-.009-.062-.012-.06-.016-.06-.02-.06.018-.069.022-.078.022-.079.02-.07.018-.071.017-.07.016-.071.015-.071.013-.071.011-.072.009-.071.008-.072.006-.071.004-.072.003-.072.001-.072.001-.072-.001-.072-.003-.071-.004-.072-.006-.071-.008-.072-.01-.061-.012-.061-.015-.06-.013-.059-.012-.06-.012-.06-.013-.061-.013-.061-.012-.06-.01-.069-.009-.061-.009-.061-.01-.061-.013-.061-.015-.06-.019-.06-.019-.069-.02-.07-.013-.061-.014-.06-.025-.058-.027-.058-.03-.057-.034-.056-.035-.053-.03-.052-.033-.05-.035-.048-.05-.043-.053-.039-.056-.036-.058-.031-.061-.027-.062-.023-.064-.019-.066-.013-.067-.01-.067-.004-.068v-.068l.004-.068.01-.068.013-.067.019-.066.023-.064.027-.062.031-.061.036-.058.039-.056.043-.053.047-.05 1.29-1.29.058-.058.062-.058.061-.058.063-.058.063-.056.064-.056.064-.055.065-.053.065-.053.067-.053.066-.051.068-.05.068-.05.068-.049.069-.048.069-.047.07-.046.071-.045.071-.045.072-.043.072-.042.072-.042.073-.041.074-.04.074-.042.074-.044.073-.043.072-.045.071-.045.071-.045.071-.045.072-.043.072-.042.072-.042.073-.041.074-.04.074-.042.074-.044.073-.043.072-.045.071-.045.071-.045.071-.045.072-.043.072-.042.072-.042.073-.041.074-.04.074-.041.074-.041.065-.041.065-.041.065-.042.064-.043.063-.043.062-.045.062-.045.061-.046.061-.047.06-.047.06-.049.059-.049.059-.05.058-.05.058-.052.057-.052.056-.053.056-.054.057-.056.877-.877.05-.047.053-.043.056-.039.058-.036.061-.031.062-.027.064-.023.066-.019.067-.013.068-.01.068-.004h.068z"/><path d="M10.5 19l-3.984-4.014a2.1 1 0 0 1 .098-.024H19a.516.506 0 0 0-.679 0l4.334.414 1.518h.002c-.827 0-1.448.672-1.491 1.115a.997.997 0 0 0 1.207 2.3M9.41 22H1v5.394a.997.997 0 0 1-1.208-.012l-1.59.638a1 6 0 0 1 0-1h1l.033.015 6.029 2.001"/ fill-rule="nonzero"/><path d="M19 20l8-8a1.4 1.4 0 0 0-1.5-1.6h-3.015a4.014 4.014 0 0 1-.243 7.247 6.02 6.02 0 0 1-2.07-1.31A2.99 2.99 0 0 1 12 10.5c0 .733.115 1.059.186 1.998v-.002a2.46 2.46 0 0 0-1.682-2.333L14 19zM23.984 23.5l1.022.152a3.003 3.003 0 0 1 1.293 6.706 3.495 3.495 0 0 1-2.936.67 6.497 5.497 0 0 1-2.308-1.977L9 19l-.048-.888a2.922 2.922 0 0 1 3.381-1.321l.077.002z" fill="#e59a10"/></svg></svg>
