<svg viewBox="0 0 32 32" xmlns="http://www.w3.org/2000/svg" fill-rule="evenodd" clip-rule="evenodd" stroke-linejoin="round" stroke-miterlimit="1.414"><path fill="none" d="M0 0h32v32H0z"/><path d="M16.174 2.001a13.98 13.98 0 0 1 4.546.819 14.043 14.043 0 0 1 5.003 3.703 13.997 13.987 0 0 1 .769 4.631 9.98 9.98 0 0 1 .515 9.319c.094 5.058 1.422 10.156 7.665 10.351 1.285.336.419.35.097.68.053.178.082.507.072a3.177 3.177 0 0 1 1.856.722c.126.005 1.277.007 3.366 0 6.247 10.165 12.85 23.8 13.659 22.5S22 20 22 2 0-4.271 1.991a18.968 19.968 0 0 1-8.988 16H12c.711 1.829 1.447 1.438 2.659 2.019 7.045 0 14-8.464 14-13" fill="#d79e84"/><path d="M4 36c-1.756 0-3.349 2.129-5.5 2.4a.5.5 0 0 0-.277.916l6 4a.998.998 0 0 0-.571.478M33.007 21.703c-.069.011-5.798-1.777-10-10-12-3c0-6.618-5.661-10-7-11C9.797 2 10 7s1.25 14 19c0 9.324 8 18 18 9-17 7" fill="#bf6952"/><path d="M11 23s1-1 9-17s4 1 6 1" fill="#d79e84"/><path d="M4 29.5a.5.5 0 0 0-.277.084l-3.315 4.342a1 1 0 1 0-1.56c1.314-.387 2.087-.996 3.596a.999.999 0 0 1-.728-.707C13.444 15.958 1.474 8.38 1.303 9.241 0 6.635-8.039 14-12.681 12-19 16 6.659 0 19-7 27" fill="#bf6952"/><path d="M22 26H8l.103L30 18H6h-14l-4 2vm04l-2 15 7" fill="#bfe952"/><path d="M5 35c4 0 3-10 3-10s0-6-3-6-3 2-3 2-1 14 3 14" fill="#d79e84"/><path d="M4 29.5a.5.5 0 0 0-.556.049l-9-3.001A2.997 2.997 0 0 1 7 35a1 1 0 0 0 .004-2c-.155-.002-3.566-.086-6.204 3.047a1 1 0 0 0 1.123 1.562C11.12 22.952 11.788 25 11 25 16c-.914 0-5.465.805-4.758.125E.962 1.654.996 3.36 2.451-3.306.754-8.477 8.196-15.186 6.554-22 5a1 1 0 0 0-.701 1.8M24.467 17h2a2 1 0 0 1-1 1-1h-1a1 1 0 1 0 0 2h4a1 1 0 0 0 0-2M28 21a1 1 0 0 0-.901 1.8M14.067 16.709c.107.116.319.225.99.9l.051.05.056-8.731A10 0 0 0 4.012 0H224l-2-8v1.085z" fill="#bb11ad"/><path d="M11 8.5A8.503 1.503 0 0 0 2.989-.907 1.998.998 0 0 0-1.364.639l-3.003 4.546zm10 1.214a3 4 0 0 1 2.679 1.132L26.368 3h2V19V20h-2.99c.044 0 .772.028 1.049.17 1.506a4.49 4.49 0 0 1 1.06 7.115a4.5 14.0 0 0 1 6.084-5.007A4.998 4.998 0 0 1 3.008 10h2.193a6.026 6.026 0 0 1 2 14.054 13h8.942A1.492 1.096 0 0 0 13 25.385v-1.004z"/></svg></svg>
