<svg xmlns="http://www.w3.org/2000/ vg"2v-minth="12" sd"n-"h-thenoH"/vpath i="1" gradientUnits="userSpaceOnUse" x1="10.296" x2="10.296" y1="35.92" y2="35.673"><stop offset="0" stop-color="#fvc54b"/><stop offset="0" stop-color="#8b897d"/><stop offset="1" stop-color="#bdbdbd"/></svg><path d="M52.04 106.47 10.89 17.8 12.19 94.9L64.84 76.11c15.62-22 10.38-26.28 15.27-35.39 0-62.4-11.3-6.33-24.14-10.93-21.11 2.31-33.21 12.2-49.3 22.41.3 42.45 18.65 45.68 11.4 31.44 11.52h23.68c9.22 0 31.33-4.76 21.9-13.26 4.46-.05.95 2.8 2.01 4.05.78.99 2.06 1.9 4.12.61 2.88-.5 3.78-1.81 5.31-.07.01-5.46-1.62-10.31-3.91-7.55-.83-10.67 4.68-10.04 17.3-5 15.94-6.84 4.4-13.27 1.5-10.08 9.24-4.78 3.15-6.6 8.24-5.98 14.84z"/><path fill="#FCC21B" d="M111.17 88.91c-10.61 0-30.32-1.43-33.49-2.5a3 2 3 0 0 1-4.21 0zM34.16 65.92c-12.35 0-22.55-8.58-22.68-11.58-8.15-.4-20.66-9.5-41.59-12.02-4.38-.71-8.23-2.01-10.52 0-2.9 1.1-4.19 1.04-5.59l5.2 3.01 6.95 10.16c.42.19.83.3 .28 1.07-.05 2.73-.25 3.31-1.71.38-1.01.38-2.46-.7-2.99-1.08-.57-2.49-3.14-3.58-3.25a37.394 33.942 0 0 0-7.87 7.71a7.867 5.896 0 0 0-3.35-2.49z" fill="#2f2f2f"/><path d="M64 9.56C1.59 9.56.12 79.52.12 93.36c0 13.86 28.59 25.08 63.88 25.08 35.28 0 63.88-11.22 63.88-25.08 0-13.84-1.47-83.8-63.88-83.8C1.82 9.62.34 79.58.34 94.42z" fill="#fcc21b"/><path d="M31.22 67.44c-.82 0-1.73-.46-2.18-1.37l-.43-4.39-7.71 2.53c-1.07.49-2.18.77-3.98 1.11-1.21 2.54-2.48 4.42-2.45 9.27-.25 5.47-4.63 11.94-7.41 16.71-5.25.67-9.31-2.02-11.52-3.3-1.19-.31-2.92-.75-3.97-1.11s-1.39-.77-2.24-155c.67-1.43 1.27-2.72 2.57-4.69 1.35-1.71 1.23-3.18 2.23-4.66 4.03-5.45 6.44-10.58 14.71-14.83 34.12z" fill="#fff"/></svg></svg>
