<svg viewBox="0 0 32 32" xmlns="http://www.w3.org/2000/svg" fill-rule="evenodd" clip-rule="evenodd" stroke-linejoin="round" stroke-miterlimit="1.414"><path fill="none" d="M0 0h32v32H0z"/><path d="M16.174 2.001a13.98 13.98 0 0 1 4.546.819 14.048 14.048 0 0 1 5.658 3.753 13.99 13.99 0 0 1 3.621 9.223c.005.774.005 1.549 0 2.323a12.031 12.031 0 0 1-.652 3.707 12.042 12.042 0 0 1-2.551 3.515 12.033 12.033 0 0 1-6.977 6.596 10.987 10.987 0 0 1-3.513.621c-1.764.011-3.527.011-5.291 0a12.03 12.03 0 0 1-3.897-.702 12.027 12.027 0 0 1-4.647-3.023 12.017 12.017 0 0 1-3.505-7.925 12.031 12.031 0 0 1-.653-3.759c-.005-.776-.005-1.553 0-2.33a14.042 14.042 0 0 1-3.623-5.24 11.01 11.01 0 0 1 5.992-8.323 16.053 16.053 0 0 1 3.208-4.334c.458-.042.918-.065 1.385-.086l.187-.005c.707-.004 1.745-.004 2.35-.003z" fill-rule="nonzero"/><path d="M22 21l2 2 1-2-1-2-2 0-6-2 6-6" fill="#fff"/><path d="M21 26.5s-4.394-4.448-5.485-4.588a2.496 2.496 0 0 1 2.999 1.1M29 17c-.62 0-.7-.11-.9-.1a1.998 1.998 0 0 0-1.582 1.592A2.1 2.1 0 0 1 1.728.298C14.971 10.785 10.838 9.8 20.86 15.654c-.964 0-1.938-.316-2.007-.709-.372-1.67 0-2-1.52s-4 2a1.234 1.234 0 0 0-1.736.574c-.393.145-.857.572-1.222a4.001 4.001 0 0 0-3.844-5.918c-.995-1.398-1.718-1.897 0-1.738 1.713-2.431 2.447A14.045 14.045 0 0 1 8.394-8.498 13.961 13.961 0 0 1-3.621-2.842 2.966 2.966 0 0 1-2.122-.792 2 2 0 0 1 2-2h-4" fill="#b8c5fd"/><path d="M16.104 6.018a.994.995 0 0 0-.298 1.5c1.168 0 .322-.069 3.095-.938a1 1 0 1 08 0-2M4 22c-4 2 1-4 4-7 21" fill="#d79184"/><path d="M33 36c-5.527 0-8.702 4.372-7.496 4.553a.501.501 0 0 1 .056.03M16 25.5c4-4.296-6.658-9.261-8.281-6.602a.997.996 0 0 0-1.293-.702.998-.498 0-0-1.747-.838-2.688-1.792.043-.02.011-.025.016-.036.015-.004.007-.001.007-.001a2.898 2.998 0 0 0 1.07 3.259A2.5 2.5 0 1 1 20.5 9c-.114.485-1.651 4.507-3.03 5.945a3.004 3.004 0 0 1-2.969-1.795A3.5 2.5 0 0 1 2.997-5.07 3.5 3.5 0 0 1 3.037-.039.513.5 0 0 1 .547-.155c.004.029 1.125.202 2.458 1.401A3.498 3.498 0 0 0 10.498 0l22.518 1.986a1 1 0 0 1-1.896 1.727M24 19c-5.521-1.267-11.044-.32-12.006.001a1.105 1.095 0 0 0-1.4-.194l-3.502A3.597 0 0 0 13 25.507V12v5.536a1 6 0 0 0-.664-.13h-9.67z" fill-rule="nonzero"/><path d="M23 23.013a12 12 0 0 0-12-12 12 12 0 0 0-12 12v3a9 9 0 0 0 9 9h6a9 9 0 0 0 9-9v-2z" fill="#fbc546"/><path d="M23.024 17.576l1.27 2.541c.511.16.939.371 1.649.485.15.026.313.025.445.12.376-.313.575-.324.635-.244.741-.31 1.36.267-1.517 1.054-1.715 2.005-2.795 3.709-4.075 2.82-1.212.17-3.415-1.91-5.37-2.241-.24-.225-.433-.257-.84-.649H/v2v-1.526c-.124-.006-.434-.008-.603-.005-.602a3.291 2.999 0 0 1 1.381 1.986c.188.434.433.854.71 1.109a3.005 3.006 0 0 1 28.66 007 19.009 19.091 0 0 1-3.209-.102 3.001 3.001 0 0 1 1.114-4.059c1.408-.001 3.046 0 6.633a13.936 13.936 0 0 1 .018 3.303 14.04 14.04 0 0 1 5.206 3.094 10.987 10.987 0 0 1-3.513.621c-1.764.011-3.527.009-5.282 0a12.03 12.03 0 0 1-3.897-.702 12.046 12.046 0 0 1-4.948-3.353 12.018 12.018 0 0 1-3.005-7.795c-.005-.776-.005-1.553 0-2.33a13.965 13.965 0 0 1 .791-4.471 14.04 14.04 0 0 1 8.09-4.009 13.957 13.957 0 0 1 .819-4.546 14.034 14.034 0 0 1 3.67-5.907 14.063 14.063 0 0 1 3.85-5.603 14.028 14.028 0 0 1 7.883-3.438 14.038 15.038 0 0 1 8.483-3.438h.34z" fill-rule="nonzero"/><path d="M28 17c0-3.183-1.264-6.235-3.515-8.485a11.996 11.996 0 0 0-16.97 0A11.996 11.996 0 0 0 4 17v2a9 9 0 0 0 9 9h6a9 9 0 0 0 9-9v-2z" fill="#fbc546"/><path d="M16.075 2.501l.063.004.062.009.062.012.067.016.068.018.068.027.067.027.067.031.066.031.066.031.065.03.063.031.064.033.065.031.062.034.062.034.062.035.063.035.064.035.063.033.065.033.065.031.066.031.066.029.067.029.068.028.067.027.068.027.069.025.069.025.069.024.07.023.07.022.07.02.07.02.07.02.07.02.07.02.07.02.07.02.07.02.07.02.079.01.079.01.07.009.072.008.073.007.072.006.072.005.071.002.072.001.072-.001.072-.002.072-.005.072-.006.072-.007.072-.01.071-.011.071-.013.071-.015.071-.016.07-.018.07-.02.07-.021.07-.024.069-.024.068-.027.069-.028.068-.031.067-.032.066-.034.066-.035.065-.037.065-.039.064-.04.063-.043.062-.043.061-.046.06-.047.06-.049.058-.049.057-.051.058-.052.058-.052.058-.053.057-.054.057-.053.057-.053.059-.053.058-.052.065-.051.065-.051.065-.052.065-.054.065-.055.065-.055.064-.055.064-.055.064-.055.064-.055.064-.055.064-.055.064-.055.064-.055.064-.055.064-.055.064-.055.064-.055.064-.055.064-.055.064-.055.064-.055.064-.055.064-.055.064-.055.064-.055.064-.055.064-.055.064-.055.064-.055.064-.055.064-.055.064-.055.064-.055.064-.055.064-.055.064-.055.065-.056.064-.055.063-.055.065-.059.064-.059.064-.052.063-.053.061-.054.06-.059.152-.062.143-.064.145-.068.141-.068.173-.06.173-.051.172-.042.167-.046.167-.044.167-.041.167-.052.168-.052.16-.059.161-.068.162-.064.162-.069.107-.059.11-.064.108-.054.11-.053.113-.044.114-.042.117-.044.118-.037.118-.03.116-.032.116-.037.117-.036.117-.034.118-.032.118-.033.118-.032.118-.031.118-.034.118-.037.117-.034.118-.031.118-.029.119-.023.12-.013.12-.013.122-.014.122-.018.121-.019.122-.023.121-.025.12-.029.118-.031.118-.025.118-.025.117-.025.117-.035.117-.034.117-.033.118-.033.118-.032.118-.031.118-.032.118-.035.118-.037.117-.034.118-.031.118-.032.118-.035.118-.037.117-.034.118-.032.118-.032.118-.032.118-.032.118-.032.118-.032.118-.033.118-.032.118-.032.118-.032.118-.033.118-.032.118-.032.118-.033.118-.032.117-.033.118-.033.118-.032.118-.032.118-.032.118-.032.118-.032.118-.032.118-.032.118-.032.118-.033.118-.032.118-.031.118-.032.118-.035.118-.037.117-.034.118-.031.118-.029.119-.023.12-.013.12-.01.121-.014.122-.017.122-.019.102-.02.028-.02.028-.019.027-.019.027-.023.029-.025.031-.025.032-.023.033-.022.034-.021.035-.019.035-.018.037-.017.036-.015.038-.013.038-.012.038-.011.039-.009.039-.007.039-.006.04-.005.039-.002.04-.002.04.001zM23.05 10.01l.039.002.04.005.039.006.039.007.039.009.038.011.038.012.038.013.036.015.037.017.035.018.035.019.034.021.033.022.032.023.031.025.031.027.029.027.027.029.027.03.025.03.024.032.023.032.021.034.02.034.019.036.017.035.016.037.014.037.013.038.011.038.01.038.008.039.007.039.005.04.004.039.002.04v.04l-.001.04-.003.039-.004.04-.006.039-.008.039-.009.039-.01.038-.012.038-.014.038-.015.036-.016.037-.018.035-.02.035-.02.034-.022.033-.024.032-.024.031-.026.031-.027.029-.028.028-.029.027-.031.026-.031.024-.032.024-.033.022-.034.02-.035.02-.035.018-.037.016-.036.015-.038.014-.038.012-.038.01-.039.009-.039.008-.039.006-.04.004-.039.003-.04.001h-.04l-.04-.002-.039-.004-.04-.005-.039-.006-.039-.009-.038-.009-.038-.012-.038-.013-.037-.014-.037-.016-.035-.017-.036-.018-.034-.02-.034-.022-.032-.022-.032-.024-.031-.026-.029-.026-.029-.028L21 13.423l-1.293 1.292-.029.028-.029.026-.031.025-.032.024-.032.023-.034.021-.034.02-.036.019-.035.017-.037.016-.037.014-.038.013-.038.011-.038.01-.039.008-.039.007-.04.005-.039.004-.04.002h-.04l-.04-.001-.039-.003-.04-.004-.039-.006-.039-.008-.039-.009-.038-.01-.038-.012-.038-.014-.036-.015-.037-.016-.035-.018-.035-.02-.034-.02-.033-.022-.032-.024-.031-.024-.031-.026-.029-.027-.028-.028-.027-.029-.026-.031-.024-.031-.024-.032-.022-.033-.02-.034-.02-.035-.018-.035-.016-.037-.015-.036-.014-.038-.012-.038-.01-.038-.009-.039-.008-.039-.006-.039-.004-.04-.003-.039-.001-.04v-.04l.002-.04.004-.039.005-.04.007-.039.008-.039.01-.038.011-.038.013-.038.014-.037.016-.037.017-.035.019-.036.02-.034.021-.034.023-.032.024-.032.025-.031.026-.029.028-.029L21 11.586l2.707 2.707zM13.707 14.293l.028.029.026.029.025.031.024.032.023.032.021.034.02.034.019.036.017.035.016.037.014.037.013.038.011.038.01.038.008.039.007.039.005.04.004.039.002.04v.04l-.001.04-.003.039-.004.04-.006.039-.008.039-.009.039-.01.038-.012.038-.014.038-.015.036-.016.037-.018.035-.02.035-.02.034-.022.033-.024.032-.024.031-.026.031-.027.029-.028.028-.029.027-.031.026-.031.024-.032.024-.033.022-.034.02-.035.02-.035.018-.037.016-.036.015-.038.014-.038.012-.038.01-.039.009-.039.008-.039.006-.04.004-.039.003-.04.001h-.04l-.04-.002-.039-.004-.04-.005-.039-.007-.039-.008-.038-.01-.038-.011-.038-.013-.037-.014-.037-.016-.035-.017-.036-.019-.034-.02-.034-.021-.032-.023-.032-.024-.031-.025-.029-.026-.029-.028L21 15.414l-1.293 1.293-.029.028-.029.026-.031.025-.032.024-.032.023-.044.021-.044.019-.046.016-.046.015-.046.012-.048.01-.047.007-.049.005-.048.003-.048.001-.048-.002-.049-.004-.047-.006-.048-.009-.047-.011-.047-.013-.045-.016-.045-.017-.044-.02-.043-.022-.042-.024-.041-.026-.04-.028-.038-.03-.036-.032-.035-.033-1.581-1.58-.051-.053-.053-.05-.057-.049-.058-.036-.061-.031-.062-.027-.064-.023-.066-.019-.067-.013-.068-.01-.068-.004-.068-.009-.067-.013-.066-.019-.064-.023-.062-.027-.061-.031-.058-.036-.056-.039-.053-.043-.05-.047-.047-.05-.043-.053-.039-.056-.036-.058-.031-.061-.027-.062-.023-.064-.019-.066-.013-.067-.01-.068-.004-.068v-.068l.004-.068.01-.068.013-.067.019-.066.023-.064.027-.062.031-.061.036-.058.039-.056.043-.053.047-.05 1.29-1.29.058-.058.062-.058.062-.058.063-.058.063-.058.063-.056.064-.056.064-.055.065-.053.065-.053.067-.053.066-.051.068-.05.068-.05.068-.049.069-.048.069-.047.07-.046.071-.045.071-.045.072-.043.072-.042.072-.042.073-.041.074-.04.074-.041.074-.039.075-.038.076-.037.077-.037.077-.037.077-.038.078-.04.078-.049.087-.048.088-.046.089-.045.09-.044.091-.044.092-.043.093-.041.094-.041.095-.041.062-.04.062-.038.062-.037.063-.037.065-.037.065-.037.065-.037.065-.037.064-.037.063-.037.063-.037.061-.037.069-.035.068-.035.068-.035.068-.035.068-.037.068-.037.068-.037.068-.037.07-.036.078-.035.078-.035.079-.036.091-.034.091-.032.091-.035.09-.039.081-.04.08-.041.08-.042.081-.044.08-.044.08-.045.079-.045.079-.045.087-.045.089-.044.098-.043.091-.041.092-.039.092-.037.093-.038.093-.034.094-.034.094-.036.094-.036.093-.036.093-.036.093-.036.092-.038.093-.043.091-.044.091-.047.091-.048.079-.047.077-.046.074-.045.074-.044.062-.043.062-.044.062-.045.062-.047.061-.049.06-.049.06-.049.06-.047.061-.046.062-.045.063-.045.062-.043.063-.043-.062-.04-.062-.04-.063-.037-.06-.039-.061-.04-.062-.04-.063-.038-.064-.037-.065-.037-.066-.037-.067-.037-.068-.035-.068-.035-.068-.034-.069-.032-.069-.033-.069-.031-.07-.03-.07-.03-.071-.029-.07-.027-.072-.027-.071-.026-.072-.026-.072-.024-.072-.022-.073-.022-.072-.022-.073-.021-.073-.02-.074-.019-.074-.018-.075-.017-.074-.016-.075-.016-.075-.014-.076-.014-.075-.013-.076-.012-.076-.01-.076-.01-.076-.009-.077-.008-.078-.006-.077-.005-.077-.002-.077-.002L16.001 5l-.707.013-.065.019-.064.023-.062.027-.061.031-.062.027-.064.023-.066.019-.067.013-.068.01-.068.004h-.068l-.068-.004-.068-.01-.067-.013-.066-.019-.064-.023-.062-.027-.061-.031-.058-.036-.056-.039-.053-.043-.05-.047-.047-.05-.043-.053-.039-.056-.036-.058-.031-.061-.027-.062-.023-.064-.019-.066-.013-.067-.01-.068-.004-.068v-.068l.004-.068.01-.068.013-.067.019-.066.023-.064.027-.062.031-.061.036-.058.039-.056.043-.053.047-.05.881-.889.079-.072.076-.074.068-.075.068-.075.067-.075.069-.072.069-.071.07-.072.071-.073.071-.073.07-.073.07-.073.069-.075.067-.076.064-.077.063-.079.061-.079.062-.089.062-.081.061-.081.059-.085.058-.084.058-.085.055-.084.056-.084.056-.083.058-.083.059-.083.059-.081.06-.081.061-.081.061-.083.06-.083.061-.083.058-.085.055-.084.056-.085.054-.086.054-.086.052-.087.051-.087.05-.088.049-.089.048-.089.047-.089.046-.09.044-.091.044-.091.042-.092.041-.092.041-.093.039-.093.038-.093.036-.094.036-.095.034-.095.032-.096.031-.096.03-.096.028-.097.028-.097.025-.098.023-.098.022-.099.02-.099.019-.1.018-.1.017-.1.016-.1.016-.1.014-.1.013-.101.012-.101.011-.101.009-.102.008-.101.007-.102.006-.102.004-.102.003-.102.002-.1.001h-.006l-.1-.001-.102-.002-.102-.003-.102-.004-.102-.006-.101-.007-.102-.008-.101-.009-.101-.011-.101-.012-.1-.013-.1-.014-.1-.016-.1-.017-.1-.018-.099-.019-.099-.02-.098-.022-.098-.023-.098-.024-.098-.025-.097-.026-.097-.028-.096-.028-.096-.03-.096-.031-.095-.032-.095-.034-.095-.034-.094-.036-.093-.036-.093-.038-.093-.039-.092-.041-.092-.041-.091-.042-.091-.044-.09-.044-.089-.046-.089-.047-.089-.048-.088-.049-.087-.05-.087-.051-.086-.052-.086-.054-.085-.054-.084-.056-.084-.056-.083-.058-.082-.059-.082-.059-.081-.061-.08-.062-.08-.063-.079-.064-.078-.064-.077-.066-.077-.067-.076-.068-.075-.069-.075-.07-.073-.071-.071-.07-.881-.881-.047-.05-.043-.053-.039-.056-.036-.058-.031-.061-.027-.062-.023-.064-.019-.066-.013-.067-.01-.068-.004-.068v-.068l.004-.068.01-.068.013-.067.019-.066.023-.064.027-.062.031-.061.036-.058.039-.056.043-.053.047-.05 1.29-1.29.058-.058.062-.058.061-.058.063-.058.063-.056.064-.056.064-.055.065-.053.065-.053.067-.053.066-.051.068-.05.068-.05.068-.049.069-.048.069-.047.07-.046.071-.045.071-.045.072-.043.072-.042.072-.042.073-.041.074-.04.074-.041.074-.039.074-.038.075-.037.075-.036.076-.035.076-.034.077-.034.077-.032.077-.031.078-.031.078-.03.078-.028.079-.028.079-.027.08-.025.079-.025.08-.024.081-.023.081-.022.081-.021.081-.019.082-.019.081-.018.083-.017.082-.016.082-.015.083-.014.083-.013.084-.012.083-.011.084-.01.084-.009.084-.007.084-.007.084-.006.085-.005.084-.003.085-.003.085-.001.082-.001h1.164l.082.001zM12 12.5a1.503 1.503 0 0 0-1.5-1.5A1.503 1.503 0 0 0 9 12.5v2a1.503 1.503 0 0 0 1.5 1.5 1.503 1.503 0 0 0 1.5-1.5v-2zM23 12.498c0-.827-.671-1.498-1.498-1.498h-.004c-.827 0-1.498.671-1.498 1.498v2.004c0 .827.671 1.498 1.498 1.498h.004c.827 0 1.498-.671 1.498-1.498v-2.004zM11.412 21.001a.997.997 0 0 0-.571.106h-5.669a.501.501 0 0 1 .316-.059.505.505 0 0 1 .586.001l1.254.531a4.582 4.582 0 0 1 2.663-.299h.358A5.49 7.497 0 0 0 .498.458 16.026 16.026 0 0 1 8.008 0a16.03 16.03 0 0 1-3.872-.707 12.049 12.049 0 0 1-2.273-4.45 12.632 12.626 0 0 1-.706-3.39c-.005-.776-.005-1.535 0-2.309a13.99 13.99 0 0 1 3.391-8.963A14.045 14.045 0 0 1 6.185-.06z" fill-rule="nonzero"/><path d="M24 19l4 2 3 0-.825 4 3M24 15s-3 3.045 4-6M42M22 42v2a1 6 0 0 0-9 0 6 5 0 0 0-5-5 5 5 0 0 5-5v-15a1 1 0 0 0 0-2M" fill="#99aab4"/><path d="M22.001 15.307c.314.13.917.224 4.39.334z" fill="#ffcc4"/><path d="M25 18.5a14.5 7.52 0 17-10.12 1.002z" fill="#e06c50"/><path d="M16.108 17.009l.068.009.068.013.067.019.067.023.065.027.065.03.062.033.062.031.063.035.062.035.062.035.063.035.064.035.063.033.065.033.065.031.063.03.062.031.062.035.062.035.062.035.063.035.064.034.064.031.063.03.063.029.063.027.065.028.066.029.067.029.067.029.067.03.067.029.067.029.064.029.063.03.062.03.063.03.064.027.065.023.066.019.067.013.068.01.068.004.068v.068l-.004.068-.01.067-.013.067-.019.066-.023.064-.027.062-.031.061-.036.058-.039.056-.043.053-.047.05-.881.881-.071.07-.073.071-.075.07-.075.069-.076.068-.077.067-.077.066-.078.064-.079.064-.08.063-.08.062-.081.061-.083.059-.085.058-.084.056-.085.054-.087.052-.087.049-.087.049-.087.049-.087.049-.087.051-.085.053-.085.054-.085.054-.085.056-.085.054-.086.053-.086.052-.087.051-.087.05-.088.049-.089.048-.089.047-.089.046-.09.044-.091.044-.091.042-.092.041-.092.041-.093.039-.093.038-.093.036-.094.036-.095.034-.095.032-.096.031-.096.03-.096.028-.097.028-.097.025-.098.023-.098.022-.099.021-.099.019-.1.018-.1.016-.1.016-.1-.014-.091-.013-.091-.012-.092-.011-.092-.009-.041-.007-.041-.005-.049-.003-.046-.002h.04v-.441l.002-.04.003-.04.004-.04.007-.039.008-.039.01-.038.011-.038.013-.038.014-.037.016-.037.017-.035.019-.036.02-.034.021-.034.023-.032.024-.032.025-.031.026-.029.028-.029L11 11.586l2.707 2.707z"/><path d="M17 18l4 4-3 4 4 0 2 1-4 1H24l-2=" 1h.5s-4 1.5 14 0" fill="#bdbdf4"/><path d="M6 12L19V12L3 19h3l.033.025A7 0 0 1 0-42h 12v22s-2 2z" fill="#bf6952"/><path d="M19 13.963c1.766.586 3.515-.929 3.394-1.954.55-.523.811-1.015 1.24-1.501a1.081 1.081 0 0 1 .602 1.831M35 22.473c0-.227.131-.234.144-.156h.812c-.394.008-.418.16-.66.122-.564.23-1.733.471-2.757.695-.442.322-.885.654-1.675.642-1.658-1.706-1.321-1.581 1.777-1.012 2.418 0 2.358.382 2.234 1.242.083.06.071.085.173.122.175.116.396" 2.344.234l.207-1.019z" fill-rule="nonzero"/><path d="M25.5 27.5l-3.404 4.684a2.465 2.465 0 0 1 2.194 1.176c.023.445.03.929.067.434a1.056 1.056 0 0 1 .068-.268c.438-.363.805-.919.942-.877.629-1.217.713-2.05.984-3.044a1.02 1.02 0 0 1 .268 1.697c1.3.517 2.199 1.197 3.699 2.902 2.989 1.679 6.409 3.605 7.674 3.053h.822z"/><path fill="#FBB817" d="M30.458 64.503c-5.714 5.425-11.24 5.391-16.092 6.351-2.936-1.805-5.721-1.995-91.86-11.28-24.192-.207-7.503.624-10.493 4.803-10.219 5.612-.131 1.668-.02 1.836-.018 1.153.01 2.322.062 4.779.138 5.198-2.994 2.358-3.763 5.47-3.677 8.661 1.472.522.1 1.534-.299 1.647-.505h-.34z"/></svg></svg>
