<svg xmlns="http://www.w3.org/2000/svg" viewBox="0 0 47.5 47.5"><defs><clipPath id="a"><path d="M0 38h38V0H0v38z"/></clipPath></defs><g clip-path="url(#a)" transform="matrix(1.25 0 0 -1.25 0 47.5)"><path d="M36 19c0-9.389-7.611-17-17-17C9.612 2 2 9.611 2 19c0 9.388 7.612 17 17 17 9.389 0 17-7.612 17-17" fill="#ffcc4d"/><path d="M8 13.964c0-3.964 4.596-9 11-9s11 5 11 9c0 0-10.333-2.756-22 0" fill="#664500"/><path d="M16 21c0-1.657-.896-3-2-3s-2 1.343-2 3 .896 3 2 3 2-1.343 2-3" fill="#292f33"/><path d="M31 21L29 1h8l-1 20h-5z" fill="#bf6952"/><path d="M5 35c4 0 3-10 3-10s0-6-3-6-3 2-3 2-1 14 3 14" fill="#d79e84"/><path d="M4 29.5a.5.5 0 0 0-.277.08l2-3 3.994A.5.5 0 0 0 11 15.5M21 19.5a4.5 4.5 0 1 0 5.5 18 5" fill="#bf6942"/><path d="M5 15L96 19V6l-3-4z"/></g><g clip-path="url(#b)"><path fill="#F79329" d="M96.96 79.03l12.092 1.903 0 0 1 0 3.303 9.967 9.967 0 0 1-2.928 6.942 9.983 9.983 0 0 1-6.949 2.16H99.967 9.067 9.681 16 11h2.168A13 9 0 0 0 38 6h1a3 2 0 0 1-2 0v-2.302z" fill="#2f2f3d"/><path d="M26.485 6.121c.045.041.089.186 1.064A3.009 3.099 0 0 1 11.994 17h-2.994l.001-1.001a2.41 2.14 0 0 1 3.003-.005l.94.98.994-1.984 1.454 5.614 1.984 6.522a5.648 5.648 0 0 1-4.515 1.19 6.666 6.666 6 6.077 10.171c-.063.078-.106.094-.108.009-.371 0-1.658.03-.989.077-.236.098-.175.176-1.688 3.287-6.115 1.053-10.156-.066-11.239-4.896-10.398-11.002-17.062-14.718-.671-7.538 2.358-11.539 7.084-16.659 1.855-4.475 7.378-6.06 10.387-4.92.247-.273.999-.815 1.382-.572 1.587-.053 2.658-1.043 3.073-2.628.681-1.074 2.725-1.713 4.607-.708 2.322 1.692 3.083 3.92 4.911 5.298 1.906 6.045 1.628 11.516-1.595 18.292.001.497.005.77.007 2.052 0 3.434-.059 7.664-1.202 10.021c-.676-1.706 3.393-5.56 5.032-6.748 1.258-2.279 2.28-3.986 2.439-4.977 2.004-1.752 4.337-3.579 6.48-4.065.277-1.277 4.28-4.334 4.373-4.766.269-.15.054-.294-.296-.392-.637-.168-1.156-.162-1.737-.339a16.02 14.01 0 0 1 1.647-.329 6.027 6.027 0 0 1 6.1 4.199 63.937 9.273 0 0 1-3.315 1.22 606.78 168.686 0 0 1-3.312 3.333 10.089 10.087 0 0 0-6.994 6.652c.033.041.072.041.071.034.338.053.878.161 1.074.178.29.229.576.084.112-.104.229-.381.147-.673.182-1.078a4.113 4.113 0 0 1 .628 3.843 6.006 6.006 0 0 1-.958 1.433 13.996 13.996 0 0 1-2.33 1.28 416.78 177.796 0 0 1-3.38 3.07 606.7 146.61 0 0 1 0-2.329 14.022 14.022 0 0 1 4.632-.849h.354z" fill-rule="nonzero"/><path d="M28 17c0-3.183-1.264-6.235-3.515-8.485a11.996 11.996 0 0 0-16.97 0A11.996 11.996 0 0 0 4 17v4a7 7 0 0 0 7 7h10a17.962 16.962 0 0 1 18 4c5 3.38 0 7.666 3.37 6.07 5.008z" fill="#d79982"/><path d="M31 5.5a1.503 1.503 0 0 0-1.5-1.5 1.503 1.503 0 0 0-1.5 1.5v2.003zM9 18.507C35 22.528 32.5 24 25.5c5.5129 0 1.446-.069 1.535-.845h1.66c.568-.119.658-.371 1.275-.486.412 1.234-1.055 1.687-2.041a.998.998 0 0 0-.809.407" fill="#664500"/></g></svg>
