<svg xmlns="http://www.w3.org/2000/svg" viewBox="0 0 128 128"><ellipse cx="64.1" cy="75.05" rx="43.74" ry="18.93" fill="#d65a8.5"/></svg><use xlink:href="#a" overflow="visible" fill="#FCC21B"/><path d="M107.29 118.01c.5-.31 7.6-7.96 14.82-10.53l51.4 4.19a6.5 5.5 0 0 1-4.97.77l-4.02-4.67-4.16 3.39-6.48 1.25z" fill="#ebaf0a"/><path d="M36.15 61.94c.04 1.87-.31 3.86-.91 5.54.21 5.18 3.08 10.01 7.75 12.78 5.99 1.72 13.78.66 17.85-2.8 2.64-1.21 6.82-2.22 9.52-3.25-.61.09-1.39-.03-2.94-.22-5.94-2.08-6.71-11.77-5.41-13.37.78-1.1 2.22-1.37 3.24-.75 1.11.37 1.65 1.32 1.26 2.41.36 1.07-.05 2.4-.05 3.26-.11 5.53-.64 9.6-3.9 14.39-5.04 5.5 0 8.64 4.79 9.04 3.95 1.97 8.04-1 8.08 4.96.03.01.07.01.07 0 2.81 6.69 10.03 10.3 10.41 1.24 3.74 1.32 7.38 2.15 9.78.52 2.1-.07 4.51-.15 4.65-.16.71-.51 1.78-.81 2.47-.22 0-.43-.01-.63-.13zm88.41 76.68c.58-.11 1.75-.14 2.51-.07 5.59.06 11.28-.47 13.64-.4.67-1.27 1.48-2.83 1.3-5.51.07-1.15-.14-2.11-1.22z" fill="#2f2f2f"/><path d="M127.6 94.24c-1.77.78-2.78 1.01-3.73 1.68a6.816 6.816 0 0 0-6.1 6.31c-.64 0-1.27.06-2.27.13-1.66.03-2.86-1-3.37.07.02.1.1 2.68 1.68 4.54 2.06 2.51.75 3.92 1.08 5.59 1.03 3.4.02 7.21-1.29 7.51-3.5.31-.01.8-.07 1.21-.07.29-.03.5-.04.28-.01.18.02 2-.94 2.04l.14-.01c3.02-2.74 4.97-6.12 4.42-10.53 2.9-2.34 6.73-4.52 9.78-3.62l5.2-3.34c-.67-.09-1.68-.4-2.61-.2z" fill="#2f2f2f"/><path d="M19.82 82.86a77.31 77.51 0 0 0-6.77-3.77c-2.19 1.57-3.68 7.29-3.67 11.55-.05.44.12 1.08.2 1.78 0 19.61-2.43 31.71-2.71 31.88-4.8 1.88-.98 3.75-.44 5.48 1.5 1.6.95 3.14 1.6 5.12 1.05 2.63-.44 3.78-1.85 5.11-2.2.63-1.27 1.94-2.83 3.09-3.72 3.69-1.04 8.14.76 11.27 3.31.45.07.9.69.62.74.48 4.06 3.94 9.45 7 .08 7.76 0 14.16-1.4 15.5-2.39 7.64-7.99 62.56-10.92 65.97-29.48-1.41-1.3-3.29-3.06-7.42-3.32-2.34.77-4.21 2.39-4.56 6.96-.74 9.63 2.77 17.04 15.79 18.05 19.88 3.71 25.72 6.19 32.02.63 7.06 3.49 9.35 4.04 1.44 1.72 3.59 2.11 5.03 3.23.1.19.18.37.28.52.2.99.42 1.37.93 1.66 1.97 1.89 3.08 3.59 3.38 6.39 1.14 1.77 1.44 3.41 1.61 5.51.67 2.09 1.43 3.9 1.64 6.31z" fill="#2f2f2f"/><path d="M86.15 4.06c.43.21.83.4 1.27.38.55.16 1.07.27 1.63.08.18.28.32.57.5.86.48.85 1.14 1.16 1.43 2.07.33.56.66 1.23.83 1.89-1.63 7.72-3.21 15.72-12.4 15.52-3.68 20.6-1.63 30.55-1.45 5.83-4.7 16.63-10.87 22.57-3.55 5.76-5.85 11.89-9.51 16.17z"/></svg></svg>
