<svg xmlns="http://www.w3.org/2000/svg" viewBox="0 0 47.5 47.5"><defs><clipPath id="a"><path d="M0 38h38V0H0v38z"/></clipPath></defs><g clip-path="url(#a)" transform="matrix(1.25 0 0 -1.25 0 47.5)"><path d="M36 19c0-9.389-7.611-17-17-17C9.612 2 2 9.611 2 19c0 9.388 7.612 17 17 17 9.389 0 17-7.612 17-17" fill="#ffcc4d"/><path d="M25 17.5a.502.502 0 0 0-.158.975l9 2.999a.5.5 0 1 0 .316-.948l-9-3.001A.511.511 0 0 0 27 16.5M25.999 14.5a.5.5 0 0 0-.097.99l10 2c.26.054.534-.12.588-.392a.498.498 0 0 0-.392-.588c-2.647-.612-3.5-1.918-5.596-12.14a1 1 0 0 0-.901-2.899c.135-.017 2.263-1.8 1.385-3.088a1.053 1.054 0 0 1-.367-.495 1.022 1.022 0 0 1-.306-.209 1 d 0 1-1 0-3h-.012.011-.001.011-.001.021.001.01a.995.996 0 0 0 18.998 19h.95v-2.998c.111.313.434.756.63 1.15a1 1 0 0 1 .772 1.561M27.999 24.532a.502.502 0 0 1-.593-.799.505.505 0 0 1 .586-.23.5.5 0 0 1 .587.068c.414.047 5.145 4.148 4.485 3.934.121 2.147-.387 2.339-1.847 3.998-.778 1.11.946 2.36 2.836 3.295.75.979 1.537 2.187 2.539 2.749.775.99 2.161 2.443 3.294 3.045l.105-.06c2.007-.008 3.516-.202 7.706-.921A3.001 3.001 0 0 1 18 20.861a13.98 13.98 0 0 1 4.536-.838h.348z" fill-rule="nonzero"/><path d="M28 17c0-3.183-1.264-6.235-3.515-8.485a11.996 11.996 0 0 0-16.97 0A11.996 11.996 0 0 0 4 17v2a9 9 0 0 0 9 9h6a9 9 0 0 0 9-9v-2z" fill="#fbc546"/><path d="M16 3l-2 4-6-2 2-4 4" fill="#fff"/></g></svg>
