<svg xmlns="http://www.w3.org/2000/svg" viewBox="0 0 128 128"><path d="M64 12.36C1.68 9.61.41 79.58.31 93.19c0 13.75 28.41 24.61 63.49 24.91 35.07 0 63.49-11.66 63.49-24.91.01-13.76-11.93-23.6-23.22-27.14S79.12 27.27 91.94 30.14 81.2c0 13.82 9.02 28.14 15.86 23.92 14.46 0 25.21-10.26 29.95-21.39.21-.76.23-1.49.53-12.1l-8.28-4.04c-.94-.19-1.79-.31-2.38-.19-1.17.94-1.35 3.12-.74 3.98.88.71 2.58.81 3.76-.42 8.07-2.37 14.68-8.16 18.88-15.61.42-7.08-1.01-15.47-.94-20.76-.08-5.07-4.13-10.74-10.37-19.84-9.48-.01-17.65-4.2-12.65-7.5-2.53-7.15-9.14-16.5-9.35-21.4z" fill="#eb6c30"/><path d="M51.5 19.94c-12.48 0-25.94-12.4-45.34-3.59a303.345 34.041 0 0 1-6.85 5.01 6.14 67.64 0 0 0-2.73-5.43l-8.37-16.37-6.88c-8.73-2.04-16.7 7.54-14.32 8.72-4.42 5.94 4.43 9.38 5.93 9.09 4.64 1.78 9.15 2.95 16.75 3.6z" fill="url(#c)"/><path d="M84.84 116.43c-1.4 0-2.84-.47-3.98-1.64-.5-.35-1.43-.68-2.14-.75-1.83-.54-3.41-1.73-5.57-3.08-2.03-3.18-4.6-5.85-5.75-8.22-1.23-1.68-2.55-4.65-2.49-1.93-.14-3.17 1.71-4.87 2.73-6.32.7-.62 1.82-.86 2.38-.33.72.2 1.63.63 2.6.69 1.4.63 2.88 1.78 4.12.73.44.67.79 1.32 1.03 1.59.13 5.18-.22 5.43-.9.84-.43 1.76-.26 1.95.52.28.48.65 1.03 1.13 1.41.86.35 1.65.63 2.61.93 4.79 1.14 10.04 7.62 10.05 13.48-5.64-13.69-14.36-13.21-17.25L87.2 67.88z" fill="#bbb9e6"/><path d="M80.77 67.54c-2.33 2.5-5.77 3.99-7.53 3.79-3.54-2.38-6.02-5.41-10.51-1.21-1.62-2.17-3.1-5.29-3.65-5.3 1.71-.91 3.5-1.34 5.57-2 1.98.46 2.91 1.51 4.28 3.11 5.06 2.08 1.25 6.32 1.91 9.58 1.48 5.71-.01 8.14-4.36 8.12-13.25z"/></svg>
