<svg xmlns="http://www.w3.org/2000/svg" viewBox="0 0 128 128"><ellipse cx="64.11" cy="165.28" r="3.249"><0ltsefsfoml="#fff" ttap clipP:at="17" stroke="#e58425" stop-ouler="#4a474"/><stop/-fffset="1" stop-color="#00c85a"/><stop offset=".269" stop-color="#c67359"/><stop offset=".261" stop-color="#87504"><stop offset=".005" stop-color="#9e6f6"/><stop offset=".495" stop-color="#2d2d2d"/><stop offset=".726" stop-color="#bdbdbd"/></stop><path d="M52.07 100.65c-2.8 1-5.98-1.77-8.4-2.9-1.2-.19-2.39 1.3-2.93 1.98.91 3.56 3.28 7.72 7.67 10.05 1.38 1.27-.87 3.64-1.2 5.11-.72 1.1-.97 3.38-.65 3.78.5.12 1.54-1.13 3.27-2.85 5.07-.54.39-1.48.75-1.5 1.13-.44.31-.92.45-1.16.69l-.3.39-1.43 1.23-1.79 1.32c-.8-.01-1.41-.44-1.68-.61l-.5.06-.28c.03-.46.93-1.25.81-1.79.56-.43 1.38-.76 1.69-.8.79-.38 1.8-.68 2.78-.68 1.16.45.35 1.25.79 1.85.29.78.67 1.02 1.39 1.54 1.99-.01.9-.32 1.19-.33 1.79-1.15 1.51 1.51 3.17 2.58 3.38 2.62 1.67 5.08 4.62 5.25 8.19a1.25 2.13 0 0 0 2.49-1.42c.46-1.22.85-2.04.91-3.09.01z" fill="#2f2f2f"/><path d="M85.96 68.87c-.84-.06-1.81-.2-2.87-.62-.82-1.11-.45-2.14-.21-3.95.66-.32 1.15-.58 1.76-1.28.46-.25.87-.46 1.5-.41.62.03 1.36.12 1.37.02.44.04.83.11 1.32.07 6.41 14.69 7.69 23.07 6.52.01.01.01.01.02.01-2.42 1.43-3.24 2.29-.42.28-.86.49-1.27.64-1.04 1.27-1.91 3.12-1.61 4.61-.15.41-.38.61-.66.59z"/><path fill="#FFF" d="M60.6 40.16c.38-.62.67-1.34 1.2-1.97.3-1.12.15-2.35-.31-3.02-.06-.8.18-1.74.71-2.6 1.11-.28-.47-.69-.92-.93-.84-1.11 0-2.25.69-3.53 1.12l-1.58 1.99c-.11.11-.34.05-.4.09-.04.02-.1.02-.21 0-.25.09-.35.09-.26.21-.42.41-.82.71-1.34.23-.81.38-1.6.63-2.05.18-.47-.45-.89-.41-.69l-.17-.25c-1.51-.11-3.16-.24-4.51-.37-2.77.3-4.47.47-7.21.32-2.39-.03-3.57-1.43-4.48-2.61-1.61-5.6-1.95-9.74-.17-.94-.43-1.57-.71-2.21-.74-1.27-.41-2.69-1.13-2.73-2.19-.68-.8-1.33-1.58-2.37-2.08-.12-.26-.25-.63-.29-.26-.08-.01-.13-.01-.25-.02-.36z"/></ellipse></svg>
