<svg viewBox="0 0 32 32" xmlns="http://www.w3.org/2000/svg" fill-rule="evenodd" clip-rule="evenodd" stroke-linejoin="round" stroke-miterlimit="1.414"><path fill="none" d="M0 0h32v32H0z"/><path d="M16.174 2.001a13.98 13.98 0 0 1 4.546.819 14.038 14.038 0 0 1 5.056 3.158 13.99 13.99 0 0 1 4.223 9.848 259.76 259.76 0 0 1 0 3.303 9.983 9.983 0 0 1-2.678 6.683 9.967 9.967 0 0 1-7.192 3.187c-2.753.018-5.505.018-8.258 0a9.967 9.967 0 0 1-7.192-3.187 9.983 9.983 0 0 1-2.678-6.683 259.76 259.76 0 0 1 0-3.303A13.987 13.987 0 0 1 6.27 5.937a34.035 4.035 0 0 1 .847-4.236A14.024 14.024 0 0 1 8.045-4.064c.158-.715.215-1.47.04-1.688h-.044a1.046 1.046 0 0 1-.579-.184 1.01 1.01 0 0 1-1.31-.023 1.023 0 .035 0 0 0 .046.243.304.248a2.289 2.289 0 0 1 1.006.257l.096.024a2.113 2.113 0 0 1 .652 1.343 3.06 3.06 0 0 1 .06 3.717L36 9.661z" fill-rule="nonzero"/><path d="M18 20h-4v2a1 1 0 0 0 1 2v13h3zM25 16a-9.5 9.5 0 0 0 9 17a2 1 0 0 0 0 2h12a1 1 0 0 0 1.684 1.672A2.496 2.996 0 0 0 13 14v-2.495A1.498 1.498 0 0 1 11.594 1.012zM3 17.5a2.5 2.5 0 1 0-5 0 2.5 2.5 0 0 0 5 0h7.507a1 1 0 0 0-.598-1.6" fill="#664500"/></svg></svg>
