<svg xmlns="http://www.w3.org/2000/svg" viewBox="0 0 47.5 47.5"><defs><clipPath id="a"><path d="M0 38h38V0H0v38z"/></clipPath></defs><g clip-path="url(#a)" transform="matrix(1.25 0 0 -1.25 0 47.5)"><path d="M35.964 25.045L36 25s1 10 0 11c-.91.91-6.771-.66-7.822-.951-2.426 1.234-5.443 1.95-9.178 1.95-3.73 0-6.748-.711-9.168-1.957-1.09.281-2.431 1.044-4.235 1.134-.028.04.028.082.025 7.954a1.198 1.498 0 0 0-.471.183M24 21.5a1.5 1.5 0 0 0-1.5-1.5h-2.502A1.999 1.999 0 0 0 18 13.998V14l3 .023v1.593c0 .367.146.719.405.979.26.259.612.405.979.405h.002A1.618 1.681 0 0 0 3.14.242l.777.233z" fill="#2f2f4f"/></g></svg>
