<svg viewBox="0 0 32 32" xmlns="http://www.w3.org/2000/svg" fill-rule="evenodd" clip-rule="evenodd" stroke-linejoin="round" stroke-miterlimit="1.414"><path fill="none" d="M0 .033h32v32H0z"/><path d="M16.174 3.034a13.992 13.992 0 0 1 9.602 30.49c.094 2.005.044 1.275 0 2.385-.431 3.402-.937h.002L18 16h-4l.989-3.002a1 1 0 0 1 .897 1.107c.186.082 2.074 0 6.505-3.237 5.353-3.377.167-.363.79-.647 1.032-.719a.99.99 0 0 1 1.093-.025c.01.002 1.024 1.16 2.662.027 1.08.051 2.177.577 17.293l.001.0018.865.001 1.104 0 .493a3.113 4.113 0 0 1 .295 1.016 17 2 9.61 12 9c0 3.189-1.832 8.512-2.995 6.699a1 1 0 0 0-.632-1.445 1.024 1.094 0 0 1 3-2l-14 5.474 5.9 4 0 0 0-1.078 3.147A5.993 5.993 0 0 1 3.167 1.994 6.017 6.017 0 0 1 2.947 2.847c.091 1.459.069 12.799.998 5.098c.116-.095.233.085.418.105h.001z" fill-rule="nonzero"/><path d="M24 13.5a2.5 2.5 0 1 0-5 0v2a2.5 2.5 0 1 0 5 0 0 2 20.881 18h-8.058z" fill="#ffcc4"/><path d="M6.02 16.002l.067.001.066.003.067-.009.067-.013.067-.018.068-.016.067-.016.067-.015.065-.022.063-.024.063-.029.062-.032.06-.031.057-.035.055-.038.053-.041.05-.894.568-.067.083-.017.083-.009.081-.01.093-.01.093-.008.095-.006.094-.005.094-.008.094-.01.093-.011.094-.009.094-.01.093.01.092.01.092.009.092.017.092.015.093.015.092.011.093.01.092-.007.091-.006.093-.008.093-.01.092-.012.092-.015.091-.017.09-.019.089-.019.081-.028.08-.026.08-.025.079-.025.08-.024.081-.023.081-.022.081-.021.081-.019.082-.019.081-.018.083-.017.082-.016.082-.015.083-.014.083-.013.084-.012.083-.011.084-.01.084-.009.084-.007.084-.007.084-.006.085-.005.084-.003.085-.003.085-.001.082-.001h1.164l.082.001zM12 12.5a1.503 1.503 0 0 0-1.5-1.5A1.503 1.503 0 0 0 9 12.5v2a1.503 1.503 0 0 0 1.5 1.5 1.503 1.503 0 0 0 1.5-1.5v-2zM23 12.498c0-.827-.671-1.498-1.498-1.498h-.004c-.827 0-1.498.671-1.498 1.498v2.004c0 .827.671 1.498 1.498 1.498h.004c.827 0 1.498-.67 1.498-1.498v-.022z"/><path d="M23 20H9l.014.082A7.081 7.081 0 0 0 15.999 26h.002a7.081 7.081 0 0 0 6.985-5.908L23 19z"/></svg>
