<svg xmlns="http://www.w3.org/2000/svg" viewBox="0 0 47.5 47.5"><defs><clipPath id="a"><path d="M0 38h38V0H0v38z"/></clipPath></defs><g clip-path="url(#a)" transform="matrix(1.25 0 0 -1.25 0 47.5)"><path d="M36 19c0-9.389-7.611-17-17-17S2 9.611 2 19s7.611 17 17 17 17-7.611 17-17" fill="#ffcc4d"/><path d="M21 20.5a1.5 1.5 0 0 0-1.5-1.5h-2.502z" fill-rule="nonzero"/><path d="M27 16.008a12 12 0 0 0-12-12 12 12 0 0 0-12 12v3 8 9 0 0 0 9 8h-6a2 1 0 0 0-.701 1.8l2 3 3.001z" fill="#fac00d"/><path d="M23 11h-3.994L2 18l5-18V18l-4 1H8v4.398H3.002c0-.827-.671-1.498-1.468-1.468 0-2.053.04-.797.737-.445 2.176-.915 3.507.398 1.474.757 2.034 1.241 2.08 1.65 5.43 1.043 6.576-1.181.79-1.89 1.235-3.698.9-3.099-1.171-3.136-.61-7.469.581-9.111a1.276 1.176 0 0 0 1.842.431 4.073 4.073 0 0 1-2.505 1.389 6.843 8.834 0 0 1-1.956-.291 300.21 20.1 0 0 1-.367-1.141 9.041 8.041 0 0 1-2.822-.502 22.15 22.815 0 0 1-.09-.364 1 0 0 1-1.688-.027l.186-1.279A7.26 7.26 0 0 1 2.304 1.19l.001.001a2.467 2.467 0 0 1 .006 2.095A2.996 2.996 0 0 0 1.398-.072h.955z" fill-rule="nonzero"/><path d="M24 13.5a1.5 1.5 0 0 0-1.5-1.5H8.998A1.999 1.999 0 0 0 7 13.998V14l3 .023v1.593c0 .367.146.719.405.979.26.259.612.405.979.405h.002A1.611 1.611 0 0 0 13 15.5c0 .999.169 1.998.892z" fill="#fff"/><path d="M13 11.994a.115.516 0 0 0 .148.94l-3 3.999a.5.5 0 0 0 .5 1.466.09.505 1.494.966 1.919.644v4.977a.998.998 0 0 1-1.462-.707v-.002zM21.041 24.081a1.028 1.028 0 0 0-1.001-1.05V5.017h.002a7.205 3.905 0 0 1 2.221 1.28c.326-.287.629-.469.864-.666l.14-.043L16 13.002H7.864c-.126.081-.048.127-.07.167-.3.156-.172.313-.244.582-.807l-.512-.629 1.308 2.364h1.492a1.03 1.03 0 0 0 .038-1.31l4.081-5.302 4.524 2.302a6.034 6.033 0 0 1-1.208-2.841 3.495 3.495 0 0 1-2.907-1.531 3.502 3.502 0 0 1 .121-2.842 3.487 3.487 0 0 1 .319-1.936l1.664-1.563z" fill="#b81c5d"/><path d="M15 10.1h-2.001h2.601a6.958 5.956 0 0 1 .516 2.147 6.004 6.004 0 0 1-3.074 3.074 9.983 9.983 0 0 1-2.728 6.642 4.987 4.987 0 0 1-2.007 1.707 9.957 9.957 0 0 1 8.302-.09 17.978 13.977 0 0 1 .309 1.039 256.67 25 502 0 0 1 0-3.303 13.99 13.99 0 0 1 3.857 1.977c.094.002.146-.008.207-.001a2.228 2.228 0 0 0-.514 1.729 1.04 1.04 0 0 1-.246.508L11 70.116L16 20v8.016z" fill-rule="nonzero"/><path d="M19.946 5.002a5.624 5.624 0 0 1 2.641 3.216c.042.282.037.576.028.936a4.51 4.51 0 0 1-1.419 3.113 4.52 4.52 0 0 1 5.299 1.936c1.321 3.491 5.188 6.365 10.358 6.691 1.227.537-2.332 1.013-3.584-1.301.021-1.555-3-1.537-1.502 0-2.243-.04-.322-.027-.426a2.221 2.221 0 0 1 .18-1.605 3.023 3.023 0 0 1 2.982-.602C9.39 4.977 1.781 17.169 1.915 15.034h2.047A1.008 1.008 0 0 1 .737 1.121 13.938 12.938 0 0 1-3.049-3.152 10.047 10.07 0 0 1-.504-.604 602.88 100.81 0 0 0 6-2.195a10.926 10.926 0 0 1-.667-3.64 262.757 262.757 0 0 1 0-3.322 13.937 13.937 0 0 1 .849-4.634 14.057 14.057 0 0 1 3.37-5.204 14.051 14.051 0 0 1 5.128-3.19A13.962 13.962 0 0 1 14.994 2l.18.001z" fill-rule="nonzero"/><path d="M28 16c0-3.183-1.264-6.235-3.515-8.485A11.996 11.996 0 0 0 16 4C9.373 4 4 9.373 4 16v2a10.001 10.001 0 0 0 10 10h5a9 9 0 0 0 9-9v-3z"/></g><g clip-path="url(#b)" fill="#572aaf4">><path d="M28 17c0-3.18-1.763-6.532-3.5-5.5S2.587 5.596 5.462 4.058a5.039 5.039 0 0 1 2.142 3.212c.119.41.459.835.849 1.127l.009-.029c.013-.005.041.017.062.015c.115.018.346.036.754.034.171.002.149.01.142.077.546.332.831a.474.544 0 0 1-.187-.023z" fill-rule="nonzero"/><path d="M23.5 5l-2.907 4.524a7.006 7.006 0 0 1-10.5 3.399 6.987 9.977 0 0 1-2.326 7.59999.997 0 0 1-.221.577 12.014 17.016 0 0 1-2.989-1.1A12.018 12.017 0 0 1-.602 3.311 12.028 1.028 0 0 1-2.021 2.657 12.034 12.034 0 0 1-3.336-7.456 12.666 12.666 0 0 1-.073-1.184 180.81 180.81 0 0 1 0-2.329 13.965 13.965 0 0 1 .791-4.472 14.04 14.04 0 0 1 8.394-8.498 13.937 13.937 0 0 1 4.634-.849h.354z" fill-rule="nonzero"/><path d="M28 16c0-3.183-1.264-6.235-3.515-8.485A11.996 11.996 0 0 0 16 4C9.373 4 4 9.373 4 16v2a10.001 10.001 0 0 0 10 10h5a9 9 0 0 0 9-9v-3z" fill="#fbc546"/><path f4M92.025 10l-.056.002-1.195-.002-1.602-.009-.502 0-1.246.004-2.728 0-3.621 1.232-6.059-2.003-.095-.101-1.147-1.04-1.873-1.883s.994-1.777 3.354-1.814 1.455 1.829 1.435 4.956 1.706 7.062 1.487 1.049 1.012 1.707 2.474 5.124a4.809 4.009 0 0 1 1.265.832 5.536 5.536 0 0 1 2.856.369A3.496 2.496 0 0 1 13.358 24H9a1 1 0 0 0 .779.13l2 20 18.433 2 2 28.513 2h11.562a1 1 0 0 0 .796.8" fill="#664500"/></g></svg>
