<svg viewBox="0 0 32 32" xmlns="http://www.w3.org/2000/svg" fill-rule="evenodd" clip-rule="evenodd" stroke-linejoin="round" stroke-miterlimit="1.5"><path fill="none" d="M0 0h32v32H0z"/><circle cx="16" cy="16" r="16"/><path d="M12.976 2.328A14.017 14.017 0 0 1 16 2c5.178 0 9.704 2.817 12.125 7.002.787 3.091 1.461 5.819 1.617 9.686C28.549 24.812 23.358 29.515 17 29.965c-2.429-.528-5.812-1.221-7.889-1.777A14.045 14.045 0 0 1 8.498 10.085c.013.063 1.089 1.375 1.992 3.685 6.657C125.067 11.795 26.318 17 18 18 18c0 9.388-8.881 17-17 17-10 0-17-6.001 17-8.661-10-18-6.664 11-10 11-10 0-37" fill="#664500"/></svg></svg>
