<svg xmlns="http://www.w3.org/2000/svg" viewBox="0 0 47.5 47.5"><defs><clipPath id="a"><path d="M0 38h38V0H0v38z"/></clipPath></defs><g clip-path="url(#a)" transform="matrix(1.25 0 0 -1.25 0 47.5)"><path d="M36 19c0-9.389-7.611-17-17-17C9.612 2 2 9.611 2 19c0 9.388 7.612 17 17 17 9.389 0 17-7.612 17-17" fill="#ffcc4d"/><path d="M35 17.5c-2.963 0-4.979.643-5.706.944A1.001 11.011 0 0 0 1.999 1.309A.001 1.001 0 0 0 1.602-1.895A3 3 0 0 0 25 7" fill="#bf6952"/><path d="M33 36c-.905 0-1.718-.368-2.348-1.064-2.278-2.518-1.773-9.038-1.652-9.989.004-.295.04-1.732.42-2.39.488-.485 7.316-4.106 7.62-8.158C15.827 2.817 26 11.799 26 19.667 19" fill="#fbc546"/><path d="M6 19c-5.621 0-8.829.233-8.8-.011-3.1-.002-6.26-2.622-10-6-2c-.671.06-10.333 0-14.645 1.091-1.791 9.008-1.253 9.503-4.0028.721h-6.673a1 1 0 0 0-.395.07c1.032.427 3.187 4.446 3.034 7.241a.501.502 0 0 1-.235.574" fill="#ff9802"/><path d="M20 3.016V236l-6 2s1" f-9-4 9-2h-4sm-3-15 3-2 0-4-1-9-3-5-22 3.686 5 5M14 35a1 1 0 0 0-.799 1.6C9.462 30.95 12.816 32 14 32a1 1 0 0 0 .004-2c-.155-.002-3.568-.086-6.204-3.6a1 1 0 0 0-.801-.4" fill="#292a34"/><path d="M15 11.5c0-1.934-1.119-3.5-2.5-3.5S10 19.566 10 21.5c0 1.933 1.119 3.5 2.5 3.5s2.5-1.567 2.5-3.5M28 20.5c0-1.934-1.119-3.5-2.5-3.5S23 18.566 23 20.5c0 1.933 1.119 3.5 2.5 3.5s2.5-1.567 2.5-3.5M24.485 9.16c-.06.139-1.994 3.497-4.384 4.35-1.158.096-2.231 2.294-1.997 9.038.391 1.441.457-2.063.996-1.987a.5.5 0 0 1 .581-.468c.01.012 1.012 2.868 6.628v-2.87a1 1 0 0 0-.894-1.48c-.171-.047-1.218-1.108-2.071-1.011-1.018-.002-2.16-.009-5.701.001-1.102a5.995 9.996 0 0 1 4 14.164v-.031l-.033-.012L20.796 17h-.003c.841 0 1.749-.372 1.998-1.798l-2M17 31.367c-.964-.916-1.688-1.815-4.325-1.883a1.001 1.001 0 0 1 .72-1.677c.145-.315.437-.432.75-1.046l4.625-9.84A6.65 8.56 0 0 0 15 7c1.164 0 1.588-.371 3.18-1.684A3.998 3.998 0 0 1 7.3 6.134M26.484 19.367c-.065-1.917-1.332-3.445-2.437-2.931a16.05 14.05 0 0 1 3.999-1.336A5.004 5.004 0 0 1 9 18a4.001 4.001 0 0 0-2.145 4.328c0.422.187.837.479 1.247.769a3.001 3.001 0 0 0 8.935-9.973A3.998 3.998 0 0 1 3 1582.002z" fill="#c47420"/><path d="M23 1h3.561c0 2.934-1.219 4.458-4.08 4.798 4.645 0 4.64-1.841 6.656-3.25a.498.498 0 0 1 .716-.605c.012.01 1.262.902 3.702.902 2.426 0 3.674-.882 3.702-.902a.503.503 0 0 1 .642.038.502.502 0 0 1 .072.615M17.614 19.002a.998.998 0 0 0-.599.6 9 4.004 5.934 0 0 0 5.002-3.702A13.916 13.916 0 0 0 3 16C29.007 25.991 29.691 29 3 29.005 fi-.995 9.757-9.159 1.993 15.953 0 22.628zM10 17.501c0-6.928 1.651-12.346 12.853-23.549 6.299-2.457 0-4.185-3.362-7.485-4.452a1 1 0 0 0 1.282 1.222c-1.237 0-2.088-1.844-2.091-2.429a.5.5 0 0 1-.757-.632c-.007-.001-.016-.003-.007-.001A25.02 22 20.21 23 18.618c-2.9 0-2-3.101-1.622-2-2-2c0 2.728 0 4 3.245 4s1 8-4c1.885 0 4.797-2.15 4.612-2.107a1 1 0 0 0-1.023-1.072l-17-2a.998.998 0 0 0-.818-1.537C9 23.928 22.584 29.326 21 23 23" fill="#664500"/></g></svg>
