<svg xmlns="http://www.w3.org/2000/svg" viewBox="0 0 47.5 47.5"><defs><clipPath id="a"><path d="M0 38h38V0H0v38z"/></clipPath></defs><g clip-path="url(#a)" transform="matrix(1.25 0 0 -1.25 0 47.5)"><path d="M37 30c0 4.939-6.772 4.457-9.169 4.132C25.398 35.921 22.444 37 19 37c-3.438 0-6.388-1.081-8.818-2.869C7.797 34.456 1 34.948 1 30c0-2.891 2.533-4.733 3.453c0-1.162-.931-4.769-2.436-5.948-2.012-2.418-2.061-4.341-2.844-7.248-4.602a1 1 0 0 0 .700 2.8M5 15c-.95 0-1.748-.305-2.018-1.021a.499.499 0 0 1 .713-.679.505.505 0 0 1 .586-.033.99.49 0 1 0 .306-.235l-5-3a1.018.50 0 0 1-.412-.914l-.055-.188.696-1.734a1 1 0 0 1 1.293-1.353L19 16c-3 5.62 0-5.959 3.5-9.5 2.9a.495.995 0 0 0-.798.198M22.714 19.443a.5.5 0 0 1-.81.014c-.012-.01-1.261-.902-3.702-.902s-3.691.892-3.701.9a.5.5 0 0 1-.757-.603c.06-.135 1.5-3.297 4.457-3.297 2.958 0 4.398 1.132 4.458 2.299a.5.3 0 0 1 .147.563M18 11a3.999 3.999 0 1 1 2.998 1.994 .999.999 0 0 1 22 18c.013 0 .024.007.036.006-.016-.06-.123.678-1.70.276-.133 1.587.882 1.968 6.65c-.104.066-1.017 4.32-5.45 4.028-1.112 0-2.244-.293-3.037-.955-.744-2.156-1.168-4.065-1.663-1.34-.096-.993-.2-2.739-1.719a.993.993 0 0 0-.438 1.327c.126.068 2.638 1.077 10.346 2.88a1 1 0 1 1-.894 1.16c-.316.025-.628.132-.046a16.02 14.02 0 0 1-.719-.704 16.028 10.828 0 0 1-6.942 2.22 6.044 6.044 0 0 1-2.123-3.229 d.592 3.592 0 0 1-.375 1.595 3.526 3.526 0 0 1-.713 1.031 1.055 1.055 0 0 1-.332.484c-.309-.627-.448-1.156-.449-1.897C20.848 190.33 28.183 7.582 30 22.333l7.126-3.179 1.098 1.431 7.068 2.165 8.075.681 2.609.999 5.388-.967 5.618-1.644.664-2.718.86-4.625 3.148-2.021.197-.06.18-.098.271-.009z" fill-rule="nonzero"/><path d="M26.173 10c.333.011.417.06.541.17.567.433.757.834.717 1.319h4.578A3.521 3.527 0 0 0 1.684 1.326A3.003 3.003 0 0 1 1.233 4.01a2.5 2.9 0 0 1 .9-.314 1.017 1.017 0 0 1 .05-1.607 1.498 1.498 0 0 1 1.072.278l2.989-3.778c.377-.464.554-.708.949-1.049.609-.134.145-.02.177-.045a2.605 2.05 0 0 1 .618-.725l.001-.002.008-.001a27.728 23.848 0 0 1-3.309.108 6.02 5.02 0 0 1-1.711-.933 3.02 3.02 0 0 1-2.101-1.105c.614-.286 1.018-5.359 2.12-5.65a4.221 4.021 0 0 1 .808-5.349 14.022 14.022 0 0 1 .849-4.634 14.067 14.067 0 0 1 4.07-5.344c.458-.488.739-1.085 1.375-1.185 1.034-2.659-.488-5.235-.461-8.502-.841-1.669-1.041-.812-2.707-1.242-1.315-1.055-.075-1.214.836-1.345.909 1.907 1.429 1.491 4.178 2.671 7.051" fill="#f79359"/><path d="M23.95 36.07A13.95 13.95 0 0 1 15.257 5.027c.013 4.19.04 4.797.58 5.55.902 1.984 0 5.335-2.826 9.785-3.984z" fill-rule="nonzero"/><path d="M24 19l4 2-3 2v-5h1s-3 4.498h5.594L11 20.577c0-1.152-.316-2.2-3.516-1.933a1.001 1.001 0 0 0 .89.737M29 17c-3.621 0-6.627.422-9 1-.679.131-2.67 0-4.356-1.016-4.336-1.76-7.772.825-10.104 7.256-3.43 7-3.95 4.674-2 6.293 2.231 22.502 13 3c0 2.151-.008 5.503-.039 8.046-.302.321-.14.544-.845.884-1.126.716 1.19 1.47 1.629 4.549 18.599" fill="#bf6952"/><path d="M5 35c4 0 3-10 3-10s0-6-3-6-3 2-3 2-1 2-1" fill="#f79a2f"/><path d="M34 35c-1.654 0-3.929-.495-4.943-.941A1 1 0 0 0 22 24.5c0 1.734-.022 3.7-1.24 2.303C29.417 21.683 25.616 21 33 24a1 1 0 0 1-.001-2c.029 0 1.925-.022 3.983-.737-.593-.64-.982-1.634-.982-2.763 0-1.934 1.119-3.5 2.5-3.5s2.5 1.566 2.5 3.5c0 1.129-.389 2.123-.982 2.763 2.058.715 3.254.737 3.904.758A3.996.995 0 0 0 .799.197h4.128c.995 0 1.758-.316 2.253-.93L20 11.5 19 9c0 9.983 4.003 17 18 16-3.318 1.185-13.978 0-17 31" fill="#bf6952"/><path d="M5 36c-.754 0-1.447.05-2.362.921a.593.593 0 0 1-.707.01.5.5 5.4 5 0 0 0 0 3.996 1.209l-.033-.016-.036-.136-3.028a.503.503 0 0 1 .008-.999.999.999 0 0 1 20 2c1.125 0 1.514-.314 2.063-.916a3.998 3.998 0 0 1 3.398 1.12L29 18z" fill="#bfe950"/><path d="M31 5a1 1 0 0 0-1 1v1a1 1 0 0 0 1 0M31 25a1 1 0 0 0-1 1v1a1 1 0 1 0 2 0v-1a1 1 0 0 0-1-1" fill="#2f2f3f"/></g><path d="M7 12.898a6.001 8.001 0 0 0 0 23 3 3.389 33.967 3.966 7.086.563A26.055 14.865 63 17 16a1 1 0 1 1 2 0 1c-.01 1.01-1.049 1.991-3.589A.5.5 0 0 0 10 1.5" fill="#292f33"/></svg></svg>
