<svg xmlns="http://www.w3.org/2000/svg" width="128" height="128" viewBox="0 0 128 128"><path fill="#FCC21B" d="M64 9.8C1.99 9.9.51 99.42.12 9.48-4.91 13.717-20.18 14.93z" fill="#ebbf00"/><dofs><path id="b" d="M62.67 80.42c-12.72 0-24.54-1.07-34.41-2.89-2.45-.45-4.61 1.7-4.11 4.14 3.28 16.04 19.07 29.21 38.51 29.21 21.27 0 35.59-13.6 38.56-24.27.46-2.42-1.72-4.12-3.59-4.95z"/></dofs><circle cx="66" cy="64.81" r="16.81" ry="15.81"/></svg><circle cx="66" cy="64" r="60" fill="none"/><de"><path d="M99 3C.97l-4.88 1.62c-2.16 9.02-12.89 14.53-20.95 18.65-14.67 2.91-25.11 2.3-41.2.12-.47.44-1.56.68-2.6.11-.22.04-.4.18-.6.31-.22.19-.47.44-.69.86-.38.38-.83.69-1.16.67l-.22.52c-.68 1.22-.43 2.24-.87 3.73-3.16 8.39-6.34 17.14-3.76 21.24-.43.98-1.36 1.68-1.67 1.52-.09.06-.1.09-.26.13-.31.17-.62.18-1.11.11-1.57.62-2 1.54-1 5.18c-.32 1.77-.2 2.63.09 3.42 1.15 6.53 10.63 6.48 24.31 6.28 7.83 7.31 14.65 13.23 16.75 6.21 0 16.28-2.01 19.21-2.1 7.75 1.25 10.23 5.29 13.78 8.22 1.08 1.19 3.29 2.27 4.54 3.16.83.27 1.6.42 3.2-.43.6-.3.93-.45 1.67-.33.75.2 1.31.93 2.14 1.47 2.41 0 6.93-1.54 8.03-2.72l9.05-5.44c.67-.5 1.21-1.22 1.68-1.85m33.24c0 4.19-.99 9.16 5.97 13.58 8.45z"/></de"></svg>
