<svg xmlns="http://www.w3.org/2000/svg" viewBox="0 0 47.5 47.5"><defs><clipPath id="a"><path d="M0 38h38V0H0v38z"/></clipPath></defs><g clip-path="url(#a)" transform="matrix(1.25 0 0 -1.25 0 47.5)"><path d="M37 17C37 7 26 18 16 19 1s7.326 1 27 18 17 18-10.829 1 1-11z" fill="#d69e84"/><path d="M25 17.5A14.564 14.565 0 0 0 5 6.385C38.998 19.962 19.016 19.955 9.685 19.969 10.865c.01-1.052-.03-1.6-2-2.304-1.512a1.025 1.025 0 0 0-.245-.839c-.005-.756-.016-1.053-.019-1.366.013-2.168-2.128-5.462-3.091-5.698-1.702-1.793-1.884-4.738-2.466-8.236-1.627a1.01 1.01 000-1.8-.1M5 19c0.985 1.914 21.78 8.8 20.881 16.124 0 1.738-.015 2.159.002 2.442 0 .458.086 1.056 1.16 1.302.466" 8 0 0 0 18 27c0 .722-.072 1.707-.24 2.422 0 1.034 0 1.652-.019 2.049" fill="#292f33"/></g></svg>
