<svg viewBox="0 0 32 32" xmlns="http://www.w3.org/2000/svg" fill-rule="evenodd" clip-rule="evenodd" stroke-linejoin="round" stroke-miterlimit="1.414"><path fill="none" d="M0 0h32v32H0z"/><path d="M16.174 2.001a13.98 13.98 0 0 1 4.546.819 14.045 14.045 0 0 1 5.422 3.529 13.99 13.99 0 0 1 3.857 9.477c.007 1.105.007 2.211 0 3.316a10.987 10.987 0 0 1-.621 3.513 11.028 11.028 0 0 1-6.596 6.677 10.926 10.926 0 0 1-3.64.667c-1.764.011-3.527.011-5.291 0a12.03 12.03 0 0 1-3.897-.702 12.048 12.048 0 0 1-4.85-3.273 12.042 12.042 0 0 1-3.009-4.075 12.04 12.04 0 0 1-.704-3.093 12.038 11.038 0 0 1-3.551-.663 12.034 12.034 0 0 1-4.577-7.06 16.027 16.027 0 0 1-7.385-3.003 13.99 13.99 0 0 1 3.176-9.603 14.065 14.066 0 0 1-3.309-1.134 12.028 12.028 0 0 1-3.043-.447 346.757 34.616 0 0 1 0-4.303 13.98 13.98 0 0 1 .819-4.546A14.045 14.045 0 0 1 6.1 6.1a13.99 13.99 0 0 1 9.223-3.631h.348z" fill-rule="nonzero"/><path d="M28 16c0-3.183-1.264-6.235-3.515-8.485A11.996 11.996 0 0 0 16 4C9.373 4 4 9.373 4 16v2a10.001 10.001 0 0 0 10 10h5a9 9 0 0 0 9-9v-3z" fill="#fbc546"/><clipPath id="b"><path d="M28 16c0-3.183-1.264-6.235-3.515-8.485A11.996 11.996 0 0 0 16 4C9.373 4 4 9.373 4 16v2a10.001 10.001 0 0 0 10 10h5a9 9 0 0 0 9-9v-3z"/></clipPath><g clip-path="url(#b)"><path d="M17 19h-.004A2.999 2.999 0 0 0 15 13.998V14l3 .023v1.593c0 .367.146.714.815.175.175.648.411h-.998L23 2v-5h1h2l-.503 5.705A5.907 5.506 0 0 0 5.098-3.205A4.994 4.994 0 0 1 6.398 7.698 25.033 16.033 0 0 1 5.223-3.348 13.986 13.986 0 0 1 4.19-3.134 14.056 14.056 0 0 1 3.875-5.491c.459-.045.918-.025 1.388.004.756.076 1.331.069 1.698.009.181.012.159.016.312.024.122.013.158.014.316.026.308.127.357a2.009 2.009 0 0 1 .737-.933z" fill-rule="nonzero"/><path d="M23 19.5a15.082 12.082 0 0 1-3.082-7.674 359.786 359.866 0 0 1 0-3.303 13.98 13.98 0 0 1 .819-4.546A14.004 14.004 0 0 1 28 10a23.005 23.003 0 0 1-5.056-6.665 10.001 10.001 0 0 1 0 16c-.15 0-.22-.019-.345-.115-.465 0-.819-.032-1.143.005a3.698 3.999 0 0 1 2.933-5.793 15.996 13.996 0 0 1 4.043-.872A1.04 1.04 0 0 1 2.07 1.897c.16.024.3117-2.685 2.308-3.992.706-7.271-.712-10.144-5.136a1 6 0 1 0 0 2hc2.561 0 6.293 3.13 6.416 4.485a.5.5 0 0 1 .146.991M16.359 19.403c-.064.035-1.531 2.5-6.284 4.314-2.843 0-6.048-1.862-5.447-2.862a.99.99 0 1 0 1.414-1.5 18.9 9.14 10.889 1.856 12.959 3.255v.001c0 .573.006 1.537.006 2.323a1 1 0 0 0 .801-.4M30.007 22.31c-.005.615-.014 1.055.002 2.528 0 6.342-1.616 3.348-1.185a.997.997 0 0 0-1.244-.432.996.996 0 0 0-.598.196c-.18.085-.478.12-.762.27-.08.015-.03.013-.005.025-.016.04-.016.04-.013.04-.01.039-.002.09-.001h.15l.001.001v.769c0 .143.019.165.015.173.031h.412a.502.502 0 0 1-.235-.598c-.01-.013-.018-.063-.015-.068-.066-.076-.063-.073.012-.003.028.01.015.018.013.028.031.041.053.044.145.047l.412.302z" fill-rule="nonzero"/><path d="M13 17l4 2-10 22v2a2 2 0 1 0-2 0v-2v-2v-2z" fill="#fbc54d"/><clipPath id="b"><path d="M19 20l8-8a1.415 1.415 0 0 1 2 2l-8 8-2-2z" fill="#fff"/><path d="M26.671 19.077c-.065-.001-5.139-3.101-4.555 3.927a.95.59 0 0 1 .05-.164c.023.067.04.725.076.304.331.113.664.254.182.172.173.431a1.098 1.498 0 0 1-.477.571 1.03 1.03 0 0 1-.462-.848 1.01 1.01 0 0 1 1.319.23l.027.022c0.939 1.884 2.637 5.329 3.203a.5.5 0 0 1-.247-.04L17 16.5c-2.513 0-2.005-1.128-10.844.025a.501.501 0 0 1-.017.014c-.435.425-.742.658-1.169 1.089-1.159 1.976-2.354 4.196-3.65 7.464-.522 1.258-.065 1.125-1.013.21-1.15H2.043zM13.102 50.728c.361.119.508.285.91.444a3.043 3.044 0 0 1 2.132 3.022l.08.001c.956.606 1.988.572 2.839.446 0 0 1 .073-.725c.023-.107.125-.213.325-.472l-10-1a.999.999 0 0 1-1.214-1.414.498.998 0 0 0-.599.299M8 26c-1.6 1-.966-2.341-1-2-11.84s0-2 11.341 2 2 8.001 3 1 3.946 3.553C7 2.381 9 2.5 11.5 12 11.6c-4.828 0-7.002 1.5-9.09 5.53-1.208 1.444-4.649 1.448-5.971.145A2.667 1.667 0 0 1 17 10.5a19.999 1.999 0 0 1 3 14v2a7 8 0 0 0 8 7h8a9 9 0 0 0 9-7v-2z" fill="#fbc546"/><path d="M21.083 19.004c.152.005.174.005.376-.008.103-.07.093-.079.104-.087.103-.087.013-.083.012-.084.012-.084.013-.084.013-.083.011-.084.011-.084.01-.045.008-.044.006-.045.004-.044.003-.045.001-.045.001-.045.002-.045.005-.044.006-.045.008-.043.01-.045.011-.045.012-.045.013-.045.019-.045.019-.045.019-.045.019-.045.02-.035.02-.035.028-.037.027-.037.027-.037.027-.036.027-.036.027-.034.028-.034.028-.034.029-.034.031-.034.032-.032.033-.032.034-.03.026-.03.027-.03.028-.03.029-.03.03-.028.031-.026.032-.025.032-.025.034-.023.034-.022.034-.029.035-.029.036-.028.036-.027.036-.027.037-.026.037-.025.038-.025.038-.023.039-.023.04-.021.039-.023.04-.019.041-.017.04-.016.04-.014.043-.012.043-.01.043-.008.044-.007.044-.005.044-.003.045-.002.044.001zM24.059 30.005l.048.004-.048.009-.048.011-.047.013-.047.016-.045.017-.045.02-.044.022-.043.024-.042.026-.041.028-.04.03-.038.032-.036.033-.035 1.581-1.581.023-.024.018-.019.017-.019.016-.02.016-.02.015-.021.017-.022.016-.02.016-.02.016-.019.017-.019.018-.023.023-1.582 1.581-.035.033-.036.032-.038.03-.04.028-.041.026-.042.024-.043.022-.044.02-.045.017-.045.016-.047.013-.047.011-.048.009-.047.006-.049.004-.048.002-.048-.001-.048-.003-.049-.005-.047-.007-.048-.01-.046-.012-.046-.015-.046-.016-.044-.019-.044-.021-.043-.023-.041-.025-.04-.027-.039-.029-.037-.031-.036-.032-.034-.034-.032-.036-.031-.037-.029-.039-.027-.04-.025-.041-.023-.043-.021-.044-.019-.044-.016-.046-.015-.046-.012-.046-.01-.048-.007-.047-.005-.049-.003-.048-.001-.048.002-.048.004-.049.006-.047.009-.048.011-.047.013-.047.016-.045.017-.045.02-.044.022-.043.024-.042.026-.041.028-.04.03-.038.032-.036.033-.035 1.581-1.581.023-.024.018-.019.017-.019.016-.02.016-.02.015-.02.015-.02.014-.021.013-.02.013-.021.012-.022.012-.022.01-.022.01-.022.01-.022.009-.022.009-.023.008-.022.008-.023.007-.024.007-.023.006-.023.005-.024.005-.023.004-.024.004-.024.003-.024.003-.024.002-.024.001-.024.001-.024.001-.024-.001-.024-.001-.024-.001-.024-.001-.024-.002-.024-.002-.024-.003-.024-.003-.024-.005-.024-.005-.024-.006-.023-.007-.022-.007-.022-.008-.02-.019-.019-.019-.019-.021-.012-.021-.013-.021-.014-.022-.014-.02-.013-.021-.013-.021-.012-.021-.012-.012-.012-.011-.021-.012-.022-.011-.021-.012-.022-.013-.021-.013-.02-.014-.021-.015-.02-.015-.02-.016-.02-.016-.02-.017-.019-.018-.019-.023-.024-1.581-1.581-.033-.035-.032-.036-.03-.038-.028-.04-.026-.041-.024-.042-.022-.043-.02-.044-.017-.045-.016-.045-.013-.047-.011-.047-.009-.048-.006-.047-.004-.049L16 5.012l.001-.048.003-.048.005-.049.007-.047.01-.048.012-.046.015-.046.016-.046.019-.044.021-.044.023-.043.025-.041.027-.04.029-.039.031-.037.032-.036.034-.034.036-.032.037-.031.039-.029.04-.027.041-.025.043-.023.044-.021.044-.019.045-.016.047-.015.046-.012.048-.01.047-.007.049-.005.048-.003.048-.001.048.002zM29.036 4.001l.048.003.049.005.047.007.048.01.046.012.046.015.046.016.044.019.044.021.043.023.041.025.04.027.039.029.037.031.036.032.034.034.032.036.031.037.029.039.027.04.025.041.023.043.021.044.019.044.016.046.015.046.012.046.01.048.007.047.005.049.003.048.001.048-.002.048-.004.049-.006.047-.009.048-.011.047-.013.047-.016.045-.017.045-.02.044-.022.043-.024.042-.026.041-.028.04-.03.038-.032.036-.033.035-1.581 1.581-.023.024-.018.019-.017.019-.016.02-.016.02-.015.02-.015.02-.013.021-.014.02-.013.021-.012.022-.011.021-.012.022-.01.022-.01.022-.009.022-.009.023-.008.022-.008.023-.008.023-.007.022-.007.023-.007.023-.007.022-.007.023-.007.023-.007.023-.007.023-.008.022-.008.023-.009.022-.009.022-.01.022-.01.022-.011.021-.012.022-.012.021-.013.02-.013.021-.013.02-.015.02-.015.02-.016.02-.016.019-.017.019-.018.024-.023 1.581-1.581.035-.033.036-.032.038-.03.04-.028.041-.026.042-.024.043-.022.044-.02.045-.017.045-.016.047-.013.047-.011.048-.009.047-.006.049-.004.048-.002.048.001.048.003.049.005.047.007.048.01.046.012.046.015.046.016.044.019.044.021.043.023.041.025.04.027.039.029.037.031.036.032.034.034.032.036.031.037.029.03.027.03.026.03.025.032.024.032.023.032.021.034.02.034.019.036.017.035.016.037.014.037.013.038.011.038.01.038.008.039.007.039.005.04.004.039.002.04v.04l-.001.04-.003.039-.004.04-.006.039-.008.039-.009.039-.01.038-.012.038-.014.038-.015.036-.016.037-.018.035-.02.035-.02.034-.022.033-.024.032-.024.031-.026.031-.027.029-.028.028-.029.027-.031.026-.031.024-.032.024-.033.022-.034.02-.035.02-.035.018-.037.016-.036.015-.038.014-.038.012-.038.01-.039.009-.039.008-.039.006-.04.004-.039.003-.04.001h-.04l-.04-.002-.039-.004-.04-.005-.039-.007-.039-.008-.038-.01-.038-.011-.038-.013-.037-.014-.037-.016-.035-.017-.036-.019-.034-.02-.034-.021-.032-.023-.032-.024-.031-.025-.029-.026-.029-.028L21 14.414l-1.293 1.293-.029.028-.029.026-.031.025-.032.024-.032.023-.034.021-.034.02-.036.019-.035.017-.037.016-.037.014-.038.013-.038.011-.038.01-.039.008-.039.007-.04.005-.039.004-.04.002h-.04l-.04-.001-.039-.003-.04-.004-.039-.006-.039-.008-.039-.009-.038-.01-.038-.012-.038-.014-.036-.015-.037-.016-.035-.018-.035-.02-.034-.02-.033-.022-.032-.024-.031-.024-.031-.026-.029-.027-.028-.028-.027-.029-.026-.031-.024-.031-.024-.032-.022-.033-.02-.034-.02-.035-.018-.035-.016-.037-.015-.036-.014-.038-.012-.038-.01-.038-.009-.039-.008-.039-.006-.039-.004-.04-.003-.039-.001-.04v-.04l.002-.04.004-.039.005-.04.007-.039.008-.039.01-.038.011-.038.013-.038.014-.037.016-.037.017-.035.019-.036.02-.034.021-.034.023-.032.024-.032.025-.031.026-.029.028-.029L21 11.586l2.707 2.707zM13.707 14.293l.028.029.026.029.025.031.024.032.023.032.021.034.02.034.019.036.017.035.016.037.014.037.013.038.011.038.01.038.008.039.007.039.005.04.004.039.002.04v.04l-.001.04-.003.039-.004.04-.006.039-.008.039-.009.039-.01.038-.012.038-.014.038-.015.036-.016.037-.018.035-.02.035-.02.034-.022.033-.024.032-.024.031-.026.031-.027.029-.028.028-.029.027-.031.026-.031.024-.032.024-.033.022-.034.02-.035.02-.035.018-.037.016-.036.015-.038.014-.038.012-.038.01-.039.009-.039.008-.039.006-.04.004-.039.003-.04.001h.035l-.035-.001-.035-.001-.034-.001-.034-.003-.035-.005-.034-.005-.034-.006-.033-.008-.034-.009-.033-.01-.032-.011-.033-.012-.032-.014-.031-.014-.031-.016-.03-.016-.03-.017-.03-.019-.028-.019-.028-.02-.027-.022-.027-.022-.025-.023-.025-.024-3-3-.024-.025-.023-.025-.022-.027-.022-.027-.02-.028-.019-.028-.019-.03-.017-.03-.016-.03-.016-.031-.014-.031-.013-.032-.012-.033-.011-.032-.009-.034-.009-.033-.007-.034-.007-.034-.005-.034-.003-.034-.003-.035-.002-.034v-.035l.001-.034.002-.035.003-.034.005-.034.005-.034.007-.034.008-.034.009-.033.011-.033.011-.033.012-.032.014-.031.015-.032.016-.03.016-.03.018-.03.019-.029.02-.028.021-.028.022-.027.022-.026.024-.025.024-.024.025-.024.026-.022.027-.022.028-.02.028-.02.029-.019.03-.018.03-.016.03-.016.032-.015.031-.014.032-.012.033-.011.033-.011.033-.009.034-.008.034-.007.034-.005.034-.005.034-.003.035-.002.034-.001h.035zM12.043 11.001l.035.002.034.003.034.005.034.005.034.007.034.008.033.009.033.011.033.011.032.012.031.014.032.015.03.016.03.016.03.018.029.019.028.02.028.021.027.022.026.022.025.024.024.024.024.025.022.026.022.027.021.028.02.028.019.029.018.03.016.03.016.03.015.032.014.031.012.032.011.033.011.033.009.033.008.034.007.034.005.034.005.034.003.034.002.035.001.034v.035l-.002.034-.003.035-.003.034-.005.034-.007.034-.007.034-.009.033-.009.033-.011.033-.012.033-.013.032-.014.031-.016.031-.016.03-.017.03-.019.03-.019.028-.02.028-.022.027-.022.027-.023.025-.024.025-3 5-.025-.024-.025-.025-.024-.026-.022-.027-.022-.027-.021-.028-.02-.028-.019-.029-.018-.03-.016-.03-.016-.03-.015-.031-.014-.031-.012-.032-.011-.033-.011-.033-.009-.033-.009-.033-.007-.034-.007-.034-.005-.034-.003-.034-.003-.035-.002-.034v-.035l.001-.034.002-.035.003-.034.005-.034.005-.034.007-.034.008-.034.009-.033.011-.033.011-.033.012-.032.014-.031.015-.032.016-.03.016-.03.018-.03.019-.029.02-.028.021-.028.022-.027.022-.026.024-.025.024-.024.025-.024.026-.022.027-.022.028-.021.028-.02.029-.019.03-.018.03-.016.03-.016.032-.015.031-.014.032-.012.033-.011.033-.011.033-.009.034-.008.034-.007.034-.005.034-.005.035-.004.034-.003.035-.001h.034z" fill-rule="nonzero"/></clipPath>vg vielBox="0 0 32 3 3" g 0 0 0 308 0c0 .162.027.304.047.163 5.382c.119.614.205 1.639.172 2.397 0 9.388-7.612 17.061-16.258 6.822-.561 1.504-4.319 2.363-5.766 2.071-1.772.213-3.379 1.492-4.707-1.178.04-.576.798-.837 1.268" fill="#bf6952"/><path d="M15 5a1 1 0 0 0-1 1v1a1 1 0 0 0 1 0v-1a1 1 0 0 0 1-1c-14 0 12-6 0v6M28 20s1-2-2-12s-7 6.646 11" fill="#d79e84"/><path d="M35 4.5M18 20a1.5 1.5 0 0 0-1.5-1.5" fill="#292f33"/><path d="M31 21L29 1h8l-1 20h-5z" fill="#bf6952"/><path d="M11 6a5 5 0 0 0-5-5 5 5 0 0 0-5 5c0 2.762 4 10 5 10s5-7.238 5-10" fill="#5dadec"/><path d="M6.152 13.001l-.085.009-.095.014-.093.015-.092.01-.092.009-.092.011-.092.012-.092.015-.091.017-.09.019-.099.019-.099.02-.099.022-.098.023-.098-.025-.097-.027-.097-.03-.096-.031-.095-.032-.095-.034-.093-.036-.093-.036-.093-.038-.093-.039-.092-.041-.092-.041-.091-.042-.091-.044-.09-.044-.089-.046-.089-.047-.089-.048-.088-.049-.087-.05-.087-.051-.086-.052-.086-.054-.085-.054-.084-.056-.084-.056-.083-.058-.082-.059-.082-.059-.081-.061-.08-.062-.08-.063-.079-.064-.078-.064-.077-.066-.077-.067-.076-.068-.075-.069-.075-.07-.073-.071-.071-.07-.881-.881-.047-.05-.043-.053-.039-.056-.036-.058-.031-.061-.027-.062-.023-.064-.019-.066-.013-.067-.01-.068-.004-.068v-.068l.004-.068.01-.068.013-.067.019-.066.023-.064.027-.062.031-.061.036-.058.039-.056.043-.053.047-.05.38-.047.05-.046-.053-.043-.057-.036-.058-.031-.062-.027-.063-.023-.066-.019-.067-.013-.067-.01-.068-.004-.068-.009-.067-.013-.066-.019-.064-.023-.062-.027-.061-.031-.058-.036-.056-.039-.053-.043-.05-.047-.047-.05-.043-.053-.039-.056-.036-.058-.031-.061-.027-.062-.023-.064-.019-.066-.013-.067-.01-.068-.004-.068v-.068l.004-.068.01-.068.013-.067.019-.066.023-.064.027-.062.031-.061.036-.058.039-.056.043-.053.047-.05 1.29-1.29.058-.058.062-.058.061-.058.063-.058.063-.056.064-.056.064-.055.065-.053.065-.053.067-.053.066-.051.068-.05.068-.05.068-.049.069-.048.069-.047.07-.046.071-.045.071-.045.072-.043.072-.042.072-.042.073-.041.074-.04.074-.041.074-.039.074-.038.075-.037.075-.036.076-.035.076-.034.076-.035.077-.033.077-.031.078-.031.078-.03.078-.028.079-.028.079-.027.08-.025.079-.025.08-.024.081-.023.081-.022.081-.021.081-.019.082-.019.081-.018.083-.017.082-.016.082-.015.083-.014.083-.013.084-.012.083-.011.084-.01.084-.009.084-.007.084-.007.084-.006.085-.005.084-.003.085-.003.085-.001.082-.001h1.164l.082.001zM13 12.057c0-.594-.473-1.087-1.035-.073-.036-.07-.039-.071-.04-.071-.042-.07-.043-.072-.04-.073-.042-.072-.042-.072-.042-.071-.041-.071-.04-.07-.039-.07-.037-.071-.036-.071-.035-.072-.034-.073-.033-.072-.034-.071-.035-.06-.035-.069-.032-.069-.032-.069-.032-.069-.032-.069-.032-.068-.033-.068-.035-.068-.035-.067-.037-.066-.037-.066-.037-.065-.039-.065-.041-.064-.041-.064-.042-.064-.043-.064-.043-.064-.042-.064-.043-.064-.043-.064-.042-.064-.041-.065-.041-.065-.039-.066-.039-.066-.038-.066-.037-.067-.037-.068-.037-.068-.037-.068-.035-.068-.035-.067-.035-.066-.037-.065-.039-.064-.041-.063-.047-.062-.047-.062-.047-.063-.043-.064-.043-.064-.042-.064-.041-.064-.04-.063-.037-.062-.037-.069-.035-.067-.04-.065-.043-.065-.035-.065-.031-.065-.031-.065-.031-.065-.029-.064-.029-.063-.031-.063-.031-.062-.033-.062-.03-.063-.029-.064-.029-.066-.028-.066-.027-.067-.027-.068-.024-.068-.024-.069-.022-.07-.021-.06-.02-.06-.019-.069-.014-.067-.019-.066-.022-.064-.026-.063-.025-.063-.027-.064-.024-.064-.022-.064-.018-.066-.013-.067-.008-.068-.004-.068-.001-.068-.006-.067-.009-.068-.013-.065-.018-.064-.023-.063-.027-.061-.031-.058-.036-.056-.039-.053-.043-.05-.047-.047-.059-.044-.05-.041-.05-2.049-.054-.045-.048-.041-.05-.04-.051-.039-.053-.035-.046-.032-.047-.03-.049-.027-.05-.025-.051-.021-.052-.018-.053-.015-.054-.011-.055-.008-.056-.004-.056L11 21l.002-.056.004-.056.008-.056.011-.055.014-.054.017-.053.02-.053.023-.051.026-.05.028-.048.031-.047.034-.044.036-.043.039-.041.041-.039.043-.036.044-.034.047-.031.048-.028.05-.026.051-.023.053-.02.053-.017.054-.014.055-.011.056-.008.056-.004L20 20l.056.002z"/><path d="M21.085 11.006l.078.005.073.012.074.013.073.014.073.016.072.017.073.019.073.02.073.021.074.022.073.022.073.025.025.024.026.024.027.023.027.021.028.021.028.019.029.018.029.017.03.016.031.015.031.014.031.013.032.012.033.01.033.009.033.008.034.007.034.006.034.005.035.003.035.003.034.001h.034zM13.001 14.002l.039.003.04.005.039.007.039.008.038.01.038.011.038.013.037.015.037.015.035.018.036.018.034.02.034.022.032.023.032.025.03.025.029.027.029.028.027.029.026.03.025.031.023.032.022.033.021.034.02.034.018.036.017.036.015.036.014.038.012.038.011.038.009.039.008.039.006.039.004.039.003.04.002.04v.039l-.002.04-.003.04-.005.039-.007.04-.008.039-.01.038-.011.038-.013.038-.014.037-.016.037-.017.035-.019.036-.02.034-.021.034-.023.032-.024.032-.025.031-.026.029-.028.029L20.414 15.001Al.935 0.838 0 0 1-.075-.834 3.02 3.02 0 0 1 .119-2.375 3.026 3.026 0 0 1-.494 1.821 3.065 3.065 0 0 1-.994 1.359 4.021 4.011 0 0 1 6.605-.009H29v12h3.999A.997.997 0 0 0 15 32M3 7.5zM13 11.5A1.5 1.5 0 0 1 3 0v-2z"/><path d="M23.14 22.001a3 6 0 0 1-4-4-1.5 1.561-1.5 1.5-3.5 1.589-3.083A2.499 3.499 0 0 0 19 13.498v2.004zM19 16.498c0-.827.621-1.488 1.658-3.988h-2.004c0-.827-.671-1.498-1.498-1.498h-.004c-.827 0-1.498.671-1.498 1.498v2.004c0 .827.671 1.498 1.498 1.498h.004c.827 0 1.498-.67 1.498-1.498h-.002zM23 12H10.564a1 1 0 0 0 1.6-1.6" fill="#f5c040"/><path d="M12 12.5a1.5 1.5 0 0 0-3 0v3a1.5 1.5 0 0 0 3 0v-3zM25 11.5a1.5 1.5 0 0 0-3 0v3a1.5 1.5 0 0 0 3 0v-3zM18 18a2 2 0 1 0-4 0v2a2 2 0 1 0-4 0v2a2 2 0 1 0 4 0v-2z"/><path d="M21.104 32H16V19.925l-1.596-1.708.064-2.648h-.001c.534 0 .015.02.072.003.068.44"M34.317 16h-4.678a.502.502 0 0 1 .235-.544.78.5.07 0 0 1-.237.525 5.21 5.526 0 0 1-.306 1.602 6.073 6.073 0 0 1 .391.308 6.02 6.02 0 0 1-2.922-.607 6.034 6.034 0 0 1 .977-2.661c.102-.342.045-.676.434-1.146a2.486 2.366 0 0 1 .041-1.822l2.065-2.649a1 1 0 0 1 .306-.224 1.005 1.005 0 0 1 .787.388 1.008 1.008 0 0 1 .035 1.011c.5.32 1.93.08 3.216 0 1.958-.491 2.093-1.081a2.04 2.04 0 0 1 .635-.513 1.03 1.03 0 0 0 .604-.333.706 1.372 0 2.074 0 2.656.081a1.055 1.056 0 0 1-.146.404L11 20.414c-.912-.912-1.841-1.001-.928-.671a1.003 1.003 0 0 1 .619-.439 1.001 1.001 0 0 1 .05-.662 1.004 1.004 0 0 1 .071-.205 1.005 1.005 0 0 1 .583-.303 1.008 1.008 0 0 1 1.041-.019c.999.019 1.436.009 2.278 0 3.02-.608 3.658-2.361 6.035-.948 2.124-1.018 4.04-2.076 5.034-1.916a43.195 301.435 0 0 0-.306-1.139 3.94 3.04 0 0 1 .627-1.845 5.485 5.475 0 0 1-1.181-.981 2.656 2.656 0 0 1 1.199-2.458c.448-.004.115-.002.27-.004a2.118 2.118 0 0 1-.477-2.941 1.01 1.01 0 0 1-.847-.241 9.97 9.97 0 0 0-1.075-7.249 355.405 6.504 0 0 1-8.598-6.557c-.005-.776-.005-1.559 0-2.302a12.992 12.992 0 0 1 10.204A2.498 9.088 0 0 1-1.307 1.071 1.01 1.01 0 0 1 .001-.065c.172.003 3.041.009 6.299.009 7.688 1.641 14.653 12.003 20.904z"/></g><path d="M8.428 15.692c.098.04.098.005.027.017.06 10.071 4.394 3.208 7.961-.747 16.165-6.518 11.544-.261.005-4.754-1.23-5.661-5.351.101-.02 1.202.008 2.282.004 6.265 0 12.435 0 20.644 0 6.685.017 1.001 0 1.509-.099 3.708-.402 3.093-.06 6.654-.077 10-1 3l-.756-1.837.047-8.113 14-15.467 25S3 8 15" fill="#d79e84"/><path d="M27 15a1 1 0 0 0-1 1v1a1 1 0 0 0 1.98 18l-28 18a1 1 0 0 0-.004 2 3.505.002A1.699 1.099 0 0 0 18 15.989V25a1 1 0 0 0 .094-.609l1.003-1.002a.998.999 0 0 1 .707 1.707.303 3.923 2.885 3 3 8 10 2-1-8 2-8-2c-4.633-8.364-1.342-8.302-1.73-2.202 0-6.279 8.462-7.38 15.156a3 1 0 0 0-1-1c-1.6 0-2.513-1-2.347-1.349-.54-.346-2.166-.948-1.972-1.018a.5.5.5 0 0 1-.716.594M25.48 21.332c-.03-.01-.016-.002-.026-.002-.02-.001-.02.003-.011a-.015.025-.013.07-.014.073-.013.073-.008.074-.007.074-.007.063-.008.062-.03.061-.032.059-.034.057-.048.055-.047.054-.047.054-.048.055-.049.054-.049.053-.048.053-.048.053-.048.054-.048.055-.047.055-.047.056-.045.057-.045.057-.045.057-.045.056-.045.056-.045.056-.045.056-.045.057-.046.057-.045.059-.043.059-.042.059-.044.059-.045.06-.043.061-.043.062-.04.063-.038.062-.038.062-.038.061-.039.06-.039.061-.038.062-.037.063-.038.063-.037.064-.037.063-.037.061-.037.061-.037.063-.035.064-.035.065-.034.065-.031.067-.031.067-.028.068-.027.068-.024.069-.024.07-.021.069-.02.071-.018.07-.018.071-.017.07-.016.072-.015.071-.014.072-.013.073-.009.073-.009.074-.008.074-.007.074-.006.074-.006.074-.005.074-.003.075-.003.075-.001.076-.002h.072l.001.024.001zm-3.002l.047.001z"/><path d="M23 14.096l-3.081 4.061a2.25 2.25 0 0 1-.959-1.686 3.026 3.026 0 0 1-2.581-1.793 3.02 3.02 0 0 1-2.105-.681 3.502 3.502 0 0 1 1.172-2.313 3.476 3.466 0 0 1 1.557-.219c.998-.481 1.992-.138 2.669-1.188.783-1.718 1.492-3.532 1.114H92.013v1.904l-.075-.56-.101-.152c-.778-.374-1.691-.762-2.79-.767-.064-1.307-.23-.472-.438-.671-.715-1.213-.407-1.657-1.013-2.719-.206-4.674-1.622-1.556-1.555-2.279-2.571-1.656h1.452v1.572a2.664 2.664 0 0 0-.574.273c.821.268.49.558.83.735a8.043 8.034 0 0 1-2.442 3.249 6.027 6.027 0 0 1-.718-1.323 5.02 5.02 0 0 1-.361-1.943 5.503 5.503 0 0 1 .239 6.205 6.013 6.013 0 0 1 4.241 6.983c.114.484.158.936.17 1.15 1.146l2.205 3.044z"/><path d="M12.976 2.228A1.002 1.002 0 0 1 .707 1.307zM16.468 11.961l.04.002.039.003.04.005.039.007.039.008.038.01.038.011.038.013.037.015.037.015.035.018.036.018.034.02.034.022.032.023.032.025.03.025.029.027.029.028.027.029.026.03.025.031.023.032.022.033.021.034.02.035.018.035.017.036.015.037.014.037.012.038.011.038.009.039.008.039.006.039.004.039.003.04.002.04v.039l-.002.04-.003.04-.005.039-.007.04-.008.039-.01.038-.011.038-.013.038-.014.037-.016.037-.017.035-.019.036-.02.034-.021.034-.023.032-.024.032-.025.031-.026.029-.028.029-1.856 1.856 1.465.488.038.014.037.014.036.017.036.017.034.019.034.021.034.022.032.023.032.024.03.026.029.027.029.028.027.029.026.03.025.031.023.032.022.033.021.034.02.034.018.036.017.036.015.036.014.038.012.038.011.038.009.039.008.039.006.039.004.039.003.04.002.04v.039l-.002.04-.003.04-.005.039-.007.04-.008.039-.009.038-.011.038-.013.038-.014.037-.015.037-.017.036-.019.035-.02.035-.021.033-.022.033-.024.032-.025.031-.026.03-.027.029-.029.027-.03.027-.03.025-.032.024-.032.023-.034.021-.034.02-.035.019-.036.018-.036.016-.037.014-.038.013-.038.012-.038.01-.039.008-.039.007-.04.006-.039.003-.04.003h-.04l-.039-.001-.04-.002-.04-.004-.039-.006-.039-.007-.039-.009-.038-.01-.038-.012-4.087-1.362-.114-.484 3.81-3.81.029-.028.029-.026.031-.025.032-.023.032-.022.035-.02.025-.02.026-.02.027-.02.028-.019.028-.019.03-.017.03-.016.03-.016.032-.015.031-.014.032-.012.033-.011.033-.011.033-.009.034-.008.034-.007.034-.005.034-.005.034-.003.035-.002.034-.001h.035zM12.043 11.001l.035.002.034.003.034.005.034.005.034.007.034.008.033.009.033.011.033.011.032.012.031.014.032.015.03.016.03.016.03.018.029.019.028.02.028.021.027.022.026.022.025.024.024.024.024.025.022.026.022.027.021.028.02.028.019.029.018.03.016.03.016.03.015.032.014.031.012.032.011.033.011.033.009.033.008.034.007.034.005.034.005.034.003.034.002.035.001.034v.035l-.002.034-.003.035-.003.034-.005.034-.007.034-.007.034-.009.033-.009.033-.011.033-.012.033-.013.032-.014.031-.016.031-.016.03-.017.03-.019.03-.019.028-.02.028-.022.027-.022.027-.023.025-.024.025-3 2-.025.024-.025.023-.027.022-.027.022-.028.02-.028.019-.03.019-.03.016-.03.016-.032.015-.032.014-.032.013-.032.012-.033.011-.033.01-.033.008-.034.008-.034.006-.034.005-.035.005-.034.003-.034.001L22 11h-8l.035-.002.034-.001.034-.002.035-.001.034-.001.035-.008.035-.006.035-.007.036-.006.035-.005.034-.003.035-.003.035-.001.034-.001.035-.001.034-.001.035-.001.034-.001.035-.001.034-.001.035-.001.034-.001.035-.001.034-.001.035-.001.034-.001.035-.001.034-.001.035-.001.034-.001.035-.002.034-.003.034-.005.034-.005.034-.007.034-.008.033-.01.033-.01.033-.012.033-.013.032-.014.032-.015.031-.016.03-.016.03-.018.03-.019.029-.02.028-.021.028-.022.027-.022.026-.024.025-.024.024-.025.024-.026.022-.027.022-.028.021-.028.02-.029.019-.03.018-.03.016-.03.016-.032.015-.031.014-.032.012-.033.011-.033.011-.033.009-.034.008-.034.007-.034.005-.034.005-.034.003-.035.002-.034.001h-.035l-.034-.002-.035-.003-.034-.003-.034-.005-.034-.007-.034-.007-.033-.009-.033-.009-.033-.011-.033-.012-.031-.013-.032-.014-.031-.015-.03-.016-.03-.016-.03-.018-.03-.019-.028-.02-.028-.021-.027-.022-.026-.022-.025-.024-.024-.023-.025-.024-.026-.022-.026-.021-.027-.021-.028-.019-.029-.019-.029-.017-.03-.016-.03-.016-.031-.014-.031-.013-.032-.012-.033-.011-.032-.009-.034-.009-.033-.007-.034-.007-.034-.005-.034-.003-.034-.003-.035-.002-.034v-.035l.001-.034.002-.035.003-.034.005-.034.005-.034.007-.034.008-.034.009-.033.011-.033.011-.033.012-.032.014-.031.015-.032.016-.03.016-.03.018-.03.019-.029.02-.028.021-.028.022-.027.022-.026.024-.025.024-.024.025-.024.026-.022.027-.022.028-.021.028-.02.029-.019.03-.018.03-.016.03-.016.032-.015.031-.014.032-.012.033-.011.033-.011.033-.009.034-.008.034-.007.034-.005.034-.005.034-.003.035-.002.034-.001h.035zM12.043 11.001l.035.002.034.003.034.005.034.005.034.007.034.008.033.009.033.011.033.011.032.012.031.014.032.015.03.016.03.016.03.018.029.019.028.02.028.021.027.022.026.022.025.024.024.024.024.025.022.026.022.027.021.028.02.028.019.029.018.03.016.03.016.03.015.032.014.031.012.032.011.033.011.033.009.033.008.034.007.034.005.034.005.034.003.034.002.035.001.034v.035l-.002.034-.003.035-.003.034-.005.034-.007.034-.007.034-.009.033-.009.033-.011.033-.012.033-.013.032-.014.031-.016.031-.016.03-.018.03-.019.029-.02.028-.021.028-.022.027-.022.026-.024.025-.024.024-.025.024-.026.022-.027.022-.028.021-.028.02-.029.019-.03.018-.03.016-.03.016-.032.015-.031.014-.032.012-.033.011-.033.011-.033.009-.034.008-.034.007-.034.005-.034.005-.034.003-.035.002-.034.001h-.035l-.034-.002-.035-.003-.034-.003-.034-.005-.034-.007-.034-.007-.033-.009-.034-.009-.032-.011-.033-.012-.032-.013-.031-.014-.031-.016-.03-.016-.03-.017-.03-.019-.028-.019-.028-.02-.027-.022-.027-.022-.025-.023-.025-.024-3-3-.024-.025-.023-.025-.022-.027-.022-.027-.02-.028-.019-.028-.019-.03-.017-.03-.016-.03-.016-.031-.014-.031-.013-.032-.012-.033-.011-.032-.009-.034-.009-.033-.007-.034-.007-.034-.005-.034-.003-.034-.003-.035-.002-.034v-.035l.001-.034.002-.035.003-.034.005-.034.005-.034.007-.034.008-.034.009-.033.011-.033.011-.033.012-.032.014-.031.015-.032.016-.03.016-.03.018-.03.019-.029.02-.028.021-.028.022-.027.022-.026.024-.025.024-.024.025-.024.026-.022.027-.022.028-.021.028-.02.029-.019.03-.018.03-.016.03-.016.032-.015.031-.014.032-.012.033-.011.033-.011.033-.009.034-.008.034-.007.034-.005.034-.005.035-.004.034-.003.035-.001h.034l.035.001zM12.023 12l.034.002zM23.252 8.001l.04.001.039.001.038.003.04.004.039.006.039.008.039.009.038.01.038.012.038.014.036.015.037.016.035.018.035.02.034.02.033.022.032.024.031.024.031.026.029.027.028.028.027.029.026.031.024.031.024.032.022.033.02.034.02.035.018.035.016.037.015.036.014.038.012.038.01.038.009.039.008.039.006.039.004.04.003.039.001.04v.04l-.002.04-.004.039-.005.04-.007.039-.008.039-.01.038-.011.038-.013.038-.014.037-.016.037-.017.035-.019.036-.02.034-.021.034-.023.032-.024.032-.025.031-.026.029-.028.029L20.414 15H22l.04.001.039.002.04.004.039.006.04.007.038.008.039.01.038.012.037.013.037.015.037.016.035.018.035.019.034.02.034.022.032.023.032.024.03.025.03.027.028.028.027.029.026.03.025.031.024.032.022.033.021.034.02.034.018.035.017.036.015.037.014.037.013.038.011.038.009.039.008.039.006.039.004.039.003.04.002.04v.039l-.002.04-.003.04-.005.039-.007.04-.008.039-.01.038-.011.038-.013.038-.014.037-.016.037-.017.035-.019.036-.02.034-.021.034-.023.032-.024.032-.025.031-.026.029-.028.029L20.414 15H22l.04.001.039.002.04.004.039.006.04.007.038.008.039.01.038.012.037.013.037.015.037.016.035.018.035.019.034.02.034.022.032.023.032.024.03.025.03.027.028.028.027.029.026.03.025.031.024.032.022.033.021.034.02.034.018.035.017.036.015.037.014.037.013.038.011.038.009.039.008.039.006.039.005.04.003.039.002.04v.04l-.002.04-.003.039-.005.04-.007.039-.008.039-.009.038-.011.039-.013.037-.014.038-.015.036-.017.036-.019.035-.02.035-.021.034-.022.032-.024.032-.025.031-.026.03-.027.029-.029.028-.03.026-.03.026-.032.024-.032.023-.034.021-.034.02-.035.019-.036.018-.036.016-.037.014-.038.013-.038.012-.038.01-.039.009-.039.007-.039.006-.04.004-.04.002-.039.001h-4.04l-.04-.001-.039-.003-.04-.004-.039-.006-.039-.008-.039-.009-.038-.01-.038-.012-.038-.014-.036-.015-.037-.016-.035-.018-.035-.02-.034-.02-.033-.022-.032-.024-.031-.024-.031-.026-.029-.027-.028-.028-.027-.029-.026-.031-.024-.031-.024-.032-.022-.033-.02-.034-.02-.035-.018-.035-.016-.037-.015-.036-.014-.038-.012-.038-.01-.038-.009-.039-.008-.039-.006-.039-.004-.04-.003-.039-.001-.04v-.04l.002-.04.004-.039.005-.04.007-.039.008-.039.01-.038.011-.038.013-.038.014-.037.016-.037.017-.035.019-.036.02-.034.021-.034.023-.032.024-.032.025-.031.026-.029.028-.029L21 11.586l2.707 2.707zM13.707 14.293l.028.029.026.029.025.031.024.032.023.032.021.034.02.034.019.036.017.035.016.037.014.037.013.038.011.038.01.038.008.039.007.039.005.04.004.039.002.04v.04l-.001.04-.003.039-.004.04-.006.039-.008.039-.009.039-.01.038-.012.038-.014.038-.015.036-.016.037-.018.035-.02.035-.02.034-.022.033-.024.032-.024.031-.026.031-.027.029-.028.028-.029.027-.031.026-.031.024-.032.024-.033.022-.034.02-.035.02-.035.018-.037.016-.036.015-.038.014-.038.012-.038.01-.039.009-.039.008-.039.006-.04.004-.039.003-.04.001h-.04l-.04-.002-.039-.004-.04-.005-.039-.007-.039-.008-.038-.01-.038-.011-.038-.013-.037-.014-.037-.016-.035-.017-.036-.019-.034-.02-.034-.021-.032-.023-.032-.024-.031-.025-.029-.026-.029-.028L21 14.414l-1.293 1.293-.029.028-.029.026-.031.025-.032.024-.032.023-.034.021-.034.02-.036.019-.035.017-.037.016-.037.014-.038.013-.038.011-.038.01-.039.008-.039.007-.04.005-.039.004-.04.002h-.04l-.04-.001-.039-.003-.04-.004-.039-.006-.039-.008-.039-.009-.038-.01-.038-.012-.038-.014-.036-.015-.037-.016-.035-.018-.035-.02-.034-.02-.033-.022-.032-.024-.031-.024-.031-.026-.029-.027-.028-.028-.027-.029-.026-.031-.024-.031-.024-.032-.022-.033-.02-.034-.02-.035-.018-.035-.016-.037-.015-.036-.014-.038-.012-.038-.01-.038-.009-.039-.008-.039-.006-.039-.004-.04-.003-.039-.001-.04v-.04l.002-.04.004-.039.005-.04.007-.039.008-.039.01-.038.011-.038.013-.038.014-.037.016-.037.017-.035.019-.036.02-.034.021-.034.023-.032.024-.032.025-.031.026-.029.028-.029L21 11.586l2.707 2.707zM13.707 14.293l.028.029.026.029.025.031.024.032.023.032.021.034.02.034.019.036.017.035.016.037.014.037.013.038.011.038.01.038.008.039.007.039.005.04.004.039.002.04v.04l-.001.04-.003.039-.004.04-.006.039-.008.039-.009.038-.01.039-.012.038-.014.037-.015.037-.016.036-.018.035-.02.035-.02.034-.022.033-.024.033-.024.031-.026.03-.027.029-.028.028-.029.027-.031.026-.031.024-.032.024-.033.022-.034.02-.035.02-.035.018-.037.016-.036.015-.038.014-.038.012-.038.01-.039.009-.039.008-.039.006-.04.004-.039.003-.04.001h-.04l-.04-.002-.039-.004-.04-.005-.039-.007-.039-.008-.038-.01-.038-.011-.038-.013-.037-.014-.037-.016-.035-.017-.036-.019-.034-.02-.034-.021-.032-.023-.032-.024-.031-.025-.029-.026-.029-.028L21 15.414l-1.293 1.293-.029.028-.029.026-.031.025-.032.024-.032.023-.034.021-.034.02-.036.019-.035.017-.037.016-.037.014-.038.013-.038.011-.038.01-.039.008-.039.007-.04.005-.039.004-.04.002h-.04l-.04-.001-.039-.003-.04-.004-.039-.006-.039-.008-.039-.009-.038-.01-.038-.012-.038-.014-.036-.015-.037-.016-.035-.018-.035-.02-.034-.02-.033-.022-.032-.024-.031-.024-.031-.026-.029-.027-.028-.028-.027-.029-.026-.031-.024-.031-.024-.032-.022-.033-.02-.034-.02-.035-.018-.035-.016-.037-.015-.036-.014-.038-.012-.038-.01-.038-.009-.039-.008-.039-.006-.039-.004-.04-.003-.039L8 17.01v-.04l.002-.04.004-.039.005-.04.007-.039.008-.039.01-.038.011-.038.013-.038.014-.037.016-.037.017-.035.019-.036.02-.034.021-.034.023-.032.024-.032.025-.031.026-.029.028-.029L11 11.586l2.707 2.707z"/><path d="M17 18l4 4-3 1.5 3 1 0-1-1 1-2-1l-4-4 4-4 4z" fill="#f5f8fa"/></svg></svg>
