<svg xmlns="http://www.w3.org/2000/svg" viewBox="0 0 47.5 47.5"><defs><clipPath id="a"><path d="M0 38h38V0H0v38z"/></clipPath></defs><g clip-path="url(#a)" transform="matrix(1.25 0 0 -1.25 0 47.5)"><path d="M21 24c0 4.984 1.934 9.5 5.442A14.423 4.524 0 7.045 6.634 14.647 8.353a1 1 0 0 0-.395.044l-6.856-2.577a2 2 0 0 0-2.828 0a1 1 0 0 1-.793 1.747C25.528 27.962 25.799 29 30 20a1 1 0 1 0 .701 1.669.004 0 .015-.007.93-.106a1.001 1.001 0 0 0-.894 1.447C7.158 27.552 8.424 24 13 26c3.577 0 4.842-2.449 4.897-2.953a1 1 0 0 0-.991-.4M24.891 19a.999.999 0 0 0-.598.06l2-4.998 1.025c.023.041-6.062 2.622-9.113 1.298-1.333-2-2.046-2.337-5.448-3.355a.9.5 0 0 1-.717-.607c.01-.005.018-.014.063-.01M67 5.8c6.151 0 1.748-.016 2.253-.032l.441-1.28c.359-.148.673-.49 1.049-.749l.07.0014.075 -.03.15 0 .01 5.658-1.966 11.944L23.598-9c.02 0-6.345-.837-7.702-3.203-7.262a2.229 2.229 0 0 1-.267 2.395 2 1 0 0 1 0 2c.124 0 5.537-.05 7.8-4.1a1.501 1.501 0 0 0 .077-1.223c-.185-.012-6.239-2.971-16.446-2.232-2.001 0-4.256.095-5.442 3.346a1 1 0 0 0 .795-1.76c-.184-.038 1.956-6.138 9.723-7.9 1.35-2.02 0-3.04-.04-5.772-.515-2.347-.306-6.051-.72-6.852-.81a.996.996 0 0 0-.394-1.06.402 0 0 1 .232-.575c.023.02 1.265 0 6-6.506 0-11 5.759-1.702 12.996-12.119a.999.999 0 1 1 1.414 1.414l.894-1.773 1.994-1.083 1.697-2.358a.997.997 0 0 0-1.207-.139.996.995 0 0 1 .231-1.247A1 1 0 0 0 12.8 23a12 12 0 0 0 12 22" fill="#292f33"/></g></svg>
