<svg viewBox="0 0 32 32" xmlns="http://www.w3.org/2000/svg" fill-rule="evenodd" clip-rule="evenodd" stroke-linejoin="round" stroke-miterlimit="1.414"><path fill="none" d="M0 0h32v32H0z"/><clipPath id="a"><path d="M0 0h32v32H0z"/></clipPath><g clip-path="url(#a)"><path d="M16.174.016a14.035 14.035 0 0 1-5.498 3.073 9.983 9.983 0 0 1-2.768 6.683 9.967 9.967 0 0 1-7.192 3.1A13.991 13.991 0 0 1 9.602 30.164 13.98 13.98 0 0 1 .819 4.546c.005.772.005 1.544 0 2.303a11.039 11.039 0 0 1-.702 3.997 12.042 12.042 0 0 1-2.963 4.614 12.032 12.032 0 0 1-6.953 4.958 13.933 13.933 0 0 1-7.255-3.367 10.047 10.059 0 0 1-3.31-2.343 500.28 502.27 0 0 1-5.942-2.928 12.041 12.042 0 0 1-3.283-2.842 12.034 12.034 0 0 1-3.043-7.759 12.666 12.666 0 0 1-.073-1.184 180.81 180.81 0 0 1 0-2.329 13.965 13.965 0 0 1 .791-4.472 14.04 14.04 0 0 1 8.394-8.498 13.937 13.937 0 0 1 4.634-.849h.354z" fill-rule="nonzero"/><path d="M28 16c0-3.183-1.264-6.235-3.515-8.485A11.996 11.996 0 0 0 16 4C9.373 4 4 9.373 4 16v4a8 8 0 0 0 8 8h8a8 8 0 0 0 8-8v-4z" fill="#fbc546"/><path d="M23.707 14.293l.028.029.026.029.025.031.024.032.023.032.021.034.02.034.019.036.017.035.016.037.014.037.013.038.011.038.01.038.008.039.007.039.005.04.004.039.002.04v.04l-.001.04-.003.039-.004.04-.006.039-.008.039-.009.039-.01.038-.012.038-.014.038-.015.036-.016.037-.018.035-.02.035-.02.034-.022.033-.024.032-.024.031-.026.031-.027.029-.028.028-.029.027-.031.026-.031.024-.032.024-.033.022-.034.02-.035.02-.035.018-.037.016-.036.015-.038.014-.038.012-.038.01-.039.009-.039.008-.039.006-.04.004-.039.003-.04.001h-.04l-.04-.002-.039-.004-.04-.005-.039-.007-.039-.008-.038-.01-.038-.011-.038-.013-.037-.014-.037-.016-.035-.017-.036-.019-.034-.02-.034-.021-.032-.023-.032-.024-.031-.025-.029-.026-.029-.028L21 14.414l-1.293 1.293-.029.028-.029.026-.031.025-.032.024-.032.023-.034.021-.034.02-.036.019-.035.017-.037.016-.037.014-3-.034-.043-.032-.043-.031-.04-.03-.041-.026-.04-.025-.048-.025-.047-.025-.047-.025-.047-.026-.047-.027-.047-.029-.045-.03-.045-.03-.043-.032-.042-.033-.042-.034-.04-.035-.038-.035-.038-.036-.038-.037-.037-.038-.036-.039-.036-.041-.034-.043-.031-.043-.02-.044-.019-.045-.017-.046-.015-.047-.013-.048-.01-.049-.009-.047-.013-.048-.013-.047-.011-.049-.019-.049-.017-.05-.016-.05-.011-.051-.01-.051-.007-.053-.004-.053-.004-.053-.007-.052-.011-.051-.012-.053-.018-.053-.015-.053-.014-.053-.015-.053-.018-.053-.021-.051-.024-.05-.026-.048-.029-.046-.032-.044-.035-.042-.036-.041-.039-.037-.042-.036-.043-.033-.044-.031-.047-.028-.048-.026-.05-.024-.051-.021-.052-.018-.053-.015-.054-.011-.055-.008-.056-.004-.056L11 21l.002-.056.004-.056.008-.056.011-.055.014-.054.017-.053.02-.053.023-.051.026-.05.028-.048.031-.047.034-.044.036-.043.039-.041.041-.039.043-.036.044-.034.047-.031.048-.028.05-.026.051-.023.053-.02.053-.017.054-.014.055-.011.056-.008.056-.004L20 20l.056.002z"/><path d="M21 25.013l-.001.111-.005.124-.008.123-.01.121-.014.122-.017.122-.019.122-.023.12-.025.119-.029.118-.031.117-.034.117-.037.116-.04.116-.042.115-.046.113-.047.111-.051.112-.054.109-.056.109-.059.106-.061.106-.064.104-.067.103-.069.101-.072.11-.074.116-.057.116-.078.116-.079.116-.07.112-.073.112-.072.112-.071.116-.07.116-.068.117-.067.117-.062.11-.062.108-.062.107-.061.106-.06.106-.058.108-.057.109-.054.11-.053.113-.041.113-.042.111-.05-.111-.057-.11-.058-.103-.065-.008-.064-.01-.063-.013-.064-.018-.06-.022-.058-.025-.057-.027-.057-.03-.057-.034-.057-.037-.05-.031-.051-.03-.051-.029-.052-.029-.052-.028-.052-.028-.053-.027-.053-.026-.053-.025-.053-.025-.054-.025-.055-.023-.054-.023-.055-.022-.055-.022-.055-.021-.056-.02-.055-.02-.056-.018-.057-.019-.056-.017-.057-.017-.057-.016-.057-.016-.057-.015-.058-.014-.057-.013-.058-.013-.058-.014-.058-.014-.057-.013-.058-.013-.059-.012-.058-.011-.058-.011-.059-.009-.059-.01-.059-.008-.059-.007-.059-.006-.06-.006-.059-.005-.06-.004-.06-.003-.06-.003-.06-.001-.06-.002H15.361l-.06.002-.06.001-.06.003-.06.003-.06.004-.059.005-.06.006-.059.006-.058.007-.059.008-.059.008-.059.007-.059.003-.059.002-.058.004-.059.008-.059.008-.059.01-.059.009-.058.011-.058.011-.059.012-.058.013-.057.013-.058.014-.057.015-.057.016-.057.016-.056.018-.057.018-.055.019-.055.02-.056.02-.055.021-.055.022-.055.022-.054.023-.055.024-.053.024-.054.025-.053.026-.043.026-.042.027-.042.031-.042.031-.044.029-.045.027-.045.028-.046.031-.045.031-.044.032-.046.031-.047.028-.048.026-.05.023-.051.02-.053.017-.054.014-.055.011-.056.008-.056.004L20 22H1l-.062-.001-.06-.004-.06-.002-.06-.002-.06-.001-.067-.001h-1.478l-.039-.001-.04-.002-.039-.004-.04-.005-.039-.007-.039-.008-.038-.012-.038-.011-.038-.01-.038-.008-.039-.007-.039-.005-.04-.004-.039L8 15.03v-.04l.001-.04.003-.039.004-.04.006-.039.008-.039.009-.039.01-.038.012-.038.014-.037.015-.037.016-.036.018-.036.02-.035.021-.034.022-.033.024-.032.025-.031.026-.03.027-.029.029-.028.029-.027.03-.025.032-.025.032-.023.034-.022.034-.02.034-.019.036-.018.036-.016.037-.015.038-.013.038-.011.038-.01.039-.008.039-.007.04-.005.039-.004.04-.002h.04l.04.001zM11.03 18l.04.002.039.004.04.005.039.007.039.008.038.01.038.011.038.013.037.015.037.015.035.018.036.018.034.02.034.022.032.023.032.025.03.025.029.027.029.028.027.029.026.03.025.031.023.032.022.033.021.034.02.034.018.036.017.036.015.036.014.038.012.038.011.038.009.039.008.039.006.039.004.039.003.04.002.04v.039l-.002.04-.003.04-.005.039-.007.04-.008.039-.009.038-.011.038-.013.038-.014.037-.015.037-.017.036-.019.035-.02.035-.021.033-.022.033-.024.032-.025.031-.026.03-.027.029-.029.027-.03.027-.03.025-.032.024-.032.023-.034.021-.034.02-.035.019-.036.018-.036.016-.037.014-.038.013-.038.012-.038.01-.039.008-.039.007-.04.006-.039.0036.041.024.041.024.041.024.041.024.041.024.041.024.041.024.041.024.041.025.041.026.04.027.038.029.037.031.035.033.034.035.032.036.031.038.03.038.032.04.032.04.03.04.038.04.036.041.034.04.031.041.03.041.026.041.025.047.025.047.025.047.031.047.031.045.031.043.035.043.036.041.039.037.04.036.043.039.044.04.043.042.042.043.04.04.038.048.035.047.034.046.038.048.031.049.033.05.033.05.032.05.032.05.032.05.03.051.032.05.033.05.032.058.035.05.037.051.038.05.039.058.047.059.047.05.046.051.046.053.046.054.047.054.049.054.049.057.049.058.049.069.047.06.043.061.042.062.04.063.038.063.037.065.035.066.034.066.031.066.03.068.028.067.027.069.025.069.023.069.021.07.02.07.018.07.016.07.015.071.013.071.011.071.009.072.008.071.006.072.004.071.003.072.001.072-.001.072-.003.072-.004.071-.006.072-.008.071-.009.072-.011.071-.013.071-.015.071-.016.07-.018.07-.02.07-.021.07-.024.069-.024.078-.027.07-.027.069-.026.069-.025.069-.025.068-.024.069-.023.069-.022.07-.022.069-.02.071-.018.07-.016.07-.015.071-.013.071-.011.072-.009.071-.008.072-.006.071-.004.072-.003.072-.001.072.001.072.001.072-.001.072-.003.072-.004.071-.006.072-.008.071-.009.072-.011.071-.013.071-.015.07-.016.07-.018.07-.02.07-.021.07-.024.069-.024.068-.027.069-.029.067-.03.067-.031.067-.034.065-.035.065-.037.065-.039.064-.04.063-.043.062-.043.061-.046.06-.047.059-.049.059-.05.057-.052.056-.05.051-1.59 1.59-.035.033-.036.032-.038.03-.04.028-.041.026-.042.024-.043.022-.044.02-.045.017-.045.016-.047.013-.047.011-.048.009-.047.006-.049.004-.048.002-.048-.001-.048-.003-.049-.005-.047-.007-.048-.01-.046-.012-.046-.015-.046-.016-.044-.019-.044-.021-.043-.023-.041-.025-.04-.027-.039-.029-.037-.031-.036-.032-.034-.034-.032-.036-.031-.037-.029-.039-.027-.04-.025-.041-.023-.043-.021-.044-.019-.044-.016-.046-.015-.046-.012-.046-.01-.048-.007-.047-.005-.049-.003-.048-.001-.048.002-.048.004-.049.006-.047.009-.048.011-.047.013-.047.016-.045.017-.045.02-.044.022-.043.024-.042.026-.041.028-.04.03-.038.032-.036.033-.035 1.581-1.581.023-.024.018-.019.017-.019.016-.02.016-.02.015-.021.017-.022.016-.02.016-.02.016-.019.017-.019.018-.023.023-1.582 1.581-.035.033-.036.032-.038.03-.04.028-.041.026-.042.024-.043.022-.044.02-.045.017-.045.016-.047.013-.047.011-.048.009-.047.006-.049.004-.048.002-.048-.001-.048-.003-.049-.005-.047-.007-.048-.01-.046-.012-.046-.015-.046-.016-.044-.019-.044-.021-.043-.023-.041-.025-.04-.027-.039-.029-.037-.031-.036-.032-.034-.034-.032-.036-.031-.037-.029-.039-.027-.04-.025-.041-.023-.043-.021-.044-.019-.044-.016-.046-.015-.046-.012-.046-.01-.048-.007-.047-.005-.049-.003-.048-.001-.048.002-.048.004-.049.006-.047.009-.048.011-.047.013-.047.016-.045.017-.045.02-.044.022-.043.024-.042.026-.041.028-.04.03-.038.032-.036.033-.035 1.581-1.581.023-.024.018-.019.017-.019.016-.02.016-.02.015-.02.015-.02.014-.021.013-.02.013-.021.012-.022.011-.021.012-.022.01-.022.01-.022.009-.022.009-.023.008-.022.008-.024.007-.022.007-.024.006-.023.005-.023.005-.024.004-.024.004-.024.003-.023.003-.024.003-.024.004-.023.004-.024.005-.023.005-.023.006-.023.006-.023.007-.023.007-.022.008-.023.009-.023.009-.022.01-.022.01-.022.011-.021.012-.022.012-.021.013-.02.014-.021.013-.02.015-.02.015-.02.016-.02.016-.019.017-.019.018-.024.023-1.281 1.581-.035.033-.036.032-.038.03-.04.028-.041.026-.042.024-.043.022-.044.02-.045.017-.045.016-.047.013-.047.011-.048.009-.047.006-.049.004-.048.002-.048-.001-.048-.003-.049-.005-.047-.007-.048-.01-.046-.012-.046-.015-.046-.016-.044-.019-.044-.021-.043-.023-.041-.025-.04-.027-.039-.029-.037-.031-.036-.032-.034-.034-.032-.036-.031-.037-.029-.039-.027-.04-.025-.041-.023-.043-.021-.044-.019-.044-.016-.046-.015-.046-.012-.046-.01-.048-.007-.047-.005-.049-.003-.048-.001-.048.002-.048.004-.049.006-.047.009-.048.011-.047.013-.047.016-.045.017-.045.02-.044.022-.043.024-.042.026-.041.028-.04.03-.038.032-.036.033-.035 1.581-1.581.023-.024.018-.019.017-.019.016-.02.016-.02.015-.02.015-.02.014-.021.013-.02.013-.021.012-.022.011-.021.012-.022.01-.022.01-.022.009-.022.009-.023.008-.022.008-.023.007-.024.007-.023.006-.023.005-.024.005-.023.004-.024.004-.023.003-.024.003-.024.002-.024.001-.024.001-.024.001-.024.001-.024.001-.024.001-.024.002-.024.003-.024.003-.024.004-.024.004-.023.005-.024.005-.023.006-.024.007-.023.007-.023.008-.022.008-.023.009-.023.009-.022.01-.022.01-.022.011-.021.012-.022.012-.021.013-.02.014-.021.013-.02.015-.02.015-.02.016-.02.016-.019.017-.019.018-.023.023-1.582 1.581-.035.033-.036.032-.038.03-.04.028-.041.026-.042.024-.043.022-.044.02-.045.017-.045.016-.047.013-.047.011-.048.009-.047.006-.049.004-.048.002-.048-.001-.048-.003-.049-.005-.047-.007-.048-.01-.046-.012-.046-.015-.046-.016-.044-.019-.044-.021-.043-.023-.041-.025-.04-.027-.039-.029-.037-.031-.036-.032-.034-.034-.032-.036-.031-.037-.029-.039-.027-.04-.025-.041-.023-.043-.021-.044-.019-.044-.016-.047-.016-.046-.012-.046-.01-.048-.007-.047-.005-.049-.003-.048-.001-.048.002-.048.004-.049.006-.047.009-.048.011-.047.013-.047.016-.045.017-.045.02-.044.022-.043.024-.042.026-.041.028-.04.03-.038.032-.036.033-.035 1.581-1.581.023-.024.018-.019.017-.019.016-.02.016-.02.015-.021.017-.022.016-.02.016-.02.016-.019.017-.019.018-.023.023-1.582 1.581-.035.033-.036.032-.038.03-.04.028-.041.026-.042.024-.043.022-.044.02-.045.017-.045.016-.047.013-.047.011-.048.009-.047.006-.049.004-.048.002-.048-.001-.048-.003-.049-.005-.047-.007-.048-.01-.046-.012-.046-.015-.046-.016-.044-.019-.044-.021-.043-.023-.041-.025-.04-.027-.039-.029-.037-.031-.036-.032-.034-.034-.032-.036-.031-.037-.029-.039-.027-.04-.025-.041-.023-.043-.021-.044-.019-.044-.016-.046-.015-.046-.012-.046-.01-.048-.007-.047-.005-.049-.003-.048-.001-.048.002-.048.004-.049.006-.047.009-.048.011-.047.013-.047.016-.045.017-.045.02-.044.022-.043.024-.042.026-.041.028-.04.03-.038.032-.036.033-.035 1.581-1.581.023-.024.018-.019.017-.019.016-.02.016-.02.015-.02.015-.02.014-.021.013-.02.013-.021.012-.022.011-.021.012-.022.01-.022.01-.022.009-.022.009-.023.008-.022.008-.023.007-.024.007-.023.006-.023.005-.024.005-.023.004-.024.004-.024.003-.024.003-.024.002-.024.001-.024.001-.024.001-.024.001-.024.001-.024.001-.024.002-.024.003-.024.003-.024.004-.024.004-.023.005-.024.005-.023.006-.024.007-.023.007-.023.008-.022.008-.023.009-.022.009-.022.01-.022.01-.022.011-.021.012-.022.012-.021.013-.02.014-.021.013-.02.015-.02.015-.02.016-.02.016-.019.017-.019.018-.024.023-1.264.033-.023.034-.022.034-.02.035-.02.035-.02.036-.02-.036.02-.037.02-.037.022-.036.022-.035.02-.025.021-.026.022-.072.021-.072.02-.07.021-.07.023-.07.023-.07.022-.07.023-.071.022-.07.022-.07.023-.079.022-.079.024-.079.024-.079.024-.079.022-.079.022-.079.022-.079.022-.079.022-.079.022-.079.022-.079.024-.079.024-.079.022-.079.022-.079.022-.079.024-.079.024-.079.024-.079.024-.079.024-.079.024-.079.024-.079.024-.079.024-.079.024-.079.024-.079.024-.079.024-.079.024-.079.024-.079.024-.079.024-.079.024-.079.024-.079.024-.079.024-.079.024-.079.024-.079.024-.079.024-.079.024-.079.024-.079.024-.079.024-.079.024-.079.024-.079.024-.079.024-.079.024-.079.024-.079.024-.079.024-.079.024-.079.024-.079.024-.079.024-.079.024-.079.024-.079.024-.079.024-.079.024-.079.024-.079.024-.079.024-.079.024-.079.024-.079.024-.079.024-.079.024-.079.024-.079.024-.079.024-.079.024-.079.024-.079.024-.079.024-.079.024-.079.024-.079.024-.079.024-.079.024-.079.024-.079.024-.079.024-.079.024-.079.024-.079.024-.079.024-.079.024-.079.024-.079.024-.079.024-.079.024-.079.024-.079.024-.079.024-.079.024-.079.024-.079.024-.079.024-.079.024-.079.024-.079.024-.079.024-.079.024-.079.024-.079.024-.079.024-.079.024-.079.024-.079.024-.079.024-.079.024-.079.024-.079.024-.079.024-.079.024-.079.024-.079.024-.079.024-.079.024-.079.024-.079.024-.079.024-.079.024-.079.024-.079.024-.079.024-.079.024-.079.024-.079.024-.079.024-.079.024-.079.024-.079.024-.079.024-.079.024-.079.024-.079.024-.079.024-.079.024-.079.024-.079.024-.079.024-.079.024-.079.024-.079.024-.079.024-.079.024-.079.024-.079.024-.079.024-.079.024-.079.024-.079.024-.079.024-.079.024-.079.024-.079.024-.079.024-.079.024-.079.024-.079.024-.079.024-.079.024-.079.024-.079.024-.079.024-.079.024-.079.024-.079.024-.079.024-.079.024-.079.024-.079.024-.079.024-.079.024-.079.024-.079.024-.079.024-.079.024-.079.024-.079.024-.079.024-.079.024-.079.024-.079.024-.079.024-.079.024-.079.024-.079.024-.079.024-.079.024-.079.024-.079.024-.079.024-.079.024-.079.024-.079.024-.079.024-.079.024-.079.024-.079.024-.079.024-.079.024-.079.024-.079.024-.079.024-.079.024-.079.024-.079.024-.079.024-.079.024-.079.024-.079.024-.079.024-.079.024-.079.024-.079.024-.069.024-.069.028-.068.028-.068.029-.068.029-.068.027-.068.027-.068.025-.068.025-.069.024-.069.023-.07.021-.071.019-.071.017-.072.016-.073.014-.073.013-.074.011-.075.01-.075.009-.075.008-.076.007-.075.006-.076.006-.077.004-.077.004-.077.002-.077.001-.078.001H9c.056.002.068.004.067.014.067.015.067.019.064.022.062.023.063.031.057.035.05.042.052.039.056.035.058.031.06.025.062.021.062.018.062.012.061.012.06.013.059.015.06.016.06.012.062.009.062.008.063-.004.063-.001.063-.004.062-.009.062-.012.062-.016.061-.02.059-.02.058-.017.057-.017.057-.019.056-.014.057-.016.056-.014.058-.012.059-.01.069-.008.069-.007.068-.01.067-.015.065-.017.063-.027.062-.031.061-.036.06-.037.061-.037.059-.037.047-.049.045-.051.044-.053.042-.054.037-.057.034-.065.029.067-.027.067-.027.068-.027.068-.027.069-.025.068-.024.069-.023.069-.022.07-.02.07-.018.07-.016.072-.016.071-.015.071-.019.071-.019.072-.019.071-.018.073-.017.073-.016.073-.016.072-.015.072-.015.073-.014.073-.014.073-.012.074-.011.075-.009.074-.008.075-.007.074-.004.075-.003.075-.001.072-.001H11l1.769-1.702L12 18h3.323l-1.986z" fill="#824300"/><path d="M27 19H9l.014.082A7.081 7.081 0 0 0 15.999 26h.002a7.081 7.081 0 0 0 6.985-5.978L23 20z"/><path d="M18 21.123a13.99 13.99 0 0 1 2.826-3.373 13.99 13.99 0 0 1 3.828-9.421 14.059 14.059 0 0 1 5.128-3.195 13.965 13.965 0 0 1 .791-4.472A14.05 14.05 0 0 1 6.1 6.1a13.99 13.99 0 0 1 9.726-4.099h.348z" fill-rule="nonzero"/><path d="M28 17c0-3.183-1.264-6.235-3.515-8.485a11.996 11.996 0 0 0-16.97 0A11.996 11.996 0 0 0 4 17v2a9 9 0 0 0 9 9h6a9 9 0 0 0 9-9v-2z" fill="#fbc546"/><path d="M23.785 5.32A15.016 1.011 0 0 0 19 10.085V23a14.004 14.004 0 0 1 5.829-6.857 14.053 14.043 0 0 1 2.134-5.613 14.038 14.038 0 0 1-3.033-5.651 12.73 12.74 0 0 1-1.13-3.31 10.032 10.032 0 0 1-3.049-3.048 12.033 12.035 0 0 1-2.5-3.651 6.958 6.988 0 0 1-1.375-1.493z"/><path d="M3 19c-1.977 0-5.537-2.028-5.415-1.223a.997.996 0 0 0-.396.708c-1.1.164-4.488.278-7.377.583M14 22c-1.656 0-3.371-.305-4.3-4.118a.999.999 0 0 1-.627 6.384" fill="#664500"/></g></svg>
