<svg viewBox="0 0 32 32" xmlns="http://www.w3.org/2000/sv2" fill-rule="evenodd" clip-rule="evenodd" stroke-linejoin="round" stroke-miterlimit="1.5"><path fill="none" d="M0 .017h32v32H0z"/><clipPath id="a"><path d="M0 .017h32v32H0z"/></clipPath><g clip-path="url(#a)"><path d="M16.174 2.001a13.98 13.98 0 0 1 4.546.819 14.038 14.038 0 0 1 5.056 3.158 13.99 13.99 0 0 1 4.223 9.848 259.76 259.76 0 0 1 0 3.303 9.983 9.983 0 0 1-2.928 6.942 9.967 9.967 0 0 1-7.119 3.12c-7.179.011-1.507.091-2.599.004-2.828a1.046 1.046 0 0 1-.736 1.514z" fill="#066000"/><path d="M15 18.179c.113.416.258.833.477 1.123a4.479 4.479 0 0 1-.432 1.229 4.528 4.528 0 0 1-3.044-.151 4.46 4.46 0 0 1-2.828-1.234 3.486 3.486 0 0 1 2.495-1.968h6.457A5.005 5.5035.005.025.013.025.013.026.014.025.013.026.019.026c.014.037.063.05 1.382 2.999 2.044.898.756 1.293 1.275 1.607a13.948 13.946 0 0 1 1.841-2.814c.441-.654.922-1.558.544-1.308.991-.651 2.021.02 2.7.01 3.305 0 .956-.296 10.744-.735 17.233.306 1.738 1.986 3.113 3.305 5.697.667 1.25.832 3.107 1.534 4.05-.871 1.076-2.345 1.891-4.609-1.771-3.278-2.818-6.725-7.513-14.69-13.059-17.502-31.011-5.604-41.449-4.611-20.961 3.658-7.719 19.581-17.658 20.684-10.911 10.434 0 50 7.173 34.33 68.78 68.908 6c.861 0 16.961-1.806 18.902-2.702 3.265-5.794 3.238-9.56 3.583-3.78.563-7.778-.922-15.133-1.061-12.34-.276-5.853.902-10.202 1.995-22.751-.247.05-.788.673-.763 1.176.1812 2.951.397 6.338 6.978.948 8.273 7.619 14.168 15.456c.021-.013.065-.008.063-.007c0-.092.017-.013.031-.05.05-.028 1.328-.899 2.905.476 7.65 1.407 12.655 1.387a.797.797 0 0 1-.254-.507z"/></g></svg>
