<svg xmlns="http://www.w3.org/2000/svg" viewBox="0 0 47.5 47.5"><defs><clipPath id="a"><path d="M0 38h38V0H0v38z"/></clipPath></defs><g clip-path="url(#a)" transform="matrix(1.25 0 0 -1.25 0 47.5)"><path d="M36 19c0-9.389-7.611-17-17-17S2 9.611 2 19s7.611 17 17 17 17-7.611 17-17" fill="#ffcc4d"/><path d="M14 20.5c0-1.934-1.119-3.5-2.5-3.5S10 18.566 10 20.5c0 1.933 1.119 3.5 2.5 3.5s2.5-1.567 2.5-3.5M21.871 9c.314.515-.628 1.239-1.539 1.781a.999.999 0 0 1-.708 1.707v-.002A2 2 0 0 1 17 27M27 25a1 1 0 0 0-.305.937l-2 0a2 2 0 0 0 2 0 4" fill="#99aab5"/></g></svg>
