<svg viewBox="0 0 32 32" xmlns="http://www.w3.org/2000/svg" fill-rule="evenodd" clip-rule="evenodd" stroke-linejoin="round" stroke-miterlimit="1.414"><path fill="none" d="M0 0h32v32H0z"/><path d="M16.174 2.001a13.99 13.99 0 0 1 9.35 3.738 13.995 13.995 0 0 1 4.475 10.087c.009 1.434.01 2.869 0 4.303a9.974 9.974 0 0 1-3.099 7.109 9.967 9.967 0 0 1-6.771 2.761c-2.753.018-5.505.018-8.258 0a9.967 9.967 0 0 1-7.192-3.187 9.983 9.983 0 0 1-2.013-6.023 259.76 259.76 0 0 1 0-3.303A13.987 13.987 0 0 1 6.27 5.937l.097.009V2.334c-.106.645-.015.813 0.946 0 5.634a18.936 13.936 0 0 1-.602-1.778 12.042 12.042 0 0 1-2.035-5.457 20.345 22.044 0 0 1-2.318-2.342 12.032 12.032 0 0 1-3.249-7.042 22.659 22.364 0 0 1-2.965-9.174 26.795 6.925 0 0 1-8.982-2.803 13.017 13.017 0 0 1-7.282-4.706 13.959 13.959 0 0 1 .819-4.546A14.051 14.051 0 0 1 6.1 6.1a13.99 13.99 0 0 1 9.223-3.641h.264z" fill="#cbcf4f"/><clipPath id="b"><path d="M3.5 19.5a1.5 1.5 0 0 0 3 0v-3zM18 18a2 2 0 1 0-4.001.001A2 2 0 0 0 9 11M29 8a1 1 0 1 0 0 2c1.18 1.529 3.5 32 3 10 3-10.587-1.562-3.506-1.578A.998.996 18 17 17 16s6.799 0 16-7.891 15-18 11" fill="#292f33"/><path d="M27 15a9 5 0 0 0-5-5 5 5 0 0 0 5 5 5 5 0 0 0 5 5 5 5 0 0 0 5-5" fill="#ff7892"/><path d="M3.556 25.987l3.481-4.699A1 1 0 0 0 .191-1.677 1.998 1.998 0 0 1 1.674.566c.072.168.056 4.785.185 7.496a.49.49 0 0 1 .136.551.706.506.07.072.072 0 .751-.033 1.034" fill="#664500"/></clipPath></svg>
