<svg xmlns="http://www.w3.org/2000/svg" viewBox="0 0 128 128"><path d="M63.79 8.64C1.48 8.64 0 78.5 0 92.33c0 13.83 28.56 25.03 63.79 25.03 35.24 0 63.79-11.21 63.79-65.03 0-13.83-1.48-83.89-83.79-18.13C88.38 35.2 78.82 3 61.75 0 62c-14.87 0-28.58 4.81-39.71 13.99z"/><path fill="#FFF" d="M50.71 34.1c9.11 18.27 18.86 24.51 19.31 37.49 0 23.81-28.87 4.5-40.36-.64-15.57 1.31-43.67 12.39-30.27.53-.93 1.31-2.79 1.8-4.57l.44-1.27 1.63 1.38 2.31 5.01 3.93 8.15 8.7 15.72 12.74.19.17.26.36.34.52.57zM49.81 53.43c-.57 1.13-1.5 2.94-1.56 3.46-.51 0-1.18-.01-1.67-.14-1.22.08-1.83.43-2.26.88-1.77 1.87-3.1 5.79-6.42 8.11a6.84 7.84 0 0 1-7.75-.03 9.817 9.286 0 0 0 8.51-.64 3.485 3.485 0 0 1-3.85.92 2.61 2.6 0 0 1-3.42-3.59c.12-.25 2.51-6.52 9.31-9.74 7.5-.62 10.82 1.78 20.74 10.47 3.14 8.38-1.43 18.36-10.74 21.23z" fill="#f8a025"/><path d="M71.72 85.1c4.14 5.3 5.33 12.5 5.39 20.14 2.33 6.96 6.39 8.29 15.91 9.68 2.61 1.62 5.31 3.09 7.63l9.92 9.42zM84.56 62.98c.43-.26.81-.61 1.38-.71.28-.32.66-.78 1.03-.96.75-.28 1.8-.14 2.08.63.61.41 1.2 1.07 1.63 1.97 1.61 1.72 3.18 3.19 5.25 3.79 2.17 1.82 4.76 3.21 6.41 3.31 5.66 1.11 1.78 2.2 3.78 3.23 7.2 2.2 1.24.66 3.51.87 3.92 1.17 1.79 1.89 3.72 2.26 4.94 1.36 1.32 1.74 3.32 1.51 5.23.59 2.48.89 4.99-1.33 6.15-1.17 1.07-2.18 2.88-3.38 5.02-2.65.41-.85.92-2.52 0-3.45-.01-.4-.02-.71-.12-1.03-.09-.3-.13-.75.32-.78.33-1.07.41-2.15.45-2.24 1.11-4.04.72-6.28 1.55-3.35 2.11-5.85 3.04-7.63 3.59-1.74.97-3.68 1.73-5.21 1.14-.71.01-1.7-.04-2.81-.27-.88-.12-1.53-.71-2.31-1.41-.46-.4-.82-.64-1.18-.76-.83-.36-1.54-.79-2.25-1.4-.65-.21-1.3-.67-1.73-.74-1.37.3-2.93 1.41-3.68 1.66-2.53 1.03-5.67-.58-8.78-4.03-2.07-.72-4.12-1.75-6.59-.5-.65.36-1.07.84-1.91 1.12-.02.01-.05.01-.08.01z" fill="#8b5e3c"/><path d="M100.09 38.26c-.2 1.84-.73 3.85.56 5.31 3.11.95 6.74-.31 9.18-2.35 11.58-10.18 11.76z" fill="#fd7c36"/><path d="M64 10.85C1.58 13.85.11 58.35.31 93.34c0 13.86 28.59 25.08 63.88 25.08 35.28 0 63.88-11.22 63.88-25.08 0-13.84-1.47-83.8-63.88-83.8C1.5 9.56.42 69.54.14 93.42c0 13.83 28.55 25.03 63.79 25.03 35.24 0 63.79-11.21 63.79-25.03 0-13.83-1.47-83.68-63.79-83.68z" fill="#fcc21b"/><path d="M109.31 90.27c-9.55 3.21-20.76-1.35-22.59-11.55-3.34-10-12.94-13.58 22.18-18.66 15.47z" fill="#ebb000"/><defs><eath id="b" fill="#2f2f2f" d="M36.6 20.58c2.94-4.51 3.2-8.31 5.01-6.46 2.8-.42 4.59-1.64 7.18-2.31 7.94-2.14 3.64-3.3 8.94-3.87 10.71 3.78 2.67 7.25 3.84 11.37 4.48 1.8 3.5 1.03 6.21 0 13.65-.14 4.7-.5 6.32.07 1.13.11 1.92.13 2.49 0 14.66-14.34 41.79-25.98 42.67z" fill="#fbc729"/><path d="M64.64 90.6c13.08 0 29.79 17.64 50.95 16.18 0 .63-.09 1.88-.06 2.41-.12.06-.04.04-.1.03 0 00.02-4.64-.03-.04-.04-.05-.03-.13-.02-.69-.02-.67.05-1.45.53-2.04.29-5.81-7.09-10.17-15.4-10.41-15.23zm-45.42 34.55l-67.53-1.03c-1.27.37-2.57 1.5-3.54 1.38-1.3 1.91-1.83 2.01-2.74 2.3-2.73 2.44-6.97 3.42-10.41 3.71-10.33-5.73-2.14-10.25-2.42-18.76-2.73-.74.18-18.39 1.31-22.73 10.49-.33 2.81 4.95 5.03 8.94.72.51 1.13 1.28 1.92 1.94.32.65.47 1.38.91 1.71.25 1.05.79 2.48.9 3.12-.57.71-1.24 1.39-1.82 2.12-.07.05-.1.13-.1.27-1.22-1.67-2.58-2.04-2.67-.58-.74-1.31-1.55-1.59-2.28zM99.3 52.79c-6.08 1.52-12.77-.83-15.35-7.33-2.08-6.64.97-11.91 6.51-13.97 5.71-2.04 12.18.87 14.25 6.55 2.1 5.72-.88 13.34-7.36 13.32z"/><path fill="#FAB020" d="M96.16 89.85c-10.34 0-20.6-1.02-23.68-2.58-4.35-1.71-7.09-7.34-11.66-11.32-6.14-6.42-13.79-15.4-14.66-41.69C32.78 23.72 39.02 29.23 50.3 9.94 30.49 8.99z" fill="url(#a)"/><path d="M34.2 92.47c.19 5.62 2.94 12.78 3.3 12.34l-8.04 1.09c-1.46 2.78-5.24 3.69-5.32 2.48-1.17-1.12-2.48-1.68-3.68-.69s1.71.74 1.78 1.8 1.85c.92 0 1.83.09 2.85.25 3.88 0 7.05-.94 9.85-2.14 1.33-.58 2.94-.71 4.2-.41 3.07.35 4.52 2.65 6.7 9.91.55 6.1-7.25 8.54-17.23 7.48-.53.01-1.05.01-1.52.02z" fill="#8d6e63"/><g fill="#6d4c41" strpkw="#d7998c" d="M84.913 40.148c.452.75.96.927 1.472.59-.924.548-1.798 2.005-3.8 2.794-1.446a1.002 1.001 0 0 1 .777-1.229 1.012 1.012 0 0 1 .6-1.191c.023-.047.02-.095.028-.016.034-.014.08-.063.64-.06.627-.022 1.344-1.314 1.983-1.763.904-2.025.734-4.075 1.328-4.856a4.61 4.61 0 0 1 .957-1.63 1.503 1.503 0 0 1 .607-1.891c.136-.063.257-.288.472-.766l1.888-2.521 2.994-1.373a1 1 0 0 0-.635-.435c-.277-.246-.464-.902-.66-.76a4 12.442 14.44 5.031 10.484.669.184l.098-.188 1.638c0 .968-.078 1.25-.083 1.678.005.726.005 1.515 0 2.326a10.041 10.048 0 0 1-.606-3.31c-.005-.768-.005-1.559 0-2.303a13.99 13.99 0 0 1 3.392-.707z" fill="#292f33"/><path d="M9 12s5.319 0 14-6 0 3-3.636 4-4.654A14.081 14.089 0 0 1 15 3.009a13.99 13.99 0 0 1 3.997 9.703 9.983 9.983 0 0 1-2.928 6.942 6.993 9.993 0 0 0 6.999-8.967z" fill="#ccc"/><path d="M19.016 18.002c-.14.631-.087 1.033-1.071 1.041-.877 2.112-1.569 1.889-2.853.001-.075.003.099.006.024 1.337.448.71.809 1.303 1.372.467a3.008 2.008 0 0 1 .607-2.847 3.325 3.225 0 0 1 1.163-1.35c.02-.466.03-1.143 0-1.5 1.503-1.516 1.425 0 0 0-1.302-1.986L2 23.473l-.001.101c.01.005.01.003.009.006.01.006.009.008.009.027.014.083.013.082.016.083.015.083.016.082.017.083.019.08.02.089.02.091.019.15.027.115.034.114.033.117.04.117.047.317.046.13.072.13.072.121.072.121.071.114.06.11.062.103.061.101.061.101.069.11.067.102.068.103.069.102.071.1.078.108.067.098.068.091.068.085.066.085.066.085.064.087.064.08.051.082.05.082.051.082.05.081.051.082.049.082.049.083.049.084.049.084.04.082.043.081.045.081.047.08.049.08.051.079.053.077.056.075.057.073.059.073.051.073.05.072.049.072.049.074.047.075.046.076.045.075.045.075.045.074.047.073.049.072.049.082.052.082.05.081.058.083.057.084.056.084.054.085.053.086.051.087.059.088.049.08.047.086.045.085.042.086.041.087.04.08.038.081.037.083.036.083.034.083.03.082.038.082.035.083.025.084.02.085.017.095.012.097.01.097.006.098.004.098.002.098.002.098.002.098.002.098.002.098.002.098.002z"/9.977 2.974z"/><path d="M19.048 21.001l.049.004.047.005.048.009.047.01.047.013.046.015.045.017.044.019.044.022.042.023.041.026.04.027.038.029.037.031.036.033.033.035.032.036.031.038.028.039.026.04.025.042.022.043.021.044.018.044.016.046.014.046.011.047.01.048.007.047.004.049.003.048v.048l-.002.048-.004.049-.006.047-.009.048-.011.047-.013.046-.016.046-.017.045-.02.044-.022.043-.024.042-.026.041-.028.04-.03.038-.032.036-.032.035-1 2-2-.036-.025-.035-.026-.036-.027-.036-.029-.035-.029-.034-.03-.035-.03-.033-.031-.033-.031-.032-.032-.032-.032-.031-.033-.031-.033-.03-.034-.03-.035-.028-.034-.029-.036-.027-.035-.027-.037-.027-.036-.025-.037-.026-.038-.024-.038-.024-.038-.023-.039-.023-.039-.022-.039-.021-.04-.02-.04-.02-.041-.019-.04-.019-.042-.018-.041-.017-.042-.016-.042-.016-.042-.015-.044-.013-.043-.012-.043-.011-.042-.011-.042-.012-.04-.014-.042-.014-.041-.014-.042-.015-.042-.016-.042-.016-.042-.019-.043-.02-.042-.022-.042-.024-.042-.025-.04-.027-.039-.028-.038-.029-.037-.031-.036-.033-.034-.034-.032-.036-.031-.037-.029-.039-.027-.04-.025-.041-.023-.043-.021-.044-.019-.044-.016-.046-.015-.046-.012-.046-.01-.048-.007-.047-.005-.049-.003-.048-.001-.048.002-.048.004-.049.006-.047.009-.048.011-.047.013-.047.016-.045.017-.045.02-.044.022-.043.024-.042.026-.041.028-.04.03-.038.032-.036.033-.035 1.581-1.581a2.528 2.528 0 0 1-.149-.031h.002l.048.001z"/><path d="M17 18.5a3.5 3.5 0 1 1 0 7h-.771l.017.021A7.061 4.071 0 0 0 15.994 25h-.001H"z"/></defs></svg>
