<svg xmlns="http://www.w3.org/2000/svg" viewBox="0 0 128 128"><path fill="#2f2f2F" d="M305.31 94.92c-1.35 0-2.29-.75-2.2-1.75v-4.3c0-1.3 3.06-2.32 3.56-2.42s1.89-3.58 2.6-2.85c.4-1.4.8-2.96 1.45-4.23l8.11-2.46c.66-.34 1.51-.58 2.64-.3l5.62-9.65 2.76-14.7c.17-.13.32-.25.4-.37.44-.72.85-1.65 1.54-1.56.52-.51 1.14-1.02 1.68-.75.54-.34 1.17-.69 1.71-1.06.43-.3.9-.35 1.45-.38.54.18 1.07.73 1.68.69.17.22.32.29.64.36 1.06.53 2.15 1.16 2.97 1.91 4.7 2.5 9.3 1.99 11.48 3.62 9.19 5.07 11.5 13.43 11.29 12.65.34 3.1-.9 6.68-5.61.7-.67 0-1.46-.49-2.2-.6-1.75-.53-3.48-1.73-5.94-2.27-1.5-.37-3.44-.65-4.91-2.11-3.61-3.21-7.46-7.09-.08-.4a4.48-4.48 6.83-7.16 10.49-1.07 1.32-3.18 2.8-5.56 2.4z"/><path fill="#F79329" d="M125.08 86.26l-7.29-1.11-15.59 6.39c-.96.12-2.04.28-2.58.29-6.19.08-16.04-2.8-18.99-3.68 0-4.39 3.24-8.25 7.23-8.51s9.51-4.45 12.97-.91 19.11c0 3.41-1.72 5.13-2.66 6.47z" fill="#f79778"/><path d="M67.59 46.25c-1.1 1.05-2.25 2.79-3.08 5.09 4.14 8.65 14.59 7.24 20.72L92.1 47.78z" fill="#fff"/><path d="M81.49 126.44c-4.29.04-8.17-4.27-8.22-9.67-.05-5.37 3.55-9.75 8.04-9.79 4.48-.04 8.17 4.27 8.22 9.64.04 5.35-3.56 9.73-8.04 9.77zM234.99-54.94c-4.45.01-8.13 4.36-8.12 9.74.02 5.35 3.67 9.68 8.16 9.67z"/></svg><path d="M127.22 71.43c-5.53-2.71-9.61-11.01-10.23-13.84 5.79-.16 17.21 7.5 11.27 15.83 2.94 17.94-15.65 21.72-33.41 31.33-15.81 29.61-5.81 43.7-.9 39.19-3.05 30.09.95 5.81 4.19 9.09 5.69 14.78 5.05 27.33-8.17 39.8-5.06 17.21 2.14 25.92 7.87 45.74 8.57s-3.89-1.71-3.3-3.24 2.31c-2.33 2.21-4.77 3.89-6.71 6.79-3.65 2.42-8.25 3.91-15.69 4.91-6.62-1.13-13.67-7.66-9.87zM18.38 81.92c-2.15 0-4.05-1.06-4.79-3.09V40.67c2.91 4.52 4.11 10.09 4.68 11.54M8.07 11.6c-1.78 1.74-3.77 2.34-5.42 2.11-2.57-2.85-2.64-6.04-1.02-11.01 1.34-1.53 4.03-2.52 8.11-.13 7.66 4.9 12.08 12.78 14.89 17.96z"/><path fill="#FCC21B" d="M.4 68.66.58 79.16" fill="#d79784"/><path d="M63.99 73.16c.35 0 .8.08.86 1.2 1.05.52 1.39 1.07 3.04 1.54 1.32.62 2.17 1.3 4.28 1.35 1.03.81 1.67 2.36 1.3 3.28zM28.73 37.73c-1.46 0-2.61.3-3.02.1-.14 5.58-10.02 11.68-5.04 17.33-6.11 7.49-7.17 1.2-13.42.96-20.12.64-.57.92-1.39 1.43-1.96.44-.36.85-.45 1.35-.8.43-.01.97-.11 1.34-.01 1.63-.05 2.28.21 2.93 0 1.99-2.24 2.79-3.37 3.09-1.15.13-2.25-.88-2.43-1.51-.13-.22-.19-.4-.35-.56-.18-1.29-.42-1.59-.46-.79-.31-1.34-.33-1.95 0-2.48.53-3.12 1.17-4.13 1.37-1.18 2.43-2.48 3.48-3.15 1.66-.77 3.55-1.17 5.03-1.03 1.41.36 1.9 1.15 2.64.27.95.56 1.06 1.16 1.61.53.28 1.2.63 1.56 1.37.23.38.47.76.75 1.09 1.12 1.11 1.65 2.33 1.68 3.49a2.998 2.998 0 0 1-.38-1.72c.18-.32 4.3-7.62 14.32-7.62 9.7 0 12.17 7.27 14.39 17.2 20.769.12.17.41.43.88.84 1.42.24.98 1.01 1.85 2.07 2.62 1.08.74 3.32 1.2 4.11 3.38-.62 1.42-1.25 2.62-3.23 3.83-.5.29-.73.6-1.43.63-2.58.28-3.81.01-7.05.46-7.92-4.15-9.54-9.15-5.41-11.9-1.1-13.18 6.97-6.62.01-.01.02-2.61 1.53-4.02.98-2.32 2.53-3.31 4.48-3.71zM86.2 47.28c-1.39 5.48-3.51 7.63-7.23 8.43-1.23.45-2.43-.24-3.01-.68l-1.69-1.81c-.92.19-1.71.2-2.61.81-4.5 1.09-14.84-.68-20.44-6.94-2.36-3.64 1.71-9.54 7.72-10.27 4.27-1.73 8.48.78 11.24 5.38 1.81 4.53-.75 9.67-5.17 10.51z"/><path fill="#F9A324" d="M29.06 83.93c-5.53 1.87-10.62-.72-12.76-5.94-1.83-4.98.76-10.43 5.69-12.57 5.8-1.84 11.29.61 13.38 6.03 1.96 5.3-.83 10.78-6.04 12.69z"/><path fill="#FAB020" d="M90.95 40.86c-6.1 1.33-11.64-.81-15.34-7.31-2.4-6.43.98-11.61 6.49-13.72 5.41-2.23 12.69.92 15.22 7.21 2.31 6.23-.99 13.39-7.3 15.44z"/><path fill="#FAAC22" d="M84.38 88.57c-5.17 1.85-10.87-.76-12.74-5.8-1.87-10.54 1.8-18.28 6.05-16.71 7.38-2.96 15.25 1.08 18.37 7.97 2.98 5.91-1.14 11.51-8.84 12.83z"/><path fill="#FAAC22" d="M84.08 84.15c-1.94 3.91-3.79 4.87-7.25 5.44-4.1.8-4.19-3.46-7.78-7.33-6.67-3.07-1.46-8.02-2.08-12.18.1-1.19.12-2.93.6-3.97 1.51-2.52 4.1-6.89 10.03-1.96 14.2.34 1.32 1.11 1.89 3.44.76 6.96-1.44 13.08-9.9 18.64-16.98 13.03-16.03 15.05-35.99 2.23-1.06-.96-2.1-.57-3.17z"/><d><svapa iill="#2F2F2F" d="M52.32 91.51c0 3.5-2.63 6.59-5.31 6.26-2.25.31-4.35-2.36-5.42-5.32 1.04-10.04 9.05-14.82 10.42-1.36 15.81 1.04 22.65 10.05 3.27 8.41-6.82 11.03-21.74 10.78z"/></d></svg></svg>
