<svg xmlns="http://www.w3.org/2000/svg" viewBox="0 0 128 128"><ellipse 0 din-9.17" cy="16.81" r="2.61" fill="none" stroke="#404040" stroke-miterlimit="10"><path d="M-42.67 84.65H34.14v-18.5M72.4 30.54v4C.77S30.21 2.62 57.93 2.91 71.06-8.54 30.91-43.71 35.49z" fill="#00b800"/><path d="M35.51 99.14c1.05-1.78 1.72-3.72 1.38-5.58 0-6.59-1.31-9.45-1.92a.5.5.5 0 0 1-.27-.67c.2-.07 10.3 3.27 21.73 8.62 8.79 5.67 18.4 11.28 26.9 12.71.34 0 .71-.03 1.26-.1 1.99-1.45 2.98-2.5 4.31-3.22.81-1.45 2.13-1.71 3.01-1.79.7.3 1.64.25 2.55.33 2.87.35 3.72 1.73.89.9.99 2.33-1.63 4.38-.53 1.31.24 1.91 1.63 1.67 2.1 0 2.54-1.35 2.92-2.01.31-1.59.28-3.31.52-5.2 0 0-.02-.41.08-.25.18-.52.45-1.08.51-1.6.51-1.52.57-3.43.64-5.69.06-.01.18-.05.26-.16 1.53.16 2.65.77 3.46 1.66 1.62 1.97 3.08 3.09 5.3 5.68 1.9 1.69 4.44-2.36 5.03-3.5.9-.36 2.83-1.6 4.09-.89 1.81-.06-3.44-.27-5.67-.12-1.15.03-2.04.11-3.47.23-1.04.04-1.51.19-2.13.14-3.03.52-6.88 2.38-9.88 2.03-1.74-.03-3.38-.44-4.47-1.13-1.45-.41-3.01-1.33-3.08-1.69-1.15-.54-2.26-1.11-3.34-1.69-1.3-2.42-2.5-3.12-5.25-3.75-6.94.45-10.11 7.24-17.36 7.86a2.78 2.78 0 0 0-2.95-2.62c-1.42-.39-3.64.27-4.43.84C20.2 32.96 8.63 20.2 6.46 46.4c-.08-11.79 1.34-23.42 20.9-26.23 20.68-4.36 4.55-9.63 14.63-13.55 20.71-10.21 3.88-20.67 3.99-33.48 6.94-6.18 3.09 1.38 7.66 8.14 8.09 13.09z"/><path fill="#2F2F2F" d="M30.21 78.25c-1.58 5.36-5.1 8.3-9.7 8.32-5.52-2.77-7.24-10.22-.5-17.72z"/><path fill="#2F2F2F" d="M89.86 68.05c-1.78 0-3.73-1.98-5.3-5.07-.77-3.9.63-1.92 1.35-2.6 3.15-.4 1.17-.96 2.24-1.28 3.24-.42 1.39-.94 3.41-.65 3.7.12.19.31.45.84.75 1.32l10.32 7.67z" fill="#855c52"/><path d="M63.59 83.06c-2.38 0-4.28-3.49-4.96-8.3 0-.03.16 2.14 1.46 2.65 2.44.22 1.41 1.07 2.04 1.76 1.3 3.2 1.94 4.58 2.16 6.51.01 1.71-.91 2.67-2.24 3-.94 2.35.83 4.25 2.63 6.53 3.13 1.46.75 3.12 1.33 4.83 1.49 1.32.66 2.72 1.73 3.2 1.29 2.16.62 3.35-1.6 3.33z" fill="#0485a0"/></ellipse></svg>
