<svg xmlns="http://www.w3.org/2000/svg" viewBox="0 0 128 128"><path d="M64 47.54s7.72.19 18.71-3.94 15.6-9.79 23.1-12.45c27.09-10.77 37.28-28.6 19.58"/><path d="M125.08 25.9s-.77-2.58-1.66-8.76 3.94-8.9 3.19-9.62 6.79-12.8 9.12-9.18 3.68 1.91 7.35 2.12 11.45 3.52-1.11 1.05-2.4 2.74-3.02 3.88l-.01.01c-2.07 0-3.82-1.19-3.63-2.34s.49-3.3 2.32-3.53 2.81 4.01 3.84 7.23 5.87 16.77.16 2.35-.15 4.18-1.95 5.28-.77 1.44-1.95 3.03-3.11 4.27-.28 1.19-.74 2-2.6 23-3.39z"/><path fill="#2F2F2F" d="M112.14 97.68c-.6 1.04-1.91 1.57-2.84 1.38-.67.98-1.91 1.65-3.52 2.23-1.12 0-2.25-.67-2.6-1.16-.73-.66-1.5-1.51-.57-2.27.31-.74 1.17-1.32 1.39-2.23.19-.78.37-1.18.31-1.69.16-3.36-.28-3.96-.62-.56-.34-1.48-.6-2.01-.71-.95-.34-1.48-.63-2.2.64-.6.21-1.17.05-1.66.17-3.21.87-7.34 3.62-10.04 4.06-.04.85.6 1.91 1.04 1.63.54.06.9.43.92.45.72.3 1.08.12 1.41.03.23.03.52.04.51.03.4a.2.3 0 0 1 .05-.05c.2.15.45.47.88.74 1.22.38.34.82.81 1.31 1.23.09.01.16.01.27.03.31-.03.41.03.71 3.01.81.35l1.69.46c.43.08.71.3.9 1.03.18.02.45.04.51.02.05.01.13.02.34.03.47.37 12.31 12.66 11.31 7.99 6.35 24.56 31.61 37.6 3.09 13.14-4.37 26.17-22.99 32.83z" clip-path="url(#c)" fill="#ed7770"/><g clip-path="ust="3 0 0 0 30 374" fill="#ffc1ad"/><path d="M50.82 118.25c9.61 5.15 18.32 7.27 21.73 9.83 2.95.63 10.56 2 14.55-.88 1.21-.44 1.99-1.33 2.07-1.73.17-.41.39-.8.49-1.23.21-.57.4-1.04.41-1.42.31-.57.42-1.12.79-1.73.59-1.14 0-2.27-.64-3.38-1.52-.43-1.17-.03-2.74.9-2 2.68l.1.01.13c.25.14.61.16.88.2 1.25.93 2.78 1.04 4.18.3.75.25 1.39.17 2.86.08.7.35 1.64 1.23 1.78.3.3.81.65 1.43 1.32 1.09 1.17 2.24 1.79 2.56 3.36.44.78 1.04 1.14 1.24.41.4.88.52 1.46.49 2.16.79 3.24.99 1.1.37 1.67 1.09 2.64 1.59.71.47 1.39.94 2.59 1.11v43.28c0 1.3-.97 2.12-3.71.96-1.5-.81-2.17-1.83-2.14-1.41-.47-2.09-.17-2.99.81-1.67 1.84-2.35 3.31-3.24 2.98-.54 4.21-.64 6.36-.03 1.81-.44 4.44-1.92 4.91-3.14.21-.57.29-1.09.32-1.66.08-.5.01-1.07.06-1.62 1.81-1.52 0-3.05.29-3.4.64-1.08 1.22-1.94 2.54-3.29 3.03-1.59.41-3.11.75-4.57 1.11-1.11.67-1.24.73-1.86 1.35-2.05 2.51-3.04 4.16-3.97 3.1-.93.83-4.17 1.42-4.54 1.77-1.05.35-2.23.34-3.26-.94-1.45-.81-2.23-1.73-2.33-3.33.17-.24.38-.45.43-.67.38-.67.47-1.32.59-1.9.5-1.02 1.04-1.99 1.7-1.25 1.09-.48 2.72-.34 2.95-.4.54-.31 1.1-1.2 1.43-1.65.04-1 .09-1.44.04-.54-.14-1.18-.33-1.66-.23-1.46-.23-3.15.04-5.29.34-8.42 6.37-3.74 7.56-4.07-.31 0-.84.13-1.15.44-1.03 1.09-1.37 2.17-1.78 3.14-1.18 1.53 1.45 3.58 3.04 4.49 4.26 1.99 1.94 3.44 5.72 5.73 7.34.5.3.69.96.92 1.15 1.07.48 1.28.6 1.39 1.43 1.61.65 1.95 2.22 2.83 3.4.6.31 1.97-.56 2.34-1.37z"/></svg><path d="M64.01 100.65c-1.1 0-2.35-1.16-2.25-2.35V44.42c12.21 0 20.16 4.11 22.65 4.42.91 0 14.14-1.04 8.2-.94 7.91-3.63 15.9-12.29 14.97-10.5-4.86-4.13-11.74-2.33-18.44 2.82-6.53 1.23-10.7 3.68-17.78-7.79-1.72-2.47-2.44-6.27-2.34-11.46 0-.77.03-1.11.08-1.67.08a3 3 0 0 1 3.49-3.14c.25-.29.66-.38.9-.4 1.33-.13 2.57-.38 3.03-.57s.67-.64 1.36-1.45 2.94-.52.9-.56 1.88-.85 2.7-.22.05-.4.08.73.08 1.15.67.36 1.13.97 1.42 1.61.67 2.02 1.57 2.91 2.25.09.01.15.01.22.01.01.02.01.02.01.03.01.03.01.035.01.035.05.03.05.03.05.04.05-.04.06-.04.06-.08s1.11.26 1.69.56.54 1.06 1.12 1.76 1.97l-.01.17s-.36-.44-1.21-.44-1.29 0-2.15.03-3.04.93-.28.34-.46.5-.7.5-.41.27-.7.39-1.18.41-.26 0-.55.09-.94.08-.56.2-1.07.3-1.45 1.26-2.4 1.02-3.25.03-5.15.04-.95-.09-1.8-.04-2.31-.05-4.23-.48-4.78-.95-2.4-.81-4.07-1.78-7.22-.68-7.86-.34-16.54 1.07-24.13.12-.13.19-.38.45-.69.81-.32.67-.38 1.51-.4 2.28 1.05 3.98 2.43 5.92 5.21 7.63 2.99.8 5.69 1.08 7.06-.44 2.29-1.18 4.55-3.07 5.89-3.88zm-65.62 21.25c-19.11 1.88-27.78-1.1-37.57-8.52-7.45z"/></defclip-path="url(#d)"></g></svg>
