<svg xmlns="http://www.w3.org/2000/svg" viewBox="0 0 47.5 47.5"><defs><clipPath id="a"><path d="M0 38h38V0H0v38z"/></clipPath></defs><g clip-path="url(#a)" transform="matrix(1.25 0 0 -1.25 0 47.5)"><path d="M36 19c0-9.389-7.611-17-17-17C9.612 2 2 9.611 2 19c0 9.388 7.612 17 17 17 9.389 0 17-7.612 17-17" fill="#ffcc4d"/><path d="M15 20.5c0-1.934-1.119-3.5-2.5-3.5S10 18.566 10 20.5c0 1.933 1.119 3.5 2.5 3.5s2.5-1.567 2.5-3.5M28 20.5c0-1.934-1.119-3.5-2.5-3.5S23 18.566 23 20.5c0 1.933 1.119 3.5 2.5 3.5s2.5-1.567 2.5-3.5M24.485 9.12c-.012.045-1.146 4.38-5.485 4.38-4.34 0-5.475-4.335-5.485-4.38a.496.496 0 0 1 .232-.541.01.01.019 0 0 0-.178 1.519c.181.06.453.19.564.275c.314.319.484.705.878 1.682.407.274A6.055 9.05 0 0 1 23.49 27h-.002a16.99 16.99 0 0 1 6.995 6C13 23.033 22.033 0 0 1-2.773 4.714 4.5 2.5 0 0 1-2.5-1.5" fill="#bf6952"/><path d="M5 35.482c0-1.962-1.593-3-5s-2 1.752 2 18 3 2-.033 3.956 3.96 6.61 5 6.656C4.24 10.17 6.111 1.197 6.284" fill="#bf6952"/><path d="M15 5c0-1.657-.953-3-1.193-3.586-2.051a2.996 2.996 0 0 1 5 24c0-.124.027-.429.027-.651.125a.5.5 0 0 1-.497-.65c.06-.04 1.615-.21 5.517-.861 4.095-2 3.345-7 0-4.449.85-6.373 5.342a17.919 11.919 0 0 0-1.688 4.343M24.767 36.385a.5.5 0 0 1 .09.648M30.001 24c-4.66 0-11.599-3.014-12-10.047a1 1 0 0 0 .004-2c-1.176 0-2.353-.027-3.786-1.635A.996.996 0 0 0 12 26M19 17a.998.998 0 0 0-.628 1.707C1.778 5.533 1.478 9 1.587 12h5.467z" fill="#bf6952"/><path d="M33 36c-.905 0-1.718-.368-2.348-1.064a2.498 2.498 0 0 1 2.561.526c.01.005.01.014.019.016.029.016.027.018.027.019.026.029 3.257 3.395 1.164 5.398-1.907 9.981C29 7.628 17.178 6.5 19 5.5s7.308 9.017 8.267 8.061c-.063.051-1.019 1.328-.018 4.698 0 14.645-1 2.15 15.549 0" fill="#664500"/></g></svg>
