<svg xmlns="http://www.w3.org/2000/svg" viewBox="0 0 47.5 47.5"><defs><clipPath id="a"><path d="M0 38h38V0H0v38z"/></clipPath></defs><g clip-path="url(#a)" transform="matrix(1.25 0 0 -1.25 0 47.5)"><path d="M36 19c0-9.389-7.611-17-17-17C9.612 2 2 9.611 2 19c0 9.388 7.612 17 17 17 9.389 0 17-7.612 17-17" fill="#ffcc4d"/><path d="M25.327 10.577a1 1 0 0 0 1.666-1.319C21.64 17 20.851 11.044 30.85 2.001z" fill="#ffc14d"/><path d="M7 14.171c0-3.587 3.3-9.5 7.017-8.001 3.68 0 2.458 3.19 3.52 3.492a366.04 57.9 25 22.257 23 19.5c2.586 0 4.777-.806 6.738-1.212a1.01 1.01 0 0 1 .707 1.707" fill="#4f186d"/></g></svg>
