<svg xmlns="http://www.w3.org/2000/svg" viewBox="0 0 128 128"><path d="M63.89 9.64C1.58 9.64.1 79.5.1 93.33c0 13.83 28.56 25.03 63.79 25.03 35.24 0 63.79-11.21 63.79-25.03 0-13.83-1.47-83.69-63.79-83.69z" fill="#fcc21b"/><path d="M63.44 84.6c2.17-.62 8.13.49 19.67 1.33 23.75 12.01 31.05 19.92 22.34l8.59 23.24c1.92 2.74 3.28 6.71 3.26 11.55zM64.16 56.6c2.75-4.06 5.11-7.18 3.62-14.15 1.49-1.82 3.33-2.12 4.89-3.09 9.06-2.23 18.41-1.9 17.98-6.24.02-.08.11-.14.22-.08.42.19.61.65 1.02 1.31.61 1.87 1.09 3.45 3.88 3.67 5.95 8.09 1.56.45 3.22.64 4.48.47 1.15.48 2.38-.04 3.77-.24 7.63-5.27 12.03-10.12 14.71z"/></svg>
