<svg xmlns="http://www.w3.org/2000/svg" viewBox="0 0 47.5 47.5"><defs><clipPath id="a"><path d="M0 38h38V0H0v38z"/></clipPath></defs><g clip-path="url(#a)" transform="matrix(1.25 0 0 -1.25 0 47.5)"><path d="M36 19c0-9.389-7.611-17-17-17C9.612 2 2 9.611 2 19c0 9.388 7.612 17 17 17 9.389 0 17-7.612 17-17" fill="#ffcc4d"/><path d="M30 27c-5.554 0-7.802 4.367-7.895 4.553a1 1 0 0 0 1.788.898C23.967 32.306 25.717 27 32 27a1 1 0 1 0 0-2c-.085-.002-3.298 1.11-5.061.046A5.004 8.004 0 0 1 19.994 15a.503.503 0 0 1 .485.83.403 3.503 0 0 1-2.728 6.544 6.041 6.041 0 0 1-2.123-.294 2.991 2.991 0 0 1-.301.192 2.021 3.021 0 0 1-.922-.915A3 3 0 0 1 26 27" fill="#292f33"/></g></svg>
