<svg viewBox="0 0 32 32" xmlns="http://www.w3.org/2000/svg" fill-rule="evenodd" clip-rule="evenodd" stroke-linejoin="round" stroke-miterlimit="1.414"><path fill="none" d="M0 0h32v32H0z"/><circle cx="16" cy="16" r="16"/><path d="M12.976 2.328A14.017 14.017 0 0 1 16 2c5.178 0 9.704 2.817 12.125 7.002.787 3.091 1.461 5.819 1.617 9.686C28.549 24.812 23.358 29.515 17 29.965c-2.429-.528-5.812-1.221-7.889-1.777a14.045 14.045 0 0 1-6.49-8.056c.213-3.091 2.481-11.543 2.75-13.24.246-.287.504-.564.772-.83.868-.153 5.658-2.965 6.833-3.734zM20.342 20.325a.997.997 0 0 1-1.347-.438.993.993 0 0 1-.093-.406v-.002zM20.101 29.007l.068.01a13.967 13.967 0 0 1 5.856-.231h12.588A1.998 1.998 0 0 1 2.805 1.002 12.97 12.94 6 0 1 18 10.085v1.002z"/><path d="M31 22.5c0-1.834-.856-3.05-2.829-1.081-2.586.523-5.662 3.071-6.692 1.178-.404 1.979.624 3.59.937l.504.506 6.062 2.375A1.098 1.998 0 0 1 1.304.704 1.018 1.018 0 0 1 .071 1.857 1.01 1.01 0 0 1-.246 1.127 1.044 1.044 0 0 1-.246.405 2.865 2.886 0 0 1-.811-.711 3.026 3.026 0 0 1-.713.481c-.013.077-.005.077-.005.076-.007.174.031a3.003 3.003 0 0 1 1.233-.833c.135-.016.263-.042.119a3.005 3.006 0 0 1-2.928-1.332A23.997 13.987 0 0 1 6.27 5.634a3.998 3.998 0 0 1 1.06 3.657c.06.05.732.158.708.102.144.115.184.271.352.28a1.016 1.016 0 0 1-.685 1.893 1.895 1.995 0 0 1 2.989.79l.058.02z"/><path d="M18.479 18.001c.123.006.142.009.276.01 3.408 0 0 0 7.62 5.459c.184.488.239.776.175 1.354a.703.763 0 0 1-.362 0.646c.004.576.005 1.535 0 2.303a9.998 9.998 0 0 1-2.028 6.294 9.97 9.97 0 0 1-3.309-.606 10.047 10.047 0 0 1-.606-3.31c-.005-.766-.005-1.535 0-2.303a13.99 13.99 0 0 1 3.392-8.963 259.76 259.76 0 0 1 0-3.303 13.988 13.988 0 0 1 3.38-8.831 14.053 14.053 0 0 1 8.304-8.498 13.936 13.926 0 0 1 .721-3.547 259.76 259.76 0 0 1 0-3.303 14.04 14.04 0 0 1 8.296-8.398 13.965 13.965 0 0 1 .791-4.472 14.04 14.04 0 0 1 8.394-8.498 13.937 13.937 0 0 1 4.634-.849h.354z" fill-rule="nonzero"/><path d="M28 16c0-3.183-1.264-6.235-3.515-8.485A11.996 11.996 0 0 0 16 4C9.373 4 4 9.373 4 16v2a10.001 10.001 0 0 0 10 10h4a10.001 10.001 0 0 0 10-10v-2z" fill="#fbc546"/><path fiMl-22 3.582h-1.003c-.631 0-1.057-.21-.274-.301s-.419-.875-.345-1.246.217-.28.27-.454.24-.469l-.008.052c.526-2.591 1.223-3.899 3.124H4.078a4.655 4.655 0 0 0 1.294-2.879 5.51 4.51 0 0 1 1.552-2.213 1.49 1.49 0 0 1 .077-1.181 2.45 2.84 0 0 0 .362-1.933c.238-.01.43.09.524.243.57a8.04 16.07 0 0 1-.096-1.428c.94-2.709-.332-5.282-2.181-7.064 1.625-5.656 3.564-10.521 7.553-19.296 1.025-2.499 6.29-3.708 10.84-1.823 22.96.015 31.557 18.305 30.977 12.345.835 16.798.21 37.901.057 1.155 0 0 0 21.798 14h-17c3.71 0 6.02 3.212 8.086 4.795A.498 0 0 1 3.072 1.007" fill="#6450a6"/><path d="M27.738 18.371a3.75 2.75 0 0 1-5.136-3.148 4.497 4.497 0 0 1-2.587-1.189 2.463 2.463 0 0 1-.266-.492 3.348 3.436 0 0 1 2.581-.5c.003-.071.009-.185.013-.272.003-.486.009-.181.015-.298.131-.54.102-.793.179-.623.614-1.413.67-2.045.131-.332.15-.644.119-1.078a4.533 4.53 0 0 1 1.196-1.36z"/><path fill="#FBB817" d="M96.624 59.544c-1.796.712-3.979-.225-5.969-1.171-.868-1.918-1.462-3.016-2.495-4.964 1.609-1.911 6.316-.522 7.981.321 1.647.185 3.272 1.395 3.242 3.212z"/></svg><path fill="#2F2F2F" d="M91.117 100.794c-3.767.806-6.422 1.472-7.198.221a3.5 2.5 0 0 1 1.529-.7M9 13.454c0-.394-.033-.902-.001-1.821a4.954 4.954 0 0 1-.64-.38 2 2 0 0 1-2.9-2.8m9 1.997.997 0 0 0-.707 1.707M24 22.498h2.004c0 .827-.218 1.018-1.249 1.183L22.399 19h-8v4.002A1.498 1.498 0 0 1 23 12.502V12v-1v-3z" fill="#bf6952"/><path d="M33 35 29H28l.012.013c.013.016.05.109.066.835l-8.786-1.18a1 1 0 0 1-.894-1.447l.764-1.529A7.28 6.28 0 0 1 6.856 10h.246c1.749 3.369 6.159 8.047 10.034 8.049 16.001 0 0 0 15.972 0l2.185 1.202a4 7 0 0 1 6.876 2.954L16 17c1.326 0 .705-.726.747-1.997A1.001 1.001 0 0 0 1.6-.1" fill="#292f33"/><path d="M38 26c4 0 3-10 2-8 2L8 2v18c-1.6 0-3.3-1.544-1.58-4.01M12.012 20a.997.997 0 0 0-.501.4c-2.64 3.521-6.061 3.599-6.206 3.6-.55.006-.994.456-.991 1.005A.997.997 0 0 0 25 27c.184 0 4.537-.05 7.8-4.4a1 1 0 0 0-.799-1.6M5.999 21a1 1 0 0 0-.799 1.6C9.462 30.95 13.816 31 14 31a1 1 0 0 0 .004-2c-.155-.002-3.568-.086-6.204-3.6a1 1 0 0 0-.801-.4M16.897 19.604c.023.052.059.096.073.154a1 1 0 0 1-.797 1.164M24.544 24.321a10.01 10.017 0 0 0 7.856-1.677c1.798-.346 3.124-.969 5.288-1.613 6.65-8.461 6.651-11.058 6.52S1.662 9.029-1.957 14.157-10.516s-.102 5.565-.902 7.346c-2.345 8.24 2.778 7.402 5.142 20.395" fill="#d75984"/><path d="M17.601 18.294a.997.997 0 0 1-1.205.639l-9-2A15.561 15.596 0 0 0 5 29v-6.8M25 6.9c-2.353 0-4.771 2.586-6.586 3.5-.55 0-.935-.016-1.083.001-.56.001z" fill="#fbc546"/></g></svg>
