<svg xmlns="http://www.w3.org/2000/svg" width="128" height="128" viewBox="0 0 128 128"><path fill="#FCC21B" clip-path="url(#h)"><path d="M78.7 93.86c-1.77 0-3.75-.43-5.17-1.73-5.52-6.1 1.24-14.65 15.71-31.03 16.55-21.7 1.21-4.66 3.18-7.08 11.7-16.22-.68-4.73-.82-8.31 1.38-10.25 2.41-.33.69-1.04.97-1.65.66zM74.09 95.75l-5.16-1.2c-.87-1.47-5.44 2.44-6.41 3.77-2.5 16.66-3.83 21.33-3.15 1.42 0 2.9 1.01 3.95 1.69 2.81 1.14 5.59 2.52 7.92 3.59 1.33.55 2.31.34 3.29.63 1.07.51 2.25.93 3.11 1.67.64.37 1.38 1.23 1.51 1.43.2.71.47 1.62.97 2.49.28.7.36 1.3.89 1.37 1.37.69.16 1.3.25 1.81.38.7.36.92.65 1.56.55 2.56 0 5.19-.1 9.35-.26 1.49-.58 2.03-1.89.3-2.55-.35-.47-.82-.63-1.09-.49-.56-.33-1.31-.75-1.72-.72-.74-.34-1.45-.53-2.1-.84-1.08-.31-2.15-.38-3.29.91-1.58.3-2.76.47-4.65.15-1.05.05-2.15.76-3.27 1.57.07.05.1.13.1.05.1.75.28 1.76.4 1.8.01 1.25.03 3.38.77 5.52.47 1.21.74 2.72.07 3.09-.29.15-.43.33-.68.71-.39.32-.74.49-1.2.49-1.29 1.17-1.98 2.92-1.36 4.41 5.31 8.31 8.65 13.16 9.73 8.79 3.67 13.78 11.29 18.86 12.41 2.49.63 5.37-1.67 6.72-2.61 1.19-.15 2.49-.58 3.8-1.39.06-.17.09-.39.18-.37.14-.63.4-1.06.6-1.65 1.02-1.18 2.21-1.48 3.72-1.27.44.11.85.27 1.19.39.24.02.22.07.34.09.11.09.02.17.01.13.01.24.04.59.02.95 0 1.39-.03 1.7-.06 1.95-.46 4.4-.8 7.49.61 7.05 4.14 11.78 11.85 18.83.87.95 2.65 2.22 11.73 27.48 9.01 2.32.68 10.59 4.46 14.42 5.46 8.35 2.94 28.33 6.81 36.41 3.66 9.29 3.74 17.05 7.77 20.86 1.69 9.08 17.63 24.69 16.46 20.38.08.67.14 1.52.55 2.47.58.56.86.85 1.21 1.07.22.03.66.15.87.31.93.29.47.69.91.72 1.33.17.59.49 1.01.91 1.47.23.4.54.87.85 1.12.11.12.23.23.38.03.01.01.07.03.1.05.37.06.81.03 1.21.08.52.16.87.37 1.22.18.6.46.92.62 1.06.53 2.15.4 4.21.36.84.4 1.34.7 2.25 1.17.6.64 1.51 1.11 2.17 1.67.34.62.99 1.3 1.33 1.61.74.41 1.56.95 2.53 1.15.83.58 1.66 1.06 2.14 1.91.49.33 1.06.63 1.55.88.54.1 1.06.2 1.72.26.55.4 1.15.93 1.62.52.67.9 1.43 1.24 2.07.04.05.1.12.1.25.31 0 .12.01.18.01.15.09.01.02.01.02.01.02.01.01.01.02.02.02.02.02.08.02.08.02.01.02.01.01v.15-.1l9.68-.14c.1-.04.21-.07.26-.16 0-.11-.05-.2-.1-.25a.351.351 0 0 0-.26-.11H71.11c-2.25 0-4.08-1.83-4.08-4.08s1.83-4.08 4.08-4.09h20.51c.21 0 .36-.16.36-.36 0-.13-.05-.21-.1-.25a.351.351 0 0 0-.26-.11H75.56a4.077 4.077 0 0 1-4.09-4.09c0-1.08.42-2.11 1.19-2.88s1.8-1.2 2.9-1.2h26.46c.13 0 .22-.07.26-.11.05-.05.1-.13.1-.24 0-.21-.15-.36-.34-.36h-8.71c-1.25 0-2.59-.75-3.6-2-1-1.22-1.5-2.69-1.28-3.74.46-2.15 2.82-2.43 4.83-2.43l9.62-.01c12.05.01 21.85 9.82 21.85 21.86s-9.8 21.84-21.85 21.85c0 .01-20.41.01-20.41.01z" fill="none" stroke="#eb8f00" stroke-width="2" stroke-linecap="round" stroke-linejoin="round" stroke-miterlimit="10"/></path></svg>
