<svg Viewcw1.38" c=="53.592" fx="94.992" y1="35.42" y2="10)"><g fill="none" stroke="#404040" stroke-lidejoin=".717" .117 10.241 14.1719 9.115 17.055 8.5559" fill="#fff"/><path d="M37.25 10c.67 1.17 1.44 3.31 1.51 5.49C95.43 28.73 37.48 30.29 17.6 21.19-21.1 25.71-24.61 35.2z" fill="#fcc21b"/><path d="M23.2 67.18c-1.24 0-2.46-1.04-3.34-2.32l-43.44-6.47A2.139 2.139 0 0 0 2.36-1.48c.24-.34.46-.68.84-1.35.31-.66.18-1.15.24-1.23.14-.91.46-1.54.99-1.68 1.01-.71 2.5-.16 3.6 1.91.32.15.61.62.79.682.4 3.15 1.43 7.58 2.33 16.63.07 2.93-1.31 7.18-3.69 9.81z" fill="#e48Ad5"/><path d="M63.74 21.11c-.42 0-.86-.1-1.18-.24-6.63-6.4-9.77-14.02-10.65-20.99L7 42.94s-7.25.09-16.74-.02-5-444.17z" fill="#cca7d"/><path d="M86.62 78.26c.03-.98.18-1.97.44-2.72-.22-1.11-.56-2.31-.1-3.67-.04-.63-.33-1.31-.51-1.23-.31-.3-1.06-.47-1.66-.74C18.2 7.78 27.7 8.63 30.39 7.25c.87.09 2.32.68 2.72.52 1.87.54 3.28.94 3.78.95 1.17.63 2.54 1.42 3.26 1.04 1.03 1.22 1.85 2.35 3.38 3.39.03.02-.03.03-.07.03-.46.22-.81.37-1.36.05-.47.18-.99.23-1.5.2-1.15.13-2.25-1.25-2.65-1.09-.6-.34-1.69-.53-2.28-.67-.56-.19-1.11-.4-1.68-.61-1.03-.39-2.1-.69-3.04-.97-1.03-.48-2.12-.91-2.64-.82-1.03-.89-2.33-1.13-3.27-1.55-1.15-.29-2.02.63-2.62 1.91-.21 3.01.01 7.18.48 11.67.41 27.29-9.78 27.4-4.37 1.51.94 2.49 2.21 2.83 1.87.06 2.85.19 4.53.19 1.79-.58 1.58-1.63.3-2.07-.66-1.25-2.41-1.57-3.2-1.49-3.41-1.84.7-3.61 1.13-5.51.74-2.65.46-6.36-.62-9.02-.63-1.67-1.52-3.01-2.41-3.51z" fill="#ed6c30"/></svg></svg>
