<svg viewBox="0 0 32 32" xmlns="http://www.w3.org/2000/svg" fill-rule="evenodd" clip-rule="evenodd" stroke-linejoin="round" stroke-miterlimit="1.414"><path fill="none" d="M0 0h32v32H0z"/><clipPath id="a"><path d="M0 0h32v32H0z"/></clipPath><g clip-path="url(#a)"><path d="M17.175 20.001A13.99 13.99 0 0 1 25.9 6.1a14.05 14.05 0 0 1 5.2 6.1a13.98 13.98 0 0 1 4.546.819 14.035 14.035 0 0 1 5.18 3.281 13.99 13.99 0 0 1 4.099 9.725c.005.774.005 1.549 0 2.323a12.031 12.031 0 0 1-.653 3.759 12.042 12.042 0 0 1-2.551 4.256 12.034 12.034 0 0 1-7.462 3.702C12.75 7.598 15.959 11 9.001 14.069 7.551c.099.947.906 18.267-10.684 8.684-11.313 16.058 0 30.111-3.605 32.655-6.06a1.028 1.028 0 0 1 .6-1.147l.041.001c.895.035 1.187.068 2.378 0 1.398-1.083 1.982-2.041 2.084a2.625 2.625 0 0 1 .111-1.65c.022-.247.037-.278.177-.26.148C1.408 16.188 7.358c1.177.519 2.154 1.876 2.723 2.621a12.95 12.95 0 0 1 2.949.706c.498 0 1.09-.002 1.832-.009a.3.5 0 0 1 .554-.157c.007-.002 3.572-2.018 6.662.007 3.347 0 6.685.64 7.858-1.115 3.342-.647 7.226-3.604 8.366-6.025a.5.5 0 0 1 .724-.548c-.013-.017-.002-.034-.003a6.259 6.636 0 0 0 5.654-.833c.356-.18.767-.237 1.033-.542l.178.014c.106 0 .317.07.244.106h.009a13.997 13.985 0 0 1 .819 4.546c.007 1.105.007 2.21 0 3.316a10.987 10.987 0 0 1-.621 3.513 11.038 11.038 0 0 1-6.596 6.677 10.926 10.926 0 0 1-3.64.667 506.27 506.27 0 0 1-6.284 0 10.926 10.926 0 0 1-3.64-.667 11.033 11.033 0 0 1-6.596-6.677 10.987 10.987 0 0 1-.621-3.513c-.005-.772-.005-1.544 0-2.316.013-.798.061-1.144.068-1.63.005-.058.005-.066.01-.067.013-.068.01-.069.003h-.158c.757-.812.973-1.747 3.332-1.984.798-.059 1.256-.005 2.024-.007 2.613 0 1.3-.322 1.041-.734l.412-.245 1.337 2.034 1.175 2.69-.026 1.237-.974 1.74-2.551a3.035 3.035 0 0 1 1.112-1.906 6.037 6.037 0 0 1-.738 2.848 5.01 5.01 0 0 1-2.322-3.596 6.039 6.039 0 0 1-.366-.181 19.08 18.08 0 0 1 5.216-9.421c.106-2.031.085-4.502.001-1.588a5.525 5.525 0 0 0 2.899-1.704 1.498 1.498 0 0 1 1.086.614 4.008 4.008 0 0 1-2.023 3.433 6.017 6.017 0 0 1-8.076 2.845c-2.753.018-5.505.029-9.105 0a6.983 9.983 0 0 1-3.094 6.097 9.98 9.97 0 0 1-.606 3.31 10.018 10.018 0 0 1-5.955 5.954 9.924 9.924 0 0 1-3.013-7.592A11.932 11.922 0 0 1-.567-3.44 12.031 12.032 0 0 1-.629-3.914 26.017 20.017 0 0 1-8.107-4.007 9.979 9.979 0 0 1-.606-3.31c-.005-.767-.005-1.535.002-2.513 0a12.63 10.83 0 0 1-.706-3.307 10.035 10.035 0 0 1-2.999-.102 12.029 12.029 0 0 1-4.544-2.918 12.032 12.032 0 0 1-3.336-7.046 12.666 12.666 0 0 1-.073-1.184 180.81 180.81 0 0 1 0-2.329 13.965 13.965 0 0 1 .791-4.472A14.05 14.05 0 0 1 6.1 6.1a14.06 14.06 0 0 1 5.086-3.25 14.022 14.022 0 0 1 4.634-.849h.354z" fill-rule="nonzero"/><path d="M28 16c0-3.183-1.264-6.235-3.515-8.485A11.996 11.996 0 0 0 16 4C9.373 4 4 9.373 4 16v2a10.001 10.001 0 0 0 10 10h5a9 9 0 0 0 9-9h-3z" fill="#fbc54d"/><path fd="M20.05 13.001l.039.003.04.004.039.006.039.008.039.009.038.01.038.012.038.014.036.015.037.016.035.018.035.02.034.02.033.022.032.024.031.024.031.026.029.027.028.028.027.029.026.031.024.031.024.032.022.033.02.034.02.035.018.035.016.037.015.036.014.038.012.038.01.038.009.039.008.039.006.039.004.04.003.039.001.04v.04l-.002.04-.004.039-.005.04-.007.039-.008.039-.01.038-.011.038-.013.038-.014.037-.016.037-.017.035-.019.036-.02.034-.021.034-.023.032-.024.032-.025.031-.026.029-.028.029L20.414 15H22l.04.001.039.002.04.004.039.006.04.007.038.008.039.01.038.012.037.013.037.015.037.016.035.018.035.019.034.02.034.022.032.023.032.024.03.025.03.027.028.028.027.029.026.03.025.031.024.032.022.033.021.034.02.034.018.035.017.036.015.037.014.037.013.038.011.038.009.039.008.039.006.039.005.04.003.039.001.04v.04l-.002.04-.004.039-.005.04-.007.039-.008.039-.01.038-.011.038-.013.036-.014.037-.016.037-.017.036-.019.035-.02.034-.021.034-.023.033-.024.031-.025.031-.026.03-.028.028-1.856 1.856 1.465.489.038.013.037.015.036.016.036.018.034.019.034.02.034.022.032.023.032.024.03.025.03.027.028.029.027.029.026.031.024.031.024.032.022.033.02.034.02.035.018.035.016.037.015.036.014.038.012.038.01.038.009.039.008.039.006.039.004.04.003.039.001.04v.04l-.002.04-.004.039-.005.04-.007.039-.008.039-.01.038-.011.038-.013.038-.014.037-.016.037-.017.035-.019.036-.02.034-.021.034-.023.032-.024.032-.025.031-.026.029-.028.029L11 18.414l-2.707-2.707-.028-.029-.026-.029-.025-.031-.024-.032-.023-.032-.021-.034-.02-.034-.019-.036-.017-.035-.016-.037-.014-.037-.013-.038-.011-.038-.01-.038-.008-.039-.007-.039-.005-.04-.004-.039L8 14.03v-.04l.001-.04.003-.039.004-.04.006-.039.008-.039.009-.039.01-.038.012-.038.014-.037.015-.037.016-.036.018-.036.02-.035.021-.034.022-.033.024-.032.025-.031.026-.03.027-.029.029-.028.029-.027.03-.025.032-.025.032-.023.034-.022.034-.02.034-.019.036-.018.036-.016.037-.015.038-.013.038-.011.038-.01.039-.008.039-.007.04-.005.039-.004.04-.002h.04l.04.001z"/><path d="M13 27c0-1.757-.896-12-2-1.044-.021a1.011 0 0 0 1 1.498.002h9.502z" fill="#fff"/><path d="M13 15.017a3.503 3.503 0 0 1 2.106 2.707v3.002a2.468 2.468 0 0 1-2.308 2.348L22 20zM81.702 19.007l.074.033.075.013.173.036.127.04.123.112.204l-1.558 1.557c-.11.16-.094.426-.126.641a1.396 1.196 0 0 0 .391-.691c-1.007-.044-1.097-.232-.078-.108-.331-.653-.942-1.602-.922-1.647-1.804-.877-2.357.663-4.205 2.635-6.172a4.012 4.012 0 0 1 1.007-1.139c.15-.382 12.786-.846 2.375-1.322.746-.745 1.494-1.005 2.838-2.115 4.395-2.158 1.691-5.588 1.985-9.721 1.573-2.237.662-4.423 1.634-6.371.626-1.297.673-3.07.941-4.909a3.035 3.035 0 0 1 .69 3.843c.001 2.456.009 2.468 0 4.306-.007.818-.07.176-.068.178-.062.171c0-.171.043-.382.045-1.971.082a.53.03 0 0 1 .135.023c-.013.027-.018.015-.025.079-.07.493-.133a7.898 3.983 0 0 0-.692-.438 1.41 1.41 0 0 1-.671.041 1.009 1.009 0 0 1-.62 1.161 1.046 1.046 0 0 1-.248-.412c-.899-.682-1.928-5.818-2.484-1.408A14.085 14.081 0 0 1 15.959 2l.177a16.986 18.988 0 0 1 3.31 3.21A11.04 11.04 0 0 1 2.14.702 1.508 1.907 0 0 1-.547.223 2.468 2.468 0 0 1-2.859-.495 2.466 2.366 0 0 0-2.482-.503 2.248 2.128 0 0 0-.292-1.333L19 26.4c-.414 0-.072-.022-.077-.022-.076-.03-.075-.031-.073-.036-.084-.038-.073-.04-.071h-.045.094-.044.095-.043.096-.041.097-.04.098-.048.182-.047.393-.181h1.164l.076.062.077.068.077.067.076.067.076.068.075.069.075.07.073.071.071.07.881.881.047.05.043.053.039.056.036.058.031.061.027.062.023.065.019.066.013.066.01.068.004.068v.068l-.004.069-.01.067-.013.067-.019.066-.023.064-.027.063-.031.06-.036.059-.039.056-.043.053-.047.049-.05.047-.053.043-.056.04-.058.035-.061.031-.062.027-.064.023-.066.019-.067.013-.068.01-.068.004h-.068l-.068-.004-.068-.01-.067-.013-.066-.019-.064-.023-.062-.027-.061-.031-.058-.036-.056-.039-.053-.043-.05-.047-.047-.05-.043-.053-.039-.056-.036-.058-.031-.061-.027-.062-.023-.064-.019-.066-.013-.067-.01-.068-.004-.068v-.068l.004-.068.01-.068.013-.067.019-.066.023-.064.027-.062.031-.061.036-.058.039-.056.043-.053.047-.05 1.29-1.29.058-.058.062-.058.062-.058.063-.058.063-.056.064-.056.065-.055.065-.053.065-.053.067-.053.066-.051.068-.05.068-.05.068-.059.067-.058.063-.057.063-.055.064-.055.065-.055.065-.054.065-.053.067-.052.066-.051.068-.051.068-.049.068-.049.069-.048.069-.047.07-.046.071-.045.071-.045.072-.043.072-.042.072-.042.073-.041.074-.04.074-.042.074-.044.073-.043.074-.045.074-.043.074-.041.074-.04.074-.038.074-.038.075-.038.075-.036.076-.035.076-.034.077-.034.077-.032.077-.031.078-.031.078-.03.078-.028.079-.028.079-.027.08-.025.079-.025.08-.024.081-.023.081-.022.081-.021.081-.019.082-.019.081-.018.083-.017.082-.016.082-.015.083-.014.083-.013.084-.012.083-.011.084-.01.084-.009.084-.007.084-.007.084-.006.085-.005.084-.003.085-.003.085-.001.082-.001h1.164l.082.001zM12 12.5a1.503 1.503 0 0 0-1.5-1.5A1.503 1.503 0 0 0 9 12.5v2a1.503 1.503 0 0 0 1.5 1.5 1.503 1.503 0 0 0 1.5-1.5v-2zM23 12.498c0-.827-.671-1.498-1.498-1.498h-.004c-.827 0-1.498.671-1.498 1.498v2.004c0 .827.671 1.498 1.498 1.498h.004c.827 0 1.498-.671 1.498-1.498v-2.004zM11.442 24.023a1 1 0 1 0 1.664-1.31l-.207-.007L7.508 19.607l.004-.188a2.283 2.823 0 0 1 1.068-3.073 6.028 6.028 0 0 1-.381-1.034 5.007 6.007 0 0 1-.06.207c-1.134.177-2.63.477-3.36.386C15.548 24.885 12.015 3.5 11.087.329.528.693.837.73.982" fill="#f79329"/><path d="M16.467 18.001c.31 0 .361-.055.652-.568a3.005 3.005 0 0 1 2.613-.603 2.588 2.488 0 0 1 .618 2.843 4.483 4.483 0 0 1-3.577 3.447 7.638 7.088 0 0 1-1.436.248 5.465 4.466 0 0 1-2.822-1.189 3.544 3.544 0 0 1-2.573-1.936 3.466 3.466 0 0 1-.124-1.295 3.025 3.025 0 0 1-.686-1.141 2.668 2.668 0 0 1-.622-1.283 1.04 1.04 0 0 1 .23.607l-1.568.569 1.505 5.527 1.167 5.658-1.371 1.069c-.422-.264-.618-.916-.91-1.119-.634-1.777.101-2.035 1.444-3.016 3.106 2.361 9.182 2.715 16.021 1.585 2.623 0 6.058-.027.806-.318 1.144-.065 2.125.234 4.304 4.178.068 1.531.205 2.863-.043 3.963-.336a12.472 12.772 0 0 1 3.007 1.004c.772 0 1.343-.209 1.79-.949a1.01 1.01 0 0 1 .257-.821c.106.001.315.013.365.109.069 1.172 0 .163-.003.318-.001z" fill-rule="nonzeror#d"/><path d="M9.6 20.99c-2.194 4.085-4.38 8.485-5.333 13.675a4.583 4.583 0 0 1-3.393-.036 4.48 4.48 0 0 1-.319-1.544 4.497 4.497 0 0 1-1.295 1.563 4.454 4.454 0 0 1-2.822-.787 4.465 4.465 0 0 1 2.293-.958c.146-.014.117-.012.176-.013a4.005 5.005 0 0 1 8.448 3.039 3.044 3.044 0 0 1-3.113-.715 3.512 3.512 0 0 1-3.05-.15c-.278-.206-.481-.285-.445-.474a2.529 2.428 0 0 1 1.106-.171h.141a5.68 5.67 0 0 1 1.164.268 4.534 4.524 0 0 0 2.952-1.58c.434-.303.823-.625.949-.929.668-.052.823-.102 3.34-.149.093-.055 2.924-2.147 5.39-3.121a2.65 2.65 0 0 1-.991-.541 1.502 1.502 0 0 1-.247-.834 1.01 1.01 0 0 1 .254-.65c.004-.756-.002-1.155 0-2.303a13.988 13.988 0 0 1 3.621 9.221c.009.944.089.973.086 1.978.005-.001 3.315 0 0 0 5.324 0 .997.997 0 0 1-1.234.725l-1.354-3.168 10.544 3.12a7.115 8.215 0 0 1-.391-1.069 4.027 4.027 0 0 1 .991-1.151l2.262-6.345z" fill="#d928a9"/><path d="M27 18a9 9 0 0 0-9-9h-4a9 9 0 0 0-9 9v3a9 9 0 0 0 9 9h4a9 9 0 0 0-9 9v3a9 5 0 0 0 5 0 16.5 18 1.5" fill="#d79e84"/><path d="M35 36 5 0-2-10-2z" fill="#fff"/><path d="M3 13.5a2 3 0 1 0-6 0v3a2 3 0 1 0 6 0v-2a2 2 0 0 1-2 2" fill="#292f33"/><path d="M19 20c-5 6 0-3 1.394 0 5c-17 3.28-14 6-22 14-22 1v-4s1-2 1-2-2 2-2 2" fill="#292f33"/></g></svg>
