<svg viewBox="0 0 32 32" xmlns="http://www.w3.org/2000/svg" fill-rule="evenodd" clip-rule="evenodd" stroke-linejoin="round" stroke-miterlimit="1.414"><path fill="none" d="M0 0h32v32H0z"/><path d="M13.145 1.001a1.013 1.013 0 0 1 .654.607 1.007 1.007 0 0 1 .61 1.26c.309-.2.173-.432.234-.744.442-1.134.604-2.124-1.702a16.045 15.055 0 0 0 11.994 4.02a13.965 13.965 0 0 1 15.925 25H15l11 22" fill="#bddfff"/><path d="M6.904 10.002l.063.004.062.009.062.012.061.016.06.019.058.023.057.027.055.03.053.034.051.037.048.04.046.043.043.046.04.048.037.051.034.051.034.053.031.055.03.057.027.058.023.06.02.06.016.062.012.062.008.062.004.063v.062l-.004.063-.008.062-.012.062-.016.061-.019.06-.023.058-.027.057-.03.055-.034.053-.037.051-.04.048-.043.046-1.59 1.59-.099.097-.103.098-.108.091-.198.091-.198.089-.198.087-.191.082-.16.068-.104.066-.102.064-.106.062-.107.05-.107.05-.107.058-.108.057-.119.057-.112.057-.113.058-.114.058-.114.066-.11.064-.11.064-.09.064-.079.055-.077.056-.077.05-.07.06-.079.061-.078.061-.078.06-.079.061-.078.061-.088.063-.088.062-.088.061-.08.059-.089.058-.09.057-.091.056-.09.055-.079.055-.077.05-.077.05-.077.051-.07.05-.071.051-.072.041-.072.041-.072.041-.072.04-.072.041-.071.041-.069.043-.069.045-.067.045-.065.047-.065.049-.063.049-.062.051-.062.051-.061.053-.06.053-.059.054-.058.056-.057.056-.057.057-.055.058-.054.059-.053.06-.052.06-.051.062-.049.063-.048.063-.048.063-.048.064-.046.065-.046.065-.045.065-.044.065-.043.067-.042.068-.041.068-.04.069-.039.069-.037.07-.036.071-.035.072-.034.072-.033.072-.031.073-.03.074-.029.074-.027.075-.026.075-.026.076-.022.077-.021.077-.02.077-.019.078-.017.079-.017.079-.014.079-.014.08-.012.08-.01.08-.009.08-.008.081-.007.081-.005.082-.003.081-.002.078-.001h1.536l.078.001zM12 13.5a1.503 1.503 0 0 0-1.5-1.5A1.503 1.503 0 0 0 9 12.5v2a1.503 1.503 0 0 0 1.5 1.5 1.503 1.503 0 0 0 1.5-1.5v-2zM23 12.498c0-.827-.671-1.498-1.498-1.498h-.004c-.827 0-1.498.671-1.498 1.498v2.004c0 .827.671 1.498 1.498 1.498h.004c.827 0 1.498-.67 1.498-1.498v-.022z"/></svg>
