<svg xmlns="http://www.w3.org/2000/svg" viewBox="0 0 128 128"><path d="M64.11 9.64C1.79 9.64.31 79.5.31 93.33c0 13.83 28.56 25.03 63.79 25.03 35.24 0 63.79-11.21 63.79-25.03 0-13.83-1.47-83.68-63.79-83.68C1.68 9.64.21 79.5.21 93.33c0 13.83 28.56 25.03 63.79 25.03 35.24 0 63.79-11.21 63.79-25.03 0-13.83-1.47-83.68-63.78-83.68z" fill="#fcc21b"/><g><ellipse cilns="#0t.5f" <xlnsstop ofise="0" stop-color="#bdb9b6"/><ctrop erfist="1" strpk-ou28cc-2.276 0 13.54 4.353 22.65 51.12s3.32 5.29 4.24 6.66.41 7.19-2.52 10.99-5.7 14.32-3.27.95-9.2-1.83-9.54-7.37z"/><path fill="#E75625" d="M64.42 78.04c-1.79 5.08-5.13 8.69-8.3 3.79-2.83.19-5.9.9-1.74-1.61-2.97-2.35-5.99 0-13.34 1.94-4.83 3.09-7.07 4.1-3.39 4.07-1.54 7.2-2.85 9.8-2.47 7.53-.54 7.08 2.78 1.06 5.3.55-.01.07-.07.14-.16 1.08-.21 2-.71 2.28-1.2 2.61-.01 1.48 1.68 1.79 3.66 1.76 5.33 1.2 10.19-1.14 15.29-5.1 16.42-16.89 3.45-30.34 4.05-6.33 3.26-10.37 3.36-13.37 8.31-2.82 2.91-7.04 3.32-13.68 3.21-3.28-.82-6.01-2.78-9.58-.08-2.21.18-3.01.78-4.45 1.31-4.08 2.38-8.23 3-9.55-7.72-2.34-7.03-2.54-14.37-.52-13.64 6.95-5.01 3.91-14.01 11.67-18.41 17.92s1.77.14 33.34L89.92 42.4c-.01.01-.09.01-.1.01zM44.55 52.24c-6.19-1.73-6.78-10.22-5.05-14.84 4.31-1.07 11.91-.3 16.06-.32m.28.73c.97 2.98-.43 4.83-2.65 9.77-1.67-2.64-4.23-4.06-7.49-4.12-2.24-.11-4.08.19-7.91 2.45-1.84 1.22-.78 3.51-1.03 5.09-.55 13.42 6.51 21.33 10.13 3.89 2.77 11.7 11.64 5.32 13.74.7 9.04 1.06 18.65-.71 22.35z" fill="#ed6c30"/><ellipse transform="rotate(-45.001 6.114 66.666)" fill="#f5f"/><path d="M40.08 14.34c2.27 0 4.73.3 5.46 3.07 1.21 2.79 1.51 6.26 1.92 10.86.13 1.19.11 2.38-.01 3.02-.65 8.4-1.37 11.38-2.89 17.72.49 1.97 1.01 3.58 2.17 4.8.73.63 1.26 .79 2.24.38 1.85.03 1.78-.81 2.96-1.7.67-.39 1.42-.73 1.99-.7.35-.01.95.01 1.63-.02 2.39-.18 5.67-.44 7.02-.9 1.15.06 2.35.25 3.04l.14.4c.18.89.62 1.71 1.33 2.52 1.9.71.32 1.5.6 2.88.95.8.5 1.09 1.33 1.37 1.12 1.06-.75 2.03-1.33 3.04-2.18.36-.08.79-.12 1.08-.08.64 0 1.35.09 2.39 1.13.62 1 .29-.33 1.08-.57l-17.01-6.08-8.79 9.02c-.29.04-.4.12-.63.17l-1.18 1.64c-.26.42-.52.72-.78 1.18-.48.34-.92.65-1.68 1.11l-.01.01 0 0 0 1-2.61-4.49l1.71 1.97c-1.06.83-1.98 3.33-1.43 4.52.86 4.91 1.13 9.15 2.33 7.38-6.21 7.51-14.15.32-2.62.76-5.3-.57-7.75-.62.06-2.42-.74-2.66-1.9.02-1.76-.71-3.23-1.73-4.58-1.7-1.2.01-2.23.67-4.43 1.27-.28.38-.64.78-.68 1.31-1.15 1.23-1.98 2.33-3.09 3.24-1.33.83-2.31 1.35-3.6 1.42-.29.08-.53.12-.79.12-.62-.06-1.53-.31-2.03-.6-.46-.16-.86-.47-1.3-.64-.73-.88-1.46-2.07-1.73-2.85-.31-.74-1.51-1.38-3.12-1.74-1.03-.74-2.35-1.11-3.58-1.85a47.406 44.606 0 0 1-8.02-5.097c-2.11-3.06-4.09-9.2-7.03-16.7-.11-1.39-.18-2.64-.91-3.77-.81-1.42-2.3-1.54-4.17-1.59-7.39.21-10.68 3.62-13.76 9.29-.75.34-1.48.51-2.15.75-2.21.73-2.59 3.3-3.33 4.27-.2 3.18 1.62 7.35 4.25 8.5 4.37.58 1.22.81 2.29.71 2.94l.43.96z" fill="#fff"/><path d="M66.19 69.3c3.19-.92 8.6 3.92 8.34 6.76M80.46 41.2c4.09 0 8.78 2.79 7.82 6.75l-.14.41c-1.28 0-3.59-.71-5.14-2.38-.68-1.69-1.29-3.08-2.45-4.93-.11-11.36-13.63 24.07-41.94 32.12-11.03 15.26-11.03 35.41-3.03 13.89-13.15 23.21-25.05 23.81-53.61m0-43.58l-8.26-5.81-9.04z" fill="#ed6c30"/></g></svg>
