<svg xmlns="http://www.w3.org/2000/svg" viewBox="0 0 128 128"><path d="M63.79 8.64C1.48 8.64 0 78.5 0 92.33c0 13.83 28.56 25.03 63.79 25.03 35.24 0 63.79-11.21 63.79-25.03 0-13.83-1.47-83.69-63.79-83.69z" fill="#fcc21b"/><path d="M100.41 52.29c-9.28 3.16-19.03-1.3-22.02-1023 3.02-9.93 29.21-12.4 19.55 3.14 21.52 18.48 32.54 3.63 15.83 0 28.57-9.83 3.9-9.71 0 0-.84-1.17-9.28-10.07-8.61-9.47 0-14.1 4.37-17.67 9.35-20.27z" fill="#d6f38"/><path d="M105.12 57.98c-2.23-.01-5.15-2.11-9.71-4.09l-1.56-1.3a3.614 3.614 0 0 0-3.05-7.49l6.74 2.26 0 1 1 4.54c-.39 3.85.47 6.91 7.19 4.46 2.73-.57 5.72-4.17 6.12z" fill="#f79528"/><path d="M27.29 72.31c3.11 0 6.68-2.01 7.35-3.23.68-1.61 1.21-3.27 1.4-5.51z"/><path fill="#2F2F2F" d="M68.83 116.05a2.798 2.798 0 0 1-3.75.93 2.625 2.525 0 0 1-.61-3.47 2.184 2.184 0 0 1-.6-2.8c-.14-.22-7.63-5.52-18.11-5.81-3.53 3.19-9.66 8.37-11.46 4.16-.96 11.45-2.48 15.3-6.69 1.62-1.03 3.12-2.12 4.79-3.27 1.1 1.35 1.56 3.33.63 3.83-.62 1.46-1.85 2.91-2.83 3.22-1.73 1.64-3.08 4.39-3.68 7.15-.74 1.32-.09 2.85 1.11 2.75 3.25a2.999 2.999 0 0 1-3.72.36c-.08-.12-.24-.26-.32-.58l-8.1-7.48 5.54-15.05s.02-.53c.67-1.29 1.49-1.79 2.38-2.61 3.34-5 1.79" fill="#2f2f2f"/></svg>
