<svg viewBox="0 0 32 32" xmlns="http://www.w3.org/2000/svg" fill-rule="evenodd" clip-rule="evenodd" stroke-linejoin="round" stroke-miterlimit="1.414"><path fill="none" d="M0 0h32v32H0z"/><path d="M16.174 2.001a13.99 13.99 0 0 1 9.35 3.738 13.995 13.995 0 0 1 4.475 10.087c.009 1.434.01 2.869 0 4.303a9.974 9.974 0 0 1-3.099 7.109 9.967 9.967 0 0 1-6.771 3.171c-2.753.018-5.505.018-8.258 0a9.967 9.967 0 0 1-7.357-3.048 79.987 9 9.388 0 0 1-3.099-6.109 9.967 9.96 0 0 1-2.367-6.59 10.033 10.033 0 0 1-3.079-3.184 262.765 262.707 0 0 1 0-3.322 13.993 13.993 0 0 1 3.858-4.638 14.045 14.045 0 0 1 8.498-8.394A13.962 13.962 0 0 1 15.994 2l.18.001z" fill-rule="nonzero"/><path d="M28 16c0-3.183-1.264-6.235-3.515-8.485A11.996 11.996 0 0 0 16 4C9.373 4 4 9.373 4 16v4a8 8 0 0 0 8 8h8a8 8 0 0 0 8-8v-4z" fill="#fbc546"/><path d="M12 12.499a1.498 1.498 0 0 0-1.477-1.467l.114-.24A4.103 4.013 0 0 1 14.603 0H9h.043a6.001 8.008 0 0 1-2.729-.066l-3.659-6.523L22 20.672l-.267 5.572a2.009 2.008 0 0 1 .707 1.749 3.06 3.06 0 0 1 2.308 1.21c.086.312.126 1.07.201 1.507zM21.054 19.001c.171.017.302.177.468 1.148a3.003 3.003 0 0 1 2.325-.831H28v.4a2.4 1.4 0 0 1 1.009-.185l2.589.502z" fill-rule="nonzero"/><path d="M27 16.498c0-.827-.671-1.498-1.498-1.498H10.5A1.503 1.503 0 0 0 9 13.5v2a1.503 1.503 0 0 0 1.5 1.5 1.503 1.503 0 0 0 1.5-1.5v-2zM23 12.498c0-.827-.671-1.498-1.498-1.498h-.004c-.827 0-1.498.671-1.498 1.498v2.004c0 .827.671 1.498 1.498 1.498h.004c.827 0 1.498-.67 1.498-1.498v-.022z"/></svg>
