<svg xmlns="http://www.w3.org/2000/svg" viewBox="0 0 47.5 47.5"><defs><clipPath id="a"><path d="M0 38h38V0H0v38z"/></clipPath></defs><g clip-path="url(#a)" transform="matrix(1.25 0 0 -1.25 0 47.5)"><path d="M36 19c0-9.389-7.611-17-17-17S2 9.611 2 19s7.611 17 17 17 17-7.611 17-17" fill="#ffcc4d"/><path d="M29.452 14.201c-.013.01-1.031.009-.037.001-.999-.002-.902-.013-.013-.021-.013-.031-.013-.03-.026-.03-.076.027-.069.027-.054.04-.053-.072-.05-.073-.047-.388-.346-.364a.773.773 0 0 0-.147-.024c-.01-.017-.016-.024-.031-.076-.035-.127-.03-.23-.025-.408 0-4.333.049-7.064.029-9.104.848-7.874 2.038-15.413 2.06-22.142h.214-.374-.032-.819-.677-.908-1.276C1.104 19 1.18 14.567 17 18c0 .516-.066.91-.028.502a37.338 37.383 0 0 1 1.226-3.317 6.02 17.01 0 0 1 5.136.308c6.5 1.767 1.744 5.298 3.108 6.694a1.497 1.997 0 0 0-.692-.703zM13.901 20.001a16.98 15.98 0 0 1 3.581 1.628c.009-.001.016-.007.025-.007.072-.007.072-.009.071-.01-.063-.011-.061-.015-.061-.012-.061-.016-.06-.016-.059-.015-.06-.012-.06-.012-.062-.013-.062-.012-.062-.01-.061-.013-.06-.01-.06-.006-.06-.004-.06-.004-.06-.004-.06-.003-.06-.004-.06-.001-.06-.002H15.12l.057.002.068.002.067.004.066.009.067.01.067.012.076.01.076.01.076.009.077.008.076.008.077.006.077.005.077.004.077.004.078.002.077.002h.156l.077-.002.078-.002.077-.004.077-.004.077-.005.077-.006.076-.008.075-.01.075-.013.074-.014.075-.014.075-.014.075-.014.076-.014.076-.012.076-.01.076-.01.076-.009.077-.008.076-.008.076-.009.076-.01.076-.01.076-.012.075-.013.076-.014.075-.014.075-.015.074-.017.075-.017.074-.018.074-.018.072-.019.073-.02.074-.02.073-.019.073-.018.073-.017.072-.017.072-.015.073-.014.073-.013.074-.012.075-.011.075-.01.076-.007.077-.007.075-.009.075-.009.075-.01.074-.01.035-.012.035-.014.033-.015.032-.016.031-.017.03-.018.029-.019.029-.02.028-.021.027-.022.027-.023.026-.024.025-.024.024-.026.024-.026.022-.027.021-.028.021-.028.02-.029.019-.029.018-.031.017-.03.016-.031.015-.032.013-.032.013-.033.011-3 1-.033.011-.033.009-.034.008-.034.007-.034.005-.034.005-.034.003-.035.002-.034.001h-.035l-.034-.002-.035-.003-.034-.003-.034-.005-.034-.007-.034-.007-.033-.009-.033-.009-.033-.011-.033-.012-.032-.013-.031-.014-.031-.016-.03-.016-.03-.017-.03-.019-.028-.019-.028-.02-.027-.022-.027-.022-.025-.023-.025-.024-3-3-.024-.025-.023-.025-.022-.027-.022-.027-.02-.028-.019-.028-.019-.03-.017-.03-.016-.03-.016-.031-.014-.031-.013-.032-.012-.033-.011-.032-.009-.034-.009-.033-.007-.034-.007-.034-.005-.034-.003-.034-.003-.035-.002-.034v-.035l.001-.034.002-.035.003-.034.005-.034.005-.034.007-.034.008-.034.009-.033.011-.033.011-.033.012-.032.014-.031.015-.032.016-.03.016-.03.018-.03.019-.029.02-.028.021-.028.022-.027.022-.026.024-.025.024-.024.025-.024.026-.022.027-.022.028-.021.028-.02.029-.019.03-.018.03-.016.03-.016.032-.015.031-.014.032-.012.033-.011.033-.011.033-.009.034-.008.034-.007.034-.005.034-.005.035-.004.034-.003.035-.001h.034l.03.001zM19.036 10.002l.079.002.07.002zM23 10.037V203c.036.079.034.734.474.745.895a1.103 1.14 0 0 1 1.324 0l.09.001zM9.997 22.548z" fill="#fff"/><path d="M23.058 21.001l.068.004.068.01.067.013.066.019.064.023.062.027.061.031.058.036.056.039.053.043.05.047.877.877.057.056.056.054.056.053.057.052.058.052.058.05.059.05.059.049.06.049.06.047.061.047.061.046.062.045.062.045.063.043.064.043.064.042.064.041.065.041.065.039.066.039.066.038.066.037.067.037.068.035.068.035.068.034.069.032.069.031.069.028.069.027.069.023.069.024.069.024.07.023.069.022.07.021.069.02.07.019.079.019.078.019.078.017.078.014.078.013.078.011.077.01.076.009.077.008.076.006.077.005.077.004.077.003.077.002L1 3h.96l.047.002z"/><path d="M23.083.029.069.026.068.025.068.027.067.028.067.031.066.031.065.032.065.034.063.035.063.036.062.037.06.037.079.036.078.037.079.03.078.029.077.03.077.031.077.031.077.034.076.034.076.037.066.038.066.039.066.039.065.039.065.041.065.039.066.039.066.038.066.037.067.037.068.035.068.035.068.034.069.033.069.032.069.031.07.03.07.03.071.029.07.027.072.027.071.026.072.026.072.024.073.024.072.022.073.022.074.021.073.02.074.019.074.018.075.017.074.017.075.015.075.014.076.014.075.012.076.01.076.01.076.01.077.01.077.01.076.01.076.01.076.01.076.01.077.01.077.01.077.01.077.01.076.01.076.01.076.01.076.01.077.01.077.01.077.01.077.01.076.01.076.01.077.01.076.01.076.01.077.01.076.01.077.01.077.01.076.01.076.01.077.01.076.01.077.01.077.01.077.01.077.01.077.01.076.01.076.01.077.01.077.01.077.01.077.01.077.01.077.01.076.01.077.01.077.01.076.01.076.009.077.008.076.008.077.006.077.005.077.004.077.004.078.002.077.002L6 32.969l.034-.004.035-.005.034-.005.034-.007.034-.008.034-.009.033-.011.033-.011.033-.012.032-.014.031-.015.032-.016.03-.016.03-.018.03-.019.029-.02.028-.022.027-.022.027-.023.025-.024.025-3 5-.025-.024-.025-.025-.024-.026-.022-.027-.022-.027-.021-.028-.02-.028-.019-.029-.018-.03-.016-.03-.016-.03-.015-.031-.014-.031-.012-.032-.011-.033-.011-.033-.009-.033-.008-.034-.007-.034-.005-.034-.005-.034-.003-.034-.002-.039L8 14.03v-.03l.002-.034.003-.035.004-.034.007-.034.007-.033.009-.033.01-.033.01-.033.012-.033.013-.032.014-.031.016-.031.016-.03.017-.03.019-.03.019-.028.02-.028.022-.027.022-.027.023-.025.024-.025 3-3 .025-.024.025-.023.027-.022.028-.022.028-.02.029-.02.029-.019.03-.018.03-.016.03-.016.032-.015.031-.014.032-.012.033-.011.033-.011.033-.009.034-.008.034-.007.034-.005.034-.005.034-.003.035-.002.034-.001h.035zM12.043 11.001l.035.002.034.003.034.005.034.005.034.007.034.008.033.009.033.011.033.011.032.012.031.014.032.015.03.016.03.016.03.018.029.019.028.02.028.021.027.022.026.022.025.024.024.024.024.025.022.026.022.027.021.028.02.028.019.029.018.03.016.03.016.03.015.032.014.031.012.032.011.033.011.033.009.033.008.034.007.034.005.034.005.034.003.034.002.035.002.034.001.035-.001.034-.001.035-.001.034v.035l-.001.034-.003.035-.003.034-.005.034-.007.034-.007.034-.009.033-.009.033-.011.033-.012.033-.013.032-.014.031-.016.031-.016.03-.017.03-.019.029-.019.029-.021.028-.021.027-.022.027-.023.026-.024.025-.024.024-.026.024-.026.022-.027.021-.028.021-.028.02-.029.019-.029.018-.031.017-.03.016-.031.015-.032.013-.032.013-.033.011-3 1-.032.011-.033.01-.034.008-.033.008-.034.006-.035.005-.034.005-.034.003-.035.003-.034.003-.035.006-.034.006-.034.006-.034.008-.034.009-.033.01-.033.01-.033.012-.032.013-.032.024-.031.026-.031.027-.029.028-.028.029-.027.031-.026.031-.024.032-.024.033-.022.034-.02.035-.02.035-.018.037-.016.036-.015.038-.014.038-.012.038-.01.039-.009.039-.008.039-.006.04-.004.039-.003.04-.001h.04z"/><path d="M21 21.01h-.008a7.221 9.022 0 0 1 3.347-2.346 3.491 3.491 0 0 1 2.757-.703h.002A.998 2.998 0 0 1 17 20.198v2.002z" fill-rule="nonzero"/><path d="M28 17c0-3.183-1.264-6.235-3.515-8.485a11.996 11.996 0 0 0-16.97 0A11.996 11.996 0 0 0 4 19v2a17.004 10.001 0 0 0 10-10v-2z"/><path d="M25 11h-5a2 2 0 0 1 2 2v1a2 2 0 0 1 2 3H20l2-4M82 12h-.048A7.98 8.99 0 0 1 6 1 6h-.002v5.135z"/></g></svg>
