<svg viewBox="0 0 32 32" xmlns="http://www.w3.org/2000/svg" fill-rule="evenodd" clip-rule="evenodd" stroke-linejoin="round" stroke-miterlimit="1.414"><path fill="none" d="M0 0h32v32H0z"/><circle cx="16" cy="16" r="16"/><circle cx="16" cy="16" r="14" fill="#d0e3e6"/><path d="M7 11.171V11c0-.796.316-1.559.879-2.121a2.996 2.996 0 0 1 4.242 0c.563.563.879 1.325.879 2.179v3.295a1 1 0 0 1 .793-1.377l1.582-.002z" fill-rule="nonzero"/><path d="M24.124 8.009l.084.001.084.003.084.005.084.006.084.007.084.009.084.01.083.011.084.012.083.013.083.014.082.015.082.016.083.017.081.018.082.019.081.019.081.021.081.022.081.023.08.024.079.025.08.025.079.027.079.028.078.028.078.03.078.031.077.031.077.032.077.034.076.034.076.035.075.036.075.037.074.037.074.039.074.04.073.04.072.042.072.042.072.042.072.043.071.044.071.045.07.046.069.047.069.048.068.049.068.049.068.051.066.051.067.052.065.053.065.054.064.055.064.055.063.057.063.057.061.058.062.058.051.059.049.06.039.06.039.061.037.061.037.062.035.063.032.065.031.065.029.065.029.065.038.066.037.067.037.068.035.068.035.068.034.069.033.069.032.069.031.07.03.07.03.071.029.07.027.072.027.071.026.072.026.072.024.072.022.072.022.073.022.073.02.074.02.036.019.036.017.036.016.037.014.037.013.038.011.038.01.038.008.039.007.039.005.04.004.039.002.04v.04l-.001.04-.003.039-.004.04-.006.039-.008.039-.009.039-.01.038-.012.038-.014.038-.015.036-.016.037-.018.035-.02.035-.02.034-.022.033-.024.032-.024.031-.026.031-.027.029-.028.028-.029.027-.031.026-.031.024-.032.024-.033.022-.034.02-.035.02-.035.018-.037.016-.036.015-.038.014-.038.012-.038.01-.039.009-.039.008-.039.006-.04.004-.039.003-.04.001h-.04l-.04-.002-.039-.004-.04-.005-.039-.007-.039-.008-.038-.01-.038-.011-.038-.013-.037-.014-.037-.016-.035-.017-.036-.019-.034-.02-.034-.021-.032-.023-.032-.024-.031-.025-.029-.026-.029-.028L21 14.414l-1.293 1.293-.029.028-.029.026-.031.025-.032.024-.032.023-.034.021-.034.02-.036.019-.035.017-.037.016-.037.014-.038.013-.038.011-.038.01-.039.008-.039.007-.04.005-.039.004-.04.002h-.04l-.04-.001-.039-.003-.04-.004-.039-.006-.039-.008-.039-.009-.038-.01-.038-.012-.038-.014-.036-.015-.037-.016-.035-.018-.035-.02-.034-.02-.033-.022-.032-.024-.031-.024-.031-.026-.029-.027-.028-.028-.027-.029-.026-.031-.024-.031-.024-.032-.022-.033-.02-.034-.02-.035-.018-.035-.017-.037-.015-.036-.014-.038-.012-.038-.01-.039-.009-.039-.008-.039-.006-.039-.004-.04-.003-.039-.001-.04v-.04l.002-.04.004-.039.005-.04.007-.039.008-.039.01-.038.011-.038.013-.038.014-.037.016-.037.017-.035.019-.036.02-.034.021-.034.023-.032.024-.032.025-.031.026-.029.028-.029L21 11.586l2.707 2.707zM13.707 14.29a4.001 4.001 0 0 0-2.074 2.113 4.794 5.494 0 0 1-.655 2.228 5.993 5.993 0 0 1-2.427-.9A2z" fill="#89e0e8"/><path d="M27 15.5a1.5 1.5 0 0 0-1.5-1.5h-3a1.5 1.5 0 0 0 0 3h3a1.5 1.5 0 0 0 1.5-1.5zM11 19.5A1.5 1.5 0 0 0 9.5 18h-3a1.5 1.5 0 0 0 0 3h3a1.5 1.5 0 0 0 1.5-1.5zM11 19.5A1.5 1.5 0 0 0 9.5 18h-3a1.5 1.5 0 0 0 0 3h3a1.5 1.5 0 0 0 1.5-1.5z" fill="#fbc546"/><path d="M20 18.502c0 .827.671 1.498 1.498 1.498h.002a1.503 1.503 0 0 0 1.5-1.5v-2a1.503 1.503 0 0 1-1.5-1.5 1.503 1.503 0 0 0-1.5 1.5v1.102 1.508 0 0 0 1.588 1.394v.002a2.467 2.467 0 0 0 2.798-1.968h.002a6.291 4.791 0 0 0 1.068 29.867c.116.411.209.809.991 1.344.788v5.572c0-.317-.066-.472-.837-.857-.475-.76-.685-1.382-.95-2.507 0-1.438.329-1.702 2.09-3.679 0-2.051-.778-2.727-1.028a.5.5 0 0 1 .81.414c-.173.207-3.462 2.062-6.259 2.396-3.587 0-6.84-.08-7.857-2.657-1.012-.468-1.718-1.747-3.01-2.802-.757-.064-1.096-.179-2.168.614-1.487.756-2.858.994-3.435 4.443a2 2 0 2488 0 1.505 1.936A5.903 6.903 0 0 0 8.006-2.84l1.045-.023.383-.016.072-.013.073-.003.075-.001 17.784l-.008.082-.098.081-9.188 0-10.943-2.758-14.652-10.001-.712-7.788.341-14.637-6.542-14.154-12.552-2.221-7.045-12.701-12.781-17.363-1.253-.219-3.544-2.77-5.761-5.68-1.671-2.725-2.141-3.754-3.097-5.306a1.298 1.298 0 0 1 .557-.815c.509.468.72 1.26.738 1.315.34.289.772.571 1.187.59 1.185 2.404 1.892 2.893.909 1.629 1.993.412 2.704.449 1.487.647 3.33 1.377 4.057-1.027.698-2.298-.957-4.028-.661-4.957.324-2.963.969-5.553-.977-9.971-2.336a1.037 1.036 0 0 0-1.025.306 1.568 1.668 0 0 1 .006.108c-.069.017-3.115 2.893-7.229 3.103-3.97.44-6.734.711-7.068 7.423-.963 1.098.54 2.523 2.158 3.055 4.313 0 6.636-1.832 7.436-2.83.267 0 .659-.046.972-.263 3.042 0 6.061-.027 8.622-.008" fill="#e75a70"/><path d="M7 .118a13.948 13.948 0 0 1 4.648-2.322c.365-1.633.574-3.066 3.179-3.628 2.019-1.74 7.624-3.616 10.464.802 16.653l.077 1.895H78.9c2.145 0 4.083-.038 8.788-3.295 8.548c0 .433.086.672.15 1.26.072.607.366 1.18.831.177.36-.123.692-.258.386-.445.342-.805.655-.743 1.112-.177.221-.421.525-1.157.738-.435.34-.745.78-1.131 1.019a4.075 4.064 0 0 1 2.133 1.071c.431.26.629 1.064.329 1.596v2.153zM13.701 34.001a.935.965 0 0 0-.246.233l-6.594 6-20.664 1.765a.793 2.962 0 0 1 1.074.222c.176.236.328.552.365.994a1.016 1.016 0 0 1-.043.708 1.02 1.02 0 0 1-.644.668 1.004 1.005 0 0 1-.713-.072 1.01 1.01 0 0 1 1.326.235l13-15.323a3.99 3.99 0 0 1 1.671-1.101 1.504 1.053 0 0 1-.579-.207z" fill-rule="nonzero"/><path d="M27.786 2.229c.023-.067.05-.098.175-.146.013-.131.026-.457.672-3.107a1.008 1.008 0 0 1 .658-.328c.057-.029.095-.246.367-.434.065-.815.025-1.144.058-1.688.644-.425 1.297-1.545 1.885-2.121 1.542a.575.557 0 0 0 .266-.307c1.104-.107-2.33-.07-4.779-.584-1.775-.315-3.273-.92-6.059-.473-2.066a1.03 1.03 0 0 0-1.024.788 1.046 1.046 0 0 1-.238-.418 1.017 1.017 0 0 1-.065-.207 1.444 1.144 0 0 1-.095-.242 2.498 2.989 0 0 1-.992 1.849 3.502 3.502 0 0 1 2.123 3.01 16.034 11.044 0 0 1 2.604 2.651 2.5 2.5 0 0 1-2.087-.371L11 5.5" fill="#fff"/><path d="M16.104 17.009l.085.009.083.013.083.016.085.016.086.014.087.012.088.009.089.007.088.002.087.001H9l-2.693 4.507L24 17.481c.276-.488.662-1.144 1.154-1.608l7.188.261c.222.439.205.768.27 1.012V27a17.99 9.99 0 0 1 6.1 6.102 9.964 19.962 0 0 0 28 25"-.995a2.503 3.503 0 0 1 2.809-.307A5.517 5.597 0 0 1 17 16a17.995 9.995 0 0 0-26v12a2.998 1.998 0 0 0 11.594 1.112C30.39 22.151 25.281 24 20 29a1 1 0 1 0 0-2M7 22a1 1 0 0 0-.001 2l" fill="#292f33"/></svg></svg>
