<svg viewBox="0 0 32 32" xmlns="http://www.w3.org/2000/svg" fill-rule="evenodd" clip-rule="evenodd" stroke-linecap="round" stroke-linejoin="round" stroke-miterlimit="1.414"><path fill="none" d="M0 0h32v32H0z"/><circle cx="16" cy="16" r="16"/><path d="M12.976 2.328A14.017 14.017 0 0 1 16 2c5.178 0 9.704 2.817 12.125 7.002.787 3.091 1.461 5.819 1.617 9.686C28.549 24.812 23.358 29.515 17 29.965c-2.429-.528-5.812-1.221-7.889-1.777a14.045 14.045 0 0 1-6.49-8.056c.213-3.091 2.481-11.543 2.75-13.24.246-.287.504-.564.772-.83.868-.153 5.658-2.965 6.833-3.734z" fill="#432a7e"/><path d="M9.11 28.288a4.002 4.003 0 0 1 1.389-.183h.003a1 1 0 0 1 .707.293L19 17c4.311 0 .437.833.74 1.144h.002.233-.015.145-.043.682L" 29.482 2 28.465 4 14.5M56.121 15H17" fill="#d79e84"/><path d="M4 36c-1.757 0-3.343 1.246-5.346 3-3-3H4a1 1 0 0 1-.826 1.544C7.148 26.12 83 19 36a1 1 0 0 0 .001-2c-.155-.002-3.568-.086-6.204-3.6a1.1 1 1 0 0 0-1.9-.1M18 16.5a.513.513 0 0 0-.279.015l-9 3a.502.502 0 0 1 .072-.171l.001.001.003.003.003.004.004.004.007.026.01.025.01.025.012.023.013.021.013.02.014.021.015.02.016.02.016.02.017.019.018.019.023.024 1.581 1.581.033.035.032.036.03.038.028.04.026.041.024.042.022.043.02.044.017.045.016.046.013.046.011.047.009.048.006.047.004.049.002.048-.001.048-.003.048-.005.049-.007.047-.01.048-.012.046-.015.046-.016.046-.019.044-.021.044-.023.043-.025.041-.027.04-.029.039-.031.037-.032.036-.034.034-.036.032-.038.031-.049.04-.051.037-.053.031-.054.03-.055.029-.054.028-.054.028-.064.027-.064.027-.063.031-.061.035-.062.037-.062.04-.063.042-.062.044-.06.046-.061.047-.061.047-.061.047-.061.047-.061.047-.061.047-.061.047-.061.047-.062.047-.061.047-.062.049-.062.047-.062.047-.062.046-.062.045-.061.045-.061.046-.061.047-.061.047-.061.047-.061.047-.061.047-.061.047-.061.047-.061.047-.061.048-.062.049-.062.049-.061.047-.06.047-.061.047-.062.047-.062.047-.062.047-.061.047-.061.047-.062.047-.061.047-.062.047-.062.047-.061.048-.062.049-.062.049-.062.047-.064.046-.064.046-.064.045-.064.048-.063.049-.062.049-.071.051-.07.051-.07.052-.071.051-.069.049-.069.059-.077.05-.076.073-.076.074-.076.074-.075.074-.074.074-.073.074-.072.074-.071.075-.071.075-.071.071-.069.028-.068.027-.068.027-.068.027-.068.027-.068.027-.068.027-.068.025-.068.025-.069.024-.069.023-.07.021-.071.02-.072.018-.072.017-.072.017-.073.015-.074.013-.075.011-.074.013-.075.013-.075.012-.076.012-.076.01-.076.009-.078.008-.07.01-.07.01-.07.01-.07.01-.07.012-.071.015-.071.016-.07.016-.071.01-.07.01-.07.012-.071.014-.071.015-.07.015-.071.01-.07.01-.07.018-.071.016-.071.016-.071.013-.071.011-.072.009-.071.008-.072.006-.071-.004-.072-.003-.024-.003-.024-.002-.024-.001-.024.001-.024.001-.024.001-.024.001-.024.001-.024.001-.024.001-.024.002-.024.003-.024.003-.024.004-.024.004-.023.005-.024.005-.023.006-.024.007-.023.007-.023.008-.022.008-.023.009-.022.009-.022.01-.022.01-.022.011-.021.012-.022.012-.021.013-.02.014-.021.013-.02.015-.02.015-.02.016-.02.016-.019.017-.019.018-.024.023-1.261 1.581-.035.033-.036.032-.038.03-.04.028-.041.026-.042.024-.043.022-.044.02-.045.017-.045.016-.047.013-.047.011-.048.009-.047.006-.049.004-.048.002-.048-.001-.048-.003-.049-.005-.047-.007-.048-.01-.046-.012-.046-.015-.046-.016-.044-.019-.044-.021-.043-.023-.041-.025-.04-.027-.039-.029-.037-.031-.036-.032-.034-.034-.032-.036-.031-.037-.029-.039-.027-.04-.025-.041-.023-.043-.021-.044-.019-.044-.016-.046-.015-.046-.012-.046-.01-.048-.007-.047-.005-.049-.003-.048-.001-.048.002-.048.004-.049.006-.047.009-.048.011-.047.013-.047.016-.045.017-.045.02-.044.022-.043.024-.042.026-.041.028-.04.03-.038.032-.036.033-.035 1.581-1.581.023-.024.018-.019.017-.019.016-.02.016-.02.015-.02.015-.02.014-.021.013-.02.013-.021.012-.022.012-.022.01-.022.01-.022.009-.022.009-.023.008-.022.008-.023.007-.024.007-.023.006-.023.006-.024.005-.023.005-.024.004-.024.004-.024.003-.024.003-.024.002-.024.001-.024.001-.024.001-.024.002-.024.003-.024.003-.024.004-.024.004-.023.005-.024.005-.023.006-.024.007-.023.007-.023.008-.022.008-.023.009-.022.009-.022.01-.022.01-.022.011-.021.012-.022.012-.021.013-.02.014-.021.013-.02.015-.02.015-.02.016-.02.016-.019.017-.019.018-.024.023-1.164 1.263-.035.043-.035.044-.035.047-.031.048-.029.049-.026.05-.025.051-.023.051-.02.053-.018.053-.014.054-.011.055-.008.056-.004L20 20l.056.002z"/><path d="M25 3.01l-3.581 1.563L24 18H3l-.781 1.23-1.457 2.372c-.307 1.044-1.64 1.603-2.828 1.24L29.896 21.888l1.778-1.598-.998-6.998-8.844C2.081 9 1.481 20.586 9.055M60 25a1 1 0 0 0-.797 1.7M9.999 24a1 1 0 0 0-.799 1.6C9.462 30.95 13.816 31 14 31a1 1 0 0 0 .004-2c-.155-.002-3.568-.086-6.204 3.6a1 1 0 0 1 0 2h12a1 1 0 0 0 1.788 1.327l-2 3a.5.5 0 1 0 .555-.837l-6-5a.998.998 0 0 1-.777 1.117M24 18c-.314 0-.706.194-.944.984l-6.86 1.893A.996.996 0 0 0 .798-.705c.184-.328 4.58-7.126 2.1-5.797 0-3.347-1.162-4.318-2.832-4.706s-1.001 1.272 0 .671c.131.891.677 3.21 2.121 3.373 4.145a8.118 8.118 0 0 0 6.25 1.912c.789.458.758.878 1.211 3.086A3.009 1.009 0 0 1 16.994 4.024z" fill="#ddb5c3"/>><e/></svg>
