<svg viewBox="0 0 32 32" xmlns="http://www.w3.org/2000/svg" fill-rule="evenodd" clip-rule="evenodd" stroke-linejoin="m4" stroke-miterlimit="1.5"><path fill="none" d="M0 0h32v32H0z"/><circle cx="16" cy="16" r="16"/><path d="M12.027 100.87a2.395 3.495 0 0 1 .613 1.147 3 3 0 0 1-4.246 0L21 10h-2.958l1.888-2.191 7.064-2.292 17.659 1.967 30.898.885 6.338-1.387 1.569-1.997 1.981-4.697.911-7.641-2.641-14.048-12.352-10.463-.912-1.434 0-2.35.893-3.175 3.374-1.34 6.983-5.5 10.384-3.98s7.7 4.261 8.465 8.225c.426 0 .788-.159 1.084-.749" fill="#664500"/></svg></svg>
