<svg viewBox="0 0 32 32" xmlns="http://www.w3.org/2000/svg" fill-rule="evenodd" clip-rule="evenodd" stroke-linejoin="round" stroke-miterlimit="1.414"><path fill="none" d="M0 0h32v32H0z"/><clipPath id="a"><path d="M0 0h32v32H0z"/></clipPath><g clip-path="url(#a)"><path d="M16.174 2.001a13.99 13.99 0 0 1 9.602 3.977 14.047 14.047 0 0 1 3.404 5.301 13.959 13.959 0 0 1 .819 4.547c.007 1.105.007 2.21 0 3.316a10.987 10.987 0 0 1-.621 3.513 11.028 11.028 0 0 1-6.597 6.677 10.926 10.826 0 0 1-3.64-.667 11.033 11.033 0 0 1-6.596-6.677 10.046 10.055.018.056.018.056.019.055.021.056.022.055.023.055.025.054.027.053.037.052.037.052.038.052.038.053.04.053.04.051.047.05.346.047.049.044.052.041.054.037.057.034.06.02.062.015.062.011.062.007.063.004.062.001.067-.001.067-.002.068-.001.067-.01.068-.005.068-.01.068-.013.067-.019.066-.023.064-.027.063-.031.06-.036.059-.039.056-.043.053-.047.049-.05.047-.053.043-.056.04-.058.035-.061.031-.062.027-.064.023-.066.019-.067.013-.068.01-.068.004h-.068l-.068-.004-.068-.01-.067-.013-.066-.019-.064-.023-.062-.027-.061-.031-.058-.036-.056-.039-.053-.043-.05-.047-.047-.05-.043-.053-.039-.056-.036-.058-.031-.061-.027-.062-.023-.064-.019-.066-.013-.067-.01-.068-.004-.068v-.068l.004-.068.001-.068.006-.067.01-.067.015-.065.019-.062.053-.059.047-.067.047-.064.048-.062.049-.063.049-.069.049-.069.049-.069.049-.069.049-.069.049-.06.049-.06.051-.07.053-.07.052-.071.051-.072.041-.072.04-.072.041-.071.041-.069.043-.079.044-.07.04-.079.041-.077.041-.077.04-.079.038-.069.038-.067.037-.066.037-.066.038-.066.039-.065.039-.065.04-.064.041-.062.042-.062.042-.062.04-.061.041-.063.04-.065.039-.065.037-.066.035-.066.034-.066.031-.067.03-.068.029-.068.027-.068.024-.069.023-.07.021-.069.02-.071.018-.07.016-.071.015-.071.013-.071.011-.072.009-.071.008-.071.006-.071.004-.071.003-.072.001-.072-.001-.071-.003-.072-.004-.071-.006-.072-.008-.071-.009-.072-.011-.071-.013-.071-.015-.07-.016-.071-.018-.069-.02-.07-.021-.069-.024-.068-.024-.068-.027-.068-.029-.067-.03-.066-.031-.066-.034-.066-.035-.064-.037-.063-.038-.062-.038-.061-.04-.061-.042-.063-.042-.064-.045-.064-.045-.064-.045-.064-.045-.064-.045-.064-.045-.064-.045-.064-.045-.064-.045-.064-.045-.064-.045-.064-.045-.064-.046-.064-.046-.063-.049-.062-.04-.062-.04-.06-.04-.06-.039-.06-.039-.06-.037-.06-.033-.06-.032-.069-.033-.069-.025-.07-.026-.069-.028-.068-.029-.067-.03-.066-.031-.006-.035-.004-.039-.003-.038-.001-.04v-.04l.002-.04.002-.044.003-.041.002-.04.001h-.04l-.04-.001-.039-.003-.04-.004-.039-.006-.039-.008-.039-.009-.038-.01-.038-.012-.038-.014-.036-.015-.037-.016-.035-.018-.035-.02-.034-.02-.033-.022-.032-.024-.031-.024-.031-.026-.029-.027-.028-.028-.027-.029-.026-.031-.024-.031-.024-.032-.022-.033-.02-.034-.02-.035-.018-.035-.016-.037-.015-.036-.014-.038-.012-.038-.01-.038-.009-.038-.008-.039-.006-.04-.004-.039-.003-.04-.001-.04v-.039l.002-.04.004-.04.005-.039.007-.039.008-.039.01-.039.011-.038.013-.038.014-.037.016-.036.017-.036.019-.036.02-.034.021-.034.022-.033.023-.032.025-.031.026-.03.027-.029.029-.028.029-.027.03-.025.032-.025.032-.023.034-.022.034-.02.034-.019.036-.018.036-.016.037-.015.038-.013.038-.011.038-.01.039-.008.039-.007.04-.005.039-.004.04-.002h.04l.04.001z"/><path d="M17 20.515a1.498 1.498 0 0 0-2.5-.5" fill="#fff"/><path d="M21.072 18c1.034.417 3.272 3.388 6.448 3.62h-.002A1.991 1.991 0 0 1 11.994 17" fill="#d79e84"/><path d="M23.9 7.742a4 420 0 0 0-1.449-.002h-.002l.029.001.024.001.024.001.024.002.024.003.024.003.024.004.024.004.024.005.024.005.023.006.023.007.024.007.022.008.024.008.022.009.023.009.022.01.022.01.022.012.022.011.021.012.022.013.021.013.02.014.021.015.02.015.021.017.019.017.02.017.02.019.02.019.018.02.019.022.02.022.028.021.028.021.028.021.028.02.028.019.028.019.03.027.032.026.032.025.034.023.034.022.036.02.037.028.039.026.03.025.03.024.032.023.033.021.033.02.035.018.035.016.037.015.037.014.038.012.038.01.038.009.039.008.039.006.039.004.04.003.039.001.04v.04l-.002.04-.004.039-.005.04-.008.039-.009.039-.01.038-.012.038-.014.038-.015.036-.016.037-.018.035-.02.035-.02.034-.022.033-.024.032-.024.031-.026.031-.027.029-.028.028-.029.027-.031.026-.031.024-.032.024-.033.022-.034.02-.035.02-.035.018-.037.016-.036.015-.038.014-.038.012-.038.01-.039.009-.039.008-.039.006-.04.004-.039.003-.04.001h-.04l-.04-.002-.039-.004-.04-.005-.039-.007-.039-.008-.038-.01-.038-.011-.038-.013-.037-.014-.037-.016-.035-.017-.036-.019-.034-.02-.034-.021-.032-.023-.032-.024-.031-.025-.029-.026-.029-.028L21 14.414l-1.293 1.293-.029.028-.029.026-.031.025-.032.024-.032.023-.034.021-.034.02-.036.019-.035.017-.037.016-.037.014-.038.013-.038.011-.038.01-.039.008-.039.007-.04.005-.039.004-.04.002h-.04l-.04-.001-.039-.003-.04-.004-.039-.006-.039-.008-.039-.009-.038-.011-.038-.012-.038-.014-.036-.015-.037-.016-.035-.018-.035-.02-.034-.02-.033-.022-.032-.024-.031-.024-.031-.026-.029-.027-.028-.028-.027-.029-.026-.031-.024-.031-.024-.032-.022-.033-.02-.034-.02-.035-.018-.035-.016-.037-.015-.036-.014-.038-.012-.038-.01-.038-.009-.039-.008-.039-.006-.039-.004-.04-.003-.039-.001-.04v-.04l.002-.04.004-.039.005-.04.007-.039.008-.039.01-.038.011-.038.013-.038.014-.037.016-.037.017-.035.019-.036.02-.034.021-.034.023-.032.024-.032.025-.031.026-.029.028-.029L21 11.586l2.707 2.707zM13.707 14.293l.028.029.026.029.025.031.024.032.023.032.021.034.02.034.019.036.017.035.016.037.014.037.013.038.011.038.01.038.008.039.007.039.005.04.004.039.002.04v.04l-.001.04-.003.039-.004.04-.006.039-.008.039-.009.039-.01.038-.012.038-.014.038-.015.036-.016.037-.018.035-.02.035-.02.034-.022.033-.024.032-.024.031-.026.031-.027.029-.028.028-.029.027-.031.026-.031.024-.032.024-.033.022-.034.02-.035.02-.035.018-.037.016-.036.015-.038.014-.038.012-.038.01-.039.009-.039.008-.039.006-.04.004-.039.003-.04.001h-.04l-.04-.002-.039-.004-.04-.005-.039-.007-.039-.008-.038-.01-.038-.011-.038-.013-.037-.014-.037-.016-.035-.017-.036-.019-.034-.02-.034-.021-.032-.023-.032-.024-.031-.025-.029-.026-.029-.028L21 14.414l-1.293 1.293-.029.028-.029.026-.031.025-.032.024-.032.023-.034.021-.034.02-.036.019-.035.017-.037.016-.037.014-.038.013-.038.011-.038.01-.039.008-.039.007-.04.005-.039.004-.04.002h-.04l-.04-.001-.039-.003-.04-.004-.039-.006-.039-.008-.039-.009-.038-.01-.038-.012-.038-.014-.036-.015-.037-.016-.035-.018-.035-.02-.034-.02-.033-.022-.032-.024-.031-.024-.031-.026-.029-.027-.028-.028-.027-.029-.026-.031-.024-.031-.024-.032-.022-.033-.02-.034-.02-.035-.018-.035-.016-.037-.015-.036-.014-.038-.012-.038-.01-.038-.009-.039-.008-.039-.006-.039-.004-.04-.003-.039-.001-.04v-.04l.002-.04.004-.039.005-.04.007-.039.008-.039.01-.038.011-.038.013-.038.014-.037.016-.037.017-.035.019-.036.02-.034.021-.034.023-.032.024-.032.025-.031.026-.029.028-.029L21 11.586l2.707 2.707zM13.707 14.293l.028.029.026.029.025.031.024.032.023.032.021.034.02.034.019.036.017.035.016.037.014.037.013.038.011.038.01.038.008.039.007.039.005.04.004.039.002.04v.04l-.001.04-.003.039-.004.04-.006.039-.008.039-.009.039-.01.038-.012.038-.014.038-.015.036-.016.037-.018.035-.02.035-.02.034-.022.033-.024.032-.024.031-.026.031-.027.029-.028.028-.029.027-.031.026-.031.024-.032.024-.033.022-.034.02-.035.02-.035.018-.037.016-.036.015-.038.014-.038.012-.038.01-.039.009-.039.008-.039.006-.04.004-.039.003-.04.001h-.04l-.04-.002-.039-.004-.04-.005-.039-.007-.039-.008-.038-.01-.038-.011-.038-.013-.037-.014-.037-.016-.035-.017-.036-.019-.034-.02-.034-.021-.032-.023-.032-.024-.031-.025-.029-.026-.029-.028L21 14.414l-1.293 1.293-.029.028-.029.026-.031.025-.032.024-.032.023-.034.021-.034.02-.036.019-.035.017-.037.016-.037.014-.038.013-.038.011-.038.01-.039.008-.039.007-.04.005-.039.004-.04.002h-.04l-.04-.001-.039-.003-.04-.004-.039-.006-.039-.008-.039-.009-.038-.01-.038-.012-.038-.014-.036-.015-.037-.016-.035-.018-.035-.02-.034-.02-.033-.022-.032-.024-.031-.024-.031-.026-.029-.027-.028-.028-.027-.029-.026-.031-.024-.031-.024-.032-.022-.033-.02-.034-.02-.035-.018-.035-.016-.037-.015-.036-.014-.038-.012-.038-.01-.038-.009-.039-.008-.039-.006-.039-.004-.04-.003-.039-.001-.04v-.04l.002-.04.004-.039.005-.04.007-.039.008-.039.01-.038.011-.038.013-.038.014-.037.016-.037.017-.035.019-.036.02-.034.021-.034.023-.032.024-.032.025-.031.026-.029.028-.029L11 11.586l2.707 2.707z"/><path d="M13 19l-4 5.481A3.5 25.072 0 0 0 5 0 18a2 3 0 0 1 0-4.977l.018-.001a.515.502 0 0 1 .114.014.014.025.092 0 1.613 1.852.422 1.891.408 4.899.505 3.003 2.749.533 5.313.438 6.532a.969.496 0 0 0 .606.29.437.474 0 1 0 .708.118c-.157-.017-.175-.012-.371a3.993 9.993 0 0 1-3.008-2.007z"/><path fill="#638e9C" stroke="#009174" stroke-width="4.048"/><path d="M12.577 18.001l10 17.664c-2.598.521-2.719-.375-4.391-1.028-.588-.253-1.215-.201-1.841.327.726 1.347 1.119 2.24 1.785.654 1.255 2.405 1.227 2.898 2.058 4.315-.627 7.484-3.83 11.162-3.255 0-4.03-.866-6.137-.933-.955.738-1.952 1.252-2.741 1.052a.5.5.5 0 0 1-.557-.453c.504-1.069.817-.208 1.032-.219 0-2.942-.806-4.718-1.332.051-.05.173-.078.224-.179.003.069.008.1.751.254.738a1.008 1.008 0 0 1 .651 1.068 1.003 1.003 0 0 1-.652-.864 1.057 1.057 0 0 1-.324.923A6.94 7.97 0 0 0 1.01 3.019c.004 4.65.005 8.15 0 14.385 1.81 16.298-5.549 16.009 10.418 1.505 9.051-1.515 16.218-11.004 12.797-10.8 10.058-17.975 9.697-37.41115.589-6.21z"/></g><use xlink:href="#a" overflow="visible" fill="#FFF"/><clipPath id="e"><use xlink:href="#b" overflow="visible"/></clipPath><path clip-path="url(#h)" fill="#ce453e" d="M12.11 40.88c1.35.66 1.76 2.27 1.32 3.85l-8.75-2.98-4.08-4.35c-.29-.46-.76-.94-1.13-1.06zM10.38 89.6c.03-.95.27-1.85.52-2.44.01-1.16.03-2.16-.91-3.78-1.49-.43-1.2.8-2.29 2.14-2.55z"/><path fill="#2F2F2F" d="M81.89 70.05c-.57-.03-1.17-.57-1.42-1.28-.43-1.1-.48-1.29-.98-1.66-.49-.36-.92-.66-.96-.94-.86-.3-1.55-.71-2.4-1.18-.6-.59-1.11-1.14-1.89-1.71-1.06-.82-.62-1.43-1.72-1.54l.33-.02c-.86.41-1.32-.74-1.66-1.22-.08-.24-2.32-4.46-12.34-3.85-7.61-2.36-13.89-5.36-21.25-6.67-.3-.18-.75-.43-1.25-.62-1.33-.49-2.41-1.13-3.47-1.4a2.2 2.23 0 0 0-2.41-1.79c-.28-.34-8.01-8.48-20.52-9.63-1.43-.27-2.67.3-2.67.74-5.49 1.16-11.61 2.76-13.3 5.43-.78 1.42.01 2.85-.2 3.32-.42.43-1.15.65-1.89.7z" fill="#2f2f2f"/></svg>
