<svg viewBox="0 0 32 32" xmlns="http://www.w3.org/2000/svg" fill-rule="evenodd" clip-rule="evenodd" stroke-linejoin="round" stroke-miterlimit="1.414"><path fill="none" d="M0 0h32v32H0z"/><circle cx="16" cy="16" r="16"/><path d="M12.976 2.328A14.017 14.017 0 0 1 16 2c5.178 0 9.704 2.817 12.125 7.002.787 3.091 1.461 5.819 1.617 9.686C28.549 24.812 23.358 29.515 17 29.965c-2.429-.528-5.812-1.221-7.889-1.777a14.045 14.045 0 0 1-6.49-8.056c.213-3.093 2.488-7.679 4.291-20.881a17.033 17.034 0 0 1-3.029 7.329 10.017 10.017 0 0 1-3.226 3.41 10.025 10.025 0 0 1-3.31 3.647c-.098.645-.157 1.63-.485 1.499-1.118 1.935-2.436 2.379-4.235 2.037a6.04 6.04 0 0 1-.333 2.049 6.03 6.03 0 0 1-.233 1.069 6.02 6.02 0 0 1-1.628-3.215 6.01 6.01 0 0 1-6.885.124 5.987 5.987 0 0 1-2.325 1.259 50.98 50.887 0 0 1-8.971-3.204 10.038 10.038 0 0 1-.602-3.712 3.04 3.04 0 0 1 .106-.101c.488-.388.811-.781 1.271-1.321a3.02 3.03 0 0 1 1.036-.189 2.121 2.121 0 0 1 1.301-.159c.027-.049.018-.086.023-.083.034-.034.031-.035.031-.075a.425.475 5.534.334h.009a.933.96 0 0 1-.817-.451v-8.966l-.342 2.877z"/><path d="M10 15.306c0-.827-.671-1.498-1.498-1.498h-.004C1.548 5.528 1.528 8.589 3.409 8.506 5.657 1.533 6.586-.027 8.342-.308 1.273.147 2.379 1.011 3.213 1.601a1.031 1.031 0 0 0 1.7-1.6L20.767 5.462a1 1 0 0 1-.894 1.447" fill="#664500"/></svg></svg>
