<svg xmlns="http://www.w3.org/2000/svg" viewBox="0 0 128 128"><ellipse cx="64.1" cy="75.05" rx="43.64" ry="18.43" fill="#d0e3e.8"/></svg></svg><g fill="#242424"><path d="M62.67 80.42c-1.78 0-5-.71-4.64-3.38-9.7 0-1.64 3.28-3.45 4.36-3.32 4.06.32 10.64 1.83 16.05 4.16 2.68 6.81 2.24 11.34 6.11 8.35.75 17.75 3.61 23.91 6.23 1.05.27 1.99.93 3.15 1.25 1.81 1.69 4.05 3.13 4.89 3.23.9.7 1.03 1.91 1.89 2.74.22 1.21.65 1.86.9 1.83l.24c.81-.09 1.51-.65 2.24-1.31.35-.6.61-1.14.75-1.6.23-.49.73-.85 1.26-.81.7-.21 1.73-.52 2.48-.6.73-.33 1.33-.6 2.09-.44.26-.71.38-1.39.37zM93.38 67.67c-.62 1.67-1.37 2.67-2.87 3.42-2.66 1.66-5.08-.78-8.8-2.25-2.57-1.48-5.71-2.48-8.38-4.21-.57-.08-.91-.16-1.5-.1-6.67-1.13-10.1-1.51-17.72-.37-1.29.82-2.89 1.74-4.16 3.14-1.53 1.91-3.25 3.81-4.67 4.12-.07.02-10.21 1.96-16.25 5.99-4.08 11.76-12.11 18.7-14.15 3.41-3.74 8.63-9.55 10.46-16.62-.33-16.4-10.63-23.37-15.29-.56-.06-1.08-.13-1.65-.23-8.58-5.63-15.89-14.52-15.5-10.25-3.41 0-7.56 3.09-7.76 7.06-.05.86.8.93.91 1.34.74.2 1.16.27 1.77.58l.04.02c-1.44 0-3.61-.21-5.38-.93-7.77-3.43-14.81-14.67-5.34-16.8.57-1.19 3.35 2.23 6.43 3.33.1.12.12 2.44-.09 2.22zM80.82 56.75c-.13.38-.27.63-.47 1-.02.01-.07.01-.11.01-.15.09-.37.1-.6.31-.37.23-.74.41-1.23.48-1.15 0-2.25.635-2.16.57-.46.34-.82.55-1.38.68-.74 1.19-1.24 1.63-1.45.04-.46-.29-.85-.61-1.53-.53-3.35-1.1-5.91-1.42-7.7.03-.31.3-1.63 1.31-2.71 1.69-.22-.12-.52-2.36-.8-2.99-.74-1.57-.76-3.5-1.13-4.07-1.44-1.22.02-2.96-.11-4.59.37-2.31 1.82-4.23 6.08-5.42 2.21-2.1 1.04-3.78 2.83-6.21 3.49-2.25.09-3.81-.04-5.06-.23-.04-.02-.06-.02-.06-.02-.06-.02-.06-.02-.06-.02-.05-.02-.06-.02-.06-.02-.06-.02-.06-.02-.06-.02-.06-.023-.058-.021-.069-.022-.058-.023-.058-.023-.057-.021-.057-.02-.055-.021-.055-.025-.055-.026-.054-.026-.054-.027-.054-.029-.052-.031-.052-.033-.051-.035-.05-.035-.049-.036-.049-.036-.049-.037-.049-.038-.048-.039-.047-.04-.047-.041-.046-.043-.043-.044-.04-.046-.037-.048-.035-.048-.033-.049-.033-.05-.033-.05-.032-.05-.03-.051-.03-.051-.03-.051-.029-.052-.029-.052-.028-.052-.028-.053-.027-.053-.026-.053-.025-.053-.025-.054-.025-.055-.023-.054-.023-.055-.022-.055-.022-.055-.021-.056-.02-.055-.021-.056-.021-.056-.019-.057-.018-.057-.017-.057-.017-.057-.016-.057-.016-.057-.015-.058-.014-.057-.013-.058-.013-.059-.012-.058-.011-.058-.011-.059-.009-.059-.01-.059-.008-.059-.006-.06-.006-.059-.005-.06-.004-.06-.003-.06-.003-.06-.001-.06-.002H15.361l-.06.002-.06.001-.06.003-.06.003-.06.004-.059.005-.06.006-.059.006-.059.007-.059.008-.059.008-.059.01-.059.009-.058.011-.058.011-.059.012-.058.013-.057.013-.058.014-.057.015-.057.016-.057.017-.057.019-.056.018-.056.02-.055.02-.055.021-.055.022-.055.022-.054.023-.055.024-.053.024-.054.025-.053.026-.043.026-.042.027-.042.031-.042.031-.044.029-.045.027-.045.027-.047.026-.048.025-.048.025-.047.025-.047.025-.047.025-.047.026-.047.026-.047.027-.046.029-.046.029-.044.031-.043.032-.041.034-.04.036-.038.038-.036.04-.034.041-.032.043-.03.045-.027.046-.025.047-.023.049-.02.049-.017.05-.015.051-.012.052-.01.051-.007.053-.004L23 29h-9.957l.01-.001.108-.005.106-.014.106-.012.106-.014.106-.012.106-.014.065-.019.067-.025.065-.031.062-.034.063-.035.163-.045.048-.046.048-.046.049-.046.05-.046.061-.045.062-.045.062-.045.063-.043.064-.043.064-.042.064-.043.065-.043.067-.043.068-.042.068-.04.069-.039.069-.037.07-.036.071-.035.072-.034.072-.033.072-.031.073-.03.074-.029.074-.028.075-.026.075-.026.076-.024.077-.022.077-.021.077-.02.077-.019.078-.017.079-.017.079-.014.079-.014.08-.012.08-.01.08-.009.08-.008.081-.007.081-.005.082-.003.081-.002.078-.001h1.536l.078.001zM12 13.5a1.503 1.503 0 0 0-1.5-1.5A1.503 1.503 0 0 0 9 13.5v2a1.503 1.503 0 0 0 1.5 1.5h.002A1.501 1.501 0 0 0 23 18h3a1.5 0 0 0-.366.834l-3.88-1.09A.5.5 0 0 0 19 15l4-20 12 22 0 .4-12.886v-2.216a5.996 5.996 0 0 1 5.648 0H2427.794h.009c.302 0 .719-.516.805-1.072.073-.06.13-.17.167-.298 1.748-2.442 2.144-2.549 3.797a.497.497 0 0 1-.237.064H12c.566 0 0 1.758-.403 1.001 0 0 0 1.5-.1" fill="#664500"/></g></svg>
