<svg xmlns="http://www.w3.org/2000/svg" viewBox="0 0 47.5 47.5"><defs><clipPath id="a"><path d="M0 38h38V0H0v38z"/></clipPath></defs><g clip-path="url(#a)" transform="matrix(1.25 0 0 -1.25 0 47.5)"><path d="M36 19c0-9.389-7.611-17-17-17C9.612 2 2 9.611 2 19c0 9.388 7.612 17 17 17 9.389 0 17-7.612 17-17" fill="#ffcc4d"/><path d="M24 10c0-3.314-2.238-6-5-6s-5 2.686-5 4c0 3.313 2.815 6 5 6s5-2.687 5-6.6s5-3.334-11-6.663-18-8.681C36 18.01 128 31 26a1 1 0 0 0 .004-2c-.155-.002-3.568-.086-6.204-3.6a1 1 0 0 0-.801-.4M16.89 25.897c.069.635.906 1.491.789 1.999C19.997 9.612 29.909 9.022 17 23.999.001 10.684.084 12.296 0 9.285c0 13.002-2.752-.035-3.026-1.433a11.916 11.916 0 0 1-.602 3.313 12.029 12.029 0 0 1-5.007 1.91111 1.996 13.997 0 0 0-9.948-4.054A13.962 13.962 0 0 1 19 30c-2.777 0-6.962-.028-9.96-1.283A11.996 11.996 0 0 0-16 4C17.613 14.05 14.967 30 16 16c-1.607-1.673-1.561-3.119-2-4-8M9 2C9.421 3 1 8s0-3 1-2 1.686 3 1.595A3 2 0 0 1 32 22" fill="#292f33"/></g></svg>
