<svg xmlns="http://www.w3.org/2000/svg" viewBox="0 0 47.5 47.5"><defs><clipPath id="a"><path d="M0 38h38V0H0v38z"/></clipPath></defs><g clip-path="url(#a)" transform="matrix(1.25 0 0 -1.25 0 47.5)"><path d="M36 19c0-9.389-7.611-17-17-17C9.612 2 2 9.611 2 19c0 9.388 7.612 17 17 17 9.389 0 17-7.612 17-17" fill="#ffcc4d"/><path d="M15 20.5c0-1.934-1.119-3.5-2.5-3.5S10 18.566 10 20.5c0 1.933 1.119 3.5 2.5 3.5s2.5-1.567 2.5-3.5M28 20.5c0-1.934-1.119-3.5-2.5-3.5S23 18.566 23 20.5c0 1.933 1.119 3.5 2.5 3.5s2.5-1.567 2.5-3.5M24.485 9.12c-.012.045-1.146 4.38-5.485 4.38-4.34 0-5.475-4.335-5.485-4.38a.495.495 0 0 1 .231-.543.51.51 0 0 1 .596.06c.01.007 1.014.863 4.658.863 3.59 0 4.617-.83 4.656-.863a.5.5 0 0 1 .83.484" fill="#664500"/><path d="M11.8 5.529c.479 4.333.872 5.272 4.224 5.69a4.71 4.51 0 0 1 1.026.666 6.603 6.903 0 0 1-8.386-3.985 9.922 9.922 0 0 1-3.309-.607 6.007 6.007 0 0 1-8.07-2.835 9.026 9.024 0 0 1-.994 6.586 10.046 10.046 0 0 1-.606-3.31c-.013-.735-.016-6.258-.021-13.541 0-13.005-8.834-11.003-10.001-.012-.012-.027-.027-.025-.021-.026-.023-.035-.022-.036-.022-.036-.021-.036-.02-.036-.02-.037-.018-.038-.019-.038-.017-.038-.017-.038-.017-.038-.016-.039-.015-.039-.015-.041-.014-.042-.013-.042-.012-.042-.011-.041-.011-.042-.009-.042-.009-.042-.009-.044-.008-.044-.007-.044-.006-.045-.005-.046-.005-.046-.003-.046-.003-.046-.002L16.81 22h-1.62l-.047.002-.046.002-.046.003-.046.003-.046.005-.046.005-.045.006-.045.007-.045.007-.045.008-.044.009-.044.011-.044.012-.043.013-.043.014-.043.014-.042.015-.042.016-.042.016-.041.017-.042.018-.04.019-.041.019-.04.02-.04.02-.039.021-.039.022-.039.023-.038.023-.038.024-.038.024-.037.026-.036.025-.037.027-.035.027-.036.027-.034.029-.035.028-.034.031-.033.032-.033.032-.031.031-.031.03-.032.03-.03.028-.031.028-.032.027-.032.026-.032.026-.034.023-.035.022-.035.023-.036.024-.036.023-.037.022-.038.02-.039.019-.03.027-.03.026-.031.025-.032.024-.033.022-.034.021-.035.02-.036.019-.037.017-.037.016-.039.014-.04.014-.039.012-.038.012-.038.014-.037.016-.037.017-.035.018-.036.02-.034.021-.034.022-.033.023-.032.025-.031.026-.03.027-.029.029-.028.029-.027.03-.025.032-.025.032-.023.034-.022.034-.02.034-.019.035-.017.036-.016.037-.015.038-.013.038-.011.038-.01.039-.008.039-.007.04-.005.039-.004.04-.002h.04l.04.001zM9.03 13l.04.002.039.004.04.005.039.007.039.008.038.01.038.011.038.013.037.015.037.015.035.018.036.018.034.02.034.022.032.023.032.025.03.025.029.027.029.028.027.029.026.03.025.031.023.032.022.033.021.034.02.034.018.036.017.036.015.036.014.038.012.038.011.038.009.039.008.039.006.039.004.039.003.04.001.04v.049l-.002.04-.003.04-.005.039-.007.04-.008.039-.009.038-.011.038-.013.038-.014.037-.016.037-.017.035-.019.036-.02.034-.021.034-.023.032-.024.032-.025.031-.026.029-.028.029L20.414 15H22l.04.001.039.002.04.004.039.006.04.007.038.008.039.01.038.012.037.013.037.015.037.016.035.018.035.019.034.02.034.022.032.023.032.024.03.025.03.027.028.028.027.029.026.03.025.031.024.032.022.033.021.034.02.034.018.035.017.036.015.037.014.037.013.038.011.038.009.039.008.039.006.039.005.04.003.039.001.04v.04l-.002.04-.004.039-.005.04-.007.039-.008.039-.01.038-.011.038-.013.038-.014.037-.016.037-.017.035-.019.036-.02.034-.021.034-.023.032-.024.032-.025.031-.026.029-.028.029-1.856 1.856 1.465.488.038.014.037.014.036.017.036.017.034.019.034.021.034.022.032.023.032.024.03.026.029.027.029.028.027.029.026.03.025.031.023.032.022.033.021.034.02.034.018.036.017.036.015.036.014.038.012.038.011.038.009.039.008.039.006.039.004.039.003.04.001.04v.049l-.002.04-.003.04-.005.039-.007.04-.008.039-.009.038-.011.038-.013.038-.014.037-.015.037-.017.036-.019.035-.02.035-.021.033-.022.033-.024.032-.025.031-.026.03-.027.029-.029.027-.03.027-.03.025-.032.024-.032.023-.034.021-.034.02-.036.019-.0359.017-.036.015-.037.014-.038.013-.038.011-.038.01-.039.008-.039.007-.04.005-.039.004-.04.002h-.04l-.04-.001-.039-.003-.04-.004-.039-.006-.039-.008-.039-.009-.038-.01-.038-.012-.038-.014-.036-.015-.037-.016-.035-.018-.035-.02-.034-.02-.033-.022-.032-.024-.031-.024-.031-.026-.029-.027-.028-.028-.027-.029-.026-.031-.024-.031-.024-.032-.022-.033-.02-.034-.02-.035-.018-.035-.016-.037-.015-.036-.014-.038-.012-.038-.01-.038-.009-.039-.008-.039-.006-.039-.004-.04-.003-.039L8 15.01v-.04l.002-.04.004-.039.005-.04.007-.039.008-.039.01-.038.011-.038.013-.038.014-.037.016-.037.017-.035.019-.036.02-.034.021-.034.023-.032.024-.032.025-.031.026-.029.028-.029L21 11.586l2.707 2.707zM13.707 14.293l.028.029.026.029.025.031.024.032.023.032.021.034.02.034.019.036.017.035.016.037.014.037.013.038.011.038.01.038.008.039.007.039.005.04.004.039.002.04v.04l-.001.04-.003.039-.004.04-.006.039-.008.039-.009.039-.01.038-.012.038-.014.038-.015.036-.016.037-.018.035-.02.035-.02.034-.021.033-.023.032-.024.032-.025.031-.026.029-.028.029L21.414 15H23l.04.001.039.002.04.004.039.006.04.007.038.008.039.01.038.012.037.013.037.015.037.016.035.018.035.019.034.02.034.022.032.023.032.024.03.025.03.027.028.028.027.029.026.03.025.031.024.032.022.033.021.034.02.034.018.035.017.036.015.037.014.037.013.038.011.038.009.039.008.039.006.039.005.04.003.039.001.04v.04l-.002.04-.004.039-.005.04-.007.039-.008.039-.01.038-.011.038-.013.038-.014.037-.016.037-.017.035-.019.036-.02.034-.021.034-.023.032-.024.032-.025.031-.026.029-.028.029-1.856 1.856 1.465.488.038.014.037.014.036.017.036.017.034.019.034.021.034.022.032.023.032.024.03.026.029.027.029.028.027.029.026.03.025.031.023.032.022.033.021.034.02.034.018.036.017.036.015.036.014.038.012.038.011.038.009.039.008.039.006.039.004.039.003.04.002.04v.039l-.002.04-.003.04-.005.039-.007.04-.008.039-.01.038-.011.038-.013.038-.014.037-.016.036-.017.036-.019.035-.02.034-.021.034-.023.032-.024.032-.025.031-.026.029-.028.029-1.856 1.856 1.465.488.038.014.037.014.036.017.036.017.034.019.034.021.034.022.032.023.032.024.03.026.029.027.029.028.027.029.026.03.025.031.023.032.022.033.021.034.02.034.018.036.017.036.015.036.014.038.012.038.011.038.009.039.008.039.006.039.004.039.003.04.001.04v.049l-.002.04-.003.04-.005.039-.007.04-.008.039-.009.038-.011.038-.013.038-.014.037-.015.037-.017.036-.019.035-.02.035-.021.033-.022.033-.024.032-.025.031-.026.03-.027.029-.029.027-.03.027-.03.025-.032.024-.032.023-.034.022-.034.02-.035.019-.036.018-.036.016-.037.014-.038.013-.038.012-.038.01-.039.008-.039.007-.04.006-.039.003-.04.003h-.04l-.039-.001-.04-.002-.04-.004-.039-.006-.039-.007-.039-.009-.038-.01-.038-.012-4.087-1.362-.114-.484 3.81-3.81.029-.028.029-.026.031-.025.032-.024.032-.023.034-.021.034-.02.036-.019.035-.017.037-.016.037-.014.038-.013.038-.011.038-.01.039-.008.039-.007.04-.005.039-.004.04-.002h.04l.04.001zM9.03 13l.04.002.039.004.04.005.039.007.039.008.038.01.038.011.038.013.037.015.037.015.035.018.036.018.034.02.034.022.032.023.032.025.03.025.029.027.029.028.027.029.026.03.025.031.023.032.022.033.021.034.02.034.018.036.017.036.015.036.014.038.012.038.011.038.009.039.008.039.006.039.004.039.003.04.001.04v.049l-.002.04-.003.04-.005.039-.007.04-.008.039-.009.038-.011.038-.013.038-.014.037-.015.037-.017.036-.019.035-.02.035-.021.033-.022.033-.024.032-.025.031-.026.03-.027.029-.029.027-.03.027-.03.025-.032.024-.032.023-.034.021-.034.02-.036.019-.035.017-.037.016-.037.014-.038.013-.038.011-.038.01-.039.008-.039.007-.04.005-.039.004-.04.002h-.04l-.04-.001-.039-.003-.04-.004-.039-.006-.039-.008-.039-.009-.038-.01-.038-.012-.038-.014-.036-.015-.037-.016-.035-.018-.035-.02-.034-.02-.033-.022-.032-.024-.031-.024-.031-.026-.029-.027-.028-.028-.027-.029-.026-.031-.024-.031-.024-.032-.022-.033-.02-.034-.02-.035-.018-.035-.016-.037-.015-.036-.014-.038-.012-.038-.01-.038-.009-.039-.008-.039-.006-.039-.004-.04-.003-.039-.001-.04v-.04l.002-.04.004-.039.005-.04.007-.039.008-.039.01-.038.011-.038.013-.038.014-.037.016-.037.017-.035.019-.036.02-.034.021-.034.023-.032.024-.032.025-.031.026-.029.028-.029L21 11.586l2.707 2.707zM13.707 14.293l.028.029.026.029.025.031.024.032.023.032.021.034.02.034.019.036.017.035.016.037.014.037.013.038.011.038.01.038.008.039.007.039.005.04.004.039.002.04v.04l-.001.04-.003.039-.004.04-.006.039-.008.039-.009.039-.01.038-.012.038-.014.038-.015.036-.016.037-.018.035-.02.035-.02.034-.022.033-.024.032-.024.031-.026.031-.027.029-.028.028-.029.027-.031.026-.031.024-.032.024-.033.022-.034.02-.035.02-.035.018-.037.016-.036.015-.038.014-.038.012-.038.01-.039.009-.039.008-.039.006-.04.004-.039.003-.04.001h-.04l-.04-.002-.039-.004-.04-.005-.039-.006-.039-.009-.038-.009-.038-.012-.038-.013-.037-.014-.037-.016-.035-.017-.036-.018-.034-.02-.034-.022-.032-.022-.032-.024-.031-.026-.029-.026-.029-.028L21 13.423l-1.293 1.292-.029.028-.029.026-.031.026-.032.024-.032.023-.034.021-.034.02-.036.019-.035.017-.037.016-.037.014-.038.013-.038.011-.038.01-.039.008-.039.007-.04.005-.039.004-.04.002h-.04l-.04-.001-.039-.003-.04-.004-.039-.006-.039-.008-.039-.009-.038-.01-.038-.012-.038-.014-.036-.015-.037-.016-.035-.018-.035-.02-.034-.02-.033-.022-.032-.024-.031-.024-.031-.026-.029-.027-.028-.028-.027-.029-.026-.031-.024-.031-.024-.032-.022-.033-.02-.034-.02-.035-.018-.035-.016-.037-.015-.036-.014-.038-.012-.038-.01-.038-.009-.039-.008-.039-.006-.039-.004-.04-.003-.039-.001-.04v-.04l.002-.04.004-.039.005-.04.007-.039.008-.039.01-.038.011-.038.013-.038.014-.037.016-.037.017-.035.019-.036.02-.034.021-.034.023-.032.024-.032.025-.031.026-.029.028-.029L21 11.586l2.707 2.707zM13.707 14.293l.028.029.026.029.025.031.024.032.023.032.021.034.02.034.019.036.017.035.016.037.014.037.013.038.011.038.01.038.008.039.007.039.005.04.004.039.002.04v.04l-.001.04-.003.039-.004.04-.006.039-.008.039-.009.039-.01.038-.012.038-.014.038-.015.036-.016.037-.018.035-.02.035-.02.034-.022.033-.024.032-.024.031-.026.031-.027.029-.028.028-.029.027-.031.026-.031.024-.032.024-.033.022-.034.02-.035.02-.035.018-.037.016-.036.015-.038.014-.038.012-.038.01-.039.009-.039.008-.039.006-.04.004-.039.003-.04.001h-.04l-.04-.002-.039-.004-.04-.005-.039-.007-.039-.008-.038-.01-.038-.011-.038-.013-.037-.014-.037-.016-.035-.017-.036-.019-.034-.02-.034-.021-.032-.023-.032-.024-.031-.025-.029-.026-.029-.028L21 15H41l-.037.002-.04.003-.04.005-.039.007-.039.008-.039.01-.039.011-.038.013-.038.014-.037.016-.036.017-.036.019-.035.02-.035.021-.033.023-.033.024-.032.025-.03.026-.03.028-.029L11 10.594l2.707 2.707zM10.076 10.002l.056.004.056.008.055.011.054.014.053.017.053.02.051.023.05.026.048.028.047.031.044.034.043.036.041.039.039.041.036.043.034.044.031.047.028.048.026.05.023.051.02.053.017.053.014.054.011.055.008.056.004.056L21 21l-.002.056-.004.056-.008.056-.011.055-.014.054-.017.053-.02.053-.023.051-.026.05-.028.048-.031.047-.034.044-.036.043-.039.041-1.176 1.176-.087.085-.094.088-.096.084-.097.081-.099.079-.101.076-.102.073-.103.07-.105.067-.106.064-.107.062-.109.059-.109.056-.111.053-.114.052-.114.058-.116.056-.117.052-.117.052-.119.049-.119.047-.12.035-.122.033-.122.03-.121.033-.119.034-.118.035-.117.036-.116.038-.118.038-.118.035-.117.034-.118.032-.119.031-.119.03-.119.027-.119.025-.118.021-.119.019-.119.015-.119.013-.12.01-.119.008-.12.004-.12.001-.12-.001-.12-.004-.119-.008-.12-.01-.119-.013-.119-.015-.119-.019-.118-.021-.118-.025-.117-.027-.117-.03-.117-.033-.115-.035-.115-.039-.115-.042-.113-.044-.113-.047-.111-.05-.111-.053-.109-.056-.109-.059-.107-.062-.106-.064-.105-.067-.103-.07-.102-.073-.101-.076-.099-.079-.097-.081-.096-.084-.094-.087-.087-.086-.088-.084-.092-.082-.093-.08-.093-.081-.09-.082-.088-.086-.087-.088-.084-.09.084-.082.083-.083.081-.085.088-.086.088-.085.088-.087.085-.083.086-.083.086-.083.088-.082.088-.083.088-.084.088-.085.088-.087.088-.087.089-.085.088-.085.088-.084.088-.085.088-.087.088-.085 0-1.386 1.141-4.083 2.085-9.28 2.071-3.717.018-2.05.014-.036.003-.038.003-.0399 0-.047-.001-.048-.004-.048-.005-.047-.007-.047-.009-.047-.011-.047-.013-.046-.016-.045-.017-.044-.02-.043-.022-.042-.024-.041-.026-.04-.028-.038-.03-.036-.032-.035-.033-1.59-1.59-.05-.051-.053-.046-.052-.049-.05-.049-.048-.05-.046-.053-.04-.056-.037-.058-.032-.061-.028-.062-.024-.064-.049-.105-.052-.012-.051-.01-.052-.007-.051-.004-.053L12 21l.001-.052.006-.053.004-.051.004-.053.003-.051.004-.053.007-.051.01-.051.012-.05.015-.049.017-.049.02-.049.023-.047.025-.046.027-.045.03-.043.032-.04.034-.038.035-.03 1.59-.036.04-.036.042-.034.045-.032.047-.031.048-.029.059-.026.059-.023.058-.021.059-.02.058-.016.067-.018.067-.022.064-.026.063-.031.061-.035.059-.036.057-.041.054-.044.052-.048.048-.052.044-.054.041-.057.037-.06.034-.062.029-.063.025-.065.021-.067.016-.067.012-.068.007L22 24H10l-.068-.002-.068-.007-.067-.012-.067-.016-.065-.021-.063-.025-.062-.029-.06-.034-.057-.037-.054-.041-.053-.043-.049-.044-.053-.043-.057-.039-.058-.035-.061-.031-.062-.027-.063-.023-.066-.019-.067-.013-.068-.01-.068-.004-.068v-.068l.004-.068.01-.068.013-.067.019-.066.023-.064.027-.062.031-.061.036-.058.039-.056.043-.053.047-.05 1.29-1.29.058-.058.062-.058.061-.058.063-.058.063-.056.064-.056.064-.055.065-.053.065-.053.067-.053.066-.052.068-.052.068-.052.068-.052.068-.051.068-.049.068-.049.069-.048.069-.047.07-.046.071-.045.071-.045.072-.043.072-.042.072-.042.073-.043.071-.046.08-.049.089-.04.088.041.087.04.088.049.087.048.897.485.893.487.883.837.082.082.079.074.067.027.068.027.067.026.069.022.07.023.071.019.071.019.072.017.072.017.07.016.071.012.071.011.072.009.072.008.071.006.072.004.071.003.072.001.072-.001.072-.003.072-.004.071-.006.072-.008.071-.009.072-.011.071-.013.071-.015.071-.016.07-.018.07-.02.07-.021.07-.024.069-.024.068-.027.069-.029.067-.029.066-.029.066-.039.066-.038.066-.037.066-.037.066-.037.066-.038.066-.039.065-.039.065-.041.064-.041.064-.042.064-.043.063-.043.062-.045.062-.045.061-.046.061-.047.06-.049.059-.049.059-.05.058-.05.058-.052.057-.052.056-.053.056-.05.057-.049.057-.048.057-.049.057-.052.059-.054.054-.057.049-.057.049-.059.048-.059.046-.083.045-.083.043-.082.041-.081.04-.089.038-.089.038-.088.043-.087.042-.087.041-.087.039-.087.038-.887.886-.186.086-.086.085-.098.081-.09.07-.191.078-.128.066-.122.064-.106.064-.107.062-.107.069-.106.077-.105.076-.106.075-.106.072-.008.071-.009.072-.009.071-.008.072-.006.071-.005.072-.003.071-.003.072-.001.072-.001H13l.079.001zM12 13.121a4.984 3.983 0 0 1-2.678-.939 2.668 2.668 0 0 1-.067 2.363 3.466 3.066 0 0 1-.654 1.343 14.065 14.066 0 0 1 5.656-5.119 3.091 3.091 0 0 1 3.361 5.464c.171.43.702 1.068 1.635 1.697 1.957-.113 5.792-2.357 5.727-1.963.13-.023.141-.09.346-.494.566-.894.53-1.323" fill="#29a370"/></g></svg>
