<svg xmlns="http://www.w3.org/2000/svg" viewBox="0 0 47.5 47.5"><defs><clipPath id="a"><path d="M0 38h38V0H0v38z"/></clipPath></defs><g clip-path="url(#a)" transform="matrix(1.25 0 0 -1.25 0 47.5)"><path d="M36 19c0-9.389-7.611-17-17-17C9.612 2 2 9.611 2 19c0 9.388 7.612 17 17 17 9.389 0 17-7.612 17-17" fill="#ffcc4d"/><path d="M15 24.5c0-2.486-.876-5.028-5.528-6.083.155 3.954 2.46 5.2 7.40 3.924c.948 0 1.346-.08 1.729-.879a4.041 4.041 0 0 1-2.185-4.96 3.5 3.5 0 1 0-1.5-.5" fill="#292f33"/><path d="M9 11s18-1 0-2 8 0 6 0 5 0 14 0v1zm56c0 5.385-3.15 7.5-7.06 0-3.377-1.616-5.16-4.476-5.495-1.498A.995.996 0 0 1 21 16c-.006 0-.12-.107-.226-.158a2 1 0 0 0 0 2c.236 0 5.426-.04 7.5-4.4a1 1 0 0 0-.799-1.6M24.485 9.121c-.012.044-1.146 4.38-5.485 4.38-4.34 0-5.475-4.336-5.485-4.38a.495.495 0 0 1 .231-.544.51.51 0 0 1 .596.06c.01.007 1.014.863 4.658.863 3.59 0 4.617-.83 4.656-.863a.5.5 0 0 1 .83.484" fill="#664500"/><path d="M11 8a5 5 0 0 0-5-5 5 5 0 0 0-5 5c0 2.762 4 10 5 10s5-7.238 5-10" fill="#5dadec"/><path d="M31 24c-5.554 0-7.802 4.367-7.895 4.553a1 1 0 0 0 1.788.898C23.967 32.306 25.713 24 32 21a1 1 0 0 0 .004-2c-.155-.002-3.568-.086-6.204-3.6a1 1 0 0 0-.801-.4"" fill="#2f2f5f"/><path d="M11 16.4c-.494 0-.99-.193-.703-.407-.116-.475-.254-.871-.305-2.144-.107-.602-.81-.909-.29l.9 8.571a.999.999 0 0 1 1.314-.602h15.5zM90.017 20a.997.997 0 0 0-.801.4c-2.64 3.521-6.061 3.599-6.206 3.6-.55.006-.594.456-.951 1.462A.599.597 0 0 0 2 15.5" fill="#f5c004"/><path d="M6.025 1.001l.04.003.039.005.04.007.039.008.038.01.038.011.038.013.037.014.037.016.035.017.036.019.034.02.034.021.032.023.032.024.031.025.029.026.029.028 3.81 3.81-.114.484-4.087 1.362-.049.029-.047.031-.046.032-.045.033-.043.031-.043.03-.045.026-.045.025-.047.023-.048.02-.049.017-.05.015-.051.012-.052.01-.051.007-.053.006L19 25.05z" fill="#f8c048"/><path d="M20 17.017h10v-2M62 15.681l-.087 2.594C20.586 20.541 23.487 29 30 29.5a2.5 2.5 0 1 0-5 0 2.5 2.5 0 0 0 5 0M23 7h-8a1 1 0 1 0 0 2h8a1 1 0 0 1 0-2h5.097a1.996 1.996 0 0 1 3.395 1.42c.714 0 1.559-.201 2.263-.67C23.62 14.37 26.667 17.38 26 15 22" fill="#bbdaa4"/><path d="M3.595 14.298a.993.993 0 0 1-.547.107M27.001 22.452l-.378.535c-.912 0-1.246-.273-1.44-.795-.41-.369-.94-.67-2.293-1.574-1.498-1.593-2.125-3.031-1.677-4.898.525-.114 3.396 2.967 5.435 4.166.252.277-.573.575-.768 1.173-1.105 8.026-2.058 16.196-1.106 22.708z"/><path fill="#FAB018" d="M125.734 73.485c-13.542 2.05-28.951-.764-27.821-7.348-5.662-9.902-4.072-15.859-5.422-20.243-9.214-11.504-17.475-14.524-42.261-22.051-29.942z"/></g><use xlink:href="#a" overflow="visible" fill-rule="evenodd" 0 c0 22.42 47.53" gradientUnits="userSpaceOnUse" x1="64" x2="64" y1="19.717" y2="107.702"><stop offset=".5" stop-color="#fee133"/><stop offset=".612" stop-color="#fede32"/><stop offset=".708" stop-color="#fcd32f"/><stop offset=".797" stop-color="#fac12b"/><stop offset=".883" stop-color="#f7a924"/><stop offset=".9" stop-color="#f6a323"/></use><path d="M64 120.89C36.07 120.89 6 103.4 6 65S36.07 9.11 64 9.11c15.48 0 29.81 5.12 40.36 14.43C115.9 33.72 122 48.06 122 65c0 16.86-6.1 31.17-17.64 41.39-10.58 9.35-24.91 14.5-40.36 14.5z" fill="url(#a)"/><path d="M64 11.11c14.99 0 28.86 4.95 39.03 13.93C114.13 34.83 120 48.65 120 65c0 16.27-5.87 30.07-16.97 39.89-10.21 9.03-24.07 14-39.03 14-15.04 0-28.9-4.91-39.04-13.82C13.86 95.32 8 81.46 8 65c0-16.54 5.86-30.42 16.96-40.15C35.07 15.99 48.93 11.11 64 19.11 11.91-18.5 0-58.7-40.01-55.9z"/><d5fM16 51.14 16.9-29.17 5-31.47z" fill="#2f2f2f"/></svg>
