<svg xmlns="http://www.w3.org/2000/svg" viewBox="0 0 128 128"><path d="M63.79 8.64C1.48 8.64 0 78.5 0 92.33c0 13.83 28.56 25.03 63.79 25.03 35.24 0 63.79-11.21 63.79-25.03 0-13.83-1.47-83.69-63.78-83.89z" fill="#fcc21b"/><path d="M64 103.36c-11.77 0-22.5-5.46-29.42-14.99-.97-1.34-.68-3.22.66-4.17.45-7.21 5.42-16.22 9.84-20.67z"/><path fill="#FCC21B" d="M64.22 92.86c8.38-8.35 18.48-10.58 22.73-8.27 1.31 1.18 2.75 2.32 4.18 3.65 6.01 0 13.59-1.71 14.86-13.23 1.42-4.29.63-9.02-.83-2.79-1.38-.5-4.52.46-7.69.9-1.22.52-2.47-.81-3.65-1.37-1.23-.76-3.79-3.12-3-3.9-5.26-3.58-11.13-4.3-15.55-7.72-.96-1.92-.08-3.74.51-4.84.97-1.2 2.01-1.77 3.37-2.04 6.33-1.44 11.91-8.34 19.51 4.88 2.52 11.04 3.45 17.7 3.34 1.16.47 3.32.74 3.66.55 1.04 0 2.28-.62 2.49-2.04 2.45-2.01 2.08-5.05 2.87-5.92-2.18-.44-4.75-2.06-7.35-3.63-3.02-13.71 2.04-20.84 11.25-25.31 10.39-.89 21.74 6.15 15.65 11.24.39.35 1.13.65 1.76.81 1.85.78 8.34 2.15 12.44 1.92 1.82 0 5.1-2.14 6.07-1.11.54 0 .88.08 1.49.48 1.62 1.25 2.43 3.65 1.87 5.21-.74 1.64-5.01 3.1-7.01 1.63 1.48 3.51 2.5 4.3 3.43-1.52 2.22-1.81 4.36-1.43 6.03-.97 1.79-.75 3.34-.68 5.36.08.23.21.35.55.52.84.6.4 1.14.92 1.81 1.19 2.67.55 1.74.93 2.6 1.14.87-.51 1.23-1.29 1.59-.3.15-.76.28-1.04.24z" fill="#009c00"/><path d="M115.65 67.92c-.31.34-.72.61-1.22.92-.02.06-.04.13-.08.27-.28.38-.67.47-1.18.49-1.53 0-.95-.04-1.05-.09-1.22-.78-.93-1.61-1.27-1.85-2.08-.41-.67-1.11-1.1-1.69-1.91-.3-1.06-.75-2.14-1.28-3.74-.31-1.05.03-2.21-.13-3.23-.93-.47-1.02-.55-2.04-.55-3.47-1.01-2.77-4.33-3.16-5.7-5.19-.88-.36-1.8-.9-2.41-.75l-1.59-15.51-2.59-10.77c-.89-.74-1.32-1.76-2.34-2.06-.02-.17.02-.31.01-.47.05-.07.13-.11.16-.17.24-.27.85-.62 1.26-.41.68.07 1.6.6 2.25.12.63.4 1.21.71 1.72.12.41.66.81.79-.07.15-.1.41-.34.41-.42.57-.32.97-.49 1.46-.6.6.05 1.19.27 1.37.18.26.04.36.03.51.03.09.03.18 0 .23.01.22.07.31.07.81.34.88.75 1.31.91.25 1.66.59 3.05 1.37 2.99 1.13 6.75 1.65 11.34.65 4.19-1.02 5.58-2.36 7.07-2.34 2.67-1.41 5.01-3.25 7-6.49-4.09-2.55-9.1-4.48-10.73-4.95z"/><path d="M.21 53.93l-7.44 1.39a2.668 2.668 0 0 1-3.77.03l-1.92 9.88a5.5 2.5 0 0 1 2.57 0 3.33 4.03 6.03 6.07 0 0 0 1.34-.25h11.79l-.34-.68c-1.04-.71-2.25-1.07-3.16-1.66-3.02-.67-5.7.47-7.49 1.11-8.51 5.72-12.04 15.59-13.46 24.21-1.4 1.24-4.25.68-5.52-.75-1.39-1.61-2.18-4.29-2.46-6.86.94-2.42 1.65-4.14.68-6.47-.75-1.33-1.72-2.65-3.67-4.13-5.76-3.81-13.78-4.88-21.73-3.44-7.87 2.15-14.6 2.9-17.67 1.4-9.97-16.41-30.23-14.26-57.24 0a3 36.27 35.27 55.91 35.92 41.68 6.99 10.67-2.63 33.45-2.67 46.96-5.37 1.39-1.35 2.31-3.15 2.84-5.77 1.74-2.16 3.12-4.88 2.61-6.68.76-1.73 4.24-2.68 6.31-1.93 1.22.71 1.39 2.5.18 3.89-.21 5.61-5.05 12.16-20.85 12.68-19.05 5.8-.62 13.46-2.46 17.21-1.12 3.2 0 7.49 3.74 4.95 9.62-.05.51-.18.89-.44 1.25-.67 3.79 1.06 12.45 7.02 21.53 2.53.77.66 1.32 1.27 2 .07.93 1.57 2.84 3.17 5.38 3.77 1.06.94 2.29 2.1 3.38 1.38 1.03.56 1.99 1.26 2.79 1.75A23.709 26.029 0 0 1 6 47.19 86.02c3.28 0 6.42 1.98 6.49 4.29 0 2.39-2.85 4.69-5.03 5.05l33.67 2.65 6.03 4.33 7.23 8.43" fill="#fff"/><path d="M57.8 67.23c-.28-.05-.32-.04-.5-.02-.62 0-.74-.04-.96-.05-1.65-.05-.18-.07-.3-.18-1.57-.49-3.11-1.15-4.87-2.21-1.18-.67-2.71-1.23-3.58-1.89a17.19 27.1 0 0 1-11.59 17.1l1.41 17.1c.23.08.44.1.66.16-.09.35-.56.56-.69.77zM75.3 93.1c-10.08-1.37-21.69 1.71-37.98 1.9-2.73 0-5.36-.07-7.28-2.75-7.3-16.14-5.55-15.71-5.45-2.37 1.11-4.06 4.28-3.06 8.1 0 5.11 3.04 9.06 7.09 9.05z"/></svg>
