<svg xmlns="http://www.w3.org/2000/svg" viewBox="0 0 47.5 47.5"><defs><clipPath id="a"><path d="M0 38h38V0H0v38z"/></clipPath></defs><g clip-path="url(#a)" transform="matrix(1.25 0 0 -1.25 0 47.5)"><path d="M36 19c0-9.389-7.611-17-17-17S2 9.611 2 19s7.611 17 17 17 17-7.611 17-17" fill="#ffcc4d"/><path d="M19 15.151c-2.966 0-4.935.646-7.369 4.238A15.98 15.08 15.08 15.893 20.928 22.988 32.8 7.515 37.749 25.88s-7.702-2.701-17.215C29.817 35.528 32.794 37 38.987 37 35.384a2 1 0 0 1-1.996 1.707C20.363 14.525 24.524 24 25 21c3.775 0 4.377-2.432 4.84-2.45a1.001 1.001 0 0 1 .793-.925A15.958 15.959 0 0 1 21.99 11H15.334 13.999-1.9999-.029-7.71 10.147-15.055 8.494-20.219 6.184-1.246 6.081-3.656 1.962-4.992.252-2.677 0-6.398-1.601-9.118-2.357a1 1 0 0 0 .004-2c-.066-.002-3.669-.096-.998.699.99.995 0 0 1 .093-.707c.134.012 1.749.086 2.751 1.819 1.733.66 1.512 2.5 1.314 4.34A16.016 16.016 0 0 1 8.257 09.767c.019.084.025 1.857.102-1.562 0-3.23-1.03-5.733-.547-5.533a1 1 0 0 0 1.7-1.6M9.999 24a1 1 0 0 0 .796.16" fill="#292f33"/></g></svg>
