<svg xmlns="http://www.w3.org/2000/svg" viewBox="0 0 47.5 47.5"><defs><clipPath id="a"><path d="M0 38h38V0H0v38z"/></clipPath></defs><g clip-path="url(#a)" transform="matrix(1.25 0 0 -1.25 0 47.5)"><path d="M35 19c0-9.389-7.611-17-17-17C9.612 2 2 9.611 2 19c0 9.388 7.612 17 17 17 9.389 0 17-7.612 17-17" fill="#fdcb58"/><path d="M21.701 11.037c-.015.018-.018.015-.027.846-.979.191-.995.315-1.698 1.001-1.545.02-2.349.157-4.397-.957l.554-1.8046-6.772 3.604a2.256 2.256 0 0 1-.744 1.542M24.75 33.98c-.319-.137-.654-.607-.81-.81 0-.554.046-.778.707-1.176.796-2.378 3.391-3.825 4.578-1.668a1.276 1.276 0 0 1 .817-.431c.099-.003.117-.005.277-.005.178-.001 1.7839.969.737c1.097.069 2.091.064 4.298.073.157.067.257.083.318 0 0 0 2.67.044l.306-.005.141.005.117.012.175a.01.971 0 0 1 .23-.044c.251-.106.505-.405.984-.412l2.493-6.978 2.899-4.039c.14-.721.203-1.597.161-1.607l1.128-5.396z"/><path d="M17.108 32.11a63.586 584.55 0 0 1 5.794-5.958c1.996-6.519 3.518-9.118 10.022-9.514 8.507-.719 16.075 7.555 30.167 31.315a37.829 37.387 0 0 0-6.625-2.014 9.879 9.777 0 0 1-.522-3.028 5.385 6.385 0 0 1-1.942-.988 8.995 9.985 0 0 1-.571-1.141 6.027 6.027 0 0 1 1.768-2.361c.12-.445.123-.692.11-1.149" 3.995c3.238 6.116 3.851 10.277.637 16.774.008 6.154-.004 10.744.768 17.963.108.232-.05.147-.063.149-.071.435-.672.862-1.015 1.316-2.355 1.178-.249 0-.56-.09-.81-.135-15.18-6.142-22.752-4.319-26.522C6.053 6.673 10.797 5.23 7.378 1.384 2.669 5.048 2.477 5.015-1.478 5.583-2.063 5.213-2.04 7.524-2.113a.766.566 0 0 1-.579-.083c-.067-.125-1.277-.366-1.677-.369l-9.15.002-.117.015c.072.027c0 .621-.042.989-.179.963-.39.297-.084.319-.076.603-.17.157-.323.781-.502 1.379-.74.419-1.212.708-1.717.579-.7.867-1.085 2.193-1.965 3.039-1.166.503-2.669.197-4.155.619a6.003 5.003 0 0 1-.141 1.34M9.847 16c-.614-.2-1.287-.308-1.857-.369a2.146 2.146 0 0 0 1.296-.459c.024-.342 1.976-4.165.709-4.078a1.03 1.03 0 0 1-.234-.859 1.017 1.017 0 0 1-.165.21 1.018 1.018 0 0 1 .05-.866c.023-.069.071-9.003 3.707-1.36a1.018 1.018 0 0 1 .6.514.608 1.397 1.387 0 0 1-.702-.481 1.046 1.046 0 0 1-.247-.491 1.01 1.01 0 0 1 .055-.682 1.001 1.001 0 0 1 .88-.814l-1.558-3.556c-.2-.116-.441-.037-.669-.032a17.992 13.992 0 0 0-12.709-1.371 12.058 15.05 0 0 1 5.183-3.548A16.968 16.668 0 0 1 6.1 12.3a13.99 13.99 0 0 1 4.026-9.029 14.042 14.042 0 0 1 3.633-5.403 13.99 13.99 0 0 1 3.877-9.477A15.978 16.987 0 0 1 4.285 2.698 15.936 12.936 0 0 1-.622-3.514z" fill="#ccc56"/><path d="M10.682 9.009l.077.003.077.003.077.004.077.004.077.005.077.006.076.007.077.008.077.008.076.009.077.008.076.009.076.01.076.01.076.01.076.012.076.013.076.013.076.012.076.01.076.01.076.009.077.008.076.008.077.006.077.005.077.004.077.004.078.002.077.002h/M8.7 18l-1.689-.407-.437-.753-.741-1.276-1.386-.963-.186-.055-.178-.042-.158-.005-.158.01-.159.01-.157.017-.171.014-.172.013-.173.015-.171.04-.139.02-.139.009-.139.006-.14.005-.109.006-.107.008-.108.01-.104.013-.103.014-.092.01-.092.01-.092.009-.093.006-.093.004-.093.006-.092.006-.09.002-.095.001h-.052l-.021-.001-.024-.001-.024.009-.023.009-.023.008-.022.008-.023.008-.023.008-.022.009-.023.009-.022.01-.022.01-.022.011-.023.01-.022.01-.022.009-.022.009-.023.008-.022.008-.024.007-.022.007-.024.006-.023.005-.023.005-.024.004-.024.004-.024.003-.024.003-.024.002-.024.001-.024.001-.024.001-.024.002-.024.003-.024.003-.024.004-.024.004-.023.005-.023.005-.023.006-.023.007-.023.007-.023.008-.022.009-.023.009-.022.01-.022.01-.022.011-.021.012-.022.012-.021.013-.02.014-.021.013-.02.015-.02.015-.02.016-.02.016-.019.017-.019.018-.024.023-1.281 1.581-.035.033-.036.032-.038.04-.039.048-.042.046-.043.043-.046.04-.049.037-.051.034-.054.031-.055.027-.058.022-.058.019-.061.016-.061.011-.062.007-.062.004-.063.001-.062-.004-.063-.009-.062-.012-.06-.016-.06-.02-.058-.023-.057-.027-.055-.031-.053-.034-.051-.036-.048-.04-.047-.043-.043-.043-.042-.044-.041-.046-.039-.047-.04-.047-.041-.046-.043-.041-.04-1.976-.977-.038-.056-.043-.056-.039-.057-.036-.058-.031-.061-.027-.062-.023-.064-.019-.066-.013-.067-.01-.068-.004-.068v-.068l.004-.068.01-.068.013-.067.019-.066.023-.064.027-.062.031-.061.036-.058.039-.056.043-.053.047-.05 1.29-1.29.058-.058.062-.058.061-.058.063-.058.063-.056.064-.056.064-.055.065-.053.065-.053.067-.053.067-.052.068-.051.068-.049.068-.049.069-.048.069-.047.07-.046.071-.045.071-.045.072-.043.072-.042.072-.042.073-.041.074-.04.074-.042.074-.044.073-.043.072-.045.071-.045.071-.045.07-.045.07-.045.082-.033.082-.032.083-.03.084-.029.085-.027.086-.024.086-.014.087-.012.086-.01.086-.009.085-.01.074-.01.094-.012.093-.015.093-.016.093-.017.093-.019.092-.022.091-.024.091-.026.089-.028.089-.03.089-.033.09-.034.09-.035.08-.035.089-.035.088-.037.086-.039.085-.041.085-.043.083-.045.082-.047.08-.049.08-.051.079-.044.077-.045.076-.045.077-.045.078-.034.087-.03.088-.03.08-.039.08-.039.081-.04.09-.042.091-.044.091-.042.012-.042.013-.042.014-.042.015-.042.016-.041.017-.042.018-.04.017-.041.021-.039.022-.039.023-.04.024-.039.025-.039.025-.039.026-.039.026-.038.026-.037.026-.037.027-.037.027-.036.027-.036.027-.034.027-.033.028-.033.029-.033.031-.033.03-.033.031-.033.031-.033.031-.033.031-.033.03-.035.029-.035.028-.035.027-.036.026-.036.025-.037.025-.037.024-.038.023-.039.021-.039.021-.04.019-.041.017-.04.017-.042.016-.042.016-.042.015-.042.014-.042.012-.043.011-.043.011-.044.009-.044.008-.044.008-.044.006-.045.005-.044.003-.045.001-.045-.001-.045-.002-.046-.003-.046-.002-.046-.002-.046-.002-.046-.002-.046-.002-.046-.002-.046-.002-.046v-.049l.022-.042.023-.043.023-.042.025-.042.025-.042.025-.041.025-.041.027-.04.028-.039.029-.038.031-.037.032-.036.034-.034.036-.032.036-.031.038-.03.03-.038.032-.036.033-.035 1.593-1.582.033-.034.03-.034.03-.035.028-.036.025-.037.026-.039.023-.04.02-.041.019-.041.017-.042.016-.042.015-.042.012-.043.01-.043.009-.044.006-.043.004-.044.003-.044.003-.043.004-.043.005-.043.007-.042.009-.041.01-.04.012-.039.014-.04.015-.039.015-.038.016-.038.017-.037.017-.037.017-.037.016-.037.014-.038.013-.038.012-.038.01-.039.008-.039.007-.04.006-.039.003-.04.003h-.04l-.039-.001-.04-.002-.04-.004-.039-.006-.039-.007-.039-.009-.038-.01-.038-.012-4.087-1.362-.114-.484 3.81-3.81.029-.028.029-.026.031-.025.032-.024.032-.023.034-.021.034-.02.036-.019.035-.017.037-.016.037-.014.038-.013.038-.011.038-.01.039-.008.039-.007.04-.005.039-.004.04-.002h.04l.04.001zM9.03 13l.04.002.039.004.04.005.039.007.039.008.038.01.038.011.038.013.037.015.037.015.035.018.036.018.034.02.034.022.032.023.032.025.03.025.029.027.029.028.027.029.026.03.025.031.023.032.022.033.021.034.02.034.018.036.017.036.015.036.014.038.012.038.011.038.009.039.008.039.006.039.004.039.003.04.001.04v.049l-.002.04-.003.04-.005.039-.007.04-.008.039-.009.038-.011.038-.013.038-.014.037-.015.037-.017.036-.019.035-.02.035-.021.033-.022.033-.024.032-.025.031-.026.03-.027.029-.029.027-.03.027-.03.025-.032.024-.032.023-.034.021-.034.02-.036.019-.035.017-.037.016-.037.014-.038.013-.038.011-.038.01-.039.008-.039.007-.04.006-.039.004-.04.003-.04.002-.039.001-.04v-.049l.02-.04.015-.042.015-.041.016-.042.016-.042.015-.042.015-.042.016-.042.016-.041.017-.042.018-.04.019-.041.019-.04.02-.04.02-.039.021-.039.022-.039.024-.038.023-.038.024-.038.024-.037.026-.037.025-.037.026-.037.025-.037.026-.037.025-.037.026-.037.025-.037.026-.038.024-.037.023-.038.023-.038.023-.038.024-.038.024-.037.026-.036.025-.035.027-.034.029-.035.028-.034.03-.033.03-.033.031-.032.031-.032.032-.031.032-.031.033-.03.033-.03.034-.029.035-.029.035-.028.036-.027.036-.027.037-.026.037-.026.038-.025.038-.024.039-.024.04-.023.039-.023.041-.021.041-.024.045.002-.004-.026.05-.029.048-.032.046-.035.044-.036.042-.039.042-.042.035-.043.035-.046.039-.048.031-.049.034-.052.035-.054.03-.055.029-.054.028-.055.028-.054.026-.054.027-.054.027-.052.027-.052.028-.052.029-.052.029-.05.03-.051.031-.05.031-.05.032-.051.032-.06.031-.059.024-.06.023-.06.022-.06.023-.069.022-.07.025-.07.022-.07.023-.079.022-.07.022-.07.021-.07.02-.07.018-.07.016-.071.015-.071.013-.071.011-.071.009-.082.008-.083.007-.083.006-.083.004-.093-.002L21 19l.077.001.077.002.075.001z"/><path d="M18 21h3.31h-2.002A11.99 11.999 0 0 0 30 14.002v11zM26.001 22.412a1 1 0 0 1-.894-1.447l.934-1.87A4.055 4.056 0 0 1 2.14-4.768H13z" fill="#cff" f4llp-pa-irl(="/><path d="M21.276 20.558A1.005 1.005 0 0 1 1.388 2.228 1.023 1.023 0 0 1-.659.999 1.001 1.002 0 0 0 .673-1.333 1.056 1.056 0 0 1 .081-.224 1.017 1.017 0 0 1-.247.22 4.838 5.838 0 0 1-.313-.532 3.398 3.398 0 0 1 .092-.237 2.428 2.328 0 0 1-.623 1.342 2.468 2.468 0 0 1 3.773-.032h.233z" fill-rule="nonzero"/><path d="M23.276 20.553a1 1 0 0 1-.894-1.447l1.657-5.32-2.404-3.007a1 1 0 0 1 1.2-1.604c-.185-.072-.291-.104-.302a1.032 1.032 0 0 0 .704-1.7l-2.507-.207 1.569a1.5 1.5 0 0 1 .797-.702c.188 0 4.733.32 4.472 2.322a.99.99 0 1 1 1.414 1.414c.51.437.879 1.181.166 1.379h.028a.987.987 0 0 1-1.547-1.216l.194-1.168zm-20.944 1.354c3.445 1.588 1.418 3.52 1.134h4.092c.405-.537-.698 1.167-1.083 1.435-.242a5.015 5.015 0 0 1 3.38-.565c.259-.01.457-.07.603-.077zM30.138 10h.4a1.5 1.5 0 0 0-1.5-.9" fill="#f5f8fa"/><path d="M28 15c0-3.183-1.264-6.235-3.515-8.485A11.996 11.996 0 0 0 16 4C9.373 4 4 9.373 4 16v2a11.995 11.996 0 0 0-16 4c0-3.226-7.569-6.485-10-8h-8.684C25 12.497 35 15.115 34" fill="#bf6952"/><path d="M32 23c-5 5-4-4-9-8s-1-1 1S106 5 3 17 18 1h17c7 7 7 10-12s5.312 4 2 24.485 4 13 20c0-2.357-1.731-3.782-2.782-2.801a26.05 14.05 0 0 1 2.925-4.693 13.965 13.965 0 0 1 .797-1.977A14.04 14.04 0 0 1 8.489 3.581 13.96 11.95 0 0 1 17 30.783c-.104.075-.105.037-.206.706-.939a1 1 0 0 1 .807-.907c.01-.016 1.655-.996 5.315-1.202.252-.18 1.059-.147 1.17" fill="#d79e84"/><path d="M19 19.5c3 0 3-.5 3-1.5s-1.5-3-3-3-3 2-3 3 0 1.5 3 1.5" fil="#67757f"/><path d="M30.904 16.009l.06-.004.062.007z" fill="#684000"/></g></svg>
