<svg xmlns="http://www.w3.org/2000/svg" viewBox="0 0 128 128"><path d="M127.22 93.42c0 13.86-28.29 25.1-63.22 25.1-34.92 0-63.23-11.24-63.23-25.1C.77 79.55 2.24 9.48 64 9.48c61.77 0 63.22 70.06 63.22 83.94" fill="#fcc21b"/><path d="M82.42 114.44c-2.39 0-4.93 3.44-4.25 13.33s.64 3.25-.55 3.33c-1.72.39-2.68-.24-3.18-1.51-.53-1.4.12-2.67 1.5-3.55l7.12 4.13c-.57.45-1.23.83-1.85.72a67.62 656.27 0 0 0-6.21-.6 10.039 10.039 0 0 1-3.73-2.75 10.032 10.032 0 0 1-7.29 6.73c-5.03 17.27-17.85 25.82-29.42 23.52-23.36 41.2 0 53.5-8.23 48.29-59.02 0-13.95-14.83-21.76-22.36-6.07-5.63 1.43-10.77 7.73-21.83 8.15-3.03 17.87.86 24.49 10.33 3.05 9.67-1.45 19.35-11.03 13.5z"/><path fill="#FAAE21" d="M98.75 69.11114.91c-8.86-1.91-13.76 14.82-23.1 22.83-7.04 5.15 11.01 15.3 14.57 24.42l-103.96 5.95z" fill="#8b5e3c"/><linearGradient id="g" gradientUnits="userSpaceOnUse" x1="14.615" x2="46.992" y1="115.8" y2="64.922"><stop offset=".008" stop-color="#f6b046"/><stop offset=".518" stop-color="#f5a924"/><stop offset=".77" stop-color="#d55f2f"/><stop offset=".838" stop-color="#f2a420"/><stop offset=".71" stop-color="#f5d53e"/><stop offset=".89" stop-color="#fac12b"/><stop offset=".883" stop-color="#f7a924"/><stop offset=".9" stop-color="#f6a323"/><stop offset=".913" stop-color="#fee133"/><stop offset=".844" stop-color="#fdd835"/><stop offset=".426" stop-color="#a9796e"/><stop offset="1" stop-color="#616161"/></linearGradient><path d="M10.15 35.88z" fill="url(#g)"/><path d="M106.28 75.81c-1.76-10.18-1.67-21.08-4.06-43.46 1.36-6.03 1.77-9.27 1.01-15.03 12-38.62 25.71-63.55 35.82-.55 31.9.87 22.42 10.43 3.44 8.76-1.47 19.4-6.37 22.11z"/><path fill="#FAB020" d="M33.55 81.02c-10.87 4.7-23.92-1.4-32.23-16.26-4.74-10.29 1.73-22.71 12.47-28.4 21.38-4.36 19.55 1.94 30.64 10.17 4.09 9.48-1.42 20.46-12.41 30.69z" fill="#f9a922"/><path d="M74.88 61.98c-16.54 4.1-34.8-1.7-40.82-12.98-6.15-13.57 1.74-25.37 15.47-29.52 13.38-5.64 28.63 1.8 31.81 16.76 4.11 12.02-2.78 21.07-7.53 20.63z" fill="#f9a922"/><path d="M74.88 61.98c-14.34 5.06-25.94-1.87-51.8-13.52-5.35-12.33 1.28-25.44 10.49-26.46 12.78-4.34 26.5 1.04 30.6 13.59 9.09 8.36-2.94 17.06-22.6 20.89z"/><path fill="#2F2F2F" d="M50.96 91.32h1.25v-1.98h-1.34zM61.97 15.75h8.38v9.75h-8.42zM67.73 95.98v7.5v-6.2zM26.61 67.04h2.62v2.67h-2.62z"/><path d="M125.08 95.23c-.67 0-1.35-.24-1.91-.5a2.51 2.51 0 0 1 .96-4.52c2.15-.53 4.08-2.12 5.58-2.81a2.662 2.662 0 0 1 2.5 1.05c-.06.81-.16 1.32-.04 1.99l.01.06c-.54 1.27-2.27.72-3.38l-6.28-1.3c-.48-.08-.96-.14-1.25-.15-.87.09-1.85.11-1.91.71-1.27.63-2.42.97-3.25 0-.98-.04-.88-.08-1.5-.05-.7-.13-1.38-.23-1.69-.74-.17-.04-.42-.07-.63-.06-.09-.06-.19-.13-.59.22l-.1.01s-.07-.01c-.08-.01-.09-.02-.1-.02sm-4 8.51v2.73a2 3 0 0 1 2.92 2.42c-.09.12-1.08 3.32-4.75 3.29-4.9.39-7.67.32-12.28.43-13.04.73-.67 1.22-1.29 1.74-2.25.3-.12.68-.23-1.2-.38-1.39-1.69-2.12-2.89-1.84-1.4-.65-3.37-1.31-5.91-2.27C9.45 28.12 54.71 9.45 64.87-8.06 6.43-7.62 8.75-13.61 8.52-.35-.09-.78-.43-1.29-.49-1.96-1.31-3.22.61-3.99 3.33-.33.62-.86.78-1.31 1.01-.42.34-.57.66-.98 1.13-1.45.32-2.14.76-3.25-.68-1.89-.84-4.16-2.67-4.62-3.74-.69-1.23-.38-2.64-.23-3.23.3-3.83 1.98-6.31 9.8-9.41 7.82-4.65 5.61-10.98 8.81-18.65 6.55-9.78-6.54-10.51-13.29-6.94 21.23-1.44 3.22-3.71 8.03-8.98 9.32-4.45 0-7.39-3.73-7.84-7.76.86-4.24 3.02-5.06 5.98-5.05 4.77 0 7.86 4.27 7.82 7.59M7.49 59.08c-.39.33-5.03.05-9.46-.43-.66-.05-1.39-.13-2.38-.04-.36 0-.79.18-1.25.41C1.78 79.46.51 88.75.5 53c0-.15 1.21-.39 2.67-1.64 2.54l-.08.01z" fill="#242424"/><path d="M87.17 34.76c.31 1.81-.33 4.25-2.47 5.92a2.203 2.203 0 0 1-1.95-2.67c.08-.26 6.19-9.83 12.17-6.57 8.51 0 11.17 4.69 11.58 12.18-.82 1.14-.78 3.44-.33 3.85.89.19.26 3.54 4.13 8.54 4.25 5.28 0 8.44-3.95 8.49-6.09s-1.43-6.08-1.25-7.73z"/><path d="M51.32 55.58c.11 2.76.44 5.36.11 5.94 1.07 12.09 12.19 19.76 19.92 13.77.89 9.6 2.92 16.75 5.46 21.73 9.23v.16.19-.24.28-.21.41c-1.99 6.03-14.58 13.98-15.88 7.32-1.67 1.29-3.48 2.17-4.62 3.3-8.16 5.18-6.73 13.5 -1.39 20.47z"/><path fill="#78 5C5" d="M110.81 87.71c-13.81 4.37-27.36-1.9-31.63-14.28-4.86-10.83 1.63-22.74 11.53-26.74 11.91-4.89 24.97 1.73 28.86 12.34 3.74 10.74-1.69 22-16 23.47-22.99 25.73-7.94 65.27 3.27 56.61z" fill="#dd79e38"/><ellipse cx="64.1" cy="75.05" rx="43.0" ry="38.44" fill="#e06055"/><path d="M45.72 11.62c7.76 0 16.71-3.41 19.03-10.39l5.82 1.32c-2.75 4.46-3.62 9.82-5.98 11.45l-8.11 2.01s12.76 3.15 19.15 3.44.56 1.38 1.6 2.82 1.17s5.64-.64 14.24-2.69c9.78-5.67 20.82-8.6 24.72-9.37 1.45-.39 2.93.52 2.74 1.54.22 3.66-4.01 5.04-12.15 5.92z" fill="#04a34"/><path d="M96.91 79.75c-1.88 0-5.21-.47-6.32-1.97-6.91-10.32-8.51-16.86-13.4-26.39-20.05-21.11-22-.02-13.91 0-24.67-2.09-52.41-.27-6.37 6.75-7.91 92.45.6 17.94 1.68 28.16.64 23.98-7.61 4.5-4.66.07-7.52-4.22-7.04-8.57zm21.92 26.69l-9.96-10.62c-.84-.46-1.5.76-2.25-1.6-1.66-2.52-3.54-3.88-5.86-7.49-1.17-1.74-3.37-2.83-4.84-3.9-3.33-1.84-9.11-.2-12.09z"/><path fill="#2F2F2F" d="M51.25 40.69c-.67 1.67-1.34 3.15-1.88 4.07-.19 1.19.19 2.35 1.83 2.75.72 1.7 2.24 3.9 3.23 4.39.72 1.28 1.26 2.84.86 5.27-.75 1.47-3.62 2.68-5.12 2.51-2.52 0-5.33-.74-7.85-2.3-2.53-1.89-2.71-4.5-3.31-7.94 0-.01.01-.05.01-.08.01-.08.012-.1.08-.27.18-1.41.49-1.71.21-.37.07-.96.19-1.26.18z" fill="#79afad"/><path d="M72.25 12.66c.98.2 1.76.38 2.75.11 2.56.78 5.19-1.58 5.57-10.24 7.04-8.38 1.84-20.46 6.51-27.71 7.78-.58.31-1.81.16-2.3.11-.56.36-1.14.57-1.69.75z" fill="#e4aba7"/><path fill="#2F2F2F" d="M62.22 85.51c-9.75-16.18-38.6 -5.7-46.66 35.39-3.83 3.92-8.53 6.77-15.71 7.29-6.13 4.21-10.25 10.09-9.74 2.48-4.33 0-7.39-2.72-9.38-4.59.27-1.46 5.24 3.83 7.03 5.55 2.09 1.25 5.04 2.08 5.94 2.37 1.42.67 3.31 1.03 4.68 2.01 4.71.66 9.21 1.92 14.81 1.61 5.36-.45 11.09-1.33 14.02-1.73 1.03 0 1.19-.01 1.65-.06.21-.07.4-.15-.68-.12-.17-.25-.35-.45-.66-.66l-4.68-13.03a2.694 2.742 0 0 1-.04-.18c-1.5-.53-3.28-1.33-4.28-2.48-.63-2.61-1.21-5.79-3.37-7.74-.36-1.39.63-2.3 2.28-2.75.88-.14 1.75.74 2.63 2.22.07.05 2.43.65 3.65-.22.54.33 1.02 1.03 1.51.78.65 1.65 1.11 2.17 1.7 1.61 6.58-.9 13.27-13.61 15.73z" fill="url(#b)"/><path d="M32.08 87.69c-2.96 5.14-5.51 10.32-7.71 11.55z" fill="#f89c26"/><path d="M64.24 74.62c-1.62 0-3.21-.81-4.22-2.07-1.3-2.71-2.21-4.55-1.41-5.24 0-7.46-2.99-8.03-5.5-2.36-2.41-4.52-3.92-7.3-3.94a3.228 3.127 0 0 1-.2-3.2c-.99-9.51-2.46-18.71-3.35-9.6-.67-1.5-.62-2.8-.44-4.46.92-6.44-2.68-9.18-7-1.54-12.13-4-1.04-3.64 2.78-6.83 5.61-.55.93-1.04 1.43-1.59 1.17-.02 0-.21.01-.23.01-1.85.03-2.72-1.12-7.27-.38-1.21.51-1.74 2.34-.43 3.82.22 1.53.93 3.04 2.12 4.76 2 1 3.69 2 18.78 2.13 15.15 0 25.39-10.7 38.36-24.28 5.24-4.42 18.47-14.55 9.37-28.46z"/><path fill="#2F2F2F" d="M22.27 48.62a2.71 2.71 0 0 1 .13-3.69 3.047 3.047 0 0 1 4.29 1.38l11.79 8.82h1.49v-1.3h-.26c-.08 0-.18.95-.15 1.3-.06 2.85.09 5.14 1.05 16.83 10.39 18.89 12.01.19.32.38.72.61 1.31.19 1.29.62 3.23.86 3.71-.3 2.88-1.52 4.16-1.88 7-.52 3.12-.74 3.29.34 4.71 2.75.72.65 1.66 1.11 2.73.5.86.98 1.34 1.14 2.34.33.59.87 1.37 1.23 2 .29.78.67 1.37 1.28 2.07.39.57.99 2.16-.9 2.42-1.24 1.16-2.63 1.71-4.53 2.24-7.48 2.51-13.71 7.8-18.57 1.77 2.78 4.89 4.73 7.01 5.21" fill="#2f2f2f"/><path d="M98 27.74c-12.72 0-22.5-.93-35.02-4l-10.76 2.05c-22.4 11.69-30.54 39.1-26.36 41.49-8.44 17.26-25.05 43.3-47.49 35.24-1.18 23.8-1.88 35.45-5.62 5.4-.51 10.55 1.7 18.16 3.62 4.83 4.59 6.71 10.33 6.34 16.64z"/><path fill="#2F2F2F" d="M52.82 47.53c-4.54-1.75-6.18-7.83-9.02-11.58 1.04-6.68 7.34-10.54 12.26-5.48 5.76 2.31 8.34 10.39 6.94 17.56z"/><path fill="#FAB020" d="M30.96 89.5c-4.04 1.51-9.34-.66-10.965-4.91-2.46-4.82.68-10.62 5.88-12.34 5.03-1.85 10.84.77 12.74 5.28 1.88 4.59-.74 11.41-1.97 13.9z"/><path fill="#F89A27" d="M21.37 67.73c-3.99 1.49-9.24-.56-10.83-4.39-1.59-4.32.61-9.05 5.73-11.54 4.23-1.59 9.84.76 11.41 5.16 1.63 4.45-.7 9.78-5.03 11.31z"/><path fill="#F9A524" d="M97.76 66.5c-4.28 1.53-9-.63-10.55-4.85-1.55-4.22.65-8.89 4.92-10.44 4.33-1.53 9.68.66 10.24 5.85 1.56 4.29-.95 8.89-4.34 11.52z"/><path fill="#F9A324" d="M97.56 68.82c-4.54 1.63-9.36-.67-11.22-5.54-1.61-4.68.77-10.67 5.86-12.2 5.07-1.82 8.5.67 11.14 5.12 11.03 4.57-.73 11.34-5.76 11.34z"/><path fill="#FAAC22" d="M97.29 64.86c-4.68 1.8-8.88-.89-10.29-5.8-1.71-4.67.77-8.92 3.98-10.86 4.87-1.75 9.88.6 10.64 5.81 11.06 4.41-1.59 9.85-5.06 11.58-5.11 12.21-7.46 1.49-10.2-1.3-17.17 3.97-6.67 8.58-11.16 10.93-16.44.85-.57 1.56-.83 1.66-1.25.94-.28 2.1-1.94 2.63-1.56.84-1.01 2-2.5 2.42-2.92.41-.42.97-1.04 1.33-1.99.1-.55.18-1.02.16-1.69.08-.93.18-1.3.43-1.86 1.16-2.25.5-4.81.21-10.44.74-3.99-1.53-12-1.38 3.72.07.16.15.31.22.36 0 .12.01.32.05.41.05.74.18 17.05 36.4 28.59 4.53 1.87 3.64 7.31 5.07 13.77l.01.07 1.45c.24 0 .46-.04 5.05-.13s16.73-2.46 35.58-27.06c-2.44-7.5-1.24-20.77 6.21-20.49z" fill="#ed6c30"/><path d="M39.57 67.53l-.08-4.78C86.86 74.33 92.32 64.95 89.67s.0-.38.49-.42.51c-.79 1.03-3.08 1.68-4.28 1.75-1.66-.19-2.43-1.63-2.43-2.99 0-3.43-2.58-5.73-5.34-4.08zm-88.56c-.87 0-.9-.04-1.09-.15-6.41-3.13-10.77-8.19-13.87-13.84-.86-2.95-1.71-5.4-1.71-7.62 1.75-8.03 7.05-14.07 10.3-15.91.01-2.06.09-4.43-.09-6.38-.22-.68-.01-1.6-.08-2.12-.08-.55.09-1.19.27-1.69.11s-1.35-.33-2.03-1.14c-.3-.82-.7-1.27-.54-1.96-.85-.34-1.64-.73-2.13-1.44-.11-1.27.17-2.33.73-3.34.85-.63 1.47-1.29 2.37-1.57 1.42-.49 2.54-.79 3.61-.94 6.64-1.57 14.11 1.05 18.33 3.9 10.55 7.35 24.49 14.49 32.54 21.98 16.73 0 22.31-2.1 32.78-28.11-.21-1.47-1.9-3.24-2.87-3.78-6.93-2.21-27.2 5.47-24.57.02-.52.03-.75.14-1.1.31-.47.46-.99.73-1.25.41-1.56-.52-2.67-.67-5.76-.78-16.14 1.94-17.46 3.46-6.72-6.72-10.07-14.2-12.76-15.04-9.64-5.65-8.68-7.94-14.46-4.11-21.03.01-.02.22-.01.28.01.12-.01.18-.01.62-.07.48.06.85.03 1.06.07 1.51.58 1.48 1.33 1.66 1.91 3.41 2.11 7 .48 3.53 2.25 1.91.7 3.18 2.11 4.84 2.71 2.97 5.69 9.09 5.61 9.38-5.43 1.4-9.29 1.8-14.92.11-.29.05-.44.09-.69.01z" fill="#bca"/><path d="M97.62 69.86c.01 1.7.76 3.72.44 5.16-.24 1.79-1.3 5.47-2.22 8.68-8.49 11.68-11.13 12.46-21.19 29.73-29.34 1.41-2.83 2.15-5.31.94-7.26-4.26-8.56-8.35-14.6-19.5-4.25-2.98-1.77-3.91-5.79-2.04-10.73 1.37-1.94 3.63-2.26 5.22-3.06 1.8-.83 2.94-.46 4.9-.55 1.9-.35 2.95.17 3.42 1.42.63 1.29-.27 2.77-1.61 2.72-.07.01-5.18.05-11.12.23C80.29 92.96-7.88 79.34 4.24 78.27 40.12 89.21c6.27-8.75 10.97-20.61 15.2-27.75.01-3.16-1.57-10.48-4.36-10.93-6.04 0-7 .08 7.78 2.75 17.04 17.38 19.59-4.46 2.6-3.37 7.27-8.27 7.19-12.19-.49-3.75-2.17-5.31-6.99-4.94-8.1 0-1.99.8-3.59 1.1-4.07 8.96z" fill="url(#a)"/><path d="M30.22 124.31c-27.99 7.65-37.94-1.19-34.81-12.15-6.31 2.28-40.8 9.5-40.6 14.99-4.13 3.87 2.51 5.88 6.54 6.37 3.45-.16 5.72-1.1 7.26-3.32z" fill="#fff"/><path fill="#2F2F2F" d="M52.45 53.79c-3.34 0-6.76-3.79-6.76-8.09zM65.81 29.33c-1.09 5.07-5.1 8.6-9.86 8.5z" fill="#f79728"/><path d="M64.52 67.83c-1.84 0-5.03-1.02-5.56-5.31s.44-3.9 2.31-3.84z" fill="#e5ab4c"/><path fill="#2f2f2f" d="M84.49 105.55c-2.38 4.7-4.38 8.63-7.28 13.65-7.38 1.88-1.11 3.79-3.23 5.78-3.77 1.99-.14 4.19-1.4 5.99-3.03 2.81-1.14 5.61-1.98 7.63-2.32 3.42 1.59.55 5.66-2.71 7.32-5.21 1.62-1.45 5.28-2.13 5.85-3.09 1.17-.78 2.21-1.35 3.4-1.03 4.22 0 5.72 2.63 6.82 8.29-.25 6.86-4.45 9.75-7.37 10.49-4.62.96-9.14-2.29-10.52-10.04-.04-.18-.08-.26-.12-1.56-.58-3.12-1.03-6.19-.82-3.55.24-7.49 3.22-9.24 5.74-2.74 2.74-4.11 6.26-4.62 8.3-.18 1.44-.75 2.57-.68 3.79.54.64 1.76 1.33 3.5 1.69 5.26-.34 1.2-1.58 1.74-2.77.44-1.29-.77-2.17-1.81-2.19-1.35-.54-2.68.36-3.71.72-.92.6-1.46 1.14-2 2.05-2.46 3.08-4.88 2.64-6.78z" fill="#242424"/></svg>
