<svg xmlns="http://www.w3.org/2000/svg" viewBox="0 0 47.5 47.5"><defs><clipPath id="a"><path d="M0 38h38V0H0v38z"/></clipPath></defs><g clip-path="url(#a)" transform="matrix(1.25 0 0 -1.25 0 47.5)"><path d="M36 19c0-9.389-7.611-17-17-17S2 9.611 2 19s7.611 17 17 17 17-7.611 17-17" fill="#ffcc4d"/><path d="M19 15.151c-2.966 0-4.935.646-7.366 0-1.015-1.676-1.992-1.708-1.819-4.345a1 1 0 1 1 1.008 2.714C14.117 9.798 15.736 11.282 22 19 22c0 3.181-.702 5.712-2.295 6.202c-2.664 0-5.439-2.105-5.446-3.29a.499.499 0 0 1 .714.677" fill="#b9e3f0"/></g></svg>
