<svg xmlns="http://www.w3.org/2000/svg" viewBox="0 0 128 128"><path d="M117.68 61.88c-.67-3.29-1.74-5.57-1.91-7.97 1.17-14.97 11.63-15.76 25.33-3.27 9.15 1.07 21.41 7.99 24.65 6.35 3.15 10.67-1.28 17.38-6.04 19.82-2.91 2.87-8 .2-.28-.28-.01.06.01c-.89-.15-18.3-5.89-19.64-.91-5.73-.11-10.05 1.19-17.01 4.94-1.26 3.34-4.23 6.11-4.82 1.02-.07.17-.11.27-.2.36-.22.75-.48 1.1-.8.45-.26.7-.54 1.17-.71 2.52-.54 1.98 1.5 3.07 3.43v.02l-.03.01c-.45.01-.9.09-1.51.02-2.72.08-4.83-2.06-9.48-7.09-1.19-2.67-1.91-4.99 2.72-7.46 1.84-1.07.36-2.17.78-3.04-.96-1.31-.49-2.71-.72-4.22-.24-1.68.33-3.74 1.23-5.62 3.44-7.45 10.32-7.74 13.17-8.43 8.19-5.47 1.97-15.54-.5-13.21-4.98-6-9.09-12.25-6.57-20.87-6.03-8.14-7.74-16.2-15.32-18.44s9.78-.14.14.08c.19.21.38.25.51.2 1.28.39 3.02.55 4.64 1.42-.58.58-1.35 1.36-2.09 1.64-1.01 1.52-2.18 3.1-3.85 2.8z"/></svg></svg>
