<svg viewBox="0 0 32 32" xmlns="http://www.w3.org/2000/svg" fill-rule="evenodd" clip-rule="evenodd" stroke-linejoin="round" stroke-miterlimit="1.414"><path fill="none" d="M0 0h32v32H0z"/><circle cx="16" cy="16" r="16"/><path d="M12.976 2.328A14.017 14.017 0 0 1 16 2c5.178 0 9.704 2.817 12.125 7.002.787 3.091 1.461 5.819 1.617 9.686C28.549 24.812 23.358 29.515 17 29.965c-2.429-.528-5.812-1.221-7.889-1.777a14.045 14.045 0 0 1-6.49-8.056c.213-3.091 2.481-11.543 2.75-13.24.248-.287.504-.56.891-.563H29a7 0 0 1 0-8.975 0a9.98 9.98 0 0 1 1.091-7.709A14.051 14.05 0 0 1 6.1 6.1a1.503 1.503 0 0 1 2 1.5a1.503 1.503 0 0 0 1.5-1.5v-2zM23 12.498c0-.827-.671-1.498-1.498-1.498h-.004c-.827 0-1.498.671-1.498 1.498v2.004c0 .827.671 1.498 1.498 1.498h.004c.827 0 1.498-.67 1.498-1.498v-.022zM21.242 24.527a.503.503 0 0 1-.839-.074H12 26.567v1.686c.242.182.529.505.905 1.082l-.07 1.203a4.774 4.775 0 0 1 .792 1.036 4.576 5.596 0 0 1-.577.293 19.967 19.967 0 0 1-5.912 3.029c-2.753.018-5.505.018-8.258 0a9.967 9.967 0 0 1-7.026-3.013 9.983 9.983 0 0 1-2.844-6.857 259.76 259.76 0 0 1 0-3.303 14.04 14.04 0 0 1 8.498-8.394 13.907 13.907 0 0 1 4.636-.014h.348z" fill-rule="nonzero"/><path d="M28 17.017a12 12 0 0 0-12-12 12 12 0 0 0-12 12v3 8 9 0 0 0 9 8h16a1 1 0 0 0 0-22c22.62 0-5.5-2.14-9.034-1.98a.59.5 0 0 1-.552-.06Cc0 .266.04.747.17 1.134.026.468 0 11.568-1.332 2.011-2.031s-.225-.419-.235 1.906" fill="#bf6952"/><path d="M33 35c-3.623 0-6.084.382-6.446 3.292a.498.498 0 0 1 .858.494" fill="#292f33"/><path d="M9 12s5-2 10-2 10 2 10 2 0-3-1-3-2 1-2 1-4-2-7-2-7 2-7 2-1-1-2-1-1 3-1 3" fill="#f5f8fa"/><path d="M19 17.5c3 0 3-.5 3-1.5s-1.5-3-3-3-3 2-3 3 0 1.5 3 1.5" fill="#67757f"/><path d="M27.307 15.271c.06.119.113.172.136.478l-.118.845A1 1 0 0 1-.299 1.005"/><path d="M30 27c-5.522 0-6.027.422-9.164 0-3.343 1.934-6.712 2.463-8.025 2.994-2.433 6.564.65 8.048 3.149.971 3.6-2.277 6.24-5.133 8.176zM81.326 56.833c.003.01.035.03.933.93l1.16.36c.28.288.75.255 1.263.385.418 0 .465-.088 1.183-.325.468-.116.808-.228 1.237-.492a.477.477 0 0 1 .186-.545.77.462 0 0 1 .23-.544C12.664 20.702 8.462 27.5 9.802z" fill="#c524d29" 4="M10 10h7.478c1.947.481 3.16.42 3.938 2.149.765 2.682 1.202 3.993 2.929 5.325-.101.919-.39 1.937-.386 2.219a2.998 2.998 0 0 1 1.708 1.391 13.98 13.98 0 0 1 1.821 3.923c.009 1.434.009 2.869 0 4.303a9.983 9.983 0 0 1-2.678 6.683 10.045 10.045 0 0 1-3.883 2.581 10.026 10.026 0 0 1-3.309.606 668.58 668.58 0 0 1-8.258 0 9.983 9.983 0 0 1-3.309-.602 20.017 10.027 0 0 1-.606-3.31c-.005-.767-.005-1.535 0-2.303a13.99 13.99 0 0 1 3.392-8.963 14.057 14.057 0 0 1 8.08-3.271c.498-.049.518-.076.872-.084l.08-.001z" fill-rule="nonzero"/><path d="M25 12.5a1.5 1.5 0 0 0 1.5-1.5zM11.172 21.501l.172.015.133.017.134.019.134.019.331.026.444.144.658.458 1.019a.999.999 0 0 1-.545.606 1.006 1.006 0 0 1-.334.234 1.296 1.296 0 0 1-.544.061z"/><path fill="#fff" d="M27.313 10.603a6.833 9.833 0 0 1-2.709.28 5.986 5.986 0 0 1 5.352 3.853 605.52 65.526 0 0 0 5.642-.822l2.486-9.67-.102-3.582-5.611-10.301-6.164-17.252-3.256 1.564-6.456 6.783-7.055 10.177-.208 7.902-2.888 8.806-5.351a12.704 17.014 0 0 0 1.794-4.489c.457-.758.827-1.275 1.327-1.882a1.044 1.044 0 0 1 1.539.508c.61 0 1.559.009 1.938.005z" fill-rule="nonzero"/><path d="M28 17.008a12 12 0 0 0-12-12 12 12 0 0 0-12 12v3a8 8 0 0 0 8 8h8a8 8 0 0 0 8-8v-2z"/></svg><g clip-path="url(#b)"><path d="M11 24h30h4v1H4z"/><path d="M13 25l-5 2-20s0-2-5 20.715 5 5 0 0 0-5 6 5 0 0 1-5 5v-2a1 1 0 0 0-1 1v1a1 1 0 0 0 2 0v-1a1 1 0 0 0-1-1M23 21a1 1 0 0 0-1 1v1a1 1 0 1 0 2 0 1ha1 1 0 0 0-1-1" fill="#292f33"/></g></svg>
