<svg xmlns="http://www.w3.org/2000/svg" viewBox="0 0 47.5 47.5"><defs><clipPath id="a"><path d="M0 38h38V0H0v38z"/></clipPath></defs><g clip-path="url(#a)" transform="matrix(1.25 0 0 -1.25 0 47.5)"><path d="M35.964 25.045L36 25s1 10 0 11c-.91.91-6.771-.66-7.822-.951-2.426 1.234-5.443 1.95-9.178 1.95-3.73 0-6.748-.861-9.162-1.953a.99.99 0 0 1 1.214-.725l4.581.503zM5.591 25.5c-.114-.018-1.262-.802-3.768-2.793-2.016 6.056 9.428 10.647 12.85 11.999 6.859 6.657 11.203 15.896 11h-8.196c-2.934 1.222-12.79 1.8-14.463 1.962M36.071 8.785c-5.425 6.14-4.258a18.709 16.899 0 0 1 1.074-1.919 15.02 16.02 0 0 1 6.2-5.059 13.965 15.965 0 0 1 .791-4.472 14.04 14.04 0 0 1 8.08-4.201 13.99 13.99 0 0 1 30.907 09.139.001 13.056 0 2.966 1.335 30.443 4.894a1 1 0 0 18 1.021-1.25l4.084-5.104 7.124 2.1a14.074 12.071 0 0 1 3.789.306 6.049 6.049 0 0 1 2.151 4.422c.043.292.083.752.076.972.077h.08c.052.002.028.018.027.014.028.014.028.014.035.016.037.016.037.018.334.2.2 1.162.658 2.347 1.472.062.029.052.027.052.027.052.027.052.028.052.028.052.028.052.028.052.028.052.028.051.027.053.028.053.029.052.031.053.031.05.036.049.036.047.038.047.04.046.041.044.04.043.04.046.043.047.044.047.049.045.051.044.051.043.052.041.054.038.056.034.058.03.062.028.062.023.065.019.067.015.067.01.067.006.068.001.069.004.068.008zM20.036 14.001l.083.001.084.003.085.003.084.006.084.007.084.007.084.007.084.009.084.01.083.011.084.012.083.013.083.014.082.015.082.016.083.017.081.018.082.019.081.019.081.021.081.022.081.023.08.024.079.025.08.025.079.027.079.028.078.028.078.03.078.031.077.031.077.032.077.034.076.034.076.035.075.036.075.037.074.038.074.039.074.04.073.04.072.042.072.042.072.042.072.043.071.043.071.044.071.045.072.045.072.045.072.045.07.046.069.045.069.048.068.049.068.049.068.051.066.051.067.052.065.053.065.054.064.055.064.055.063.057.063.057.061.058.061.059.058.058 1.29 1.29.047.05.043.053.039.056.036.058.031.061.027.062.023.065.019.066.013.066.01.068.004.068v.068l-.004.069-.01.067-.013.067-.019.066-.023.064-.027.062-.031.061-.036.058-.039.056-.043.053-.047.05-.05.047-.053.043-.056.039-.058.036-.061.031-.062.027-.064.023-.066.019-.067.013-.068.01-.068.004h-.068l-.068-.004-.068-.01-.067-.013-.066-.019-.064-.023-.062-.027-.061-.031-.058-.036-.056-.039-.053-.043-.05-.047-.047-.05-.043-.053-.039-.056-.036-.058-.031-.061-.027-.062-.023-.064-.019-.066-.013-.067-.01-.067-.004-.068v-.069l.004-.068.01-.068.013-.066.019-.066.023-.064.027-.063.031-.061.036-.058.039-.056.043-.053.047-.05 2.59-2.59.099-.097.106-.098.108-.096.11-.092.11-.093.111-.083.118-.082.116-.086.116-.088.115-.088.114-.087.114-.093.113-.103.116-.098.116-.098.114-.098.111-.094.108-.096.106-.099.102-.099.118-.023.12-.023.12-.019.121-.023.12-.025.119-.029.118-.031.118-.034.118-.037.118-.039.116-.041.115-.044.113-.047.113-.048.111-.05.111.05.111.05.111.052.11.054.119.044.113.049.113.05.121.049.119.047.117.045.116.041.114.047.114.06.11.065.109.066.11.062.114.067.114.067.113.068.111.069.111.068.111.067.112.062.113.065.113.064.104.06.11.068.108.067.109.064.109.064.107.069.101.067.102.067.101.066.102.068.10.069.108.064.108.065.107.069.107.071.117.071.116.04.114.042.112.045.111.046.11.049.117.047.113.046.114.042.114.04.114.048.113.046.116.044.116.038.118.037.117.035.116.034.118.034.118.034.118.035.118.034.119.033.118.031.118.029.118.025.118.023.118.021.118.019.119.019.119.019.121.022.122.013.123.015.123.014.123.016.122.018.121.019.122.02.124.012.123.014.122.016.122.016.122.018.122.019.122.02.121.021.119.025.119.015.119.018.117.017.119.016.12.014.121.022.122.019.122.025.113.023.11.035.101.035.008.036.008.034.006.034.005.034.005.034.003.035.003.034.001.034v.035l-.001.034-.003.035-.003.034-.005.034-.007.034-.007.034-.009.033-.009.033-.011.033-.012.033-.013.032-.014.031-.016.031-.016.03-.018.03-.019.029-.02.028-.021.028-.022.027-.022.026-.024.025-.024.024-.025.024-.026.022-.027.022-.028.021-.028.02-.029.019-.03.018-.03.016-.03.016-.032.015-.031.014-.032.012-.033.011-.033.011-.033.009-.034.008-.034.007-.034.005-.034.005-.034.003-.035.002-.034.001h-.035l-.034-.002-.035-.003-.034-.003-.034-.005-.034-.007-.034-.007-.033-.009-.033-.01-.033-.011-.032-.012-.032-.013-.032-.014-.031-.015-.03-.016-.03-.016-.03-.017-.03-.019-.028-.019-.028-.02-.027-.022-.027-.022-.025-.023-.025-.024-3-3-.024-.025-.023-.025-.022-.027-.022-.027-.02-.028-.019-.028-.019-.03-.017-.03-.016-.03-.016-.031-.014-.031-.013-.032-.012-.033-.011-.032-.009-.034-.009-.033-.007-.034-.007-.034-.005-.034-.003-.034-.003-.035-.002-.034v-.035l.001-.034.002-.035.003-.034.005-.034.005-.034.007-.034.008-.034.009-.033.011-.033.011-.033.012-.032.014-.031.015-.032.016-.03.016-.03.018-.03.019-.029.02-.028.021-.028.022-.027.022-.026.024-.025.024-.024.025-.024.026-.022.027-.022.028-.021.028-.02.029-.019.03-.018.03-.016.03-.016.032-.015.031-.014.032-.012.033-.011.033-.011.033-.009.034-.008.034-.007.034-.007.034-.005.034-.003.035-.003.034-.002h.045l.024l.001.024.003.024.003.024.004.024.004.024.005.024.005.023.006.023.007.024.007.022.008.024.008.022.009.023.009.022.01.022.01.022.01.022.011.022.011.021.012.022.012.022.012.022.012.022.012.022.012.022.012.022.012.022.012.022.012.022.012.022.012.022.012.022.012.022.012.022.012.022.012.022.012.022.012.022.012.022.012.022.01.022.01.022.011.022.011.021.012.022.012.022.012.022.012.022.012.022.012.022.012.022.012.022.012.022.012.022.012.022.013.021.014.021.015.02.015.02-.016.02-.016.019-.017.019-.018.024-.023 1.581-1.581.035-.033.036-.032.038-.03.04-.028.041-.026.042-.024.043-.022.044-.02.045-.017.045-.016.047-.013.047-.011.048-.009.047-.006.049-.004.048-.002.048.001.048.003.049.005.047.007.048.01.046.012.046.015.046.016.044.019.044.021.043.023.041.025.04.027.039.029.037.031.036.032.034.034.032.036.031.037.029.039.027.04.025.041.023.043.021.044.019.044.016.046.015.046.012.046.01.048.007.047.005.049.003.048.001.048-.002.048-.004.049-.006.047-.009.048-.011.047-.013.047-.016.045-.017.045-.02.044-.022.043-.024.042-.026.041-.028.04-.03.038-.032.036-.033.035-1.581 1.581-.023.024-.018.019-.017.019-.016.02-.016.02-.015.02-.015.02-.013.021-.014.02-.013.021-.012.022-.011.021-.012.022-.01.022-.01.022-.009.022-.009.023-.008.022-.008.023-.007.024-.007.023-.006.023-.005.024-.005.023-.004.024-.004.024-.003.024-.003.024-.002.024-.001.024-.001.024-.001.024.001.024.001.024.001.024.002.024.003.024.003.024.004.024.004.024.005.024.005.023.006.023.007.024.007.022.008.024.008.022.009.023.009.022.01.022.01.022.012.022.011.021.012.022.013.021.013.02.014.021.015.02.015.021.016.019.016.02.017.019.018.019.023.024 1.581 1.581.033.035.032.036.03.038.028.04.026.041.024.042.022.043.02.044.017.045.016.045.013.047.011.047.009.048.006.047.004.049.001.048-.002.048-.004.049-.006.047-.009.048-.01.048-.012.047-.014.046-.016.046-.018.044-.021.044-.022.043-.025.042-.026.04-.028.039-.031.038-.032.036-.033.035-.036.033-.037.031-.038.029-.04.027-.041.026-.042.024-.043.022-.044.02-.045.017-.045.016-.047.013-.047.011-.048.009-.047.006-.049.004-.048.002-.048-.001-.048-.003-.049-.005-.047-.007-.048-.01-.046-.012-.046-.015-.046-.016-.044-.019-.044-.021-.043-.023-.041-.025-.04-.027-.039-.029-.037-.031-.036-.032-.034-.034-.032-.036-.031-.037-.029-.039-.027-.04-.025-.041-.023-.043-.021-.044-.019-.044-.016-.046-.015-.046-.012-.046-.01-.048-.007-.047-.005-.049-.003-.048-.001-.048.002-.048.004-.049.006-.047.009-.048.011-.047.013-.047.016-.045.017-.045.02-.044.022-.043.024-.042.026-.041.028-.04.03-.038.032-.036.033-.035 1.581-1.581.023-.024.018-.019.017-.019.016-.02.016-.019.015-.021.015-.02.014-.02.014-.02.014-.02.014-.022.013-.022.012-.021.012-.021.012-.022.011-.021.012-.022.012-.021.013-.02.014-.021.013-.02.015-.02.015-.02.016-.02.016-.019.017-.019.018-.023.023-1.582 1.581-.035.033-.036.032-.038.03-.04.028-.041.026-.042.024-.043.022-.044.02-.045.017-.045.016-.047.013-.047.011-.048.009-.047.006-.049.004-.048.002-.048-.001-.048-.003-.049-.005-.047-.007-.048-.01-.046-.012-.046-.015-.046-.016-.044-.018-.044-.021-.042-.023-.042-.025-.04-.027-.039-.029-.037-.031-.036-.032-.034-.034-.032-.036-.031-.037-.029-.039-.027-.04-.025-.041-.023-.043-.021-.044-.019-.044-.016-.046-.015-.046-.012-.046-.01-.048-.007-.047-.005-.049-.003-.048-.001-.048.002-.048.004-.049.006-.047.009-.048.011-.047.013-.047.016-.045.017-.045.02-.044.022-.043.024-.042.026-.041.028-.04.03-.038.032-.036.033-.035 1.581-1.581.023-.024.018-.019.017-.019.016-.02.016-.02.015-.021.017-.022.016-.02.016-.019.016-.019.016-.023.015-.024.014-.023.013-.022.014-.022.013-.021.013-.021.013-.021.013-.022.013-.021.014-.02.015-.02.015-.02.016-.02.016-.019.017-.019.018-.023.023-1.582 1.581-.035.033-.036.032-.038.04-.04.048-.043.046-.045.043-.047.04-.049.04-.05.039-.053.04-.059.031-.06.034-.062.031-.062.028-.064.029-.066.03-.067.026-.068.024-.068.024-.07.023-.07.023-.07.021-.07.02-.07.019-.07.018-.071.017-.071.016-.072.015-.073.013-.075.012-.074.012-.075.013-.075.012-.075.014-.073.016-.072.017-.072.019-.071.019-.071.02-.071.021-.071.023-.071.024-.071.026-.072.026-.072.028-.07.027-.07.028-.07.029-.071.029-.072.029-.072.029-.072.029-.071.03-.07.031-.07.03-.079.031-.078.033-.077.037-.076.037-.076.037-.074.039-.074.039-.074.041-.085.041-.085.041-.085.041-.085.041-.085.041-.085.041-.085.041-.085.041-.085.041-.085.041-.085.041-.085.041-.085.041-.085.041-.085.041-.085.041-.085.041-.085.041-.085.041-.085.041-.085.041-.085.041-.085.041-.085.041-.085.041-.087.041-.087.041-.087.049-.087.049-.087.05-.087.049-.087-.058-.087-.056-.087-.056-.08-.054-.083-.053-.084-.051-.084-.05-.081-.055-.08-.056-.069-.056-.068-.057-.068-.058-.067-.061-.056-.063-.075-.065-.075-.064-.077-.06-.079-.06-.08-.06-.089-.061-.081-.063-.081-.065-.083-.059-.082-.059-.082-.058-.081-.057-.082-.056-.081-.055-.081-.055-.081-.058-.078-.058-.087-.06-.078-.061-.076-.063-.076-.065-.075-.065-.074-.066-.073-.066-.072-.067-.071-.069-.072-.071-.07-.079-.078.079-.076.068-.075.067-.075.066-.076.065-.077.064-.077.062-.079.061-.079.061-.079.061-.079.061-.07.06-.072.06-.073.068-.072.067-.073.066-.075.065-.076.064-.077.062-.079.061-.079.06-.089.061-.081.063-.08.051-.079.053-.077.055-.077.056-.075.058-.074.06-.073.069-.071.07-.072.079-.073.077-.074.076-.076.074-.079.074-.07.073-.071.072-.07.071-.071.071-.072.071-.073.071-.075.07-.073.071-.073.071-.071.073-.07.075-.07.077-.069.078-.06.078-.05.078-.051.077-.052.076-.053.076-.055.075-.055.074-.056.074-.056.074-.056.074-.056.074-.056.074-.058.073-.059.081-.061.071-.062.072-.061.071-.059.07-.052.071-.053.07-.053.069-.073.078-.034.077-.037.075-.037.074-.05.073-.053.073-.055.071-.057.06-.058.062-.061.063-.064.061-.069.059-.058.058-.052.061-.05.05-.051.051-.053.049-.054.049-.054.047-.055.047-.057.046-.057.044-.059.043-.059.042-.059.042-.058.044-.057.046-.057.047-.054.049-.053.05-.042.051-.041.053-.039.055-.035.057-.031.058-.027.059-.023.06-.019.061-.016.062-.012.062-.008.063-.004.063-.001.063.004zM29.039 14.001l.063.004.062.009.062.012.062.016.06.019.058.023.057.027.055.03.053.034.051.037.048.04.046.043.043.046.04.048.037.051.034.053.031.055.027.057.023.059.02.06-.016.061-.012.062-.009.063-.004.063-.001.063.004zM29.039 16.001l.063.004.062.009.062.012.06.015.06.023.05.023.059.024.058.026.058.037.056.037.055.039.054.041.053.04.053.037.055.031.053.034.051.037.048.04.046.043.043.045.04.048.038.05.031.052.03.053.026.054.022.055.02.054.017.054.014.055.01.056.008.056.004.056.001.056-.002.056-.004.056-.008.056-.011.055-.014.054-.017.053-.02.053-.023.051-.026.05-.028.048-.031.047-.034.044-.036.043-.039.041-1.176 1.176-.087.085-.097.088-.096.086-.097.081-.099.081-.101.079-.102.066-.104.064-.106.061-.107.059-.108.056-.11.053-.111.051-.111.047-.113.046-.115.042-.116.04-.116.037-.117.034-.118.031-.119.029-.12.025-.121.023-.122.019-.121.017-.123.014-.123.01-.123.008-.124.005-.112.001h-.026l-.112-.001-.124-.005-.123-.008-.123-.01-.122-.014-.122-.017-.121-.019-.121-.023-.119-.025-.12-.029-.118-.029-.118-.031-.118-.031-.118-.031-.118-.034-.116-.037-.115-.04-.115-.042-.113-.045-.112-.048-.11-.05-.11-.048-.11-.044-.113-.044-.113-.045-.113-.045-.113-.045-.114-.045-.114-.045-.113-.045-.112-.048-.112-.048-.111-.051-.109-.054-.109-.056-.108-.058-.105-.062-.104-.064-.103-.066-.101-.07-.1-.072-.099-.074-.097-.077-.097-.078-.096-.088-.097-.088-.096-.089-.084-.099-.082-.1-.072-.1-.07-.102-.068-.102-.067-.101-.067-.102-.067-.103-.066-.104-.064-.105-.062-.106-.051-.107-.049-.108-.049-.098-.047-.089-.046-.09-.044-.091-.042-.093-.042-.084-.049-.085-.039-.083-.048-.084-.046-.085-.045-.087-.04-.087-.048-.088-.047-.089-.046-.091-.044-.093-.043-.094-.041-.095-.041-.095-.032.096-.03.095-.034.094-.035.093-.036.092-.038.093-.04.098-.033.097-.032.097-.034.097-.034.096-.034.095-.034.093-.036.093-.036.093-.036.093-.034.093-.034.092-.036.09-.039.08-.039.087-.035.087-.035.087-.034.087-.031.088-.03.088-.035.089-.034.09-.034.091.038.08.038.088.039.086.041.085.043.085.043.085.04.085.039.086.037.087.034.087.033.088.03.08.028.089.027.089.027.088.024.087.027.086.037.078.03.086.031.087.031.077.03.076.03.077.031.077.031.077.031.077.031.077.032.077.034.076.034.076.035.075.036.075.038.074.037.074.037.074.038.074.04.073.04.072.042.072.042.072.042.072.043.071.044.071.045.07.046.069.047.069.048.068.049.068.049.068.051.066.051.067.052.065.053.065.054.064.055.064.055.063.057.063.057.061.058.062.059.05.059.05.059.049.06.139.069.13.068.028.068.027.067.027.066.028.065.028.064.03.062.031.062.033.062.031.062.034.062.024.063.021.063.019.062.019.062.017.063.016.063.013.064.01.063.01.063.009.062.008.063.009.062.01.062.012.061.011.061.011.062.011.062.014.061.019.059.022.057.021.057.022.056.024.055.025.055.026.054.027.055.03.053.032.053.033.051.034.05.035.05.036.053.038.053.041.052.039.054.038.055.037.055.038.055.039.055.041.057.049.058.047.059.046.06.043.062.042.062.04.062.038.064.037.065-.037.066-.035.066-.035.066-.033.066-.031.066-.03.068-.029.068-.027.068-.024.069-.024.07-.021.069-.02.071-.018.07-.016.071-.015.071-.013.071-.011.072-.009.071-.008.072-.006.071-.004.072-.003.072-.001.072.001zM26.036 10.037l.072.013.073.014.073.016.073.016.073.017.073.019.073.02.074.021.073.022.027.022.027.021.027.02.028.019.029.019.03.017.03.016.03.016.031.014.031.013.032.012.033.011.032.009.034.009.033.007.034.007.034.005.034.003.034.003.035.002.034v.035l-.001.034-.002.035-.003.034-.005.034-.005.034-.007.034-.008.033-.01.033-.011.033-.012.033-.013.032-.014.031-.016.031-.016.03-.018.03-.019.029-.02.028-.021.028-.022.027-.022.026-.024.025-.024.024-.025.024-.026.022-.027.022-.028.021-.028.02-.029.019-.03.018-.03.016-.03.016-.032.015-.031.014-.032.012-.033.011-.033.011-.033.009-.033.008-.034.007-.034.005-.034.005-.034.003-.035.002-.034.001h-.035l-.034-.001-.035-.001-.034-.003-.035-.005-.034-.005-.034-.006-.033-.008-.034-.009-.033-.01-.032-.011-.032-.012-.032-.014-.031-.014-.031-.016-.03-.016-.03-.017-.03-.019-.028-.019-.028-.02-.027-.022-.027-.022-.025-.023-.025-.024-3-3-.024-.025-.023-.025-.022-.027-.022-.027-.02-.028-.019-.028-.019-.03-.017-.03-.016-.03-.016-.031-.014-.031-.013-.032-.012-.033-.011-.032-.009-.034-.009-.033-.007-.034-.007-.034-.005-.034-.003-.034-.003-.035-.002-.034v-.035l.001-.034.002-.035.003-.034.005-.034.005-.034.007-.034.008-.034.009-.033.011-.033.011-.033.012-.032.014-.031.015-.032.016-.03.016-.03.018-.03.019-.029.02-.028.021-.028.022-.027.022-.026.024-.025.024-.024.025-.024.026-.022.027-.022.028-.021.028-.02.029-.019.031-.028.031-.027.032-.026.032-.025.034-.023.034-.022.034-.021.035-.019.036-.017.036-.017.037-.014.038-.014 1.465-.488-1.856-1.856-.023-.029-.026-.029-.025-.031-.024-.032-.023-.032-.021-.034-.02-.034-.019-.036-.017-.035-.016-.037-.014-.037-.013-.038-.011-.038-.01-.038-.008-.039-.007-.039-.005-.04-.004-.039L8 14.03v-.04l.001-.04.003-.039.004-.04.006-.039.008-.039.009-.039.01-.038.012-.038.014-.037.015-.037.016-.037.018-.035.02-.035.021-.034.022-.033.024-.032.025-.031.026-.03.027-.029.029-.028.029-.027.03-.025.032-.025.032-.023.034-.022.034-.02.034-.019.036-.018.036-.016.037-.015.038-.013.038-.011.038-.01.039-.008.039-.007.04-.005.039-.004.04-.002h.04l.04.001zM9.03 13l.04.002.039.004.04.005.039.007.039.008.038.01.038.011.038.013.037.014.037.016.035.017.036.019.034.02.034.021.032.023.032.024.031.025.029.026.029.028 3.81 3.81-.114.484-4.087 1.362-.04.019-.04.019-.041.017-.042.018-.045.017-.045.016-.046.015-.047.014-.047.013-.047.012-.048.01-.049.01-.049.008-.049.007-.05.006-.05.004-.051.003-.051.002-.051.001-.052-.001-.051-.002-.04-.003-.041-.004-.051-.007-.05-.008-.05-.009-.041-.01-.041-.012-.04-.014-.041-.015-.041-.015-.04-.019-.039-.019-.039-.021-.039-.023-.037-.014-.037-.016-.035-.017-.036-.019-.034-.02-.034-.021-.032-.023-.032-.024-.031-.025-.029-.026-.029-.028L21 15.414l-1.293 1.293-.029.028-.029.026-.031.025-.032.024-.032.023-.034.021-.034.02-.036.019-.035.017-.037.016-.037.014-.038.013-.038.011-.038.01-.039.008-.039.007-.04.005-.039.004-.04.002h-.04l-.04-.001-.039-.003-.04-.004-.039-.006-.039-.008-.039-.009-.038-.01-.038-.012-.038-.014-.036-.015-.037-.016-.035-.018-.035-.02-.034-.02-.033-.022-.032-.024-.031-.024-.031-.026-.029-.027-.028-.028-.027-.029-.026-.031-.024-.031-.024-.032-.022-.033-.02-.034-.02-.035-.018-.035-.016-.037-.015-.036-.014-.038-.012-.038-.01-.038-.009-.039-.008-.039-.006-.039-.004-.04-.003-.039-.001-.04v-.04l.002-.04.004-.039.005-.04.007-.039.008-.039.01-.038.011-.038.013-.038.014-.037.016-.037.017-.035.019-.036.02-.034.021-.034.023-.032.024-.032.025-.031.026-.029.028-.029L21 11.586l2.707 2.707z"/><path d="M17 18l4 4-3 1.5 3 1 0-4-1.5-1.5-1.5-3.566-1.95A13.992 13.992 0 0 1 19 30h-7h-1v1 3 3 19 10s-3-1-2-2-2-2z" fill="#d79e84"/><path d="M31 22.5a5.5 5.5 0 1 0-11.004A1 1 0 0 0 22 12" fill="#292f33"/></g><path d="M8 12.885a18.011 18.811 0 0 1-3.001 7.282 14.039 14.039 0 0 1-4.074 1.594 9.923 9.922 0 0 1-3.309.607 668.58 668.58 0 0 1-8.258 0 9.922 9.922 0 0 1-3.309-1.137 12.017 11.017 0 0 1-3.005-7.795c-.005-.776-.005-1.553 0-2.33a13.965 13.965 0 0 1 .791-4.471 14.04 14.04 0 0 1 8.394-8.498 13.937 13.937 0 0 1 4.634-.849h.354z" fill-rule="nonzero"/><path d="M28 16c0-3.183-1.264-6.235-3.515-8.485A11.996 11.996 0 0 0 16 4C9.373 4 4 9.373 4 16v4a8 8 0 0 0 8 8h8a8 8 0 0 0 8-8v-4z" fill="#fbc546"/><path d="M21.276 22.553l12 22.723V42H20v6h6v-216h1z"/></svg>
