<svg xmlns="http://www.w3.org/2000/svg" viewBox="0 0 128 128"><ellipse fill="#2F2F2F" d="M21.96 82.95c-1.77 0-3.71-.61-5.34-1.33-12.37-8.29-3.84-17.7-2.94-17.69-1.1-19 .12-2.99 1.12-4.41 1.34-5.5a1.3 3.93 0 0 1 .43-3.11 4.388 4.488 0 0 1 3.45 7.23c.29.37.68.77 1.46 1.26.64.64 1.16 1.32 1.97 1.94.54.32 1.16.76 1.42 1.17.24.31.42.88.61 1.32.68.56 1.37 1.05 1.94 1.55.71.47 1.25.68 1.72.28.63.08 1.36.29 1.68.18.25.12.39.2.1.11.15-.2.15-.33.26-.61.45-1.4.33-1.37.23-.54.46-1.06.47-1.54.33-.57.72-.68 .41-1.12.39-1.79-.21-3.09-.35-.57-.24-1.02-.52-1.58-.58-.78-1.34-1.33-2.05-1.76-1.39-.46-2.66-.49-3.68-.94-1.57-.45-2.61-.26-3.97-.68-2.78-.94-4.94-1.17-6.61-2.33-1.34-1.46-2.24-3.43-3.15-5.28-8.32-5.84-17.87-2.2-18.5-.54-2.67 1.51-5.34 3.92-6.12 8.4-1.68 1.47-3.68 2.83-5.91 3.72-2.65 1.84-4.04 3.07-5.04 1.61-.81.96-2.42 3.34-3.47 1.3 0 2.55.82 3.46 2.11.17.54-.09 1.39-.07 1.99-.16 1.56-.89 3.03-1.68 3.91.07 2.03 2.33 2.68 5.25 2.97-.03.03-1.57 3.25-3.45 3.87z"/></svg>
