<svg xmlns="http://www.w3.org/2000/svg" xmlns:xlink="http://www.w3.org/1999/xlink" width="128" height="128" viewBox="0 0 128 128"><path fill="#2F2F2F" d="M105.24 57.98c-.64-1.65-1.51-4.15-1.89-6.17 1.39-10.02 12.77-15.34 12.11-.55 16.24 4.88 19.49 11.18 3.54 7.65-7.34 9.7-8.42 1.78a2.729 2.727 0 0 1-.46-3.11 5.28 5.08 0 0 1 .1-.12c-17.11-4.34-19.25-9.66-21.8-31.91-.03-13.82 1.27-22.88 11.63-2.12 2.38-4.23 5.07-7.21 5.64-2.5-.38-3.74-1.7-5.52-1.83-2.02-.56-4.3.2-4.99 2.23-1.35 1.82-3.06 3.81-5.33 4.71-3.54 3.32-10.84 4.64-14.58 6.43-.52.11-1.18.25-1.66.18-3.14 0-5.81-3.11-9.34-3.78-5.36-2.37-16.7-4.2-18.51-5.2-3.53 2.98-5.29 9.29-4.97 13.49-2.24 2.56 1.53 5.48 6.49 5.37 9.36M92.24 59.41c1.23 1.11 1.74 2.5 1.26 4.25-.82 3.53-1.81 6.18-1 2.38-2.05-.07-4.02 1.37-4.08 4.08l3.01 22.01c2.81 1.77 4.55 3.31 6.38 3.29 2.75 0 6.03-1.73 6.56-2.25.71-.63 1.36-1.82 1.36-2.65.84-.95 2.1-1.33 3.44-.35.27-.58.52-.98.72.14.37 4.53 6.59 7.94 9.33 11.78 2.92 8.25 3.7 17.05 5.25 23.97-1.81 9.59-4.84 21-14.11 21.26-5.05 5.82-5.05 12.66-15.21 18.3-18.41-5.45-8.6-13.71-14.4-28.38-15.04-31.22z" fill="#ed6c30"/></svg></svg>
